<?xml version='1.0' encoding='UTF-8'?>
<svg viewBox="-2.8421709430404007E-14 -5.6843418860808015E-14 200.00000000000009 200.00000000000009" preserveAspectRatio="xMidYMid meet" xmlns="http://www.w3.org/2000/svg" xmlns:svg="http://www.w3.org/2000/svg"><g transform="translate(0.0, 0.0)"><path fill="#7b98af" d="M 123.2367475229405,100.0 a 23.236747522940508 23.236747522940508 0.0 1 1 -23.236747522940508,-23.236747522940508 a 23.236747522940508 23.236747522940508 0.0 0 1 23.236747522940508,23.236747522940508 z M 104.61646581650739,100.0 a 4.616465816507386 4.616465816507386 0.0 1 0 -4.616465816507386,4.616465816507386 a 4.616465816507386 4.616465816507386 0.0 0 0 4.616465816507386,-4.616465816507386 z"/><path fill="#939ca3" d="M 126.27297448479149,100.0 a 26.272974484791483 26.272974484791483 0.0 1 1 -26.272974484791483,-26.272974484791483 a 26.272974484791483 26.272974484791483 0.0 0 1 26.272974484791483,26.272974484791483 z M 123.23674752294052,100.0 a 23.236747522940508 23.236747522940508 0.0 1 0 -23.236747522940508,23.236747522940508 a 23.236747522940508 23.236747522940508 0.0 0 0 23.236747522940508,-23.236747522940508 z"/><path fill="#406e9c" d="M 141.72030906471676,100.0 a 41.72030906471675 41.72030906471675 0.0 1 1 -41.72030906471675,-41.72030906471675 a 41.72030906471675 41.72030906471675 0.0 0 1 41.72030906471675,41.72030906471675 z M 126.27297448479149,100.0 a 26.272974484791483 26.272974484791483 0.0 1 0 -26.272974484791483,26.272974484791483 a 26.272974484791483 26.272974484791483 0.0 0 0 26.272974484791483,-26.272974484791483 z"/><path fill="#ababab" d="M 178.62414261163528,100.0 a 78.62414261163528 78.62414261163528 0.0 1 1 -78.62414261163528,-78.62414261163528 a 78.62414261163528 78.62414261163528 0.0 0 1 78.62414261163528,78.62414261163528 z M 175.37040776889432,100.0 a 75.37040776889432 75.37040776889432 0.0 1 0 -75.37040776889432,75.37040776889432 a 75.37040776889432 75.37040776889432 0.0 0 0 75.37040776889432,-75.37040776889432 z"/><path fill="#152338" d="M 183.38463123134596,100.0 a 83.38463123134596 83.38463123134596 0.0 1 1 -83.38463123134596,-83.38463123134596 a 83.38463123134596 83.38463123134596 0.0 0 1 83.38463123134596,83.38463123134596 z M 178.62414261163528,100.0 a 78.62414261163528 78.62414261163528 0.0 1 0 -78.62414261163528,78.62414261163528 a 78.62414261163528 78.62414261163528 0.0 0 0 78.62414261163528,-78.62414261163528 z"/><path fill="#426272" d="M 197.22410576078806,100.0 a 97.22410576078805 97.22410576078805 0.0 1 1 -97.22410576078805,-97.22410576078805 a 97.22410576078805 97.22410576078805 0.0 0 1 97.22410576078805,97.22410576078805 z M 183.38463123134596,100.0 a 83.38463123134596 83.38463123134596 0.0 1 0 -83.38463123134596,83.38463123134596 a 83.38463123134596 83.38463123134596 0.0 0 0 83.38463123134596,-83.38463123134596 z"/><path fill="#316174" d="M 100.0,100.0 l 3.9434959242306813 -2.4001242739819144 a 4.616465816507386 4.616465816507386 0.0 0 1 0.12385488024464619,4.583794136464592 l -4.0673508044753275 -2.1836698624826774 z"/><path fill="#7b98af" d="M 100.0,100.0 l 4.0673508044753275 2.1836698624826774 a 4.616465816507386 4.616465816507386 0.0 0 1 -2.6073394454503416,2.19584192155207 l -1.460011359024986 -4.379511784034747 z"/><path fill="#939ca3" d="M 100.0,100.0 l 1.460011359024986 4.379511784034747 a 4.616465816507386 4.616465816507386 0.0 0 1 -3.860247755999945,-0.43608410324511837 l 2.400236396974959 -3.943427680789629 z"/><path fill="#406e9c" d="M 100.0,100.0 l -2.400236396974959 3.943427680789629 a 4.616465816507386 4.616465816507386 0.0 0 1 -0.8335471445633216,-7.238029423255226 l 3.2337835415382807 3.2946017424655962 z"/><path fill="#80888e" d="M 100.0,100.0 l -3.2337835415382834 -3.294601742465593 a 4.616465816507386 4.616465816507386 0.0 0 1 5.224143715554954,-0.8707581474682327 l -1.9903601740166703 4.165359889933826 z"/><path fill="#6e6e6e" d="M 100.0,100.0 l 1.9903601740166703 -4.165359889933826 a 4.616465816507386 4.616465816507386 0.0 0 1 1.8869975425447265,1.6597953282425895 l -3.877357716561397 2.5055645616912363 z"/><path fill="#ababab" d="M 100.0,100.0 l 3.877357716561397 -2.5055645616912363 a 4.616465816507386 4.616465816507386 0.0 0 1 0.06613820766928447,0.1054402877093219 l -3.9434959242306813 2.4001242739819144 z"/><path fill="#316174" d="M 86.93434808855591,139.6216219832614 l -5.410440833917044 16.407175312584105 a 58.996543369541 58.996543369541 0.0 0 1 -39.1895389330035,-43.56817721940782 l 16.886497196469126 -3.6489017784570166 a 41.72030906471675 41.72030906471675 0.0 0 0 27.713482570451415,30.809903685280734 z"/><path fill="#7b98af" d="M 59.220865518104496,108.81171829798069 l -16.88649719646912 3.6489017784570166 a 58.996543369541 58.996543369541 0.0 0 1 7.169807192545992,-42.96904250453994 l 14.786928952225345 8.933924329040739 a 41.72030906471675 41.72030906471675 0.0 0 0 -5.070238948302219,30.386216397042187 z"/><path fill="#939ca3" d="M 64.29110446640672,78.42550190093849 l -14.786928952225347 -8.933924329040742 a 58.996543369541 58.996543369541 0.0 0 1 41.16903862687437,-27.74621854663495 l 2.731206416632748 17.05897954934381 a 41.72030906471675 41.72030906471675 0.0 0 0 -29.11331609128177,19.62116332633188 z"/><path fill="#406e9c" d="M 93.4044205576885,58.80433857460661 l -2.7312064166327477 -17.05897954934381 a 58.996543369541 58.996543369541 0.0 0 1 68.0888348375015,63.50951769981585 l -17.207566213264606 -1.5388101803994303 a 41.72030906471675 41.72030906471675 0.0 0 0 -48.150062207604144,-44.91172797007261 z"/><path fill="#80888e" d="M 141.55448276529262,103.71606654467921 l 17.207566213264595 1.5388101803994323 a 58.996543369541 58.996543369541 0.0 0 1 -43.60859662312568,51.76235761039047 l -4.437456475705773 -16.696623963586262 a 41.72030906471675 41.72030906471675 0.0 0 0 30.83848688556686,-36.604543827203635 z"/><path fill="#6e6e6e" d="M 110.71599587972578,140.32061037188285 l 4.437456475705776 16.696623963586266 a 58.996543369541 58.996543369541 0.0 0 1 -32.11235045599817,-0.510704582096988 l 4.966153615167421 -16.547071947197963 a 41.72030906471675 41.72030906471675 0.0 0 0 22.708740365124967,0.3611525657086858 z"/><path fill="#ababab" d="M 88.00725551460081,139.95945780617416 l -4.966153615167425 16.54707194719796 a 58.996543369541 58.996543369541 0.0 0 1 -1.5171946447945146,-0.47773245752661 l 5.410440833917043 -16.40717531258411 a 41.72030906471675 41.72030906471675 0.0 0 0 1.072907426044896,0.3378358229127585 z"/><path fill="#316174" d="M 42.384749169492046,112.69153266125825 l -15.990501316735124 3.522400177138091 a 75.37040776889432 75.37040776889432 0.0 0 1 22.331817636298997,-71.45596400142314 l 11.13901961997886 12.001069838732555 a 58.996543369541 58.996543369541 0.0 0 0 -17.480335939542734,55.93249398555249 z"/><path fill="#7b98af" d="M 59.86508510903478,56.75903867570575 l -11.139019619978868 -12.001069838732546 a 75.37040776889432 75.37040776889432 0.0 0 1 51.887099764559196,-20.125882405156638 l -0.1332072495597174 16.373322546052613 a 58.996543369541 58.996543369541 0.0 0 0 -40.61487289502061,15.753629697836573 z"/><path fill="#939ca3" d="M 100.47995800405538,41.0054089778692 l 0.13320724955971386 -16.373322546052616 a 75.37040776889432 75.37040776889432 0.0 0 1 57.31847138379288,27.15356047949481 l -12.585373899555883 10.474340035381111 a 58.996543369541 58.996543369541 0.0 0 0 -44.86630473379672,-21.254577968823305 z"/><path fill="#406e9c" d="M 145.34626273785204,62.259986946692464 l 12.58537389955589 -10.474340035381111 a 75.37040776889432 75.37040776889432 0.0 0 1 -25.408910657900087,116.2067840064845 l -7.06540830611722 -14.771033844530308 a 58.996543369541 58.996543369541 0.0 0 0 19.888945064461417,-90.96141012657309 z"/><path fill="#80888e" d="M 125.45731767339068,153.2213970732656 l 7.0654083061172175 14.771033844530313 a 75.37040776889432 75.37040776889432 0.0 0 1 -85.29730874974106,-14.182192294674996 l 11.465028352531661 -11.690019685357903 a 58.996543369541 58.996543369541 0.0 0 0 66.76687209109218,11.101178135502586 z"/><path fill="#6e6e6e" d="M 58.690445582298494,142.120218937763 l -11.465028352531665 11.6900196853579 a 75.37040776889432 75.37040776889432 0.0 0 1 -20.367305551338514,-35.61786274738269 l 15.889729095831164 -3.9522075640718555 a 58.996543369541 58.996543369541 0.0 0 0 15.942604808039015,27.88005062609664 z"/><path fill="#ababab" d="M 42.74784077425949,114.24016831166637 l -15.889729095831163 3.9522075640718555 a 75.37040776889432 75.37040776889432 0.0 0 1 -0.46386382567139783,-1.9784430373418846 l 15.990501316735127 -3.522400177138092 a 58.996543369541 58.996543369541 0.0 0 0 0.3630916047674333,1.5486356504081211 z"/><path fill="#316174" d="M 142.83393778441385,187.27989754156374 l 1.2229732555326074 2.491972159463679 a 100.0 100.0 0.0 0 1 -99.12836673310873,-6.3025054538015794 l 1.5287253660366673 -2.3170212736455795 a 97.22410576078805 97.22410576078805 0.0 0 0 96.37666811153946,6.127554567983481 z"/><path fill="#7b98af" d="M 46.45726967287439,181.1523429735803 l -1.5287253660366535 2.3170212736455817 a 100.0 100.0 0.0 0 1 -42.26594659422708,-60.54710179469009 l 2.7019833426942057 -0.636297762916989 a 97.22410576078805 97.22410576078805 0.0 0 0 41.09268861756953,58.8663782839615 z"/><path fill="#939ca3" d="M 5.364581055304853,122.28596468961877 l -2.7019833426942026 0.6362977629169837 a 100.0 100.0 0.0 0 1 16.96542962108141,-82.42306925148803 l 2.2310409591850373 1.6516794682167415 a 97.22410576078805 97.22410576078805 0.0 0 0 -16.494487237572244,80.1350920203543 z"/><path fill="#406e9c" d="M 21.85906829287714,42.15087266926441 l -2.2310409591850457 -1.6516794682167497 a 100.0 100.0 0.0 0 1 157.77747921333193,-3.811021133896296 l -2.1486949970716864 1.7574693843277274 a 97.22410576078805 97.22410576078805 0.0 0 0 -153.3977432570752,3.705231217785318 z"/><path fill="#80888e" d="M 175.25681154995232,38.44564145147913 l 2.148694997071668 -1.757469384327727 a 100.0 100.0 0.0 0 1 8.556673908737682,114.40491485555339 l -2.38621921517246 -1.4182900565229204 a 97.22410576078805 97.22410576078805 0.0 0 0 -8.319149690636891,-111.22915541470275 z"/><path fill="#6e6e6e" d="M 183.5759612405892,149.67479686618188 l 2.3862192151724693 1.418290056522917 a 100.0 100.0 0.0 0 1 -39.5011240994003,37.45842487834246 l -1.289709786873253 -2.4580963148203665 a 97.22410576078805 97.22410576078805 0.0 0 0 38.404614671101086,-36.41861862004502 z"/><path fill="#ababab" d="M 145.17134656948812,186.0934154862269 l 1.289709786873253 2.4580963148203616 a 100.0 100.0 0.0 0 1 -2.404145316414912,1.2203578999801485 l -1.222973255532608 -2.4919721594636712 a 97.22410576078805 97.22410576078805 0.0 0 0 2.337408785074267,-1.186482055336839 z"/></g></svg>