<?xml version='1.0' encoding='UTF-8'?>
<svg viewBox="-191.79980071706404 -145.3845711003941 550.3863807388586 542.2676273230156" preserveAspectRatio="xMidYMid meet" xmlns="http://www.w3.org/2000/svg" xmlns:svg="http://www.w3.org/2000/svg"><g transform="translate(0.0, 0.0)"><path fill="#b8def1" d="M 116.68214067848412,100.0 a 16.682140678484114 16.682140678484114 0.0 1 1 -16.682140678484114,-16.682140678484114 a 16.682140678484114 16.682140678484114 0.0 0 1 16.682140678484114,16.682140678484114 z M 100.02401976309825,100.0 a 0.02401976309824981 0.02401976309824981 0.0 1 0 -0.02401976309824981,0.02401976309824981 a 0.02401976309824981 0.02401976309824981 0.0 0 0 0.02401976309824981,-0.02401976309824981 z"/><path fill="#96344b" d="M 118.92838621759375,100.0 a 18.928386217593747 18.928386217593747 0.0 1 1 -18.928386217593747,-18.928386217593747 a 18.928386217593747 18.928386217593747 0.0 0 1 18.928386217593747,18.928386217593747 z M 116.68214067848412,100.0 a 16.682140678484114 16.682140678484114 0.0 1 0 -16.682140678484114,16.682140678484114 a 16.682140678484114 16.682140678484114 0.0 0 0 16.682140678484114,-16.682140678484114 z"/><path fill="#f1ddf1" d="M 121.03173737373213,100.0 a 21.031737373732128 21.031737373732128 0.0 1 1 -21.031737373732128,-21.031737373732128 a 21.031737373732128 21.031737373732128 0.0 0 1 21.031737373732128,21.031737373732128 z M 118.92838621759375,100.0 a 18.928386217593747 18.928386217593747 0.0 1 0 -18.928386217593747,18.928386217593747 a 18.928386217593747 18.928386217593747 0.0 0 0 18.928386217593747,-18.928386217593747 z"/><path fill="#b41e9a" d="M 145.12319969198316,100.0 a 45.12319969198316 45.12319969198316 0.0 1 1 -45.12319969198316,-45.12319969198316 a 45.12319969198316 45.12319969198316 0.0 0 1 45.12319969198316,45.12319969198316 z M 143.9042667598145,100.0 a 43.90426675981449 43.90426675981449 0.0 1 0 -43.90426675981449,43.90426675981449 a 43.90426675981449 43.90426675981449 0.0 0 0 43.90426675981449,-43.90426675981449 z"/><path fill="#d700a9" d="M 169.0350904178099,100.0 a 69.0350904178099 69.0350904178099 0.0 1 1 -69.0350904178099,-69.0350904178099 a 69.0350904178099 69.0350904178099 0.0 0 1 69.0350904178099,69.0350904178099 z M 145.12319969198316,100.0 a 45.12319969198316 45.12319969198316 0.0 1 0 -45.12319969198316,45.12319969198316 a 45.12319969198316 45.12319969198316 0.0 0 0 45.12319969198316,-45.12319969198316 z"/><path fill="#d87e47" d="M 173.6966704645625,100.0 a 73.6966704645625 73.6966704645625 0.0 1 1 -73.6966704645625,-73.6966704645625 a 73.6966704645625 73.6966704645625 0.0 0 1 73.6966704645625,73.6966704645625 z M 169.0350904178099,100.0 a 69.0350904178099 69.0350904178099 0.0 1 0 -69.0350904178099,69.0350904178099 a 69.0350904178099 69.0350904178099 0.0 0 0 69.0350904178099,-69.0350904178099 z"/><path fill="#782485" d="M 100.0,100.0 l -0.021997932842711936 0.009645722883412053 a 0.02401976309824981 0.02401976309824981 0.0 0 1 -0.0017165126373508977,-0.005828119594806662 l 0.023714445480062834 -0.0038176032886053906 z"/><path fill="#b8def1" d="M 100.0,100.0 l -0.023714445480062834 0.0038176032886053906 a 0.02401976309824981 0.02401976309824981 0.0 0 1 0.009777848730808222,-0.02338084152629777 l 0.013936596749254612 0.019563238237692376 z"/><path fill="#96344b" d="M 100.0,100.0 l -0.013936596749254612 -0.019563238237692376 a 0.02401976309824981 0.02401976309824981 0.0 0 1 0.01247008666702916,-0.004411714681443343 l 0.0014665100822254529 0.02397495291913572 z"/><path fill="#f1ddf1" d="M 100.0,100.0 l -0.0014665100822254529 -0.02397495291913572 a 0.02401976309824981 0.02401976309824981 0.0 0 1 0.024658725935797942,0.030225564337016713 l -0.02319221585357249 -0.006250611417880994 z"/><path fill="#e71441" d="M 100.0,100.0 l 0.02319221585357249 0.006250611417880994 a 0.02401976309824981 0.02401976309824981 0.0 0 1 -0.0012990487475646982,0.003630595662453966 l -0.02189316710600779 -0.00988120708033496 z"/><path fill="#804680" d="M 100.0,100.0 l 0.02189316710600779 0.00988120708033496 a 0.02401976309824981 0.02401976309824981 0.0 0 1 -0.025570892775278076,0.013855333383633955 l 0.0036777256692702865 -0.023736540463968916 z"/><path fill="#b41e9a" d="M 100.0,100.0 l -0.0036777256692702865 0.023736540463968916 a 0.02401976309824981 0.02401976309824981 0.0 0 1 -0.018320207173441648,-0.014090817580556863 l 0.021997932842711936 -0.009645722883412053 z"/><path fill="#782485" d="M 89.65464423562767,81.68859396260875 l -10.103987373691897 -17.884181038366805 a 41.572781462599764 41.572781462599764 0.0 0 1 9.736094902354697,-3.9730881672362663 l 5.293398627721545 19.84727747649132 a 21.031737373732128 21.031737373732128 0.0 0 0 -4.925506156384345,2.00999172911175 z"/><path fill="#b8def1" d="M 94.58015039201202,79.678602233497 l -5.293398627721546 -19.84727747649132 a 41.572781462599764 41.572781462599764 0.0 0 1 41.96741191268654,12.75565987821166 l -15.44263172833475 13.544726559212366 a 21.031737373732128 21.031737373732128 0.0 0 0 -21.23138155663025,-6.453108960932704 z"/><path fill="#96344b" d="M 115.81153194864225,86.13171119442971 l 15.442631728334751 -13.544726559212366 a 41.572781462599764 41.572781462599764 0.0 0 1 9.773492620796992,20.70275626033633 l -20.27169862650758 3.315528171627367 a 21.031737373732128 21.031737373732128 0.0 0 0 -4.944425722624164,-10.47355787275133 z"/><path fill="#f1ddf1" d="M 120.75595767126643,96.60526906718104 l 20.271698626507582 -3.315528171627368 a 41.572781462599764 41.572781462599764 0.0 0 1 -47.74251938011726,47.73716213553633 l 3.3178029896606596 -20.271326438657205 a 21.031737373732128 21.031737373732128 0.0 0 0 24.15301776394902,-24.150307525251755 z"/><path fill="#e71441" d="M 96.6029399073174,120.75557659243279 l -3.3178029896606596 20.271326438657212 a 41.572781462599764 41.572781462599764 0.0 0 1 -6.47845906278333,-1.6031486523909741 l 6.518799135571042 -19.47921328213443 a 21.031737373732128 21.031737373732128 0.0 0 0 3.277462916872947,0.8110354958681931 z"/><path fill="#804680" d="M 93.32547699044446,119.94454109656459 l -6.518799135571044 19.479213282134427 a 41.572781462599764 41.572781462599764 0.0 0 1 -28.321764067677762,-41.61322355649063 l 20.5125369592489 1.0818131799214399 a 21.031737373732128 21.031737373732128 0.0 0 0 14.328026243999904,21.052197094434764 z"/><path fill="#b41e9a" d="M 78.99745074644456,98.89234400212983 l -20.512536959248905 -1.0818131799214392 a 41.572781462599764 41.572781462599764 0.0 0 1 21.06574307474012,-34.00611789796645 l 10.103987373691897 17.884181038366805 a 21.031737373732128 21.031737373732128 0.0 0 0 -10.657193489183111,17.203750039521083 z"/><path fill="#782485" d="M 58.60685000456519,96.13952179225001 l -2.3214112028222464 -0.21650339152034476 a 43.90426675981449 43.90426675981449 0.0 0 1 2.421400926792521,-10.838096493454918 l 2.1928255077151277 0.7920479681448018 a 41.572781462599764 41.572781462599764 0.0 0 0 -2.2928152316854025,10.26255191683046 z"/><path fill="#b8def1" d="M 60.89966523625059,85.87696987541955 l -2.1928255077151335 -0.792047968144801 a 43.90426675981449 43.90426675981449 0.0 0 1 36.35295304484416,-28.710361644600027 l 0.2623439898693789 2.316678510736409 a 41.572781462599764 41.572781462599764 0.0 0 0 -34.42247152699841,27.18573110200842 z"/><path fill="#96344b" d="M 95.322136763249,58.69123877341113 l -0.26234398986938157 -2.316678510736407 a 43.90426675981449 43.90426675981449 0.0 0 1 23.844602776753742,3.9995836758967704 l -1.0038960568226472 2.1042852464018225 a 41.572781462599764 41.572781462599764 0.0 0 0 -22.578362730061713,-3.787190411562186 z"/><path fill="#f1ddf1" d="M 117.90049949331072,62.47842918497332 l 1.0038960568226472 -2.1042852464018234 a 43.90426675981449 43.90426675981449 0.0 0 1 12.630583601471951,70.1730282648383 l -1.6746285877443832 -1.6221722424692473 a 41.572781462599764 41.572781462599764 0.0 0 0 -11.959851070550215,-66.44657077596722 z"/><path fill="#e71441" d="M 129.86035056386092,128.92499996094054 l 1.67462858774438 1.6221722424692469 a 43.90426675981449 43.90426675981449 0.0 0 1 -5.294403356855703,4.65249855750719 l -1.3934754221178522 -1.8692377962907543 a 41.572781462599764 41.572781462599764 0.0 0 0 5.013250191229176,-4.405433003685683 z"/><path fill="#804680" d="M 124.84710037263176,133.33043296462623 l 1.3934754221178527 1.8692377962907536 a 43.90426675981449 43.90426675981449 0.0 0 1 -53.15718933851321,-0.5142191269446592 l 1.4293756247293956 -1.8419307844101809 a 41.572781462599764 41.572781462599764 0.0 0 0 50.334338291665965,0.4869121150640865 z"/><path fill="#b41e9a" d="M 74.51276208096579,132.84352084956214 l -1.4293756247293907 1.8419307844101813 a 43.90426675981449 43.90426675981449 0.0 0 1 -16.797947654493438,-38.76243323324273 l 2.3214112028222402 0.21650339152034803 a 41.572781462599764 41.572781462599764 0.0 0 0 15.90591207640059,36.7039990573122 z"/><path fill="#782485" d="M 100.24423536447225,173.6962657578324 l 0.08717087536552978 26.303185090180744 a 100.0 100.0 0.0 0 1 -25.101691050819745,-3.115845473404814 l 6.515409640699012 -25.483613987496057 a 73.6966704645625 73.6966704645625 0.0 0 0 18.499110534755204,2.296274370720127 z"/><path fill="#b8def1" d="M 81.74512482971704,171.39999138711227 l -6.515409640699011 25.483613987496064 a 100.0 100.0 0.0 0 1 -73.05215469202548,-76.12859803468083 l 25.73055862208004 -5.459257975725379 a 73.6966704645625 73.6966704645625 0.0 0 0 53.83700571064445,56.10424202291014 z"/><path fill="#96344b" d="M 27.90811911907258,115.29574936420214 l -25.73055862208004 5.45925797572537 a 100.0 100.0 0.0 0 1 3.8450782889508446,-54.93476127764226 l 24.719175008841745 8.990413312638793 a 73.6966704645625 73.6966704645625 0.0 0 0 -2.8336946757125503,40.485089989278094 z"/><path fill="#f1ddf1" d="M 30.74181379478513,74.81065937492403 l -24.719175008841738 -8.990413312638788 a 100.0 100.0 0.0 0 1 156.32485832110697,-44.00457700197129 l -16.39946762116483 20.565082212142634 a 73.6966704645625 73.6966704645625 0.0 0 0 -115.2062156911004,32.429908102467444 z"/><path fill="#e71441" d="M 145.9480294858855,42.38075127245659 l 16.399467621164813 -20.56508221214264 a 100.0 100.0 0.0 0 1 11.70739957333912,10.984090778977993 l -19.478903510970603 17.675900618076447 a 73.6966704645625 73.6966704645625 0.0 0 0 -8.62796368353333,-8.0949091849118 z"/><path fill="#804680" d="M 154.57599316941887,50.475660457368384 l 19.478903510970603 -17.675900618076458 a 100.0 100.0 0.0 0 1 10.476786661015609,120.62677393811515 l -22.234647231142297 -14.052957238833201 a 73.6966704645625 73.6966704645625 0.0 0 0 -7.721042940843915,-88.8979160812055 z"/><path fill="#b41e9a" d="M 162.29703611026278,139.37357653857387 l 22.2346472311423 14.052957238833208 a 100.0 100.0 0.0 0 1 -84.20027710156731,46.57291707060606 l -0.08717087536552981 -26.303185090180747 a 73.6966704645625 73.6966704645625 0.0 0 0 62.052800745790535,-34.32268921925852 z"/></g></svg>