<?xml version='1.0' encoding='UTF-8'?>
<svg viewBox="0.0 0.0 200.0 200.0" preserveAspectRatio="xMidYMid meet" xmlns="http://www.w3.org/2000/svg" xmlns:svg="http://www.w3.org/2000/svg"><g transform="translate(0.0, 0.0)"><circle fill="#f45fec" r="0.015468726037362756" cx="100.0" cy="100.0"/><path fill="#de1d59" d="M 100.03621111382756,100.0 a 0.03621111382756911 0.03621111382756911 0.0 1 1 -0.03621111382756911,-0.03621111382756911 a 0.03621111382756911 0.03621111382756911 0.0 0 1 0.03621111382756911,0.03621111382756911 z M 100.01546872603735,100.0 a 0.015468726037362756 0.015468726037362756 0.0 1 0 -0.015468726037362756,0.015468726037362756 a 0.015468726037362756 0.015468726037362756 0.0 0 0 0.015468726037362756,-0.015468726037362756 z"/><path fill="#9f3ebf" d="M 100.06347289444867,100.0 a 0.06347289444865875 0.06347289444865875 0.0 1 1 -0.06347289444865875,-0.06347289444865875 a 0.06347289444865875 0.06347289444865875 0.0 0 1 0.06347289444865875,0.06347289444865875 z M 100.03621111382758,100.0 a 0.03621111382756911 0.03621111382756911 0.0 1 0 -0.03621111382756911,0.03621111382756911 a 0.03621111382756911 0.03621111382756911 0.0 0 0 0.03621111382756911,-0.03621111382756911 z"/><path fill="#9d081a" d="M 100.09868206011049,100.0 a 0.09868206011048913 0.09868206011048913 0.0 1 1 -0.09868206011048913,-0.09868206011048913 a 0.09868206011048913 0.09868206011048913 0.0 0 1 0.09868206011048913,0.09868206011048913 z M 100.06347289444867,100.0 a 0.06347289444865875 0.06347289444865875 0.0 1 0 -0.06347289444865875,0.06347289444865875 a 0.06347289444865875 0.06347289444865875 0.0 0 0 0.06347289444865875,-0.06347289444865875 z"/><path fill="#f45fec" d="M 100.1434613125964,100.0 a 0.14346131259640096 0.14346131259640096 0.0 1 1 -0.14346131259640096,-0.14346131259640096 a 0.14346131259640096 0.14346131259640096 0.0 0 1 0.14346131259640096,0.14346131259640096 z M 100.09868206011049,100.0 a 0.09868206011048913 0.09868206011048913 0.0 1 0 -0.09868206011048913,0.09868206011048913 a 0.09868206011048913 0.09868206011048913 0.0 0 0 0.09868206011048913,-0.09868206011048913 z"/><path fill="#de1d59" d="M 100.19964051170489,100.0 a 0.19964051170488412 0.19964051170488412 0.0 1 1 -0.19964051170488412,-0.19964051170488412 a 0.19964051170488412 0.19964051170488412 0.0 0 1 0.19964051170488412,0.19964051170488412 z M 100.1434613125964,100.0 a 0.14346131259640096 0.14346131259640096 0.0 1 0 -0.14346131259640096,0.14346131259640096 a 0.14346131259640096 0.14346131259640096 0.0 0 0 0.14346131259640096,-0.14346131259640096 z"/><path fill="#9f3ebf" d="M 100.26926912369125,100.0 a 0.26926912369124345 0.26926912369124345 0.0 1 1 -0.26926912369124345,-0.26926912369124345 a 0.26926912369124345 0.26926912369124345 0.0 0 1 0.26926912369124345,0.26926912369124345 z M 100.19964051170489,100.0 a 0.19964051170488412 0.19964051170488412 0.0 1 0 -0.19964051170488412,0.19964051170488412 a 0.19964051170488412 0.19964051170488412 0.0 0 0 0.19964051170488412,-0.19964051170488412 z"/><path fill="#9d081a" d="M 100.35462866970927,100.0 a 0.35462866970926415 0.35462866970926415 0.0 1 1 -0.35462866970926415,-0.35462866970926415 a 0.35462866970926415 0.35462866970926415 0.0 0 1 0.35462866970926415,0.35462866970926415 z M 100.26926912369125,100.0 a 0.26926912369124345 0.26926912369124345 0.0 1 0 -0.26926912369124345,0.26926912369124345 a 0.26926912369124345 0.26926912369124345 0.0 0 0 0.26926912369124345,-0.26926912369124345 z"/><path fill="#f45fec" d="M 100.45824517425288,100.0 a 0.45824517425287803 0.45824517425287803 0.0 1 1 -0.45824517425287803,-0.45824517425287803 a 0.45824517425287803 0.45824517425287803 0.0 0 1 0.45824517425287803,0.45824517425287803 z M 100.35462866970927,100.0 a 0.35462866970926415 0.35462866970926415 0.0 1 0 -0.35462866970926415,0.35462866970926415 a 0.35462866970926415 0.35462866970926415 0.0 0 0 0.35462866970926415,-0.35462866970926415 z"/><path fill="#de1d59" d="M 100.58290161359783,100.0 a 0.582901613597829 0.582901613597829 0.0 1 1 -0.582901613597829,-0.582901613597829 a 0.582901613597829 0.582901613597829 0.0 0 1 0.582901613597829,0.582901613597829 z M 100.45824517425288,100.0 a 0.45824517425287803 0.45824517425287803 0.0 1 0 -0.45824517425287803,0.45824517425287803 a 0.45824517425287803 0.45824517425287803 0.0 0 0 0.45824517425287803,-0.45824517425287803 z"/><path fill="#9f3ebf" d="M 100.73165036424334,100.0 a 0.7316503642433388 0.7316503642433388 0.0 1 1 -0.7316503642433388,-0.7316503642433388 a 0.7316503642433388 0.7316503642433388 0.0 0 1 0.7316503642433388,0.7316503642433388 z M 100.58290161359783,100.0 a 0.582901613597829 0.582901613597829 0.0 1 0 -0.582901613597829,0.582901613597829 a 0.582901613597829 0.582901613597829 0.0 0 0 0.582901613597829,-0.582901613597829 z"/><path fill="#9d081a" d="M 100.90782565135378,100.0 a 0.9078256513537728 0.9078256513537728 0.0 1 1 -0.9078256513537728,-0.9078256513537728 a 0.9078256513537728 0.9078256513537728 0.0 0 1 0.9078256513537728,0.9078256513537728 z M 100.73165036424334,100.0 a 0.7316503642433388 0.7316503642433388 0.0 1 0 -0.7316503642433388,0.7316503642433388 a 0.7316503642433388 0.7316503642433388 0.0 0 0 0.7316503642433388,-0.7316503642433388 z"/><path fill="#f45fec" d="M 101.1150559972003,100.0 a 1.1150559972003053 1.1150559972003053 0.0 1 1 -1.1150559972003053,-1.1150559972003053 a 1.1150559972003053 1.1150559972003053 0.0 0 1 1.1150559972003053,1.1150559972003053 z M 100.90782565135378,100.0 a 0.9078256513537728 0.9078256513537728 0.0 1 0 -0.9078256513537728,0.9078256513537728 a 0.9078256513537728 0.9078256513537728 0.0 0 0 0.9078256513537728,-0.9078256513537728 z"/><path fill="#de1d59" d="M 101.35727666960258,100.0 a 1.3572766696025869 1.3572766696025869 0.0 1 1 -1.3572766696025869,-1.3572766696025869 a 1.3572766696025869 1.3572766696025869 0.0 0 1 1.3572766696025869,1.3572766696025869 z M 101.1150559972003,100.0 a 1.1150559972003053 1.1150559972003053 0.0 1 0 -1.1150559972003053,1.1150559972003053 a 1.1150559972003053 1.1150559972003053 0.0 0 0 1.1150559972003053,-1.1150559972003053 z"/><path fill="#9f3ebf" d="M 101.6387421303704,100.0 a 1.6387421303704075 1.6387421303704075 0.0 1 1 -1.6387421303704075,-1.6387421303704075 a 1.6387421303704075 1.6387421303704075 0.0 0 1 1.6387421303704075,1.6387421303704075 z M 101.35727666960258,100.0 a 1.3572766696025869 1.3572766696025869 0.0 1 0 -1.3572766696025869,1.3572766696025869 a 1.3572766696025869 1.3572766696025869 0.0 0 0 1.3572766696025869,-1.3572766696025869 z"/><path fill="#9d081a" d="M 101.96403848374537,100.0 a 1.9640384837453648 1.9640384837453648 0.0 1 1 -1.9640384837453648,-1.9640384837453648 a 1.9640384837453648 1.9640384837453648 0.0 0 1 1.9640384837453648,1.9640384837453648 z M 101.63874213037042,100.0 a 1.6387421303704075 1.6387421303704075 0.0 1 0 -1.6387421303704075,1.6387421303704075 a 1.6387421303704075 1.6387421303704075 0.0 0 0 1.6387421303704075,-1.6387421303704075 z"/><path fill="#f45fec" d="M 102.33809592484253,100.0 a 2.3380959248425284 2.3380959248425284 0.0 1 1 -2.3380959248425284,-2.3380959248425284 a 2.3380959248425284 2.3380959248425284 0.0 0 1 2.3380959248425284,2.3380959248425284 z M 101.96403848374537,100.0 a 1.9640384837453648 1.9640384837453648 0.0 1 0 -1.9640384837453648,1.9640384837453648 a 1.9640384837453648 1.9640384837453648 0.0 0 0 1.9640384837453648,-1.9640384837453648 z"/><path fill="#de1d59" d="M 102.76620118809211,100.0 a 2.766201188092105 2.766201188092105 0.0 1 1 -2.766201188092105,-2.766201188092105 a 2.766201188092105 2.766201188092105 0.0 0 1 2.766201188092105,2.766201188092105 z M 102.33809592484253,100.0 a 2.3380959248425284 2.3380959248425284 0.0 1 0 -2.3380959248425284,2.3380959248425284 a 2.3380959248425284 2.3380959248425284 0.0 0 0 2.3380959248425284,-2.3380959248425284 z"/><path fill="#9f3ebf" d="M 103.2540099956811,100.0 a 3.2540099956811077 3.2540099956811077 0.0 1 1 -3.2540099956811077,-3.2540099956811077 a 3.2540099956811077 3.2540099956811077 0.0 0 1 3.2540099956811077,3.2540099956811077 z M 102.7662011880921,100.0 a 2.766201188092105 2.766201188092105 0.0 1 0 -2.766201188092105,2.766201188092105 a 2.766201188092105 2.766201188092105 0.0 0 0 2.766201188092105,-2.766201188092105 z"/><path fill="#9d081a" d="M 103.80755950599502,100.0 a 3.8075595059950165 3.8075595059950165 0.0 1 1 -3.8075595059950165,-3.8075595059950165 a 3.8075595059950165 3.8075595059950165 0.0 0 1 3.8075595059950165,3.8075595059950165 z M 103.2540099956811,100.0 a 3.2540099956811077 3.2540099956811077 0.0 1 0 -3.2540099956811077,3.2540099956811077 a 3.2540099956811077 3.2540099956811077 0.0 0 0 3.2540099956811077,-3.2540099956811077 z"/><path fill="#f45fec" d="M 104.43328076205945,100.0 a 4.433280762059448 4.433280762059448 0.0 1 1 -4.433280762059448,-4.433280762059448 a 4.433280762059448 4.433280762059448 0.0 0 1 4.433280762059448,4.433280762059448 z M 103.80755950599502,100.0 a 3.8075595059950165 3.8075595059950165 0.0 1 0 -3.8075595059950165,3.8075595059950165 a 3.8075595059950165 3.8075595059950165 0.0 0 0 3.8075595059950165,-3.8075595059950165 z"/><path fill="#de1d59" d="M 105.13801113998181,100.0 a 5.1380111399818205 5.1380111399818205 0.0 1 1 -5.1380111399818205,-5.1380111399818205 a 5.1380111399818205 5.1380111399818205 0.0 0 1 5.1380111399818205,5.1380111399818205 z M 104.43328076205944,100.0 a 4.433280762059448 4.433280762059448 0.0 1 0 -4.433280762059448,4.433280762059448 a 4.433280762059448 4.433280762059448 0.0 0 0 4.433280762059448,-4.433280762059448 z"/><path fill="#9f3ebf" d="M 105.92900679739301,100.0 a 5.929006797393018 5.929006797393018 0.0 1 1 -5.929006797393018,-5.929006797393018 a 5.929006797393018 5.929006797393018 0.0 0 1 5.929006797393018,5.929006797393018 z M 105.13801113998181,100.0 a 5.1380111399818205 5.1380111399818205 0.0 1 0 -5.1380111399818205,5.1380111399818205 a 5.1380111399818205 5.1380111399818205 0.0 0 0 5.1380111399818205,-5.1380111399818205 z"/><path fill="#9d081a" d="M 106.81395512188905,100.0 a 6.813955121889056 6.813955121889056 0.0 1 1 -6.813955121889056,-6.813955121889056 a 6.813955121889056 6.813955121889056 0.0 0 1 6.813955121889056,6.813955121889056 z M 105.92900679739301,100.0 a 5.929006797393018 5.929006797393018 0.0 1 0 -5.929006797393018,5.929006797393018 a 5.929006797393018 5.929006797393018 0.0 0 0 5.929006797393018,-5.929006797393018 z"/><path fill="#f45fec" d="M 107.80098717947276,100.0 a 7.800987179472753 7.800987179472753 0.0 1 1 -7.800987179472753,-7.800987179472753 a 7.800987179472753 7.800987179472753 0.0 0 1 7.800987179472753,7.800987179472753 z M 106.81395512188905,100.0 a 6.813955121889056 6.813955121889056 0.0 1 0 -6.813955121889056,6.813955121889056 a 6.813955121889056 6.813955121889056 0.0 0 0 6.813955121889056,-6.813955121889056 z"/><path fill="#de1d59" d="M 108.89869016299538,100.0 a 8.898690162995385 8.898690162995385 0.0 1 1 -8.898690162995385,-8.898690162995385 a 8.898690162995385 8.898690162995385 0.0 0 1 8.898690162995385,8.898690162995385 z M 107.80098717947274,100.0 a 7.800987179472753 7.800987179472753 0.0 1 0 -7.800987179472753,7.800987179472753 a 7.800987179472753 7.800987179472753 0.0 0 0 7.800987179472753,-7.800987179472753 z"/><path fill="#9f3ebf" d="M 110.11611984059836,100.0 a 10.116119840598362 10.116119840598362 0.0 1 1 -10.116119840598362,-10.116119840598362 a 10.116119840598362 10.116119840598362 0.0 0 1 10.116119840598362,10.116119840598362 z M 108.89869016299538,100.0 a 8.898690162995385 8.898690162995385 0.0 1 0 -8.898690162995385,8.898690162995385 a 8.898690162995385 8.898690162995385 0.0 0 0 8.898690162995385,-8.898690162995385 z"/><path fill="#9d081a" d="M 111.4628130041549,100.0 a 11.462813004154889 11.462813004154889 0.0 1 1 -11.462813004154889,-11.462813004154889 a 11.462813004154889 11.462813004154889 0.0 0 1 11.462813004154889,11.462813004154889 z M 110.11611984059837,100.0 a 10.116119840598362 10.116119840598362 0.0 1 0 -10.116119840598362,10.116119840598362 a 10.116119840598362 10.116119840598362 0.0 0 0 10.116119840598362,-10.116119840598362 z"/><path fill="#f45fec" d="M 112.94879991771164,100.0 a 12.948799917711634 12.948799917711634 0.0 1 1 -12.948799917711634,-12.948799917711634 a 12.948799917711634 12.948799917711634 0.0 0 1 12.948799917711634,12.948799917711634 z M 111.4628130041549,100.0 a 11.462813004154889 11.462813004154889 0.0 1 0 -11.462813004154889,11.462813004154889 a 11.462813004154889 11.462813004154889 0.0 0 0 11.462813004154889,-11.462813004154889 z"/><path fill="#de1d59" d="M 114.58461676593039,100.0 a 14.584616765930386 14.584616765930386 0.0 1 1 -14.584616765930386,-14.584616765930386 a 14.584616765930386 14.584616765930386 0.0 0 1 14.584616765930386,14.584616765930386 z M 112.94879991771164,100.0 a 12.948799917711634 12.948799917711634 0.0 1 0 -12.948799917711634,12.948799917711634 a 12.948799917711634 12.948799917711634 0.0 0 0 12.948799917711634,-12.948799917711634 z"/><path fill="#9f3ebf" d="M 116.38131810252973,100.0 a 16.381318102529736 16.381318102529736 0.0 1 1 -16.381318102529736,-16.381318102529736 a 16.381318102529736 16.381318102529736 0.0 0 1 16.381318102529736,16.381318102529736 z M 114.58461676593038,100.0 a 14.584616765930386 14.584616765930386 0.0 1 0 -14.584616765930386,14.584616765930386 a 14.584616765930386 14.584616765930386 0.0 0 0 14.584616765930386,-14.584616765930386 z"/><path fill="#9d081a" d="M 118.35048929872673,100.0 a 18.35048929872673 18.35048929872673 0.0 1 1 -18.35048929872673,-18.35048929872673 a 18.35048929872673 18.35048929872673 0.0 0 1 18.35048929872673,18.35048929872673 z M 116.38131810252973,100.0 a 16.381318102529736 16.381318102529736 0.0 1 0 -16.381318102529736,16.381318102529736 a 16.381318102529736 16.381318102529736 0.0 0 0 16.381318102529736,-16.381318102529736 z"/><path fill="#f45fec" d="M 120.50425899167853,100.0 a 20.504258991678526 20.504258991678526 0.0 1 1 -20.504258991678526,-20.504258991678526 a 20.504258991678526 20.504258991678526 0.0 0 1 20.504258991678526,20.504258991678526 z M 118.35048929872673,100.0 a 18.35048929872673 18.35048929872673 0.0 1 0 -18.35048929872673,18.35048929872673 a 18.35048929872673 18.35048929872673 0.0 0 0 18.35048929872673,-18.35048929872673 z"/><path fill="#de1d59" d="M 122.85531153292409,100.0 a 22.855311532924095 22.855311532924095 0.0 1 1 -22.855311532924095,-22.855311532924095 a 22.855311532924095 22.855311532924095 0.0 0 1 22.855311532924095,22.855311532924095 z M 120.50425899167853,100.0 a 20.504258991678526 20.504258991678526 0.0 1 0 -20.504258991678526,20.504258991678526 a 20.504258991678526 20.504258991678526 0.0 0 0 20.504258991678526,-20.504258991678526 z"/><path fill="#9f3ebf" d="M 125.41689943682584,100.0 a 25.41689943682584 25.41689943682584 0.0 1 1 -25.41689943682584,-25.41689943682584 a 25.41689943682584 25.41689943682584 0.0 0 1 25.41689943682584,25.41689943682584 z M 122.8553115329241,100.0 a 22.855311532924095 22.855311532924095 0.0 1 0 -22.855311532924095,22.855311532924095 a 22.855311532924095 22.855311532924095 0.0 0 0 22.855311532924095,-22.855311532924095 z"/><path fill="#9d081a" d="M 128.2028558290113,100.0 a 28.20285582901131 28.20285582901131 0.0 1 1 -28.20285582901131,-28.20285582901131 a 28.20285582901131 28.20285582901131 0.0 0 1 28.20285582901131,28.20285582901131 z M 125.41689943682583,100.0 a 25.41689943682584 25.41689943682584 0.0 1 0 -25.41689943682584,25.41689943682584 a 25.41689943682584 25.41689943682584 0.0 0 0 25.41689943682584,-25.41689943682584 z"/><path fill="#f45fec" d="M 131.2276068948148,100.0 a 31.22760689481482 31.22760689481482 0.0 1 1 -31.22760689481482,-31.22760689481482 a 31.22760689481482 31.22760689481482 0.0 0 1 31.22760689481482,31.22760689481482 z M 128.2028558290113,100.0 a 28.20285582901131 28.20285582901131 0.0 1 0 -28.20285582901131,28.20285582901131 a 28.20285582901131 28.20285582901131 0.0 0 0 28.20285582901131,-28.20285582901131 z"/><path fill="#de1d59" d="M 134.50618432771915,100.0 a 34.50618432771915 34.50618432771915 0.0 1 1 -34.50618432771915,-34.50618432771915 a 34.50618432771915 34.50618432771915 0.0 0 1 34.50618432771915,34.50618432771915 z M 131.2276068948148,100.0 a 31.22760689481482 31.22760689481482 0.0 1 0 -31.22760689481482,31.22760689481482 a 31.22760689481482 31.22760689481482 0.0 0 0 31.22760689481482,-31.22760689481482 z"/><path fill="#9f3ebf" d="M 138.0542377777972,100.0 a 38.0542377777972 38.0542377777972 0.0 1 1 -38.0542377777972,-38.0542377777972 a 38.0542377777972 38.0542377777972 0.0 0 1 38.0542377777972,38.0542377777972 z M 134.50618432771915,100.0 a 34.50618432771915 34.50618432771915 0.0 1 0 -34.50618432771915,34.50618432771915 a 34.50618432771915 34.50618432771915 0.0 0 0 34.50618432771915,-34.50618432771915 z"/><path fill="#9d081a" d="M 141.88804730015363,100.0 a 41.88804730015363 41.88804730015363 0.0 1 1 -41.88804730015363,-41.88804730015363 a 41.88804730015363 41.88804730015363 0.0 0 1 41.88804730015363,41.88804730015363 z M 138.0542377777972,100.0 a 38.0542377777972 38.0542377777972 0.0 1 0 -38.0542377777972,38.0542377777972 a 38.0542377777972 38.0542377777972 0.0 0 0 38.0542377777972,-38.0542377777972 z"/><path fill="#f45fec" d="M 146.0245358033666,100.0 a 46.0245358033666 46.0245358033666 0.0 1 1 -46.0245358033666,-46.0245358033666 a 46.0245358033666 46.0245358033666 0.0 0 1 46.0245358033666,46.0245358033666 z M 141.88804730015363,100.0 a 41.88804730015363 41.88804730015363 0.0 1 0 -41.88804730015363,41.88804730015363 a 41.88804730015363 41.88804730015363 0.0 0 0 41.88804730015363,-41.88804730015363 z"/><path fill="#de1d59" d="M 150.48128149792933,100.0 a 50.48128149792932 50.48128149792932 0.0 1 1 -50.48128149792932,-50.48128149792932 a 50.48128149792932 50.48128149792932 0.0 0 1 50.48128149792932,50.48128149792932 z M 146.0245358033666,100.0 a 46.0245358033666 46.0245358033666 0.0 1 0 -46.0245358033666,46.0245358033666 a 46.0245358033666 46.0245358033666 0.0 0 0 46.0245358033666,-46.0245358033666 z"/><path fill="#9f3ebf" d="M 155.27653034469185,100.0 a 55.27653034469184 55.27653034469184 0.0 1 1 -55.27653034469184,-55.27653034469184 a 55.27653034469184 55.27653034469184 0.0 0 1 55.27653034469184,55.27653034469184 z M 150.48128149792933,100.0 a 50.48128149792932 50.48128149792932 0.0 1 0 -50.48128149792932,50.48128149792932 a 50.48128149792932 50.48128149792932 0.0 0 0 50.48128149792932,-50.48128149792932 z"/><path fill="#9d081a" d="M 160.42920850330265,100.0 a 60.429208503302654 60.429208503302654 0.0 1 1 -60.429208503302654,-60.429208503302654 a 60.429208503302654 60.429208503302654 0.0 0 1 60.429208503302654,60.429208503302654 z M 155.27653034469182,100.0 a 55.27653034469184 55.27653034469184 0.0 1 0 -55.27653034469184,55.27653034469184 a 55.27653034469184 55.27653034469184 0.0 0 0 55.27653034469184,-55.27653034469184 z"/><path fill="#f45fec" d="M 165.9589347806503,100.0 a 65.95893478065031 65.95893478065031 0.0 1 1 -65.95893478065031,-65.95893478065031 a 65.95893478065031 65.95893478065031 0.0 0 1 65.95893478065031,65.95893478065031 z M 160.42920850330265,100.0 a 60.429208503302654 60.429208503302654 0.0 1 0 -60.429208503302654,60.429208503302654 a 60.429208503302654 60.429208503302654 0.0 0 0 60.429208503302654,-60.429208503302654 z"/><path fill="#de1d59" d="M 171.8860330793052,100.0 a 71.88603307930521 71.88603307930521 0.0 1 1 -71.88603307930521,-71.88603307930521 a 71.88603307930521 71.88603307930521 0.0 0 1 71.88603307930521,71.88603307930521 z M 165.9589347806503,100.0 a 65.95893478065031 65.95893478065031 0.0 1 0 -65.95893478065031,65.95893478065031 a 65.95893478065031 65.95893478065031 0.0 0 0 65.95893478065031,-65.95893478065031 z"/><path fill="#9f3ebf" d="M 178.23154484596114,100.0 a 78.23154484596115 78.23154484596115 0.0 1 1 -78.23154484596115,-78.23154484596115 a 78.23154484596115 78.23154484596115 0.0 0 1 78.23154484596115,78.23154484596115 z M 171.8860330793052,100.0 a 71.88603307930521 71.88603307930521 0.0 1 0 -71.88603307930521,71.88603307930521 a 71.88603307930521 71.88603307930521 0.0 0 0 71.88603307930521,-71.88603307930521 z"/><path fill="#9d081a" d="M 185.01724151987708,100.0 a 85.01724151987706 85.01724151987706 0.0 1 1 -85.01724151987706,-85.01724151987706 a 85.01724151987706 85.01724151987706 0.0 0 1 85.01724151987706,85.01724151987706 z M 178.23154484596117,100.0 a 78.23154484596115 78.23154484596115 0.0 1 0 -78.23154484596115,78.23154484596115 a 78.23154484596115 78.23154484596115 0.0 0 0 78.23154484596115,-78.23154484596115 z"/><path fill="#f45fec" d="M 192.26563698131864,100.0 a 92.26563698131864 92.26563698131864 0.0 1 1 -92.26563698131864,-92.26563698131864 a 92.26563698131864 92.26563698131864 0.0 0 1 92.26563698131864,92.26563698131864 z M 185.01724151987708,100.0 a 85.01724151987706 85.01724151987706 0.0 1 0 -85.01724151987706,85.01724151987706 a 85.01724151987706 85.01724151987706 0.0 0 0 85.01724151987706,-85.01724151987706 z"/><path fill="#de1d59" d="M 200.0,100.0 a 100.0 100.0 0.0 1 1 -100.0,-100.0 a 100.0 100.0 0.0 0 1 100.0,100.0 z M 192.26563698131864,100.0 a 92.26563698131864 92.26563698131864 0.0 1 0 -92.26563698131864,92.26563698131864 a 92.26563698131864 92.26563698131864 0.0 0 0 92.26563698131864,-92.26563698131864 z"/></g></svg>