<?xml version='1.0' encoding='UTF-8'?>
<svg viewBox="-5.6843418860808015E-14 -8.526512829121202E-14 200.00000000000017 200.0000000000001" preserveAspectRatio="xMidYMid meet" xmlns="http://www.w3.org/2000/svg" xmlns:svg="http://www.w3.org/2000/svg"><g transform="translate(0.0, 0.0)"><path fill="#290329" d="M 113.79376031304376,100.0 a 13.793760313043757 13.793760313043757 0.0 1 1 -13.793760313043757,-13.793760313043757 a 13.793760313043757 13.793760313043757 0.0 0 1 13.793760313043757,13.793760313043757 z M 102.93923852276993,100.0 a 2.9392385227699287 2.9392385227699287 0.0 1 0 -2.9392385227699287,2.9392385227699287 a 2.9392385227699287 2.9392385227699287 0.0 0 0 2.9392385227699287,-2.9392385227699287 z"/><path fill="#980064" d="M 118.10475660097939,100.0 a 18.10475660097938 18.10475660097938 0.0 1 1 -18.10475660097938,-18.10475660097938 a 18.10475660097938 18.10475660097938 0.0 0 1 18.10475660097938,18.10475660097938 z M 113.79376031304376,100.0 a 13.793760313043757 13.793760313043757 0.0 1 0 -13.793760313043757,13.793760313043757 a 13.793760313043757 13.793760313043757 0.0 0 0 13.793760313043757,-13.793760313043757 z"/><path fill="#740062" d="M 129.01349341078924,100.0 a 29.013493410789227 29.013493410789227 0.0 1 1 -29.013493410789227,-29.013493410789227 a 29.013493410789227 29.013493410789227 0.0 0 1 29.013493410789227,29.013493410789227 z M 118.10475660097939,100.0 a 18.10475660097938 18.10475660097938 0.0 1 0 -18.10475660097938,18.10475660097938 a 18.10475660097938 18.10475660097938 0.0 0 0 18.10475660097938,-18.10475660097938 z"/><path fill="#8c0075" d="M 175.4376649409583,100.0 a 75.43766494095831 75.43766494095831 0.0 1 1 -75.43766494095831,-75.43766494095831 a 75.43766494095831 75.43766494095831 0.0 0 1 75.43766494095831,75.43766494095831 z M 160.00355468804543,100.0 a 60.003554688045426 60.003554688045426 0.0 1 0 -60.003554688045426,60.003554688045426 a 60.003554688045426 60.003554688045426 0.0 0 0 60.003554688045426,-60.003554688045426 z"/><path fill="#560060" d="M 176.01314103560708,100.0 a 76.01314103560709 76.01314103560709 0.0 1 1 -76.01314103560709,-76.01314103560709 a 76.01314103560709 76.01314103560709 0.0 0 1 76.01314103560709,76.01314103560709 z M 175.4376649409583,100.0 a 75.43766494095831 75.43766494095831 0.0 1 0 -75.43766494095831,75.43766494095831 a 75.43766494095831 75.43766494095831 0.0 0 0 75.43766494095831,-75.43766494095831 z"/><path fill="#9a3caa" d="M 190.5586867817752,100.0 a 90.55868678177521 90.55868678177521 0.0 1 1 -90.55868678177521,-90.55868678177521 a 90.55868678177521 90.55868678177521 0.0 0 1 90.55868678177521,90.55868678177521 z M 176.01314103560708,100.0 a 76.01314103560709 76.01314103560709 0.0 1 0 -76.01314103560709,76.01314103560709 a 76.01314103560709 76.01314103560709 0.0 0 0 76.01314103560709,-76.01314103560709 z"/><path fill="#110010" d="M 100.0,100.0 l -2.6760652291629032 1.2156471457623095 a 2.9392385227699287 2.9392385227699287 0.0 0 1 0.15063272170736575,-2.719413664880749 l 2.5254325074555375 1.5037665191184397 z"/><path fill="#290329" d="M 100.0,100.0 l -2.525432507455536 -1.503766519118442 a 2.9392385227699287 2.9392385227699287 0.0 0 1 0.8851355196597026,-0.9351981968138465 l 1.6402969877958335 2.4389647159322885 z"/><path fill="#980064" d="M 100.0,100.0 l -1.6402969877958335 -2.4389647159322885 a 2.9392385227699287 2.9392385227699287 0.0 0 1 4.195200450315971,0.9858331351945488 l -2.5549034625201377 1.4531315807377396 z"/><path fill="#740062" d="M 100.0,100.0 l 2.5549034625201377 -1.4531315807377396 a 2.9392385227699287 2.9392385227699287 0.0 0 1 0.2123813803198069,2.4437161012724875 l -2.7672848428399446 -0.990584520534748 z"/><path fill="#e4a2d5" d="M 100.0,100.0 l 2.7672848428399446 0.990584520534748 a 2.9392385227699287 2.9392385227699287 0.0 0 1 -1.7526911675971477,1.767988075554046 l -1.0145936752427969 -2.758572596088794 z"/><path fill="#000000" d="M 100.0,100.0 l 1.0145936752427969 2.758572596088794 a 2.9392385227699287 2.9392385227699287 0.0 0 1 -0.9550652190587087,0.18006304934925366 l -0.05952845618408819 -2.9386356454380476 z"/><path fill="#8c0075" d="M 100.0,100.0 l 0.05952845618408819 2.9386356454380476 a 2.9392385227699287 2.9392385227699287 0.0 0 1 -2.7355936853469913,-1.722988499675738 l 2.6760652291629032 -1.2156471457623095 z"/><path fill="#110010" d="M 83.96216559325272,75.82210374247455 l -6.802224908712575 -10.25471918415722 a 41.31916402456042 41.31916402456042 0.0 0 1 38.080823975473216,-3.973014461583034 l -4.539003492341934 11.437962080333183 a 29.013493410789227 29.013493410789227 0.0 0 0 -26.739595574418708,2.7897715654070723 z"/><path fill="#290329" d="M 110.70176116767142,73.03233217706749 l 4.5390034923419424 -11.437962080333174 a 41.31916402456042 41.31916402456042 0.0 0 1 14.954053734797432,10.200200323255347 l -8.992618756476267 8.400139115235127 a 29.013493410789227 29.013493410789227 0.0 0 0 -10.500438470663108,-7.1623773581573005 z"/><path fill="#980064" d="M 121.20219963833456,80.1947095352248 l 8.992618756476269 -8.400139115235126 a 41.31916402456042 41.31916402456042 0.0 0 1 -4.3286878641642765,60.42679837557957 l -7.7034492317837575 -9.596165858714727 a 29.013493410789227 29.013493410789227 0.0 0 0 3.0395183394717655,-42.43049340162972 z"/><path fill="#740062" d="M 118.1626812988628,122.6252029368545 l 7.70344923178376 9.596165858714727 a 41.31916402456042 41.31916402456042 0.0 0 1 -33.44474305392669,8.396828455299861 l 2.257061865178404 -12.096908737003407 a 29.013493410789227 29.013493410789227 0.0 0 0 23.48423195696453,-5.896085577011181 z"/><path fill="#e4a2d5" d="M 94.67844934189827,128.5212885138657 l -2.257061865178405 12.096908737003405 a 41.31916402456042 41.31916402456042 0.0 0 1 -28.447499859550124,-20.384746179234966 l 10.729294334568266 -6.025925019184465 a 29.013493410789227 29.013493410789227 0.0 0 0 19.975267390160262,14.313762461416028 z"/><path fill="#000000" d="M 74.703181951738,114.20752605244967 l -10.729294334568262 6.0259250191844655 a 41.31916402456042 41.31916402456042 0.0 0 1 -4.628851912175016,-12.854616891333409 l 12.107858695582259 -2.197563892687758 a 29.013493410789227 29.013493410789227 0.0 0 0 3.250287551161019,9.026255764836701 z"/><path fill="#8c0075" d="M 71.45289440057698,105.18127028761296 l -12.10785869558226 2.1975638926877585 a 41.31916402456042 41.31916402456042 0.0 0 1 17.814904979545418,-41.811449621983385 l 6.802224908712574 10.254719184157224 a 29.013493410789227 29.013493410789227 0.0 0 0 -12.509271192675733,29.3591665451384 z"/><path fill="#110010" d="M 75.56910677561913,133.3227365615045 l -11.047569911890957 15.0684323506995 a 60.003554688045426 60.003554688045426 0.0 0 1 -24.505884757439762,-49.90925420869975 l 18.67840989700221 0.4727136398449119 a 41.31916402456042 41.31916402456042 0.0 0 0 16.875044772328508,34.36810821815534 z"/><path fill="#290329" d="M 58.694062003290625,98.95462834334916 l -18.67840989700221 -0.4727136398449091 a 60.003554688045426 60.003554688045426 0.0 0 1 6.405146832133333,-25.494796608333104 l 16.68392363213421 8.411488970618652 a 41.31916402456042 41.31916402456042 0.0 0 0 -4.410660567265332,17.55602127755936 z"/><path fill="#980064" d="M 63.10472257055596,81.3986070657898 l -16.68392363213421 -8.411488970618652 a 60.003554688045426 60.003554688045426 0.0 0 1 84.52686153141882,-24.394013417148397 l -9.636732046053197 16.007493555778712 a 41.31916402456042 41.31916402456042 0.0 0 0 -58.20620585323141,16.798008831988337 z"/><path fill="#740062" d="M 121.31092842378737,64.60059823380146 l 9.636732046053197 -16.007493555778712 a 60.003554688045426 60.003554688045426 0.0 0 1 28.210982015768664,41.37287347323037 l -18.421295089418816 3.124474626922101 a 41.31916402456042 41.31916402456042 0.0 0 0 -19.426418972403045,-28.48985454437376 z"/><path fill="#e4a2d5" d="M 140.73734739619042,93.09045277817523 l 18.42129508941881 -3.124474626922103 a 60.003554688045426 60.003554688045426 0.0 0 1 -13.521201735984778,48.99105686202499 l -14.210954272306118 -12.130755670449808 a 41.31916402456042 41.31916402456042 0.0 0 0 9.310860918872088,-33.73582656465308 z"/><path fill="#000000" d="M 131.42648647731835,126.82627934282827 l 14.210954272306118 12.130755670449805 a 60.003554688045426 60.003554688045426 0.0 0 1 -15.199213959086396,12.753127673074278 l -9.478100479461673 -16.10192739292269 a 41.31916402456042 41.31916402456042 0.0 0 0 10.466360166241952,-8.781955950601393 z"/><path fill="#8c0075" d="M 120.96012631107637,135.6082352934297 l 9.478100479461673 16.101927392922686 a 60.003554688045426 60.003554688045426 0.0 0 1 -65.91668992680987,-3.318993774148378 l 11.04756991189096 -15.068432350699503 a 41.31916402456042 41.31916402456042 0.0 0 0 45.39101953545723,2.2854987319251947 z"/><path fill="#110010" d="M 72.87139049043215,186.3997355187911 l -2.8283283322333643 9.007716365967138 a 100.0 100.0 0.0 0 1 -65.4848758079729,-65.56017048021842 l 9.0109605678296 -2.8179753245275734 a 90.55868678177521 90.55868678177521 0.0 0 0 59.30224357237667,59.37042943877886 z"/><path fill="#290329" d="M 13.569146918055466,127.02930608001225 l -9.0109605678296 2.817975324527567 a 100.0 100.0 0.0 0 1 -3.5994854038156774,-43.66108181490438 l 9.350799259048117 1.3042041640829396 a 90.55868678177521 90.55868678177521 0.0 0 0 3.25964671259716,39.53890232629387 z"/><path fill="#980064" d="M 10.309500205458306,87.49040375371835 l -9.350799259048122 -1.3042041640829414 a 100.0 100.0 0.0 0 1 120.22987884785495,-83.9156428823405 l -2.0004801848700566 9.22694284769166 a 90.55868678177521 90.55868678177521 0.0 0 0 -108.87859940393678,75.9929041987318 z"/><path fill="#740062" d="M 119.1880996093951,11.497499554986575 l 2.000480184870054 -9.22694284769167 a 100.0 100.0 0.0 0 1 66.74132498098703,50.10243576320458 l -8.30173772231835 4.496614957327651 a 90.55868678177521 90.55868678177521 0.0 0 0 -60.44006744353874,-45.37210787284056 z"/><path fill="#e4a2d5" d="M 179.6281670529337,56.869607427827056 l 8.301737722318348 -4.496614957327651 a 100.0 100.0 0.0 0 1 5.003277619929181,84.55157401177587 l -8.774112833593207 -3.486163976063253 a 90.55868678177521 90.55868678177521 0.0 0 0 -4.5309025086543215,-76.56879507838497 z"/><path fill="#000000" d="M 184.15906956158807,133.43840250621207 l 8.774112833593204 3.4861639760632626 a 100.0 100.0 0.0 0 1 -17.121982504651125,28.287870760616325 l -7.157572836159446 -6.156910457339684 a 90.55868678177521 90.55868678177521 0.0 0 0 15.505442507217367,-25.617124279339905 z"/><path fill="#8c0075" d="M 168.65362705437076,159.0555267855519 l 7.15757283615944 6.156910457339678 a 100.0 100.0 0.0 0 1 -105.7681377323312,30.195014641866628 l 2.8283283322333546 -9.007716365967141 a 90.55868678177521 90.55868678177521 0.0 0 0 95.7822365639384,-27.344208733239164 z"/></g></svg>