<?xml version='1.0' encoding='UTF-8'?>
<svg viewBox="0.0 0.0 200.0 200.0" preserveAspectRatio="xMidYMid meet" xmlns="http://www.w3.org/2000/svg" xmlns:svg="http://www.w3.org/2000/svg"><g transform="translate(0.0, 0.0)"><circle fill="#320629" r="0.027661938158638454" cx="100.0" cy="100.0"/><path fill="#5f0e35" d="M 100.07215197802972,100.0 a 0.07215197802972723 0.07215197802972723 0.0 1 1 -0.07215197802972723,-0.07215197802972723 a 0.07215197802972723 0.07215197802972723 0.0 0 1 0.07215197802972723,0.07215197802972723 z M 100.02766193815863,100.0 a 0.027661938158638454 0.027661938158638454 0.0 1 0 -0.027661938158638454,0.027661938158638454 a 0.027661938158638454 0.027661938158638454 0.0 0 0 0.027661938158638454,-0.027661938158638454 z"/><path fill="#220405" d="M 100.13744983790379,100.0 a 0.13744983790379267 0.13744983790379267 0.0 1 1 -0.13744983790379267,-0.13744983790379267 a 0.13744983790379267 0.13744983790379267 0.0 0 1 0.13744983790379267,0.13744983790379267 z M 100.07215197802972,100.0 a 0.07215197802972723 0.07215197802972723 0.0 1 0 -0.07215197802972723,0.07215197802972723 a 0.07215197802972723 0.07215197802972723 0.0 0 0 0.07215197802972723,-0.07215197802972723 z"/><path fill="#940c54" d="M 100.22753523607136,100.0 a 0.22753523607136109 0.22753523607136109 0.0 1 1 -0.22753523607136109,-0.22753523607136109 a 0.22753523607136109 0.22753523607136109 0.0 0 1 0.22753523607136109,0.22753523607136109 z M 100.13744983790379,100.0 a 0.13744983790379267 0.13744983790379267 0.0 1 0 -0.13744983790379267,0.13744983790379267 a 0.13744983790379267 0.13744983790379267 0.0 0 0 0.13744983790379267,-0.13744983790379267 z"/><path fill="#320629" d="M 100.34638789082295,100.0 a 0.3463878908229589 0.3463878908229589 0.0 1 1 -0.3463878908229589,-0.3463878908229589 a 0.3463878908229589 0.3463878908229589 0.0 0 1 0.3463878908229589,0.3463878908229589 z M 100.22753523607136,100.0 a 0.22753523607136109 0.22753523607136109 0.0 1 0 -0.22753523607136109,0.22753523607136109 a 0.22753523607136109 0.22753523607136109 0.0 0 0 0.22753523607136109,-0.22753523607136109 z"/><path fill="#5f0e35" d="M 100.49798752044912,100.0 a 0.49798752044911243 0.49798752044911243 0.0 1 1 -0.49798752044911243,-0.49798752044911243 a 0.49798752044911243 0.49798752044911243 0.0 0 1 0.49798752044911243,0.49798752044911243 z M 100.34638789082297,100.0 a 0.3463878908229589 0.3463878908229589 0.0 1 0 -0.3463878908229589,0.3463878908229589 a 0.3463878908229589 0.3463878908229589 0.0 0 0 0.3463878908229589,-0.3463878908229589 z"/><path fill="#220405" d="M 100.68631384324034,100.0 a 0.686313843240348 0.686313843240348 0.0 1 1 -0.686313843240348,-0.686313843240348 a 0.686313843240348 0.686313843240348 0.0 0 1 0.686313843240348,0.686313843240348 z M 100.4979875204491,100.0 a 0.49798752044911243 0.49798752044911243 0.0 1 0 -0.49798752044911243,0.49798752044911243 a 0.49798752044911243 0.49798752044911243 0.0 0 0 0.49798752044911243,-0.49798752044911243 z"/><path fill="#940c54" d="M 100.9153465774872,100.0 a 0.915346577487192 0.915346577487192 0.0 1 1 -0.915346577487192,-0.915346577487192 a 0.915346577487192 0.915346577487192 0.0 0 1 0.915346577487192,0.915346577487192 z M 100.68631384324036,100.0 a 0.686313843240348 0.686313843240348 0.0 1 0 -0.686313843240348,0.686313843240348 a 0.686313843240348 0.686313843240348 0.0 0 0 0.686313843240348,-0.686313843240348 z"/><path fill="#320629" d="M 101.18906544148017,100.0 a 1.1890654414801707 1.1890654414801707 0.0 1 1 -1.1890654414801707,-1.1890654414801707 a 1.1890654414801707 1.1890654414801707 0.0 0 1 1.1890654414801707,1.1890654414801707 z M 100.91534657748718,100.0 a 0.915346577487192 0.915346577487192 0.0 1 0 -0.915346577487192,0.915346577487192 a 0.915346577487192 0.915346577487192 0.0 0 0 0.915346577487192,-0.915346577487192 z"/><path fill="#5f0e35" d="M 101.51145015350981,100.0 a 1.5114501535098106 1.5114501535098106 0.0 1 1 -1.5114501535098106,-1.5114501535098106 a 1.5114501535098106 1.5114501535098106 0.0 0 1 1.5114501535098106,1.5114501535098106 z M 101.18906544148017,100.0 a 1.1890654414801707 1.1890654414801707 0.0 1 0 -1.1890654414801707,1.1890654414801707 a 1.1890654414801707 1.1890654414801707 0.0 0 0 1.1890654414801707,-1.1890654414801707 z"/><path fill="#220405" d="M 101.88648043186664,100.0 a 1.886480431866638 1.886480431866638 0.0 1 1 -1.886480431866638,-1.886480431866638 a 1.886480431866638 1.886480431866638 0.0 0 1 1.886480431866638,1.886480431866638 z M 101.51145015350981,100.0 a 1.5114501535098106 1.5114501535098106 0.0 1 0 -1.5114501535098106,1.5114501535098106 a 1.5114501535098106 1.5114501535098106 0.0 0 0 1.5114501535098106,-1.5114501535098106 z"/><path fill="#940c54" d="M 102.31813599484119,100.0 a 2.318135994841179 2.318135994841179 0.0 1 1 -2.318135994841179,-2.318135994841179 a 2.318135994841179 2.318135994841179 0.0 0 1 2.318135994841179,2.318135994841179 z M 101.88648043186664,100.0 a 1.886480431866638 1.886480431866638 0.0 1 0 -1.886480431866638,1.886480431866638 a 1.886480431866638 1.886480431866638 0.0 0 0 1.886480431866638,-1.886480431866638 z"/><path fill="#320629" d="M 102.81039656072396,100.0 a 2.81039656072396 2.81039656072396 0.0 1 1 -2.81039656072396,-2.81039656072396 a 2.81039656072396 2.81039656072396 0.0 0 1 2.81039656072396,2.81039656072396 z M 102.31813599484117,100.0 a 2.318135994841179 2.318135994841179 0.0 1 0 -2.318135994841179,2.318135994841179 a 2.318135994841179 2.318135994841179 0.0 0 0 2.318135994841179,-2.318135994841179 z"/><path fill="#5f0e35" d="M 103.3672418478055,100.0 a 3.3672418478055075 3.3672418478055075 0.0 1 1 -3.3672418478055075,-3.3672418478055075 a 3.3672418478055075 3.3672418478055075 0.0 0 1 3.3672418478055075,3.3672418478055075 z M 102.81039656072396,100.0 a 2.81039656072396 2.81039656072396 0.0 1 0 -2.81039656072396,2.81039656072396 a 2.81039656072396 2.81039656072396 0.0 0 0 2.81039656072396,-2.81039656072396 z"/><path fill="#220405" d="M 103.99265157437635,100.0 a 3.992651574376349 3.992651574376349 0.0 1 1 -3.992651574376349,-3.992651574376349 a 3.992651574376349 3.992651574376349 0.0 0 1 3.992651574376349,3.992651574376349 z M 103.36724184780552,100.0 a 3.3672418478055075 3.3672418478055075 0.0 1 0 -3.3672418478055075,3.3672418478055075 a 3.3672418478055075 3.3672418478055075 0.0 0 0 3.3672418478055075,-3.3672418478055075 z"/><path fill="#940c54" d="M 104.690605458727,100.0 a 4.690605458727009 4.690605458727009 0.0 1 1 -4.690605458727009,-4.690605458727009 a 4.690605458727009 4.690605458727009 0.0 0 1 4.690605458727009,4.690605458727009 z M 103.99265157437635,100.0 a 3.992651574376349 3.992651574376349 0.0 1 0 -3.992651574376349,3.992651574376349 a 3.992651574376349 3.992651574376349 0.0 0 0 3.992651574376349,-3.992651574376349 z"/><path fill="#320629" d="M 105.46508321914801,100.0 a 5.465083219148015 5.465083219148015 0.0 1 1 -5.465083219148015,-5.465083219148015 a 5.465083219148015 5.465083219148015 0.0 0 1 5.465083219148015,5.465083219148015 z M 104.690605458727,100.0 a 4.690605458727009 4.690605458727009 0.0 1 0 -4.690605458727009,4.690605458727009 a 4.690605458727009 4.690605458727009 0.0 0 0 4.690605458727009,-4.690605458727009 z"/><path fill="#5f0e35" d="M 106.3200645739299,100.0 a 6.320064573929892 6.320064573929892 0.0 1 1 -6.320064573929892,-6.320064573929892 a 6.320064573929892 6.320064573929892 0.0 0 1 6.320064573929892,6.320064573929892 z M 105.46508321914803,100.0 a 5.465083219148015 5.465083219148015 0.0 1 0 -5.465083219148015,5.465083219148015 a 5.465083219148015 5.465083219148015 0.0 0 0 5.465083219148015,-5.465083219148015 z"/><path fill="#220405" d="M 107.25952924136317,100.0 a 7.259529241363167 7.259529241363167 0.0 1 1 -7.259529241363167,-7.259529241363167 a 7.259529241363167 7.259529241363167 0.0 0 1 7.259529241363167,7.259529241363167 z M 106.3200645739299,100.0 a 6.320064573929892 6.320064573929892 0.0 1 0 -6.320064573929892,6.320064573929892 a 6.320064573929892 6.320064573929892 0.0 0 0 6.320064573929892,-6.320064573929892 z"/><path fill="#940c54" d="M 108.28745693973836,100.0 a 8.287456939738368 8.287456939738368 0.0 1 1 -8.287456939738368,-8.287456939738368 a 8.287456939738368 8.287456939738368 0.0 0 1 8.287456939738368,8.287456939738368 z M 107.25952924136317,100.0 a 7.259529241363167 7.259529241363167 0.0 1 0 -7.259529241363167,7.259529241363167 a 7.259529241363167 7.259529241363167 0.0 0 0 7.259529241363167,-7.259529241363167 z"/><path fill="#320629" d="M 109.40782738734602,100.0 a 9.40782738734602 9.40782738734602 0.0 1 1 -9.40782738734602,-9.40782738734602 a 9.40782738734602 9.40782738734602 0.0 0 1 9.40782738734602,9.40782738734602 z M 108.28745693973836,100.0 a 8.287456939738368 8.287456939738368 0.0 1 0 -8.287456939738368,8.287456939738368 a 8.287456939738368 8.287456939738368 0.0 0 0 8.287456939738368,-8.287456939738368 z"/><path fill="#5f0e35" d="M 110.62462030247664,100.0 a 10.624620302476648 10.624620302476648 0.0 1 1 -10.624620302476648,-10.624620302476648 a 10.624620302476648 10.624620302476648 0.0 0 1 10.624620302476648,10.624620302476648 z M 109.40782738734602,100.0 a 9.40782738734602 9.40782738734602 0.0 1 0 -9.40782738734602,9.40782738734602 a 9.40782738734602 9.40782738734602 0.0 0 0 9.40782738734602,-9.40782738734602 z"/><path fill="#220405" d="M 111.94181540342078,100.0 a 11.94181540342078 11.94181540342078 0.0 1 1 -11.94181540342078,-11.94181540342078 a 11.94181540342078 11.94181540342078 0.0 0 1 11.94181540342078,11.94181540342078 z M 110.62462030247664,100.0 a 10.624620302476648 10.624620302476648 0.0 1 0 -10.624620302476648,10.624620302476648 a 10.624620302476648 10.624620302476648 0.0 0 0 10.624620302476648,-10.624620302476648 z"/><path fill="#940c54" d="M 113.36339240846894,100.0 a 13.363392408468941 13.363392408468941 0.0 1 1 -13.363392408468941,-13.363392408468941 a 13.363392408468941 13.363392408468941 0.0 0 1 13.363392408468941,13.363392408468941 z M 111.94181540342078,100.0 a 11.94181540342078 11.94181540342078 0.0 1 0 -11.94181540342078,11.94181540342078 a 11.94181540342078 11.94181540342078 0.0 0 0 11.94181540342078,-11.94181540342078 z"/><path fill="#320629" d="M 114.89333103591166,100.0 a 14.893331035911658 14.893331035911658 0.0 1 1 -14.893331035911658,-14.893331035911658 a 14.893331035911658 14.893331035911658 0.0 0 1 14.893331035911658,14.893331035911658 z M 113.36339240846894,100.0 a 13.363392408468941 13.363392408468941 0.0 1 0 -13.363392408468941,13.363392408468941 a 13.363392408468941 13.363392408468941 0.0 0 0 13.363392408468941,-13.363392408468941 z"/><path fill="#5f0e35" d="M 116.53561100403945,100.0 a 16.53561100403946 16.53561100403946 0.0 1 1 -16.53561100403946,-16.53561100403946 a 16.53561100403946 16.53561100403946 0.0 0 1 16.53561100403946,16.53561100403946 z M 114.89333103591164,100.0 a 14.893331035911658 14.893331035911658 0.0 1 0 -14.893331035911658,14.893331035911658 a 14.893331035911658 14.893331035911658 0.0 0 0 14.893331035911658,-14.893331035911658 z"/><path fill="#220405" d="M 118.29421203114288,100.0 a 18.29421203114287 18.29421203114287 0.0 1 1 -18.29421203114287,-18.29421203114287 a 18.29421203114287 18.29421203114287 0.0 0 1 18.29421203114287,18.29421203114287 z M 116.53561100403947,100.0 a 16.53561100403946 16.53561100403946 0.0 1 0 -16.53561100403946,16.53561100403946 a 16.53561100403946 16.53561100403946 0.0 0 0 16.53561100403946,-16.53561100403946 z"/><path fill="#940c54" d="M 120.17311383551242,100.0 a 20.173113835512417 20.173113835512417 0.0 1 1 -20.173113835512417,-20.173113835512417 a 20.173113835512417 20.173113835512417 0.0 0 1 20.173113835512417,20.173113835512417 z M 118.29421203114288,100.0 a 18.29421203114287 18.29421203114287 0.0 1 0 -18.29421203114287,18.29421203114287 a 18.29421203114287 18.29421203114287 0.0 0 0 18.29421203114287,-18.29421203114287 z"/><path fill="#320629" d="M 122.17629613543862,100.0 a 22.176296135438623 22.176296135438623 0.0 1 1 -22.176296135438623,-22.176296135438623 a 22.176296135438623 22.176296135438623 0.0 0 1 22.176296135438623,22.176296135438623 z M 120.17311383551241,100.0 a 20.173113835512417 20.173113835512417 0.0 1 0 -20.173113835512417,20.173113835512417 a 20.173113835512417 20.173113835512417 0.0 0 0 20.173113835512417,-20.173113835512417 z"/><path fill="#5f0e35" d="M 124.30773864921201,100.0 a 24.30773864921202 24.30773864921202 0.0 1 1 -24.30773864921202,-24.30773864921202 a 24.30773864921202 24.30773864921202 0.0 0 1 24.30773864921202,24.30773864921202 z M 122.17629613543862,100.0 a 22.176296135438623 22.176296135438623 0.0 1 0 -22.176296135438623,22.176296135438623 a 22.176296135438623 22.176296135438623 0.0 0 0 22.176296135438623,-22.176296135438623 z"/><path fill="#220405" d="M 126.57142109512313,100.0 a 26.57142109512313 26.57142109512313 0.0 1 1 -26.57142109512313,-26.57142109512313 a 26.57142109512313 26.57142109512313 0.0 0 1 26.57142109512313,26.57142109512313 z M 124.30773864921201,100.0 a 24.30773864921202 24.30773864921202 0.0 1 0 -24.30773864921202,24.30773864921202 a 24.30773864921202 24.30773864921202 0.0 0 0 24.30773864921202,-24.30773864921202 z"/><path fill="#940c54" d="M 128.9713231914625,100.0 a 28.971323191462485 28.971323191462485 0.0 1 1 -28.971323191462485,-28.971323191462485 a 28.971323191462485 28.971323191462485 0.0 0 1 28.971323191462485,28.971323191462485 z M 126.57142109512313,100.0 a 26.57142109512313 26.57142109512313 0.0 1 0 -26.57142109512313,26.57142109512313 a 26.57142109512313 26.57142109512313 0.0 0 0 26.57142109512313,-26.57142109512313 z"/><path fill="#320629" d="M 131.5114246565206,100.0 a 31.5114246565206 31.5114246565206 0.0 1 1 -31.5114246565206,-31.5114246565206 a 31.5114246565206 31.5114246565206 0.0 0 1 31.5114246565206,31.5114246565206 z M 128.9713231914625,100.0 a 28.971323191462485 28.971323191462485 0.0 1 0 -28.971323191462485,28.971323191462485 a 28.971323191462485 28.971323191462485 0.0 0 0 28.971323191462485,-28.971323191462485 z"/><path fill="#5f0e35" d="M 134.195705208588,100.0 a 34.19570520858801 34.19570520858801 0.0 1 1 -34.19570520858801,-34.19570520858801 a 34.19570520858801 34.19570520858801 0.0 0 1 34.19570520858801,34.19570520858801 z M 131.5114246565206,100.0 a 31.5114246565206 31.5114246565206 0.0 1 0 -31.5114246565206,31.5114246565206 a 31.5114246565206 31.5114246565206 0.0 0 0 31.5114246565206,-31.5114246565206 z"/><path fill="#220405" d="M 137.02814456595524,100.0 a 37.02814456595524 37.02814456595524 0.0 1 1 -37.02814456595524,-37.02814456595524 a 37.02814456595524 37.02814456595524 0.0 0 1 37.02814456595524,37.02814456595524 z M 134.195705208588,100.0 a 34.19570520858801 34.19570520858801 0.0 1 0 -34.19570520858801,34.19570520858801 a 34.19570520858801 34.19570520858801 0.0 0 0 34.19570520858801,-34.19570520858801 z"/><path fill="#940c54" d="M 140.01272244691282,100.0 a 40.01272244691281 40.01272244691281 0.0 1 1 -40.01272244691281,-40.01272244691281 a 40.01272244691281 40.01272244691281 0.0 0 1 40.01272244691281,40.01272244691281 z M 137.02814456595524,100.0 a 37.02814456595524 37.02814456595524 0.0 1 0 -37.02814456595524,37.02814456595524 a 37.02814456595524 37.02814456595524 0.0 0 0 37.02814456595524,-37.02814456595524 z"/><path fill="#320629" d="M 143.15341856975124,100.0 a 43.15341856975125 43.15341856975125 0.0 1 1 -43.15341856975125,-43.15341856975125 a 43.15341856975125 43.15341856975125 0.0 0 1 43.15341856975125,43.15341856975125 z M 140.0127224469128,100.0 a 40.01272244691281 40.01272244691281 0.0 1 0 -40.01272244691281,40.01272244691281 a 40.01272244691281 40.01272244691281 0.0 0 0 40.01272244691281,-40.01272244691281 z"/><path fill="#5f0e35" d="M 146.4542126527611,100.0 a 46.45421265276111 46.45421265276111 0.0 1 1 -46.45421265276111,-46.45421265276111 a 46.45421265276111 46.45421265276111 0.0 0 1 46.45421265276111,46.45421265276111 z M 143.15341856975124,100.0 a 43.15341856975125 43.15341856975125 0.0 1 0 -43.15341856975125,43.15341856975125 a 43.15341856975125 43.15341856975125 0.0 0 0 43.15341856975125,-43.15341856975125 z"/><path fill="#220405" d="M 149.91908441423288,100.0 a 49.91908441423288 49.91908441423288 0.0 1 1 -49.91908441423288,-49.91908441423288 a 49.91908441423288 49.91908441423288 0.0 0 1 49.91908441423288,49.91908441423288 z M 146.4542126527611,100.0 a 46.45421265276111 46.45421265276111 0.0 1 0 -46.45421265276111,46.45421265276111 a 46.45421265276111 46.45421265276111 0.0 0 0 46.45421265276111,-46.45421265276111 z"/><path fill="#940c54" d="M 153.5520135724571,100.0 a 53.5520135724571 53.5520135724571 0.0 1 1 -53.5520135724571,-53.5520135724571 a 53.5520135724571 53.5520135724571 0.0 0 1 53.5520135724571,53.5520135724571 z M 149.91908441423288,100.0 a 49.91908441423288 49.91908441423288 0.0 1 0 -49.91908441423288,49.91908441423288 a 49.91908441423288 49.91908441423288 0.0 0 0 49.91908441423288,-49.91908441423288 z"/><path fill="#320629" d="M 157.3569798457243,100.0 a 57.35697984572431 57.35697984572431 0.0 1 1 -57.35697984572431,-57.35697984572431 a 57.35697984572431 57.35697984572431 0.0 0 1 57.35697984572431,57.35697984572431 z M 153.5520135724571,100.0 a 53.5520135724571 53.5520135724571 0.0 1 0 -53.5520135724571,53.5520135724571 a 53.5520135724571 53.5520135724571 0.0 0 0 53.5520135724571,-53.5520135724571 z"/><path fill="#5f0e35" d="M 161.33796295232503,100.0 a 61.33796295232502 61.33796295232502 0.0 1 1 -61.33796295232502,-61.33796295232502 a 61.33796295232502 61.33796295232502 0.0 0 1 61.33796295232502,61.33796295232502 z M 157.3569798457243,100.0 a 57.35697984572431 57.35697984572431 0.0 1 0 -57.35697984572431,57.35697984572431 a 57.35697984572431 57.35697984572431 0.0 0 0 57.35697984572431,-57.35697984572431 z"/><path fill="#220405" d="M 165.49894261054976,100.0 a 65.49894261054976 65.49894261054976 0.0 1 1 -65.49894261054976,-65.49894261054976 a 65.49894261054976 65.49894261054976 0.0 0 1 65.49894261054976,65.49894261054976 z M 161.33796295232503,100.0 a 61.33796295232502 61.33796295232502 0.0 1 0 -61.33796295232502,61.33796295232502 a 61.33796295232502 61.33796295232502 0.0 0 0 61.33796295232502,-61.33796295232502 z"/><path fill="#940c54" d="M 169.84389853868905,100.0 a 69.84389853868905 69.84389853868905 0.0 1 1 -69.84389853868905,-69.84389853868905 a 69.84389853868905 69.84389853868905 0.0 0 1 69.84389853868905,69.84389853868905 z M 165.49894261054976,100.0 a 65.49894261054976 65.49894261054976 0.0 1 0 -65.49894261054976,65.49894261054976 a 65.49894261054976 65.49894261054976 0.0 0 0 65.49894261054976,-65.49894261054976 z"/><path fill="#320629" d="M 174.37681045503342,100.0 a 74.37681045503342 74.37681045503342 0.0 1 1 -74.37681045503342,-74.37681045503342 a 74.37681045503342 74.37681045503342 0.0 0 1 74.37681045503342,74.37681045503342 z M 169.84389853868905,100.0 a 69.84389853868905 69.84389853868905 0.0 1 0 -69.84389853868905,69.84389853868905 a 69.84389853868905 69.84389853868905 0.0 0 0 69.84389853868905,-69.84389853868905 z"/><path fill="#5f0e35" d="M 179.10165807787342,100.0 a 79.10165807787341 79.10165807787341 0.0 1 1 -79.10165807787341,-79.10165807787341 a 79.10165807787341 79.10165807787341 0.0 0 1 79.10165807787341,79.10165807787341 z M 174.37681045503342,100.0 a 74.37681045503342 74.37681045503342 0.0 1 0 -74.37681045503342,74.37681045503342 a 74.37681045503342 74.37681045503342 0.0 0 0 74.37681045503342,-74.37681045503342 z"/><path fill="#220405" d="M 184.02242112549953,100.0 a 84.02242112549955 84.02242112549955 0.0 1 1 -84.02242112549955,-84.02242112549955 a 84.02242112549955 84.02242112549955 0.0 0 1 84.02242112549955,84.02242112549955 z M 179.1016580778734,100.0 a 79.10165807787341 79.10165807787341 0.0 1 0 -79.10165807787341,79.10165807787341 a 79.10165807787341 79.10165807787341 0.0 0 0 79.10165807787341,-79.10165807787341 z"/><path fill="#940c54" d="M 189.14307931620232,100.0 a 89.14307931620233 89.14307931620233 0.0 1 1 -89.14307931620233,-89.14307931620233 a 89.14307931620233 89.14307931620233 0.0 0 1 89.14307931620233,89.14307931620233 z M 184.02242112549953,100.0 a 84.02242112549955 84.02242112549955 0.0 1 0 -84.02242112549955,84.02242112549955 a 84.02242112549955 84.02242112549955 0.0 0 0 84.02242112549955,-84.02242112549955 z"/><path fill="#320629" d="M 194.46761236827228,100.0 a 94.4676123682723 94.4676123682723 0.0 1 1 -94.4676123682723,-94.4676123682723 a 94.4676123682723 94.4676123682723 0.0 0 1 94.4676123682723,94.4676123682723 z M 189.14307931620232,100.0 a 89.14307931620233 89.14307931620233 0.0 1 0 -89.14307931620233,89.14307931620233 a 89.14307931620233 89.14307931620233 0.0 0 0 89.14307931620233,-89.14307931620233 z"/><path fill="#5f0e35" d="M 200.0,100.0 a 100.0 100.0 0.0 1 1 -100.0,-100.0 a 100.0 100.0 0.0 0 1 100.0,100.0 z M 194.46761236827228,100.0 a 94.4676123682723 94.4676123682723 0.0 1 0 -94.4676123682723,94.4676123682723 a 94.4676123682723 94.4676123682723 0.0 0 0 94.4676123682723,-94.4676123682723 z"/></g></svg>