<?xml version='1.0' encoding='UTF-8'?>
<svg viewBox="5.6843418860808015E-14 0.0 199.99999999999994 199.99999999999997" preserveAspectRatio="xMidYMid meet" xmlns="http://www.w3.org/2000/svg" xmlns:svg="http://www.w3.org/2000/svg"><g transform="translate(0.0, 0.0)"><circle fill="#a78e97" r="0.16511329027740576" cx="100.0" cy="100.0"/><path fill="#e378a1" d="M 100.41922066015097,100.0 a 0.4192206601509667 0.4192206601509667 0.0 1 1 -0.4192206601509667,-0.4192206601509667 a 0.4192206601509667 0.4192206601509667 0.0 0 1 0.4192206601509667,0.4192206601509667 z M 100.1651132902774,100.0 a 0.16511329027740576 0.16511329027740576 0.0 1 0 -0.16511329027740576,0.16511329027740576 a 0.16511329027740576 0.16511329027740576 0.0 0 0 0.16511329027740576,-0.16511329027740576 z"/><path fill="#fef6f8" d="M 100.7942118970926,100.0 a 0.7942118970925905 0.7942118970925905 0.0 1 1 -0.7942118970925905,-0.7942118970925905 a 0.7942118970925905 0.7942118970925905 0.0 0 1 0.7942118970925905,0.7942118970925905 z M 100.41922066015097,100.0 a 0.4192206601509667 0.4192206601509667 0.0 1 0 -0.4192206601509667,0.4192206601509667 a 0.4192206601509667 0.4192206601509667 0.0 0 0 0.4192206601509667,-0.4192206601509667 z"/><path fill="#ffa8b7" d="M 101.32881456265412,100.0 a 1.3288145626541104 1.3288145626541104 0.0 1 1 -1.3288145626541104,-1.3288145626541104 a 1.3288145626541104 1.3288145626541104 0.0 0 1 1.3288145626541104,1.3288145626541104 z M 100.7942118970926,100.0 a 0.7942118970925905 0.7942118970925905 0.0 1 0 -0.7942118970925905,0.7942118970925905 a 0.7942118970925905 0.7942118970925905 0.0 0 0 0.7942118970925905,-0.7942118970925905 z"/><path fill="#a78e97" d="M 102.06925869099257,100.0 a 2.0692586909925663 2.0692586909925663 0.0 1 1 -2.0692586909925663,-2.0692586909925663 a 2.0692586909925663 2.0692586909925663 0.0 0 1 2.0692586909925663,2.0692586909925663 z M 101.32881456265412,100.0 a 1.3288145626541104 1.3288145626541104 0.0 1 0 -1.3288145626541104,1.3288145626541104 a 1.3288145626541104 1.3288145626541104 0.0 0 0 1.3288145626541104,-1.3288145626541104 z"/><path fill="#e378a1" d="M 103.06994148739548,100.0 a 3.069941487395488 3.069941487395488 0.0 1 1 -3.069941487395488,-3.069941487395488 a 3.069941487395488 3.069941487395488 0.0 0 1 3.069941487395488,3.069941487395488 z M 102.06925869099256,100.0 a 2.0692586909925663 2.0692586909925663 0.0 1 0 -2.0692586909925663,2.0692586909925663 a 2.0692586909925663 2.0692586909925663 0.0 0 0 2.0692586909925663,-2.0692586909925663 z"/><path fill="#fef6f8" d="M 104.39409202680618,100.0 a 4.394092026806176 4.394092026806176 0.0 1 1 -4.394092026806176,-4.394092026806176 a 4.394092026806176 4.394092026806176 0.0 0 1 4.394092026806176,4.394092026806176 z M 103.0699414873955,100.0 a 3.069941487395488 3.069941487395488 0.0 1 0 -3.069941487395488,3.069941487395488 a 3.069941487395488 3.069941487395488 0.0 0 0 3.069941487395488,-3.069941487395488 z"/><path fill="#ffa8b7" d="M 106.11443595234898,100.0 a 6.1144359523489795 6.1144359523489795 0.0 1 1 -6.1144359523489795,-6.1144359523489795 a 6.1144359523489795 6.1144359523489795 0.0 0 1 6.1144359523489795,6.1144359523489795 z M 104.39409202680618,100.0 a 4.394092026806176 4.394092026806176 0.0 1 0 -4.394092026806176,4.394092026806176 a 4.394092026806176 4.394092026806176 0.0 0 0 4.394092026806176,-4.394092026806176 z"/><path fill="#a78e97" d="M 108.3138601738546,100.0 a 8.313860173854588 8.313860173854588 0.0 1 1 -8.313860173854588,-8.313860173854588 a 8.313860173854588 8.313860173854588 0.0 0 1 8.313860173854588,8.313860173854588 z M 106.11443595234898,100.0 a 6.1144359523489795 6.1144359523489795 0.0 1 0 -6.1144359523489795,6.1144359523489795 a 6.1144359523489795 6.1144359523489795 0.0 0 0 6.1144359523489795,-6.1144359523489795 z"/><path fill="#e378a1" d="M 111.0860775663853,100.0 a 11.086077566385304 11.086077566385304 0.0 1 1 -11.086077566385304,-11.086077566385304 a 11.086077566385304 11.086077566385304 0.0 0 1 11.086077566385304,11.086077566385304 z M 108.31386017385458,100.0 a 8.313860173854588 8.313860173854588 0.0 1 0 -8.313860173854588,8.313860173854588 a 8.313860173854588 8.313860173854588 0.0 0 0 8.313860173854588,-8.313860173854588 z"/><path fill="#fef6f8" d="M 114.53629166876033,100.0 a 14.536291668760331 14.536291668760331 0.0 1 1 -14.536291668760331,-14.536291668760331 a 14.536291668760331 14.536291668760331 0.0 0 1 14.536291668760331,14.536291668760331 z M 111.0860775663853,100.0 a 11.086077566385304 11.086077566385304 0.0 1 0 -11.086077566385304,11.086077566385304 a 11.086077566385304 11.086077566385304 0.0 0 0 11.086077566385304,-11.086077566385304 z"/><path fill="#ffa8b7" d="M 118.78186138208105,100.0 a 18.781861382081047 18.781861382081047 0.0 1 1 -18.781861382081047,-18.781861382081047 a 18.781861382081047 18.781861382081047 0.0 0 1 18.781861382081047,18.781861382081047 z M 114.53629166876033,100.0 a 14.536291668760331 14.536291668760331 0.0 1 0 -14.536291668760331,14.536291668760331 a 14.536291668760331 14.536291668760331 0.0 0 0 14.536291668760331,-14.536291668760331 z"/><path fill="#a78e97" d="M 123.9529656682563,100.0 a 23.952965668256297 23.952965668256297 0.0 1 1 -23.952965668256297,-23.952965668256297 a 23.952965668256297 23.952965668256297 0.0 0 1 23.952965668256297,23.952965668256297 z M 118.78186138208105,100.0 a 18.781861382081047 18.781861382081047 0.0 1 0 -18.781861382081047,18.781861382081047 a 18.781861382081047 18.781861382081047 0.0 0 0 18.781861382081047,-18.781861382081047 z"/><path fill="#e378a1" d="M 130.19326824852766,100.0 a 30.193268248527666 30.193268248527666 0.0 1 1 -30.193268248527666,-30.193268248527666 a 30.193268248527666 30.193268248527666 0.0 0 1 30.193268248527666,30.193268248527666 z M 123.9529656682563,100.0 a 23.952965668256297 23.952965668256297 0.0 1 0 -23.952965668256297,23.952965668256297 a 23.952965668256297 23.952965668256297 0.0 0 0 23.952965668256297,-23.952965668256297 z"/><path fill="#fef6f8" d="M 137.66058230199476,100.0 a 37.66058230199477 37.66058230199477 0.0 1 1 -37.66058230199477,-37.66058230199477 a 37.66058230199477 37.66058230199477 0.0 0 1 37.66058230199477,37.66058230199477 z M 130.19326824852766,100.0 a 30.193268248527666 30.193268248527666 0.0 1 0 -30.193268248527666,30.193268248527666 a 30.193268248527666 30.193268248527666 0.0 0 0 30.193268248527666,-30.193268248527666 z"/><path fill="#ffa8b7" d="M 146.52753516414055,100.0 a 46.52753516414053 46.52753516414053 0.0 1 1 -46.52753516414053,-46.52753516414053 a 46.52753516414053 46.52753516414053 0.0 0 1 46.52753516414053,46.52753516414053 z M 137.6605823019948,100.0 a 37.66058230199477 37.66058230199477 0.0 1 0 -37.66058230199477,37.66058230199477 a 37.66058230199477 37.66058230199477 0.0 0 0 37.66058230199477,-37.66058230199477 z"/><path fill="#a78e97" d="M 156.98223302535644,100.0 a 56.98223302535644 56.98223302535644 0.0 1 1 -56.98223302535644,-56.98223302535644 a 56.98223302535644 56.98223302535644 0.0 0 1 56.98223302535644,56.98223302535644 z M 146.52753516414052,100.0 a 46.52753516414053 46.52753516414053 0.0 1 0 -46.52753516414053,46.52753516414053 a 46.52753516414053 46.52753516414053 0.0 0 0 46.52753516414053,-46.52753516414053 z"/><path fill="#e378a1" d="M 169.22892562946788,100.0 a 69.2289256294679 69.2289256294679 0.0 1 1 -69.2289256294679,-69.2289256294679 a 69.2289256294679 69.2289256294679 0.0 0 1 69.2289256294679,69.2289256294679 z M 156.98223302535644,100.0 a 56.98223302535644 56.98223302535644 0.0 1 0 -56.98223302535644,56.98223302535644 a 56.98223302535644 56.98223302535644 0.0 0 0 56.98223302535644,-56.98223302535644 z"/><path fill="#fef6f8" d="M 183.4886709722594,100.0 a 83.48867097225941 83.48867097225941 0.0 1 1 -83.48867097225941,-83.48867097225941 a 83.48867097225941 83.48867097225941 0.0 0 1 83.48867097225941,83.48867097225941 z M 169.22892562946788,100.0 a 69.2289256294679 69.2289256294679 0.0 1 0 -69.2289256294679,69.2289256294679 a 69.2289256294679 69.2289256294679 0.0 0 0 69.2289256294679,-69.2289256294679 z"/><path fill="#ffa8b7" d="M 200.0,100.0 a 99.99999999999999 99.99999999999999 0.0 1 1 -99.99999999999999,-99.99999999999999 a 99.99999999999999 99.99999999999999 0.0 0 1 99.99999999999999,99.99999999999999 z M 183.48867097225943,100.0 a 83.48867097225941 83.48867097225941 0.0 1 0 -83.48867097225941,83.48867097225941 a 83.48867097225941 83.48867097225941 0.0 0 0 83.48867097225941,-83.48867097225941 z"/></g></svg>