<?xml version='1.0' encoding='UTF-8'?>
<svg viewBox="-6.252776074688882E-13 -5.6843418860808015E-14 200.0000000000007 200.0000000000002" preserveAspectRatio="xMidYMid meet" xmlns="http://www.w3.org/2000/svg" xmlns:svg="http://www.w3.org/2000/svg"><g transform="translate(0.0, 0.0)"><path fill="#5e7044" d="M 120.0,100.0 a 20.0 20.0 0.0 1 1 -20.0,-20.0 a 20.0 20.0 0.0 0 1 20.0,20.0 z M 110.0,100.0 a 10.0 10.0 0.0 1 0 -10.0,10.0 a 10.0 10.0 0.0 0 0 10.0,-10.0 z"/><path fill="#6e745a" d="M 130.0,100.0 a 30.0 30.0 0.0 1 1 -30.0,-30.0 a 30.0 30.0 0.0 0 1 30.0,30.0 z M 120.0,100.0 a 20.0 20.0 0.0 1 0 -20.0,20.0 a 20.0 20.0 0.0 0 0 20.0,-20.0 z"/><path fill="#6e7a40" d="M 140.0,100.0 a 40.0 40.0 0.0 1 1 -40.0,-40.0 a 40.0 40.0 0.0 0 1 40.0,40.0 z M 130.0,100.0 a 30.0 30.0 0.0 1 0 -30.0,30.0 a 30.0 30.0 0.0 0 0 30.0,-30.0 z"/><path fill="#596b41" d="M 170.0,100.0 a 70.0 70.0 0.0 1 1 -70.0,-70.0 a 70.0 70.0 0.0 0 1 70.0,70.0 z M 160.0,100.0 a 60.0 60.0 0.0 1 0 -60.0,60.0 a 60.0 60.0 0.0 0 0 60.0,-60.0 z"/><path fill="#84a159" d="M 180.0,100.0 a 80.0 80.0 0.0 1 1 -80.0,-80.0 a 80.0 80.0 0.0 0 1 80.0,80.0 z M 170.0,100.0 a 70.0 70.0 0.0 1 0 -70.0,70.0 a 70.0 70.0 0.0 0 0 70.0,-70.0 z"/><path fill="#53623e" d="M 190.0,100.0 a 90.0 90.0 0.0 1 1 -90.0,-90.0 a 90.0 90.0 0.0 0 1 90.0,90.0 z M 180.0,100.0 a 80.0 80.0 0.0 1 0 -80.0,80.0 a 80.0 80.0 0.0 0 0 80.0,-80.0 z"/><path fill="#555654" d="M 100.0,100.0 l 9.779291162850448 2.089369367104612 a 10.0 10.0 0.0 0 1 -0.16680193938669596,0.6674496202054399 l -9.612489223463752 -2.756818987310052 z"/><path fill="#5e7044" d="M 100.0,100.0 l 9.612489223463752 2.756818987310052 a 10.0 10.0 0.0 0 1 -3.554548162813008,5.199395571491246 l -6.0579410606507444 -7.956214558801298 z"/><path fill="#6e745a" d="M 100.0,100.0 l 6.0579410606507444 7.956214558801298 a 10.0 10.0 0.0 0 1 -6.098648109449859,2.04370258766437 l 0.04070704879911449 -9.999917146465668 z"/><path fill="#6e7a40" d="M 100.0,100.0 l -0.04070704879911449 9.999917146465668 a 10.0 10.0 0.0 0 1 -3.9411183930151874,-0.8268551630862717 l 3.9818254418143018 -9.173061983379396 z"/><path fill="#5d6945" d="M 100.0,100.0 l -3.9818254418143018 9.173061983379396 a 10.0 10.0 0.0 0 1 -0.9753552106495236,-0.4882269257148959 l 4.957180652463825 -8.6848350576645 z"/><path fill="#888f78" d="M 100.0,100.0 l -4.957180652463825 8.6848350576645 a 10.0 10.0 0.0 0 1 -1.1469092226435436,-0.7639710393511132 l 6.104089875107369 -7.920864018313387 z"/><path fill="#596b41" d="M 100.0,100.0 l -6.104089875107369 7.920864018313387 a 10.0 10.0 0.0 0 1 -2.160705494434695,-2.291196399386311 l 8.264795369542064 -5.629667618927076 z"/><path fill="#84a159" d="M 100.0,100.0 l -8.264795369542064 5.629667618927076 a 10.0 10.0 0.0 0 1 -1.094711136370849,-2.108355652376275 l 9.359506505912913 -3.521311966550801 z"/><path fill="#53623e" d="M 100.0,100.0 l -9.359506505912913 3.521311966550801 a 10.0 10.0 0.0 0 1 -0.2931749928810632,-0.9087002688734636 l 9.652681498793976 -2.6126116976773375 z"/><path fill="#7a835a" d="M 100.0,100.0 l -9.652681498793976 2.6126116976773375 a 10.0 10.0 0.0 0 1 -0.08362079743122308,-0.331292430998539 l 9.7363022962252 -2.2813192666787985 z"/><path fill="#555654" d="M 100.0,100.0 l -9.7363022962252 2.2813192666787985 a 10.0 10.0 0.0 0 1 2.847351416627494,-9.529929876891627 l 6.888950879597705 7.248610610212829 z"/><path fill="#5e7044" d="M 100.0,100.0 l -6.8889508795977115 -7.248610610212822 a 10.0 10.0 0.0 0 1 1.1995804609229737,-0.9752001998136866 l 5.689370418674738 8.223810810026508 z"/><path fill="#6e745a" d="M 100.0,100.0 l -5.689370418674738 -8.223810810026508 a 10.0 10.0 0.0 0 1 1.0239328505937468,-0.6211703826238484 l 4.665437568080991 8.844981192650357 z"/><path fill="#6e7a40" d="M 100.0,100.0 l -4.665437568080991 -8.844981192650357 a 10.0 10.0 0.0 0 1 5.3079929697486286,-1.1343535825632554 l -0.6425554016676371 9.979334775213612 z"/><path fill="#5d6945" d="M 100.0,100.0 l 0.6425554016676371 -9.979334775213612 a 10.0 10.0 0.0 0 1 0.05072637488960374,0.0033957027105309123 l -0.6932817765572409 9.975939072503081 z"/><path fill="#888f78" d="M 100.0,100.0 l 0.6932817765572409 -9.975939072503081 a 10.0 10.0 0.0 0 1 1.7268795418560305,0.2732168156899881 l -2.4201613184132715 9.702722256813093 z"/><path fill="#596b41" d="M 100.0,100.0 l 2.4201613184132715 -9.702722256813093 a 10.0 10.0 0.0 0 1 1.1381781147558274,0.35723026985201045 l -3.558339433169099 9.345491986961083 z"/><path fill="#84a159" d="M 100.0,100.0 l 3.558339433169099 -9.345491986961083 a 10.0 10.0 0.0 0 1 1.810450710580982,0.908899523627797 l -5.368790143750081 8.436592463333286 z"/><path fill="#53623e" d="M 100.0,100.0 l 5.368790143750081 -8.436592463333286 a 10.0 10.0 0.0 0 1 2.8471331977554666,2.7358378074561944 l -8.215923341505547 5.700754655877091 z"/><path fill="#7a835a" d="M 100.0,100.0 l 8.215923341505547 -5.700754655877091 a 10.0 10.0 0.0 0 1 1.6467643844237703,4.049273253982666 l -9.862687725929318 1.6514814018944248 z"/><path fill="#555654" d="M 100.0,100.0 l 9.862687725929318 -1.6514814018944248 a 10.0 10.0 0.0 0 1 -0.08339656307886756,3.7408507689990285 l -9.77929116285045 -2.0893693671046036 z"/><path fill="#555654" d="M 105.06575557600078,60.322070108885256 l 1.266438894000196 -9.919482472778686 a 50.0 50.0 0.0 0 1 3.3951813049934905,0.5527576038479616 l -1.9454751549988938 9.808930952009092 a 40.0 40.0 0.0 0 0 -2.7161450439947927,-0.44220608307836784 z"/><path fill="#5e7044" d="M 107.78190061999561,60.76427619196363 l 1.9454751549988942 -9.808930952009094 a 50.0 50.0 0.0 0 1 27.38874663695615,15.54251367770423 l -7.4232244823901254 6.7004282164682465 a 40.0 40.0 0.0 0 0 -21.91099730956492,-12.434010942163383 z"/><path fill="#6e745a" d="M 129.69289792956053,73.19828713412704 l 7.423224482390124 -6.700428216468248 a 50.0 50.0 0.0 0 1 12.726223758496333,29.53470762665077 l -9.96846923408939 0.7934866911380922 a 40.0 40.0 0.0 0 0 -10.180979006797067,-23.627766101320617 z"/><path fill="#6e7a40" d="M 139.87387693635756,96.82605323544763 l 9.96846923408939 -0.7934866911380939 a 50.0 50.0 0.0 0 1 -2.4763083246517894,19.981753884316227 l -9.47320756915903 -3.2028640857251514 a 40.0 40.0 0.0 0 0 1.9810466597214287,-15.985403107452983 z"/><path fill="#5d6945" d="M 137.89283027663612,112.8114563429006 l 9.473207569159033 3.202864085725152 a 50.0 50.0 0.0 0 1 -2.0258770787949807,5.063388688414861 l -9.068032153400033 -4.215541823408124 a 40.0 40.0 0.0 0 0 1.6207016630359803,-4.050710950731888 z"/><path fill="#888f78" d="M 136.27212861360016,116.86216729363245 l 9.068032153400038 4.215541823408124 a 50.0 50.0 0.0 0 1 -3.3282506467810062,6.033163389218291 l -8.402382024043838 -5.422174501251785 a 40.0 40.0 0.0 0 0 2.6626005174248064,-4.82653071137463 z"/><path fill="#596b41" d="M 133.60952809617538,121.6886980050071 l 8.402382024043836 5.4221745012517815 a 50.0 50.0 0.0 0 1 -10.514987720901422,11.72138057505682 l -6.299384479863551 -7.766450616263146 a 40.0 40.0 0.0 0 0 8.411990176721137,-9.377104460045455 z"/><path fill="#84a159" d="M 125.19753791945425,131.06580246505257 l 6.299384479863552 7.766450616263145 a 50.0 50.0 0.0 0 1 -10.048520377826456,6.3337302548686845 l -4.289680404298263 -9.03319666723688 a 40.0 40.0 0.0 0 0 8.038816302261168,-5.06698420389495 z"/><path fill="#53623e" d="M 117.15872161719304,136.13278666894752 l 4.28968040429826 9.033196667236883 a 50.0 50.0 0.0 0 1 -4.405407643792789,1.839722090303308 l -3.4085988755397025 -9.401141085297546 a 40.0 40.0 0.0 0 0 3.5243261150342313,-1.471777672242645 z"/><path fill="#7a835a" d="M 113.63439550215881,137.60456434119016 l 3.4085988755397025 9.401141085297544 a 50.0 50.0 0.0 0 1 -1.6158181447337387,0.5548058562670821 l -3.085435246592956 -9.51210225655096 a 40.0 40.0 0.0 0 0 1.2926545157869924,-0.4438446850136657 z"/><path fill="#555654" d="M 112.34174098637179,138.04840902620384 l 3.0854352465929544 9.51210225655096 a 50.0 50.0 0.0 0 1 -48.67105103697281,-10.212890367689283 l 6.64877496080161 -7.469524183013107 a 40.0 40.0 0.0 0 0 38.936840829578244,8.17031229415143 z"/><path fill="#5e7044" d="M 73.40490015679357,129.87809673205243 l -6.648774960801608 7.469524183013103 a 50.0 50.0 0.0 0 1 -5.359271677450983,-5.570316408058979 l 7.720629296291804 -6.355460901401308 a 40.0 40.0 0.0 0 0 4.287417341960786,4.456253126447184 z"/><path fill="#6e745a" d="M 69.11748281483278,125.42184360560523 l -7.720629296291804 6.355460901401307 a 50.0 50.0 0.0 0 1 -3.5220401755412993,-4.842779281696134 l 8.425037331400063 -5.386905045062079 a 40.0 40.0 0.0 0 0 2.817632140433041,3.874223425356906 z"/><path fill="#6e7a40" d="M 66.29985067439975,121.54762018024833 l -8.425037331400064 5.386905045062081 a 50.0 50.0 0.0 0 1 -7.865594698622486,-25.974431764070957 l 9.998156271124557 -0.19201869224788837 a 40.0 40.0 0.0 0 0 6.292475758897993,20.779545411256763 z"/><path fill="#5d6945" d="M 60.00737491550175,100.76807476899157 l -9.998156271124563 0.19201869224788987 a 50.0 50.0 0.0 0 1 -0.004235035394012598,-0.2541642424372175 l 9.99900327820336 -0.1411858437604464 a 40.0 40.0 0.0 0 0 0.003388028315214342,0.20333139394977406 z"/><path fill="#888f78" d="M 60.003986887186535,100.56474337504179 l -9.999003278203366 0.14118584376044635 a 50.0 50.0 0.0 0 1 0.6411646253218262,-8.718251971275707 l 9.870770353139001 1.6024645504946955 a 40.0 40.0 0.0 0 0 -0.5129317002574609,6.974601577020565 z"/><path fill="#596b41" d="M 60.516918587443996,93.59014179802122 l -9.870770353139001 -1.602464550494695 a 50.0 50.0 0.0 0 1 1.3052740453882734,-5.820037098818823 l 9.609715544061345 2.7664719702584595 a 40.0 40.0 0.0 0 0 -1.0442192363106173,4.656029679055058 z"/><path fill="#84a159" d="M 61.56113782375461,88.93411211896615 l -9.609715544061347 -2.7664719702584595 a 50.0 50.0 0.0 0 1 3.773651854023621,-9.399750245191287 l 8.854985173256622 4.646422019296715 a 40.0 40.0 0.0 0 0 -3.0189214832188966,7.519800196153032 z"/><path fill="#53623e" d="M 64.58005930697351,81.41431192281313 l -8.854985173256622 -4.646422019296717 a 50.0 50.0 0.0 0 1 12.444187812394393,-15.32698889382894 l 6.366147610777745 7.711819798062503 a 40.0 40.0 0.0 0 0 -9.955350249915515,12.261591115063155 z"/><path fill="#7a835a" d="M 74.53540955688902,69.15272080774997 l -6.366147610777744 -7.711819798062506 a 50.0 50.0 0.0 0 1 19.489071855137205,-9.893798502392638 l 2.4683332397503026 9.690579498541034 a 40.0 40.0 0.0 0 0 -15.591257484109763,7.915038801914111 z"/><path fill="#555654" d="M 90.12666704099883,61.23768200583586 l -2.4683332397502946 -9.690579498541036 a 50.0 50.0 0.0 0 1 18.67386066875241,-1.144514871188262 l -1.2664388940001885 9.91948247277869 a 40.0 40.0 0.0 0 0 -14.939088535001929,0.9156118969506082 z"/><path fill="#555654" d="M 91.94378534585482,50.65329387439992 l -1.6112429308290366 -9.869341225120017 a 60.0 60.0 0.0 0 1 4.094393440389396,-0.5245666069581674 l 0.9288440240974705 9.956768992946373 a 50.0 50.0 0.0 0 0 -3.41199453365783,0.43713883913181206 z"/><path fill="#5e7044" d="M 95.35577987951265,50.21615503526811 l -0.9288440240974706 -9.956768992946378 a 60.0 60.0 0.0 0 1 36.81734731226673,8.517623325173131 l -5.2073805279469845 8.537165105417529 a 50.0 50.0 0.0 0 0 -30.681122760222276,-7.0980194376442824 z"/><path fill="#6e745a" d="M 126.03690263973493,57.31417447291239 l 5.2073805279469845 -8.537165105417522 a 60.0 60.0 0.0 0 1 24.73331092425157,29.62417215373796 l -9.329599015322245 3.5998030797945297 a 50.0 50.0 0.0 0 0 -20.61109243687631,-24.686810128114967 z"/><path fill="#6e7a40" d="M 146.64799507661124,82.0009846010274 l 9.329599015322247 -3.5998030797945284 a 60.0 60.0 0.0 0 1 3.980857120983563,23.831334581339995 l -9.993075202152838 -0.37208601709547295 a 50.0 50.0 0.0 0 0 -3.317380934152972,-19.859445484449992 z"/><path fill="#5d6945" d="M 149.9653760107642,101.86043008547739 l 9.99307520215284 0.37208601709547034 a 60.0 60.0 0.0 0 1 -0.5998018041261606,6.516811892436268 l -9.893108234798483 -1.4582213325015143 a 50.0 50.0 0.0 0 0 0.49983483677180374,-5.430676577030224 z"/><path fill="#888f78" d="M 149.4655411739924,107.29110666250757 l 9.89310823479848 1.458221332501515 a 60.0 60.0 0.0 0 1 -1.7664713151259441,8.077466780811434 l -9.598696348944152 -2.8044657959700867 a 50.0 50.0 0.0 0 0 1.4720594292716171,-6.731222317342862 z"/><path fill="#596b41" d="M 147.99348174472078,114.02232897985043 l 9.598696348944156 2.8044657959700876 a 60.0 60.0 0.0 0 1 -8.089249655684394,17.076893461068636 l -8.250488072996752 -5.6506147061481915 a 50.0 50.0 0.0 0 0 6.741041379736991,-14.230744550890533 z"/><path fill="#84a159" d="M 141.25244036498378,128.25307353074095 l 8.250488072996758 5.650614706148193 a 60.0 60.0 0.0 0 1 -9.39406061986571,10.720057934280643 l -6.684811303019146 -7.4372910285283 a 50.0 50.0 0.0 0 0 7.828383849888098,-8.933381611900536 z"/><path fill="#53623e" d="M 133.42405651509569,137.1864551426415 l 6.684811303019139 7.437291028528302 a 60.0 60.0 0.0 0 1 -4.438755196344176,3.6219071620600953 l -5.945018770295107 -8.040942222204983 a 50.0 50.0 0.0 0 0 3.6989626636201436,-3.0182559683834143 z"/><path fill="#7a835a" d="M 129.72509385147555,140.20471111102492 l 5.94501877029511 8.040942222204984 a 60.0 60.0 0.0 0 1 -1.6690521559242013,1.1904456956968499 l -5.666843410974412 -8.23934983815446 a 50.0 50.0 0.0 0 0 1.3908767966035036,-0.992038079747374 z"/><path fill="#555654" d="M 128.33421705487206,141.1967491907723 l 5.666843410974409 8.23934983815446 a 60.0 60.0 0.0 0 1 -59.47679698673882,4.886887346253971 l 4.24595608681539 -9.053831062530122 a 50.0 50.0 0.0 0 0 49.56399748894902,-4.072406121878309 z"/><path fill="#5e7044" d="M 78.77021956592303,145.2691553126506 l -4.245956086815395 9.05383106253012 a 60.0 60.0 0.0 0 1 -8.068581896945096,-4.57583869933171 l 5.590719736306244 -8.291191279308173 a 50.0 50.0 0.0 0 0 6.723818247454247,3.813198916109762 z"/><path fill="#6e745a" d="M 72.04640131846878,141.45595639654084 l -5.590719736306244 8.291191279308169 a 60.0 60.0 0.0 0 1 -5.706559898489395,-4.366881574856368 l 6.541813052721146 -7.563377683498771 a 50.0 50.0 0.0 0 0 4.755466582074494,3.6390679790469704 z"/><path fill="#6e7a40" d="M 67.29093473639429,137.81688841749389 l -6.541813052721144 7.563377683498774 a 60.0 60.0 0.0 0 1 -17.925307309295476,-27.190054521564072 l 9.529364270937059 -3.0317019299047594 a 50.0 50.0 0.0 0 0 14.937756091079564,22.658378767970056 z"/><path fill="#5d6945" d="M 52.35317864531472,115.15850964952382 l -9.529364270937057 3.0317019299047625 a 60.0 60.0 0.0 0 1 -0.09173964820098668,-0.29091732429695005 l 9.54465421230389 -2.9832157091886042 a 50.0 50.0 0.0 0 0 0.07644970683415409,0.24243110358079178 z"/><path fill="#888f78" d="M 52.27672893848057,114.91607854594302 l -9.544654212303886 2.9832157091886042 a 60.0 60.0 0.0 0 1 -2.24218783643747,-10.24772986580794 l 9.91835218504346 -1.2752607315539475 a 50.0 50.0 0.0 0 0 1.8684898636978957,8.539774888173284 z"/><path fill="#596b41" d="M 50.40823907478267,106.37630365776974 l -9.918352185043465 1.2752607315539475 a 60.0 60.0 0.0 0 1 -0.48771366750312417,-7.14089625302092 l 9.999637796293989 -0.08511135605046061 a 50.0 50.0 0.0 0 0 0.4064280562526008,5.9507468775174335 z"/><path fill="#84a159" d="M 50.00181101853007,100.42555678025231 l -9.999637796293987 0.08511135605046079 a 60.0 60.0 0.0 0 1 1.1281857881329724,-12.102275865688883 l 9.811606831605154 1.9319346215643538 a 50.0 50.0 0.0 0 0 -0.9401548234441393,10.085229888074068 z"/><path fill="#53623e" d="M 50.94196584197421,90.34032689217823 l -9.811606831605157 -1.931934621564353 a 60.0 60.0 0.0 0 1 9.076083303135757,-21.883780437469778 l 8.298926281082537 5.5792313611426465 a 50.0 50.0 0.0 0 0 -7.563402752613136,18.236483697891483 z"/><path fill="#7a835a" d="M 58.505368594587345,72.10384319428675 l -8.298926281082531 -5.579231361142649 a 60.0 60.0 0.0 0 1 19.036755899735212,-18.041785123707694 l 5.126133631126663 8.58619554842727 a 50.0 50.0 0.0 0 0 -15.863963249779342,15.034820936423074 z"/><path fill="#555654" d="M 74.36933184436668,57.06902225786367 l -5.126133631126662 -8.586195548427265 a 60.0 60.0 0.0 0 1 21.08934420178565,-7.69887406015649 l 1.6112429308290537 9.86934122512001 a 50.0 50.0 0.0 0 0 -17.57445350148804,6.415728383463744 z"/><path fill="#555654" d="M 12.228391785960696,80.09661356650106 l -9.752400912671034 -2.211487381499881 a 100.0 100.0 0.0 0 1 1.7513476426470884,-6.65311729072541 l 9.577266148406324 2.8767991105724207 a 90.0 90.0 0.0 0 0 -1.5762128783823783,5.98780556165287 z"/><path fill="#5e7044" d="M 13.804604664343074,74.1088080048482 l -9.577266148406325 -2.8767991105724215 a 100.0 100.0 0.0 0 1 36.192840990295515,-51.545426141522924 l 5.957982049376774 8.031341724724712 a 90.0 90.0 0.0 0 0 -32.573556891265966,46.39088352737063 z"/><path fill="#6e745a" d="M 46.378161555609054,27.717924477477567 l -5.957982049376773 -8.031341724724715 a 100.0 100.0 0.0 0 1 61.237260081101574,-19.67284627937104 l -0.16574395873338688 9.998626352661816 a 90.0 90.0 0.0 0 0 -55.11353407299141,17.70556165143394 z"/><path fill="#6e7a40" d="M 101.49169562860047,10.012362826043628 l 0.16574395873338368 -9.99862635266182 a 100.0 100.0 0.0 0 1 39.30471188186847,8.760707090857682 l -4.09621514692023 9.12255564357605 a 90.0 90.0 0.0 0 0 -35.37424069368163,-7.884636381771912 z"/><path fill="#5d6945" d="M 136.8659363222821,17.89699920781554 l 4.0962151469202315 -9.122555643576051 a 100.0 100.0 0.0 0 1 9.691741133205744,5.003847080032061 l -5.065389260240806 8.62217093557284 a 90.0 90.0 0.0 0 0 -8.722567019885169,-4.503462372028849 z"/><path fill="#888f78" d="M 145.58850334216731,22.400461579844446 l 5.0653892602408055 -8.622170935572845 a 100.0 100.0 0.0 0 1 11.372667778001599,7.78252394833533 l -6.202656038040963 7.84391854073931 a 90.0 90.0 0.0 0 0 -10.235401000201442,-7.004271553501795 z"/><path fill="#596b41" d="M 155.82390434236876,29.40473313334624 l 6.202656038040965 -7.843918540739313 a 100.0 100.0 0.0 0 1 21.31887193297066,23.18034980171156 l -8.334543231338031 5.525883560568161 a 90.0 90.0 0.0 0 0 -19.18698473967359,-20.86231482154041 z"/><path fill="#84a159" d="M 175.0108890820423,50.2670479548866 l 8.334543231338031 -5.525883560568157 a 100.0 100.0 0.0 0 1 10.682624354448066,21.21879213814685 l -9.40280566678284 3.4040043467534744 a 90.0 90.0 0.0 0 0 -9.614361919003258,-19.096912924332166 z"/><path fill="#53623e" d="M 184.62525100104557,69.36396087921884 l 9.40280566678284 -3.4040043467534713 a 100.0 100.0 0.0 0 1 2.817895819143203,9.122951203563755 l -9.68459524869715 2.491709226397095 a 90.0 90.0 0.0 0 0 -2.5361062372288927,-8.210656083207379 z"/><path fill="#7a835a" d="M 187.16135723827443,77.57461696242615 l 9.684595248697159 -2.491709226397096 a 100.0 100.0 0.0 0 1 0.794717420609464,3.32312134617088 l -9.76406699075811 2.159397091780008 a 90.0 90.0 0.0 0 0 -0.7152456785485128,-2.990809211553792 z"/><path fill="#555654" d="M 187.87660291682295,80.56542617397994 l 9.764066990758106 -2.159397091780008 a 100.0 100.0 0.0 0 1 -29.66292130726536,94.93581228568692 l -6.7977748600315735 -7.334184136788693 a 90.0 90.0 0.0 0 0 26.696629176538828,-85.44223105711822 z"/><path fill="#5e7044" d="M 161.17997374028414,166.00765723109816 l 6.797774860031569 7.334184136788684 a 100.0 100.0 0.0 0 1 -12.116806916923974,9.601242697300359 l -5.586094168339166 -8.294308406518724 a 90.0 90.0 0.0 0 0 10.90512622523157,-8.64111842757032 z"/><path fill="#6e745a" d="M 150.2748475150526,174.64877565866843 l 5.586094168339172 8.294308406518718 a 100.0 100.0 0.0 0 1 -10.316199846182684,6.083184479450699 l -4.554474183720899 -8.90262685446379 a 90.0 90.0 0.0 0 0 9.28457986156441,-5.474866031505627 z"/><path fill="#6e7a40" d="M 140.99026765348822,180.12364169017405 l 4.554474183720904 8.902626854463788 a 100.0 100.0 0.0 0 1 -53.21762078841932,10.678931563481216 l 0.7672878951210294 -9.97052001081191 a 90.0 90.0 0.0 0 0 47.89585870957738,-9.611038407133094 z"/><path fill="#5d6945" d="M 93.09440894391076,189.7346800973072 l -0.7672878951210247 9.97052001081191 a 100.0 100.0 0.0 0 1 -0.5067994887837515,-0.04029725551859542 l 0.8179678439993996 -9.96649028526005 a 90.0 90.0 0.0 0 0 0.45611953990537657,0.03626752996673588 z"/><path fill="#888f78" d="M 92.63828940400539,189.69841256734045 l -0.8179678439993998 9.96649028526005 a 100.0 100.0 0.0 0 1 -17.233282014269385,-2.9478855239522517 l 2.541296045426339 -9.671701732864832 a 90.0 90.0 0.0 0 0 15.509953812842447,2.6530969715570336 z"/><path fill="#596b41" d="M 77.12833559116297,187.04531559578342 l -2.5412960454263382 9.671701732864825 a 100.0 100.0 0.0 0 1 -11.336222849842997,-3.7143424935598333 l 3.674918330410641 -9.300267483508833 a 90.0 90.0 0.0 0 0 10.202600564858695,3.3429082442038407 z"/><path fill="#84a159" d="M 66.92573502630427,183.70240735157958 l -3.6749183304106383 9.300267483508842 a 100.0 100.0 0.0 0 1 -17.98944188291301,-9.314665463165804 l 5.473862518701942 -8.368800937192262 a 90.0 90.0 0.0 0 0 16.190497694621705,8.383198916849224 z"/><path fill="#53623e" d="M 50.73523733168256,175.31920843473034 l -5.473862518701939 8.368800937192262 a 100.0 100.0 0.0 0 1 -28.127013857205394,-27.71224795868011 l 8.28656390442248 -5.597576141324254 a 90.0 90.0 0.0 0 0 25.314312471484854,24.9410231628121 z"/><path fill="#7a835a" d="M 25.420924860197673,150.37818527191826 l -8.286563904422477 5.597576141324251 a 100.0 100.0 0.0 0 1 -15.960030715610417,-40.695480116093655 l 9.882566975983522 -1.5280281297148903 a 90.0 90.0 0.0 0 0 14.364027644049372,36.62593210448429 z"/><path fill="#555654" d="M 11.056897216148329,113.75225316743398 l -9.882566975983519 1.528028129714885 a 100.0 100.0 0.0 0 1 1.3016606331248362,-37.39515511214757 l 9.752400912671035 2.2114873814998717 a 90.0 90.0 0.0 0 0 -1.171494569812353,33.655639600932815 z"/></g></svg>