<?xml version='1.0' encoding='UTF-8'?>
<svg viewBox="0.0 0.0 200.0 200.0" preserveAspectRatio="xMidYMid meet" xmlns="http://www.w3.org/2000/svg" xmlns:svg="http://www.w3.org/2000/svg"><g transform="translate(0.0, 0.0)"><circle fill="#f80f3d" r="0.0013916011874297053" cx="100.0" cy="100.0"/><path fill="#f49d7f" d="M 100.00319159094798,100.0 a 0.00319159094798332 0.00319159094798332 0.0 1 1 -0.00319159094798332,-0.00319159094798332 a 0.00319159094798332 0.00319159094798332 0.0 0 1 0.00319159094798332,0.00319159094798332 z M 100.00139160118742,100.0 a 0.0013916011874297053 0.0013916011874297053 0.0 1 0 -0.0013916011874297053,0.0013916011874297053 a 0.0013916011874297053 0.0013916011874297053 0.0 0 0 0.0013916011874297053,-0.0013916011874297053 z"/><path fill="#809df8" d="M 100.00550973489278,100.0 a 0.005509734892787436 0.005509734892787436 0.0 1 1 -0.005509734892787436,-0.005509734892787436 a 0.005509734892787436 0.005509734892787436 0.0 0 1 0.005509734892787436,0.005509734892787436 z M 100.00319159094798,100.0 a 0.00319159094798332 0.00319159094798332 0.0 1 0 -0.00319159094798332,0.00319159094798332 a 0.00319159094798332 0.00319159094798332 0.0 0 0 0.00319159094798332,-0.00319159094798332 z"/><path fill="#dc8666" d="M 100.0084826904347,100.0 a 0.0084826904347016 0.0084826904347016 0.0 1 1 -0.0084826904347016,-0.0084826904347016 a 0.0084826904347016 0.0084826904347016 0.0 0 1 0.0084826904347016,0.0084826904347016 z M 100.00550973489278,100.0 a 0.005509734892787436 0.005509734892787436 0.0 1 0 -0.005509734892787436,0.005509734892787436 a 0.005509734892787436 0.005509734892787436 0.0 0 0 0.005509734892787436,-0.005509734892787436 z"/><path fill="#f80f3d" d="M 100.01227997851822,100.0 a 0.012279978518225146 0.012279978518225146 0.0 1 1 -0.012279978518225146,-0.012279978518225146 a 0.012279978518225146 0.012279978518225146 0.0 0 1 0.012279978518225146,0.012279978518225146 z M 100.0084826904347,100.0 a 0.0084826904347016 0.0084826904347016 0.0 1 0 -0.0084826904347016,0.0084826904347016 a 0.0084826904347016 0.0084826904347016 0.0 0 0 0.0084826904347016,-0.0084826904347016 z"/><path fill="#f49d7f" d="M 100.01711114938935,100.0 a 0.017111149389352577 0.017111149389352577 0.0 1 1 -0.017111149389352577,-0.017111149389352577 a 0.017111149389352577 0.017111149389352577 0.0 0 1 0.017111149389352577,0.017111149389352577 z M 100.01227997851822,100.0 a 0.012279978518225146 0.012279978518225146 0.0 1 0 -0.012279978518225146,0.012279978518225146 a 0.012279978518225146 0.012279978518225146 0.0 0 0 0.012279978518225146,-0.012279978518225146 z"/><path fill="#809df8" d="M 100.02323435566342,100.0 a 0.023234355663420327 0.023234355663420327 0.0 1 1 -0.023234355663420327,-0.023234355663420327 a 0.023234355663420327 0.023234355663420327 0.0 0 1 0.023234355663420327,0.023234355663420327 z M 100.01711114938935,100.0 a 0.017111149389352577 0.017111149389352577 0.0 1 0 -0.017111149389352577,0.017111149389352577 a 0.017111149389352577 0.017111149389352577 0.0 0 0 0.017111149389352577,-0.017111149389352577 z"/><path fill="#dc8666" d="M 100.03096657964078,100.0 a 0.0309665796407795 0.0309665796407795 0.0 1 1 -0.0309665796407795,-0.0309665796407795 a 0.0309665796407795 0.0309665796407795 0.0 0 1 0.0309665796407795,0.0309665796407795 z M 100.02323435566342,100.0 a 0.023234355663420327 0.023234355663420327 0.0 1 0 -0.023234355663420327,0.023234355663420327 a 0.023234355663420327 0.023234355663420327 0.0 0 0 0.023234355663420327,-0.023234355663420327 z"/><path fill="#f80f3d" d="M 100.04069580016355,100.0 a 0.04069580016354713 0.04069580016354713 0.0 1 1 -0.04069580016354713,-0.04069580016354713 a 0.04069580016354713 0.04069580016354713 0.0 0 1 0.04069580016354713,0.04069580016354713 z M 100.03096657964078,100.0 a 0.0309665796407795 0.0309665796407795 0.0 1 0 -0.0309665796407795,0.0309665796407795 a 0.0309665796407795 0.0309665796407795 0.0 0 0 0.0309665796407795,-0.0309665796407795 z"/><path fill="#f49d7f" d="M 100.05289542785435,100.0 a 0.05289542785435355 0.05289542785435355 0.0 1 1 -0.05289542785435355,-0.05289542785435355 a 0.05289542785435355 0.05289542785435355 0.0 0 1 0.05289542785435355,0.05289542785435355 z M 100.04069580016355,100.0 a 0.04069580016354713 0.04069580016354713 0.0 1 0 -0.04069580016354713,0.04069580016354713 a 0.04069580016354713 0.04069580016354713 0.0 0 0 0.04069580016354713,-0.04069580016354713 z"/><path fill="#809df8" d="M 100.0681413869379,100.0 a 0.06814138693789526 0.06814138693789526 0.0 1 1 -0.06814138693789526,-0.06814138693789526 a 0.06814138693789526 0.06814138693789526 0.0 0 1 0.06814138693789526,0.06814138693789526 z M 100.05289542785435,100.0 a 0.05289542785435355 0.05289542785435355 0.0 1 0 -0.05289542785435355,0.05289542785435355 a 0.05289542785435355 0.05289542785435355 0.0 0 0 0.05289542785435355,-0.05289542785435355 z"/><path fill="#dc8666" d="M 100.0871322776861,100.0 a 0.08713227768609848 0.08713227768609848 0.0 1 1 -0.08713227768609848,-0.08713227768609848 a 0.08713227768609848 0.08713227768609848 0.0 0 1 0.08713227768609848,0.08713227768609848 z M 100.0681413869379,100.0 a 0.06814138693789526 0.06814138693789526 0.0 1 0 -0.06814138693789526,0.06814138693789526 a 0.06814138693789526 0.06814138693789526 0.0 0 0 0.06814138693789526,-0.06814138693789526 z"/><path fill="#f80f3d" d="M 100.11071311658043,100.0 a 0.1107131165804219 0.1107131165804219 0.0 1 1 -0.1107131165804219,-0.1107131165804219 a 0.1107131165804219 0.1107131165804219 0.0 0 1 0.1107131165804219,0.1107131165804219 z M 100.08713227768611,100.0 a 0.08713227768609848 0.08713227768609848 0.0 1 0 -0.08713227768609848,0.08713227768609848 a 0.08713227768609848 0.08713227768609848 0.0 0 0 0.08713227768609848,-0.08713227768609848 z"/><path fill="#f49d7f" d="M 100.13990322235279,100.0 a 0.13990322235278732 0.13990322235278732 0.0 1 1 -0.13990322235278732,-0.13990322235278732 a 0.13990322235278732 0.13990322235278732 0.0 0 1 0.13990322235278732,0.13990322235278732 z M 100.11071311658041,100.0 a 0.1107131165804219 0.1107131165804219 0.0 1 0 -0.1107131165804219,0.1107131165804219 a 0.1107131165804219 0.1107131165804219 0.0 0 0 0.1107131165804219,-0.1107131165804219 z"/><path fill="#809df8" d="M 100.1759288960277,100.0 a 0.17592889602770073 0.17592889602770073 0.0 1 1 -0.17592889602770073,-0.17592889602770073 a 0.17592889602770073 0.17592889602770073 0.0 0 1 0.17592889602770073,0.17592889602770073 z M 100.13990322235279,100.0 a 0.13990322235278732 0.13990322235278732 0.0 1 0 -0.13990322235278732,0.13990322235278732 a 0.13990322235278732 0.13990322235278732 0.0 0 0 0.13990322235278732,-0.13990322235278732 z"/><path fill="#dc8666" d="M 100.22026163290136,100.0 a 0.22026163290135228 0.22026163290135228 0.0 1 1 -0.22026163290135228,-0.22026163290135228 a 0.22026163290135228 0.22026163290135228 0.0 0 1 0.22026163290135228,0.22026163290135228 z M 100.1759288960277,100.0 a 0.17592889602770073 0.17592889602770073 0.0 1 0 -0.17592889602770073,0.17592889602770073 a 0.17592889602770073 0.17592889602770073 0.0 0 0 0.17592889602770073,-0.17592889602770073 z"/><path fill="#f80f3d" d="M 100.27466270510524,100.0 a 0.27466270510524093 0.27466270510524093 0.0 1 1 -0.27466270510524093,-0.27466270510524093 a 0.27466270510524093 0.27466270510524093 0.0 0 1 0.27466270510524093,0.27466270510524093 z M 100.22026163290136,100.0 a 0.22026163290135228 0.22026163290135228 0.0 1 0 -0.22026163290135228,0.22026163290135228 a 0.22026163290135228 0.22026163290135228 0.0 0 0 0.22026163290135228,-0.22026163290135228 z"/><path fill="#f49d7f" d="M 100.3412350661524,100.0 a 0.34123506615239163 0.34123506615239163 0.0 1 1 -0.34123506615239163,-0.34123506615239163 a 0.34123506615239163 0.34123506615239163 0.0 0 1 0.34123506615239163,0.34123506615239163 z M 100.27466270510524,100.0 a 0.27466270510524093 0.27466270510524093 0.0 1 0 -0.27466270510524093,0.27466270510524093 a 0.27466270510524093 0.27466270510524093 0.0 0 0 0.27466270510524093,-0.27466270510524093 z"/><path fill="#809df8" d="M 100.42248365489453,100.0 a 0.4224836548945298 0.4224836548945298 0.0 1 1 -0.4224836548945298,-0.4224836548945298 a 0.4224836548945298 0.4224836548945298 0.0 0 1 0.4224836548945298,0.4224836548945298 z M 100.3412350661524,100.0 a 0.34123506615239163 0.34123506615239163 0.0 1 0 -0.34123506615239163,0.34123506615239163 a 0.34123506615239163 0.34123506615239163 0.0 0 0 0.34123506615239163,-0.34123506615239163 z"/><path fill="#dc8666" d="M 100.52138531697776,100.0 a 0.5213853169777561 0.5213853169777561 0.0 1 1 -0.5213853169777561,-0.5213853169777561 a 0.5213853169777561 0.5213853169777561 0.0 0 1 0.5213853169777561,0.5213853169777561 z M 100.42248365489453,100.0 a 0.4224836548945298 0.4224836548945298 0.0 1 0 -0.4224836548945298,0.4224836548945298 a 0.4224836548945298 0.4224836548945298 0.0 0 0 0.4224836548945298,-0.4224836548945298 z"/><path fill="#f80f3d" d="M 100.64146971863725,100.0 a 0.6414697186372551 0.6414697186372551 0.0 1 1 -0.6414697186372551,-0.6414697186372551 a 0.6414697186372551 0.6414697186372551 0.0 0 1 0.6414697186372551,0.6414697186372551 z M 100.52138531697776,100.0 a 0.5213853169777561 0.5213853169777561 0.0 1 0 -0.5213853169777561,0.5213853169777561 a 0.5213853169777561 0.5213853169777561 0.0 0 0 0.5213853169777561,-0.5213853169777561 z"/><path fill="#f49d7f" d="M 100.78691280210731,100.0 a 0.7869128021073069 0.7869128021073069 0.0 1 1 -0.7869128021073069,-0.7869128021073069 a 0.7869128021073069 0.7869128021073069 0.0 0 1 0.7869128021073069,0.7869128021073069 z M 100.64146971863725,100.0 a 0.6414697186372551 0.6414697186372551 0.0 1 0 -0.6414697186372551,0.6414697186372551 a 0.6414697186372551 0.6414697186372551 0.0 0 0 0.6414697186372551,-0.6414697186372551 z"/><path fill="#809df8" d="M 100.96264452576291,100.0 a 0.9626445257629129 0.9626445257629129 0.0 1 1 -0.9626445257629129,-0.9626445257629129 a 0.9626445257629129 0.9626445257629129 0.0 0 1 0.9626445257629129,0.9626445257629129 z M 100.78691280210731,100.0 a 0.7869128021073069 0.7869128021073069 0.0 1 0 -0.7869128021073069,0.7869128021073069 a 0.7869128021073069 0.7869128021073069 0.0 0 0 0.7869128021073069,-0.7869128021073069 z"/><path fill="#dc8666" d="M 101.17447284721699,100.0 a 1.1744728472169832 1.1744728472169832 0.0 1 1 -1.1744728472169832,-1.1744728472169832 a 1.1744728472169832 1.1744728472169832 0.0 0 1 1.1744728472169832,1.1744728472169832 z M 100.96264452576293,100.0 a 0.9626445257629129 0.9626445257629129 0.0 1 0 -0.9626445257629129,0.9626445257629129 a 0.9626445257629129 0.9626445257629129 0.0 0 0 0.9626445257629129,-0.9626445257629129 z"/><path fill="#f80f3d" d="M 101.42922614598687,100.0 a 1.4292261459868716 1.4292261459868716 0.0 1 1 -1.4292261459868716,-1.4292261459868716 a 1.4292261459868716 1.4292261459868716 0.0 0 1 1.4292261459868716,1.4292261459868716 z M 101.17447284721699,100.0 a 1.1744728472169832 1.1744728472169832 0.0 1 0 -1.1744728472169832,1.1744728472169832 a 1.1744728472169832 1.1744728472169832 0.0 0 0 1.1744728472169832,-1.1744728472169832 z"/><path fill="#f49d7f" d="M 101.73491654619215,100.0 a 1.7349165461921476 1.7349165461921476 0.0 1 1 -1.7349165461921476,-1.7349165461921476 a 1.7349165461921476 1.7349165461921476 0.0 0 1 1.7349165461921476,1.7349165461921476 z M 101.42922614598687,100.0 a 1.4292261459868716 1.4292261459868716 0.0 1 0 -1.4292261459868716,1.4292261459868716 a 1.4292261459868716 1.4292261459868716 0.0 0 0 1.4292261459868716,-1.4292261459868716 z"/><path fill="#809df8" d="M 102.10092689139992,100.0 a 2.1009268913999293 2.1009268913999293 0.0 1 1 -2.1009268913999293,-2.1009268913999293 a 2.1009268913999293 2.1009268913999293 0.0 0 1 2.1009268913999293,2.1009268913999293 z M 101.73491654619214,100.0 a 1.7349165461921476 1.7349165461921476 0.0 1 0 -1.7349165461921476,1.7349165461921476 a 1.7349165461921476 1.7349165461921476 0.0 0 0 1.7349165461921476,-1.7349165461921476 z"/><path fill="#dc8666" d="M 102.53822444572631,100.0 a 2.5382244457263075 2.5382244457263075 0.0 1 1 -2.5382244457263075,-2.5382244457263075 a 2.5382244457263075 2.5382244457263075 0.0 0 1 2.5382244457263075,2.5382244457263075 z M 102.10092689139994,100.0 a 2.1009268913999293 2.1009268913999293 0.0 1 0 -2.1009268913999293,2.1009268913999293 a 2.1009268913999293 2.1009268913999293 0.0 0 0 2.1009268913999293,-2.1009268913999293 z"/><path fill="#f80f3d" d="M 103.0596047503587,100.0 a 3.0596047503587007 3.0596047503587007 0.0 1 1 -3.0596047503587007,-3.0596047503587007 a 3.0596047503587007 3.0596047503587007 0.0 0 1 3.0596047503587007,3.0596047503587007 z M 102.53822444572631,100.0 a 2.5382244457263075 2.5382244457263075 0.0 1 0 -2.5382244457263075,2.5382244457263075 a 2.5382244457263075 2.5382244457263075 0.0 0 0 2.5382244457263075,-2.5382244457263075 z"/><path fill="#f49d7f" d="M 103.67996945571826,100.0 a 3.6799694557182607 3.6799694557182607 0.0 1 1 -3.6799694557182607,-3.6799694557182607 a 3.6799694557182607 3.6799694557182607 0.0 0 1 3.6799694557182607,3.6799694557182607 z M 103.0596047503587,100.0 a 3.0596047503587007 3.0596047503587007 0.0 1 0 -3.0596047503587007,3.0596047503587007 a 3.0596047503587007 3.0596047503587007 0.0 0 0 3.0596047503587007,-3.0596047503587007 z"/><path fill="#809df8" d="M 104.41664237968786,100.0 a 4.4166423796878576 4.4166423796878576 0.0 1 1 -4.4166423796878576,-4.4166423796878576 a 4.4166423796878576 4.4166423796878576 0.0 0 1 4.4166423796878576,4.4166423796878576 z M 103.67996945571826,100.0 a 3.6799694557182607 3.6799694557182607 0.0 1 0 -3.6799694557182607,3.6799694557182607 a 3.6799694557182607 3.6799694557182607 0.0 0 0 3.6799694557182607,-3.6799694557182607 z"/><path fill="#dc8666" d="M 105.28972851507787,100.0 a 5.289728515077867 5.289728515077867 0.0 1 1 -5.289728515077867,-5.289728515077867 a 5.289728515077867 5.289728515077867 0.0 0 1 5.289728515077867,5.289728515077867 z M 104.41664237968786,100.0 a 4.4166423796878576 4.4166423796878576 0.0 1 0 -4.4166423796878576,4.4166423796878576 a 4.4166423796878576 4.4166423796878576 0.0 0 0 4.4166423796878576,-4.4166423796878576 z"/><path fill="#f80f3d" d="M 106.3225212284256,100.0 a 6.3225212284256065 6.3225212284256065 0.0 1 1 -6.3225212284256065,-6.3225212284256065 a 6.3225212284256065 6.3225212284256065 0.0 0 1 6.3225212284256065,6.3225212284256065 z M 105.28972851507785,100.0 a 5.289728515077867 5.289728515077867 0.0 1 0 -5.289728515077867,5.289728515077867 a 5.289728515077867 5.289728515077867 0.0 0 0 5.289728515077867,-5.289728515077867 z"/><path fill="#f49d7f" d="M 107.5419634612244,100.0 a 7.541963461224394 7.541963461224394 0.0 1 1 -7.541963461224394,-7.541963461224394 a 7.541963461224394 7.541963461224394 0.0 0 1 7.541963461224394,7.541963461224394 z M 106.32252122842561,100.0 a 6.3225212284256065 6.3225212284256065 0.0 1 0 -6.3225212284256065,6.3225212284256065 a 6.3225212284256065 6.3225212284256065 0.0 0 0 6.3225212284256065,-6.3225212284256065 z"/><path fill="#809df8" d="M 108.97916936793382,100.0 a 8.979169367933817 8.979169367933817 0.0 1 1 -8.979169367933817,-8.979169367933817 a 8.979169367933817 8.979169367933817 0.0 0 1 8.979169367933817,8.979169367933817 z M 107.5419634612244,100.0 a 7.541963461224394 7.541963461224394 0.0 1 0 -7.541963461224394,7.541963461224394 a 7.541963461224394 7.541963461224394 0.0 0 0 7.541963461224394,-7.541963461224394 z"/><path fill="#dc8666" d="M 110.67001350710801,100.0 a 10.670013507108015 10.670013507108015 0.0 1 1 -10.670013507108015,-10.670013507108015 a 10.670013507108015 10.670013507108015 0.0 0 1 10.670013507108015,10.670013507108015 z M 108.9791693679338,100.0 a 8.979169367933817 8.979169367933817 0.0 1 0 -8.979169367933817,8.979169367933817 a 8.979169367933817 8.979169367933817 0.0 0 0 8.979169367933817,-8.979169367933817 z"/><path fill="#f80f3d" d="M 112.65579544748041,100.0 a 12.655795447480415 12.655795447480415 0.0 1 1 -12.655795447480415,-12.655795447480415 a 12.655795447480415 12.655795447480415 0.0 0 1 12.655795447480415,12.655795447480415 z M 110.67001350710801,100.0 a 10.670013507108015 10.670013507108015 0.0 1 0 -10.670013507108015,10.670013507108015 a 10.670013507108015 10.670013507108015 0.0 0 0 10.670013507108015,-10.670013507108015 z"/><path fill="#f49d7f" d="M 114.98398846497889,100.0 a 14.9839884649789 14.9839884649789 0.0 1 1 -14.9839884649789,-14.9839884649789 a 14.9839884649789 14.9839884649789 0.0 0 1 14.9839884649789,14.9839884649789 z M 112.65579544748041,100.0 a 12.655795447480415 12.655795447480415 0.0 1 0 -12.655795447480415,12.655795447480415 a 12.655795447480415 12.655795447480415 0.0 0 0 12.655795447480415,-12.655795447480415 z"/><path fill="#809df8" d="M 117.70908189488198,100.0 a 17.70908189488198 17.70908189488198 0.0 1 1 -17.70908189488198,-17.70908189488198 a 17.70908189488198 17.70908189488198 0.0 0 1 17.70908189488198,17.70908189488198 z M 114.98398846497889,100.0 a 14.9839884649789 14.9839884649789 0.0 1 0 -14.9839884649789,14.9839884649789 a 14.9839884649789 14.9839884649789 0.0 0 0 14.9839884649789,-14.9839884649789 z"/><path fill="#dc8666" d="M 120.89352767149948,100.0 a 20.893527671499484 20.893527671499484 0.0 1 1 -20.893527671499484,-20.893527671499484 a 20.893527671499484 20.893527671499484 0.0 0 1 20.893527671499484,20.893527671499484 z M 117.70908189488198,100.0 a 17.70908189488198 17.70908189488198 0.0 1 0 -17.70908189488198,17.70908189488198 a 17.70908189488198 17.70908189488198 0.0 0 0 17.70908189488198,-17.70908189488198 z"/><path fill="#f80f3d" d="M 124.60880264209763,100.0 a 24.608802642097626 24.608802642097626 0.0 1 1 -24.608802642097626,-24.608802642097626 a 24.608802642097626 24.608802642097626 0.0 0 1 24.608802642097626,24.608802642097626 z M 120.89352767149948,100.0 a 20.893527671499484 20.893527671499484 0.0 1 0 -20.893527671499484,20.893527671499484 a 20.893527671499484 20.893527671499484 0.0 0 0 20.893527671499484,-20.893527671499484 z"/><path fill="#f49d7f" d="M 128.936599388923,100.0 a 28.936599388923007 28.936599388923007 0.0 1 1 -28.936599388923007,-28.936599388923007 a 28.936599388923007 28.936599388923007 0.0 0 1 28.936599388923007,28.936599388923007 z M 124.60880264209763,100.0 a 24.608802642097626 24.608802642097626 0.0 1 0 -24.608802642097626,24.608802642097626 a 24.608802642097626 24.608802642097626 0.0 0 0 24.608802642097626,-24.608802642097626 z"/><path fill="#809df8" d="M 133.9701595401853,100.0 a 33.9701595401853 33.9701595401853 0.0 1 1 -33.9701595401853,-33.9701595401853 a 33.9701595401853 33.9701595401853 0.0 0 1 33.9701595401853,33.9701595401853 z M 128.936599388923,100.0 a 28.936599388923007 28.936599388923007 0.0 1 0 -28.936599388923007,28.936599388923007 a 28.936599388923007 28.936599388923007 0.0 0 0 28.936599388923007,-28.936599388923007 z"/><path fill="#dc8666" d="M 139.8157649052596,100.0 a 39.81576490525961 39.81576490525961 0.0 1 1 -39.81576490525961,-39.81576490525961 a 39.81576490525961 39.81576490525961 0.0 0 1 39.81576490525961,39.81576490525961 z M 133.9701595401853,100.0 a 33.9701595401853 33.9701595401853 0.0 1 0 -33.9701595401853,33.9701595401853 a 33.9701595401853 33.9701595401853 0.0 0 0 33.9701595401853,-33.9701595401853 z"/><path fill="#f80f3d" d="M 146.59440323917596,100.0 a 46.59440323917596 46.59440323917596 0.0 1 1 -46.59440323917596,-46.59440323917596 a 46.59440323917596 46.59440323917596 0.0 0 1 46.59440323917596,46.59440323917596 z M 139.8157649052596,100.0 a 39.81576490525961 39.81576490525961 0.0 1 0 -39.81576490525961,39.81576490525961 a 39.81576490525961 39.81576490525961 0.0 0 0 39.81576490525961,-39.81576490525961 z"/><path fill="#f49d7f" d="M 154.44362703518956,100.0 a 54.443627035189564 54.443627035189564 0.0 1 1 -54.443627035189564,-54.443627035189564 a 54.443627035189564 54.443627035189564 0.0 0 1 54.443627035189564,54.443627035189564 z M 146.59440323917596,100.0 a 46.59440323917596 46.59440323917596 0.0 1 0 -46.59440323917596,46.59440323917596 a 46.59440323917596 46.59440323917596 0.0 0 0 46.59440323917596,-46.59440323917596 z"/><path fill="#809df8" d="M 163.51962547091873,100.0 a 63.519625470918726 63.519625470918726 0.0 1 1 -63.519625470918726,-63.519625470918726 a 63.519625470918726 63.519625470918726 0.0 0 1 63.519625470918726,63.519625470918726 z M 154.44362703518956,100.0 a 54.443627035189564 54.443627035189564 0.0 1 0 -54.443627035189564,54.443627035189564 a 54.443627035189564 54.443627035189564 0.0 0 0 54.443627035189564,-54.443627035189564 z"/><path fill="#dc8666" d="M 173.99953150280632,100.0 a 73.99953150280632 73.99953150280632 0.0 1 1 -73.99953150280632,-73.99953150280632 a 73.99953150280632 73.99953150280632 0.0 0 1 73.99953150280632,73.99953150280632 z M 163.51962547091873,100.0 a 63.519625470918726 63.519625470918726 0.0 1 0 -63.519625470918726,63.519625470918726 a 63.519625470918726 63.519625470918726 0.0 0 0 63.519625470918726,-63.519625470918726 z"/><path fill="#f80f3d" d="M 186.08398812570297,100.0 a 86.08398812570297 86.08398812570297 0.0 1 1 -86.08398812570297,-86.08398812570297 a 86.08398812570297 86.08398812570297 0.0 0 1 86.08398812570297,86.08398812570297 z M 173.99953150280632,100.0 a 73.99953150280632 73.99953150280632 0.0 1 0 -73.99953150280632,73.99953150280632 a 73.99953150280632 73.99953150280632 0.0 0 0 73.99953150280632,-73.99953150280632 z"/><path fill="#f49d7f" d="M 200.0,100.0 a 100.0 100.0 0.0 1 1 -100.0,-100.0 a 100.0 100.0 0.0 0 1 100.0,100.0 z M 186.08398812570297,100.0 a 86.08398812570297 86.08398812570297 0.0 1 0 -86.08398812570297,86.08398812570297 a 86.08398812570297 86.08398812570297 0.0 0 0 86.08398812570297,-86.08398812570297 z"/></g></svg>