<?xml version='1.0' encoding='UTF-8'?>
<svg viewBox="99.86741102581996 -100.0 200.13258897418004 373.4822051639916" preserveAspectRatio="xMidYMid meet" xmlns="http://www.w3.org/2000/svg" xmlns:svg="http://www.w3.org/2000/svg"><g transform="translate(0.0, 0.0)"><circle fill="#94e276" r="0.13258897418004187" cx="100.0" cy="100.0"/><path fill="#a7ff5b" d="M 100.42053843611122,100.0 a 0.4205384361112131 0.4205384361112131 0.0 1 1 -0.4205384361112131,-0.4205384361112131 a 0.4205384361112131 0.4205384361112131 0.0 0 1 0.4205384361112131,0.4205384361112131 z M 100.13258897418004,100.0 a 0.13258897418004187 0.13258897418004187 0.0 1 0 -0.13258897418004187,0.13258897418004187 a 0.13258897418004187 0.13258897418004187 0.0 0 0 0.13258897418004187,-0.13258897418004187 z"/><path fill="#48ff40" d="M 100.9233481470599,100.0 a 0.9233481470599038 0.9233481470599038 0.0 1 1 -0.9233481470599038,-0.9233481470599038 a 0.9233481470599038 0.9233481470599038 0.0 0 1 0.9233481470599038,0.9233481470599038 z M 100.4205384361112,100.0 a 0.4205384361112131 0.4205384361112131 0.0 1 0 -0.4205384361112131,0.4205384361112131 a 0.4205384361112131 0.4205384361112131 0.0 0 0 0.4205384361112131,-0.4205384361112131 z"/><path fill="#f3ff5d" d="M 101.70051786829251,100.0 a 1.7005178682925035 1.7005178682925035 0.0 1 1 -1.7005178682925035,-1.7005178682925035 a 1.7005178682925035 1.7005178682925035 0.0 0 1 1.7005178682925035,1.7005178682925035 z M 100.92334814705991,100.0 a 0.9233481470599038 0.9233481470599038 0.0 1 0 -0.9233481470599038,0.9233481470599038 a 0.9233481470599038 0.9233481470599038 0.0 0 0 0.9233481470599038,-0.9233481470599038 z"/><path fill="#94e276" d="M 102.8115473610754,100.0 a 2.811547361075403 2.811547361075403 0.0 1 1 -2.811547361075403,-2.811547361075403 a 2.811547361075403 2.811547361075403 0.0 0 1 2.811547361075403,2.811547361075403 z M 101.7005178682925,100.0 a 1.7005178682925035 1.7005178682925035 0.0 1 0 -1.7005178682925035,1.7005178682925035 a 1.7005178682925035 1.7005178682925035 0.0 0 0 1.7005178682925035,-1.7005178682925035 z"/><path fill="#a7ff5b" d="M 104.31593638667499,100.0 a 4.315936386674991 4.315936386674991 0.0 1 1 -4.315936386674991,-4.315936386674991 a 4.315936386674991 4.315936386674991 0.0 0 1 4.315936386674991,4.315936386674991 z M 102.8115473610754,100.0 a 2.811547361075403 2.811547361075403 0.0 1 0 -2.811547361075403,2.811547361075403 a 2.811547361075403 2.811547361075403 0.0 0 0 2.811547361075403,-2.811547361075403 z"/><path fill="#48ff40" d="M 106.27318470635765,100.0 a 6.273184706357659 6.273184706357659 0.0 1 1 -6.273184706357659,-6.273184706357659 a 6.273184706357659 6.273184706357659 0.0 0 1 6.273184706357659,6.273184706357659 z M 104.31593638667499,100.0 a 4.315936386674991 4.315936386674991 0.0 1 0 -4.315936386674991,4.315936386674991 a 4.315936386674991 4.315936386674991 0.0 0 0 4.315936386674991,-4.315936386674991 z"/><path fill="#f3ff5d" d="M 108.7427920813898,100.0 a 8.742792081389796 8.742792081389796 0.0 1 1 -8.742792081389796,-8.742792081389796 a 8.742792081389796 8.742792081389796 0.0 0 1 8.742792081389796,8.742792081389796 z M 106.27318470635765,100.0 a 6.273184706357659 6.273184706357659 0.0 1 0 -6.273184706357659,6.273184706357659 a 6.273184706357659 6.273184706357659 0.0 0 0 6.273184706357659,-6.273184706357659 z"/><path fill="#94e276" d="M 111.78425827303779,100.0 a 11.784258273037793 11.784258273037793 0.0 1 1 -11.784258273037793,-11.784258273037793 a 11.784258273037793 11.784258273037793 0.0 0 1 11.784258273037793,11.784258273037793 z M 108.7427920813898,100.0 a 8.742792081389796 8.742792081389796 0.0 1 0 -8.742792081389796,8.742792081389796 a 8.742792081389796 8.742792081389796 0.0 0 0 8.742792081389796,-8.742792081389796 z"/><path fill="#a7ff5b" d="M 115.45708304256803,100.0 a 15.457083042568037 15.457083042568037 0.0 1 1 -15.457083042568037,-15.457083042568037 a 15.457083042568037 15.457083042568037 0.0 0 1 15.457083042568037,15.457083042568037 z M 111.78425827303778,100.0 a 11.784258273037793 11.784258273037793 0.0 1 0 -11.784258273037793,11.784258273037793 a 11.784258273037793 11.784258273037793 0.0 0 0 11.784258273037793,-11.784258273037793 z"/><path fill="#48ff40" d="M 119.82076615124691,100.0 a 19.82076615124692 19.82076615124692 0.0 1 1 -19.82076615124692,-19.82076615124692 a 19.82076615124692 19.82076615124692 0.0 0 1 19.82076615124692,19.82076615124692 z M 115.45708304256803,100.0 a 15.457083042568037 15.457083042568037 0.0 1 0 -15.457083042568037,15.457083042568037 a 15.457083042568037 15.457083042568037 0.0 0 0 15.457083042568037,-15.457083042568037 z"/><path fill="#f3ff5d" d="M 124.93480736034084,100.0 a 24.934807360340834 24.934807360340834 0.0 1 1 -24.934807360340834,-24.934807360340834 a 24.934807360340834 24.934807360340834 0.0 0 1 24.934807360340834,24.934807360340834 z M 119.82076615124693,100.0 a 19.82076615124692 19.82076615124692 0.0 1 0 -19.82076615124692,19.82076615124692 a 19.82076615124692 19.82076615124692 0.0 0 0 19.82076615124692,-19.82076615124692 z"/><path fill="#94e276" d="M 130.85870643111616,100.0 a 30.85870643111617 30.85870643111617 0.0 1 1 -30.85870643111617,-30.85870643111617 a 30.85870643111617 30.85870643111617 0.0 0 1 30.85870643111617,30.85870643111617 z M 124.93480736034083,100.0 a 24.934807360340834 24.934807360340834 0.0 1 0 -24.934807360340834,24.934807360340834 a 24.934807360340834 24.934807360340834 0.0 0 0 24.934807360340834,-24.934807360340834 z"/><path fill="#a7ff5b" d="M 137.6519631248393,100.0 a 37.65196312483931 37.65196312483931 0.0 1 1 -37.65196312483931,-37.65196312483931 a 37.65196312483931 37.65196312483931 0.0 0 1 37.65196312483931,37.65196312483931 z M 130.85870643111616,100.0 a 30.85870643111617 30.85870643111617 0.0 1 0 -30.85870643111617,30.85870643111617 a 30.85870643111617 30.85870643111617 0.0 0 0 30.85870643111617,-30.85870643111617 z"/><path fill="#48ff40" d="M 145.37407720277665,100.0 a 45.374077202776654 45.374077202776654 0.0 1 1 -45.374077202776654,-45.374077202776654 a 45.374077202776654 45.374077202776654 0.0 0 1 45.374077202776654,45.374077202776654 z M 137.6519631248393,100.0 a 37.65196312483931 37.65196312483931 0.0 1 0 -37.65196312483931,37.65196312483931 a 37.65196312483931 37.65196312483931 0.0 0 0 37.65196312483931,-37.65196312483931 z"/><path fill="#f3ff5d" d="M 154.0845484261946,100.0 a 54.08454842619459 54.08454842619459 0.0 1 1 -54.08454842619459,-54.08454842619459 a 54.08454842619459 54.08454842619459 0.0 0 1 54.08454842619459,54.08454842619459 z M 145.37407720277668,100.0 a 45.374077202776654 45.374077202776654 0.0 1 0 -45.374077202776654,45.374077202776654 a 45.374077202776654 45.374077202776654 0.0 0 0 45.374077202776654,-45.374077202776654 z"/><path fill="#94e276" d="M 163.8428765563595,100.0 a 63.8428765563595 63.8428765563595 0.0 1 1 -63.8428765563595,-63.8428765563595 a 63.8428765563595 63.8428765563595 0.0 0 1 63.8428765563595,63.8428765563595 z M 154.0845484261946,100.0 a 54.08454842619459 54.08454842619459 0.0 1 0 -54.08454842619459,54.08454842619459 a 54.08454842619459 54.08454842619459 0.0 0 0 54.08454842619459,-54.08454842619459 z"/><path fill="#a7ff5b" d="M 174.70856135453778,100.0 a 74.70856135453778 74.70856135453778 0.0 1 1 -74.70856135453778,-74.70856135453778 a 74.70856135453778 74.70856135453778 0.0 0 1 74.70856135453778,74.70856135453778 z M 163.8428765563595,100.0 a 63.8428765563595 63.8428765563595 0.0 1 0 -63.8428765563595,63.8428765563595 a 63.8428765563595 63.8428765563595 0.0 0 0 63.8428765563595,-63.8428765563595 z"/><path fill="#48ff40" d="M 186.7411025819958,100.0 a 86.7411025819958 86.7411025819958 0.0 1 1 -86.7411025819958,-86.7411025819958 a 86.7411025819958 86.7411025819958 0.0 0 1 86.7411025819958,86.7411025819958 z M 174.70856135453778,100.0 a 74.70856135453778 74.70856135453778 0.0 1 0 -74.70856135453778,74.70856135453778 a 74.70856135453778 74.70856135453778 0.0 0 0 74.70856135453778,-74.70856135453778 z"/><path fill="#f3ff5d" d="M 200.0,100.0 a 100.0 100.0 0.0 1 1 -100.0,-100.0 a 100.0 100.0 0.0 0 1 100.0,100.0 z M 186.7411025819958,100.0 a 86.7411025819958 86.7411025819958 0.0 1 0 -86.7411025819958,86.7411025819958 a 86.7411025819958 86.7411025819958 0.0 0 0 86.7411025819958,-86.7411025819958 z"/></g></svg>