<?xml version='1.0' encoding='UTF-8'?>
<svg viewBox="-2.1316282072803006E-14 0.0 200.00000000000026 200.00000000000017" preserveAspectRatio="xMidYMid meet" xmlns="http://www.w3.org/2000/svg" xmlns:svg="http://www.w3.org/2000/svg"><g transform="translate(0.0, 0.0)"><path fill="#0b2520" d="M 109.62347427287659,100.0 a 9.623474272876589 9.623474272876589 0.0 1 1 -9.623474272876589,-9.623474272876589 a 9.623474272876589 9.623474272876589 0.0 0 1 9.623474272876589,9.623474272876589 z M 104.28727440118189,100.0 a 4.287274401181893 4.287274401181893 0.0 1 0 -4.287274401181893,4.287274401181893 a 4.287274401181893 4.287274401181893 0.0 0 0 4.287274401181893,-4.287274401181893 z"/><path fill="#99e9dc" d="M 121.96715942160193,100.0 a 21.967159421601927 21.967159421601927 0.0 1 1 -21.967159421601927,-21.967159421601927 a 21.967159421601927 21.967159421601927 0.0 0 1 21.967159421601927,21.967159421601927 z M 109.62347427287659,100.0 a 9.623474272876589 9.623474272876589 0.0 1 0 -9.623474272876589,9.623474272876589 a 9.623474272876589 9.623474272876589 0.0 0 0 9.623474272876589,-9.623474272876589 z"/><path fill="#b0f81c" d="M 128.7621807054316,100.0 a 28.762180705431618 28.762180705431618 0.0 1 1 -28.762180705431618,-28.762180705431618 a 28.762180705431618 28.762180705431618 0.0 0 1 28.762180705431618,28.762180705431618 z M 121.9671594216019,100.0 a 21.967159421601927 21.967159421601927 0.0 1 0 -21.967159421601927,21.967159421601927 a 21.967159421601927 21.967159421601927 0.0 0 0 21.967159421601927,-21.967159421601927 z"/><path fill="#61efae" d="M 172.53298835102328,100.0 a 72.53298835102329 72.53298835102329 0.0 1 1 -72.53298835102329,-72.53298835102329 a 72.53298835102329 72.53298835102329 0.0 0 1 72.53298835102329,72.53298835102329 z M 167.00607618957974,100.0 a 67.00607618957976 67.00607618957976 0.0 1 0 -67.00607618957976,67.00607618957976 a 67.00607618957976 67.00607618957976 0.0 0 0 67.00607618957976,-67.00607618957976 z"/><path fill="#1546a2" d="M 180.66917895623095,100.0 a 80.66917895623094 80.66917895623094 0.0 1 1 -80.66917895623094,-80.66917895623094 a 80.66917895623094 80.66917895623094 0.0 0 1 80.66917895623094,80.66917895623094 z M 172.5329883510233,100.0 a 72.53298835102329 72.53298835102329 0.0 1 0 -72.53298835102329,72.53298835102329 a 72.53298835102329 72.53298835102329 0.0 0 0 72.53298835102329,-72.53298835102329 z"/><path fill="#5bae7e" d="M 198.77451241315794,100.0 a 98.77451241315792 98.77451241315792 0.0 1 1 -98.77451241315792,-98.77451241315792 a 98.77451241315792 98.77451241315792 0.0 0 1 98.77451241315792,98.77451241315792 z M 180.66917895623095,100.0 a 80.66917895623094 80.66917895623094 0.0 1 0 -80.66917895623094,80.66917895623094 a 80.66917895623094 80.66917895623094 0.0 0 0 80.66917895623094,-80.66917895623094 z"/><path fill="#2f9d4a" d="M 100.0,100.0 l -4.095101788792243 -1.2691978295207307 a 4.287274401181893 4.287274401181893 0.0 0 1 3.214419321223551,-2.926647756573529 l 0.880682467568692 4.19584558609426 z"/><path fill="#0b2520" d="M 100.0,100.0 l -0.880682467568692 -4.19584558609426 a 4.287274401181893 4.287274401181893 0.0 0 1 2.895202793872868,0.41134698708053063 l -2.014520326304176 3.784498599013729 z"/><path fill="#99e9dc" d="M 100.0,100.0 l 2.014520326304176 -3.784498599013729 a 4.287274401181893 4.287274401181893 0.0 0 1 0.25173392334268785,0.145156149203999 l -2.266254249646864 3.63934244980973 z"/><path fill="#b0f81c" d="M 100.0,100.0 l 2.266254249646864 -3.63934244980973 a 4.287274401181893 4.287274401181893 0.0 0 1 -0.2112539624320373,7.40201378950664 l -2.0550002872148267 -3.76267133969691 z"/><path fill="#afeeb2" d="M 100.0,100.0 l 2.0550002872148267 3.76267133969691 a 4.287274401181893 4.287274401181893 0.0 0 1 -4.914719407118116,-0.5685003445419672 l 2.859719119903289 -3.1941709951549426 z"/><path fill="#2b5c79" d="M 100.0,100.0 l -2.859719119903289 3.1941709951549426 a 4.287274401181893 4.287274401181893 0.0 0 1 -0.23369674551461328,-0.2257538959907488 l 3.0934158654179025 -2.968417099164194 z"/><path fill="#61efae" d="M 100.0,100.0 l -3.0934158654179025 2.968417099164194 a 4.287274401181893 4.287274401181893 0.0 0 1 -1.0016859233743403,-4.237614928684924 l 4.095101788792243 1.2691978295207307 z"/><path fill="#2f9d4a" d="M 128.75779835921028,100.50206818551399 l 3.8289246535672903 0.0668473027480795 a 32.59168884154781 32.59168884154781 0.0 0 1 -17.248911545754762,28.18816574308571 l -1.8021856458172607 -3.378943542379826 a 28.762180705431618 28.762180705431618 0.0 0 0 15.222172538004733,-24.876069503453966 z"/><path fill="#0b2520" d="M 113.53562582120556,125.37813768896797 l 1.8021856458172603 3.378943542379824 a 32.59168884154781 32.59168884154781 0.0 0 1 -22.00665296428607,3.1450305267890233 l 0.7835857447093275 -3.748483152592314 a 28.762180705431618 28.762180705431618 0.0 0 0 19.42088157375948,-2.7754909165765334 z"/><path fill="#99e9dc" d="M 94.11474424744607,128.1536286055445 l -0.7835857447093278 3.7484831525923146 a 32.59168884154781 32.59168884154781 0.0 0 1 -2.1457249568508083,-0.5250245802249869 l 1.0357074196577152 -3.6867930109305114 a 28.762180705431618 28.762180705431618 0.0 0 0 1.893603281902421,0.4633344385631837 z"/><path fill="#b0f81c" d="M 92.22114096554365,127.69029416698132 l -1.0357074196577163 3.6867930109305087 a 32.59168884154781 32.59168884154781 0.0 0 1 -14.175253101614334,-54.4787403295657 l 2.701293003395154 2.714433398407202 a 28.762180705431618 28.762180705431618 0.0 0 0 12.509667517876897,48.07751392022799 z"/><path fill="#afeeb2" d="M 79.71147344766675,79.61278024675332 l -2.701293003395154 -2.714433398407203 a 32.59168884154781 32.59168884154781 0.0 0 1 37.0815837059514,-6.286105603970234 l -1.6557756711494989 3.4530478553604667 a 28.762180705431618 28.762180705431618 0.0 0 0 -32.72451503140675,5.54749114701697 z"/><path fill="#2b5c79" d="M 112.43598847907353,74.06528909973636 l 1.6557756711494978 -3.4530478553604667 a 32.59168884154781 32.59168884154781 0.0 0 1 2.18520413406977,1.1516385367201174 l -1.9125361308844688 3.3177308680243414 a 28.762180705431618 28.762180705431618 0.0 0 0 -1.9284436743347992,-1.016321549383992 z"/><path fill="#61efae" d="M 114.3644321534083,75.08161064912035 l 1.912536130884468 -3.3177308680243427 a 32.59168884154781 32.59168884154781 0.0 0 1 16.309754728484798,28.805035707166045 l -3.828924653567288 -0.06684730274807649 a 28.762180705431618 28.762180705431618 0.0 0 0 -14.393366205801978,-25.420457536393627 z"/><path fill="#2f9d4a" d="M 98.97911367034227,67.42430395760991 l -1.0779796578802512 -34.39750014750459 a 67.00607618957976 67.00607618957976 0.0 0 1 59.61317519012629,32.59415485257943 l -29.539406386851837 17.657109810294504 a 32.59168884154781 32.59168884154781 0.0 0 0 -28.995789145394205,-15.853764515369345 z"/><path fill="#0b2520" d="M 127.97490281573647,83.27806847297924 l 29.539406386851844 -17.657109810294504 a 67.00607618957976 67.00607618957976 0.0 0 1 8.664626354646067,44.87488503066281 l -33.98956709692081 -5.390675755812023 a 32.59168884154781 32.59168884154781 0.0 0 0 -4.2144656445771,-21.82709946455628 z"/><path fill="#99e9dc" d="M 132.18936846031357,105.10516793753553 l 33.989567096920815 5.390675755812022 a 67.00607618957976 67.00607618957976 0.0 0 1 -0.8629981564503808,4.458840114096508 l -33.54633038577999 -7.6807404713657315 a 32.59168884154781 32.59168884154781 0.0 0 0 0.41976144530955395,-2.168775398542798 z"/><path fill="#b0f81c" d="M 131.76960701500403,107.27394333607832 l 33.546330385779996 7.680740471365732 a 67.00607618957976 67.00607618957976 0.0 0 1 -110.44975782248925,34.57058752411993 l 23.180775040378023 -25.436228593637253 a 32.59168884154781 32.59168884154781 0.0 0 0 53.72265239633123,-16.815099401848407 z"/><path fill="#afeeb2" d="M 78.0469546186728,124.08904273792675 l -23.18077504037801 25.436228593637257 a 67.00607618957976 67.00607618957976 0.0 0 1 -16.626160645926632,-75.51601939408664 l 31.71998767776126 13.348874044767065 a 32.59168884154781 32.59168884154781 0.0 0 0 8.08694800854338,36.73091675568232 z"/><path fill="#2b5c79" d="M 69.96000661012941,87.3581259822444 l -31.719987677761257 -13.348874044767062 a 67.00607618957976 67.00607618957976 0.0 0 1 2.145778712752211,-4.602733660145535 l 30.617913597570602 15.712842628629707 a 32.59168884154781 32.59168884154781 0.0 0 0 -1.0437046325615569,2.23876507628289 z"/><path fill="#61efae" d="M 71.00371124269095,85.11936090596153 l -30.617913597570602 -15.712842628629703 a 67.00607618957976 67.00607618957976 0.0 0 1 57.5153363673416,-36.3797144672265 l 1.077979657880281 34.39750014750458 a 32.59168884154781 32.59168884154781 0.0 0 0 -27.975402427651275,17.69505694835162 z"/><path fill="#2f9d4a" d="M 193.22797853244543,132.63354594908418 l 1.156672178344976 0.40488183133683975 a 99.99999999999999 99.99999999999999 0.0 0 1 -77.39522520735481,65.5078020869017 l -0.20820330062039716 -1.2076718143248826 a 98.77451241315792 98.77451241315792 0.0 0 0 76.44675632963023,-64.70501210391366 z"/><path fill="#0b2520" d="M 116.7812222028152,197.33855805299783 l 0.20820330062038253 1.2076718143248868 a 99.99999999999999 99.99999999999999 0.0 0 1 -67.1390402610785,-12.03024209824044 l 0.6145773037040385 -1.060242690743891 a 98.77451241315792 98.77451241315792 0.0 0 0 66.31625965675408,11.882812974659444 z"/><path fill="#99e9dc" d="M 50.46496254606106,185.4557450783384 l -0.6145773037040303 1.060242690743902 a 99.99999999999999 99.99999999999999 0.0 0 1 -5.7453843758744165,-3.59585105993251 l 0.684986276046736 -1.0161759823631087 a 98.77451241315792 98.77451241315792 0.0 0 0 5.674975403531711,3.551784351551717 z"/><path fill="#b0f81c" d="M 44.78998714252935,181.90396072678666 l -0.6849862760467347 1.0161759823631002 a 99.99999999999999 99.99999999999999 0.0 0 1 11.167355019103395,-172.35971325093763 l 0.5481317265090411 1.0960709082437177 a 98.77451241315792 98.77451241315792 0.0 0 0 -11.030500469565702,170.2474663603308 z"/><path fill="#afeeb2" d="M 55.8204876120951,11.65649436645586 l -0.5481317265090383 -1.0960709082437168 a 99.99999999999999 99.99999999999999 0.0 0 1 114.08059202255919,17.39675166345529 l -0.8499117677233698 0.8828758760943316 a 98.77451241315792 98.77451241315792 0.0 0 0 -112.68254852832678,-17.183556631305905 z"/><path fill="#2b5c79" d="M 168.50303614042195,28.84005099776185 l 0.8499117677233627 -0.8828758760943318 a 99.99999999999999 99.99999999999999 0.0 0 1 5.25696628866914,5.4593381601980155 l -0.9143352370354734 0.8159723646173802 a 98.77451241315792 98.77451241315792 0.0 0 0 -5.19254281935703,-5.392434648721064 z"/><path fill="#61efae" d="M 173.6955789597789,34.23248564648286 l 0.9143352370354749 -0.8159723646173732 a 99.99999999999999 99.99999999999999 0.0 0 1 19.774736513976052,99.62191449855547 l -1.1566721783449765 -0.4048818313368372 a 98.77451241315792 98.77451241315792 0.0 0 0 -19.53239957266655,-98.40106030260125 z"/></g></svg>