<?xml version='1.0' encoding='UTF-8'?>
<svg viewBox="0.0 -2.8421709430404007E-14 200.00000000000003 200.00000000000003" preserveAspectRatio="xMidYMid meet" xmlns="http://www.w3.org/2000/svg" xmlns:svg="http://www.w3.org/2000/svg"><g transform="translate(0.0, 0.0)"><path fill="#816d5c" d="M 112.61482969153116,100.0 a 12.614829691531149 12.614829691531149 0.0 1 1 -12.614829691531149,-12.614829691531149 a 12.614829691531149 12.614829691531149 0.0 0 1 12.614829691531149,12.614829691531149 z M 102.18033808167888,100.0 a 2.1803380816788764 2.1803380816788764 0.0 1 0 -2.1803380816788764,2.1803380816788764 a 2.1803380816788764 2.1803380816788764 0.0 0 0 2.1803380816788764,-2.1803380816788764 z"/><path fill="#d3ad86" d="M 118.9983088412375,100.0 a 18.99830884123751 18.99830884123751 0.0 1 1 -18.99830884123751,-18.99830884123751 a 18.99830884123751 18.99830884123751 0.0 0 1 18.99830884123751,18.99830884123751 z M 112.61482969153114,100.0 a 12.614829691531149 12.614829691531149 0.0 1 0 -12.614829691531149,12.614829691531149 a 12.614829691531149 12.614829691531149 0.0 0 0 12.614829691531149,-12.614829691531149 z"/><path fill="#a76b51" d="M 120.6873157942301,100.0 a 20.68731579423011 20.68731579423011 0.0 1 1 -20.68731579423011,-20.68731579423011 a 20.68731579423011 20.68731579423011 0.0 0 1 20.68731579423011,20.68731579423011 z M 118.9983088412375,100.0 a 18.99830884123751 18.99830884123751 0.0 1 0 -18.99830884123751,18.99830884123751 a 18.99830884123751 18.99830884123751 0.0 0 0 18.99830884123751,-18.99830884123751 z"/><path fill="#cfb4a9" d="M 153.01805468350187,100.0 a 53.01805468350188 53.01805468350188 0.0 1 1 -53.01805468350188,-53.01805468350188 a 53.01805468350188 53.01805468350188 0.0 0 1 53.01805468350188,53.01805468350188 z M 142.1322058404418,100.0 a 42.13220584044181 42.13220584044181 0.0 1 0 -42.13220584044181,42.13220584044181 a 42.13220584044181 42.13220584044181 0.0 0 0 42.13220584044181,-42.13220584044181 z"/><path fill="#955e31" d="M 174.1755887688377,100.0 a 74.17558876883771 74.17558876883771 0.0 1 1 -74.17558876883771,-74.17558876883771 a 74.17558876883771 74.17558876883771 0.0 0 1 74.17558876883771,74.17558876883771 z M 153.01805468350187,100.0 a 53.01805468350188 53.01805468350188 0.0 1 0 -53.01805468350188,53.01805468350188 a 53.01805468350188 53.01805468350188 0.0 0 0 53.01805468350188,-53.01805468350188 z"/><path fill="#603c12" d="M 184.36755401494275,100.0 a 84.36755401494277 84.36755401494277 0.0 1 1 -84.36755401494277,-84.36755401494277 a 84.36755401494277 84.36755401494277 0.0 0 1 84.36755401494277,84.36755401494277 z M 174.1755887688377,100.0 a 74.17558876883771 74.17558876883771 0.0 1 0 -74.17558876883771,74.17558876883771 a 74.17558876883771 74.17558876883771 0.0 0 0 74.17558876883771,-74.17558876883771 z"/><path fill="#ac5923" d="M 100.0,100.0 l 0.8736516831235647 -1.9976503415248839 a 2.1803380816788764 2.1803380816788764 0.0 0 1 0.605322188353638,0.39561712154882556 l -1.4789738714772027 1.6020332199760583 z"/><path fill="#816d5c" d="M 100.0,100.0 l 1.4789738714772027 -1.6020332199760583 a 2.1803380816788764 2.1803380816788764 0.0 0 1 0.6503988321426184,1.1333691190488193 l -2.129372703619821 0.46866410092723904 z"/><path fill="#d3ad86" d="M 100.0,100.0 l 2.129372703619821 -0.46866410092723904 a 2.1803380816788764 2.1803380816788764 0.0 0 1 -0.18724062085300086,1.459621780905015 l -1.9421320827668203 -0.9909576799777758 z"/><path fill="#a76b51" d="M 100.0,100.0 l 1.94213208276682 0.9909576799777762 a 2.1803380816788764 2.1803380816788764 0.0 0 1 -2.6339571723378095,1.0767106193050693 l 0.6918250895709896 -2.0676682992828455 z"/><path fill="#d29d3f" d="M 100.0,100.0 l -0.6918250895709896 2.0676682992828455 a 2.1803380816788764 2.1803380816788764 0.0 0 1 -1.1958560655370398,-0.9765523535332021 l 1.8876811551080295 -1.0911159457496433 z"/><path fill="#763417" d="M 100.0,100.0 l -1.8876811551080295 1.0911159457496433 a 2.1803380816788764 2.1803380816788764 0.0 0 1 1.5480240784849761,-3.2448353380380177 l 0.33965707662305344 2.1537193922883744 z"/><path fill="#cfb4a9" d="M 100.0,100.0 l -0.33965707662305344 -2.1537193922883744 a 2.1803380816788764 2.1803380816788764 0.0 0 1 1.2133087597466181,0.15606905076349054 l -0.8736516831235647 1.9976503415248839 z"/><path fill="#ac5923" d="M 99.4801692612481,79.31921638880067 l -0.4494460703862078 -17.880621967215188 a 38.57358549209176 38.57358549209176 0.0 0 1 12.665621945573418,1.8038620238583043 l -5.423503698727842 17.044185264615294 a 20.68731579423011 20.68731579423011 0.0 0 0 -6.792672176459369,-0.9674253212584105 z"/><path fill="#816d5c" d="M 106.27284143770748,80.28664171005909 l 5.423503698727842 -17.044185264615297 a 38.57358549209176 38.57358549209176 0.0 0 1 18.916728803505602,13.289241492766099 l -14.195042793795277 10.882067992204634 a 20.68731579423011 20.68731579423011 0.0 0 0 -10.145189708438167,-7.1271242203554355 z"/><path fill="#d3ad86" d="M 116.41803114614562,87.4137659304145 l 14.195042793795277 -10.882067992204636 a 38.57358549209176 38.57358549209176 0.0 0 1 7.9376889215579105,24.795020009281313 l -17.875687022676225 -0.6151887287399269 a 20.68731579423011 20.68731579423011 0.0 0 0 -4.257044692676963,-13.29776328833675 z"/><path fill="#a76b51" d="M 120.6750758388226,100.71152921875128 l 17.875687022676225 0.6151887287399256 a 38.57358549209176 38.57358549209176 0.0 0 1 -34.14282614093335,36.99418485480723 l -2.0439257587632227 -17.769102712216732 a 20.68731579423011 20.68731579423011 0.0 0 0 18.311064877020353,-19.84027087133042 z"/><path fill="#d29d3f" d="M 102.36401096180224,120.55180009008168 l 2.043925758763223 17.769102712216732 a 38.57358549209176 38.57358549209176 0.0 0 1 -26.483020160840784,-6.688448126434352 l 10.236043421385162 -14.667721662895072 a 20.68731579423011 20.68731579423011 0.0 0 0 14.2030509806924,3.5870670771126925 z"/><path fill="#763417" d="M 88.16095998110984,116.96473301296899 l -10.236043421385162 14.667721662895074 a 38.57358549209176 38.57358549209176 0.0 0 1 0.4917887448125171,-63.60248576444012 l 10.008004829383054 14.82425320343961 a 20.68731579423011 20.68731579423011 0.0 0 0 -0.2637501528104096,34.11051089810543 z"/><path fill="#cfb4a9" d="M 88.42471013392026,82.85422211486355 l -10.008004829383054 -14.824253203439604 a 38.57358549209176 38.57358549209176 0.0 0 1 20.614017886324657,-6.591374489838472 l 0.4494460703862231 17.880621967215184 a 20.68731579423011 20.68731579423011 0.0 0 0 -11.055459127327826,3.5350057260628915 z"/><path fill="#ac5923" d="M 80.26503527866315,66.85708725589585 l -1.8206564449581184 -3.057611632160554 a 42.13220584044181 42.13220584044181 0.0 0 1 13.025699158262157,-5.0591799309432695 l 0.7204643911258906 3.4849260888590834 a 38.57358549209176 38.57358549209176 0.0 0 0 -11.92550710442993,4.631865474244741 z"/><path fill="#816d5c" d="M 92.19054238309307,62.22522178165111 l -0.7204643911258901 -3.4849260888590825 a 42.13220584044181 42.13220584044181 0.0 0 1 25.123523997133702,2.532773858117813 l -1.4015484950981403 3.2709999387922934 a 38.57358549209176 38.57358549209176 0.0 0 0 -23.00151111090967,-2.318847708051024 z"/><path fill="#d3ad86" d="M 115.19205349400278,64.54406948970214 l 1.4015484950981403 -3.2709999387922952 a 42.13220584044181 42.13220584044181 0.0 0 1 20.82528222106981,19.363308023335264 l -3.1605181857117657 1.6355132471112093 a 38.57358549209176 38.57358549209176 0.0 0 0 -19.066312530456184,-17.727821331654177 z"/><path fill="#a76b51" d="M 134.25836602445892,82.27189082135628 l 3.1605181857117683 -1.6355132471112088 a 42.13220584044181 42.13220584044181 0.0 0 1 -12.717567468991032,53.49524588894921 l -2.0863519161350403 -2.882865669040214 a 38.57358549209176 38.57358549209176 0.0 0 0 11.643401199414303,-48.976866972797794 z"/><path fill="#d29d3f" d="M 122.61496482504464,131.2487577941541 l 2.0863519161350412 2.8828656690402177 a 42.13220584044181 42.13220584044181 0.0 0 1 -28.796519874991418,7.801085491441288 l 0.3458939049571619 -3.5417702057310976 a 38.57358549209176 38.57358549209176 0.0 0 0 26.364274053899216,-7.142180954750408 z"/><path fill="#763417" d="M 96.25069077114541,138.39093874890452 l -0.34589390495716416 3.541770205731104 a 42.13220584044181 42.13220584044181 0.0 0 1 -33.562828631881196,-60.82703118422139 l 3.180717350231248 1.5958746572425255 a 38.57358549209176 38.57358549209176 0.0 0 0 30.728005186607113,55.68938632124776 z"/><path fill="#cfb4a9" d="M 65.52268558453832,82.70155242765674 l -3.1807173502312502 -1.5958746572425277 a 42.13220584044181 42.13220584044181 0.0 0 1 16.10241059939795,-17.306202146678903 l 1.8206564449581215 3.057611632160551 a 38.57358549209176 38.57358549209176 0.0 0 0 -14.742349694124819,15.84446517176088 z"/><path fill="#ac5923" d="M 16.06274843696447,108.51010989987631 l -15.552715336051012 1.5768364377750563 a 99.99999999999999 99.99999999999999 0.0 0 1 2.1728199168928803,-33.09505150183446 l 15.213050436190173 3.596729611976084 a 84.36755401494277 84.36755401494277 0.0 0 0 -1.8331550170320412,27.92148545208332 z"/><path fill="#816d5c" d="M 17.89590345399651,80.58862444779298 l -15.213050436190168 -3.5967296119760834 a 99.99999999999999 99.99999999999999 0.0 0 1 30.63331511013076,-51.51213750087029 l 10.424313998166596 11.64933668254804 a 84.36755401494277 84.36755401494277 0.0 0 0 -25.84457867210719,43.45953043029833 z"/><path fill="#d3ad86" d="M 43.7404821261037,37.129094017494644 l -10.424313998166605 -11.649336682548034 a 99.99999999999999 99.99999999999999 0.0 0 1 62.53408263477153,-25.393618141481348 l 0.6487073080349006 15.618980322166792 a 84.36755401494277 84.36755401494277 0.0 0 0 -52.75847594463983,21.42397450186259 z"/><path fill="#a76b51" d="M 96.49895807074354,15.705119515632063 l -0.6487073080349001 -15.618980322166797 a 99.99999999999999 99.99999999999999 0.0 0 1 102.34196147332062,80.98532530601098 l -15.349844539330007 2.958993087881751 a 84.36755401494277 84.36755401494277 0.0 0 0 -86.34340962595572,-68.32533807172594 z"/><path fill="#d29d3f" d="M 182.84236769669923,84.03045758735801 l 15.349844539330016 -2.958993087881755 a 99.99999999999999 99.99999999999999 0.0 0 1 -12.082810022595291,69.77311092843988 l -13.461005789070725 -7.948250790100666 a 84.36755401494277 84.36755401494277 0.0 0 0 10.193971272336,-58.86586705045746 z"/><path fill="#763417" d="M 172.64839642436323,142.89632463781547 l 13.461005789070727 7.948250790100665 a 99.99999999999999 99.99999999999999 0.0 0 1 -164.507957192444,11.233331891863394 l 12.255611760159127 -9.704295330418418 a 84.36755401494277 84.36755401494277 0.0 0 0 138.79133964321414,-9.477287351545641 z"/><path fill="#cfb4a9" d="M 33.85705678114911,152.3736119893611 l -12.255611760159132 9.704295330418416 a 99.99999999999999 99.99999999999999 0.0 0 1 -21.09141192007649,-51.99096098212799 l 15.552715336051008 -1.5768364377750856 a 84.36755401494277 84.36755401494277 0.0 0 0 17.794308344184614,43.863502089484655 z"/></g></svg>