<?xml version='1.0' encoding='UTF-8'?>
<svg preserveAspectRatio="xMidYMid meet" xmlns="http://www.w3.org/2000/svg" xmlns:svg="http://www.w3.org/2000/svg"><g><circle fill="#000000" r="100.0" cx="0.0" cy="0.0"/><circle fill="#ffffff" r="50.0" cx="50.0" cy="0.0"/><circle fill="#2783b1" r="40.0" cx="-20.0" cy="-56.568542494923804"/><circle fill="#ffffff" r="20.349135976847858" cx="38.95259206945644" cy="-69.47629603472822"/><circle fill="#ffffff" r="5.043264368417715" cx="24.351034473734106" cy="-48.70206894746821"/><circle fill="#ebf7ff" r="47.943546949981425" cx="-43.830640849944245" cy="28.084679575027877"/><circle fill="#1b5987" r="9.234951562953231" cx="16.885435933420908" cy="-89.18058124456121"/><circle fill="#4481ff" r="10.7199208036605" cx="67.84023758901805" cy="-58.03994060274558"/><circle fill="#84c0ea" r="2.2860988369512367" cx="19.986540706706077" cy="-42.81388084298388"/><circle fill="#000000" r="1.9613503604302887" cx="31.352737384941527" cy="-48.500118847735116"/><circle fill="#000000" r="1.9052960636138043" cx="21.882861391833753" cy="-55.197499165350415"/><circle fill="#e7f5ff" r="27.23628357590129" cx="18.29114927229614" cy="70.42721268192588"/><circle fill="#ffffff" r="19.336477008475313" cx="-74.02829307627809" cy="-32.03772410170409"/><circle fill="#ffffff" r="7.056379759696154" cx="-5.845696395442294" cy="-11.6913927908846"/><circle fill="#ffffff" r="5.065178543478373" cx="3.7616076739106212" cy="-94.86026898912534"/><circle fill="#c3cdd4" r="3.7057238208182035" cx="29.59124740445256" cy="-91.63484982211199"/><circle fill="#0b293e" r="2.6677137354696003" cx="17.30087420044156" cy="-77.28516816839715"/><circle fill="#ffffff" r="6.352174453287288" cx="80.94347664013813" cy="-47.09637798212246"/><circle fill="#0c2839" r="4.084086209652994" cx="63.24322411312357" cy="-72.11211494620377"/><circle fill="#15497c" r="2.9863867316025927" cx="55.20419902596393" cy="-52.73019525252212"/><circle fill="#000000" r="1.3045147883910555" cx="17.81556833136396" cy="-39.953918404070635"/><circle fill="#ffffff" r="0.7773502788579615" cx="23.04232239305492" cy="-43.03048825404899"/><circle fill="#2783b1" r="0.7683906485838458" cx="19.318981898700606" cy="-45.79453031165648"/><circle fill="#ffffff" r="1.0419861792638092" cx="34.35487070643201" cy="-48.585124086614194"/><circle fill="#ffffff" r="0.7106653644323276" cx="29.6441289211984" cy="-46.44577585019595"/><circle fill="#ebf7ff" r="0.6690939426756805" cx="29.74513601904631" cy="-50.5821503268715"/><circle fill="#1b5987" r="1.000294459195926" cx="20.976737723522106" cy="-57.95818679417896"/><circle fill="#4481ff" r="0.6910219498008744" cx="20.532475772896582" cy="-52.97999473312266"/><circle fill="#84c0ea" r="0.658085910266842" cx="24.320120319211377" cy="-54.40333541337877"/><circle fill="#000000" r="13.779116575159122" cx="58.66265027452265" cy="63.188085912844734"/><circle fill="#000000" r="13.307218138173154" cx="-19.76496324355818" cy="84.40962418423084"/><circle fill="#e7f5ff" r="6.055204588469882" cx="9.171931172951428" cy="38.40904525380707"/><circle fill="#ffffff" r="8.88307792446311" cx="-68.77848056479928" cy="-59.7646559407564"/><circle fill="#ffffff" r="9.985303006193737" cx="-89.72075711768098" cy="-7.2685223475513485"/><circle fill="#ffffff" r="4.8745489433340365" cx="-51.11101724335451" cy="-24.229251393364684"/><circle fill="#c3cdd4" r="2.8362872872179934" cx="0.7299449473706994" cy="-19.082319812022643"/><circle fill="#0b293e" r="2.9399037840126003" cx="-2.896632440441107" cy="-2.140020822652215"/><circle fill="#ffffff" r="2.815733979304647" cx="-15.445093151490404" cy="-13.995782427152971"/><circle fill="#0c2839" r="3.158873563743392" cx="-4.2428276035328985" cy="-96.74813788063179"/><circle fill="#15497c" r="1.765470155720849" cx="9.96102205822754" cy="-97.7281990690613"/><circle fill="#000000" r="1.4893777070245398" cx="6.16920445745685" cy="-88.76390241805503"/><circle fill="#ffffff" r="1.961916734046556" cx="35.25674777646814" cy="-91.47910967367648"/><circle fill="#2783b1" r="1.4553243772679243" cx="25.778456759331046" cy="-95.11321811765589"/><circle fill="#ffffff" r="1.1566598072661385" cx="27.13043214224185" cy="-87.44114468322442"/><circle fill="#ffffff" r="1.2662946358695966" cx="17.690848668476214" cy="-73.3705364130403"/><circle fill="#ebf7ff" r="1.033984982894242" cx="14.179246419780133" cy="-79.27464382809718"/><circle fill="#1b5987" r="0.9619468808502964" cx="20.158408889430092" cy="-79.52323244157834"/><circle fill="#4481ff" r="4.139611845449664" cx="87.581164463651" cy="-38.9711899783926"/><circle fill="#84c0ea" r="2.1672165505181273" cx="80.4950510453372" cy="-55.603959163730174"/><circle fill="#000000" r="1.8134952313483765" cx="72.79757152977467" cy="-46.52858283285414"/><circle fill="#000000" r="2.106568665087139" cx="59.975195363342195" cy="-77.36988974822336"/><circle fill="#e7f5ff" r="1.6470881841389313" cx="68.70532450135877" cy="-70.3766555600757"/><circle fill="#ffffff" r="1.274602308065054" cx="60.48732844998557" cy="-67.5164015387096"/><circle fill="#ffffff" r="1.399177453687157" cx="51.0287891209508" cy="-51.38888046902983"/><circle fill="#ffffff" r="1.180453529608675" cx="58.684126463700075" cy="-50.43832641017044"/><circle fill="#c3cdd4" r="1.0700240411792539" cx="56.12901431165395" cy="-56.679775615661406"/><circle fill="#0b293e" r="0.8433760599901162" cx="16.505770060971592" cy="-38.25160715537413"/><circle fill="#ffffff" r="0.41271323521563585" cx="19.520919132997896" cy="-40.15553866204302"/><circle fill="#0c2839" r="0.4101739718117367" cx="17.55503166583214" cy="-41.64869809190015"/><circle fill="#15497c" r="0.388804778823162" cx="24.183068129588484" cy="-43.27259728554414"/><circle fill="#000000" r="0.30400576957029224" cx="22.47852875959073" cy="-42.10773821078836"/><circle fill="#ffffff" r="0.261488218918212" cx="22.337998981321917" cy="-43.79410724028915"/><circle fill="#2783b1" r="0.38285061290765227" cx="19.21852067648167" cy="-46.941379902924226"/><circle fill="#ffffff" r="0.30035340287489665" cx="18.604227820909713" cy="-44.99996095923369"/><circle fill="#ffffff" r="0.25978991883886754" cx="20.244494916470984" cy="-45.34666768409842"/><circle fill="#ebf7ff" r="0.6460604762621138" cx="36.04001285006247" cy="-48.68410624155257"/><circle fill="#1b5987" r="0.34129986993215167" cx="33.44652536308037" cy="-47.54186523517235"/><circle fill="#4481ff" r="0.33141102195535105" cx="33.386384586810365" cy="-49.558907691126464"/><circle fill="#84c0ea" r="0.36483304288672475" cx="28.857556637088663" cy="-45.712290427016896"/><circle fill="#000000" r="0.2720581019290446" cx="30.625184008089683" cy="-46.388536634424526"/><circle fill="#000000" r="0.23749932747577956" cx="29.46269973971562" cy="-47.37642064553268"/><circle fill="#e7f5ff" r="0.3362342636563526" cx="29.054570368506244" cy="-51.31276916370849"/><circle fill="#ffffff" r="0.2558315189436246" cx="30.66965836619126" cy="-50.60945489027753"/><circle fill="#ffffff" r="0.22955529380816858" cx="29.526524800885124" cy="-49.71049696370055"/><circle fill="#ffffff" r="0.6162026623488073" cx="20.509856557021532" cy="-59.50579298450231"/><circle fill="#c3cdd4" r="0.32787156714600185" cx="20.32720918344744" cy="-56.79968013940353"/><circle fill="#0b293e" r="0.32026634335725995" cx="22.17527856345464" cy="-57.40376755905957"/><circle fill="#ffffff" r="0.35511618403673817" cx="20.098858591744204" cy="-52.027954221758584"/><circle fill="#0c2839" r="0.263457027662948" cx="20.172520618182784" cy="-53.86399835586106"/><circle fill="#15497c" r="0.2317208062330963" cx="21.446646686931803" cy="-53.10547673878845"/><circle fill="#000000" r="0.33232341549451144" cx="25.22723151369164" cy="-54.00576791797142"/><circle fill="#ffffff" r="0.250700550728607" cx="24.037733129262293" cy="-55.26713533618641"/><circle fill="#2783b1" r="0.22541566507069255" cx="23.58408954118365" cy="-53.914629236396756"/><circle fill="#ffffff" r="7.786254391456041" cx="76.64123682563188" cy="51.27860857116414"/><circle fill="#ffffff" r="5.599773740744079" cx="49.60203633330356" cy="80.31837093335712"/><circle fill="#ebf7ff" r="3.723304228476069" cx="44.150436572858595" cy="53.40389522251391"/><circle fill="#1b5987" r="7.391290424052478" cx="-40.4345180569974" cy="83.31520172705906"/><circle fill="#4481ff" r="5.468426339616886" cx="-3.900100452720686" cy="94.45108593958635"/><circle fill="#84c0ea" r="3.6305342028096157" cx="-12.546560287097957" cy="69.08702280187308"/><circle fill="#000000" r="2.664574992952718" cx="6.739875246651048" cy="30.035296993920767"/><circle fill="#000000" r="2.3648043390493476" cx="17.23184813327168" cy="40.845084853699966"/><circle fill="#e7f5ff" r="2.3504990976537825" cx="3.6295369961935418" cy="44.72867508856435"/><circle fill="#ffffff" r="4.915660597747254" cx="-62.21679972565971" cy="-71.90341738373735"/><circle fill="#ffffff" r="3.52635863805292" cx="-79.84429054071818" cy="-54.148432532096145"/><circle fill="#ffffff" r="2.5734816260532987" cx="-62.129342441358745" cy="-50.43504078524544"/><circle fill="#c3cdd4" r="5.872184648442063" cx="-93.78209339858822" cy="8.060060833235912"/><circle fill="#0b293e" r="3.8041911936662354" cx="-94.01375087697815" cy="-20.372733688590046"/><circle fill="#ffffff" r="2.813402021565796" cx="-77.24432735864272" cy="-10.12256349220572"/><circle fill="#0c2839" r="2.220769481115821" cx="-44.35001627252583" cy="-22.07694811157805"/><circle fill="#15497c" r="1.8420685383666686" cx="-52.891688684434186" cy="-30.705528071704727"/><circle fill="#000000" r="1.8852218184289005" cx="-56.4734109295989" cy="-20.113521238785633"/><circle fill="#ffffff" r="1.5303823966758388" cx="3.585909009422618" cy="-22.385541482529362"/><circle fill="#2783b1" r="0.9964341172612929" cx="1.3530223911282788" cy="-15.300583720829252"/><circle fill="#ffffff" r="0.9817602264916386" cx="-3.0848237816215374" cy="-19.24051703464992"/><circle fill="#ffffff" r="1.6121377918440352" cx="-1.5646808861760109" cy="2.2127929300162066"/><circle fill="#ebf7ff" r="1.0174306569699878" cx="-0.7256350400321158" cy="-5.448686137428699"/><circle fill="#1b5987" r="1.0147735206594084" cx="-6.551219669236461" cy="-3.6511345745628816"/><circle fill="#4481ff" r="1.5144760301238607" cx="-19.64360637978636" cy="-15.055596277590597"/><circle fill="#84c0ea" r="0.9776432869030061" cx="-12.428977993842771" cy="-16.29638244445035"/><circle fill="#000000" r="0.9896663407376863" cx="-13.811629184833553" cy="-10.558797256191093"/><circle fill="#000000" r="2.147255897244489" cx="-9.510050759467553" cy="-97.3895192666629"/><circle fill="#e7f5ff" r="1.0173044517441945" cx="-0.7131407226877271" cy="-98.98012653208897"/><circle fill="#ffffff" r="0.9191261804592853" cx="-2.0230060309763944" cy="-93.3272499696166"/><circle fill="#ffffff" r="0.8834040505751029" cx="12.542998993041259" cy="-98.31974760373481"/><circle fill="#ffffff" r="0.7145862207756525" cx="7.818377519903547" cy="-98.97710019124656"/><circle fill="#c3cdd4" r="0.5700396068277677" cx="9.363702514441883" cy="-95.47036488259643"/><circle fill="#0b293e" r="0.7082228972546735" cx="7.222800459629767" cy="-86.83533199410512"/><circle fill="#ffffff" r="0.5954467656587246" cx="4.133070727247494" cy="-89.21184495311729"/><circle fill="#0c2839" r="0.518332361141107" cx="7.218507355755961" cy="-90.47558671880503"/><circle fill="#15497c" r="1.2079589334192518" cx="38.39409439560316" cy="-91.0261549975747"/><circle fill="#000000" r="0.6711523145788623" cx="33.555920856652726" cy="-93.4891445996574"/><circle fill="#ffffff" r="0.5997357011418002" cx="33.4293371732589" cy="-89.68394013127018"/><circle fill="#2783b1" r="0.7686514440490768" cx="23.903507039121102" cy="-96.30930841545542"/><circle fill="#ffffff" r="0.5600090508811669" cx="27.758832436197476" cy="-95.48695733837134"/><circle fill="#ffffff" r="0.4671722195494597" cx="25.71961709164017" cy="-93.19162215120487"/><circle fill="#ebf7ff" r="0.5636607203785717" cx="26.160445630405977" cy="-86.0203600814313"/><circle fill="#1b5987" r="0.4427085331403787" cx="28.72392616437092" cy="-87.5780968271817"/><circle fill="#4481ff" r="0.4104670886050227" cx="26.526391139719767" cy="-88.88718105034441"/><circle fill="#84c0ea" r="0.7391842309374781" cx="17.95055036593364" cy="-71.3819438168687"/><circle fill="#000000" r="0.4291892010246447" cx="16.30810580017886" cy="-74.35170286239688"/><circle fill="#000000" r="0.4162502163547146" cx="18.831207810764496" cy="-74.6076856386184"/><circle fill="#e7f5ff" r="0.5476511850727234" cx="12.923461573460571" cy="-80.23619330034163"/><circle fill="#ffffff" r="0.3808529348177886" cx="14.30808966601558" cy="-77.86568472603115"/><circle fill="#ffffff" r="0.3477609814208419" cx="15.494081514782494" cy="-79.6994150404575"/><circle fill="#ffffff" r="0.4952660287721462" cx="21.25270142522442" cy="-80.48551790342191"/><circle fill="#c3cdd4" r="0.3547580581870027" cx="20.179436907908656" cy="-78.20669542389727"/><circle fill="#0b293e" r="0.3337506421409303" cx="18.898593959712848" cy="-79.8260499013591"/><circle fill="#ffffff" r="2.892592168231444" cx="91.32222349530566" cy="-33.0166647570415"/><circle fill="#0c2839" r="1.3192787947076587" cx="88.12649084763156" cy="-44.402774107919726"/><circle fill="#15497c" r="1.1792593302054473" cx="82.31111004691756" cy="-39.69015939908033"/><circle fill="#000000" r="1.0729788172421555" cx="79.6134024724028" cy="-58.72190108350569"/><circle fill="#ffffff" r="0.8893543137179208" cx="83.10226803936168" cy="-54.00863944838668"/><circle fill="#2783b1" r="0.6972216775242183" cx="78.38612799675028" cy="-53.66554487947426"/><circle fill="#ffffff" r="0.8532533518861675" cx="70.13613268397486" cy="-46.69678294063179"/><circle fill="#ffffff" r="0.7329168506619101" cx="74.34791022683153" cy="-44.50851738445494"/><circle fill="#ebf7ff" r="0.6312079026150436" cx="74.1204759927839" cy="-48.58442747556428"/><circle fill="#1b5987" r="1.2773958089726567" cx="57.84593830389633" cy="-80.00000000000043"/><circle fill="#4481ff" r="0.7299404622693247" cx="62.77303642422134" cy="-76.90312489559818"/><circle fill="#84c0ea" r="0.6462448328978451" cx="59.28657552743318" cy="-74.70459710457564"/><circle fill="#000000" r="0.8802973452807533" cx="70.9501876057499" cy="-69.21550644955832"/><circle fill="#000000" r="0.6286598118742676" cx="67.93834959440386" cy="-72.51926575174888"/><circle fill="#e7f5ff" r="0.5261667351080019" cx="66.85149568820566" cy="-69.24247934997705"/><circle fill="#ffffff" r="0.6214588951890743" cx="59.60517181271602" cy="-65.83805480641408"/><circle fill="#ffffff" r="0.4845377910089336" cx="59.783363346274655" cy="-69.12854514922525"/><circle fill="#ffffff" r="0.455321795423844" cx="62.20829097981124" cy="-67.69225765822162"/><circle fill="#c3cdd4" r="0.81113348027404" cx="48.89859074273687" cy="-50.799194710135325"/><circle fill="#0b293e" r="0.47847468086215383" cx="52.63100659463401" cy="-50.40986223354944"/><circle fill="#ffffff" r="0.4592630982582378" cx="51.7773746828919" cy="-53.08988633073877"/><circle fill="#0c2839" r="0.6305250556147197" cx="60.27692149627749" cy="-49.57655647548123"/><circle fill="#15497c" r="0.432772020458697" cx="57.15556997457833" cy="-49.92256315541576"/><circle fill="#000000" r="0.3951728469105064" cx="58.50685107438359" cy="-52.003948304092084"/><circle fill="#ffffff" r="0.5497172884520547" cx="56.5723342122943" cy="-58.237668243737005"/><circle fill="#2783b1" r="0.3931091874894886" cx="54.79244343869197" cy="-56.08451336556857"/><circle fill="#ffffff" r="0.3736573207818298" cx="57.02940811011577" cy="-55.5512779937923"/><circle fill="#ffffff" r="0.5900217363370541" cx="15.626891703803345" cy="-37.11926353446404"/><circle fill="#ebf7ff" r="0.25513077939673967" cx="17.59275825496426" cy="-38.41027013876735"/><circle fill="#1b5987" r="0.2541581259847287" cx="16.38197655099818" cy="-39.34213751087676"/><circle fill="#4481ff" r="0.20022970076083038" cx="20.108349396329846" cy="-40.3305378862873"/><circle fill="#84c0ea" r="0.16717682134855266" cx="19.253595288560003" cy="-39.64094130497902"/><circle fill="#000000" r="0.1382366863555377" cx="19.131538481897596" cy="-40.54531875982641"/><circle fill="#000000" r="0.19863876553757054" cx="17.564912301832713" cy="-42.257430645811674"/><circle fill="#e7f5ff" r="0.16606632374301988" cx="17.13290445210396" cy="-41.25644626761904"/><circle fill="#ffffff" r="0.13776059714417305" cx="18.032444699177177" cy="-41.379794600942255"/><circle fill="#ffffff" r="0.23287675379435357" cx="24.78080852438571" cy="-43.443460822984584"/><circle fill="#ffffff" r="0.13230089004361692" cx="23.926988224988133" cy="-42.81875347917032"/><circle fill="#c3cdd4" r="0.1235577573860478" cx="23.7648636925834" cy="-43.568604747240435"/><circle fill="#0b293e" r="0.1611018342806336" cx="22.18781404253155" cy="-41.74468169115997"/><circle fill="#ffffff" r="0.11423037697094159" cx="22.894495544081227" cy="-42.15124807720745"/><circle fill="#0c2839" r="0.09993486209544224" cx="22.350612151749218" cy="-42.49089010671092"/><circle fill="#15497c" r="0.1310010236418645" cx="22.054390933207827" cy="-44.06542675777705"/><circle fill="#000000" r="0.09822687731196139" cx="22.695447555619182" cy="-43.83442432337316"/><circle fill="#ffffff" r="0.09176046626710936" cx="22.278885071503066" cy="-43.44583984409552"/><circle fill="#2783b1" r="0.2288792053185583" cx="19.205640522552184" cy="-47.552974108375665"/><circle fill="#ffffff" r="0.13023329238384482" cx="18.864658844759045" cy="-46.56984673089314"/><circle fill="#ffffff" r="0.12197530292336056" cx="19.618275373474173" cy="-46.63308558327634"/><circle fill="#ebf7ff" r="0.15917853770010187" cx="18.341410159718702" cy="-44.62300408985005"/><circle fill="#1b5987" r="0.11268572108372926" cx="18.52822365635177" cy="-45.40594702413073"/><circle fill="#4481ff" r="0.09889711875366221" cx="19.00325974087402" cy="-44.9867508922415"/><circle fill="#84c0ea" r="0.13040312066150986" cx="20.58449951719332" cy="-45.15523236979627"/><circle fill="#000000" r="0.09746101402612391" cx="20.179429512381535" cy="-45.69794353328836"/><circle fill="#000000" r="0.09109177635738028" cx="19.93032858160414" cy="-45.19040675468658"/><circle fill="#e7f5ff" r="0.4397026773443213" cx="37.12251713979981" cy="-48.76816627026432"/><circle fill="#ffffff" r="0.1997621015439484" cx="35.47684120142311" cy="-48.05303292782805"/><circle fill="#ffffff" r="0.19633324300467384" cx="35.40636305150612" cy="-49.23918741674243"/><circle fill="#ffffff" r="0.16778665675994925" cx="33.053123952750205" cy="-47.21874850392937"/><circle fill="#c3cdd4" r="0.1368081147063122" cx="33.92168059703991" cy="-47.48881103067624"/><circle fill="#0b293e" r="0.11390732876948968" cx="33.364212669404544" cy="-47.98956850097457"/><circle fill="#ffffff" r="0.16147037301972408" cx="32.98979519669475" cy="-49.851566067327106"/><circle fill="#0c2839" r="0.13257948602365685" cx="33.84283647381923" cy="-49.6422075491213"/><circle fill="#15497c" r="0.11204761686662165" cx="33.33166796388133" cy="-49.118837633611285"/><circle fill="#000000" r="0.22166087329829165" cx="28.40353792469068" cy="-45.34101947136066"/><circle fill="#ffffff" r="0.12288122972959026" cx="29.343292905639082" cy="-45.66841003130455"/><circle fill="#2783b1" r="0.115303119944815" cx="28.857974994086977" cy="-46.19242640758486"/><circle fill="#ffffff" r="0.14277668935699434" cx="31.038859041652405" cy="-46.419534548252386"/><circle fill="#ffffff" r="0.10313763131045971" cx="30.382098865330537" cy="-46.10273696400652"/><circle fill="#ebf7ff" r="0.08956287503018785" cx="30.40964610150324" cy="-46.67890388774554"/><circle fill="#1b5987" r="0.11862088587574345" cx="29.420572904008115" cy="-47.73004040752357"/><circle fill="#4481ff" r="0.08991143141938955" cx="29.239703472838407" cy="-47.13669065158253"/><circle fill="#84c0ea" r="0.08294100921120927" cx="29.74896519801574" cy="-47.23242725415498"/><circle fill="#000000" r="0.20208028978105133" cx="28.665657707310373" cy="-51.68496467738875"/><circle fill="#000000" r="0.1131560848838928" cx="29.5037591174561" cy="-51.32622847934974"/><circle fill="#e7f5ff" r="0.1077031784570426" cx="29.023605397237407" cy="-50.86991295333846"/><circle fill="#ffffff" r="0.13438915767868984" cx="31.058362112083504" cy="-50.57508085376971"/><circle fill="#ffffff" r="0.09619830679311411" cx="30.44862418881517" cy="-50.88344191668473"/><circle fill="#ffffff" r="0.08490892172309557" cx="30.45959310899403" cy="-50.34117027345389"/><circle fill="#c3cdd4" r="0.11581830733894775" cx="29.466650830371695" cy="-49.37035282950872"/><circle fill="#0b293e" r="0.08629370768832167" cx="29.325453403378734" cy="-49.95407628312464"/><circle fill="#ffffff" r="0.07985284033592478" cx="29.80935334495856" cy="-49.83596173218805"/><circle fill="#0c2839" r="0.41766487375729644" cx="20.226009112372356" cy="-60.499932165090165"/><circle fill="#15497c" r="0.19062307756529337" cx="20.12893050023483" cy="-58.79455243880222"/><circle fill="#000000" r="0.18802714758039454" cx="21.21662516331937" cy="-59.12204342510994"/><circle fill="#ffffff" r="0.16129163649174427" cx="20.16063993648825" cy="-56.33975044286153"/><circle fill="#2783b1" r="0.13115600489121684" cx="20.12599302135572" cy="-57.21225542708231"/><circle fill="#ffffff" r="0.10960025484058619" cx="20.759015750626137" cy="-56.869856229155666"/><circle fill="#ffffff" r="0.15641896722303752" cx="22.572611224600635" cy="-57.140412965954134"/><circle fill="#ebf7ff" r="0.12791575947329217" cx="22.099302481569275" cy="-57.84546296573499"/><circle fill="#1b5987" r="0.10816918505985434" cx="21.79367920302349" cy="-57.20898837606354"/><circle fill="#4481ff" r="0.21591761485035152" cx="19.89456489065083" cy="-51.49471536049362"/><circle fill="#84c0ea" r="0.11936109264658368" cx="19.908706834377444" cy="-52.462662164242126"/><circle fill="#000000" r="0.11238743014409373" cx="20.542086888422848" cy="-52.176642843698595"/><circle fill="#000000" r="0.13804633758101437" cx="20.07117054061328" cy="-54.25249946793004"/><circle fill="#e7f5ff" r="0.0998922950797714" cx="19.986271641004638" cy="-53.55201430364392"/><circle fill="#ffffff" r="0.08687840259834" cx="20.50626162312666" cy="-53.757453270032244"/><circle fill="#ffffff" r="0.11587191991777887" cx="21.78645405544232" cy="-53.17863174941064"/><circle fill="#ffffff" r="0.0877419551056838" cx="21.295466270567026" cy="-52.82405012741446"/><circle fill="#c3cdd4" r="0.08079657731894388" cx="21.22333711402711" cy="-53.32410873478045"/><circle fill="#0b293e" r="0.20025921001714742" cx="25.70383308355736" cy="-53.7680807357355"/><circle fill="#ffffff" r="0.11164015336351989" cx="25.089457093260087" cy="-54.42781277287128"/><circle fill="#0c2839" r="0.10632894264597224" cx="24.825437549133653" cy="-53.82976365283083"/><circle fill="#15497c" r="0.13147382924371145" cx="23.876652868050908" cy="-55.61370481862084"/><circle fill="#000000" r="0.09442698220579951" cx="24.363987249029687" cy="-55.15456863003953"/><circle fill="#ffffff" r="0.08321319155535105" cx="23.859929727616585" cy="-54.98449716174988"/><circle fill="#2783b1" r="0.11364651998863251" cx="23.288599007710026" cy="-53.748350825395576"/><circle fill="#ffffff" r="0.0848656502238798" cx="23.875511749418923" cy="-53.80810416344085"/><circle fill="#ffffff" r="0.07835126331465068" cx="23.60751826792018" cy="-54.21749131977009"/><circle fill="#ebf7ff" r="4.89501845123758" cx="85.31494464628726" cy="42.02758303056912"/><circle fill="#1b5987" r="2.762353858353582" cx="75.13881527481745" cy="61.719674871672055"/><circle fill="#4481ff" r="2.2123399392962027" cx="66.81490091055701" cy="49.43063371336417"/><circle fill="#84c0ea" r="2.9584472600535077" cx="43.78950205898367" cy="86.59989877364801"/><circle fill="#000000" r="2.2442218551362267" cx="57.35978475241473" cy="79.15836818596298"/><circle fill="#000000" r="1.7072539801356132" cx="47.07512661579598" cy="73.46217801065798"/><circle fill="#e7f5ff" r="1.7300584538485315" cx="39.44795411530099" cy="50.642405899461295"/><circle fill="#ffffff" r="1.4586003741289582" cx="48.948986905487786" cy="51.44786607760781"/><circle fill="#ffffff" r="1.3591833122098733" cx="44.27348419939166" cy="58.48489304605548"/><circle fill="#ffffff" r="4.604957132203636" cx="-51.963585362720124" cy="80.00000000000003"/><circle fill="#c3cdd4" r="2.6314040755450145" cx="-34.20160785279185" cy="91.16410199515838"/><circle fill="#0b293e" r="2.1159594608255996" cx="-33.30544603201409" cy="77.02519914867203"/><circle fill="#ffffff" r="2.906806032406513" cx="4.075400930585056" cy="97.00762558728937"/><circle fill="#0c2839" r="2.1771571256790327" cx="-11.035013409630253" cy="97.19844169050947"/><circle fill="#15497c" r="1.6681631165554356" cx="-5.094276342993269" cy="87.41511741996933"/><circle fill="#000000" r="1.6923820808311936" cx="-10.004835254028634" cy="64.41015722555838"/><circle fill="#ffffff" r="1.4160745904186545" cx="-17.53419100464221" cy="69.8563082737636"/><circle fill="#2783b1" r="1.3266979276078636" cx="-10.115927991454212" cy="73.40745993695755"/><circle fill="#ffffff" r="1.4988969148625875" cx="5.569494363646015" cy="26.039711064940033"/><circle fill="#ffffff" r="0.9090700391822429" cx="10.002066120973703" cy="31.494423278787046"/><circle fill="#ebf7ff" r="0.9069481646543435" cx="4.770442711310377" cy="33.01474545866455"/><circle fill="#1b5987" r="1.2594137993046994" cx="20.656930643801026" cy="42.029891551200144"/><circle fill="#4481ff" r="0.8479501747503803" cx="16.0529326997093" cy="37.85644804631612"/><circle fill="#84c0ea" r="0.813364052035016" cx="14.596774536313726" cy="42.62191952825587"/><circle fill="#000000" r="1.2486216503907404" cx="1.3588896191290831" cy="47.52113469400814"/><circle fill="#000000" r="0.8430441551784115" cx="3.0499221544877795" cy="41.588171125347"/><circle fill="#e7f5ff" r="0.8105362691268411" cx="6.7883290503944025" cy="44.84774375932951"/><circle fill="#ffffff" r="3.083666135531541" cx="-57.26697291210982" cy="-78.18740041216869"/><circle fill="#ffffff" r="1.703548197621242" cx="-68.65127156447451" cy="-70.35051776297134"/><circle fill="#ffffff" r="1.4450656112793923" cx="-60.40228285200945" cy="-65.80699495567055"/><circle fill="#c3cdd4" r="1.8586837126526754" cx="-84.00968755262384" cy="-50.7354940837641"/><circle fill="#0b293e" r="1.3877541203587136" cx="-79.02028152625061" cy="-58.99296691080154"/><circle fill="#ffffff" r="1.1040745602066846" cx="-75.54785507281615" cy="-52.42171487315571"/><circle fill="#0c2839" r="1.2224712435647187" cx="-60.14373290697934" cy="-47.19982626912083"/><circle fill="#15497c" r="0.999411601386309" cx="-60.90526782319471" cy="-53.79170689075107"/><circle fill="#000000" r="0.9252954131063794" cx="-65.62787894602461" cy="-50.47606632936127"/><circle fill="#ffffff" r="3.814503916482513" cx="-94.53969974060855" cy="17.717077348929124"/><circle fill="#2783b1" r="1.9998989924239043" cx="-97.99000024996168" cy="1.406999825026836"/><circle fill="#ffffff" r="1.6874821917839185" cx="-87.31052328802457" cy="4.152716077615561"/><circle fill="#ffffff" r="1.9645585676536148" cx="-94.49129819771562" cy="-26.121683363546936"/><circle fill="#ebf7ff" r="1.528316864900235" cx="-97.15287557210841" cy="-16.06210283648786"/><circle fill="#1b5987" r="1.191239489505088" cx="-89.40707883130294" cy="-18.44066216456117"/><circle fill="#4481ff" r="1.3229558602221008" cx="-73.30721768909244" cy="-11.390878900990975"/><circle fill="#84c0ea" r="1.1096593190896697" cx="-78.65515037344899" cy="-6.461963991654006"/><circle fill="#000000" r="1.0062882113196856" cx="-80.12558982622645" cy="-12.630223769853758"/><circle fill="#000000" r="1.2703941332281616" cx="-41.01374878832088" cy="-21.048579181691963"/><circle fill="#e7f5ff" r="0.7462545930644944" cx="-45.51964564756349" cy="-24.803704239619837"/><circle fill="#ffffff" r="0.7532395819628249" cx="-46.88171848275053" cy="-20.516430945374186"/><circle fill="#ffffff" r="0.9670990929847586" cx="-53.76875578457192" cy="-33.374268614149415"/><circle fill="#ffffff" r="0.6692031361374481" cx="-50.57070563094561" cy="-29.74661040652864"/><circle fill="#c3cdd4" r="0.6351376861443025" cx="-54.338457733052344" cy="-28.694704857517088"/><circle fill="#0b293e" r="0.9991176616628159" cx="-58.85970820438219" cy="-18.493336202199696"/><circle fill="#ffffff" r="0.6843795547098835" cx="-53.9853998097248" cy="-19.471141379030065"/><circle fill="#0c2839" r="0.6436037347417627" cx="-56.395707542254044" cy="-22.641152711521368"/><circle fill="#15497c" r="0.957589031168545" cx="5.198685914315359" cy="-24.279994564770885"/><circle fill="#000000" r="0.4933374527214268" cx="3.799196719325733" cy="-20.373092630595828"/><circle fill="#ffffff" r="0.489713542248875" cx="1.567578007958483" cy="-22.301116539594197"/><circle fill="#2783b1" r="0.5055573002252017" cx="1.4163264560798074" cy="-13.799926926767412"/><circle fill="#ffffff" r="0.3830553555796686" cx="2.3208843271769637" cy="-16.28355598820374"/><circle fill="#ffffff" r="0.3360513241398896" cx="0.19275673045324132" cy="-15.955794410763733"/><circle fill="#ebf7ff" r="0.4955364180770108" cx="-4.5581842144102875" cy="-19.132746857169373"/><circle fill="#1b5987" r="0.37727467223082467" cx="-2.2414361745454947" cy="-20.306196723944907"/><circle fill="#4481ff" r="0.3332515832443452" cx="-2.308236056019692" cy="-18.179306610563522"/><circle fill="#84c0ea" r="1.0181668585075807" cx="-0.7985189922461382" cy="4.729039838797066"/><circle fill="#000000" r="0.5154572077690245" cx="-0.5141555149495343" cy="0.36264241538563763"/><circle fill="#000000" r="0.514774319930154" cx="-3.4696383059328273" cy="1.2668054247476506"/><circle fill="#e7f5ff" r="0.5130783142724674" cx="-0.05027128313964435" cy="-6.8221276203212815"/><circle fill="#ffffff" r="0.3930331609958915" cx="-0.2234560539404037" cy="-4.130648031864767"/><circle fill="#ffffff" r="0.34370618418108595" cx="-2.080736701773941" cy="-5.320651038009806"/><circle fill="#ffffff" r="0.5112779956170718" cx="-7.87965707519911" cy="-4.402192021612604"/><circle fill="#c3cdd4" r="0.39197586365347487" cx="-6.225459050098988" cy="-2.2826230293854217"/><circle fill="#0b293e" r="0.3432002156152817" cx="-5.362466193894291" cy="-4.3076083693740514"/><circle fill="#ffffff" r="0.9459330336177636" cx="-22.025361336690246" cy="-15.67273166484794"/><circle fill="#0c2839" r="0.4854309423932417" cx="-17.95971900156878" cy="-16.13455466242412"/><circle fill="#15497c" r="0.4883769112332593" cx="-18.67558942969249" cy="-13.302210099638259"/><circle fill="#000000" r="0.49406621472816326" cx="-11.16489831382998" cy="-17.050061036271774"/><circle fill="#ffffff" r="0.3753310548851365" cx="-13.72530963023671" cy="-16.683763210650813"/><circle fill="#2783b1" r="0.3317341798244923" cx="-12.457886960510903" cy="-14.987324148567424"/><circle fill="#ffffff" r="0.5022896578845095" cx="-13.015173024006966" cy="-9.297214803195747"/><circle fill="#ffffff" r="0.3800579792801371" cx="-15.15756772188915" cy="-10.812951082282817"/><circle fill="#ebf7ff" r="0.33402910669998637" cx="-13.23586717129772" cy="-11.750714930083204"/><circle fill="#1b5987" r="1.5507414695091535" cx="-13.204127274170617" cy="-97.55976387902406"/><circle fill="#4481ff" r="0.6580859102674784" cx="-7.268003373641281" cy="-99.07568834972854"/><circle fill="#84c0ea" r="0.6155518783584101" cx="-7.72157871267998" cy="-95.28370005723664"/><circle fill="#000000" r="0.4940066938183315" cx="0.7046545424783575" cy="-99.50349825923527"/><circle fill="#000000" r="0.4198698404565284" cx="-2.0283712309448103" cy="-99.55946982955008"/><circle fill="#e7f5ff" r="0.33289283885487586" cx="-0.866530172932765" cy="-97.63867045748434"/><circle fill="#ffffff" r="0.4339780381851708" cx="-1.1168828971265108" cy="-92.32234604743563"/><circle fill="#ffffff" r="0.37570108514699035" cx="-3.3177984152158704" cy="-93.33675415121412"/><circle fill="#ffffff" r="0.3145673270164253" cx="-1.6052466264257692" cy="-94.48805863184268"/><circle fill="#c3cdd4" r="0.5279505236780454" cx="13.944064640409636" cy="-98.48985576354511"/><circle fill="#0b293e" r="0.3059481081262394" cx="11.580996751712552" cy="-99.01911177573974"/><circle fill="#ffffff" r="0.27598533344371895" cx="11.960678631562319" cy="-97.31720745970918"/><circle fill="#0c2839" r="0.3835452980362717" cx="6.798492577150286" cy="-99.38419666157606"/><circle fill="#15497c" r="0.26923416873842193" cx="8.729616797544836" cy="-99.34797151355409"/><circle fill="#000000" r="0.23059975576340375" cx="7.990697450511461" cy="-98.04775506065093"/><circle fill="#ffffff" r="0.28141046343992493" cx="9.104420308836897" cy="-94.6593531933978"/><circle fill="#2783b1" r="0.214568654374347" cx="10.095733816940275" cy="-95.75274812521343"/><circle fill="#ffffff" r="0.2029245736147758" cx="8.886866447046497" cy="-96.07872414247286"/><circle fill="#ffffff" r="0.4133739908365226" cx="7.817600043468899" cy="-85.88444134085415"/><circle fill="#ebf7ff" r="0.24339616683997803" cx="6.292475766905571" cy="-87.03551892987566"/><circle fill="#1b5987" r="0.2294429998671456" cx="7.534471053485484" cy="-87.7196841725678"/><circle fill="#4481ff" r="0.31925891399249984" cx="3.2645490597755793" cy="-89.49882333822754"/><circle fill="#84c0ea" r="0.2195756613836453" cx="4.4845873001912855" cy="-88.47652348904305"/><circle fill="#000000" r="0.19717962016647042" cx="4.76224346307155" cy="-89.6939219760098"/><circle fill="#000000" r="0.26325986377431776" cx="7.595787815317412" cy="-91.16009081731718"/><circle fill="#e7f5ff" r="0.19155205681375198" cx="7.480356558928198" cy="-89.81576031614037"/><circle fill="#ffffff" r="0.18221775579112368" cx="6.522291279118597" cy="-90.39778157138142"/><circle fill="#ffffff" r="0.8168172419304819" cx="40.372341339067454" cy="-90.59457929049864"/><circle fill="#ffffff" r="0.38373654758862913" cx="37.45094274309655" cy="-92.30832482432737"/><circle fill="#c3cdd4" r="0.359275290571326" cx="37.12682415007813" cy="-90.10406539365657"/><circle fill="#0b293e" r="0.3344538100450602" cx="32.77478418075863" cy="-94.12244482187411"/><circle fill="#ffffff" r="0.26957753360985387" cx="34.49265933237391" cy="-93.57571061715458"/><circle fill="#0c2839" r="0.2198253261925072" cx="33.392926163733875" cy="-92.61320288559507"/><circle fill="#15497c" r="0.28875974576130925" cx="32.71897923766041" cy="-89.15025880079436"/><circle fill="#000000" r="0.23908316274661234" cx="34.252130244605716" cy="-89.52075726403257"/><circle fill="#ffffff" r="0.20640784680242205" cx="33.33026548296775" cy="-90.48397276815028"/><circle fill="#2783b1" r="0.4736202735936489" cx="22.799895404202047" cy="-96.87964198428003"/><circle fill="#ffffff" r="0.2598793530847685" cx="24.894866958845522" cy="-96.58331774050106"/><circle fill="#ffffff" r="0.23793705492768638" cx="24.098079478142488" cy="-95.32170425778644"/><circle fill="#ebf7ff" r="0.2937768276573879" cx="28.61223087886943" cy="-95.51267551182545"/><circle fill="#1b5987" r="0.21478668405910903" cx="27.187314104425308" cy="-96.0100971163718"/><circle fill="#4481ff" r="0.1819723439555049" cx="27.39303476223838" cy="-94.84141225705773"/><circle fill="#84c0ea" r="0.2298735049797847" cx="25.750857891545277" cy="-92.49527686723613"/><circle fill="#000000" r="0.17850588265198958" cx="25.20603516940217" cy="-93.58294531792056"/><circle fill="#000000" r="0.1642909671921652" cx="26.23335573091122" cy="-93.5587983578531"/><circle fill="#e7f5ff" r="0.3334969538953979" cx="25.630179281363638" cy="-85.29668232746857"/><circle fill="#ffffff" r="0.18984876210960147" cx="26.908226587735214" cy="-86.11309723717847"/><circle fill="#ffffff" r="0.1836622491681302" cx="25.98411358521893" cy="-86.74658224485826"/><circle fill="#ffffff" r="0.23304175660167337" cx="29.388347749798875" cy="-87.7013137533809"/><circle fill="#c3cdd4" r="0.16460381435904864" cx="28.397340753672793" cy="-87.06607118627562"/><circle fill="#0b293e" r="0.1484268521256014" cx="28.309830423767192" cy="-87.9999567107036"/><circle fill="#ffffff" r="0.20989823124216564" cx="26.325720834151326" cy="-89.4741943027757"/><circle fill="#0c2839" r="0.1527106807497962" cx="26.240741198159583" cy="-88.40182209989646"/><circle fill="#15497c" r="0.1421861042253483" cx="27.058528532280707" cy="-88.73799878938796"/><circle fill="#000000" r="0.48443414539682866" cx="18.130629427923196" cy="-70.17164903362922"/><circle fill="#ffffff" r="0.23332025332076675" cx="17.171310070813107" cy="-71.96379391299877"/><circle fill="#2783b1" r="0.22944299986700842" cx="18.547735047115218" cy="-72.14457686678158"/><circle fill="#ffffff" r="0.21413507819641595" cx="15.844914268677273" cy="-74.79815524886362"/><circle fill="#ffffff" r="0.1690757728294975" cx="16.3074924491842" cy="-73.75343820295039"/><circle fill="#ebf7ff" r="0.14359426604961711" cx="16.85891995719859" cy="-74.50881640280873"/><circle fill="#1b5987" r="0.20563072111238273" cx="19.187126602830187" cy="-75.11764417991304"/><circle fill="#4481ff" r="0.1637292273449918" cx="18.95403246440232" cy="-74.04086092182126"/><circle fill="#84c0ea" r="0.14114770194586723" cx="18.275480573667522" cy="-74.6508096142389"/><circle fill="#000000" r="0.3388227012161068" cx="12.24492038504211" cy="-80.80664733590596"/><circle fill="#000000" r="0.18089923369533056" cx="12.987468592389154" cy="-79.51046000620687"/><circle fill="#e7f5ff" r="0.1730764908676846" cx="13.63483105708079" cy="-80.35195961944925"/><circle fill="#ffffff" r="0.1966976648163717" cx="14.43651580484718" cy="-77.30259377245189"/><circle fill="#ffffff" r="0.14575597719147196" cx="13.858217479218604" cy="-78.13942175632945"/><circle fill="#ffffff" r="0.1264168077431619" cx="14.668654773250832" cy="-78.22249755534419"/><circle fill="#c3cdd4" r="0.17390643161631167" cx="16.003193529466998" cy="-79.8131772764044"/><circle fill="#0b293e" r="0.1328540618652206" cx="15.106254468261472" cy="-79.98328297069767"/><circle fill="#ffffff" r="0.12009470328647717" cx="15.333234182844153" cy="-79.26007795174152"/><circle fill="#0c2839" r="0.30179312156926075" cx="21.835581513617484" cy="-81.02916677143898"/><circle fill="#15497c" r="0.1637371190451892" cx="21.242445739104998" cy="-79.82659456210182"/><circle fill="#000000" r="0.15911463387990857" cx="20.601797694030168" cy="-80.5528854354379"/><circle fill="#ffffff" r="0.1836184277160586" cx="20.125983943396474" cy="-77.67097906129563"/><circle fill="#2783b1" r="0.1344051090649565" cx="20.566580542082168" cy="-78.50569443847246"/><circle fill="#ffffff" r="0.11880258314412756" cx="19.808256377300644" cy="-78.50077822638086"/><circle fill="#ffffff" r="0.1689413617983299" cx="18.401322251607997" cy="-79.89967122395844"/><circle fill="#ebf7ff" r="0.12636904360013745" cx="19.250181139889648" cy="-80.12286058165911"/><circle fill="#1b5987" r="0.11477055663561482" cx="19.086757572332573" cy="-79.41890653516447"/><circle fill="#4481ff" r="2.1283260858543613" cx="93.61502174243692" cy="-28.549820646020173"/><circle fill="#84c0ea" r="0.8814001673799032" cx="92.06739849358013" cy="-36.716358308026635"/><circle fill="#000000" r="0.8166208866258213" cx="87.75068670061337" cy="-34.01785725126125"/><circle fill="#000000" r="0.6372413795346482" cx="87.89241378884346" cy="-46.345241385061136"/><circle fill="#e7f5ff" r="0.5489406753802113" cx="89.57012716777889" cy="-43.2169587076296"/><circle fill="#ffffff" r="0.430298209841848" cx="86.66075549490465" cy="-43.4474523973874"/><circle fill="#ffffff" r="0.5527109156109117" cx="80.65511795361193" cy="-40.19751639302441"/><circle fill="#ffffff" r="0.485038860994627" cx="83.02363986519322" cy="-38.18610164510327"/><circle fill="#c3cdd4" r="0.4042086697900788" cx="83.42744453861708" cy="-40.813176856491474"/><circle fill="#0b293e" r="0.6373011540328081" cx="78.9690619169282" cy="-60.30616205591872"/><circle fill="#ffffff" r="0.3740375820642386" cx="80.92408331663643" cy="-58.108735376551046"/><circle fill="#0c2839" r="0.33519018066033507" cx="78.88301861839926" cy="-57.517957832158956"/><circle fill="#15497c" r="0.4802488148107374" cx="84.15178911124578" cy="-53.12868589884751"/><circle fill="#000000" r="0.3339746966105443" cx="82.96729047286773" cy="-55.22449919525444"/><circle fill="#ffffff" r="0.2859988107195463" cx="81.98207492467021" cy="-53.652799100868805"/><circle fill="#2783b1" r="0.3438165122534693" cx="77.65192670352816" cy="-52.92750086072889"/><circle fill="#ffffff" r="0.26174495513832713" cx="78.27516872353864" cy="-54.61807049185788"/><circle fill="#ffffff" r="0.24919389560072" cx="79.31690666514191" cy="-53.494216225946914"/><circle fill="#ebf7ff" r="0.49526602877226233" cx="68.79824018735286" cy="-46.865745029553025"/><circle fill="#1b5987" r="0.2946785644630903" cx="70.82682211818758" cy="-45.77988829562645"/><circle fill="#4481ff" r="0.2767491204265088" cx="70.94134235524967" cy="-47.489589961739604"/><circle fill="#84c0ea" r="0.39490509753623376" cx="75.12097885521837" cy="-43.68733089976263"/><circle fill="#000000" r="0.2692341687386759" cx="73.34581729485775" cy="-44.51930725816166"/><circle fill="#000000" r="0.2423350609977873" cx="74.55481859524119" cy="-45.461567864900644"/><circle fill="#e7f5ff" r="0.32066409406414775" cx="74.66753656894637" cy="-49.36339154666715"/><circle fill="#ffffff" r="0.23253039890060084" cx="73.25900412644965" cy="-48.52189686690922"/><circle fill="#ffffff" r="0.22257144213762264" cx="74.40428415422245" cy="-47.779199497271684"/><circle fill="#ffffff" r="0.8552388008479158" cx="56.38282115674447" cy="-81.55158583156712"/><circle fill="#c3cdd4" r="0.40883834179597095" cx="59.52500416211478" cy="-79.84468272797348"/><circle fill="#0b293e" r="0.3811874899662446" cx="57.68818861376034" cy="-78.34893561761515"/><circle fill="#ffffff" r="0.36563746508440964" cx="63.80189095650744" cy="-76.52662875178108"/><circle fill="#0c2839" r="0.2920127559961757" cx="62.330354476399556" cy="-77.82422265012872"/><circle fill="#15497c" r="0.2387166757981554" cx="62.04404854825037" cy="-76.26525866525262"/><circle fill="#000000" r="0.3117122856518357" cx="59.16569057962124" cy="-73.75429785151256"/><circle fill="#ffffff" r="0.25656518100055586" cx="58.693005858950315" cy="-75.38484777150052"/><circle fill="#2783b1" r="0.22297652434191403" cx="60.087202142856995" cy="-75.04303881381995"/><circle fill="#ffffff" r="0.5460315211580534" cx="72.15239242096796" cy="-68.44796647177425"/><circle fill="#ffffff" r="0.2964773106375456" cx="70.64874624688974" cy="-70.35301763542768"/><circle fill="#ebf7ff" r="0.2715331042387119" cx="69.8598254294476" cy="-68.84426029277064"/><circle fill="#1b5987" r="0.32852110763391695" cx="67.47641034422368" cy="-73.35760186680942"/><circle fill="#4481ff" r="0.24208490659567833" cx="68.7710470499013" cy="-72.26468509198064"/><circle fill="#84c0ea" r="0.20427588041869632" cx="67.52013501352322" cy="-71.79893358404217"/><circle fill="#000000" r="0.2583833369616806" cx="66.15178285801824" cy="-68.88762618195403"/><circle fill="#000000" r="0.20173263012452325" cx="67.52104654996204" cy="-68.95692877752595"/><circle fill="#e7f5ff" r="0.18478270442202657" cx="66.92389590849363" cy="-69.94973270887316"/><circle fill="#ffffff" r="0.36784610989815153" cx="59.169081801306376" cy="-64.95005148714112"/><circle fill="#ffffff" r="0.20866586641573745" cx="59.31015604893146" cy="-66.61398832092918"/><circle fill="#ffffff" r="0.20305487720306845" cx="60.404298945401614" cy="-66.04107891008094"/><circle fill="#c3cdd4" r="0.2543832473759837" cx="59.553063667222425" cy="-69.8306607798702"/><circle fill="#0b293e" r="0.18017390299148442" cx="59.4608718268897" cy="-68.54730435913437"/><circle fill="#ffffff" r="0.16293742563271868" cx="60.40620557125743" cy="-68.95165049429443"/><circle fill="#0c2839" r="0.23341506800305553" cx="62.88700418754857" cy="-67.80933390980606"/><circle fill="#15497c" r="0.1693959044554583" cx="61.885921497559835" cy="-67.15714073505896"/><circle fill="#000000" r="0.15728127186292107" cx="61.78065093744822" cy="-68.13089932543484"/><circle fill="#ffffff" r="0.529306631381485" cx="47.598643493232416" cy="-50.472213301732445"/><circle fill="#2783b1" r="0.2573370297057327" cx="49.8192792074014" cy="-50.257012100925316"/><circle fill="#ffffff" r="0.25167483618857295" cx="49.41335792607472" cy="-51.729020642501716"/><circle fill="#ffffff" r="0.23952385568201212" cx="53.29284814197959" cy="-50.13149617116473"/><circle fill="#ebf7ff" r="0.18816417479335662" cx="52.01813542774283" cy="-50.14757175209285"/><circle fill="#1b5987" r="0.1597682369719313" cx="52.54883361944411" cy="-51.0427932126563"/><circle fill="#4481ff" r="0.22685579835088818" cx="52.13342654794904" cy="-53.676389706410085"/><circle fill="#84c0ea" r="0.18025666682346986" cx="51.15044329099014" cy="-52.963622480898266"/><circle fill="#000000" r="0.15613345968702225" cx="52.0670278761624" cy="-52.546918605032594"/><circle fill="#000000" r="0.3919422777191933" cx="61.19771450581228" cy="-49.13205711515959"/><circle fill="#e7f5ff" r="0.2077732376144863" cx="59.48421866517069" cy="-49.30385471533585"/><circle fill="#ffffff" r="0.19869685833262754" cx="60.06193147514709" cy="-50.377423676323446"/><circle fill="#ffffff" r="0.2230179282336728" cx="56.51150399438283" cy="-49.7991149073035"/><circle fill="#ffffff" r="0.1660913785919499" cx="57.646698459022375" cy="-49.57988227983223"/><circle fill="#c3cdd4" r="0.14356799834589454" cx="57.36030449128607" cy="-50.46131318552641"/><circle fill="#0b293e" r="0.19723015442251843" cx="58.384437416819615" cy="-52.58356560234236"/><circle fill="#ffffff" r="0.15135333473791132" cx="58.98324628599575" cy="-51.736107923303834"/><circle fill="#0c2839" r="0.13639286345115026" cx="58.127390920546894" cy="-51.63169557262785"/><circle fill="#15497c" r="0.33461287764952147" cx="56.834938783210745" cy="-59.082108106611734"/><circle fill="#000000" r="0.18141081073781617" cx="55.91717299112013" cy="-57.91315002900953"/><circle fill="#ffffff" r="0.17715491513485268" cx="56.95135562214615" cy="-57.61743766465954"/><circle fill="#2783b1" r="0.2032075714724233" cx="54.27829641866419" cy="-55.78244297838"/><circle fill="#ffffff" r="0.1488052421192418" cx="54.91201163781374" cy="-56.613072439634934"/><circle fill="#ffffff" r="0.1319726879840798" cx="55.26125877347544" cy="-55.84803258871176"/><circle fill="#ebf7ff" r="0.1896017270010743" cx="57.33961142469213" cy="-55.081134761855076"/><circle fill="#1b5987" r="0.14137611805307163" cx="57.163036229761886" cy="-56.0486741827195"/><circle fill="#4481ff" r="0.12823741654016454" cx="56.52751579289835" cy="-55.54971938232548"/><circle fill="#84c0ea" r="0.43592075051250717" cx="14.99545365002444" cy="-36.31065734442701"/><circle fill="#000000" r="0.17312638777112846" cx="16.379954706473697" cy="-37.24292101842302"/><circle fill="#000000" r="0.17267796109654235" cx="15.56047702381592" cy="-37.87906608693871"/><circle fill="#e7f5ff" r="0.1215577387530351" cx="17.94852634205824" cy="-38.53405748832349"/><circle fill="#ffffff" r="0.10544107921431288" cx="17.43963497542562" cy="-38.083826688098064"/><circle fill="#ffffff" r="0.08529748328837493" cx="17.346738693568664" cy="-38.645569474604386"/><circle fill="#ffffff" r="0.12096954736668122" cx="16.410042769354273" cy="-39.71621378478651"/><circle fill="#c3cdd4" r="0.10499823412992712" cx="16.10641093082619" cy="-39.11179671989807"/><circle fill="#0b293e" r="0.08511597881908954" cx="16.671456736347178" cy="-39.16519644588438"/><circle fill="#ffffff" r="0.11791909050172275" cx="20.404613911492962" cy="-40.446494733589475"/><circle fill="#0c2839" r="0.06926607694699063" cx="19.997681126994813" cy="-40.08481343010881"/><circle fill="#15497c" r="0.06373745979979363" cx="19.882013031684487" cy="-40.46637054765326"/></g></svg>