<?xml version='1.0' encoding='UTF-8'?>
<svg xmlns="http://www.w3.org/2000/svg" xmlns:svg="http://www.w3.org/2000/svg"><g><path fill="#fcb3b6" d="M 100.0,100.0 l -7.173104687692228 -3.514776487247323 a 7.987933688751982 7.987933688751982 0.0 0 1 0.7964263987259494,-1.296154671574734 l 6.3766782889662785 4.810931158822057 z"/><path fill="#550000" d="M 100.0,100.0 l -6.3766782889662785 -4.810931158822057 a 7.987933688751982 7.987933688751982 0.0 0 1 9.100638623723455,-2.6982049240151964 l -2.7239603347571766 7.509136082837253 z"/><path fill="#f86165" d="M 100.0,100.0 l 2.7239603347571766 -7.509136082837253 a 7.987933688751982 7.987933688751982 0.0 0 1 1.1085983079311905,0.5006712818802317 l -3.832558642688367 7.008464800957022 z"/><path fill="#b52603" d="M 100.0,100.0 l 3.832558642688367 -7.008464800957022 a 7.987933688751982 7.987933688751982 0.0 0 1 2.234185877920539,1.812149227633876 l -6.066744520608906 5.196315573323146 z"/><path fill="#ffffff" d="M 100.0,100.0 l 6.066744520608906 -5.196315573323146 a 7.987933688751982 7.987933688751982 0.0 0 1 1.7672631258315423,3.6357359337624366 l -7.8340076464404484 1.5605796395607092 z"/><path fill="#fcb3b6" d="M 100.0,100.0 l 7.8340076464404484 -1.5605796395607092 a 7.987933688751982 7.987933688751982 0.0 0 1 -3.2358833054655882,8.092373968903402 l -4.59812434097486 -6.531794329342692 z"/><path fill="#550000" d="M 100.0,100.0 l 4.598124340974862 6.531794329342691 a 7.987933688751982 7.987933688751982 0.0 0 1 -7.526692816340539,0.8999330136774493 l 2.928568475365677 -7.431727343020141 z"/><path fill="#f86165" d="M 100.0,100.0 l -2.928568475365675 7.431727343020141 a 7.987933688751982 7.987933688751982 0.0 0 1 -5.056869434117534,-7.631392086245574 l 7.985437909483209 0.19966474322543312 z"/><path fill="#b52603" d="M 100.0,100.0 l -7.985437909483209 -0.1996647432254312 a 7.987933688751982 7.987933688751982 0.0 0 1 0.015988016577519915,-0.3434310313524544 l 7.969449892905689 0.5430957745778856 z"/><path fill="#ffffff" d="M 100.0,100.0 l -7.969449892905689 -0.5430957745778836 a 7.987933688751982 7.987933688751982 0.0 0 1 0.3938089904064608,-1.9900346074355464 l 7.575640902499228 2.53313038201343 z"/><path fill="#fcb3b6" d="M 100.0,100.0 l -7.575640902499228 -2.53313038201343 a 7.987933688751982 7.987933688751982 0.0 0 1 0.40253621480699664,-0.9816461052338865 l 7.1731046876922315 3.5147764872473166 z"/><path fill="#5e0005" d="M 98.10347533834923,107.75952826038086 l -1.1587420242516178 4.740930432112151 a 12.868415677336085 12.868415677336085 0.0 0 1 -6.658354106206163,-20.940938130998006 l 3.68399284795529 3.201140599397055 a 7.987933688751982 7.987933688751982 0.0 0 0 4.133103282502491,12.9988670994888 z"/><path fill="#912200" d="M 93.97037205584674,94.76066116089206 l -3.68399284795529 -3.2011405993970516 a 12.868415677336085 12.868415677336085 0.0 0 1 0.55907546450773,-0.6033262808595641 l 3.4719575979909276 3.429958436868718 a 7.987933688751982 7.987933688751982 0.0 0 0 -0.34704021454336775,0.37450844338789757 z"/><path fill="#f58985" d="M 94.31741227039011,94.38615271750416 l -3.4719575979909294 -3.429958436868718 a 12.868415677336085 12.868415677336085 0.0 0 1 16.060265299419274,-1.8147003342110049 l -2.6190669298959417 4.118202624643338 a 7.987933688751982 7.987933688751982 0.0 0 0 -9.969240771532403,1.126456146436385 z"/><path fill="#ff7d3c" d="M 104.2866530419225,93.25969657106778 l 2.6190669298959417 -4.118202624643339 a 12.868415677336085 12.868415677336085 0.0 0 1 2.247048789276038,1.8129023672181805 l -3.471283816458441 3.4306403347607803 a 7.987933688751982 7.987933688751982 0.0 0 0 -1.3948319027135385,-1.125340077335622 z"/><path fill="#ff7921" d="M 105.68148494463604,94.3850366484034 l 3.4712838164584405 -3.4306403347607817 a 12.868415677336085 12.868415677336085 0.0 0 1 3.3267900391631504,5.906060057799002 l -4.733003928168251 1.1907049411326658 a 7.987933688751982 7.987933688751982 0.0 0 0 -2.06506992745334,-3.6661246641708862 z"/><path fill="#5e0005" d="M 107.74655487208938,98.0511613125743 l 4.733003928168251 -1.190704941132666 a 12.868415677336085 12.868415677336085 0.0 0 1 0.3438657777232166,2.0644138049808096 l -4.863418640961865 0.40775429321895706 a 7.987933688751982 7.987933688751982 0.0 0 0 -0.2134510649296022,-1.2814631570671007 z"/><path fill="#912200" d="M 107.96000593701898,99.33262446964139 l 4.863418640961865 -0.4077542932189571 a 12.868415677336085 12.868415677336085 0.0 0 1 -0.2549988249395234,3.837519393315482 l -4.766707654665447 -1.047665297624997 a 7.987933688751982 7.987933688751982 0.0 0 0 0.1582878386431057,-2.3820998024715276 z"/><path fill="#f58985" d="M 107.80171809837587,101.71472427211292 l 4.766707654665447 1.0476652976249952 a 12.868415677336085 12.868415677336085 0.0 0 1 -1.0304139049412795,2.9358912795895558 l -4.375912343886866 -2.1611329435072695 a 7.987933688751982 7.987933688751982 0.0 0 0 0.6396185941626982,-1.8224236337072814 z"/><path fill="#ff7d3c" d="M 107.16209950421317,103.5371479058202 l 4.375912343886866 2.161132943507269 a 12.868415677336085 12.868415677336085 0.0 0 1 -0.399647538678642,0.7463263966819174 l -4.22434181156887 -2.4441850789015307 a 7.987933688751982 7.987933688751982 0.0 0 0 0.24807700636064567,-0.4632742612876557 z"/><path fill="#ff7921" d="M 106.91402249785253,104.00042216710786 l 4.224341811568871 2.4441850789015294 a 12.868415677336085 12.868415677336085 0.0 0 1 -7.296323362893013,5.836876516545875 l -1.4571344374551716 -4.657881886874768 a 7.987933688751982 7.987933688751982 0.0 0 0 4.5291159887793135,-3.6231797085726365 z"/><path fill="#5e0005" d="M 102.38490650907322,107.62360187568049 l 1.457134437455173 4.657881886874766 a 12.868415677336085 12.868415677336085 0.0 0 1 -6.897307632430788,0.2189749299377608 l 1.1587420242516187 -4.74093043211215 a 7.987933688751982 7.987933688751982 0.0 0 0 4.281431170723997,-0.13592638470037688 z"/><path fill="#e9095c" d="M 97.12730637917488,112.543673840051 l -1.177536180066388 5.141735154259096 a 18.143264665876814 18.143264665876814 0.0 0 1 -8.340281590014504,-4.4319837688115 l 3.602332748898604 -3.853210430033867 a 12.868415677336085 12.868415677336085 0.0 0 0 5.915485021182288,3.1434590445862707 z"/><path fill="#ff919f" d="M 91.21182135799259,109.40021479546473 l -3.6023327488986028 3.853210430033868 a 18.143264665876814 18.143264665876814 0.0 0 1 -0.5371975994489318,-0.5234451392317636 l 3.758513913991184 -3.7010275614001884 a 12.868415677336085 12.868415677336085 0.0 0 0 0.3810164343563507,0.37126227059808414 z"/><path fill="#f7b3bc" d="M 90.83080492363625,109.02895252486665 l -3.758513913991183 3.7010275614001884 a 18.143264665876814 18.143264665876814 0.0 0 1 -0.9173264377678576,-1.0042371788823008 l 4.025211144149656 -3.409062495309019 a 12.868415677336085 12.868415677336085 0.0 0 0 0.6506292076093843,0.7122721127911316 z"/><path fill="#ff0b40" d="M 90.18017571602687,108.31668041207553 l -4.025211144149656 3.409062495309021 a 18.143264665876814 18.143264665876814 0.0 0 1 -0.8521605003874537,-1.08758119705902 l 4.272962474261551 -3.092866557978497 a 12.868415677336085 12.868415677336085 0.0 0 0 0.6044091702755594,0.771385259728496 z"/><path fill="#a50035" d="M 89.5757665457513,107.54529515234702 l -4.27296247426155 3.0928665579784984 a 18.143264665876814 18.143264665876814 0.0 0 1 -0.1218946549100588,-21.10585520108261 l 4.308401294617299 3.043305790821739 a 12.868415677336085 12.868415677336085 0.0 0 0 0.08645583455430916,14.96968285228237 z"/><path fill="#e9095c" d="M 89.489310711197,92.57561230006466 l -4.308401294617301 -3.0433057908217367 a 18.143264665876814 18.143264665876814 0.0 0 1 10.419450610033472,-7.134045651743332 l 1.2791213098054266 5.117409552372253 a 12.868415677336085 12.868415677336085 0.0 0 0 -7.390170625221598,5.059941890192816 z"/><path fill="#ff919f" d="M 96.87948133641859,87.51567040987186 l -1.2791213098054304 -5.117409552372253 a 18.143264665876814 18.143264665876814 0.0 0 1 11.047812408982793,0.7203927506205083 l -1.9328442975041016 4.907967478856701 a 12.868415677336085 12.868415677336085 0.0 0 0 -7.83584680167326,-0.5109506771049563 z"/><path fill="#f7b3bc" d="M 104.71532813809185,88.0266210869768 l 1.9328442975041018 -4.907967478856703 a 18.143264665876814 18.143264665876814 0.0 0 1 11.066594006107504,12.961511873440223 l -5.150270338226305 1.1396259452537336 a 12.868415677336085 12.868415677336085 0.0 0 0 -7.849167965385302,-9.193170339837254 z"/><path fill="#ff0b40" d="M 112.56449610347715,97.21979142681407 l 5.150270338226304 -1.1396259452537336 a 18.143264665876814 18.143264665876814 0.0 0 1 -4.354497653583905,16.195064481468982 l -3.884273398501895 -3.5688166130525243 a 12.868415677336085 12.868415677336085 0.0 0 0 3.0885007138594958,-11.486621923162724 z"/><path fill="#a50035" d="M 109.47599538961765,108.70641334997678 l 3.884273398501896 3.5688166130525225 a 18.143264665876814 18.143264665876814 0.0 0 1 -4.694609132077713,3.6647949886984286 l -2.5193947678931385 -4.634294105408269 a 12.868415677336085 12.868415677336085 0.0 0 0 3.3297305014689558,-2.5993174963426817 z"/><path fill="#e9095c" d="M 106.14626488814872,111.30573084631946 l 2.5193947678931403 4.634294105408268 a 18.143264665876814 18.143264665876814 0.0 0 1 -12.71588945693335,1.7453840425823604 l 1.1775361800663902 -5.141735154259095 a 12.868415677336085 12.868415677336085 0.0 0 0 9.018958508973821,-1.237942993731533 z"/><path fill="#f55835" d="M 105.02054345483941,117.43479842596763 l 0.5560201833745525 1.9308865474634052 a 20.1526131432433 20.1526131432433 0.0 0 1 -25.23705290415312,-14.939289337576287 l 1.9602804802532532 -0.441340845869826 a 18.143264665876814 18.143264665876814 0.0 0 0 22.720752240525314,13.449743635982708 z"/><path fill="#ff71af" d="M 82.2997912143141,103.98505478998491 l -1.9602804802532532 0.4413408458698275 a 20.1526131432433 20.1526131432433 0.0 0 1 -0.4901504279031066,-4.708417674304662 l 2.009151711442339 0.028119457735589215 a 18.143264665876814 18.143264665876814 0.0 0 0 0.4412791967140208,4.238957370699245 z"/><path fill="#b30828" d="M 81.85851201760008,99.74609741928568 l -2.009151711442338 -0.02811945773558955 a 20.1526131432433 20.1526131432433 0.0 0 1 6.016844285129815,-14.083340603888141 l 1.4092326430345619 1.4323214238783297 a 18.143264665876814 18.143264665876814 0.0 0 0 -5.4169252167220385,12.679138637745401 z"/><path fill="#ff8c9a" d="M 87.27543723432211,87.06695878154028 l -1.4092326430345614 -1.432321423878329 a 20.1526131432433 20.1526131432433 0.0 0 1 11.699746183329827,-5.639717234274216 l 0.24269076521708755 1.9946384374049764 a 18.143264665876814 18.143264665876814 0.0 0 0 -10.533204305512353,5.077400220747569 z"/><path fill="#ff4b68" d="M 97.80864153983447,81.98955856079272 l -0.24269076521708752 -1.9946384374049757 a 20.1526131432433 20.1526131432433 0.0 0 1 1.9330904121738648,-0.1413058232767177 l 0.04994889850708173 2.0087275601815584 a 18.143264665876814 18.143264665876814 0.0 0 0 -1.740348545463859,0.127216700500135 z"/><path fill="#f55835" d="M 99.54899008529833,81.86234186029259 l -0.04994889850708225 -2.0087275601815566 a 20.1526131432433 20.1526131432433 0.0 0 1 19.636008951167472,13.823595752482127 l -1.9078907328665586 0.6304238692633106 a 18.143264665876814 18.143264665876814 0.0 0 0 -17.67816931979383,-12.445292061563881 z"/><path fill="#ff71af" d="M 117.22715940509215,94.30763392185646 l 1.9078907328665593 -0.6304238692633101 a 20.1526131432433 20.1526131432433 0.0 0 1 0.31773418335807624,1.0580963523764138 l -1.9395709270428583 0.5249246826594431 a 18.143264665876814 18.143264665876814 0.0 0 0 -0.28605398918177727,-0.9525971657725467 z"/><path fill="#b30828" d="M 117.51321339427392,95.26023108762901 l 1.939570927042861 -0.5249246826594425 a 20.1526131432433 20.1526131432433 0.0 0 1 0.606458244540673,3.3270134910620506 l -2.000038814834511 0.19319948926016028 a 18.143264665876814 18.143264665876814 0.0 0 0 -0.545990356749023,-2.9952882976627686 z"/><path fill="#ff8c9a" d="M 118.05920375102295,98.25551938529179 l 2.0000388148345105 -0.19319948926016065 a 20.1526131432433 20.1526131432433 0.0 0 1 -0.28527809528426173,5.825886067871465 l -1.971594706752299 -0.3876797851337406 a 18.143264665876814 18.143264665876814 0.0 0 0 0.2568339872020502,-5.245006793477564 z"/><path fill="#ff4b68" d="M 117.8023697638209,103.50052617876933 l 1.9715947067522974 0.38767978513373963 a 20.1526131432433 20.1526131432433 0.0 0 1 -13.28107572914049,15.189797398414452 l -0.6473838411710897 -1.9022027929969987 a 18.143264665876814 18.143264665876814 0.0 0 0 11.956864863559282,-13.675274390551193 z"/><path fill="#f55835" d="M 105.84550490026163,117.17580056932053 l 0.6473838411710894 1.9022027929969993 a 20.1526131432433 20.1526131432433 0.0 0 1 -0.9163251032187493,0.28768161111350143 l -0.5560201833745522 -1.9308865474634054 a 18.143264665876814 18.143264665876814 0.0 0 0 0.8249614454222121,-0.2589978566470954 z"/><path fill="#9d0400" d="M 93.67544610107392,119.13446718570448 l -3.732687931016654 11.292969570967058 a 32.04648219083018 32.04648219083018 0.0 0 1 -18.34547509000372,-15.586187066278761 l 10.54150635411044 -5.508245156798541 a 20.1526131432433 20.1526131432433 0.0 0 0 11.536656666909932,9.801462652110244 z"/><path fill="#854000" d="M 82.13878943416398,109.33300453359423 l -10.541506354110435 5.5082451567985435 a 32.04648219083018 32.04648219083018 0.0 0 1 24.10690532166588,-46.59850120117807 l 1.5943659681209557 11.786522730680282 a 20.1526131432433 20.1526131432433 0.0 0 0 -15.159764935676401,29.30373331369924 z"/><path fill="#ff929c" d="M 97.29855436984039,80.02927121989501 l -1.5943659681209592 -11.786522730680284 a 32.04648219083018 32.04648219083018 0.0 0 1 11.421870514993183,0.5131111781927284 l -2.6447961144709025 11.596084444070978 a 20.1526131432433 20.1526131432433 0.0 0 0 -7.182708432401321,-0.32267289158342294 z"/><path fill="#ffffff" d="M 104.48126280224172,80.35194411147842 l 2.644796114470899 -11.596084444070978 a 32.04648219083018 32.04648219083018 0.0 0 1 2.9847246829398166,0.8344531291996908 l -3.7525596534013728 11.286381925524648 a 20.1526131432433 20.1526131432433 0.0 0 0 -1.8769611440093428,-0.5247506106533599 z"/><path fill="#000000" d="M 106.35822394625104,80.87669472213179 l 3.752559653401369 -11.28638192552465 a 32.04648219083018 32.04648219083018 0.0 0 1 21.297886195106983,24.047888516624717 l -11.657148615352849 2.3611452900493966 a 20.1526131432433 20.1526131432433 0.0 0 0 -13.393297233155504,-15.122651881149466 z"/><path fill="#9d0400" d="M 119.75152117940655,95.99934660328125 l 11.657148615352847 -2.3611452900494077 a 32.04648219083018 32.04648219083018 0.0 0 1 0.26668814349508274,11.224793678607606 l -11.756128398418777 -1.8048728489943073 a 20.1526131432433 20.1526131432433 0.0 0 0 -0.1677083604291525,-7.058775539563891 z"/><path fill="#854000" d="M 119.9192295398357,103.05812214284512 l 11.75612839841878 1.8048728489943044 a 32.04648219083018 32.04648219083018 0.0 0 1 -29.813412628050983,27.129350662535582 l -0.6910503799279937 -11.873776580917575 a 20.1526131432433 20.1526131432433 0.0 0 0 18.7483346095602,-17.06044693061231 z"/><path fill="#ff929c" d="M 101.17089493027552,120.11856907345742 l 0.6910503799279957 11.873776580917575 a 32.04648219083018 32.04648219083018 0.0 0 1 -2.486487550328688,0.04805022016898519 l 0.23179528955789985 -11.891610146018245 a 20.1526131432433 20.1526131432433 0.0 0 0 1.563641880842792,-0.03021665506831539 z"/><path fill="#ffffff" d="M 99.60725304943271,120.14878572852575 l -0.23179528955789688 11.891610146018245 a 32.04648219083018 32.04648219083018 0.0 0 1 -5.848726861145372,-0.6545103852076721 l 2.4025168984798277 -11.648692350374105 a 20.1526131432433 20.1526131432433 0.0 0 0 3.678005252223441,0.41159258956353284 z"/><path fill="#000000" d="M 95.92924779720927,119.73719313896221 l -2.4025168984798255 11.648692350374105 a 32.04648219083018 32.04648219083018 0.0 0 1 -2.1284782242172064,-0.5153985518800148 l 3.1924894489372875 -11.457405118069683 a 20.1526131432433 20.1526131432433 0.0 0 0 1.3385056737597445,0.3241113195755929 z"/><path fill="#9d0400" d="M 94.59074212344953,119.41308181938662 l -3.192489448937284 11.457405118069685 a 32.04648219083018 32.04648219083018 0.0 0 1 -1.4554945044550527,-0.4430501807847893 l 3.7326879310166765 -11.292969570967053 a 20.1526131432433 20.1526131432433 0.0 0 0 0.9152960223756601,0.27861463368215666 z"/><path fill="#b42805" d="M 115.6733230924011,72.0478272034462 l 4.063734155267917 -7.2473590085295 a 40.355401969189145 40.355401969189145 0.0 0 1 2.428313015277994,1.476322746612908 l -4.563708311295269 6.943393574659243 a 32.04648219083018 32.04648219083018 0.0 0 0 -1.9283388592506423,-1.1723573127426512 z"/><path fill="#68000a" d="M 117.60166195165172,73.22018451618884 l 4.563708311295267 -6.943393574659242 a 40.355401969189145 40.355401969189145 0.0 0 1 -4.261669385617465,69.88971238668759 l -3.6862577763205717 -7.44645227539403 a 32.04648219083018 32.04648219083018 0.0 0 0 3.3842188506427693,-55.49986653663432 z"/><path fill="#ed070d" d="M 114.21744310100895,128.72005105282315 l 3.686257776320575 7.446452275394024 a 40.355401969189145 40.355401969189145 0.0 0 1 -30.44438391209473,2.1908914883809265 l 2.582046621199467 -7.897542853898113 a 32.04648219083018 32.04648219083018 0.0 0 0 24.17607951457469,-1.7398009098768377 z"/><path fill="#f77202" d="M 90.04136358643427,130.4598519627 l -2.582046621199466 7.8975428538981145 a 40.355401969189145 40.355401969189145 0.0 0 1 -14.039309440376073,-7.991913293719714 l 5.472650857348681 -6.252058899016031 a 32.04648219083018 32.04648219083018 0.0 0 0 11.148705204226859,6.3464293388376305 z"/><path fill="#ff3254" d="M 78.89265838220742,124.11342262386236 l -5.472650857348677 6.25205889901603 a 40.355401969189145 40.355401969189145 0.0 0 1 -4.963004711631227,-5.1941129353323765 l 6.494501861089031 -5.18262418659851 a 32.04648219083018 32.04648219083018 0.0 0 0 3.941153707890873,4.124678222914856 z"/><path fill="#b42805" d="M 74.95150467431655,119.98874440094752 l -6.494501861089031 5.18262418659851 a 40.355401969189145 40.355401969189145 0.0 0 1 -0.9850298463882439,-1.2865213947168357 l 6.697313221490742 -4.917737640058689 a 32.04648219083018 32.04648219083018 0.0 0 0 0.7822184859865331,1.0216348481770154 z"/><path fill="#68000a" d="M 74.16928618833002,118.96710955277052 l -6.6973132214907425 4.917737640058694 a 40.355401969189145 40.355401969189145 0.0 0 1 -3.3174784931729446,-5.346826757615035 l 7.380360876108345 -3.816860126021652 a 32.04648219083018 32.04648219083018 0.0 0 0 2.6344308385553425,4.245949243577993 z"/><path fill="#ed070d" d="M 71.53485534977467,114.72116030919253 l -7.380360876108343 3.816860126021654 a 40.355401969189145 40.355401969189145 0.0 0 1 -3.5852090524864035,-9.948653991845806 l 8.118532544637365 -1.768495746352996 a 32.04648219083018 32.04648219083018 0.0 0 0 2.8470373839573817,7.900289612177148 z"/><path fill="#f77202" d="M 68.6878179658173,106.8208706970154 l -8.118532544637368 1.7684957463529982 a 40.355401969189145 40.355401969189145 0.0 0 1 -0.9187260278833165,-7.895744917640963 l 8.307692371859531 -0.1428122465045032 a 32.04648219083018 32.04648219083018 0.0 0 0 0.7295662006611536,6.270061417792468 z"/><path fill="#ff3254" d="M 67.95825176515615,100.55080927922293 l -8.307692371859535 0.1428122465045053 a 40.355401969189145 40.355401969189145 0.0 0 1 46.53957762658591,-40.57144332895429 l -1.274509716308188 8.210589069381122 a 32.04648219083018 32.04648219083018 0.0 0 0 -36.957375538418184,32.21804201306866 z"/><path fill="#b42805" d="M 104.91562730357434,68.33276726615426 l 1.274509716308191 -8.210589069381122 a 40.355401969189145 40.355401969189145 0.0 0 1 13.546920227786343,4.67828999814348 l -4.0637341552679 7.247359008529511 a 32.04648219083018 32.04648219083018 0.0 0 0 -10.757695788826634,-3.715059937291869 z"/><path fill="#1f0302" d="M 104.23749873457514,59.86769290746781 l 0.6997405697786374 -6.627070635402877 a 47.019312388125854 47.019312388125854 0.0 0 1 33.38992575406566,19.522561540340046 l -5.431997653492026 3.8601947572720157 a 40.355401969189145 40.355401969189145 0.0 0 0 -28.657668670352272,-16.755685662209185 z"/><path fill="#ee4563" d="M 132.8951674049274,76.623378569677 l 5.431997653492027 -3.860194757272013 a 47.019312388125854 47.019312388125854 0.0 0 1 8.0844269895288,19.701574915612163 l -6.5777799822922915 1.067947834010635 a 40.355401969189145 40.355401969189145 0.0 0 0 -6.938644660728535,-16.909327992350786 z"/><path fill="#fdeff1" d="M 139.83381206565593,93.53270656202783 l 6.577779982292294 -1.067947834010635 a 47.019312388125854 47.019312388125854 0.0 0 1 -2.032392945345758,23.069153350520356 l -6.289734840073599 -2.201576188365415 a 40.355401969189145 40.355401969189145 0.0 0 0 1.744347803127063,-19.799629328144306 z"/><path fill="#feac7b" d="M 138.08946426252888,113.33233589017209 l 6.289734840073597 2.2015761883654137 a 47.019312388125854 47.019312388125854 0.0 0 1 -21.57583703448029,25.585699007199832 l -3.231854196807035 -5.827762908886562 a 40.355401969189145 40.355401969189145 0.0 0 0 18.51795639121373,-21.959512286678684 z"/><path fill="#780702" d="M 119.57150787131515,135.29184817685075 l 3.2318541968070367 5.827762908886562 a 47.019312388125854 47.019312388125854 0.0 0 1 -42.94214611185418,1.3685650894304189 l 2.854211301644497 -6.021725659408446 a 40.355401969189145 40.355401969189145 0.0 0 0 36.856080613402646,-1.1746023389085352 z"/><path fill="#1f0302" d="M 82.71542725791252,136.4664505157593 l -2.854211301644496 6.021725659408443 a 47.019312388125854 47.019312388125854 0.0 0 1 -14.217766283621641,-10.387659246990655 l 4.869253973671327 -4.549512920247533 a 40.355401969189145 40.355401969189145 0.0 0 0 12.20272361159481,8.915446507829746 z"/><path fill="#ee4563" d="M 70.51270364631772,127.55100400792955 l -4.869253973671324 4.549512920247535 a 47.019312388125854 47.019312388125854 0.0 0 1 -2.8184986005187795,-3.311083542602118 l 5.268711584508246 -4.080242677939857 a 40.355401969189145 40.355401969189145 0.0 0 0 2.419040989681857,2.84181330029444 z"/><path fill="#fdeff1" d="M 68.09366265663586,124.70919070763512 l -5.268711584508245 4.08024267793986 a 47.019312388125854 47.019312388125854 0.0 0 1 -6.389372086061276,-46.480022951016274 l 6.174258710831587 2.507235817256408 a 40.355401969189145 40.355401969189145 0.0 0 0 5.483824959737934,39.89254445582001 z"/><path fill="#feac7b" d="M 62.60983769689793,84.81664625181511 l -6.174258710831593 -2.50723581725641 a 47.019312388125854 47.019312388125854 0.0 0 1 10.599985138992244,-15.83793120269044 l 4.671953640412411 4.751899752041327 a 40.355401969189145 40.355401969189145 0.0 0 0 -9.097680068573062,13.593267267905523 z"/><path fill="#780702" d="M 71.707517765471,71.2233789839096 l -4.671953640412416 -4.751899752041324 a 47.019312388125854 47.019312388125854 0.0 0 1 3.231312527961909,-2.896156491735206 l 4.213989112046324 5.162363589981652 a 40.355401969189145 40.355401969189145 0.0 0 0 -2.773347999595817,2.485692653794878 z"/><path fill="#1f0302" d="M 74.48086576506681,68.73768633011471 l -4.213989112046322 -5.162363589981654 a 47.019312388125854 47.019312388125854 0.0 0 1 34.67036265133341,-10.334700468068126 l -0.6997405697786583 6.627070635402873 a 40.355401969189145 40.355401969189145 0.0 0 0 -29.756632969508434,8.869993422646907 z"/><path fill="#ffffff" d="M 145.6000695216966,88.53486166378258 l 20.950529022141765 -5.267551474707851 a 68.6218993824259 68.6218993824259 0.0 0 1 1.056197847339675,4.973176361229356 l -21.283026462254753 3.701965620216516 a 47.019312388125854 47.019312388125854 0.0 0 0 -0.723700407226687,-3.407590506738021 z"/><path fill="#ffffff" d="M 146.3237699289233,91.9424521705206 l 21.283026462254757 -3.7019656202165154 a 68.6218993824259 68.6218993824259 0.0 0 1 0.9830711842668585,13.85597256799868 l -21.592503188647335 -0.6599779500525944 a 47.019312388125854 47.019312388125854 0.0 0 0 -0.6735944578742803,-9.49402899772957 z"/><path fill="#ff0a50" d="M 146.99736438679759,101.43648116825015 l 21.592503188647342 0.6599779500525891 a 68.6218993824259 68.6218993824259 0.0 0 1 -3.021432452583113,18.145709500470463 l -20.641338065097237 -6.372356528684586 a 47.019312388125854 47.019312388125854 0.0 0 0 2.0702673290330083,-12.433330921838467 z"/><path fill="#ffa3b1" d="M 144.92709705776457,113.86981209008862 l 20.64133806509724 6.3723565286845805 a 68.6218993824259 68.6218993824259 0.0 0 1 -4.1560802250767175,10.376252972815681 l -19.332978992767288 -9.638863424259101 a 47.019312388125854 47.019312388125854 0.0 0 0 2.8477211527467645,-7.1097460772411605 z"/><path fill="#ff6967" d="M 142.07937590501783,120.97955816732971 l 19.33297899276729 9.638863424259098 a 68.6218993824259 68.6218993824259 0.0 0 1 -47.66120516369752,36.611563949406815 l -4.328944711174081 -21.164404138408884 a 47.019312388125854 47.019312388125854 0.0 0 0 32.65717088210431,-25.08602323525703 z"/><path fill="#ffffff" d="M 109.42220502291352,146.0655814025868 l 4.328944711174089 21.164404138408884 a 68.6218993824259 68.6218993824259 0.0 0 1 -8.72009423025056,1.2072379223294334 l -1.5838065569870468 -21.544449903312604 a 47.019312388125854 47.019312388125854 0.0 0 0 5.974956076063517,-0.8271921574257135 z"/><path fill="#ffffff" d="M 103.44724894685001,146.8927735600125 l 1.5838065569870527 21.544449903312596 a 68.6218993824259 68.6218993824259 0.0 0 1 -13.8890089235943,-0.3894333738211273 l 2.7885370568855095 -21.421853933044105 a 47.019312388125854 47.019312388125854 0.0 0 0 9.516665309721738,0.2668374035526355 z"/><path fill="#ff0a50" d="M 93.93058363712828,146.62593615645986 l -2.788537056885506 21.421853933044115 a 68.6218993824259 68.6218993824259 0.0 0 1 -57.150023864470654,-49.28847214623539 l 20.779708583314132 -5.905546210033613 a 47.019312388125854 47.019312388125854 0.0 0 0 39.15885233804203,33.772164423224886 z"/><path fill="#ffa3b1" d="M 54.77173129908626,112.85377173323498 l -20.779708583314125 5.905546210033619 a 68.6218993824259 68.6218993824259 0.0 0 1 115.11924775050386,-66.68684852893587 l -15.46052356749587 15.087875127572019 a 47.019312388125854 47.019312388125854 0.0 0 0 -78.87901559969387,45.69342719133023 z"/><path fill="#ff6967" d="M 133.65074689878014,67.16034454190475 l 15.460523567495862 -15.087875127572016 a 68.6218993824259 68.6218993824259 0.0 0 1 1.2150942941698162,1.2775350352886825 l -15.843042565546263 14.68569940835609 a 47.019312388125854 47.019312388125854 0.0 0 0 -0.8325752961194155,-0.8753593160727569 z"/><path fill="#ffffff" d="M 134.48332219489953,68.03570385797748 l 15.843042565546265 -14.685699408356092 a 68.6218993824259 68.6218993824259 0.0 0 1 16.224233783392542,29.917305739453248 l -20.950529022141765 5.267551474707869 a 47.019312388125854 47.019312388125854 0.0 0 0 -11.11674732679704,-20.499157805805023 z"/><path fill="#e90000" d="M 124.08737635847693,35.7445459512045 l 3.5548042233845436 -9.482791152875599 a 78.749088583564 78.749088583564 0.0 0 1 20.72174960818541,11.59044387842006 l -6.2196360663336705 7.992251767681601 a 68.6218993824259 68.6218993824259 0.0 0 0 -18.056917765236282,-10.099904493226063 z"/><path fill="#e10030" d="M 142.1442941237132,45.84445044443057 l 6.219636066333679 -7.992251767681598 a 78.749088583564 78.749088583564 0.0 0 1 17.97799599210859,19.719417154354804 l -8.531619228858638 5.456320596282623 a 68.6218993824259 68.6218993824259 0.0 0 0 -15.666012829583629,-17.18348598295583 z"/><path fill="#6c0a00" d="M 157.81030695329687,63.027936427386436 l 8.531619228858636 -5.456320596282617 a 78.749088583564 78.749088583564 0.0 0 1 9.325101688642507,20.612796944576772 l -9.730833985744667 2.8055001439181773 a 68.6218993824259 68.6218993824259 0.0 0 0 -8.125886931756476,-17.961976492212333 z"/><path fill="#7a2a06" d="M 165.93619388505334,80.98991291959871 l 9.730833985744665 -2.805500143918177 a 78.749088583564 78.749088583564 0.0 0 1 2.9837477921685025,25.749343743948657 l -10.11454608912608 -0.5058839062400331 a 68.6218993824259 68.6218993824259 0.0 0 0 -2.600035688787088,-22.437959693790447 z"/><path fill="#ff939d" d="M 168.53622957384044,103.4278726133892 l 10.114546089126078 0.5058839062400323 a 78.749088583564 78.749088583564 0.0 0 1 -30.802306783506623,58.61177072759582 l -6.153347372558613 -8.043399606402403 a 68.6218993824259 68.6218993824259 0.0 0 0 26.841108066939157,-51.074255027433445 z"/><path fill="#e90000" d="M 141.69512150690133,154.50212764082258 l 6.153347372558614 8.043399606402401 a 78.749088583564 78.749088583564 0.0 0 1 -12.925072087498634,8.036165203815274 l -4.491173843660562 -9.076856208052838 a 68.6218993824259 68.6218993824259 0.0 0 0 11.262898558600583,-7.002708602164837 z"/><path fill="#e10030" d="M 130.4322229483007,161.50483624298747 l 4.491173843660566 9.076856208052845 a 78.749088583564 78.749088583564 0.0 0 1 -74.7859164999758,-2.667051354512637 l 5.12634858864152 -8.733871493408948 a 68.6218993824259 68.6218993824259 0.0 0 0 65.16839406767372,2.3240666398687395 z"/><path fill="#6c0a00" d="M 65.263828880627,159.18076960311873 l -5.126348588641523 8.733871493408945 a 78.749088583564 78.749088583564 0.0 0 1 -35.316793602019146,-91.35583993476554 l 9.668113543872252 3.014554961920936 a 68.6218993824259 68.6218993824259 0.0 0 0 30.77502864678842,79.60741347943566 z"/><path fill="#7a2a06" d="M 34.48880023383859,79.57335612368306 l -9.668113543872261 -3.0145549619209278 a 78.749088583564 78.749088583564 0.0 0 1 1.8528140339252364,-5.275407100711101 l 9.429840331907727 3.6929760939348846 a 68.6218993824259 68.6218993824259 0.0 0 0 -1.614540821960702,4.596985968697144 z"/><path fill="#ff939d" d="M 36.10334105579929,74.97637015498593 l -9.429840331907736 -3.692976093934881 a 78.749088583564 78.749088583564 0.0 0 1 5.724360833180286,-11.673613553957804 l 8.693683428305157 5.1942111589788595 a 68.6218993824259 68.6218993824259 0.0 0 0 -4.988203929577708,10.172378488913825 z"/><path fill="#e90000" d="M 41.09154498537699,64.80399166607211 l -8.693683428305164 -5.194211158978861 a 78.749088583564 78.749088583564 0.0 0 1 95.24431902478966,-33.34802570876436 l -3.5548042233845507 9.482791152875592 a 68.6218993824259 68.6218993824259 0.0 0 0 -82.99583137309995,29.05944571486763 z"/><path fill="#ff494d" d="M 173.78698363731277,72.48818438472397 l 12.675255160797452 -4.726027080528256 a 92.27674268016216 92.27674268016216 0.0 0 1 4.137278967445081,14.72428736544118 l -13.28177503944896 2.567465123167141 a 78.749088583564 78.749088583564 0.0 0 0 -3.530759088793573,-12.565725408080064 z"/><path fill="#ff7171" d="M 177.31774272610636,85.05390979280403 l 13.281775039448952 -2.5674651231671404 a 92.27674268016216 92.27674268016216 0.0 0 1 -5.060812913886245,52.12752955985473 l -12.539866249019056 -5.074364966566918 a 78.749088583564 78.749088583564 0.0 0 0 4.318904123456349,-44.48569947012067 z"/><path fill="#fff0ed" d="M 172.99883860265004,129.5396092629246 l 12.539866249019052 5.0743649665669155 a 92.27674268016216 92.27674268016216 0.0 0 1 -108.25780243454578,54.82225916995667 l 3.330591052105774 -13.111239018523065 a 78.749088583564 78.749088583564 0.0 0 0 92.38734513342095,-46.78538511800053 z"/><path fill="#b1200c" d="M 80.61149346922906,176.3249943809252 l -3.3305910521057775 13.111239018523069 a 92.27674268016216 92.27674268016216 0.0 0 1 -44.900290822881914,-26.645982951691526 l 9.91291705806249 -9.204971523974557 a 78.749088583564 78.749088583564 0.0 0 0 38.3179648169252,22.739715457143014 z"/><path fill="#b30615" d="M 42.29352865230388,153.5852789237822 l -9.912917058062487 9.204971523974566 a 92.27674268016216 92.27674268016216 0.0 0 1 -7.1425062604670835,-8.700913739150005 l 10.95999946764951 -7.929428543491099 a 78.749088583564 78.749088583564 0.0 0 0 6.09542385088006,7.4253707586665385 z"/><path fill="#ff494d" d="M 36.198104801423824,146.15990816511567 l -10.959999467649503 7.929428543491103 a 92.27674268016216 92.27674268016216 0.0 0 1 -9.512593080354264,-16.501999017405407 l 12.354533615855729 -5.51025630001903 a 78.749088583564 78.749088583564 0.0 0 0 8.118058932148038,14.082826773933334 z"/><path fill="#ff7171" d="M 28.080045869275793,132.07708139118236 l -12.354533615855734 5.5102563000190345 a 92.27674268016216 92.27674268016216 0.0 0 1 7.317465613598008,-88.50505547278102 l 11.281802385760145 7.464473208865144 a 78.749088583564 78.749088583564 0.0 0 0 -6.2447343835024185,75.53032596389684 z"/><path fill="#fff0ed" d="M 34.324780252778226,56.54675542728552 l -11.281802385760141 -7.464473208865156 a 92.27674268016216 92.27674268016216 0.0 0 1 100.18799617639208,-38.38692422909787 l -3.40563149563647 13.091947886893593 a 78.749088583564 78.749088583564 0.0 0 0 -85.50056229499546,32.75944955106944 z"/><path fill="#b1200c" d="M 119.82534254777367,23.787305876216095 l 3.4056314956364835 -13.091947886893594 a 92.27674268016216 92.27674268016216 0.0 0 1 2.776847028347526,0.7688273210260821 l -3.8127137678061054 12.979238771283562 a 78.749088583564 78.749088583564 0.0 0 0 -2.3697647561779043,-0.6561182054160497 z"/><path fill="#b30615" d="M 122.19510730395172,24.443424081632173 l 3.812713767806104 -12.979238771283569 a 92.27674268016216 92.27674268016216 0.0 0 1 0.6270953943353716,0.18662983486567697 l -3.904645161716939 12.951879072871591 a 78.749088583564 78.749088583564 0.0 0 0 -0.5351640004245368,-0.15927013645369925 z"/><path fill="#ff494d" d="M 122.73027130437617,24.60269421808586 l 3.904645161716939 -12.951879072871602 a 92.27674268016216 92.27674268016216 0.0 0 1 59.82732233201719,56.111342158981685 l -12.675255160797462 4.726027080528219 a 78.749088583564 78.749088583564 0.0 0 0 -51.05671233293667,-47.8854901666383 z"/><path fill="#e40014" d="M 50.44469837463999,177.84130857379296 l -4.1476143923003095 6.515059361296081 a 99.99999999999997 99.99999999999997 0.0 0 1 -6.6376499430998335,-4.61292870943771 l 4.660257177395977 -6.158791007085526 a 92.27674268016216 92.27674268016216 0.0 0 0 6.125007158004166,4.2566603552271545 z"/><path fill="#f8916c" d="M 44.31969121663582,173.5846482185658 l -4.660257177395978 6.158791007085533 a 99.99999999999997 99.99999999999997 0.0 0 1 -5.22558061354978,-4.2379399332415275 l 5.063842214635983 -5.831484000981121 a 92.27674268016216 92.27674268016216 0.0 0 0 4.821995576309774,3.910632927137115 z"/><path fill="#fcc3bb" d="M 39.497695640326015,169.67401529142865 l -5.063842214635987 5.831484000981128 a 99.99999999999997 99.99999999999997 0.0 0 1 -16.160889562800943,-17.88005730500842 l 6.311989300745921 -4.450561166380865 a 92.27674268016216 92.27674268016216 0.0 0 0 14.912742476691008,16.49913447040816 z"/><path fill="#49040b" d="M 24.584953163634992,153.1748808210205 l -6.311989300745917 4.4505611663808695 a 99.99999999999997 99.99999999999997 0.0 0 1 -6.628361771289936,-10.79250848491672 l 6.8239147364324 -3.617027964825425 a 92.27674268016216 92.27674268016216 0.0 0 0 6.116436335603453,9.958975283361276 z"/><path fill="#fcd2de" d="M 18.468516828031568,143.21590553765927 l -6.823914736432397 3.617027964825421 a 99.99999999999997 99.99999999999997 0.0 0 1 -0.6896366139907171,-1.3248921591562168 l 6.877177146702721 -3.514703134163433 a 92.27674268016216 92.27674268016216 0.0 0 0 0.6363742037203934,1.2225673284942289 z"/><path fill="#e40014" d="M 17.83214262431116,141.993338209165 l -6.877177146702717 3.514703134163431 a 99.99999999999997 99.99999999999997 0.0 1 1 188.48087261180967,-34.9007748031201 l -7.679685643783074 -0.8192264895013466 a 92.27674268016216 92.27674268016216 0.0 1 0 -173.9240098213239,32.205298158458014 z"/><path fill="#f8916c" d="M 191.75615244563505,109.78804005070697 l 7.679685643783062 0.8192264895013444 a 99.99999999999997 99.99999999999997 0.0 0 1 -56.431437047380356,79.67352594089245 l -3.3213405513315877 -6.972617913704198 a 92.27674268016216 92.27674268016216 0.0 0 0 52.073091954928884,-73.5201345166896 z"/><path fill="#fcc3bb" d="M 139.68306049070617,183.30817456739655 l 3.321340551331587 6.9726179137042035 a 99.99999999999997 99.99999999999997 0.0 0 1 -0.1449786123400605,0.06891647799175793 l -3.3101434800418303 -6.977940510635264 a 92.27674268016216 92.27674268016216 0.0 0 0 0.13378154105030404,-0.0635938810606973 z"/><path fill="#49040b" d="M 139.5492789496558,183.37176844845726 l 3.310143480041834 6.9779405106352765 a 99.99999999999997 99.99999999999997 0.0 0 1 -22.135250929572415,7.479267911941905 l -1.6005810923591675 -7.555583617114607 a 92.27674268016216 92.27674268016216 0.0 0 0 20.42568854188975,-6.901624805462575 z"/><path fill="#fcd2de" d="M 119.12359040776606,190.27339325391983 l 1.6005810923591643 7.555583617114611 a 99.99999999999997 99.99999999999997 0.0 0 1 -32.43014583651404,1.4835105856585313 l 0.9040825197934872 -7.670158957012049 a 92.27674268016216 92.27674268016216 0.0 0 0 29.92548222436139,-1.3689352457610937 z"/><path fill="#e40014" d="M 89.19810818340467,191.64232849968093 l -0.9040825197934849 7.670158957012053 a 99.99999999999997 99.99999999999997 0.0 0 1 -41.99694168127145,-14.956119521603913 l 4.147614392300298 -6.515059361296082 a 92.27674268016216 92.27674268016216 0.0 0 0 38.75340980876464,13.801019925887942 z"/></g></svg>