<?xml version='1.0' encoding='UTF-8'?>
<svg xmlns="http://www.w3.org/2000/svg" xmlns:svg="http://www.w3.org/2000/svg"><g><path fill="#000000" d="M 100.0,100.0 l 16.402850837834382 73.18433223301115 a 75.0 75.0 0.0 0 1 -56.553421378181625,-9.83662757621557 l 40.15057054034724 -63.34770465679558 z"/><path fill="#001813" d="M 100.0,100.0 l -40.150570540347225 63.347704656795585 a 75.0 75.0 0.0 0 1 -33.03376169266394,-46.944853818961214 l 73.18433223301116 -16.40285083783437 z"/><path fill="#006a58" d="M 100.0,100.0 l -73.18433223301115 16.402850837834386 a 75.0 75.0 0.0 0 1 9.83662757621557,-56.55342137818162 l 63.34770465679558 40.15057054034723 z"/><path fill="#00453f" d="M 100.0,100.0 l -63.34770465679559 -40.150570540347225 a 75.0 75.0 0.0 0 1 46.94485381896109,-33.03376169266391 l 16.402850837834503 73.18433223301113 z"/><path fill="#006d66" d="M 100.0,100.0 l -16.40285083783452 -73.18433223301113 a 75.0 75.0 0.0 0 1 56.55342137818175,9.836627576215548 l -40.15057054034723 63.347704656795585 z"/><path fill="#002f2a" d="M 100.0,100.0 l 40.15057054034723 -63.347704656795585 a 75.0 75.0 0.0 0 1 33.033761692663916,46.94485381896114 l -73.18433223301115 16.402850837834443 z"/><path fill="#011e1b" d="M 100.0,100.0 l 73.18433223301115 -16.402850837834443 a 75.0 75.0 0.0 0 1 -9.83662757621557,56.55342137818168 l -63.34770465679558 -40.15057054034724 z"/><path fill="#001c19" d="M 100.0,100.0 l 63.347704656795585 40.150570540347225 a 75.0 75.0 0.0 0 1 -46.94485381896109,33.03376169266391 l -16.402850837834496 -73.18433223301113 z"/><path fill="#00524d" d="M 46.15099128469573,47.79574480581986 l -17.949669571768094 -17.40141839806005 a 100.0 100.0 0.0 0 1 96.1796207219438,-27.376642558630767 l -6.095235608717857 24.245579037717732 a 75.0 75.0 0.0 0 0 -72.13471554145785,20.532481918973083 z"/><path fill="#00403a" d="M 118.28570682615359,27.26326288684679 l 6.095235608717857 -24.24557903771774 a 100.0 100.0 0.0 0 1 71.79867828707239,69.60567359224014 l -24.044905180485955 6.844160639657709 a 75.0 75.0 0.0 0 0 -53.849008715304294,-52.20425519418011 z"/><path fill="#006875" d="M 172.13471554145787,79.46751808102682 l 24.044905180485955 -6.844160639657707 a 100.0 100.0 0.0 0 1 -24.380942434871457,96.98231615087101 l -17.94966957176809 -17.40141839806006 a 75.0 75.0 0.0 0 0 18.285706826153593,-72.73673711315325 z"/><path fill="#003029" d="M 153.84900871530422,152.20425519418018 l 17.949669571768094 17.401418398060045 a 100.0 100.0 0.0 0 1 -96.17962072194383,27.376642558630778 l 6.095235608717871 -24.245579037717746 a 75.0 75.0 0.0 0 0 72.13471554145787,-20.532481918973076 z"/><path fill="#003231" d="M 81.71429317384643,172.73673711315323 l -6.0952356087178545 24.24557903771774 a 100.0 100.0 0.0 0 1 -71.79867828707238,-69.60567359224007 l 24.04490518048594 -6.844160639657723 a 75.0 75.0 0.0 0 0 53.849008715304294,52.20425519418005 z"/><path fill="#000000" d="M 27.865284458542135,120.53248191897312 l -24.044905180485955 6.844160639657703 a 100.0 100.0 0.0 0 1 24.380942434871443,-96.98231615087101 l 17.949669571768098 17.40141839806006 a 75.0 75.0 0.0 0 0 -18.285706826153586,72.73673711315325 z"/><path fill="#00524d" d="M 135.3523665305636,-40.6243584187629 l 6.095235608717857 -24.24557903771774 a 47.5 47.5 0.0 1 1 -23.161895313127864,92.13320034332742 l 6.095235608717861 -24.24557903771774 a 22.5 22.5 0.0 1 0 10.971424095692146,-43.64204226789193 z"/><path fill="#00403a" d="M 239.46045004681855,60.30386828998526 l 24.044905180485948 -6.844160639657729 a 47.5 47.5 0.0 1 1 -91.37063968584661,26.007810430699365 l 24.044905180485948 -6.844160639657726 a 22.5 22.5 0.0 1 0 43.28082932487471,-12.319489151383909 z"/><path fill="#006875" d="M 204.10808351625494,200.9282267087482 l 17.94966957176809 17.40141839806005 a 47.5 47.5 0.0 1 1 -68.20874437271874,-66.12538991262818 l 17.949669571768098 17.40141839806005 a 22.5 22.5 0.0 1 0 32.30940522918256,31.322553116508086 z"/><path fill="#003029" d="M 64.64763346943636,240.62435841876294 l -6.095235608717861 24.24557903771774 a 47.5 47.5 0.0 1 1 23.161895313127864,-92.13320034332742 l -6.095235608717857 24.24557903771774 a 22.5 22.5 0.0 1 0 -10.971424095692146,43.64204226789193 z"/><path fill="#003231" d="M -39.46045004681852,139.6961317100148 l -24.044905180485948 6.844160639657725 a 47.5 47.5 0.0 1 1 91.37063968584661,-26.007810430699358 l -24.044905180485948 6.844160639657726 a 22.5 22.5 0.0 1 0 -43.28082932487471,12.319489151383909 z"/><path fill="#000000" d="M -4.108083516254936,-0.9282267087482694 l -17.949669571768094 -17.40141839806005 a 47.5 47.5 0.0 1 1 68.20874437271875,66.12538991262818 l -17.949669571768098 -17.40141839806005 a 22.5 22.5 0.0 1 0 -32.30940522918256,-31.322553116508086 z"/><path fill="#022725" d="M 141.44760213928146,-64.86993745648064 l -8.633532874143187 -16.64405629980531 a 18.75 18.75 0.0 0 1 14.297828309282565,-1.2298984171413316 l -5.664295435139379 17.873954716946642 z"/><path fill="#000806" d="M 141.44760213928146,-64.86993745648064 l 5.664295435139379 -17.873954716946642 a 18.75 18.75 0.0 0 1 10.97976086466593,9.240421842803451 l -16.64405629980531 8.63353287414319 z"/><path fill="#000000" d="M 141.44760213928146,-64.86993745648064 l 16.64405629980531 -8.63353287414319 a 18.75 18.75 0.0 0 1 1.2298984171413316,14.297828309282574 l -17.873954716946642 -5.664295435139383 z"/><path fill="#006664" d="M 141.44760213928146,-64.86993745648064 l 17.873954716946646 5.664295435139378 a 18.75 18.75 0.0 0 1 -9.24042184280346,10.979760864665932 l -8.633532874143185 -16.64405629980531 z"/><path fill="#05322a" d="M 141.44760213928146,-64.86993745648064 l 8.63353287414319 16.64405629980531 a 18.75 18.75 0.0 0 1 -14.297828309282572,1.2298984171413316 l 5.664295435139381 -17.873954716946642 z"/><path fill="#000000" d="M 141.44760213928146,-64.86993745648064 l -5.664295435139377 17.873954716946646 a 18.75 18.75 0.0 0 1 -10.979760864665927,-9.240421842803443 l 16.644056299805303 -8.633532874143203 z"/><path fill="#007660" d="M 141.44760213928146,-64.86993745648064 l -16.644056299805303 8.633532874143206 a 18.75 18.75 0.0 0 1 -1.2298984171413387,-14.297828309282586 l 17.873954716946642 5.66429543513938 z"/><path fill="#012c2c" d="M 141.44760213928146,-64.86993745648064 l -17.87395471694664 -5.664295435139397 a 18.75 18.75 0.0 0 1 9.240421842803466,-10.97976086466592 l 8.633532874143173 16.644056299805317 z"/><path fill="#000000" d="M 100.0,100.0 l 16.402850837834382 73.18433223301115 a 75.0 75.0 0.0 0 1 -56.553421378181625,-9.83662757621557 l 40.15057054034724 -63.34770465679558 z"/><path fill="#001813" d="M 100.0,100.0 l -40.150570540347225 63.347704656795585 a 75.0 75.0 0.0 0 1 -33.03376169266394,-46.944853818961214 l 73.18433223301116 -16.40285083783437 z"/><path fill="#006a58" d="M 100.0,100.0 l -73.18433223301115 16.402850837834386 a 75.0 75.0 0.0 0 1 9.83662757621557,-56.55342137818162 l 63.34770465679558 40.15057054034723 z"/><path fill="#00453f" d="M 100.0,100.0 l -63.34770465679559 -40.150570540347225 a 75.0 75.0 0.0 0 1 46.94485381896109,-33.03376169266391 l 16.402850837834503 73.18433223301113 z"/><path fill="#006d66" d="M 100.0,100.0 l -16.40285083783452 -73.18433223301113 a 75.0 75.0 0.0 0 1 56.55342137818175,9.836627576215548 l -40.15057054034723 63.347704656795585 z"/><path fill="#002f2a" d="M 100.0,100.0 l 40.15057054034723 -63.347704656795585 a 75.0 75.0 0.0 0 1 33.033761692663916,46.94485381896114 l -73.18433223301115 16.402850837834443 z"/><path fill="#011e1b" d="M 100.0,100.0 l 73.18433223301115 -16.402850837834443 a 75.0 75.0 0.0 0 1 -9.83662757621557,56.55342137818168 l -63.34770465679558 -40.15057054034724 z"/><path fill="#001c19" d="M 100.0,100.0 l 63.347704656795585 40.150570540347225 a 75.0 75.0 0.0 0 1 -46.94485381896109,33.03376169266391 l -16.402850837834496 -73.18433223301113 z"/><path fill="#00524d" d="M 46.15099128469573,47.79574480581986 l -17.949669571768094 -17.40141839806005 a 100.0 100.0 0.0 0 1 96.1796207219438,-27.376642558630767 l -6.095235608717857 24.245579037717732 a 75.0 75.0 0.0 0 0 -72.13471554145785,20.532481918973083 z"/><path fill="#00403a" d="M 118.28570682615359,27.26326288684679 l 6.095235608717857 -24.24557903771774 a 100.0 100.0 0.0 0 1 71.79867828707239,69.60567359224014 l -24.044905180485955 6.844160639657709 a 75.0 75.0 0.0 0 0 -53.849008715304294,-52.20425519418011 z"/><path fill="#006875" d="M 172.13471554145787,79.46751808102682 l 24.044905180485955 -6.844160639657707 a 100.0 100.0 0.0 0 1 -24.380942434871457,96.98231615087101 l -17.94966957176809 -17.40141839806006 a 75.0 75.0 0.0 0 0 18.285706826153593,-72.73673711315325 z"/><path fill="#003029" d="M 153.84900871530422,152.20425519418018 l 17.949669571768094 17.401418398060045 a 100.0 100.0 0.0 0 1 -96.17962072194383,27.376642558630778 l 6.095235608717871 -24.245579037717746 a 75.0 75.0 0.0 0 0 72.13471554145787,-20.532481918973076 z"/><path fill="#003231" d="M 81.71429317384643,172.73673711315323 l -6.0952356087178545 24.24557903771774 a 100.0 100.0 0.0 0 1 -71.79867828707238,-69.60567359224007 l 24.04490518048594 -6.844160639657723 a 75.0 75.0 0.0 0 0 53.849008715304294,52.20425519418005 z"/><path fill="#000000" d="M 27.865284458542135,120.53248191897312 l -24.044905180485955 6.844160639657703 a 100.0 100.0 0.0 0 1 24.380942434871443,-96.98231615087101 l 17.949669571768098 17.40141839806006 a 75.0 75.0 0.0 0 0 -18.285706826153586,72.73673711315325 z"/><path fill="#00524d" d="M 135.3523665305636,-40.6243584187629 l 6.095235608717857 -24.24557903771774 a 47.5 47.5 0.0 1 1 -23.161895313127864,92.13320034332742 l 6.095235608717861 -24.24557903771774 a 22.5 22.5 0.0 1 0 10.971424095692146,-43.64204226789193 z"/><path fill="#00403a" d="M 239.46045004681855,60.30386828998526 l 24.044905180485948 -6.844160639657729 a 47.5 47.5 0.0 1 1 -91.37063968584661,26.007810430699365 l 24.044905180485948 -6.844160639657726 a 22.5 22.5 0.0 1 0 43.28082932487471,-12.319489151383909 z"/><path fill="#006875" d="M 204.10808351625494,200.9282267087482 l 17.94966957176809 17.40141839806005 a 47.5 47.5 0.0 1 1 -68.20874437271874,-66.12538991262818 l 17.949669571768098 17.40141839806005 a 22.5 22.5 0.0 1 0 32.30940522918256,31.322553116508086 z"/><path fill="#003029" d="M 64.64763346943636,240.62435841876294 l -6.095235608717861 24.24557903771774 a 47.5 47.5 0.0 1 1 23.161895313127864,-92.13320034332742 l -6.095235608717857 24.24557903771774 a 22.5 22.5 0.0 1 0 -10.971424095692146,43.64204226789193 z"/><path fill="#003231" d="M -39.46045004681852,139.6961317100148 l -24.044905180485948 6.844160639657725 a 47.5 47.5 0.0 1 1 91.37063968584661,-26.007810430699358 l -24.044905180485948 6.844160639657726 a 22.5 22.5 0.0 1 0 -43.28082932487471,12.319489151383909 z"/><path fill="#000000" d="M -4.108083516254936,-0.9282267087482694 l -17.949669571768094 -17.40141839806005 a 47.5 47.5 0.0 1 1 68.20874437271875,66.12538991262818 l -17.949669571768098 -17.40141839806005 a 22.5 22.5 0.0 1 0 -32.30940522918256,-31.322553116508086 z"/><path fill="#00574b" d="M 155.85475859158737,-52.87008983416558 l 4.802385484101968 3.9999492074383527 a 25.0 25.0 0.0 0 1 -23.461001478160092,8.636052897115032 l 1.0628648854380565 -6.158962431717111 a 18.75 18.75 0.0 0 0 17.595751108620068,-6.477039672836275 z"/><path fill="#003f36" d="M 138.2590074829673,-46.39305016132931 l -1.0628648854380596 6.158962431717111 a 25.0 25.0 0.0 0 1 -19.209541936407877,-15.999796829753421 l 5.865250369540028 -2.1590132242787554 a 18.75 18.75 0.0 0 0 14.407156452305909,11.999847622315066 z"/><path fill="#032a27" d="M 123.85185103066136,-58.39289778364437 l -5.865250369540029 2.1590132242787554 a 25.0 25.0 0.0 0 1 4.251459541752255,-24.635849726868443 l 4.802385484101965 3.9999492074383554 a 18.75 18.75 0.0 0 0 -3.1885946563141907,18.476887295151332 z"/><path fill="#005845" d="M 127.04044568697556,-76.8697850787957 l -4.802385484101966 -3.9999492074383554 a 25.0 25.0 0.0 0 1 23.4610014781601,-8.636052897115022 l -1.06286488543806 6.158962431717111 a 18.75 18.75 0.0 0 0 -17.595751108620075,6.477039672836266 z"/><path fill="#00100e" d="M 144.63619679559562,-83.34682475163197 l 1.062864885438059 -6.158962431717111 a 25.0 25.0 0.0 0 1 19.209541936407874,15.999796829753398 l -5.865250369540028 2.1590132242787607 a 18.75 18.75 0.0 0 0 -14.407156452305905,-11.999847622315048 z"/><path fill="#004940" d="M 159.04335324790154,-71.34697712931693 l 5.8652503695400275 -2.159013224278761 a 25.0 25.0 0.0 0 1 -4.251459541752239,24.63584972686846 l -4.802385484101968 -3.9999492074383554 a 18.75 18.75 0.0 0 0 3.18859465631418,-18.476887295151343 z"/><path fill="#00574b" d="M 135.28298580374076,-29.147955352521393 l -1.0628648854380542 6.158962431717111 a 11.875 11.875 0.0 1 1 4.038886564664605,-23.404057240525024 l -1.0628648854380534 6.1589624317171126 a 5.625 5.625 0.0 1 0 -1.913156793788497,11.0861323770908 z"/><path fill="#003f36" d="M 107.4291499959493,-52.34766075566387 l -5.865250369540029 2.1590132242787554 a 11.875 11.875 0.0 1 1 22.287951404252112,-8.204250252259271 l -5.86525036954003 2.159013224278756 a 5.625 5.625 0.0 1 0 -10.557450665172054,3.88622380370176 z"/><path fill="#032a27" d="M 113.59376633149004,-88.06964285962309 l -4.8023854841019675 -3.999949207438353 a 11.875 11.875 0.0 1 1 18.249064839587476,15.199806988265744 l -4.802385484101967 -3.9999492074383536 a 5.625 5.625 0.0 1 0 -8.644293871383542,-7.1999085733890364 z"/><path fill="#005845" d="M 147.61221847482219,-100.59191956043988 l 1.0628648854380534 -6.158962431717111 a 11.875 11.875 0.0 1 1 -4.038886564664605,23.404057240525024 l 1.0628648854380542 -6.1589624317171126 a 5.625 5.625 0.0 1 0 1.913156793788497,-11.0861323770908 z"/><path fill="#00100e" d="M 175.4660542826136,-77.39221415729745 l 5.8652503695400275 -2.159013224278761 a 11.875 11.875 0.0 1 1 -22.287951404252105,8.20425025225929 l 5.865250369540027 -2.15901322427876 a 5.625 5.625 0.0 1 0 10.55745066517205,-3.8862238037017693 z"/><path fill="#004940" d="M 169.30143794707286,-41.6702320533382 l 4.8023854841019675 3.999949207438354 a 11.875 11.875 0.0 1 1 -18.249064839587476,-15.199806988265744 l 4.802385484101967 3.9999492074383536 a 5.625 5.625 0.0 1 0 8.644293871383542,7.1999085733890364 z"/><path fill="#000000" d="M 100.0,100.0 l 16.402850837834382 73.18433223301115 a 75.0 75.0 0.0 0 1 -56.553421378181625,-9.83662757621557 l 40.15057054034724 -63.34770465679558 z"/><path fill="#001813" d="M 100.0,100.0 l -40.150570540347225 63.347704656795585 a 75.0 75.0 0.0 0 1 -33.03376169266394,-46.944853818961214 l 73.18433223301116 -16.40285083783437 z"/><path fill="#006a58" d="M 100.0,100.0 l -73.18433223301115 16.402850837834386 a 75.0 75.0 0.0 0 1 9.83662757621557,-56.55342137818162 l 63.34770465679558 40.15057054034723 z"/><path fill="#00453f" d="M 100.0,100.0 l -63.34770465679559 -40.150570540347225 a 75.0 75.0 0.0 0 1 46.94485381896109,-33.03376169266391 l 16.402850837834503 73.18433223301113 z"/><path fill="#006d66" d="M 100.0,100.0 l -16.40285083783452 -73.18433223301113 a 75.0 75.0 0.0 0 1 56.55342137818175,9.836627576215548 l -40.15057054034723 63.347704656795585 z"/><path fill="#002f2a" d="M 100.0,100.0 l 40.15057054034723 -63.347704656795585 a 75.0 75.0 0.0 0 1 33.033761692663916,46.94485381896114 l -73.18433223301115 16.402850837834443 z"/><path fill="#011e1b" d="M 100.0,100.0 l 73.18433223301115 -16.402850837834443 a 75.0 75.0 0.0 0 1 -9.83662757621557,56.55342137818168 l -63.34770465679558 -40.15057054034724 z"/><path fill="#001c19" d="M 100.0,100.0 l 63.347704656795585 40.150570540347225 a 75.0 75.0 0.0 0 1 -46.94485381896109,33.03376169266391 l -16.402850837834496 -73.18433223301113 z"/><path fill="#00524d" d="M 46.15099128469573,47.79574480581986 l -17.949669571768094 -17.40141839806005 a 100.0 100.0 0.0 0 1 96.1796207219438,-27.376642558630767 l -6.095235608717857 24.245579037717732 a 75.0 75.0 0.0 0 0 -72.13471554145785,20.532481918973083 z"/><path fill="#00403a" d="M 118.28570682615359,27.26326288684679 l 6.095235608717857 -24.24557903771774 a 100.0 100.0 0.0 0 1 71.79867828707239,69.60567359224014 l -24.044905180485955 6.844160639657709 a 75.0 75.0 0.0 0 0 -53.849008715304294,-52.20425519418011 z"/><path fill="#006875" d="M 172.13471554145787,79.46751808102682 l 24.044905180485955 -6.844160639657707 a 100.0 100.0 0.0 0 1 -24.380942434871457,96.98231615087101 l -17.94966957176809 -17.40141839806006 a 75.0 75.0 0.0 0 0 18.285706826153593,-72.73673711315325 z"/><path fill="#003029" d="M 153.84900871530422,152.20425519418018 l 17.949669571768094 17.401418398060045 a 100.0 100.0 0.0 0 1 -96.17962072194383,27.376642558630778 l 6.095235608717871 -24.245579037717746 a 75.0 75.0 0.0 0 0 72.13471554145787,-20.532481918973076 z"/><path fill="#003231" d="M 81.71429317384643,172.73673711315323 l -6.0952356087178545 24.24557903771774 a 100.0 100.0 0.0 0 1 -71.79867828707238,-69.60567359224007 l 24.04490518048594 -6.844160639657723 a 75.0 75.0 0.0 0 0 53.849008715304294,52.20425519418005 z"/><path fill="#000000" d="M 27.865284458542135,120.53248191897312 l -24.044905180485955 6.844160639657703 a 100.0 100.0 0.0 0 1 24.380942434871443,-96.98231615087101 l 17.949669571768098 17.40141839806006 a 75.0 75.0 0.0 0 0 -18.285706826153586,72.73673711315325 z"/><path fill="#00524d" d="M 135.3523665305636,-40.6243584187629 l 6.095235608717857 -24.24557903771774 a 47.5 47.5 0.0 1 1 -23.161895313127864,92.13320034332742 l 6.095235608717861 -24.24557903771774 a 22.5 22.5 0.0 1 0 10.971424095692146,-43.64204226789193 z"/><path fill="#00403a" d="M 239.46045004681855,60.30386828998526 l 24.044905180485948 -6.844160639657729 a 47.5 47.5 0.0 1 1 -91.37063968584661,26.007810430699365 l 24.044905180485948 -6.844160639657726 a 22.5 22.5 0.0 1 0 43.28082932487471,-12.319489151383909 z"/><path fill="#006875" d="M 204.10808351625494,200.9282267087482 l 17.94966957176809 17.40141839806005 a 47.5 47.5 0.0 1 1 -68.20874437271874,-66.12538991262818 l 17.949669571768098 17.40141839806005 a 22.5 22.5 0.0 1 0 32.30940522918256,31.322553116508086 z"/><path fill="#003029" d="M 64.64763346943636,240.62435841876294 l -6.095235608717861 24.24557903771774 a 47.5 47.5 0.0 1 1 23.161895313127864,-92.13320034332742 l -6.095235608717857 24.24557903771774 a 22.5 22.5 0.0 1 0 -10.971424095692146,43.64204226789193 z"/><path fill="#003231" d="M -39.46045004681852,139.6961317100148 l -24.044905180485948 6.844160639657725 a 47.5 47.5 0.0 1 1 91.37063968584661,-26.007810430699358 l -24.044905180485948 6.844160639657726 a 22.5 22.5 0.0 1 0 -43.28082932487471,12.319489151383909 z"/><path fill="#000000" d="M -4.108083516254936,-0.9282267087482694 l -17.949669571768094 -17.40141839806005 a 47.5 47.5 0.0 1 1 68.20874437271875,66.12538991262818 l -17.949669571768098 -17.40141839806005 a 22.5 22.5 0.0 1 0 -32.30940522918256,-31.322553116508086 z"/><path fill="#03272a" d="M 263.5053552273045,53.45970765032753 l 16.10562197820352 -9.600595851050485 a 18.75 18.75 0.0 0 1 2.071418967520515,14.200343937356063 l -18.177040945724034 -4.599748086305578 z"/><path fill="#002a27" d="M 263.5053552273045,53.45970765032753 l 18.177040945724038 4.599748086305573 a 18.75 18.75 0.0 0 1 -8.576445094673554,11.505873891897945 l -9.600595851050484 -16.10562197820352 z"/><path fill="#00b195" d="M 263.5053552273045,53.45970765032753 l 9.600595851050487 16.10562197820352 a 18.75 18.75 0.0 0 1 -14.200343937356047,2.071418967520522 l 4.59974808630556 -18.17704094572404 z"/><path fill="#00594e" d="M 263.5053552273045,53.45970765032753 l -4.599748086305556 18.17704094572404 a 18.75 18.75 0.0 0 1 -11.505873891897963,-8.576445094673558 l 16.10562197820352 -9.600595851050484 z"/><path fill="#000000" d="M 263.5053552273045,53.45970765032753 l -16.105621978203516 9.600595851050487 a 18.75 18.75 0.0 0 1 -2.0714189675205184,-14.20034393735608 l 18.177040945724034 4.599748086305592 z"/><path fill="#001e1f" d="M 263.5053552273045,53.45970765032753 l -18.177040945724034 -4.5997480863055875 a 18.75 18.75 0.0 0 1 8.576445094673549,-11.50587389189793 l 9.600595851050485 16.10562197820352 z"/><path fill="#011414" d="M 263.5053552273045,53.45970765032753 l -9.600595851050487 -16.105621978203516 a 18.75 18.75 0.0 0 1 14.200343937356045,-2.0714189675205255 l -4.599748086305558 18.17704094572404 z"/><path fill="#053331" d="M 263.5053552273045,53.45970765032753 l 4.599748086305554 -18.17704094572404 a 18.75 18.75 0.0 0 1 11.505873891897966,8.576445094673556 l -16.10562197820352 9.600595851050485 z"/><path fill="#000000" d="M 100.0,100.0 l 16.402850837834382 73.18433223301115 a 75.0 75.0 0.0 0 1 -56.553421378181625,-9.83662757621557 l 40.15057054034724 -63.34770465679558 z"/><path fill="#001813" d="M 100.0,100.0 l -40.150570540347225 63.347704656795585 a 75.0 75.0 0.0 0 1 -33.03376169266394,-46.944853818961214 l 73.18433223301116 -16.40285083783437 z"/><path fill="#006a58" d="M 100.0,100.0 l -73.18433223301115 16.402850837834386 a 75.0 75.0 0.0 0 1 9.83662757621557,-56.55342137818162 l 63.34770465679558 40.15057054034723 z"/><path fill="#00453f" d="M 100.0,100.0 l -63.34770465679559 -40.150570540347225 a 75.0 75.0 0.0 0 1 46.94485381896109,-33.03376169266391 l 16.402850837834503 73.18433223301113 z"/><path fill="#006d66" d="M 100.0,100.0 l -16.40285083783452 -73.18433223301113 a 75.0 75.0 0.0 0 1 56.55342137818175,9.836627576215548 l -40.15057054034723 63.347704656795585 z"/><path fill="#002f2a" d="M 100.0,100.0 l 40.15057054034723 -63.347704656795585 a 75.0 75.0 0.0 0 1 33.033761692663916,46.94485381896114 l -73.18433223301115 16.402850837834443 z"/><path fill="#011e1b" d="M 100.0,100.0 l 73.18433223301115 -16.402850837834443 a 75.0 75.0 0.0 0 1 -9.83662757621557,56.55342137818168 l -63.34770465679558 -40.15057054034724 z"/><path fill="#001c19" d="M 100.0,100.0 l 63.347704656795585 40.150570540347225 a 75.0 75.0 0.0 0 1 -46.94485381896109,33.03376169266391 l -16.402850837834496 -73.18433223301113 z"/><path fill="#00524d" d="M 46.15099128469573,47.79574480581986 l -17.949669571768094 -17.40141839806005 a 100.0 100.0 0.0 0 1 96.1796207219438,-27.376642558630767 l -6.095235608717857 24.245579037717732 a 75.0 75.0 0.0 0 0 -72.13471554145785,20.532481918973083 z"/><path fill="#00403a" d="M 118.28570682615359,27.26326288684679 l 6.095235608717857 -24.24557903771774 a 100.0 100.0 0.0 0 1 71.79867828707239,69.60567359224014 l -24.044905180485955 6.844160639657709 a 75.0 75.0 0.0 0 0 -53.849008715304294,-52.20425519418011 z"/><path fill="#006875" d="M 172.13471554145787,79.46751808102682 l 24.044905180485955 -6.844160639657707 a 100.0 100.0 0.0 0 1 -24.380942434871457,96.98231615087101 l -17.94966957176809 -17.40141839806006 a 75.0 75.0 0.0 0 0 18.285706826153593,-72.73673711315325 z"/><path fill="#003029" d="M 153.84900871530422,152.20425519418018 l 17.949669571768094 17.401418398060045 a 100.0 100.0 0.0 0 1 -96.17962072194383,27.376642558630778 l 6.095235608717871 -24.245579037717746 a 75.0 75.0 0.0 0 0 72.13471554145787,-20.532481918973076 z"/><path fill="#003231" d="M 81.71429317384643,172.73673711315323 l -6.0952356087178545 24.24557903771774 a 100.0 100.0 0.0 0 1 -71.79867828707238,-69.60567359224007 l 24.04490518048594 -6.844160639657723 a 75.0 75.0 0.0 0 0 53.849008715304294,52.20425519418005 z"/><path fill="#000000" d="M 27.865284458542135,120.53248191897312 l -24.044905180485955 6.844160639657703 a 100.0 100.0 0.0 0 1 24.380942434871443,-96.98231615087101 l 17.949669571768098 17.40141839806006 a 75.0 75.0 0.0 0 0 -18.285706826153586,72.73673711315325 z"/><path fill="#00524d" d="M 135.3523665305636,-40.6243584187629 l 6.095235608717857 -24.24557903771774 a 47.5 47.5 0.0 1 1 -23.161895313127864,92.13320034332742 l 6.095235608717861 -24.24557903771774 a 22.5 22.5 0.0 1 0 10.971424095692146,-43.64204226789193 z"/><path fill="#00403a" d="M 239.46045004681855,60.30386828998526 l 24.044905180485948 -6.844160639657729 a 47.5 47.5 0.0 1 1 -91.37063968584661,26.007810430699365 l 24.044905180485948 -6.844160639657726 a 22.5 22.5 0.0 1 0 43.28082932487471,-12.319489151383909 z"/><path fill="#006875" d="M 204.10808351625494,200.9282267087482 l 17.94966957176809 17.40141839806005 a 47.5 47.5 0.0 1 1 -68.20874437271874,-66.12538991262818 l 17.949669571768098 17.40141839806005 a 22.5 22.5 0.0 1 0 32.30940522918256,31.322553116508086 z"/><path fill="#003029" d="M 64.64763346943636,240.62435841876294 l -6.095235608717861 24.24557903771774 a 47.5 47.5 0.0 1 1 23.161895313127864,-92.13320034332742 l -6.095235608717857 24.24557903771774 a 22.5 22.5 0.0 1 0 -10.971424095692146,43.64204226789193 z"/><path fill="#003231" d="M -39.46045004681852,139.6961317100148 l -24.044905180485948 6.844160639657725 a 47.5 47.5 0.0 1 1 91.37063968584661,-26.007810430699358 l -24.044905180485948 6.844160639657726 a 22.5 22.5 0.0 1 0 -43.28082932487471,12.319489151383909 z"/><path fill="#000000" d="M -4.108083516254936,-0.9282267087482694 l -17.949669571768094 -17.40141839806005 a 47.5 47.5 0.0 1 1 68.20874437271875,66.12538991262818 l -17.949669571768098 -17.40141839806005 a 22.5 22.5 0.0 1 0 -32.30940522918256,-31.322553116508086 z"/><path fill="#006f5b" d="M 267.75086892702024,35.196681794092044 l 1.4151712332385757 -6.08767528541183 a 25.0 25.0 0.0 0 1 18.257983322152157,17.077647525581874 l -5.979667063776613 1.8182634040163634 a 18.75 18.75 0.0 0 0 -13.693487491614118,-12.808235644186407 z"/><path fill="#00877f" d="M 281.44435641863436,48.00491743827845 l 5.979667063776615 -1.8182634040163563 a 25.0 25.0 0.0 0 1 -5.660684932954284,24.350701141647306 l -4.564495830538043 -4.26941188139547 a 18.75 18.75 0.0 0 0 4.245513699715712,-18.26302585623548 z"/><path fill="#00211d" d="M 277.1988427189186,66.26794329451393 l 4.564495830538045 4.2694118813954685 a 25.0 25.0 0.0 0 1 -23.918668255106496,7.273053616065443 l 1.4151712332385777 -6.087675285411827 a 18.75 18.75 0.0 0 0 17.939001191329872,-5.454790212049085 z"/><path fill="#004441" d="M 259.2598415275888,71.72273350656302 l -1.4151712332385764 6.08767528541183 a 25.0 25.0 0.0 0 1 -18.25798332215215,-17.077647525581877 l 5.979667063776613 -1.8182634040163599 a 18.75 18.75 0.0 0 0 13.693487491614114,12.808235644186407 z"/><path fill="#000000" d="M 245.56635403597465,58.914497862376614 l -5.979667063776614 1.818263404016362 a 25.0 25.0 0.0 0 1 5.660684932954262,-24.35070114164731 l 4.564495830538048 4.269411881395467 a 18.75 18.75 0.0 0 0 -4.245513699715696,18.26302585623548 z"/><path fill="#000808" d="M 249.81186773569036,40.651472006141134 l -4.564495830538051 -4.269411881395464 a 25.0 25.0 0.0 0 1 23.91866825510651,-7.27305361606546 l -1.4151712332385777 6.087675285411827 a 18.75 18.75 0.0 0 0 -17.939001191329883,5.454790212049097 z"/><path fill="#006f5b" d="M 298.1874241972089,42.91377990703264 l 5.979667063776614 -1.8182634040163614 a 11.875 11.875 0.0 1 1 -22.722734842351134,6.909400935262173 l 5.979667063776615 -1.8182634040163617 a 5.625 5.625 0.0 1 0 10.763400714797905,-3.27287412722945 z"/><path fill="#00877f" d="M 289.97943104442516,78.22229656242123 l 4.5644958305380445 4.26941188139547 a 11.875 11.875 0.0 1 1 -17.34508415604457,-16.223765149302785 l 4.564495830538046 4.2694118813954685 a 5.625 5.625 0.0 1 0 8.216092494968482,7.684941386511845 z"/><path fill="#00211d" d="M 255.29736207452075,88.76822430571613 l -1.415171233238578 6.087675285411829 a 11.875 11.875 0.0 1 1 5.377650686306595,-23.13316608456495 l -1.4151712332385773 6.087675285411828 a 5.625 5.625 0.0 1 0 -2.5473082198294392,10.957815513741293 z"/><path fill="#004441" d="M 228.82328625740013,64.00563539362243 l -5.979667063776614 1.8182634040163608 a 11.875 11.875 0.0 1 1 22.722734842351134,-6.909400935262172 l -5.979667063776615 1.8182634040163617 a 5.625 5.625 0.0 1 0 -10.763400714797905,3.27287412722945 z"/><path fill="#000000" d="M 237.0312794101838,28.69711873823383 l -4.564495830538049 -4.269411881395465 a 11.875 11.875 0.0 1 1 17.345084156044585,16.22376514930277 l -4.564495830538048 -4.269411881395467 a 5.625 5.625 0.0 1 0 -8.216092494968489,-7.684941386511838 z"/><path fill="#000808" d="M 271.71334838008823,18.151190994938915 l 1.4151712332385773 -6.087675285411829 a 11.875 11.875 0.0 1 1 -5.377650686306595,23.13316608456495 l 1.4151712332385777 -6.087675285411828 a 5.625 5.625 0.0 1 0 2.5473082198294392,-10.957815513741293 z"/><path fill="#000000" d="M 100.0,100.0 l 16.402850837834382 73.18433223301115 a 75.0 75.0 0.0 0 1 -56.553421378181625,-9.83662757621557 l 40.15057054034724 -63.34770465679558 z"/><path fill="#001813" d="M 100.0,100.0 l -40.150570540347225 63.347704656795585 a 75.0 75.0 0.0 0 1 -33.03376169266394,-46.944853818961214 l 73.18433223301116 -16.40285083783437 z"/><path fill="#006a58" d="M 100.0,100.0 l -73.18433223301115 16.402850837834386 a 75.0 75.0 0.0 0 1 9.83662757621557,-56.55342137818162 l 63.34770465679558 40.15057054034723 z"/><path fill="#00453f" d="M 100.0,100.0 l -63.34770465679559 -40.150570540347225 a 75.0 75.0 0.0 0 1 46.94485381896109,-33.03376169266391 l 16.402850837834503 73.18433223301113 z"/><path fill="#006d66" d="M 100.0,100.0 l -16.40285083783452 -73.18433223301113 a 75.0 75.0 0.0 0 1 56.55342137818175,9.836627576215548 l -40.15057054034723 63.347704656795585 z"/><path fill="#002f2a" d="M 100.0,100.0 l 40.15057054034723 -63.347704656795585 a 75.0 75.0 0.0 0 1 33.033761692663916,46.94485381896114 l -73.18433223301115 16.402850837834443 z"/><path fill="#011e1b" d="M 100.0,100.0 l 73.18433223301115 -16.402850837834443 a 75.0 75.0 0.0 0 1 -9.83662757621557,56.55342137818168 l -63.34770465679558 -40.15057054034724 z"/><path fill="#001c19" d="M 100.0,100.0 l 63.347704656795585 40.150570540347225 a 75.0 75.0 0.0 0 1 -46.94485381896109,33.03376169266391 l -16.402850837834496 -73.18433223301113 z"/><path fill="#00524d" d="M 46.15099128469573,47.79574480581986 l -17.949669571768094 -17.40141839806005 a 100.0 100.0 0.0 0 1 96.1796207219438,-27.376642558630767 l -6.095235608717857 24.245579037717732 a 75.0 75.0 0.0 0 0 -72.13471554145785,20.532481918973083 z"/><path fill="#00403a" d="M 118.28570682615359,27.26326288684679 l 6.095235608717857 -24.24557903771774 a 100.0 100.0 0.0 0 1 71.79867828707239,69.60567359224014 l -24.044905180485955 6.844160639657709 a 75.0 75.0 0.0 0 0 -53.849008715304294,-52.20425519418011 z"/><path fill="#006875" d="M 172.13471554145787,79.46751808102682 l 24.044905180485955 -6.844160639657707 a 100.0 100.0 0.0 0 1 -24.380942434871457,96.98231615087101 l -17.94966957176809 -17.40141839806006 a 75.0 75.0 0.0 0 0 18.285706826153593,-72.73673711315325 z"/><path fill="#003029" d="M 153.84900871530422,152.20425519418018 l 17.949669571768094 17.401418398060045 a 100.0 100.0 0.0 0 1 -96.17962072194383,27.376642558630778 l 6.095235608717871 -24.245579037717746 a 75.0 75.0 0.0 0 0 72.13471554145787,-20.532481918973076 z"/><path fill="#003231" d="M 81.71429317384643,172.73673711315323 l -6.0952356087178545 24.24557903771774 a 100.0 100.0 0.0 0 1 -71.79867828707238,-69.60567359224007 l 24.04490518048594 -6.844160639657723 a 75.0 75.0 0.0 0 0 53.849008715304294,52.20425519418005 z"/><path fill="#000000" d="M 27.865284458542135,120.53248191897312 l -24.044905180485955 6.844160639657703 a 100.0 100.0 0.0 0 1 24.380942434871443,-96.98231615087101 l 17.949669571768098 17.40141839806006 a 75.0 75.0 0.0 0 0 -18.285706826153586,72.73673711315325 z"/><path fill="#00524d" d="M 135.3523665305636,-40.6243584187629 l 6.095235608717857 -24.24557903771774 a 47.5 47.5 0.0 1 1 -23.161895313127864,92.13320034332742 l 6.095235608717861 -24.24557903771774 a 22.5 22.5 0.0 1 0 10.971424095692146,-43.64204226789193 z"/><path fill="#00403a" d="M 239.46045004681855,60.30386828998526 l 24.044905180485948 -6.844160639657729 a 47.5 47.5 0.0 1 1 -91.37063968584661,26.007810430699365 l 24.044905180485948 -6.844160639657726 a 22.5 22.5 0.0 1 0 43.28082932487471,-12.319489151383909 z"/><path fill="#006875" d="M 204.10808351625494,200.9282267087482 l 17.94966957176809 17.40141839806005 a 47.5 47.5 0.0 1 1 -68.20874437271874,-66.12538991262818 l 17.949669571768098 17.40141839806005 a 22.5 22.5 0.0 1 0 32.30940522918256,31.322553116508086 z"/><path fill="#003029" d="M 64.64763346943636,240.62435841876294 l -6.095235608717861 24.24557903771774 a 47.5 47.5 0.0 1 1 23.161895313127864,-92.13320034332742 l -6.095235608717857 24.24557903771774 a 22.5 22.5 0.0 1 0 -10.971424095692146,43.64204226789193 z"/><path fill="#003231" d="M -39.46045004681852,139.6961317100148 l -24.044905180485948 6.844160639657725 a 47.5 47.5 0.0 1 1 91.37063968584661,-26.007810430699358 l -24.044905180485948 6.844160639657726 a 22.5 22.5 0.0 1 0 -43.28082932487471,12.319489151383909 z"/><path fill="#000000" d="M -4.108083516254936,-0.9282267087482694 l -17.949669571768094 -17.40141839806005 a 47.5 47.5 0.0 1 1 68.20874437271875,66.12538991262818 l -17.949669571768098 -17.40141839806005 a 22.5 22.5 0.0 1 0 -32.30940522918256,-31.322553116508086 z"/><path fill="#000000" d="M 222.05775308802302,218.32964510680827 l -13.316614293646689 -13.199631955257113 a 18.75 18.75 0.0 0 1 13.233895288892368,-5.5501855789551175 l 0.08271900475432034 18.74981753421223 z"/><path fill="#000000" d="M 222.05775308802302,218.32964510680827 l -0.08271900475432034 -18.74981753421223 a 18.75 18.75 0.0 0 1 13.282350960011437,5.433203240565547 l -13.199631955257116 13.316614293646683 z"/><path fill="#010d0c" d="M 222.05775308802302,218.32964510680827 l 13.199631955257116 -13.316614293646683 a 18.75 18.75 0.0 0 1 5.550185578955114,13.233895288892361 l -18.74981753421223 0.08271900475432149 z"/><path fill="#00201b" d="M 222.05775308802302,218.32964510680827 l 18.74981753421223 -0.08271900475432149 a 18.75 18.75 0.0 0 1 -5.433203240565549,13.282350960011444 l -13.316614293646682 -13.199631955257122 z"/><path fill="#00403d" d="M 222.05775308802302,218.32964510680827 l 13.316614293646683 13.199631955257116 a 18.75 18.75 0.0 0 1 -13.233895288892365,5.550185578955114 l -0.08271900475431805 -18.74981753421223 z"/><path fill="#006054" d="M 222.05775308802302,218.32964510680827 l 0.08271900475432221 18.74981753421223 a 18.75 18.75 0.0 0 1 -13.282350960011442,-5.433203240565549 l 13.19963195525712 -13.316614293646682 z"/><path fill="#002021" d="M 222.05775308802302,218.32964510680827 l -13.19963195525712 13.316614293646682 a 18.75 18.75 0.0 0 1 -5.55018557895511,-13.233895288892354 l 18.74981753421223 -0.08271900475432752 z"/><path fill="#058090" d="M 222.05775308802302,218.32964510680827 l -18.74981753421223 0.08271900475432752 a 18.75 18.75 0.0 0 1 5.4332032405655415,-13.28235096001144 l 13.316614293646689 13.199631955257113 z"/><path fill="#000000" d="M 100.0,100.0 l 16.402850837834382 73.18433223301115 a 75.0 75.0 0.0 0 1 -56.553421378181625,-9.83662757621557 l 40.15057054034724 -63.34770465679558 z"/><path fill="#001813" d="M 100.0,100.0 l -40.150570540347225 63.347704656795585 a 75.0 75.0 0.0 0 1 -33.03376169266394,-46.944853818961214 l 73.18433223301116 -16.40285083783437 z"/><path fill="#006a58" d="M 100.0,100.0 l -73.18433223301115 16.402850837834386 a 75.0 75.0 0.0 0 1 9.83662757621557,-56.55342137818162 l 63.34770465679558 40.15057054034723 z"/><path fill="#00453f" d="M 100.0,100.0 l -63.34770465679559 -40.150570540347225 a 75.0 75.0 0.0 0 1 46.94485381896109,-33.03376169266391 l 16.402850837834503 73.18433223301113 z"/><path fill="#006d66" d="M 100.0,100.0 l -16.40285083783452 -73.18433223301113 a 75.0 75.0 0.0 0 1 56.55342137818175,9.836627576215548 l -40.15057054034723 63.347704656795585 z"/><path fill="#002f2a" d="M 100.0,100.0 l 40.15057054034723 -63.347704656795585 a 75.0 75.0 0.0 0 1 33.033761692663916,46.94485381896114 l -73.18433223301115 16.402850837834443 z"/><path fill="#011e1b" d="M 100.0,100.0 l 73.18433223301115 -16.402850837834443 a 75.0 75.0 0.0 0 1 -9.83662757621557,56.55342137818168 l -63.34770465679558 -40.15057054034724 z"/><path fill="#001c19" d="M 100.0,100.0 l 63.347704656795585 40.150570540347225 a 75.0 75.0 0.0 0 1 -46.94485381896109,33.03376169266391 l -16.402850837834496 -73.18433223301113 z"/><path fill="#00524d" d="M 46.15099128469573,47.79574480581986 l -17.949669571768094 -17.40141839806005 a 100.0 100.0 0.0 0 1 96.1796207219438,-27.376642558630767 l -6.095235608717857 24.245579037717732 a 75.0 75.0 0.0 0 0 -72.13471554145785,20.532481918973083 z"/><path fill="#00403a" d="M 118.28570682615359,27.26326288684679 l 6.095235608717857 -24.24557903771774 a 100.0 100.0 0.0 0 1 71.79867828707239,69.60567359224014 l -24.044905180485955 6.844160639657709 a 75.0 75.0 0.0 0 0 -53.849008715304294,-52.20425519418011 z"/><path fill="#006875" d="M 172.13471554145787,79.46751808102682 l 24.044905180485955 -6.844160639657707 a 100.0 100.0 0.0 0 1 -24.380942434871457,96.98231615087101 l -17.94966957176809 -17.40141839806006 a 75.0 75.0 0.0 0 0 18.285706826153593,-72.73673711315325 z"/><path fill="#003029" d="M 153.84900871530422,152.20425519418018 l 17.949669571768094 17.401418398060045 a 100.0 100.0 0.0 0 1 -96.17962072194383,27.376642558630778 l 6.095235608717871 -24.245579037717746 a 75.0 75.0 0.0 0 0 72.13471554145787,-20.532481918973076 z"/><path fill="#003231" d="M 81.71429317384643,172.73673711315323 l -6.0952356087178545 24.24557903771774 a 100.0 100.0 0.0 0 1 -71.79867828707238,-69.60567359224007 l 24.04490518048594 -6.844160639657723 a 75.0 75.0 0.0 0 0 53.849008715304294,52.20425519418005 z"/><path fill="#000000" d="M 27.865284458542135,120.53248191897312 l -24.044905180485955 6.844160639657703 a 100.0 100.0 0.0 0 1 24.380942434871443,-96.98231615087101 l 17.949669571768098 17.40141839806006 a 75.0 75.0 0.0 0 0 -18.285706826153586,72.73673711315325 z"/><path fill="#00524d" d="M 135.3523665305636,-40.6243584187629 l 6.095235608717857 -24.24557903771774 a 47.5 47.5 0.0 1 1 -23.161895313127864,92.13320034332742 l 6.095235608717861 -24.24557903771774 a 22.5 22.5 0.0 1 0 10.971424095692146,-43.64204226789193 z"/><path fill="#00403a" d="M 239.46045004681855,60.30386828998526 l 24.044905180485948 -6.844160639657729 a 47.5 47.5 0.0 1 1 -91.37063968584661,26.007810430699365 l 24.044905180485948 -6.844160639657726 a 22.5 22.5 0.0 1 0 43.28082932487471,-12.319489151383909 z"/><path fill="#006875" d="M 204.10808351625494,200.9282267087482 l 17.94966957176809 17.40141839806005 a 47.5 47.5 0.0 1 1 -68.20874437271874,-66.12538991262818 l 17.949669571768098 17.40141839806005 a 22.5 22.5 0.0 1 0 32.30940522918256,31.322553116508086 z"/><path fill="#003029" d="M 64.64763346943636,240.62435841876294 l -6.095235608717861 24.24557903771774 a 47.5 47.5 0.0 1 1 23.161895313127864,-92.13320034332742 l -6.095235608717857 24.24557903771774 a 22.5 22.5 0.0 1 0 -10.971424095692146,43.64204226789193 z"/><path fill="#003231" d="M -39.46045004681852,139.6961317100148 l -24.044905180485948 6.844160639657725 a 47.5 47.5 0.0 1 1 91.37063968584661,-26.007810430699358 l -24.044905180485948 6.844160639657726 a 22.5 22.5 0.0 1 0 -43.28082932487471,12.319489151383909 z"/><path fill="#000000" d="M -4.108083516254936,-0.9282267087482694 l -17.949669571768094 -17.40141839806005 a 47.5 47.5 0.0 1 1 68.20874437271875,66.12538991262818 l -17.949669571768098 -17.40141839806005 a 22.5 22.5 0.0 1 0 -32.30940522918256,-31.322553116508086 z"/><path fill="#003a2f" d="M 221.38823568898223,199.5916023474275 l -0.22317246634693055 -6.246014253126919 a 25.0 25.0 0.0 0 1 22.083172995124247,11.71893640512714 l -5.297620782434134 3.316280151845133 a 18.75 18.75 0.0 0 0 -16.562379746343183,-8.789202303845354 z"/><path fill="#000000" d="M 237.9506154353254,208.38080465127288 l 5.297620782434131 -3.316280151845134 a 25.0 25.0 0.0 0 1 0.8926898653877382,24.984057012507694 l -5.5207932487810645 -2.929734101281788 a 18.75 18.75 0.0 0 0 -0.6695173990408048,-18.73804275938077 z"/><path fill="#002e29" d="M 238.62013283436622,227.11884741065364 l 5.520793248781066 2.9297341012817877 a 25.0 25.0 0.0 0 1 -21.190483129736506,13.265120607380524 l -0.22317246634693966 -6.246014253126917 a 18.75 18.75 0.0 0 0 15.89286234730238,-9.948840455535395 z"/><path fill="#012c25" d="M 222.72727048706383,237.06768786618903 l 0.22317246634694088 6.246014253126919 a 25.0 25.0 0.0 0 1 -22.083172995124293,-11.718936405127142 l 5.297620782434134 -3.3162801518451346 a 18.75 18.75 0.0 0 0 16.56237974634322,8.789202303845357 z"/><path fill="#085c49" d="M 206.16489074072064,228.2784855623437 l -5.29762078243413 3.316280151845135 a 25.0 25.0 0.0 0 1 -0.8926898653877409,-24.98405701250769 l 5.5207932487810645 2.929734101281788 a 18.75 18.75 0.0 0 0 0.6695173990408065,18.738042759380768 z"/><path fill="#000201" d="M 205.49537334167982,209.5404428029629 l -5.520793248781066 -2.929734101281787 a 25.0 25.0 0.0 0 1 21.190483129736503,-13.26512060738053 l 0.22317246634693966 6.246014253126919 a 18.75 18.75 0.0 0 0 -15.892862347302376,9.948840455535397 z"/><path fill="#003a2f" d="M 252.783953626141,199.09522022610648 l 5.297620782434131 -3.316280151845134 a 11.875 11.875 0.0 1 1 -20.130958973249697,12.60186457701151 l 5.29762078243413 -3.3162801518451346 a 5.625 5.625 0.0 1 0 9.535717408381437,-5.9693042733212405 z"/><path fill="#000000" d="M 254.0783539309532,235.32210289424268 l 5.520793248781065 2.929734101281789 a 11.875 11.875 0.0 1 1 -20.97901434536805,-11.132989584870796 l 5.520793248781066 2.929734101281788 a 5.625 5.625 0.0 1 0 9.937427847805917,5.273521382307219 z"/><path fill="#002e29" d="M 223.35215339283528,254.5565277749444 l 0.22317246634693935 6.246014253126919 a 11.875 11.875 0.0 1 1 -0.8480553721183709,-23.734854161882293 l 0.22317246634694005 6.246014253126919 a 5.625 5.625 0.0 1 0 0.4017104394244915,11.242825655628454 z"/><path fill="#012c25" d="M 191.33155254990504,237.56406998751004 l -5.297620782434132 3.3162801518451337 a 11.875 11.875 0.0 1 1 20.130958973249697,-12.601864577011508 l -5.29762078243413 3.3162801518451346 a 5.625 5.625 0.0 1 0 -9.535717408381437,5.9693042733212405 z"/><path fill="#085c49" d="M 190.03715224509284,201.33718731937392 l -5.520793248781065 -2.929734101281788 a 11.875 11.875 0.0 1 1 20.97901434536805,11.132989584870797 l -5.520793248781066 -2.92973410128179 a 5.625 5.625 0.0 1 0 -9.937427847805917,-5.273521382307219 z"/><path fill="#000201" d="M 220.76335278321076,182.10276243867213 l -0.2231724663469401 -6.246014253126919 a 11.875 11.875 0.0 1 1 0.848055372118371,23.734854161882293 l -0.22317246634693938 -6.246014253126919 a 5.625 5.625 0.0 1 0 -0.4017104394244915,-11.242825655628454 z"/><path fill="#000000" d="M 100.0,100.0 l 16.402850837834382 73.18433223301115 a 75.0 75.0 0.0 0 1 -56.553421378181625,-9.83662757621557 l 40.15057054034724 -63.34770465679558 z"/><path fill="#001813" d="M 100.0,100.0 l -40.150570540347225 63.347704656795585 a 75.0 75.0 0.0 0 1 -33.03376169266394,-46.944853818961214 l 73.18433223301116 -16.40285083783437 z"/><path fill="#006a58" d="M 100.0,100.0 l -73.18433223301115 16.402850837834386 a 75.0 75.0 0.0 0 1 9.83662757621557,-56.55342137818162 l 63.34770465679558 40.15057054034723 z"/><path fill="#00453f" d="M 100.0,100.0 l -63.34770465679559 -40.150570540347225 a 75.0 75.0 0.0 0 1 46.94485381896109,-33.03376169266391 l 16.402850837834503 73.18433223301113 z"/><path fill="#006d66" d="M 100.0,100.0 l -16.40285083783452 -73.18433223301113 a 75.0 75.0 0.0 0 1 56.55342137818175,9.836627576215548 l -40.15057054034723 63.347704656795585 z"/><path fill="#002f2a" d="M 100.0,100.0 l 40.15057054034723 -63.347704656795585 a 75.0 75.0 0.0 0 1 33.033761692663916,46.94485381896114 l -73.18433223301115 16.402850837834443 z"/><path fill="#011e1b" d="M 100.0,100.0 l 73.18433223301115 -16.402850837834443 a 75.0 75.0 0.0 0 1 -9.83662757621557,56.55342137818168 l -63.34770465679558 -40.15057054034724 z"/><path fill="#001c19" d="M 100.0,100.0 l 63.347704656795585 40.150570540347225 a 75.0 75.0 0.0 0 1 -46.94485381896109,33.03376169266391 l -16.402850837834496 -73.18433223301113 z"/><path fill="#00524d" d="M 46.15099128469573,47.79574480581986 l -17.949669571768094 -17.40141839806005 a 100.0 100.0 0.0 0 1 96.1796207219438,-27.376642558630767 l -6.095235608717857 24.245579037717732 a 75.0 75.0 0.0 0 0 -72.13471554145785,20.532481918973083 z"/><path fill="#00403a" d="M 118.28570682615359,27.26326288684679 l 6.095235608717857 -24.24557903771774 a 100.0 100.0 0.0 0 1 71.79867828707239,69.60567359224014 l -24.044905180485955 6.844160639657709 a 75.0 75.0 0.0 0 0 -53.849008715304294,-52.20425519418011 z"/><path fill="#006875" d="M 172.13471554145787,79.46751808102682 l 24.044905180485955 -6.844160639657707 a 100.0 100.0 0.0 0 1 -24.380942434871457,96.98231615087101 l -17.94966957176809 -17.40141839806006 a 75.0 75.0 0.0 0 0 18.285706826153593,-72.73673711315325 z"/><path fill="#003029" d="M 153.84900871530422,152.20425519418018 l 17.949669571768094 17.401418398060045 a 100.0 100.0 0.0 0 1 -96.17962072194383,27.376642558630778 l 6.095235608717871 -24.245579037717746 a 75.0 75.0 0.0 0 0 72.13471554145787,-20.532481918973076 z"/><path fill="#003231" d="M 81.71429317384643,172.73673711315323 l -6.0952356087178545 24.24557903771774 a 100.0 100.0 0.0 0 1 -71.79867828707238,-69.60567359224007 l 24.04490518048594 -6.844160639657723 a 75.0 75.0 0.0 0 0 53.849008715304294,52.20425519418005 z"/><path fill="#000000" d="M 27.865284458542135,120.53248191897312 l -24.044905180485955 6.844160639657703 a 100.0 100.0 0.0 0 1 24.380942434871443,-96.98231615087101 l 17.949669571768098 17.40141839806006 a 75.0 75.0 0.0 0 0 -18.285706826153586,72.73673711315325 z"/><path fill="#00524d" d="M 135.3523665305636,-40.6243584187629 l 6.095235608717857 -24.24557903771774 a 47.5 47.5 0.0 1 1 -23.161895313127864,92.13320034332742 l 6.095235608717861 -24.24557903771774 a 22.5 22.5 0.0 1 0 10.971424095692146,-43.64204226789193 z"/><path fill="#00403a" d="M 239.46045004681855,60.30386828998526 l 24.044905180485948 -6.844160639657729 a 47.5 47.5 0.0 1 1 -91.37063968584661,26.007810430699365 l 24.044905180485948 -6.844160639657726 a 22.5 22.5 0.0 1 0 43.28082932487471,-12.319489151383909 z"/><path fill="#006875" d="M 204.10808351625494,200.9282267087482 l 17.94966957176809 17.40141839806005 a 47.5 47.5 0.0 1 1 -68.20874437271874,-66.12538991262818 l 17.949669571768098 17.40141839806005 a 22.5 22.5 0.0 1 0 32.30940522918256,31.322553116508086 z"/><path fill="#003029" d="M 64.64763346943636,240.62435841876294 l -6.095235608717861 24.24557903771774 a 47.5 47.5 0.0 1 1 23.161895313127864,-92.13320034332742 l -6.095235608717857 24.24557903771774 a 22.5 22.5 0.0 1 0 -10.971424095692146,43.64204226789193 z"/><path fill="#003231" d="M -39.46045004681852,139.6961317100148 l -24.044905180485948 6.844160639657725 a 47.5 47.5 0.0 1 1 91.37063968584661,-26.007810430699358 l -24.044905180485948 6.844160639657726 a 22.5 22.5 0.0 1 0 -43.28082932487471,12.319489151383909 z"/><path fill="#000000" d="M -4.108083516254936,-0.9282267087482694 l -17.949669571768094 -17.40141839806005 a 47.5 47.5 0.0 1 1 68.20874437271875,66.12538991262818 l -17.949669571768098 -17.40141839806005 a 22.5 22.5 0.0 1 0 -32.30940522918256,-31.322553116508086 z"/><path fill="#008351" d="M 58.5523978607185,264.86993745648067 l 9.441368244838205 -16.199477326918938 a 18.75 18.75 0.0 0 1 8.689447534308329,11.420772566981256 l -18.130815779146534 4.778704759937682 z"/><path fill="#024d43" d="M 58.5523978607185,264.86993745648067 l 18.130815779146534 -4.778704759937682 a 18.75 18.75 0.0 0 1 -1.931338452227596,14.22007300477589 l -16.199477326918938 -9.441368244838207 z"/><path fill="#000000" d="M 58.5523978607185,264.86993745648067 l 16.19947732691894 9.441368244838202 a 18.75 18.75 0.0 0 1 -11.420772566981256,8.689447534308329 l -4.778704759937686 -18.13081577914653 z"/><path fill="#036253" d="M 58.5523978607185,264.86993745648067 l 4.778704759937686 18.13081577914653 a 18.75 18.75 0.0 0 1 -14.220073004775884,-1.931338452227589 l 9.441368244838198 -16.19947732691894 z"/><path fill="#004842" d="M 58.5523978607185,264.86993745648067 l -9.441368244838198 16.19947732691894 a 18.75 18.75 0.0 0 1 -8.689447534308336,-11.420772566981261 l 18.130815779146534 -4.77870475993768 z"/><path fill="#03544a" d="M 58.5523978607185,264.86993745648067 l -18.130815779146534 4.77870475993768 a 18.75 18.75 0.0 0 1 1.931338452227596,-14.220073004775886 l 16.199477326918938 9.441368244838205 z"/><path fill="#011e1b" d="M 58.5523978607185,264.86993745648067 l -16.199477326918938 -9.441368244838205 a 18.75 18.75 0.0 0 1 11.420772566981242,-8.689447534308325 l 4.778704759937697 18.13081577914653 z"/><path fill="#034142" d="M 58.5523978607185,264.86993745648067 l -4.778704759937697 -18.13081577914653 a 18.75 18.75 0.0 0 1 14.220073004775887,1.9313384522275854 l -9.441368244838191 16.199477326918945 z"/><path fill="#000000" d="M 100.0,100.0 l 16.402850837834382 73.18433223301115 a 75.0 75.0 0.0 0 1 -56.553421378181625,-9.83662757621557 l 40.15057054034724 -63.34770465679558 z"/><path fill="#001813" d="M 100.0,100.0 l -40.150570540347225 63.347704656795585 a 75.0 75.0 0.0 0 1 -33.03376169266394,-46.944853818961214 l 73.18433223301116 -16.40285083783437 z"/><path fill="#006a58" d="M 100.0,100.0 l -73.18433223301115 16.402850837834386 a 75.0 75.0 0.0 0 1 9.83662757621557,-56.55342137818162 l 63.34770465679558 40.15057054034723 z"/><path fill="#00453f" d="M 100.0,100.0 l -63.34770465679559 -40.150570540347225 a 75.0 75.0 0.0 0 1 46.94485381896109,-33.03376169266391 l 16.402850837834503 73.18433223301113 z"/><path fill="#006d66" d="M 100.0,100.0 l -16.40285083783452 -73.18433223301113 a 75.0 75.0 0.0 0 1 56.55342137818175,9.836627576215548 l -40.15057054034723 63.347704656795585 z"/><path fill="#002f2a" d="M 100.0,100.0 l 40.15057054034723 -63.347704656795585 a 75.0 75.0 0.0 0 1 33.033761692663916,46.94485381896114 l -73.18433223301115 16.402850837834443 z"/><path fill="#011e1b" d="M 100.0,100.0 l 73.18433223301115 -16.402850837834443 a 75.0 75.0 0.0 0 1 -9.83662757621557,56.55342137818168 l -63.34770465679558 -40.15057054034724 z"/><path fill="#001c19" d="M 100.0,100.0 l 63.347704656795585 40.150570540347225 a 75.0 75.0 0.0 0 1 -46.94485381896109,33.03376169266391 l -16.402850837834496 -73.18433223301113 z"/><path fill="#00524d" d="M 46.15099128469573,47.79574480581986 l -17.949669571768094 -17.40141839806005 a 100.0 100.0 0.0 0 1 96.1796207219438,-27.376642558630767 l -6.095235608717857 24.245579037717732 a 75.0 75.0 0.0 0 0 -72.13471554145785,20.532481918973083 z"/><path fill="#00403a" d="M 118.28570682615359,27.26326288684679 l 6.095235608717857 -24.24557903771774 a 100.0 100.0 0.0 0 1 71.79867828707239,69.60567359224014 l -24.044905180485955 6.844160639657709 a 75.0 75.0 0.0 0 0 -53.849008715304294,-52.20425519418011 z"/><path fill="#006875" d="M 172.13471554145787,79.46751808102682 l 24.044905180485955 -6.844160639657707 a 100.0 100.0 0.0 0 1 -24.380942434871457,96.98231615087101 l -17.94966957176809 -17.40141839806006 a 75.0 75.0 0.0 0 0 18.285706826153593,-72.73673711315325 z"/><path fill="#003029" d="M 153.84900871530422,152.20425519418018 l 17.949669571768094 17.401418398060045 a 100.0 100.0 0.0 0 1 -96.17962072194383,27.376642558630778 l 6.095235608717871 -24.245579037717746 a 75.0 75.0 0.0 0 0 72.13471554145787,-20.532481918973076 z"/><path fill="#003231" d="M 81.71429317384643,172.73673711315323 l -6.0952356087178545 24.24557903771774 a 100.0 100.0 0.0 0 1 -71.79867828707238,-69.60567359224007 l 24.04490518048594 -6.844160639657723 a 75.0 75.0 0.0 0 0 53.849008715304294,52.20425519418005 z"/><path fill="#000000" d="M 27.865284458542135,120.53248191897312 l -24.044905180485955 6.844160639657703 a 100.0 100.0 0.0 0 1 24.380942434871443,-96.98231615087101 l 17.949669571768098 17.40141839806006 a 75.0 75.0 0.0 0 0 -18.285706826153586,72.73673711315325 z"/><path fill="#00524d" d="M 135.3523665305636,-40.6243584187629 l 6.095235608717857 -24.24557903771774 a 47.5 47.5 0.0 1 1 -23.161895313127864,92.13320034332742 l 6.095235608717861 -24.24557903771774 a 22.5 22.5 0.0 1 0 10.971424095692146,-43.64204226789193 z"/><path fill="#00403a" d="M 239.46045004681855,60.30386828998526 l 24.044905180485948 -6.844160639657729 a 47.5 47.5 0.0 1 1 -91.37063968584661,26.007810430699365 l 24.044905180485948 -6.844160639657726 a 22.5 22.5 0.0 1 0 43.28082932487471,-12.319489151383909 z"/><path fill="#006875" d="M 204.10808351625494,200.9282267087482 l 17.94966957176809 17.40141839806005 a 47.5 47.5 0.0 1 1 -68.20874437271874,-66.12538991262818 l 17.949669571768098 17.40141839806005 a 22.5 22.5 0.0 1 0 32.30940522918256,31.322553116508086 z"/><path fill="#003029" d="M 64.64763346943636,240.62435841876294 l -6.095235608717861 24.24557903771774 a 47.5 47.5 0.0 1 1 23.161895313127864,-92.13320034332742 l -6.095235608717857 24.24557903771774 a 22.5 22.5 0.0 1 0 -10.971424095692146,43.64204226789193 z"/><path fill="#003231" d="M -39.46045004681852,139.6961317100148 l -24.044905180485948 6.844160639657725 a 47.5 47.5 0.0 1 1 91.37063968584661,-26.007810430699358 l -24.044905180485948 6.844160639657726 a 22.5 22.5 0.0 1 0 -43.28082932487471,12.319489151383909 z"/><path fill="#000000" d="M -4.108083516254936,-0.9282267087482694 l -17.949669571768094 -17.40141839806005 a 47.5 47.5 0.0 1 1 68.20874437271875,66.12538991262818 l -17.949669571768098 -17.40141839806005 a 22.5 22.5 0.0 1 0 -32.30940522918256,-31.322553116508086 z"/><path fill="#00484d" d="M 49.218747602466365,281.13171696724237 l -3.1112167527507113 5.420593170253909 a 25.0 25.0 0.0 0 1 -12.555052050579821,-21.61875731875519 l 6.249979765395665 -0.015903840565112404 a 18.75 18.75 0.0 0 0 9.416289037934867,16.214067989066393 z"/><path fill="#035c56" d="M 39.8024585645315,264.91764897817603 l -6.249979765395667 0.015903840565111634 a 25.0 25.0 0.0 0 1 12.444867011002831,-21.682372681015636 l 3.1387630126449597 5.4046893296888 a 18.75 18.75 0.0 0 0 -9.333650258252124,16.261779510761723 z"/><path fill="#00312a" d="M 49.136108822783626,248.65586946741428 l -3.1387630126449593 -5.4046893296887975 a 25.0 25.0 0.0 0 1 24.99991906158268,-0.06361536226044873 l -3.111216752750714 5.420593170253909 a 18.75 18.75 0.0 0 0 -18.74993929618701,0.04771152169533721 z"/><path fill="#00493b" d="M 67.88604811897063,248.60815794571894 l 3.111216752750711 -5.420593170253909 a 25.0 25.0 0.0 0 1 12.555052050579825,21.618757318755186 l -6.249979765395665 0.015903840565112404 a 18.75 18.75 0.0 0 0 -9.41628903793487,-16.21406798906639 z"/><path fill="#001715" d="M 77.30233715690551,264.8222259347853 l 6.249979765395667 -0.015903840565112397 a 25.0 25.0 0.0 0 1 -12.444867011002852,21.68237268101565 l -3.1387630126449544 -5.4046893296888 a 18.75 18.75 0.0 0 0 9.33365025825214,-16.261779510761738 z"/><path fill="#003935" d="M 67.96868689865335,281.08400544554706 l 3.1387630126449553 5.404689329688799 a 25.0 25.0 0.0 0 1 -24.999919061582663,0.06361536226043984 l 3.111216752750707 -5.420593170253909 a 18.75 18.75 0.0 0 0 18.749939296187,-0.047711521695330106 z"/><path fill="#00484d" d="M 22.302515221423633,264.9621797317583 l -6.249979765395667 0.015903840565111634 a 11.875 11.875 0.0 1 1 23.74992310850353,-0.06043459414742566 l -6.249979765395665 0.0159038405651124 a 5.625 5.625 0.0 1 0 -11.249963577712201,0.02862691301720163 z"/><path fill="#035c56" d="M 40.34757238737774,233.52273934428567 l -3.1387630126449593 -5.4046893296887975 a 11.875 11.875 0.0 1 1 11.927299448050844,20.53781945281743 l -3.138763012644958 -5.404689329688798 a 5.625 5.625 0.0 1 0 -5.649773422760926,-9.728440793439836 z"/><path fill="#00312a" d="M 76.59745502667263,233.430497069008 l 3.111216752750711 -5.420593170253909 a 11.875 11.875 0.0 1 1 -11.822623660452702,20.598254046964854 l 3.111216752750712 -5.420593170253909 a 5.625 5.625 0.0 1 0 5.60019015495128,-9.757067706457036 z"/><path fill="#00493b" d="M 94.80228050001337,264.777695181203 l 6.249979765395667 -0.015903840565117948 a 11.875 11.875 0.0 1 1 -23.74992310850353,0.06043459414744675 l 6.249979765395665 -0.01590384056511718 a 5.625 5.625 0.0 1 0 11.249963577712201,-0.02862691301721162 z"/><path fill="#001715" d="M 76.75722333405923,296.2171355686757 l 3.138763012644954 5.4046893296888 a 11.875 11.875 0.0 1 1 -11.927299448050826,-20.53781945281744 l 3.1387630126449544 5.404689329688802 a 5.625 5.625 0.0 1 0 5.6497734227609175,9.72844079343984 z"/><path fill="#003935" d="M 40.50734069476435,296.3093778439533 l -3.1112167527507113 5.420593170253909 a 11.875 11.875 0.0 1 1 11.822623660452702,-20.598254046964854 l -3.1112167527507104 5.420593170253909 a 5.625 5.625 0.0 1 0 -5.60019015495128,9.757067706457036 z"/><path fill="#000000" d="M 100.0,100.0 l 16.402850837834382 73.18433223301115 a 75.0 75.0 0.0 0 1 -56.553421378181625,-9.83662757621557 l 40.15057054034724 -63.34770465679558 z"/><path fill="#001813" d="M 100.0,100.0 l -40.150570540347225 63.347704656795585 a 75.0 75.0 0.0 0 1 -33.03376169266394,-46.944853818961214 l 73.18433223301116 -16.40285083783437 z"/><path fill="#006a58" d="M 100.0,100.0 l -73.18433223301115 16.402850837834386 a 75.0 75.0 0.0 0 1 9.83662757621557,-56.55342137818162 l 63.34770465679558 40.15057054034723 z"/><path fill="#00453f" d="M 100.0,100.0 l -63.34770465679559 -40.150570540347225 a 75.0 75.0 0.0 0 1 46.94485381896109,-33.03376169266391 l 16.402850837834503 73.18433223301113 z"/><path fill="#006d66" d="M 100.0,100.0 l -16.40285083783452 -73.18433223301113 a 75.0 75.0 0.0 0 1 56.55342137818175,9.836627576215548 l -40.15057054034723 63.347704656795585 z"/><path fill="#002f2a" d="M 100.0,100.0 l 40.15057054034723 -63.347704656795585 a 75.0 75.0 0.0 0 1 33.033761692663916,46.94485381896114 l -73.18433223301115 16.402850837834443 z"/><path fill="#011e1b" d="M 100.0,100.0 l 73.18433223301115 -16.402850837834443 a 75.0 75.0 0.0 0 1 -9.83662757621557,56.55342137818168 l -63.34770465679558 -40.15057054034724 z"/><path fill="#001c19" d="M 100.0,100.0 l 63.347704656795585 40.150570540347225 a 75.0 75.0 0.0 0 1 -46.94485381896109,33.03376169266391 l -16.402850837834496 -73.18433223301113 z"/><path fill="#00524d" d="M 46.15099128469573,47.79574480581986 l -17.949669571768094 -17.40141839806005 a 100.0 100.0 0.0 0 1 96.1796207219438,-27.376642558630767 l -6.095235608717857 24.245579037717732 a 75.0 75.0 0.0 0 0 -72.13471554145785,20.532481918973083 z"/><path fill="#00403a" d="M 118.28570682615359,27.26326288684679 l 6.095235608717857 -24.24557903771774 a 100.0 100.0 0.0 0 1 71.79867828707239,69.60567359224014 l -24.044905180485955 6.844160639657709 a 75.0 75.0 0.0 0 0 -53.849008715304294,-52.20425519418011 z"/><path fill="#006875" d="M 172.13471554145787,79.46751808102682 l 24.044905180485955 -6.844160639657707 a 100.0 100.0 0.0 0 1 -24.380942434871457,96.98231615087101 l -17.94966957176809 -17.40141839806006 a 75.0 75.0 0.0 0 0 18.285706826153593,-72.73673711315325 z"/><path fill="#003029" d="M 153.84900871530422,152.20425519418018 l 17.949669571768094 17.401418398060045 a 100.0 100.0 0.0 0 1 -96.17962072194383,27.376642558630778 l 6.095235608717871 -24.245579037717746 a 75.0 75.0 0.0 0 0 72.13471554145787,-20.532481918973076 z"/><path fill="#003231" d="M 81.71429317384643,172.73673711315323 l -6.0952356087178545 24.24557903771774 a 100.0 100.0 0.0 0 1 -71.79867828707238,-69.60567359224007 l 24.04490518048594 -6.844160639657723 a 75.0 75.0 0.0 0 0 53.849008715304294,52.20425519418005 z"/><path fill="#000000" d="M 27.865284458542135,120.53248191897312 l -24.044905180485955 6.844160639657703 a 100.0 100.0 0.0 0 1 24.380942434871443,-96.98231615087101 l 17.949669571768098 17.40141839806006 a 75.0 75.0 0.0 0 0 -18.285706826153586,72.73673711315325 z"/><path fill="#00524d" d="M 135.3523665305636,-40.6243584187629 l 6.095235608717857 -24.24557903771774 a 47.5 47.5 0.0 1 1 -23.161895313127864,92.13320034332742 l 6.095235608717861 -24.24557903771774 a 22.5 22.5 0.0 1 0 10.971424095692146,-43.64204226789193 z"/><path fill="#00403a" d="M 239.46045004681855,60.30386828998526 l 24.044905180485948 -6.844160639657729 a 47.5 47.5 0.0 1 1 -91.37063968584661,26.007810430699365 l 24.044905180485948 -6.844160639657726 a 22.5 22.5 0.0 1 0 43.28082932487471,-12.319489151383909 z"/><path fill="#006875" d="M 204.10808351625494,200.9282267087482 l 17.94966957176809 17.40141839806005 a 47.5 47.5 0.0 1 1 -68.20874437271874,-66.12538991262818 l 17.949669571768098 17.40141839806005 a 22.5 22.5 0.0 1 0 32.30940522918256,31.322553116508086 z"/><path fill="#003029" d="M 64.64763346943636,240.62435841876294 l -6.095235608717861 24.24557903771774 a 47.5 47.5 0.0 1 1 23.161895313127864,-92.13320034332742 l -6.095235608717857 24.24557903771774 a 22.5 22.5 0.0 1 0 -10.971424095692146,43.64204226789193 z"/><path fill="#003231" d="M -39.46045004681852,139.6961317100148 l -24.044905180485948 6.844160639657725 a 47.5 47.5 0.0 1 1 91.37063968584661,-26.007810430699358 l -24.044905180485948 6.844160639657726 a 22.5 22.5 0.0 1 0 -43.28082932487471,12.319489151383909 z"/><path fill="#000000" d="M -4.108083516254936,-0.9282267087482694 l -17.949669571768094 -17.40141839806005 a 47.5 47.5 0.0 1 1 68.20874437271875,66.12538991262818 l -17.949669571768098 -17.40141839806005 a 22.5 22.5 0.0 1 0 -32.30940522918256,-31.322553116508086 z"/><path fill="#006949" d="M -63.50535522730447,146.54029234967254 l -2.5477228090953496 -18.57610315669073 a 18.75 18.75 0.0 0 1 13.881499244317235,3.639302571678922 l -11.333776435221885 14.93680058501181 z"/><path fill="#000000" d="M -63.50535522730447,146.54029234967254 l 11.333776435221885 -14.93680058501181 a 18.75 18.75 0.0 0 1 7.242326721468846,12.389077775916459 l -18.57610315669073 2.547722809095351 z"/><path fill="#001e1b" d="M -63.50535522730447,146.54029234967254 l 18.57610315669073 -2.547722809095351 a 18.75 18.75 0.0 0 1 -3.6393025716789236,13.881499244317238 l -14.936800585011808 -11.333776435221887 z"/><path fill="#000705" d="M -63.50535522730447,146.54029234967254 l 14.93680058501181 11.333776435221884 a 18.75 18.75 0.0 0 1 -12.389077775916462,7.242326721468848 l -2.547722809095347 -18.57610315669073 z"/><path fill="#000303" d="M -63.50535522730447,146.54029234967254 l 2.547722809095352 18.57610315669073 a 18.75 18.75 0.0 0 1 -13.881499244317226,-3.639302571678913 l 11.333776435221873 -14.936800585011818 z"/><path fill="#008d7b" d="M -63.50535522730447,146.54029234967254 l -11.333776435221878 14.936800585011811 a 18.75 18.75 0.0 0 1 -7.242326721468853,-12.389077775916455 l 18.57610315669073 -2.5477228090953563 z"/><path fill="#000000" d="M -63.50535522730447,146.54029234967254 l -18.57610315669073 2.5477228090953563 a 18.75 18.75 0.0 0 1 3.6393025716789182,-13.881499244317235 l 14.936800585011813 11.333776435221878 z"/><path fill="#006860" d="M -63.50535522730447,146.54029234967254 l -14.936800585011813 -11.333776435221878 a 18.75 18.75 0.0 0 1 12.389077775916464,-7.242326721468853 l 2.5477228090953496 18.57610315669073 z"/><path fill="#000000" d="M 100.0,100.0 l 16.402850837834382 73.18433223301115 a 75.0 75.0 0.0 0 1 -56.553421378181625,-9.83662757621557 l 40.15057054034724 -63.34770465679558 z"/><path fill="#001813" d="M 100.0,100.0 l -40.150570540347225 63.347704656795585 a 75.0 75.0 0.0 0 1 -33.03376169266394,-46.944853818961214 l 73.18433223301116 -16.40285083783437 z"/><path fill="#006a58" d="M 100.0,100.0 l -73.18433223301115 16.402850837834386 a 75.0 75.0 0.0 0 1 9.83662757621557,-56.55342137818162 l 63.34770465679558 40.15057054034723 z"/><path fill="#00453f" d="M 100.0,100.0 l -63.34770465679559 -40.150570540347225 a 75.0 75.0 0.0 0 1 46.94485381896109,-33.03376169266391 l 16.402850837834503 73.18433223301113 z"/><path fill="#006d66" d="M 100.0,100.0 l -16.40285083783452 -73.18433223301113 a 75.0 75.0 0.0 0 1 56.55342137818175,9.836627576215548 l -40.15057054034723 63.347704656795585 z"/><path fill="#002f2a" d="M 100.0,100.0 l 40.15057054034723 -63.347704656795585 a 75.0 75.0 0.0 0 1 33.033761692663916,46.94485381896114 l -73.18433223301115 16.402850837834443 z"/><path fill="#011e1b" d="M 100.0,100.0 l 73.18433223301115 -16.402850837834443 a 75.0 75.0 0.0 0 1 -9.83662757621557,56.55342137818168 l -63.34770465679558 -40.15057054034724 z"/><path fill="#001c19" d="M 100.0,100.0 l 63.347704656795585 40.150570540347225 a 75.0 75.0 0.0 0 1 -46.94485381896109,33.03376169266391 l -16.402850837834496 -73.18433223301113 z"/><path fill="#00524d" d="M 46.15099128469573,47.79574480581986 l -17.949669571768094 -17.40141839806005 a 100.0 100.0 0.0 0 1 96.1796207219438,-27.376642558630767 l -6.095235608717857 24.245579037717732 a 75.0 75.0 0.0 0 0 -72.13471554145785,20.532481918973083 z"/><path fill="#00403a" d="M 118.28570682615359,27.26326288684679 l 6.095235608717857 -24.24557903771774 a 100.0 100.0 0.0 0 1 71.79867828707239,69.60567359224014 l -24.044905180485955 6.844160639657709 a 75.0 75.0 0.0 0 0 -53.849008715304294,-52.20425519418011 z"/><path fill="#006875" d="M 172.13471554145787,79.46751808102682 l 24.044905180485955 -6.844160639657707 a 100.0 100.0 0.0 0 1 -24.380942434871457,96.98231615087101 l -17.94966957176809 -17.40141839806006 a 75.0 75.0 0.0 0 0 18.285706826153593,-72.73673711315325 z"/><path fill="#003029" d="M 153.84900871530422,152.20425519418018 l 17.949669571768094 17.401418398060045 a 100.0 100.0 0.0 0 1 -96.17962072194383,27.376642558630778 l 6.095235608717871 -24.245579037717746 a 75.0 75.0 0.0 0 0 72.13471554145787,-20.532481918973076 z"/><path fill="#003231" d="M 81.71429317384643,172.73673711315323 l -6.0952356087178545 24.24557903771774 a 100.0 100.0 0.0 0 1 -71.79867828707238,-69.60567359224007 l 24.04490518048594 -6.844160639657723 a 75.0 75.0 0.0 0 0 53.849008715304294,52.20425519418005 z"/><path fill="#000000" d="M 27.865284458542135,120.53248191897312 l -24.044905180485955 6.844160639657703 a 100.0 100.0 0.0 0 1 24.380942434871443,-96.98231615087101 l 17.949669571768098 17.40141839806006 a 75.0 75.0 0.0 0 0 -18.285706826153586,72.73673711315325 z"/><path fill="#00524d" d="M 135.3523665305636,-40.6243584187629 l 6.095235608717857 -24.24557903771774 a 47.5 47.5 0.0 1 1 -23.161895313127864,92.13320034332742 l 6.095235608717861 -24.24557903771774 a 22.5 22.5 0.0 1 0 10.971424095692146,-43.64204226789193 z"/><path fill="#00403a" d="M 239.46045004681855,60.30386828998526 l 24.044905180485948 -6.844160639657729 a 47.5 47.5 0.0 1 1 -91.37063968584661,26.007810430699365 l 24.044905180485948 -6.844160639657726 a 22.5 22.5 0.0 1 0 43.28082932487471,-12.319489151383909 z"/><path fill="#006875" d="M 204.10808351625494,200.9282267087482 l 17.94966957176809 17.40141839806005 a 47.5 47.5 0.0 1 1 -68.20874437271874,-66.12538991262818 l 17.949669571768098 17.40141839806005 a 22.5 22.5 0.0 1 0 32.30940522918256,31.322553116508086 z"/><path fill="#003029" d="M 64.64763346943636,240.62435841876294 l -6.095235608717861 24.24557903771774 a 47.5 47.5 0.0 1 1 23.161895313127864,-92.13320034332742 l -6.095235608717857 24.24557903771774 a 22.5 22.5 0.0 1 0 -10.971424095692146,43.64204226789193 z"/><path fill="#003231" d="M -39.46045004681852,139.6961317100148 l -24.044905180485948 6.844160639657725 a 47.5 47.5 0.0 1 1 91.37063968584661,-26.007810430699358 l -24.044905180485948 6.844160639657726 a 22.5 22.5 0.0 1 0 -43.28082932487471,12.319489151383909 z"/><path fill="#000000" d="M -4.108083516254936,-0.9282267087482694 l -17.949669571768094 -17.40141839806005 a 47.5 47.5 0.0 1 1 68.20874437271875,66.12538991262818 l -17.949669571768098 -17.40141839806005 a 22.5 22.5 0.0 1 0 -32.30940522918256,-31.322553116508086 z"/><path fill="#011411" d="M -80.4105924645612,154.65049912583234 l -5.6350790790855765 2.703402258719936 a 25.0 25.0 0.0 0 1 1.9052980273723694,-24.92729105672918 l 5.158754572242485 3.5284205054623605 a 18.75 18.75 0.0 0 0 -1.4289735205292775,18.695468292546884 z"/><path fill="#00625c" d="M -78.98161894403194,135.95503083328546 l -5.158754572242485 -3.5284205054623596 a 25.0 25.0 0.0 0 1 22.540316316342306,-10.81360903487975 l -0.4763245068430919 6.231822764182297 a 18.75 18.75 0.0 0 0 -16.905237237256728,8.110206776159814 z"/><path fill="#000000" d="M -62.076381706775194,127.84482405712565 l 0.4763245068430913 -6.231822764182297 a 25.0 25.0 0.0 0 1 20.635018288969945,14.113682021849455 l -5.63507907908558 2.703402258719933 a 18.75 18.75 0.0 0 0 -15.476263716727457,-10.58526151638709 z"/><path fill="#003e3f" d="M -46.600117990047735,138.43008557351274 l 5.635079079085577 -2.7034022587199336 a 25.0 25.0 0.0 0 1 -1.9052980273723632,24.927291056729167 l -5.158754572242486 -3.528420505462357 a 18.75 18.75 0.0 0 0 1.4289735205292722,-18.695468292546877 z"/><path fill="#000000" d="M -48.02909151057702,157.12555386605962 l 5.158754572242485 3.5284205054623596 a 25.0 25.0 0.0 0 1 -22.54031631634232,10.813609034879747 l 0.47632450684309546 -6.231822764182294 a 18.75 18.75 0.0 0 0 16.90523723725674,-8.110206776159814 z"/><path fill="#000605" d="M -64.93432874783375,165.23576064221942 l -0.47632450684309346 6.231822764182296 a 25.0 25.0 0.0 0 1 -20.635018288969945,-14.113682021849467 l 5.635079079085584 -2.7034022587199313 a 18.75 18.75 0.0 0 0 15.476263716727454,10.585261516387101 z"/><path fill="#011411" d="M -93.42613174631089,126.07545341799084 l -5.158754572242487 -3.5284205054623574 a 11.875 11.875 0.0 1 1 19.603267374521447,13.40799792075696 l -5.158754572242486 -3.5284205054623587 a 5.625 5.625 0.0 1 0 -9.285758230036475,-6.351156909832245 z"/><path fill="#00625c" d="M -60.74267308761455,110.39572031741521 l 0.4763245068430913 -6.231822764182297 a 11.875 11.875 0.0 1 1 -1.8100331260037483,23.68092650389273 l 0.47632450684309213 -6.231822764182299 a 5.625 5.625 0.0 1 0 0.857384112317565,-11.217280975528135 z"/><path fill="#000000" d="M -30.821896568608118,130.86055924909692 l 5.635079079085577 -2.7034022587199336 a 11.875 11.875 0.0 1 1 -21.413300500525196,10.272928583135746 l 5.635079079085578 -2.7034022587199322 a 5.625 5.625 0.0 1 0 10.14314234235404,-4.86612406569588 z"/><path fill="#003e3f" d="M -33.58457870829805,167.0051312813542 l 5.158754572242486 3.5284205054623583 a 11.875 11.875 0.0 1 1 -19.60326737452145,-13.40799792075696 l 5.158754572242488 3.528420505462357 a 5.625 5.625 0.0 1 0 9.285758230036475,6.351156909832245 z"/><path fill="#000000" d="M -66.2680373669944,182.68486438192986 l -0.4763245068430921 6.231822764182297 a 11.875 11.875 0.0 1 1 1.8100331260037485,-23.68092650389273 l -0.47632450684309147 6.231822764182299 a 5.625 5.625 0.0 1 0 -0.857384112317565,11.217280975528135 z"/><path fill="#000605" d="M -96.18881388600082,162.22002545024813 l -5.635079079085578 2.7034022587199327 a 11.875 11.875 0.0 1 1 21.413300500525196,-10.272928583135746 l -5.635079079085578 2.703402258719933 a 5.625 5.625 0.0 1 0 -10.14314234235404,4.86612406569588 z"/><path fill="#000000" d="M 100.0,100.0 l 16.402850837834382 73.18433223301115 a 75.0 75.0 0.0 0 1 -56.553421378181625,-9.83662757621557 l 40.15057054034724 -63.34770465679558 z"/><path fill="#001813" d="M 100.0,100.0 l -40.150570540347225 63.347704656795585 a 75.0 75.0 0.0 0 1 -33.03376169266394,-46.944853818961214 l 73.18433223301116 -16.40285083783437 z"/><path fill="#006a58" d="M 100.0,100.0 l -73.18433223301115 16.402850837834386 a 75.0 75.0 0.0 0 1 9.83662757621557,-56.55342137818162 l 63.34770465679558 40.15057054034723 z"/><path fill="#00453f" d="M 100.0,100.0 l -63.34770465679559 -40.150570540347225 a 75.0 75.0 0.0 0 1 46.94485381896109,-33.03376169266391 l 16.402850837834503 73.18433223301113 z"/><path fill="#006d66" d="M 100.0,100.0 l -16.40285083783452 -73.18433223301113 a 75.0 75.0 0.0 0 1 56.55342137818175,9.836627576215548 l -40.15057054034723 63.347704656795585 z"/><path fill="#002f2a" d="M 100.0,100.0 l 40.15057054034723 -63.347704656795585 a 75.0 75.0 0.0 0 1 33.033761692663916,46.94485381896114 l -73.18433223301115 16.402850837834443 z"/><path fill="#011e1b" d="M 100.0,100.0 l 73.18433223301115 -16.402850837834443 a 75.0 75.0 0.0 0 1 -9.83662757621557,56.55342137818168 l -63.34770465679558 -40.15057054034724 z"/><path fill="#001c19" d="M 100.0,100.0 l 63.347704656795585 40.150570540347225 a 75.0 75.0 0.0 0 1 -46.94485381896109,33.03376169266391 l -16.402850837834496 -73.18433223301113 z"/><path fill="#00524d" d="M 46.15099128469573,47.79574480581986 l -17.949669571768094 -17.40141839806005 a 100.0 100.0 0.0 0 1 96.1796207219438,-27.376642558630767 l -6.095235608717857 24.245579037717732 a 75.0 75.0 0.0 0 0 -72.13471554145785,20.532481918973083 z"/><path fill="#00403a" d="M 118.28570682615359,27.26326288684679 l 6.095235608717857 -24.24557903771774 a 100.0 100.0 0.0 0 1 71.79867828707239,69.60567359224014 l -24.044905180485955 6.844160639657709 a 75.0 75.0 0.0 0 0 -53.849008715304294,-52.20425519418011 z"/><path fill="#006875" d="M 172.13471554145787,79.46751808102682 l 24.044905180485955 -6.844160639657707 a 100.0 100.0 0.0 0 1 -24.380942434871457,96.98231615087101 l -17.94966957176809 -17.40141839806006 a 75.0 75.0 0.0 0 0 18.285706826153593,-72.73673711315325 z"/><path fill="#003029" d="M 153.84900871530422,152.20425519418018 l 17.949669571768094 17.401418398060045 a 100.0 100.0 0.0 0 1 -96.17962072194383,27.376642558630778 l 6.095235608717871 -24.245579037717746 a 75.0 75.0 0.0 0 0 72.13471554145787,-20.532481918973076 z"/><path fill="#003231" d="M 81.71429317384643,172.73673711315323 l -6.0952356087178545 24.24557903771774 a 100.0 100.0 0.0 0 1 -71.79867828707238,-69.60567359224007 l 24.04490518048594 -6.844160639657723 a 75.0 75.0 0.0 0 0 53.849008715304294,52.20425519418005 z"/><path fill="#000000" d="M 27.865284458542135,120.53248191897312 l -24.044905180485955 6.844160639657703 a 100.0 100.0 0.0 0 1 24.380942434871443,-96.98231615087101 l 17.949669571768098 17.40141839806006 a 75.0 75.0 0.0 0 0 -18.285706826153586,72.73673711315325 z"/><path fill="#00524d" d="M 135.3523665305636,-40.6243584187629 l 6.095235608717857 -24.24557903771774 a 47.5 47.5 0.0 1 1 -23.161895313127864,92.13320034332742 l 6.095235608717861 -24.24557903771774 a 22.5 22.5 0.0 1 0 10.971424095692146,-43.64204226789193 z"/><path fill="#00403a" d="M 239.46045004681855,60.30386828998526 l 24.044905180485948 -6.844160639657729 a 47.5 47.5 0.0 1 1 -91.37063968584661,26.007810430699365 l 24.044905180485948 -6.844160639657726 a 22.5 22.5 0.0 1 0 43.28082932487471,-12.319489151383909 z"/><path fill="#006875" d="M 204.10808351625494,200.9282267087482 l 17.94966957176809 17.40141839806005 a 47.5 47.5 0.0 1 1 -68.20874437271874,-66.12538991262818 l 17.949669571768098 17.40141839806005 a 22.5 22.5 0.0 1 0 32.30940522918256,31.322553116508086 z"/><path fill="#003029" d="M 64.64763346943636,240.62435841876294 l -6.095235608717861 24.24557903771774 a 47.5 47.5 0.0 1 1 23.161895313127864,-92.13320034332742 l -6.095235608717857 24.24557903771774 a 22.5 22.5 0.0 1 0 -10.971424095692146,43.64204226789193 z"/><path fill="#003231" d="M -39.46045004681852,139.6961317100148 l -24.044905180485948 6.844160639657725 a 47.5 47.5 0.0 1 1 91.37063968584661,-26.007810430699358 l -24.044905180485948 6.844160639657726 a 22.5 22.5 0.0 1 0 -43.28082932487471,12.319489151383909 z"/><path fill="#000000" d="M -4.108083516254936,-0.9282267087482694 l -17.949669571768094 -17.40141839806005 a 47.5 47.5 0.0 1 1 68.20874437271875,66.12538991262818 l -17.949669571768098 -17.40141839806005 a 22.5 22.5 0.0 1 0 -32.30940522918256,-31.322553116508086 z"/><path fill="#015645" d="M -22.05775308802303,-18.329645106808318 l 14.051381577254277 -12.414554996873594 a 18.75 18.75 0.0 0 1 4.662861644764602,13.571966171487166 l -18.71424322201888 -1.1574111746135713 z"/><path fill="#009495" d="M -22.05775308802303,-18.329645106808318 l 18.71424322201888 1.1574111746135667 a 18.75 18.75 0.0 0 1 -6.299688225145287,12.893970402640713 l -12.414554996873592 -14.05138157725428 z"/><path fill="#036b5a" d="M -22.05775308802303,-18.329645106808318 l 12.414554996873596 14.051381577254274 a 18.75 18.75 0.0 0 1 -13.571966171487183,4.662861644764606 l 1.1574111746135867 -18.71424322201888 z"/><path fill="#00cfa9" d="M -22.05775308802303,-18.329645106808318 l -1.1574111746135822 18.71424322201888 a 18.75 18.75 0.0 0 1 -12.893970402640695,-6.299688225145287 l 14.051381577254277 -12.414554996873592 z"/><path fill="#001b1c" d="M -22.05775308802303,-18.329645106808318 l -14.051381577254274 12.414554996873596 a 18.75 18.75 0.0 0 1 -4.662861644764606,-13.571966171487182 l 18.71424322201888 1.1574111746135856 z"/><path fill="#000000" d="M -22.05775308802303,-18.329645106808318 l -18.71424322201888 -1.1574111746135811 a 18.75 18.75 0.0 0 1 6.299688225145285,-12.893970402640697 l 12.414554996873594 14.051381577254277 z"/><path fill="#015254" d="M -22.05775308802303,-18.329645106808318 l -12.414554996873594 -14.051381577254277 a 18.75 18.75 0.0 0 1 13.571966171487162,-4.662861644764602 l -1.1574111746135678 18.71424322201888 z"/><path fill="#025e4c" d="M -22.05775308802303,-18.329645106808318 l 1.1574111746135678 -18.71424322201888 a 18.75 18.75 0.0 0 1 12.89397040264071,6.299688225145285 l -14.051381577254277 12.414554996873594 z"/><path fill="#000000" d="M 100.0,100.0 l 16.402850837834382 73.18433223301115 a 75.0 75.0 0.0 0 1 -56.553421378181625,-9.83662757621557 l 40.15057054034724 -63.34770465679558 z"/><path fill="#001813" d="M 100.0,100.0 l -40.150570540347225 63.347704656795585 a 75.0 75.0 0.0 0 1 -33.03376169266394,-46.944853818961214 l 73.18433223301116 -16.40285083783437 z"/><path fill="#006a58" d="M 100.0,100.0 l -73.18433223301115 16.402850837834386 a 75.0 75.0 0.0 0 1 9.83662757621557,-56.55342137818162 l 63.34770465679558 40.15057054034723 z"/><path fill="#00453f" d="M 100.0,100.0 l -63.34770465679559 -40.150570540347225 a 75.0 75.0 0.0 0 1 46.94485381896109,-33.03376169266391 l 16.402850837834503 73.18433223301113 z"/><path fill="#006d66" d="M 100.0,100.0 l -16.40285083783452 -73.18433223301113 a 75.0 75.0 0.0 0 1 56.55342137818175,9.836627576215548 l -40.15057054034723 63.347704656795585 z"/><path fill="#002f2a" d="M 100.0,100.0 l 40.15057054034723 -63.347704656795585 a 75.0 75.0 0.0 0 1 33.033761692663916,46.94485381896114 l -73.18433223301115 16.402850837834443 z"/><path fill="#011e1b" d="M 100.0,100.0 l 73.18433223301115 -16.402850837834443 a 75.0 75.0 0.0 0 1 -9.83662757621557,56.55342137818168 l -63.34770465679558 -40.15057054034724 z"/><path fill="#001c19" d="M 100.0,100.0 l 63.347704656795585 40.150570540347225 a 75.0 75.0 0.0 0 1 -46.94485381896109,33.03376169266391 l -16.402850837834496 -73.18433223301113 z"/><path fill="#00524d" d="M 46.15099128469573,47.79574480581986 l -17.949669571768094 -17.40141839806005 a 100.0 100.0 0.0 0 1 96.1796207219438,-27.376642558630767 l -6.095235608717857 24.245579037717732 a 75.0 75.0 0.0 0 0 -72.13471554145785,20.532481918973083 z"/><path fill="#00403a" d="M 118.28570682615359,27.26326288684679 l 6.095235608717857 -24.24557903771774 a 100.0 100.0 0.0 0 1 71.79867828707239,69.60567359224014 l -24.044905180485955 6.844160639657709 a 75.0 75.0 0.0 0 0 -53.849008715304294,-52.20425519418011 z"/><path fill="#006875" d="M 172.13471554145787,79.46751808102682 l 24.044905180485955 -6.844160639657707 a 100.0 100.0 0.0 0 1 -24.380942434871457,96.98231615087101 l -17.94966957176809 -17.40141839806006 a 75.0 75.0 0.0 0 0 18.285706826153593,-72.73673711315325 z"/><path fill="#003029" d="M 153.84900871530422,152.20425519418018 l 17.949669571768094 17.401418398060045 a 100.0 100.0 0.0 0 1 -96.17962072194383,27.376642558630778 l 6.095235608717871 -24.245579037717746 a 75.0 75.0 0.0 0 0 72.13471554145787,-20.532481918973076 z"/><path fill="#003231" d="M 81.71429317384643,172.73673711315323 l -6.0952356087178545 24.24557903771774 a 100.0 100.0 0.0 0 1 -71.79867828707238,-69.60567359224007 l 24.04490518048594 -6.844160639657723 a 75.0 75.0 0.0 0 0 53.849008715304294,52.20425519418005 z"/><path fill="#000000" d="M 27.865284458542135,120.53248191897312 l -24.044905180485955 6.844160639657703 a 100.0 100.0 0.0 0 1 24.380942434871443,-96.98231615087101 l 17.949669571768098 17.40141839806006 a 75.0 75.0 0.0 0 0 -18.285706826153586,72.73673711315325 z"/><path fill="#00524d" d="M 135.3523665305636,-40.6243584187629 l 6.095235608717857 -24.24557903771774 a 47.5 47.5 0.0 1 1 -23.161895313127864,92.13320034332742 l 6.095235608717861 -24.24557903771774 a 22.5 22.5 0.0 1 0 10.971424095692146,-43.64204226789193 z"/><path fill="#00403a" d="M 239.46045004681855,60.30386828998526 l 24.044905180485948 -6.844160639657729 a 47.5 47.5 0.0 1 1 -91.37063968584661,26.007810430699365 l 24.044905180485948 -6.844160639657726 a 22.5 22.5 0.0 1 0 43.28082932487471,-12.319489151383909 z"/><path fill="#006875" d="M 204.10808351625494,200.9282267087482 l 17.94966957176809 17.40141839806005 a 47.5 47.5 0.0 1 1 -68.20874437271874,-66.12538991262818 l 17.949669571768098 17.40141839806005 a 22.5 22.5 0.0 1 0 32.30940522918256,31.322553116508086 z"/><path fill="#003029" d="M 64.64763346943636,240.62435841876294 l -6.095235608717861 24.24557903771774 a 47.5 47.5 0.0 1 1 23.161895313127864,-92.13320034332742 l -6.095235608717857 24.24557903771774 a 22.5 22.5 0.0 1 0 -10.971424095692146,43.64204226789193 z"/><path fill="#003231" d="M -39.46045004681852,139.6961317100148 l -24.044905180485948 6.844160639657725 a 47.5 47.5 0.0 1 1 91.37063968584661,-26.007810430699358 l -24.044905180485948 6.844160639657726 a 22.5 22.5 0.0 1 0 -43.28082932487471,12.319489151383909 z"/><path fill="#000000" d="M -4.108083516254936,-0.9282267087482694 l -17.949669571768094 -17.40141839806005 a 47.5 47.5 0.0 1 1 68.20874437271875,66.12538991262818 l -17.949669571768098 -17.40141839806005 a 22.5 22.5 0.0 1 0 -32.30940522918256,-31.322553116508086 z"/><path fill="#013427" d="M -39.533811551277196,-25.123015447730584 l -5.825352821084723 -2.264456780307421 a 25.0 25.0 0.0 0 1 19.495014032242015,-15.650700555652021 l 0.9515993130242197 6.177131919220425 a 18.75 18.75 0.0 0 0 -14.62126052418151,11.738025416739017 z"/><path fill="#000806" d="M -24.912551027095688,-36.8610408644696 l -0.95159931302422 -6.177131919220426 a 25.0 25.0 0.0 0 1 23.301411284338897,9.057827121229668 l -4.873753508060506 3.912675138913009 a 18.75 18.75 0.0 0 0 -17.47605846325417,-6.79337034092225 z"/><path fill="#000605" d="M -7.4364925638415205,-30.067670523547346 l 4.873753508060504 -3.9126751389130097 a 25.0 25.0 0.0 0 1 3.80639725209688,24.708527676881722 l -5.825352821084724 -2.2644567803074196 a 18.75 18.75 0.0 0 0 -2.854797939072659,-18.531395757661294 z"/><path fill="#002e25" d="M -4.581694624768861,-11.536274765886056 l 5.825352821084724 2.26445678030742 a 25.0 25.0 0.0 0 1 -19.495014032242022,15.65070055565203 l -0.951599313024218 -6.177131919220427 a 18.75 18.75 0.0 0 0 14.621260524181515,-11.738025416739022 z"/><path fill="#00333b" d="M -19.202955148950387,0.20175065085296495 l 0.9515993130242206 6.177131919220426 a 25.0 25.0 0.0 0 1 -23.301411284338897,-9.057827121229668 l 4.873753508060503 -3.912675138913009 a 18.75 18.75 0.0 0 0 17.476058463254173,6.793370340922252 z"/><path fill="#008070" d="M -36.67901361220454,-6.5916196900692885 l -4.8737535080605054 3.912675138913007 a 25.0 25.0 0.0 0 1 -3.806397252096878,-24.70852767688169 l 5.825352821084724 2.264456780307416 a 18.75 18.75 0.0 0 0 2.854797939072659,18.53139575766127 z"/><path fill="#013427" d="M -27.5770291035635,-54.157010238286794 l -0.95159931302422 -6.177131919220426 a 11.875 11.875 0.0 1 1 3.616077389492034,23.47310129303762 l -0.9515993130242193 -6.177131919220425 a 5.625 5.625 0.0 1 0 -1.712878763443595,-11.118837454596768 z"/><path fill="#000806" d="M 6.210017258727891,-41.023160912503776 l 4.873753508060504 -3.9126751389130097 a 11.875 11.875 0.0 1 1 -18.520263330629913,14.868165527869435 l 4.873753508060503 -3.912675138913009 a 5.625 5.625 0.0 1 0 8.772756314508907,-7.042815250043416 z"/><path fill="#000605" d="M 11.729293274268363,-5.1957957810252715 l 5.825352821084723 2.2644567803074214 a 11.875 11.875 0.0 1 1 -22.13634072012195,-8.6049357651682 l 5.825352821084724 2.2644567803074214 a 5.625 5.625 0.0 1 0 10.485635077952502,4.076022204553358 z"/><path fill="#002e25" d="M -16.53847707248256,17.49772002467016 l 0.9515993130242191 6.177131919220427 a 11.875 11.875 0.0 1 1 -3.616077389492034,-23.473101293037622 l 0.9515993130242202 6.177131919220425 a 5.625 5.625 0.0 1 0 1.712878763443595,11.118837454596768 z"/><path fill="#00333b" d="M -50.32552343477397,4.3638706988871405 l -4.873753508060504 3.912675138913009 a 11.875 11.875 0.0 1 1 18.520263330629913,-14.868165527869436 l -4.873753508060503 3.912675138913011 a 5.625 5.625 0.0 1 0 -8.772756314508907,7.042815250043416 z"/><path fill="#008070" d="M -55.84479945031443,-31.463494432591325 l -5.825352821084725 -2.2644567803074156 a 11.875 11.875 0.0 1 1 22.136340720121954,8.60493576516818 l -5.825352821084724 -2.264456780307417 a 5.625 5.625 0.0 1 0 -10.485635077952505,-4.0760222045533485 z"/><circle fill="#00574b" r="6.25" cx="134.2201209183027" cy="-22.988992920804282"/><circle fill="#003f36" r="6.25" cx="101.56389962640927" cy="-50.188647531385115"/><circle fill="#032a27" r="6.25" cx="108.79138084738808" cy="-92.06959206706144"/><circle fill="#005845" r="6.25" cx="148.67508336026023" cy="-106.75088199215699"/><circle fill="#00100e" r="6.25" cx="181.33130465215365" cy="-79.55122738157621"/><circle fill="#004940" r="6.25" cx="174.10382343117482" cy="-37.67028284589984"/><circle fill="#006f5b" r="6.25" cx="304.1670912609855" cy="41.09551650301628"/><circle fill="#00877f" r="6.25" cx="294.5439268749632" cy="82.4917084438167"/><circle fill="#00211d" r="6.25" cx="253.88219084128218" cy="94.85589959112797"/><circle fill="#004441" r="6.25" cx="222.8436191936235" cy="65.82389879763879"/><circle fill="#000000" r="6.25" cx="232.46678357964575" cy="24.427706856838363"/><circle fill="#000808" r="6.25" cx="273.12851961332683" cy="12.063515709527085"/><circle fill="#003a2f" r="6.25" cx="258.08157440857514" cy="195.77894007426136"/><circle fill="#000000" r="6.25" cx="259.59914717973425" cy="238.25183699552446"/><circle fill="#002e29" r="6.25" cx="223.57532585918221" cy="260.80254202807134"/><circle fill="#012c25" r="6.25" cx="186.0339317674709" cy="240.88035013935516"/><circle fill="#085c49" r="6.25" cx="184.51635899631177" cy="198.40745321809214"/><circle fill="#000201" r="6.25" cx="220.54018031686383" cy="175.8567481855452"/><circle fill="#00484d" r="6.25" cx="16.052535456027968" cy="264.9780835723234"/><circle fill="#035c56" r="6.25" cx="37.20880937473278" cy="228.11805001459686"/><circle fill="#00312a" r="6.25" cx="79.70867177942334" cy="228.0099038987541"/><circle fill="#00493b" r="6.25" cx="101.05226026540903" cy="264.7617913406379"/><circle fill="#001715" r="6.25" cx="79.89598634670419" cy="301.6218248983645"/><circle fill="#003935" r="6.25" cx="37.39612394201364" cy="301.7299710142072"/><circle fill="#011411" r="6.25" cx="-98.58488631855337" cy="122.54703291252848"/><circle fill="#00625c" r="6.25" cx="-60.26634858077146" cy="104.16389755323291"/><circle fill="#000000" r="6.25" cx="-25.18681748952254" cy="128.157156990377"/><circle fill="#003e3f" r="6.25" cx="-28.42582413605556" cy="170.53355178681656"/><circle fill="#000000" r="6.25" cx="-66.7443618738375" cy="188.91668714611217"/><circle fill="#000605" r="6.25" cx="-101.8238929650864" cy="164.92342770896806"/><circle fill="#013427" r="6.25" cx="-28.528628416587722" cy="-60.33414215750722"/><circle fill="#000806" r="6.25" cx="11.083770766788394" cy="-44.935836051416786"/><circle fill="#000605" r="6.25" cx="17.554646095353085" cy="-2.93133900071785"/><circle fill="#002e25" r="6.25" cx="-15.586877759458341" cy="23.674851943890587"/><circle fill="#00333b" r="6.25" cx="-55.19927694283447" cy="8.27654583780015"/><circle fill="#008070" r="6.25" cx="-61.67015227139916" cy="-33.72795121289874"/></g></svg>