<?xml version='1.0' encoding='UTF-8'?>
<svg xmlns="http://www.w3.org/2000/svg" xmlns:svg="http://www.w3.org/2000/svg"><g><path fill="#ff0000" d="M 100.0,100.0 l 10.0 0.0 a 10.0 10.0 0.0 0 1 -10.0,10.0 l -6.123233995736766E-16 -10.0 z"/><path fill="#00ff00" d="M 110.0,100.0 l 10.0 0.0 a 20.0 20.0 0.0 0 1 -20.0,20.0 l -1.7763568394002505E-15 -10.0 a 10.0 10.0 0.0 0 0 10.0,-10.0 z"/><path fill="#0000ff" d="M 120.0,100.0 l 10.0 0.0 a 30.0 30.0 0.0 0 1 -29.999999999999996,30.0 l -3.552713678800501E-15 -10.0 a 20.0 20.0 0.0 0 0 20.0,-20.0 z"/><path fill="#ff0000" d="M 130.0,100.0 l 10.0 0.0 a 40.0 40.0 0.0 0 1 -40.0,40.0 l 0.0 -10.0 a 30.0 30.0 0.0 0 0 29.999999999999996,-30.0 z"/><path fill="#00ff00" d="M 140.0,100.0 l 10.0 0.0 a 50.0 50.0 0.0 0 1 -50.0,50.0 l 0.0 -10.0 a 40.0 40.0 0.0 0 0 40.0,-40.0 z"/><path fill="#0000ff" d="M 150.0,100.0 l 10.0 0.0 a 60.0 60.0 0.0 0 1 -59.99999999999999,60.0 l -7.105427357601002E-15 -10.0 a 50.0 50.0 0.0 0 0 50.0,-50.0 z"/><path fill="#ff0000" d="M 160.0,99.99999999999999 l 10.0 0.0 a 70.0 70.0 0.0 0 1 -70.0,70.0 l 0.0 -10.0 a 60.0 60.0 0.0 0 0 59.99999999999999,-60.0 z"/><path fill="#00ff00" d="M 170.0,99.99999999999999 l 10.0 0.0 a 80.0 80.0 0.0 0 1 -80.0,80.0 l 0.0 -10.0 a 70.0 70.0 0.0 0 0 70.0,-70.0 z"/><path fill="#0000ff" d="M 180.0,99.99999999999999 l 10.0 0.0 a 90.0 90.0 0.0 0 1 -90.0,90.0 l 0.0 -10.0 a 80.0 80.0 0.0 0 0 80.0,-80.0 z"/><path fill="#ff0000" d="M 190.0,99.99999999999999 l 10.0 0.0 a 100.0 100.0 0.0 0 1 -100.0,100.0 l 0.0 -10.0 a 90.0 90.0 0.0 0 0 90.0,-90.0 z"/></g></svg>