<?xml version='1.0' encoding='UTF-8'?>
<svg xmlns="http://www.w3.org/2000/svg" xmlns:svg="http://www.w3.org/2000/svg"><g><path fill="#c5000f" d="M 100.0,100.0 l 86.15097440723275 26.038617641578593 a 90.0 90.0 0.0 0 1 -43.645119305133754,53.291403674688326 l -42.505855102099 -79.33002131626692 z"/><path fill="#7c1201" d="M 100.0,100.0 l 42.50585510209902 79.33002131626691 a 90.0 90.0 0.0 0 1 -68.54447274367763,6.82095309096583 l 26.038617641578615 -86.15097440723274 z"/><path fill="#a40e02" d="M 100.0,100.0 l -26.03861764157859 86.15097440723275 a 90.0 90.0 0.0 0 1 -53.29140367468832,-43.64511930513374 l 79.33002131626691 -42.50585510209901 z"/><path fill="#cb1e00" d="M 100.0,100.0 l -79.33002131626691 42.50585510209903 a 90.0 90.0 0.0 0 1 -6.820953090965844,-68.54447274367763 l 86.15097440723275 26.038617641578607 z"/><path fill="#b50018" d="M 100.0,100.0 l -86.15097440723275 -26.038617641578583 a 90.0 90.0 0.0 0 1 43.6451193051336,-53.29140367468827 l 42.505855102099154 79.33002131626685 z"/><path fill="#000000" d="M 100.0,100.0 l -42.50585510209917 -79.33002131626684 a 90.0 90.0 0.0 0 1 68.54447274367777,-6.820953090965915 l -26.038617641578597 86.15097440723275 z"/><path fill="#000000" d="M 100.0,100.0 l 26.03861764157868 -86.15097440723272 a 90.0 90.0 0.0 0 1 53.291403674688226,43.64511930513371 l -79.33002131626691 42.50585510209901 z"/><path fill="#ff2c1a" d="M 100.0,100.0 l 79.33002131626691 -42.50585510209901 a 90.0 90.0 0.0 0 1 6.820953090965816,68.5444727436777 l -86.15097440723272 -26.038617641578693 z"/><path fill="#290002" d="M 61.101620656335704,18.840181835859255 l -4.322042149296034 -9.017757573793416 a 100.0 100.0 0.0 0 1 99.70628218722638,7.658804893792448 l -5.648586069426614 8.251877084414176 a 90.0 90.0 0.0 0 0 -89.73565396850373,-6.892924404413208 z"/><path fill="#ba0d18" d="M 150.83727462483944,25.733106240272477 l 5.648586069426603 -8.25187708441417 a 100.0 100.0 0.0 0 1 43.220421492960355,90.17757573793423 l -9.970628218722638 -0.7658804893792563 a 90.0 90.0 0.0 0 0 -38.898379343664324,-81.1598181641408 z"/><path fill="#fe002b" d="M 189.73565396850375,106.89292440441325 l 9.97062821872264 0.7658804893792494 a 100.0 100.0 0.0 0 1 -56.48586069426616,82.5187708441417 l -4.322042149296024 -9.017757573793418 a 90.0 90.0 0.0 0 0 50.837274624839544,-74.26689375972754 z"/><path fill="#e96585" d="M 138.89837934366423,181.1598181641408 l 4.322042149296027 9.01775757379342 a 100.0 100.0 0.0 0 1 -99.70628218722631,-7.658804893792494 l 5.6485860694265995 -8.251877084414176 a 90.0 90.0 0.0 0 0 89.73565396850368,6.89292440441325 z"/><path fill="#1c0901" d="M 49.16272537516057,174.26689375972754 l -5.648586069426602 8.251877084414172 a 100.0 100.0 0.0 0 1 -43.22042149296039,-90.17757573793423 l 9.970628218722638 0.7658804893792563 a 90.0 90.0 0.0 0 0 38.89837934366435,81.1598181641408 z"/><path fill="#000000" d="M 10.264346031496245,93.10707559558674 l -9.97062821872264 -0.7658804893792481 a 100.0 100.0 0.0 0 1 56.48586069426615,-82.51877084414173 l 4.322042149296024 9.017757573793418 a 90.0 90.0 0.0 0 0 -50.83727462483954,74.26689375972755 z"/><path fill="#290002" d="M 186.9882254691697,-27.078907099978224 l 5.648586069426603 -8.25187708441417 a 37.0 37.0 0.0 1 1 -41.79953691375687,61.063890424664855 l 5.648586069426607 -8.251877084414161 a 27.0 27.0 0.0 1 0 30.50236477490366,-44.560136255836525 z"/><path fill="#ba0d18" d="M 253.54767456832866,111.79455953644049 l 9.97062821872264 0.7658804893792517 a 37.0 37.0 0.0 1 1 -73.78264881854754,-5.6675156214064595 l 9.970628218722645 0.765880489379251 a 27.0 27.0 0.0 1 0 53.84139238110225,4.135754642647957 z"/><path fill="#fe002b" d="M 166.55944909915877,238.8734666364187 l 4.322042149296025 9.01775757379342 a 37.0 37.0 0.0 1 1 -31.983111904790587,-66.73140604607131 l 4.322042149296024 9.017757573793425 a 27.0 27.0 0.0 1 0 23.339027606198538,48.69589089848447 z"/><path fill="#e96585" d="M 13.01177453083028,227.07890709997824 l -5.648586069426605 8.25187708441417 a 37.0 37.0 0.0 1 1 41.799536913756874,-61.063890424664855 l -5.648586069426607 8.251877084414161 a 27.0 27.0 0.0 1 0 -30.50236477490366,44.560136255836525 z"/><path fill="#1c0901" d="M -53.54767456832868,88.20544046355953 l -9.97062821872264 -0.7658804893792506 a 37.0 37.0 0.0 1 1 73.78264881854753,5.667515621406459 l -9.970628218722638 -0.765880489379251 a 27.0 27.0 0.0 1 0 -53.84139238110225,-4.135754642647957 z"/><path fill="#000000" d="M 33.44055090084122,-38.873466636418726 l -4.322042149296026 -9.01775757379342 a 37.0 37.0 0.0 1 1 31.98311190479059,66.73140604607131 l -4.322042149296024 -9.017757573793425 a 27.0 27.0 0.0 1 0 -23.339027606198538,-48.69589089848447 z"/><path fill="#ffcda6" d="M 186.9882254691697,-27.078907099978224 l -5.870531822506786 -6.821792735119937 a 9.0 9.0 0.0 0 1 6.543174864493259,-2.153036028598466 l -0.672643041986473 8.974828763718403 z"/><path fill="#590017" d="M 186.9882254691697,-27.078907099978224 l 0.672643041986473 -8.974828763718403 a 9.0 9.0 0.0 0 1 6.14914969313347,3.104296941211624 l -6.821792735119943 5.870531822506779 z"/><path fill="#480316" d="M 186.9882254691697,-27.078907099978224 l 6.821792735119943 -5.870531822506779 a 9.0 9.0 0.0 0 1 2.1530360285984598,6.5431748644932535 l -8.974828763718403 -0.6726430419864746 z"/><path fill="#ff2762" d="M 186.9882254691697,-27.078907099978224 l 8.974828763718403 0.6726430419864724 a 9.0 9.0 0.0 0 1 -3.1042969412116195,6.149149693133467 l -5.870531822506783 -6.821792735119939 z"/><path fill="#ffedf0" d="M 186.9882254691697,-27.078907099978224 l 5.870531822506785 6.8217927351199386 a 9.0 9.0 0.0 0 1 -6.543174864493259,2.153036028598464 l 0.672643041986474 -8.974828763718403 z"/><path fill="#fe0b4e" d="M 186.9882254691697,-27.078907099978224 l -0.6726430419864718 8.974828763718403 a 9.0 9.0 0.0 0 1 -6.149149693133477,-3.104296941211631 l 6.821792735119949 -5.870531822506772 z"/><path fill="#ff1c06" d="M 186.9882254691697,-27.078907099978224 l -6.821792735119948 5.8705318225067735 a 9.0 9.0 0.0 0 1 -2.1530360285984544,-6.543174864493247 l 8.974828763718403 0.6726430419864735 z"/><path fill="#000000" d="M 186.9882254691697,-27.078907099978224 l -8.974828763718403 -0.6726430419864712 a 9.0 9.0 0.0 0 1 3.1042969412116186,-6.1491496931334675 l 5.870531822506784 6.8217927351199386 z"/><path fill="#c5000f" d="M 100.0,100.0 l 86.15097440723275 26.038617641578593 a 90.0 90.0 0.0 0 1 -43.645119305133754,53.291403674688326 l -42.505855102099 -79.33002131626692 z"/><path fill="#7c1201" d="M 100.0,100.0 l 42.50585510209902 79.33002131626691 a 90.0 90.0 0.0 0 1 -68.54447274367763,6.82095309096583 l 26.038617641578615 -86.15097440723274 z"/><path fill="#a40e02" d="M 100.0,100.0 l -26.03861764157859 86.15097440723275 a 90.0 90.0 0.0 0 1 -53.29140367468832,-43.64511930513374 l 79.33002131626691 -42.50585510209901 z"/><path fill="#cb1e00" d="M 100.0,100.0 l -79.33002131626691 42.50585510209903 a 90.0 90.0 0.0 0 1 -6.820953090965844,-68.54447274367763 l 86.15097440723275 26.038617641578607 z"/><path fill="#b50018" d="M 100.0,100.0 l -86.15097440723275 -26.038617641578583 a 90.0 90.0 0.0 0 1 43.6451193051336,-53.29140367468827 l 42.505855102099154 79.33002131626685 z"/><path fill="#000000" d="M 100.0,100.0 l -42.50585510209917 -79.33002131626684 a 90.0 90.0 0.0 0 1 68.54447274367777,-6.820953090965915 l -26.038617641578597 86.15097440723275 z"/><path fill="#000000" d="M 100.0,100.0 l 26.03861764157868 -86.15097440723272 a 90.0 90.0 0.0 0 1 53.291403674688226,43.64511930513371 l -79.33002131626691 42.50585510209901 z"/><path fill="#ff2c1a" d="M 100.0,100.0 l 79.33002131626691 -42.50585510209901 a 90.0 90.0 0.0 0 1 6.820953090965816,68.5444727436777 l -86.15097440723272 -26.038617641578693 z"/><path fill="#290002" d="M 61.101620656335704,18.840181835859255 l -4.322042149296034 -9.017757573793416 a 100.0 100.0 0.0 0 1 99.70628218722638,7.658804893792448 l -5.648586069426614 8.251877084414176 a 90.0 90.0 0.0 0 0 -89.73565396850373,-6.892924404413208 z"/><path fill="#ba0d18" d="M 150.83727462483944,25.733106240272477 l 5.648586069426603 -8.25187708441417 a 100.0 100.0 0.0 0 1 43.220421492960355,90.17757573793423 l -9.970628218722638 -0.7658804893792563 a 90.0 90.0 0.0 0 0 -38.898379343664324,-81.1598181641408 z"/><path fill="#fe002b" d="M 189.73565396850375,106.89292440441325 l 9.97062821872264 0.7658804893792494 a 100.0 100.0 0.0 0 1 -56.48586069426616,82.5187708441417 l -4.322042149296024 -9.017757573793418 a 90.0 90.0 0.0 0 0 50.837274624839544,-74.26689375972754 z"/><path fill="#e96585" d="M 138.89837934366423,181.1598181641408 l 4.322042149296027 9.01775757379342 a 100.0 100.0 0.0 0 1 -99.70628218722631,-7.658804893792494 l 5.6485860694265995 -8.251877084414176 a 90.0 90.0 0.0 0 0 89.73565396850368,6.89292440441325 z"/><path fill="#1c0901" d="M 49.16272537516057,174.26689375972754 l -5.648586069426602 8.251877084414172 a 100.0 100.0 0.0 0 1 -43.22042149296039,-90.17757573793423 l 9.970628218722638 0.7658804893792563 a 90.0 90.0 0.0 0 0 38.89837934366435,81.1598181641408 z"/><path fill="#000000" d="M 10.264346031496245,93.10707559558674 l -9.97062821872264 -0.7658804893792481 a 100.0 100.0 0.0 0 1 56.48586069426615,-82.51877084414173 l 4.322042149296024 9.017757573793418 a 90.0 90.0 0.0 0 0 -50.83727462483954,74.26689375972755 z"/><path fill="#290002" d="M 186.9882254691697,-27.078907099978224 l 5.648586069426603 -8.25187708441417 a 37.0 37.0 0.0 1 1 -41.79953691375687,61.063890424664855 l 5.648586069426607 -8.251877084414161 a 27.0 27.0 0.0 1 0 30.50236477490366,-44.560136255836525 z"/><path fill="#ba0d18" d="M 253.54767456832866,111.79455953644049 l 9.97062821872264 0.7658804893792517 a 37.0 37.0 0.0 1 1 -73.78264881854754,-5.6675156214064595 l 9.970628218722645 0.765880489379251 a 27.0 27.0 0.0 1 0 53.84139238110225,4.135754642647957 z"/><path fill="#fe002b" d="M 166.55944909915877,238.8734666364187 l 4.322042149296025 9.01775757379342 a 37.0 37.0 0.0 1 1 -31.983111904790587,-66.73140604607131 l 4.322042149296024 9.017757573793425 a 27.0 27.0 0.0 1 0 23.339027606198538,48.69589089848447 z"/><path fill="#e96585" d="M 13.01177453083028,227.07890709997824 l -5.648586069426605 8.25187708441417 a 37.0 37.0 0.0 1 1 41.799536913756874,-61.063890424664855 l -5.648586069426607 8.251877084414161 a 27.0 27.0 0.0 1 0 -30.50236477490366,44.560136255836525 z"/><path fill="#1c0901" d="M -53.54767456832868,88.20544046355953 l -9.97062821872264 -0.7658804893792506 a 37.0 37.0 0.0 1 1 73.78264881854753,5.667515621406459 l -9.970628218722638 -0.765880489379251 a 27.0 27.0 0.0 1 0 -53.84139238110225,-4.135754642647957 z"/><path fill="#000000" d="M 33.44055090084122,-38.873466636418726 l -4.322042149296026 -9.01775757379342 a 37.0 37.0 0.0 1 1 31.98311190479059,66.73140604607131 l -4.322042149296024 -9.017757573793425 a 27.0 27.0 0.0 1 0 -23.339027606198538,-48.69589089848447 z"/><path fill="#db000e" d="M 193.69341748406157,-21.07554137370183 l 0.7450213349879871 0.667040636252933 a 10.0 10.0 0.0 0 1 -9.501848038455686,3.116870843345265 l 0.20516346885758097 -0.9787277205874592 a 9.0 9.0 0.0 0 0 8.551663234610118,-2.805183759010739 z"/><path fill="#0c0003" d="M 185.14175424945145,-18.270357614691086 l -0.20516346885758133 0.9787277205874595 a 10.0 10.0 0.0 0 1 -7.450213349879874,-6.670406362529334 l 0.950184803845568 -0.3116870843345261 a 9.0 9.0 0.0 0 0 6.705192014891887,6.003365726276401 z"/><path fill="#170106" d="M 178.43656223455957,-24.27372334096749 l -0.9501848038455687 0.3116870843345263 a 10.0 10.0 0.0 0 1 2.0516346885758114,-9.787277205874586 l 0.745021334987988 0.6670406362529331 a 9.0 9.0 0.0 0 0 -1.8464712197182305,8.808549485287127 z"/><path fill="#ffa77f" d="M 180.2830334542778,-33.082272826254616 l -0.7450213349879877 -0.6670406362529322 a 10.0 10.0 0.0 0 1 9.501848038455691,-3.116870843345273 l -0.20516346885758097 0.9787277205874592 a 9.0 9.0 0.0 0 0 -8.551663234610123,2.8051837590107462 z"/><path fill="#fdeced" d="M 188.83469668888793,-35.88745658526536 l 0.2051634688575812 -0.9787277205874596 a 10.0 10.0 0.0 0 1 7.450213349879876,6.670406362529334 l -0.950184803845568 0.3116870843345261 a 9.0 9.0 0.0 0 0 -6.705192014891889,-6.0033657262764 z"/><path fill="#ffffff" d="M 195.5398887037798,-29.88409085898896 l 0.9501848038455688 -0.3116870843345262 a 10.0 10.0 0.0 0 1 -2.0516346885758256,9.7872772058746 l -0.7450213349879862 -0.6670406362529331 a 9.0 9.0 0.0 0 0 1.846471219718243,-8.808549485287141 z"/><path fill="#db000e" d="M 183.82870804876293,-12.006500202931353 l -0.20516346885758155 0.9787277205874595 a 3.6999999999999997 3.6999999999999997 0.0 1 1 1.518209669546103,-7.2425851323472 l -0.2051634688575814 0.97872772058746 a 2.6999999999999997 2.6999999999999997 0.0 1 0 -1.1078827318309399,5.285129691172281 z"/><path fill="#0c0003" d="M 172.35537948994792,-22.27892600122652 l -0.9501848038455688 0.311687084334526 a 3.6999999999999997 3.6999999999999997 0.0 1 1 7.031367548457209,-2.306484424075493 l -0.9501848038455689 0.3116870843345263 a 2.6999999999999997 2.6999999999999997 0.0 1 0 -5.130997940766071,1.6831102554064408 z"/><path fill="#170106" d="M 175.51489691035468,-37.351332898273384 l -0.7450213349879875 -0.6670406362529324 a 3.6999999999999997 3.6999999999999997 0.0 1 1 5.513157878911107,4.9361007082717 l -0.745021334987988 -0.6670406362529322 a 2.6999999999999997 2.6999999999999997 0.0 1 0 -4.023115208935131,-3.6020194357658353 z"/><path fill="#ffa77f" d="M 190.14774288957645,-42.1513139970251 l 0.20516346885758144 -0.9787277205874595 a 3.6999999999999997 3.6999999999999997 0.0 1 1 -1.518209669546103,7.2425851323472 l 0.20516346885758163 -0.97872772058746 a 2.6999999999999997 2.6999999999999997 0.0 1 0 1.1078827318309399,-5.285129691172281 z"/><path fill="#fdeced" d="M 201.62107144839146,-31.87888819872993 l 0.9501848038455688 -0.3116870843345262 a 3.6999999999999997 3.6999999999999997 0.0 1 1 -7.031367548457209,2.3064844240754927 l 0.9501848038455689 -0.31168708433452585 a 2.6999999999999997 2.6999999999999997 0.0 1 0 5.130997940766071,-1.6831102554064408 z"/><path fill="#ffffff" d="M 198.46155402798468,-16.806481301683043 l 0.7450213349879863 0.6670406362529339 a 3.6999999999999997 3.6999999999999997 0.0 1 1 -5.513157878911098,-4.93610070827171 l 0.7450213349879862 0.667040636252934 a 2.6999999999999997 2.6999999999999997 0.0 1 0 4.023115208935126,3.6020194357658424 z"/><path fill="#c5000f" d="M 100.0,100.0 l 86.15097440723275 26.038617641578593 a 90.0 90.0 0.0 0 1 -43.645119305133754,53.291403674688326 l -42.505855102099 -79.33002131626692 z"/><path fill="#7c1201" d="M 100.0,100.0 l 42.50585510209902 79.33002131626691 a 90.0 90.0 0.0 0 1 -68.54447274367763,6.82095309096583 l 26.038617641578615 -86.15097440723274 z"/><path fill="#a40e02" d="M 100.0,100.0 l -26.03861764157859 86.15097440723275 a 90.0 90.0 0.0 0 1 -53.29140367468832,-43.64511930513374 l 79.33002131626691 -42.50585510209901 z"/><path fill="#cb1e00" d="M 100.0,100.0 l -79.33002131626691 42.50585510209903 a 90.0 90.0 0.0 0 1 -6.820953090965844,-68.54447274367763 l 86.15097440723275 26.038617641578607 z"/><path fill="#b50018" d="M 100.0,100.0 l -86.15097440723275 -26.038617641578583 a 90.0 90.0 0.0 0 1 43.6451193051336,-53.29140367468827 l 42.505855102099154 79.33002131626685 z"/><path fill="#000000" d="M 100.0,100.0 l -42.50585510209917 -79.33002131626684 a 90.0 90.0 0.0 0 1 68.54447274367777,-6.820953090965915 l -26.038617641578597 86.15097440723275 z"/><path fill="#000000" d="M 100.0,100.0 l 26.03861764157868 -86.15097440723272 a 90.0 90.0 0.0 0 1 53.291403674688226,43.64511930513371 l -79.33002131626691 42.50585510209901 z"/><path fill="#ff2c1a" d="M 100.0,100.0 l 79.33002131626691 -42.50585510209901 a 90.0 90.0 0.0 0 1 6.820953090965816,68.5444727436777 l -86.15097440723272 -26.038617641578693 z"/><path fill="#290002" d="M 61.101620656335704,18.840181835859255 l -4.322042149296034 -9.017757573793416 a 100.0 100.0 0.0 0 1 99.70628218722638,7.658804893792448 l -5.648586069426614 8.251877084414176 a 90.0 90.0 0.0 0 0 -89.73565396850373,-6.892924404413208 z"/><path fill="#ba0d18" d="M 150.83727462483944,25.733106240272477 l 5.648586069426603 -8.25187708441417 a 100.0 100.0 0.0 0 1 43.220421492960355,90.17757573793423 l -9.970628218722638 -0.7658804893792563 a 90.0 90.0 0.0 0 0 -38.898379343664324,-81.1598181641408 z"/><path fill="#fe002b" d="M 189.73565396850375,106.89292440441325 l 9.97062821872264 0.7658804893792494 a 100.0 100.0 0.0 0 1 -56.48586069426616,82.5187708441417 l -4.322042149296024 -9.017757573793418 a 90.0 90.0 0.0 0 0 50.837274624839544,-74.26689375972754 z"/><path fill="#e96585" d="M 138.89837934366423,181.1598181641408 l 4.322042149296027 9.01775757379342 a 100.0 100.0 0.0 0 1 -99.70628218722631,-7.658804893792494 l 5.6485860694265995 -8.251877084414176 a 90.0 90.0 0.0 0 0 89.73565396850368,6.89292440441325 z"/><path fill="#1c0901" d="M 49.16272537516057,174.26689375972754 l -5.648586069426602 8.251877084414172 a 100.0 100.0 0.0 0 1 -43.22042149296039,-90.17757573793423 l 9.970628218722638 0.7658804893792563 a 90.0 90.0 0.0 0 0 38.89837934366435,81.1598181641408 z"/><path fill="#000000" d="M 10.264346031496245,93.10707559558674 l -9.97062821872264 -0.7658804893792481 a 100.0 100.0 0.0 0 1 56.48586069426615,-82.51877084414173 l 4.322042149296024 9.017757573793418 a 90.0 90.0 0.0 0 0 -50.83727462483954,74.26689375972755 z"/><path fill="#290002" d="M 186.9882254691697,-27.078907099978224 l 5.648586069426603 -8.25187708441417 a 37.0 37.0 0.0 1 1 -41.79953691375687,61.063890424664855 l 5.648586069426607 -8.251877084414161 a 27.0 27.0 0.0 1 0 30.50236477490366,-44.560136255836525 z"/><path fill="#ba0d18" d="M 253.54767456832866,111.79455953644049 l 9.97062821872264 0.7658804893792517 a 37.0 37.0 0.0 1 1 -73.78264881854754,-5.6675156214064595 l 9.970628218722645 0.765880489379251 a 27.0 27.0 0.0 1 0 53.84139238110225,4.135754642647957 z"/><path fill="#fe002b" d="M 166.55944909915877,238.8734666364187 l 4.322042149296025 9.01775757379342 a 37.0 37.0 0.0 1 1 -31.983111904790587,-66.73140604607131 l 4.322042149296024 9.017757573793425 a 27.0 27.0 0.0 1 0 23.339027606198538,48.69589089848447 z"/><path fill="#e96585" d="M 13.01177453083028,227.07890709997824 l -5.648586069426605 8.25187708441417 a 37.0 37.0 0.0 1 1 41.799536913756874,-61.063890424664855 l -5.648586069426607 8.251877084414161 a 27.0 27.0 0.0 1 0 -30.50236477490366,44.560136255836525 z"/><path fill="#1c0901" d="M -53.54767456832868,88.20544046355953 l -9.97062821872264 -0.7658804893792506 a 37.0 37.0 0.0 1 1 73.78264881854753,5.667515621406459 l -9.970628218722638 -0.765880489379251 a 27.0 27.0 0.0 1 0 -53.84139238110225,-4.135754642647957 z"/><path fill="#000000" d="M 33.44055090084122,-38.873466636418726 l -4.322042149296026 -9.01775757379342 a 37.0 37.0 0.0 1 1 31.98311190479059,66.73140604607131 l -4.322042149296024 -9.017757573793425 a 27.0 27.0 0.0 1 0 -23.339027606198538,-48.69589089848447 z"/><path fill="#391100" d="M 253.54767456832866,111.79455953644049 l 8.686436095285893 2.3549581657673553 a 9.0 9.0 0.0 0 1 -4.209405116390374,5.452486589977628 l -4.477030978895519 -7.807444755744983 z"/><path fill="#d51113" d="M 253.54767456832866,111.79455953644049 l 4.477030978895521 7.8074447557449815 a 9.0 9.0 0.0 0 1 -6.831989144662878,0.8789913395409119 l 2.354958165767357 -8.686436095285893 z"/><path fill="#fed2c7" d="M 253.54767456832866,111.79455953644049 l -2.354958165767355 8.686436095285893 a 9.0 9.0 0.0 0 1 -5.452486589977632,-4.209405116390381 l 7.807444755744987 -4.477030978895512 z"/><path fill="#fe1f1c" d="M 253.54767456832866,111.79455953644049 l -7.807444755744985 4.477030978895515 a 9.0 9.0 0.0 0 1 -0.8789913395409084,-6.831989144662871 l 8.686436095285893 2.354958165767356 z"/><path fill="#000000" d="M 253.54767456832866,111.79455953644049 l -8.686436095285893 -2.3549581657673597 a 9.0 9.0 0.0 0 1 4.20940511639038,-5.452486589977626 l 4.477030978895513 7.807444755744986 z"/><path fill="#6b1b11" d="M 253.54767456832866,111.79455953644049 l -4.477030978895513 -7.807444755744986 a 9.0 9.0 0.0 0 1 6.831989144662876,-0.8789913395409057 l -2.3549581657673633 8.686436095285892 z"/><path fill="#000000" d="M 253.54767456832866,111.79455953644049 l 2.3549581657673633 -8.686436095285892 a 9.0 9.0 0.0 0 1 5.452486589977623,4.2094051163903785 l -7.807444755744986 4.477030978895513 z"/><path fill="#2f0110" d="M 253.54767456832866,111.79455953644049 l 7.807444755744986 -4.477030978895513 a 9.0 9.0 0.0 0 1 0.8789913395409075,6.83198914466287 l -8.686436095285893 -2.3549581657673575 z"/><path fill="#c5000f" d="M 100.0,100.0 l 86.15097440723275 26.038617641578593 a 90.0 90.0 0.0 0 1 -43.645119305133754,53.291403674688326 l -42.505855102099 -79.33002131626692 z"/><path fill="#7c1201" d="M 100.0,100.0 l 42.50585510209902 79.33002131626691 a 90.0 90.0 0.0 0 1 -68.54447274367763,6.82095309096583 l 26.038617641578615 -86.15097440723274 z"/><path fill="#a40e02" d="M 100.0,100.0 l -26.03861764157859 86.15097440723275 a 90.0 90.0 0.0 0 1 -53.29140367468832,-43.64511930513374 l 79.33002131626691 -42.50585510209901 z"/><path fill="#cb1e00" d="M 100.0,100.0 l -79.33002131626691 42.50585510209903 a 90.0 90.0 0.0 0 1 -6.820953090965844,-68.54447274367763 l 86.15097440723275 26.038617641578607 z"/><path fill="#b50018" d="M 100.0,100.0 l -86.15097440723275 -26.038617641578583 a 90.0 90.0 0.0 0 1 43.6451193051336,-53.29140367468827 l 42.505855102099154 79.33002131626685 z"/><path fill="#000000" d="M 100.0,100.0 l -42.50585510209917 -79.33002131626684 a 90.0 90.0 0.0 0 1 68.54447274367777,-6.820953090965915 l -26.038617641578597 86.15097440723275 z"/><path fill="#000000" d="M 100.0,100.0 l 26.03861764157868 -86.15097440723272 a 90.0 90.0 0.0 0 1 53.291403674688226,43.64511930513371 l -79.33002131626691 42.50585510209901 z"/><path fill="#ff2c1a" d="M 100.0,100.0 l 79.33002131626691 -42.50585510209901 a 90.0 90.0 0.0 0 1 6.820953090965816,68.5444727436777 l -86.15097440723272 -26.038617641578693 z"/><path fill="#290002" d="M 61.101620656335704,18.840181835859255 l -4.322042149296034 -9.017757573793416 a 100.0 100.0 0.0 0 1 99.70628218722638,7.658804893792448 l -5.648586069426614 8.251877084414176 a 90.0 90.0 0.0 0 0 -89.73565396850373,-6.892924404413208 z"/><path fill="#ba0d18" d="M 150.83727462483944,25.733106240272477 l 5.648586069426603 -8.25187708441417 a 100.0 100.0 0.0 0 1 43.220421492960355,90.17757573793423 l -9.970628218722638 -0.7658804893792563 a 90.0 90.0 0.0 0 0 -38.898379343664324,-81.1598181641408 z"/><path fill="#fe002b" d="M 189.73565396850375,106.89292440441325 l 9.97062821872264 0.7658804893792494 a 100.0 100.0 0.0 0 1 -56.48586069426616,82.5187708441417 l -4.322042149296024 -9.017757573793418 a 90.0 90.0 0.0 0 0 50.837274624839544,-74.26689375972754 z"/><path fill="#e96585" d="M 138.89837934366423,181.1598181641408 l 4.322042149296027 9.01775757379342 a 100.0 100.0 0.0 0 1 -99.70628218722631,-7.658804893792494 l 5.6485860694265995 -8.251877084414176 a 90.0 90.0 0.0 0 0 89.73565396850368,6.89292440441325 z"/><path fill="#1c0901" d="M 49.16272537516057,174.26689375972754 l -5.648586069426602 8.251877084414172 a 100.0 100.0 0.0 0 1 -43.22042149296039,-90.17757573793423 l 9.970628218722638 0.7658804893792563 a 90.0 90.0 0.0 0 0 38.89837934366435,81.1598181641408 z"/><path fill="#000000" d="M 10.264346031496245,93.10707559558674 l -9.97062821872264 -0.7658804893792481 a 100.0 100.0 0.0 0 1 56.48586069426615,-82.51877084414173 l 4.322042149296024 9.017757573793418 a 90.0 90.0 0.0 0 0 -50.83727462483954,74.26689375972755 z"/><path fill="#290002" d="M 186.9882254691697,-27.078907099978224 l 5.648586069426603 -8.25187708441417 a 37.0 37.0 0.0 1 1 -41.79953691375687,61.063890424664855 l 5.648586069426607 -8.251877084414161 a 27.0 27.0 0.0 1 0 30.50236477490366,-44.560136255836525 z"/><path fill="#ba0d18" d="M 253.54767456832866,111.79455953644049 l 9.97062821872264 0.7658804893792517 a 37.0 37.0 0.0 1 1 -73.78264881854754,-5.6675156214064595 l 9.970628218722645 0.765880489379251 a 27.0 27.0 0.0 1 0 53.84139238110225,4.135754642647957 z"/><path fill="#fe002b" d="M 166.55944909915877,238.8734666364187 l 4.322042149296025 9.01775757379342 a 37.0 37.0 0.0 1 1 -31.983111904790587,-66.73140604607131 l 4.322042149296024 9.017757573793425 a 27.0 27.0 0.0 1 0 23.339027606198538,48.69589089848447 z"/><path fill="#e96585" d="M 13.01177453083028,227.07890709997824 l -5.648586069426605 8.25187708441417 a 37.0 37.0 0.0 1 1 41.799536913756874,-61.063890424664855 l -5.648586069426607 8.251877084414161 a 27.0 27.0 0.0 1 0 -30.50236477490366,44.560136255836525 z"/><path fill="#1c0901" d="M -53.54767456832868,88.20544046355953 l -9.97062821872264 -0.7658804893792506 a 37.0 37.0 0.0 1 1 73.78264881854753,5.667515621406459 l -9.970628218722638 -0.765880489379251 a 27.0 27.0 0.0 1 0 -53.84139238110225,-4.135754642647957 z"/><path fill="#000000" d="M 33.44055090084122,-38.873466636418726 l -4.322042149296026 -9.01775757379342 a 37.0 37.0 0.0 1 1 31.98311190479059,66.73140604607131 l -4.322042149296024 -9.017757573793425 a 27.0 27.0 0.0 1 0 -23.339027606198538,-48.69589089848447 z"/><path fill="#570b00" d="M 246.26884785072775,117.08782711092974 l -0.808758524177878 0.5881408416099164 a 10.0 10.0 0.0 0 1 -1.0496564774840804,-9.944758482702124 l 0.913724171926285 0.40633500666029576 a 9.0 9.0 0.0 0 0 0.9446908297356735,8.950282634431911 z"/><path fill="#f5722a" d="M 245.3241570209921,108.13754447649782 l -0.9137241719262862 -0.40633500666029576 a 10.0 10.0 0.0 0 1 8.087585241778791,-5.881408416099161 l 0.10496564774840689 0.994475848270211 a 9.0 9.0 0.0 0 0 -7.278826717600912,5.293267574489246 z"/><path fill="#000000" d="M 252.602983738593,102.84427690200857 l -0.10496564774840732 -0.9944758482702117 a 10.0 10.0 0.0 0 1 9.137241719262855,4.063350066602955 l -0.808758524177879 0.5881408416099161 a 9.0 9.0 0.0 0 0 -8.223517547336568,-3.657015059942659 z"/><path fill="#490b01" d="M 260.82650128592957,106.50129196195124 l 0.8087585241778786 -0.5881408416099155 a 10.0 10.0 0.0 0 1 1.0496564774840738,9.944758482702115 l -0.913724171926285 -0.40633500666029576 a 9.0 9.0 0.0 0 0 -0.9446908297356673,-8.950282634431904 z"/><path fill="#840008" d="M 261.77119211566526,115.45157459638315 l 0.9137241719262861 0.40633500666029587 a 10.0 10.0 0.0 0 1 -8.0875852417788,5.881408416099162 l -0.104965647748406 -0.9944758482702127 a 9.0 9.0 0.0 0 0 7.2788267176009205,-5.293267574489245 z"/><path fill="#ff6580" d="M 254.49236539806432,120.7448421708724 l 0.10496564774840632 0.9944758482702118 a 10.0 10.0 0.0 0 1 -9.137241719262844,-4.063350066602958 l 0.808758524177879 -0.5881408416099161 a 9.0 9.0 0.0 0 0 8.22351754733656,3.657015059942662 z"/><path fill="#570b00" d="M 239.47632232066385,105.53700043387192 l -0.9137241719262861 -0.406335006660296 a 3.6999999999999997 3.6999999999999997 0.0 1 1 6.761558872254516,3.00687904928619 l -0.9137241719262859 -0.40633500666029576 a 2.6999999999999997 2.6999999999999997 0.0 1 0 -4.934110528401944,-2.1942090359655984 z"/><path fill="#f5722a" d="M 251.9312035930032,96.47963147307922 l -0.10496564774840707 -0.9944758482702118 a 3.6999999999999997 3.6999999999999997 0.0 1 1 0.7767457933382119,7.359121277199567 l -0.104965647748407 -0.9944758482702118 a 2.6999999999999997 2.6999999999999997 0.0 1 0 -0.5668144978413978,-5.370169580659144 z"/><path fill="#000000" d="M 266.002555840668,102.73719057564777 l 0.8087585241778781 -0.5881408416099163 a 3.6999999999999997 3.6999999999999997 0.0 1 1 -5.984813078916297,4.35224222791338 l 0.8087585241778781 -0.5881408416099161 a 2.6999999999999997 2.6999999999999997 0.0 1 0 4.367296030560541,-3.1759605446935475 z"/><path fill="#490b01" d="M 267.61902681599344,118.05211863900904 l 0.9137241719262861 0.4063350066602961 a 3.6999999999999997 3.6999999999999997 0.0 1 1 -6.761558872254516,-3.0068790492861903 l 0.9137241719262859 0.40633500666029576 a 2.6999999999999997 2.6999999999999997 0.0 1 0 4.934110528401944,2.1942090359655984 z"/><path fill="#840008" d="M 255.16414554365414,127.10948759980175 l 0.10496564774840607 0.994475848270212 a 3.6999999999999997 3.6999999999999997 0.0 1 1 -0.7767457933382054,-7.359121277199567 l 0.10496564774840622 0.9944758482702118 a 2.6999999999999997 2.6999999999999997 0.0 1 0 0.566814497841393,5.370169580659144 z"/><path fill="#ff6580" d="M 241.09279329598934,120.8519284972332 l -0.8087585241778781 0.5881408416099162 a 3.6999999999999997 3.6999999999999997 0.0 1 1 5.984813078916297,-4.35224222791338 l -0.8087585241778781 0.5881408416099161 a 2.6999999999999997 2.6999999999999997 0.0 1 0 -4.367296030560541,3.1759605446935475 z"/><path fill="#c5000f" d="M 100.0,100.0 l 86.15097440723275 26.038617641578593 a 90.0 90.0 0.0 0 1 -43.645119305133754,53.291403674688326 l -42.505855102099 -79.33002131626692 z"/><path fill="#7c1201" d="M 100.0,100.0 l 42.50585510209902 79.33002131626691 a 90.0 90.0 0.0 0 1 -68.54447274367763,6.82095309096583 l 26.038617641578615 -86.15097440723274 z"/><path fill="#a40e02" d="M 100.0,100.0 l -26.03861764157859 86.15097440723275 a 90.0 90.0 0.0 0 1 -53.29140367468832,-43.64511930513374 l 79.33002131626691 -42.50585510209901 z"/><path fill="#cb1e00" d="M 100.0,100.0 l -79.33002131626691 42.50585510209903 a 90.0 90.0 0.0 0 1 -6.820953090965844,-68.54447274367763 l 86.15097440723275 26.038617641578607 z"/><path fill="#b50018" d="M 100.0,100.0 l -86.15097440723275 -26.038617641578583 a 90.0 90.0 0.0 0 1 43.6451193051336,-53.29140367468827 l 42.505855102099154 79.33002131626685 z"/><path fill="#000000" d="M 100.0,100.0 l -42.50585510209917 -79.33002131626684 a 90.0 90.0 0.0 0 1 68.54447274367777,-6.820953090965915 l -26.038617641578597 86.15097440723275 z"/><path fill="#000000" d="M 100.0,100.0 l 26.03861764157868 -86.15097440723272 a 90.0 90.0 0.0 0 1 53.291403674688226,43.64511930513371 l -79.33002131626691 42.50585510209901 z"/><path fill="#ff2c1a" d="M 100.0,100.0 l 79.33002131626691 -42.50585510209901 a 90.0 90.0 0.0 0 1 6.820953090965816,68.5444727436777 l -86.15097440723272 -26.038617641578693 z"/><path fill="#290002" d="M 61.101620656335704,18.840181835859255 l -4.322042149296034 -9.017757573793416 a 100.0 100.0 0.0 0 1 99.70628218722638,7.658804893792448 l -5.648586069426614 8.251877084414176 a 90.0 90.0 0.0 0 0 -89.73565396850373,-6.892924404413208 z"/><path fill="#ba0d18" d="M 150.83727462483944,25.733106240272477 l 5.648586069426603 -8.25187708441417 a 100.0 100.0 0.0 0 1 43.220421492960355,90.17757573793423 l -9.970628218722638 -0.7658804893792563 a 90.0 90.0 0.0 0 0 -38.898379343664324,-81.1598181641408 z"/><path fill="#fe002b" d="M 189.73565396850375,106.89292440441325 l 9.97062821872264 0.7658804893792494 a 100.0 100.0 0.0 0 1 -56.48586069426616,82.5187708441417 l -4.322042149296024 -9.017757573793418 a 90.0 90.0 0.0 0 0 50.837274624839544,-74.26689375972754 z"/><path fill="#e96585" d="M 138.89837934366423,181.1598181641408 l 4.322042149296027 9.01775757379342 a 100.0 100.0 0.0 0 1 -99.70628218722631,-7.658804893792494 l 5.6485860694265995 -8.251877084414176 a 90.0 90.0 0.0 0 0 89.73565396850368,6.89292440441325 z"/><path fill="#1c0901" d="M 49.16272537516057,174.26689375972754 l -5.648586069426602 8.251877084414172 a 100.0 100.0 0.0 0 1 -43.22042149296039,-90.17757573793423 l 9.970628218722638 0.7658804893792563 a 90.0 90.0 0.0 0 0 38.89837934366435,81.1598181641408 z"/><path fill="#000000" d="M 10.264346031496245,93.10707559558674 l -9.97062821872264 -0.7658804893792481 a 100.0 100.0 0.0 0 1 56.48586069426615,-82.51877084414173 l 4.322042149296024 9.017757573793418 a 90.0 90.0 0.0 0 0 -50.83727462483954,74.26689375972755 z"/><path fill="#290002" d="M 186.9882254691697,-27.078907099978224 l 5.648586069426603 -8.25187708441417 a 37.0 37.0 0.0 1 1 -41.79953691375687,61.063890424664855 l 5.648586069426607 -8.251877084414161 a 27.0 27.0 0.0 1 0 30.50236477490366,-44.560136255836525 z"/><path fill="#ba0d18" d="M 253.54767456832866,111.79455953644049 l 9.97062821872264 0.7658804893792517 a 37.0 37.0 0.0 1 1 -73.78264881854754,-5.6675156214064595 l 9.970628218722645 0.765880489379251 a 27.0 27.0 0.0 1 0 53.84139238110225,4.135754642647957 z"/><path fill="#fe002b" d="M 166.55944909915877,238.8734666364187 l 4.322042149296025 9.01775757379342 a 37.0 37.0 0.0 1 1 -31.983111904790587,-66.73140604607131 l 4.322042149296024 9.017757573793425 a 27.0 27.0 0.0 1 0 23.339027606198538,48.69589089848447 z"/><path fill="#e96585" d="M 13.01177453083028,227.07890709997824 l -5.648586069426605 8.25187708441417 a 37.0 37.0 0.0 1 1 41.799536913756874,-61.063890424664855 l -5.648586069426607 8.251877084414161 a 27.0 27.0 0.0 1 0 -30.50236477490366,44.560136255836525 z"/><path fill="#1c0901" d="M -53.54767456832868,88.20544046355953 l -9.97062821872264 -0.7658804893792506 a 37.0 37.0 0.0 1 1 73.78264881854753,5.667515621406459 l -9.970628218722638 -0.765880489379251 a 27.0 27.0 0.0 1 0 -53.84139238110225,-4.135754642647957 z"/><path fill="#000000" d="M 33.44055090084122,-38.873466636418726 l -4.322042149296026 -9.01775757379342 a 37.0 37.0 0.0 1 1 31.98311190479059,66.73140604607131 l -4.322042149296024 -9.017757573793425 a 27.0 27.0 0.0 1 0 -23.339027606198538,-48.69589089848447 z"/><path fill="#fec4aa" d="M 166.55944909915877,238.8734666364187 l -8.590944409365953 2.682475378299656 a 9.0 9.0 0.0 0 1 0.619432830344997,-6.860393896597353 l 7.971511579020956 4.177918518297697 z"/><path fill="#000000" d="M 166.55944909915877,238.8734666364187 l -7.971511579020957 -4.177918518297695 a 9.0 9.0 0.0 0 1 5.289036200721287,-4.413025891068253 l 2.68247537829967 8.590944409365948 z"/><path fill="#000000" d="M 166.55944909915877,238.8734666364187 l -2.682475378299662 -8.59094440936595 a 9.0 9.0 0.0 0 1 6.860393896597344,0.6194328303449854 l -4.177918518297682 7.971511579020964 z"/><path fill="#f80854" d="M 166.55944909915877,238.8734666364187 l 4.177918518297682 -7.971511579020964 a 9.0 9.0 0.0 0 1 4.413025891068267,5.289036200721302 l -8.59094440936595 2.6824753782996624 z"/><path fill="#c80132" d="M 166.55944909915877,238.8734666364187 l 8.59094440936595 -2.6824753782996624 a 9.0 9.0 0.0 0 1 -0.6194328303449872,6.860393896597346 l -7.971511579020962 -4.177918518297684 z"/><path fill="#e10021" d="M 166.55944909915877,238.8734666364187 l 7.971511579020964 4.177918518297682 a 9.0 9.0 0.0 0 1 -5.289036200721311,4.413025891068271 l -2.6824753782996535 -8.590944409365953 z"/><path fill="#ff2742" d="M 166.55944909915877,238.8734666364187 l 2.6824753782996558 8.590944409365953 a 9.0 9.0 0.0 0 1 -6.860393896597339,-0.6194328303449907 l 4.177918518297683 -7.971511579020962 z"/><path fill="#ca0e10" d="M 166.55944909915877,238.8734666364187 l -4.177918518297681 7.971511579020965 a 9.0 9.0 0.0 0 1 -4.413025891068272,-5.289036200721311 l 8.590944409365953 -2.682475378299654 z"/><path fill="#c5000f" d="M 100.0,100.0 l 86.15097440723275 26.038617641578593 a 90.0 90.0 0.0 0 1 -43.645119305133754,53.291403674688326 l -42.505855102099 -79.33002131626692 z"/><path fill="#7c1201" d="M 100.0,100.0 l 42.50585510209902 79.33002131626691 a 90.0 90.0 0.0 0 1 -68.54447274367763,6.82095309096583 l 26.038617641578615 -86.15097440723274 z"/><path fill="#a40e02" d="M 100.0,100.0 l -26.03861764157859 86.15097440723275 a 90.0 90.0 0.0 0 1 -53.29140367468832,-43.64511930513374 l 79.33002131626691 -42.50585510209901 z"/><path fill="#cb1e00" d="M 100.0,100.0 l -79.33002131626691 42.50585510209903 a 90.0 90.0 0.0 0 1 -6.820953090965844,-68.54447274367763 l 86.15097440723275 26.038617641578607 z"/><path fill="#b50018" d="M 100.0,100.0 l -86.15097440723275 -26.038617641578583 a 90.0 90.0 0.0 0 1 43.6451193051336,-53.29140367468827 l 42.505855102099154 79.33002131626685 z"/><path fill="#000000" d="M 100.0,100.0 l -42.50585510209917 -79.33002131626684 a 90.0 90.0 0.0 0 1 68.54447274367777,-6.820953090965915 l -26.038617641578597 86.15097440723275 z"/><path fill="#000000" d="M 100.0,100.0 l 26.03861764157868 -86.15097440723272 a 90.0 90.0 0.0 0 1 53.291403674688226,43.64511930513371 l -79.33002131626691 42.50585510209901 z"/><path fill="#ff2c1a" d="M 100.0,100.0 l 79.33002131626691 -42.50585510209901 a 90.0 90.0 0.0 0 1 6.820953090965816,68.5444727436777 l -86.15097440723272 -26.038617641578693 z"/><path fill="#290002" d="M 61.101620656335704,18.840181835859255 l -4.322042149296034 -9.017757573793416 a 100.0 100.0 0.0 0 1 99.70628218722638,7.658804893792448 l -5.648586069426614 8.251877084414176 a 90.0 90.0 0.0 0 0 -89.73565396850373,-6.892924404413208 z"/><path fill="#ba0d18" d="M 150.83727462483944,25.733106240272477 l 5.648586069426603 -8.25187708441417 a 100.0 100.0 0.0 0 1 43.220421492960355,90.17757573793423 l -9.970628218722638 -0.7658804893792563 a 90.0 90.0 0.0 0 0 -38.898379343664324,-81.1598181641408 z"/><path fill="#fe002b" d="M 189.73565396850375,106.89292440441325 l 9.97062821872264 0.7658804893792494 a 100.0 100.0 0.0 0 1 -56.48586069426616,82.5187708441417 l -4.322042149296024 -9.017757573793418 a 90.0 90.0 0.0 0 0 50.837274624839544,-74.26689375972754 z"/><path fill="#e96585" d="M 138.89837934366423,181.1598181641408 l 4.322042149296027 9.01775757379342 a 100.0 100.0 0.0 0 1 -99.70628218722631,-7.658804893792494 l 5.6485860694265995 -8.251877084414176 a 90.0 90.0 0.0 0 0 89.73565396850368,6.89292440441325 z"/><path fill="#1c0901" d="M 49.16272537516057,174.26689375972754 l -5.648586069426602 8.251877084414172 a 100.0 100.0 0.0 0 1 -43.22042149296039,-90.17757573793423 l 9.970628218722638 0.7658804893792563 a 90.0 90.0 0.0 0 0 38.89837934366435,81.1598181641408 z"/><path fill="#000000" d="M 10.264346031496245,93.10707559558674 l -9.97062821872264 -0.7658804893792481 a 100.0 100.0 0.0 0 1 56.48586069426615,-82.51877084414173 l 4.322042149296024 9.017757573793418 a 90.0 90.0 0.0 0 0 -50.83727462483954,74.26689375972755 z"/><path fill="#290002" d="M 186.9882254691697,-27.078907099978224 l 5.648586069426603 -8.25187708441417 a 37.0 37.0 0.0 1 1 -41.79953691375687,61.063890424664855 l 5.648586069426607 -8.251877084414161 a 27.0 27.0 0.0 1 0 30.50236477490366,-44.560136255836525 z"/><path fill="#ba0d18" d="M 253.54767456832866,111.79455953644049 l 9.97062821872264 0.7658804893792517 a 37.0 37.0 0.0 1 1 -73.78264881854754,-5.6675156214064595 l 9.970628218722645 0.765880489379251 a 27.0 27.0 0.0 1 0 53.84139238110225,4.135754642647957 z"/><path fill="#fe002b" d="M 166.55944909915877,238.8734666364187 l 4.322042149296025 9.01775757379342 a 37.0 37.0 0.0 1 1 -31.983111904790587,-66.73140604607131 l 4.322042149296024 9.017757573793425 a 27.0 27.0 0.0 1 0 23.339027606198538,48.69589089848447 z"/><path fill="#e96585" d="M 13.01177453083028,227.07890709997824 l -5.648586069426605 8.25187708441417 a 37.0 37.0 0.0 1 1 41.799536913756874,-61.063890424664855 l -5.648586069426607 8.251877084414161 a 27.0 27.0 0.0 1 0 -30.50236477490366,44.560136255836525 z"/><path fill="#1c0901" d="M -53.54767456832868,88.20544046355953 l -9.97062821872264 -0.7658804893792506 a 37.0 37.0 0.0 1 1 73.78264881854753,5.667515621406459 l -9.970628218722638 -0.765880489379251 a 27.0 27.0 0.0 1 0 -53.84139238110225,-4.135754642647957 z"/><path fill="#000000" d="M 33.44055090084122,-38.873466636418726 l -4.322042149296026 -9.01775757379342 a 37.0 37.0 0.0 1 1 31.98311190479059,66.73140604607131 l -4.322042149296024 -9.017757573793425 a 27.0 27.0 0.0 1 0 -23.339027606198538,-48.69589089848447 z"/><path fill="#3d0105" d="M 161.71937458878762,246.46119875702334 l -0.5377860567079048 0.84308134673385 a 10.0 10.0 0.0 0 1 -4.612368353743583,-8.872770602770302 l 0.9990228920822624 0.044195713543180304 a 9.0 9.0 0.0 0 0 4.151131518369225,7.985493542493272 z"/><path fill="#ff233b" d="M 157.5682430704184,238.47570521453008 l -0.9990228920822631 -0.04419571354317981 a 10.0 10.0 0.0 0 1 5.377860567079044,-8.43081346733849 l 0.46123683537435856 0.8872770602770279 a 9.0 9.0 0.0 0 0 -4.84007451037114,7.587732120604643 z"/><path fill="#740715" d="M 162.40831758078954,230.88797309392544 l -0.461236835374359 -0.8872770602770289 a 10.0 10.0 0.0 0 1 9.99022892082264,0.4419571354317898 l -0.5377860567079047 0.8430813467338494 a 9.0 9.0 0.0 0 0 -8.991206028740375,-0.3977614218886103 z"/><path fill="#000000" d="M 171.39952360952992,231.28573451581406 l 0.5377860567079047 -0.84308134673385 a 10.0 10.0 0.0 0 1 4.612368353743584,8.872770602770302 l -0.9990228920822624 -0.044195713543179416 a 9.0 9.0 0.0 0 0 -4.151131518369226,-7.9854935424932725 z"/><path fill="#fc499f" d="M 175.55065512789915,239.27122805830732 l 0.9990228920822631 0.04419571354317905 a 10.0 10.0 0.0 0 1 -5.377860567079061,8.430813467338508 l -0.4612368353743568 -0.8872770602770288 a 9.0 9.0 0.0 0 0 4.840074510371155,-7.587732120604658 z"/><path fill="#900718" d="M 170.710580617528,246.85896017891196 l 0.4612368353743573 0.8872770602770298 a 10.0 10.0 0.0 0 1 -9.990228920822624,-0.4419571354317987 l 0.5377860567079047 -0.8430813467338503 a 9.0 9.0 0.0 0 0 8.991206028740361,0.3977614218886192 z"/><path fill="#3d0105" d="M 151.1744965610919,238.19285264785373 l -0.9990228920822631 -0.044195713543180054 a 3.6999999999999997 3.6999999999999997 0.0 1 1 7.392769401408747,0.3270482802195328 l -0.9990228920822632 -0.044195713543180165 a 2.6999999999999997 2.6999999999999997 0.0 1 0 -5.39472361724422,-0.23865685313317261 z"/><path fill="#ff233b" d="M 159.45640183439363,225.20939990815245 l -0.4612368353743588 -0.887277060277029 a 3.6999999999999997 3.6999999999999997 0.0 1 1 3.4131525817702544,6.565850246050014 l -0.461236835374359 -0.8872770602770297 a 2.6999999999999997 2.6999999999999997 0.0 1 0 -2.490678911021537,-4.791296125495956 z"/><path fill="#740715" d="M 174.8413543724605,225.89001389671742 l 0.5377860567079049 -0.8430813467338499 a 3.6999999999999997 3.6999999999999997 0.0 1 1 -3.9796168196384967,6.238801965830489 l 0.5377860567079056 -0.8430813467338494 a 2.6999999999999997 2.6999999999999997 0.0 1 0 2.9040447062226864,-4.552639272362789 z"/><path fill="#000000" d="M 181.94440163722564,239.55408062498367 l 0.9990228920822631 0.04419571354318018 a 3.6999999999999997 3.6999999999999997 0.0 1 1 -7.392769401408747,-0.32704828021953286 l 0.9990228920822632 0.044195713543180054 a 2.6999999999999997 2.6999999999999997 0.0 1 0 5.39472361724422,0.23865685313317261 z"/><path fill="#fc499f" d="M 173.66249636392388,252.53753336468498 l 0.46123683537435706 0.8872770602770299 a 3.6999999999999997 3.6999999999999997 0.0 1 1 -3.4131525817702424,-6.5658502460500205 l 0.4612368353743568 0.8872770602770297 a 2.6999999999999997 2.6999999999999997 0.0 1 0 2.4906789110215284,4.791296125495961 z"/><path fill="#900718" d="M 158.27754382585704,251.85691937611998 l -0.537786056707905 0.8430813467338498 a 3.6999999999999997 3.6999999999999997 0.0 1 1 3.9796168196384967,-6.238801965830488 l -0.5377860567079051 0.8430813467338494 a 2.6999999999999997 2.6999999999999997 0.0 1 0 -2.9040447062226864,4.552639272362789 z"/><path fill="#c5000f" d="M 100.0,100.0 l 86.15097440723275 26.038617641578593 a 90.0 90.0 0.0 0 1 -43.645119305133754,53.291403674688326 l -42.505855102099 -79.33002131626692 z"/><path fill="#7c1201" d="M 100.0,100.0 l 42.50585510209902 79.33002131626691 a 90.0 90.0 0.0 0 1 -68.54447274367763,6.82095309096583 l 26.038617641578615 -86.15097440723274 z"/><path fill="#a40e02" d="M 100.0,100.0 l -26.03861764157859 86.15097440723275 a 90.0 90.0 0.0 0 1 -53.29140367468832,-43.64511930513374 l 79.33002131626691 -42.50585510209901 z"/><path fill="#cb1e00" d="M 100.0,100.0 l -79.33002131626691 42.50585510209903 a 90.0 90.0 0.0 0 1 -6.820953090965844,-68.54447274367763 l 86.15097440723275 26.038617641578607 z"/><path fill="#b50018" d="M 100.0,100.0 l -86.15097440723275 -26.038617641578583 a 90.0 90.0 0.0 0 1 43.6451193051336,-53.29140367468827 l 42.505855102099154 79.33002131626685 z"/><path fill="#000000" d="M 100.0,100.0 l -42.50585510209917 -79.33002131626684 a 90.0 90.0 0.0 0 1 68.54447274367777,-6.820953090965915 l -26.038617641578597 86.15097440723275 z"/><path fill="#000000" d="M 100.0,100.0 l 26.03861764157868 -86.15097440723272 a 90.0 90.0 0.0 0 1 53.291403674688226,43.64511930513371 l -79.33002131626691 42.50585510209901 z"/><path fill="#ff2c1a" d="M 100.0,100.0 l 79.33002131626691 -42.50585510209901 a 90.0 90.0 0.0 0 1 6.820953090965816,68.5444727436777 l -86.15097440723272 -26.038617641578693 z"/><path fill="#290002" d="M 61.101620656335704,18.840181835859255 l -4.322042149296034 -9.017757573793416 a 100.0 100.0 0.0 0 1 99.70628218722638,7.658804893792448 l -5.648586069426614 8.251877084414176 a 90.0 90.0 0.0 0 0 -89.73565396850373,-6.892924404413208 z"/><path fill="#ba0d18" d="M 150.83727462483944,25.733106240272477 l 5.648586069426603 -8.25187708441417 a 100.0 100.0 0.0 0 1 43.220421492960355,90.17757573793423 l -9.970628218722638 -0.7658804893792563 a 90.0 90.0 0.0 0 0 -38.898379343664324,-81.1598181641408 z"/><path fill="#fe002b" d="M 189.73565396850375,106.89292440441325 l 9.97062821872264 0.7658804893792494 a 100.0 100.0 0.0 0 1 -56.48586069426616,82.5187708441417 l -4.322042149296024 -9.017757573793418 a 90.0 90.0 0.0 0 0 50.837274624839544,-74.26689375972754 z"/><path fill="#e96585" d="M 138.89837934366423,181.1598181641408 l 4.322042149296027 9.01775757379342 a 100.0 100.0 0.0 0 1 -99.70628218722631,-7.658804893792494 l 5.6485860694265995 -8.251877084414176 a 90.0 90.0 0.0 0 0 89.73565396850368,6.89292440441325 z"/><path fill="#1c0901" d="M 49.16272537516057,174.26689375972754 l -5.648586069426602 8.251877084414172 a 100.0 100.0 0.0 0 1 -43.22042149296039,-90.17757573793423 l 9.970628218722638 0.7658804893792563 a 90.0 90.0 0.0 0 0 38.89837934366435,81.1598181641408 z"/><path fill="#000000" d="M 10.264346031496245,93.10707559558674 l -9.97062821872264 -0.7658804893792481 a 100.0 100.0 0.0 0 1 56.48586069426615,-82.51877084414173 l 4.322042149296024 9.017757573793418 a 90.0 90.0 0.0 0 0 -50.83727462483954,74.26689375972755 z"/><path fill="#290002" d="M 186.9882254691697,-27.078907099978224 l 5.648586069426603 -8.25187708441417 a 37.0 37.0 0.0 1 1 -41.79953691375687,61.063890424664855 l 5.648586069426607 -8.251877084414161 a 27.0 27.0 0.0 1 0 30.50236477490366,-44.560136255836525 z"/><path fill="#ba0d18" d="M 253.54767456832866,111.79455953644049 l 9.97062821872264 0.7658804893792517 a 37.0 37.0 0.0 1 1 -73.78264881854754,-5.6675156214064595 l 9.970628218722645 0.765880489379251 a 27.0 27.0 0.0 1 0 53.84139238110225,4.135754642647957 z"/><path fill="#fe002b" d="M 166.55944909915877,238.8734666364187 l 4.322042149296025 9.01775757379342 a 37.0 37.0 0.0 1 1 -31.983111904790587,-66.73140604607131 l 4.322042149296024 9.017757573793425 a 27.0 27.0 0.0 1 0 23.339027606198538,48.69589089848447 z"/><path fill="#e96585" d="M 13.01177453083028,227.07890709997824 l -5.648586069426605 8.25187708441417 a 37.0 37.0 0.0 1 1 41.799536913756874,-61.063890424664855 l -5.648586069426607 8.251877084414161 a 27.0 27.0 0.0 1 0 -30.50236477490366,44.560136255836525 z"/><path fill="#1c0901" d="M -53.54767456832868,88.20544046355953 l -9.97062821872264 -0.7658804893792506 a 37.0 37.0 0.0 1 1 73.78264881854753,5.667515621406459 l -9.970628218722638 -0.765880489379251 a 27.0 27.0 0.0 1 0 -53.84139238110225,-4.135754642647957 z"/><path fill="#000000" d="M 33.44055090084122,-38.873466636418726 l -4.322042149296026 -9.01775757379342 a 37.0 37.0 0.0 1 1 31.98311190479059,66.73140604607131 l -4.322042149296024 -9.017757573793425 a 27.0 27.0 0.0 1 0 -23.339027606198538,-48.69589089848447 z"/><path fill="#c2310d" d="M 13.01177453083028,227.07890709997824 l -8.495712383881052 -2.970331814860102 a 9.0 9.0 0.0 0 1 4.588678314889952,-5.1373857914544425 l 3.9070340689911 8.107717606314544 z"/><path fill="#ff868e" d="M 13.01177453083028,227.07890709997824 l -3.9070340689911 -8.107717606314544 a 9.0 9.0 0.0 0 1 6.877365883851201,-0.3879947775665098 l -2.9703318148601014 8.495712383881054 z"/><path fill="#841701" d="M 13.01177453083028,227.07890709997824 l 2.9703318148601014 -8.495712383881054 a 9.0 9.0 0.0 0 1 5.137385791454443,4.588678314889954 l -8.107717606314544 3.9070340689911003 z"/><path fill="#ffd9d6" d="M 13.01177453083028,227.07890709997824 l 8.107717606314544 -3.9070340689911003 a 9.0 9.0 0.0 0 1 0.387994777566508,6.877365883851203 l -8.495712383881052 -2.970331814860103 z"/><path fill="#b80012" d="M 13.01177453083028,227.07890709997824 l 8.495712383881054 2.970331814860101 a 9.0 9.0 0.0 0 1 -4.588678314889948,5.137385791454442 l -3.9070340689911065 -8.107717606314543 z"/><path fill="#ffffff" d="M 13.01177453083028,227.07890709997824 l 3.907034068991108 8.10771760631454 a 9.0 9.0 0.0 0 1 -6.87736588385121,0.3879947775665116 l 2.9703318148601023 -8.495712383881052 z"/><path fill="#ff8089" d="M 13.01177453083028,227.07890709997824 l -2.9703318148601 8.495712383881054 a 9.0 9.0 0.0 0 1 -5.137385791454441,-4.588678314889948 l 8.10771760631454 -3.9070340689911065 z"/><path fill="#740d07" d="M 13.01177453083028,227.07890709997824 l -8.10771760631454 3.9070340689911083 a 9.0 9.0 0.0 0 1 -0.3879947775665116,-6.87736588385121 l 8.495712383881052 2.970331814860102 z"/><path fill="#c5000f" d="M 100.0,100.0 l 86.15097440723275 26.038617641578593 a 90.0 90.0 0.0 0 1 -43.645119305133754,53.291403674688326 l -42.505855102099 -79.33002131626692 z"/><path fill="#7c1201" d="M 100.0,100.0 l 42.50585510209902 79.33002131626691 a 90.0 90.0 0.0 0 1 -68.54447274367763,6.82095309096583 l 26.038617641578615 -86.15097440723274 z"/><path fill="#a40e02" d="M 100.0,100.0 l -26.03861764157859 86.15097440723275 a 90.0 90.0 0.0 0 1 -53.29140367468832,-43.64511930513374 l 79.33002131626691 -42.50585510209901 z"/><path fill="#cb1e00" d="M 100.0,100.0 l -79.33002131626691 42.50585510209903 a 90.0 90.0 0.0 0 1 -6.820953090965844,-68.54447274367763 l 86.15097440723275 26.038617641578607 z"/><path fill="#b50018" d="M 100.0,100.0 l -86.15097440723275 -26.038617641578583 a 90.0 90.0 0.0 0 1 43.6451193051336,-53.29140367468827 l 42.505855102099154 79.33002131626685 z"/><path fill="#000000" d="M 100.0,100.0 l -42.50585510209917 -79.33002131626684 a 90.0 90.0 0.0 0 1 68.54447274367777,-6.820953090965915 l -26.038617641578597 86.15097440723275 z"/><path fill="#000000" d="M 100.0,100.0 l 26.03861764157868 -86.15097440723272 a 90.0 90.0 0.0 0 1 53.291403674688226,43.64511930513371 l -79.33002131626691 42.50585510209901 z"/><path fill="#ff2c1a" d="M 100.0,100.0 l 79.33002131626691 -42.50585510209901 a 90.0 90.0 0.0 0 1 6.820953090965816,68.5444727436777 l -86.15097440723272 -26.038617641578693 z"/><path fill="#290002" d="M 61.101620656335704,18.840181835859255 l -4.322042149296034 -9.017757573793416 a 100.0 100.0 0.0 0 1 99.70628218722638,7.658804893792448 l -5.648586069426614 8.251877084414176 a 90.0 90.0 0.0 0 0 -89.73565396850373,-6.892924404413208 z"/><path fill="#ba0d18" d="M 150.83727462483944,25.733106240272477 l 5.648586069426603 -8.25187708441417 a 100.0 100.0 0.0 0 1 43.220421492960355,90.17757573793423 l -9.970628218722638 -0.7658804893792563 a 90.0 90.0 0.0 0 0 -38.898379343664324,-81.1598181641408 z"/><path fill="#fe002b" d="M 189.73565396850375,106.89292440441325 l 9.97062821872264 0.7658804893792494 a 100.0 100.0 0.0 0 1 -56.48586069426616,82.5187708441417 l -4.322042149296024 -9.017757573793418 a 90.0 90.0 0.0 0 0 50.837274624839544,-74.26689375972754 z"/><path fill="#e96585" d="M 138.89837934366423,181.1598181641408 l 4.322042149296027 9.01775757379342 a 100.0 100.0 0.0 0 1 -99.70628218722631,-7.658804893792494 l 5.6485860694265995 -8.251877084414176 a 90.0 90.0 0.0 0 0 89.73565396850368,6.89292440441325 z"/><path fill="#1c0901" d="M 49.16272537516057,174.26689375972754 l -5.648586069426602 8.251877084414172 a 100.0 100.0 0.0 0 1 -43.22042149296039,-90.17757573793423 l 9.970628218722638 0.7658804893792563 a 90.0 90.0 0.0 0 0 38.89837934366435,81.1598181641408 z"/><path fill="#000000" d="M 10.264346031496245,93.10707559558674 l -9.97062821872264 -0.7658804893792481 a 100.0 100.0 0.0 0 1 56.48586069426615,-82.51877084414173 l 4.322042149296024 9.017757573793418 a 90.0 90.0 0.0 0 0 -50.83727462483954,74.26689375972755 z"/><path fill="#290002" d="M 186.9882254691697,-27.078907099978224 l 5.648586069426603 -8.25187708441417 a 37.0 37.0 0.0 1 1 -41.79953691375687,61.063890424664855 l 5.648586069426607 -8.251877084414161 a 27.0 27.0 0.0 1 0 30.50236477490366,-44.560136255836525 z"/><path fill="#ba0d18" d="M 253.54767456832866,111.79455953644049 l 9.97062821872264 0.7658804893792517 a 37.0 37.0 0.0 1 1 -73.78264881854754,-5.6675156214064595 l 9.970628218722645 0.765880489379251 a 27.0 27.0 0.0 1 0 53.84139238110225,4.135754642647957 z"/><path fill="#fe002b" d="M 166.55944909915877,238.8734666364187 l 4.322042149296025 9.01775757379342 a 37.0 37.0 0.0 1 1 -31.983111904790587,-66.73140604607131 l 4.322042149296024 9.017757573793425 a 27.0 27.0 0.0 1 0 23.339027606198538,48.69589089848447 z"/><path fill="#e96585" d="M 13.01177453083028,227.07890709997824 l -5.648586069426605 8.25187708441417 a 37.0 37.0 0.0 1 1 41.799536913756874,-61.063890424664855 l -5.648586069426607 8.251877084414161 a 27.0 27.0 0.0 1 0 -30.50236477490366,44.560136255836525 z"/><path fill="#1c0901" d="M -53.54767456832868,88.20544046355953 l -9.97062821872264 -0.7658804893792506 a 37.0 37.0 0.0 1 1 73.78264881854753,5.667515621406459 l -9.970628218722638 -0.765880489379251 a 27.0 27.0 0.0 1 0 -53.84139238110225,-4.135754642647957 z"/><path fill="#000000" d="M 33.44055090084122,-38.873466636418726 l -4.322042149296026 -9.01775757379342 a 37.0 37.0 0.0 1 1 31.98311190479059,66.73140604607131 l -4.322042149296024 -9.017757573793425 a 27.0 27.0 0.0 1 0 -23.339027606198538,-48.69589089848447 z"/><path fill="#de1144" d="M 6.896268728506303,220.47583290822922 l -0.6795006447026645 -0.7336749101943335 a 10.0 10.0 0.0 0 1 9.751314326988908,-2.216273651032448 l -0.29563078799622744 0.9553022752975782 a 9.0 9.0 0.0 0 0 -8.776182894290017,1.9946462859292033 z"/><path fill="#450008" d="M 15.672451622796318,218.48118662230004 l 0.29563078799622605 -0.9553022752975785 a 10.0 10.0 0.0 0 1 6.795006447026655,7.336749101943335 l -0.9751314326988911 0.2216273651032452 a 9.0 9.0 0.0 0 0 -6.115505802323989,-6.603074191749002 z"/><path fill="#fb755a" d="M 21.787957425120304,225.08426081404903 l 0.9751314326988916 -0.22162736510324504 a 10.0 10.0 0.0 0 1 -2.956307879962274,9.553022752975789 l -0.6795006447026646 -0.7336749101943347 a 9.0 9.0 0.0 0 0 2.660677091966047,-8.597720477678209 z"/><path fill="#bd0030" d="M 19.12728033315426,233.68198129172725 l 0.6795006447026644 0.7336749101943336 a 10.0 10.0 0.0 0 1 -9.751314326988924,2.2162736510324414 l 0.29563078799622744 -0.9553022752975782 a 9.0 9.0 0.0 0 0 8.776182894290033,-1.9946462859291971 z"/><path fill="#ff0457" d="M 10.351097438864228,235.67662757765643 l -0.2956307879962279 0.9553022752975779 a 10.0 10.0 0.0 0 1 -6.795006447026637,-7.336749101943331 l 0.9751314326988911 -0.22162736510324432 a 9.0 9.0 0.0 0 0 6.115505802323973,6.6030741917489975 z"/><path fill="#ffcaca" d="M 4.235591636540256,229.07355338590745 l -0.9751314326988916 0.22162736510324516 a 10.0 10.0 0.0 0 1 2.956307879962273,-9.553022752975789 l 0.6795006447026637 0.733674910194333 a 9.0 9.0 0.0 0 0 -2.660677091966045,8.59772047767821 z"/><path fill="#de1144" d="M 17.56448866597217,212.36725206039551 l 0.2956307879962263 -0.9553022752975784 a 3.6999999999999997 3.6999999999999997 0.0 1 1 -2.1876678311720745,7.069236837202079 l 0.29563078799622655 -0.9553022752975782 a 2.6999999999999997 2.6999999999999997 0.0 1 0 1.5964062551796219,-5.158632286606923 z"/><path fill="#450008" d="M 28.028798594393216,223.6658456773883 l 0.9751314326988916 -0.22162736510324504 a 3.6999999999999997 3.6999999999999997 0.0 1 1 -7.215972601971798,1.6400425017640126 l 0.975131432698892 -0.22162736510324477 a 2.6999999999999997 2.6999999999999997 0.0 1 0 5.265709736574014,-1.1967877715575228 z"/><path fill="#fb755a" d="M 23.476084459251307,238.37750071697099 l 0.6795006447026641 0.7336749101943337 a 3.6999999999999997 3.6999999999999997 0.0 1 1 -5.028304770799714,-5.429194335438069 l 0.6795006447026641 0.7336749101943334 a 2.6999999999999997 2.6999999999999997 0.0 1 0 3.6693034813943863,3.961844515049402 z"/><path fill="#bd0030" d="M 8.459060395688368,241.79056213956096 l -0.2956307879962281 0.9553022752975778 a 3.6999999999999997 3.6999999999999997 0.0 1 1 2.1876678311720874,-7.069236837202077 l -0.2956307879962281 0.9553022752975782 a 2.6999999999999997 2.6999999999999997 0.0 1 0 -1.5964062551796312,5.15863228660692 z"/><path fill="#ff0457" d="M -2.005249532732652,230.49196852256821 l -0.9751314326988916 0.2216273651032449 a 3.6999999999999997 3.6999999999999997 0.0 1 1 7.215972601971798,-1.6400425017640128 l -0.975131432698892 0.221627365103245 a 2.6999999999999997 2.6999999999999997 0.0 1 0 -5.265709736574014,1.1967877715575228 z"/><path fill="#ffcaca" d="M 2.547464602409251,215.7803134829855 l -0.6795006447026642 -0.7336749101943337 a 3.6999999999999997 3.6999999999999997 0.0 1 1 5.028304770799715,5.429194335438069 l -0.6795006447026641 -0.7336749101943334 a 2.6999999999999997 2.6999999999999997 0.0 1 0 -3.6693034813943863,-3.961844515049402 z"/><path fill="#c5000f" d="M 100.0,100.0 l 86.15097440723275 26.038617641578593 a 90.0 90.0 0.0 0 1 -43.645119305133754,53.291403674688326 l -42.505855102099 -79.33002131626692 z"/><path fill="#7c1201" d="M 100.0,100.0 l 42.50585510209902 79.33002131626691 a 90.0 90.0 0.0 0 1 -68.54447274367763,6.82095309096583 l 26.038617641578615 -86.15097440723274 z"/><path fill="#a40e02" d="M 100.0,100.0 l -26.03861764157859 86.15097440723275 a 90.0 90.0 0.0 0 1 -53.29140367468832,-43.64511930513374 l 79.33002131626691 -42.50585510209901 z"/><path fill="#cb1e00" d="M 100.0,100.0 l -79.33002131626691 42.50585510209903 a 90.0 90.0 0.0 0 1 -6.820953090965844,-68.54447274367763 l 86.15097440723275 26.038617641578607 z"/><path fill="#b50018" d="M 100.0,100.0 l -86.15097440723275 -26.038617641578583 a 90.0 90.0 0.0 0 1 43.6451193051336,-53.29140367468827 l 42.505855102099154 79.33002131626685 z"/><path fill="#000000" d="M 100.0,100.0 l -42.50585510209917 -79.33002131626684 a 90.0 90.0 0.0 0 1 68.54447274367777,-6.820953090965915 l -26.038617641578597 86.15097440723275 z"/><path fill="#000000" d="M 100.0,100.0 l 26.03861764157868 -86.15097440723272 a 90.0 90.0 0.0 0 1 53.291403674688226,43.64511930513371 l -79.33002131626691 42.50585510209901 z"/><path fill="#ff2c1a" d="M 100.0,100.0 l 79.33002131626691 -42.50585510209901 a 90.0 90.0 0.0 0 1 6.820953090965816,68.5444727436777 l -86.15097440723272 -26.038617641578693 z"/><path fill="#290002" d="M 61.101620656335704,18.840181835859255 l -4.322042149296034 -9.017757573793416 a 100.0 100.0 0.0 0 1 99.70628218722638,7.658804893792448 l -5.648586069426614 8.251877084414176 a 90.0 90.0 0.0 0 0 -89.73565396850373,-6.892924404413208 z"/><path fill="#ba0d18" d="M 150.83727462483944,25.733106240272477 l 5.648586069426603 -8.25187708441417 a 100.0 100.0 0.0 0 1 43.220421492960355,90.17757573793423 l -9.970628218722638 -0.7658804893792563 a 90.0 90.0 0.0 0 0 -38.898379343664324,-81.1598181641408 z"/><path fill="#fe002b" d="M 189.73565396850375,106.89292440441325 l 9.97062821872264 0.7658804893792494 a 100.0 100.0 0.0 0 1 -56.48586069426616,82.5187708441417 l -4.322042149296024 -9.017757573793418 a 90.0 90.0 0.0 0 0 50.837274624839544,-74.26689375972754 z"/><path fill="#e96585" d="M 138.89837934366423,181.1598181641408 l 4.322042149296027 9.01775757379342 a 100.0 100.0 0.0 0 1 -99.70628218722631,-7.658804893792494 l 5.6485860694265995 -8.251877084414176 a 90.0 90.0 0.0 0 0 89.73565396850368,6.89292440441325 z"/><path fill="#1c0901" d="M 49.16272537516057,174.26689375972754 l -5.648586069426602 8.251877084414172 a 100.0 100.0 0.0 0 1 -43.22042149296039,-90.17757573793423 l 9.970628218722638 0.7658804893792563 a 90.0 90.0 0.0 0 0 38.89837934366435,81.1598181641408 z"/><path fill="#000000" d="M 10.264346031496245,93.10707559558674 l -9.97062821872264 -0.7658804893792481 a 100.0 100.0 0.0 0 1 56.48586069426615,-82.51877084414173 l 4.322042149296024 9.017757573793418 a 90.0 90.0 0.0 0 0 -50.83727462483954,74.26689375972755 z"/><path fill="#290002" d="M 186.9882254691697,-27.078907099978224 l 5.648586069426603 -8.25187708441417 a 37.0 37.0 0.0 1 1 -41.79953691375687,61.063890424664855 l 5.648586069426607 -8.251877084414161 a 27.0 27.0 0.0 1 0 30.50236477490366,-44.560136255836525 z"/><path fill="#ba0d18" d="M 253.54767456832866,111.79455953644049 l 9.97062821872264 0.7658804893792517 a 37.0 37.0 0.0 1 1 -73.78264881854754,-5.6675156214064595 l 9.970628218722645 0.765880489379251 a 27.0 27.0 0.0 1 0 53.84139238110225,4.135754642647957 z"/><path fill="#fe002b" d="M 166.55944909915877,238.8734666364187 l 4.322042149296025 9.01775757379342 a 37.0 37.0 0.0 1 1 -31.983111904790587,-66.73140604607131 l 4.322042149296024 9.017757573793425 a 27.0 27.0 0.0 1 0 23.339027606198538,48.69589089848447 z"/><path fill="#e96585" d="M 13.01177453083028,227.07890709997824 l -5.648586069426605 8.25187708441417 a 37.0 37.0 0.0 1 1 41.799536913756874,-61.063890424664855 l -5.648586069426607 8.251877084414161 a 27.0 27.0 0.0 1 0 -30.50236477490366,44.560136255836525 z"/><path fill="#1c0901" d="M -53.54767456832868,88.20544046355953 l -9.97062821872264 -0.7658804893792506 a 37.0 37.0 0.0 1 1 73.78264881854753,5.667515621406459 l -9.970628218722638 -0.765880489379251 a 27.0 27.0 0.0 1 0 -53.84139238110225,-4.135754642647957 z"/><path fill="#000000" d="M 33.44055090084122,-38.873466636418726 l -4.322042149296026 -9.01775757379342 a 37.0 37.0 0.0 1 1 31.98311190479059,66.73140604607131 l -4.322042149296024 -9.017757573793425 a 27.0 27.0 0.0 1 0 -23.339027606198538,-48.69589089848447 z"/><path fill="#ff2d0c" d="M -53.54767456832868,88.20544046355953 l -5.83127739784001 -6.85537773645189 a 9.0 9.0 0.0 0 1 6.555425691887904,-2.1154421395810434 l -0.7241482940478942 8.970819876032934 z"/><path fill="#c33500" d="M -53.54767456832868,88.20544046355953 l 0.724148294047892 -8.970819876032934 a 9.0 9.0 0.0 0 1 6.131229442404,3.139542478192925 l -6.855377736451892 5.831277397840009 z"/><path fill="#e9001f" d="M -53.54767456832868,88.20544046355953 l 6.855377736451892 -5.831277397840009 a 9.0 9.0 0.0 0 1 2.11544213958104,6.555425691887913 l -8.970819876032932 -0.7241482940479038 z"/><path fill="#ff9089" d="M -53.54767456832868,88.20544046355953 l 8.970819876032932 0.7241482940479016 a 9.0 9.0 0.0 0 1 -3.139542478192925,6.131229442403992 l -5.831277397840007 -6.855377736451893 z"/><path fill="#ff2f42" d="M -53.54767456832868,88.20544046355953 l 5.831277397840009 6.855377736451891 a 9.0 9.0 0.0 0 1 -6.555425691887912,2.1154421395810408 l 0.7241482940479033 -8.970819876032932 z"/><path fill="#6a0a17" d="M -53.54767456832868,88.20544046355953 l -0.724148294047901 8.970819876032932 a 9.0 9.0 0.0 0 1 -6.131229442403991,-3.139542478192924 l 6.855377736451892 -5.831277397840008 z"/><path fill="#790216" d="M -53.54767456832868,88.20544046355953 l -6.855377736451891 5.831277397840009 a 9.0 9.0 0.0 0 1 -2.115442139581039,-6.55542569188792 l 8.97081987603293 0.7241482940479106 z"/><path fill="#730722" d="M -53.54767456832868,88.20544046355953 l -8.970819876032932 -0.7241482940479085 a 9.0 9.0 0.0 0 1 3.139542478192924,-6.131229442403984 l 5.831277397840008 6.855377736451892 z"/><path fill="#c5000f" d="M 100.0,100.0 l 86.15097440723275 26.038617641578593 a 90.0 90.0 0.0 0 1 -43.645119305133754,53.291403674688326 l -42.505855102099 -79.33002131626692 z"/><path fill="#7c1201" d="M 100.0,100.0 l 42.50585510209902 79.33002131626691 a 90.0 90.0 0.0 0 1 -68.54447274367763,6.82095309096583 l 26.038617641578615 -86.15097440723274 z"/><path fill="#a40e02" d="M 100.0,100.0 l -26.03861764157859 86.15097440723275 a 90.0 90.0 0.0 0 1 -53.29140367468832,-43.64511930513374 l 79.33002131626691 -42.50585510209901 z"/><path fill="#cb1e00" d="M 100.0,100.0 l -79.33002131626691 42.50585510209903 a 90.0 90.0 0.0 0 1 -6.820953090965844,-68.54447274367763 l 86.15097440723275 26.038617641578607 z"/><path fill="#b50018" d="M 100.0,100.0 l -86.15097440723275 -26.038617641578583 a 90.0 90.0 0.0 0 1 43.6451193051336,-53.29140367468827 l 42.505855102099154 79.33002131626685 z"/><path fill="#000000" d="M 100.0,100.0 l -42.50585510209917 -79.33002131626684 a 90.0 90.0 0.0 0 1 68.54447274367777,-6.820953090965915 l -26.038617641578597 86.15097440723275 z"/><path fill="#000000" d="M 100.0,100.0 l 26.03861764157868 -86.15097440723272 a 90.0 90.0 0.0 0 1 53.291403674688226,43.64511930513371 l -79.33002131626691 42.50585510209901 z"/><path fill="#ff2c1a" d="M 100.0,100.0 l 79.33002131626691 -42.50585510209901 a 90.0 90.0 0.0 0 1 6.820953090965816,68.5444727436777 l -86.15097440723272 -26.038617641578693 z"/><path fill="#290002" d="M 61.101620656335704,18.840181835859255 l -4.322042149296034 -9.017757573793416 a 100.0 100.0 0.0 0 1 99.70628218722638,7.658804893792448 l -5.648586069426614 8.251877084414176 a 90.0 90.0 0.0 0 0 -89.73565396850373,-6.892924404413208 z"/><path fill="#ba0d18" d="M 150.83727462483944,25.733106240272477 l 5.648586069426603 -8.25187708441417 a 100.0 100.0 0.0 0 1 43.220421492960355,90.17757573793423 l -9.970628218722638 -0.7658804893792563 a 90.0 90.0 0.0 0 0 -38.898379343664324,-81.1598181641408 z"/><path fill="#fe002b" d="M 189.73565396850375,106.89292440441325 l 9.97062821872264 0.7658804893792494 a 100.0 100.0 0.0 0 1 -56.48586069426616,82.5187708441417 l -4.322042149296024 -9.017757573793418 a 90.0 90.0 0.0 0 0 50.837274624839544,-74.26689375972754 z"/><path fill="#e96585" d="M 138.89837934366423,181.1598181641408 l 4.322042149296027 9.01775757379342 a 100.0 100.0 0.0 0 1 -99.70628218722631,-7.658804893792494 l 5.6485860694265995 -8.251877084414176 a 90.0 90.0 0.0 0 0 89.73565396850368,6.89292440441325 z"/><path fill="#1c0901" d="M 49.16272537516057,174.26689375972754 l -5.648586069426602 8.251877084414172 a 100.0 100.0 0.0 0 1 -43.22042149296039,-90.17757573793423 l 9.970628218722638 0.7658804893792563 a 90.0 90.0 0.0 0 0 38.89837934366435,81.1598181641408 z"/><path fill="#000000" d="M 10.264346031496245,93.10707559558674 l -9.97062821872264 -0.7658804893792481 a 100.0 100.0 0.0 0 1 56.48586069426615,-82.51877084414173 l 4.322042149296024 9.017757573793418 a 90.0 90.0 0.0 0 0 -50.83727462483954,74.26689375972755 z"/><path fill="#290002" d="M 186.9882254691697,-27.078907099978224 l 5.648586069426603 -8.25187708441417 a 37.0 37.0 0.0 1 1 -41.79953691375687,61.063890424664855 l 5.648586069426607 -8.251877084414161 a 27.0 27.0 0.0 1 0 30.50236477490366,-44.560136255836525 z"/><path fill="#ba0d18" d="M 253.54767456832866,111.79455953644049 l 9.97062821872264 0.7658804893792517 a 37.0 37.0 0.0 1 1 -73.78264881854754,-5.6675156214064595 l 9.970628218722645 0.765880489379251 a 27.0 27.0 0.0 1 0 53.84139238110225,4.135754642647957 z"/><path fill="#fe002b" d="M 166.55944909915877,238.8734666364187 l 4.322042149296025 9.01775757379342 a 37.0 37.0 0.0 1 1 -31.983111904790587,-66.73140604607131 l 4.322042149296024 9.017757573793425 a 27.0 27.0 0.0 1 0 23.339027606198538,48.69589089848447 z"/><path fill="#e96585" d="M 13.01177453083028,227.07890709997824 l -5.648586069426605 8.25187708441417 a 37.0 37.0 0.0 1 1 41.799536913756874,-61.063890424664855 l -5.648586069426607 8.251877084414161 a 27.0 27.0 0.0 1 0 -30.50236477490366,44.560136255836525 z"/><path fill="#1c0901" d="M -53.54767456832868,88.20544046355953 l -9.97062821872264 -0.7658804893792506 a 37.0 37.0 0.0 1 1 73.78264881854753,5.667515621406459 l -9.970628218722638 -0.765880489379251 a 27.0 27.0 0.0 1 0 -53.84139238110225,-4.135754642647957 z"/><path fill="#000000" d="M 33.44055090084122,-38.873466636418726 l -4.322042149296026 -9.01775757379342 a 37.0 37.0 0.0 1 1 31.98311190479059,66.73140604607131 l -4.322042149296024 -9.017757573793425 a 27.0 27.0 0.0 1 0 -23.339027606198538,-48.69589089848447 z"/><path fill="#f9e4de" d="M -48.88335886724664,95.90246320229686 l 0.5182573001202264 0.8552247487485928 a 10.0 10.0 0.0 0 1 -9.997750084215584,0.2121161322655557 l 0.48151770830133067 -0.8764363619751476 a 9.0 9.0 0.0 0 0 8.997975075794027,-0.19090451903900085 z"/><path fill="#ff6495" d="M -57.881333943040666,96.09336772133587 l -0.481517708301332 0.8764363619751484 a 10.0 10.0 0.0 0 1 -5.182573001202263,-8.552247487485925 l 0.9997750084215582 -0.021211613226555848 a 9.0 9.0 0.0 0 0 4.664315701082037,7.697022738737332 z"/><path fill="#2c0d00" d="M -62.545649644122705,88.39634498259854 l -0.9997750084215583 0.02121161322655593 a 10.0 10.0 0.0 0 1 4.815177083013316,-8.764363619751485 l 0.5182573001202266 0.8552247487485927 a 9.0 9.0 0.0 0 0 -4.333659374711984,7.887927257776336 z"/><path fill="#3e0018" d="M -58.21199026941072,80.5084177248222 l -0.5182573001202269 -0.8552247487485924 a 10.0 10.0 0.0 0 1 9.997750084215587,-0.2121161322655587 l -0.48151770830133245 0.8764363619751476 a 9.0 9.0 0.0 0 0 -8.997975075794027,0.19090451903900352 z"/><path fill="#030000" d="M -49.21401519361669,80.31751320578319 l 0.4815177083013319 -0.8764363619751484 a 10.0 10.0 0.0 0 1 5.1825730012022655,8.552247487485932 l -0.9997750084215582 0.02121161322655496 a 9.0 9.0 0.0 0 0 -4.664315701082039,-7.697022738737339 z"/><path fill="#000000" d="M -44.54969949253466,88.01453594452053 l 0.9997750084215583 -0.021211613226555164 a 10.0 10.0 0.0 0 1 -4.8151770830133165,8.764363619751476 l -0.5182573001202266 -0.8552247487485918 a 9.0 9.0 0.0 0 0 4.333659374711985,-7.8879272577763295 z"/><path fill="#f9e4de" d="M -60.96304727616919,101.70256043797681 l -0.481517708301332 0.8764363619751484 a 3.6999999999999997 3.6999999999999997 0.0 1 1 3.563231041429856,-6.485629078616098 l -0.481517708301332 0.8764363619751485 a 2.6999999999999997 2.6999999999999997 0.0 1 0 -2.600195624827192,4.732756354665801 z"/><path fill="#ff6495" d="M -68.94420969802067,88.53209930724849 l -0.9997750084215583 0.02121161322655593 a 3.6999999999999997 3.6999999999999997 0.0 1 1 7.39833506231953,-0.15696593787651433 l -0.9997750084215582 0.02121161322655607 a 2.6999999999999997 2.6999999999999997 0.0 1 0 -5.398785045476414,0.11454271142340233 z"/><path fill="#2c0d00" d="M -61.528836990180174,75.03497933283121 l -0.5182573001202269 -0.8552247487485924 a 3.6999999999999997 3.6999999999999997 0.0 1 1 3.835104020889678,6.328663140739584 l -0.5182573001202266 -0.8552247487485927 a 2.6999999999999997 2.6999999999999997 0.0 1 0 -2.7985894206492246,-4.618213643242399 z"/><path fill="#3e0018" d="M -46.13230186048817,74.70832048914224 l 0.4815177083013319 -0.8764363619751484 a 3.6999999999999997 3.6999999999999997 0.0 1 1 -3.5632310414298565,6.485629078616098 l 0.48151770830133245 -0.8764363619751485 a 2.6999999999999997 2.6999999999999997 0.0 1 0 2.600195624827192,-4.732756354665801 z"/><path fill="#030000" d="M -38.151139438636676,87.87878161987058 l 0.9997750084215583 -0.021211613226555164 a 3.6999999999999997 3.6999999999999997 0.0 1 1 -7.39833506231953,0.15696593787650776 l 0.9997750084215582 -0.021211613226555043 a 2.6999999999999997 2.6999999999999997 0.0 1 0 5.398785045476414,-0.11454271142339756 z"/><path fill="#000000" d="M -45.566512146477194,101.37590159428785 l 0.5182573001202267 0.8552247487485926 a 3.6999999999999997 3.6999999999999997 0.0 1 1 -3.835104020889678,-6.328663140739584 l 0.5182573001202266 0.8552247487485927 a 2.6999999999999997 2.6999999999999997 0.0 1 0 2.7985894206492246,4.618213643242399 z"/><path fill="#c5000f" d="M 100.0,100.0 l 86.15097440723275 26.038617641578593 a 90.0 90.0 0.0 0 1 -43.645119305133754,53.291403674688326 l -42.505855102099 -79.33002131626692 z"/><path fill="#7c1201" d="M 100.0,100.0 l 42.50585510209902 79.33002131626691 a 90.0 90.0 0.0 0 1 -68.54447274367763,6.82095309096583 l 26.038617641578615 -86.15097440723274 z"/><path fill="#a40e02" d="M 100.0,100.0 l -26.03861764157859 86.15097440723275 a 90.0 90.0 0.0 0 1 -53.29140367468832,-43.64511930513374 l 79.33002131626691 -42.50585510209901 z"/><path fill="#cb1e00" d="M 100.0,100.0 l -79.33002131626691 42.50585510209903 a 90.0 90.0 0.0 0 1 -6.820953090965844,-68.54447274367763 l 86.15097440723275 26.038617641578607 z"/><path fill="#b50018" d="M 100.0,100.0 l -86.15097440723275 -26.038617641578583 a 90.0 90.0 0.0 0 1 43.6451193051336,-53.29140367468827 l 42.505855102099154 79.33002131626685 z"/><path fill="#000000" d="M 100.0,100.0 l -42.50585510209917 -79.33002131626684 a 90.0 90.0 0.0 0 1 68.54447274367777,-6.820953090965915 l -26.038617641578597 86.15097440723275 z"/><path fill="#000000" d="M 100.0,100.0 l 26.03861764157868 -86.15097440723272 a 90.0 90.0 0.0 0 1 53.291403674688226,43.64511930513371 l -79.33002131626691 42.50585510209901 z"/><path fill="#ff2c1a" d="M 100.0,100.0 l 79.33002131626691 -42.50585510209901 a 90.0 90.0 0.0 0 1 6.820953090965816,68.5444727436777 l -86.15097440723272 -26.038617641578693 z"/><path fill="#290002" d="M 61.101620656335704,18.840181835859255 l -4.322042149296034 -9.017757573793416 a 100.0 100.0 0.0 0 1 99.70628218722638,7.658804893792448 l -5.648586069426614 8.251877084414176 a 90.0 90.0 0.0 0 0 -89.73565396850373,-6.892924404413208 z"/><path fill="#ba0d18" d="M 150.83727462483944,25.733106240272477 l 5.648586069426603 -8.25187708441417 a 100.0 100.0 0.0 0 1 43.220421492960355,90.17757573793423 l -9.970628218722638 -0.7658804893792563 a 90.0 90.0 0.0 0 0 -38.898379343664324,-81.1598181641408 z"/><path fill="#fe002b" d="M 189.73565396850375,106.89292440441325 l 9.97062821872264 0.7658804893792494 a 100.0 100.0 0.0 0 1 -56.48586069426616,82.5187708441417 l -4.322042149296024 -9.017757573793418 a 90.0 90.0 0.0 0 0 50.837274624839544,-74.26689375972754 z"/><path fill="#e96585" d="M 138.89837934366423,181.1598181641408 l 4.322042149296027 9.01775757379342 a 100.0 100.0 0.0 0 1 -99.70628218722631,-7.658804893792494 l 5.6485860694265995 -8.251877084414176 a 90.0 90.0 0.0 0 0 89.73565396850368,6.89292440441325 z"/><path fill="#1c0901" d="M 49.16272537516057,174.26689375972754 l -5.648586069426602 8.251877084414172 a 100.0 100.0 0.0 0 1 -43.22042149296039,-90.17757573793423 l 9.970628218722638 0.7658804893792563 a 90.0 90.0 0.0 0 0 38.89837934366435,81.1598181641408 z"/><path fill="#000000" d="M 10.264346031496245,93.10707559558674 l -9.97062821872264 -0.7658804893792481 a 100.0 100.0 0.0 0 1 56.48586069426615,-82.51877084414173 l 4.322042149296024 9.017757573793418 a 90.0 90.0 0.0 0 0 -50.83727462483954,74.26689375972755 z"/><path fill="#290002" d="M 186.9882254691697,-27.078907099978224 l 5.648586069426603 -8.25187708441417 a 37.0 37.0 0.0 1 1 -41.79953691375687,61.063890424664855 l 5.648586069426607 -8.251877084414161 a 27.0 27.0 0.0 1 0 30.50236477490366,-44.560136255836525 z"/><path fill="#ba0d18" d="M 253.54767456832866,111.79455953644049 l 9.97062821872264 0.7658804893792517 a 37.0 37.0 0.0 1 1 -73.78264881854754,-5.6675156214064595 l 9.970628218722645 0.765880489379251 a 27.0 27.0 0.0 1 0 53.84139238110225,4.135754642647957 z"/><path fill="#fe002b" d="M 166.55944909915877,238.8734666364187 l 4.322042149296025 9.01775757379342 a 37.0 37.0 0.0 1 1 -31.983111904790587,-66.73140604607131 l 4.322042149296024 9.017757573793425 a 27.0 27.0 0.0 1 0 23.339027606198538,48.69589089848447 z"/><path fill="#e96585" d="M 13.01177453083028,227.07890709997824 l -5.648586069426605 8.25187708441417 a 37.0 37.0 0.0 1 1 41.799536913756874,-61.063890424664855 l -5.648586069426607 8.251877084414161 a 27.0 27.0 0.0 1 0 -30.50236477490366,44.560136255836525 z"/><path fill="#1c0901" d="M -53.54767456832868,88.20544046355953 l -9.97062821872264 -0.7658804893792506 a 37.0 37.0 0.0 1 1 73.78264881854753,5.667515621406459 l -9.970628218722638 -0.765880489379251 a 27.0 27.0 0.0 1 0 -53.84139238110225,-4.135754642647957 z"/><path fill="#000000" d="M 33.44055090084122,-38.873466636418726 l -4.322042149296026 -9.01775757379342 a 37.0 37.0 0.0 1 1 31.98311190479059,66.73140604607131 l -4.322042149296024 -9.017757573793425 a 27.0 27.0 0.0 1 0 -23.339027606198538,-48.69589089848447 z"/><path fill="#000000" d="M 33.44055090084122,-38.873466636418726 l 3.190906854380107 -8.415349870722551 a 9.0 9.0 0.0 0 1 5.015955980131953,4.7211107859441075 l -8.20686283451206 3.694239084778443 z"/><path fill="#971903" d="M 33.44055090084122,-38.873466636418726 l 8.20686283451206 -3.694239084778443 a 9.0 9.0 0.0 0 1 0.20848703621049047,6.885145939158551 l -8.415349870722551 -3.1909068543801085 z"/><path fill="#321000" d="M 33.44055090084122,-38.873466636418726 l 8.415349870722551 3.1909068543801062 a 9.0 9.0 0.0 0 1 -4.721110785944109,5.015955980131954 l -3.6942390847784417 -8.20686283451206 z"/><path fill="#ff7b1a" d="M 33.44055090084122,-38.873466636418726 l 3.6942390847784434 8.20686283451206 a 9.0 9.0 0.0 0 1 -6.885145939158536,0.2084870362104958 l 3.190906854380093 -8.415349870722556 z"/><path fill="#b91200" d="M 33.44055090084122,-38.873466636418726 l -3.1909068543801005 8.415349870722553 a 9.0 9.0 0.0 0 1 -5.015955980131958,-4.721110785944104 l 8.206862834512059 -3.694239084778449 z"/><path fill="#ef1b1c" d="M 33.44055090084122,-38.873466636418726 l -8.206862834512059 3.694239084778449 a 9.0 9.0 0.0 0 1 -0.20848703621049403,-6.88514593915855 l 8.415349870722553 3.1909068543801 z"/><path fill="#5c0015" d="M 33.44055090084122,-38.873466636418726 l -8.415349870722553 -3.1909068543801 a 9.0 9.0 0.0 0 1 4.721110785944103,-5.015955980131959 l 3.6942390847784496 8.206862834512059 z"/><path fill="#3c0109" d="M 33.44055090084122,-38.873466636418726 l -3.6942390847784496 -8.206862834512059 a 9.0 9.0 0.0 0 1 6.88514593915855,-0.2084870362104958 l -3.1909068543800996 8.415349870722554 z"/><path fill="#c5000f" d="M 100.0,100.0 l 86.15097440723275 26.038617641578593 a 90.0 90.0 0.0 0 1 -43.645119305133754,53.291403674688326 l -42.505855102099 -79.33002131626692 z"/><path fill="#7c1201" d="M 100.0,100.0 l 42.50585510209902 79.33002131626691 a 90.0 90.0 0.0 0 1 -68.54447274367763,6.82095309096583 l 26.038617641578615 -86.15097440723274 z"/><path fill="#a40e02" d="M 100.0,100.0 l -26.03861764157859 86.15097440723275 a 90.0 90.0 0.0 0 1 -53.29140367468832,-43.64511930513374 l 79.33002131626691 -42.50585510209901 z"/><path fill="#cb1e00" d="M 100.0,100.0 l -79.33002131626691 42.50585510209903 a 90.0 90.0 0.0 0 1 -6.820953090965844,-68.54447274367763 l 86.15097440723275 26.038617641578607 z"/><path fill="#b50018" d="M 100.0,100.0 l -86.15097440723275 -26.038617641578583 a 90.0 90.0 0.0 0 1 43.6451193051336,-53.29140367468827 l 42.505855102099154 79.33002131626685 z"/><path fill="#000000" d="M 100.0,100.0 l -42.50585510209917 -79.33002131626684 a 90.0 90.0 0.0 0 1 68.54447274367777,-6.820953090965915 l -26.038617641578597 86.15097440723275 z"/><path fill="#000000" d="M 100.0,100.0 l 26.03861764157868 -86.15097440723272 a 90.0 90.0 0.0 0 1 53.291403674688226,43.64511930513371 l -79.33002131626691 42.50585510209901 z"/><path fill="#ff2c1a" d="M 100.0,100.0 l 79.33002131626691 -42.50585510209901 a 90.0 90.0 0.0 0 1 6.820953090965816,68.5444727436777 l -86.15097440723272 -26.038617641578693 z"/><path fill="#290002" d="M 61.101620656335704,18.840181835859255 l -4.322042149296034 -9.017757573793416 a 100.0 100.0 0.0 0 1 99.70628218722638,7.658804893792448 l -5.648586069426614 8.251877084414176 a 90.0 90.0 0.0 0 0 -89.73565396850373,-6.892924404413208 z"/><path fill="#ba0d18" d="M 150.83727462483944,25.733106240272477 l 5.648586069426603 -8.25187708441417 a 100.0 100.0 0.0 0 1 43.220421492960355,90.17757573793423 l -9.970628218722638 -0.7658804893792563 a 90.0 90.0 0.0 0 0 -38.898379343664324,-81.1598181641408 z"/><path fill="#fe002b" d="M 189.73565396850375,106.89292440441325 l 9.97062821872264 0.7658804893792494 a 100.0 100.0 0.0 0 1 -56.48586069426616,82.5187708441417 l -4.322042149296024 -9.017757573793418 a 90.0 90.0 0.0 0 0 50.837274624839544,-74.26689375972754 z"/><path fill="#e96585" d="M 138.89837934366423,181.1598181641408 l 4.322042149296027 9.01775757379342 a 100.0 100.0 0.0 0 1 -99.70628218722631,-7.658804893792494 l 5.6485860694265995 -8.251877084414176 a 90.0 90.0 0.0 0 0 89.73565396850368,6.89292440441325 z"/><path fill="#1c0901" d="M 49.16272537516057,174.26689375972754 l -5.648586069426602 8.251877084414172 a 100.0 100.0 0.0 0 1 -43.22042149296039,-90.17757573793423 l 9.970628218722638 0.7658804893792563 a 90.0 90.0 0.0 0 0 38.89837934366435,81.1598181641408 z"/><path fill="#000000" d="M 10.264346031496245,93.10707559558674 l -9.97062821872264 -0.7658804893792481 a 100.0 100.0 0.0 0 1 56.48586069426615,-82.51877084414173 l 4.322042149296024 9.017757573793418 a 90.0 90.0 0.0 0 0 -50.83727462483954,74.26689375972755 z"/><path fill="#290002" d="M 186.9882254691697,-27.078907099978224 l 5.648586069426603 -8.25187708441417 a 37.0 37.0 0.0 1 1 -41.79953691375687,61.063890424664855 l 5.648586069426607 -8.251877084414161 a 27.0 27.0 0.0 1 0 30.50236477490366,-44.560136255836525 z"/><path fill="#ba0d18" d="M 253.54767456832866,111.79455953644049 l 9.97062821872264 0.7658804893792517 a 37.0 37.0 0.0 1 1 -73.78264881854754,-5.6675156214064595 l 9.970628218722645 0.765880489379251 a 27.0 27.0 0.0 1 0 53.84139238110225,4.135754642647957 z"/><path fill="#fe002b" d="M 166.55944909915877,238.8734666364187 l 4.322042149296025 9.01775757379342 a 37.0 37.0 0.0 1 1 -31.983111904790587,-66.73140604607131 l 4.322042149296024 9.017757573793425 a 27.0 27.0 0.0 1 0 23.339027606198538,48.69589089848447 z"/><path fill="#e96585" d="M 13.01177453083028,227.07890709997824 l -5.648586069426605 8.25187708441417 a 37.0 37.0 0.0 1 1 41.799536913756874,-61.063890424664855 l -5.648586069426607 8.251877084414161 a 27.0 27.0 0.0 1 0 -30.50236477490366,44.560136255836525 z"/><path fill="#1c0901" d="M -53.54767456832868,88.20544046355953 l -9.97062821872264 -0.7658804893792506 a 37.0 37.0 0.0 1 1 73.78264881854753,5.667515621406459 l -9.970628218722638 -0.765880489379251 a 27.0 27.0 0.0 1 0 -53.84139238110225,-4.135754642647957 z"/><path fill="#000000" d="M 33.44055090084122,-38.873466636418726 l -4.322042149296026 -9.01775757379342 a 37.0 37.0 0.0 1 1 31.98311190479059,66.73140604607131 l -4.322042149296024 -9.017757573793425 a 27.0 27.0 0.0 1 0 -23.339027606198538,-48.69589089848447 z"/><path fill="#000000" d="M 29.85729164584079,-47.12938894173712 l -0.39813991722227005 -0.9173247005909325 a 10.0 10.0 0.0 0 1 9.934964528418371,1.138630677203472 l -0.5953565356195671 0.8034616328705848 a 9.0 9.0 0.0 0 0 -8.941468075576534,-1.0247676094831242 z"/><path fill="#120200" d="M 38.79875972141732,-46.10462133225399 l 0.595356535619567 -0.8034616328705854 a 10.0 10.0 0.0 0 1 3.9813991722226953,9.173247005909317 l -0.9934964528418355 -0.11386306772034693 a 9.0 9.0 0.0 0 0 -3.583259255000427,-8.255922305318386 z"/><path fill="#fea08e" d="M 42.38201897641775,-37.84869902693561 l 0.9934964528418367 0.11386306772034617 a 10.0 10.0 0.0 0 1 -5.953565356195667,8.034616328705862 l -0.39813991722227016 -0.9173247005909317 a 9.0 9.0 0.0 0 0 5.358208820576101,-7.2311546958352775 z"/><path fill="#c31c00" d="M 37.023810155841645,-30.617544331100333 l 0.39813991722227016 0.9173247005909324 a 10.0 10.0 0.0 0 1 -9.934964528418373,-1.1386306772034718 l 0.5953565356195671 -0.8034616328705848 a 9.0 9.0 0.0 0 0 8.941468075576536,1.0247676094831242 z"/><path fill="#f990a2" d="M 28.082342080265114,-31.642311940583458 l -0.5953565356195669 0.8034616328705854 a 10.0 10.0 0.0 0 1 -3.9813991722226962,-9.173247005909333 l 0.9934964528418373 0.11386306772034693 a 9.0 9.0 0.0 0 0 3.583259255000426,8.255922305318402 z"/><path fill="#ff2b04" d="M 24.499082825264686,-39.89823424590186 l -0.9934964528418365 -0.11386306772034806 a 10.0 10.0 0.0 0 1 5.953565356195664,-8.034616328705843 l 0.39813991722227016 0.9173247005909317 a 9.0 9.0 0.0 0 0 -5.358208820576098,7.23115469583526 z"/><path fill="#000000" d="M 42.60904154938255,-51.24677578262574 l 0.595356535619567 -0.8034616328705854 a 3.6999999999999997 3.6999999999999997 0.0 1 1 -4.405638363584796,5.945616083242331 l 0.5953565356195671 -0.8034616328705848 a 2.6999999999999997 2.6999999999999997 0.0 1 0 3.214925292345662,-4.33869281750116 z"/><path fill="#120200" d="M 48.7403962746055,-37.11997539352539 l 0.9934964528418366 0.11386306772034642 a 3.6999999999999997 3.6999999999999997 0.0 1 1 -7.351873751029591,-0.8425867011305629 l 0.9934964528418373 0.11386306772034627 a 2.6999999999999997 2.6999999999999997 0.0 1 0 5.364880845345917,0.6148605656898702 z"/><path fill="#fea08e" d="M 39.57190562606417,-24.746666247318366 l 0.39813991722226993 0.9173247005909325 a 3.6999999999999997 3.6999999999999997 0.0 1 1 -2.9462353874447977,-6.7882027843729 l 0.39813991722227016 0.9173247005909326 a 2.6999999999999997 2.6999999999999997 0.0 1 0 2.1499555530002574,4.953553383191035 z"/><path fill="#c31c00" d="M 24.27206025229988,-26.500157490211713 l -0.5953565356195671 0.8034616328705853 a 3.6999999999999997 3.6999999999999997 0.0 1 1 4.405638363584796,-5.9456160832423315 l -0.5953565356195671 0.8034616328705857 a 2.6999999999999997 2.6999999999999997 0.0 1 0 -3.214925292345662,4.33869281750116 z"/><path fill="#f990a2" d="M 18.140705527076936,-40.62695787931209 l -0.9934964528418365 -0.11386306772034806 a 3.6999999999999997 3.6999999999999997 0.0 1 1 7.351873751029589,0.8425867011305761 l -0.9934964528418364 -0.11386306772034827 a 2.6999999999999997 2.6999999999999997 0.0 1 0 -5.364880845345916,-0.6148605656898798 z"/><path fill="#ff2b04" d="M 27.309196175618258,-53.000267025519086 l -0.39813991722227005 -0.9173247005909325 a 3.6999999999999997 3.6999999999999997 0.0 1 1 2.9462353874447977,6.7882027843729 l -0.39813991722227016 -0.9173247005909326 a 2.6999999999999997 2.6999999999999997 0.0 1 0 -2.1499555530002574,-4.953553383191035 z"/><circle fill="#db000e" r="1.0" cx="183.82870804876293" cy="-12.006500202931353"/><circle fill="#0c0003" r="1.0" cx="172.35537948994792" cy="-22.27892600122652"/><circle fill="#170106" r="1.0" cx="175.51489691035468" cy="-37.351332898273384"/><circle fill="#ffa77f" r="1.0" cx="190.14774288957645" cy="-42.1513139970251"/><circle fill="#fdeced" r="1.0" cx="201.62107144839146" cy="-31.87888819872993"/><circle fill="#ffffff" r="1.0" cx="198.46155402798468" cy="-16.806481301683043"/><circle fill="#570b00" r="1.0" cx="239.47632232066385" cy="105.53700043387192"/><circle fill="#f5722a" r="1.0" cx="251.9312035930032" cy="96.47963147307922"/><circle fill="#000000" r="1.0" cx="266.002555840668" cy="102.73719057564777"/><circle fill="#490b01" r="1.0" cx="267.61902681599344" cy="118.05211863900904"/><circle fill="#840008" r="1.0" cx="255.16414554365414" cy="127.10948759980175"/><circle fill="#ff6580" r="1.0" cx="241.09279329598934" cy="120.8519284972332"/><circle fill="#3d0105" r="1.0" cx="151.1744965610919" cy="238.19285264785373"/><circle fill="#ff233b" r="1.0" cx="159.45640183439363" cy="225.20939990815245"/><circle fill="#740715" r="1.0" cx="174.8413543724605" cy="225.89001389671742"/><circle fill="#000000" r="1.0" cx="181.94440163722564" cy="239.55408062498367"/><circle fill="#fc499f" r="1.0" cx="173.66249636392388" cy="252.53753336468498"/><circle fill="#900718" r="1.0" cx="158.27754382585704" cy="251.85691937611998"/><circle fill="#de1144" r="1.0" cx="17.56448866597217" cy="212.36725206039551"/><circle fill="#450008" r="1.0" cx="28.028798594393216" cy="223.6658456773883"/><circle fill="#fb755a" r="1.0" cx="23.476084459251307" cy="238.37750071697099"/><circle fill="#bd0030" r="1.0" cx="8.459060395688368" cy="241.79056213956096"/><circle fill="#ff0457" r="1.0" cx="-2.005249532732652" cy="230.49196852256821"/><circle fill="#ffcaca" r="1.0" cx="2.547464602409251" cy="215.7803134829855"/><circle fill="#f9e4de" r="1.0" cx="-60.96304727616919" cy="101.70256043797681"/><circle fill="#ff6495" r="1.0" cx="-68.94420969802067" cy="88.53209930724849"/><circle fill="#2c0d00" r="1.0" cx="-61.528836990180174" cy="75.03497933283121"/><circle fill="#3e0018" r="1.0" cx="-46.13230186048817" cy="74.70832048914224"/><circle fill="#030000" r="1.0" cx="-38.151139438636676" cy="87.87878161987058"/><circle fill="#000000" r="1.0" cx="-45.566512146477194" cy="101.37590159428785"/><circle fill="#000000" r="1.0" cx="42.60904154938255" cy="-51.24677578262574"/><circle fill="#120200" r="1.0" cx="48.7403962746055" cy="-37.11997539352539"/><circle fill="#fea08e" r="1.0" cx="39.57190562606417" cy="-24.746666247318366"/><circle fill="#c31c00" r="1.0" cx="24.27206025229988" cy="-26.500157490211713"/><circle fill="#f990a2" r="1.0" cx="18.140705527076936" cy="-40.62695787931209"/><circle fill="#ff2b04" r="1.0" cx="27.309196175618258" cy="-53.000267025519086"/></g></svg>