<?xml version='1.0' encoding='UTF-8'?>
<svg preserveAspectRatio="xMidYMid meet" xmlns="http://www.w3.org/2000/svg" xmlns:svg="http://www.w3.org/2000/svg"><g><path fill="#870126" d="M 100.0,100.0 l 41.72036426593297 -27.55741652473728 a 50.0 50.0 0.0 0 1 8.0277536864915,22.544956031959156 l -49.74811795242447 5.012460492778124 z"/><path fill="#811308" d="M 100.0,100.0 l 49.74811795242447 -5.012460492778124 a 50.0 50.0 0.0 0 1 -3.3689406065956717,23.69325032415732 l -46.3791773458288 -18.680789831379194 z"/><path fill="#b50027" d="M 100.0,100.0 l 46.37917734582881 18.680789831379183 a 50.0 50.0 0.0 0 1 -13.99385120684741,19.41370650171083 l -32.3853261389814 -38.094496333090014 z"/><path fill="#190001" d="M 100.0,100.0 l 32.385326138981405 38.09449633309001 a 50.0 50.0 0.0 0 1 -21.412939139799207,10.686716480248052 l -10.972386999182199 -48.78121281333806 z"/><path fill="#540305" d="M 100.0,100.0 l 10.972386999182211 48.78121281333806 a 50.0 50.0 0.0 0 1 -23.926580769713958,-0.4884714979445377 l 12.954193770531749 -48.29274131539352 z"/><path fill="#5f0e0d" d="M 100.0,100.0 l -12.954193770531738 48.29274131539352 a 50.0 50.0 0.0 0 1 -20.958931091843695,-11.55175654267773 l 33.91312486237543 -36.74098477271579 z"/><path fill="#621b00" d="M 100.0,100.0 l -33.91312486237542 36.7409847727158 a 50.0 50.0 0.0 0 1 -13.189842883332858,-19.968673377241256 l 47.10296774570828 -16.772311395474542 z"/><path fill="#a70b00" d="M 100.0,100.0 l -47.10296774570828 16.772311395474564 a 50.0 50.0 0.0 0 1 -2.3991206250886847,-23.811007789680545 l 49.50208837079696 7.038696394205983 z"/><path fill="#b30f00" d="M 100.0,100.0 l -49.50208837079696 -7.038696394205983 a 50.0 50.0 0.0 0 1 8.941211255825536,-22.198527271254918 l 40.560877114971426 29.2372236654609 z"/><path fill="#bc1a18" d="M 100.0,100.0 l -40.560877114971426 -29.2372236654609 a 50.0 50.0 0.0 0 1 18.23321939130672,-15.500631676239106 l 22.327657723664707 44.737855341700005 z"/><path fill="#870126" d="M 100.0,100.0 l -22.327657723664707 -44.737855341700005 a 50.0 50.0 0.0 0 1 23.348216698353465,-5.251728167058914 l -1.0205589746887567 49.98958350875892 z"/><path fill="#811308" d="M 100.0,100.0 l 1.0205589746887567 -49.98958350875892 a 50.0 50.0 0.0 0 1 23.114418936321194,6.200282975009102 l -24.13497791100995 43.78930053374982 z"/><path fill="#b50027" d="M 100.0,100.0 l 24.13497791100995 -43.78930053374982 a 50.0 50.0 0.0 0 1 17.58538635492302,16.231884009012536 l -41.72036426593297 27.55741652473728 z"/><path fill="#001427" d="M 50.91633610217617,90.47141467134468 l -49.08366389782383 -9.528585328655307 a 100.0 100.0 0.0 0 1 85.95640155020064,-80.19449572783505 l 6.105463122723506 49.62583319257283 a 50.0 50.0 0.0 0 0 -42.97820077510032,40.09724786391753 z"/><path fill="#708d81" d="M 93.89453687727645,50.37416680742717 l -6.105463122723556 -49.62583319257283 a 100.0 100.0 0.0 0 1 102.83148658729027,56.96793377637086 l -45.31028017092158 21.141866304387396 a 50.0 50.0 0.0 0 0 -51.41574329364513,-28.48396688818543 z"/><path fill="#f4d58d" d="M 145.31028017092157,78.85813369561261 l 45.31028017092157 -21.141866304387396 a 100.0 100.0 0.0 0 1 -22.4030477255761,115.40261507048535 l -34.10875630813352 -36.559441230855285 a 50.0 50.0 0.0 0 0 11.20152386278805,-57.70130753524268 z"/><path fill="#bf0603" d="M 134.10875630813354,136.55944123085527 l 34.10875630813353 36.55944123085528 a 100.0 100.0 0.0 0 1 -116.67733153328257,14.35480472780985 l 24.22990945850775 -43.7368435947602 a 50.0 50.0 0.0 0 0 58.338665766641284,-7.177402363904925 z"/><path fill="#8d0801" d="M 75.77009054149225,143.73684359476022 l -24.229909458507745 43.7368435947602 a 100.0 100.0 0.0 0 1 -49.70750887863217,-106.53085784683104 l 49.083663897823826 9.528585328655318 a 50.0 50.0 0.0 0 0 24.853754439316088,53.26542892341552 z"/></g></svg>