<?xml version='1.0' encoding='UTF-8'?>
<svg xmlns="http://www.w3.org/2000/svg" xmlns:svg="http://www.w3.org/2000/svg"><g><circle r="100.0" cx="100.0" cy="100.0"/><circle r="100.0" cx="100.0" cy="100.0"/><circle r="100.0" cx="100.0" cy="100.0"/><circle r="100.0" cx="100.0" cy="100.0"/><circle r="100.0" cx="100.0" cy="100.0"/><circle r="100.0" cx="100.0" cy="100.0"/><circle r="100.0" cx="100.0" cy="100.0"/><circle r="100.0" cx="100.0" cy="100.0"/><circle r="100.0" cx="100.0" cy="100.0"/><circle r="100.0" cx="100.0" cy="100.0"/><circle r="100.0" cx="100.0" cy="100.0"/><circle r="100.0" cx="100.0" cy="100.0"/><circle r="100.0" cx="100.0" cy="100.0"/><circle r="100.0" cx="100.0" cy="100.0"/><circle r="100.0" cx="100.0" cy="100.0"/><circle fill="#ffb1a8" r="13.199638624366647" cx="100.0" cy="100.0"/><path fill="#b74d00" d="M 117.62868193669247,100.0 a 17.62868193669247 17.62868193669247 0.0 1 1 -17.62868193669247,-17.62868193669247 a 17.62868193669247 17.62868193669247 0.0 0 1 17.62868193669247,17.62868193669247 z M 113.19963862436666,100.0 a 13.199638624366647 13.199638624366647 0.0 1 0 -13.199638624366647,13.199638624366647 a 13.199638624366647 13.199638624366647 0.0 0 0 13.199638624366647,-13.199638624366647 z"/><path fill="#b32c08" d="M 125.35720696725568,100.0 a 25.357206967255674 25.357206967255674 0.0 1 1 -25.357206967255674,-25.357206967255674 a 25.357206967255674 25.357206967255674 0.0 0 1 25.357206967255674,25.357206967255674 z M 117.62868193669247,100.0 a 17.62868193669247 17.62868193669247 0.0 1 0 -17.62868193669247,17.62868193669247 a 17.62868193669247 17.62868193669247 0.0 0 0 17.62868193669247,-17.62868193669247 z"/><path fill="#fb5520" d="M 132.29053767145766,100.0 a 32.29053767145765 32.29053767145765 0.0 1 1 -32.29053767145765,-32.29053767145765 a 32.29053767145765 32.29053767145765 0.0 0 1 32.29053767145765,32.29053767145765 z M 125.35720696725568,100.0 a 25.357206967255674 25.357206967255674 0.0 1 0 -25.357206967255674,25.357206967255674 a 25.357206967255674 25.357206967255674 0.0 0 0 25.357206967255674,-25.357206967255674 z"/><path fill="#ff4b33" d="M 161.1857078605715,100.0 a 61.18570786057151 61.18570786057151 0.0 1 1 -61.18570786057151,-61.18570786057151 a 61.18570786057151 61.18570786057151 0.0 0 1 61.18570786057151,61.18570786057151 z M 132.29053767145766,100.0 a 32.29053767145765 32.29053767145765 0.0 1 0 -32.29053767145765,32.29053767145765 a 32.29053767145765 32.29053767145765 0.0 0 0 32.29053767145765,-32.29053767145765 z"/><path fill="#3f0f07" d="M 165.06342601761077,100.0 a 65.06342601761078 65.06342601761078 0.0 1 1 -65.06342601761078,-65.06342601761078 a 65.06342601761078 65.06342601761078 0.0 0 1 65.06342601761078,65.06342601761078 z M 161.18570786057148,100.0 a 61.18570786057151 61.18570786057151 0.0 1 0 -61.18570786057151,61.18570786057151 a 61.18570786057151 61.18570786057151 0.0 0 0 61.18570786057151,-61.18570786057151 z"/><path fill="#d61d99" d="M 180.18701635069726,100.0 a 80.18701635069728 80.18701635069728 0.0 1 1 -80.18701635069728,-80.18701635069728 a 80.18701635069728 80.18701635069728 0.0 0 1 80.18701635069728,80.18701635069728 z M 165.06342601761077,100.0 a 65.06342601761078 65.06342601761078 0.0 1 0 -65.06342601761078,65.06342601761078 a 65.06342601761078 65.06342601761078 0.0 0 0 65.06342601761078,-65.06342601761078 z"/><path fill="#dd0175" d="M 184.9899307521929,100.0 a 84.9899307521929 84.9899307521929 0.0 1 1 -84.9899307521929,-84.9899307521929 a 84.9899307521929 84.9899307521929 0.0 0 1 84.9899307521929,84.9899307521929 z M 180.18701635069726,100.0 a 80.18701635069728 80.18701635069728 0.0 1 0 -80.18701635069728,80.18701635069728 a 80.18701635069728 80.18701635069728 0.0 0 0 80.18701635069728,-80.18701635069728 z"/><path fill="#fdb8a1" d="M 189.29546366657127,100.0 a 89.29546366657128 89.29546366657128 0.0 1 1 -89.29546366657128,-89.29546366657128 a 89.29546366657128 89.29546366657128 0.0 0 1 89.29546366657128,89.29546366657128 z M 184.9899307521929,100.0 a 84.9899307521929 84.9899307521929 0.0 1 0 -84.9899307521929,84.9899307521929 a 84.9899307521929 84.9899307521929 0.0 0 0 84.9899307521929,-84.9899307521929 z"/><path fill="#000000" d="M 192.1789944376855,100.0 a 92.17899443768552 92.17899443768552 0.0 1 1 -92.17899443768552,-92.17899443768552 a 92.17899443768552 92.17899443768552 0.0 0 1 92.17899443768552,92.17899443768552 z M 189.29546366657127,100.0 a 89.29546366657128 89.29546366657128 0.0 1 0 -89.29546366657128,89.29546366657128 a 89.29546366657128 89.29546366657128 0.0 0 0 89.29546366657128,-89.29546366657128 z"/><path fill="#ffb1a8" d="M 200.0,100.0 a 100.0 100.0 0.0 1 1 -100.0,-100.0 a 100.0 100.0 0.0 0 1 100.0,100.0 z M 192.1789944376855,100.0 a 92.17899443768552 92.17899443768552 0.0 1 0 -92.17899443768552,92.17899443768552 a 92.17899443768552 92.17899443768552 0.0 0 0 92.17899443768552,-92.17899443768552 z"/><circle r="100.0" cx="100.0" cy="100.0"/><circle r="100.0" cx="100.0" cy="100.0"/><circle r="100.0" cx="100.0" cy="100.0"/><circle r="100.0" cx="100.0" cy="100.0"/><circle r="100.0" cx="100.0" cy="100.0"/><circle r="100.0" cx="100.0" cy="100.0"/><circle r="100.0" cx="100.0" cy="100.0"/><circle r="100.0" cx="100.0" cy="100.0"/><circle r="100.0" cx="100.0" cy="100.0"/><circle fill="#ffb1a8" r="13.199638624366647" cx="100.0" cy="100.0"/><path fill="#b74d00" d="M 117.62868193669247,100.0 a 17.62868193669247 17.62868193669247 0.0 1 1 -17.62868193669247,-17.62868193669247 a 17.62868193669247 17.62868193669247 0.0 0 1 17.62868193669247,17.62868193669247 z M 113.19963862436666,100.0 a 13.199638624366647 13.199638624366647 0.0 1 0 -13.199638624366647,13.199638624366647 a 13.199638624366647 13.199638624366647 0.0 0 0 13.199638624366647,-13.199638624366647 z"/><path fill="#b32c08" d="M 125.35720696725568,100.0 a 25.357206967255674 25.357206967255674 0.0 1 1 -25.357206967255674,-25.357206967255674 a 25.357206967255674 25.357206967255674 0.0 0 1 25.357206967255674,25.357206967255674 z M 117.62868193669247,100.0 a 17.62868193669247 17.62868193669247 0.0 1 0 -17.62868193669247,17.62868193669247 a 17.62868193669247 17.62868193669247 0.0 0 0 17.62868193669247,-17.62868193669247 z"/><path fill="#fb5520" d="M 132.29053767145766,100.0 a 32.29053767145765 32.29053767145765 0.0 1 1 -32.29053767145765,-32.29053767145765 a 32.29053767145765 32.29053767145765 0.0 0 1 32.29053767145765,32.29053767145765 z M 125.35720696725568,100.0 a 25.357206967255674 25.357206967255674 0.0 1 0 -25.357206967255674,25.357206967255674 a 25.357206967255674 25.357206967255674 0.0 0 0 25.357206967255674,-25.357206967255674 z"/><path fill="#ff4b33" d="M 161.1857078605715,100.0 a 61.18570786057151 61.18570786057151 0.0 1 1 -61.18570786057151,-61.18570786057151 a 61.18570786057151 61.18570786057151 0.0 0 1 61.18570786057151,61.18570786057151 z M 132.29053767145766,100.0 a 32.29053767145765 32.29053767145765 0.0 1 0 -32.29053767145765,32.29053767145765 a 32.29053767145765 32.29053767145765 0.0 0 0 32.29053767145765,-32.29053767145765 z"/><path fill="#3f0f07" d="M 165.06342601761077,100.0 a 65.06342601761078 65.06342601761078 0.0 1 1 -65.06342601761078,-65.06342601761078 a 65.06342601761078 65.06342601761078 0.0 0 1 65.06342601761078,65.06342601761078 z M 161.18570786057148,100.0 a 61.18570786057151 61.18570786057151 0.0 1 0 -61.18570786057151,61.18570786057151 a 61.18570786057151 61.18570786057151 0.0 0 0 61.18570786057151,-61.18570786057151 z"/><path fill="#d61d99" d="M 180.18701635069726,100.0 a 80.18701635069728 80.18701635069728 0.0 1 1 -80.18701635069728,-80.18701635069728 a 80.18701635069728 80.18701635069728 0.0 0 1 80.18701635069728,80.18701635069728 z M 165.06342601761077,100.0 a 65.06342601761078 65.06342601761078 0.0 1 0 -65.06342601761078,65.06342601761078 a 65.06342601761078 65.06342601761078 0.0 0 0 65.06342601761078,-65.06342601761078 z"/><path fill="#dd0175" d="M 184.9899307521929,100.0 a 84.9899307521929 84.9899307521929 0.0 1 1 -84.9899307521929,-84.9899307521929 a 84.9899307521929 84.9899307521929 0.0 0 1 84.9899307521929,84.9899307521929 z M 180.18701635069726,100.0 a 80.18701635069728 80.18701635069728 0.0 1 0 -80.18701635069728,80.18701635069728 a 80.18701635069728 80.18701635069728 0.0 0 0 80.18701635069728,-80.18701635069728 z"/><path fill="#fdb8a1" d="M 189.29546366657127,100.0 a 89.29546366657128 89.29546366657128 0.0 1 1 -89.29546366657128,-89.29546366657128 a 89.29546366657128 89.29546366657128 0.0 0 1 89.29546366657128,89.29546366657128 z M 184.9899307521929,100.0 a 84.9899307521929 84.9899307521929 0.0 1 0 -84.9899307521929,84.9899307521929 a 84.9899307521929 84.9899307521929 0.0 0 0 84.9899307521929,-84.9899307521929 z"/><path fill="#000000" d="M 192.1789944376855,100.0 a 92.17899443768552 92.17899443768552 0.0 1 1 -92.17899443768552,-92.17899443768552 a 92.17899443768552 92.17899443768552 0.0 0 1 92.17899443768552,92.17899443768552 z M 189.29546366657127,100.0 a 89.29546366657128 89.29546366657128 0.0 1 0 -89.29546366657128,89.29546366657128 a 89.29546366657128 89.29546366657128 0.0 0 0 89.29546366657128,-89.29546366657128 z"/><path fill="#ffb1a8" d="M 200.0,100.0 a 100.0 100.0 0.0 1 1 -100.0,-100.0 a 100.0 100.0 0.0 0 1 100.0,100.0 z M 192.1789944376855,100.0 a 92.17899443768552 92.17899443768552 0.0 1 0 -92.17899443768552,92.17899443768552 a 92.17899443768552 92.17899443768552 0.0 0 0 92.17899443768552,-92.17899443768552 z"/><circle r="100.0" cx="100.0" cy="100.0"/><circle r="100.0" cx="100.0" cy="100.0"/><circle r="100.0" cx="100.0" cy="100.0"/><circle r="100.0" cx="100.0" cy="100.0"/><circle r="100.0" cx="100.0" cy="100.0"/><circle r="100.0" cx="100.0" cy="100.0"/><circle r="100.0" cx="100.0" cy="100.0"/><circle r="100.0" cx="100.0" cy="100.0"/><circle r="100.0" cx="100.0" cy="100.0"/><circle fill="#ffb1a8" r="13.199638624366647" cx="100.0" cy="100.0"/><path fill="#b74d00" d="M 117.62868193669247,100.0 a 17.62868193669247 17.62868193669247 0.0 1 1 -17.62868193669247,-17.62868193669247 a 17.62868193669247 17.62868193669247 0.0 0 1 17.62868193669247,17.62868193669247 z M 113.19963862436666,100.0 a 13.199638624366647 13.199638624366647 0.0 1 0 -13.199638624366647,13.199638624366647 a 13.199638624366647 13.199638624366647 0.0 0 0 13.199638624366647,-13.199638624366647 z"/><path fill="#b32c08" d="M 125.35720696725568,100.0 a 25.357206967255674 25.357206967255674 0.0 1 1 -25.357206967255674,-25.357206967255674 a 25.357206967255674 25.357206967255674 0.0 0 1 25.357206967255674,25.357206967255674 z M 117.62868193669247,100.0 a 17.62868193669247 17.62868193669247 0.0 1 0 -17.62868193669247,17.62868193669247 a 17.62868193669247 17.62868193669247 0.0 0 0 17.62868193669247,-17.62868193669247 z"/><path fill="#fb5520" d="M 132.29053767145766,100.0 a 32.29053767145765 32.29053767145765 0.0 1 1 -32.29053767145765,-32.29053767145765 a 32.29053767145765 32.29053767145765 0.0 0 1 32.29053767145765,32.29053767145765 z M 125.35720696725568,100.0 a 25.357206967255674 25.357206967255674 0.0 1 0 -25.357206967255674,25.357206967255674 a 25.357206967255674 25.357206967255674 0.0 0 0 25.357206967255674,-25.357206967255674 z"/><path fill="#ff4b33" d="M 161.1857078605715,100.0 a 61.18570786057151 61.18570786057151 0.0 1 1 -61.18570786057151,-61.18570786057151 a 61.18570786057151 61.18570786057151 0.0 0 1 61.18570786057151,61.18570786057151 z M 132.29053767145766,100.0 a 32.29053767145765 32.29053767145765 0.0 1 0 -32.29053767145765,32.29053767145765 a 32.29053767145765 32.29053767145765 0.0 0 0 32.29053767145765,-32.29053767145765 z"/><path fill="#3f0f07" d="M 165.06342601761077,100.0 a 65.06342601761078 65.06342601761078 0.0 1 1 -65.06342601761078,-65.06342601761078 a 65.06342601761078 65.06342601761078 0.0 0 1 65.06342601761078,65.06342601761078 z M 161.18570786057148,100.0 a 61.18570786057151 61.18570786057151 0.0 1 0 -61.18570786057151,61.18570786057151 a 61.18570786057151 61.18570786057151 0.0 0 0 61.18570786057151,-61.18570786057151 z"/><path fill="#d61d99" d="M 180.18701635069726,100.0 a 80.18701635069728 80.18701635069728 0.0 1 1 -80.18701635069728,-80.18701635069728 a 80.18701635069728 80.18701635069728 0.0 0 1 80.18701635069728,80.18701635069728 z M 165.06342601761077,100.0 a 65.06342601761078 65.06342601761078 0.0 1 0 -65.06342601761078,65.06342601761078 a 65.06342601761078 65.06342601761078 0.0 0 0 65.06342601761078,-65.06342601761078 z"/><path fill="#dd0175" d="M 184.9899307521929,100.0 a 84.9899307521929 84.9899307521929 0.0 1 1 -84.9899307521929,-84.9899307521929 a 84.9899307521929 84.9899307521929 0.0 0 1 84.9899307521929,84.9899307521929 z M 180.18701635069726,100.0 a 80.18701635069728 80.18701635069728 0.0 1 0 -80.18701635069728,80.18701635069728 a 80.18701635069728 80.18701635069728 0.0 0 0 80.18701635069728,-80.18701635069728 z"/><path fill="#fdb8a1" d="M 189.29546366657127,100.0 a 89.29546366657128 89.29546366657128 0.0 1 1 -89.29546366657128,-89.29546366657128 a 89.29546366657128 89.29546366657128 0.0 0 1 89.29546366657128,89.29546366657128 z M 184.9899307521929,100.0 a 84.9899307521929 84.9899307521929 0.0 1 0 -84.9899307521929,84.9899307521929 a 84.9899307521929 84.9899307521929 0.0 0 0 84.9899307521929,-84.9899307521929 z"/><path fill="#000000" d="M 192.1789944376855,100.0 a 92.17899443768552 92.17899443768552 0.0 1 1 -92.17899443768552,-92.17899443768552 a 92.17899443768552 92.17899443768552 0.0 0 1 92.17899443768552,92.17899443768552 z M 189.29546366657127,100.0 a 89.29546366657128 89.29546366657128 0.0 1 0 -89.29546366657128,89.29546366657128 a 89.29546366657128 89.29546366657128 0.0 0 0 89.29546366657128,-89.29546366657128 z"/><path fill="#ffb1a8" d="M 200.0,100.0 a 100.0 100.0 0.0 1 1 -100.0,-100.0 a 100.0 100.0 0.0 0 1 100.0,100.0 z M 192.1789944376855,100.0 a 92.17899443768552 92.17899443768552 0.0 1 0 -92.17899443768552,92.17899443768552 a 92.17899443768552 92.17899443768552 0.0 0 0 92.17899443768552,-92.17899443768552 z"/><circle r="100.0" cx="100.0" cy="100.0"/><circle r="100.0" cx="100.0" cy="100.0"/><circle r="100.0" cx="100.0" cy="100.0"/><path fill="#ffb1a8" d="M 100.0,100.0 l -5.198799944566058 12.132721827778456 a 13.199638624366647 13.199638624366647 0.0 0 1 -6.866965214375568,-6.780360578465947 l 12.065765158941627 -5.352361249312509 z"/><path fill="#b74d00" d="M 100.0,100.0 l -12.065765158941632 5.352361249312499 a 13.199638624366647 13.199638624366647 0.0 0 1 -1.1242108517211609,-5.8573292205858225 l 13.189976010662793 0.5049679712733237 z"/><path fill="#b32c08" d="M 100.0,100.0 l -13.189976010662793 -0.5049679712733237 a 13.199638624366647 13.199638624366647 0.0 0 1 1.4109800395091927,-5.452020674461963 l 11.7789959711536 5.9569886457352865 z"/><path fill="#fb5520" d="M 100.0,100.0 l -11.7789959711536 -5.9569886457352865 a 13.199638624366647 13.199638624366647 0.0 0 1 4.483849219476274,-5.043524691621457 l 7.2951467516773265 11.000513337356743 z"/><path fill="#ff4b33" d="M 100.0,100.0 l -7.2951467516773265 -11.000513337356743 a 13.199638624366647 13.199638624366647 0.0 0 1 2.657584767401988,-1.357620771637059 l 4.637561984275338 12.358134108993802 z"/><path fill="#3f0f07" d="M 100.0,100.0 l -4.637561984275338 -12.358134108993802 a 13.199638624366647 13.199638624366647 0.0 0 1 3.430832812070882,-0.786228352488406 l 1.2067291722044562 13.144362461482208 z"/><path fill="#d61d99" d="M 100.0,100.0 l -1.2067291722044562 -13.144362461482208 a 13.199638624366647 13.199638624366647 0.0 0 1 3.223717068205038,0.09973829513464061 l -2.0169878960005816 13.044624166347567 z"/><path fill="#dd0175" d="M 100.0,100.0 l 2.0169878960005816 -13.044624166347567 a 13.199638624366647 13.199638624366647 0.0 0 1 3.0152893244235566,0.8418930871722115 l -5.032277220424138 12.202731079175356 z"/><path fill="#fdb8a1" d="M 100.0,100.0 l 5.032277220424138 -12.202731079175356 a 13.199638624366647 13.199638624366647 0.0 0 1 0.39909488265325876,0.1723255626607738 l -5.431372103077397 12.030405516514582 z"/><path fill="#000000" d="M 100.0,100.0 l 5.431372103077397 -12.030405516514582 a 13.199638624366647 13.199638624366647 0.0 0 1 1.9302564221403609,1.074270921203512 l -7.361628525217758 10.95613459531107 z"/><path fill="#ffb1a8" d="M 100.0,100.0 l 7.361628525217758 -10.95613459531107 a 13.199638624366647 13.199638624366647 0.0 0 1 1.4549588426030455,1.1327824689005315 l -8.816587367820803 9.823352126410539 z"/><path fill="#b74d00" d="M 100.0,100.0 l 8.816587367820803 -9.823352126410539 a 13.199638624366647 13.199638624366647 0.0 0 1 1.4928113036491037,1.580369726419237 l -10.309398671469907 8.242982399991302 z"/><path fill="#b32c08" d="M 100.0,100.0 l 10.309398671469907 -8.242982399991302 a 13.199638624366647 13.199638624366647 0.0 0 1 2.282944328935889,4.285286406865627 l -12.592343000405796 3.9576959931256748 z"/><path fill="#fb5520" d="M 100.0,100.0 l 12.592343000405796 -3.9576959931256748 a 13.199638624366647 13.199638624366647 0.0 0 1 0.25104734309347343,0.911750442334986 l -12.84339034349927 3.0459455507906887 z"/><path fill="#ff4b33" d="M 100.0,100.0 l 12.84339034349927 -3.0459455507906887 a 13.199638624366647 13.199638624366647 0.0 0 1 0.07900843661452406,0.35483619188581894 l -12.922398780113793 2.69110935890487 z"/><path fill="#3f0f07" d="M 100.0,100.0 l 12.922398780113793 -2.69110935890487 a 13.199638624366647 13.199638624366647 0.0 0 1 0.27709670237056727,2.7525814806089537 l -13.19949548248436 -0.06147212170408375 z"/><path fill="#d61d99" d="M 100.0,100.0 l 13.19949548248436 0.06147212170408052 a 13.199638624366647 13.199638624366647 0.0 0 1 -5.371765256736438E-4,0.07254075616967433 l -13.198958305958687 -0.13401287787375485 z"/><path fill="#dd0175" d="M 100.0,100.0 l 13.198958305958687 0.13401287787375163 a 13.199638624366647 13.199638624366647 0.0 0 1 -0.4096493957296836,3.1315709003516474 l -12.789308910229003 -3.265583778225399 z"/><path fill="#fdb8a1" d="M 100.0,100.0 l 12.789308910229003 3.265583778225396 a 13.199638624366647 13.199638624366647 0.0 0 1 -3.936254521030625,6.52491609643714 l -8.853054389198379 -9.790499874662537 z"/><path fill="#000000" d="M 100.0,100.0 l 8.853054389198382 9.790499874662535 a 13.199638624366647 13.199638624366647 0.0 0 1 -1.8627383024925388,1.4061934238883076 l -6.990316086705843 -11.196693298550842 z"/><path fill="#ffb1a8" d="M 100.0,100.0 l 6.990316086705846 11.19669329855084 a 13.199638624366647 13.199638624366647 0.0 0 1 -12.189116031271908,0.9360285292276131 l 5.198799944566062 -12.132721827778454 z"/><path fill="#ffb1a8" d="M 112.69141058296294,112.23513482719842 l 5.563994217822216 5.3639600569059915 a 25.357206967255674 25.357206967255674 0.0 0 1 -16.855152349089636,7.719420835656109 l -0.42677752861389173 -7.716732474895846 a 17.62868193669247 17.62868193669247 0.0 0 0 11.717935659881313,-5.366648417666255 z"/><path fill="#b74d00" d="M 100.97347492308162,117.60178324486466 l 0.4267775286138931 7.716732474895848 a 25.357206967255674 25.357206967255674 0.0 0 1 -11.287295093509606,-1.9682623382832665 l 3.0134334839865735 -7.116833409995667 a 17.62868193669247 17.62868193669247 0.0 0 0 7.847084080909139,1.3683632733830855 z"/><path fill="#b32c08" d="M 93.1263908421725,116.23341997148158 l -3.013433483986571 7.1168334099956665 a 25.357206967255674 25.357206967255674 0.0 0 1 -8.833215825383515,-6.24645649009794 l 5.705675168766725 -5.213000097502471 a 17.62868193669247 17.62868193669247 0.0 0 0 6.140974140603361,4.342623177604745 z"/><path fill="#fb5520" d="M 86.98541670156914,111.89079679387685 l -5.705675168766725 5.213000097502472 a 25.357206967255674 25.357206967255674 0.0 0 1 -6.0073512603177095,-11.488348347947476 l 7.536632523127729 -1.711510841150405 a 17.62868193669247 17.62868193669247 0.0 0 0 4.176393905956706,7.986859091595409 z"/><path fill="#ff4b33" d="M 82.80902279561244,103.90393770228144 l -7.536632523127728 1.7115108411504067 a 25.357206967255674 25.357206967255674 0.0 0 1 -0.6294619272482302,-5.698287395596653 l 7.728483789192108 0.025248133332885114 a 17.62868193669247 17.62868193669247 0.0 0 0 0.43761066118385017,3.9615284211133615 z"/><path fill="#3f0f07" d="M 82.37141213442858,99.94240928116808 l -7.728483789192107 -0.025248133332883192 a 25.357206967255674 25.357206967255674 0.0 0 1 0.9234077319976199,-6.698312413628321 l 7.447041918272536 2.0668008649924854 a 17.62868193669247 17.62868193669247 0.0 0 0 -0.6419658610780488,4.656759681968719 z"/><path fill="#d61d99" d="M 83.01337799550663,95.28564959919936 l -7.447041918272538 -2.066800864992483 a 25.357206967255674 25.357206967255674 0.0 0 1 2.3739218315372153,-5.72307698103255 l 6.7235034655033665 3.8111153613353412 a 17.62868193669247 17.62868193669247 0.0 0 0 -1.6503833787680442,3.9787624846896916 z"/><path fill="#dd0175" d="M 84.66376137427467,91.30688711450968 l -6.723503465503368 -3.8111153613353386 a 25.357206967255674 25.357206967255674 0.0 0 1 3.56520376957193,-4.843393995113119 l 5.6368787986867215 5.287314682989667 a 17.62868193669247 17.62868193669247 0.0 0 0 -2.4785791027552833,3.3671946734587905 z"/><path fill="#fdb8a1" d="M 87.14234047702995,87.9396924410509 l -5.636878798686725 -5.287314682989663 a 25.357206967255674 25.357206967255674 0.0 0 1 0.5812698427937661,-0.5995992027420929 l 5.459715811637549 5.470064204760021 a 17.62868193669247 17.62868193669247 0.0 0 0 -0.4041068557445904,0.416849680971735 z"/><path fill="#000000" d="M 87.54644733277453,87.52284276007916 l -5.459715811637551 -5.470064204760023 a 25.357206967255674 25.357206967255674 0.0 0 1 3.2439329732403284,-2.736069903741358 l 4.471010028168113 6.303980367677404 a 17.62868193669247 17.62868193669247 0.0 0 0 -2.25522718977089,1.9021537408239766 z"/><path fill="#ffb1a8" d="M 89.80167452254543,85.6206890192552 l -4.471010028168114 -6.303980367677405 a 25.357206967255674 25.357206967255674 0.0 0 1 3.0254514496205838,-1.8424252721565741 l 3.54889438320215 6.865526039927181 a 17.62868193669247 17.62868193669247 0.0 0 0 -2.10333580465462,1.2808795999067986 z"/><path fill="#b74d00" d="M 91.90501032720005,84.33980941934838 l -3.5488943832021493 -6.8655260399271825 a 25.357206967255674 25.357206967255674 0.0 0 1 3.85525314367757,-1.605698043543624 l 2.3738666895549327 7.354920535822497 a 17.62868193669247 17.62868193669247 0.0 0 0 -2.6802254500303535,1.1163035476483092 z"/><path fill="#b32c08" d="M 94.5852357772304,83.22350587170008 l -2.373866689554932 -7.354920535822497 a 25.357206967255674 25.357206967255674 0.0 0 1 9.252211827993383,-1.183519190887548 l -0.4460791661955472 7.715640772193083 a 17.62868193669247 17.62868193669247 0.0 0 0 -6.432265972242904,0.8227989545169621 z"/><path fill="#fb5520" d="M 101.01750174947331,82.40070691718311 l 0.4460791661955469 -7.715640772193082 a 25.357206967255674 25.357206967255674 0.0 0 1 1.8087556090222527,0.16976018590574338 l -0.9973627920519545 7.663900221758649 a 17.62868193669247 17.62868193669247 0.0 0 0 -1.257471983165845,-0.11801963547130967 z"/><path fill="#ff4b33" d="M 102.27497373263915,82.51872655265443 l 0.9973627920519545 -7.663900221758652 a 25.357206967255674 25.357206967255674 0.0 0 1 0.6912063104379809,0.0996496503431743 l -1.2080328898431438 7.633528390272694 a 17.62868193669247 17.62868193669247 0.0 0 0 -0.4805362126467916,-0.06927781885721629 z"/><path fill="#3f0f07" d="M 102.75550994528594,82.58800437151164 l 1.2080328898431436 -7.633528390272693 a 25.357206967255674 25.357206967255674 0.0 0 1 5.133299311043653,1.3762315040310176 l -2.7725913313940658 7.214072113385093 a 17.62868193669247 17.62868193669247 0.0 0 0 -3.5687408694927307,-0.9567752271434173 z"/><path fill="#d61d99" d="M 106.32425081477868,83.54477959865505 l 2.7725913313940658 -7.214072113385093 a 25.357206967255674 25.357206967255674 0.0 0 1 0.12994413321864728,0.05035180743592349 l -2.8121965011374064 7.198725580756118 a 17.62868193669247 17.62868193669247 0.0 0 0 -0.09033896347530668,-0.035005274806948705 z"/><path fill="#dd0175" d="M 106.414589778254,83.57978487346202 l 2.8121965011374055 -7.198725580756119 a 25.357206967255674 25.357206967255674 0.0 0 1 5.346556455029846,2.8679015351145205 l -4.441752762731048 6.324628964833675 a 17.62868193669247 17.62868193669247 0.0 0 0 -3.7170001934362036,-1.9938049191920761 z"/><path fill="#fdb8a1" d="M 110.13158997169018,85.57358979265409 l 4.441752762731049 -6.324628964833675 a 25.357206967255674 25.357206967255674 0.0 0 1 9.041285248911857,11.513220685706624 l -7.1974111223015385 2.8155589648615234 a 17.62868193669247 17.62868193669247 0.0 0 0 -6.285626889341367,-8.004150685734473 z"/><path fill="#000000" d="M 116.41721686103155,93.57774047838856 l 7.1974111223015385 -2.8155589648615234 a 25.357206967255674 25.357206967255674 0.0 0 1 1.257859720319761,4.303520095427114 l -7.580789321090624 1.5039057208749358 a 17.62868193669247 17.62868193669247 0.0 0 0 -0.8744815215306758,-2.9918668514405264 z"/><path fill="#ffb1a8" d="M 117.29169838256223,96.56960732982908 l 7.580789321090623 -1.503905720874936 a 25.357206967255674 25.357206967255674 0.0 0 1 -6.6170829028676925,22.53339327515026 l -5.563994217822215 -5.363960056905993 a 17.62868193669247 17.62868193669247 0.0 0 0 4.600287799599284,-15.66552749736933 z"/><path fill="#ffb1a8" d="M 77.50191092567206,123.16278936387911 l -20.1324028527148 20.727209547690094 a 61.18570786057151 61.18570786057151 0.0 0 1 -18.474085414098905,-40.74016171583308 l 28.856856010060817 -1.4875219233583081 a 32.29053767145765 32.29053767145765 0.0 0 0 9.74963225675289,21.500474091501292 z"/><path fill="#b74d00" d="M 67.75227866891919,101.66231527237784 l -28.856856010060813 1.4875219233583155 a 61.18570786057151 61.18570786057151 0.0 0 1 4.851325529265242,-27.217710117721364 l 26.565800112981865 11.366139389209838 a 32.29053767145765 32.29053767145765 0.0 0 0 -2.5602696321862943,14.36404880515321 z"/><path fill="#b32c08" d="M 70.31254830110548,87.29826646722462 l -26.565800112981865 -11.36613938920983 a 61.18570786057151 61.18570786057151 0.0 0 1 15.152142662201232,-21.25750267563884 l 19.410146345737083 21.40507134057077 a 32.29053767145765 32.29053767145765 0.0 0 0 -7.99648889495645,11.218570724277896 z"/><path fill="#fb5520" d="M 78.30903719606192,76.07969574294674 l -19.410146345737083 -21.405071340570764 a 61.18570786057151 61.18570786057151 0.0 0 1 27.77493824641722,-14.391489821253792 l 6.293332048986427 28.201504072993256 a 32.29053767145765 32.29053767145765 0.0 0 0 -14.658123949666566,7.5950570888313 z"/><path fill="#ff4b33" d="M 92.96716114572851,68.48463865411543 l -6.293332048986402 -28.201504072993252 a 61.18570786057151 61.18570786057151 0.0 0 1 13.755284366348128,-1.4673376733828327 l -0.20265037342850878 28.894459556877052 a 32.29053767145765 32.29053767145765 0.0 0 0 -7.259301943933218,0.7743821894990326 z"/><path fill="#3f0f07" d="M 100.22646308966173,67.7102564646164 l 0.20265037342850944 -28.894459556877056 a 61.18570786057151 61.18570786057151 0.0 0 1 16.154241199952946,2.288675294991304 l -7.831548772582785 27.813624432650116 a 32.29053767145765 32.29053767145765 0.0 0 0 -8.525342800798668,-1.2078401707643636 z"/><path fill="#d61d99" d="M 108.7518058904604,68.91809663538078 l 7.831548772582787 -27.813624432650116 a 61.18570786057151 61.18570786057151 0.0 0 1 13.78794932560781,5.77985458843056 l -14.342957339272763 25.08406735403284 a 32.29053767145765 32.29053767145765 0.0 0 0 -7.276540758917834,-3.0502975098132836 z"/><path fill="#dd0175" d="M 116.02834664937824,71.96839414519405 l 14.34295733927276 -25.08406735403284 a 61.18570786057151 61.18570786057151 0.0 0 1 11.654562709492248,8.646387463854104 l -19.846866417809206 21.000779834365478 a 32.29053767145765 32.29053767145765 0.0 0 0 -6.1506536309558015,-4.563099944186742 z"/><path fill="#fdb8a1" d="M 122.17900028033401,76.53149408938077 l 19.846866417809206 -21.000779834365474 a 61.18570786057151 61.18570786057151 0.0 0 1 1.4415388794352424,1.40798642931723 l -20.527638328635586 20.335853188558026 a 32.29053767145765 32.29053767145765 0.0 0 0 -0.7607669686088627,-0.7430597835097821 z"/><path fill="#000000" d="M 122.93976724894293,77.2745538728906 l 20.527638328635582 -20.33585318855803 a 61.18570786057151 61.18570786057151 0.0 0 1 6.572632092868357,7.852131811458211 l -23.631587429733536 16.627655752050988 a 32.29053767145765 32.29053767145765 0.0 0 0 -3.468682991770404,-4.143934374951169 z"/><path fill="#ffb1a8" d="M 126.40845024071331,81.41848824784175 l 23.631587429733536 -16.62765575205099 a 61.18570786057151 61.18570786057151 0.0 0 1 4.418301247805985,7.316871638434531 l -25.718146055369672 13.172236853797008 a 32.29053767145765 32.29053767145765 0.0 0 0 -2.3317426221698483,-3.861452740180548 z"/><path fill="#b74d00" d="M 128.74019286288316,85.27994098802232 l 25.71814605536967 -13.172236853797008 a 61.18570786057151 61.18570786057151 0.0 0 1 3.8395925266936892,9.316988717855995 l -27.531407409940968 8.772255484520615 a 32.29053767145765 32.29053767145765 0.0 0 0 -2.02633117212239,-4.917007348579602 z"/><path fill="#b32c08" d="M 130.76652403500552,90.19694833660188 l 27.531407409940968 -8.772255484520615 a 61.18570786057151 61.18570786057151 0.0 0 1 2.7721139456878277,22.33567978704165 l -28.84054817246671 -1.7758494782727414 a 32.29053767145765 32.29053767145765 0.0 0 0 -1.4629731831620845,-11.787574824248292 z"/><path fill="#fb5520" d="M 132.22949721816764,101.98452316085022 l 28.84054817246671 1.7758494782727348 a 61.18570786057151 61.18570786057151 0.0 0 1 -0.42597141102635305,4.362874098175938 l -28.63938164440509 -3.836232433516898 a 32.29053767145765 32.29053767145765 0.0 0 0 0.2248048829647331,-2.3024911429317747 z"/><path fill="#ff4b33" d="M 132.0046923352029,104.28701430378194 l 28.639381644405095 3.8362324335168916 a 61.18570786057151 61.18570786057151 0.0 0 1 -0.24669660232116897,1.6669346882318017 l -28.522878288337203 -4.623448324200965 a 32.29053767145765 32.29053767145765 0.0 0 0 0.13019324625327755,-0.8797187975477279 z"/><path fill="#3f0f07" d="M 131.87449908894962,105.16673310132967 l 28.522878288337203 4.623448324200959 a 61.18570786057151 61.18570786057151 0.0 0 1 -3.3671616093673897,12.373873615543337 l -26.932724130463697 -10.467054560390553 a 32.29053767145765 32.29053767145765 0.0 0 0 1.7770074514938834,-6.530267379353743 z"/><path fill="#d61d99" d="M 130.09749163745573,111.69700048068343 l 26.932724130463704 10.467054560390547 a 61.18570786057151 61.18570786057151 0.0 0 1 -0.12267031033944065,0.31309149474478914 l -26.874792636028978 -10.614913142758025 a 32.29053767145765 32.29053767145765 0.0 0 0 0.06473881590471464,-0.16523291237731108 z"/><path fill="#dd0175" d="M 130.03275282155104,111.86223339306068 l 26.87479263602898 10.61491314275802 a 61.18570786057151 61.18570786057151 0.0 0 1 -6.968391479259601,12.874964381760265 l -23.583944743962174 -16.695161292170653 a 32.29053767145765 32.29053767145765 0.0 0 0 3.677543587192794,-6.79471623234763 z"/><path fill="#fdb8a1" d="M 126.35520923435823,118.65694962540833 l 23.58394474396218 16.69516129217065 a 61.18570786057151 61.18570786057151 0.0 0 1 -27.86238042796076,21.711948839901847 l -10.425835563066922 -26.948707076031376 a 32.29053767145765 32.29053767145765 0.0 0 0 14.704271247065499,-11.45840305604112 z"/><path fill="#000000" d="M 111.65093798729274,130.11535268144945 l 10.42583556306693 26.948707076031372 a 61.18570786057151 61.18570786057151 0.0 0 1 -10.395483022649037,2.9962291030168515 l -5.5165313866408825 -28.363687026161823 a 32.29053767145765 32.29053767145765 0.0 0 0 5.48617884622299,-1.5812491528864001 z"/><path fill="#ffb1a8" d="M 106.16475914106975,131.69660183433584 l 5.516531386640888 28.36368702616182 a 61.18570786057151 61.18570786057151 0.0 0 1 -54.31178245475339,-16.170289948928463 l 20.13240285271481 -20.727209547690084 a 32.29053767145765 32.29053767145765 0.0 0 0 28.662848215397695,8.533812470456727 z"/><path fill="#ffb1a8" d="M 35.27198151590531,106.59795637086285 l -15.04562692965066 1.5336540864217536 a 80.18701635069728 80.18701635069728 0.0 0 1 15.786435461930724,-56.45959979896312 l 12.068242390216142 9.114851077994501 a 65.06342601761078 65.06342601761078 0.0 0 0 -12.809050922496205,45.81109463454686 z"/><path fill="#b74d00" d="M 48.0810324384015,60.78686173631603 l -12.068242390216138 -9.114851077994505 a 80.18701635069728 80.18701635069728 0.0 0 1 27.804389107193753,-23.23150385770816 l 6.824223976064552 13.496405139426322 a 65.06342601761078 65.06342601761078 0.0 0 0 -22.560370693042167,18.84994979627634 z"/><path fill="#b32c08" d="M 70.6414031314437,41.93691194003967 l -6.824223976064552 -13.496405139426317 a 80.18701635069728 80.18701635069728 0.0 0 1 33.12136224412056,-8.569060153737203 l 0.5774032730333438 15.11256397913067 a 65.06342601761078 65.06342601761078 0.0 0 0 -26.874541541089354,6.95290131403285 z"/><path fill="#fb5520" d="M 97.51594467253304,34.98401062600682 l -0.5774032730333425 -15.112563979130668 a 80.18701635069728 80.18701635069728 0.0 0 1 40.00571982434255,8.95918386138605 l -6.967834661216507 13.422826255933487 a 65.06342601761078 65.06342601761078 0.0 0 0 -32.4604818900927,-7.269446138188869 z"/><path fill="#ff4b33" d="M 129.97642656262573,42.25345676419569 l 6.9678346612165045 -13.422826255933481 a 80.18701635069728 80.18701635069728 0.0 0 1 15.043154609827667,10.118028915432022 l -9.805033474567004 11.514525744712543 a 65.06342601761078 65.06342601761078 0.0 0 0 -12.205955796477166,-8.209728404211084 z"/><path fill="#3f0f07" d="M 142.18238235910292,50.46318516840678 l 9.805033474567 -11.514525744712541 a 80.18701635069728 80.18701635069728 0.0 0 1 14.286085756207878,15.90955751179382 l -12.499446089887506 8.513919896793915 a 65.06342601761078 65.06342601761078 0.0 0 0 -11.591673140887373,-12.908951663875193 z"/><path fill="#d61d99" d="M 153.77405549999028,63.372136832281974 l 12.499446089887504 -8.513919896793917 a 80.18701635069728 80.18701635069728 0.0 0 1 8.969115324206415,17.41983884792856 l -14.191056926488066 5.228468979749465 a 65.06342601761078 65.06342601761078 0.0 0 0 -7.277504487605853,-14.134387930884106 z"/><path fill="#dd0175" d="M 161.05155998759614,77.50652476316608 l 14.191056926488068 -5.228468979749463 a 80.18701635069728 80.18701635069728 0.0 0 1 4.412277397763644,18.499395577766673 l -15.023229999344068 1.739409368100473 a 65.06342601761078 65.06342601761078 0.0 0 0 -3.5801043249076443,-15.010335966117683 z"/><path fill="#fdb8a1" d="M 164.63166431250377,92.51686072928382 l 15.023229999344071 -1.7394093681004714 a 80.18701635069728 80.18701635069728 0.0 0 1 0.26049203473344207,2.627958711941905 l -15.072359833544539 1.2437658988653242 a 65.06342601761078 65.06342601761078 0.0 0 0 -0.2113622005329745,-2.132315242706758 z"/><path fill="#000000" d="M 164.84302651303676,94.64917597199052 l 15.07235983354455 -1.2437658988653246 a 80.18701635069728 80.18701635069728 0.0 0 1 -0.0193740075739548,13.419896041048505 l -15.068705818630505 -1.2872798897670386 a 65.06342601761078 65.06342601761078 0.0 0 0 0.01571999265991053,-10.888850252416141 z"/><path fill="#ffb1a8" d="M 164.82730652037685,105.5380262244067 l 15.068705818630502 1.2872798897670366 a 80.18701635069728 80.18701635069728 0.0 0 1 -1.7307230300882104,11.0672939897789 l -14.742284568928213 -3.3746155709604064 a 65.06342601761078 65.06342601761078 0.0 0 0 1.4043017803859215,-8.97995830858553 z"/><path fill="#b74d00" d="M 163.42300473999092,114.5179845329921 l 14.742284568928214 3.3746155709604007 a 80.18701635069728 80.18701635069728 0.0 0 1 -3.996988256124853,12.587240941713468 l -13.988436680544176 -5.748619294877148 a 65.06342601761078 65.06342601761078 0.0 0 0 3.243140367740814,-10.21323721779672 z"/><path fill="#b32c08" d="M 160.1798643722501,124.73122175078886 l 13.988436680544169 5.748619294877143 a 80.18701635069728 80.18701635069728 0.0 0 1 -16.038621200037333,24.75509275028395 l -10.96348890750221 -10.41752828352788 a 65.06342601761078 65.06342601761078 0.0 0 0 13.013673426995375,-20.086183761633215 z"/><path fill="#fb5520" d="M 147.16619094525478,144.81740551242203 l 10.963488907502214 10.417528283527878 a 80.18701635069728 80.18701635069728 0.0 0 1 -4.103927544300316,4.0202404821861695 l -10.189471843876575 -11.17576163426341 a 65.06342601761078 65.06342601761078 0.0 0 0 3.329910480674677,-3.2620071314506376 z"/><path fill="#ff4b33" d="M 143.83628046458006,148.0794126438727 l 10.189471843876579 11.175761634263402 a 80.18701635069728 80.18701635069728 0.0 0 1 -1.6522567122858156,1.465288090532212 l -9.877849653914822 -11.452120798248771 a 65.06342601761078 65.06342601761078 0.0 0 0 1.3406345223240592,-1.1889289265468435 z"/><path fill="#3f0f07" d="M 142.49564594225598,149.26834157041958 l 9.877849653914831 11.452120798248767 a 80.18701635069728 80.18701635069728 0.0 0 1 -13.806559391788356,9.58280229972446 l -7.273877618870792 -13.259475440179294 a 65.06342601761078 65.06342601761078 0.0 0 0 11.202587356744317,-7.775447657793933 z"/><path fill="#d61d99" d="M 131.29305858551177,157.04378922821343 l 7.273877618870793 13.259475440179296 a 80.18701635069728 80.18701635069728 0.0 0 1 -0.3869545717867755,0.21089414926345817 l -7.200896447010951 -13.299250915839295 a 65.06342601761078 65.06342601761078 0.0 0 0 0.3139733999269332,-0.17111867360345911 z"/><path fill="#dd0175" d="M 130.97908518558475,157.21490790181693 l 7.200896447010956 13.299250915839295 a 80.18701635069728 80.18701635069728 0.0 0 1 -17.843494702785485,7.051200013336434 l -3.8355423500919983 -14.629135293778582 a 65.06342601761078 65.06342601761078 0.0 0 0 14.478140605866525,-5.721315635397147 z"/><path fill="#fdb8a1" d="M 116.50094457971835,162.93622353721403 l 3.835542350092 14.62913529377858 a 80.18701635069728 80.18701635069728 0.0 0 1 -46.26205328325199,-1.6850412217450792 l 4.8896649673048245 -14.311329814889291 a 65.06342601761078 65.06342601761078 0.0 0 0 37.536845965855164,1.3672357428557902 z"/><path fill="#000000" d="M 78.96409861386313,161.56898779435826 l -4.889664967304815 14.311329814889298 a 80.18701635069728 80.18701635069728 0.0 0 1 -12.959109211333057,-5.752294697937678 l 7.3338045264670555 -13.226424147538843 a 65.06342601761078 65.06342601761078 0.0 0 0 10.514969652170816,4.667389030587223 z"/><path fill="#ffb1a8" d="M 68.44912896169232,156.90159876377106 l -7.3338045264670555 13.226424147538845 a 80.18701635069728 80.18701635069728 0.0 0 1 -40.88896984897064,-61.9964124540253 l 15.045626929650666 -1.5336540864217483 a 65.06342601761078 65.06342601761078 0.0 0 0 33.17714744578703,50.3036423929082 z"/><path fill="#ffb1a8" d="M 112.07246060463977,179.27303000501757 l 0.7230970491023749 4.748169900674736 a 84.9899307521929 84.9899307521929 0.0 0 1 -60.59655324556218,-13.747782814352899 l 2.701309297488251 -3.9712611129712485 a 80.18701635069728 80.18701635069728 0.0 0 0 57.17214689897155,12.970874026649412 z"/><path fill="#b74d00" d="M 54.90031370566825,166.30215597836815 l -2.7013092974882493 3.971261112971249 a 84.9899307521929 84.9899307521929 0.0 0 1 -26.052276552785393,-28.21414316991511 l 4.173564341582292 -2.37683559270868 a 80.18701635069728 80.18701635069728 0.0 0 0 24.580021508691352,26.619717649652543 z"/><path fill="#b32c08" d="M 30.320292196976908,139.68243832871562 l -4.1735643415822965 2.376835592708682 a 84.9899307521929 84.9899307521929 0.0 0 1 -10.809773645529003,-34.61232778222356 l 4.7844416191553165 -0.4208386163228752 a 80.18701635069728 80.18701635069728 0.0 0 0 10.198896367955982,32.656330805837754 z"/><path fill="#fb5520" d="M 20.12139582902094,107.02610752287788 l -4.7844416191553165 0.4208386163228723 a 84.9899307521929 84.9899307521929 0.0 0 1 7.384178376954765,-42.820170202024805 l 4.367150107607955 1.9989964196351053 a 80.18701635069728 80.18701635069728 0.0 0 0 -6.966886865407403,40.400335166066824 z"/><path fill="#ff4b33" d="M 27.088282694428344,66.62577235681105 l -4.36715010760795 -1.9989964196351058 a 84.9899307521929 84.9899307521929 0.0 0 1 9.921259015971126,-16.455734254615216 l 3.806484186515334 2.9289357940902008 a 80.18701635069728 80.18701635069728 0.0 0 0 -9.36059309487851,15.52579488016012 z"/><path fill="#3f0f07" d="M 36.44887578930684,51.09997747665095 l -3.8064841865153327 -2.928935794090203 a 84.9899307521929 84.9899307521929 0.0 0 1 16.09188665552869,-15.958312637860358 l 2.897106411041854 3.8307650921446808 a 80.18701635069728 80.18701635069728 0.0 0 0 -15.18250888005521,15.05648333980588 z"/><path fill="#d61d99" d="M 51.63138466936204,36.043494136845084 l -2.897106411041857 -3.8307650921446847 a 84.9899307521929 84.9899307521929 0.0 0 1 17.969761901950957,-10.409067754474467 l 1.8816069575598213 4.418997850797922 a 80.18701635069728 80.18701635069728 0.0 0 0 -16.95426244846892,9.82083499582123 z"/><path fill="#dd0175" d="M 68.58564711783094,26.222659141023854 l -1.881606957559825 -4.418997850797911 a 84.9899307521929 84.9899307521929 0.0 0 1 19.351773112609926,-5.641886377484251 l 0.7880078811229723 4.7378297064565515 a 80.18701635069728 80.18701635069728 0.0 0 0 -18.258174036173074,5.323054521825611 z"/><path fill="#fdb8a1" d="M 86.84382115400393,20.899604619198286 l -0.7880078811229783 -4.7378297064565515 a 84.9899307521929 84.9899307521929 0.0 0 1 2.7682722541413556,-0.41370227915415114 l 0.6315684704892295 4.761208671669195 a 80.18701635069728 80.18701635069728 0.0 0 0 -2.6118328435076066,0.3903233139415079 z"/><path fill="#000000" d="M 89.45565399751155,20.509281305256778 l -0.6315684704892283 -4.761208671669201 a 84.9899307521929 84.9899307521929 0.0 0 1 14.207262143560996,-0.6839264325728118 l -0.17130621538492363 4.799858427981462 a 80.18701635069728 80.18701635069728 0.0 0 0 -13.404387457686845,0.6452766762605506 z"/><path fill="#ffb1a8" d="M 102.8600414551984,19.864004628996227 l 0.171306215384923 -4.799858427981454 a 84.9899307521929 84.9899307521929 0.0 0 1 11.806639507260302,1.251192923931817 l -0.8385179476550384 4.729151551764289 a 80.18701635069728 80.18701635069728 0.0 0 0 -11.139427774990187,-1.180486047714652 z"/><path fill="#b74d00" d="M 113.99946923018851,21.044490676710865 l 0.8385179476550381 -4.729151551764279 a 84.9899307521929 84.9899307521929 0.0 0 1 13.534609458802084,3.570466818339913 l -1.6033799744030972 4.527378867046281 a 80.18701635069728 80.18701635069728 0.0 0 0 -12.769747432054025,-3.368694133621915 z"/><path fill="#b32c08" d="M 126.76921666224267,24.413184810332822 l 1.6033799744030972 -4.527378867046276 a 84.9899307521929 84.9899307521929 0.0 0 1 27.04753394081052,15.678974991048431 l -3.131878575820167 3.6413353779091366 a 80.18701635069728 80.18701635069728 0.0 0 0 -25.51903533939345,-14.79293150191129 z"/><path fill="#fb5520" d="M 152.28825200163612,39.20611631224414 l 3.131878575820169 -3.6413353779091437 a 84.9899307521929 84.9899307521929 0.0 0 1 4.471232467067393,4.13337032176986 l -3.384554941343133 3.407752132582985 a 80.18701635069728 80.18701635069728 0.0 0 0 -4.218556101544429,-3.899787076443701 z"/><path fill="#ff4b33" d="M 156.50680810318048,43.10590338868779 l 3.384554941343137 -3.407752132582981 a 84.9899307521929 84.9899307521929 0.0 0 1 1.637877846230953,1.6721562266216625 l -3.477113989526032 3.313255959315015 a 80.18701635069728 80.18701635069728 0.0 0 0 -1.5453187980480578,-1.5776600533536964 z"/><path fill="#3f0f07" d="M 158.05212690122852,44.68356344204149 l 3.4771139895260337 -3.3132559593150135 a 84.9899307521929 84.9899307521929 0.0 0 1 10.869046330865968,14.112545970821577 l -4.091340859591966 2.515733833045026 a 80.18701635069728 80.18701635069728 0.0 0 0 -10.254819460800036,-13.31502384455159 z"/><path fill="#d61d99" d="M 168.30694636202855,57.998587286593015 l 4.091340859591961 -2.515733833045024 a 84.9899307521929 84.9899307521929 0.0 0 1 0.24356362995287917,0.39855824038410326 l -4.105105022659615 2.4932106812359365 a 80.18701635069728 80.18701635069728 0.0 0 0 -0.22979946688522546,-0.37603508857501566 z"/><path fill="#dd0175" d="M 168.53674582891375,58.37462237516804 l 4.105105022659608 -2.493210681235935 a 84.9899307521929 84.9899307521929 0.0 0 1 8.401009217206656,18.51891719226879 l -4.5798592411807135 1.446677600250247 a 80.18701635069728 80.18701635069728 0.0 0 0 -7.92625499868555,-17.4723841112831 z"/><path fill="#fdb8a1" d="M 176.46300082759933,75.84700648645119 l 4.579859241180703 -1.446677600250247 a 84.9899307521929 84.9899307521929 0.0 0 1 0.644604995137211,49.061264851093206 l -4.616286881337828 -1.3258514914130828 a 80.18701635069728 80.18701635069728 0.0 0 0 -0.6081773549800857,-46.288735759429876 z"/><path fill="#000000" d="M 177.07117818257944,122.13574224588106 l 4.616286881337836 1.3258514914130826 a 84.9899307521929 84.9899307521929 0.0 0 1 -5.409106722977151,14.02040698403442 l -4.310609769366039 -2.1181666989026624 a 80.18701635069728 80.18701635069728 0.0 0 0 5.103429611005353,-13.22809177654484 z"/><path fill="#ffb1a8" d="M 171.96774857157408,135.36383402242586 l 4.310609769366034 2.118166698902662 a 84.9899307521929 84.9899307521929 0.0 0 1 -63.48280068719799,46.53919918436376 l -0.7230970491023712 -4.748169900674725 a 80.18701635069728 80.18701635069728 0.0 0 0 59.895287966934326,-43.9091959825917 z"/><path fill="#ffb1a8" d="M 13.483116777280586,77.89776597594069 l -2.7938047998176403 -0.71372575158711 a 92.17899443768552 92.17899443768552 0.0 0 1 39.39525305614415,-54.67866176455248 l 1.5614478499919713 2.424176214658928 a 89.29546366657128 89.29546366657128 0.0 0 0 -38.16289610631848,52.968211301480665 z"/><path fill="#b74d00" d="M 51.64601288359907,24.929554674460036 l -1.5614478499919664 -2.424176214658938 a 92.17899443768552 92.17899443768552 0.0 0 1 39.206053884634116,-14.060149894109887 l 0.3350094029254791 2.864003911993521 a 89.29546366657128 89.29546366657128 0.0 0 0 -37.97961543756763,13.620322196775305 z"/><path fill="#b32c08" d="M 89.62562832116672,11.30923247768473 l -0.33500940292547915 -2.8640039119935197 a 92.17899443768552 92.17899443768552 0.0 0 1 39.13751709558026,3.868922528555912 l -0.8892850856242589 2.7429768034835718 a 89.29546366657128 89.29546366657128 0.0 0 0 -37.91322260703052,-3.747895420045964 z"/><path fill="#fb5520" d="M 127.5388509281973,15.057127897730723 l 0.8892850856242575 -2.742976803483567 a 92.17899443768552 92.17899443768552 0.0 0 1 39.6255803358758,25.51142726358719 l -2.128847102098632 1.9449318044211594 a 89.29546366657128 89.29546366657128 0.0 0 0 -38.38601831940143,-24.713382264524782 z"/><path fill="#ff4b33" d="M 165.92486924759868,39.77051016225549 l 2.128847102098627 -1.9449318044211599 a 92.17899443768552 92.17899443768552 0.0 0 1 12.227455634411276,16.876513959792113 l -2.511344706778985 1.417002989303775 a 89.29546366657128 89.29546366657128 0.0 0 0 -11.844958029730918,-16.34858514467473 z"/><path fill="#3f0f07" d="M 177.76982727732957,56.11909530693021 l 2.5113447067789885 -1.4170029893037726 a 92.17899443768552 92.17899443768552 0.0 0 1 9.116913576366624,22.826830412584894 l -2.7965387577166325 0.7029371839299507 a 89.29546366657128 89.29546366657128 0.0 0 0 -8.83171952542898,-22.112764607211073 z"/><path fill="#d61d99" d="M 186.60154680275855,78.2318599141413 l 2.7965387577166347 -0.7029371839299519 a 92.17899443768552 92.17899443768552 0.0 0 1 2.7808308088613365,22.35110845001574 l -2.8835283289907494 0.0037528483088777875 a 89.29546366657128 89.29546366657128 0.0 0 0 -2.693841237587222,-21.651924114394667 z"/><path fill="#dd0175" d="M 189.29538804034576,99.88378402853596 l 2.883528328990759 -0.0037528483088775937 a 92.17899443768552 92.17899443768552 0.0 0 1 -2.5643560733831476,21.71157826663427 l -2.8033104909594186 -0.6754257910677737 a 89.29546366657128 89.29546366657128 0.0 0 0 2.484138235351807,-21.032399627257618 z"/><path fill="#fdb8a1" d="M 186.81124980499396,120.91618365579356 l 2.80331049095942 0.6754257910677717 a 92.17899443768552 92.17899443768552 0.0 0 1 -0.759589055397059,2.939209972447978 l -2.779549129404103 -0.7673697578035892 a 89.29546366657128 89.29546366657128 0.0 0 0 0.7358276938417418,-2.847266005712161 z"/><path fill="#000000" d="M 186.07542211115225,123.76344966150569 l 2.7795491294041077 0.7673697578035875 a 92.17899443768552 92.17899443768552 0.0 0 1 -5.335372295945708,14.474867443945042 l -2.6126487386528368 -1.2201705931460864 a 89.29546366657128 89.29546366657128 0.0 0 0 5.168471905194437,-14.022066608602543 z"/><path fill="#ffb1a8" d="M 180.9069502059578,137.78551627010822 l 2.612648738652827 1.220170593146082 a 92.17899443768552 92.17899443768552 0.0 0 1 -6.250570223674875,11.25825862519756 l -2.4171192507589154 -1.5723499087586532 a 89.29546366657128 89.29546366657128 0.0 0 0 6.055040735780963,-10.906079309584989 z"/><path fill="#b74d00" d="M 174.85190947017685,148.69159557969317 l 2.4171192507589105 1.5723499087586563 a 92.17899443768552 92.17899443768552 0.0 0 1 -9.298207841077707,12.00108903704334 l -2.1262539772817917 -1.9477663443175217 a 89.29546366657128 89.29546366657128 0.0 0 0 9.007342567600588,-11.625672601484474 z"/><path fill="#b32c08" d="M 165.84456690257628,160.31726818117764 l 2.1262539772817917 1.947766344317519 a 92.17899443768552 92.17899443768552 0.0 0 1 -27.111985262166428,20.36378954643092 l -1.2781405405236796 -2.584783640197486 a 89.29546366657128 89.29546366657128 0.0 0 0 26.263871825408316,-19.72677225055095 z"/><path fill="#fb5520" d="M 139.580695077168,180.04404043172858 l 1.2781405405236774 2.5847836401974753 a 92.17899443768552 92.17899443768552 0.0 0 1 -6.020964531690288,2.713368035717888 l -1.089793546668659 -2.6696628501745323 a 89.29546366657128 89.29546366657128 0.0 0 0 5.832617537835269,-2.628488825740831 z"/><path fill="#ff4b33" d="M 133.74807753933274,182.67252925746942 l 1.0897935466686615 2.6696628501745328 a 92.17899443768552 92.17899443768552 0.0 0 1 -2.3633636646183716,0.9269992834975223 l -1.0158631258408732 -2.698661115723766 a 89.29546366657128 89.29546366657128 0.0 0 0 2.289433243790583,-0.8980010179482889 z"/><path fill="#3f0f07" d="M 131.45864429554217,183.5705302754177 l 1.0158631258408743 2.6986611157237728 a 92.17899443768552 92.17899443768552 0.0 0 1 -18.694742856418458,4.874020665911949 l -0.43105672159014574 -2.851129567510853 a 89.29546366657128 89.29546366657128 0.0 0 0 18.10993645216773,-4.72155221412487 z"/><path fill="#d61d99" d="M 113.34870784337447,188.29208248954254 l 0.4310567215901474 2.8511295675108532 a 92.17899443768552 92.17899443768552 0.0 0 1 -0.5011122570434557,0.07435427985453158 l -0.41538099609778456 -2.853455507983867 a 89.29546366657128 89.29546366657128 0.0 0 0 0.4854365315510929,-0.07202833938151798 z"/><path fill="#dd0175" d="M 112.86327131182341,188.36411082892403 l 0.41538099609778406 2.8534555079838695 a 92.17899443768552 92.17899443768552 0.0 0 1 -22.048790205017863,0.543273332358237 l 0.2743462612872065 -2.8704501105019062 a 89.29546366657128 89.29546366657128 0.0 0 0 21.35906294763287,-0.5262787298402003 z"/><path fill="#fdb8a1" d="M 91.50420836419056,188.89038955876424 l -0.2743462612872066 2.870450110501906 a 92.17899443768552 92.17899443768552 0.0 0 1 -49.25797752352615,-20.138881889031325 l 1.815227616940966 -2.2404683453817142 a 89.29546366657128 89.29546366657128 0.0 0 0 47.71709616787239,19.508900123911133 z"/><path fill="#000000" d="M 43.78711219631824,169.38148943485317 l -1.8152276169409636 2.24046834538172 a 92.17899443768552 92.17899443768552 0.0 0 1 -11.707277806046514,-11.339771795777791 l 2.1814530895190956 -1.88573914584979 a 89.29546366657128 89.29546366657128 0.0 0 0 11.341052333468383,10.985042596245862 z"/><path fill="#ffb1a8" d="M 32.44605986284982,158.39644683860726 l -2.1814530895190902 1.8857391458497876 a 92.17899443768552 92.17899443768552 0.0 0 1 -19.575294795867826,-83.09814576010348 l 2.79380479981765 0.7137257515871056 a 89.29546366657128 89.29546366657128 0.0 0 0 18.962943085569265,80.49868086266659 z"/></g></svg>