<?xml version='1.0' encoding='UTF-8'?>
<svg xmlns="http://www.w3.org/2000/svg" xmlns:svg="http://www.w3.org/2000/svg"><g><path fill="#fd3633" d="M 100.0,100.0 l -85.14306445185207 29.166051768241875 a 90.0 90.0 0.0 0 1 4.3143132211824735,-68.74777702738803 l 80.8287512306696 39.58172525914615 z"/><path fill="#000000" d="M 100.0,100.0 l -80.8287512306696 -39.58172525914615 a 90.0 90.0 0.0 0 1 51.66269946242772,-45.56133919270591 l 29.16605176824188 85.14306445185206 z"/><path fill="#fba296" d="M 100.0,100.0 l -29.16605176824188 -85.14306445185206 a 90.0 90.0 0.0 0 1 68.74777702738803,4.314313221182459 l -39.58172525914614 80.8287512306696 z"/><path fill="#110500" d="M 100.0,100.0 l 39.58172525914614 -80.8287512306696 a 90.0 90.0 0.0 0 1 45.561339192705915,51.66269946242771 l -85.14306445185206 29.166051768241882 z"/><path fill="#d9002f" d="M 100.0,100.0 l 85.14306445185206 -29.166051768241882 a 90.0 90.0 0.0 0 1 -4.314313221182459,68.74777702738804 l -80.8287512306696 -39.581725259146154 z"/><path fill="#000000" d="M 100.0,100.0 l 80.82875123066961 39.58172525914613 a 90.0 90.0 0.0 0 1 -51.66269946242774,45.56133919270594 l -29.166051768241868 -85.14306445185207 z"/><path fill="#ffffff" d="M 100.0,100.0 l 29.16605176824189 85.14306445185206 a 90.0 90.0 0.0 0 1 -68.74777702738811,-4.314313221182502 l 39.581725259146225 -80.82875123066955 z"/><path fill="#ce0a5b" d="M 100.0,100.0 l -39.581725259146225 80.82875123066955 a 90.0 90.0 0.0 0 1 -45.56133919270587,-51.66269946242775 l 85.1430644518521 -29.1660517682418 z"/><path fill="#000000" d="M 99.88787794650115,189.99993015911247 l -0.01245800594431549 9.999992239901385 a 100.0 100.0 0.0 0 1 -86.54018314429686,-50.10785069578958 l 8.666476320374002 -4.989207170322423 a 90.0 90.0 0.0 0 0 77.88616482986717,45.09706562621062 z"/><path fill="#000000" d="M 22.001713116633994,144.90286453290184 l -8.666476320374 4.989207170322428 a 100.0 100.0 0.0 0 1 0.12458005944298911,-99.99992239901377 l 8.654018314429692 5.010785069578958 a 90.0 90.0 0.0 0 0 -0.11212205349868043,89.99993015911238 z"/><path fill="#6f0024" d="M 22.11383517013273,54.9029343737894 l -8.654018314429697 -5.010785069578956 a 100.0 100.0 0.0 0 1 86.66476320374005,-49.89207170322428 l -0.012458005944310457 9.999992239901388 a 90.0 90.0 0.0 0 0 -77.99828688336605,44.90286453290185 z"/><path fill="#ff558a" d="M 100.11212205349878,10.000069840887548 l 0.012458005944307833 -9.999992239901385 a 100.0 100.0 0.0 0 1 86.54018314429693,50.107850695789566 l -8.666476320374002 4.98920717032243 a 90.0 90.0 0.0 0 0 -77.88616482986724,-45.097065626210615 z"/><path fill="#a10016" d="M 177.998286883366,55.09713546709817 l 8.666476320374002 -4.989207170322427 a 100.0 100.0 0.0 0 1 -0.12458005944309036,99.99992239901391 l -8.654018314429692 -5.010785069578972 a 90.0 90.0 0.0 0 0 0.1121220534987799,-89.99993015911251 z"/><path fill="#2b040d" d="M 177.88616482986725,145.09706562621068 l 8.654018314429694 5.0107850695789615 a 100.0 100.0 0.0 0 1 -86.66476320374011,49.89207170322423 l 0.012458005944310457 -9.999992239901388 a 90.0 90.0 0.0 0 0 77.9982868833661,-44.9028645329018 z"/><path fill="#000000" d="M -33.46373533375963,176.83379042296536 l -8.666476320374002 4.989207170322426 a 37.0 37.0 0.0 1 1 64.13192477076761,-36.92013306038595 l -8.666476320374002 4.989207170322427 a 27.0 27.0 0.0 1 0 -46.79897213001961,26.9417187197411 z"/><path fill="#000000" d="M -33.27188204221742,22.83390992848419 l -8.654018314429702 -5.010785069578948 a 37.0 37.0 0.0 1 1 64.0397355267798,37.079809514884225 l -8.654018314429699 -5.010785069578951 a 27.0 27.0 0.0 1 0 -46.731698897920396,-27.058239375726323 z"/><path fill="#6f0024" d="M 100.19185329154236,-53.99988049448131 l 0.012458005944307833 -9.999992239901385 a 37.0 37.0 0.0 1 1 -0.09218924398788249,73.99994257527024 l 0.012458005944309056 -9.999992239901381 a 27.0 27.0 0.0 1 0 0.0672732320992656,-53.99995809546748 z"/><path fill="#ff558a" d="M 233.46373533375962,23.166209577034635 l 8.666476320374002 -4.989207170322427 a 37.0 37.0 0.0 1 1 -64.13192477076761,36.92013306038595 l 8.666476320374002 -4.989207170322427 a 27.0 27.0 0.0 1 0 46.79897213001961,-26.9417187197411 z"/><path fill="#a10016" d="M 233.27188204221727,177.16609007151604 l 8.654018314429692 5.010785069578963 a 37.0 37.0 0.0 1 1 -64.03973552677974,-37.079809514884325 l 8.654018314429699 5.010785069578958 a 27.0 27.0 0.0 1 0 46.73169889792034,27.0582393757264 z"/><path fill="#2b040d" d="M 99.80814670845751,253.99988049448135 l -0.012458005944317938 9.999992239901385 a 37.0 37.0 0.0 1 1 0.09218924398794821,-73.99994257527024 l -0.012458005944316716 9.999992239901381 a 27.0 27.0 0.0 1 0 -0.06727323209931356,53.99995809546748 z"/><path fill="#7e0005" d="M -33.46373533375963,176.83379042296536 l 4.111767675483003 -8.00583328472765 a 9.0 9.0 0.0 0 1 4.456670135194569,5.252313086045437 l -8.568437810677572 2.7535201986822138 z"/><path fill="#671b00" d="M -33.46373533375963,176.83379042296536 l 8.568437810677572 -2.7535201986822138 a 9.0 9.0 0.0 0 1 -0.5626045259499275,6.865287874165226 l -8.005833284727645 -4.111767675483012 z"/><path fill="#380004" d="M -33.46373533375963,176.83379042296536 l 8.005833284727645 4.11176767548301 a 9.0 9.0 0.0 0 1 -5.252313086045438,4.456670135194564 l -2.753520198682207 -8.568437810677574 z"/><path fill="#650b02" d="M -33.46373533375963,176.83379042296536 l 2.753520198682207 8.568437810677574 a 9.0 9.0 0.0 0 1 -6.865287874165215,-0.5626045259499275 l 4.111767675483008 -8.005833284727647 z"/><path fill="#f1101f" d="M -33.46373533375963,176.83379042296536 l -4.111767675483008 8.005833284727647 a 9.0 9.0 0.0 0 1 -4.456670135194567,-5.252313086045442 l 8.568437810677574 -2.7535201986822053 z"/><path fill="#f81a00" d="M -33.46373533375963,176.83379042296536 l -8.568437810677574 2.7535201986822053 a 9.0 9.0 0.0 0 1 0.5626045259499293,-6.865287874165215 l 8.005833284727645 4.11176767548301 z"/><path fill="#ca200d" d="M -33.46373533375963,176.83379042296536 l -8.005833284727645 -4.11176767548301 a 9.0 9.0 0.0 0 1 5.252313086045431,-4.456670135194562 l 2.7535201986822133 8.568437810677572 z"/><path fill="#d72103" d="M -33.46373533375963,176.83379042296536 l -2.7535201986822133 -8.568437810677572 a 9.0 9.0 0.0 0 1 6.865287874165217,0.5626045259499222 l -4.111767675483003 8.00583328472765 z"/><path fill="#fd3633" d="M 100.0,100.0 l -85.14306445185207 29.166051768241875 a 90.0 90.0 0.0 0 1 4.3143132211824735,-68.74777702738803 l 80.8287512306696 39.58172525914615 z"/><path fill="#000000" d="M 100.0,100.0 l -80.8287512306696 -39.58172525914615 a 90.0 90.0 0.0 0 1 51.66269946242772,-45.56133919270591 l 29.16605176824188 85.14306445185206 z"/><path fill="#fba296" d="M 100.0,100.0 l -29.16605176824188 -85.14306445185206 a 90.0 90.0 0.0 0 1 68.74777702738803,4.314313221182459 l -39.58172525914614 80.8287512306696 z"/><path fill="#110500" d="M 100.0,100.0 l 39.58172525914614 -80.8287512306696 a 90.0 90.0 0.0 0 1 45.561339192705915,51.66269946242771 l -85.14306445185206 29.166051768241882 z"/><path fill="#d9002f" d="M 100.0,100.0 l 85.14306445185206 -29.166051768241882 a 90.0 90.0 0.0 0 1 -4.314313221182459,68.74777702738804 l -80.8287512306696 -39.581725259146154 z"/><path fill="#000000" d="M 100.0,100.0 l 80.82875123066961 39.58172525914613 a 90.0 90.0 0.0 0 1 -51.66269946242774,45.56133919270594 l -29.166051768241868 -85.14306445185207 z"/><path fill="#ffffff" d="M 100.0,100.0 l 29.16605176824189 85.14306445185206 a 90.0 90.0 0.0 0 1 -68.74777702738811,-4.314313221182502 l 39.581725259146225 -80.82875123066955 z"/><path fill="#ce0a5b" d="M 100.0,100.0 l -39.581725259146225 80.82875123066955 a 90.0 90.0 0.0 0 1 -45.56133919270587,-51.66269946242775 l 85.1430644518521 -29.1660517682418 z"/><path fill="#000000" d="M 99.88787794650115,189.99993015911247 l -0.01245800594431549 9.999992239901385 a 100.0 100.0 0.0 0 1 -86.54018314429686,-50.10785069578958 l 8.666476320374002 -4.989207170322423 a 90.0 90.0 0.0 0 0 77.88616482986717,45.09706562621062 z"/><path fill="#000000" d="M 22.001713116633994,144.90286453290184 l -8.666476320374 4.989207170322428 a 100.0 100.0 0.0 0 1 0.12458005944298911,-99.99992239901377 l 8.654018314429692 5.010785069578958 a 90.0 90.0 0.0 0 0 -0.11212205349868043,89.99993015911238 z"/><path fill="#6f0024" d="M 22.11383517013273,54.9029343737894 l -8.654018314429697 -5.010785069578956 a 100.0 100.0 0.0 0 1 86.66476320374005,-49.89207170322428 l -0.012458005944310457 9.999992239901388 a 90.0 90.0 0.0 0 0 -77.99828688336605,44.90286453290185 z"/><path fill="#ff558a" d="M 100.11212205349878,10.000069840887548 l 0.012458005944307833 -9.999992239901385 a 100.0 100.0 0.0 0 1 86.54018314429693,50.107850695789566 l -8.666476320374002 4.98920717032243 a 90.0 90.0 0.0 0 0 -77.88616482986724,-45.097065626210615 z"/><path fill="#a10016" d="M 177.998286883366,55.09713546709817 l 8.666476320374002 -4.989207170322427 a 100.0 100.0 0.0 0 1 -0.12458005944309036,99.99992239901391 l -8.654018314429692 -5.010785069578972 a 90.0 90.0 0.0 0 0 0.1121220534987799,-89.99993015911251 z"/><path fill="#2b040d" d="M 177.88616482986725,145.09706562621068 l 8.654018314429694 5.0107850695789615 a 100.0 100.0 0.0 0 1 -86.66476320374011,49.89207170322423 l 0.012458005944310457 -9.999992239901388 a 90.0 90.0 0.0 0 0 77.9982868833661,-44.9028645329018 z"/><path fill="#000000" d="M -33.46373533375963,176.83379042296536 l -8.666476320374002 4.989207170322426 a 37.0 37.0 0.0 1 1 64.13192477076761,-36.92013306038595 l -8.666476320374002 4.989207170322427 a 27.0 27.0 0.0 1 0 -46.79897213001961,26.9417187197411 z"/><path fill="#000000" d="M -33.27188204221742,22.83390992848419 l -8.654018314429702 -5.010785069578948 a 37.0 37.0 0.0 1 1 64.0397355267798,37.079809514884225 l -8.654018314429699 -5.010785069578951 a 27.0 27.0 0.0 1 0 -46.731698897920396,-27.058239375726323 z"/><path fill="#6f0024" d="M 100.19185329154236,-53.99988049448131 l 0.012458005944307833 -9.999992239901385 a 37.0 37.0 0.0 1 1 -0.09218924398788249,73.99994257527024 l 0.012458005944309056 -9.999992239901381 a 27.0 27.0 0.0 1 0 0.0672732320992656,-53.99995809546748 z"/><path fill="#ff558a" d="M 233.46373533375962,23.166209577034635 l 8.666476320374002 -4.989207170322427 a 37.0 37.0 0.0 1 1 -64.13192477076761,36.92013306038595 l 8.666476320374002 -4.989207170322427 a 27.0 27.0 0.0 1 0 46.79897213001961,-26.9417187197411 z"/><path fill="#a10016" d="M 233.27188204221727,177.16609007151604 l 8.654018314429692 5.010785069578963 a 37.0 37.0 0.0 1 1 -64.03973552677974,-37.079809514884325 l 8.654018314429699 5.010785069578958 a 27.0 27.0 0.0 1 0 46.73169889792034,27.0582393757264 z"/><path fill="#2b040d" d="M 99.80814670845751,253.99988049448135 l -0.012458005944317938 9.999992239901385 a 37.0 37.0 0.0 1 1 0.09218924398794821,-73.99994257527024 l -0.012458005944316716 9.999992239901381 a 27.0 27.0 0.0 1 0 -0.06727323209931356,53.99995809546748 z"/><path fill="#ff4148" d="M -24.72816390983492,178.99938315880237 l 0.9706190471027458 0.24062141509299975 a 10.0 10.0 0.0 0 1 -6.93693781716471,7.202700446415227 l -0.27692526538627504 -0.9608914597345226 a 9.0 9.0 0.0 0 0 6.243244035448239,-6.482430401773704 z"/><path fill="#a30032" d="M -30.97140794528316,185.48181356057606 l 0.2769252653862751 0.9608914597345223 a 10.0 10.0 0.0 0 1 -9.706190471027458,-2.406214150929992 l 0.6936937817164708 -0.7202700446415236 a 9.0 9.0 0.0 0 0 8.735571423924712,2.1655927358369933 z"/><path fill="#000000" d="M -39.706979369207865,183.31622082473908 l -0.6936937817164706 0.7202700446415231 a 10.0 10.0 0.0 0 1 -2.769252653862752,-9.60891459734523 l 0.9706190471027458 0.24062141509299906 a 9.0 9.0 0.0 0 0 2.492327388476477,8.648023137610707 z"/><path fill="#ac1701" d="M -42.19930675768434,174.66819768712836 l -0.9706190471027458 -0.24062141509299964 a 10.0 10.0 0.0 0 1 6.936937817164717,-7.202700446415229 l 0.27692526538627416 0.9608914597345226 a 9.0 9.0 0.0 0 0 -6.243244035448245,6.482430401773707 z"/><path fill="#000000" d="M -35.9560627222361,168.18576728535467 l -0.2769252653862744 -0.9608914597345225 a 10.0 10.0 0.0 0 1 9.706190471027462,2.4062141509300066 l -0.6936937817164708 0.7202700446415218 a 9.0 9.0 0.0 0 0 -8.735571423924716,-2.1655927358370057 z"/><path fill="#ed2c00" d="M -27.22049129831138,170.35136002119168 l 0.6936937817164719 -0.7202700446415218 a 10.0 10.0 0.0 0 1 2.769252653862738,9.608914597345217 l -0.9706190471027458 -0.24062141509299906 a 9.0 9.0 0.0 0 0 -2.492327388476464,-8.648023137610696 z"/><path fill="#ff4148" d="M -29.199086246811,191.63151890287702 l 0.2769252653862749 0.9608914597345224 a 3.6999999999999997 3.6999999999999997 0.0 1 1 -2.0492469638584345,-7.110596802035465 l 0.27692526538627504 0.9608914597345217 a 2.6999999999999997 2.6999999999999997 0.0 1 0 1.4953964330858844,5.1888138825664205 z"/><path fill="#a30032" d="M -44.14661957219329,187.9259491104448 l -0.6936937817164708 0.720270044641523 a 3.6999999999999997 3.6999999999999997 0.0 1 1 5.133333984701883,-5.32999833034727 l -0.6936937817164708 0.7202700446415236 a 2.6999999999999997 2.6999999999999997 0.0 1 0 -3.7459464212689415,3.889458241064224 z"/><path fill="#000000" d="M -48.41126865914191,173.12822063053318 l -0.9706190471027458 -0.24062141509299986 a 3.6999999999999997 3.6999999999999997 0.0 1 1 7.182580948560318,1.7805984716881995 l -0.9706190471027458 -0.24062141509300017 a 2.6999999999999997 2.6999999999999997 0.0 1 0 -5.241342854354826,-1.2993556415021994 z"/><path fill="#ac1701" d="M -37.72838442070825,162.0360619430537 l -0.27692526538627416 -0.9608914597345226 a 3.6999999999999997 3.6999999999999997 0.0 1 1 2.0492469638584283,7.110596802035467 l -0.27692526538627416 -0.9608914597345226 a 2.6999999999999997 2.6999999999999997 0.0 1 0 -1.49539643308588,-5.188813882566421 z"/><path fill="#000000" d="M -22.78085109532596,165.74163173548595 l 0.6936937817164719 -0.7202700446415218 a 3.6999999999999997 3.6999999999999997 0.0 1 1 -5.133333984701892,5.3299983303472604 l 0.6936937817164721 -0.7202700446415218 a 2.6999999999999997 2.6999999999999997 0.0 1 0 3.745946421268948,-3.889458241064217 z"/><path fill="#ed2c00" d="M -18.516202008377345,180.53936021539758 l 0.9706190471027457 0.24062141509299997 a 3.6999999999999997 3.6999999999999997 0.0 1 1 -7.182580948560318,-1.780598471688199 l 0.9706190471027458 0.24062141509299972 a 2.6999999999999997 2.6999999999999997 0.0 1 0 5.241342854354826,1.2993556415021994 z"/><path fill="#fd3633" d="M 100.0,100.0 l -85.14306445185207 29.166051768241875 a 90.0 90.0 0.0 0 1 4.3143132211824735,-68.74777702738803 l 80.8287512306696 39.58172525914615 z"/><path fill="#000000" d="M 100.0,100.0 l -80.8287512306696 -39.58172525914615 a 90.0 90.0 0.0 0 1 51.66269946242772,-45.56133919270591 l 29.16605176824188 85.14306445185206 z"/><path fill="#fba296" d="M 100.0,100.0 l -29.16605176824188 -85.14306445185206 a 90.0 90.0 0.0 0 1 68.74777702738803,4.314313221182459 l -39.58172525914614 80.8287512306696 z"/><path fill="#110500" d="M 100.0,100.0 l 39.58172525914614 -80.8287512306696 a 90.0 90.0 0.0 0 1 45.561339192705915,51.66269946242771 l -85.14306445185206 29.166051768241882 z"/><path fill="#d9002f" d="M 100.0,100.0 l 85.14306445185206 -29.166051768241882 a 90.0 90.0 0.0 0 1 -4.314313221182459,68.74777702738804 l -80.8287512306696 -39.581725259146154 z"/><path fill="#000000" d="M 100.0,100.0 l 80.82875123066961 39.58172525914613 a 90.0 90.0 0.0 0 1 -51.66269946242774,45.56133919270594 l -29.166051768241868 -85.14306445185207 z"/><path fill="#ffffff" d="M 100.0,100.0 l 29.16605176824189 85.14306445185206 a 90.0 90.0 0.0 0 1 -68.74777702738811,-4.314313221182502 l 39.581725259146225 -80.82875123066955 z"/><path fill="#ce0a5b" d="M 100.0,100.0 l -39.581725259146225 80.82875123066955 a 90.0 90.0 0.0 0 1 -45.56133919270587,-51.66269946242775 l 85.1430644518521 -29.1660517682418 z"/><path fill="#000000" d="M 99.88787794650115,189.99993015911247 l -0.01245800594431549 9.999992239901385 a 100.0 100.0 0.0 0 1 -86.54018314429686,-50.10785069578958 l 8.666476320374002 -4.989207170322423 a 90.0 90.0 0.0 0 0 77.88616482986717,45.09706562621062 z"/><path fill="#000000" d="M 22.001713116633994,144.90286453290184 l -8.666476320374 4.989207170322428 a 100.0 100.0 0.0 0 1 0.12458005944298911,-99.99992239901377 l 8.654018314429692 5.010785069578958 a 90.0 90.0 0.0 0 0 -0.11212205349868043,89.99993015911238 z"/><path fill="#6f0024" d="M 22.11383517013273,54.9029343737894 l -8.654018314429697 -5.010785069578956 a 100.0 100.0 0.0 0 1 86.66476320374005,-49.89207170322428 l -0.012458005944310457 9.999992239901388 a 90.0 90.0 0.0 0 0 -77.99828688336605,44.90286453290185 z"/><path fill="#ff558a" d="M 100.11212205349878,10.000069840887548 l 0.012458005944307833 -9.999992239901385 a 100.0 100.0 0.0 0 1 86.54018314429693,50.107850695789566 l -8.666476320374002 4.98920717032243 a 90.0 90.0 0.0 0 0 -77.88616482986724,-45.097065626210615 z"/><path fill="#a10016" d="M 177.998286883366,55.09713546709817 l 8.666476320374002 -4.989207170322427 a 100.0 100.0 0.0 0 1 -0.12458005944309036,99.99992239901391 l -8.654018314429692 -5.010785069578972 a 90.0 90.0 0.0 0 0 0.1121220534987799,-89.99993015911251 z"/><path fill="#2b040d" d="M 177.88616482986725,145.09706562621068 l 8.654018314429694 5.0107850695789615 a 100.0 100.0 0.0 0 1 -86.66476320374011,49.89207170322423 l 0.012458005944310457 -9.999992239901388 a 90.0 90.0 0.0 0 0 77.9982868833661,-44.9028645329018 z"/><path fill="#000000" d="M -33.46373533375963,176.83379042296536 l -8.666476320374002 4.989207170322426 a 37.0 37.0 0.0 1 1 64.13192477076761,-36.92013306038595 l -8.666476320374002 4.989207170322427 a 27.0 27.0 0.0 1 0 -46.79897213001961,26.9417187197411 z"/><path fill="#000000" d="M -33.27188204221742,22.83390992848419 l -8.654018314429702 -5.010785069578948 a 37.0 37.0 0.0 1 1 64.0397355267798,37.079809514884225 l -8.654018314429699 -5.010785069578951 a 27.0 27.0 0.0 1 0 -46.731698897920396,-27.058239375726323 z"/><path fill="#6f0024" d="M 100.19185329154236,-53.99988049448131 l 0.012458005944307833 -9.999992239901385 a 37.0 37.0 0.0 1 1 -0.09218924398788249,73.99994257527024 l 0.012458005944309056 -9.999992239901381 a 27.0 27.0 0.0 1 0 0.0672732320992656,-53.99995809546748 z"/><path fill="#ff558a" d="M 233.46373533375962,23.166209577034635 l 8.666476320374002 -4.989207170322427 a 37.0 37.0 0.0 1 1 -64.13192477076761,36.92013306038595 l 8.666476320374002 -4.989207170322427 a 27.0 27.0 0.0 1 0 46.79897213001961,-26.9417187197411 z"/><path fill="#a10016" d="M 233.27188204221727,177.16609007151604 l 8.654018314429692 5.010785069578963 a 37.0 37.0 0.0 1 1 -64.03973552677974,-37.079809514884325 l 8.654018314429699 5.010785069578958 a 27.0 27.0 0.0 1 0 46.73169889792034,27.0582393757264 z"/><path fill="#2b040d" d="M 99.80814670845751,253.99988049448135 l -0.012458005944317938 9.999992239901385 a 37.0 37.0 0.0 1 1 0.09218924398794821,-73.99994257527024 l -0.012458005944316716 9.999992239901381 a 27.0 27.0 0.0 1 0 -0.06727323209931356,53.99995809546748 z"/><path fill="#822503" d="M -33.27188204221742,22.83390992848419 l -6.4389214080049015 6.288107115940073 a 9.0 9.0 0.0 0 1 -2.5604467656312053,-6.3947489245589715 l 8.999368173636107 0.10664180861889898 z"/><path fill="#210e00" d="M -33.27188204221742,22.83390992848419 l -8.999368173636107 -0.10664180861889679 a 9.0 9.0 0.0 0 1 2.711261057696035,-6.332279599386006 l 6.288107115940072 6.438921408004903 z"/><path fill="#000000" d="M -33.27188204221742,22.83390992848419 l -6.288107115940072 -6.438921408004903 a 9.0 9.0 0.0 0 1 6.394748924558963,-2.5604467656312035 l -0.10664180861889044 8.999368173636107 z"/><path fill="#e22d07" d="M -33.27188204221742,22.83390992848419 l 0.10664180861889044 -8.999368173636107 a 9.0 9.0 0.0 0 1 6.332279599386012,2.711261057696035 l -6.438921408004902 6.288107115940072 z"/><path fill="#c40900" d="M -33.27188204221742,22.83390992848419 l 6.438921408004902 -6.288107115940072 a 9.0 9.0 0.0 0 1 2.5604467656312044,6.394748924558964 l -8.999368173636107 -0.1066418086188921 z"/><path fill="#ff6072" d="M -33.27188204221742,22.83390992848419 l 8.999368173636107 0.10664180861888989 a 9.0 9.0 0.0 0 1 -2.711261057696036,6.3322795993860135 l -6.288107115940071 -6.438921408004903 z"/><path fill="#440011" d="M -33.27188204221742,22.83390992848419 l 6.288107115940072 6.438921408004902 a 9.0 9.0 0.0 0 1 -6.3947489245589555,2.5604467656312044 l 0.10664180861888356 -8.999368173636107 z"/><path fill="#e83200" d="M -33.27188204221742,22.83390992848419 l -0.10664180861888135 8.999368173636107 a 9.0 9.0 0.0 0 1 -6.332279599386022,-2.711261057696036 l 6.438921408004903 -6.288107115940071 z"/><path fill="#fd3633" d="M 100.0,100.0 l -85.14306445185207 29.166051768241875 a 90.0 90.0 0.0 0 1 4.3143132211824735,-68.74777702738803 l 80.8287512306696 39.58172525914615 z"/><path fill="#000000" d="M 100.0,100.0 l -80.8287512306696 -39.58172525914615 a 90.0 90.0 0.0 0 1 51.66269946242772,-45.56133919270591 l 29.16605176824188 85.14306445185206 z"/><path fill="#fba296" d="M 100.0,100.0 l -29.16605176824188 -85.14306445185206 a 90.0 90.0 0.0 0 1 68.74777702738803,4.314313221182459 l -39.58172525914614 80.8287512306696 z"/><path fill="#110500" d="M 100.0,100.0 l 39.58172525914614 -80.8287512306696 a 90.0 90.0 0.0 0 1 45.561339192705915,51.66269946242771 l -85.14306445185206 29.166051768241882 z"/><path fill="#d9002f" d="M 100.0,100.0 l 85.14306445185206 -29.166051768241882 a 90.0 90.0 0.0 0 1 -4.314313221182459,68.74777702738804 l -80.8287512306696 -39.581725259146154 z"/><path fill="#000000" d="M 100.0,100.0 l 80.82875123066961 39.58172525914613 a 90.0 90.0 0.0 0 1 -51.66269946242774,45.56133919270594 l -29.166051768241868 -85.14306445185207 z"/><path fill="#ffffff" d="M 100.0,100.0 l 29.16605176824189 85.14306445185206 a 90.0 90.0 0.0 0 1 -68.74777702738811,-4.314313221182502 l 39.581725259146225 -80.82875123066955 z"/><path fill="#ce0a5b" d="M 100.0,100.0 l -39.581725259146225 80.82875123066955 a 90.0 90.0 0.0 0 1 -45.56133919270587,-51.66269946242775 l 85.1430644518521 -29.1660517682418 z"/><path fill="#000000" d="M 99.88787794650115,189.99993015911247 l -0.01245800594431549 9.999992239901385 a 100.0 100.0 0.0 0 1 -86.54018314429686,-50.10785069578958 l 8.666476320374002 -4.989207170322423 a 90.0 90.0 0.0 0 0 77.88616482986717,45.09706562621062 z"/><path fill="#000000" d="M 22.001713116633994,144.90286453290184 l -8.666476320374 4.989207170322428 a 100.0 100.0 0.0 0 1 0.12458005944298911,-99.99992239901377 l 8.654018314429692 5.010785069578958 a 90.0 90.0 0.0 0 0 -0.11212205349868043,89.99993015911238 z"/><path fill="#6f0024" d="M 22.11383517013273,54.9029343737894 l -8.654018314429697 -5.010785069578956 a 100.0 100.0 0.0 0 1 86.66476320374005,-49.89207170322428 l -0.012458005944310457 9.999992239901388 a 90.0 90.0 0.0 0 0 -77.99828688336605,44.90286453290185 z"/><path fill="#ff558a" d="M 100.11212205349878,10.000069840887548 l 0.012458005944307833 -9.999992239901385 a 100.0 100.0 0.0 0 1 86.54018314429693,50.107850695789566 l -8.666476320374002 4.98920717032243 a 90.0 90.0 0.0 0 0 -77.88616482986724,-45.097065626210615 z"/><path fill="#a10016" d="M 177.998286883366,55.09713546709817 l 8.666476320374002 -4.989207170322427 a 100.0 100.0 0.0 0 1 -0.12458005944309036,99.99992239901391 l -8.654018314429692 -5.010785069578972 a 90.0 90.0 0.0 0 0 0.1121220534987799,-89.99993015911251 z"/><path fill="#2b040d" d="M 177.88616482986725,145.09706562621068 l 8.654018314429694 5.0107850695789615 a 100.0 100.0 0.0 0 1 -86.66476320374011,49.89207170322423 l 0.012458005944310457 -9.999992239901388 a 90.0 90.0 0.0 0 0 77.9982868833661,-44.9028645329018 z"/><path fill="#000000" d="M -33.46373533375963,176.83379042296536 l -8.666476320374002 4.989207170322426 a 37.0 37.0 0.0 1 1 64.13192477076761,-36.92013306038595 l -8.666476320374002 4.989207170322427 a 27.0 27.0 0.0 1 0 -46.79897213001961,26.9417187197411 z"/><path fill="#000000" d="M -33.27188204221742,22.83390992848419 l -8.654018314429702 -5.010785069578948 a 37.0 37.0 0.0 1 1 64.0397355267798,37.079809514884225 l -8.654018314429699 -5.010785069578951 a 27.0 27.0 0.0 1 0 -46.731698897920396,-27.058239375726323 z"/><path fill="#6f0024" d="M 100.19185329154236,-53.99988049448131 l 0.012458005944307833 -9.999992239901385 a 37.0 37.0 0.0 1 1 -0.09218924398788249,73.99994257527024 l 0.012458005944309056 -9.999992239901381 a 27.0 27.0 0.0 1 0 0.0672732320992656,-53.99995809546748 z"/><path fill="#ff558a" d="M 233.46373533375962,23.166209577034635 l 8.666476320374002 -4.989207170322427 a 37.0 37.0 0.0 1 1 -64.13192477076761,36.92013306038595 l 8.666476320374002 -4.989207170322427 a 27.0 27.0 0.0 1 0 46.79897213001961,-26.9417187197411 z"/><path fill="#a10016" d="M 233.27188204221727,177.16609007151604 l 8.654018314429692 5.010785069578963 a 37.0 37.0 0.0 1 1 -64.03973552677974,-37.079809514884325 l 8.654018314429699 5.010785069578958 a 27.0 27.0 0.0 1 0 46.73169889792034,27.0582393757264 z"/><path fill="#2b040d" d="M 99.80814670845751,253.99988049448135 l -0.012458005944317938 9.999992239901385 a 37.0 37.0 0.0 1 1 0.09218924398794821,-73.99994257527024 l -0.012458005944316716 9.999992239901381 a 27.0 27.0 0.0 1 0 -0.06727323209931356,53.99995809546748 z"/><path fill="#ff2d28" d="M -31.15599184335533,31.581652989774877 l 0.2350989109846768 0.9719714512545207 a 10.0 10.0 0.0 0 1 -9.593014240319812,-2.823840963124735 l 0.7242025130473042 -0.6895873549420477 a 9.0 9.0 0.0 0 0 8.633712816287831,2.541456866812262 z"/><path fill="#080100" d="M -39.78970465964316,29.040196122962616 l -0.7242025130473044 0.6895873549420471 a 10.0 10.0 0.0 0 1 -2.35098910984677,-9.719714512545206 l 0.959301424031981 0.2823840963124731 a 9.0 9.0 0.0 0 0 2.1158901988620933,8.747743061290686 z"/><path fill="#1f0600" d="M -41.90559485850525,20.292453061671928 l -0.9593014240319815 -0.2823840963124736 a 10.0 10.0 0.0 0 1 7.24202513047304,-6.89587354942047 l 0.23509891098467683 0.9719714512545217 a 9.0 9.0 0.0 0 0 -6.517822617425736,6.206286194478422 z"/><path fill="#d32810" d="M -35.38777224107952,14.086166867193505 l -0.23509891098467736 -0.9719714512545206 a 10.0 10.0 0.0 0 1 9.593014240319814,2.82384096312473 l -0.7242025130473042 0.6895873549420477 a 9.0 9.0 0.0 0 0 -8.633712816287833,-2.541456866812257 z"/><path fill="#110003" d="M -26.754059424791684,16.627623734005763 l 0.724202513047304 -0.6895873549420475 a 10.0 10.0 0.0 0 1 2.3509891098467737,9.719714512545211 l -0.959301424031981 -0.2823840963124731 a 9.0 9.0 0.0 0 0 -2.115890198862097,-8.747743061290691 z"/><path fill="#c7160c" d="M -24.638169225929587,25.37536679529645 l 0.9593014240319816 0.28238409631247346 a 10.0 10.0 0.0 0 1 -7.242025130473053,6.8958735494204735 l -0.23509891098467595 -0.9719714512545199 a 9.0 9.0 0.0 0 0 6.517822617425747,-6.206286194478427 z"/><path fill="#ff2d28" d="M -44.42460074314591,33.453555194591715 l -0.7242025130473041 0.6895873549420475 a 3.6999999999999997 3.6999999999999997 0.0 1 1 5.35909859655005,-5.102946426571151 l -0.7242025130473042 0.6895873549420473 a 2.6999999999999997 2.6999999999999997 0.0 1 0 -3.9106935704554413,3.723771716687056 z"/><path fill="#080100" d="M -48.04512397230993,18.485194845272098 l -0.9593014240319815 -0.2823840963124736 a 3.6999999999999997 3.6999999999999997 0.0 1 1 7.098830537836662,2.0896423127123045 l -0.959301424031981 -0.2823840963124735 a 2.6999999999999997 2.6999999999999997 0.0 1 0 -5.1802276897727,-1.5248741200873575 z"/><path fill="#1f0600" d="M -36.89240527138145,7.8655495791645755 l -0.23509891098467736 -0.9719714512545206 a 3.6999999999999997 3.6999999999999997 0.0 1 1 1.7397319412866117,7.192588739283452 l -0.23509891098467706 -0.9719714512545208 a 2.6999999999999997 2.6999999999999997 0.0 1 0 -1.2695341193172573,-5.24864583677441 z"/><path fill="#d32810" d="M -22.11916334128894,12.214264662376658 l 0.724202513047304 -0.6895873549420475 a 3.6999999999999997 3.6999999999999997 0.0 1 1 -5.35909859655005,5.102946426571151 l 0.7242025130473042 -0.6895873549420473 a 2.6999999999999997 2.6999999999999997 0.0 1 0 3.9106935704554413,-3.723771716687056 z"/><path fill="#110003" d="M -18.498640112124907,27.182625011696285 l 0.9593014240319815 0.2823840963124737 a 3.6999999999999997 3.6999999999999997 0.0 1 1 -7.098830537836662,-2.0896423127123045 l 0.959301424031981 0.2823840963124735 a 2.6999999999999997 2.6999999999999997 0.0 1 0 5.1802276897727,1.5248741200873575 z"/><path fill="#c7160c" d="M -29.651358813053406,37.802270277803814 l 0.2350989109846764 0.9719714512545208 a 3.6999999999999997 3.6999999999999997 0.0 1 1 -1.7397319412866055,-7.192588739283453 l 0.2350989109846764 0.9719714512545208 a 2.6999999999999997 2.6999999999999997 0.0 1 0 1.2695341193172527,5.248645836774411 z"/><path fill="#fd3633" d="M 100.0,100.0 l -85.14306445185207 29.166051768241875 a 90.0 90.0 0.0 0 1 4.3143132211824735,-68.74777702738803 l 80.8287512306696 39.58172525914615 z"/><path fill="#000000" d="M 100.0,100.0 l -80.8287512306696 -39.58172525914615 a 90.0 90.0 0.0 0 1 51.66269946242772,-45.56133919270591 l 29.16605176824188 85.14306445185206 z"/><path fill="#fba296" d="M 100.0,100.0 l -29.16605176824188 -85.14306445185206 a 90.0 90.0 0.0 0 1 68.74777702738803,4.314313221182459 l -39.58172525914614 80.8287512306696 z"/><path fill="#110500" d="M 100.0,100.0 l 39.58172525914614 -80.8287512306696 a 90.0 90.0 0.0 0 1 45.561339192705915,51.66269946242771 l -85.14306445185206 29.166051768241882 z"/><path fill="#d9002f" d="M 100.0,100.0 l 85.14306445185206 -29.166051768241882 a 90.0 90.0 0.0 0 1 -4.314313221182459,68.74777702738804 l -80.8287512306696 -39.581725259146154 z"/><path fill="#000000" d="M 100.0,100.0 l 80.82875123066961 39.58172525914613 a 90.0 90.0 0.0 0 1 -51.66269946242774,45.56133919270594 l -29.166051768241868 -85.14306445185207 z"/><path fill="#ffffff" d="M 100.0,100.0 l 29.16605176824189 85.14306445185206 a 90.0 90.0 0.0 0 1 -68.74777702738811,-4.314313221182502 l 39.581725259146225 -80.82875123066955 z"/><path fill="#ce0a5b" d="M 100.0,100.0 l -39.581725259146225 80.82875123066955 a 90.0 90.0 0.0 0 1 -45.56133919270587,-51.66269946242775 l 85.1430644518521 -29.1660517682418 z"/><path fill="#000000" d="M 99.88787794650115,189.99993015911247 l -0.01245800594431549 9.999992239901385 a 100.0 100.0 0.0 0 1 -86.54018314429686,-50.10785069578958 l 8.666476320374002 -4.989207170322423 a 90.0 90.0 0.0 0 0 77.88616482986717,45.09706562621062 z"/><path fill="#000000" d="M 22.001713116633994,144.90286453290184 l -8.666476320374 4.989207170322428 a 100.0 100.0 0.0 0 1 0.12458005944298911,-99.99992239901377 l 8.654018314429692 5.010785069578958 a 90.0 90.0 0.0 0 0 -0.11212205349868043,89.99993015911238 z"/><path fill="#6f0024" d="M 22.11383517013273,54.9029343737894 l -8.654018314429697 -5.010785069578956 a 100.0 100.0 0.0 0 1 86.66476320374005,-49.89207170322428 l -0.012458005944310457 9.999992239901388 a 90.0 90.0 0.0 0 0 -77.99828688336605,44.90286453290185 z"/><path fill="#ff558a" d="M 100.11212205349878,10.000069840887548 l 0.012458005944307833 -9.999992239901385 a 100.0 100.0 0.0 0 1 86.54018314429693,50.107850695789566 l -8.666476320374002 4.98920717032243 a 90.0 90.0 0.0 0 0 -77.88616482986724,-45.097065626210615 z"/><path fill="#a10016" d="M 177.998286883366,55.09713546709817 l 8.666476320374002 -4.989207170322427 a 100.0 100.0 0.0 0 1 -0.12458005944309036,99.99992239901391 l -8.654018314429692 -5.010785069578972 a 90.0 90.0 0.0 0 0 0.1121220534987799,-89.99993015911251 z"/><path fill="#2b040d" d="M 177.88616482986725,145.09706562621068 l 8.654018314429694 5.0107850695789615 a 100.0 100.0 0.0 0 1 -86.66476320374011,49.89207170322423 l 0.012458005944310457 -9.999992239901388 a 90.0 90.0 0.0 0 0 77.9982868833661,-44.9028645329018 z"/><path fill="#000000" d="M -33.46373533375963,176.83379042296536 l -8.666476320374002 4.989207170322426 a 37.0 37.0 0.0 1 1 64.13192477076761,-36.92013306038595 l -8.666476320374002 4.989207170322427 a 27.0 27.0 0.0 1 0 -46.79897213001961,26.9417187197411 z"/><path fill="#000000" d="M -33.27188204221742,22.83390992848419 l -8.654018314429702 -5.010785069578948 a 37.0 37.0 0.0 1 1 64.0397355267798,37.079809514884225 l -8.654018314429699 -5.010785069578951 a 27.0 27.0 0.0 1 0 -46.731698897920396,-27.058239375726323 z"/><path fill="#6f0024" d="M 100.19185329154236,-53.99988049448131 l 0.012458005944307833 -9.999992239901385 a 37.0 37.0 0.0 1 1 -0.09218924398788249,73.99994257527024 l 0.012458005944309056 -9.999992239901381 a 27.0 27.0 0.0 1 0 0.0672732320992656,-53.99995809546748 z"/><path fill="#ff558a" d="M 233.46373533375962,23.166209577034635 l 8.666476320374002 -4.989207170322427 a 37.0 37.0 0.0 1 1 -64.13192477076761,36.92013306038595 l 8.666476320374002 -4.989207170322427 a 27.0 27.0 0.0 1 0 46.79897213001961,-26.9417187197411 z"/><path fill="#a10016" d="M 233.27188204221727,177.16609007151604 l 8.654018314429692 5.010785069578963 a 37.0 37.0 0.0 1 1 -64.03973552677974,-37.079809514884325 l 8.654018314429699 5.010785069578958 a 27.0 27.0 0.0 1 0 46.73169889792034,27.0582393757264 z"/><path fill="#2b040d" d="M 99.80814670845751,253.99988049448135 l -0.012458005944317938 9.999992239901385 a 37.0 37.0 0.0 1 1 0.09218924398794821,-73.99994257527024 l -0.012458005944316716 9.999992239901381 a 27.0 27.0 0.0 1 0 -0.06727323209931356,53.99995809546748 z"/><path fill="#6a2907" d="M 100.19185329154236,-53.99988049448131 l -8.440586182475181 3.123540442544174 a 9.0 9.0 0.0 0 1 0.26351382742409335,-6.883259541128436 l 8.177072355051088 3.759719098584262 z"/><path fill="#a4220c" d="M 100.19185329154236,-53.99988049448131 l -8.177072355051088 -3.759719098584262 a 9.0 9.0 0.0 0 1 5.053531912506917,-4.680867083890919 l 3.1235404425441713 8.440586182475181 z"/><path fill="#c60926" d="M 100.19185329154236,-53.99988049448131 l -3.1235404425441713 -8.440586182475181 a 9.0 9.0 0.0 0 1 6.883259541128425,0.2635138274240898 l -3.759719098584254 8.177072355051092 z"/><path fill="#fd3058" d="M 100.19185329154236,-53.99988049448131 l 3.759719098584254 -8.177072355051092 a 9.0 9.0 0.0 0 1 4.680867083890927,5.053531912506919 l -8.440586182475181 3.1235404425441717 z"/><path fill="#b20014" d="M 100.19185329154236,-53.99988049448131 l 8.440586182475181 -3.1235404425441717 a 9.0 9.0 0.0 0 1 -0.2635138274240898,6.883259541128428 l -8.177072355051092 -3.759719098584256 z"/><path fill="#d90003" d="M 100.19185329154236,-53.99988049448131 l 8.177072355051092 3.7597190985842537 a 9.0 9.0 0.0 0 1 -5.053531912506921,4.680867083890927 l -3.12354044254417 -8.440586182475181 z"/><path fill="#000000" d="M 100.19185329154236,-53.99988049448131 l 3.123540442544172 8.440586182475181 a 9.0 9.0 0.0 0 1 -6.883259541128428,-0.2635138274240898 l 3.7597190985842555 -8.177072355051092 z"/><path fill="#770011" d="M 100.19185329154236,-53.99988049448131 l -3.7597190985842532 8.177072355051092 a 9.0 9.0 0.0 0 1 -4.680867083890928,-5.053531912506921 l 8.440586182475181 -3.1235404425441704 z"/><path fill="#fd3633" d="M 100.0,100.0 l -85.14306445185207 29.166051768241875 a 90.0 90.0 0.0 0 1 4.3143132211824735,-68.74777702738803 l 80.8287512306696 39.58172525914615 z"/><path fill="#000000" d="M 100.0,100.0 l -80.8287512306696 -39.58172525914615 a 90.0 90.0 0.0 0 1 51.66269946242772,-45.56133919270591 l 29.16605176824188 85.14306445185206 z"/><path fill="#fba296" d="M 100.0,100.0 l -29.16605176824188 -85.14306445185206 a 90.0 90.0 0.0 0 1 68.74777702738803,4.314313221182459 l -39.58172525914614 80.8287512306696 z"/><path fill="#110500" d="M 100.0,100.0 l 39.58172525914614 -80.8287512306696 a 90.0 90.0 0.0 0 1 45.561339192705915,51.66269946242771 l -85.14306445185206 29.166051768241882 z"/><path fill="#d9002f" d="M 100.0,100.0 l 85.14306445185206 -29.166051768241882 a 90.0 90.0 0.0 0 1 -4.314313221182459,68.74777702738804 l -80.8287512306696 -39.581725259146154 z"/><path fill="#000000" d="M 100.0,100.0 l 80.82875123066961 39.58172525914613 a 90.0 90.0 0.0 0 1 -51.66269946242774,45.56133919270594 l -29.166051768241868 -85.14306445185207 z"/><path fill="#ffffff" d="M 100.0,100.0 l 29.16605176824189 85.14306445185206 a 90.0 90.0 0.0 0 1 -68.74777702738811,-4.314313221182502 l 39.581725259146225 -80.82875123066955 z"/><path fill="#ce0a5b" d="M 100.0,100.0 l -39.581725259146225 80.82875123066955 a 90.0 90.0 0.0 0 1 -45.56133919270587,-51.66269946242775 l 85.1430644518521 -29.1660517682418 z"/><path fill="#000000" d="M 99.88787794650115,189.99993015911247 l -0.01245800594431549 9.999992239901385 a 100.0 100.0 0.0 0 1 -86.54018314429686,-50.10785069578958 l 8.666476320374002 -4.989207170322423 a 90.0 90.0 0.0 0 0 77.88616482986717,45.09706562621062 z"/><path fill="#000000" d="M 22.001713116633994,144.90286453290184 l -8.666476320374 4.989207170322428 a 100.0 100.0 0.0 0 1 0.12458005944298911,-99.99992239901377 l 8.654018314429692 5.010785069578958 a 90.0 90.0 0.0 0 0 -0.11212205349868043,89.99993015911238 z"/><path fill="#6f0024" d="M 22.11383517013273,54.9029343737894 l -8.654018314429697 -5.010785069578956 a 100.0 100.0 0.0 0 1 86.66476320374005,-49.89207170322428 l -0.012458005944310457 9.999992239901388 a 90.0 90.0 0.0 0 0 -77.99828688336605,44.90286453290185 z"/><path fill="#ff558a" d="M 100.11212205349878,10.000069840887548 l 0.012458005944307833 -9.999992239901385 a 100.0 100.0 0.0 0 1 86.54018314429693,50.107850695789566 l -8.666476320374002 4.98920717032243 a 90.0 90.0 0.0 0 0 -77.88616482986724,-45.097065626210615 z"/><path fill="#a10016" d="M 177.998286883366,55.09713546709817 l 8.666476320374002 -4.989207170322427 a 100.0 100.0 0.0 0 1 -0.12458005944309036,99.99992239901391 l -8.654018314429692 -5.010785069578972 a 90.0 90.0 0.0 0 0 0.1121220534987799,-89.99993015911251 z"/><path fill="#2b040d" d="M 177.88616482986725,145.09706562621068 l 8.654018314429694 5.0107850695789615 a 100.0 100.0 0.0 0 1 -86.66476320374011,49.89207170322423 l 0.012458005944310457 -9.999992239901388 a 90.0 90.0 0.0 0 0 77.9982868833661,-44.9028645329018 z"/><path fill="#000000" d="M -33.46373533375963,176.83379042296536 l -8.666476320374002 4.989207170322426 a 37.0 37.0 0.0 1 1 64.13192477076761,-36.92013306038595 l -8.666476320374002 4.989207170322427 a 27.0 27.0 0.0 1 0 -46.79897213001961,26.9417187197411 z"/><path fill="#000000" d="M -33.27188204221742,22.83390992848419 l -8.654018314429702 -5.010785069578948 a 37.0 37.0 0.0 1 1 64.0397355267798,37.079809514884225 l -8.654018314429699 -5.010785069578951 a 27.0 27.0 0.0 1 0 -46.731698897920396,-27.058239375726323 z"/><path fill="#6f0024" d="M 100.19185329154236,-53.99988049448131 l 0.012458005944307833 -9.999992239901385 a 37.0 37.0 0.0 1 1 -0.09218924398788249,73.99994257527024 l 0.012458005944309056 -9.999992239901381 a 27.0 27.0 0.0 1 0 0.0672732320992656,-53.99995809546748 z"/><path fill="#ff558a" d="M 233.46373533375962,23.166209577034635 l 8.666476320374002 -4.989207170322427 a 37.0 37.0 0.0 1 1 -64.13192477076761,36.92013306038595 l 8.666476320374002 -4.989207170322427 a 27.0 27.0 0.0 1 0 46.79897213001961,-26.9417187197411 z"/><path fill="#a10016" d="M 233.27188204221727,177.16609007151604 l 8.654018314429692 5.010785069578963 a 37.0 37.0 0.0 1 1 -64.03973552677974,-37.079809514884325 l 8.654018314429699 5.010785069578958 a 27.0 27.0 0.0 1 0 46.73169889792034,27.0582393757264 z"/><path fill="#2b040d" d="M 99.80814670845751,253.99988049448135 l -0.012458005944317938 9.999992239901385 a 37.0 37.0 0.0 1 1 0.09218924398794821,-73.99994257527024 l -0.012458005944316716 9.999992239901381 a 27.0 27.0 0.0 1 0 -0.06727323209931356,53.99995809546748 z"/><path fill="#ff6a4d" d="M 91.53296666165026,-56.45419961201185 l -0.9620985144324551 -0.27270212417006034 a 10.0 10.0 0.0 0 1 7.172162244134784,-6.968506923567452 l 0.24488229001897643 0.9695528165268055 a 9.0 9.0 0.0 0 0 -6.454946019721305,6.271656231210708 z"/><path fill="#ffffff" d="M 97.98791268137157,-62.72585584322256 l -0.24488229001897682 -0.9695528165268057 a 10.0 10.0 0.0 0 1 9.620985144324548,2.7270212417006015 l -0.7172162244134785 0.6968506923567457 a 9.0 9.0 0.0 0 0 -8.658886629892093,-2.4543191175305417 z"/><path fill="#85042d" d="M 106.64679931126365,-60.27153672569202 l 0.717216224413478 -0.6968506923567455 a 10.0 10.0 0.0 0 1 2.44882290018977,9.695528165268064 l -0.962098514432455 -0.27270212417006157 a 9.0 9.0 0.0 0 0 -2.2039406101707932,-8.725975348741256 z"/><path fill="#000000" d="M 108.85073992143445,-51.54556137695076 l 0.962098514432455 0.2727021241700606 a 10.0 10.0 0.0 0 1 -7.172162244134774,6.968506923567449 l -0.24488229001897732 -0.9695528165268055 a 9.0 9.0 0.0 0 0 6.454946019721296,-6.271656231210704 z"/><path fill="#ff4120" d="M 102.39579390171316,-45.27390514574006 l 0.24488229001897777 0.9695528165268055 a 10.0 10.0 0.0 0 1 -9.620985144324566,-2.727021241700607 l 0.7172162244134785 -0.6968506923567448 a 9.0 9.0 0.0 0 0 8.658886629892109,2.454319117530546 z"/><path fill="#ff0e6b" d="M 93.73690727182105,-47.728224263270604 l -0.7172162244134788 0.6968506923567448 a 10.0 10.0 0.0 0 1 -2.4488229001897643,-9.695528165268051 l 0.962098514432455 0.27270212417006157 a 9.0 9.0 0.0 0 0 2.203940610170788,8.725975348741246 z"/><path fill="#ff6a4d" d="M 96.42066602525011,-68.93099386899411 l -0.24488229001897682 -0.9695528165268057 a 3.6999999999999997 3.6999999999999997 0.0 1 1 1.812128946140428,7.174690842298361 l -0.24488229001897666 -0.9695528165268055 a 2.6999999999999997 2.6999999999999997 0.0 1 0 -1.3223643661024744,-5.23558520924475 z"/><path fill="#ffffff" d="M 111.23698314750992,-64.7313811567752 l 0.7172162244134773 -0.6968506923567461 a 3.6999999999999997 3.6999999999999997 0.0 1 1 -5.307400060659733,5.1566951234399205 l 0.7172162244134777 -0.6968506923567466 a 2.6999999999999997 2.6999999999999997 0.0 1 0 3.8729676118327774,-3.7629937387264283 z"/><path fill="#85042d" d="M 115.00817041380216,-49.80026778226238 l 0.962098514432455 0.27270212417006084 a 3.6999999999999997 3.6999999999999997 0.0 1 1 -7.119529006800167,-2.0179957188584496 l 0.962098514432455 0.2727021241700607 a 2.6999999999999997 2.6999999999999997 0.0 1 0 5.195331977935257,1.4725914705183283 z"/><path fill="#000000" d="M 103.96304055783462,-39.0687671199685 l 0.24488229001897757 0.9695528165268055 a 3.6999999999999997 3.6999999999999997 0.0 1 1 -1.8121289461404342,-7.17469084229836 l 0.24488229001897777 0.9695528165268055 a 2.6999999999999997 2.6999999999999997 0.0 1 0 1.3223643661024789,5.235585209244749 z"/><path fill="#ff4120" d="M 89.14672343557478,-43.268379832187435 l -0.7172162244134788 0.6968506923567448 a 3.6999999999999997 3.6999999999999997 0.0 1 1 5.307400060659742,-5.156695123439912 l -0.7172162244134785 0.6968506923567448 a 2.6999999999999997 2.6999999999999997 0.0 1 0 -3.8729676118327845,3.762993738726422 z"/><path fill="#ff0e6b" d="M 85.37553616928255,-58.19949320670023 l -0.9620985144324552 -0.2727021241700599 a 3.6999999999999997 3.6999999999999997 0.0 1 1 7.1195290068001675,2.0179957188584434 l -0.962098514432455 -0.27270212417006 a 2.6999999999999997 2.6999999999999997 0.0 1 0 -5.195331977935258,-1.4725914705183236 z"/><path fill="#fd3633" d="M 100.0,100.0 l -85.14306445185207 29.166051768241875 a 90.0 90.0 0.0 0 1 4.3143132211824735,-68.74777702738803 l 80.8287512306696 39.58172525914615 z"/><path fill="#000000" d="M 100.0,100.0 l -80.8287512306696 -39.58172525914615 a 90.0 90.0 0.0 0 1 51.66269946242772,-45.56133919270591 l 29.16605176824188 85.14306445185206 z"/><path fill="#fba296" d="M 100.0,100.0 l -29.16605176824188 -85.14306445185206 a 90.0 90.0 0.0 0 1 68.74777702738803,4.314313221182459 l -39.58172525914614 80.8287512306696 z"/><path fill="#110500" d="M 100.0,100.0 l 39.58172525914614 -80.8287512306696 a 90.0 90.0 0.0 0 1 45.561339192705915,51.66269946242771 l -85.14306445185206 29.166051768241882 z"/><path fill="#d9002f" d="M 100.0,100.0 l 85.14306445185206 -29.166051768241882 a 90.0 90.0 0.0 0 1 -4.314313221182459,68.74777702738804 l -80.8287512306696 -39.581725259146154 z"/><path fill="#000000" d="M 100.0,100.0 l 80.82875123066961 39.58172525914613 a 90.0 90.0 0.0 0 1 -51.66269946242774,45.56133919270594 l -29.166051768241868 -85.14306445185207 z"/><path fill="#ffffff" d="M 100.0,100.0 l 29.16605176824189 85.14306445185206 a 90.0 90.0 0.0 0 1 -68.74777702738811,-4.314313221182502 l 39.581725259146225 -80.82875123066955 z"/><path fill="#ce0a5b" d="M 100.0,100.0 l -39.581725259146225 80.82875123066955 a 90.0 90.0 0.0 0 1 -45.56133919270587,-51.66269946242775 l 85.1430644518521 -29.1660517682418 z"/><path fill="#000000" d="M 99.88787794650115,189.99993015911247 l -0.01245800594431549 9.999992239901385 a 100.0 100.0 0.0 0 1 -86.54018314429686,-50.10785069578958 l 8.666476320374002 -4.989207170322423 a 90.0 90.0 0.0 0 0 77.88616482986717,45.09706562621062 z"/><path fill="#000000" d="M 22.001713116633994,144.90286453290184 l -8.666476320374 4.989207170322428 a 100.0 100.0 0.0 0 1 0.12458005944298911,-99.99992239901377 l 8.654018314429692 5.010785069578958 a 90.0 90.0 0.0 0 0 -0.11212205349868043,89.99993015911238 z"/><path fill="#6f0024" d="M 22.11383517013273,54.9029343737894 l -8.654018314429697 -5.010785069578956 a 100.0 100.0 0.0 0 1 86.66476320374005,-49.89207170322428 l -0.012458005944310457 9.999992239901388 a 90.0 90.0 0.0 0 0 -77.99828688336605,44.90286453290185 z"/><path fill="#ff558a" d="M 100.11212205349878,10.000069840887548 l 0.012458005944307833 -9.999992239901385 a 100.0 100.0 0.0 0 1 86.54018314429693,50.107850695789566 l -8.666476320374002 4.98920717032243 a 90.0 90.0 0.0 0 0 -77.88616482986724,-45.097065626210615 z"/><path fill="#a10016" d="M 177.998286883366,55.09713546709817 l 8.666476320374002 -4.989207170322427 a 100.0 100.0 0.0 0 1 -0.12458005944309036,99.99992239901391 l -8.654018314429692 -5.010785069578972 a 90.0 90.0 0.0 0 0 0.1121220534987799,-89.99993015911251 z"/><path fill="#2b040d" d="M 177.88616482986725,145.09706562621068 l 8.654018314429694 5.0107850695789615 a 100.0 100.0 0.0 0 1 -86.66476320374011,49.89207170322423 l 0.012458005944310457 -9.999992239901388 a 90.0 90.0 0.0 0 0 77.9982868833661,-44.9028645329018 z"/><path fill="#000000" d="M -33.46373533375963,176.83379042296536 l -8.666476320374002 4.989207170322426 a 37.0 37.0 0.0 1 1 64.13192477076761,-36.92013306038595 l -8.666476320374002 4.989207170322427 a 27.0 27.0 0.0 1 0 -46.79897213001961,26.9417187197411 z"/><path fill="#000000" d="M -33.27188204221742,22.83390992848419 l -8.654018314429702 -5.010785069578948 a 37.0 37.0 0.0 1 1 64.0397355267798,37.079809514884225 l -8.654018314429699 -5.010785069578951 a 27.0 27.0 0.0 1 0 -46.731698897920396,-27.058239375726323 z"/><path fill="#6f0024" d="M 100.19185329154236,-53.99988049448131 l 0.012458005944307833 -9.999992239901385 a 37.0 37.0 0.0 1 1 -0.09218924398788249,73.99994257527024 l 0.012458005944309056 -9.999992239901381 a 27.0 27.0 0.0 1 0 0.0672732320992656,-53.99995809546748 z"/><path fill="#ff558a" d="M 233.46373533375962,23.166209577034635 l 8.666476320374002 -4.989207170322427 a 37.0 37.0 0.0 1 1 -64.13192477076761,36.92013306038595 l 8.666476320374002 -4.989207170322427 a 27.0 27.0 0.0 1 0 46.79897213001961,-26.9417187197411 z"/><path fill="#a10016" d="M 233.27188204221727,177.16609007151604 l 8.654018314429692 5.010785069578963 a 37.0 37.0 0.0 1 1 -64.03973552677974,-37.079809514884325 l 8.654018314429699 5.010785069578958 a 27.0 27.0 0.0 1 0 46.73169889792034,27.0582393757264 z"/><path fill="#2b040d" d="M 99.80814670845751,253.99988049448135 l -0.012458005944317938 9.999992239901385 a 37.0 37.0 0.0 1 1 0.09218924398794821,-73.99994257527024 l -0.012458005944316716 9.999992239901381 a 27.0 27.0 0.0 1 0 -0.06727323209931356,53.99995809546748 z"/><path fill="#af000b" d="M 233.46373533375962,23.166209577034635 l 2.1264094336413804 8.745191988774229 a 9.0 9.0 0.0 0 1 -6.806595461575041,-1.0578089006268359 l 4.680186027933661 -7.687383088147393 z"/><path fill="#ef0f15" d="M 233.46373533375962,23.166209577034635 l -4.680186027933661 7.687383088147393 a 9.0 9.0 0.0 0 1 -4.065005960840568,-5.560973654506013 l 8.745191988774229 -2.126409433641381 z"/><path fill="#f93c70" d="M 233.46373533375962,23.166209577034635 l -8.745191988774229 2.126409433641381 a 9.0 9.0 0.0 0 1 1.0578089006268359,-6.806595461575041 l 7.687383088147393 4.680186027933661 z"/><path fill="#390000" d="M 233.46373533375962,23.166209577034635 l -7.687383088147393 -4.680186027933661 a 9.0 9.0 0.0 0 1 5.560973654506007,-4.065005960840566 l 2.1264094336413852 8.745191988774227 z"/><path fill="#f77c66" d="M 233.46373533375962,23.166209577034635 l -2.1264094336413852 -8.745191988774227 a 9.0 9.0 0.0 0 1 6.806595461575048,1.057808900626835 l -4.680186027933663 7.687383088147392 z"/><path fill="#f9948b" d="M 233.46373533375962,23.166209577034635 l 4.680186027933663 -7.687383088147392 a 9.0 9.0 0.0 0 1 4.065005960840564,5.5609736545060064 l -8.745191988774227 2.1264094336413857 z"/><path fill="#8c0a0f" d="M 233.46373533375962,23.166209577034635 l 8.745191988774227 -2.1264094336413857 a 9.0 9.0 0.0 0 1 -1.0578089006268367,6.80659546157505 l -7.68738308814739 -4.680186027933664 z"/><path fill="#57020f" d="M 233.46373533375962,23.166209577034635 l 7.687383088147392 4.6801860279336625 a 9.0 9.0 0.0 0 1 -5.560973654506007,4.065005960840565 l -2.1264094336413844 -8.745191988774227 z"/><path fill="#fd3633" d="M 100.0,100.0 l -85.14306445185207 29.166051768241875 a 90.0 90.0 0.0 0 1 4.3143132211824735,-68.74777702738803 l 80.8287512306696 39.58172525914615 z"/><path fill="#000000" d="M 100.0,100.0 l -80.8287512306696 -39.58172525914615 a 90.0 90.0 0.0 0 1 51.66269946242772,-45.56133919270591 l 29.16605176824188 85.14306445185206 z"/><path fill="#fba296" d="M 100.0,100.0 l -29.16605176824188 -85.14306445185206 a 90.0 90.0 0.0 0 1 68.74777702738803,4.314313221182459 l -39.58172525914614 80.8287512306696 z"/><path fill="#110500" d="M 100.0,100.0 l 39.58172525914614 -80.8287512306696 a 90.0 90.0 0.0 0 1 45.561339192705915,51.66269946242771 l -85.14306445185206 29.166051768241882 z"/><path fill="#d9002f" d="M 100.0,100.0 l 85.14306445185206 -29.166051768241882 a 90.0 90.0 0.0 0 1 -4.314313221182459,68.74777702738804 l -80.8287512306696 -39.581725259146154 z"/><path fill="#000000" d="M 100.0,100.0 l 80.82875123066961 39.58172525914613 a 90.0 90.0 0.0 0 1 -51.66269946242774,45.56133919270594 l -29.166051768241868 -85.14306445185207 z"/><path fill="#ffffff" d="M 100.0,100.0 l 29.16605176824189 85.14306445185206 a 90.0 90.0 0.0 0 1 -68.74777702738811,-4.314313221182502 l 39.581725259146225 -80.82875123066955 z"/><path fill="#ce0a5b" d="M 100.0,100.0 l -39.581725259146225 80.82875123066955 a 90.0 90.0 0.0 0 1 -45.56133919270587,-51.66269946242775 l 85.1430644518521 -29.1660517682418 z"/><path fill="#000000" d="M 99.88787794650115,189.99993015911247 l -0.01245800594431549 9.999992239901385 a 100.0 100.0 0.0 0 1 -86.54018314429686,-50.10785069578958 l 8.666476320374002 -4.989207170322423 a 90.0 90.0 0.0 0 0 77.88616482986717,45.09706562621062 z"/><path fill="#000000" d="M 22.001713116633994,144.90286453290184 l -8.666476320374 4.989207170322428 a 100.0 100.0 0.0 0 1 0.12458005944298911,-99.99992239901377 l 8.654018314429692 5.010785069578958 a 90.0 90.0 0.0 0 0 -0.11212205349868043,89.99993015911238 z"/><path fill="#6f0024" d="M 22.11383517013273,54.9029343737894 l -8.654018314429697 -5.010785069578956 a 100.0 100.0 0.0 0 1 86.66476320374005,-49.89207170322428 l -0.012458005944310457 9.999992239901388 a 90.0 90.0 0.0 0 0 -77.99828688336605,44.90286453290185 z"/><path fill="#ff558a" d="M 100.11212205349878,10.000069840887548 l 0.012458005944307833 -9.999992239901385 a 100.0 100.0 0.0 0 1 86.54018314429693,50.107850695789566 l -8.666476320374002 4.98920717032243 a 90.0 90.0 0.0 0 0 -77.88616482986724,-45.097065626210615 z"/><path fill="#a10016" d="M 177.998286883366,55.09713546709817 l 8.666476320374002 -4.989207170322427 a 100.0 100.0 0.0 0 1 -0.12458005944309036,99.99992239901391 l -8.654018314429692 -5.010785069578972 a 90.0 90.0 0.0 0 0 0.1121220534987799,-89.99993015911251 z"/><path fill="#2b040d" d="M 177.88616482986725,145.09706562621068 l 8.654018314429694 5.0107850695789615 a 100.0 100.0 0.0 0 1 -86.66476320374011,49.89207170322423 l 0.012458005944310457 -9.999992239901388 a 90.0 90.0 0.0 0 0 77.9982868833661,-44.9028645329018 z"/><path fill="#000000" d="M -33.46373533375963,176.83379042296536 l -8.666476320374002 4.989207170322426 a 37.0 37.0 0.0 1 1 64.13192477076761,-36.92013306038595 l -8.666476320374002 4.989207170322427 a 27.0 27.0 0.0 1 0 -46.79897213001961,26.9417187197411 z"/><path fill="#000000" d="M -33.27188204221742,22.83390992848419 l -8.654018314429702 -5.010785069578948 a 37.0 37.0 0.0 1 1 64.0397355267798,37.079809514884225 l -8.654018314429699 -5.010785069578951 a 27.0 27.0 0.0 1 0 -46.731698897920396,-27.058239375726323 z"/><path fill="#6f0024" d="M 100.19185329154236,-53.99988049448131 l 0.012458005944307833 -9.999992239901385 a 37.0 37.0 0.0 1 1 -0.09218924398788249,73.99994257527024 l 0.012458005944309056 -9.999992239901381 a 27.0 27.0 0.0 1 0 0.0672732320992656,-53.99995809546748 z"/><path fill="#ff558a" d="M 233.46373533375962,23.166209577034635 l 8.666476320374002 -4.989207170322427 a 37.0 37.0 0.0 1 1 -64.13192477076761,36.92013306038595 l 8.666476320374002 -4.989207170322427 a 27.0 27.0 0.0 1 0 46.79897213001961,-26.9417187197411 z"/><path fill="#a10016" d="M 233.27188204221727,177.16609007151604 l 8.654018314429692 5.010785069578963 a 37.0 37.0 0.0 1 1 -64.03973552677974,-37.079809514884325 l 8.654018314429699 5.010785069578958 a 27.0 27.0 0.0 1 0 46.73169889792034,27.0582393757264 z"/><path fill="#2b040d" d="M 99.80814670845751,253.99988049448135 l -0.012458005944317938 9.999992239901385 a 37.0 37.0 0.0 1 1 0.09218924398794821,-73.99994257527024 l -0.012458005944316716 9.999992239901381 a 27.0 27.0 0.0 1 0 -0.06727323209931356,53.99995809546748 z"/><path fill="#ff7270" d="M 235.63230455429456,14.431376577157168 l 0.24095213561499565 -0.9705369999863852 a 10.0 10.0 0.0 0 1 7.20033629493449,6.939391705318918 l -0.960985765108445 0.2765978294544933 a 9.0 9.0 0.0 0 0 -6.480302665441041,-6.2454525347870256 z"/><path fill="#c91f11" d="M 242.11260721973562,20.6768291119442 l 0.9609857651084447 -0.2765978294544935 a 10.0 10.0 0.0 0 1 -2.4095213561499578,9.705369999863859 l -0.7200336294934493 -0.6939391705318929 a 9.0 9.0 0.0 0 0 2.1685692205349625,-8.734832999877472 z"/><path fill="#83022a" d="M 239.94403799920067,29.411662111821663 l 0.7200336294934491 0.6939391705318922 a 10.0 10.0 0.0 0 1 -9.60985765108443,2.7659782945449347 l 0.24095213561499307 -0.9705369999863862 a 9.0 9.0 0.0 0 0 8.64887188597599,-2.4893804650904405 z"/><path fill="#090003" d="M 231.29516611322467,31.901042576912104 l -0.24095213561499534 0.9705369999863853 a 10.0 10.0 0.0 0 1 -7.200336294934495,-6.93939170531892 l 0.960985765108445 -0.2765978294544933 a 9.0 9.0 0.0 0 0 6.480302665441045,6.245452534787028 z"/><path fill="#000000" d="M 224.8148634477836,25.655590042125077 l -0.9609857651084448 0.2765978294544934 a 10.0 10.0 0.0 0 1 2.409521356149959,-9.705369999863857 l 0.7200336294934484 0.6939391705318929 a 9.0 9.0 0.0 0 0 -2.1685692205349625,8.73483299987747 z"/><path fill="#b61000" d="M 226.98343266831859,16.920757042247605 l -0.720033629493449 -0.6939391705318922 a 10.0 10.0 0.0 0 1 9.609857651084438,-2.765978294544933 l -0.24095213561499484 0.9705369999863862 a 9.0 9.0 0.0 0 0 -8.648871885975995,2.4893804650904388 z"/><path fill="#ff7270" d="M 248.26291611642966,18.906603003435443 l 0.960985765108445 -0.2765978294544926 a 3.6999999999999997 3.6999999999999997 0.0 1 1 -7.111294661802493,2.0468239379632447 l 0.960985765108445 -0.2765978294544924 a 2.6999999999999997 2.6999999999999997 0.0 1 0 5.189323131585603,-1.4936282790542599 z"/><path fill="#c91f11" d="M 244.55225322795874,33.85287280322578 l 0.7200336294934488 0.6939391705318924 a 3.6999999999999997 3.6999999999999997 0.0 1 1 -5.328248858251522,-5.135149861936002 l 0.7200336294934484 0.693939170531892 a 2.6999999999999997 2.6999999999999997 0.0 1 0 3.888181599264624,3.747271520872218 z"/><path fill="#83022a" d="M 229.75307244528872,38.11247937682497 l -0.24095213561499407 0.9705369999863857 a 3.6999999999999997 3.6999999999999997 0.0 1 1 1.7830458035509555,-7.181973799899253 l -0.24095213561499373 0.9705369999863853 a 2.6999999999999997 2.6999999999999997 0.0 1 0 -1.3011415323209676,5.240899799926482 z"/><path fill="#090003" d="M 218.66455455108957,27.425816150633835 l -0.9609857651084448 0.2765978294544934 a 3.6999999999999997 3.6999999999999997 0.0 1 1 7.111294661802491,-2.0468239379632513 l -0.960985765108445 0.2765978294544935 a 2.6999999999999997 2.6999999999999997 0.0 1 0 -5.189323131585601,1.4936282790542645 z"/><path fill="#000000" d="M 222.3752174395605,12.479546350843496 l -0.720033629493449 -0.6939391705318922 a 3.6999999999999997 3.6999999999999997 0.0 1 1 5.328248858251522,5.135149861936003 l -0.7200336294934484 -0.6939391705318929 a 2.6999999999999997 2.6999999999999997 0.0 1 0 -3.888181599264624,-3.747271520872218 z"/><path fill="#b61000" d="M 237.17439822223054,8.2199397772443 l 0.24095213561499393 -0.9705369999863857 a 3.6999999999999997 3.6999999999999997 0.0 1 1 -1.7830458035509555,7.181973799899253 l 0.24095213561499396 -0.9705369999863853 a 2.6999999999999997 2.6999999999999997 0.0 1 0 1.3011415323209676,-5.240899799926482 z"/><path fill="#fd3633" d="M 100.0,100.0 l -85.14306445185207 29.166051768241875 a 90.0 90.0 0.0 0 1 4.3143132211824735,-68.74777702738803 l 80.8287512306696 39.58172525914615 z"/><path fill="#000000" d="M 100.0,100.0 l -80.8287512306696 -39.58172525914615 a 90.0 90.0 0.0 0 1 51.66269946242772,-45.56133919270591 l 29.16605176824188 85.14306445185206 z"/><path fill="#fba296" d="M 100.0,100.0 l -29.16605176824188 -85.14306445185206 a 90.0 90.0 0.0 0 1 68.74777702738803,4.314313221182459 l -39.58172525914614 80.8287512306696 z"/><path fill="#110500" d="M 100.0,100.0 l 39.58172525914614 -80.8287512306696 a 90.0 90.0 0.0 0 1 45.561339192705915,51.66269946242771 l -85.14306445185206 29.166051768241882 z"/><path fill="#d9002f" d="M 100.0,100.0 l 85.14306445185206 -29.166051768241882 a 90.0 90.0 0.0 0 1 -4.314313221182459,68.74777702738804 l -80.8287512306696 -39.581725259146154 z"/><path fill="#000000" d="M 100.0,100.0 l 80.82875123066961 39.58172525914613 a 90.0 90.0 0.0 0 1 -51.66269946242774,45.56133919270594 l -29.166051768241868 -85.14306445185207 z"/><path fill="#ffffff" d="M 100.0,100.0 l 29.16605176824189 85.14306445185206 a 90.0 90.0 0.0 0 1 -68.74777702738811,-4.314313221182502 l 39.581725259146225 -80.82875123066955 z"/><path fill="#ce0a5b" d="M 100.0,100.0 l -39.581725259146225 80.82875123066955 a 90.0 90.0 0.0 0 1 -45.56133919270587,-51.66269946242775 l 85.1430644518521 -29.1660517682418 z"/><path fill="#000000" d="M 99.88787794650115,189.99993015911247 l -0.01245800594431549 9.999992239901385 a 100.0 100.0 0.0 0 1 -86.54018314429686,-50.10785069578958 l 8.666476320374002 -4.989207170322423 a 90.0 90.0 0.0 0 0 77.88616482986717,45.09706562621062 z"/><path fill="#000000" d="M 22.001713116633994,144.90286453290184 l -8.666476320374 4.989207170322428 a 100.0 100.0 0.0 0 1 0.12458005944298911,-99.99992239901377 l 8.654018314429692 5.010785069578958 a 90.0 90.0 0.0 0 0 -0.11212205349868043,89.99993015911238 z"/><path fill="#6f0024" d="M 22.11383517013273,54.9029343737894 l -8.654018314429697 -5.010785069578956 a 100.0 100.0 0.0 0 1 86.66476320374005,-49.89207170322428 l -0.012458005944310457 9.999992239901388 a 90.0 90.0 0.0 0 0 -77.99828688336605,44.90286453290185 z"/><path fill="#ff558a" d="M 100.11212205349878,10.000069840887548 l 0.012458005944307833 -9.999992239901385 a 100.0 100.0 0.0 0 1 86.54018314429693,50.107850695789566 l -8.666476320374002 4.98920717032243 a 90.0 90.0 0.0 0 0 -77.88616482986724,-45.097065626210615 z"/><path fill="#a10016" d="M 177.998286883366,55.09713546709817 l 8.666476320374002 -4.989207170322427 a 100.0 100.0 0.0 0 1 -0.12458005944309036,99.99992239901391 l -8.654018314429692 -5.010785069578972 a 90.0 90.0 0.0 0 0 0.1121220534987799,-89.99993015911251 z"/><path fill="#2b040d" d="M 177.88616482986725,145.09706562621068 l 8.654018314429694 5.0107850695789615 a 100.0 100.0 0.0 0 1 -86.66476320374011,49.89207170322423 l 0.012458005944310457 -9.999992239901388 a 90.0 90.0 0.0 0 0 77.9982868833661,-44.9028645329018 z"/><path fill="#000000" d="M -33.46373533375963,176.83379042296536 l -8.666476320374002 4.989207170322426 a 37.0 37.0 0.0 1 1 64.13192477076761,-36.92013306038595 l -8.666476320374002 4.989207170322427 a 27.0 27.0 0.0 1 0 -46.79897213001961,26.9417187197411 z"/><path fill="#000000" d="M -33.27188204221742,22.83390992848419 l -8.654018314429702 -5.010785069578948 a 37.0 37.0 0.0 1 1 64.0397355267798,37.079809514884225 l -8.654018314429699 -5.010785069578951 a 27.0 27.0 0.0 1 0 -46.731698897920396,-27.058239375726323 z"/><path fill="#6f0024" d="M 100.19185329154236,-53.99988049448131 l 0.012458005944307833 -9.999992239901385 a 37.0 37.0 0.0 1 1 -0.09218924398788249,73.99994257527024 l 0.012458005944309056 -9.999992239901381 a 27.0 27.0 0.0 1 0 0.0672732320992656,-53.99995809546748 z"/><path fill="#ff558a" d="M 233.46373533375962,23.166209577034635 l 8.666476320374002 -4.989207170322427 a 37.0 37.0 0.0 1 1 -64.13192477076761,36.92013306038595 l 8.666476320374002 -4.989207170322427 a 27.0 27.0 0.0 1 0 46.79897213001961,-26.9417187197411 z"/><path fill="#a10016" d="M 233.27188204221727,177.16609007151604 l 8.654018314429692 5.010785069578963 a 37.0 37.0 0.0 1 1 -64.03973552677974,-37.079809514884325 l 8.654018314429699 5.010785069578958 a 27.0 27.0 0.0 1 0 46.73169889792034,27.0582393757264 z"/><path fill="#2b040d" d="M 99.80814670845751,253.99988049448135 l -0.012458005944317938 9.999992239901385 a 37.0 37.0 0.0 1 1 0.09218924398794821,-73.99994257527024 l -0.012458005944316716 9.999992239901381 a 27.0 27.0 0.0 1 0 -0.06727323209931356,53.99995809546748 z"/><path fill="#ff1d15" d="M 233.27188204221727,177.16609007151604 l 8.480404637173383 -3.0137579846112708 a 9.0 9.0 0.0 0 1 -0.35280430324850975,6.879260902988682 l -8.127600333924873 -3.8655029183774117 z"/><path fill="#210e02" d="M 233.27188204221727,177.16609007151604 l 8.127600333924875 3.86550291837741 a 9.0 9.0 0.0 0 1 -5.113842349313613,4.614901718795976 l -3.013757984611262 -8.480404637173386 z"/><path fill="#c73200" d="M 233.27188204221727,177.16609007151604 l 3.0137579846112637 8.480404637173386 a 9.0 9.0 0.0 0 1 -6.879260902988674,-0.35280430324851153 l 3.8655029183774112 -8.127600333924875 z"/><path fill="#fa1133" d="M 233.27188204221727,177.16609007151604 l -3.865502918377409 8.127600333924875 a 9.0 9.0 0.0 0 1 -4.614901718795972,-5.113842349313598 l 8.48040463717338 -3.013757984611277 z"/><path fill="#a40900" d="M 233.27188204221727,177.16609007151604 l -8.480404637173379 3.013757984611279 a 9.0 9.0 0.0 0 1 0.3528043032485044,-6.87926090298869 l 8.127600333924875 3.865502918377411 z"/><path fill="#6b0006" d="M 233.27188204221727,177.16609007151604 l -8.127600333924875 -3.8655029183774086 a 9.0 9.0 0.0 0 1 5.113842349313612,-4.614901718795977 l 3.0137579846112628 8.480404637173386 z"/><path fill="#ff0a0c" d="M 233.27188204221727,177.16609007151604 l -3.0137579846112645 -8.480404637173384 a 9.0 9.0 0.0 0 1 6.879260902988674,0.35280430324850975 l -3.8655029183774103 8.127600333924875 z"/><path fill="#000000" d="M 233.27188204221727,177.16609007151604 l 3.8655029183774103 -8.127600333924875 a 9.0 9.0 0.0 0 1 4.614901718795972,5.113842349313604 l -8.480404637173383 3.0137579846112708 z"/><path fill="#fd3633" d="M 100.0,100.0 l -85.14306445185207 29.166051768241875 a 90.0 90.0 0.0 0 1 4.3143132211824735,-68.74777702738803 l 80.8287512306696 39.58172525914615 z"/><path fill="#000000" d="M 100.0,100.0 l -80.8287512306696 -39.58172525914615 a 90.0 90.0 0.0 0 1 51.66269946242772,-45.56133919270591 l 29.16605176824188 85.14306445185206 z"/><path fill="#fba296" d="M 100.0,100.0 l -29.16605176824188 -85.14306445185206 a 90.0 90.0 0.0 0 1 68.74777702738803,4.314313221182459 l -39.58172525914614 80.8287512306696 z"/><path fill="#110500" d="M 100.0,100.0 l 39.58172525914614 -80.8287512306696 a 90.0 90.0 0.0 0 1 45.561339192705915,51.66269946242771 l -85.14306445185206 29.166051768241882 z"/><path fill="#d9002f" d="M 100.0,100.0 l 85.14306445185206 -29.166051768241882 a 90.0 90.0 0.0 0 1 -4.314313221182459,68.74777702738804 l -80.8287512306696 -39.581725259146154 z"/><path fill="#000000" d="M 100.0,100.0 l 80.82875123066961 39.58172525914613 a 90.0 90.0 0.0 0 1 -51.66269946242774,45.56133919270594 l -29.166051768241868 -85.14306445185207 z"/><path fill="#ffffff" d="M 100.0,100.0 l 29.16605176824189 85.14306445185206 a 90.0 90.0 0.0 0 1 -68.74777702738811,-4.314313221182502 l 39.581725259146225 -80.82875123066955 z"/><path fill="#ce0a5b" d="M 100.0,100.0 l -39.581725259146225 80.82875123066955 a 90.0 90.0 0.0 0 1 -45.56133919270587,-51.66269946242775 l 85.1430644518521 -29.1660517682418 z"/><path fill="#000000" d="M 99.88787794650115,189.99993015911247 l -0.01245800594431549 9.999992239901385 a 100.0 100.0 0.0 0 1 -86.54018314429686,-50.10785069578958 l 8.666476320374002 -4.989207170322423 a 90.0 90.0 0.0 0 0 77.88616482986717,45.09706562621062 z"/><path fill="#000000" d="M 22.001713116633994,144.90286453290184 l -8.666476320374 4.989207170322428 a 100.0 100.0 0.0 0 1 0.12458005944298911,-99.99992239901377 l 8.654018314429692 5.010785069578958 a 90.0 90.0 0.0 0 0 -0.11212205349868043,89.99993015911238 z"/><path fill="#6f0024" d="M 22.11383517013273,54.9029343737894 l -8.654018314429697 -5.010785069578956 a 100.0 100.0 0.0 0 1 86.66476320374005,-49.89207170322428 l -0.012458005944310457 9.999992239901388 a 90.0 90.0 0.0 0 0 -77.99828688336605,44.90286453290185 z"/><path fill="#ff558a" d="M 100.11212205349878,10.000069840887548 l 0.012458005944307833 -9.999992239901385 a 100.0 100.0 0.0 0 1 86.54018314429693,50.107850695789566 l -8.666476320374002 4.98920717032243 a 90.0 90.0 0.0 0 0 -77.88616482986724,-45.097065626210615 z"/><path fill="#a10016" d="M 177.998286883366,55.09713546709817 l 8.666476320374002 -4.989207170322427 a 100.0 100.0 0.0 0 1 -0.12458005944309036,99.99992239901391 l -8.654018314429692 -5.010785069578972 a 90.0 90.0 0.0 0 0 0.1121220534987799,-89.99993015911251 z"/><path fill="#2b040d" d="M 177.88616482986725,145.09706562621068 l 8.654018314429694 5.0107850695789615 a 100.0 100.0 0.0 0 1 -86.66476320374011,49.89207170322423 l 0.012458005944310457 -9.999992239901388 a 90.0 90.0 0.0 0 0 77.9982868833661,-44.9028645329018 z"/><path fill="#000000" d="M -33.46373533375963,176.83379042296536 l -8.666476320374002 4.989207170322426 a 37.0 37.0 0.0 1 1 64.13192477076761,-36.92013306038595 l -8.666476320374002 4.989207170322427 a 27.0 27.0 0.0 1 0 -46.79897213001961,26.9417187197411 z"/><path fill="#000000" d="M -33.27188204221742,22.83390992848419 l -8.654018314429702 -5.010785069578948 a 37.0 37.0 0.0 1 1 64.0397355267798,37.079809514884225 l -8.654018314429699 -5.010785069578951 a 27.0 27.0 0.0 1 0 -46.731698897920396,-27.058239375726323 z"/><path fill="#6f0024" d="M 100.19185329154236,-53.99988049448131 l 0.012458005944307833 -9.999992239901385 a 37.0 37.0 0.0 1 1 -0.09218924398788249,73.99994257527024 l 0.012458005944309056 -9.999992239901381 a 27.0 27.0 0.0 1 0 0.0672732320992656,-53.99995809546748 z"/><path fill="#ff558a" d="M 233.46373533375962,23.166209577034635 l 8.666476320374002 -4.989207170322427 a 37.0 37.0 0.0 1 1 -64.13192477076761,36.92013306038595 l 8.666476320374002 -4.989207170322427 a 27.0 27.0 0.0 1 0 46.79897213001961,-26.9417187197411 z"/><path fill="#a10016" d="M 233.27188204221727,177.16609007151604 l 8.654018314429692 5.010785069578963 a 37.0 37.0 0.0 1 1 -64.03973552677974,-37.079809514884325 l 8.654018314429699 5.010785069578958 a 27.0 27.0 0.0 1 0 46.73169889792034,27.0582393757264 z"/><path fill="#2b040d" d="M 99.80814670845751,253.99988049448135 l -0.012458005944317938 9.999992239901385 a 37.0 37.0 0.0 1 1 0.09218924398794821,-73.99994257527024 l -0.012458005944316716 9.999992239901381 a 27.0 27.0 0.0 1 0 -0.06727323209931356,53.99995809546748 z"/><path fill="#ff5c01" d="M 224.29439051945093,176.52997219041325 l -0.9974990580851477 -0.07067976456697551 a 10.0 10.0 0.0 0 1 5.599600006910775,-8.285196422692994 l 0.43753905739407006 0.8991994068362752 a 9.0 9.0 0.0 0 0 -5.039640006219697,7.456676780423694 z"/><path fill="#fd6828" d="M 229.33403052567064,169.07329540998956 l -0.4375390573940701 -0.8991994068362749 a 10.0 10.0 0.0 0 1 9.974990580851475,0.706797645669751 l -0.5599600006910777 0.8285196422692991 a 9.0 9.0 0.0 0 0 -8.977491522766327,-0.6361178811027752 z"/><path fill="#ff2e3e" d="M 238.31152204843696,169.70941329109235 l 0.5599600006910773 -0.8285196422692999 a 10.0 10.0 0.0 0 1 4.375390573940703,8.991994068362754 l -0.9974990580851486 -0.07067976456697522 a 9.0 9.0 0.0 0 0 -3.9378515165466323,-8.09279466152648 z"/><path fill="#ffffff" d="M 242.2493735649836,177.80220795261883 l 0.9974990580851477 0.07067976456697539 a 10.0 10.0 0.0 0 1 -5.599600006910768,8.28519642269299 l -0.43753905739407095 -0.8991994068362743 a 9.0 9.0 0.0 0 0 5.039640006219691,-7.456676780423692 z"/><path fill="#feb4c1" d="M 237.2097335587639,185.25888473304252 l 0.43753905739407106 0.8991994068362744 a 10.0 10.0 0.0 0 1 -9.974990580851484,-0.706797645669747 l 0.5599600006910777 -0.8285196422692991 a 9.0 9.0 0.0 0 0 8.977491522766336,0.6361178811027717 z"/><path fill="#b70a10" d="M 228.2322420359976,184.62276685193973 l -0.5599600006910774 0.8285196422692999 a 10.0 10.0 0.0 0 1 -4.375390573940702,-8.991994068362754 l 0.9974990580851486 0.07067976456697522 a 9.0 9.0 0.0 0 0 3.9378515165466315,8.09279466152648 z"/><path fill="#ff5c01" d="M 226.53378055834858,163.3184192062374 l -0.4375390573940701 -0.8991994068362749 a 3.6999999999999997 3.6999999999999997 0.0 1 1 3.2377890247161183,6.654075610588435 l -0.43753905739407006 -0.8991994068362761 a 2.6999999999999997 2.6999999999999997 0.0 1 0 -2.362710909927978,-4.855676796915883 z"/><path fill="#fd6828" d="M 241.89526605285985,164.40688758056882 l 0.5599600006910773 -0.8285196422692999 a 3.6999999999999997 3.6999999999999997 0.0 1 1 -4.143704005113973,6.131045352792818 l 0.5599600006910777 -0.8285196422693 a 2.6999999999999997 2.6999999999999997 0.0 1 0 3.0237840037318175,-4.474006068254218 z"/><path fill="#ff2e3e" d="M 248.63336753672854,178.25455844584747 l 0.9974990580851477 0.07067976456697563 a 3.6999999999999997 3.6999999999999997 0.0 1 1 -7.381493029830093,-0.5230302577956192 l 0.9974990580851477 0.07067976456697544 a 2.6999999999999997 2.6999999999999997 0.0 1 0 5.3864949136597975,0.38167072866166807 z"/><path fill="#ffffff" d="M 240.009983526086,191.01376093679468 l 0.43753905739407084 0.8991994068362745 a 3.6999999999999997 3.6999999999999997 0.0 1 1 -3.2377890247161245,-6.65407561058843 l 0.43753905739407095 0.8991994068362743 a 2.6999999999999997 2.6999999999999997 0.0 1 0 2.3627109099279826,4.855676796915882 z"/><path fill="#feb4c1" d="M 224.64849803157466,189.92529256246326 l -0.5599600006910774 0.8285196422692999 a 3.6999999999999997 3.6999999999999997 0.0 1 1 4.143704005113973,-6.131045352792818 l -0.5599600006910777 0.8285196422693 a 2.6999999999999997 2.6999999999999997 0.0 1 0 -3.0237840037318175,4.474006068254218 z"/><path fill="#b70a10" d="M 217.910396547706,176.0776216971846 l -0.9974990580851477 -0.07067976456697551 a 3.6999999999999997 3.6999999999999997 0.0 1 1 7.381493029830093,0.5230302577956192 l -0.9974990580851477 -0.07067976456697561 a 2.6999999999999997 2.6999999999999997 0.0 1 0 -5.3864949136597975,-0.38167072866166807 z"/><path fill="#fd3633" d="M 100.0,100.0 l -85.14306445185207 29.166051768241875 a 90.0 90.0 0.0 0 1 4.3143132211824735,-68.74777702738803 l 80.8287512306696 39.58172525914615 z"/><path fill="#000000" d="M 100.0,100.0 l -80.8287512306696 -39.58172525914615 a 90.0 90.0 0.0 0 1 51.66269946242772,-45.56133919270591 l 29.16605176824188 85.14306445185206 z"/><path fill="#fba296" d="M 100.0,100.0 l -29.16605176824188 -85.14306445185206 a 90.0 90.0 0.0 0 1 68.74777702738803,4.314313221182459 l -39.58172525914614 80.8287512306696 z"/><path fill="#110500" d="M 100.0,100.0 l 39.58172525914614 -80.8287512306696 a 90.0 90.0 0.0 0 1 45.561339192705915,51.66269946242771 l -85.14306445185206 29.166051768241882 z"/><path fill="#d9002f" d="M 100.0,100.0 l 85.14306445185206 -29.166051768241882 a 90.0 90.0 0.0 0 1 -4.314313221182459,68.74777702738804 l -80.8287512306696 -39.581725259146154 z"/><path fill="#000000" d="M 100.0,100.0 l 80.82875123066961 39.58172525914613 a 90.0 90.0 0.0 0 1 -51.66269946242774,45.56133919270594 l -29.166051768241868 -85.14306445185207 z"/><path fill="#ffffff" d="M 100.0,100.0 l 29.16605176824189 85.14306445185206 a 90.0 90.0 0.0 0 1 -68.74777702738811,-4.314313221182502 l 39.581725259146225 -80.82875123066955 z"/><path fill="#ce0a5b" d="M 100.0,100.0 l -39.581725259146225 80.82875123066955 a 90.0 90.0 0.0 0 1 -45.56133919270587,-51.66269946242775 l 85.1430644518521 -29.1660517682418 z"/><path fill="#000000" d="M 99.88787794650115,189.99993015911247 l -0.01245800594431549 9.999992239901385 a 100.0 100.0 0.0 0 1 -86.54018314429686,-50.10785069578958 l 8.666476320374002 -4.989207170322423 a 90.0 90.0 0.0 0 0 77.88616482986717,45.09706562621062 z"/><path fill="#000000" d="M 22.001713116633994,144.90286453290184 l -8.666476320374 4.989207170322428 a 100.0 100.0 0.0 0 1 0.12458005944298911,-99.99992239901377 l 8.654018314429692 5.010785069578958 a 90.0 90.0 0.0 0 0 -0.11212205349868043,89.99993015911238 z"/><path fill="#6f0024" d="M 22.11383517013273,54.9029343737894 l -8.654018314429697 -5.010785069578956 a 100.0 100.0 0.0 0 1 86.66476320374005,-49.89207170322428 l -0.012458005944310457 9.999992239901388 a 90.0 90.0 0.0 0 0 -77.99828688336605,44.90286453290185 z"/><path fill="#ff558a" d="M 100.11212205349878,10.000069840887548 l 0.012458005944307833 -9.999992239901385 a 100.0 100.0 0.0 0 1 86.54018314429693,50.107850695789566 l -8.666476320374002 4.98920717032243 a 90.0 90.0 0.0 0 0 -77.88616482986724,-45.097065626210615 z"/><path fill="#a10016" d="M 177.998286883366,55.09713546709817 l 8.666476320374002 -4.989207170322427 a 100.0 100.0 0.0 0 1 -0.12458005944309036,99.99992239901391 l -8.654018314429692 -5.010785069578972 a 90.0 90.0 0.0 0 0 0.1121220534987799,-89.99993015911251 z"/><path fill="#2b040d" d="M 177.88616482986725,145.09706562621068 l 8.654018314429694 5.0107850695789615 a 100.0 100.0 0.0 0 1 -86.66476320374011,49.89207170322423 l 0.012458005944310457 -9.999992239901388 a 90.0 90.0 0.0 0 0 77.9982868833661,-44.9028645329018 z"/><path fill="#000000" d="M -33.46373533375963,176.83379042296536 l -8.666476320374002 4.989207170322426 a 37.0 37.0 0.0 1 1 64.13192477076761,-36.92013306038595 l -8.666476320374002 4.989207170322427 a 27.0 27.0 0.0 1 0 -46.79897213001961,26.9417187197411 z"/><path fill="#000000" d="M -33.27188204221742,22.83390992848419 l -8.654018314429702 -5.010785069578948 a 37.0 37.0 0.0 1 1 64.0397355267798,37.079809514884225 l -8.654018314429699 -5.010785069578951 a 27.0 27.0 0.0 1 0 -46.731698897920396,-27.058239375726323 z"/><path fill="#6f0024" d="M 100.19185329154236,-53.99988049448131 l 0.012458005944307833 -9.999992239901385 a 37.0 37.0 0.0 1 1 -0.09218924398788249,73.99994257527024 l 0.012458005944309056 -9.999992239901381 a 27.0 27.0 0.0 1 0 0.0672732320992656,-53.99995809546748 z"/><path fill="#ff558a" d="M 233.46373533375962,23.166209577034635 l 8.666476320374002 -4.989207170322427 a 37.0 37.0 0.0 1 1 -64.13192477076761,36.92013306038595 l 8.666476320374002 -4.989207170322427 a 27.0 27.0 0.0 1 0 46.79897213001961,-26.9417187197411 z"/><path fill="#a10016" d="M 233.27188204221727,177.16609007151604 l 8.654018314429692 5.010785069578963 a 37.0 37.0 0.0 1 1 -64.03973552677974,-37.079809514884325 l 8.654018314429699 5.010785069578958 a 27.0 27.0 0.0 1 0 46.73169889792034,27.0582393757264 z"/><path fill="#2b040d" d="M 99.80814670845751,253.99988049448135 l -0.012458005944317938 9.999992239901385 a 37.0 37.0 0.0 1 1 0.09218924398794821,-73.99994257527024 l -0.012458005944316716 9.999992239901381 a 27.0 27.0 0.0 1 0 -0.06727323209931356,53.99995809546748 z"/><path fill="#8f0a05" d="M 99.80814670845751,253.99988049448135 l 4.261546393732202 -7.927119422215617 a 9.0 9.0 0.0 0 1 4.357141858341167,5.335167876840492 l -8.618688252073369 2.591951545375126 z"/><path fill="#f20035" d="M 99.80814670845751,253.99988049448135 l 8.618688252073369 -2.591951545375126 a 9.0 9.0 0.0 0 1 -0.691568829857756,6.853497939107337 l -7.927119422215613 -4.2615463937322104 z"/><path fill="#56050b" d="M 99.80814670845751,253.99988049448135 l 7.927119422215615 4.261546393732209 a 9.0 9.0 0.0 0 1 -5.335167876840491,4.35714185834116 l -2.5919515453751236 -8.618688252073369 z"/><path fill="#982206" d="M 99.80814670845751,253.99988049448135 l 2.5919515453751263 8.618688252073369 a 9.0 9.0 0.0 0 1 -6.853497939107336,-0.691568829857756 l 4.26154639373221 -7.927119422215613 z"/><path fill="#000000" d="M 99.80814670845751,253.99988049448135 l -4.261546393732206 7.927119422215616 a 9.0 9.0 0.0 0 1 -4.357141858341161,-5.335167876840483 l 8.618688252073367 -2.5919515453751325 z"/><path fill="#000000" d="M 99.80814670845751,253.99988049448135 l -8.618688252073367 2.5919515453751325 a 9.0 9.0 0.0 0 1 0.6915688298577498,-6.853497939107335 l 7.927119422215617 4.2615463937322025 z"/><path fill="#ffffff" d="M 99.80814670845751,253.99988049448135 l -7.927119422215617 -4.2615463937322025 a 9.0 9.0 0.0 0 1 5.335167876840485,-4.357141858341165 l 2.591951545375133 8.618688252073367 z"/><path fill="#6a0601" d="M 99.80814670845751,253.99988049448135 l -2.591951545375133 -8.618688252073367 a 9.0 9.0 0.0 0 1 6.853497939107335,0.6915688298577498 l -4.261546393732202 7.927119422215617 z"/><path fill="#fd3633" d="M 100.0,100.0 l -85.14306445185207 29.166051768241875 a 90.0 90.0 0.0 0 1 4.3143132211824735,-68.74777702738803 l 80.8287512306696 39.58172525914615 z"/><path fill="#000000" d="M 100.0,100.0 l -80.8287512306696 -39.58172525914615 a 90.0 90.0 0.0 0 1 51.66269946242772,-45.56133919270591 l 29.16605176824188 85.14306445185206 z"/><path fill="#fba296" d="M 100.0,100.0 l -29.16605176824188 -85.14306445185206 a 90.0 90.0 0.0 0 1 68.74777702738803,4.314313221182459 l -39.58172525914614 80.8287512306696 z"/><path fill="#110500" d="M 100.0,100.0 l 39.58172525914614 -80.8287512306696 a 90.0 90.0 0.0 0 1 45.561339192705915,51.66269946242771 l -85.14306445185206 29.166051768241882 z"/><path fill="#d9002f" d="M 100.0,100.0 l 85.14306445185206 -29.166051768241882 a 90.0 90.0 0.0 0 1 -4.314313221182459,68.74777702738804 l -80.8287512306696 -39.581725259146154 z"/><path fill="#000000" d="M 100.0,100.0 l 80.82875123066961 39.58172525914613 a 90.0 90.0 0.0 0 1 -51.66269946242774,45.56133919270594 l -29.166051768241868 -85.14306445185207 z"/><path fill="#ffffff" d="M 100.0,100.0 l 29.16605176824189 85.14306445185206 a 90.0 90.0 0.0 0 1 -68.74777702738811,-4.314313221182502 l 39.581725259146225 -80.82875123066955 z"/><path fill="#ce0a5b" d="M 100.0,100.0 l -39.581725259146225 80.82875123066955 a 90.0 90.0 0.0 0 1 -45.56133919270587,-51.66269946242775 l 85.1430644518521 -29.1660517682418 z"/><path fill="#000000" d="M 99.88787794650115,189.99993015911247 l -0.01245800594431549 9.999992239901385 a 100.0 100.0 0.0 0 1 -86.54018314429686,-50.10785069578958 l 8.666476320374002 -4.989207170322423 a 90.0 90.0 0.0 0 0 77.88616482986717,45.09706562621062 z"/><path fill="#000000" d="M 22.001713116633994,144.90286453290184 l -8.666476320374 4.989207170322428 a 100.0 100.0 0.0 0 1 0.12458005944298911,-99.99992239901377 l 8.654018314429692 5.010785069578958 a 90.0 90.0 0.0 0 0 -0.11212205349868043,89.99993015911238 z"/><path fill="#6f0024" d="M 22.11383517013273,54.9029343737894 l -8.654018314429697 -5.010785069578956 a 100.0 100.0 0.0 0 1 86.66476320374005,-49.89207170322428 l -0.012458005944310457 9.999992239901388 a 90.0 90.0 0.0 0 0 -77.99828688336605,44.90286453290185 z"/><path fill="#ff558a" d="M 100.11212205349878,10.000069840887548 l 0.012458005944307833 -9.999992239901385 a 100.0 100.0 0.0 0 1 86.54018314429693,50.107850695789566 l -8.666476320374002 4.98920717032243 a 90.0 90.0 0.0 0 0 -77.88616482986724,-45.097065626210615 z"/><path fill="#a10016" d="M 177.998286883366,55.09713546709817 l 8.666476320374002 -4.989207170322427 a 100.0 100.0 0.0 0 1 -0.12458005944309036,99.99992239901391 l -8.654018314429692 -5.010785069578972 a 90.0 90.0 0.0 0 0 0.1121220534987799,-89.99993015911251 z"/><path fill="#2b040d" d="M 177.88616482986725,145.09706562621068 l 8.654018314429694 5.0107850695789615 a 100.0 100.0 0.0 0 1 -86.66476320374011,49.89207170322423 l 0.012458005944310457 -9.999992239901388 a 90.0 90.0 0.0 0 0 77.9982868833661,-44.9028645329018 z"/><path fill="#000000" d="M -33.46373533375963,176.83379042296536 l -8.666476320374002 4.989207170322426 a 37.0 37.0 0.0 1 1 64.13192477076761,-36.92013306038595 l -8.666476320374002 4.989207170322427 a 27.0 27.0 0.0 1 0 -46.79897213001961,26.9417187197411 z"/><path fill="#000000" d="M -33.27188204221742,22.83390992848419 l -8.654018314429702 -5.010785069578948 a 37.0 37.0 0.0 1 1 64.0397355267798,37.079809514884225 l -8.654018314429699 -5.010785069578951 a 27.0 27.0 0.0 1 0 -46.731698897920396,-27.058239375726323 z"/><path fill="#6f0024" d="M 100.19185329154236,-53.99988049448131 l 0.012458005944307833 -9.999992239901385 a 37.0 37.0 0.0 1 1 -0.09218924398788249,73.99994257527024 l 0.012458005944309056 -9.999992239901381 a 27.0 27.0 0.0 1 0 0.0672732320992656,-53.99995809546748 z"/><path fill="#ff558a" d="M 233.46373533375962,23.166209577034635 l 8.666476320374002 -4.989207170322427 a 37.0 37.0 0.0 1 1 -64.13192477076761,36.92013306038595 l 8.666476320374002 -4.989207170322427 a 27.0 27.0 0.0 1 0 46.79897213001961,-26.9417187197411 z"/><path fill="#a10016" d="M 233.27188204221727,177.16609007151604 l 8.654018314429692 5.010785069578963 a 37.0 37.0 0.0 1 1 -64.03973552677974,-37.079809514884325 l 8.654018314429699 5.010785069578958 a 27.0 27.0 0.0 1 0 46.73169889792034,27.0582393757264 z"/><path fill="#2b040d" d="M 99.80814670845751,253.99988049448135 l -0.012458005944317938 9.999992239901385 a 37.0 37.0 0.0 1 1 0.09218924398794821,-73.99994257527024 l -0.012458005944316716 9.999992239901381 a 27.0 27.0 0.0 1 0 -0.06727323209931356,53.99995809546748 z"/><path fill="#ff2d0a" d="M 107.85592094464799,249.97081982934998 l 0.8941971373544984 -0.4476734072368164 a 10.0 10.0 0.0 0 1 -0.5940202541143023,9.982341405587274 l -0.8347951119430679 -0.5505607333219107 a 9.0 9.0 0.0 0 0 0.5346182287028718,-8.984107265028547 z"/><path fill="#090003" d="M 107.32130271594512,258.95492709437855 l 0.8347951119430682 0.5505607333219108 a 10.0 10.0 0.0 0 1 -8.941971373544975,4.476734072368161 l 0.059402025411429804 -0.9982341405587274 a 9.0 9.0 0.0 0 0 8.047774236190477,-4.029060665131344 z"/><path fill="#fe8ea8" d="M 99.27352847975465,262.9839877595099 l -0.05940202541142933 0.9982341405587268 a 10.0 10.0 0.0 0 1 -8.34795111943069,-5.505607333219104 l 0.8941971373544986 -0.4476734072368167 a 9.0 9.0 0.0 0 0 7.513156007487621,4.955046599897194 z"/><path fill="#930000" d="M 91.76037247226702,258.0289411596127 l -0.8941971373544984 0.4476734072368163 a 10.0 10.0 0.0 0 1 0.5940202541142987,-9.982341405587269 l 0.8347951119430679 0.5505607333219107 a 9.0 9.0 0.0 0 0 -0.5346182287028682,8.984107265028541 z"/><path fill="#2f0008" d="M 92.29499070096989,249.04483389458414 l -0.8347951119430684 -0.5505607333219105 a 10.0 10.0 0.0 0 1 8.941971373544986,-4.476734072368162 l -0.059402025411429804 0.9982341405587256 a 9.0 9.0 0.0 0 0 -8.047774236190488,4.029060665131347 z"/><path fill="#fa394d" d="M 100.34276493716038,245.0157732294528 l 0.059402025411430096 -0.9982341405587267 a 10.0 10.0 0.0 0 1 8.347951119430682,5.505607333219103 l -0.8941971373544986 0.4476734072368167 a 9.0 9.0 0.0 0 0 -7.513156007487614,-4.9550465998971935 z"/><path fill="#ff2d0a" d="M 112.66399143238075,262.47851578763874 l 0.8347951119430681 0.550560733321911 a 3.6999999999999997 3.6999999999999997 0.0 1 1 -6.177483828378703,-4.0741494265821405 l 0.8347951119430679 0.5505607333219107 a 2.6999999999999997 2.6999999999999997 0.0 1 0 4.507893604492567,2.973027959938319 z"/><path fill="#090003" d="M 98.8933555171215,269.37268625908575 l -0.05940202541142933 0.9982341405587268 a 3.6999999999999997 3.6999999999999997 0.0 1 1 0.4395749880445766,-7.386932640134577 l -0.05940202541142925 0.9982341405587265 a 2.6999999999999997 2.6999999999999997 0.0 1 0 -0.320770937221718,5.390464359017124 z"/><path fill="#fe8ea8" d="M 86.03751079319824,260.89405096592833 l -0.8941971373544984 0.4476734072368163 a 3.6999999999999997 3.6999999999999997 0.0 1 1 6.617058816423287,-3.3127832135524407 l -0.8941971373544977 0.44767340723681626 a 2.6999999999999997 2.6999999999999997 0.0 1 0 -4.828664541714291,2.417436399078808 z"/><path fill="#930000" d="M 86.95230198453424,245.52124520132395 l -0.8347951119430687 -0.5505607333219101 a 3.6999999999999997 3.6999999999999997 0.0 1 1 6.1774838283787075,4.074149426582134 l -0.8347951119430688 -0.5505607333219098 a 2.6999999999999997 2.6999999999999997 0.0 1 0 -4.50789360449257,-2.9730279599383147 z"/><path fill="#2f0008" d="M 100.72293789979354,238.62707472987694 l 0.059402025411430096 -0.9982341405587267 a 3.6999999999999997 3.6999999999999997 0.0 1 1 -0.4395749880445831,7.386932640134577 l 0.05940202541143025 -0.9982341405587265 a 2.6999999999999997 2.6999999999999997 0.0 1 0 0.3207709372217228,-5.390464359017124 z"/><path fill="#fa394d" d="M 113.57878262371678,247.10571002303436 l 0.8941971373544979 -0.44767340723681726 a 3.6999999999999997 3.6999999999999997 0.0 1 1 -6.617058816423284,3.312783213552447 l 0.8941971373544977 -0.44767340723681714 a 2.6999999999999997 2.6999999999999997 0.0 1 0 4.828664541714288,-2.4174363990788126 z"/><circle fill="#ff4148" r="1.0" cx="-29.199086246811" cy="191.63151890287702"/><circle fill="#a30032" r="1.0" cx="-44.14661957219329" cy="187.9259491104448"/><circle fill="#000000" r="1.0" cx="-48.41126865914191" cy="173.12822063053318"/><circle fill="#ac1701" r="1.0" cx="-37.72838442070825" cy="162.0360619430537"/><circle fill="#000000" r="1.0" cx="-22.78085109532596" cy="165.74163173548595"/><circle fill="#ed2c00" r="1.0" cx="-18.516202008377345" cy="180.53936021539758"/><circle fill="#ff2d28" r="1.0" cx="-44.42460074314591" cy="33.453555194591715"/><circle fill="#080100" r="1.0" cx="-48.04512397230993" cy="18.485194845272098"/><circle fill="#1f0600" r="1.0" cx="-36.89240527138145" cy="7.8655495791645755"/><circle fill="#d32810" r="1.0" cx="-22.11916334128894" cy="12.214264662376658"/><circle fill="#110003" r="1.0" cx="-18.498640112124907" cy="27.182625011696285"/><circle fill="#c7160c" r="1.0" cx="-29.651358813053406" cy="37.802270277803814"/><circle fill="#ff6a4d" r="1.0" cx="96.42066602525011" cy="-68.93099386899411"/><circle fill="#ffffff" r="1.0" cx="111.23698314750992" cy="-64.7313811567752"/><circle fill="#85042d" r="1.0" cx="115.00817041380216" cy="-49.80026778226238"/><circle fill="#000000" r="1.0" cx="103.96304055783462" cy="-39.0687671199685"/><circle fill="#ff4120" r="1.0" cx="89.14672343557478" cy="-43.268379832187435"/><circle fill="#ff0e6b" r="1.0" cx="85.37553616928255" cy="-58.19949320670023"/><circle fill="#ff7270" r="1.0" cx="248.26291611642966" cy="18.906603003435443"/><circle fill="#c91f11" r="1.0" cx="244.55225322795874" cy="33.85287280322578"/><circle fill="#83022a" r="1.0" cx="229.75307244528872" cy="38.11247937682497"/><circle fill="#090003" r="1.0" cx="218.66455455108957" cy="27.425816150633835"/><circle fill="#000000" r="1.0" cx="222.3752174395605" cy="12.479546350843496"/><circle fill="#b61000" r="1.0" cx="237.17439822223054" cy="8.2199397772443"/><circle fill="#ff5c01" r="1.0" cx="226.53378055834858" cy="163.3184192062374"/><circle fill="#fd6828" r="1.0" cx="241.89526605285985" cy="164.40688758056882"/><circle fill="#ff2e3e" r="1.0" cx="248.63336753672854" cy="178.25455844584747"/><circle fill="#ffffff" r="1.0" cx="240.009983526086" cy="191.01376093679468"/><circle fill="#feb4c1" r="1.0" cx="224.64849803157466" cy="189.92529256246326"/><circle fill="#b70a10" r="1.0" cx="217.910396547706" cy="176.0776216971846"/><circle fill="#ff2d0a" r="1.0" cx="112.66399143238075" cy="262.47851578763874"/><circle fill="#090003" r="1.0" cx="98.8933555171215" cy="269.37268625908575"/><circle fill="#fe8ea8" r="1.0" cx="86.03751079319824" cy="260.89405096592833"/><circle fill="#930000" r="1.0" cx="86.95230198453424" cy="245.52124520132395"/><circle fill="#2f0008" r="1.0" cx="100.72293789979354" cy="238.62707472987694"/><circle fill="#fa394d" r="1.0" cx="113.57878262371678" cy="247.10571002303436"/></g></svg>