<?xml version='1.0' encoding='UTF-8'?>
<svg xmlns="http://www.w3.org/2000/svg" xmlns:svg="http://www.w3.org/2000/svg"><g><path fill="#ff0000" d="M 95.53364891256061,29.552020666133927 l 47.7668244562803 14.776010333066978 a 150.0 150.0 0.0 0 1 -11.663089085284973,27.585799791429523 l -43.87912809451865 -23.971276930210152 a 100.0 100.0 0.0 0 0 7.775392723523325,-18.39053319428635 z"/><path fill="#00ff00" d="M 87.75825618903727,47.94255386042029 l 43.879128094518634 23.971276930210152 a 150.0 150.0 0.0 0 1 -16.911056190882633,24.7188222950232 l -38.24210936422442 -32.21088436188455 a 100.0 100.0 0.0 0 0 11.274037460588417,-16.4792148633488 z"/><path fill="#0000ff" d="M 76.48421872844884,64.42176872376912 l 38.242109364224426 32.21088436188455 a 150.0 150.0 0.0 0 1 -21.484832852073602,20.866383358468838 l -31.080498413533228 -39.166345481374165 a 100.0 100.0 0.0 0 0 14.323221901382404,-13.910922238979225 z"/><path fill="#ff0000" d="M 62.16099682706643,78.33269096274836 l 31.080498413533224 39.166345481374165 a 150.0 150.0 0.0 0 1 -25.202077026763046,16.182067565092794 l -22.679806071278875 -44.56036800307176 a 100.0 100.0 0.0 0 0 16.801384684508697,-10.7880450433952 z"/><path fill="#00ff00" d="M 45.35961214255778,89.1207360061435 l 22.679806071278875 44.560368003071765 a 150.0 150.0 0.0 0 1 -27.914593920148526,10.852623803363649 l -13.374941431229367 -48.177909270859644 a 100.0 100.0 0.0 0 0 18.609729280099018,-7.235082535575771 z"/><path fill="#0000ff" d="M 26.74988286245877,96.35581854171929 l 13.374941431229367 48.17790927085965 a 150.0 150.0 0.0 0 1 -29.514244043532663,5.090520178029202 l -3.5368600833851467 -49.874749330202704 a 100.0 100.0 0.0 0 0 19.676162695688443,-3.3936801186861487 z"/></g></svg>