<?xml version='1.0' encoding='UTF-8'?>
<svg viewBox="-1.0658141036401503E-13 -3.126388037344441E-13 200.00000000000028 200.00000000000045" preserveAspectRatio="xMidYMid meet" xmlns="http://www.w3.org/2000/svg" xmlns:svg="http://www.w3.org/2000/svg"><g transform="translate(0.0, 0.0)"><path fill="#5c2d1a" d="M 120.0,100.0 a 20.0 20.0 0.0 1 1 -20.0,-20.0 a 20.0 20.0 0.0 0 1 20.0,20.0 z M 110.0,100.0 a 10.0 10.0 0.0 1 0 -10.0,10.0 a 10.0 10.0 0.0 0 0 10.0,-10.0 z"/><path fill="#86431e" d="M 130.0,100.0 a 30.0 30.0 0.0 1 1 -30.0,-30.0 a 30.0 30.0 0.0 0 1 30.0,30.0 z M 120.0,100.0 a 20.0 20.0 0.0 1 0 -20.0,20.0 a 20.0 20.0 0.0 0 0 20.0,-20.0 z"/><path fill="#652b1d" d="M 140.0,100.0 a 40.0 40.0 0.0 1 1 -40.0,-40.0 a 40.0 40.0 0.0 0 1 40.0,40.0 z M 130.0,100.0 a 30.0 30.0 0.0 1 0 -30.0,30.0 a 30.0 30.0 0.0 0 0 30.0,-30.0 z"/><path fill="#5a2110" d="M 170.0,100.0 a 70.0 70.0 0.0 1 1 -70.0,-70.0 a 70.0 70.0 0.0 0 1 70.0,70.0 z M 160.0,100.0 a 60.0 60.0 0.0 1 0 -60.0,60.0 a 60.0 60.0 0.0 0 0 60.0,-60.0 z"/><path fill="#b4471a" d="M 180.0,100.0 a 80.0 80.0 0.0 1 1 -80.0,-80.0 a 80.0 80.0 0.0 0 1 80.0,80.0 z M 170.0,100.0 a 70.0 70.0 0.0 1 0 -70.0,70.0 a 70.0 70.0 0.0 0 0 70.0,-70.0 z"/><path fill="#662c14" d="M 190.0,100.0 a 90.0 90.0 0.0 1 1 -90.0,-90.0 a 90.0 90.0 0.0 0 1 90.0,90.0 z M 180.0,100.0 a 80.0 80.0 0.0 1 0 -80.0,80.0 a 80.0 80.0 0.0 0 0 80.0,-80.0 z"/><path fill="#c93f2a" d="M 100.0,100.0 l 7.3452269791697145 -6.785841187684644 a 10.0 10.0 0.0 0 1 0.8559099007230362,1.063835081670513 l -8.20113687989275 5.722006106014131 z"/><path fill="#5c2d1a" d="M 100.0,100.0 l 8.20113687989275 -5.722006106014131 a 10.0 10.0 0.0 0 1 1.3771067864477455,2.8484632982229945 l -9.578243666340496 2.8735428077911367 z"/><path fill="#86431e" d="M 100.0,100.0 l 9.578243666340496 -2.8735428077911367 a 10.0 10.0 0.0 0 1 0.1284289774368883,0.46927448113877235 l -9.706672643777384 2.4042683266523643 z"/><path fill="#652b1d" d="M 100.0,100.0 l 9.706672643777384 -2.4042683266523643 a 10.0 10.0 0.0 0 1 -0.12482865257253906,5.265782913057894 l -9.581843991204845 -2.861514586405529 z"/><path fill="#ac3535" d="M 100.0,100.0 l 9.581843991204845 2.861514586405529 a 10.0 10.0 0.0 0 1 -0.43033354235415366,1.1695964892876995 l -9.151510448850692 -4.031111075693229 z"/><path fill="#924814" d="M 100.0,100.0 l 9.151510448850692 4.031111075693229 a 10.0 10.0 0.0 0 1 -0.2926428147356823,0.607904363085729 l -8.85886763411501 -4.639015438778958 z"/><path fill="#5a2110" d="M 100.0,100.0 l 8.85886763411501 4.639015438778958 a 10.0 10.0 0.0 0 1 -5.6853092248293935,4.844049836903403 l -3.173558409285616 -9.48306527568236 z"/><path fill="#b4471a" d="M 100.0,100.0 l 3.173558409285616 9.48306527568236 a 10.0 10.0 0.0 0 1 -0.831125061778665,0.23871470601272904 l -2.342433347506951 -9.72177998169509 z"/><path fill="#662c14" d="M 100.0,100.0 l 2.342433347506951 9.72177998169509 a 10.0 10.0 0.0 0 1 -1.866819540930422,0.2669031901245962 l -0.47561380657652896 -9.988683171819686 z"/><path fill="#853c20" d="M 100.0,100.0 l 0.47561380657652896 9.988683171819686 a 10.0 10.0 0.0 0 1 -2.712128100520866,-0.24199122978198417 l 2.236514293944337 -9.746691942037701 z"/><path fill="#c93f2a" d="M 100.0,100.0 l -2.236514293944337 9.746691942037701 a 10.0 10.0 0.0 0 1 -1.7410512108858542,-0.5717819885403408 l 3.9775655048301912 -9.17490995349736 z"/><path fill="#5c2d1a" d="M 100.0,100.0 l -3.9775655048301912 9.17490995349736 a 10.0 10.0 0.0 0 1 -2.326209338002176,-1.412022428170605 l 6.303774842832367 -7.7628875253267555 z"/><path fill="#86431e" d="M 100.0,100.0 l -6.303774842832367 7.7628875253267555 a 10.0 10.0 0.0 0 1 -0.30749813076009413,-0.2601500470028668 l 6.611272973592461 -7.502737478323889 z"/><path fill="#652b1d" d="M 100.0,100.0 l -6.611272973592461 7.502737478323889 a 10.0 10.0 0.0 0 1 -3.266045127421094,-5.9411398568509455 l 9.877318101013556 -1.5615976214729437 z"/><path fill="#ac3535" d="M 100.0,100.0 l -9.877318101013556 1.5615976214729437 a 10.0 10.0 0.0 0 1 -0.015469275321338571,-0.10120112509638246 l 9.892787376334894 -1.4603964963765612 z"/><path fill="#924814" d="M 100.0,100.0 l -9.892787376334894 1.4603964963765612 a 10.0 10.0 0.0 0 1 0.056693138609151816,-3.263518829047981 l 9.836094237725742 1.8031223326714196 z"/><path fill="#5a2110" d="M 100.0,100.0 l -9.836094237725742 -1.8031223326714196 a 10.0 10.0 0.0 0 1 5.272900710651401,-7.095038423039101 l 4.563193527074342 8.89816075571052 z"/><path fill="#b4471a" d="M 100.0,100.0 l -4.563193527074342 -8.89816075571052 a 10.0 10.0 0.0 0 1 0.5389661599243007,-0.2563787792677754 l 4.024227367150041 9.154539534978296 z"/><path fill="#662c14" d="M 100.0,100.0 l -4.024227367150041 -9.154539534978296 a 10.0 10.0 0.0 0 1 1.6466570048514577,-0.558707047515087 l 2.377570362298583 9.713246582493383 z"/><path fill="#853c20" d="M 100.0,100.0 l -2.377570362298583 -9.713246582493383 a 10.0 10.0 0.0 0 1 2.457512313541392,-0.2864338766228727 l -0.07994195124280898 9.999680459116256 z"/><path fill="#c93f2a" d="M 100.0,100.0 l 0.07994195124280898 -9.999680459116256 a 10.0 10.0 0.0 0 1 7.265285027926895,3.2138392714315973 l -7.345226979169704 6.7858411876846585 z"/><path fill="#c93f2a" d="M 139.30002175646476,107.45038857653721 l 9.825005439116191 1.8625971441343039 a 50.0 50.0 0.0 0 1 -1.7265570999124211,6.605086794241062 l -9.479694019133703 -3.1836145029825156 a 40.0 40.0 0.0 0 0 1.3812456799299326,-5.28406943539285 z"/><path fill="#5c2d1a" d="M 137.91877607653484,112.73445801193006 l 9.479694019133708 3.1836145029825165 a 50.0 50.0 0.0 0 1 -7.345210451027205,14.010782990083689 l -8.010651928928269 -5.985771100999255 a 40.0 40.0 0.0 0 0 5.876168360821765,-11.20862639206695 z"/><path fill="#86431e" d="M 132.04260771571307,123.94308440399702 l 8.010651928928267 5.985771100999254 a 50.0 50.0 0.0 0 1 -1.5031066148482548,1.9127163999762553 l -7.710030605958618 -6.368314380994505 a 40.0 40.0 0.0 0 0 1.202485291878606,-1.5301731199810042 z"/><path fill="#652b1d" d="M 130.84012242383446,125.47325752397802 l 7.7100306059586154 6.368314380994505 a 50.0 50.0 0.0 0 1 -21.527379986862936,15.171460308754035 l -3.4045546085860288 -9.402606442745316 a 40.0 40.0 0.0 0 0 17.22190398949035,-12.137168247003224 z"/><path fill="#ac3535" d="M 113.61821843434412,137.61042577098124 l 3.404554608586028 9.402606442745311 a 50.0 50.0 0.0 0 1 -5.979814478031302,1.7522532476949504 l -2.208591712979768 -9.753057092284301 a 40.0 40.0 0.0 0 0 4.783851582425042,-1.4018025981559603 z"/><path fill="#924814" d="M 108.83436685191911,139.01222836913718 l 2.2085917129797674 9.753057092284301 a 50.0 50.0 0.0 0 1 -3.3133366974251772,0.633630982017543 l -1.5459243734947323 -9.879783288687811 a 40.0 40.0 0.0 0 0 2.650669357940142,-0.506904785614033 z"/><path fill="#5a2110" d="M 106.18369749397894,139.51913315475124 l 1.5459243734947319 9.87978328868781 a 50.0 50.0 0.0 0 1 -36.383127538466056,-8.423599327370168 l 5.730701134198483 -8.195063423213782 a 40.0 40.0 0.0 0 0 29.106502030772837,6.73887946189614 z"/><path fill="#b4471a" d="M 77.0771954632061,132.7802536928551 l -5.730701134198478 8.195063423213774 a 50.0 50.0 0.0 0 1 -3.4328059851507984,-2.6286275026896035 l 6.417262331228635 -7.669337922675851 a 40.0 40.0 0.0 0 0 2.7462447881206415,2.10290200215168 z"/><path fill="#662c14" d="M 74.33095067508545,130.6773516907034 l -6.417262331228638 7.6693379226758545 a 50.0 50.0 0.0 0 1 -6.628676891525306,-6.705740484854431 l 7.742997709533697 -6.328189825704968 a 40.0 40.0 0.0 0 0 5.302941513220247,5.364592387883544 z"/><path fill="#853c20" d="M 69.02800916186521,125.31275930281987 l -7.7429977095337 6.3281898257049685 a 50.0 50.0 0.0 0 1 -7.1000992498064655,-11.616520794371073 l 9.163017559494989 -4.004885666830752 a 40.0 40.0 0.0 0 0 5.680079399845177,9.293216635496858 z"/><path fill="#c93f2a" d="M 63.34792976202003,116.01954266732302 l -9.163017559494994 4.004885666830754 a 50.0 50.0 0.0 0 1 -2.8848356766084198,-8.69669892273059 l 9.739984694816677 -2.265545882284636 a 40.0 40.0 0.0 0 0 2.3078685412867372,6.957359138184472 z"/><path fill="#5c2d1a" d="M 61.04006122073329,109.06218352913855 l -9.739984694816679 2.265545882284636 a 50.0 50.0 0.0 0 1 -1.2507335588413238,-13.54850899956971 l 9.990131406584943 0.4441559176293062 a 40.0 40.0 0.0 0 0 1.000586847073059,10.838807199655768 z"/><path fill="#86431e" d="M 60.03947437366023,98.22337632948278 l -9.990131406584943 -0.44415591762930634 a 50.0 50.0 0.0 0 1 0.12994907163513858,-2.009711900545648 l 9.964141592257917 0.8460982977384359 a 40.0 40.0 0.0 0 0 -0.10395925730811229,1.6077695204365183 z"/><path fill="#652b1d" d="M 60.14343363096834,96.61560680904626 l -9.964141592257915 -0.8460982977384359 a 50.0 50.0 0.0 0 1 14.148168256642164,-30.80477518676433 l 7.134507940929481 7.007053335091303 a 40.0 40.0 0.0 0 0 -11.31853460531373,24.643820149411464 z"/><path fill="#ac3535" d="M 71.46196823628208,71.97178665963479 l -7.134507940929483 -7.007053335091302 a 50.0 50.0 0.0 0 1 0.3605438277888471,-0.3633624956388468 l 7.062399175371709 7.079725834219072 a 40.0 40.0 0.0 0 0 -0.2884350622310734,0.29068999651107674 z"/><path fill="#924814" d="M 71.75040329851315,71.68109666312371 l -7.062399175371715 -7.079725834219071 a 50.0 50.0 0.0 0 1 13.28027404795944,-9.485702541140363 l 4.406344365779827 8.976866342447146 a 40.0 40.0 0.0 0 0 -10.624219238367552,7.588562032912289 z"/><path fill="#5a2110" d="M 82.3746225368807,64.09253463021142 l -4.406344365779827 -8.976866342447144 a 50.0 50.0 0.0 0 1 44.19922880308664,0.06690614416734597 l -4.433501394837499 8.963485113613679 a 40.0 40.0 0.0 0 0 -35.35938304246931,-0.05352491533388104 z"/><path fill="#b4471a" d="M 117.73400557935001,64.14605954554531 l 4.433501394837508 -8.96348511361367 a 50.0 50.0 0.0 0 1 2.6341972678005643,1.4022730669777967 l -4.960340848397621 8.68303050021811 a 40.0 40.0 0.0 0 0 -2.1073578142404514,-1.121818453582236 z"/><path fill="#662c14" d="M 119.84136339359048,65.26787799912756 l 4.960340848397621 -8.683030500218111 a 50.0 50.0 0.0 0 1 7.145742456339814,4.9526948383579725 l -6.389489339665584 7.692491532546512 a 40.0 40.0 0.0 0 0 -5.716593965071851,-3.9621558706863738 z"/><path fill="#853c20" d="M 125.55795735866234,69.23003386981394 l 6.389489339665584 -7.6924915325465175 a 50.0 50.0 0.0 0 1 8.465269849656007,9.020780719794947 l -8.08254330959678 5.888335388587528 a 40.0 40.0 0.0 0 0 -6.772215879724811,-7.216624575835958 z"/><path fill="#c93f2a" d="M 132.33017323838715,76.44665844564989 l 8.082543309596787 -5.888335388587528 a 50.0 50.0 0.0 0 1 8.712310647597036,38.754662663609075 l -9.82500543911619 -1.8625971441342877 a 40.0 40.0 0.0 0 0 -6.969848518077633,-31.00373013088726 z"/><path fill="#c93f2a" d="M 110.34552605328066,148.91799352672686 l 2.0691052106561307 9.783598705345373 a 60.0 60.0 0.0 0 1 -8.112160503938297,1.1439484987070152 l -0.7170784599997484 -9.974256788463208 a 50.0 50.0 0.0 0 0 6.760133753281915,-0.9532904155891799 z"/><path fill="#5c2d1a" d="M 103.58539229999874,149.87128394231604 l 0.717078459999748 9.974256788463208 a 60.0 60.0 0.0 0 1 -18.911358974217777,-1.6512078009789022 l 2.4348147023698825 -9.699055488300054 a 50.0 50.0 0.0 0 0 15.759465811848147,1.3760065008157483 z"/><path fill="#86431e" d="M 87.8259264881506,148.4952774415003 l -2.434814702369881 9.699055488300058 a 60.0 60.0 0.0 0 1 -2.8132070336041006,-0.7794341910951665 l 2.9036825413038994 -9.569149789784198 a 50.0 50.0 0.0 0 0 2.3443391946700824,0.6495284925793072 z"/><path fill="#652b1d" d="M 85.48158729348052,147.84574894892097 l -2.903682541303898 9.569149789784197 a 60.0 60.0 0.0 0 1 -26.757497721354508,-16.81731796007052 l 7.363265494862979 -6.76626346310578 a 50.0 50.0 0.0 0 0 22.297914767795426,14.0144316333921 z"/><path fill="#ac3535" d="M 63.18367252568508,133.8313173155289 l -7.363265494862983 6.766263463105777 a 60.0 60.0 0.0 0 1 -4.706561484543624,-5.810458122012382 l 8.147692408953588 -5.7978537761037146 a 50.0 50.0 0.0 0 0 3.922134570453018,4.8420484350103195 z"/><path fill="#924814" d="M 59.26153795523207,128.98926888051858 l -8.147692408953587 5.797853776103713 a 60.0 60.0 0.0 0 1 -2.234405601484875,-3.375527032680532 l 8.520093342534402 -5.235265937323625 a 50.0 50.0 0.0 0 0 1.8620046679040598,2.8129391939004442 z"/><path fill="#5a2110" d="M 57.39953328732801,126.17632968661813 l -8.5200933425344 5.235265937323624 a 60.0 60.0 0.0 0 1 -7.504706303430163,-44.181800962107495 l 9.77087772643943 2.1283675563609634 a 50.0 50.0 0.0 0 0 6.253921919525133,36.81816746842291 z"/><path fill="#b4471a" d="M 51.14561136780287,89.3581622181952 l -9.770877726439426 -2.1283675563609576 a 60.0 60.0 0.0 0 1 1.3224283461202866,-5.017002304163071 l 9.550473002086044 2.9645346070548015 a 50.0 50.0 0.0 0 0 -1.1020236217669037,4.180835253469228 z"/><path fill="#662c14" d="M 52.24763498956978,85.17732696472598 l -9.550473002086045 -2.964534607054803 a 60.0 60.0 0.0 0 1 4.358289265246464,-10.4417625469638 l 8.824091457878296 4.704828364882104 a 50.0 50.0 0.0 0 0 -3.631907721038715,8.701468789136499 z"/><path fill="#853c20" d="M 55.8795427106085,76.47585817558948 l -8.824091457878302 -4.704828364882102 a 60.0 60.0 0.0 0 1 9.57761113793149,-13.235577588149235 l 7.227822934889723 6.9107579629069775 a 50.0 50.0 0.0 0 0 -7.9813426149429105,11.02964799012436 z"/><path fill="#c93f2a" d="M 63.8608853255514,65.44621018546513 l -7.227822934889721 -6.910757962906975 a 60.0 60.0 0.0 0 1 8.294743201448517,-7.217493874641558 l 5.845365734648304 8.113673608680571 a 50.0 50.0 0.0 0 0 -6.9122860012071,6.014578228867961 z"/><path fill="#5c2d1a" d="M 70.7731713267585,59.43163195659716 l -5.845365734648301 -8.113673608680568 a 60.0 60.0 0.0 0 1 14.422833818264081,-7.652707013723319 l 3.4415600982709513 9.389124777634457 a 50.0 50.0 0.0 0 0 -12.019028181886732,6.377255844769429 z"/><path fill="#86431e" d="M 82.79219950864524,53.05437611182773 l -3.441560098270953 -9.389124777634454 a 60.0 60.0 0.0 0 1 2.285350790996203,-0.7858530827379049 l 3.060668299771587 9.5201002914241 a 50.0 50.0 0.0 0 0 -1.9044589924968367,0.6548775689482582 z"/><path fill="#652b1d" d="M 84.69665850114208,52.39949854287948 l -3.060668299771586 -9.520100291424104 a 60.0 60.0 0.0 0 1 40.65354028385455,1.4144366431613271 l -3.7149217475375025 9.284360850897215 a 50.0 50.0 0.0 0 0 -33.87795023654546,-1.1786972026344387 z"/><path fill="#ac3535" d="M 118.57460873768753,53.578195745513916 l 3.714921747537505 -9.284360850897217 a 60.0 60.0 0.0 0 1 0.5691251723276674,0.23110889514198085 l -3.8097759429254516 9.245842701706884 a 50.0 50.0 0.0 0 0 -0.47427097693972087,-0.19259074595164805 z"/><path fill="#924814" d="M 119.04887971462729,53.770786491465586 l 3.80977594292545 -9.245842701706886 a 60.0 60.0 0.0 0 1 16.646702654921206,10.316151611003656 l -6.584226385412315 7.526484099872945 a 50.0 50.0 0.0 0 0 -13.87225221243434,-8.596793009169716 z"/><path fill="#5a2110" d="M 132.92113192706162,62.36757950063531 l 6.584226385412317 -7.5264840998729445 a 60.0 60.0 0.0 0 1 20.373475483324672,48.970106936444374 l -9.979805632633095 -0.6352003895344538 a 50.0 50.0 0.0 0 0 -16.977896236103895,-40.808422447036975 z"/><path fill="#b4471a" d="M 149.8990281631655,103.17600194767225 l 9.979805632633097 0.6352003895344515 a 60.0 60.0 0.0 0 1 -0.3340139872103496,3.5654116531521596 l -9.9241366347647 -1.2294356650598117 a 50.0 50.0 0.0 0 0 0.27834498934195295,-2.9711763776267994 z"/><path fill="#662c14" d="M 149.62068317382352,106.1471783252991 l 9.924136634764706 1.2294356650598113 a 60.0 60.0 0.0 0 1 -2.1780408302062195,10.203279912775692 l -9.561129829730334 -2.9299823171890935 a 50.0 50.0 0.0 0 0 1.8150340251718475,-8.502733260646409 z"/><path fill="#853c20" d="M 147.8056491486517,114.64991158594546 l 9.561129829730335 2.929982317189093 a 60.0 60.0 0.0 0 1 -6.07194526307344,13.546301401123912 l -8.54913895255143 -5.1876992173764105 a 50.0 50.0 0.0 0 0 5.059954385894535,-11.288584500936595 z"/><path fill="#c93f2a" d="M 142.74569476275715,125.93849608688205 l 8.549138952551429 5.187699217376412 a 60.0 60.0 0.0 0 1 -38.88020245137169,27.575396927813742 l -2.069105210656147 -9.78359870534537 a 50.0 50.0 0.0 0 0 32.400168709476404,-22.979497439844785 z"/><path fill="#c93f2a" d="M 14.19880348294356,127.16900212082626 l -9.533466279672938 3.018778013425139 a 100.0 100.0 0.0 0 1 -3.2235585330380854,-13.268057668662069 l 9.855822132976755 -1.691972246558933 a 90.0 90.0 0.0 0 0 2.9012026797342685,11.941251901795862 z"/><path fill="#5c2d1a" d="M 11.297600803209278,115.2277502190304 l -9.855822132976748 1.6919722465589324 a 100.0 100.0 0.0 0 1 -0.3528766699840773,-31.636878864960217 l 9.891109799975155 1.4717156399370879 a 90.0 90.0 0.0 0 0 0.3175890029856703,28.473190978464196 z"/><path fill="#86431e" d="M 10.980011800223608,86.75455924056618 l -9.891109799975155 -1.4717156399370892 a 100.0 100.0 0.0 0 1 0.8328910610701143,-4.793490019781448 l 9.807820693868138 1.9510646419152344 a 90.0 90.0 0.0 0 0 -0.7496019549630972,4.314141017803303 z"/><path fill="#652b1d" d="M 11.729613755186719,82.44041822276287 l -9.807820693868143 -1.9510646419152342 a 100.0 100.0 0.0 0 1 23.51940041265633,-47.13006463208687 l 7.455880652602502 6.6640711051239165 a 90.0 90.0 0.0 0 0 -21.16746037139069,42.417058168878185 z"/><path fill="#ac3535" d="M 32.89707412657741,40.0233600538847 l -7.455880652602511 -6.664071105123921 a 100.0 100.0 0.0 0 1 8.867971838136777,-8.75633290943956 l 6.569083468788833 7.539704396067876 a 90.0 90.0 0.0 0 0 -7.981174654323098,7.880699618495605 z"/><path fill="#924814" d="M 40.8782487809005,32.142660435389104 l -6.569083468788834 -7.539704396067877 a 100.0 100.0 0.0 0 1 5.233469713222052,-4.2578806850704884 l 6.045736497466628 7.965492464574922 a 90.0 90.0 0.0 0 0 -4.710122741899845,3.8320926165634432 z"/><path fill="#5a2110" d="M 45.58837152280034,28.31056781882566 l -6.0457364974666294 -7.965492464574925 a 100.0 100.0 0.0 0 1 72.05437871320484,-19.670345413526928 l -1.1597013738538493 9.932527005927625 a 90.0 90.0 0.0 0 0 -64.84894084188436,17.703310872174228 z"/><path fill="#b4471a" d="M 110.4373123646847,10.607256946651432 l 1.1597013738538544 -9.93252700592762 a 100.0 100.0 0.0 0 1 8.537538543203054,1.3732419821923774 l -2.0134552281741627 9.795202807708378 a 90.0 90.0 0.0 0 0 -7.683784688882746,-1.235917783973136 z"/><path fill="#662c14" d="M 118.12109705356745,11.843174730624568 l 2.0134552281741596 -9.795202807708382 a 100.0 100.0 0.0 0 1 18.031507525010877,5.521773945509597 l -3.8166059806752486 9.243025413157426 a 90.0 90.0 0.0 0 0 -16.228356772509787,-4.9695965509586415 z"/><path fill="#853c20" d="M 134.3494538260773,16.812771281583238 l 3.8166059806752473 -9.243025413157422 a 100.0 100.0 0.0 0 1 23.51866387513566,13.72196445196607 l -6.168472368188809 7.8708289679608185 a 90.0 90.0 0.0 0 0 -21.166797487622098,-12.349768006769466 z"/><path fill="#c93f2a" d="M 155.51625131369929,29.162539288352633 l 6.168472368188813 -7.870828967960815 a 100.0 100.0 0.0 0 1 13.327169361151572,12.57799479065751 l -7.5011893043039635 6.613029488895059 a 90.0 90.0 0.0 0 0 -11.994452425036421,-11.320195311591753 z"/><path fill="#5c2d1a" d="M 167.5107037387358,40.4827345999445 l 7.5011893043039715 -6.613029488895064 a 100.0 100.0 0.0 0 1 15.050843744471415,22.671079038414533 l -9.006273678751114 4.34592158505361 a 90.0 90.0 0.0 0 0 -13.545759370024271,-20.403971134573077 z"/><path fill="#86431e" d="M 181.05646310876006,60.886705734517584 l 9.006273678751114 -4.345921585053611 a 100.0 100.0 0.0 0 1 1.677047131127253,3.662079690235097 l -9.173978391863841 3.9797136160301037 a 90.0 90.0 0.0 0 0 -1.5093424180145263,-3.29587172121159 z"/><path fill="#652b1d" d="M 182.56580552677457,64.18257745572919 l 9.17397839186384 -3.9797136160301005 a 100.0 100.0 0.0 0 1 4.29999249903989,67.66039773611746 l -9.603977641767827 -2.786326157581641 a 90.0 90.0 0.0 0 0 -3.869993249135902,-60.89435796250572 z"/><path fill="#ac3535" d="M 186.43579877591043,125.0769354182348 l 9.603977641767827 2.786326157581644 a 100.0 100.0 0.0 0 1 -0.29028378195769733,0.9817494313246731 l -9.574949263572066 -2.884501100714111 a 90.0 90.0 0.0 0 0 0.2612554037619361,-0.8835744881922061 z"/><path fill="#924814" d="M 186.17454337214852,125.96050990642699 l 9.574949263572057 2.8845011007141115 a 100.0 100.0 0.0 0 1 -14.389280660466303,29.29719317658151 l -8.136021197525423 -5.814220418372262 a 90.0 90.0 0.0 0 0 12.95035259441967,-26.367473858923358 z"/><path fill="#5a2110" d="M 173.22419077772884,152.32798376535038 l 8.136021197525427 5.814220418372262 a 100.0 100.0 0.0 0 1 -77.89262536659899,41.79765694841761 l -0.3467586608655324 -9.99398611321402 a 90.0 90.0 0.0 0 0 70.1033628299391,-37.617891253575856 z"/><path fill="#b4471a" d="M 103.12082794778976,189.94587501892622 l 0.34675866086552626 9.993986113214024 a 100.0 100.0 0.0 0 1 -5.968301831242098,0.028866094805703568 l 0.25007152225868357 -9.99687272269459 a 90.0 90.0 0.0 0 0 5.371471648117888,-0.02597948532513783 z"/><path fill="#662c14" d="M 97.74935629967187,189.97185450425135 l -0.2500715222586835 9.996872722694594 a 100.0 100.0 0.0 0 1 -17.27952731417401,-1.9445363086480434 l 1.978024253676086 -9.80241909182979 a 90.0 90.0 0.0 0 0 15.551574582756608,1.7500826777832401 z"/><path fill="#853c20" d="M 82.19778171691524,188.2217718264681 l -1.9780242536760846 9.80241909182979 a 100.0 100.0 0.0 0 1 -23.460935215186424,-7.856566203966537 l 4.324117775194729 -9.01676247143314 a 90.0 90.0 0.0 0 0 21.11484169366778,7.070909583569886 z"/><path fill="#c93f2a" d="M 61.08294002324743,181.1508622428982 l -4.324117775194727 9.016762471433136 a 100.0 100.0 0.0 0 1 -52.09348504478208,-59.979844580079885 l 9.533466279672936 -3.0187780134251483 a 90.0 90.0 0.0 0 0 46.88413654030387,53.9818601220719 z"/></g></svg>