<?xml version='1.0' encoding='UTF-8'?>
<svg preserveAspectRatio="xMidYMid meet" xmlns="http://www.w3.org/2000/svg" xmlns:svg="http://www.w3.org/2000/svg"><g><path fill="#001427" d="M 57.705492850600386,126.66785827526058 l -19.032528217229824 12.000536223867268 a 72.5 72.5 0.0 0 1 5.600110660640283,-85.0446800641989 l 17.29456283978974 14.392640347780656 a 50.0 50.0 0.0 0 0 -3.8621452832001992,58.65150349255097 z"/><path fill="#001427" d="M 34.4435139184306,141.33518032665393 l -19.032528217229824 12.000536223867268 a 100.0 100.0 0.0 0 1 7.7242905664003985,-117.30300698510194 l 17.294562839789734 14.392640347780684 a 77.5 77.5 0.0 0 0 -5.986325188960308,90.90983041345399 z"/><path fill="#708d81" d="M 61.56763813380059,68.01635478270963 l -17.29456283978974 -14.392640347780661 a 72.5 72.5 0.0 0 1 82.61282651581107,-20.954229685241863 l -8.343900561668875 20.89567714664883 a 50.0 50.0 0.0 0 0 -56.97436311435246,14.451192886373697 z"/><path fill="#708d81" d="M 40.42983910739091,50.42534991319992 l -17.29456283978974 -14.392640347780661 a 100.0 100.0 0.0 0 1 113.94872622870491,-28.902385772747394 l -8.343900561668875 20.895677146648822 a 77.5 77.5 0.0 0 0 -88.3102628272463,22.399348973879235 z"/><path fill="#f4d58d" d="M 118.54200124815304,53.56516189633595 l 8.343900561668866 -20.895677146648826 a 72.5 72.5 0.0 0 1 45.45742403282949,72.09425391064744 l -22.451376985650427 -1.4784016532072783 a 50.0 50.0 0.0 0 0 -31.349947608847934,-49.72017511079133 z"/><path fill="#f4d58d" d="M 128.7401019346372,28.026000939320724 l 8.343900561668866 -20.895677146648826 a 100.0 100.0 0.0 0 1 62.69989521769586,99.44035022158266 l -22.45137698565044 -1.4784016532072712 a 77.5 77.5 0.0 0 0 -48.59241879371429,-77.06627142172657 z"/><path fill="#bf0603" d="M 149.89194885700095,103.28533700712727 l 22.451376985650434 1.4784016532072695 a 72.5 72.5 0.0 0 1 -54.51859342250612,65.51092899558698 l -5.531813509700264 -21.809379617354956 a 50.0 50.0 0.0 0 0 37.59902994655595,-45.179951031439295 z"/><path fill="#bf0603" d="M 177.33252072835148,105.09227236104726 l 22.451376985650434 1.4784016532072695 a 100.0 100.0 0.0 0 1 -75.19805989311189,90.35990206287859 l -5.531813509700257 -21.80937961735495 a 77.5 77.5 0.0 0 0 58.27849641716172,-70.02892409873091 z"/><path fill="#8d0801" d="M 112.29291891044502,148.46528803856657 l 5.531813509700264 21.809379617354953 a 72.5 72.5 0.0 0 1 -79.15176778677474,-31.606273156793666 l 19.032528217229817 -12.000536223867265 a 50.0 50.0 0.0 0 0 54.58742605984465,21.797429763305978 z"/><path fill="#8d0801" d="M 119.05402431118979,175.12119645977816 l 5.531813509700264 21.809379617354953 a 100.0 100.0 0.0 0 1 -109.17485211968932,-43.594859526611955 l 19.03252821722984 -12.000536223867257 a 77.5 77.5 0.0 0 0 84.61051039275921,33.786016133124264 z"/><path fill="#cc2912" d="M 100.0,100.0 l -3.087321105421557 49.90459345984114 a 50.0 50.0 0.0 0 1 -22.838186942712362,-7.151020130280209 l 25.925508048133917 -42.75357332956093 z"/><path fill="#882300" d="M 100.0,100.0 l -25.925508048133906 42.753573329560936 a 50.0 50.0 0.0 0 1 -16.89896548512651,-16.945348543669947 l 42.82447353326042 -25.80822478589099 z"/><path fill="#a0131c" d="M 100.0,100.0 l -42.82447353326041 25.808224785891 a 50.0 50.0 0.0 0 1 -7.0883946895093,-22.857701819292384 l 49.91286822276971 -2.9505229665986157 z"/><path fill="#851500" d="M 100.0,100.0 l -49.91286822276971 2.9505229665986277 a 50.0 50.0 0.0 0 1 4.34604190505798,-23.533631073283914 l 45.56682631771173 20.583108106685287 z"/><path fill="#d70900" d="M 100.0,100.0 l -45.56682631771174 -20.583108106685266 a 50.0 50.0 0.0 0 1 14.784852674659195,-18.81828905938511 l 30.78197364305254 39.401397166070375 z"/><path fill="#911a0c" d="M 100.0,100.0 l -30.78197364305254 -39.401397166070375 a 50.0 50.0 0.0 0 1 21.83663187328594,-9.791903806948994 l 8.945341769766605 49.19330097301937 z"/><path fill="#6b1f27" d="M 100.0,100.0 l -8.945341769766605 -49.19330097301937 a 50.0 50.0 0.0 0 1 23.88590186968485,1.4776886024259142 l -14.940560099918246 47.715612370593455 z"/><path fill="#42120a" d="M 100.0,100.0 l 14.940560099918246 -47.715612370593455 a 50.0 50.0 0.0 0 1 20.46319960406135,12.408760361063194 l -35.403759703979595 35.30685200953026 z"/><path fill="#631326" d="M 100.0,100.0 l 35.403759703979595 -35.30685200953026 a 50.0 50.0 0.0 0 1 12.352624917436238,20.497134662754274 l -47.75638462141583 14.809717346775987 z"/><path fill="#ad2700" d="M 100.0,100.0 l 47.75638462141583 -14.809717346775987 a 50.0 50.0 0.0 0 1 1.412212727494449,23.88986243045901 l -49.16859734891028 -9.080145083683025 z"/><path fill="#cc2912" d="M 100.0,100.0 l 49.16859734891028 9.080145083683014 a 50.0 50.0 0.0 0 1 -9.85172037930797,21.80971061939782 l -39.31687696960231 -30.889855703080833 z"/><path fill="#882300" d="M 100.0,100.0 l 39.31687696960232 30.88985570308082 a 50.0 50.0 0.0 0 1 -18.85874307331212,14.733216940938476 l -20.4581338962902 -45.623072644019295 z"/><path fill="#a0131c" d="M 100.0,100.0 l 20.458133896290214 45.62307264401929 a 50.0 50.0 0.0 0 1 -23.545455001711783,4.28152081582185 l 3.087321105421569 -49.90459345984114 z"/><path fill="#001427" d="M 38.67296463337056,138.66839449912786 l -4.229450714939961 2.6667858275260587 a 77.5 77.5 0.0 0 1 -8.220063771176694,-17.601855826591354 l 4.759777409854593 -1.5311822258104897 a 72.5 72.5 0.0 0 0 7.6897370762620625,16.466252224875785 z"/><path fill="#708d81" d="M 30.983227557108492,122.20214227425208 l -4.759777409854587 1.5311822258104875 a 77.5 77.5 0.0 0 1 -3.5844118127582103,-19.093107889992112 l 4.991029784871245 -0.29936881355293465 a 72.5 72.5 0.0 0 0 3.353159437741553,17.86129447773456 z"/><path fill="#f4d58d" d="M 27.63006811936694,104.34084779651752 l -4.9910297848712455 0.2993688135529315 a 77.5 77.5 0.0 0 1 1.2764619224003733,-19.384669765125643 l 4.908677402780896 0.951255042261625 a 72.5 72.5 0.0 0 0 -1.1941095403100235,18.134045909311087 z"/><path fill="#bf0603" d="M 28.824177659676963,86.20680188720641 l -4.908677402780899 -0.9512550422616263 a 77.5 77.5 0.0 0 1 6.057130860475983,-18.458221547088147 l 4.517894766621154 2.1421080452995653 a 72.5 72.5 0.0 0 0 -5.666348224316238,17.267368544050207 z"/><path fill="#8d0801" d="M 34.490525883993215,68.93943334315621 l -4.517894766621159 -2.1421080452995716 a 77.5 77.5 0.0 0 1 10.457207990018862,-16.37197538465671 l 3.84323618661994 3.198364521729033 a 72.5 72.5 0.0 0 0 -9.782549410017644,15.31571890822725 z"/><path fill="#001427" d="M 44.27307529401085,53.62371443492896 l -3.843236186619942 -3.1983645217290366 a 77.5 77.5 0.0 0 1 14.200220282628118,-13.257017796893724 l 2.9270929425794208 4.053655992496374 a 72.5 72.5 0.0 0 0 -13.284077038587597,12.401726326126386 z"/><path fill="#708d81" d="M 57.55715233259844,41.22198810880257 l -2.927092942579418 -4.053655992496374 a 77.5 77.5 0.0 0 1 17.05098051012281,-9.309073025050978 l 1.8270296838618165 4.654241348951274 a 72.5 72.5 0.0 0 0 -15.950917251405208,8.708487668596078 z"/><path fill="#f4d58d" d="M 73.50806958400366,32.5135004402065 l -1.8270296838618172 -4.654241348951276 a 77.5 77.5 0.0 0 1 18.830364923046616,-4.776204958668528 l 0.6121674307620353 4.962383604349242 a 72.5 72.5 0.0 0 0 -17.615502669946835,4.4680627032705615 z"/><path fill="#bf0603" d="M 91.1235722539505,28.045437736935938 l -0.6121674307620354 -4.962383604349245 a 77.5 77.5 0.0 0 1 19.42656825461782,0.056769630920090464 l -0.6411595534068546 4.958721047515681 a 72.5 72.5 0.0 0 0 -18.17324127044893,-0.05310707408652604 z"/><path fill="#8d0801" d="M 109.29681352439943,28.098544811022464 l 0.6411595534068564 -4.9587210475156915 a 77.5 77.5 0.0 0 1 18.802128856830933,4.886177175813938 l -1.854200124815307 4.643483810366405 a 72.5 72.5 0.0 0 0 -17.589088285422484,-4.570939938664651 z"/><path fill="#001427" d="M 126.88590180982192,32.66948474968713 l 1.8542001248153037 -4.643483810366406 a 77.5 77.5 0.0 0 1 16.996282553576503,9.40856823864879 l -2.9507344831105584 4.036479407872939 a 72.5 72.5 0.0 0 0 -15.899748195281248,-8.801563836155324 z"/><path fill="#708d81" d="M 142.78565000510315,41.471048585842446 l 2.950734483110562 -4.036479407872935 a 77.5 77.5 0.0 0 1 14.122497309526086,13.339784356755754 l -3.8618633417896646 3.175848159049984 a 72.5 72.5 0.0 0 0 -13.211368450846983,-12.479153107932802 z"/><path fill="#f4d58d" d="M 155.99701845595018,53.9502016937753 l 3.861863341789664 -3.175848159049983 a 77.5 77.5 0.0 0 1 10.361343620606306,16.43281276343282 l -4.530337123764269 2.115666690441415 a 72.5 72.5 0.0 0 0 -9.692869838631701,-15.372631294824252 z"/><path fill="#bf0603" d="M 165.6898882945818,69.32283298859944 l 4.530337123764265 -2.1156666904414143 a 77.5 77.5 0.0 0 1 5.949148605647541,18.49330710852548 l -4.9141531628383035 0.9225501027946095 a 72.5 72.5 0.0 0 0 -5.5653325665735025,-17.300190520878676 z"/><path fill="#8d0801" d="M 171.25522086115535,86.62302350947817 l 4.914153162838299 -0.922550102794609 a 77.5 77.5 0.0 0 1 1.1631467043578612,19.391798954363722 l -4.989194885700101 -0.3285337007127289 a 72.5 72.5 0.0 0 0 -1.088104981496059,-18.140715150856384 z"/><path fill="#001427" d="M 172.34332584265138,104.76373866033454 l 4.989194885700097 0.3285337007127278 a 77.5 77.5 0.0 0 1 -3.6959399821209713,19.071832753851403 l -4.750747144918094 -1.5589745235418526 a 72.5 72.5 0.0 0 0 3.4574922413389686,-17.84139193102228 z"/><path fill="#708d81" d="M 168.8858336013124,122.60513059135683 l 4.7507471449180985 1.5589745235418506 a 77.5 77.5 0.0 0 1 -8.322797166806698,17.55351316012016 l -4.213792488995082 -2.691459243549602 a 72.5 72.5 0.0 0 0 7.785842510883683,-16.42102844011241 z"/><path fill="#f4d58d" d="M 161.09999109042874,139.02615903146923 l 4.213792488995086 2.6914592435496028 a 77.5 77.5 0.0 0 1 -12.42670239639516,14.93224177723313 l -3.4120697537437863 -3.6548296807904492 a 72.5 72.5 0.0 0 0 11.624979661143861,-13.968871339992283 z"/><path fill="#bf0603" d="M 149.47501142928488,152.99503037146152 l 3.412069753743785 3.65482968079045 a 77.5 77.5 0.0 0 1 -15.749792212203536,11.372722726538704 l -2.395954127150013 -4.388553727663911 a 72.5 72.5 0.0 0 0 14.733676585609764,-10.638998679665242 z"/><path fill="#8d0801" d="M 134.74133484367513,163.63402905112676 l 2.3959541271500084 4.388553727663915 a 77.5 77.5 0.0 0 1 -18.083264659635347,7.098613680987494 l -1.2292918910445039 -4.846528803856657 a 72.5 72.5 0.0 0 0 16.91660242352984,-6.640638604794752 z"/><path fill="#001427" d="M 117.82473242014528,170.27466765592152 l 1.2292918910445019 4.846528803856656 a 77.5 77.5 0.0 0 1 -19.280499082906942,2.3784726309848887 l 0.014611275594656803 -4.999978651016974 a 72.5 72.5 0.0 0 0 18.036595916267785,-2.2250227838245706 z"/><path fill="#708d81" d="M 99.7881365038775,172.49969043974608 l -0.01461127559465578 4.999978651016972 a 77.5 77.5 0.0 0 1 -19.26626884008401,-2.4911166018329407 l 1.2575963620516895 -4.839261450898718 a 72.5 72.5 0.0 0 0 18.023283753626977,2.3303994017146863 z"/><path fill="#f4d58d" d="M 81.76485275025053,170.16929103803142 l -1.2575963620516886 4.839261450898718 a 77.5 77.5 0.0 0 1 -18.04146806965816,-7.204179816871559 l 2.4215620439651175 -4.374475656261843 a 72.5 72.5 0.0 0 0 16.87750238774473,6.739394022234684 z"/><path fill="#bf0603" d="M 64.8873503625058,163.4298970157967 l -2.421562043965118 4.3744756562618425 a 77.5 77.5 0.0 0 1 -15.683055508537763,-11.464577918896225 l 3.433372076774006 -3.6348254679459515 a 72.5 72.5 0.0 0 0 14.671245475728874,10.724927730580333 z"/><path fill="#8d0801" d="M 50.21610488677691,152.70496928521638 l -3.433372076774006 3.6348254679459573 a 77.5 77.5 0.0 0 1 -12.339218891572308,-15.00461442650843 l 4.229450714939958 -2.6667858275260627 a 72.5 72.5 0.0 0 0 11.543140253406357,14.036574786088536 z"/></g></svg>