<?xml version='1.0' encoding='UTF-8'?>
<svg xmlns="http://www.w3.org/2000/svg" xmlns:svg="http://www.w3.org/2000/svg"><g><circle r="100.0" cx="100.0" cy="100.0"/><circle r="100.0" cx="100.0" cy="100.0"/><circle r="100.0" cx="100.0" cy="100.0"/><circle r="100.0" cx="100.0" cy="100.0"/><circle r="100.0" cx="100.0" cy="100.0"/><circle r="100.0" cx="100.0" cy="100.0"/><circle r="100.0" cx="100.0" cy="100.0"/><circle r="100.0" cx="100.0" cy="100.0"/><circle r="100.0" cx="100.0" cy="100.0"/><circle r="100.0" cx="100.0" cy="100.0"/><circle r="100.0" cx="100.0" cy="100.0"/><circle r="100.0" cx="100.0" cy="100.0"/><circle r="100.0" cx="100.0" cy="100.0"/><circle r="100.0" cx="100.0" cy="100.0"/><circle r="100.0" cx="100.0" cy="100.0"/><circle fill="#f94100" r="1.992541604122076" cx="100.0" cy="100.0"/><path fill="#fdc0e8" d="M 103.62934084119874,100.0 a 3.629340841198743 3.629340841198743 0.0 1 1 -3.629340841198743,-3.629340841198743 a 3.629340841198743 3.629340841198743 0.0 0 1 3.629340841198743,3.629340841198743 z M 101.99254160412207,100.0 a 1.992541604122076 1.992541604122076 0.0 1 0 -1.992541604122076,1.992541604122076 a 1.992541604122076 1.992541604122076 0.0 0 0 1.992541604122076,-1.992541604122076 z"/><path fill="#f9ad87" d="M 116.1509636272615,100.0 a 16.1509636272615 16.1509636272615 0.0 1 1 -16.1509636272615,-16.1509636272615 a 16.1509636272615 16.1509636272615 0.0 0 1 16.1509636272615,16.1509636272615 z M 103.62934084119874,100.0 a 3.629340841198743 3.629340841198743 0.0 1 0 -3.629340841198743,3.629340841198743 a 3.629340841198743 3.629340841198743 0.0 0 0 3.629340841198743,-3.629340841198743 z"/><path fill="#fc8f41" d="M 126.0023062536771,100.0 a 26.002306253677105 26.002306253677105 0.0 1 1 -26.002306253677105,-26.002306253677105 a 26.002306253677105 26.002306253677105 0.0 0 1 26.002306253677105,26.002306253677105 z M 116.1509636272615,100.0 a 16.1509636272615 16.1509636272615 0.0 1 0 -16.1509636272615,16.1509636272615 a 16.1509636272615 16.1509636272615 0.0 0 0 16.1509636272615,-16.1509636272615 z"/><path fill="#ff9324" d="M 127.37382880024005,100.0 a 27.37382880024005 27.37382880024005 0.0 1 1 -27.37382880024005,-27.37382880024005 a 27.37382880024005 27.37382880024005 0.0 0 1 27.37382880024005,27.37382880024005 z M 126.0023062536771,100.0 a 26.002306253677105 26.002306253677105 0.0 1 0 -26.002306253677105,26.002306253677105 a 26.002306253677105 26.002306253677105 0.0 0 0 26.002306253677105,-26.002306253677105 z"/><path fill="#9c4200" d="M 129.67304894650303,100.0 a 29.673048946503027 29.673048946503027 0.0 1 1 -29.673048946503027,-29.673048946503027 a 29.673048946503027 29.673048946503027 0.0 0 1 29.673048946503027,29.673048946503027 z M 127.37382880024006,100.0 a 27.37382880024005 27.37382880024005 0.0 1 0 -27.37382880024005,27.37382880024005 a 27.37382880024005 27.37382880024005 0.0 0 0 27.37382880024005,-27.37382880024005 z"/><path fill="#900600" d="M 134.32605634461834,100.0 a 34.32605634461834 34.32605634461834 0.0 1 1 -34.32605634461834,-34.32605634461834 a 34.32605634461834 34.32605634461834 0.0 0 1 34.32605634461834,34.32605634461834 z M 129.67304894650303,100.0 a 29.673048946503027 29.673048946503027 0.0 1 0 -29.673048946503027,29.673048946503027 a 29.673048946503027 29.673048946503027 0.0 0 0 29.673048946503027,-29.673048946503027 z"/><path fill="#894728" d="M 159.16835574050188,100.0 a 59.16835574050189 59.16835574050189 0.0 1 1 -59.16835574050189,-59.16835574050189 a 59.16835574050189 59.16835574050189 0.0 0 1 59.16835574050189,59.16835574050189 z M 134.32605634461834,100.0 a 34.32605634461834 34.32605634461834 0.0 1 0 -34.32605634461834,34.32605634461834 a 34.32605634461834 34.32605634461834 0.0 0 0 34.32605634461834,-34.32605634461834 z"/><path fill="#461626" d="M 165.78643836433065,100.0 a 65.78643836433065 65.78643836433065 0.0 1 1 -65.78643836433065,-65.78643836433065 a 65.78643836433065 65.78643836433065 0.0 0 1 65.78643836433065,65.78643836433065 z M 159.16835574050188,100.0 a 59.16835574050189 59.16835574050189 0.0 1 0 -59.16835574050189,59.16835574050189 a 59.16835574050189 59.16835574050189 0.0 0 0 59.16835574050189,-59.16835574050189 z"/><path fill="#ff8440" d="M 171.43602330631975,100.0 a 71.43602330631975 71.43602330631975 0.0 1 1 -71.43602330631975,-71.43602330631975 a 71.43602330631975 71.43602330631975 0.0 0 1 71.43602330631975,71.43602330631975 z M 165.78643836433065,100.0 a 65.78643836433065 65.78643836433065 0.0 1 0 -65.78643836433065,65.78643836433065 a 65.78643836433065 65.78643836433065 0.0 0 0 65.78643836433065,-65.78643836433065 z"/><path fill="#f94100" d="M 200.0,100.0 a 100.0 100.0 0.0 1 1 -100.0,-100.0 a 100.0 100.0 0.0 0 1 100.0,100.0 z M 171.43602330631975,100.0 a 71.43602330631975 71.43602330631975 0.0 1 0 -71.43602330631975,71.43602330631975 a 71.43602330631975 71.43602330631975 0.0 0 0 71.43602330631975,-71.43602330631975 z"/><circle r="100.0" cx="100.0" cy="100.0"/><circle r="100.0" cx="100.0" cy="100.0"/><circle r="100.0" cx="100.0" cy="100.0"/><circle r="100.0" cx="100.0" cy="100.0"/><circle r="100.0" cx="100.0" cy="100.0"/><circle r="100.0" cx="100.0" cy="100.0"/><circle r="100.0" cx="100.0" cy="100.0"/><circle r="100.0" cx="100.0" cy="100.0"/><circle r="100.0" cx="100.0" cy="100.0"/><circle fill="#f94100" r="1.992541604122076" cx="100.0" cy="100.0"/><path fill="#fdc0e8" d="M 103.62934084119874,100.0 a 3.629340841198743 3.629340841198743 0.0 1 1 -3.629340841198743,-3.629340841198743 a 3.629340841198743 3.629340841198743 0.0 0 1 3.629340841198743,3.629340841198743 z M 101.99254160412207,100.0 a 1.992541604122076 1.992541604122076 0.0 1 0 -1.992541604122076,1.992541604122076 a 1.992541604122076 1.992541604122076 0.0 0 0 1.992541604122076,-1.992541604122076 z"/><path fill="#f9ad87" d="M 116.1509636272615,100.0 a 16.1509636272615 16.1509636272615 0.0 1 1 -16.1509636272615,-16.1509636272615 a 16.1509636272615 16.1509636272615 0.0 0 1 16.1509636272615,16.1509636272615 z M 103.62934084119874,100.0 a 3.629340841198743 3.629340841198743 0.0 1 0 -3.629340841198743,3.629340841198743 a 3.629340841198743 3.629340841198743 0.0 0 0 3.629340841198743,-3.629340841198743 z"/><path fill="#fc8f41" d="M 126.0023062536771,100.0 a 26.002306253677105 26.002306253677105 0.0 1 1 -26.002306253677105,-26.002306253677105 a 26.002306253677105 26.002306253677105 0.0 0 1 26.002306253677105,26.002306253677105 z M 116.1509636272615,100.0 a 16.1509636272615 16.1509636272615 0.0 1 0 -16.1509636272615,16.1509636272615 a 16.1509636272615 16.1509636272615 0.0 0 0 16.1509636272615,-16.1509636272615 z"/><path fill="#ff9324" d="M 127.37382880024005,100.0 a 27.37382880024005 27.37382880024005 0.0 1 1 -27.37382880024005,-27.37382880024005 a 27.37382880024005 27.37382880024005 0.0 0 1 27.37382880024005,27.37382880024005 z M 126.0023062536771,100.0 a 26.002306253677105 26.002306253677105 0.0 1 0 -26.002306253677105,26.002306253677105 a 26.002306253677105 26.002306253677105 0.0 0 0 26.002306253677105,-26.002306253677105 z"/><path fill="#9c4200" d="M 129.67304894650303,100.0 a 29.673048946503027 29.673048946503027 0.0 1 1 -29.673048946503027,-29.673048946503027 a 29.673048946503027 29.673048946503027 0.0 0 1 29.673048946503027,29.673048946503027 z M 127.37382880024006,100.0 a 27.37382880024005 27.37382880024005 0.0 1 0 -27.37382880024005,27.37382880024005 a 27.37382880024005 27.37382880024005 0.0 0 0 27.37382880024005,-27.37382880024005 z"/><path fill="#900600" d="M 134.32605634461834,100.0 a 34.32605634461834 34.32605634461834 0.0 1 1 -34.32605634461834,-34.32605634461834 a 34.32605634461834 34.32605634461834 0.0 0 1 34.32605634461834,34.32605634461834 z M 129.67304894650303,100.0 a 29.673048946503027 29.673048946503027 0.0 1 0 -29.673048946503027,29.673048946503027 a 29.673048946503027 29.673048946503027 0.0 0 0 29.673048946503027,-29.673048946503027 z"/><path fill="#894728" d="M 159.16835574050188,100.0 a 59.16835574050189 59.16835574050189 0.0 1 1 -59.16835574050189,-59.16835574050189 a 59.16835574050189 59.16835574050189 0.0 0 1 59.16835574050189,59.16835574050189 z M 134.32605634461834,100.0 a 34.32605634461834 34.32605634461834 0.0 1 0 -34.32605634461834,34.32605634461834 a 34.32605634461834 34.32605634461834 0.0 0 0 34.32605634461834,-34.32605634461834 z"/><path fill="#461626" d="M 165.78643836433065,100.0 a 65.78643836433065 65.78643836433065 0.0 1 1 -65.78643836433065,-65.78643836433065 a 65.78643836433065 65.78643836433065 0.0 0 1 65.78643836433065,65.78643836433065 z M 159.16835574050188,100.0 a 59.16835574050189 59.16835574050189 0.0 1 0 -59.16835574050189,59.16835574050189 a 59.16835574050189 59.16835574050189 0.0 0 0 59.16835574050189,-59.16835574050189 z"/><path fill="#ff8440" d="M 171.43602330631975,100.0 a 71.43602330631975 71.43602330631975 0.0 1 1 -71.43602330631975,-71.43602330631975 a 71.43602330631975 71.43602330631975 0.0 0 1 71.43602330631975,71.43602330631975 z M 165.78643836433065,100.0 a 65.78643836433065 65.78643836433065 0.0 1 0 -65.78643836433065,65.78643836433065 a 65.78643836433065 65.78643836433065 0.0 0 0 65.78643836433065,-65.78643836433065 z"/><path fill="#f94100" d="M 200.0,100.0 a 100.0 100.0 0.0 1 1 -100.0,-100.0 a 100.0 100.0 0.0 0 1 100.0,100.0 z M 171.43602330631975,100.0 a 71.43602330631975 71.43602330631975 0.0 1 0 -71.43602330631975,71.43602330631975 a 71.43602330631975 71.43602330631975 0.0 0 0 71.43602330631975,-71.43602330631975 z"/><circle r="100.0" cx="100.0" cy="100.0"/><circle r="100.0" cx="100.0" cy="100.0"/><circle r="100.0" cx="100.0" cy="100.0"/><circle r="100.0" cx="100.0" cy="100.0"/><circle r="100.0" cx="100.0" cy="100.0"/><circle r="100.0" cx="100.0" cy="100.0"/><circle r="100.0" cx="100.0" cy="100.0"/><circle r="100.0" cx="100.0" cy="100.0"/><circle r="100.0" cx="100.0" cy="100.0"/><circle fill="#f94100" r="1.992541604122076" cx="100.0" cy="100.0"/><path fill="#fdc0e8" d="M 103.62934084119874,100.0 a 3.629340841198743 3.629340841198743 0.0 1 1 -3.629340841198743,-3.629340841198743 a 3.629340841198743 3.629340841198743 0.0 0 1 3.629340841198743,3.629340841198743 z M 101.99254160412207,100.0 a 1.992541604122076 1.992541604122076 0.0 1 0 -1.992541604122076,1.992541604122076 a 1.992541604122076 1.992541604122076 0.0 0 0 1.992541604122076,-1.992541604122076 z"/><path fill="#f9ad87" d="M 116.1509636272615,100.0 a 16.1509636272615 16.1509636272615 0.0 1 1 -16.1509636272615,-16.1509636272615 a 16.1509636272615 16.1509636272615 0.0 0 1 16.1509636272615,16.1509636272615 z M 103.62934084119874,100.0 a 3.629340841198743 3.629340841198743 0.0 1 0 -3.629340841198743,3.629340841198743 a 3.629340841198743 3.629340841198743 0.0 0 0 3.629340841198743,-3.629340841198743 z"/><path fill="#fc8f41" d="M 126.0023062536771,100.0 a 26.002306253677105 26.002306253677105 0.0 1 1 -26.002306253677105,-26.002306253677105 a 26.002306253677105 26.002306253677105 0.0 0 1 26.002306253677105,26.002306253677105 z M 116.1509636272615,100.0 a 16.1509636272615 16.1509636272615 0.0 1 0 -16.1509636272615,16.1509636272615 a 16.1509636272615 16.1509636272615 0.0 0 0 16.1509636272615,-16.1509636272615 z"/><path fill="#ff9324" d="M 127.37382880024005,100.0 a 27.37382880024005 27.37382880024005 0.0 1 1 -27.37382880024005,-27.37382880024005 a 27.37382880024005 27.37382880024005 0.0 0 1 27.37382880024005,27.37382880024005 z M 126.0023062536771,100.0 a 26.002306253677105 26.002306253677105 0.0 1 0 -26.002306253677105,26.002306253677105 a 26.002306253677105 26.002306253677105 0.0 0 0 26.002306253677105,-26.002306253677105 z"/><path fill="#9c4200" d="M 129.67304894650303,100.0 a 29.673048946503027 29.673048946503027 0.0 1 1 -29.673048946503027,-29.673048946503027 a 29.673048946503027 29.673048946503027 0.0 0 1 29.673048946503027,29.673048946503027 z M 127.37382880024006,100.0 a 27.37382880024005 27.37382880024005 0.0 1 0 -27.37382880024005,27.37382880024005 a 27.37382880024005 27.37382880024005 0.0 0 0 27.37382880024005,-27.37382880024005 z"/><path fill="#900600" d="M 134.32605634461834,100.0 a 34.32605634461834 34.32605634461834 0.0 1 1 -34.32605634461834,-34.32605634461834 a 34.32605634461834 34.32605634461834 0.0 0 1 34.32605634461834,34.32605634461834 z M 129.67304894650303,100.0 a 29.673048946503027 29.673048946503027 0.0 1 0 -29.673048946503027,29.673048946503027 a 29.673048946503027 29.673048946503027 0.0 0 0 29.673048946503027,-29.673048946503027 z"/><path fill="#894728" d="M 159.16835574050188,100.0 a 59.16835574050189 59.16835574050189 0.0 1 1 -59.16835574050189,-59.16835574050189 a 59.16835574050189 59.16835574050189 0.0 0 1 59.16835574050189,59.16835574050189 z M 134.32605634461834,100.0 a 34.32605634461834 34.32605634461834 0.0 1 0 -34.32605634461834,34.32605634461834 a 34.32605634461834 34.32605634461834 0.0 0 0 34.32605634461834,-34.32605634461834 z"/><path fill="#461626" d="M 165.78643836433065,100.0 a 65.78643836433065 65.78643836433065 0.0 1 1 -65.78643836433065,-65.78643836433065 a 65.78643836433065 65.78643836433065 0.0 0 1 65.78643836433065,65.78643836433065 z M 159.16835574050188,100.0 a 59.16835574050189 59.16835574050189 0.0 1 0 -59.16835574050189,59.16835574050189 a 59.16835574050189 59.16835574050189 0.0 0 0 59.16835574050189,-59.16835574050189 z"/><path fill="#ff8440" d="M 171.43602330631975,100.0 a 71.43602330631975 71.43602330631975 0.0 1 1 -71.43602330631975,-71.43602330631975 a 71.43602330631975 71.43602330631975 0.0 0 1 71.43602330631975,71.43602330631975 z M 165.78643836433065,100.0 a 65.78643836433065 65.78643836433065 0.0 1 0 -65.78643836433065,65.78643836433065 a 65.78643836433065 65.78643836433065 0.0 0 0 65.78643836433065,-65.78643836433065 z"/><path fill="#f94100" d="M 200.0,100.0 a 100.0 100.0 0.0 1 1 -100.0,-100.0 a 100.0 100.0 0.0 0 1 100.0,100.0 z M 171.43602330631975,100.0 a 71.43602330631975 71.43602330631975 0.0 1 0 -71.43602330631975,71.43602330631975 a 71.43602330631975 71.43602330631975 0.0 0 0 71.43602330631975,-71.43602330631975 z"/><circle r="100.0" cx="100.0" cy="100.0"/><circle r="100.0" cx="100.0" cy="100.0"/><circle r="100.0" cx="100.0" cy="100.0"/><path fill="#f94100" d="M 100.0,100.0 l -0.4313734246898827 1.94528635748794 a 1.992541604122076 1.992541604122076 0.0 0 1 -0.9612578988840675,-0.5202249410016035 l 1.3926313235739503 -1.4250614164863364 z"/><path fill="#fdc0e8" d="M 100.0,100.0 l -1.39263132357395 1.4250614164863367 a 1.992541604122076 1.992541604122076 0.0 0 1 -0.5638833179609481,-1.0478711440548418 l 1.9565146415348982 -0.37719027243149483 z"/><path fill="#f9ad87" d="M 100.0,100.0 l -1.9565146415348982 0.37719027243149483 a 1.992541604122076 1.992541604122076 0.0 0 1 -0.028166312091763013,-0.20037523780790145 l 1.9846809536266612 -0.17681503462359338 z"/><path fill="#fc8f41" d="M 100.0,100.0 l -1.9846809536266612 0.17681503462359338 a 1.992541604122076 1.992541604122076 0.0 0 1 -0.006602238898127721,-0.10601043501551077 l 1.991283192524789 -0.07080459960808261 z"/><path fill="#ff9324" d="M 100.0,100.0 l -1.991283192524789 0.07080459960808261 a 1.992541604122076 1.992541604122076 0.0 0 1 0.02250289731262911,-0.37760452356781454 l 1.9687802952121598 0.30679992395973193 z"/><path fill="#9c4200" d="M 100.0,100.0 l -1.9687802952121598 -0.30679992395973193 a 1.992541604122076 1.992541604122076 0.0 0 1 0.18429549457403582,-0.5796740127405473 l 1.784484800638124 0.8864739367002793 z"/><path fill="#900600" d="M 100.0,100.0 l -1.784484800638124 -0.8864739367002793 a 1.992541604122076 1.992541604122076 0.0 0 1 1.1073631134700213,-0.9874866458424801 l 0.6771216871681027 1.8739605825427594 z"/><path fill="#894728" d="M 100.0,100.0 l -0.6771216871681027 -1.8739605825427594 a 1.992541604122076 1.992541604122076 0.0 0 1 0.8766323762255803,-0.10856748260769034 l -0.19951068905747757 1.9825280651504498 z"/><path fill="#461626" d="M 100.0,100.0 l 0.19951068905747757 -1.9825280651504498 a 1.992541604122076 1.992541604122076 0.0 0 1 0.5919576805604881,0.15392207586471662 l -0.7914683696179657 1.8286059892857331 z"/><path fill="#ff8440" d="M 100.0,100.0 l 0.7914683696179657 -1.8286059892857331 a 1.992541604122076 1.992541604122076 0.0 0 1 0.8182411646104201,0.6542733023645142 l -1.6097095342283858 1.174332686921219 z"/><path fill="#f94100" d="M 100.0,100.0 l 1.6097095342283858 -1.174332686921219 a 1.992541604122076 1.992541604122076 0.0 0 1 0.19800204053218362,0.33623907244009266 l -1.8077115747605694 0.8380936144811263 z"/><path fill="#fdc0e8" d="M 100.0,100.0 l 1.8077115747605694 -0.8380936144811263 a 1.992541604122076 1.992541604122076 0.0 0 1 0.03148546243125594,0.07155835596904203 l -1.8391970371918254 0.7665352585120843 z"/><path fill="#f9ad87" d="M 100.0,100.0 l 1.8391970371918254 -0.7665352585120843 a 1.992541604122076 1.992541604122076 0.0 0 1 0.13289457126793836,0.48179549662421894 l -1.9720916084597637 0.2847397618878653 z"/><path fill="#fc8f41" d="M 100.0,100.0 l 1.9720916084597637 -0.2847397618878653 a 1.992541604122076 1.992541604122076 0.0 0 1 0.012065650624536017,0.46733772294015974 l -1.9841572590842997 -0.1825979610522944 z"/><path fill="#ff9324" d="M 100.0,100.0 l 1.9841572590842997 0.18259796105229392 a 1.992541604122076 1.992541604122076 0.0 0 1 -0.11017459728929713,0.49446261780981443 l -1.8739826617950026 -0.6770605788621084 z"/><path fill="#9c4200" d="M 100.0,100.0 l 1.8739826617950026 0.6770605788621079 a 1.992541604122076 1.992541604122076 0.0 0 1 -0.10941359258193661,0.24842202180303152 l -1.764569069213066 -0.9254826006651394 z"/><path fill="#900600" d="M 100.0,100.0 l 1.7645690692130662 0.925482600665139 a 1.992541604122076 1.992541604122076 0.0 0 1 -0.16519288882280447,0.2628851360887804 l -1.5993761803902617 -1.1883677367539194 z"/><path fill="#894728" d="M 100.0,100.0 l 1.599376180390262 1.188367736753919 a 1.992541604122076 1.992541604122076 0.0 0 1 -0.7819943151127263,0.6288028470033662 l -0.8173818652775356 -1.8171705837572851 z"/><path fill="#461626" d="M 100.0,100.0 l 0.8173818652775361 1.817170583757285 a 1.992541604122076 1.992541604122076 0.0 0 1 -0.04430740757433027,0.01928740024460085 l -0.7730744577032058 -1.8364579840018858 z"/><path fill="#ff8440" d="M 100.0,100.0 l 0.7730744577032063 1.8364579840018855 a 1.992541604122076 1.992541604122076 0.0 0 1 -1.1199021229941575,0.1256665316051655 l 0.34682766529095127 -1.962124515607051 z"/><path fill="#f94100" d="M 100.0,100.0 l -0.34682766529095077 1.962124515607051 a 1.992541604122076 1.992541604122076 0.0 0 1 -0.08454575939893588,-0.016838158119111934 l 0.43137342468988665 -1.945286357487939 z"/><path fill="#f94100" d="M 103.59216151295942,100.5181607920388 l 12.39335003791871 1.7877113956302713 a 16.1509636272615 16.1509636272615 0.0 0 1 -3.621413575285205,8.085600630900146 l -9.585717268223908 -8.056367770287055 a 3.629340841198743 3.629340841198743 0.0 0 0 0.8137808055904028,-1.8169442562433613 z"/><path fill="#fdc0e8" d="M 102.77838070736902,102.33510504828216 l 9.585717268223908 8.056367770287055 a 16.1509636272615 16.1509636272615 0.0 0 1 -8.127577453261402,5.193953706007768 l -3.2845168331942785 -12.083169549787401 a 3.629340841198743 3.629340841198743 0.0 0 0 1.826377018231773,-1.1671519265074224 z"/><path fill="#f9ad87" d="M 100.95200368913724,103.50225697478959 l 3.284516833194282 12.0831695497874 a 16.1509636272615 16.1509636272615 0.0 0 1 -1.6025236823096227,0.34930556403620017 l -2.042101982990343 -12.353981410359697 a 3.629340841198743 3.629340841198743 0.0 0 0 0.3601088321056837,-0.07849370346390261 z"/><path fill="#fc8f41" d="M 100.59189485703156,103.58075067825348 l 2.0421019829903426 12.353981410359697 a 16.1509636272615 16.1509636272615 0.0 0 1 -0.8528686762554603,0.1177197039748279 l -1.3808844794047503 -12.445247898333932 a 3.629340841198743 3.629340841198743 0.0 0 0 0.19165117266986792,-0.026453216000592583 z"/><path fill="#ff9324" d="M 100.4002436843617,103.60720389425407 l 1.3808844794047503 12.44524789833393 a 16.1509636272615 16.1509636272615 0.0 0 1 -3.065817386901575,0.04733701624685871 l 0.9960021098843648 -12.481947644240137 a 3.629340841198743 3.629340841198743 0.0 0 0 0.6889307976124599,-0.01063727034065165 z"/><path fill="#9c4200" d="M 99.71131288674924,103.61784116459472 l -0.9960021098843648 12.481947644240138 a 16.1509636272615 16.1509636272615 0.0 0 1 -4.797351117390945,-1.1377564807940868 l 4.715323287901992 -11.599860494291091 a 3.629340841198743 3.629340841198743 0.0 0 0 1.078029939373318,0.25566933084503995 z"/><path fill="#900600" d="M 98.63328294737592,103.36217183374968 l -4.715323287901991 11.599860494291093 a 16.1509636272615 16.1509636272615 0.0 0 1 -8.654031335420413,-8.351297297010442 l 11.42467626904513 -5.125213102297611 a 3.629340841198743 3.629340841198743 0.0 0 0 1.944678354277274,1.8766499050169598 z"/><path fill="#894728" d="M 96.68860459309865,101.48552192873272 l -11.42467626904513 5.12521310229761 a 16.1509636272615 16.1509636272615 0.0 0 1 -1.409709145104232,-7.0198655330890105 l 12.517604626784932 0.31719332265747924 a 3.629340841198743 3.629340841198743 0.0 0 0 0.31678078736442883,1.5774591081339218 z"/><path fill="#461626" d="M 96.37182380573421,99.9080628205988 l -12.517604626784932 -0.3171933226574791 a 16.1509636272615 16.1509636272615 0.0 0 1 0.8847929221916235,-4.8782010025852625 l 11.831636688824798 4.099196318804578 a 3.629340841198743 3.629340841198743 0.0 0 0 -0.1988249842314902,1.0961980064381636 z"/><path fill="#ff8440" d="M 96.5706487899657,98.81186481416064 l -11.8316366888248 -4.0991963188045775 a 16.1509636272615 16.1509636272615 0.0 0 1 4.791738236192717,-7.010978850436715 l 8.116667101382768 9.534713019371726 a 3.629340841198743 3.629340841198743 0.0 0 0 -1.076768648750687,1.575462149869567 z"/><path fill="#f94100" d="M 97.64741743871639,97.23640266429108 l -8.116667101382768 -9.534713019371726 a 16.1509636272615 16.1509636272615 0.0 0 1 2.59760406257376,-1.8045553691495329 l 6.102779944569958 10.933760292991645 a 3.629340841198743 3.629340841198743 0.0 0 0 -0.5837169057609497,0.4055080955296142 z"/><path fill="#fdc0e8" d="M 98.23113434447734,96.83089456876147 l -6.102779944569957 -10.933760292991646 a 16.1509636272615 16.1509636272615 0.0 0 1 0.559288903960911,-0.29793514369593943 l 5.669170851920638 11.16474536423377 a 3.629340841198743 3.629340841198743 0.0 0 0 -0.12567981131159223,0.06695007245381523 z"/><path fill="#f9ad87" d="M 98.35681415578894,96.76394449630764 l -5.669170851920639 -11.16474536423377 a 16.1509636272615 16.1509636272615 0.0 0 1 3.813652562212485,-1.3666559806725296 l 2.7124978060769145 12.224295188209176 a 3.629340841198743 3.629340841198743 0.0 0 0 -0.8569795163687605,0.30710615669712427 z"/><path fill="#fc8f41" d="M 99.21379367215769,96.45683833961053 l -2.7124978060769145 -12.224295188209174 a 16.1509636272615 16.1509636272615 0.0 0 1 3.770140962181716,-0.38122570253804255 l -0.21044128710755916 12.519854298717958 a 3.629340841198743 3.629340841198743 0.0 0 0 -0.8472018689972427,0.08566659202925875 z"/><path fill="#ff9324" d="M 100.06099554115494,96.37117174758126 l 0.21044128710755916 -12.51985429871796 a 16.1509636272615 16.1509636272615 0.0 0 1 4.063596570763693,0.5903692904245474 l -3.3608925287879696 12.062149004484372 a 3.629340841198743 3.629340841198743 0.0 0 0 -0.9131453290832825,-0.13266399619095903 z"/><path fill="#9c4200" d="M 100.97414087023822,96.50383574377223 l 3.3608925287879696 -12.06214900448437 a 16.1509636272615 16.1509636272615 0.0 0 1 2.074401801698686,0.7335783053467448 l -4.969148077314897 11.493415705618748 a 3.629340841198743 3.629340841198743 0.0 0 0 -0.4661462531717583,-0.16484500648112288 z"/><path fill="#900600" d="M 101.44028712340997,96.66868075025334 l 4.969148077314897 -11.493415705618748 a 16.1509636272615 16.1509636272615 0.0 0 1 2.225167471127617,1.1756594266579086 l -6.6942902021010156 10.581942916426094 a 3.629340841198743 3.629340841198743 0.0 0 0 -0.500025346341499,-0.2641866374652544 z"/><path fill="#894728" d="M 101.94031246975148,96.9328673877186 l 6.694290202101015 -10.581942916426094 a 16.1509636272615 16.1509636272615 0.0 0 1 5.557292880208245,5.939099735715493 l -11.002783909571441 5.9774395384413435 a 3.629340841198743 3.629340841198743 0.0 0 0 -1.2487991727378196,-1.3345963577307427 z"/><path fill="#461626" d="M 103.1891116424893,98.26746374544935 l 11.00278390957144 -5.9774395384413435 a 16.1509636272615 16.1509636272615 0.0 0 1 0.18279604385730686,0.3464258602919337 l -11.144503200184063 5.7088602730784395 a 3.629340841198743 3.629340841198743 0.0 0 0 -0.041076753244683406,-0.07784659492903012 z"/><path fill="#ff8440" d="M 103.23018839573398,98.34531034037838 l 11.144503200184062 -5.7088602730784395 a 16.1509636272615 16.1509636272615 0.0 0 1 1.695597947869059,8.975821643042632 l -12.459077264619523 -1.2499723639692757 a 3.629340841198743 3.629340841198743 0.0 0 0 -0.38102388343359683,-2.016989005994917 z"/><path fill="#f94100" d="M 103.61121227916757,100.36229934637329 l 12.459077264619523 1.2499723639692726 a 16.1509636272615 16.1509636272615 0.0 0 1 -0.08477799290897181,0.6936004773265405 l -12.393350037918708 -1.7877113956302964 a 3.629340841198743 3.629340841198743 0.0 0 0 0.019050766208156045,-0.15586144566551674 z"/><path fill="#f94100" d="M 101.76560742106376,74.05770709931946 l 0.09312906181255934 -1.368357070934492 a 27.37382880024005 27.37382880024005 0.0 0 1 14.127000177120626,5.089427533997393 l -0.8009401393060305 1.1133593260843284 a 26.002306253677105 26.002306253677105 0.0 0 0 -13.419189099627156,-4.834429789147229 z"/><path fill="#fdc0e8" d="M 115.18479652069091,78.8921368884667 l 0.8009401393060279 -1.1133593260843286 a 27.37382880024005 27.37382880024005 0.0 0 1 9.81450710887243,13.073877213358875 l -1.2926805487844 0.4583133148021936 a 26.002306253677105 26.002306253677105 0.0 0 0 -9.322766699394059,-12.41883120207674 z"/><path fill="#f9ad87" d="M 124.50756322008496,91.31096809054341 l 1.2926805487843986 -0.458313314802195 a 27.37382880024005 27.37382880024005 0.0 0 1 0.7946919181651331,2.6638354504286004 l -1.3324973347842182 0.3248460381834253 a 26.002306253677105 26.002306253677105 0.0 0 0 -0.7548751321653135,-2.5303681738098307 z"/><path fill="#fc8f41" d="M 125.26243835225027,93.84133626435327 l 1.3324973347842175 -0.3248460381834252 a 27.37382880024005 27.37382880024005 0.0 0 1 0.30770560872795794,1.426396516606351 l -1.3479144393169449 0.2533786889448235 a 26.002306253677105 26.002306253677105 0.0 0 0 -0.29228850419523056,-1.3549291673677493 z"/><path fill="#ff9324" d="M 125.5547268564455,95.19626543172097 l 1.3479144393169442 -0.2533786889448231 a 27.37382880024005 27.37382880024005 0.0 0 1 0.4709319007911581,5.175407964519225 l -1.3715097399431073 -0.005926969857912745 a 26.002306253677105 26.002306253677105 0.0 0 0 -0.447336600164995,-4.916102305716489 z"/><path fill="#9c4200" d="M 126.00206345661049,100.11236773743745 l 1.3715097399431087 0.005926969857912867 a 27.37382880024005 27.37382880024005 0.0 0 1 -1.3111666584746877,8.252933913925828 l -1.3058158011257568 -0.4194272156892156 a 26.002306253677105 26.002306253677105 0.0 0 0 1.2454727196573359,-7.839433668094526 z"/><path fill="#900600" d="M 124.75659073695316,107.951801405532 l 1.305815801125757 0.41942721568921537 a 27.37382880024005 27.37382880024005 0.0 0 1 -13.010777221603078,15.690805278060044 l -0.6539313154750062 -1.205590282961687 a 26.002306253677105 26.002306253677105 0.0 0 0 12.358892735952328,-14.904642210787571 z"/><path fill="#894728" d="M 112.39769800100083,122.85644361631957 l 0.653931315475005 1.2055902829616865 a 27.37382880024005 27.37382880024005 0.0 0 1 -11.684304519850139,3.277624585882464 l -0.0685076538153222 -1.369810496783856 a 26.002306253677105 26.002306253677105 0.0 0 0 11.098880858190457,-3.1134043720602946 z"/><path fill="#461626" d="M 101.29881714281038,125.96984798837985 l 0.06850765381532271 1.3698104967838545 a 27.37382880024005 27.37382880024005 0.0 0 1 -8.35731989220099,-0.8733313552296222 l 0.35022268692868597 -1.3260536057380818 a 26.002306253677105 26.002306253677105 0.0 0 0 7.938589551456983,0.8295744641838496 z"/><path fill="#ff8440" d="M 93.36022759135341,125.140273524196 l -0.3502226869286855 1.3260536057380794 a 27.37382880024005 27.37382880024005 0.0 0 1 -12.46004548829654,-7.204384744219426 l 0.9745136271222172 -0.9650892633759902 a 26.002306253677105 26.002306253677105 0.0 0 0 11.835754548103008,6.843420401857337 z"/><path fill="#f94100" d="M 81.52447304325041,118.29685312233867 l -0.9745136271222165 0.9650892633759903 a 27.37382880024005 27.37382880024005 0.0 0 1 -3.3810498854174513,-4.160028229953454 l 1.1439158025629936 -0.7566576057750094 a 26.002306253677105 26.002306253677105 0.0 0 0 3.211647709976674,3.9515965723524733 z"/><path fill="#fdc0e8" d="M 78.31282533327374,114.3452565499862 l -1.1439158025629947 0.7566576057750095 a 27.37382880024005 27.37382880024005 0.0 0 1 -0.5748472035804777,-0.9072466767890913 l 1.172717615648505 -0.7112014409983942 a 26.002306253677105 26.002306253677105 0.0 0 0 0.5460453904949674,0.861790512012476 z"/><path fill="#f9ad87" d="M 77.76677994277877,113.48346603797374 l -1.1727176156485055 0.7112014409983954 a 27.37382880024005 27.37382880024005 0.0 0 1 -2.796030544702304,-6.271072038126059 l 1.3128083191055353 -0.3969992607270365 a 26.002306253677105 26.002306253677105 0.0 0 0 2.6559398412452744,5.9568698578547 z"/><path fill="#fc8f41" d="M 75.1108401015335,107.52659618011904 l -1.3128083191055335 0.3969992607270369 a 27.37382880024005 27.37382880024005 0.0 0 1 -1.1250367720833143,-6.323188779961564 l 1.369176513335315 -0.08018585325021821 a 26.002306253677105 26.002306253677105 0.0 0 0 1.0686685778535328,6.0063753724847455 z"/><path fill="#ff9324" d="M 74.04217152367997,101.5202208076343 l -1.3691765133353129 0.08018585325021815 a 27.37382880024005 27.37382880024005 0.0 0 1 0.4796069855018543,-6.94303930700824 l 1.3451465612630216 0.26768418790204773 a 26.002306253677105 26.002306253677105 0.0 0 0 -0.455577033429563,6.595169265855974 z"/><path fill="#9c4200" d="M 74.49774855710953,94.92505154177833 l -1.3451465612630216 -0.267684187902047 a 27.37382880024005 27.37382880024005 0.0 0 1 0.9752867154826887,-3.5994230823698494 l 1.2962813575894998 0.4480276081855141 a 26.002306253677105 26.002306253677105 0.0 0 0 -0.926421511809167,3.419079662086382 z"/><path fill="#900600" d="M 75.4241700689187,91.50597187969196 l -1.2962813575895005 -0.4480276081855129 a 27.37382880024005 27.37382880024005 0.0 0 1 1.7032100113418351,-3.9105982476927585 l 1.2109447044989174 0.6439619696663268 a 26.002306253677105 26.002306253677105 0.0 0 0 -1.6178733582512521,3.7146638862119445 z"/><path fill="#894728" d="M 77.04204342716994,87.79130799348002 l -1.210944704498919 -0.6439619696663273 a 27.37382880024005 27.37382880024005 0.0 0 1 9.328867920536984,-10.149517946355115 l 0.743536481108114 1.1524875691268335 a 26.002306253677105 26.002306253677105 0.0 0 0 -8.861459697146179,9.640992346894608 z"/><path fill="#461626" d="M 85.90350312431613,78.15031564658541 l -0.743536481108114 -1.1524875691268315 a 27.37382880024005 27.37382880024005 0.0 0 1 0.5621750077691949,-0.3531115086244674 l 0.7153695884203479 1.1701796647070104 a 26.002306253677105 26.002306253677105 0.0 0 0 -0.5340081150814289,0.33541941304428846 z"/><path fill="#ff8440" d="M 86.43751123939755,77.81489623354113 l -0.7153695884203478 -1.1701796647070106 a 27.37382880024005 27.37382880024005 0.0 0 1 14.953551694479824,-4.01020471883351 l -0.03385455007480331 1.3711046514288192 a 26.002306253677105 26.002306253677105 0.0 0 0 -14.204327555984673,3.809279732111701 z"/><path fill="#f94100" d="M 100.64183879538221,74.00561650142943 l 0.03385455007480381 -1.3711046514288188 a 27.37382880024005 27.37382880024005 0.0 0 1 1.1830431374193573,0.05483817838435412 l -0.0931290618125622 1.3683570709344934 a 26.002306253677105 26.002306253677105 0.0 0 0 -1.1237686256815989,-0.05209059789002879 z"/><path fill="#f94100" d="M 70.36021755841256,101.40468167103039 l -4.647790903721334 0.22026702477001942 a 34.32605634461834 34.32605634461834 0.0 0 1 4.301435379554229,-18.331524469209096 l 4.064717496084786 2.2646301075314756 a 29.673048946503027 29.673048946503027 0.0 0 0 -3.7183619719176804,15.8466273369076 z"/><path fill="#fdc0e8" d="M 74.07857953033023,85.55805433412279 l -4.0647174960847865 -2.2646301075314783 a 34.32605634461834 34.32605634461834 0.0 0 1 14.8694232415662,-14.11165065384407 l 2.0491193261667746 4.177509764685853 a 29.673048946503027 29.673048946503027 0.0 0 0 -12.853825071648188,12.198770996689694 z"/><path fill="#f9ad87" d="M 86.93240460197842,73.3592833374331 l -2.049119326166776 -4.17750976468585 a 34.32605634461834 34.32605634461834 0.0 0 1 3.2035408602468425,-1.3742328242771586 l 1.6148690536262116 4.363791446271943 a 29.673048946503027 29.673048946503027 0.0 0 0 -2.769290587706278,1.187951142691066 z"/><path fill="#fc8f41" d="M 89.70169518968468,72.17133219474204 l -1.6148690536262138 -4.363791446271944 a 34.32605634461834 34.32605634461834 0.0 0 1 1.732390526549422,-0.5890873076395122 l 1.380037942952379 4.443644126494334 a 29.673048946503027 29.673048946503027 0.0 0 0 -1.4975594158755872,0.509234627417122 z"/><path fill="#ff9324" d="M 91.19925460556027,71.66209756732492 l -1.3800379429523806 -4.443644126494331 a 34.32605634461834 34.32605634461834 0.0 0 1 6.378781980032814,-1.3333025516291164 l 0.5153735187587563 4.624377577910138 a 29.673048946503027 29.673048946503027 0.0 0 0 -5.5141175558391895,1.1525691002133094 z"/><path fill="#9c4200" d="M 96.71337216139946,70.50952846711161 l -0.5153735187587577 -4.6243775779101375 a 34.32605634461834 34.32605634461834 0.0 0 1 10.469404253591062,0.44254769267099103 l -0.9037879181610577 4.56438881405845 a 29.673048946503027 29.673048946503027 0.0 0 0 -9.050242816671247,-0.38255892881930365 z"/><path fill="#900600" d="M 105.76361497807069,70.89208739593091 l 0.9037879181610566 -4.564388814058451 a 34.32605634461834 34.32605634461834 0.0 0 1 21.422334146481408,13.943013112536239 l -3.8076542483840967 2.674368518300785 a 29.673048946503027 29.673048946503027 0.0 0 0 -18.51846781625837,-12.052992816778573 z"/><path fill="#894728" d="M 124.28208279432906,82.9450802127095 l 3.8076542483840967 -2.674368518300787 a 34.32605634461834 34.32605634461834 0.0 0 1 5.768526830367978,14.081624038416523 l -4.589596623251083 0.7655590654927025 a 29.673048946503027 29.673048946503027 0.0 0 0 -4.986584455500992,-12.172814585608439 z"/><path fill="#461626" d="M 129.26866724983003,95.11789479831793 l 4.589596623251084 -0.7655590654927003 a 34.32605634461834 34.32605634461834 0.0 0 1 0.11790051279724079,10.536263023227884 l -4.6055784171623735 -0.6626652928016483 a 29.673048946503027 29.673048946503027 0.0 0 0 -0.10191871888595117,-9.108038664933535 z"/><path fill="#ff8440" d="M 129.37058596871597,104.22593346325147 l 4.605578417162378 0.6626652928016457 a 34.32605634461834 34.32605634461834 0.0 0 1 -7.176425233628728,16.560226982091443 l -3.6327908831428743 -2.907457350722421 a 29.673048946503027 29.673048946503027 0.0 0 0 6.203637699609224,-14.315434924170667 z"/><path fill="#f94100" d="M 123.16694826910677,118.5413683874221 l 3.632790883142874 2.907457350722419 a 34.32605634461834 34.32605634461834 0.0 0 1 -4.69411755540478,4.811784269831671 l -2.9964881429259442 -3.5597101927291845 a 29.673048946503027 29.673048946503027 0.0 0 0 4.05781481518785,-4.159531427824906 z"/><path fill="#fdc0e8" d="M 119.1091334539189,122.70089981524701 l 2.9964881429259447 3.5597101927291823 a 34.32605634461834 34.32605634461834 0.0 0 1 -1.047171434424094,0.8469502092538748 l -2.85454068521182 -3.674517019063355 a 29.673048946503027 29.673048946503027 0.0 0 0 0.9052239767099692,-0.7321433829197019 z"/><path fill="#f9ad87" d="M 118.20390947720895,123.4330431981667 l 2.8545406852118225 3.674517019063353 a 34.32605634461834 34.32605634461834 0.0 0 1 -7.408135192374627,4.387630612362441 l -1.8503441206460316 -4.26927446788169 a 29.673048946503027 29.673048946503027 0.0 0 0 6.403938627808836,-3.7928731635441046 z"/><path fill="#fc8f41" d="M 111.7999708494001,127.2259163617108 l 1.850344120646032 4.269274467881688 a 34.32605634461834 34.32605634461834 0.0 0 1 -7.714138808659351,2.3136831054396634 l -0.8046677811789769 -4.582901658212659 a 29.673048946503027 29.673048946503027 0.0 0 0 6.6684624691922965,-2.0000559151086925 z"/><path fill="#ff9324" d="M 105.13150838020783,129.22597227681948 l 0.804667781178978 4.582901658212656 a 34.32605634461834 34.32605634461834 0.0 0 1 -8.717765017480902,0.40429469357584935 l 0.3770533205440607 -4.637705104939563 a 29.673048946503027 29.673048946503027 0.0 0 0 7.536043915757864,-0.34949124684894173 z"/><path fill="#9c4200" d="M 97.59546446445,129.57546352366842 l -0.3770533205440596 4.637705104939566 a 34.32605634461834 34.32605634461834 0.0 0 1 -4.624317616357785,-0.6955509702002223 l 1.0038944544082815 -4.543420932659014 a 29.673048946503027 29.673048946503027 0.0 0 0 3.997476482493563,0.6012667979196706 z"/><path fill="#900600" d="M 93.59798798195642,128.97419672574875 l -1.0038944544082804 4.543420932659014 a 34.32605634461834 34.32605634461834 0.0 0 1 -5.116953712298062,-1.5573905477141103 l 1.697513996370878 -4.33231163226294 a 29.673048946503027 29.673048946503027 0.0 0 0 4.4233341703354645,1.3462812473180357 z"/><path fill="#894728" d="M 89.17465381162097,127.62791547843072 l -1.6975139963708767 4.3323116322629405 a 34.32605634461834 34.32605634461834 0.0 0 1 -13.988639913787384,-10.15613330473213 l 3.593719151864324 -2.955615080560964 a 29.673048946503027 29.673048946503027 0.0 0 0 12.092434758293937,8.779436753030154 z"/><path fill="#461626" d="M 77.08221905332704,118.84847872540058 l -3.5937191518643226 2.9556150805609627 a 34.32605634461834 34.32605634461834 0.0 0 1 -0.5209604037656894,-0.6493254695948587 l 3.6643370110355207 -2.8675969236402565 a 29.673048946503027 29.673048946503027 0.0 0 0 0.4503425445944913,0.5613073126741526 z"/><path fill="#ff8440" d="M 76.63187650873255,118.28717141272642 l -3.6643370110355207 2.8675969236402588 a 34.32605634461834 34.32605634461834 0.0 0 1 -7.152736851129852,-18.048254843596627 l 4.633913508578537 -0.4210979006468474 a 29.673048946503027 29.673048946503027 0.0 0 0 6.183160353586835,15.601755820603215 z"/><path fill="#f94100" d="M 70.44871615514572,102.68541559212322 l -4.633913508578535 0.4210979006468477 a 34.32605634461834 34.32605634461834 0.0 0 1 -0.10237599187596924,-1.481564796969674 l 4.6477909037213365 -0.22026702477001825 a 29.673048946503027 29.673048946503027 0.0 0 0 0.08849859673316729,1.2807339210928443 z"/><path fill="#f94100" d="M 74.32475729260787,77.2171104534473 l -18.581571386921382 -16.488330542158014 a 59.16835574050189 59.16835574050189 0.0 0 1 27.37447234658519,-17.437516964299856 l 7.088183927910073 23.80960915006447 a 34.32605634461834 34.32605634461834 0.0 0 0 -15.88108488757388,10.1162383563934 z"/><path fill="#fdc0e8" d="M 90.20584218018175,67.10087209705392 l -7.088183927910073 -23.809609150064468 a 59.16835574050189 59.16835574050189 0.0 0 1 35.3322775912513,0.4904643260361965 l -7.746350634954336 23.603683846278287 a 34.32605634461834 34.32605634461834 0.0 0 0 -20.49774302838689,-0.2845390222500157 z"/><path fill="#f9ad87" d="M 110.70358520856864,67.38541111930394 l 7.746350634954337 -23.60368384627829 a 59.16835574050189 59.16835574050189 0.0 0 1 5.606540556645931,2.1610783469226043 l -10.10030077164915 22.696338109856832 a 34.32605634461834 34.32605634461834 0.0 0 0 -3.252590419951117,-1.253732610501146 z"/><path fill="#fc8f41" d="M 113.95617562851974,68.63914372980508 l 10.10030077164915 -22.696338109856836 a 59.16835574050189 59.16835574050189 0.0 0 1 2.8464076679733985,1.358720494647084 l -11.295387412228731 22.125868626618505 a 34.32605634461834 34.32605634461834 0.0 0 0 -1.6513210273938181,-0.7882510114087538 z"/><path fill="#ff9324" d="M 115.60749665591356,69.42739474121383 l 11.29538741222873 -22.125868626618505 a 59.16835574050189 59.16835574050189 0.0 0 1 9.47457189495366,6.03397968812876 l -15.273360920475927 19.592454809635136 a 34.32605634461834 34.32605634461834 0.0 0 0 -5.496598386706463,-3.5005658711453904 z"/><path fill="#9c4200" d="M 121.10409504262003,72.92796061235923 l 15.273360920475929 -19.592454809635136 a 59.16835574050189 59.16835574050189 0.0 0 1 12.383387382965685,13.149206980612846 l -20.472623483255926 14.071656867176454 a 34.32605634461834 34.32605634461834 0.0 0 0 -7.184124820185687,-7.628409038154164 z"/><path fill="#900600" d="M 128.2882198628057,80.55636965051339 l 20.472623483255926 -14.071656867176452 a 59.16835574050189 59.16835574050189 0.0 0 1 9.643973528325532,42.99007939928546 l -24.521721599272055 -3.9780659977570316 a 34.32605634461834 34.32605634461834 0.0 0 0 -5.594875412309403,-24.94035653435198 z"/><path fill="#894728" d="M 133.88309527511512,105.49672618486537 l 24.521721599272055 3.9780659977570245 a 59.16835574050189 59.16835574050189 0.0 0 1 -9.835034360006603,24.31678291443922 l -20.392405090771533 -14.187658506201487 a 34.32605634461834 34.32605634461834 0.0 0 0 5.70571785150608,-14.107190405994757 z"/><path fill="#461626" d="M 128.17737742360904,119.60391659086011 l 20.392405090771543 14.18765850620148 a 59.16835574050189 59.16835574050189 0.0 0 1 -12.53826610807668,13.140547660137827 l -15.128115477448944 -19.704820764870863 a 34.32605634461834 34.32605634461834 0.0 0 0 7.273976494754081,-7.623385401468443 z"/><path fill="#ff8440" d="M 120.90340092885496,127.22730199232855 l 15.128115477448953 19.704820764870856 a 59.16835574050189 59.16835574050189 0.0 0 1 -28.789039400469218,11.791303980811534 l -3.0408109181845884 -24.655492455730133 a 34.32605634461834 34.32605634461834 0.0 0 0 16.701734841204853,-6.840632289952257 z"/><path fill="#f94100" d="M 104.20166608765012,134.06793428228082 l 3.0408109181845964 24.655492455730133 a 59.16835574050189 59.16835574050189 0.0 0 1 -11.58364806774058,0.2854586509358228 l 1.8226748047823342 -24.775344514874625 a 34.32605634461834 34.32605634461834 0.0 0 0 6.720162344773648,-0.16560659179133097 z"/><path fill="#fdc0e8" d="M 97.48150374287648,134.23354087407213 l -1.8226748047823298 24.77534451487462 a 59.16835574050189 59.16835574050189 0.0 0 1 -2.311470402850227,-0.21571671625153144 l 2.79316382841126 -24.684774155385163 a 34.32605634461834 34.32605634461834 0.0 0 0 1.3409813792212968,0.1251463567620732 z"/><path fill="#f9ad87" d="M 96.1405223636552,134.10839451731005 l -2.793163828411254 24.684774155385163 a 59.16835574050189 59.16835574050189 0.0 0 1 -14.421336325396021,-3.5049983183168862 l 8.848075278975424 -23.213173051788935 a 34.32605634461834 34.32605634461834 0.0 0 0 8.366424874831852,2.033397214720658 z"/><path fill="#fc8f41" d="M 87.77409748882334,132.0749973025894 l -8.848075278975417 23.213173051788942 a 59.16835574050189 59.16835574050189 0.0 0 1 -12.30220298656114,-6.432005156987522 l 14.013251934575552 -20.512645112048098 a 34.32605634461834 34.32605634461834 0.0 0 0 7.137026330961005,3.7314772172466775 z"/><path fill="#ff9324" d="M 80.63707115786235,128.34352008534273 l -14.013251934575552 20.512645112048098 a 59.16835574050189 59.16835574050189 0.0 0 1 -11.241827435896054,-9.995804105731931 l 18.73322157754165 -16.31582816167921 a 34.32605634461834 34.32605634461834 0.0 0 0 6.521857792929957,5.798987155363044 z"/><path fill="#9c4200" d="M 74.11521336493237,122.54453292997967 l -18.73322157754166 16.315828161679192 a 59.16835574050189 59.16835574050189 0.0 0 1 -4.86771830077015,-6.42492996337571 l 20.77697138077944 -13.618270797608208 a 34.32605634461834 34.32605634461834 0.0 0 0 2.82396849753237,3.7273725993047258 z"/><path fill="#900600" d="M 71.29124486740002,118.81716033067495 l -20.776971380779436 13.618270797608206 a 59.16835574050189 59.16835574050189 0.0 0 1 -4.437988696743648,-8.081226994866595 l 22.640295830821312 -10.225304101473524 a 34.32605634461834 34.32605634461834 0.0 0 0 2.574664246701772,4.6882602987319135 z"/><path fill="#894728" d="M 68.71658062069824,114.12890003194302 l -22.640295830821312 10.225304101473524 a 59.16835574050189 59.16835574050189 0.0 0 1 -5.031710054887455,-29.369396338740252 l 24.752898861485342 2.1056678816455516 a 34.32605634461834 34.32605634461834 0.0 0 0 2.9191070242234254,17.038424355621178 z"/><path fill="#461626" d="M 65.79747359647482,97.09047567632184 l -24.752898861485345 -2.1056678816455525 a 59.16835574050189 59.16835574050189 0.0 0 1 0.1389579773501204,-1.428215032633124 l 24.6945562620743 2.705315193089883 a 34.32605634461834 34.32605634461834 0.0 0 0 -0.08061537793907547,0.8285677211887936 z"/><path fill="#ff8440" d="M 65.87808897441388,96.26190795513303 l -24.694556262074304 -2.705315193089883 a 59.16835574050189 59.16835574050189 0.0 0 1 12.902423573234433,-30.87676037721288 l 19.277372273650755 15.669165820100229 a 34.32605634461834 34.32605634461834 0.0 0 0 -7.485239584810884,17.912909750202534 z"/><path fill="#f94100" d="M 73.36332855922475,78.34899820493052 l -19.277372273650755 -15.66916582010023 a 59.16835574050189 59.16835574050189 0.0 0 1 1.6572296201125027,-1.9510524735410275 l 18.581571386921368 16.48833054215803 a 34.32605634461834 34.32605634461834 0.0 0 0 -0.9614287333831157,1.1318877514832266 z"/><path fill="#f94100" d="M 39.649797570233,73.81396289336587 l -5.1827337574497845 -2.2487954144698175 a 71.43602330631975 71.43602330631975 0.0 0 1 24.859187940217925,-30.291240303160542 l 3.216721550206614 4.644406580520958 a 65.78643836433065 65.78643836433065 0.0 0 0 -22.893175732974754,27.895629137109403 z"/><path fill="#fdc0e8" d="M 62.54297330320774,45.91833375625648 l -3.216721550206614 -4.644406580520959 a 71.43602330631975 71.43602330631975 0.0 0 1 40.724736078500186,-12.7099322856386 l -0.004032420503570222 5.649583502908413 a 65.78643836433065 65.78643836433065 0.0 0 0 -37.50398210779,11.704755363251145 z"/><path fill="#f9ad87" d="M 100.04695541099773,34.21357839300535 l 0.004032420503575131 -5.649583502908414 a 71.43602330631975 71.43602330631975 0.0 0 1 7.244798783476283,0.37351906072396535 l -0.5769941311430253 5.620043397463817 a 65.78643836433065 65.78643836433065 0.0 0 0 -6.6718370728368335,-0.3439789552793684 z"/><path fill="#fc8f41" d="M 106.71879248383453,34.55755734828472 l 0.5769941311430239 -5.6200433974638075 a 71.43602330631975 71.43602330631975 0.0 0 1 3.7763953124954583,0.48974192521859994 l -0.8756538983726063 5.58131169771184 a 65.78643836433065 65.78643836433065 0.0 0 0 -3.477735545265876,-0.45101022546663216 z"/><path fill="#ff9324" d="M 110.19652802910039,35.00856757375135 l 0.8756538983726063 -5.581311697711828 a 71.43602330631975 71.43602330631975 0.0 0 1 13.137872799394229,3.364272366724765 l -1.9146748978892383 5.315245060403406 a 65.78643836433065 65.78643836433065 0.0 0 0 -12.098851799877597,-3.0982057294163425 z"/><path fill="#9c4200" d="M 122.29537982897799,38.10677330316768 l 1.9146748978892398 -5.315245060403411 a 71.43602330631975 71.43602330631975 0.0 0 1 19.14832728432331,10.435624944760937 l -3.429038330829961 4.489933868382572 a 65.78643836433065 65.78643836433065 0.0 0 0 -17.63396385138259,-9.610313752740097 z"/><path fill="#900600" d="M 139.9293436803606,47.71708705590782 l 3.429038330829966 -4.489933868382571 a 71.43602330631975 71.43602330631975 0.0 0 1 27.214934186540876,45.7043118291953 l -5.581356940702861 0.8753654763686072 a 65.78643836433065 65.78643836433065 0.0 0 0 -25.06261557666798,-42.08974343718133 z"/><path fill="#894728" d="M 164.99195925702853,89.80683049308905 l 5.58135694070286 -0.8753654763686066 a 71.43602330631975 71.43602330631975 0.0 0 1 -2.150099133792266,31.595804466630835 l -5.411314332956209 -1.6234183708128462 a 65.78643836433065 65.78643836433065 0.0 0 0 1.9800565260456153,-29.09702061944938 z"/><path fill="#461626" d="M 163.01190273098294,118.90385111253843 l 5.411314332956218 1.6234183708128458 a 71.43602330631975 71.43602330631975 0.0 0 1 -9.450197383924015,19.787595959083273 l -4.6639366043541415 -3.1883389668157207 a 65.78643836433065 65.78643836433065 0.0 0 0 8.702819655321939,-18.2226753630804 z"/><path fill="#ff8440" d="M 154.30908307566102,137.12652647561882 l 4.663936604354147 3.1883389668157216 a 71.43602330631975 71.43602330631975 0.0 0 1 -28.603291394651357,24.344124881372935 l -2.4018184617803726 -5.11361692869157 a 65.78643836433065 65.78643836433065 0.0 0 0 26.341173252077585,-22.418846919497085 z"/><path fill="#f94100" d="M 127.96790982358341,159.54537339511594 l 2.4018184617803744 5.1136169286915685 a 71.43602330631975 71.43602330631975 0.0 0 1 -13.18392165895989,4.678975296917992 l -1.359155644990647 -5.483658081011264 a 65.78643836433065 65.78643836433065 0.0 0 0 12.141258842170163,-4.308934144598297 z"/><path fill="#fdc0e8" d="M 115.82665098141327,163.85430753971423 l 1.3591556449906508 5.483658081011258 a 71.43602330631975 71.43602330631975 0.0 0 1 -2.7332313305872944,0.6207971837996507 l -1.1429954802227336 -5.532754408876329 a 65.78643836433065 65.78643836433065 0.0 0 0 2.5170711658193774,-0.57170085593458 z"/><path fill="#f9ad87" d="M 113.3095798155939,164.4260083956488 l 1.1429954802227353 5.532754408876327 a 71.43602330631975 71.43602330631975 0.0 0 1 -17.863802620219133,1.3957672125824576 l 0.2697801142010263 -5.643139968734758 a 65.78643836433065 65.78643836433065 0.0 0 0 16.451027025795373,-1.285381652724027 z"/><path fill="#fc8f41" d="M 96.85855278979861,165.71139004837283 l -0.2697801142010242 5.643139968734757 a 71.43602330631975 71.43602330631975 0.0 0 1 -16.531835277748534,-2.7587598860875167 l 1.577215821366849 -5.4249608541979555 a 65.78643836433065 65.78643836433065 0.0 0 0 15.224399570582708,2.540580771550715 z"/><path fill="#ff9324" d="M 81.63415321921585,163.17080927682213 l -1.577215821366846 5.424960854197948 a 71.43602330631975 71.43602330631975 0.0 0 1 -16.65390689254797,-7.246220420976286 l 2.894305676746633 -4.851886712022683 a 65.78643836433065 65.78643836433065 0.0 0 0 15.336817037168181,6.6731462788010205 z"/><path fill="#9c4200" d="M 66.29733618204769,156.4976629980211 l -2.894305676746628 4.851886712022683 a 71.43602330631975 71.43602330631975 0.0 0 1 -7.998800044136159,-5.5434320789079905 l 3.526898284674388 -4.413479183853802 a 65.78643836433065 65.78643836433065 0.0 0 0 7.3662074362083985,5.10502455073911 z"/><path fill="#900600" d="M 58.93112874583931,151.39263844728202 l -3.526898284674392 4.413479183853806 a 71.43602330631975 71.43602330631975 0.0 0 1 -8.127919229264894,-7.605307798669433 l 4.1697024045293745 -3.8120062794297667 a 65.78643836433065 65.78643836433065 0.0 0 0 7.485115109409911,7.003834894245394 z"/><path fill="#894728" d="M 51.44601363642941,144.38880355303664 l -4.16970240452937 3.8120062794297733 a 71.43602330631975 71.43602330631975 0.0 0 1 -16.80613476202519,-31.808462053984066 l 5.498831343824307 -1.2964042073849527 a 65.78643836433065 65.78643836433065 0.0 0 0 15.477005822730256,29.292859981939245 z"/><path fill="#461626" d="M 35.969007813699164,115.0959435710974 l -5.498831343824306 1.2964042073849529 a 71.43602330631975 71.43602330631975 0.0 0 1 -0.3770726877966277,-1.6909435259024514 l 5.528652491200845 -1.1626743517807512 a 65.78643836433065 65.78643836433065 0.0 0 0 0.3472515404200891,1.5572136702982498 z"/><path fill="#ff8440" d="M 35.621756273279075,113.53872990079917 l -5.528652491200838 1.1626743517807536 a 71.43602330631975 71.43602330631975 0.0 0 1 3.2053634125202217,-40.27504199207646 l 5.275153317663069 2.022515140091258 a 65.78643836433065 65.78643836433065 0.0 0 0 -2.951864238982452,37.08985250020445 z"/><path fill="#f94100" d="M 38.57362051226153,76.44887740059471 l -5.275153317663067 -2.0225151400912607 a 71.43602330631975 71.43602330631975 0.0 0 1 1.1685966181847558,-2.8611947816074244 l 5.182733757449775 2.248795414469818 a 65.78643836433065 65.78643836433065 0.0 0 0 -1.0761770579714636,2.634914507228867 z"/></g></svg>