<?xml version='1.0' encoding='UTF-8'?>
<svg xmlns="http://www.w3.org/2000/svg" xmlns:svg="http://www.w3.org/2000/svg"><g><path fill="#f05207" d="M 100.0,100.0 l 0.9366668808018743 1.2793101525078032 a 1.5855533141148712 1.5855533141148712 0.0 0 1 -0.006700757178679795,0.004879210792602118 l -0.9299661236231945 -1.2841893633004053 z"/><path fill="#2b0002" d="M 100.93666688080188,101.2793101525078 l 1.8879250852645515 2.578549298855777 a 4.7813595682862315 4.7813595682862315 0.0 0 1 -0.020206655409079843,0.014713640343224199 l -1.8744191870341513 -2.5883837284063995 a 1.5855533141148712 1.5855533141148712 0.0 0 0 0.006700757178679795,-0.004879210792602118 z"/><path fill="#fc9e9e" d="M 102.82459196606642,103.85785945136358 l 1.776340683800834 2.4261460692979733 a 7.7882800817843885 7.7882800817843885 0.0 0 1 -0.032914297616487787,0.02396681328376804 l -1.763633041593426 -2.435399242238517 a 4.7813595682862315 4.7813595682862315 0.0 0 0 0.020206655409079843,-0.014713640343224199 z"/><path fill="#000000" d="M 104.60093264986726,106.28400552066155 l 2.8377278778641886 3.8758006273245993 a 12.591875611341113 12.591875611341113 0.0 0 1 -0.053214925127155865,0.03874888017641709 l -2.8174272503535205 -3.8905826942172483 a 7.7882800817843885 7.7882800817843885 0.0 0 0 0.032914297616487787,-0.02396681328376804 z"/><path fill="#840012" d="M 100.0,100.0 l 0.9299661236231945 1.2841893633004053 a 1.5855533141148712 1.5855533141148712 0.0 0 1 -0.5240172802147594,0.24851571219063828 l -0.4059488434084352 -1.5327050754910436 z"/><path fill="#ffffff" d="M 100.92996612362319,101.2841893633004 l 1.8744191870341516 2.5883837284063995 a 4.7813595682862315 4.7813595682862315 0.0 0 1 -1.5802149409910324,0.7494184949659077 l -0.8182215262578784 -3.089286511181669 a 1.5855533141148712 1.5855533141148712 0.0 0 0 0.5240172802147594,-0.24851571219063828 z"/><path fill="#ffffff" d="M 102.80438531065735,103.8725730917068 l 1.7636330415934258 2.4353992422385167 a 7.7882800817843885 7.7882800817843885 0.0 0 1 -2.5739868282421954,1.2207157930512724 l -0.7698611543422627 -2.906696540323881 a 4.7813595682862315 4.7813595682862315 0.0 0 0 1.5802149409910324,-0.7494184949659082 z"/><path fill="#c40b05" d="M 104.56801835225077,106.30797233394532 l 2.8174272503535205 3.890582694217249 a 12.591875611341113 12.591875611341113 0.0 0 1 -4.161550640976737,1.9736194976926842 l -1.22986343761898 -4.643486398858661 a 7.7882800817843885 7.7882800817843885 0.0 0 0 2.573986828242196,-1.220715793051272 z"/><path fill="#ffa1bc" d="M 100.0,100.0 l 0.4059488434084352 1.5327050754910436 a 1.5855533141148712 1.5855533141148712 0.0 0 1 -0.3079684861031082,0.04981796114474957 l -0.09798035730532702 -1.5825230366357932 z"/><path fill="#ff9ab1" d="M 100.40594884340844,101.53270507549104 l 0.8182215262578785 3.0892865111816694 a 4.7813595682862315 4.7813595682862315 0.0 0 1 -0.9287029673812912,0.15022994374990928 l -0.19748704497969538 -3.189698493786829 a 1.5855533141148712 1.5855533141148712 0.0 0 0 0.3079684861031082,-0.04981796114474957 z"/><path fill="#faaaab" d="M 101.22417036966631,104.6219915866727 l 0.7698611543422625 2.906696540323881 a 7.7882800817843885 7.7882800817843885 0.0 0 1 -1.512749400970542,0.24470715115332453 l -0.18581472075301164 -3.0011737477272957 a 4.7813595682862315 4.7813595682862315 0.0 0 0 0.9287029673812912,-0.15022994374990972 z"/><path fill="#700f06" d="M 101.99403152400858,107.5286881269966 l 1.2298634376189799 4.643486398858661 a 12.591875611341113 12.591875611341113 0.0 0 1 -2.445771349787878,0.395635747067578 l -0.2968414888016442 -4.794414994772914 a 7.7882800817843885 7.7882800817843885 0.0 0 0 1.5127494009705422,-0.24470715115332453 z"/><path fill="#ea4528" d="M 100.0,100.0 l 0.09798035730532702 1.5825230366357932 a 1.5855533141148712 1.5855533141148712 0.0 0 1 -0.23834927995624633,-0.0031953703630618335 l 0.1403689226509193 -1.5793276662727314 z"/><path fill="#ec0023" d="M 100.09798035730533,101.58252303663579 l 0.19748704497969538 3.1896984937868296 a 4.7813595682862315 4.7813595682862315 0.0 0 1 -0.7187608263738063,-0.009635888319639019 l 0.28292450143786463 -3.1832579758302524 a 1.5855533141148712 1.5855533141148712 0.0 0 0 0.23834927995624633,0.0031953703630618335 z"/><path fill="#410012" d="M 100.29546740228503,104.77222153042263 l 0.18581472075301156 3.0011737477272953 a 7.7882800817843885 7.7882800817843885 0.0 0 1 -1.170778007314862,-0.01569574427489462 l 0.26620246018804394 -2.9951138917720392 a 4.7813595682862315 4.7813595682862315 0.0 0 0 0.7187608263738063,0.009635888319638575 z"/><path fill="#fc4239" d="M 100.48128212303804,107.77339527814992 l 0.29684148880164424 4.794414994772914 a 12.591875611341113 12.591875611341113 0.0 0 1 -1.892881468282394,-0.02537644479416379 l 0.4252619721658879 -4.784734294253646 a 7.7882800817843885 7.7882800817843885 0.0 0 0 1.170778007314862,0.015695744274895063 z"/><path fill="#6e0005" d="M 107.43866052773146,110.15980614798615 l 1.8879250852645515 2.578549298855777 a 15.787681865512473 15.787681865512473 0.0 0 1 -7.432764843705796,2.935327642350491 l -0.38335484020603516 -3.172730161972712 a 12.591875611341113 12.591875611341113 0.0 0 0 5.92819459864728,-2.341146779233556 z"/><path fill="#300600" d="M 109.326585612996,112.73835544684192 l 3.805260120353379 5.197267037704576 a 22.229078394586143 22.229078394586143 0.0 0 1 -10.465343411826899,4.1329454717566785 l -0.7726815522322772 -6.394884867110763 a 15.787681865512473 15.787681865512473 0.0 0 0 7.4327648437057965,-2.935327642350492 z"/><path fill="#ff3c3e" d="M 113.13184573334938,117.9356224845465 l 3.580353064317367 4.8900864529579575 a 28.28976099496786 28.28976099496786 0.0 0 1 -13.318683689691333,5.259778994243268 l -0.7270127864529332 -6.016919975444548 a 22.229078394586143 22.229078394586143 0.0 0 0 10.465343411826899,-4.132945471756678 z"/><path fill="#bb1a06" d="M 116.71219879766676,122.82570893750446 l 5.719661659423567 7.811978174723092 a 37.97178209082537 37.97178209082537 0.0 0 1 -17.876932749327523,7.0599105397473165 l -1.1614125997873757 -9.612109720227142 a 28.28976099496786 28.28976099496786 0.0 0 0 13.318683689691333,-5.259778994243266 z"/><path fill="#ffc5dc" d="M 101.51046592908418,112.50095292721971 l 0.383354840206035 3.1727301619727117 a 15.787681865512473 15.787681865512473 0.0 0 1 -0.2519001307541385,0.02838668849551107 l -0.33236419951867724 -3.1784763099760696 a 12.591875611341113 12.591875611341113 0.0 0 0 0.20090949006678072,-0.02264054049215325 z"/><path fill="#f90f04" d="M 101.89382076929022,115.67368308919242 l 0.7726815522322767 6.394884867110763 a 22.229078394586143 22.229078394586143 0.0 0 1 -0.35467574035502514,0.03996849754793885 l -0.66990594263139 -6.406466676163191 a 15.787681865512473 15.787681865512473 0.0 0 0 0.2519001307541384,-0.028386688495510626 z"/><path fill="#361200" d="M 102.66650232152249,122.06856795630318 l 0.7270127864529327 6.01691997544455 a 28.28976099496786 28.28976099496786 0.0 0 1 -0.45137687434673956,0.05086577243052126 l -0.6303116524612182 -6.027817250327132 a 22.229078394586143 22.229078394586143 0.0 0 0 0.35467574035502514,-0.03996849754793885 z"/><path fill="#fc6453" d="M 103.39351510797542,128.08548793174774 l 1.161412599787376 9.612109720227137 a 37.97178209082537 37.97178209082537 0.0 0 1 -0.605858222576749,0.06827431405153384 l -1.0069312515573667 -9.629518261848148 a 28.28976099496786 28.28976099496786 0.0 0 0 0.4513768743467397,-0.05086577243052304 z"/><path fill="#ff6c71" d="M 101.30955643901738,112.52359346771186 l 0.33236419951867735 3.1784763099760696 a 15.787681865512473 15.787681865512473 0.0 0 1 -1.8655056064034499,0.08402880457029482 l 0.045258971186273866 -3.1954857595877257 a 12.591875611341113 12.591875611341113 0.0 0 0 1.4878824356984985,-0.06701935495863864 z"/><path fill="#922302" d="M 101.64192063853606,115.70206977768794 l 0.66990594263139 6.406466676163193 a 22.229078394586143 22.229078394586143 0.0 0 1 -2.626634532132825,0.11831267567385773 l 0.0912229830979856 -6.440750547266756 a 15.787681865512473 15.787681865512473 0.0 0 0 1.8655056064034496,-0.08402880457029482 z"/><path fill="#a43401" d="M 102.31182658116745,122.10853645385112 l 0.630311652461218 6.027817250327129 a 28.28976099496786 28.28976099496786 0.0 0 1 -3.3427775014399232,0.15057022419354027 l 0.08583131684588041 -6.060074798846809 a 22.229078394586143 22.229078394586143 0.0 0 0 2.626634532132825,-0.1183126756738595 z"/><path fill="#050002" d="M 102.94213823362868,128.13635370417825 l 1.006931251557367 9.62951826184815 a 37.97178209082537 37.97178209082537 0.0 0 1 -4.486825423706082,0.20210208716364342 l 0.13711667070879185 -9.681050124818256 a 28.28976099496786 28.28976099496786 0.0 0 0 3.3427775014399237,-0.15057022419353672 z"/><path fill="#ff7b5b" d="M 99.82167400331889,112.5906128226705 l -0.04525897118627398 3.1954857595877257 a 15.787681865512473 15.787681865512473 0.0 0 1 -1.1740973900131961,-0.06040677829930452 l 0.28292450143786463 -3.1832579758302533 a 12.591875611341113 12.591875611341113 0.0 0 0 0.9364318597616056,0.048178994541832054 z"/><path fill="#c01400" d="M 99.77641503213262,115.78609858225823 l -0.09122298309798552 6.440750547266757 a 22.229078394586143 22.229078394586143 0.0 0 1 -1.6531307856218402,-0.08505282927653202 l 0.5702563787066297 -6.416104496289529 a 15.787681865512473 15.787681865512473 0.0 0 0 1.1740973900131961,0.06040677829930452 z"/><path fill="#de0a00" d="M 99.68519204903463,122.22684912952498 l -0.0858313168458804 6.06007479884681 a 28.28976099496786 28.28976099496786 0.0 0 1 -2.1038512703277554,-0.10824219382684408 l 0.5365518015517956 -6.036885434296497 a 22.229078394586143 22.229078394586143 0.0 0 0 1.6531307856218402,0.08505282927653113 z"/><path fill="#8a2600" d="M 99.59936073218876,128.28692392837178 l -0.13711667070879183 9.68105012481826 a 37.97178209082537 37.97178209082537 0.0 0 1 -2.8238832418061732,-0.14528751224716885 l 0.8571486421872097 -9.644004806397934 a 28.28976099496786 28.28976099496786 0.0 0 0 2.1038512703277554,0.10824219382684319 z"/><path fill="#f59197" d="M 122.43186045709032,130.63768711222755 l 1.7763406838008309 2.426146069297969 a 40.97870260432352 40.97870260432352 0.0 0 1 -17.978009939532136,7.4384974270715585 l -0.457156731077319 -2.9719654603858885 a 37.97178209082537 37.97178209082537 0.0 0 0 16.658825986808623,-6.892678035983639 z"/><path fill="#ff5e4e" d="M 124.20820114089115,133.06383318152552 l 3.580353064317367 4.8900864529579575 a 47.03938520470524 47.03938520470524 0.0 0 1 -20.63692798977114,8.538638941177966 l -0.9214350140783623 -5.990227967064364 a 40.97870260432352 40.97870260432352 0.0 0 0 17.978009939532136,-7.43849742707156 z"/><path fill="#000000" d="M 127.78855420520853,137.95391963448347 l 3.3687389717726672 4.601061547140429 a 52.74185568867219 52.74185568867219 0.0 0 1 -23.138692675455207,9.573757413144047 l -0.8669742860885989 -5.6361800191065115 a 47.03938520470524 47.03938520470524 0.0 0 0 20.636927989771138,-8.538638941177965 z"/><path fill="#fb8986" d="M 131.1572931769812,142.5549811816239 l 5.381605330905463 7.350257041995007 a 61.85162816228684 61.85162816228684 0.0 0 1 -27.13529504861675,11.227372945106751 l -1.3850029577439216 -9.003872573957707 a 52.74185568867219 52.74185568867219 0.0 0 0 23.13869267545521,-9.573757413144051 z"/><path fill="#971506" d="M 105.7730344702817,137.5303651482112 l 0.4571567310773175 2.9719654603858854 a 40.97870260432352 40.97870260432352 0.0 0 1 -4.748137793961499,0.4495629353065129 l -0.10874958233385446 -3.0049533278968283 a 37.97178209082537 37.97178209082537 0.0 0 0 4.399730645218036,-0.41657506779556996 z"/><path fill="#f76388" d="M 106.23019120135902,140.50233060859708 l 0.9214350140783611 5.990227967064368 a 47.03938520470524 47.03938520470524 0.0 0 1 -5.450379550855023,0.5160525527572402 l -0.2191932571848385 -6.0567175845150985 a 40.97870260432352 40.97870260432352 0.0 0 0 4.7481377939615,-0.4495629353065098 z"/><path fill="#ff0d05" d="M 107.15162621543737,146.49255857566146 l 0.8669742860885974 5.636180019106505 a 52.74185568867219 52.74185568867219 0.0 0 1 -6.111115833438469,0.5786123510511123 l -0.20623800350514987 -5.698739817400373 a 47.03938520470524 47.03938520470524 0.0 0 0 5.450379550855022,-0.5160525527572446 z"/><path fill="#fc819c" d="M 108.01860050152598,152.12873859476795 l 1.3850029577439191 9.003872573957711 a 61.85162816228684 61.85162816228684 0.0 0 1 -7.166650836437717,0.6785524612287368 l -0.32946795474467194 -9.103812684135342 a 52.74185568867219 52.74185568867219 0.0 0 0 6.11111583343847,-0.5786123510511061 z"/><path fill="#630019" d="M 101.37330382506366,137.94694021600677 l 0.10874958233385416 3.0049533278968243 a 40.97870260432352 40.97870260432352 0.0 0 1 -4.174405798296434,-0.06173206541572851 l 0.19755846620936302 -3.0004235745849286 a 37.97178209082537 37.97178209082537 0.0 0 0 3.868097749753217,0.05720231210383275 z"/><path fill="#ffffff" d="M 101.48205340739752,140.9518935439036 l 0.21919325718483917 6.056717584515098 a 47.03938520470524 47.03938520470524 0.0 0 1 -4.7917935382879495,-0.07086213618354886 l 0.3981944828066766 -6.047587513747281 a 40.97870260432352 40.97870260432352 0.0 0 0 4.1744057982964335,0.06173206541573251 z"/><path fill="#ac0516" d="M 101.70124666458236,147.0086111284187 l 0.2062380035051492 5.698739817400374 a 52.74185568867219 52.74185568867219 0.0 0 1 -5.372691037233521,-0.07945258094083218 l 0.3746594954404223 -5.690149372643091 a 47.03938520470524 47.03938520470524 0.0 0 0 4.7917935382879495,0.07086213618354975 z"/><path fill="#ff8a83" d="M 101.9074846680875,152.70735094581906 l 0.3294679547446721 9.103812684135347 a 61.85162816228684 61.85162816228684 0.0 0 1 -6.300682521058732,-0.0931759307426443 l 0.5985235290805395 -9.090089334333534 a 52.74185568867219 52.74185568867219 0.0 0 0 5.372691037233521,0.0794525809408313 z"/><path fill="#ff221a" d="M 97.50520607531045,137.88973790390293 l -0.1975584662093626 3.0004235745849273 a 40.97870260432352 40.97870260432352 0.0 0 1 -0.9354892496153346,-0.07236104577294222 l 0.2662024601880435 -2.9951138917720357 a 37.97178209082537 37.97178209082537 0.0 0 0 0.8668452556366537,0.06705136296005065 z"/><path fill="#f5788c" d="M 97.3076476091011,140.89016147848787 l -0.3981944828066768 6.047587513747281 a 47.03938520470524 47.03938520470524 0.0 0 1 -1.0738465683604528,-0.08306312522372394 l 0.5365518015517949 -6.036885434296501 a 40.97870260432352 40.97870260432352 0.0 0 0 0.9354892496153346,0.07236104577294356 z"/><path fill="#661f01" d="M 96.90945312629442,146.93774899223513 l -0.374659495440422 5.690149372643092 a 52.74185568867219 52.74185568867219 0.0 0 1 -1.2040263811648977,-0.09313266626541239 l 0.5048393082448666 -5.680079831601404 a 47.03938520470524 47.03938520470524 0.0 0 0 1.073846568360453,0.08306312522372394 z"/><path fill="#b50010" d="M 96.53479363085401,152.62789836487823 l -0.5985235290805397 9.090089334333532 a 61.85162816228684 61.85162816228684 0.0 0 1 -1.41199036425618,-0.10921889206199431 l 0.806487512171822 -9.07400310853695 a 52.74185568867219 52.74185568867219 0.0 0 0 1.2040263811648977,0.0931326662654115 z"/><path fill="#190200" d="M 136.53889850788664,149.9052382236189 l 2.837727877864184 3.8758006273245926 a 66.65522369184356 66.65522369184356 0.0 0 1 -0.3619025984893245,0.263111371012934 l -2.8116468956402656 -3.8947620910414713 a 61.85162816228684 61.85162816228684 0.0 0 0 0.33582161626540596,-0.24414990729605535 z"/><path fill="#de3b16" d="M 139.37662638575082,153.7810388509435 l 5.719661659423573 7.811978174723101 a 76.33724478770108 76.33724478770108 0.0 0 1 -0.4144708504453627,0.30132967865051885 l -5.667093407467533 -7.850196482360687 a 66.65522369184356 66.65522369184356 0.0 0 0 0.3619025984893227,-0.2631113710129327 z"/><path fill="#ffbab4" d="M 145.0962880451744,161.5930170256666 l 5.381605330905463 7.350257041995007 a 85.44701726131574 85.44701726131574 0.0 0 1 -0.4639320951497483,0.3372891217727849 l -5.332144086201076 -7.386216485117274 a 76.33724478770108 76.33724478770108 0.0 0 0 0.4144708504453618,-0.30132967865051796 z"/><path fill="#110200" d="M 150.47789337607986,168.9432740676616 l 8.597186122256964 11.742133425051616 a 100.0 100.0 0.0 0 1 -0.5429470916824926,0.39473481062688975 l -8.518171125724223 -11.799579113905722 a 85.44701726131574 85.44701726131574 0.0 0 0 0.463932095149751,-0.33728912177278403 z"/><path fill="#ff261a" d="M 136.2030768916212,150.14938813091499 l 2.8116468956402656 3.8947620910414704 a 66.65522369184356 66.65522369184356 0.0 0 1 -8.075094587924426,4.995312770327211 l -2.2297046844396746 -4.25475581341221 a 61.85162816228684 61.85162816228684 0.0 0 0 7.493152376723835,-4.635319047956472 z"/><path fill="#170a00" d="M 139.01472378726146,154.04415022195644 l 5.667093407467529 7.8501964823606905 a 76.33724478770108 76.33724478770108 0.0 0 1 -9.248044460732313,5.720908169216155 l -4.494143534659642 -8.575791881249636 a 66.65522369184356 66.65522369184356 0.0 0 0 8.075094587924426,-4.99531277032721 z"/><path fill="#c24500" d="M 144.681817194729,161.89434670431714 l 5.33214408620108 7.38621648511727 a 85.44701726131574 85.44701726131574 0.0 0 1 -10.351668007762886,6.403617794235249 l -4.2285205391705105 -8.06892611013636 a 76.33724478770108 76.33724478770108 0.0 0 0 9.248044460732316,-5.720908169216159 z"/><path fill="#2e0c00" d="M 150.0139612809301,169.28056318943442 l 8.518171125724225 11.799579113905727 a 100.0 100.0 0.0 0 1 -12.114721308650497,7.494255504146603 l -6.75511782483661 -12.890216823817084 a 85.44701726131574 85.44701726131574 0.0 0 0 10.351668007762882,-6.403617794235245 z"/><path fill="#530313" d="M 128.70992451489738,154.78470717887146 l 2.2297046844396755 4.254755813412214 a 66.65522369184356 66.65522369184356 0.0 0 1 -8.45999726815488,3.7107162397175655 l -1.6200239601614435 -4.522173413313574 a 61.85162816228684 61.85162816228684 0.0 0 0 7.850316543876648,-3.4432986398162058 z"/><path fill="#650d01" d="M 130.93962919933705,159.03946299228366 l 4.494143534659642 8.575791881249627 a 76.33724478770108 76.33724478770108 0.0 0 1 -9.688856275512702,4.249717250047732 l -3.2652845273018194 -9.11479289157979 a 66.65522369184356 66.65522369184356 0.0 0 0 8.45999726815488,-3.71071623971757 z"/><path fill="#fd0e23" d="M 135.4337727339967,167.61525487353327 l 4.228520539170508 8.068926110136369 a 85.44701726131574 85.44701726131574 0.0 0 1 -10.845084489472221,4.756861008416214 l -3.072292325210988 -8.57606986850486 a 76.33724478770108 76.33724478770108 0.0 0 0 9.688856275512702,-4.249717250047723 z"/><path fill="#f5001d" d="M 139.66229327316722,175.68418098366965 l 6.755117824836613 12.890216823817077 a 100.0 100.0 0.0 0 1 -12.692174445721815,5.567029910322894 l -4.908027868587023 -13.700385725723748 a 85.44701726131574 85.44701726131574 0.0 0 0 10.845084489472224,-4.756861008416223 z"/><path fill="#e40d62" d="M 120.85960797102078,158.22800581868762 l 1.6200239601614426 4.5221734133135705 a 66.65522369184356 66.65522369184356 0.0 0 1 -28.380614165830824,3.6433238694021917 l 0.42526197216588457 -4.784734294253639 a 61.85162816228684 61.85162816228684 0.0 0 0 26.335328233503496,-3.3807629884621235 z"/><path fill="#e86256" d="M 122.47963193118223,162.7501792320012 l 3.265284527301819 9.114792891579787 a 76.33724478770108 76.33724478770108 0.0 0 1 -32.503047335319856,4.172535784220345 l 0.8571486421872088 -9.644004806397945 a 66.65522369184356 66.65522369184356 0.0 0 0 28.380614165830828,-3.643323869402188 z"/><path fill="#ff4926" d="M 125.74491645848406,171.86497212358097 l 3.0722923252109884 8.576069868504858 a 85.44701726131574 85.44701726131574 0.0 0 1 -36.381827172702664,4.670469024252428 l 0.8064875121718202 -9.074003108536942 a 76.33724478770108 76.33724478770108 0.0 0 0 32.503047335319856,-4.172535784220344 z"/><path fill="#ff1606" d="M 128.81720878369504,180.44104199208584 l 4.908027868587022 13.700385725723757 a 100.0 100.0 0.0 0 1 -42.57822957288146,5.465924000564135 l 1.2883745315917778 -14.495840702035466 a 85.44701726131574 85.44701726131574 0.0 0 0 36.381827172702664,-4.6704690242524265 z"/><path fill="#990014" d="M 100.0,100.0 l -0.1403689226509193 1.5793276662727314 a 1.5855533141148712 1.5855533141148712 0.0 0 1 -1.202261464738933,-0.7359280250835577 l 1.3426303873898522 -0.8433996411891737 z"/><path fill="#f76d76" d="M 99.85963107734908,101.57932766627273 l -0.2829245014378646 3.183257975830253 a 4.7813595682862315 4.7813595682862315 0.0 0 1 -3.6255131296044514,-2.2192483046636493 l 2.7061761663033828 -1.6999376962501613 a 1.5855533141148712 1.5855533141148712 0.0 0 0 1.202261464738933,0.7359280250835577 z"/><path fill="#f47031" d="M 99.57670657591122,104.76258564210299 l -0.26620246018804405 2.9951138917720397 a 7.7882800817843885 7.7882800817843885 0.0 0 1 -5.9055403155272135,-3.6148980474900303 l 2.546229646110806 -1.5994641489456582 a 4.7813595682862315 4.7813595682862315 0.0 0 0 3.6255131296044514,2.219248304663649 z"/><path fill="#5e0408" d="M 99.31050411572318,107.75769953387503 l -0.42526197216588785 4.784734294253645 a 12.591875611341113 12.591875611341113 0.0 0 1 -9.547914082442913,-5.844467081780334 l 4.067635739081588 -2.5551652599633403 a 7.7882800817843885 7.7882800817843885 0.0 0 0 5.9055403155272135,3.61489804749003 z"/><path fill="#e34212" d="M 100.0,100.0 l -1.3426303873898522 0.8433996411891737 a 1.5855533141148712 1.5855533141148712 0.0 0 1 -0.242922819306719,-0.8439832805229273 l 1.5855532066965712 5.836393337535694E-4 z"/><path fill="#ffffff" d="M 98.65736961261015,100.84339964118918 l -2.706176166303383 1.6999376962501613 a 4.7813595682862315 4.7813595682862315 0.0 0 1 -0.7325526906647419,-2.545097347328645 l 3.195806037661406 0.0011763705555566384 a 1.5855533141148712 1.5855533141148712 0.0 0 0 0.242922819306719,0.8439832805229273 z"/><path fill="#fff2f6" d="M 95.95119344630676,102.54333733743934 l -2.5462296461108056 1.5994641489456587 a 7.7882800817843885 7.7882800817843885 0.0 0 1 -1.1932433543387986,-4.1456683383271855 l 3.006920309784862 0.0011068420528816958 a 4.7813595682862315 4.7813595682862315 0.0 0 0 0.7325526906647424,2.545097347328645 z"/><path fill="#420100" d="M 93.40496380019596,104.142801486385 l -4.067635739081589 2.55516525996334 a 12.591875611341113 12.591875611341113 0.0 0 1 -1.9292028193792348,-6.702601793197333 l 4.803595204122026 0.0017681949068091285 a 7.7882800817843885 7.7882800817843885 0.0 0 0 1.1932433543387981,4.145668338327185 z"/><path fill="#400a07" d="M 100.0,100.0 l -1.5855532066965712 -5.836393337535694E-4 a 1.5855533141148712 1.5855533141148712 0.0 0 1 2.3392397831492007,-1.3943844091805364 l -0.7536865764526293 1.39496804851429 z"/><path fill="#f60f00" d="M 98.41444679330343,99.99941636066625 l -3.1958060376614066 -0.0011763705555566906 a 4.7813595682862315 4.7813595682862315 0.0 0 1 7.054159844457883,-4.204874839182785 l -1.5191140236472753 2.8116668005578056 a 1.5855533141148712 1.5855533141148712 0.0 0 0 -2.3392397831492007,1.3943844091805364 z"/><path fill="#910200" d="M 95.21864075564203,99.99823999011069 l -3.006920309784862 -0.0011068420528815223 a 7.7882800817843885 7.7882800817843885 0.0 0 1 11.490408078639122,-6.84925333238254 l -1.4293279243963788 2.645485335252637 a 4.7813595682862315 4.7813595682862315 0.0 0 0 -7.054159844457882,4.204874839182785 z"/><path fill="#ff4970" d="M 92.21172044585717,99.99713314805781 l -4.803595204122026 -0.0017681949068090411 a 12.591875611341113 12.591875611341113 0.0 0 1 18.57737366022199,-11.073683160629837 l -2.2833703774608427 4.226198023154105 a 7.7882800817843885 7.7882800817843885 0.0 0 0 -11.490408078639122,6.849253332382541 z"/><path fill="#f20002" d="M 100.0,100.0 l 0.7536865764526293 -1.39496804851429 a 1.5855533141148712 1.5855533141148712 0.0 0 1 0.5229442825530848,0.4546526962334797 l -1.276630859005714 0.9403153522808102 z"/><path fill="#ff1504" d="M 100.75368657645262,98.60503195148571 l 1.519114023647275 -2.8116668005578056 a 4.7813595682862315 4.7813595682862315 0.0 0 1 1.5769792329320695,1.3710406329645428 l -2.57314897402626 1.8952788638267424 a 1.5855533141148712 1.5855533141148712 0.0 0 0 -0.5229442825530848,-0.4546526962334797 z"/><path fill="#f4ae62" d="M 102.2728006000999,95.79336515092791 l 1.4293279243963786 -2.6454853352526375 a 7.7882800817843885 7.7882800817843885 0.0 0 1 2.5687162351679493,2.233266145441162 l -2.4210649266322584 1.7832598227760181 a 4.7813595682862315 4.7813595682862315 0.0 0 0 -1.5769792329320693,-1.3710406329645428 z"/><path fill="#de0a18" d="M 103.70212852449629,93.14787981567527 l 2.283370377460842 -4.226198023154106 a 12.591875611341113 12.591875611341113 0.0 0 1 4.153029292014964,3.6106828741540937 l -3.8676834343078568 2.8487812944411743 a 7.7882800817843885 7.7882800817843885 0.0 0 0 -2.5687162351679493,-2.2332661454411618 z"/><path fill="#ff4253" d="M 98.88524214355729,112.54243382812867 l -0.2829245014378646 3.183257975830253 a 15.787681865512473 15.787681865512473 0.0 0 1 -13.10399756971783,-21.966859800746118 l 2.935488553886305 1.263362404143507 a 12.591875611341113 12.591875611341113 0.0 0 0 10.45143351726939,17.52023942077236 z"/><path fill="#8a0e02" d="M 98.60231764211943,115.72569180395892 l -0.5702563787066298 6.416104496289529 a 22.229078394586143 22.229078394586143 0.0 0 1 -18.45044711067014,-30.929369666381852 l 5.9167059196589395 2.546405369346207 a 15.787681865512473 15.787681865512473 0.0 0 0 13.103997569717832,21.966859800746118 z"/><path fill="#a61a02" d="M 98.0320612634128,122.14179630024844 l -0.5365518015517953 6.036885434296498 a 28.28976099496786 28.28976099496786 0.0 0 1 -23.480898746493953,-39.36215708340174 l 5.567003437375607 2.395901982723384 a 22.229078394586143 22.229078394586143 0.0 0 0 18.45044711067014,30.929369666381856 z"/><path fill="#fd2852" d="M 97.495509461861,128.17868173454497 l -0.8571486421872094 9.644004806397936 a 37.97178209082537 37.97178209082537 0.0 0 1 -31.517112168505125,-52.83364718640202 l 8.893362064198381 3.8274852966023403 a 28.28976099496786 28.28976099496786 0.0 0 0 23.480898746493953,39.36215708340174 z"/><path fill="#ef3e30" d="M 88.4338086262879,95.02219440735631 l -2.9354885538863074 -1.2633624041435056 a 15.787681865512473 15.787681865512473 0.0 0 1 15.423401671739988,-9.519584768008274 l -0.1865786338758202 3.190355156966355 a 12.591875611341113 12.591875611341113 0.0 0 0 -12.301334483977861,7.592592015185424 z"/><path fill="#af001a" d="M 85.49832007240158,93.7588320032128 l -5.916705919658938 -2.5464053693462074 a 22.229078394586143 22.229078394586143 0.0 0 1 21.71617136656625,-13.403588816558347 l -0.3760637751673226 6.430409417896282 a 15.787681865512473 15.787681865512473 0.0 0 0 -15.423401671739988,9.519584768008272 z"/><path fill="#b31a00" d="M 79.58161415274265,91.2124266338666 l -5.567003437375609 -2.395901982723386 a 28.28976099496786 28.28976099496786 0.0 0 1 27.637011610681377,-17.05803170803561 l -0.353836806739519 6.0503448742006505 a 22.229078394586143 22.229078394586143 0.0 0 0 -21.71617136656625,13.403588816558347 z"/><path fill="#ffffff" d="M 74.01461071536704,88.81652465114321 l -8.893362064198374 -3.8274852966023403 a 37.97178209082537 37.97178209082537 0.0 0 1 37.095632681699726,-22.89605285216564 l -0.565259006819975 9.665506440732365 a 28.28976099496786 28.28976099496786 0.0 0 0 -27.637011610681377,17.058031708035614 z"/><path fill="#fd2c0b" d="M 100.73514311026575,87.42960239217089 l 0.18657863387582077 -3.190355156966355 a 15.787681865512473 15.787681865512473 0.0 0 1 3.5969430618956877,0.633539966090229 l -0.9146863593180945 3.0621114411918775 a 12.591875611341113 12.591875611341113 0.0 0 0 -2.868835336453414,-0.5052962503157516 z"/><path fill="#ff9aad" d="M 100.92172174414158,84.23924723520453 l 0.3760637751673216 -6.430409417896284 a 22.229078394586143 22.229078394586143 0.0 0 1 5.064500918174951,0.8920251682475868 l -1.843621631446585 6.171924215738926 a 15.787681865512473 15.787681865512473 0.0 0 0 -3.5969430618956877,-0.633539966090229 z"/><path fill="#900900" d="M 101.2977855193089,77.80883781730824 l 0.353836806739519 -6.0503448742006505 a 28.28976099496786 28.28976099496786 0.0 0 1 6.4453198639516565,1.1352327956774957 l -1.7346557525162236 5.80713724677074 a 22.229078394586143 22.229078394586143 0.0 0 0 -5.064500918174952,-0.892025168247585 z"/><path fill="#f95020" d="M 101.65162232604843,71.7584929431076 l 0.5652590068199761 -9.665506440732363 a 37.97178209082537 37.97178209082537 0.0 0 1 8.651196502620666,1.5237602165494462 l -2.771135645488986 9.276979019860413 a 28.28976099496786 28.28976099496786 0.0 0 0 -6.4453198639516565,-1.1352327956774957 z"/><path fill="#ffd0d2" d="M 103.60397844671917,87.93489864248664 l 0.9146863593180946 -3.0621114411918766 a 15.787681865512473 15.787681865512473 0.0 0 1 8.193012361961076,5.764298601553741 l -2.5731489740262585 1.8952788638267446 a 12.591875611341113 12.591875611341113 0.0 0 0 -6.534549747252912,-4.597466024188609 z"/><path fill="#fed5d0" d="M 104.51866480603726,84.87278720129476 l 1.8436216314465856 -6.171924215738925 a 22.229078394586143 22.229078394586143 0.0 0 1 11.53577299272076,8.11614058322565 l -5.186382262206271 3.8200822340670175 a 15.787681865512473 15.787681865512473 0.0 0 0 -8.193012361961076,-5.764298601553742 z"/><path fill="#e50800" d="M 106.36228643748385,78.70086298555583 l 1.7346557525162238 -5.807137246770742 a 28.28976099496786 28.28976099496786 0.0 0 1 14.680962254186666,10.328978701921008 l -4.879845013982127 3.5942991280753844 a 22.229078394586143 22.229078394586143 0.0 0 0 -11.535772992720762,-8.11614058322565 z"/><path fill="#120600" d="M 108.09694219000008,72.8937257387851 l 2.7711356454889873 -9.276979019860411 a 37.97178209082537 37.97178209082537 0.0 0 1 19.70544394838716,13.864017039941993 l -7.795617339689482 5.741940681839424 a 28.28976099496786 28.28976099496786 0.0 0 0 -14.680962254186664,-10.328978701921006 z"/><path fill="#ec0004" d="M 96.6383608196738,137.8226865409429 l -0.2662024601880436 2.9951138917720344 a 40.97870260432352 40.97870260432352 0.0 0 1 -17.35308324258916,-5.617589379609525 l 1.5395307663183893 -2.582908437025033 a 37.97178209082537 37.97178209082537 0.0 0 0 16.079754936458816,5.205383924862524 z"/><path fill="#ff6145" d="M 96.37215835948577,140.81780043271493 l -0.5365518015517953 6.036885434296498 a 47.03938520470524 47.03938520470524 0.0 0 1 -19.91957566395341,-6.448421593548294 l 3.1030442229160435 -5.206053220357731 a 40.97870260432352 40.97870260432352 0.0 0 0 17.35308324258916,5.617589379609527 z"/><path fill="#ffffff" d="M 95.83560655793397,146.85468586701143 l -0.5048393082448663 5.680079831601408 a 52.74185568867219 52.74185568867219 0.0 0 1 -22.334377468494818,-7.230148090299065 l 2.919641112786273 -4.89835333485064 a 47.03938520470524 47.03938520470524 0.0 0 0 19.91957566395341,6.4484215935482965 z"/><path fill="#fc8288" d="M 95.3307672496891,152.53476569861283 l -0.8064875121718216 9.074003108536946 a 61.85162816228684 61.85162816228684 0.0 0 1 -26.192055481927184,-8.47896657029256 l 4.66416552560419 -7.825184628543447 a 52.74185568867219 52.74185568867219 0.0 0 0 22.334377468494814,7.2301480902990605 z"/><path fill="#300009" d="M 80.55860588321498,132.61730261608037 l -1.539530766318387 2.5829084370250346 a 40.97870260432352 40.97870260432352 0.0 0 1 16.937189734504567,-75.97890982074115 l 0.2967197445678167 2.992244703843511 a 37.97178209082537 37.97178209082537 0.0 0 0 -15.694378712753998,70.4037566798726 z"/><path fill="#c71805" d="M 79.0190751168966,135.20021105310542 l -3.103044222916043 5.206053220357727 a 47.03938520470524 47.03938520470524 0.0 0 1 19.442172191231872,-87.21606540355243 l 0.5980617661887422 6.0311023624535665 a 40.97870260432352 40.97870260432352 0.0 0 0 -16.93718973450457,75.97890982074114 z"/><path fill="#fc270a" d="M 75.91603089398056,140.40626427346314 l -2.9196411127862745 4.898353334850638 a 52.74185568867219 52.74185568867219 0.0 0 1 21.799099531634543,-97.78905730230157 l 0.5627137723835993 5.6746385638984975 a 47.03938520470524 47.03938520470524 0.0 0 0 -19.44217219123187,87.21606540355243 z"/><path fill="#e8000a" d="M 72.9963897811943,145.30461760831378 l -4.6641655256041865 7.825184628543449 a 61.85162816228684 61.85162816228684 0.0 0 1 25.56432231854384,-114.6795525418266 l 0.8989427386948883 9.06531061098157 a 52.74185568867219 52.74185568867219 0.0 0 0 -21.799099531634543,97.78905730230157 z"/><path fill="#fff4f6" d="M 96.25298459596897,62.213545936207765 l -0.296719744567816 -2.9922447038435203 a 40.97870260432352 40.97870260432352 0.0 0 1 2.48700697799973,-0.17042411108356736 l 0.11422904027276459 3.004750023022602 a 37.97178209082537 37.97178209082537 0.0 0 0 -2.304516273704679,0.15791879190448554 z"/><path fill="#250306" d="M 95.95626485140116,59.22130123236424 l -0.5980617661887443 -6.0311023624535585 a 47.03938520470524 47.03938520470524 0.0 0 1 2.8548312125571367,-0.19562955632918833 l 0.23023753163133787 6.056307807699177 a 40.97870260432352 40.97870260432352 0.0 0 0 -2.48700697799973,0.17042411108356958 z"/><path fill="#000000" d="M 95.35820308521241,53.19019886991069 l -0.5627137723836022 -5.674638563898502 a 52.74185568867219 52.74185568867219 0.0 0 1 3.2009154705777156,-0.2193452525676518 l 0.21662951436302302 5.698354260136966 a 47.03938520470524 47.03938520470524 0.0 0 0 -2.8548312125571362,0.19562955632918744 z"/><path fill="#f97178" d="M 94.7954893128288,47.51556030601218 l -0.8989427386948862 -9.065310610981568 a 61.85162816228684 61.85162816228684 0.0 0 1 3.753789677665939,-0.2572313928630212 l 0.34606853160666207 9.103196751276933 a 52.74185568867219 52.74185568867219 0.0 0 0 -3.200915470577715,0.21934525256765625 z"/><path fill="#fea49f" d="M 98.55750086967365,62.05562714430328 l -0.11422904027276518 -3.0047500230226056 a 40.97870260432352 40.97870260432352 0.0 0 1 34.551314881107594,16.646626814809984 l -2.421064926632255 1.7832598227760172 a 37.97178209082537 37.97178209082537 0.0 0 0 -32.01602091420257,-15.425136614563396 z"/><path fill="#ff8a80" d="M 98.44327182940089,59.05087712128068 l -0.2302375316313382 -6.056307807699176 a 47.03938520470524 47.03938520470524 0.0 0 1 39.66139742672105,19.108635494433774 l -4.879845013982127 3.5942991280753844 a 40.97870260432352 40.97870260432352 0.0 0 0 -34.55131488110759,-16.64662681480998 z"/><path fill="#d33808" d="M 98.21303429776955,52.9945693135815 l -0.21662951436302266 -5.698354260136964 a 52.74185568867219 52.74185568867219 0.0 0 1 44.4694523618467,21.42512899071765 l -4.591425420762626 3.381860763853087 a 47.03938520470524 47.03938520470524 0.0 0 0 -39.66139742672105,-19.108635494433774 z"/><path fill="#5f1900" d="M 97.99640478340653,47.296215053444534 l -0.34606853160666223 -9.103196751276931 a 61.85162816228684 61.85162816228684 0.0 0 1 52.150384095344236,25.125758173645757 l -7.334863201890869 5.402567568348829 a 52.74185568867219 52.74185568867219 0.0 0 0 -44.469452361846706,-21.425128990717653 z"/><path fill="#681b0a" d="M 94.52427973751729,161.60876880714977 l -0.4252619721658871 4.784734294253637 a 66.65522369184356 66.65522369184356 0.0 0 1 -19.287705859566653,-4.680871999642397 l 1.8152556217372222 -4.447401155655818 a 61.85162816228684 61.85162816228684 0.0 0 0 17.89771220999532,4.343538861044578 z"/><path fill="#ce0a11" d="M 94.0990177653514,166.3935031014034 l -0.8571486421872104 9.644004806397946 a 76.33724478770108 76.33724478770108 0.0 0 1 -22.089346371439557,-5.36079322617775 l 3.658789154060109 -8.964083579862596 a 66.65522369184356 66.65522369184356 0.0 0 0 19.287705859566657,4.680871999642399 z"/><path fill="#d73a00" d="M 93.24186912316421,176.03750790780137 l -0.8064875121718216 9.074003108536946 a 85.44701726131574 85.44701726131574 0.0 0 1 -24.725398014308123,-6.00052821667143 l 3.4425391550403894 -8.434268118043263 a 76.33724478770108 76.33724478770108 0.0 0 0 22.089346371439554,5.360793226177748 z"/><path fill="#fb9193" d="M 92.4353816109924,185.1115110163383 l -1.2883745315917758 14.495840702035457 a 100.0 100.0 0.0 0 1 -28.93652558835662,-7.022513376119965 l 5.499502105640275 -13.473855542586918 a 85.44701726131574 85.44701726131574 0.0 0 0 24.72539801430812,6.000528216671427 z"/><path fill="#a81400" d="M 76.62656752752193,157.2652299461052 l -1.8152556217372209 4.4474011556558155 a 66.65522369184356 66.65522369184356 0.0 0 1 41.104768914190586,-126.43972911134055 l -1.147013098753618 4.664642640424333 a 61.85162816228684 61.85162816228684 0.0 0 0 -38.142500193699746,117.32768531526041 z"/><path fill="#37040f" d="M 74.8113119057847,161.71263110176102 l -3.658789154060108 8.964083579862596 a 76.33724478770108 76.33724478770108 0.0 0 1 47.075452346406585,-144.80576341151968 l -2.31189427815589 9.401950720316506 a 66.65522369184356 66.65522369184356 0.0 0 0 -41.104768914190586,126.43972911134057 z"/><path fill="#fcbbcd" d="M 71.1525227517246,170.6767146816236 l -3.442539155040394 8.434268118043263 a 85.44701726131574 85.44701726131574 0.0 0 1 52.693242995792794,-162.08628697790792 l -2.175251494345815 8.846255448345005 a 76.33724478770108 76.33724478770108 0.0 0 0 -47.075452346406585,144.80576341151965 z"/><path fill="#f6524c" d="M 67.7099835966842,179.11098279966686 l -5.4995021056402695 13.473855542586925 a 100.0 100.0 0.0 0 1 61.66773830693854,-189.692153305027 l -3.474993205505484 14.132010784532127 a 85.44701726131574 85.44701726131574 0.0 0 0 -52.69324299579279,162.08628697790795 z"/><path fill="#060101" d="M 114.76906772122169,39.93754463084478 l 1.1470130987536136 -4.664642640424334 a 66.65522369184356 66.65522369184356 0.0 0 1 32.29738870173853,18.7012335191816 l -3.4745664905369367 3.3169138840818704 a 61.85162816228684 61.85162816228684 0.0 0 0 -29.9698353099552,-17.353504762839137 z"/><path fill="#d10217" d="M 115.9160808199753,35.27290199042045 l 2.3118942781558918 -9.40195072031651 a 76.33724478770108 76.33724478770108 0.0 0 1 36.98875393062167,21.41768584538436 l -7.003259507039033 6.6854983941137505 a 66.65522369184356 66.65522369184356 0.0 0 0 -32.29738870173853,-18.7012335191816 z"/><path fill="#ffffff" d="M 118.2279750981312,25.870951270103944 l 2.1752514943458134 -8.846255448344998 a 85.44701726131574 85.44701726131574 0.0 0 1 41.402839523147165,23.973584286642264 l -6.589337086871311 6.2903570070870884 a 76.33724478770108 76.33724478770108 0.0 0 0 -36.98875393062167,-21.417685845384355 z"/><path fill="#e30713" d="M 120.40322659247701,17.02469582175894 l 3.4749932055054797 -14.132010784532147 a 100.0 100.0 0.0 0 1 48.45439998979506,28.05666605462165 l -10.52655367215337 10.04892901655277 a 85.44701726131574 85.44701726131574 0.0 0 0 -41.402839523147165,-23.97358428664227 z"/><path fill="#f54740" d="M 144.73890303117693,57.29104939368396 l 3.4745664905369393 -3.3169138840818717 a 66.65522369184356 66.65522369184356 0.0 0 1 5.454934259738072,6.495859671770086 l -3.8676834343078426 2.8487812944411814 a 61.85162816228684 61.85162816228684 0.0 0 0 -5.061817315967168,-6.027727082129395 z"/><path fill="#f95801" d="M 148.21346952171388,53.97413550960209 l 7.003259507039035 -6.685498394113745 a 76.33724478770108 76.33724478770108 0.0 0 1 6.247292092388525,7.439417384044392 l -7.7956173396894854 5.741940681839438 a 66.65522369184356 66.65522369184356 0.0 0 0 -5.454934259738074,-6.495859671770084 z"/><path fill="#ffffff" d="M 155.21672902875292,47.28863711548835 l 6.589337086871306 -6.2903570070870884 a 85.44701726131574 85.44701726131574 0.0 0 1 6.992818207408075,8.327206822782657 l -7.334863201890855 5.402567568348829 a 76.33724478770108 76.33724478770108 0.0 0 0 -6.247292092388527,-7.439417384044397 z"/><path fill="#fccfce" d="M 161.80606611562422,40.99828010840127 l 10.526553672153385 -10.048929016552771 a 100.0 100.0 0.0 0 1 8.1838060959138,9.745462263845008 l -11.717541560659114 8.63067357549042 a 85.44701726131574 85.44701726131574 0.0 0 0 -6.992818207408071,-8.327206822782657 z"/><path fill="#ed0a16" d="M 100.0,100.0 l 1.2766308590057132 -0.9403153522808113 a 1.5855533141148712 1.5855533141148712 0.0 0 1 0.3089222627305368,0.9410964112313128 l -1.58555312173625 -7.81058950501496E-4 z"/><path fill="#000000" d="M 101.2766308590057,99.0596846477192 l 2.573148974026258 -1.8952788638267446 a 4.7813595682862315 4.7813595682862315 0.0 0 1 0.9315791551215371,2.8379495602345117 l -3.1958058664172584 -0.0015742851764544152 a 1.5855533141148712 1.5855533141148712 0.0 0 0 -0.3089222627305368,-0.9410964112313128 z"/><path fill="#aa0108" d="M 103.84977983303197,97.16440578389245 l 2.4210649266322566 -1.7832598227760206 a 7.7882800817843885 7.7882800817843885 0.0 0 1 1.5174343771512522,4.622690621237974 l -3.0069201486619717 -0.001481238227441839 a 4.7813595682862315 4.7813595682862315 0.0 0 0 -0.9315791551215371,-2.8379495602345117 z"/><path fill="#ff737b" d="M 106.27084475966423,95.38114596111642 l 3.867683434307854 -2.8487812944411774 a 12.591875611341113 12.591875611341113 0.0 0 1 2.453345889569462,7.473838213456432 l -4.803594946726064 -0.0023662977772795912 a 7.7882800817843885 7.7882800817843885 0.0 0 0 -1.5174343771512522,-4.622690621237974 z"/><path fill="#f80100" d="M 100.0,100.0 l 1.58555312173625 7.81058950501496E-4 a 1.5855533141148712 1.5855533141148712 0.0 0 1 -0.11260728679544751,0.5860833881164458 l -1.4729458349408024 -0.5868644470669473 z"/><path fill="#fb5568" d="M 101.58555312173625,100.00078105895051 l 3.195805866417259 0.0015742851764544072 a 4.7813595682862315 4.7813595682862315 0.0 0 1 -0.33957604792288754,1.7673801256872528 l -2.968837105289819 -1.1828710227472614 a 1.5855533141148712 1.5855533141148712 0.0 0 0 0.11260728679544751,-0.5860833881164458 z"/><path fill="#c21313" d="M 104.78135898815351,100.00235534412695 l 3.0069201486619717 0.0014812382274419934 a 7.7882800817843885 7.7882800817843885 0.0 0 1 -0.5531299900201443,2.878857202275903 l -2.7933662065647145 -1.1129583148160922 a 4.7813595682862315 4.7813595682862315 0.0 0 0 0.3395760479228871,-1.7673801256872528 z"/><path fill="#ffded3" d="M 107.78827913681548,100.0038365823544 l 4.803594946726064 0.0023662977772801867 a 12.591875611341113 12.591875611341113 0.0 0 1 -0.8942852540095423,4.65445662112941 l -4.462439682736666 -1.7779657166307872 a 7.7882800817843885 7.7882800817843885 0.0 0 0 0.5531299900201443,-2.878857202275903 z"/><path fill="#f32c52" d="M 100.0,100.0 l 1.4729458349408024 0.5868644470669473 a 1.5855533141148712 1.5855533141148712 0.0 0 1 -0.11334062686868007,0.22888857320561806 l -1.3596052080721224 -0.8157530202725654 z"/><path fill="#d0051f" d="M 101.4729458349408,100.58686444706694 l 2.968837105289819 1.1828710227472614 a 4.7813595682862315 4.7813595682862315 0.0 0 1 -0.3417874920570867,0.6902313279695731 l -2.740390240101412 -1.6442137775112164 a 1.5855533141148712 1.5855533141148712 0.0 0 0 0.11334062686868007,-0.22888857320561806 z"/><path fill="#d13e00" d="M 104.44178294023062,101.76973546981421 l 2.7933662065647145 1.1129583148160922 a 7.7882800817843885 7.7882800817843885 0.0 0 1 -0.556732175979259,1.1243067639390727 l -2.578421522642542 -1.5470337507855918 a 4.7813595682862315 4.7813595682862315 0.0 0 0 0.3417874920570867,-0.6902313279695731 z"/><path fill="#ff0e12" d="M 107.23514914679534,102.8826937846303 l 4.462439682736666 1.7779657166307874 a 12.591875611341113 12.591875611341113 0.0 0 1 -0.9001091685387816,1.8177480485867028 l -4.119062690177143 -2.4714070012784175 a 7.7882800817843885 7.7882800817843885 0.0 0 0 0.556732175979259,-1.1243067639390727 z"/><path fill="#fb1523" d="M 100.0,100.0 l 1.3596052080721224 0.8157530202725654 a 1.5855533141148712 1.5855533141148712 0.0 0 1 -0.2654105712701085,0.33173005528644306 l -1.094194636802014 -1.1474830755590084 z"/><path fill="#f27e9b" d="M 101.35960520807213,100.81575302027257 l 2.7403902401014126 1.6442137775112164 a 4.7813595682862315 4.7813595682862315 0.0 0 1 -0.8003662590021929,1.0003578308039427 l -2.2054345523693284 -2.312841553028716 a 1.5855533141148712 1.5855533141148712 0.0 0 0 0.2654105712701085,-0.33173005528644306 z"/><path fill="#ffb8b5" d="M 104.09999544817353,102.45996679778378 l 2.5784215226425418 1.5470337507855916 a 7.7882800817843885 7.7882800817843885 0.0 0 1 -1.3037037905420088,1.6294668612634615 l -2.0750839911027255 -2.1761427812451104 a 4.7813595682862315 4.7813595682862315 0.0 0 0 0.8003662590021925,-1.0003578308039427 z"/><path fill="#c51206" d="M 106.67841697081607,104.00700054856938 l 4.119062690177143 2.4714070012784175 a 12.591875611341113 12.591875611341113 0.0 0 1 -2.1077921944452935,2.6344769081713615 l -3.314974286273859 -3.4764170481863177 a 7.7882800817843885 7.7882800817843885 0.0 0 0 1.3037037905420092,-1.6294668612634613 z"/><path fill="#fd6754" d="M 110.13852819397208,92.53236466667524 l 2.573148974026258 -1.8952788638267446 a 15.787681865512473 15.787681865512473 0.0 0 1 2.6664401619522757,12.935645095624531 l -3.112900548610204 -0.7232066016451082 a 12.591875611341113 12.591875611341113 0.0 0 0 -2.1266885873683297,-10.317159630152679 z"/><path fill="#ffb0a4" d="M 112.71167716799833,90.63708580284849 l 5.186382262206272 -3.8200822340670184 a 22.229078394586143 22.229078394586143 0.0 0 1 3.7543515190782015,18.21340658905199 l -6.274293619332198 -1.4576792593604377 a 15.787681865512473 15.787681865512473 0.0 0 0 -2.6664401619522753,-12.935645095624531 z"/><path fill="#100002" d="M 117.8980594302046,86.81700356878147 l 4.879845013982127 -3.5942991280753844 a 28.28976099496786 28.28976099496786 0.0 0 1 4.777962688353469,23.179229933074623 l -5.9034561832573935 -1.3715242159472538 a 22.229078394586143 22.229078394586143 0.0 0 0 -3.7543515190782024,-18.213406589051985 z"/><path fill="#e86f27" d="M 122.77790444418673,83.22270444070608 l 7.79561733968948 -5.741940681839424 a 37.97178209082537 37.97178209082537 0.0 0 1 6.4131951511546585,31.11219879900743 l -9.43084980249067 -2.1910281840933834 a 28.28976099496786 28.28976099496786 0.0 0 0 -4.777962688353469,-23.179229933074623 z"/><path fill="#ff3164" d="M 112.26521678134041,102.84952429682792 l 3.112900548610205 0.7232066016451084 a 15.787681865512473 15.787681865512473 0.0 0 1 -0.3905149619102355,1.3893930363095068 l -3.0338509345977496 -1.0044531451696237 a 12.591875611341113 12.591875611341113 0.0 0 0 0.31146534789778,-1.1081464927849916 z"/><path fill="#ff967b" d="M 115.37811732995061,103.57273089847303 l 6.274293619332196 1.4576792593604382 a 22.229078394586143 22.229078394586143 0.0 0 1 -0.5498456186607275,1.9562673600918523 l -6.1149629625817035 -2.024553583142784 a 15.787681865512473 15.787681865512473 0.0 0 0 0.3905149619102346,-1.3893930363095066 z"/><path fill="#e70933" d="M 121.65241094928281,105.03041015783347 l 5.903456183257395 1.3715242159472523 a 28.28976099496786 28.28976099496786 0.0 0 1 -0.6997591559994962,2.489637000548516 l -5.753542645918628 -1.9048938564039153 a 22.229078394586143 22.229078394586143 0.0 0 0 0.5498456186607292,-1.9562673600918528 z"/><path fill="#512509" d="M 127.55586713254021,106.40193437378072 l 9.43084980249067 2.191028184093385 a 37.97178209082537 37.97178209082537 0.0 0 1 -0.9392480266057746,3.3417020980453023 l -9.19136093188439 -3.0430932815901723 a 28.28976099496786 28.28976099496786 0.0 0 0 0.6997591559994945,-2.489637000548515 z"/><path fill="#fe7dae" d="M 111.95375143344263,103.95767078961292 l 3.0338509345977487 1.004453145169624 a 15.787681865512473 15.787681865512473 0.0 0 1 -3.236348675514196,5.581069857447648 l -2.378736179563271 -2.134195820968058 a 12.591875611341113 12.591875611341113 0.0 0 0 2.5812339204797183,-4.451327181649214 z"/><path fill="#710005" d="M 114.98760236804038,104.96212393478254 l 6.114962962581705 2.024553583142784 a 22.229078394586143 22.229078394586143 0.0 0 1 -4.556783512174279,7.8581542523905155 l -4.794528125921623 -4.301637978085651 a 15.787681865512473 15.787681865512473 0.0 0 0 3.236348675514197,-5.581069857447648 z"/><path fill="#190300" d="M 121.10256533062208,106.98667751792532 l 5.753542645918627 1.9048938564039144 a 28.28976099496786 28.28976099496786 0.0 0 1 -5.799175034472706,10.000653275659873 l -4.511151123620198 -4.047392879673272 a 22.229078394586143 22.229078394586143 0.0 0 0 4.5567835121742775,-7.8581542523905155 z"/><path fill="#91003f" d="M 126.85610797654071,108.89157137432923 l 9.191360931884386 3.0430932815901737 a 37.97178209082537 37.97178209082537 0.0 0 1 -7.783912022258587,13.423323972825493 l -7.2066239440985065 -6.4657639787557954 a 28.28976099496786 28.28976099496786 0.0 0 0 5.799175034472707,-10.000653275659872 z"/><path fill="#ff4c20" d="M 109.37251751296292,108.40899797126212 l 2.378736179563271 2.1341958209680567 a 15.787681865512473 15.787681865512473 0.0 0 1 -0.8561316736089282,0.8825322188176812 l -2.2054345523693293 -2.312841553028715 a 12.591875611341113 12.591875611341113 0.0 0 0 0.6828300464149866,-0.7038864867570229 z"/><path fill="#de0c48" d="M 111.75125369252618,110.54319379223018 l 4.794528125921622 4.301637978085652 a 22.229078394586143 22.229078394586143 0.0 0 1 -1.2054346072372768,1.2426066122285304 l -4.4452251922932735 -4.6617123714965025 a 15.787681865512473 15.787681865512473 0.0 0 0 0.8561316736089282,-0.8825322188176798 z"/><path fill="#620c00" d="M 116.54578181844781,114.84483177031584 l 4.5111511236202 4.047392879673272 a 28.28976099496786 28.28976099496786 0.0 0 1 -1.5340922519806721,1.5813990776726632 l -4.182493478876806 -4.386185345117404 a 22.229078394586143 22.229078394586143 0.0 0 0 1.2054346072372777,-1.2426066122285313 z"/><path fill="#fc7e8c" d="M 121.056932942068,118.89222464998912 l 7.206623944098507 6.465763978755794 a 37.97178209082537 37.97178209082537 0.0 0 1 -2.0591272124849462,2.1226245490974645 l -6.6815889835942315 -7.006989450180594 a 28.28976099496786 28.28976099496786 0.0 0 0 1.5340922519806703,-1.581399077672664 z"/><path fill="#ff3622" d="M 130.5735217838762,77.48076375886666 l 2.4210649266322526 -1.7832598227760175 a 40.97870260432352 40.97870260432352 0.0 0 1 4.76398136116944,8.379412056404492 l -2.7706346389567145 1.1683983361461792 a 37.97178209082537 37.97178209082537 0.0 0 0 -4.414411648844979,-7.764550569774654 z"/><path fill="#ff615c" d="M 132.99458671050846,75.69750393609063 l 4.879845013982127 -3.5942991280753844 a 47.03938520470524 47.03938520470524 0.0 0 1 5.468566355549818,9.618713293977624 l -5.584430008362503 2.3549978905022524 a 40.97870260432352 40.97870260432352 0.0 0 0 -4.763981361169442,-8.379412056404492 z"/><path fill="#f9657b" d="M 137.8744317244906,72.10320480801525 l 4.591425420762627 -3.3818607638530853 a 52.74185568867219 52.74185568867219 0.0 0 1 6.131507380319383,10.784766557938253 l -5.254366445532192 2.215807499892456 a 47.03938520470524 47.03938520470524 0.0 0 0 -5.468566355549818,-9.618713293977624 z"/><path fill="#f10022" d="M 142.4658571452532,68.72134404416215 l 7.334863201890865 -5.402567568348825 a 61.85162816228684 61.85162816228684 0.0 0 1 7.1905644882966335,12.647552162293984 l -8.393920309868115 3.5397819639930965 a 52.74185568867219 52.74185568867219 0.0 0 0 -6.131507380319384,-10.784766557938255 z"/><path fill="#e5003d" d="M 134.9879334327212,85.24531432864137 l 2.770634638956719 -1.1683983361461787 a 40.97870260432352 40.97870260432352 0.0 0 1 -1.8651930739494107,35.694773323444174 l -2.63377117185658 -1.4507999134247243 a 37.97178209082537 37.97178209082537 0.0 0 0 1.7283296068492717,-33.075575073873274 z"/><path fill="#ae0014" d="M 137.75856807167793,84.07691599249519 l 5.584430008362505 -2.354997890502252 a 47.03938520470524 47.03938520470524 0.0 0 1 -2.141052056572372,40.97397148876489 l -5.308571025739539 -2.9242002748184532 a 40.97870260432352 40.97870260432352 0.0 0 0 1.8651930739494063,-35.69477332344418 z"/><path fill="#f72903" d="M 143.34299808004045,81.72191810199294 l 5.254366445532191 -2.2158074998924553 a 52.74185568867219 52.74185568867219 0.0 0 1 -2.4006066001555473,45.94114659126205 l -4.994811901949014 -2.7513676026047023 a 47.03938520470524 47.03938520470524 0.0 0 0 2.14105205657237,-40.97397148876489 z"/><path fill="#ed0018" d="M 148.59736452557263,79.50611060210049 l 8.393920309868115 -3.539781963993098 a 61.85162816228684 61.85162816228684 0.0 0 1 -2.815248437089849,53.87627490934401 l -7.979278472933814 -4.395346354088865 a 52.74185568867219 52.74185568867219 0.0 0 0 2.400606600155548,-45.94114659126205 z"/><path fill="#000000" d="M 133.25960382587192,118.3208894025146 l 2.6337711718565817 1.4507999134247271 a 40.97870260432352 40.97870260432352 0.0 0 1 -5.993167521876581,8.250295981940617 l -2.1940066791549455 -2.0561871671420064 a 37.97178209082537 37.97178209082537 0.0 0 0 5.5534030291749445,-7.644908728223339 z"/><path fill="#f02a00" d="M 135.8933749977285,119.77168931593933 l 5.308571025739541 2.9242002748184555 a 47.03938520470524 47.03938520470524 0.0 0 1 -6.879547124269793,9.470501164826794 l -4.422191423346327 -4.144405457704632 a 40.97870260432352 40.97870260432352 0.0 0 0 5.993167521876579,-8.250295981940617 z"/><path fill="#490f03" d="M 141.20194602346805,122.69588959075779 l 4.99481190194901 2.7513676026047027 a 52.74185568867219 52.74185568867219 0.0 0 1 -7.713537922586692,10.618587032143722 l -4.160821103632109 -3.8994534699216317 a 47.03938520470524 47.03938520470524 0.0 0 0 6.879547124269791,-9.470501164826793 z"/><path fill="#e5002c" d="M 146.19675792541705,125.44725719336247 l 7.979278472933816 4.39534635408886 a 61.85162816228684 61.85162816228684 0.0 0 1 -9.045849319746264,12.452669481291995 l -6.646967075774249 -6.229428803237134 a 52.74185568867219 52.74185568867219 0.0 0 0 7.713537922586696,-10.618587032143722 z"/><path fill="#ff755a" d="M 127.70620079669699,125.96579813073794 l 2.194006679154945 2.056187167142008 a 40.97870260432352 40.97870260432352 0.0 0 1 -1.6206938110676385,1.634770661207524 l -2.075083991102723 -2.1761427812451046 a 37.97178209082537 37.97178209082537 0.0 0 0 1.5017711230154163,-1.5148150471044275 z"/><path fill="#d32003" d="M 129.90020747585194,128.02198529787995 l 4.422191423346324 4.144405457704629 a 47.03938520470524 47.03938520470524 0.0 0 1 -1.8603917555371554,1.8765505486203047 l -4.182493478876808 -4.386185345117408 a 40.97870260432352 40.97870260432352 0.0 0 0 1.620693811067639,-1.6347706612075257 z"/><path fill="#ff6a7e" d="M 134.32239889919825,132.1663907555846 l 4.160821103632112 3.899453469921637 a 52.74185568867219 52.74185568867219 0.0 0 1 -2.085922532106596,2.104040216451013 l -3.935290327062674 -4.126943137752349 a 47.03938520470524 47.03938520470524 0.0 0 0 1.860391755537158,-1.8765505486203011 z"/><path fill="#f7342e" d="M 138.48322000283036,136.06584422550623 l 6.646967075774251 6.229428803237129 a 61.85162816228684 61.85162816228684 0.0 0 1 -2.446210948525712,2.4674579877244778 l -6.2866786593551325 -6.592846574510588 a 52.74185568867219 52.74185568867219 0.0 0 0 2.0859225321065935,-2.1040402164510184 z"/><path fill="#6b030e" d="M 149.80072034714408,63.31877647581332 l 3.8676834343078474 -2.8487812944411726 a 66.65522369184356 66.65522369184356 0.0 0 1 6.200681926389381,10.227932845525762 l -4.314543655188814 2.1116919896252035 a 61.85162816228684 61.85162816228684 0.0 0 0 -5.753821705508415,-9.490843540709793 z"/><path fill="#fd6071" d="M 153.66840378145193,60.46999518137214 l 7.795617339689488 -5.74194068183943 a 76.33724478770108 76.33724478770108 0.0 0 1 7.101363521841752,11.713593774895834 l -8.696298935141854 4.256279752469354 a 66.65522369184356 66.65522369184356 0.0 0 0 -6.200681926389386,-10.227932845525757 z"/><path fill="#fc4076" d="M 161.4640211211414,54.72805449953271 l 7.334863201890865 -5.402567568348825 a 85.44701726131574 85.44701726131574 0.0 0 1 7.948811004604824,13.11144582515534 l -8.182310684653942 4.00471551808932 a 76.33724478770108 76.33724478770108 0.0 0 0 -7.101363521841748,-11.713593774895834 z"/><path fill="#9b0204" d="M 168.79888432303227,49.325486931183875 l 11.71754156065912 -8.630673575490407 a 100.0 100.0 0.0 0 1 9.302619634218013,15.344533074873363 l -13.071350190272312 6.397586325772387 a 85.44701726131574 85.44701726131574 0.0 0 0 -7.948811004604821,-13.111445825155343 z"/><path fill="#f36a0c" d="M 155.55454205265252,72.80962001652316 l 4.3145436551888094 -2.111691989625204 a 66.65522369184356 66.65522369184356 0.0 0 1 -4.79501915122493,66.84892321694261 l -3.9689843534085085 -2.705862748547247 a 61.85162816228684 61.85162816228684 0.0 0 0 4.449459849444629,-62.03136847877016 z"/><path fill="#900e08" d="M 159.86908570784132,70.69792802689796 l 8.696298935141861 -4.256279752469356 a 76.33724478770108 76.33724478770108 0.0 0 1 -5.491520850654105,76.55908018549538 l -7.999797235712691 -5.453877216083413 a 66.65522369184356 66.65522369184356 0.0 0 0 4.795019151224935,-66.84892321694261 z"/><path fill="#f69994" d="M 168.5653846429832,66.4416482744286 l 8.182310684653931 -4.0047155180893155 a 85.44701726131574 85.44701726131574 0.0 0 1 -6.14685633758052,85.69532558207338 l -7.526975197727509 -5.131529878488706 a 76.33724478770108 76.33724478770108 0.0 0 0 5.491520850654098,-76.55908018549536 z"/><path fill="#d60004" d="M 176.74769532763713,62.43693275633929 l 13.071350190272323 -6.397586325772388 a 100.0 100.0 0.0 0 1 -7.193763497656203,100.29059916743293 l -12.02444303019665 -8.197687259587141 a 85.44701726131574 85.44701726131574 0.0 0 0 6.14685633758053,-85.6953255820734 z"/><path fill="#5c1b00" d="M 151.1050822032079,134.8409884952933 l 3.9689843534085134 2.7058627485472493 a 66.65522369184356 66.65522369184356 0.0 0 1 -0.4232283087199895,0.613399334633987 l -3.9384838539855735 -2.7500681706954566 a 61.85162816228684 61.85162816228684 0.0 0 0 0.39272780929704965,-0.5691939124857797 z"/><path fill="#f65f02" d="M 155.0740665566164,137.54685124384054 l 7.999797235712689 5.453877216083407 a 76.33724478770108 76.33724478770108 0.0 0 1 -0.4847044419685229,0.702498807551037 l -7.938321102464151 -5.542976689000454 a 66.65522369184356 66.65522369184356 0.0 0 0 0.4232283087199846,-0.6133993346339892 z"/><path fill="#91000a" d="M 163.0738637923291,143.00072845992395 l 7.5269751977275074 5.1315298784886965 a 85.44701726131574 85.44701726131574 0.0 0 1 -0.5425470742977847,0.7863321226984921 l -7.469132565398247 -5.215363193636151 a 76.33724478770108 76.33724478770108 0.0 0 0 0.4847044419685247,-0.7024988075510379 z"/><path fill="#930e00" d="M 170.60083899005662,148.13225833841264 l 12.024443030196645 8.197687259587148 a 100.0 100.0 0.0 0 1 -0.6349514490816635,0.9202569591091887 l -11.932038655412768 -8.331612095997848 a 85.44701726131574 85.44701726131574 0.0 0 0 0.5425470742977865,-0.7863321226984894 z"/><path fill="#ff6625" d="M 150.71235439391086,135.41018240777908 l 3.938483853985571 2.7500681706954526 a 66.65522369184356 66.65522369184356 0.0 0 1 -8.651887831543643,10.078897486179581 l -3.314974286273852 -3.476417048186306 a 61.85162816228684 61.85162816228684 0.0 0 0 8.028378263831925,-9.352548608688728 z"/><path fill="#d21406" d="M 154.65083824789644,138.16025057847455 l 7.93832110246415 5.542976689000455 a 76.33724478770108 76.33724478770108 0.0 0 1 -9.90861995041356,11.542910247359728 l -6.681588983594239 -7.006989450180605 a 66.65522369184356 66.65522369184356 0.0 0 0 8.651887831543647,-10.078897486179578 z"/><path fill="#280402" d="M 162.58915935036057,143.703227267475 l 7.469132565398248 5.215363193636149 a 85.44701726131574 85.44701726131574 0.0 0 1 -11.091073856456667,12.920393628234168 l -6.28667865935514 -6.592846574510588 a 76.33724478770108 76.33724478770108 0.0 0 0 9.90861995041356,-11.542910247359728 z"/><path fill="#f80c1a" d="M 170.05829191575884,148.91859046111114 l 11.932038655412764 8.33161209599785 a 100.0 100.0 0.0 0 1 -12.980059704761526,15.120941657589716 l -10.043052807107905 -10.5321601253534 a 85.44701726131574 85.44701726131574 0.0 0 0 11.091073856456667,-12.920393628234166 z"/><path fill="#b91100" d="M 100.0,100.0 l 1.094194636802014 1.1474830755590084 a 1.5855533141148712 1.5855533141148712 0.0 0 1 -0.05689819206834312,0.05168138257154253 l -1.0372964447336708 -1.199164458130551 z"/><path fill="#c70700" d="M 101.09419463680202,101.14748307555901 l 2.2054345523693284 2.3128415530287163 a 4.7813595682862315 4.7813595682862315 0.0 0 1 -0.17158093180615097,0.1558492362640309 l -2.0907518126315203 -2.4170094067212045 a 1.5855533141148712 1.5855533141148712 0.0 0 0 0.05689819206834312,-0.05168138257154253 z"/><path fill="#fe3eb1" d="M 103.29962918917134,103.46032462858773 l 2.075083991102726 2.1761427812451104 a 7.7882800817843885 7.7882800817843885 0.0 0 1 -0.2794854339053239,0.25386032680063053 l -1.9671794890035526 -2.2741538717817096 a 4.7813595682862315 4.7813595682862315 0.0 0 0 0.17158093180615053,-0.15584923626403135 z"/><path fill="#ff2384" d="M 105.37471318027407,105.63646740983283 l 3.314974286273859 3.4764170481863172 a 12.591875611341113 12.591875611341113 0.0 0 1 -0.45186431175588027,0.4104343480410084 l -3.1425954084233023 -3.632991069426695 a 7.7882800817843885 7.7882800817843885 0.0 0 0 0.27948543390532343,-0.25386032680063053 z"/><path fill="#ffcdc4" d="M 100.0,100.0 l 1.0372964447336708 1.199164458130551 a 1.5855533141148712 1.5855533141148712 0.0 0 1 -0.06101850286039712,0.050179646634959996 l -0.9762779418732737 -1.249344104765511 z"/><path fill="#c00001" d="M 101.03729644473367,101.19916445813055 l 2.0907518126315208 2.4170094067212053 a 4.7813595682862315 4.7813595682862315 0.0 0 1 -0.18400605006267456,0.15132063452891575 l -1.9677642654292433 -2.5181503946151613 a 1.5855533141148712 1.5855533141148712 0.0 0 0 0.06101850286039712,-0.050179646634959996 z"/><path fill="#fc8597" d="M 103.1280482573652,103.61617386485176 l 1.9671794890035528 2.2741538717817096 a 7.7882800817843885 7.7882800817843885 0.0 0 1 -0.2997245101866721,0.2464837599082612 l -1.8514610288795552 -2.3693169971610546 a 4.7813595682862315 4.7813595682862315 0.0 0 0 0.18400605006267456,-0.1513206345289162 z"/><path fill="#fe0c11" d="M 105.09522774636875,105.89032773663347 l 3.1425954084233028 3.632991069426695 a 12.591875611341113 12.591875611341113 0.0 0 1 -0.4845862899522264,0.39850811891569826 l -2.9577336286577482 -3.785015428434132 a 7.7882800817843885 7.7882800817843885 0.0 0 0 0.2997245101866719,-0.2464837599082612 z"/><path fill="#942608" d="M 100.0,100.0 l 0.9762779418732737 1.249344104765511 a 1.5855533141148712 1.5855533141148712 0.0 0 1 -0.009160241598044627,0.007104328603325438 l -0.967117700275229 -1.2564484333688364 z"/><path fill="#fb7f7f" d="M 100.97627794187328,101.24934410476551 l 1.9677642654292435 2.5181503946151613 a 4.7813595682862315 4.7813595682862315 0.0 0 1 -0.02762342232375503,0.02142365648721256 l -1.9493010847035332 -2.5324697224990484 a 1.5855533141148712 1.5855533141148712 0.0 0 0 0.009160241598044627,-0.007104328603325438 z"/><path fill="#ff9196" d="M 102.94404220730252,103.76749449938067 l 1.8514610288795552 2.369316997161055 a 7.7882800817843885 7.7882800817843885 0.0 0 1 -0.04499535054878301,0.03489665119625274 l -1.834089100654527 -2.3827899918700948 a 4.7813595682862315 4.7813595682862315 0.0 0 0 0.02762342232375481,-0.021423656487213005 z"/><path fill="#ffa691" d="M 104.79550323618207,106.13681149654172 l 2.9577336286577487 3.7850154284341317 a 12.591875611341113 12.591875611341113 0.0 0 1 -0.07274723703428476,0.05641993951184476 l -2.929981742172247 -3.8065387167497233 a 7.7882800817843885 7.7882800817843885 0.0 0 0 0.04499535054878301,-0.03489665119625318 z"/><path fill="#feeeea" d="M 100.0,100.0 l 0.967117700275229 1.2564484333688364 a 1.5855533141148712 1.5855533141148712 0.0 0 1 -0.030450819473355595,0.022861719138967507 l -0.9366668808018734 -1.2793101525078039 z"/><path fill="#ab0004" d="M 100.96711770027522,101.25644843336883 l 1.9493010847035332 2.532469722499049 a 4.7813595682862315 4.7813595682862315 0.0 0 1 -0.09182681891233901,0.06894129549569694 l -1.8879250852645497 -2.578549298855778 a 1.5855533141148712 1.5855533141148712 0.0 0 0 0.030450819473355595,-0.022861719138967507 z"/><path fill="#9d0030" d="M 102.91641878497876,103.78891815586789 l 1.8340891006545268 2.382789991870095 a 7.7882800817843885 7.7882800817843885 0.0 0 1 -0.1495752357660336,0.11229737292357589 l -1.7763406838008322 -2.426146069297974 a 4.7813595682862315 4.7813595682862315 0.0 0 0 0.09182681891233901,-0.06894129549569694 z"/><path fill="#bf4200" d="M 104.75050788563328,106.17170814773797 l 2.929981742172247 3.806538716749723 a 12.591875611341113 12.591875611341113 0.0 0 1 -0.24182910007409486,0.18155928349845363 l -2.837727877864186 -3.8758006273246 a 7.7882800817843885 7.7882800817843885 0.0 0 0 0.14957523576603382,-0.11229737292357633 z"/><path fill="#410105" d="M 108.68968746654792,109.11288445801915 l 2.2054345523693284 2.3128415530287163 a 15.787681865512473 15.787681865512473 0.0 0 1 -0.19616910527285558,0.1838952247311636 l -2.165725210691013 -2.350066366292271 a 12.591875611341113 12.591875611341113 0.0 0 0 0.1564597635945404,-0.14667041146760873 z"/><path fill="#ff5922" d="M 110.89512201891725,111.42572601104787 l 4.445225192293274 4.6617123714965025 a 22.229078394586143 22.229078394586143 0.0 0 1 -0.276206377659018,0.25892473649781067 l -4.365187919907113 -4.736741883263148 a 15.787681865512473 15.787681865512473 0.0 0 0 0.19616910527285647,-0.18389522473116493 z"/><path fill="#ffa1a3" d="M 115.34034721121053,116.08743838254436 l 4.182493478876807 4.386185345117405 a 28.28976099496786 28.28976099496786 0.0 0 1 -0.3515131068664745,0.3295196850352573 l -4.107186749669349 -4.456780293654852 a 22.229078394586143 22.229078394586143 0.0 0 0 0.2762063776590171,-0.25892473649781067 z"/><path fill="#ff8561" d="M 119.52284069008734,120.47362372766177 l 6.68158898359423 7.006989450180592 a 37.97178209082537 37.97178209082537 0.0 0 1 -0.47181660878566767,0.44229605464047417 l -6.561285481675036 -7.119765819785808 a 28.28976099496786 28.28976099496786 0.0 0 0 0.35151310686647363,-0.3295196850352582 z"/><path fill="#ff5243" d="M 108.53322770295338,109.25955486948676 l 2.165725210691012 2.3500663662922703 a 15.787681865512473 15.787681865512473 0.0 0 1 -0.06957924542645744,0.06373792549183488 l -2.1516406991339263 -2.362968454303031 a 12.591875611341113 12.591875611341113 0.0 0 0 0.05549473386937187,-0.05083583748107401 z"/><path fill="#fd6576" d="M 110.6989529136444,111.60962123577903 l 4.365187919907114 4.736741883263149 a 22.229078394586143 22.229078394586143 0.0 0 1 -0.09796767596384992,0.08974308923473284 l -4.336799489369723 -4.762747047006048 a 15.787681865512473 15.787681865512473 0.0 0 0 0.06957924542645877,-0.06373792549183399 z"/><path fill="#ff4b38" d="M 115.06414083355152,116.34636311904218 l 4.107186749669348 4.456780293654853 a 28.28976099496786 28.28976099496786 0.0 0 1 -0.12467822952681384,0.1142112372062618 l -4.080476196106384 -4.481248441626381 a 22.229078394586143 22.229078394586143 0.0 0 0 0.09796767596384903,-0.08974308923473373 z"/><path fill="#964301" d="M 119.17132758322087,120.80314341269703 l 6.561285481675037 7.119765819785807 a 37.97178209082537 37.97178209082537 0.0 0 1 -0.16734869424680543,0.15329942915711303 l -6.518615016955046 -7.158854011736658 a 28.28976099496786 28.28976099496786 0.0 0 0 0.12467822952681473,-0.1142112372062627 z"/><path fill="#ca2800" d="M 108.47773296908402,109.31039070696784 l 2.1516406991339267 2.36296845430303 a 15.787681865512473 15.787681865512473 0.0 0 1 -0.3627685837620711,0.32029410728981444 l -2.078207618921166 -2.427803679636968 a 12.591875611341113 12.591875611341113 0.0 0 0 0.28933550354931015,-0.2554588819558763 z"/><path fill="#000000" d="M 110.62937366821794,111.67335916127087 l 4.336799489369722 4.762747047006049 a 22.229078394586143 22.229078394586143 0.0 0 1 -0.5107786789874167,0.450974556044371 l -4.188789394144376 -4.893427495760607 a 15.787681865512473 15.787681865512473 0.0 0 0 0.36276858376207066,-0.3202941072898131 z"/><path fill="#df2201" d="M 114.96617315758766,116.43610620827691 l 4.080476196106384 4.481248441626382 a 28.28976099496786 28.28976099496786 0.0 0 1 -0.6500407481310013,0.5739312345227132 l -3.9412141269628 -4.604205120104723 a 22.229078394586143 22.229078394586143 0.0 0 0 0.5107786789874176,-0.45097455604437187 z"/><path fill="#ffa295" d="M 119.04664935369405,120.9173546499033 l 6.518615016955045 7.158854011736659 a 37.97178209082537 37.97178209082537 0.0 0 1 -0.8725137565700214,0.7703561644190406 l -6.296142008516025 -7.355278941632985 a 28.28976099496786 28.28976099496786 0.0 0 0 0.6500407481310013,-0.5739312345227141 z"/><path fill="#feafb7" d="M 108.1883974655347,109.56584958892371 l 2.0782076189211667 2.427803679636967 a 15.787681865512473 15.787681865512473 0.0 0 1 -0.9400194714598795,0.7447021782812557 l -1.8879250852645502 -2.578549298855778 a 12.591875611341113 12.591875611341113 0.0 0 0 0.749736937803263,-0.5939565590624447 z"/><path fill="#cc0d17" d="M 110.26660508445588,111.99365326856068 l 4.188789394144375 4.893427495760606 a 22.229078394586143 22.229078394586143 0.0 0 1 -1.3235487452508776,1.048541720225228 l -3.805260120353376 -5.197267037704579 a 15.787681865512473 15.787681865512473 0.0 0 0 0.9400194714598786,-0.7447021782812548 z"/><path fill="#fffaf9" d="M 114.45539447860025,116.88708076432128 l 3.9412141269628 4.604205120104724 a 28.28976099496786 28.28976099496786 0.0 0 1 -1.6844098078963157,1.3344230530784627 l -3.5803530643173627 -4.890086452957959 a 22.229078394586143 22.229078394586143 0.0 0 0 1.3235487452508785,-1.0485417202252272 z"/><path fill="#da0003" d="M 118.39660860556305,121.491285884426 l 6.296142008516024 7.355278941632987 a 37.97178209082537 37.97178209082537 0.0 0 1 -2.2608901569887783,1.7911222861685712 l -5.719661659423561 -7.8119781747230945 a 28.28976099496786 28.28976099496786 0.0 0 0 1.6844098078963157,-1.3344230530784635 z"/><path fill="#db0114" d="M 126.20442967368157,127.48061317784237 l 2.075083991102722 2.1761427812451064 a 40.97870260432352 40.97870260432352 0.0 0 1 -0.4572312811154502,0.4293649290726069 l -2.0415334384687327 -2.2076485667130186 a 37.97178209082537 37.97178209082537 0.0 0 0 0.423680728481461,-0.39785914360469476 z"/><path fill="#ff90a0" d="M 128.2795136647843,129.65675595908746 l 4.182493478876807 4.386185345117405 a 47.03938520470524 47.03938520470524 0.0 0 1 -0.5248550342772793,0.49286729467873425 l -4.114869725714978 -4.449687710723531 a 40.97870260432352 40.97870260432352 0.0 0 0 0.4572312811154511,-0.4293649290726087 z"/><path fill="#a30023" d="M 132.46200714366108,134.04294130420487 l 3.9352903270626745 4.126943137752348 a 52.74185568867219 52.74185568867219 0.0 0 1 -0.5884819360384914,0.5526164004161283 l -3.8716634253014632 -4.186692243489745 a 47.03938520470524 47.03938520470524 0.0 0 0 0.5248550342772802,-0.4928672946787316 z"/><path fill="#680300" d="M 136.39729747072377,138.1698844419572 l 6.286678659355135 6.592846574510588 a 61.85162816228684 61.85162816228684 0.0 0 1 -0.6901267582037915,0.6480663918365082 l -6.185033837189835 -6.688296565930969 a 52.74185568867219 52.74185568867219 0.0 0 0 0.588481936038491,-0.5526164004161274 z"/><path fill="#2e0b00" d="M 125.78074894520012,127.87847232144705 l 2.041533438468729 2.2076485667130163 a 40.97870260432352 40.97870260432352 0.0 0 1 -2.607047587845482,2.2162939027667883 l -1.8502344374424915 -2.3702749842577084 a 37.97178209082537 37.97178209082537 0.0 0 0 2.4157485868192445,-2.053667485222096 z"/><path fill="#9d0e0c" d="M 127.82228238366885,130.08612088816008 l 4.11486972571498 4.4496877107235315 a 47.03938520470524 47.03938520470524 0.0 0 1 -2.992625630825186,2.544080119512784 l -3.72929168273528 -4.777473927469529 a 40.97870260432352 40.97870260432352 0.0 0 0 2.6070475878454857,-2.216293902766786 z"/><path fill="#ff763c" d="M 131.93715210938382,134.5358085988836 l 3.8716634253014615 4.186692243489746 a 52.74185568867219 52.74185568867219 0.0 0 1 -3.3554143716873153,2.8524927768473836 l -3.5088746844393306 -4.495104900824344 a 47.03938520470524 47.03938520470524 0.0 0 0 2.9926256308251844,-2.5440801195127847 z"/><path fill="#8d1b04" d="M 135.8088155346853,138.72250084237334 l 6.185033837189837 6.688296565930972 a 61.85162816228684 61.85162816228684 0.0 0 1 -3.9349742123800864,3.345186100591964 l -5.605473996497068 -7.180989889675551 a 52.74185568867219 52.74185568867219 0.0 0 0 3.355414371687317,-2.8524927768473844 z"/><path fill="#fffcfd" d="M 123.36500035838087,129.93213980666917 l 1.8502344374424895 2.3702749842577044 a 40.97870260432352 40.97870260432352 0.0 0 1 -0.2919144219182408,0.22576020665451013 l -1.828814445894018 -2.3868407355718837 a 37.97178209082537 37.97178209082537 0.0 0 0 0.2704944303697694,-0.20919445534033088 z"/><path fill="#ffffff" d="M 125.21523479582336,132.3024147909269 l 3.7292916827352793 4.777473927469533 a 47.03938520470524 47.03938520470524 0.0 0 1 -0.33508808397394985,0.2591497692656297 l -3.6861180206795723 -4.810863490080656 a 40.97870260432352 40.97870260432352 0.0 0 0 0.2919144219182428,-0.22576020665450613 z"/><path fill="#fde7df" d="M 128.94452647855863,137.0798887183964 l 3.508874684439334 4.49510490082434 a 52.74185568867219 52.74185568867219 0.0 0 1 -0.375709998994207,0.2905658667280706 l -3.4682527694190775 -4.526520998286777 a 47.03938520470524 47.03938520470524 0.0 0 0 0.3350880839739503,-0.25914976926563327 z"/><path fill="#1f0006" d="M 132.45340116299798,141.57499361922075 l 5.6054739964970635 7.180989889675552 a 61.85162816228684 61.85162816228684 0.0 0 1 -0.4406040487428937,0.3407535004381108 l -5.540579946748373 -7.231177523385597 a 52.74185568867219 52.74185568867219 0.0 0 0 0.37570999899420343,-0.29056586672806617 z"/><path fill="#fda499" d="M 123.09450592801107,130.14133426200948 l 1.8288144458940185 2.386840735571886 a 40.97870260432352 40.97870260432352 0.0 0 1 -0.7151192330139904,0.5356581839441623 l -1.7763406838008287 -2.426146069297971 a 37.97178209082537 37.97178209082537 0.0 0 0 0.6626454709208005,-0.4963528502180772 z"/><path fill="#ffffff" d="M 124.9233203739051,132.52817499758137 l 3.6861180206795723 4.810863490080655 a 47.03938520470524 47.03938520470524 0.0 0 1 -0.8208841893761978,0.6148811468214692 l -3.5803530643173644 -4.890086452957959 a 40.97870260432352 40.97870260432352 0.0 0 0 0.7151192330139899,-0.5356581839441645 z"/><path fill="#ffc6b2" d="M 128.60943839458469,137.33903848766204 l 3.468252769419081 4.5265209982867765 a 52.74185568867219 52.74185568867219 0.0 0 1 -0.9203979870226142,0.6894216956751231 l -3.3687389717726646 -4.601061547140432 a 47.03938520470524 47.03938520470524 0.0 0 0 0.8208841893761978,-0.6148811468214674 z"/><path fill="#640f00" d="M 132.07769116400374,141.8655594859488 l 5.540579946748369 7.2311775233856 a 61.85162816228684 61.85162816228684 0.0 0 1 -1.0793726028655213,0.8085012142845294 l -5.381605330905458 -7.3502570419950075 a 52.74185568867219 52.74185568867219 0.0 0 0 0.9203979870226107,-0.6894216956751222 z"/><path fill="#f84b52" d="M 142.68397613007892,144.7627310164678 l 3.314974286273854 3.4764170481863115 a 66.65522369184356 66.65522369184356 0.0 0 1 -0.44334682805165393,0.4189019077324634 l -3.283023919546146 -3.5066057598859217 a 61.85162816228684 61.85162816228684 0.0 0 0 0.411396461323946,-0.38871319603285315 z"/><path fill="#bf021e" d="M 145.99895041635278,148.2391480646541 l 6.681588983594238 7.006989450180599 a 76.33724478770108 76.33724478770108 0.0 0 1 -0.5077452818295987,0.47974960852950765 l -6.617190529816291 -7.067837150977638 a 66.65522369184356 66.65522369184356 0.0 0 0 0.44334682805165215,-0.4189019077324687 z"/><path fill="#fdbdbb" d="M 152.680539399947,155.2461375148347 l 6.286678659355135 6.592846574510588 a 85.44701726131574 85.44701726131574 0.0 0 1 -0.5683375131169965,0.5370009514377188 l -6.226086428067738 -6.650097917418805 a 76.33724478770108 76.33724478770108 0.0 0 0 0.5077452818295995,-0.4797496085295023 z"/><path fill="#000000" d="M 158.96721805930216,161.83898408934527 l 10.043052807107909 10.5321601253534 a 100.0 100.0 0.0 0 1 -0.6651344088219027,0.6284607335039567 l -9.946255911403007 -10.623619907419638 a 85.44701726131574 85.44701726131574 0.0 0 0 0.568337513117001,-0.5370009514377188 z"/><path fill="#d94e00" d="M 142.272579668755,145.15144421250065 l 3.2830239195461415 3.5066057598859275 a 66.65522369184356 66.65522369184356 0.0 0 1 -3.4032924905030084,2.976255624998467 l -3.037761212624126 -3.721093498778778 a 61.85162816228684 61.85162816228684 0.0 0 0 3.158029783580993,-2.7617678861056163 z"/><path fill="#be0021" d="M 145.55560358830112,148.65804997238658 l 6.617190529816294 7.067837150977635 a 76.33724478770108 76.33724478770108 0.0 0 1 -3.8976385876785242,3.408572376062441 l -6.1228444326407825 -7.500153902041603 a 66.65522369184356 66.65522369184356 0.0 0 0 3.403292490503013,-2.9762556249984726 z"/><path fill="#a80004" d="M 152.17279411811742,155.7258871233642 l 6.226086428067738 6.650097917418809 a 85.44701726131574 85.44701726131574 0.0 0 1 -4.362766728167195,3.815337368591737 l -5.760958287579065 -7.056862909948109 a 76.33724478770108 76.33724478770108 0.0 0 0 3.8976385876785216,-3.4085723760624376 z"/><path fill="#fa2506" d="M 158.39888054618518,162.375985040783 l 9.946255911403007 10.62361990741964 a 100.0 100.0 0.0 0 1 -5.105815121462811,4.465149856458536 l -9.20320751810739 -11.273432395286434 a 85.44701726131574 85.44701726131574 0.0 0 0 4.362766728167195,-3.8153373685917416 z"/><path fill="#ff4258" d="M 139.114549885174,147.91321209860627 l 3.037761212624123 3.721093498778778 a 66.65522369184356 66.65522369184356 0.0 0 1 -2.314660358129377,1.8061325459710957 l -2.870952198522602 -3.851254793619276 a 61.85162816228684 61.85162816228684 0.0 0 0 2.147851344027856,-1.6759712511305978 z"/><path fill="#ff324f" d="M 142.15231109779813,151.63430559738504 l 6.122844432640782 7.500153902041602 a 76.33724478770108 76.33724478770108 0.0 0 1 -2.6508769241521852,2.0684827781577306 l -5.786627866617977 -7.762504134228237 a 66.65522369184356 66.65522369184356 0.0 0 0 2.3146603581293803,-1.8061325459710957 z"/><path fill="#b9141d" d="M 148.2751555304389,159.13445949942664 l 5.760958287579065 7.056862909948113 a 85.44701726131574 85.44701726131574 0.0 0 1 -2.9672216612689297,2.315326995905063 l -5.444613550462321 -7.303707127695446 a 76.33724478770108 76.33724478770108 0.0 0 0 2.650876924152186,-2.0684827781577297 z"/><path fill="#e90122" d="M 154.03611381801798,166.19132240937475 l 9.203207518107394 11.273432395286436 a 100.0 100.0 0.0 0 1 -3.472586588007534,2.709663918196581 l -8.69784259136879 -11.66776931757795 a 85.44701726131574 85.44701726131574 0.0 0 0 2.9672216612689297,-2.3153269959050675 z"/><path fill="#cd2600" d="M 136.96669854114612,149.58918334973686 l 2.870952198522607 3.8512547936192796 a 66.65522369184356 66.65522369184356 0.0 0 1 -0.4610243539179262,0.3406007075873667 l -2.8377278778641823 -3.875800627324594 a 61.85162816228684 61.85162816228684 0.0 0 0 0.42780003325950133,-0.31605487388205233 z"/><path fill="#fac1c3" d="M 139.83765073966873,153.44043814335612 l 5.786627866617973 7.762504134228234 a 76.33724478770108 76.33724478770108 0.0 0 1 -0.527990561112329,0.3900747480822453 l -5.719661659423565 -7.811978174723109 a 66.65522369184356 66.65522369184356 0.0 0 0 0.46102435391792085,-0.34060070758737027 z"/><path fill="#c90002" d="M 145.62427860628668,161.20294227758438 l 5.4446135504623205 7.303707127695453 a 85.44701726131574 85.44701726131574 0.0 0 1 -0.590998780669195,0.43662466238179665 l -5.381605330905458 -7.3502570419950075 a 76.33724478770108 76.33724478770108 0.0 0 0 0.5279905611123326,-0.39007474808224174 z"/><path fill="#f6b6cc" d="M 151.068892156749,168.5066494052798 l 8.697842591368794 11.667769317577939 a 100.0 100.0 0.0 0 1 -0.6916552497810322,0.5109887698554836 l -8.597186122256957 -11.74213342505162 a 85.44701726131574 85.44701726131574 0.0 0 0 0.5909987806691959,-0.43662466238180286 z"/></g></svg>