<?xml version='1.0' encoding='UTF-8'?>
<svg xmlns="http://www.w3.org/2000/svg" xmlns:svg="http://www.w3.org/2000/svg"><g><path fill="#ff0000" d="M 200.0,99.99999999999999 l 5.0 0.0 a 105.0 105.0 0.0 0 1 -105.0,105.0 l 0.0 -5.0 a 100.0 100.0 0.0 0 0 100.0,-100.0 z"/><path fill="#00ff00" d="M 205.0,99.99999999999999 l 5.0 0.0 a 110.0 110.0 0.0 0 1 -110.0,110.0 l 0.0 -5.0 a 105.0 105.0 0.0 0 0 105.0,-105.0 z"/><path fill="#0000ff" d="M 210.0,99.99999999999999 l 5.0 0.0 a 115.0 115.0 0.0 0 1 -115.0,115.0 l 0.0 -5.0 a 110.0 110.0 0.0 0 0 110.0,-110.0 z"/><path fill="#ff0000" d="M 215.0,99.99999999999999 l 5.0 0.0 a 120.0 120.0 0.0 0 1 -119.99999999999999,120.0 l -1.4210854715202004E-14 -5.0 a 115.0 115.0 0.0 0 0 115.0,-115.0 z"/><path fill="#00ff00" d="M 220.0,99.99999999999999 l 5.0 0.0 a 125.0 125.0 0.0 0 1 -124.99999999999999,125.0 l 0.0 -5.0 a 120.0 120.0 0.0 0 0 119.99999999999999,-120.0 z"/><path fill="#0000ff" d="M 225.0,99.99999999999999 l 5.0 0.0 a 130.0 130.0 0.0 0 1 -130.0,130.0 l 0.0 -5.0 a 125.0 125.0 0.0 0 0 124.99999999999999,-125.0 z"/><path fill="#ff0000" d="M 230.0,99.99999999999999 l 5.0 0.0 a 135.0 135.0 0.0 0 1 -135.0,135.0 l 0.0 -5.0 a 130.0 130.0 0.0 0 0 130.0,-130.0 z"/><path fill="#00ff00" d="M 235.0,99.99999999999999 l 5.0 0.0 a 140.0 140.0 0.0 0 1 -140.0,140.0 l 0.0 -5.0 a 135.0 135.0 0.0 0 0 135.0,-135.0 z"/><path fill="#0000ff" d="M 240.0,99.99999999999999 l 5.0 0.0 a 145.0 145.0 0.0 0 1 -145.0,145.0 l 0.0 -5.0 a 140.0 140.0 0.0 0 0 140.0,-140.0 z"/><path fill="#ff0000" d="M 245.0,99.99999999999999 l 5.0 0.0 a 150.0 150.0 0.0 0 1 -150.0,150.0 l 0.0 -5.0 a 145.0 145.0 0.0 0 0 145.0,-145.0 z"/></g></svg>