<?xml version='1.0' encoding='UTF-8'?>
<svg xmlns="http://www.w3.org/2000/svg" xmlns:svg="http://www.w3.org/2000/svg"><g><circle r="100.0" cx="100.0" cy="100.0"/><circle r="100.0" cx="100.0" cy="100.0"/><circle r="100.0" cx="100.0" cy="100.0"/><circle r="100.0" cx="100.0" cy="100.0"/><circle r="100.0" cx="100.0" cy="100.0"/><circle r="100.0" cx="100.0" cy="100.0"/><circle r="100.0" cx="100.0" cy="100.0"/><circle r="100.0" cx="100.0" cy="100.0"/><circle r="100.0" cx="100.0" cy="100.0"/><circle r="100.0" cx="100.0" cy="100.0"/><circle r="100.0" cx="100.0" cy="100.0"/><circle r="100.0" cx="100.0" cy="100.0"/><circle r="100.0" cx="100.0" cy="100.0"/><circle r="100.0" cx="100.0" cy="100.0"/><circle r="100.0" cx="100.0" cy="100.0"/><circle fill="#ff1f00" r="10.155552091263502" cx="100.0" cy="100.0"/><path fill="#ff9480" d="M 119.26386640874793,100.0 a 19.263866408747926 19.263866408747926 0.0 1 1 -19.263866408747926,-19.263866408747926 a 19.263866408747926 19.263866408747926 0.0 0 1 19.263866408747926,19.263866408747926 z M 110.1555520912635,100.0 a 10.155552091263502 10.155552091263502 0.0 1 0 -10.155552091263502,10.155552091263502 a 10.155552091263502 10.155552091263502 0.0 0 0 10.155552091263502,-10.155552091263502 z"/><path fill="#7b0020" d="M 129.10809771426008,100.0 a 29.108097714260094 29.108097714260094 0.0 1 1 -29.108097714260094,-29.108097714260094 a 29.108097714260094 29.108097714260094 0.0 0 1 29.108097714260094,29.108097714260094 z M 119.26386640874792,100.0 a 19.263866408747926 19.263866408747926 0.0 1 0 -19.263866408747926,19.263866408747926 a 19.263866408747926 19.263866408747926 0.0 0 0 19.263866408747926,-19.263866408747926 z"/><path fill="#e92100" d="M 137.49950469181266,100.0 a 37.49950469181266 37.49950469181266 0.0 1 1 -37.49950469181266,-37.49950469181266 a 37.49950469181266 37.49950469181266 0.0 0 1 37.49950469181266,37.49950469181266 z M 129.10809771426008,100.0 a 29.108097714260094 29.108097714260094 0.0 1 0 -29.108097714260094,29.108097714260094 a 29.108097714260094 29.108097714260094 0.0 0 0 29.108097714260094,-29.108097714260094 z"/><path fill="#cd0025" d="M 146.52992492712298,100.0 a 46.52992492712299 46.52992492712299 0.0 1 1 -46.52992492712299,-46.52992492712299 a 46.52992492712299 46.52992492712299 0.0 0 1 46.52992492712299,46.52992492712299 z M 137.49950469181266,100.0 a 37.49950469181266 37.49950469181266 0.0 1 0 -37.49950469181266,37.49950469181266 a 37.49950469181266 37.49950469181266 0.0 0 0 37.49950469181266,-37.49950469181266 z"/><path fill="#df0e00" d="M 156.51816592238035,100.0 a 56.51816592238035 56.51816592238035 0.0 1 1 -56.51816592238035,-56.51816592238035 a 56.51816592238035 56.51816592238035 0.0 0 1 56.51816592238035,56.51816592238035 z M 146.52992492712298,100.0 a 46.52992492712299 46.52992492712299 0.0 1 0 -46.52992492712299,46.52992492712299 a 46.52992492712299 46.52992492712299 0.0 0 0 46.52992492712299,-46.52992492712299 z"/><path fill="#ff250b" d="M 165.13866262453465,100.0 a 65.13866262453465 65.13866262453465 0.0 1 1 -65.13866262453465,-65.13866262453465 a 65.13866262453465 65.13866262453465 0.0 0 1 65.13866262453465,65.13866262453465 z M 156.51816592238035,100.0 a 56.51816592238035 56.51816592238035 0.0 1 0 -56.51816592238035,56.51816592238035 a 56.51816592238035 56.51816592238035 0.0 0 0 56.51816592238035,-56.51816592238035 z"/><path fill="#eec352" d="M 172.16651531378176,100.0 a 72.16651531378174 72.16651531378174 0.0 1 1 -72.16651531378174,-72.16651531378174 a 72.16651531378174 72.16651531378174 0.0 0 1 72.16651531378174,72.16651531378174 z M 165.13866262453467,100.0 a 65.13866262453465 65.13866262453465 0.0 1 0 -65.13866262453465,65.13866262453465 a 65.13866262453465 65.13866262453465 0.0 0 0 65.13866262453465,-65.13866262453465 z"/><path fill="#790055" d="M 181.57694537858734,100.0 a 81.57694537858734 81.57694537858734 0.0 1 1 -81.57694537858734,-81.57694537858734 a 81.57694537858734 81.57694537858734 0.0 0 1 81.57694537858734,81.57694537858734 z M 172.16651531378176,100.0 a 72.16651531378174 72.16651531378174 0.0 1 0 -72.16651531378174,72.16651531378174 a 72.16651531378174 72.16651531378174 0.0 0 0 72.16651531378174,-72.16651531378174 z"/><path fill="#ff2fa8" d="M 190.81998423191737,100.0 a 90.81998423191739 90.81998423191739 0.0 1 1 -90.81998423191739,-90.81998423191739 a 90.81998423191739 90.81998423191739 0.0 0 1 90.81998423191739,90.81998423191739 z M 181.5769453785873,100.0 a 81.57694537858734 81.57694537858734 0.0 1 0 -81.57694537858734,81.57694537858734 a 81.57694537858734 81.57694537858734 0.0 0 0 81.57694537858734,-81.57694537858734 z"/><path fill="#ff1f00" d="M 200.00000000000003,100.0 a 100.00000000000003 100.00000000000003 0.0 1 1 -100.00000000000003,-100.00000000000003 a 100.00000000000003 100.00000000000003 0.0 0 1 100.00000000000003,100.00000000000003 z M 190.81998423191737,100.0 a 90.81998423191739 90.81998423191739 0.0 1 0 -90.81998423191739,90.81998423191739 a 90.81998423191739 90.81998423191739 0.0 0 0 90.81998423191739,-90.81998423191739 z"/><circle r="100.0" cx="100.0" cy="100.0"/><circle r="100.0" cx="100.0" cy="100.0"/><circle r="100.0" cx="100.0" cy="100.0"/><circle r="100.0" cx="100.0" cy="100.0"/><circle r="100.0" cx="100.0" cy="100.0"/><circle r="100.0" cx="100.0" cy="100.0"/><circle r="100.0" cx="100.0" cy="100.0"/><circle r="100.0" cx="100.0" cy="100.0"/><circle r="100.0" cx="100.0" cy="100.0"/><circle fill="#ff1f00" r="10.155552091263502" cx="100.0" cy="100.0"/><path fill="#ff9480" d="M 119.26386640874793,100.0 a 19.263866408747926 19.263866408747926 0.0 1 1 -19.263866408747926,-19.263866408747926 a 19.263866408747926 19.263866408747926 0.0 0 1 19.263866408747926,19.263866408747926 z M 110.1555520912635,100.0 a 10.155552091263502 10.155552091263502 0.0 1 0 -10.155552091263502,10.155552091263502 a 10.155552091263502 10.155552091263502 0.0 0 0 10.155552091263502,-10.155552091263502 z"/><path fill="#7b0020" d="M 129.10809771426008,100.0 a 29.108097714260094 29.108097714260094 0.0 1 1 -29.108097714260094,-29.108097714260094 a 29.108097714260094 29.108097714260094 0.0 0 1 29.108097714260094,29.108097714260094 z M 119.26386640874792,100.0 a 19.263866408747926 19.263866408747926 0.0 1 0 -19.263866408747926,19.263866408747926 a 19.263866408747926 19.263866408747926 0.0 0 0 19.263866408747926,-19.263866408747926 z"/><path fill="#e92100" d="M 137.49950469181266,100.0 a 37.49950469181266 37.49950469181266 0.0 1 1 -37.49950469181266,-37.49950469181266 a 37.49950469181266 37.49950469181266 0.0 0 1 37.49950469181266,37.49950469181266 z M 129.10809771426008,100.0 a 29.108097714260094 29.108097714260094 0.0 1 0 -29.108097714260094,29.108097714260094 a 29.108097714260094 29.108097714260094 0.0 0 0 29.108097714260094,-29.108097714260094 z"/><path fill="#cd0025" d="M 146.52992492712298,100.0 a 46.52992492712299 46.52992492712299 0.0 1 1 -46.52992492712299,-46.52992492712299 a 46.52992492712299 46.52992492712299 0.0 0 1 46.52992492712299,46.52992492712299 z M 137.49950469181266,100.0 a 37.49950469181266 37.49950469181266 0.0 1 0 -37.49950469181266,37.49950469181266 a 37.49950469181266 37.49950469181266 0.0 0 0 37.49950469181266,-37.49950469181266 z"/><path fill="#df0e00" d="M 156.51816592238035,100.0 a 56.51816592238035 56.51816592238035 0.0 1 1 -56.51816592238035,-56.51816592238035 a 56.51816592238035 56.51816592238035 0.0 0 1 56.51816592238035,56.51816592238035 z M 146.52992492712298,100.0 a 46.52992492712299 46.52992492712299 0.0 1 0 -46.52992492712299,46.52992492712299 a 46.52992492712299 46.52992492712299 0.0 0 0 46.52992492712299,-46.52992492712299 z"/><path fill="#ff250b" d="M 165.13866262453465,100.0 a 65.13866262453465 65.13866262453465 0.0 1 1 -65.13866262453465,-65.13866262453465 a 65.13866262453465 65.13866262453465 0.0 0 1 65.13866262453465,65.13866262453465 z M 156.51816592238035,100.0 a 56.51816592238035 56.51816592238035 0.0 1 0 -56.51816592238035,56.51816592238035 a 56.51816592238035 56.51816592238035 0.0 0 0 56.51816592238035,-56.51816592238035 z"/><path fill="#eec352" d="M 172.16651531378176,100.0 a 72.16651531378174 72.16651531378174 0.0 1 1 -72.16651531378174,-72.16651531378174 a 72.16651531378174 72.16651531378174 0.0 0 1 72.16651531378174,72.16651531378174 z M 165.13866262453467,100.0 a 65.13866262453465 65.13866262453465 0.0 1 0 -65.13866262453465,65.13866262453465 a 65.13866262453465 65.13866262453465 0.0 0 0 65.13866262453465,-65.13866262453465 z"/><path fill="#790055" d="M 181.57694537858734,100.0 a 81.57694537858734 81.57694537858734 0.0 1 1 -81.57694537858734,-81.57694537858734 a 81.57694537858734 81.57694537858734 0.0 0 1 81.57694537858734,81.57694537858734 z M 172.16651531378176,100.0 a 72.16651531378174 72.16651531378174 0.0 1 0 -72.16651531378174,72.16651531378174 a 72.16651531378174 72.16651531378174 0.0 0 0 72.16651531378174,-72.16651531378174 z"/><path fill="#ff2fa8" d="M 190.81998423191737,100.0 a 90.81998423191739 90.81998423191739 0.0 1 1 -90.81998423191739,-90.81998423191739 a 90.81998423191739 90.81998423191739 0.0 0 1 90.81998423191739,90.81998423191739 z M 181.5769453785873,100.0 a 81.57694537858734 81.57694537858734 0.0 1 0 -81.57694537858734,81.57694537858734 a 81.57694537858734 81.57694537858734 0.0 0 0 81.57694537858734,-81.57694537858734 z"/><path fill="#ff1f00" d="M 200.00000000000003,100.0 a 100.00000000000003 100.00000000000003 0.0 1 1 -100.00000000000003,-100.00000000000003 a 100.00000000000003 100.00000000000003 0.0 0 1 100.00000000000003,100.00000000000003 z M 190.81998423191737,100.0 a 90.81998423191739 90.81998423191739 0.0 1 0 -90.81998423191739,90.81998423191739 a 90.81998423191739 90.81998423191739 0.0 0 0 90.81998423191739,-90.81998423191739 z"/><circle r="100.0" cx="100.0" cy="100.0"/><circle r="100.0" cx="100.0" cy="100.0"/><circle r="100.0" cx="100.0" cy="100.0"/><circle r="100.0" cx="100.0" cy="100.0"/><circle r="100.0" cx="100.0" cy="100.0"/><circle r="100.0" cx="100.0" cy="100.0"/><circle r="100.0" cx="100.0" cy="100.0"/><circle r="100.0" cx="100.0" cy="100.0"/><circle r="100.0" cx="100.0" cy="100.0"/><circle fill="#ff1f00" r="10.155552091263502" cx="100.0" cy="100.0"/><path fill="#ff9480" d="M 119.26386640874793,100.0 a 19.263866408747926 19.263866408747926 0.0 1 1 -19.263866408747926,-19.263866408747926 a 19.263866408747926 19.263866408747926 0.0 0 1 19.263866408747926,19.263866408747926 z M 110.1555520912635,100.0 a 10.155552091263502 10.155552091263502 0.0 1 0 -10.155552091263502,10.155552091263502 a 10.155552091263502 10.155552091263502 0.0 0 0 10.155552091263502,-10.155552091263502 z"/><path fill="#7b0020" d="M 129.10809771426008,100.0 a 29.108097714260094 29.108097714260094 0.0 1 1 -29.108097714260094,-29.108097714260094 a 29.108097714260094 29.108097714260094 0.0 0 1 29.108097714260094,29.108097714260094 z M 119.26386640874792,100.0 a 19.263866408747926 19.263866408747926 0.0 1 0 -19.263866408747926,19.263866408747926 a 19.263866408747926 19.263866408747926 0.0 0 0 19.263866408747926,-19.263866408747926 z"/><path fill="#e92100" d="M 137.49950469181266,100.0 a 37.49950469181266 37.49950469181266 0.0 1 1 -37.49950469181266,-37.49950469181266 a 37.49950469181266 37.49950469181266 0.0 0 1 37.49950469181266,37.49950469181266 z M 129.10809771426008,100.0 a 29.108097714260094 29.108097714260094 0.0 1 0 -29.108097714260094,29.108097714260094 a 29.108097714260094 29.108097714260094 0.0 0 0 29.108097714260094,-29.108097714260094 z"/><path fill="#cd0025" d="M 146.52992492712298,100.0 a 46.52992492712299 46.52992492712299 0.0 1 1 -46.52992492712299,-46.52992492712299 a 46.52992492712299 46.52992492712299 0.0 0 1 46.52992492712299,46.52992492712299 z M 137.49950469181266,100.0 a 37.49950469181266 37.49950469181266 0.0 1 0 -37.49950469181266,37.49950469181266 a 37.49950469181266 37.49950469181266 0.0 0 0 37.49950469181266,-37.49950469181266 z"/><path fill="#df0e00" d="M 156.51816592238035,100.0 a 56.51816592238035 56.51816592238035 0.0 1 1 -56.51816592238035,-56.51816592238035 a 56.51816592238035 56.51816592238035 0.0 0 1 56.51816592238035,56.51816592238035 z M 146.52992492712298,100.0 a 46.52992492712299 46.52992492712299 0.0 1 0 -46.52992492712299,46.52992492712299 a 46.52992492712299 46.52992492712299 0.0 0 0 46.52992492712299,-46.52992492712299 z"/><path fill="#ff250b" d="M 165.13866262453465,100.0 a 65.13866262453465 65.13866262453465 0.0 1 1 -65.13866262453465,-65.13866262453465 a 65.13866262453465 65.13866262453465 0.0 0 1 65.13866262453465,65.13866262453465 z M 156.51816592238035,100.0 a 56.51816592238035 56.51816592238035 0.0 1 0 -56.51816592238035,56.51816592238035 a 56.51816592238035 56.51816592238035 0.0 0 0 56.51816592238035,-56.51816592238035 z"/><path fill="#eec352" d="M 172.16651531378176,100.0 a 72.16651531378174 72.16651531378174 0.0 1 1 -72.16651531378174,-72.16651531378174 a 72.16651531378174 72.16651531378174 0.0 0 1 72.16651531378174,72.16651531378174 z M 165.13866262453467,100.0 a 65.13866262453465 65.13866262453465 0.0 1 0 -65.13866262453465,65.13866262453465 a 65.13866262453465 65.13866262453465 0.0 0 0 65.13866262453465,-65.13866262453465 z"/><path fill="#790055" d="M 181.57694537858734,100.0 a 81.57694537858734 81.57694537858734 0.0 1 1 -81.57694537858734,-81.57694537858734 a 81.57694537858734 81.57694537858734 0.0 0 1 81.57694537858734,81.57694537858734 z M 172.16651531378176,100.0 a 72.16651531378174 72.16651531378174 0.0 1 0 -72.16651531378174,72.16651531378174 a 72.16651531378174 72.16651531378174 0.0 0 0 72.16651531378174,-72.16651531378174 z"/><path fill="#ff2fa8" d="M 190.81998423191737,100.0 a 90.81998423191739 90.81998423191739 0.0 1 1 -90.81998423191739,-90.81998423191739 a 90.81998423191739 90.81998423191739 0.0 0 1 90.81998423191739,90.81998423191739 z M 181.5769453785873,100.0 a 81.57694537858734 81.57694537858734 0.0 1 0 -81.57694537858734,81.57694537858734 a 81.57694537858734 81.57694537858734 0.0 0 0 81.57694537858734,-81.57694537858734 z"/><path fill="#ff1f00" d="M 200.00000000000003,100.0 a 100.00000000000003 100.00000000000003 0.0 1 1 -100.00000000000003,-100.00000000000003 a 100.00000000000003 100.00000000000003 0.0 0 1 100.00000000000003,100.00000000000003 z M 190.81998423191737,100.0 a 90.81998423191739 90.81998423191739 0.0 1 0 -90.81998423191739,90.81998423191739 a 90.81998423191739 90.81998423191739 0.0 0 0 90.81998423191739,-90.81998423191739 z"/><circle r="100.0" cx="100.0" cy="100.0"/><circle r="100.0" cx="100.0" cy="100.0"/><circle r="100.0" cx="100.0" cy="100.0"/><path fill="#ff1f00" d="M 100.0,100.0 l 5.67729792814112 8.420423179003002 a 10.155552091263502 10.155552091263502 0.0 0 1 -2.49705327717552,1.224330951526774 l -3.1802446509655997 -9.644754130529776 z"/><path fill="#ff9480" d="M 100.0,100.0 l 3.1802446509656024 9.644754130529776 a 10.155552091263502 10.155552091263502 0.0 0 1 -2.744509259587805,0.5014457958991976 l -0.4357353913777975 -10.146199926428974 z"/><path fill="#7b0020" d="M 100.0,100.0 l 0.4357353913777975 10.146199926428974 a 10.155552091263502 10.155552091263502 0.0 0 1 -2.5325173159736276,-0.20946284431521356 l 2.09678192459583 -9.93673708211376 z"/><path fill="#e92100" d="M 100.0,100.0 l -2.09678192459583 9.93673708211376 a 10.155552091263502 10.155552091263502 0.0 0 1 -3.1306098236588173,-1.2298654402066802 l 5.2273917482546475 -8.70687164190708 z"/><path fill="#cd0025" d="M 100.0,100.0 l -5.2273917482546475 8.70687164190708 a 10.155552091263502 10.155552091263502 0.0 0 1 -2.329954701321057,-1.9229382018258763 l 7.557346449575705 -6.783933440081204 z"/><path fill="#df0e00" d="M 100.0,100.0 l -7.557346449575705 6.783933440081204 a 10.155552091263502 10.155552091263502 0.0 0 1 -1.798294780609898,-2.833336592715262 l 9.355641230185602 -3.950596847365942 z"/><path fill="#ff250b" d="M 100.0,100.0 l -9.355641230185602 3.950596847365942 a 10.155552091263502 10.155552091263502 0.0 0 1 -0.6947696778997443,-2.4930376351877315 l 10.050410908085347 -1.4575592121782104 z"/><path fill="#eec352" d="M 100.0,100.0 l -10.050410908085347 1.4575592121782104 a 10.155552091263502 10.155552091263502 0.0 0 1 3.660145891384303E-4,-2.9176400034624677 l 10.050044893496208 1.4600807912842573 z"/><path fill="#790055" d="M 100.0,100.0 l -10.050044893496208 -1.4600807912842573 a 10.155552091263502 10.155552091263502 0.0 0 1 1.044241215121037,-3.2336105476227557 l 9.005803678375171 4.693691338907013 z"/><path fill="#ff2fa8" d="M 100.0,100.0 l -9.005803678375171 -4.693691338907013 a 10.155552091263502 10.155552091263502 0.0 0 1 1.8647532889149208,-2.5271560915235787 l 7.141050389460251 7.220847430430592 z"/><path fill="#ff1f00" d="M 100.0,100.0 l -7.141050389460251 -7.220847430430592 a 10.155552091263502 10.155552091263502 0.0 0 1 2.7801356461931235,-1.9507206405331683 l 4.360914743267127 9.17156807096376 z"/><path fill="#ff9480" d="M 100.0,100.0 l -4.360914743267127 -9.17156807096376 a 10.155552091263502 10.155552091263502 0.0 0 1 2.401391615880608,-0.7931450403909199 l 1.959523127386519 9.96471311135468 z"/><path fill="#7b0020" d="M 100.0,100.0 l -1.959523127386519 -9.96471311135468 a 10.155552091263502 10.155552091263502 0.0 0 1 2.333787421108363,-0.1839402237835035 l -0.37426429372184383 10.148653335138183 z"/><path fill="#e92100" d="M 100.0,100.0 l 0.37426429372184383 -10.148653335138183 a 10.155552091263502 10.155552091263502 0.0 0 1 2.8204328961068055,0.508676771698445 l -3.1946971898286494 9.639976563439738 z"/><path fill="#cd0025" d="M 100.0,100.0 l 3.1946971898286494 -9.639976563439738 a 10.155552091263502 10.155552091263502 0.0 0 1 2.972843394437265,1.5717251159574932 l -6.167540584265915 8.068251447482245 z"/><path fill="#df0e00" d="M 100.0,100.0 l 6.167540584265915 -8.068251447482245 a 10.155552091263502 10.155552091263502 0.0 0 1 2.1978882118700174,2.310227538609844 l -8.365428796135932 5.758023908872401 z"/><path fill="#ff250b" d="M 100.0,100.0 l 8.365428796135932 -5.758023908872401 a 10.155552091263502 10.155552091263502 0.0 0 1 1.4144615095057311,3.021423118113416 l -9.779890305641663 2.736600790758985 z"/><path fill="#eec352" d="M 100.0,100.0 l 9.779890305641663 -2.736600790758985 a 10.155552091263502 10.155552091263502 0.0 0 1 0.35857809384176953,3.32541042981248 l -10.138468399483433 -0.5888096390534948 z"/><path fill="#790055" d="M 100.0,100.0 l 10.138468399483433 0.5888096390534924 a 10.155552091263502 10.155552091263502 0.0 0 1 -0.6613078291752679,3.0606650906799127 l -9.477160570308165 -3.649474729733405 z"/><path fill="#ff2fa8" d="M 100.0,100.0 l 9.477160570308166 3.6494747297334027 a 10.155552091263502 10.155552091263502 0.0 0 1 -1.4306877140977026,2.546452388352694 l -8.046472856210464 -6.195927118086097 z"/><path fill="#ff1f00" d="M 100.0,100.0 l 8.046472856210466 6.195927118086096 a 10.155552091263502 10.155552091263502 0.0 0 1 -2.369174928069379,2.2244960609169278 l -5.677297928141087 -8.420423179003024 z"/><path fill="#ff1f00" d="M 118.68028945380978,104.70567050864904 l 9.546011498175432 2.4046942577234764 a 29.108097714260094 29.108097714260094 0.0 0 1 -2.9871695418803554,7.390242055632254 l -8.53576382731356 -4.904041790273729 a 19.263866408747926 19.263866408747926 0.0 0 0 1.976921871018483,-4.890894523082001 z"/><path fill="#ff9480" d="M 116.70336758279129,109.59656503173105 l 8.535763827313557 4.904041790273733 a 29.108097714260094 29.108097714260094 0.0 0 1 -4.898278125833352,6.320801396716981 l -6.879187594033592 -7.0417091705437596 a 19.263866408747926 19.263866408747926 0.0 0 0 3.2417018925533867,-4.183134016446955 z"/><path fill="#7b0020" d="M 113.46166569023791,113.779699048178 l 6.879187594033594 7.0417091705437596 a 29.108097714260094 29.108097714260094 0.0 0 1 -5.805875149011827,4.397944729965008 l -4.915666018049693 -8.529074838188329 a 19.263866408747926 19.263866408747926 0.0 0 0 3.8423535730279266,-2.910579062320439 z"/><path fill="#e92100" d="M 109.61931211720999,116.69027811049844 l 4.915666018049693 8.529074838188327 a 29.108097714260094 29.108097714260094 0.0 0 1 -9.03453235989347,3.3643215669378694 l -1.8602266980025028 -9.666873673968464 a 19.263866408747926 19.263866408747926 0.0 0 0 5.97909303984628,-2.2265227311577327 z"/><path fill="#cd0025" d="M 103.64021907736371,118.91680084165618 l 1.8602266980025035 9.66687367396846 a 29.108097714260094 29.108097714260094 0.0 0 1 -8.651624237278838,0.353350674330386 l 1.065714770114253 -9.786375326196424 a 19.263866408747926 19.263866408747926 0.0 0 0 5.725682769162082,-0.2338490221024223 z"/><path fill="#df0e00" d="M 97.91453630820162,119.1506498637586 l -1.0657147701142526 9.78637532619642 a 29.108097714260094 29.108097714260094 0.0 0 1 -9.258601487133712,-2.606838822229456 l 4.196933288741518 -8.904753840858213 a 19.263866408747926 19.263866408747926 0.0 0 0 6.1273829685064465,1.725217336891248 z"/><path fill="#ff250b" d="M 91.78715333969518,117.42543252686735 l -4.196933288741519 8.904753840858213 a 29.108097714260094 29.108097714260094 0.0 0 1 -6.252317750820234,-3.991711442530953 l 6.311439799569978 -7.554774493843601 a 19.263866408747926 19.263866408747926 0.0 0 0 4.137811239991775,2.641732095516341 z"/><path fill="#eec352" d="M 87.6493420997034,114.78370043135102 l -6.311439799569979 7.554774493843602 a 29.108097714260094 29.108097714260094 0.0 0 1 -5.5810044307137,-6.227815359889157 l 8.19891108238481 -5.448554584435524 a 19.263866408747926 19.263866408747926 0.0 0 0 3.6935331478988687,4.121595450481079 z"/><path fill="#790055" d="M 83.95580895180453,110.66210498086994 l -8.198911082384809 5.448554584435524 a 29.108097714260094 29.108097714260094 0.0 0 1 -3.9575514986922347,-8.899245874168788 l 9.537337685835318 -2.438868562012149 a 19.263866408747926 19.263866408747926 0.0 0 0 2.6191248952417254,5.889559851745414 z"/><path fill="#ff2fa8" d="M 81.3366840565628,104.77254512912452 l -9.537337685835318 2.4388685620121495 a 29.108097714260094 29.108097714260094 0.0 0 1 -0.8548039149584703,-8.961196374302018 l 9.82642863029735 0.5917688485366304 a 19.263866408747926 19.263866408747926 0.0 0 0 0.5657129704964383,5.9305589637532385 z"/><path fill="#ff1f00" d="M 80.77097108606637,98.84198616537128 l -9.826428630297348 -0.5917688485366299 a 29.108097714260094 29.108097714260094 0.0 0 1 2.2016836660134604,-9.482144179153357 l 9.081828846327731 3.7985885276554026 a 19.263866408747926 19.263866408747926 0.0 0 0 -1.4570838820438432,6.275324500034584 z"/><path fill="#ff9480" d="M 82.2280549681102,92.56666166533671 l -9.081828846327735 -3.7985885276554026 a 29.108097714260094 29.108097714260094 0.0 0 1 3.6079079248041843,-6.286950630798621 l 7.861650169953327 5.92480772698141 a 19.263866408747926 19.263866408747926 0.0 0 0 -2.3877292484297765,4.160731431472614 z"/><path fill="#7b0020" d="M 84.61578421653999,88.40593023386408 l -7.861650169953328 -5.924807726981409 a 29.108097714260094 29.108097714260094 0.0 0 1 4.629100249519941,-4.857390901529102 l 6.296108716849243 7.567556079874185 a 19.263866408747926 19.263866408747926 0.0 0 0 -3.0635587964158564,3.2146425486363253 z"/><path fill="#e92100" d="M 87.67934301295584,85.19128768522776 l -6.296108716849245 -7.567556079874185 a 29.108097714260094 29.108097714260094 0.0 0 1 6.992804124894699,-4.310148932392359 l 3.931172953771921 9.025229592866761 a 19.263866408747926 19.263866408747926 0.0 0 0 -4.627868361817375,2.8524754193997826 z"/><path fill="#cd0025" d="M 92.30721137477322,82.33881226582798 l -3.9311729537719216 -9.025229592866761 a 29.108097714260094 29.108097714260094 0.0 0 1 9.351829113706398,-2.33286534161239 l 0.7684252596878958 9.814194445633294 a 19.263866408747926 19.263866408747926 0.0 0 0 -6.189081419622371,1.543900488845857 z"/><path fill="#df0e00" d="M 98.49629279439559,80.79491177698212 l -0.7684252596878954 -9.814194445633293 a 29.108097714260094 29.108097714260094 0.0 0 1 9.11068457802631,0.7258990331731656 l -2.312768407382811 9.568698568260878 a 19.263866408747926 19.263866408747926 0.0 0 0 -6.029490910955604,-0.4804031558007509 z"/><path fill="#ff250b" d="M 104.52578370535122,81.27531493278288 l 2.3127684073828116 -9.568698568260878 a 29.108097714260094 29.108097714260094 0.0 0 1 8.799218113269,3.742589454807451 l -5.288625478669073 8.302971187641091 a 19.263866408747926 19.263866408747926 0.0 0 0 -5.823361041982738,-2.4768620741876646 z"/><path fill="#eec352" d="M 110.34914474733391,83.75217700697053 l 5.288625478669075 -8.30297118764109 a 29.108097714260094 29.108097714260094 0.0 0 1 7.1272107425382485,6.411417288261388 l -7.6990169718344035 6.1346579092751075 a 19.263866408747926 19.263866408747926 0.0 0 0 -4.71681924937292,-4.243104009895406 z"/><path fill="#790055" d="M 115.06596399670686,87.99528101686595 l 7.699016971834402 -6.134657909275107 a 29.108097714260094 29.108097714260094 0.0 0 1 4.44398087875445,7.797532388873065 l -9.201951863601654 3.497566567827392 a 19.263866408747926 19.263866408747926 0.0 0 0 -2.9410459869871985,-5.16044104742535 z"/><path fill="#ff2fa8" d="M 118.00700998369405,93.15572206429131 l 9.201951863601652 -3.4975665678273917 a 29.108097714260094 29.108097714260094 0.0 0 1 1.8181455532853423,8.171962364329849 l -9.816840735740517 0.7338446467280209 a 19.263866408747926 19.263866408747926 0.0 0 0 -1.2032566811464775,-5.408240443230478 z"/><path fill="#ff1f00" d="M 119.21026666484053,98.56396250752177 l 9.816840735740517 -0.7338446467280204 a 29.108097714260094 29.108097714260094 0.0 0 1 -0.8008064485958606,9.280246905578881 l -9.546011498175421 -2.404694257723513 a 19.263866408747926 19.263866408747926 0.0 0 0 0.529977211030765,-6.141708001127348 z"/><path fill="#ff1f00" d="M 122.10650602944816,130.29051408116496 l 5.323564698280517 7.294391580490023 a 46.52992492712299 46.52992492712299 0.0 0 1 -11.224036877411354,6.031586409189876 l -3.145229575273218 -8.464987923507572 a 37.49950469181266 37.49950469181266 0.0 0 0 9.045701754404055,-4.860990066172327 z"/><path fill="#ff9480" d="M 113.06080427504409,135.15150414733728 l 3.145229575273218 8.464987923507566 a 46.52992492712299 46.52992492712299 0.0 0 1 -12.48033037920242,2.7640323695819173 l -0.7230759144575796 -9.001424934321989 a 37.49950469181266 37.49950469181266 0.0 0 0 10.05817671838678,-2.227595358767495 z"/><path fill="#7b0020" d="M 103.0026275566573,137.37909950610478 l 0.7230759144575797 9.001424934321989 a 46.52992492712299 46.52992492712299 0.0 0 1 -11.630977270315134,-0.5270560886937545 l 1.5342372590064777 -8.899135107378612 a 37.49950469181266 37.49950469181266 0.0 0 0 9.373664096851076,0.4247662617503778 z"/><path fill="#e92100" d="M 93.62896345980624,136.9543332443544 l -1.5342372590064763 8.899135107378616 a 46.52992492712299 46.52992492712299 0.0 0 1 -14.543424911826913,-5.0969984370651 l 4.356791536069622 -7.909921436874981 a 37.49950469181266 37.49950469181266 0.0 0 0 11.720870634763767,4.1077847665614655 z"/><path fill="#cd0025" d="M 81.90809282504247,132.8465484777929 l -4.356791536069623 7.909921436874982 a 46.52992492712299 46.52992492712299 0.0 0 1 -10.995807686714432,-8.40683459160553 l 6.490832465497501 -6.278342419074161 a 37.49950469181266 37.49950469181266 0.0 0 0 8.861766757286553,6.77525557380471 z"/><path fill="#df0e00" d="M 73.04632606775591,126.07129290398822 l -6.490832465497499 6.278342419074157 a 46.52992492712299 46.52992492712299 0.0 0 1 -8.71686743152909,-12.66582292423595 l 8.182581939959093 -3.820188794046379 a 37.49950469181266 37.49950469181266 0.0 0 0 7.025117957067497,10.207669299208172 z"/><path fill="#ff250b" d="M 66.02120811068843,115.86362360478005 l -8.182581939959096 3.8201887940463775 a 46.52992492712299 46.52992492712299 0.0 0 1 -3.6062804800456014,-11.295979976404887 l 8.882480516460454 -1.6278911207456979 a 37.49950469181266 37.49950469181266 0.0 0 0 2.9063819035442435,9.103682303104208 z"/><path fill="#eec352" d="M 63.114826207144176,106.75994130167584 l -8.882480516460456 1.6278911207456985 a 46.52992492712299 46.52992492712299 0.0 0 1 -0.49599505701143265,-13.358613149147288 l 8.978742090199617 0.9647176291434079 a 37.49950469181266 37.49950469181266 0.0 0 0 0.39973348327227143,10.766004399258183 z"/><path fill="#790055" d="M 62.715092723871905,95.99393690241764 l -8.978742090199619 -0.9647176291434085 a 46.52992492712299 46.52992492712299 0.0 0 1 4.229540120690418,-14.983356028582193 l 8.157882723850726 3.872652720061552 a 37.49950469181266 37.49950469181266 0.0 0 0 -3.4086807543415247,12.075420937664049 z"/><path fill="#ff2fa8" d="M 66.12377347821342,83.9185159647536 l -8.157882723850728 -3.872652720061549 a 46.52992492712299 46.52992492712299 0.0 0 1 8.106795005900688,-11.888778660870074 l 6.584534695040041 6.179999391271512 a 37.49950469181266 37.49950469181266 0.0 0 0 -6.533446977090001,9.58143198966011 z"/><path fill="#ff1f00" d="M 72.65722045530343,74.33708397509349 l -6.5845346950400385 -6.1799993912715125 a 46.52992492712299 46.52992492712299 0.0 0 1 12.396240161464416,-9.405681684325376 l 4.178701069235036 8.005432343120276 a 37.49950469181266 37.49950469181266 0.0 0 0 -9.990406535659414,7.580248732476612 z"/><path fill="#ff9480" d="M 82.64762699096285,66.75683524261689 l -4.178701069235036 -8.00543234312028 a 46.52992492712299 46.52992492712299 0.0 0 1 10.859594216740678,-4.0410643167409255 l 2.0710961350833035 8.78971276126503 a 37.49950469181266 37.49950469181266 0.0 0 0 -8.751989282588946,3.2567838985961757 z"/><path fill="#7b0020" d="M 91.3996162735518,63.500051344020704 l -2.0710961350833044 -8.789712761265028 a 46.52992492712299 46.52992492712299 0.0 0 1 10.653979208856157,-1.240260218740163 l 0.003396486203191884 9.030419596573779 a 37.49950469181266 37.49950469181266 0.0 0 0 -8.586279559976045,0.9995533834314116 z"/><path fill="#e92100" d="M 99.98589583352783,62.50049796058929 l -0.0033964862031921755 -9.03041959657378 a 46.52992492712299 46.52992492712299 0.0 0 1 13.000250014989069,1.8479103482297266 l -2.519661975277751 8.671781429247496 a 37.49950469181266 37.49950469181266 0.0 0 0 -10.477191553508126,-1.4892721809034413 z"/><path fill="#cd0025" d="M 110.463087387036,63.98977014149274 l 2.5196619752777507 -8.671781429247494 a 46.52992492712299 46.52992492712299 0.0 0 1 13.879396025125262,6.689129600420335 l -5.21334306149236 7.373570624161115 a 37.49950469181266 37.49950469181266 0.0 0 0 -11.185714938910653,-5.390918795333956 z"/><path fill="#df0e00" d="M 121.64880232594662,69.38068893682669 l 5.2133430614923615 -7.373570624161115 a 46.52992492712299 46.52992492712299 0.0 0 1 10.457196249535793,10.202583856860173 l -7.242851528663195 5.393476741401923 a 37.49950469181266 37.49950469181266 0.0 0 0 -8.42768778236496,-8.22248997410098 z"/><path fill="#ff250b" d="M 130.0764901083116,77.60317891092768 l 7.242851528663194 -5.3934767414019245 a 46.52992492712299 46.52992492712299 0.0 0 1 6.991551413162527,13.5924574727651 l -8.599755659854523 2.7554840259203903 a 37.49950469181266 37.49950469181266 0.0 0 0 -5.634647281971198,-10.954464757283565 z"/><path fill="#eec352" d="M 135.71113739028277,88.55764366821124 l 8.59975565985452 -2.7554840259203908 a 46.52992492712299 46.52992492712299 0.0 0 1 2.208992045906644,15.164382842326 l -9.028471728110347 -0.1875843304076188 a 37.49950469181266 37.49950469181266 0.0 0 0 -1.7802759776508168,-12.221314485997992 z"/><path fill="#790055" d="M 137.4914133679336,100.77895815420919 l 9.028471728110345 0.1875843304076156 a 46.52992492712299 46.52992492712299 0.0 0 1 -2.5057616096186077,14.126199063736884 l -8.542159309171254 -2.9291643796552673 a 37.49950469181266 37.49950469181266 0.0 0 0 2.0194491906795164,-11.384619014489232 z"/><path fill="#ff2fa8" d="M 135.47196417725408,112.16357716869845 l 8.542159309171252 2.9291643796552655 a 46.52992492712299 46.52992492712299 0.0 0 1 -6.116114115306365,11.903087748600285 l -7.355158024410212 -5.239288125523959 a 37.49950469181266 37.49950469181266 0.0 0 0 4.929112830545325,-9.592964002731591 z"/><path fill="#ff1f00" d="M 130.54285134670874,121.75654117143006 l 7.355158024410212 5.2392881255239585 a 46.52992492712299 46.52992492712299 0.0 0 1 -10.467938643390443,10.589076364701086 l -5.323564698280492 -7.294391580490046 a 37.49950469181266 37.49950469181266 0.0 0 0 8.436345317260724,-8.533972909734999 z"/><path fill="#ff1f00" d="M 43.48212885276869,100.18253825536986 l -8.62045174124379 0.027841852309822314 a 65.13866262453465 65.13866262453465 0.0 0 1 2.3853396524017114,-17.677734328798554 l 8.304774203840658 2.3116420170683796 a 56.51816592238035 56.51816592238035 0.0 0 0 -2.0696621149985788,15.338250459420351 z"/><path fill="#ff9480" d="M 45.55179096776727,84.84428779594951 l -8.304774203840653 -2.3116420170683827 a 65.13866262453465 65.13866262453465 0.0 0 1 7.1211948737150355,-16.417000459451888 l 7.362350235480939 4.484279474114755 a 56.51816592238035 56.51816592238035 0.0 0 0 -6.1787709053553215,14.244363002405516 z"/><path fill="#7b0020" d="M 51.730561873122596,70.59992479354399 l -7.362350235480938 -4.484279474114756 a 65.13866262453465 65.13866262453465 0.0 0 1 10.153677803816052,-12.750255090906375 l 6.0186053304456095 6.171657254594166 a 56.51816592238035 56.51816592238035 0.0 0 0 -8.809932898780723,11.062877310426966 z"/><path fill="#e92100" d="M 60.54049477190332,59.53704748311703 l -6.01860533044561 -6.171657254594168 a 65.13866262453465 65.13866262453465 0.0 0 1 17.72647791928531,-12.296640464443305 l 3.6726706998126915 7.799003354441545 a 56.51816592238035 56.51816592238035 0.0 0 0 -15.38054328865239,10.669294364595928 z"/><path fill="#cd0025" d="M 75.9210380605557,48.8677531185211 l -3.6726706998126915 -7.799003354441546 a 65.13866262453465 65.13866262453465 0.0 0 1 18.563254799173574,-5.556105743223347 l 1.215996424813806 8.534302319855634 a 56.51816592238035 56.51816592238035 0.0 0 0 -16.10658052417469,4.82080677780926 z"/><path fill="#df0e00" d="M 92.02761858473039,44.04694634071185 l -1.2159964248138044 -8.53430231985563 a 65.13866262453465 65.13866262453465 0.0 0 1 21.518235900517283,0.5262743065946474 l -1.6317421400046754 8.464654805742882 a 56.51816592238035 56.51816592238035 0.0 0 0 -18.6704973356988,-0.45662679248189875 z"/><path fill="#ff250b" d="M 110.6981159204292,44.503573133193754 l 1.6317421400046757 -8.464654805742883 a 65.13866262453465 65.13866262453465 0.0 0 1 15.766592091984482,5.193447235338569 l -3.718304093488367 7.777350323869996 a 56.51816592238035 56.51816592238035 0.0 0 0 -13.68003013850079,-4.5061427534656815 z"/><path fill="#eec352" d="M 124.37814605893003,49.00971588665946 l 3.7183040934883693 -7.777350323869999 a 65.13866262453465 65.13866262453465 0.0 0 1 15.549030898085915,10.413551337817406 l -5.776073844630886 6.399213571465182 a 56.51816592238035 56.51816592238035 0.0 0 0 -13.491261146943398,-9.035414585412589 z"/><path fill="#790055" d="M 137.86940720587336,58.04513047207198 l 5.776073844630885 -6.399213571465178 a 65.13866262453465 65.13866262453465 0.0 0 1 13.508010357178543,17.104702490733505 l -7.563733493216674 4.135565140998924 a 56.51816592238035 56.51816592238035 0.0 0 0 -11.720350708592754,-14.84105406026725 z"/><path fill="#ff2fa8" d="M 149.58975791446613,72.88618453233927 l 7.563733493216671 -4.135565140998925 a 65.13866262453465 65.13866262453465 0.0 0 1 6.814775814436575,18.956856168477586 l -8.465605746457314 1.6268013822842544 a 56.51816592238035 56.51816592238035 0.0 0 0 -5.912903561195932,-16.448092409762914 z"/><path fill="#ff1f00" d="M 155.50266147566208,89.33427694210219 l 8.46560574645732 -1.6268013822842546 a 65.13866262453465 65.13866262453465 0.0 0 1 0.4759674004126797,21.77861912814432 l -8.528595609010083 -1.255396483118787 a 56.51816592238035 56.51816592238035 0.0 0 0 -0.4129775378599163,-18.896421262741278 z"/><path fill="#ff9480" d="M 155.91563901352197,108.2306982048435 l 8.528595609010086 1.2553964831187845 a 65.13866262453465 65.13866262453465 0.0 0 1 -4.342090733208675,15.629192856081795 l -7.953960249026792 -3.3237749245029864 a 56.51816592238035 56.51816592238035 0.0 0 0 3.7674553732253813,-13.560814414697594 z"/><path fill="#7b0020" d="M 152.14818364029662,121.79151261954102 l 7.953960249026788 3.323774924502989 a 65.13866262453465 65.13866262453465 0.0 0 1 -7.347763924680694,13.094930501120963 l -6.981551972147912 -5.056767292653554 a 56.51816592238035 56.51816592238035 0.0 0 0 6.375355647801818,-11.361938132970398 z"/><path fill="#e92100" d="M 145.7728279924948,133.15345075251142 l 6.981551972147912 5.056767292653552 a 65.13866262453465 65.13866262453465 0.0 0 1 -12.775844836169917,13.217032488909028 l -5.2907876266736835 -6.805918724264181 a 56.51816592238035 56.51816592238035 0.0 0 0 11.085080490695688,-11.4678810572984 z"/><path fill="#cd0025" d="M 134.68774750179912,144.62133180980982 l 5.290787626673687 6.8059187242641785 a 65.13866262453465 65.13866262453465 0.0 0 1 -18.9855202013488,10.23585588120886 l -2.778230449566916 -8.16053913420874 a 56.51816592238035 56.51816592238035 0.0 0 0 16.472963024242027,-8.881235471264297 z"/><path fill="#df0e00" d="M 118.21478447755712,153.5025672810741 l 2.778230449566918 8.16053913420874 a 65.13866262453465 65.13866262453465 0.0 0 1 -20.156136775694357,3.470180032374678 l -0.11075304671341613 -8.619785215102333 a 56.51816592238035 56.51816592238035 0.0 0 0 17.488659372840853,-3.0109339514810856 z"/><path fill="#ff250b" d="M 100.72612510471627,156.51350123255517 l 0.11075304671341833 8.619785215102336 a 65.13866262453465 65.13866262453465 0.0 0 1 -21.150983654786685,-3.243202539882528 l 2.6883830960469375 -8.190577496168522 a 56.51816592238035 56.51816592238035 0.0 0 0 18.35184751202633,2.8139948209487144 z"/><path fill="#eec352" d="M 82.37427759268996,153.69950641160648 l -2.6883830960469353 8.190577496168522 a 65.13866262453465 65.13866262453465 0.0 0 1 -19.003243970162746,-9.955592489353783 l 5.203285849259423 -6.873047341809148 a 56.51816592238035 56.51816592238035 0.0 0 0 16.488341216950257,8.638062334994409 z"/><path fill="#790055" d="M 65.88593637573972,145.06144407661208 l -5.20328584925942 6.873047341809149 a 65.13866262453465 65.13866262453465 0.0 0 1 -13.952749706270819,-14.446601348583613 l 7.049802617990075 -4.961173897298238 a 56.51816592238035 56.51816592238035 0.0 0 0 12.106232937540163,12.534727904072703 z"/><path fill="#ff2fa8" d="M 53.77970343819957,132.52671617253938 l -7.049802617990073 4.961173897298245 a 65.13866262453465 65.13866262453465 0.0 0 1 -8.466583884533849,-16.71224729450782 l 8.170276320003815 -2.74946326519159 a 56.51816592238035 56.51816592238035 0.0 0 0 7.346110182520107,14.500536662401164 z"/><path fill="#ff1f00" d="M 46.43359325567946,118.02617951013822 l -8.170276320003818 2.7494632651915905 a 65.13866262453465 65.13866262453465 0.0 0 1 -3.4016398241507524,-20.56526266765037 l 8.62045174124379 -0.027841852309791193 a 56.51816592238035 56.51816592238035 0.0 0 0 2.95146440291078,17.84364125476857 z"/><path fill="#ff1f00" d="M 130.164699972578,42.266679949293575 l 3.2544891049508 -6.228885461100902 a 72.16651531378174 72.16651531378174 0.0 0 1 16.097727940204656,11.46381637849013 l -4.8221477358744735 5.112494952091232 a 65.13866262453465 65.13866262453465 0.0 0 0 -14.530069309280982,-10.34742586948046 z"/><path fill="#ff9480" d="M 144.69476928185895,52.61410581877404 l 4.822147735874474 -5.112494952091234 a 72.16651531378174 72.16651531378174 0.0 0 1 12.41713699314272,15.45545611887878 l -6.031376271166415 3.607383220198315 a 65.13866262453465 65.13866262453465 0.0 0 0 -11.207908457850777,-13.950344386985861 z"/><path fill="#7b0020" d="M 155.90267773970976,66.5644502057599 l 6.0313762711664145 -3.607383220198318 a 72.16651531378174 72.16651531378174 0.0 0 1 7.2572955410204125,16.535298345331427 l -6.738119609996872 1.9971123010820655 a 65.13866262453465 65.13866262453465 0.0 0 0 -6.550552202189955,-14.925027426215173 z"/><path fill="#e92100" d="M 162.4532299418997,81.48947763197506 l 6.738119609996869 -1.997112301082064 a 72.16651531378174 72.16651531378174 0.0 0 1 2.9034298035054205,23.724577663659595 l -7.020866765847259 -0.3132782756257555 a 65.13866262453465 65.13866262453465 0.0 0 0 -2.6206826476550305,-21.414187086951774 z"/><path fill="#cd0025" d="M 165.0739125895547,102.90366471892689 l 7.020866765847264 0.3132782756257513 a 72.16651531378174 72.16651531378174 0.0 0 1 -4.136119090616735,21.06528152359638 l -6.618075588420325 -2.3646963711463194 a 65.13866262453465 65.13866262453465 0.0 0 0 3.7333279131897967,-19.013863428075812 z"/><path fill="#df0e00" d="M 161.34058467636493,121.91752814700263 l 6.61807558842033 2.3646963711463167 a 72.16651531378174 72.16651531378174 0.0 0 1 -11.623944164706137,20.822162125034477 l -5.48609122001357 -4.392438565016903 a 65.13866262453465 65.13866262453465 0.0 0 0 10.491959796299376,-18.79441993116389 z"/><path fill="#ff250b" d="M 150.84862488006559,140.7119480781665 l 5.48609122001357 4.392438565016896 a 72.16651531378174 72.16651531378174 0.0 0 1 -13.229978360850438,12.77469003368325 l -4.1977050675478225 -5.636486989929189 a 65.13866262453465 65.13866262453465 0.0 0 0 11.94159220838469,-11.530641608770956 z"/><path fill="#eec352" d="M 138.90703267168095,152.24258968693744 l 4.197705067547825 5.636486989929186 a 72.16651531378174 72.16651531378174 0.0 0 1 -18.234818205056047,9.866720498294509 l -2.421928371068457 -6.5973461624482965 a 65.13866262453465 65.13866262453465 0.0 0 0 16.45904150857668,-8.905861325775398 z"/><path fill="#790055" d="M 122.44799116310422,161.14845101271285 l 2.421928371068458 6.597346162448303 a 72.16651531378174 72.16651531378174 0.0 0 1 -23.74039353391593,4.411878116861943 l -0.10999758411450955 -7.026991813944761 a 65.13866262453465 65.13866262453465 0.0 0 0 21.428462746961983,-3.9822324653654846 z"/><path fill="#ff2fa8" d="M 101.0195284161422,165.1306834780783 l 0.10999758411451308 7.026991813944758 a 72.16651531378174 72.16651531378174 0.0 0 1 -22.100865072704355,-3.1054568624698753 l 2.042269618487005 -6.724570486444662 a 65.13866262453465 65.13866262453465 0.0 0 0 19.948597870102837,2.80303553496978 z"/><path fill="#ff1f00" d="M 81.07093054603943,162.32764794310856 l -2.0422696184870017 6.724570486444664 a 72.16651531378174 72.16651531378174 0.0 0 1 -21.594782657594706,-10.775883495057565 l 4.145252569984741 -5.675173526227418 a 65.13866262453465 65.13866262453465 0.0 0 0 19.491799706096966,9.726486534840319 z"/><path fill="#ff9480" d="M 61.579130839942486,152.60116140826824 l -4.14525256998474 5.675173526227421 a 72.16651531378174 72.16651531378174 0.0 0 1 -13.079484240280552,-12.32448547519893 l 5.41898302644848 -4.474967751930841 a 65.13866262453465 65.13866262453465 0.0 0 0 11.805753783816812,11.124279700902349 z"/><path fill="#7b0020" d="M 49.77337705612569,141.4768817073659 l -5.418983026448478 4.474967751930841 a 72.16651531378174 72.16651531378174 0.0 0 1 -9.043629519364638,-13.96265215311136 l 6.299686435250642 -3.1152310089745683 a 65.13866262453465 65.13866262453465 0.0 0 0 8.162926110562474,12.602915410155088 z"/><path fill="#e92100" d="M 41.61045094556322,128.8739662972108 l -6.299686435250642 3.1152310089745705 a 72.16651531378174 72.16651531378174 0.0 0 1 -6.361263133138259,-19.34670633398606 l 6.919170693605807 -1.2311743720953316 a 65.13866262453465 65.13866262453465 0.0 0 0 5.741778874783094,17.46264969710682 z"/><path fill="#cd0025" d="M 35.868672070780136,111.41131660010402 l -6.919170693605797 1.2311743720953323 a 72.16651531378174 72.16651531378174 0.0 0 1 -0.2333526447151355,-23.894978741640227 l 6.941895471220093 1.095810516654982 a 65.13866262453465 65.13866262453465 0.0 0 0 0.2106278671008397,21.567993852889913 z"/><path fill="#df0e00" d="M 35.658044203679296,89.8433227472141 l -6.94189547122009 -1.0958105166549834 a 72.16651531378174 72.16651531378174 0.0 0 1 7.003174785762792,-21.549959754780353 l 6.259899388446904 3.194428441565055 a 65.13866262453465 65.13866262453465 0.0 0 0 -6.321178702989606,19.45134182987028 z"/><path fill="#ff250b" d="M 41.9792229066689,70.39198091734384 l -6.259899388446902 -3.1944284415650577 a 72.16651531378174 72.16651531378174 0.0 0 1 14.097705253951075,-19.059632373150727 l 4.887010655349492 5.050528712546665 a 65.13866262453465 65.13866262453465 0.0 0 0 -12.724816520853665,17.20353210216912 z"/><path fill="#eec352" d="M 54.70403942752257,53.188448815174745 l -4.8870106553494885 -5.050528712546661 a 72.16651531378174 72.16651531378174 0.0 0 1 19.569010398810022,-13.489211864105254 l 2.981305194039546 6.364160020124459 a 65.13866262453465 65.13866262453465 0.0 0 0 -17.66330493750008,12.175580556527457 z"/><path fill="#790055" d="M 72.36734436502263,41.0128682586473 l -2.9813051940395487 -6.364160020124453 a 72.16651531378174 72.16651531378174 0.0 0 1 21.36429934621068,-6.219999235596431 l 0.9007675934458135 6.969887457079608 a 65.13866262453465 65.13866262453465 0.0 0 0 -19.283761745616943,5.614271798641276 z"/><path fill="#ff2fa8" d="M 91.65110611063956,35.39859646000602 l -0.900767593445812 -6.969887457079598 a 72.16651531378174 72.16651531378174 0.0 0 1 20.753215602989354,0.3275251284846563 l -1.120260323058563 6.937991800970821 a 65.13866262453465 65.13866262453465 0.0 0 0 -18.732187686484977,-0.2956294723758788 z"/><path fill="#ff1f00" d="M 110.38329379712451,35.69422593238191 l 1.1202603230585633 -6.937991800970825 a 72.16651531378174 72.16651531378174 0.0 0 1 21.91563495734597,7.281560356781701 l -3.254489104950821 6.228885461100887 a 65.13866262453465 65.13866262453465 0.0 0 0 -19.78140617545371,-6.572454016911763 z"/><path fill="#ff1f00" d="M 46.24039936916575,38.64282146876186 l -6.0912072039992875 -6.952047327378896 a 90.81998423191739 90.81998423191739 0.0 0 1 20.774155292147142,-13.674216140020018 l 3.976955300804761 8.343715825672021 a 81.57694537858734 81.57694537858734 0.0 0 0 -18.659903388952614,12.282547641726893 z"/><path fill="#ff9480" d="M 64.90030275811841,26.360273827034945 l -3.9769553008047556 -8.343715825672026 a 90.81998423191739 90.81998423191739 0.0 0 1 23.783665187597563,-7.539706257234821 l 1.5564159970079992 9.111055728532591 a 81.57694537858734 81.57694537858734 0.0 0 0 -21.36312588380081,6.772366354374256 z"/><path fill="#7b0020" d="M 86.26342864191923,19.587907472660703 l -1.5564159970080005 -9.111055728532586 a 90.81998423191739 90.81998423191739 0.0 0 1 22.70360862627113,-0.9939895041170868 l -0.75420251298371 9.212217203994797 a 81.57694537858734 81.57694537858734 0.0 0 0 -20.39299011627942,0.8928280286548755 z"/><path fill="#e92100" d="M 106.65641875819865,18.695079444005827 l 0.7542025129837069 -9.212217203994808 a 90.81998423191739 90.81998423191739 0.0 0 1 29.15893829341456,7.385093101282788 l -3.7218004689539086 8.46061277411178 a 81.57694537858734 81.57694537858734 0.0 0 0 -26.19134033744436,-6.6334886713997605 z"/><path fill="#cd0025" d="M 132.84775909564303,25.328568115405588 l 3.721800468953911 -8.460612774111773 a 90.81998423191739 90.81998423191739 0.0 0 1 22.836358940492747,14.43556452724409 l -6.045929400936096 6.991459427263045 a 81.57694537858734 81.57694537858734 0.0 0 0 -20.512230008510564,-12.966411180395362 z"/><path fill="#df0e00" d="M 153.35998910415353,38.29497929580091 l 6.045929400936101 -6.991459427263044 a 90.81998423191739 90.81998423191739 0.0 0 1 19.144986173997367,23.11112162697404 l -7.9943755777251795 4.639367022174461 a 81.57694537858734 81.57694537858734 0.0 0 0 -17.19653999720829,-20.759029221885456 z"/><path fill="#ff250b" d="M 170.5565291013619,59.054008517686476 l 7.994375577725186 -4.639367022174466 a 90.81998423191739 90.81998423191739 0.0 0 1 8.97159210396665,21.334954533706973 l -8.90744306055403 2.4680407952780214 a 81.57694537858734 81.57694537858734 0.0 0 0 -8.058524621137806,-19.16362830681053 z"/><path fill="#eec352" d="M 178.61505372249968,78.21763682449695 l 8.907443060554037 -2.468040795278023 a 90.81998423191739 90.81998423191739 0.0 0 1 3.2827799952503867,25.884798385023505 l -9.241542028965554 -0.1663375214196421 a 81.57694537858734 81.57694537858734 0.0 0 0 -2.9486810268388695,-23.25042006832584 z"/><path fill="#790055" d="M 181.56373474933855,101.46805689282276 l 9.241542028965558 0.16633752141964173 a 90.81998423191739 90.81998423191739 0.0 0 1 -5.622287445794942,29.863666863610106 l -8.669343941225634 -3.205657946959267 a 81.57694537858734 81.57694537858734 0.0 0 0 5.050089358055018,-26.82434643807048 z"/><path fill="#ff2fa8" d="M 176.51364539128352,128.29240333089322 l 8.669343941225643 3.2056579469592665 a 90.81998423191739 90.81998423191739 0.0 0 1 -13.697265807638383,24.520336307328925 l -7.275329604897479 -5.701170615257119 a 81.57694537858734 81.57694537858734 0.0 0 0 12.303251471310219,-22.024823639031073 z"/><path fill="#ff1f00" d="M 164.21039391997328,150.3172269699243 l 7.275329604897478 5.701170615257113 a 90.81998423191739 90.81998423191739 0.0 0 1 -22.4674680722801,20.437342344991833 l -4.988743870663718 -7.781143992825477 a 81.57694537858734 81.57694537858734 0.0 0 0 20.180882338046338,-18.35736896742347 z"/><path fill="#ff9480" d="M 144.02951158192698,168.67459593734776 l 4.98874387066372 7.781143992825478 a 90.81998423191739 90.81998423191739 0.0 0 1 -20.41110338570185,9.741130004341343 l -2.911440915494559 -8.772529797028511 a 81.57694537858734 81.57694537858734 0.0 0 0 18.33380043053269,-8.74974420013831 z"/><path fill="#7b0020" d="M 125.69571115139425,177.42434013748607 l 2.9114409154945604 8.77252979702851 a 90.81998423191739 90.81998423191739 0.0 0 1 -20.49746444836314,4.260316085257545 l -0.8253487201119825 -9.20611572458104 a 81.57694537858734 81.57694537858734 0.0 0 0 18.411372252980563,-3.826730157705015 z"/><path fill="#e92100" d="M 107.2843388984137,181.25107029519108 l 0.825348720111982 9.206115724581045 a 90.81998423191739 90.81998423191739 0.0 0 1 -25.5948985521178,-1.3362741388138968 l 1.779525567909804 -9.070118852436508 a 81.57694537858734 81.57694537858734 0.0 0 0 22.990024264096014,1.2002772666693602 z"/><path fill="#cd0025" d="M 84.29431463431777,180.0507930285217 l -1.7795255679098039 9.070118852436508 a 90.81998423191739 90.81998423191739 0.0 0 1 -28.144307635422333,-10.595651161583959 l 4.643861332492115 -7.991765710326689 a 81.57694537858734 81.57694537858734 0.0 0 0 25.279971870840022,9.51729801947414 z"/><path fill="#df0e00" d="M 59.01434276347778,170.53349500904756 l -4.643861332492109 7.991765710326691 a 90.81998423191739 90.81998423191739 0.0 0 1 -22.100895782384598,-18.020215411784072 l 6.893139838072251 -6.157791033881402 a 81.57694537858734 81.57694537858734 0.0 0 0 19.851617276804454,16.186240735338785 z"/><path fill="#ff250b" d="M 39.16272548667333,154.34725427370878 l -6.893139838072246 6.157791033881401 a 90.81998423191739 90.81998423191739 0.0 0 1 -15.951572604549098,-25.21206307329502 l 8.516582152035411 -3.59187913101216 a 81.57694537858734 81.57694537858734 0.0 0 0 14.328130290585932,22.646151170425778 z"/><path fill="#eec352" d="M 24.83459519608742,131.70110310328303 l -8.516582152035415 3.5918791310121616 a 90.81998423191739 90.81998423191739 0.0 0 1 -6.926475788917298,-29.09814447224816 l 9.221511638371013 -0.6304683557140969 a 81.57694537858734 81.57694537858734 0.0 0 0 6.2215463025817,26.136733696950092 z"/><path fill="#790055" d="M 18.61304889350572,105.56436940633296 l -9.221511638371013 0.6304683557140969 a 90.81998423191739 90.81998423191739 0.0 0 1 2.419804564425334,-27.89806572977679 l 8.975240426196677 2.2088065864022255 a 81.57694537858734 81.57694537858734 0.0 0 0 -2.173533352250999,25.058790787660467 z"/><path fill="#ff2fa8" d="M 20.78658224575672,80.50557861867249 l -8.975240426196672 -2.2088065864022215 a 90.81998423191739 90.81998423191739 0.0 0 1 9.824639610442256,-24.202655418245758 l 7.975355583589874 4.671987859516626 a 81.57694537858734 81.57694537858734 0.0 0 0 -8.824754767835458,21.739474145131354 z"/><path fill="#ff1f00" d="M 29.611337013592163,58.766104473541155 l -7.97535558358987 -4.671987859516626 a 90.81998423191739 90.81998423191739 0.0 0 1 18.51321073516444,-22.403342472641782 l 6.091207203999261 6.952047327378921 a 81.57694537858734 81.57694537858734 0.0 0 0 -16.62906235557383,20.123283004779488 z"/></g></svg>