<?xml version='1.0' encoding='UTF-8'?>
<svg xmlns="http://www.w3.org/2000/svg" xmlns:svg="http://www.w3.org/2000/svg"><g><path fill="#7798f4" d="M 100.0,100.0 l 4.339302797552708 -8.030959225588724 a 9.128299669265761 9.128299669265761 0.0 0 1 1.4527210882277775,0.9755843837772895 l -5.792023885780486 7.055374841811434 z"/><path fill="#4836f3" d="M 104.3393027975527,91.96904077441127 l 2.9757925216631453 -5.507444287770583 a 15.38827440682526 15.38827440682526 0.0 0 1 2.448963284750375,1.644617371088784 l -3.9720347181857427 4.8384113004590885 a 9.128299669265761 9.128299669265761 0.0 0 0 -1.4527210882277775,-0.9755843837772895 z"/><path fill="#bab1fb" d="M 107.31509531921586,86.4615964866407 l 5.043788660345859 -9.33478555508256 a 25.998553640173057 25.998553640173057 0.0 0 1 4.137533659599759,2.7785878916252944 l -6.732359035195244 8.200815034546048 a 15.38827440682526 15.38827440682526 0.0 0 0 -2.4489632847503744,-1.644617371088783 z"/><path fill="#2033ff" d="M 112.35888397956172,77.12681093155814 l 1.5280498512826404 -2.8280363511942124 a 29.213009418633973 29.213009418633973 0.0 0 1 4.649097462907875,3.122131922105334 l -2.039613654590756 2.4844923207141747 a 25.998553640173057 25.998553640173057 0.0 0 0 -4.137533659599759,-2.778587891625296 z"/><path fill="#0d0e9b" d="M 113.88693383084436,74.29877458036393 l 5.0156939088267904 -9.282789228845559 a 39.76418761133896 39.76418761133896 0.0 0 1 6.328262216646124,4.249786036037641 l -6.694858662565039 8.15513511491325 a 29.213009418633973 29.213009418633973 0.0 0 0 -4.649097462907875,-3.122131922105332 z"/><path fill="#0200b6" d="M 118.90262773967116,65.01598535151837 l 3.120908685670723 -5.776017846816975 a 46.32943347048568 46.32943347048568 0.0 0 1 7.3730867134902,4.9514447860682775 l -4.165733182514799 5.074359096786342 a 39.76418761133896 39.76418761133896 0.0 0 0 -6.328262216646124,-4.249786036037644 z"/><path fill="#05476f" d="M 122.02353642534189,59.23996750470139 l 12.064722839729987 -22.32877070679316 a 71.70918009010438 71.70918009010438 0.0 0 1 11.412140476408938,7.663897856566127 l -16.103776602648725 19.616317636295307 a 46.32943347048568 46.32943347048568 0.0 0 0 -7.373086713490199,-4.951444786068272 z"/><path fill="#5e2afb" d="M 134.08825926507188,36.91119679790823 l 0.40501970674427595 -0.7495897157160011 a 72.56119282754345 72.56119282754345 0.0 0 1 11.547733841653475,7.754956471153849 l -0.5406130719888154 0.6585311011282826 a 71.70918009010438 71.70918009010438 0.0 0 0 -11.412140476408936,-7.66389785656613 z"/><path fill="#ab03ff" d="M 134.49327897181615,36.16160708219223 l 3.389173513940775 -6.272508642230332 a 79.69076937699236 79.69076937699236 0.0 0 1 12.682368612506892,8.516927900291495 l -4.5238082847941925 5.510537213092682 a 72.56119282754345 72.56119282754345 0.0 0 0 -11.547733841653475,-7.754956471153847 z"/><path fill="#ccccfc" d="M 137.88245248575691,29.8890984399619 l 6.276604983667435 -11.616418823638885 a 92.89444145740964 92.89444145740964 0.0 0 1 14.78366387758766,9.928066530363171 l -8.377900248748205 10.20528019356722 a 79.69076937699236 79.69076937699236 0.0 0 0 -12.682368612506892,-8.516927900291506 z"/><path fill="#a378ff" d="M 144.15905746942437,18.272679616323018 l 3.377756118792819 -6.251377912439504 a 100.0 100.0 0.0 0 1 15.914476308429817,10.687471041972938 l -4.5085685496349726 5.491973400829735 a 92.89444145740964 92.89444145740964 0.0 0 0 -14.783663877587664,-9.928066530363168 z"/><path fill="#f8f2fe" d="M 100.0,100.0 l 5.792023885780485 -7.055374841811436 a 9.128299669265761 9.128299669265761 0.0 0 1 0.17485210501301118,0.14724587932025113 l -5.966875990793496 6.908128962491185 z"/><path fill="#ba00b0" d="M 105.79202388578048,92.94462515818857 l 3.972034718185743 -4.838411300459091 a 15.38827440682526 15.38827440682526 0.0 0 1 0.29476159526297296,0.24822366468568813 l -4.091944208435705 4.737433515093654 a 9.128299669265761 9.128299669265761 0.0 0 0 -0.17485210501301118,-0.14724587932025113 z"/><path fill="#9c1fff" d="M 109.76405860396623,88.10621385772947 l 6.732359035195242 -8.200815034546048 a 25.998553640173057 25.998553640173057 0.0 0 1 0.4980009416850786,0.4193749143327494 l -6.935598381617348 8.029663784898986 a 15.38827440682526 15.38827440682526 0.0 0 0 -0.2947615952629725,-0.24822366468568724 z"/><path fill="#2d0983" d="M 116.49641763916148,79.90539882318343 l 2.039613654590756 -2.484492320714177 a 29.213009418633973 29.213009418633973 0.0 0 1 0.5595736748007063,0.47122634173813305 l -2.101186387706381 2.4326408933087933 a 25.998553640173057 25.998553640173057 0.0 0 0 -0.49800094168508124,-0.4193749143327494 z"/><path fill="#3137e8" d="M 118.53603129375223,77.42090650246925 l 6.694858662565038 -8.155135114913252 a 39.76418761133896 39.76418761133896 0.0 0 1 0.761680943865664,0.6414242501263114 l -6.896965931629996 7.984937206525075 a 29.213009418633973 29.213009418633973 0.0 0 0 -0.5595736748007063,-0.4712263417381344 z"/><path fill="#412bff" d="M 125.23088995631727,69.265771387556 l 4.1657331825147965 -5.074359096786343 a 46.32943347048568 46.32943347048568 0.0 0 1 0.8874378865594705,0.747326272902634 l -4.291490125208604 4.9684570740100185 a 39.76418761133896 39.76418761133896 0.0 0 0 -0.7616809438656631,-0.6414242501263097 z"/><path fill="#41c0ff" d="M 129.39662313883207,64.19141229076966 l 16.103776602648722 -19.616317636295314 a 71.70918009010438 71.70918009010438 0.0 0 1 1.373585611976349,1.1567193957547772 l -16.5899243280656 19.20692451344317 a 46.32943347048568 46.32943347048568 0.0 0 0 -0.8874378865594714,-0.7473262729026331 z"/><path fill="#6b21f5" d="M 145.5003997414808,44.575094654474356 l 0.5406130719888208 -0.65853110112828 a 72.56119282754345 72.56119282754345 0.0 0 1 1.3899058716125072,1.1704629590975388 l -0.5569333316249825 0.6447875377855183 a 71.70918009010438 71.70918009010438 0.0 0 0 -1.3735856119763454,-1.1567193957547772 z"/><path fill="#11ffd6" d="M 146.04101281346962,43.91656355334607 l 4.52380828479419 -5.510537213092688 a 79.69076937699236 79.69076937699236 0.0 0 1 1.5264725393041756,1.2854680319195122 l -4.660374952485853 5.395532140270717 a 72.56119282754345 72.56119282754345 0.0 0 0 -1.3899058716125126,-1.1704629590975415 z"/><path fill="#1d0058" d="M 150.5648210982638,38.40602634025339 l 8.377900248748205 -10.205280193567225 a 92.89444145740964 92.89444145740964 0.0 0 1 1.7793881907190467,1.4984525280665064 l -8.630815900163078 9.992295697420232 a 79.69076937699236 79.69076937699236 0.0 0 0 -1.526472539304173,-1.285468031919514 z"/><path fill="#8600d6" d="M 158.94272134701203,28.20074614668617 l 4.508568549634972 -5.4919734008297265 a 100.0 100.0 0.0 0 1 1.9154947947395309,1.6130701735835427 l -4.644675153655456 5.377355755312692 a 92.89444145740964 92.89444145740964 0.0 0 0 -1.7793881907190467,-1.4984525280665082 z"/><path fill="#4b00e0" d="M 100.0,100.0 l 5.966875990793494 -6.908128962491186 a 9.128299669265761 9.128299669265761 0.0 0 1 2.913405932349291,4.794731740618103 l -8.880281923142785 2.1133972218730825 z"/><path fill="#36008c" d="M 105.9668759907935,93.09187103750881 l 4.091944208435704 -4.737433515093655 a 15.38827440682526 15.38827440682526 0.0 0 1 4.911351683206691,8.082846795681615 l -6.089889959293104 1.449318460030144 a 9.128299669265761 9.128299669265761 0.0 0 0 -2.913405932349291,-4.794731740618103 z"/><path fill="#161aff" d="M 110.0588201992292,88.35443752241517 l 6.935598381617346 -8.029663784898988 a 25.998553640173057 25.998553640173057 0.0 0 1 8.297749104666936,13.65600329362619 l -10.32199580307759 2.4565072869544125 a 15.38827440682526 15.38827440682526 0.0 0 0 -4.911351683206693,-8.082846795681615 z"/><path fill="#1b00ba" d="M 116.99441858084656,80.32477373751618 l 2.1011863877063783 -2.4326408933087915 a 29.213009418633973 29.213009418633973 0.0 0 1 9.32368108253284,15.344428707801876 l -3.127118365572283 0.7442154791331053 a 25.998553640173057 25.998553640173057 0.0 0 0 -8.297749104666934,-13.65600329362619 z"/><path fill="#1729cc" d="M 119.09560496855293,77.89213284420738 l 6.896965931629993 -7.984937206525077 a 39.76418761133896 39.76418761133896 0.0 0 1 12.691215700551549,20.886541786299155 l -10.264500549648702 2.442824128027798 a 29.213009418633973 29.213009418633973 0.0 0 0 -9.32368108253284,-15.344428707801875 z"/><path fill="#397bff" d="M 125.99257090018293,69.9071956376823 l 4.291490125208604 -4.968457074010019 a 46.32943347048568 46.32943347048568 0.0 0 1 14.786592378178543,24.33500358601397 l -6.386866802835598 1.519995274295205 a 39.76418761133896 39.76418761133896 0.0 0 0 -12.691215700551549,-20.886541786299155 z"/><path fill="#0000c6" d="M 130.28406102539154,64.9387385636723 l 16.589924328065596 -19.20692451344317 a 71.70918009010438 71.70918009010438 0.0 0 1 22.88684182683259,37.665972232414575 l -24.690173776719643 5.8759558670425704 a 46.32943347048568 46.32943347048568 0.0 0 0 -14.786592378178543,-24.335003586013972 z"/><path fill="#caa1f7" d="M 146.87398535345713,45.731814050229126 l 0.5569333316249837 -0.6447875377855177 a 72.56119282754345 72.56119282754345 0.0 0 1 23.158771874445925,38.11350054147792 l -0.8288633792383138 0.19725922872217438 a 71.70918009010438 71.70918009010438 0.0 0 0 -22.886841826832594,-37.665972232414575 z"/><path fill="#140b5e" d="M 147.43091868508213,45.087026512443614 l 4.660374952485853 -5.3955321402707215 a 79.69076937699236 79.69076937699236 0.0 0 1 25.43426143623565,41.858382744886 l -6.935864514275579 1.6506499368626422 a 72.56119282754345 72.56119282754345 0.0 0 0 -23.158771874445925,-38.11350054147792 z"/><path fill="#006ce5" d="M 152.091293637568,39.69149437217289 l 8.630815900163071 -9.992295697420237 a 92.89444145740964 92.89444145740964 0.0 0 1 29.64837117864473,48.793745069793324 l -12.84492564257215 3.0569333725129084 a 79.69076937699236 79.69076937699236 0.0 0 0 -25.43426143623565,-41.85838274488599 z"/><path fill="#2324ff" d="M 160.72210953773106,29.69919867475265 l 4.644675153655459 -5.377355755312685 a 100.0 100.0 0.0 0 1 31.91619510650479,52.52601157213948 l -6.91249908151552 1.645089252966521 a 92.89444145740964 92.89444145740964 0.0 0 0 -29.64837117864473,-48.79374506979332 z"/><path fill="#030090" d="M 100.0,100.0 l 8.880281923142787 -2.1133972218730745 a 9.128299669265761 9.128299669265761 0.0 0 1 -2.211689507345775,8.346833677303735 l -6.668592415797012 -6.233436455430661 z"/><path fill="#0010e0" d="M 108.88028192314279,97.88660277812691 l 6.089889959293106 -1.4493184600301385 a 15.38827440682526 15.38827440682526 0.0 0 1 -3.7284145213070667,14.07089728735994 l -4.573164945331814 -4.274745150026067 a 9.128299669265761 9.128299669265761 0.0 0 0 2.211689507345775,-8.346833677303735 z"/><path fill="#2330ff" d="M 114.97017188243589,96.43728431809677 l 10.321995803077591 -2.456507286954403 a 25.998553640173057 25.998553640173057 0.0 0 1 -6.29917184749503,23.772839515295956 l -7.751238476889629 -7.245434940981612 a 15.38827440682526 15.38827440682526 0.0 0 0 3.7284145213070676,-14.070897287359942 z"/><path fill="#3c0cf4" d="M 125.29216768551348,93.98077703114237 l 3.1271183655722825 -0.7442154791331017 a 29.213009418633973 29.213009418633973 0.0 0 1 -7.0780001479052075,26.712108461099454 l -2.3482900651621073 -2.1950534666703945 a 25.998553640173057 25.998553640173057 0.0 0 0 6.299171847495032,-23.772839515295956 z"/><path fill="#1537fd" d="M 128.41928605108575,93.23656155200926 l 10.264500549648705 -2.442824128027789 a 39.76418761133896 39.76418761133896 0.0 0 1 -9.634437923224013,36.36000923835194 l -7.708062774329896 -7.205076649224701 a 29.213009418633973 29.213009418633973 0.0 0 0 7.078000147905204,-26.712108461099454 z"/><path fill="#0524ff" d="M 138.68378660073446,90.79373742398147 l 6.386866802835599 -1.5199952742951992 a 46.32943347048568 46.32943347048568 0.0 0 1 -11.225126869239745,42.3632099682106 l -4.796177856819867 -4.483205455563457 a 39.76418761133896 39.76418761133896 0.0 0 0 9.634437923224013,-36.36000923835194 z"/><path fill="#d4d3ff" d="M 145.07065340357008,89.27374214968626 l 24.690173776719657 -5.87595586704255 a 71.70918009010438 71.70918009010438 0.0 0 1 -17.37436838534568,65.57021800710297 l -18.540932260613722 -17.33105217184982 a 46.32943347048568 46.32943347048568 0.0 0 0 11.225126869239745,-42.3632099682106 z"/><path fill="#f5d8ff" d="M 169.7608271802897,83.3977862826437 l 0.8288633792383093 -0.19725922872216964 a 72.56119282754345 72.56119282754345 0.0 0 1 -17.580801970985238,66.34929065677642 l -0.622429793598748 -0.5818134209512777 a 71.70918009010438 71.70918009010438 0.0 0 0 17.374368385345676,-65.57021800710297 z"/><path fill="#d08ff3" d="M 170.58969055952804,83.20052705392152 l 6.935864514275581 -1.6506499368626366 a 79.69076937699236 79.69076937699236 0.0 0 1 -19.308222215450435,72.86851020521196 l -5.208444269810386 -4.868569611572909 a 72.56119282754345 72.56119282754345 0.0 0 0 17.58080197098524,-66.34929065677642 z"/><path fill="#006cc7" d="M 177.52555507380362,81.54987711705888 l 12.844925642572152 -3.0569333725128978 a 92.89444145740964 92.89444145740964 0.0 0 1 -22.50733092755982,84.94182711832408 l -9.645816930462765 -9.016383540599222 a 79.69076937699236 79.69076937699236 0.0 0 0 19.308222215450435,-72.86851020521196 z"/><path fill="#050b9c" d="M 190.37048071637577,78.49294374454597 l 6.912499081515517 -1.6450892529665215 a 100.0 100.0 0.0 0 1 -24.2289318655078,91.4390848210959 l -5.190898143567537 -4.852168449805291 a 92.89444145740964 92.89444145740964 0.0 0 0 22.50733092755982,-84.94182711832408 z"/><path fill="#2980ff" d="M 100.0,100.0 l 6.668592415797014 6.2334364554306605 a 9.128299669265761 9.128299669265761 0.0 0 1 -1.4727559360381282,1.2718375653845824 l -5.195836479758886 -7.505274020815243 z"/><path fill="#2600d6" d="M 106.66859241579701,106.23343645543066 l 4.573164945331815 4.274745150026067 a 15.38827440682526 15.38827440682526 0.0 0 1 -2.4827375633099065,2.1440340661625923 l -3.5631833180600365 -5.146941650804077 a 9.128299669265761 9.128299669265761 0.0 0 0 1.4727559360381282,-1.2718375653845824 z"/><path fill="#7126ff" d="M 111.24175736112883,110.50818160545673 l 7.7512384768896325 7.245434940981611 a 25.998553640173057 25.998553640173057 0.0 0 1 -4.194595443759177,3.6223544760004414 l -6.039380596440363 -8.72375535081946 a 15.38827440682526 15.38827440682526 0.0 0 0 2.4827375633099074,-2.144034066162593 z"/><path fill="#08009f" d="M 118.99299583801846,117.75361654643834 l 2.348290065162109 2.1950534666703936 a 29.213009418633973 29.213009418633973 0.0 0 1 -4.713214354222833,4.07022163192642 l -1.8296711546984525 -2.6429206225963746 a 25.998553640173057 25.998553640173057 0.0 0 0 4.194595443759177,-3.6223544760004387 z"/><path fill="#255bf9" d="M 121.34128590318056,119.94867001310874 l 7.708062774329897 7.205076649224697 a 39.76418761133896 39.76418761133896 0.0 0 1 -6.4155368982363585,5.540307548335452 l -6.00574023031637 -8.675162565633727 a 29.213009418633973 29.213009418633973 0.0 0 0 4.713214354222831,-4.070221631926422 z"/><path fill="#03002b" d="M 129.04934867751047,127.15374666233343 l 4.7961778568198685 4.483205455563456 a 46.32943347048568 46.32943347048568 0.0 0 1 -7.474770836749885,6.455037192648281 l -3.736943918306345 -5.397935099876285 a 39.76418761133896 39.76418761133896 0.0 0 0 6.415536898236361,-5.540307548335452 z"/><path fill="#8fc2fd" d="M 133.84552653433033,131.6369521178969 l 18.540932260613726 17.331052171849812 a 71.70918009010438 71.70918009010438 0.0 0 1 -11.56952822240368,9.991173857777046 l -14.446174874959933 -20.867188836978578 a 46.32943347048568 46.32943347048568 0.0 0 0 7.474770836749887,-6.45503719264828 z"/><path fill="#0c11d7" d="M 152.38645879494405,148.96800428974672 l 0.6224297935987497 0.581813420951281 a 72.56119282754345 72.56119282754345 0.0 0 1 -11.706991590402902,10.109884005879398 l -0.48496642559952363 -0.7005235690536296 a 71.70918009010438 71.70918009010438 0.0 0 0 11.569528222403676,-9.99117385777705 z"/><path fill="#6c5af0" d="M 153.0088885885428,149.549817710698 l 5.208444269810383 4.868569611572917 a 79.69076937699236 79.69076937699236 0.0 0 1 -12.857274399368098,11.103241324264125 l -4.058161460845184 -5.861926929957647 a 72.56119282754345 72.56119282754345 0.0 0 0 11.7069915904029,-10.109884005879394 z"/><path fill="#152fdf" d="M 158.2173328583532,154.41838732227092 l 9.645816930462775 9.016383540599213 a 92.89444145740964 92.89444145740964 0.0 0 1 -14.987549164493064,12.942896765182086 l -7.515542165337813 -10.856038981517173 a 79.69076937699236 79.69076937699236 0.0 0 0 12.857274399368102,-11.103241324264125 z"/><path fill="#000ba0" d="M 167.86314978881597,163.43477086287012 l 5.190898143567531 4.852168449805301 a 100.0 100.0 0.0 0 1 -16.13395691857901,13.932907676845392 l -4.044490389481588 -5.8421793614686095 a 92.89444145740964 92.89444145740964 0.0 0 0 14.987549164493068,-12.942896765182084 z"/><path fill="#1e368f" d="M 100.0,100.0 l 5.1958364797588885 7.50527402081524 a 9.128299669265761 9.128299669265761 0.0 0 1 -1.7793493595058427,0.9595632847129911 l -3.416487120253046 -8.464837305528231 z"/><path fill="#0c2a81" d="M 105.19583647975888,107.50527402081524 l 3.563183318060038 5.1469416508040755 a 15.38827440682526 15.38827440682526 0.0 0 1 -2.9995855966335836,1.617609376431198 l -2.342947080932297 -5.8049877425222824 a 9.128299669265761 9.128299669265761 0.0 0 0 1.7793493595058427,-0.9595632847129911 z"/><path fill="#89a2db" d="M 108.75901979781892,112.65221567161932 l 6.039380596440366 8.723755350819458 a 25.998553640173057 25.998553640173057 0.0 0 1 -5.067812346638397,2.7329577722723872 l -3.971153846435552 -9.839103746660648 a 15.38827440682526 15.38827440682526 0.0 0 0 2.999585596633583,-1.6176093764311972 z"/><path fill="#cde5ff" d="M 114.79840039425929,121.37597102243878 l 1.829671154698452 2.6429206225963746 a 29.213009418633973 29.213009418633973 0.0 0 1 -5.6943956138181395,3.070860104261971 l -1.203087887518711 -2.980822954585957 a 25.998553640173057 25.998553640173057 0.0 0 0 5.067812346638398,-2.732957772272389 z"/><path fill="#bf60f1" d="M 116.62807154895773,124.01889164503515 l 6.005740230316374 8.675162565633725 a 39.76418761133896 39.76418761133896 0.0 0 1 -7.751101992820238,4.179995821866919 l -3.949033851314276 -9.784298283238673 a 29.213009418633973 29.213009418633973 0.0 0 0 5.6943956138181395,-3.070860104261971 z"/><path fill="#343ce5" d="M 122.63381177927411,132.69405421066887 l 3.7369439183063458 5.397935099876283 a 46.32943347048568 46.32943347048568 0.0 0 1 -9.030843723232856,4.870131894279392 l -2.457202187893726 -6.088071172288757 a 39.76418761133896 39.76418761133896 0.0 0 0 7.751101992820237,-4.1799958218669175 z"/><path fill="#560fc8" d="M 126.37075569758046,138.09198931054516 l 14.44617487495994 20.86718883697857 a 71.70918009010438 71.70918009010438 0.0 0 1 -13.978034057494913,7.538040915003251 l -9.498984540697883 -23.535097857702432 a 46.32943347048568 46.32943347048568 0.0 0 0 9.030843723232856,-4.870131894279389 z"/><path fill="#5d00d4" d="M 140.8169305725404,158.95917814752374 l 0.48496642559952496 0.7005235690536293 a 72.56119282754345 72.56119282754345 0.0 0 1 -14.144114091409376,7.627604160139363 l -0.3188863916850657 -0.7900868141897348 a 71.70918009010438 71.70918009010438 0.0 0 0 13.978034057494916,-7.538040915003258 z"/><path fill="#51b4f6" d="M 141.3018969981399,159.65970171657736 l 4.058161460845185 5.861926929957652 a 79.69076937699236 79.69076937699236 0.0 0 1 -15.533858942744892,8.377062453608406 l -2.6684166095096664 -6.611385223426694 a 72.56119282754345 72.56119282754345 0.0 0 0 14.144114091409374,-7.627604160139363 z"/><path fill="#9eade5" d="M 145.36005845898512,165.52162864653502 l 7.515542165337811 10.85603898151716 a 92.89444145740964 92.89444145740964 0.0 0 1 -18.107607210291135,9.765027289427335 l -4.94179389779157 -12.244003817336093 a 79.69076937699236 79.69076937699236 0.0 0 0 15.533858942744892,-8.377062453608403 z"/><path fill="#8eb2ed" d="M 152.8756006243229,176.37766762805217 l 4.044490389481594 5.842179361468616 a 100.0 100.0 0.0 0 1 -19.492670310734503,10.511960819425788 l -2.659427289038227 -6.589112891467067 a 92.89444145740964 92.89444145740964 0.0 0 0 18.107607210291135,-9.765027289427337 z"/><path fill="#051af3" d="M 100.0,100.0 l 3.4164871202530476 8.464837305528231 a 9.128299669265761 9.128299669265761 0.0 0 1 -2.6965974775048362,0.6350315811196001 l -0.7198896427482114 -9.099868886647831 z"/><path fill="#1018dd" d="M 103.41648712025305,108.46483730552823 l 2.3429470809322988 5.8049877425222824 a 15.38827440682526 15.38827440682526 0.0 0 1 -4.545861053215727,1.0705214093891104 l -0.4936835052214077 -6.240477570791793 a 9.128299669265761 9.128299669265761 0.0 0 0 2.6965974775048362,-0.6350315811196001 z"/><path fill="#0200a0" d="M 105.75943420118534,114.2698250480505 l 3.9711538464355542 9.839103746660648 a 25.998553640173057 25.998553640173057 0.0 0 1 -7.680251164508929,1.8086503755490586 l -0.8367637351423518 -10.577232712820594 a 15.38827440682526 15.38827440682526 0.0 0 0 4.545861053215727,-1.0705214093891122 z"/><path fill="#7ad9e2" d="M 109.7305880476209,124.10892879471116 l 1.2030878875187123 2.980822954585954 a 29.213009418633973 29.213009418633973 0.0 0 1 -8.629835825158636,2.032271532762805 l -0.2535032268690056 -3.2044441117997025 a 25.998553640173057 25.998553640173057 0.0 0 0 7.680251164508929,-1.8086503755490568 z"/><path fill="#1b8eff" d="M 110.9336759351396,127.08975174929712 l 3.949033851314278 9.784298283238671 a 39.76418761133896 39.76418761133896 0.0 0 1 -11.746766856131337,2.7662889963817516 l -0.8321028203415768 -10.518315746857617 a 29.213009418633973 29.213009418633973 0.0 0 0 8.629835825158636,-2.032271532762806 z"/><path fill="#103c93" d="M 114.88270978645389,136.8740500325358 l 2.4572021878937282 6.0880711722887595 a 46.32943347048568 46.32943347048568 0.0 0 1 -13.686210790315647,3.223015726378361 l -0.5177582537094185 -6.544797902285367 a 39.76418761133896 39.76418761133896 0.0 0 0 11.746766856131337,-2.7662889963817534 z"/><path fill="#7369ff" d="M 117.33991197434761,142.96212120482454 l 9.498984540697888 23.535097857702425 a 71.70918009010438 71.70918009010438 0.0 0 1 -21.183659734131993,4.988617339845952 l -2.001535596881544 -25.30069947117002 a 46.32943347048568 46.32943347048568 0.0 0 0 13.686210790315647,-3.2230157263783568 z"/><path fill="#691dbe" d="M 126.8388965150455,166.497219062527 l 0.3188863916850636 0.7900868141897412 a 72.56119282754345 72.56119282754345 0.0 0 1 -21.43535342099854,5.047889604713824 l -0.0671927048185168 -0.8493590790576064 a 71.70918009010438 71.70918009010438 0.0 0 0 21.183659734131993,-4.988617339845959 z"/><path fill="#2d5eff" d="M 127.15778290673056,167.28730587671672 l 2.668416609509669 6.61138522342669 a 79.69076937699236 79.69076937699236 0.0 0 1 -23.541506684530475,5.543875323078599 l -0.5622633459777333 -7.107370941791473 a 72.56119282754345 72.56119282754345 0.0 0 0 21.43535342099854,-5.047889604713816 z"/><path fill="#1e4cff" d="M 129.82619951624022,173.89869110014342 l 4.941793897791575 12.244003817336086 a 92.89444145740964 92.89444145740964 0.0 0 1 -27.442012815560922,6.462419746641167 l -1.0412877667611298 -13.162548240898658 a 79.69076937699236 79.69076937699236 0.0 0 0 23.541506684530475,-5.543875323078595 z"/><path fill="#0015fe" d="M 134.76799341403182,186.1426949174795 l 2.659427289038226 6.589112891467076 a 100.0 100.0 0.0 0 1 -29.541070902657363,6.956734596013552 l -0.5603692019417821 -7.083427740839454 a 92.89444145740964 92.89444145740964 0.0 0 0 27.44201281556092,-6.462419746641174 z"/><path fill="#001dc2" d="M 100.0,100.0 l 0.7198896427482138 9.099868886647831 a 9.128299669265761 9.128299669265761 0.0 0 1 -2.1122695522554142,-0.07838713255010887 l 1.3923799095072007 -9.021481754097723 z"/><path fill="#432aff" d="M 100.71988964274821,109.09986888664783 l 0.49368350522140914 6.240477570791792 a 15.38827440682526 15.38827440682526 0.0 0 1 -3.5608146827965315,-0.13214319745730752 l 0.9548616253197082 -6.186721505884593 a 9.128299669265761 9.128299669265761 0.0 0 0 2.1122695522554142,0.07838713255010887 z"/><path fill="#21068d" d="M 101.21357314796964,115.34034645743962 l 0.8367637351423544 10.577232712820594 a 25.998553640173057 25.998553640173057 0.0 0 1 -6.016011222956915,-0.2232564819453735 l 1.6184328050180286 -10.486119428332529 a 15.38827440682526 15.38827440682526 0.0 0 0 3.560814682796532,0.1321431974573084 z"/><path fill="#c8bfff" d="M 102.050336883112,125.91757917026021 l 0.25350322686900706 3.204444111799701 a 29.213009418633973 29.213009418633973 0.0 0 1 -6.7598296024931575,-0.2508598670567346 l 0.49031515266723513 -3.17684072668834 a 25.998553640173057 25.998553640173057 0.0 0 0 6.016011222956915,0.2232564819453735 z"/><path fill="#5356e6" d="M 102.30384010998101,129.12202328205993 l 0.8321028203415783 10.518315746857617 a 39.76418761133896 39.76418761133896 0.0 0 1 -9.20135028480712,-0.3414656352192438 l 1.6094178619723838 -10.427709978695109 a 29.213009418633973 29.213009418633973 0.0 0 0 6.7598296024931575,0.2508598670567359 z"/><path fill="#2518ff" d="M 103.1359429303226,139.64033902891754 l 0.5177582537094206 6.544797902285366 a 46.32943347048568 46.32943347048568 0.0 0 1 -10.720534517774134,-0.3978431442878536 l 1.0014259792575935 -6.488420393216757 a 39.76418761133896 39.76418761133896 0.0 0 0 9.20135028480712,0.3414656352192438 z"/><path fill="#2a1a75" d="M 103.65370118403202,146.1851369312029 l 2.0015355968815487 25.30069947117002 a 71.70918009010438 71.70918009010438 0.0 0 1 -16.593355083588218,-0.6157857660730031 l 3.8712849689325353 -25.08275684938487 a 46.32943347048568 46.32943347048568 0.0 0 0 10.720534517774134,0.3978431442878545 z"/><path fill="#8d47ff" d="M 105.65523678091358,171.4858364023729 l 0.06719270481851676 0.849359079057607 a 72.56119282754345 72.56119282754345 0.0 0 1 -16.790509058439167,-0.6231022256332471 l 0.12996127003243174 -0.8420426194973629 a 71.70918009010438 71.70918009010438 0.0 0 0 16.593355083588218,0.6157857660730031 z"/><path fill="#6361ff" d="M 105.7224294857321,172.3351954814305 l 0.5622633459777352 7.107370941791472 a 79.69076937699236 79.69076937699236 0.0 0 1 -18.440278239065385,-0.6843257921523778 l 1.087505834648482 -7.046147375272341 a 72.56119282754345 72.56119282754345 0.0 0 0 16.790509058439167,0.6231022256332466 z"/><path fill="#3670ff" d="M 106.28469283170985,179.442566423222 l 1.0412877667611355 13.162548240898657 a 92.89444145740964 92.89444145740964 0.0 0 1 -21.49558048854485,-0.7977092294863422 l 2.0140144827183306 -13.049164803564693 a 79.69076937699236 79.69076937699236 0.0 0 0 18.440278239065382,0.6843257921523787 z"/><path fill="#1a0921" d="M 107.32598059847099,192.60511466412066 l 0.5603692019417824 7.083427740839455 a 100.0 100.0 0.0 0 1 -23.139791952352894,-0.8587265470045091 l 1.0838422618662662 -7.02241042332129 a 92.89444145740964 92.89444145740964 0.0 0 0 21.495580488544846,0.7977092294863439 z"/><path fill="#d6dcff" d="M 100.0,100.0 l -1.3923799095071985 9.021481754097723 a 9.128299669265761 9.128299669265761 0.0 0 1 -4.691532142371017,-2.2161993208016284 l 6.083912051878215 -6.805282433296094 z"/><path fill="#b79bfc" d="M 98.6076200904928,109.02148175409772 l -0.9548616253197065 6.186721505884593 a 15.38827440682526 15.38827440682526 0.0 0 1 -7.908875323004487,-3.736017059512065 l 4.172204805953177 -4.666903767174157 a 9.128299669265761 9.128299669265761 0.0 0 0 4.691532142371017,2.2161993208016284 z"/><path fill="#155fc8" d="M 97.6527584651731,115.20820325998231 l -1.6184328050180268 10.486119428332533 a 25.998553640173057 25.998553640173057 0.0 0 1 -13.36207776665157,-6.312016367426159 l 7.071635248665109 -7.910120120418441 a 15.38827440682526 15.38827440682526 0.0 0 0 7.908875323004487,3.7360170595120668 z"/><path fill="#4a37ff" d="M 96.03432566015506,125.69432268831486 l -0.4903151526672338 3.1768407266883374 a 29.213009418633973 29.213009418633973 0.0 0 1 -15.01416228964934,-7.092432761615915 l 2.142399675665004 -2.3964243324985794 a 25.998553640173057 25.998553640173057 0.0 0 0 13.36207776665157,6.312016367426157 z"/><path fill="#d0cafe" d="M 95.54401050748783,128.8711634150032 l -1.6094178619723813 10.427709978695109 a 39.76418761133896 39.76418761133896 0.0 0 1 -20.436989478115343,-9.654083319940607 l 7.0322450504383855 -7.866059420370416 a 29.213009418633973 29.213009418633973 0.0 0 0 15.01416228964934,7.092432761615914 z"/><path fill="#644af5" d="M 93.93459264551545,139.2988733936983 l -1.0014259792575921 6.48842039321676 a 46.32943347048568 46.32943347048568 0.0 0 1 -23.811228173900023,-11.24801580913407 l 4.375664675042273 -4.894487904023297 a 39.76418761133896 39.76418761133896 0.0 0 0 20.436989478115343,9.654083319940607 z"/><path fill="#9696fd" d="M 92.93316666625785,145.78729378691506 l -3.871284968932528 25.082756849384875 a 71.70918009010438 71.70918009010438 0.0 0 1 -36.85526718941043,-17.409796125121513 l 16.915323984442928 -18.920976533397436 a 46.32943347048568 46.32943347048568 0.0 0 0 23.811228173900027,11.248015809134074 z"/><path fill="#c99bff" d="M 89.06188169732532,170.87005063629994 l -0.12996127003243013 0.842042619497358 a 72.56119282754345 72.56119282754345 0.0 0 1 -37.293163105214255,-17.616650645507644 l 0.5678571858362602 -0.6351880991112324 a 71.70918009010438 71.70918009010438 0.0 0 0 36.85526718941043,17.409796125121517 z"/><path fill="#180f2c" d="M 88.9319204272929,171.7120932557973 l -1.0875058346484818 7.046147375272347 a 79.69076937699236 79.69076937699236 0.0 0 1 -40.95744218841011,-19.34759323930647 l 4.75178491784434 -5.315204781473511 a 72.56119282754345 72.56119282754345 0.0 0 0 37.293163105214255,17.616650645507633 z"/><path fill="#7c65ff" d="M 87.84441459264441,178.75824063106964 l -2.014014482718324 13.049164803564693 a 92.89444145740964 92.89444145740964 0.0 0 1 -47.74353096802914,-22.553225192344883 l 8.800103262337352 -9.843532850526287 a 79.69076937699236 79.69076937699236 0.0 0 0 40.95744218841011,19.347593239306477 z"/><path fill="#4300e5" d="M 85.83040010992609,191.80740543463435 l -1.083842261866263 7.022410423321286 a 100.0 100.0 0.0 0 1 -51.39546588470382,-24.27833661359072 l 4.735777178540943 -5.297299002075448 a 92.89444145740964 92.89444145740964 0.0 0 0 47.74353096802914,22.553225192344883 z"/><path fill="#1b05a4" d="M 100.0,100.0 l -6.0839120518782135 6.805282433296096 a 9.128299669265761 9.128299669265761 0.0 0 1 -0.3521493991217888,-0.3320322565402849 l 6.436061451000002 -6.473250176755811 z"/><path fill="#021e6e" d="M 93.91608794812178,106.8052824332961 l -4.172204805953176 4.666903767174158 a 15.38827440682526 15.38827440682526 0.0 0 1 -0.5936452332004345,-0.5597322240375435 l 4.413700640031822 -4.439203799676899 a 9.128299669265761 9.128299669265761 0.0 0 0 0.3521493991217888,0.3320322565402849 z"/><path fill="#211075" d="M 89.74388314216861,111.47218620047025 l -7.071635248665106 7.910120120418444 a 25.998553640173057 25.998553640173057 0.0 0 1 -1.0029660916203218,-0.9456699215292801 l 7.480956107084992 -7.5241824229267085 a 15.38827440682526 15.38827440682526 0.0 0 0 0.5936452332004354,0.5597322240375444 z"/><path fill="#003fda" d="M 82.67224789350351,119.38230632088869 l -2.142399675665004 2.396424332498579 a 29.213009418633973 29.213009418633973 0.0 0 1 -1.1269726111148373,-1.0625923544402904 l 2.2664061951595187 -2.2795018995875687 a 25.998553640173057 25.998553640173057 0.0 0 0 1.0029660916203227,0.9456699215292801 z"/><path fill="#3b25bf" d="M 80.52984821783849,121.77873065338727 l -7.032245050438381 7.8660594203704175 a 39.76418761133896 39.76418761133896 0.0 0 1 -1.5340134834799377,-1.4463803140181195 l 7.4392859228034816 -7.482271460792589 a 29.213009418633973 29.213009418633973 0.0 0 0 1.1269726111148373,1.0625923544402909 z"/><path fill="#3508ff" d="M 73.49760316740011,129.6447900737577 l -4.375664675042274 4.894487904023295 a 46.32943347048568 46.32943347048568 0.0 0 1 -1.7872859951361262,-1.6851841960481604 l 4.628937186698465 -4.6556840219932525 a 39.76418761133896 39.76418761133896 0.0 0 0 1.534013483479935,1.4463803140181177 z"/><path fill="#4018a0" d="M 69.12193849235784,134.53927797778098 l -16.915323984442924 18.920976533397443 a 71.70918009010438 71.70918009010438 0.0 0 1 -2.7663798949621494,-2.6083456659663042 l 17.894417884268947 -17.9978150634793 a 46.32943347048568 46.32943347048568 0.0 0 0 1.787285995136127,1.6851841960481622 z"/><path fill="#2e00e6" d="M 52.206614507914914,153.46025451117842 l -0.5678571858362574 0.6351880991112324 a 72.56119282754345 72.56119282754345 0.0 0 1 -2.799248642089668,-2.6393367291503367 l 0.6007259329637762 -0.6041970359272 a 71.70918009010438 71.70918009010438 0.0 0 0 2.7663798949621494,2.6083456659663042 z"/><path fill="#0031f3" d="M 51.63875732207865,154.09544261028967 l -4.751784917844341 5.315204781473516 a 79.69076937699236 79.69076937699236 0.0 0 1 -3.0742917704758232,-2.898667543832123 l 5.026828046230499 -5.055873966791729 a 72.56119282754345 72.56119282754345 0.0 0 0 2.7992486420896654,2.6393367291503367 z"/><path fill="#006dfb" d="M 46.886972404234314,159.41064739176318 l -8.800103262337347 9.843532850526293 a 92.89444145740964 92.89444145740964 0.0 0 1 -3.5836599285978874,-3.3789371662503793 l 9.30947142045941 -9.363263228108039 a 79.69076937699236 79.69076937699236 0.0 0 0 3.074291770475824,2.8986675438321257 z"/><path fill="#965bff" d="M 38.08686914189696,169.25418024228946 l -4.735777178540948 5.29729900207545 a 100.0 100.0 0.0 0 1 -3.8577764959606657,-3.6373943513074085 l 5.0098937459037245 -5.038841817018422 a 92.89444145740964 92.89444145740964 0.0 0 0 3.583659928597889,3.378937166250381 z"/><path fill="#bfd7ff" d="M 100.0,100.0 l -6.436061451000001 6.473250176755814 a 9.128299669265761 9.128299669265761 0.0 0 1 -0.604105393049446,-0.6627505717421238 l 7.040166844049447 -5.81049960501369 z"/><path fill="#3130c8" d="M 93.563938549,106.47325017675581 l -4.413700640031821 4.4392037996769 a 15.38827440682526 15.38827440682526 0.0 0 1 -1.0183867637679818,-1.1172494364515586 l 4.827982010750357 -3.984704934967465 a 9.128299669265761 9.128299669265761 0.0 0 0 0.604105393049446,0.6627505717421238 z"/><path fill="#0a1432" d="M 89.15023790896818,110.91245397643272 l -7.4809561070849915 7.524182422926712 a 25.998553640173057 25.998553640173057 0.0 0 1 -1.7205686748425029,-1.8875975717040525 l 8.183138018159513 -6.753834287674218 a 15.38827440682526 15.38827440682526 0.0 0 0 1.0183867637679818,1.1172494364515586 z"/><path fill="#013daf" d="M 81.66928180188319,118.43663639935943 l -2.2664061951595182 2.279501899587568 a 29.213009418633973 29.213009418633973 0.0 0 1 -1.9332994288541525,-2.120979743872169 l 2.479136949171167 -2.046119727419452 a 25.998553640173057 25.998553640173057 0.0 0 0 1.7205686748425038,1.8875975717040525 z"/><path fill="#19aeaf" d="M 79.40287560672367,120.71613829894699 l -7.43928592280348 7.482271460792591 a 39.76418761133896 39.76418761133896 0.0 0 1 -2.6315700685330388,-2.8870369103905364 l 8.137556562482366 -6.716214294274224 a 29.213009418633973 29.213009418633973 0.0 0 0 1.933299428854152,2.1209797438721694 z"/><path fill="#b7cffe" d="M 71.96358968392019,128.19840975973958 l -4.628937186698467 4.655684021993251 a 46.32943347048568 46.32943347048568 0.0 0 1 -3.066054098845891,-3.363699662975984 l 5.063421217011321 -4.1790212694078015 a 39.76418761133896 39.76418761133896 0.0 0 0 2.631570068533037,2.8870369103905347 z"/><path fill="#000fcd" d="M 67.33465249722173,132.85409378173284 l -17.894417884268943 17.997815063479308 a 71.70918009010438 71.70918009010438 0.0 0 1 -4.745670496493506,-5.206369403481503 l 19.57403428191656 -16.15514532297379 a 46.32943347048568 46.32943347048568 0.0 0 0 3.066054098845889,3.3636996629759857 z"/><path fill="#1e7bff" d="M 49.44023461295278,150.85190884521214 l -0.6007259329637727 0.6041970359272044 a 72.56119282754345 72.56119282754345 0.0 0 1 -4.802056188055186,-5.268228889840228 l 0.6571116245254487 -0.5423375495684795 a 71.70918009010438 71.70918009010438 0.0 0 0 4.74567049649351,5.206369403481503 z"/><path fill="#0092d2" d="M 48.839508679989,151.45610588113934 l -5.026828046230503 5.055873966791726 a 79.69076937699236 79.69076937699236 0.0 0 1 -5.273887284725059,-5.785864277111269 l 5.4986591429003795 -4.538238579520687 a 72.56119282754345 72.56119282754345 0.0 0 0 4.802056188055182,5.2682288898402305 z"/><path fill="#0b0d5e" d="M 43.812680633758504,156.51197984793106 l -9.309471420459404 9.363263228108046 a 92.89444145740964 92.89444145740964 0.0 0 1 -6.1476983777912135,-6.744502965305863 l 10.183282513525555 -8.40462453991345 a 79.69076937699236 79.69076937699236 0.0 0 0 5.273887284725063,5.785864277111266 z"/><path fill="#5a3aea" d="M 34.5032092132991,165.8752430760391 l -5.009893745903723 5.0388418170184295 a 100.0 100.0 0.0 0 1 -6.61793997718347,-7.260394550515812 l 5.480135345295977 -4.522950231808487 a 92.89444145740964 92.89444145740964 0.0 0 0 6.147698377791215,6.74450296530587 z"/><path fill="#00153e" d="M 100.0,100.0 l -7.0401668440494465 5.810499605013692 a 9.128299669265761 9.128299669265761 0.0 0 1 -1.2889168923714447,-2.075232685019031 l 8.329083736420891 -3.7352669199946607 z"/><path fill="#a24aff" d="M 92.95983315595055,105.81049960501369 l -4.827982010750356 3.9847049349674655 a 15.38827440682526 15.38827440682526 0.0 0 1 -2.1728259967389576,-3.4983787969413007 l 5.711891115117869 -2.5615588230451958 a 9.128299669265761 9.128299669265761 0.0 0 0 1.2889168923714447,2.075232685019031 z"/><path fill="#1d0045" d="M 88.1318511452002,109.79520453998116 l -8.18313801815951 6.753834287674221 a 25.998553640173057 25.998553640173057 0.0 0 1 -3.670998562510995,-5.910525534011897 l 9.681310583931548 -4.341687550603624 a 15.38827440682526 15.38827440682526 0.0 0 0 2.1728259967389576,3.4983787969413003 z"/><path fill="#120087" d="M 79.94871312704069,116.54903882765538 l -2.4791369491711674 2.0461197274194522 a 29.213009418633973 29.213009418633973 0.0 0 1 -4.12488006320153,-6.641301684850838 l 2.9330184498617022 -1.3153435765805135 a 25.998553640173057 25.998553640173057 0.0 0 0 3.670998562510995,5.910525534011899 z"/><path fill="#d7cfff" d="M 77.46957617786951,118.59515855507483 l -8.137556562482366 6.716214294274228 a 39.76418761133896 39.76418761133896 0.0 0 1 -5.614707555695823,-9.040012358721896 l 9.627384054976659 -4.317503620403169 a 29.213009418633973 29.213009418633973 0.0 0 0 4.12488006320153,6.641301684850838 z"/><path fill="#6e00fc" d="M 69.33201961538715,125.31137284934906 l -5.063421217011319 4.1790212694078 a 46.32943347048568 46.32943347048568 0.0 0 1 -6.541720975173815,-10.532558975914954 l 5.9904346364893115 -2.6864746522147414 a 39.76418761133896 39.76418761133896 0.0 0 0 5.614707555695823,9.040012358721896 z"/><path fill="#2d0677" d="M 64.26859839837583,129.49039411875685 l -19.574034281916557 16.155145322973798 a 71.70918009010438 71.70918009010438 0.0 0 1 -10.12534392001135,-16.30240458033412 l 23.15765722675409 -10.38529971855463 a 46.32943347048568 46.32943347048568 0.0 0 0 6.541720975173817,10.532558975914952 z"/><path fill="#032a93" d="M 44.69456411645927,145.64553944173065 l -0.657111624525448 0.5423375495684779 a 72.56119282754345 72.56119282754345 0.0 0 1 -10.245648209921804,-16.49610162631731 l 0.7774159144359061 -0.3486405035852904 a 71.70918009010438 71.70918009010438 0.0 0 0 10.125343920011346,16.30240458033412 z"/><path fill="#110ec1" d="M 44.03745249193382,146.18787699129913 l -5.49865914290038 4.538238579520685 a 79.69076937699236 79.69076937699236 0.0 0 1 -11.25234518339871,-18.1169434941163 l 6.5053561163772855 -2.917396711721697 a 72.56119282754345 72.56119282754345 0.0 0 0 10.245648209921804,16.49610162631731 z"/><path fill="#3f6aeb" d="M 38.53879334903344,150.72611557081981 l -10.18328251352555 8.404624539913456 a 92.89444145740964 92.89444145740964 0.0 0 1 -13.116705097335666,-21.11867359241829 l 12.047642427462506 -5.4028944416114655 a 79.69076937699236 79.69076937699236 0.0 0 0 11.25234518339871,18.1169434941163 z"/><path fill="#4230f1" d="M 28.355510835507886,159.13074011073326 l -5.480135345295985 4.52295023180849 a 100.0 100.0 0.0 0 1 -14.120010725668045,-22.73405519328173 l 6.483440973628362 -2.9075686309450504 a 92.89444145740964 92.89444145740964 0.0 0 0 13.116705097335668,21.11867359241829 z"/><path fill="#d5e8ff" d="M 100.0,100.0 l -8.329083736420891 3.7352669199946624 a 9.128299669265761 9.128299669265761 0.0 0 1 -0.19257274311967798,-0.46307717967983075 l 8.52165647954057 -3.2721897403148317 z"/><path fill="#1021b3" d="M 91.6709162635791,103.73526691999466 l -5.711891115117867 2.5615588230451976 a 15.38827440682526 15.38827440682526 0.0 0 1 -0.32463463314839025,-0.7806446951390615 l 5.843953005146579 -2.2439913075859668 a 9.128299669265761 9.128299669265761 0.0 0 0 0.19257274311967798,0.46307717967983075 z"/><path fill="#6079ed" d="M 85.95902514846124,106.29682574303986 l -9.681310583931547 4.341687550603626 a 25.998553640173057 25.998553640173057 0.0 0 1 -0.5484715634927113,-1.318902460661059 l 9.905147514275868 -3.8034297850816285 a 15.38827440682526 15.38827440682526 0.0 0 0 0.32463463314839025,0.7806446951390615 z"/><path fill="#1b51c3" d="M 76.27771456452969,110.63851329364348 l -2.9330184498617045 1.3153435765805144 a 29.213009418633973 29.213009418633973 0.0 0 1 -0.6162844738180921,-1.481971287280218 l 3.0008313601870853 -1.1522747499613555 a 25.998553640173057 25.998553640173057 0.0 0 0 0.5484715634927113,1.318902460661059 z"/><path fill="#2278ff" d="M 73.34469611466798,111.953856870224 l -9.627384054976657 4.317503620403173 a 39.76418761133896 39.76418761133896 0.0 0 1 -0.838874594797014,-2.0172308664796113 l 9.84997417595558 -3.7822440412037786 a 29.213009418633973 29.213009418633973 0.0 0 0 0.6162844738180908,1.481971287280217 z"/><path fill="#aa9aff" d="M 63.71731205969133,116.27136049062717 l -5.990434636489312 2.6864746522147427 a 46.32943347048568 46.32943347048568 0.0 0 1 -0.9773765557490313,-2.3502847370262265 l 6.1289365974413315 -2.353420781668129 a 39.76418761133896 39.76418761133896 0.0 0 0 0.8388745947970122,2.017230866479613 z"/><path fill="#2b6df6" d="M 57.72687742320202,118.95783514284192 l -23.157657226754086 10.385299718554636 a 71.70918009010438 71.70918009010438 0.0 0 1 -1.5127936217200393,-3.637795216680219 l 23.693074292725093 -9.097789238900642 a 46.32943347048568 46.32943347048568 0.0 0 0 0.9773765557490321,2.350284737026225 z"/><path fill="#074580" d="M 34.56922019644793,129.34313486139655 l -0.7774159144359023 0.3486405035852898 a 72.56119282754345 72.56119282754345 0.0 0 1 -1.5307678815456607,-3.681017686340478 l 0.7953901742615272 -0.305418033925033 a 71.70918009010438 71.70918009010438 0.0 0 0 1.5127936217200357,3.637795216680221 z"/><path fill="#5700ad" d="M 33.79180428201202,129.69177536498182 l -6.505356116377279 2.9173967117217003 a 79.69076937699236 79.69076937699236 0.0 0 1 -1.6811750946252095,-4.042699962388699 l 6.655763329456818 -2.5557144356734796 a 72.56119282754345 72.56119282754345 0.0 0 0 1.5307678815456711,3.6810176863404784 z"/><path fill="#3b6bfc" d="M 27.286448165634738,132.60917207670354 l -12.047642427462504 5.4028944416114655 a 92.89444145740964 92.89444145740964 0.0 0 1 -1.959722846550962,-4.712520131527469 l 12.326190179388263 -4.733074272472695 a 79.69076937699236 79.69076937699236 0.0 0 0 1.6811750946252033,4.042699962388699 z"/><path fill="#086cab" d="M 15.238805738172232,138.012066518315 l -6.4834409736283645 2.9075686309450557 a 100.0 100.0 0.0 0 1 -2.1096233701447575,-5.072983977935939 l 6.633341497222162 -2.547104784536586 a 92.89444145740964 92.89444145740964 0.0 0 0 1.9597228465509602,4.712520131527469 z"/><path fill="#0105b4" d="M 100.0,100.0 l -8.521656479540567 3.2721897403148335 a 9.128299669265761 9.128299669265761 0.0 0 1 -0.21759481766459388,-0.635650035281869 l 8.739251297205161 -2.6365397050329644 z"/><path fill="#8354ff" d="M 91.47834352045943,103.27218974031483 l -5.843953005146579 2.243991307585968 a 15.38827440682526 15.38827440682526 0.0 0 1 -0.36681626206901363,-1.0715639849729368 l 5.993174449550999 -1.8080773578949003 a 9.128299669265761 9.128299669265761 0.0 0 0 0.21759481766459388,0.635650035281869 z"/><path fill="#74b5ff" d="M 85.63439051531284,105.5161810479008 l -9.905147514275868 3.803429785081631 a 25.998553640173057 25.998553640173057 0.0 0 1 -0.6197376010697564,-1.8104118113360368 l 10.15806885327661 -3.0645819587185317 a 15.38827440682526 15.38827440682526 0.0 0 0 0.36681626206901363,1.0715639849729373 z"/><path fill="#2012c0" d="M 75.72924300103699,109.31961083298243 l -3.0008313601870844 1.1522747499613568 a 29.213009418633973 29.213009418633973 0.0 0 1 -0.6963618294964435,-2.0342507521050606 l 3.0774555886137733 -0.9284358091923322 a 25.998553640173057 25.998553640173057 0.0 0 0 0.6197376010697546,1.810411811336036 z"/><path fill="#1e84e7" d="M 72.7284116408499,110.47188558294378 l -9.849974175955579 3.782244041203781 a 39.76418761133896 39.76418761133896 0.0 0 1 -0.9478743540817529,-2.76898307175487 l 10.101486700540885 -3.047511721553972 a 29.213009418633973 29.213009418633973 0.0 0 0 0.6963618294964462,2.034250752105061 z"/><path fill="#4f77f2" d="M 62.87843746489432,114.25412962414757 l -6.128936597441332 2.3534207816681283 a 46.32943347048568 46.32943347048568 0.0 0 1 -1.1043726645452159,-3.2261546056881363 l 6.2854349079047935 -1.8962492477348611 a 39.76418761133896 39.76418761133896 0.0 0 0 0.9478743540817547,2.768983071754869 z"/><path fill="#8359e4" d="M 56.74950086745299,116.60755040581569 l -23.693074292725086 9.09778923890065 a 71.70918009010438 71.70918009010438 0.0 0 1 -1.709359522794763,-4.993475729963098 l 24.29806115097464 -7.3304681146256865 a 46.32943347048568 46.32943347048568 0.0 0 0 1.1043726645452097,3.2261546056881354 z"/><path fill="#92c6f1" d="M 33.056426574727894,125.70533964471633 l -0.7953901742615269 0.3054180339250327 a 72.56119282754345 72.56119282754345 0.0 0 1 -1.7296692806870486,-5.052805719800876 l 0.8156999321538052 -0.24608804408725504 a 71.70918009010438 71.70918009010438 0.0 0 0 1.7093595227947702,4.993475729963098 z"/><path fill="#4e88fc" d="M 32.26103640046637,126.01075767864137 l -6.655763329456813 2.555714435673481 a 79.69076937699236 79.69076937699236 0.0 0 1 -1.8996197605695686,-5.549274476239779 l 6.825713809339334 -2.0592456792345786 a 72.56119282754345 72.56119282754345 0.0 0 0 1.7296692806870482,5.052805719800876 z"/><path fill="#080216" d="M 25.60527307100955,128.56647211431485 l -12.326190179388266 4.7330742724727 a 92.89444145740964 92.89444145740964 0.0 0 1 -2.214360810155693,-6.46871346574028 l 12.640931228974395 -3.8136352829722 a 79.69076937699236 79.69076937699236 0.0 0 0 1.8996197605695642,5.5492744762397805 z"/><path fill="#c8c5fa" d="M 13.279082891621286,133.29954638678754 l -6.633341497222168 2.54710478453659 a 100.0 100.0 0.0 0 1 -2.383738763498507,-6.963509725935609 l 6.802719450564979 -2.05230852434126 a 92.89444145740964 92.89444145740964 0.0 0 0 2.2143608101556964,6.468713465740279 z"/><path fill="#220682" d="M 100.0,100.0 l -8.739251297205161 2.6365397050329666 a 9.128299669265761 9.128299669265761 0.0 0 1 -0.26415326336013223,-1.1316938090324875 l 9.003404560565293 -1.5048458960004791 z"/><path fill="#0974ba" d="M 91.26074870279484,102.63653970503296 l -5.993174449550999 1.8080773578949019 a 15.38827440682526 15.38827440682526 0.0 0 1 -0.44530340253072076,-1.9077829945188454 l 6.174324588721587 -1.031988172408544 a 9.128299669265761 9.128299669265761 0.0 0 0 0.26415326336013223,1.1316938090324875 z"/><path fill="#607af9" d="M 85.26757425324384,104.44461706292786 l -10.15806885327661 3.0645819587185334 a 25.998553640173057 25.998553640173057 0.0 0 1 -0.7523419514608847,-3.223207307429412 l 10.465107402206774 -1.7491576458079665 a 15.38827440682526 15.38827440682526 0.0 0 0 0.44530340253072076,1.9077829945188451 z"/><path fill="#16677c" d="M 75.10950539996723,107.5091990216464 l -3.0774555886137747 0.9284358091923326 a 29.213009418633973 29.213009418633973 0.0 0 1 -0.8453613542600906,-3.6217239902395773 l 3.1704749914129806 -0.5299191263821674 a 25.998553640173057 25.998553640173057 0.0 0 0 0.7523419514608847,3.223207307429412 z"/><path fill="#1c2dff" d="M 72.03204981135346,108.43763483083873 l -10.101486700540889 3.047511721553975 a 39.76418761133896 39.76418761133896 0.0 0 1 -1.1506896468096137,-4.92982116839053 l 10.40681499309041 -1.7394145434030213 a 29.213009418633973 29.213009418633973 0.0 0 0 0.845361354260092,3.621723990239577 z"/><path fill="#02266a" d="M 61.93056311081257,111.4851465523927 l -6.285434907904793 1.8962492477348631 a 46.32943347048568 46.32943347048568 0.0 0 1 -1.340673672453982,-5.743756771160915 l 6.475418933549157 -1.0823136449644792 a 39.76418761133896 39.76418761133896 0.0 0 0 1.1506896468096173,4.929821168390531 z"/><path fill="#031f8f" d="M 55.64512820290778,113.38139580012756 l -24.298061150974636 7.330468114625693 a 71.70918009010438 71.70918009010438 0.0 0 1 -2.0751086861726726,-8.89024660660537 l 25.032496164693328 -4.183978279181239 a 46.32943347048568 46.32943347048568 0.0 0 0 1.3406736724539812,5.743756771160915 z"/><path fill="#a66fff" d="M 31.347067051933138,120.71186391475325 l -0.8156999321538067 0.24608804408725318 a 72.56119282754345 72.56119282754345 0.0 0 1 -2.0997640933320967,-8.99587608581967 l 0.8403553393132341 -0.1404585648729526 a 71.70918009010438 71.70918009010438 0.0 0 0 2.075108686172669,8.89024660660537 z"/><path fill="#4b63ff" d="M 30.531367119779333,120.95795195884051 l -6.825713809339327 2.059245679234583 a 79.69076937699236 79.69076937699236 0.0 0 1 -2.3060786294612896,-9.879775380800147 l 7.032028345468518 -1.1753463842541052 a 72.56119282754345 72.56119282754345 0.0 0 0 2.099764093332098,8.995876085819669 z"/><path fill="#1c072e" d="M 23.70565331044,123.01719763807509 l -12.6409312289744 3.8136352829722013 a 92.89444145740964 92.89444145740964 0.0 0 1 -2.688164362264553,-11.516719224812363 l 13.023016961777671 -2.1766914389599847 a 79.69076937699236 79.69076937699236 0.0 0 0 2.3060786294612825,9.879775380800146 z"/><path fill="#a890f1" d="M 11.064722081465604,126.83083292104729 l -6.8027194505649735 2.0523085243412638 a 100.0 100.0 0.0 0 1 -2.893783869185574,-12.397640853562333 l 7.008338957485989 -1.1713868955912954 a 92.89444145740964 92.89444145740964 0.0 0 0 2.6881643622645583,11.516719224812364 z"/><path fill="#6175f8" d="M 100.0,100.0 l -9.003404560565292 1.5048458960004814 a 9.128299669265761 9.128299669265761 0.0 0 1 -0.1248612623242149,-1.479987927765372 l 9.128265822889507 -0.024857968235109235 z"/><path fill="#21018f" d="M 90.99659543943471,101.50484589600048 l -6.1743245887215865 1.0319881724085456 a 15.38827440682526 15.38827440682526 0.0 0 1 -0.21048820010771596,-2.494929086073059 l 6.259951526505088 -0.01704701410085896 a 9.128299669265761 9.128299669265761 0.0 0 0 0.1248612623242149,1.479987927765372 z"/><path fill="#9e85f2" d="M 84.82227085071312,102.53683406840902 l -10.465107402206774 1.7491576458079694 a 25.998553640173057 25.998553640173057 0.0 0 1 -0.3556206899128771,-4.215193072195838 l 10.610239892011936 -0.028893659685190087 a 15.38827440682526 15.38827440682526 0.0 0 0 0.21048820010771507,2.4949290860730584 z"/><path fill="#9f6dec" d="M 74.35716344850634,104.28599171421699 l -3.1704749914129797 0.5299191263821676 a 29.213009418633973 29.213009418633973 0.0 0 1 -0.39958955823731745,-4.73635866916626 l 3.214443859737422 -0.00875352941174512 a 25.998553640173057 25.998553640173057 0.0 0 0 0.3556206899128753,4.215193072195838 z"/><path fill="#28299d" d="M 71.18668845709337,104.81591084059916 l -10.40681499309041 1.739414543403024 a 39.76418761133896 39.76418761133896 0.0 0 1 -0.5439136356539045,-6.4470404954302625 l 10.551139070506995 -0.028732717139021702 a 29.213009418633973 29.213009418633973 0.0 0 0 0.3995895582373201,4.73635866916626 z"/><path fill="#7600ea" d="M 60.779873464002954,106.55532538400219 l -6.475418933549154 1.0823136449644815 a 46.32943347048568 46.32943347048568 0.0 0 1 -0.6337162182971774,-7.511475819246741 l 6.56522151619243 -0.017878321148003806 a 39.76418761133896 39.76418761133896 0.0 0 0 0.5439136356539009,6.4470404954302625 z"/><path fill="#6c20af" d="M 54.3044545304538,107.63763902896666 l -25.03249616469333 4.183978279181246 a 71.70918009010438 71.70918009010438 0.0 0 1 -0.9808725689003417,-11.62634057694602 l 25.379652515296492 -0.06911352148196404 a 46.32943347048568 46.32943347048568 0.0 0 0 0.6337162182971809,7.51147581924674 z"/><path fill="#003254" d="M 29.27195836576047,111.8216173081479 l -0.8403553393132248 0.1404585648729527 a 72.56119282754345 72.56119282754345 0.0 0 1 -0.9925268078897838,-11.764478961026215 l 0.8520095783026704 -0.0023201807927577534 a 71.70918009010438 71.70918009010438 0.0 0 0 0.9808725689003381,11.62634057694602 z"/><path fill="#9155fd" d="M 28.43160302644725,111.96207587302086 l -7.0320283454685155 1.1753463842541068 a 79.69076937699236 79.69076937699236 0.0 0 1 -1.0900485764617143,-12.920410252238112 l 7.129550114040441 -0.019415093042210785 a 72.56119282754345 72.56119282754345 0.0 0 0 0.9925268078897886,11.764478961026215 z"/><path fill="#3169f6" d="M 21.39957468097873,113.13742225727496 l -13.023016961777675 2.1766914389599887 a 92.89444145740964 92.89444145740964 0.0 0 1 -1.2706547378508581,-15.061145765883017 l 13.203623123166821 -0.03595592531508274 a 79.69076937699236 79.69076937699236 0.0 0 0 1.0900485764617116,12.920410252238112 z"/><path fill="#b95eff" d="M 8.37655771920106,115.31411369623495 l -7.008338957485989 1.1713868955912947 a 100.0 100.0 0.0 0 1 -1.3678479766019507,-16.2131829736963 l 7.105532196237078 -0.01934968777801238 a 92.89444145740964 92.89444145740964 0.0 0 0 1.2706547378508617,15.061145765883017 z"/><path fill="#585dff" d="M 100.0,100.0 l -9.128265822889507 0.02485796823511147 a 9.128299669265761 9.128299669265761 0.0 0 1 0.007536182802997615,-0.3965375134953277 l 9.120729640086509 0.3716795452602162 z"/><path fill="#1b519f" d="M 90.8717341771105,100.02485796823511 l -6.259951526505088 0.01704701410086057 a 15.38827440682526 15.38827440682526 0.0 0 1 0.012704320974801675,-0.668473679803842 l 6.2547833883332835 0.2548891522076537 a 9.128299669265761 9.128299669265761 0.0 0 0 -0.007536182802997615,0.3965375134953277 z"/><path fill="#5500e0" d="M 84.6117826506054,100.04190498233596 l -10.610239892011938 0.02889365968519275 a 25.998553640173057 25.998553640173057 0.0 0 1 0.021464003148972566,-1.1293890635142092 l 10.601480209837767 0.43202172402517447 a 15.38827440682526 15.38827440682526 0.0 0 0 -0.012704320974801675,0.668473679803842 z"/><path fill="#001f93" d="M 74.00154275859347,100.07079864202116 l -3.214443859737422 0.008753529411746312 a 29.213009418633973 29.213009418633973 0.0 0 1 0.02411780804542829,-1.2690264930262167 l 3.2117900548409644 0.1308839001002613 a 25.998553640173057 25.998553640173057 0.0 0 0 -0.02146400314897079,1.1293890635142092 z"/><path fill="#4a398c" d="M 70.78709889885604,100.07955217143291 l -10.55113907050699 0.02873271713902422 a 39.76418761133896 39.76418761133896 0.0 0 1 0.03282869731596527,-1.7273745004945011 l 10.542428181236453 0.42961529032926027 a 29.213009418633973 29.213009418633973 0.0 0 0 -0.02411780804542829,1.2690264930262167 z"/><path fill="#682fff" d="M 60.23595982834905,100.10828488857193 l -6.565221516192435 0.01787832114800557 a 46.32943347048568 46.32943347048568 0.0 0 1 0.03824886259688487,-2.01257178397511 l 6.5598013509115205 0.2673189623326033 a 39.76418761133896 39.76418761133896 0.0 0 0 -0.0328286973159706,1.7273745004945014 z"/><path fill="#182875" d="M 53.67073831215662,100.12616320971993 l -25.379652515296485 0.06911352148197006 a 71.70918009010438 71.70918009010438 0.0 0 1 0.059201988255445315,-3.115079587434914 l 25.35869938963792 1.033394281977834 a 46.32943347048568 46.32943347048568 0.0 0 0 -0.03824886259688043,2.01257178397511 z"/><path fill="#209eff" d="M 28.29108579686013,100.1952767312019 l -0.8520095783026759 0.002320180792758121 a 72.56119282754345 72.56119282754345 0.0 0 1 0.05990539677319451,-3.1520914105138567 l 0.8513061697849338 0.03469164228618471 a 71.70918009010438 71.70918009010438 0.0 0 0 -0.05920198825545242,3.1150795874349138 z"/><path fill="#e9c9f6" d="M 27.43907621855746,100.19759691199467 l -7.129550114040439 0.01941509304221298 a 79.69076937699236 79.69076937699236 0.0 0 1 0.06579146473012365,-3.4618034773417934 l 7.123664046083505 0.2902969737857237 a 72.56119282754345 72.56119282754345 0.0 0 0 -0.05990539677318907,3.1520914105138567 z"/><path fill="#5800e5" d="M 20.30952610451702,100.21701200503688 l -13.203623123166818 0.035955925315085666 a 92.89444145740964 92.89444145740964 0.0 0 1 0.07669221186531772,-4.035377032711003 l 13.192722376031625 0.5376176300541244 a 79.69076937699236 79.69076937699236 0.0 0 0 -0.06579146473012543,3.4618034773417934 z"/><path fill="#6032ff" d="M 7.105902981350198,100.25296793035196 l -7.105532196237078 0.01934968777801347 a 100.0 100.0 0.0 0 1 0.08255845092784853,-4.344045746333647 l 7.099665957174551 0.2893190258446303 a 92.89444145740964 92.89444145740964 0.0 0 0 -0.07669221186532127,4.035377032711003 z"/><path fill="#26a0fe" d="M 100.0,100.0 l -9.120729640086509 -0.37167954526021396 a 9.128299669265761 9.128299669265761 0.0 0 1 7.6061737016983235,-8.63009667732 l 1.5145559383881855 9.001776222580213 z"/><path fill="#0532f6" d="M 90.87927035991349,99.62832045473978 l -6.2547833883332835 -0.25488915220765224 a 15.38827440682526 15.38827440682526 0.0 0 1 12.82230999731479,-14.548415437670776 l 1.0386470927168165 6.17320791255843 a 9.128299669265761 9.128299669265761 0.0 0 0 -7.6061737016983235,8.63009667732 z"/><path fill="#240088" d="M 84.62448697158021,99.37343130253213 l -10.601480209837767 -0.4320217240251719 a 25.998553640173057 25.998553640173057 0.0 0 1 21.663346093455274,-24.5796084171753 l 1.7604441136972806 10.463214703529696 a 15.38827440682526 15.38827440682526 0.0 0 0 -12.82230999731479,14.548415437670778 z"/><path fill="#1c15c0" d="M 74.02300676174244,98.94140957850695 l -3.2117900548409635 -0.13088390010026046 a 29.213009418633973 29.213009418633973 0.0 0 1 24.34179771021385,-27.618626102636433 l 0.5333384380823887 3.169901585561391 a 25.998553640173057 25.998553640173057 0.0 0 0 -21.663346093455274,24.579608417175304 z"/><path fill="#008aa8" d="M 70.81121670690148,98.81052567840669 l -10.542428181236456 -0.42961529032925766 a 39.76418761133896 39.76418761133896 0.0 0 1 33.13358774768321,-37.59394364937061 l 1.7506381437671017 10.404932837063434 a 29.213009418633973 29.213009418633973 0.0 0 0 -24.34179771021385,27.618626102636433 z"/><path fill="#5709ff" d="M 60.26878852566502,98.38091038807742 l -6.559801350911519 -0.2673189623326019 a 46.32943347048568 46.32943347048568 0.0 0 1 38.604091807399534,-43.800872489094864 l 1.0892972911951873 6.474247802056851 a 39.76418761133896 39.76418761133896 0.0 0 0 -33.1335877476832,37.593943649370615 z"/><path fill="#5d129a" d="M 53.7089871747535,98.11359142574483 l -25.358699389637916 -1.0333942819778275 a 71.70918009010438 71.70918009010438 0.0 0 1 59.751815730603965,-67.7954470439432 l 4.2109754664334815 25.02796883682617 a 46.32943347048568 46.32943347048568 0.0 0 0 -38.604091807399534,43.800872489094864 z"/><path fill="#041e3d" d="M 28.350287785115583,97.080197143767 l -0.8513061697849382 -0.03469164228618438 a 72.56119282754345 72.56119282754345 0.0 0 1 60.461757024363266,-68.6009587559616 l 0.14136487602564785 0.8402033543045917 a 71.70918009010438 71.70918009010438 0.0 0 0 -59.75181573060397,67.7954470439432 z"/><path fill="#1824ff" d="M 27.49898161533065,97.0455055014808 l -7.123664046083499 -0.290296973785722 a 79.69076937699236 79.69076937699236 0.0 0 1 66.40249074471288,-75.34141832887205 l 1.182930325733878 7.030756546696168 a 72.56119282754345 72.56119282754345 0.0 0 0 -60.46175702436326,68.60095875596161 z"/><path fill="#0016c3" d="M 20.375317569247144,96.75520852769507 l -13.192722376031632 -0.5376176300541212 a 92.89444145740964 92.89444145740964 0.0 0 1 77.40447654520713,-87.82446234344235 l 2.190736575537386 13.020661644624411 a 79.69076937699236 79.69076937699236 0.0 0 0 -66.40249074471289,75.34141832887205 z"/><path fill="#585be4" d="M 7.182595193215519,96.21759089764095 l -7.099665957174544 -0.2893190258446284 a 100.0 100.0 0.0 0 1 83.325197213975,-94.54221476072733 l 1.1789452884066804 7.007071443129618 a 92.89444145740964 92.89444145740964 0.0 0 0 -77.40447654520713,87.82446234344235 z"/><path fill="#001795" d="M 100.0,100.0 l -1.5145559383881875 -9.001776222580213 a 9.128299669265761 9.128299669265761 0.0 0 1 0.851192870162773,-0.1023878956478832 l 0.6633630682254145 9.104164118228097 z"/><path fill="#001c8b" d="M 98.48544406161182,90.99822377741978 l -1.038647092716818 -6.173207912558431 a 15.38827440682526 15.38827440682526 0.0 0 1 1.4349210623857083,-0.17260312339129857 l 0.45491890049388284 6.2434231403018465 a 9.128299669265761 9.128299669265761 0.0 0 0 -0.851192870162773,0.1023878956478832 z"/><path fill="#9fa9d4" d="M 97.446796968895,84.82501586486136 l -1.7604441136972837 -10.4632147035297 a 25.998553640173057 25.998553640173057 0.0 0 1 2.424305105535578,-0.29161369516257984 l 0.771060070547414 10.58222527530098 a 15.38827440682526 15.38827440682526 0.0 0 0 -1.4349210623857083,0.17260312339129946 z"/><path fill="#bcb7ff" d="M 95.68635285519773,74.36180116133166 l -0.5333384380823907 -3.1699015855613895 a 29.213009418633973 29.213009418633973 0.0 0 1 2.7240456858423086,-0.3276687519348669 l 0.2335978577756599 3.2059566423336747 a 25.998553640173057 25.998553640173057 0.0 0 0 -2.4243051055355775,0.2916136951625816 z"/><path fill="#461be6" d="M 95.15301441711533,71.19189957577026 l -1.7506381437671041 -10.404932837063436 a 39.76418761133896 39.76418761133896 0.0 0 1 3.707918693395513,-0.4460164147963557 l 0.7667651362139005 10.523280499924926 a 29.213009418633973 29.213009418633973 0.0 0 0 -2.724045685842309,0.32766875193486555 z"/><path fill="#3766c0" d="M 93.40237627334822,60.78696673870683 l -1.089297291195188 -6.474247802056853 a 46.32943347048568 46.32943347048568 0.0 0 1 4.320112712944047,-0.5196557268570938 l 0.4771032716466541 6.547887114117593 a 39.76418761133896 39.76418761133896 0.0 0 0 -3.707918693395513,0.4460164147963539 z"/><path fill="#3166b9" d="M 92.31307898215304,54.31271893664997 l -4.210975466433487 -25.027968836826172 a 71.70918009010438 71.70918009010438 0.0 0 1 6.686715492418181,-0.8043285512176332 l 1.8443726869593515 25.31264166118671 a 46.32943347048568 46.32943347048568 0.0 0 0 -4.320112712944046,0.5196557268570956 z"/><path fill="#066cff" d="M 88.10210351571956,29.284750099823796 l -0.14136487602564782 -0.8402033543045802 a 72.56119282754345 72.56119282754345 0.0 0 1 6.766163713190093,-0.8138851821798427 l 0.0619166552537358 0.8497599852667861 a 71.70918009010438 71.70918009010438 0.0 0 0 -6.686715492418181,0.8043285512176368 z"/><path fill="#1d0060" d="M 87.96073863969391,28.44454674551922 l -1.18293032573388 -7.030756546696167 a 79.69076937699236 79.69076937699236 0.0 0 1 7.430980266770521,-0.893854329360253 l 0.5181137721534519 7.110725693876589 a 72.56119282754345 72.56119282754345 0.0 0 0 -6.766163713190093,0.8138851821798312 z"/><path fill="#c6c6ff" d="M 86.77780831396004,21.41379019882305 l -2.1907365755373833 -13.020661644624418 a 92.89444145740964 92.89444145740964 0.0 0 1 8.662192205688216,-1.0419537835981956 l 0.9595246366196886 13.168761098862362 a 79.69076937699236 79.69076937699236 0.0 0 0 -7.430980266770521,0.8938543293602521 z"/><path fill="#3172ff" d="M 84.58707173842267,8.393128554198626 l -1.178945288406682 -7.007071443129612 a 100.0 100.0 0.0 0 1 9.324769135578116,-1.1216535319564036 l 0.5163683585167806 7.086771191487813 a 92.89444145740964 92.89444145740964 0.0 0 0 -8.662192205688214,1.0419537835982027 z"/><path fill="#030b27" d="M 100.0,100.0 l -0.6633630682254168 -9.104164118228097 a 9.128299669265761 9.128299669265761 0.0 0 1 2.2130213894564443,0.10836432391537265 l -1.5496583212310275 8.995799794312724 z"/><path fill="#b6a7f2" d="M 99.33663693177459,90.8958358817719 l -0.4549189004938843 -6.243423140301846 a 15.38827440682526 15.38827440682526 0.0 0 1 3.7306597770654335,0.18267804659550446 l -1.062719487115105 6.169109417621714 a 9.128299669265761 9.128299669265761 0.0 0 0 -2.2130213894564443,-0.10836432391537265 z"/><path fill="#8903c3" d="M 98.8817180312807,84.65241274147006 l -0.7710600705474165 -10.582225275300981 a 25.998553640173057 25.998553640173057 0.0 0 1 6.302965216441185,0.30863531983734127 l -1.8012453688283356 10.456268002059145 a 15.38827440682526 15.38827440682526 0.0 0 0 -3.7306597770654335,-0.18267804659550535 z"/><path fill="#bc94fd" d="M 98.11065796073329,74.07018746616907 l -0.23359785777566072 -3.205956642333673 a 29.213009418633973 29.213009418633973 0.0 0 1 7.082262528200898,0.3467949267531356 l -0.5456994539840512 3.167797035417877 a 25.998553640173057 25.998553640173057 0.0 0 0 -6.302965216441186,-0.3086353198373395 z"/><path fill="#6b02cc" d="M 97.87706010295763,70.8642308238354 l -0.7667651362139032 -10.523280499924926 a 39.76418761133896 39.76418761133896 0.0 0 1 9.640239793456553,0.4720505967891171 l -1.7912121290417513 10.398024829888946 a 29.213009418633973 29.213009418633973 0.0 0 0 -7.082262528200898,-0.3467949267531374 z"/><path fill="#948afd" d="M 97.11029496674374,60.34095032391048 l -0.47710327164665584 -6.547887114117594 a 46.32943347048568 46.32943347048568 0.0 0 1 11.231886654289802,0.549988269153233 l -1.1145435891865958 6.469949441753478 a 39.76418761133896 39.76418761133896 0.0 0 0 -9.640239793456551,-0.4720505967891171 z"/><path fill="#11009e" d="M 96.63319169509708,53.793063209792884 l -1.844372686959358 -25.312641661186714 a 71.70918009010438 71.70918009010438 0.0 0 1 17.384831251114022,0.8512775763873357 l -4.308571909864861 25.01135235395261 a 46.32943347048568 46.32943347048568 0.0 0 0 -11.231886654289802,-0.5499882691532321 z"/><path fill="#7877fa" d="M 94.78881900813774,28.480421548606174 l -0.06191665525373559 -0.8497599852667839 a 72.56119282754345 72.56119282754345 0.0 0 1 17.59138915130987,0.8613920322668611 l -0.14464124494211106 0.8396455293872549 a 71.70918009010438 71.70918009010438 0.0 0 0 -17.384831251114022,-0.8512775763873321 z"/><path fill="#45007e" d="M 94.726902352884,27.630661563339387 l -0.5181137721534541 -7.110725693876596 a 79.69076937699236 79.69076937699236 0.0 0 1 19.319849650346775,0.9460290151197839 l -1.2103467268834507 7.026088711023675 a 72.56119282754345 72.56119282754345 0.0 0 0 -17.59138915130987,-0.8613920322668633 z"/><path fill="#3f68dc" d="M 94.20878858073054,20.5199358694628 l -0.9595246366196912 -13.16876109886236 a 92.89444145740964 92.89444145740964 0.0 0 1 22.5208848696126,1.1027731021935363 l -2.2415105826461357 13.0120170117886 a 79.69076937699236 79.69076937699236 0.0 0 0 -19.319849650346775,-0.9460290151197768 z"/><path fill="#18006d" d="M 93.24926394411087,7.351174770600437 l -0.5163683585167838 -7.086771191487807 a 100.0 100.0 0.0 0 1 24.243522557738835,1.1871249612918229 l -1.2062693296094515 7.002419332389522 a 92.89444145740964 92.89444145740964 0.0 0 0 -22.5208848696126,-1.102773102193538 z"/><path fill="#005ac4" d="M 100.0,100.0 l 1.5496583212310255 -8.995799794312724 a 9.128299669265761 9.128299669265761 0.0 0 1 2.7896444763216843,0.964840568724 l -4.33930279755271 8.030959225588724 z"/><path fill="#6403f6" d="M 101.54965832123104,91.00420020568728 l 1.062719487115104 -6.169109417621715 a 15.38827440682526 15.38827440682526 0.0 0 1 4.702717510869728,1.6265056985751345 l -2.9757925216631476 5.50744428777058 a 9.128299669265761 9.128299669265761 0.0 0 0 -2.7896444763216843,-0.964840568724 z"/><path fill="#8836ff" d="M 102.61237780834614,84.83509078806556 l 1.8012453688283332 -10.456268002059147 a 25.998553640173057 25.998553640173057 0.0 0 1 7.945260802387255,2.747988145551723 l -5.043788660345859 9.33478555508256 a 15.38827440682526 15.38827440682526 0.0 0 0 -4.702717510869729,-1.6265056985751354 z"/><path fill="#8d66ff" d="M 104.41362317717447,74.37882278600642 l 0.5456994539840503 -3.167797035417876 a 29.213009418633973 29.213009418633973 0.0 0 1 8.927611199685845,3.087748829775385 l -1.528049851282642 2.828036351194214 a 25.998553640173057 25.998553640173057 0.0 0 0 -7.945260802387255,-2.747988145551723 z"/><path fill="#a269ff" d="M 104.95932263115853,71.21102575058853 l 1.7912121290417489 -10.398024829888945 a 39.76418761133896 39.76418761133896 0.0 0 1 12.15209297947089,4.202984430818775 l -5.015693908826794 9.282789228845555 a 29.213009418633973 29.213009418633973 0.0 0 0 -8.927611199685845,-3.0877488297753857 z"/><path fill="#3100f4" d="M 106.75053476020028,60.813000920699594 l 1.1145435891865927 -6.469949441753485 a 46.32943347048568 46.32943347048568 0.0 0 1 14.158458075955023,4.8969160257552815 l -3.1209086856707238 5.776017846816977 a 39.76418761133896 39.76418761133896 0.0 0 0 -12.152092979470892,-4.202984430818773 z"/><path fill="#001b2e" d="M 107.86507834938688,54.343051478946116 l 4.308571909864855 -25.011352353952603 a 71.70918009010438 71.70918009010438 0.0 0 1 21.914609005820157,7.5794976729147265 l -12.064722839729992 22.328770706793158 a 46.32943347048568 46.32943347048568 0.0 0 0 -14.158458075955021,-4.8969160257552815 z"/><path fill="#0981ff" d="M 112.17365025925173,29.331699124993506 l 0.1446412449421129 -0.839645529387259 a 72.56119282754345 72.56119282754345 0.0 0 1 22.174987467622323,7.669553486585987 l -0.4050197067442767 0.7495897157159988 a 71.70918009010438 71.70918009010438 0.0 0 0 -21.91460900582016,-7.5794976729147265 z"/><path fill="#001353" d="M 112.31829150419385,28.49205359560625 l 1.2103467268834496 -7.02608871102368 a 79.69076937699236 79.69076937699236 0.0 0 1 24.353814254679648,8.423133555379327 l -3.3891735139407757 6.272508642230335 a 72.56119282754345 72.56119282754345 0.0 0 0 -22.174987467622323,-7.669553486585983 z"/><path fill="#0e055e" d="M 113.52863823107731,21.465964884582576 l 2.241510582646133 -13.012017011788608 a 92.89444145740964 92.89444145740964 0.0 0 1 28.388908655700956,9.818731743529064 l -6.27660498366744 11.616418823638881 a 79.69076937699236 79.69076937699236 0.0 0 0 -24.353814254679648,-8.423133555379337 z"/><path fill="#051c92" d="M 115.77014881372344,8.453947872793975 l 1.206269329609447 -7.002419332389514 a 100.0 100.0 0.0 0 1 30.560395444884325,10.569773163479063 l -3.377756118792817 6.251377912439509 a 92.89444145740964 92.89444145740964 0.0 0 0 -28.388908655700956,-9.818731743529057 z"/></g></svg>