<?xml version='1.0' encoding='UTF-8'?>
<svg xmlns="http://www.w3.org/2000/svg" xmlns:svg="http://www.w3.org/2000/svg"><g><circle fill="#071ee3" r="3.643762112194053" cx="100.0" cy="100.0"/><path fill="#001698" d="M 107.1216870329318,100.0 a 7.121687032931801 7.121687032931801 0.0 1 1 -7.121687032931801,-7.121687032931801 a 7.121687032931801 7.121687032931801 0.0 0 1 7.121687032931801,7.121687032931801 z M 103.64376211219405,100.0 a 3.643762112194053 3.643762112194053 0.0 1 0 -3.643762112194053,3.643762112194053 a 3.643762112194053 3.643762112194053 0.0 0 0 3.643762112194053,-3.643762112194053 z"/><path fill="#9190fa" d="M 110.90893884395837,100.0 a 10.908938843958367 10.908938843958367 0.0 1 1 -10.908938843958367,-10.908938843958367 a 10.908938843958367 10.908938843958367 0.0 0 1 10.908938843958367,10.908938843958367 z M 107.1216870329318,100.0 a 7.121687032931801 7.121687032931801 0.0 1 0 -7.121687032931801,7.121687032931801 a 7.121687032931801 7.121687032931801 0.0 0 0 7.121687032931801,-7.121687032931801 z"/><path fill="#081d6f" d="M 111.5898780554996,100.0 a 11.589878055499602 11.589878055499602 0.0 1 1 -11.589878055499602,-11.589878055499602 a 11.589878055499602 11.589878055499602 0.0 0 1 11.589878055499602,11.589878055499602 z M 110.90893884395837,100.0 a 10.908938843958367 10.908938843958367 0.0 1 0 -10.908938843958367,10.908938843958367 a 10.908938843958367 10.908938843958367 0.0 0 0 10.908938843958367,-10.908938843958367 z"/><path fill="#eecef8" d="M 120.43109522853491,100.0 a 20.431095228534918 20.431095228534918 0.0 1 1 -20.431095228534918,-20.431095228534918 a 20.431095228534918 20.431095228534918 0.0 0 1 20.431095228534918,20.431095228534918 z M 111.5898780554996,100.0 a 11.589878055499602 11.589878055499602 0.0 1 0 -11.589878055499602,11.589878055499602 a 11.589878055499602 11.589878055499602 0.0 0 0 11.589878055499602,-11.589878055499602 z"/><path fill="#4b0850" d="M 122.97209719241783,100.0 a 22.972097192417827 22.972097192417827 0.0 1 1 -22.972097192417827,-22.972097192417827 a 22.972097192417827 22.972097192417827 0.0 0 1 22.972097192417827,22.972097192417827 z M 120.43109522853493,100.0 a 20.431095228534918 20.431095228534918 0.0 1 0 -20.431095228534918,20.431095228534918 a 20.431095228534918 20.431095228534918 0.0 0 0 20.431095228534918,-20.431095228534918 z"/><path fill="#1c50f3" d="M 133.6744513617409,100.0 a 33.674451361740886 33.674451361740886 0.0 1 1 -33.674451361740886,-33.674451361740886 a 33.674451361740886 33.674451361740886 0.0 0 1 33.674451361740886,33.674451361740886 z M 122.97209719241783,100.0 a 22.972097192417827 22.972097192417827 0.0 1 0 -22.972097192417827,22.972097192417827 a 22.972097192417827 22.972097192417827 0.0 0 0 22.972097192417827,-22.972097192417827 z"/><path fill="#bdbeff" d="M 136.56938064897344,100.0 a 36.56938064897344 36.56938064897344 0.0 1 1 -36.56938064897344,-36.56938064897344 a 36.56938064897344 36.56938064897344 0.0 0 1 36.56938064897344,36.56938064897344 z M 133.67445136174086,100.0 a 33.674451361740886 33.674451361740886 0.0 1 0 -33.674451361740886,33.674451361740886 a 33.674451361740886 33.674451361740886 0.0 0 0 33.674451361740886,-33.674451361740886 z"/><path fill="#759bff" d="M 136.59467579521157,100.0 a 36.59467579521158 36.59467579521158 0.0 1 1 -36.59467579521158,-36.59467579521158 a 36.59467579521158 36.59467579521158 0.0 0 1 36.59467579521158,36.59467579521158 z M 136.56938064897344,100.0 a 36.56938064897344 36.56938064897344 0.0 1 0 -36.56938064897344,36.56938064897344 a 36.56938064897344 36.56938064897344 0.0 0 0 36.56938064897344,-36.56938064897344 z"/><path fill="#709bff" d="M 147.85297830060836,100.0 a 47.85297830060836 47.85297830060836 0.0 1 1 -47.85297830060836,-47.85297830060836 a 47.85297830060836 47.85297830060836 0.0 0 1 47.85297830060836,47.85297830060836 z M 136.59467579521157,100.0 a 36.59467579521158 36.59467579521158 0.0 1 0 -36.59467579521158,36.59467579521158 a 36.59467579521158 36.59467579521158 0.0 0 0 36.59467579521158,-36.59467579521158 z"/><path fill="#071ee3" d="M 150.94494130156295,100.0 a 50.94494130156295 50.94494130156295 0.0 1 1 -50.94494130156295,-50.94494130156295 a 50.94494130156295 50.94494130156295 0.0 0 1 50.94494130156295,50.94494130156295 z M 147.85297830060836,100.0 a 47.85297830060836 47.85297830060836 0.0 1 0 -47.85297830060836,47.85297830060836 a 47.85297830060836 47.85297830060836 0.0 0 0 47.85297830060836,-47.85297830060836 z"/><path fill="#001698" d="M 160.7967997344894,100.0 a 60.796799734489404 60.796799734489404 0.0 1 1 -60.796799734489404,-60.796799734489404 a 60.796799734489404 60.796799734489404 0.0 0 1 60.796799734489404,60.796799734489404 z M 150.94494130156295,100.0 a 50.94494130156295 50.94494130156295 0.0 1 0 -50.94494130156295,50.94494130156295 a 50.94494130156295 50.94494130156295 0.0 0 0 50.94494130156295,-50.94494130156295 z"/><path fill="#9190fa" d="M 161.31781194473746,100.0 a 61.31781194473746 61.31781194473746 0.0 1 1 -61.31781194473746,-61.31781194473746 a 61.31781194473746 61.31781194473746 0.0 0 1 61.31781194473746,61.31781194473746 z M 160.7967997344894,100.0 a 60.796799734489404 60.796799734489404 0.0 1 0 -60.796799734489404,60.796799734489404 a 60.796799734489404 60.796799734489404 0.0 0 0 60.796799734489404,-60.796799734489404 z"/><path fill="#081d6f" d="M 163.8030417401766,100.0 a 63.80304174017661 63.80304174017661 0.0 1 1 -63.80304174017661,-63.80304174017661 a 63.80304174017661 63.80304174017661 0.0 0 1 63.80304174017661,63.80304174017661 z M 161.31781194473746,100.0 a 61.31781194473746 61.31781194473746 0.0 1 0 -61.31781194473746,61.31781194473746 a 61.31781194473746 61.31781194473746 0.0 0 0 61.31781194473746,-61.31781194473746 z"/><path fill="#eecef8" d="M 169.4985491585239,100.0 a 69.4985491585239 69.4985491585239 0.0 1 1 -69.4985491585239,-69.4985491585239 a 69.4985491585239 69.4985491585239 0.0 0 1 69.4985491585239,69.4985491585239 z M 163.8030417401766,100.0 a 63.80304174017661 63.80304174017661 0.0 1 0 -63.80304174017661,63.80304174017661 a 63.80304174017661 63.80304174017661 0.0 0 0 63.80304174017661,-63.80304174017661 z"/><path fill="#4b0850" d="M 175.40798637468242,100.0 a 75.40798637468242 75.40798637468242 0.0 1 1 -75.40798637468242,-75.40798637468242 a 75.40798637468242 75.40798637468242 0.0 0 1 75.40798637468242,75.40798637468242 z M 169.4985491585239,100.0 a 69.4985491585239 69.4985491585239 0.0 1 0 -69.4985491585239,69.4985491585239 a 69.4985491585239 69.4985491585239 0.0 0 0 69.4985491585239,-69.4985491585239 z"/><path fill="#1c50f3" d="M 176.1972182711056,100.0 a 76.1972182711056 76.1972182711056 0.0 1 1 -76.1972182711056,-76.1972182711056 a 76.1972182711056 76.1972182711056 0.0 0 1 76.1972182711056,76.1972182711056 z M 175.40798637468242,100.0 a 75.40798637468242 75.40798637468242 0.0 1 0 -75.40798637468242,75.40798637468242 a 75.40798637468242 75.40798637468242 0.0 0 0 75.40798637468242,-75.40798637468242 z"/><path fill="#bdbeff" d="M 182.58088171031795,100.0 a 82.58088171031794 82.58088171031794 0.0 1 1 -82.58088171031794,-82.58088171031794 a 82.58088171031794 82.58088171031794 0.0 0 1 82.58088171031794,82.58088171031794 z M 176.1972182711056,100.0 a 76.1972182711056 76.1972182711056 0.0 1 0 -76.1972182711056,76.1972182711056 a 76.1972182711056 76.1972182711056 0.0 0 0 76.1972182711056,-76.1972182711056 z"/><path fill="#759bff" d="M 189.72262352877542,100.0 a 89.72262352877542 89.72262352877542 0.0 1 1 -89.72262352877542,-89.72262352877542 a 89.72262352877542 89.72262352877542 0.0 0 1 89.72262352877542,89.72262352877542 z M 182.58088171031795,100.0 a 82.58088171031794 82.58088171031794 0.0 1 0 -82.58088171031794,82.58088171031794 a 82.58088171031794 82.58088171031794 0.0 0 0 82.58088171031794,-82.58088171031794 z"/><path fill="#709bff" d="M 196.10538186205315,100.0 a 96.10538186205315 96.10538186205315 0.0 1 1 -96.10538186205315,-96.10538186205315 a 96.10538186205315 96.10538186205315 0.0 0 1 96.10538186205315,96.10538186205315 z M 189.72262352877542,100.0 a 89.72262352877542 89.72262352877542 0.0 1 0 -89.72262352877542,89.72262352877542 a 89.72262352877542 89.72262352877542 0.0 0 0 89.72262352877542,-89.72262352877542 z"/><path fill="#071ee3" d="M 199.99999999999997,100.0 a 99.99999999999997 99.99999999999997 0.0 1 1 -99.99999999999997,-99.99999999999997 a 99.99999999999997 99.99999999999997 0.0 0 1 99.99999999999997,99.99999999999997 z M 196.10538186205315,100.0 a 96.10538186205315 96.10538186205315 0.0 1 0 -96.10538186205315,96.10538186205315 a 96.10538186205315 96.10538186205315 0.0 0 0 96.10538186205315,-96.10538186205315 z"/></g></svg>