<svg viewBox="-371.36080098203547 -369.6844817325821 745.145631364765 744.0319027729333" preserveAspectRatio="xMidYMid meet" xmlns="http://www.w3.org/2000/svg" xmlns:svg="http://www.w3.org/2000/svg" style="width: 100%; height: 100%;"><g><path fill="#0d6eff" d="M 100.0,100.0 l -2.4126892291145348 1.8766990237567627 a 3.056643345576136 3.056643345576136 0.0 0 1 -0.6316142028237848,-1.6023176170553535 l 3.0443034319383195 -0.27438140670140915 z"></path><path fill="#14d1ff" d="M 100.0,100.0 l -3.0443034319383195 0.27438140670140915 a 3.056643345576136 3.056643345576136 0.0 0 1 0.334930626796452,-1.689431774996673 l 2.7093728051418675 1.4150503682952638 z"></path><path fill="#1b2df2" d="M 100.0,100.0 l -2.7093728051418675 -1.4150503682952638 a 3.056643345576136 3.056643345576136 0.0 0 1 1.1951373489155388,-1.240163281331055 l 1.5142354562263287 2.655213649626319 z"></path><path fill="#160cda" d="M 100.0,100.0 l -1.5142354562263287 -2.655213649626319 a 3.056643345576136 3.056643345576136 0.0 0 1 1.675896407190927,-0.3971517084178484 l -0.16166095096459826 3.052365358044167 z"></path><path fill="#2a94ef" d="M 100.0,100.0 l 0.16166095096459826 -3.052365358044167 a 3.056643345576136 3.056643345576136 0.0 0 1 1.6245701975013638,0.5719527257781474 l -1.786231148465962 2.48041263226602 z"></path><path fill="#2c00a4" d="M 100.0,100.0 l 1.786231148465962 -2.48041263226602 a 3.056643345576136 3.056643345576136 0.0 0 1 1.0574544287696175,1.359466210764429 l -2.8436855772355796 1.1209464215015907 z"></path><path fill="#0a053f" d="M 100.0,100.0 l 2.8436855772355805 -1.1209464215015883 a 3.056643345576136 3.056643345576136 0.0 0 1 0.1546043505194734,1.7153587793622465 l -2.998289927755054 -0.594412357860658 z"></path><path fill="#0641c0" d="M 100.0,100.0 l 2.998289927755054 0.594412357860658 a 3.056643345576136 3.056643345576136 0.0 0 1 -0.797331516638466,1.526637055658513 l -2.200958411116588 -2.121049413519171 z"></path><path fill="#0e36d6" d="M 100.0,100.0 l 2.200958411116588 2.121049413519171 a 3.056643345576136 3.056643345576136 0.0 0 1 -1.4961202609389748,0.8532188534851812 l -0.7048381501776132 -2.9742682670043523 z"></path><path fill="#0600d1" d="M 100.0,100.0 l 0.7048381501776132 2.9742682670043523 a 3.056643345576136 3.056643345576136 0.0 0 1 -1.7199013934719773,-0.09109030611334967 l 1.015063243294364 -2.8831779608910026 z"></path><path fill="#0d6eff" d="M 100.0,100.0 l -1.015063243294364 2.8831779608910026 a 3.056643345576136 3.056643345576136 0.0 0 1 -1.3976259858201707,-1.00647893713424 l 2.4126892291145348 -1.8766990237567627 z"></path><path fill="#0d6eff" d="M 103.04486833529677,100.26803985293594 l 6.005717243663538 0.5286834731425406 a 9.085585692755417 9.085585692755417 0.0 0 1 -1.867489636766022,4.766638972534994 l -4.766502983322049 -3.6916927195520532 a 3.056643345576136 3.056643345576136 0.0 0 0 0.6282753764245324,-1.603629726125481 z"></path><path fill="#14d1ff" d="M 102.41659295887224,101.87166957906143 l 4.766502983322049 3.6916927195520532 a 9.085585692755417 9.085585692755417 0.0 0 1 -4.14807184508207,3.000310751564819 l -2.0139577042765353 -5.682615611758093 a 3.056643345576136 3.056643345576136 0.0 0 0 1.3955265660365563,-1.009387859358779 z"></path><path fill="#1b2df2" d="M 101.02106639283569,102.8810574384202 l 2.013957704276535 5.682615611758093 a 9.085585692755417 9.085585692755417 0.0 0 1 -5.111670551459655,0.28140506615556404 l 1.3780049159316192 -5.869348198674187 a 3.056643345576136 3.056643345576136 0.0 0 0 1.7197079312515005,-0.09467247923946998 z"></path><path fill="#160cda" d="M 99.30135846158419,102.97572991765968 l -1.378004915931619 5.869348198674187 a 9.085585692755417 9.085585692755417 0.0 0 1 -4.452349975087056,-2.5268447394449054 l 4.332460711848967 -4.192604203343881 a 3.056643345576136 3.056643345576136 0.0 0 0 1.4978941791697087,0.8501007441145991 z"></path><path fill="#2a94ef" d="M 97.80346428241448,102.12562917354508 l -4.332460711848967 4.19260420334388 a 9.085585692755417 9.085585692755417 0.0 0 1 -2.3794397404259273,-4.532839194103375 l 5.911390843458847 -1.1847379969776153 a 3.056643345576136 3.056643345576136 0.0 0 0 0.8005096088160477,1.5249729877371108 z"></path><path fill="#2c00a4" d="M 97.00295467359842,100.60065618580796 l -5.911390843458846 1.1847379969776153 a 9.085585692755417 9.085585692755417 0.0 0 1 0.4489257995025975,-5.099689232145318 l 5.613496150162337 2.1992741524703674 a 3.056643345576136 3.056643345576136 0.0 0 0 -0.15103110620608895,1.7156770826973347 z"></path><path fill="#0a053f" d="M 97.15398577980451,98.88497910311062 l -5.613496150162336 -2.199274152470367 a 9.085585692755417 9.085585692755417 0.0 0 1 3.1347605700471877,-4.0474239716634 l 3.533356092257748 4.885032297837618 a 3.056643345576136 3.056643345576136 0.0 0 0 -1.0546205121425993,1.361665826296148 z"></path><path fill="#0641c0" d="M 98.20860629194712,97.52331327681448 l -3.5333560922577476 -4.885032297837618 a 9.085585692755417 9.085585692755417 0.0 0 1 4.8253310087615535,-1.7101301979095496 l 0.33140044056248263 6.019827204630262 a 3.056643345576136 3.056643345576136 0.0 0 0 -1.623375357066288,0.5753352911169052 z"></path><path fill="#0e36d6" d="M 99.8319816490134,96.94797798569758 l -0.3314004405624826 -6.019827204630263 a 9.085585692755417 9.085585692755417 0.0 0 1 4.983892946353826,1.1701178304779907 l -2.9757725094477503 5.24336950801931 a 3.056643345576136 3.056643345576136 0.0 0 0 -1.6767199963435933,-0.39366013386703713 z"></path><path fill="#0600d1" d="M 101.508701645357,97.34163811956462 l 2.9757725094477507 -5.243369508019311 a 9.085585692755417 9.085585692755417 0.0 0 1 3.5601040879835697,3.678861715346286 l -5.338158713512143 2.802179040490812 a 3.056643345576136 3.056643345576136 0.0 0 0 -1.197717883919178,-1.2376712478177874 z"></path><path fill="#0d6eff" d="M 102.70641952927618,98.57930936738241 l 5.338158713512143 -2.802179040490812 a 9.085585692755417 9.085585692755417 0.0 0 1 1.0060073361719928,5.019592999186903 l -6.005717243663538 -0.5286834731425458 a 3.056643345576136 3.056643345576136 0.0 0 0 -0.3384488060205979,-1.688730485553546 z"></path><path fill="#0d6eff" d="M 103.59678911559249,108.34331920990425 l 5.730696868209179 13.2932545473386 a 23.56147955308891 23.56147955308891 0.0 0 1 -13.17832037054931,1.6080900014882804 l 2.365907019152931 -14.281245990191605 a 9.085585692755417 9.085585692755417 0.0 0 0 5.0817164831872,-0.6200985586352754 z"></path><path fill="#14d1ff" d="M 98.51507263240529,108.96341776853953 l -2.365907019152931 14.281245990191604 a 23.56147955308891 23.56147955308891 0.0 0 1 -11.955707661452504,-5.7719265029630105 l 9.711352144634152 -10.735042737621054 a 9.085585692755417 9.085585692755417 0.0 0 0 4.610262535971282,2.22572325039246 z"></path><path fill="#1b2df2" d="M 93.904810096434,106.73769451814707 l -9.711352144634152 10.735042737621054 a 23.56147955308891 23.56147955308891 0.0 0 1 -6.937242244838192,-11.31939712520739 l 13.973511581329369 -3.7805392660432515 a 9.085585692755417 9.085585692755417 0.0 0 0 2.6750828081429754,4.364893653629587 z"></path><path fill="#160cda" d="M 91.22972728829103,102.37280086451749 l -13.973511581329369 3.780539266043252 a 23.56147955308891 23.56147955308891 0.0 0 1 0.2837485683008172,-13.273039139236655 l 13.799179823067366 4.374258710489277 a 9.085585692755417 9.085585692755417 0.0 0 0 -0.1094168100388142,5.118241162704125 z"></path><path fill="#2a94ef" d="M 91.33914409832984,97.25455970181336 l -13.799179823067366 -4.374258710489279 a 23.56147955308891 23.56147955308891 0.0 0 1 7.414651215875896,-11.012585009371369 l 9.243705971326985 11.140260453476598 a 9.085585692755417 9.085585692755417 0.0 0 0 -2.8591773641355163,4.24658326638405 z"></path><path fill="#2c00a4" d="M 94.19832146246536,93.00797643542931 l -9.243705971326987 -11.140260453476598 a 23.56147955308891 23.56147955308891 0.0 0 1 12.191454491832403,-5.2557129502380935 l 1.7534207865956644 14.369308215804097 a 9.085585692755417 9.085585692755417 0.0 0 0 -4.701169307101081,2.026665187910595 z"></path><path fill="#0a053f" d="M 98.89949076956644,90.98131124751872 l -1.7534207865956637 -14.369308215804097 a 23.56147955308891 23.56147955308891 0.0 0 1 13.097557107333277,2.1698108355026005 l -6.293563108800527 13.03620214829403 a 9.085585692755417 9.085585692755417 0.0 0 0 -5.0505732119370865,-0.8367047679925346 z"></path><path fill="#0641c0" d="M 103.95006398150353,91.81801601551125 l 6.293563108800526 -13.03620214829403 a 23.56147955308891 23.56147955308891 0.0 0 1 9.845277884172152,8.906435012122005 l -12.342385185344547 7.5641940081034615 a 9.085585692755417 9.085585692755417 0.0 0 0 -3.7964558076281305,-3.4344268719314357 z"></path><path fill="#0e36d6" d="M 107.74651978913165,95.25244288744268 l 12.342385185344547 -7.564194008103461 a 23.56147955308891 23.56147955308891 0.0 0 1 3.467192496195704,12.815329002255318 l -14.47258717266812 -0.30939228361906856 a 9.085585692755417 9.085585692755417 0.0 0 0 -1.3369905088721303,-4.94174271053279 z"></path><path fill="#0600d1" d="M 109.08351029800379,100.19418559797548 l 14.47258717266812 0.30939228361905546 a 23.56147955308891 23.56147955308891 0.0 0 1 -4.011702011311328,12.6554465829603 l -12.007844991084037 -8.084748711353921 a 9.085585692755417 9.085585692755417 0.0 0 0 1.5469598297272444,-4.880090155225434 z"></path><path fill="#0d6eff" d="M 107.53655046827654,105.07427575320091 l 12.007844991084035 8.084748711353921 a 23.56147955308891 23.56147955308891 0.0 0 1 -10.216909475558912,8.477549292688035 l -5.730696868209179 -13.2932545473386 a 9.085585692755417 9.085585692755417 0.0 0 0 3.939761352684057,-3.269043456703356 z"></path><path fill="#0d6eff" d="M 76.52825981356773,102.05444185881383 l -44.14175571042802 3.8636534800030975 a 67.8720021793528 67.8720021793528 0.0 0 1 7.533839704801899,-37.494092420114775 l 39.22325671256255 20.61452275152306 a 23.56147955308891 23.56147955308891 0.0 0 0 -2.615340706936429,13.015916188588617 z"></path><path fill="#14d1ff" d="M 79.14360052050415,89.03852567022521 l -39.223256712562545 -20.61452275152306 a 67.8720021793528 67.8720021793528 0.0 0 1 26.60870604321493,-27.46893645213673 l 21.851650846747155 38.5477336646981 a 23.56147955308891 23.56147955308891 0.0 0 0 -9.237100177399542,9.535725538961694 z"></path><path fill="#1b2df2" d="M 88.3807006979037,79.50280013126351 l -21.851650846747155 -38.5477336646981 a 67.8720021793528 67.8720021793528 0.0 0 1 37.23549622104002,-8.722587246835815 l -2.4576997665235076 44.242311504602405 a 23.56147955308891 23.56147955308891 0.0 0 0 -12.926145607769364,3.0280094069315098 z"></path><path fill="#160cda" d="M 101.30684630567306,76.47479072433201 l 2.4576997665235076 -44.24231150460241 a 67.8720021793528 67.8720021793528 0.0 0 1 36.04027944212912,12.793121778479037 l -25.986748069199695 35.8902680430307 a 23.56147955308891 23.56147955308891 0.0 0 0 -12.511231139452928,-4.441078316907323 z"></path><path fill="#2a94ef" d="M 113.818077445126,80.91586904123933 l 25.9867480691997 -35.890268043030694 a 67.8720021793528 67.8720021793528 0.0 0 1 23.402528588788194,30.24710503100585 l -41.26518747349274 16.143318066312837 a 23.56147955308891 23.56147955308891 0.0 0 0 -8.124089184495155,-10.500155054287992 z"></path><path fill="#2c00a4" d="M 121.94216662962114,91.41602409552732 l 41.26518747349274 -16.143318066312837 a 67.8720021793528 67.8720021793528 0.0 0 1 3.334640262872476,38.09784615201999 l -43.44222142083386 -8.729021333224527 a 23.56147955308891 23.56147955308891 0.0 0 0 -1.1576063155313534,-13.225506752482627 z"></path><path fill="#0a053f" d="M 123.09977294515251,104.64153084800992 l 43.44222142083385 8.729021333224528 a 67.8720021793528 67.8720021793528 0.0 0 1 -17.79197278506309,33.852790306285286 l -31.826657015129044 -30.829958135780554 a 23.56147955308891 23.56147955308891 0.0 0 0 6.176408379358282,-11.751853503729262 z"></path><path fill="#0641c0" d="M 116.92336456579423,116.39338435173919 l 31.826657015129044 30.829958135780558 a 67.8720021793528 67.8720021793528 0.0 0 1 -33.26976018581356,18.85971273069142 l -10.106353883533366 -43.142601064301104 a 23.56147955308891 23.56147955308891 0.0 0 0 11.54945705421788,-6.547069802170874 z"></path><path fill="#0e36d6" d="M 105.37390751157636,122.94045415391008 l 10.106353883533366 43.142601064301104 a 67.8720021793528 67.8720021793528 0.0 0 1 -38.18463380046063,-2.1211903805345855 l 14.822645197999929 -41.7577729859586 a 23.56147955308891 23.56147955308891 0.0 0 0 13.255634718927336,0.7363623021920844 z"></path><path fill="#0600d1" d="M 92.11827279264901,122.204091851718 l -14.822645197999933 41.7577729859586 a 67.8720021793528 67.8720021793528 0.0 0 1 -30.976155983191227,-22.42863053355589 l 35.045559160974506 -27.115147030899173 a 23.56147955308891 23.56147955308891 0.0 0 0 10.753242020216652,7.7860045784964615 z"></path><path fill="#0d6eff" d="M 81.36503077243235,114.41808727322154 l -35.045559160974506 27.115147030899177 a 67.8720021793528 67.8720021793528 0.0 0 1 -13.932967508318143,-35.615138965303906 l 44.14175571042803 -3.863653480003018 a 23.56147955308891 23.56147955308891 0.0 0 0 4.836770958864623,12.363645414407749 z"></path><path fill="#0d6eff" d="M 155.54372731996796,60.993551363407605 l 17.556416990132703 -12.32926759889988 a 89.32517483648449 89.32517483648449 0.0 0 1 16.149793931465858,47.67028536790036 l -21.43510313010455 0.8803242916588445 a 67.8720021793528 67.8720021793528 0.0 0 0 -12.27110779149401,-36.221342060659325 z"></path><path fill="#14d1ff" d="M 167.81483511146192,97.21489342406689 l 21.435103130104554 -0.8803242916588412 a 89.32517483648449 89.32517483648449 0.0 0 1 -12.186430850302035,48.83403376966385 l -18.508295479469624 -10.848115758109657 a 67.8720021793528 67.8720021793528 0.0 0 0 9.259623199667104,-37.105593719895346 z"></path><path fill="#1b2df2" d="M 158.5552119117948,134.32048714396223 l 18.508295479469624 10.848115758109657 a 89.32517483648449 89.32517483648449 0.0 0 1 -36.65354994230478,34.493321494353495 l -9.705234787469852 -19.132355703801544 a 67.8720021793528 67.8720021793528 0.0 0 0 27.850489250305007,-26.209081548661608 z"></path><path fill="#160cda" d="M 130.70472266148982,160.52956869262383 l 9.705234787469854 19.13235570380155 a 89.32517483648449 89.32517483648449 0.0 0 1 -49.48342590923412,9.201223362749381 l 2.1791693756394537 -21.342207896302057 a 67.8720021793528 67.8720021793528 0.0 0 0 37.59902174612481,-6.991371170248875 z"></path><path fill="#2a94ef" d="M 93.10570091536506,167.52093986287272 l -2.179169375639455 21.342207896302057 a 89.32517483648449 89.32517483648449 0.0 0 1 -46.60266378316157,-19.01219817379014 l 13.371702659258276 -16.77605987856171 a 67.8720021793528 67.8720021793528 0.0 0 0 35.410130499542745,14.446050156049793 z"></path><path fill="#2c00a4" d="M 57.69557041582226,153.07488970682292 l -13.371702659258274 16.77605987856171 a 89.32517483648449 89.32517483648449 0.0 0 1 -28.925885184622594,-41.18938112392411 l 20.318814828498773 -6.883631383352938 a 67.8720021793528 67.8720021793528 0.0 0 0 21.978773015382096,31.29695262871534 z"></path><path fill="#0a053f" d="M 35.71679740044016,121.77793707810758 l -20.318814828498763 6.883631383352936 a 89.32517483648449 89.32517483648449 0.0 0 1 -2.065342420504404,-50.28922659747254 l 20.814846855576093 5.194301438655266 a 67.8720021793528 67.8720021793528 0.0 0 0 1.5693103934270738,38.21129377546434 z"></path><path fill="#0641c0" d="M 34.14748700701308,83.56664330264323 l -20.814846855576107 -5.194301438655271 a 89.32517483648449 89.32517483648449 0.0 0 1 25.450931969111856,-43.42259795301865 l 14.702312076688031 15.623080255070562 a 67.8720021793528 67.8720021793528 0.0 0 0 -19.33839719022378,32.99381913660336 z"></path><path fill="#0e36d6" d="M 53.48588419723687,50.57282416603987 l -14.702312076688035 -15.623080255070569 a 89.32517483648449 89.32517483648449 0.0 0 1 44.8867152862273,-22.769601267897578 l 3.921897095024562 21.09164147791111 a 67.8720021793528 67.8720021793528 0.0 0 0 -34.10630030456383,17.301040045057036 z"></path><path fill="#0600d1" d="M 87.5921845018007,33.27178412098284 l -3.9218970950245606 -21.091641477911118 a 89.32517483648449 89.32517483648449 0.0 0 1 50.07128365434011,5.112582937466435 l -8.103692503508483 19.863755557932222 a 67.8720021793528 67.8720021793528 0.0 0 0 -38.04569405580706,-3.8846970174875395 z"></path><path fill="#0d6eff" d="M 125.63787855760776,37.15648113847038 l 8.103692503508489 -19.863755557932215 a 89.32517483648449 89.32517483648449 0.0 0 1 39.358573248984406,31.371558183969576 l -17.556416990132714 12.329267598899861 a 67.8720021793528 67.8720021793528 0.0 0 0 -29.905848762360183,-23.83707022493722 z"></path><path fill="#0d6eff" d="M 127.74055755329755,184.90847028536498 l 0.7949274337973139 2.433118810316678 a 91.88485777976486 91.88485777976486 0.0 0 1 -51.75033555721043,1.5622792240648025 l 0.6467078305497864 -2.476640012602971 a 89.32517483648449 89.32517483648449 0.0 0 0 50.30870029286333,-1.5187580217785097 z"></path><path fill="#14d1ff" d="M 77.43185726043419,186.42722830714348 l -0.646707830549785 2.476640012602966 a 91.88485777976486 91.88485777976486 0.0 0 1 -44.37978452949464,-26.664070802738454 l 1.8830179281165016 -1.7338455099899335 a 89.32517483648449 89.32517483648449 0.0 0 0 43.14347443192793,25.92127630012542 z"></path><path fill="#1b2df2" d="M 34.288382828506286,160.5059520070181 l -1.8830179281165047 1.7338455099899344 a 91.88485777976486 91.88485777976486 0.0 0 1 -22.91896548623752,-46.42476674899371 l 2.521483138275144 -0.4405673087220592 a 89.32517483648449 89.32517483648449 0.0 0 0 22.280500276078882,45.13148854772584 z"></path><path fill="#160cda" d="M 12.00788255242739,115.37446345929224 l -2.521483138275136 0.44056730872206135 a 91.88485777976486 91.88485777976486 0.0 0 1 5.818463161228201,-51.44592727417066 l 2.35939526797992 0.992587900165212 a 89.32517483648449 89.32517483648449 0.0 0 0 -5.656375290932985,50.012772065283386 z"></path><path fill="#2a94ef" d="M 17.664257843360375,65.36169139400884 l -2.3593952679799193 -0.9925879001652167 a 91.88485777976486 91.88485777976486 0.0 0 1 32.70857086630011,-40.13336938935033 l 1.4482160707914247 2.110603464041006 a 89.32517483648449 89.32517483648449 0.0 0 0 -31.79739166911161,39.01535382547454 z"></path><path fill="#2c00a4" d="M 49.46164951247199,26.34633756853431 l -1.4482160707914213 -2.110603464041004 a 91.88485777976486 91.88485777976486 0.0 0 1 49.21393842903983,-16.078750292248927 l 0.07723850373243124 2.5585173408952357 a 89.32517483648449 89.32517483648449 0.0 0 0 -47.842960861980835,15.630836415394697 z"></path><path fill="#0a053f" d="M 97.30461037445284,10.715501153139613 l -0.07723850373243167 -2.5585173408952313 a 91.88485777976486 91.88485777976486 0.0 0 1 50.094228269631955,13.08075841562076 l -1.3182617425204128 2.194120039634896 a 89.32517483648449 89.32517483648449 0.0 0 0 -48.69872802337911,-12.716361114360424 z"></path><path fill="#0641c0" d="M 146.00333839783195,23.431862267500037 l 1.3182617425204184 -2.194120039634901 a 91.88485777976486 91.88485777976486 0.0 0 1 35.06995458351904,38.08721875075325 l -2.2952231999154122 1.133105128701871 a 89.32517483648449 89.32517483648449 0.0 0 0 -34.09299312612405,-37.02620383982022 z"></path><path fill="#0e36d6" d="M 180.096331523956,60.45806610732027 l 2.2952231999154113 -1.1331051287018732 a 91.88485777976486 91.88485777976486 0.0 0 1 8.911218109597087,51.0012562439497 l -2.5434675086094387 -0.2876626544557439 a 89.32517483648449 89.32517483648449 0.0 0 0 -8.66297380090306,-49.58048846079208 z"></path><path fill="#0600d1" d="M 188.75930532485904,110.0385545681124 l 2.543467508609439 0.2876626544557416 a 91.88485777976486 91.88485777976486 0.0 0 1 -20.07676715046358,47.722755237348615 l -1.984178854602618 -1.6170995773508494 a 89.32517483648449 89.32517483648449 0.0 0 0 19.51747849645676,-46.39331831445351 z"></path><path fill="#0d6eff" d="M 169.24182682840222,156.4318728825659 l 1.9841788546026147 1.6170995773508465 a 91.88485777976486 91.88485777976486 0.0 0 1 -42.69052069591005,29.29261663576496 l -0.7949274337973122 -2.433118810316671 a 89.32517483648449 89.32517483648449 0.0 0 0 41.50126927510475,-28.476597402799136 z"></path><path fill="#0d6eff" d="M 72.48501698357488,187.66842532413511 l -0.7417079032749139 2.363234747110738 a 94.36175282875907 94.36175282875907 0.0 0 1 -44.18914044041921,-29.568928447071045 l 1.9016255594762441 -1.5870820127764844 a 91.88485777976486 91.88485777976486 0.0 0 0 43.02922278421788,28.79277571273679 z"></path><path fill="#14d1ff" d="M 29.455794199357015,158.87564961139833 l -1.9016255594762508 1.5870820127764849 a 94.36175282875907 94.36175282875907 0.0 0 1 -21.18810086136532,-48.765418528499445 l 2.4577905367880106 -0.30704195317134264 a 91.88485777976486 91.88485777976486 0.0 0 0 20.63193588405356,47.485378468894304 z"></path><path fill="#1b2df2" d="M 8.823858315303468,111.39027114250402 l -2.4577905367880217 0.30704195317133987 a 94.36175282875907 94.36175282875907 0.0 0 1 8.540011033205314,-52.479232787111414 l 2.233624384587685 1.070481757110933 a 91.88485777976486 91.88485777976486 0.0 0 0 -8.315844881004978,51.10170907682914 z"></path><path fill="#160cda" d="M 17.13970319630843,60.28856206567485 l -2.233624384587685 -1.0704817571109315 a 94.36175282875907 94.36175282875907 0.0 0 1 35.556729765567724,-39.5312614363555 l 1.3002982723165033 2.1081350731731447 a 91.88485777976486 91.88485777976486 0.0 0 0 -34.62340365329654,38.49360812029329 z"></path><path fill="#2a94ef" d="M 51.76310684960499,21.794953945381565 l -1.3002982723165053 -2.1081350731731434 a 94.36175282875907 94.36175282875907 0.0 0 1 51.284438029209646,-14.032393894102812 l -0.04586335394660068 2.4764703988735164 a 91.88485777976486 91.88485777976486 0.0 0 0 -49.93827640294654,13.664058568402439 z"></path><path fill="#2c00a4" d="M 101.70138325255152,8.13089537697914 l 0.04586335394660196 -2.4764703988735244 a 94.36175282875907 94.36175282875907 0.0 0 1 50.72969957710107,15.921659561370141 l -1.3774636893866443 2.0585438708352513 a 91.88485777976486 91.88485777976486 0.0 0 0 -49.39809924166103,-15.50373303333187 z"></path><path fill="#0a053f" d="M 151.09948249421262,23.634628410311066 l 1.3774636893866368 -2.058543870835251 a 94.36175282875907 94.36175282875907 0.0 0 1 34.06863994819193,40.820698603178855 l -2.27172903613976 0.9870442087827342 a 91.88485777976486 91.88485777976486 0.0 0 0 -33.17437460143881,-39.74919894112634 z"></path><path fill="#0641c0" d="M 184.27385709565135,63.38382735143736 l 2.271729036139762 -0.9870442087827334 a 94.36175282875907 94.36175282875907 0.0 0 1 6.5910278532387405,52.75945426375201 l -2.4447364651888677 -0.39783501543718813 a 91.88485777976486 91.88485777976486 0.0 0 0 -6.418020424189635,-51.37457503953209 z"></path><path fill="#0e36d6" d="M 190.691877519841,114.75840239096935 l 2.444736465188859 0.3978350154371871 a 94.36175282875907 94.36175282875907 0.0 0 1 -22.979189015140257,47.94745597607401 l -1.84155734022292 -1.6564044332236918 a 91.88485777976486 91.88485777976486 0.0 0 0 22.376009890174316,-46.68888655828751 z"></path><path fill="#0600d1" d="M 168.31586762966674,161.44728894925686 l 1.841557340222921 1.6564044332236931 a 94.36175282875907 94.36175282875907 0.0 0 1 -45.25367573440313,27.91247919652769 l -0.6536967715585931 -2.389077147056142 a 91.88485777976486 91.88485777976486 0.0 0 0 44.065815165738805,-27.17980648269524 z"></path><path fill="#0d6eff" d="M 124.25005246392787,188.62709543195217 l 0.6536967715585926 2.389077147056138 a 94.36175282875907 94.36175282875907 0.0 0 1 -53.16044015518653,-0.9845125077624988 l 0.7417079032749143 -2.363234747110738 a 91.88485777976486 91.88485777976486 0.0 0 0 51.76503548035302,0.9586701078170989 z"></path><path fill="#0d6eff" d="M 26.864961284940662,40.37277040594126 l -60.66843308271941 -49.46316638498226 a 172.63859232513144 172.63859232513144 0.0 0 1 80.21954930148357,-55.02190340742783 l 24.29572695385079 74.4108947219745 a 94.36175282875907 94.36175282875907 0.0 0 0 -43.84684317261494,30.07417507043558 z"></path><path fill="#14d1ff" d="M 70.71180445755567,10.298595335505667 l -24.29572695385073 -74.4108947219745 a 172.63859232513144 172.63859232513144 0.0 0 1 97.23206608815286,-2.917407914320904 l -19.79070081746201 75.73368974699801 a 94.36175282875907 94.36175282875907 0.0 0 0 -53.14563831684012,1.5946128892973945 z"></path><path fill="#1b2df2" d="M 123.85744277439571,8.703982446208244 l 19.79070081746201 -75.73368974699801 a 172.63859232513144 172.63859232513144 0.0 0 1 83.37408890078336,50.1133439781635 l -57.59372091364045 53.01157338603088 a 94.36175282875907 94.36175282875907 0.0 0 0 -45.57106880460492,-27.39122761719637 z"></path><path fill="#160cda" d="M 169.42851157900066,36.095210063404586 l 57.59372091364045 -53.011573386030875 a 172.63859232513144 172.63859232513144 0.0 0 1 43.04542758057718,87.23346324154957 l -77.11114155752426 13.458657036877732 a 94.36175282875907 94.36175282875907 0.0 0 0 -23.528006936693373,-47.680546892396436 z"></path><path fill="#2a94ef" d="M 192.95651851569409,83.77575695580109 l 77.11114155752426 -13.45865703687773 a 172.63859232513144 172.63859232513144 0.0 0 1 -10.94985285200491,96.65757428794142 l -72.14631959818469 -30.367287827157583 a 94.36175282875907 94.36175282875907 0.0 0 0 5.9850308926653355,-52.83162942390611 z"></path><path fill="#2c00a4" d="M 186.97148762302876,136.60738637970718 l 72.14631959818469 30.367287827157583 a 172.63859232513144 172.63859232513144 0.0 0 1 -61.4686323720387,75.39358844769677 l -44.275550927956374 -64.55183337107306 a 94.36175282875907 94.36175282875907 0.0 0 0 33.59786370181038,-41.20904290378129 z"></path><path fill="#0a053f" d="M 153.37362392121838,177.81642928348847 l 44.275550927956374 64.55183337107307 a 172.63859232513144 172.63859232513144 0.0 0 1 -92.47155543055194,30.192670980948307 l -2.3476076741958067 -78.24162792113223 a 94.36175282875907 94.36175282875907 0.0 0 0 50.54361217679138,-16.502876430889145 z"></path><path fill="#0641c0" d="M 102.83001174442693,194.3193057143776 l 2.347607674195807 78.24162792113223 a 172.63859232513144 172.63859232513144 0.0 0 1 -94.11541301265432,-24.594206191032015 l 40.32568442871887 -67.09025843515752 a 94.36175282875907 94.36175282875907 0.0 0 0 51.44212090973963,13.442836705057303 z"></path><path fill="#0e36d6" d="M 51.387890834687376,180.87646900932032 l -40.32568442871886 67.09025843515751 a 172.63859232513144 172.63859232513144 0.0 0 1 -65.87829195096998,-71.5725966717167 l 70.19585665318596 -34.6382059331342 a 94.36175282875907 94.36175282875907 0.0 0 0 36.00811972650289,39.12054416969339 z"></path><path fill="#0600d1" d="M 15.379771108184471,141.75592483962694 l -70.19585665318594 34.6382059331342 a 172.63859232513144 172.63859232513144 0.0 0 1 -16.725278668620774,-95.82719341693381 l 77.77934037048884 8.811232210791232 a 94.36175282875907 94.36175282875907 0.0 0 0 9.141794951317877,52.377755273008376 z"></path><path fill="#0d6eff" d="M 6.237976156866594,89.37816956661854 l -77.77934037048885 -8.811232210791237 a 172.63859232513144 172.63859232513144 0.0 0 1 37.73789241584349,-89.65733333486831 l 60.66843308271942 49.463166384982266 a 94.36175282875907 94.36175282875907 0.0 0 0 -20.626985128074054,49.00539916067728 z"></path><path fill="#0d6eff" d="M -70.01723149410552,70.02960535657456 l -0.005120748484756989 -9.026782262550281E-4 a 172.6437920263752 172.6437920263752 0.0 0 1 43.19415444242627,-87.16318593587908 l 0.0038198230593877724 0.0035278668936200575 a 172.63859232513144 172.63859232513144 0.0 0 0 -43.1928535170009,87.16056074721172 z"></path><path fill="#14d1ff" d="M -26.82437797710459,-17.130955390637197 l -0.0038198230593998474 -0.0035278668936303582 a 172.6437920263752 172.6437920263752 0.0 0 1 83.46121111875466,-49.973815134322756 l 0.001306130802277039 0.0050329827489861145 a 172.63859232513144 172.63859232513144 0.0 0 0 -83.45869742649754,49.9723100184674 z"></path><path fill="#1b2df2" d="M 56.634319449392905,-67.10326540910452 l -0.0013061308022632753 -0.00503298274899438 a 172.6437920263752 172.6437920263752 0.0 0 1 97.22992297361651,3.081888874276339 l -0.0016222487559076626 0.004940162142929694 a 172.63859232513144 172.63859232513144 0.0 0 0 -97.22699459405834,-3.081796053670274 z"></path><path fill="#160cda" d="M 153.86131404345124,-64.02146935543425 l 0.001622248755912635 -0.004940162142909465 a 172.6437920263752 172.6437920263752 0.0 0 1 80.12882127816256,55.159114940879014 l -0.004035575796336843 0.0032788749619641067 a 172.63859232513144 172.63859232513144 0.0 0 0 -80.12640795112213,-55.15745365369807 z"></path><path fill="#2a94ef" d="M 233.98772199457343,-8.86401570173605 l 0.004035575796348265 -0.0032788749619685103 a 172.6437920263752 172.6437920263752 0.0 0 1 37.58738499008835,89.72371174943463 l -0.005167636035452006 5.765681480340845E-4 a 172.63859232513144 172.63859232513144 0.0 0 0 -37.58625292984925,-89.7210094426207 z"></path><path fill="#2c00a4" d="M 271.5739749244226,80.85699374088453 l 0.0051676360354593305 -5.765681480259708E-4 a 172.6437920263752 172.6437920263752 0.0 0 1 -16.887780452567206,95.80166403499842 l -0.004659008346095561 -0.002308794979072104 a 172.63859232513144 172.63859232513144 0.0 0 0 16.887271824877843,-95.79877867187133 z"></path><path fill="#0a053f" d="M 254.6867030995447,176.65577241275597 l 0.0046590083460835005 0.0023087949790789606 a 172.6437920263752 172.6437920263752 0.0 0 1 -66.00119492488763,71.46326489166167 l -0.0026711784257997806 -0.0044611320134890775 a 172.63859232513144 172.63859232513144 0.0 0 0 65.99920709496735,-71.46111255462725 z"></path><path fill="#0641c0" d="M 188.68749600457744,248.11688496738307 l 0.002671178425806072 0.004461132013492105 a 172.6437920263752 172.6437920263752 0.0 0 1 -94.15969635071488,24.435784080523373 l 1.647317710222751E-4 -0.0051970911544856335 a 172.63859232513144 172.63859232513144 0.0 0 0 94.15686044051806,-24.43504812138238 z"></path><path fill="#0e36d6" d="M 94.53063556405938,272.5519330887655 l -1.6473177101991474E-4 0.0051970911544740655 a 172.6437920263752 172.6437920263752 0.0 0 1 -92.4231594858128,-30.349885521181097 l 0.002948340794489468 -0.0042830105747952985 a 172.63859232513144 172.63859232513144 0.0 0 0 92.42037587678934,30.348971440601417 z"></path><path fill="#0600d1" d="M 2.1102596872700303,242.20296164816406 l -0.002948340794486153 0.004283010574801875 a 172.6437920263752 172.6437920263752 0.0 0 1 -61.34292251500459,-75.4996809119544 l 0.004795872447687088 -0.002009104399931516 a 172.63859232513144 172.63859232513144 0.0 0 0 61.34107498335139,75.49740700577954 z"></path><path fill="#0d6eff" d="M -59.230815296081374,166.70555464238453 l -0.004795872447683622 0.0020091043999367073 a 172.6437920263752 172.6437920263752 0.0 0 1 -10.786741074061187,-96.67886106843629 l 0.005120748484756632 9.026782262537836E-4 a 172.63859232513144 172.63859232513144 0.0 0 0 10.786416198024114,96.6759492858101 z"></path><path fill="#0d6eff" d="M 51.37777840690484,265.65554168997255 l -0.5383441546907912 1.8341344685409804 a 174.55530024701665 174.55530024701665 0.0 0 1 -82.74768929723056,-53.16660282987618 l 1.4444918804081226 -1.2519212774830777 a 172.6437920263752 172.6437920263752 0.0 0 0 81.84154157151323,52.58438963881828 z"></path><path fill="#14d1ff" d="M -30.463763164608423,213.0711520511543 l -1.4444918804081273 1.2519212774830693 a 174.55530024701665 174.55530024701665 0.0 0 1 -40.86775033963081,-89.46337084348214 l 1.8920236403877766 -0.27223192647733185 a 172.6437920263752 172.6437920263752 0.0 0 0 40.42021857965116,88.4836814924764 z"></path><path fill="#1b2df2" d="M -70.88398174425959,124.58747055867791 l -1.8920236403877957 0.2722319264773348 a 174.55530024701665 174.55530024701665 0.0 0 1 13.987410593076296,-97.35615073225472 l 1.7388512629445643 0.7938891376860653 a 172.6437920263752 172.6437920263752 0.0 0 0 -13.834238215633064,96.29002966809132 z"></path><path fill="#160cda" d="M -57.04974352862652,28.297440890586557 l -1.7388512629445638 -0.7938891376860765 a 174.55530024701665 174.55530024701665 0.0 0 1 64.40166749280226,-74.33904064922642 l 1.0336058956523573 1.6079560099867365 a 172.6437920263752 172.6437920263752 0.0 0 0 -63.696422125510054,73.52497377692576 z"></path><path fill="#2a94ef" d="M 6.646678596883561,-45.22753288633919 l -1.0336058956523564 -1.6079560099867587 a 174.55530024701665 174.55530024701665 0.0 0 1 94.36885000400163,-27.719810414630366 l 1.9795960079704855E-4 1.911508210390906 a 172.6437920263752 172.6437920263752 0.0 0 0 -93.33544206795007,27.416258214226218 z"></path><path fill="#2c00a4" d="M 99.98212066483362,-72.64379110056541 l -1.9795960080022762E-4 -1.911508210390906 a 174.55530024701665 174.55530024701665 0.0 0 1 94.37458941736213,27.70026376778972 l -1.0332728272252893 1.6081700600675504 a 172.6437920263752 172.6437920263752 0.0 0 0 -93.34111863053604,-27.396925617466366 z"></path><path fill="#0a053f" d="M 193.32323929536966,-45.246865483099015 l 1.0332728272252942 -1.6081700600675586 a 174.55530024701665 174.55530024701665 0.0 0 1 64.41706350969476,74.32569992464799 l -1.7386867921642875 0.794249278459418 a 172.6437920263752 172.6437920263752 0.0 0 0 -63.71164954475576,-73.51177914303985 z"></path><path fill="#0641c0" d="M 257.0348888401254,28.26491365994083 l 1.7386867921642848 -0.7942492784594244 a 174.55530024701665 174.55530024701665 0.0 0 1 14.007575086920017,97.35325151573095 l -1.8920799855649477 -0.27184003716234884 a 172.6437920263752 172.6437920263752 0.0 0 0 -13.854181893519353,-96.28716220010918 z"></path><path fill="#0e36d6" d="M 270.88907073364476,124.55207586004997 l 1.89207998556494 0.2718400371623438 a 174.55530024701665 174.55530024701665 0.0 0 1 -40.849219453155534,89.471833615774 l -1.4447511523470666 -1.2516220617149827 a 172.6437920263752 172.6437920263752 0.0 0 0 40.40189061993766,-88.49205159122137 z"></path><path fill="#0600d1" d="M 230.48718011370704,213.0441274512713 l 1.4447511523470666 1.2516220617149851 a 174.55530024701665 174.55530024701665 0.0 0 1 -82.73667544364653,53.18374072057644 l -0.5387240363828454 -1.8340229252119968 a 172.6437920263752 172.6437920263752 0.0 0 0 81.83064832768231,-52.601339857079424 z"></path><path fill="#0d6eff" d="M 148.6565317860247,265.64546730835065 l 0.5387240363828406 1.8340229252120126 a 174.55530024701665 174.55530024701665 0.0 0 1 -98.35582157019333,0.010185924950987024 l 0.5383441546907761 -1.8341344685409808 a 172.6437920263752 172.6437920263752 0.0 0 0 97.2787533791197,-0.010074381622018791 z"></path><path fill="#0d6eff" d="M -55.05413860770102,19.8266444200446 l -22.602040710006154 -11.686766073756063 a 200.0 200.0 0.0 0 1 77.86562209982947,-81.46571222613889 l 12.695703832959012 22.051119012541307 a 174.55530024701665 174.55530024701665 0.0 0 0 -67.95928522278233,71.10135928735365 z"></path><path fill="#14d1ff" d="M 12.905146615081335,-51.27471486730903 l -12.69570383295902 -22.05111901254131 a 200.0 200.0 0.0 0 1 109.54841893012112,-26.4359846311072 l -1.241429307495821 25.414397470606332 a 174.55530024701665 174.55530024701665 0.0 0 0 -95.61128578966627,23.072706173042178 z"></path><path fill="#1b2df2" d="M 108.5164324047476,-74.34742104035121 l 1.2414293074958271 -25.414397470606335 a 200.0 200.0 0.0 0 1 106.45036678224038,36.98698129655929 l -14.784417414341121 20.708784301305514 a 174.55530024701665 174.55530024701665 0.0 0 0 -92.90737867539508,-32.281368127258474 z"></path><path fill="#160cda" d="M 201.42381108014254,-42.06605291309279 l 14.784417414341123 -20.708784301305524 a 200.0 200.0 0.0 0 1 69.55507532334796,88.66684200008999 l -23.63345745383478 9.428278437618005 a 174.55530024701665 174.55530024701665 0.0 0 0 -60.706035283854305,-77.38633613640246 z"></path><path fill="#2a94ef" d="M 262.129846363997,35.320283223309744 l 23.633457453834776 -9.428278437618006 a 200.0 200.0 0.0 0 1 10.576538901970398,112.19560685856024 l -24.979041737766693 -4.845639212981112 a 174.55530024701665 174.55530024701665 0.0 0 0 -9.230954618038481,-97.92168920796112 z"></path><path fill="#2c00a4" d="M 271.36080098203547,133.24197243127082 l 24.9790417377667 4.845639212981119 a 200.0 200.0 0.0 0 1 -51.759973890529814,100.10305927571426 l -18.39395676343274 -17.581100651109324 a 174.55530024701665 174.55530024701665 0.0 0 0 45.174888916195854,-87.36759783758606 z"></path><path fill="#0a053f" d="M 226.1859120658396,220.60957026885688 l 18.393956763432758 17.581100651109345 a 200.0 200.0 0.0 0 1 -97.66306069128635,56.22849766724743 l -5.968920482196893 -24.734686854631548 a 174.55530024701665 174.55530024701665 0.0 0 0 85.23802441005049,-49.07491146372523 z"></path><path fill="#0641c0" d="M 140.94788765578897,269.6844817325822 l 5.968920482196899 24.734686854631523 a 200.0 200.0 0.0 0 1 -112.55881577677117,-5.498214658990893 l 8.351205877759654 -24.035184748754148 a 174.55530024701665 174.55530024701665 0.0 0 0 98.23868941681462,4.798712553113518 z"></path><path fill="#0e36d6" d="M 42.70919823897449,264.88576917946864 l -8.351205877759648 24.035184748754144 a 200.0 200.0 0.0 0 1 -91.71794215571994,-65.47928267952808 l 20.019883378328586 -15.704681309647569 a 174.55530024701665 174.55530024701665 0.0 0 0 80.049264655151,57.148779240421504 z"></path><path fill="#0600d1" d="M -37.3400664161766,207.73698993904705 l -20.019883378328593 15.704681309647569 a 200.0 200.0 0.0 0 1 -41.757269948239035,-104.67114110381804 l 25.332389360014673 -2.388052518703546 a 174.55530024701665 174.55530024701665 0.0 0 0 36.444763966552955,91.35451231287402 z"></path><path fill="#0d6eff" d="M -73.78483038272952,116.38247762617303 l -25.332389360014677 2.3880525187035446 a 200.0 200.0 0.0 0 1 21.461040425037087,-110.63065179858823 l 22.60204071000615 11.686766073756075 a 174.55530024701665 174.55530024701665 0.0 0 0 -18.73069177502856,96.55583320612861 z"></path></g></svg>
