<?xml version='1.0' encoding='UTF-8'?>
<svg preserveAspectRatio="xMidYMid meet" xmlns="http://www.w3.org/2000/svg" xmlns:svg="http://www.w3.org/2000/svg"><g><circle fill="#02e666" r="10000.0" cx="0.0" cy="0.0"/><circle fill="#0210e6" r="4641.016151377544" cx="5358.983848622456" cy="0.0"/><circle fill="#e60282" r="4741.016151377544" cx="-2952.6970050681016" cy="-4351.837717141314"/><circle fill="#e6d802" r="4537.124774965342" cx="-2395.6554054848166" cy="4909.56626418962"/><circle fill="#02e666" r="717.566838560703" cx="5.583241220219682" cy="235.61323545354549"/><circle fill="#0210e6" r="2312.744590130963" cx="3681.464274832154" cy="-6748.386216696204"/><circle fill="#e60282" r="2236.1947565953333" cx="-7729.006492764251" cy="734.2550594485269"/><circle fill="#e6d802" r="2170.032160892205" cx="4071.361882384019" cy="6688.229121683327"/><circle fill="#02e666" r="292.43327399991233" cx="470.0507464775119" cy="-661.2536241931407"/><circle fill="#0210e6" r="290.0215642905088" cx="548.6446452854833" cy="1084.3291484508875"/><circle fill="#e60282" r="291.1729426067884" cx="-1001.855988926975" cy="286.8201067724434"/><circle fill="#e6d802" r="1130.2139110875814" cx="6912.1981714875965" cy="-5558.2930564290855"/><circle fill="#02e666" r="1147.9028806334493" cx="899.1926737193351" cy="-8806.308871838817"/><circle fill="#0210e6" r="550.1869537043344" cx="2336.8842941597754" cy="-4220.841617631275"/><circle fill="#e60282" r="1116.2918538383826" cx="-8517.559716148351" cy="-2524.1725194655587"/><circle fill="#e6d802" r="1081.9477645889585" cx="-7947.844259221762" cy="4045.173334317771"/><circle fill="#02e666" r="538.492877075524" cx="-4961.814410833785" cy="530.4427778084422"/><circle fill="#0210e6" r="1072.752424499898" cx="7069.185872323598" cy="5451.82174844454"/><circle fill="#e60282" r="1055.9850818424902" cx="1627.935663013621" cy="8794.61359772631"/><circle fill="#e6d802" r="528.1523038605116" cx="2643.7873752926007" cy="4398.637360574898"/><circle fill="#02e666" r="158.7715097035818" cx="678.0780535732017" cy="-1061.6414316241278"/><circle fill="#0210e6" r="101.56018094674695" cx="625.8662979679041" cy="-299.3802258138867"/><circle fill="#e60282" r="101.70100779590929" cx="84.41386286297661" cy="-579.8532182802787"/><circle fill="#e6d802" r="156.88271671203833" cx="788.9744031309394" cy="1461.1116372589786"/><circle fill="#02e666" r="101.07368606613977" cx="670.7703933884841" cy="712.7907298427799"/><circle fill="#0210e6" r="100.92270102503792" cx="160.2967670244356" cy="1039.347551844545"/><circle fill="#e60282" r="157.7827114884108" cx="-1450.16820463483" cy="310.8479362869036"/><circle fill="#e6d802" r="101.44649009948479" cx="-769.323693235319" cy="-29.53215005364821"/><circle fill="#02e666" r="101.1546862695174" cx="-738.3464766086304" cy="577.4809147556539"/><circle fill="#0210e6" r="637.7022603782393" cx="8257.765024545133" cy="-4411.568401909442"/><circle fill="#e60282" r="450.6778467822591" cx="6426.934439327289" cy="-7062.865374515072"/><circle fill="#e6d802" r="315.92681602699986" cx="5599.707100482054" cy="-4951.094414179102"/><circle fill="#02e666" r="652.8388993514261" cx="-829.5901848575315" cy="-9310.273936177491"/><circle fill="#0210e6" r="455.34109516329016" cx="2446.5937004647844" cy="-9225.762454915297"/><circle fill="#e60282" r="319.59791335005656" cx="1120.0967195660542" cy="-7355.529776707251"/><circle fill="#e6d802" r="246.57678072458606" cx="1964.443118047107" cy="-3516.483740670454"/><circle fill="#02e666" r="211.86816568959964" cx="3095.5433359504186" cy="-4292.705818062912"/><circle fill="#0210e6" r="212.48196234152655" cx="1971.451986584445" cy="-4890.26159349303"/><circle fill="#e60282" r="638.4438723340171" cx="-8331.519466950549" cy="-4269.018213039687"/><circle fill="#e6d802" r="439.54162450440083" cx="-9472.25226657884" cy="-1295.6856670797777"/><circle fill="#02e666" r="311.73302734454626" cx="-7300.3795606363465" cy="-1777.3609432930182"/><circle fill="#0210e6" r="608.9623534229996" cx="-7485.022129828607" cy="5671.510539124698"/><circle fill="#e60282" r="430.572238024718" cx="-9074.897052710856" cy="3036.476769936347"/><circle fill="#e6d802" r="304.5343000965094" cx="-6900.868752283918" cy="3136.231750074469"/><circle fill="#02e666" r="242.15774514149015" cx="-4182.990100158321" cy="477.0753057989443"/><circle fill="#0210e6" r="207.9048488724842" cx="-5417.740556605999" cy="-60.52330827575395"/><circle fill="#e60282" r="206.68294451644212" cx="-5327.126968473424" cy="1179.9300681506415"/><circle fill="#e6d802" r="611.815187298711" cx="8328.489823457654" cy="4332.9287252385575"/><circle fill="#02e666" r="421.8451071923862" cx="6655.526258481404" cy="6888.034652444698"/><circle fill="#0210e6" r="301.481919193002" cx="5800.898559226287" cy="4922.702364163965"/><circle fill="#e60282" r="597.3889483386773" cx="90.23895803673872" cy="9402.178019973675"/><circle fill="#e6d802" r="417.5003494948353" cx="3074.3132929798976" cy="9075.951593554182"/><circle fill="#02e666" r="297.93655586142944" cx="1721.94908276099" cy="7443.959949321105"/><circle fill="#0210e6" r="238.2250299248261" cx="2236.6137920974998" cy="3749.3732456816415"/><circle fill="#e60282" r="203.29467455010527" cx="3374.9401855877327" cy="4419.379834475826"/><circle fill="#e6d802" r="202.68478092480353" cx="2341.6346624856374" cy="5064.089524626451"/><circle fill="#02e666" r="99.70163776006181" cx="797.4121947997085" cy="-1290.9179692321852"/><circle fill="#0210e6" r="50.87530896497736" cx="747.2826514688231" cy="-863.746226508008"/><circle fill="#e60282" r="50.91062339610504" cx="476.32063948904045" cy="-1004.5402687348569"/><circle fill="#e6d802" r="51.304912856113" cx="669.1503814670597" cy="-152.7711366720529"/><circle fill="#02e666" r="39.109452629728835" cx="697.7677393273324" cy="-420.2856787139744"/><circle fill="#0210e6" r="34.359950101291645" cx="494.80560691859426" cy="-335.3993497037571"/><circle fill="#e60282" r="51.400794231728305" cx="-60.517908526625874" cy="-530.5080723590895"/><circle fill="#e6d802" r="39.165143875939705" cx="141.8333540767393" cy="-708.4855420390803"/><circle fill="#02e666" r="34.38679920341531" cx="189.57976577576162" cy="-493.48178736458675"/><circle fill="#0210e6" r="98.30806578903336" cx="926.0406578266271" cy="1676.3677110343326"/><circle fill="#e60282" r="50.36526899426413" cx="840.0438706474164" cy="1260.2543818089862"/><circle fill="#e6d802" r="50.32775048026119" cx="585.3567185687683" cy="1422.692680380941"/><circle fill="#02e666" r="51.13085774833212" cx="700.805869132252" cy="563.5791573873713"/><circle fill="#0210e6" r="38.87885127997832" cx="752.6165590046363" cy="826.3156957469881"/><circle fill="#e60282" r="34.181829353903424" cx="544.0801933013869" cy="760.1578878051621"/><circle fill="#e6d802" r="51.02787458163644" cx="12.472497055072196" cy="1004.1770722455188"/><circle fill="#02e666" r="38.81928004745666" cx="228.88992837909132" cy="1161.0964717142733"/><circle fill="#0210e6" r="34.1530301657571" cx="256.2731641238132" cy="944.3002775198703"/><circle fill="#e60282" r="98.97135881144209" cx="-1706.533459982353" cy="324.97268287328365"/><circle fill="#e6d802" r="50.64348458598352" cx="-1315.7654562337461" cy="151.5451414831759"/><circle fill="#02e666" r="50.57065796850721" cx="-1299.4930980216625" cy="454.75116353065357"/><circle fill="#0210e6" r="51.309707921573896" cx="-664.7870150600613" cy="-140.916794192459"/><circle fill="#e60282" r="39.04442797754151" cx="-909.8124579900639" cy="-30.30999310502878"/><circle fill="#e6d802" r="34.2937073087252" cx="-734.2365733102447" cy="101.59486931224453"/><circle fill="#02e666" r="51.11084706398341" cx="-623.4535368995537" cy="677.40290956332"/><circle fill="#0210e6" r="38.929170026152335" cx="-877.6070269205923" cy="592.6462014816304"/><circle fill="#e60282" r="34.23806049577671" cx="-716.8186240236768" cy="443.8106209737843"/><circle fill="#e6d802" r="402.8340658177511" cx="8899.436865166357" cy="-3592.438927963317"/><circle fill="#02e666" r="222.69897998084554" cx="8234.397227536761" cy="-5271.652258562063"/><circle fill="#0210e6" r="183.9325200774956" cx="7438.150479703971" cy="-4353.986196851443"/><circle fill="#e60282" r="237.093525316983" cx="6066.984186731207" cy="-7648.9244806940715"/><circle fill="#e6d802" r="179.37382046926984" cx="7024.465044128315" cy="-6863.05976965841"/><circle fill="#02e666" r="139.428989349209" cx="6126.0199513458965" cy="-6555.246867196853"/><circle fill="#0210e6" r="148.3348236733165" cx="5165.996937348165" cy="-4785.4611913897525"/><circle fill="#e60282" r="123.47645516143605" cx="5976.092817352968" cy="-4724.358826177047"/><circle fill="#e6d802" r="114.292768837964" cx="5681.4923389736505" cy="-5373.468733907769"/><circle fill="#02e666" r="414.2090962196207" cx="-1893.1082899726605" cy="-9396.995703597797"/><circle fill="#0210e6" r="227.53514936523723" cx="-80.09612957433512" cy="-9772.136607053706"/><circle fill="#e60282" r="187.6982172827829" cx="-416.767288048364" cy="-8578.099161748707"/><circle fill="#e6d802" r="238.89546866002175" cx="3140.6391006657614" cy="-9242.053219448328"/><circle fill="#02e666" r="181.7444057195409" cx="1948.4919768389905" cy="-9622.968457332365"/><circle fill="#0210e6" r="140.85711804554091" cx="2182.792991928636" cy="-8691.102286575431"/><circle fill="#e60282" r="149.85015309313718" cx="1223.3935091138587" cy="-6897.587356356872"/><circle fill="#e6d802" r="125.16216942723914" cx="718.2643108298736" cy="-7546.166201666829"/><circle fill="#02e666" r="115.55324806128506" cx="1430.8395944400954" cy="-7660.153149074921"/><circle fill="#0210e6" r="139.93274047156783" cx="1784.155187153826" cy="-3174.597982046805"/><circle fill="#e60282" r="83.56867204659974" cx="2286.5054220698426" cy="-3589.0915385510193"/><circle fill="#e6d802" r="83.66399969154486" cx="1842.975664666656" cy="-3823.5743312445193"/><circle fill="#02e666" r="112.13299120599417" cx="3416.3566650395524" cy="-4338.044075069705"/><circle fill="#0210e6" r="76.49052930486083" cx="2939.826987713481" cy="-4050.0060943904955"/><circle fill="#e60282" r="72.86365302101694" cx="2895.9816283599434" cy="-4495.800213479971"/><circle fill="#e6d802" r="112.59202696375158" cx="1829.2844946419852" cy="-5182.599587530167"/><circle fill="#02e666" r="76.70384867571453" cx="1857.2976344915503" cy="-4624.56022505105"/><circle fill="#0210e6" r="72.98449756665516" cx="2252.1353068727703" cy="-4838.223401321905"/><circle fill="#e60282" r="406.7282254807372" cx="-8018.577010605019" cy="-5266.240220953147"/><circle fill="#e6d802" r="221.56551674805118" cx="-9025.939395177274" cy="-3761.67502289043"/><circle fill="#02e666" r="183.61718149177776" cx="-7823.103219732458" cy="-3623.0326901509543"/><circle fill="#0210e6" r="229.95123183710754" cx="-9746.024855278136" cy="-684.7280135806135"/><circle fill="#e60282" r="175.60333476734843" cx="-9641.452793683542" cy="-1887.1030345495856"/><circle fill="#e6d802" r="136.31002814610457" cx="-8897.458166117402" cy="-1330.5693012803058"/><circle fill="#02e666" r="146.2811638802039" cx="-6928.665043720876" cy="-1509.7692444726488"/><circle fill="#0210e6" r="122.21868995913404" cx="-7319.32433565297" cy="-2210.8989329206515"/><circle fill="#e60282" r="112.47526574663462" cx="-7691.922381999451" cy="-1614.1221765543705"/><circle fill="#e6d802" r="384.49352413333645" cx="-7033.551498637129" cy="6556.456215323424"/><circle fill="#02e666" r="212.2065697054828" cx="-8222.282030765522" cy="5309.894390726328"/><circle fill="#0210e6" r="176.25489935773" cx="-7108.471215571461" cy="4982.470958957765"/><circle fill="#e60282" r="226.4954998108416" cx="-9449.279454357245" cy="2496.4991505465746"/><circle fill="#e6d802" r="171.04802918209572" cx="-9131.936162169113" cy="3635.3870185598107"/><circle fill="#02e666" r="133.5492223781318" cx="-8514.711480385278" cy="2969.9549942135736"/><circle fill="#0210e6" r="143.3007617502201" cx="-6583.752356292712" cy="2820.0143659653204"/><circle fill="#e60282" r="118.912535011539" cx="-6850.816860564642" cy="3556.71008518619"/><circle fill="#e6d802" r="110.01226729980671" cx="-7304.502294043857" cy="3041.739313835464"/><circle fill="#02e666" r="137.65188151343568" cx="-3804.010428465548" cy="451.9802675762233"/><circle fill="#0210e6" r="82.1382534873565" cx="-4410.311285690754" cy="245.7898256346993"/><circle fill="#e60282" r="81.94685183060884" cx="-4376.7318347377395" cy="736.8981878948041"/><circle fill="#e6d802" r="110.14456253384917" cx="-5624.144061659661" cy="-302.5006237363219"/><circle fill="#02e666" r="75.1398518162283" cx="-5134.704348658623" cy="-58.33068912605175"/><circle fill="#0210e6" r="71.340384282607" cx="-5481.500340117576" cy="211.34539210442156"/><circle fill="#e60282" r="109.23223544347552" cx="-5494.729321943667" cy="1447.7207551439647"/><circle fill="#e6d802" r="74.7141457328488" cx="-5048.958428807106" cy="1137.4261160912693"/><circle fill="#02e666" r="71.0999913494673" cx="-5429.332927316182" cy="921.6331432070565"/><circle fill="#0210e6" r="389.45062436187465" cx="8936.001107203938" cy="3537.02466963808"/><circle fill="#e60282" r="211.96077550990879" cx="8319.531894910679" cy="5156.655981323607"/><circle fill="#e6d802" r="176.5454373785038" cx="7541.039268814284" cy="4295.059231799854"/><circle fill="#02e666" r="220.7242173471782" cx="6338.525752497128" cy="7446.967578693402"/><circle fill="#0210e6" r="168.21941364238216" cx="7209.499445074256" cy="6684.835618753279"/><circle fill="#e60282" r="131.11168820727409" cx="6357.112917255389" cy="6422.512692321453"/><circle fill="#e6d802" r="141.75749144968165" cx="5380.342047456105" cy="4782.7259534563955"/><circle fill="#02e666" r="118.0863746824419" cx="6151.747224714058" cy="4692.609410879876"/><circle fill="#0210e6" r="108.64327499093866" cx="5894.956258934012" cy="5321.896332091978"/><circle fill="#e60282" r="378.54020670910324" cx="-868.9541383538112" cy="9582.140014597528"/><circle fill="#e6d802" r="207.40584779739774" cx="811.6574979027141" cy="9758.899135448164"/><circle fill="#02e666" r="172.93030222917864" cx="402.81393477902316" cy="8698.126436842173"/><circle fill="#0210e6" r="219.05433613961307" cx="3710.3338268669763" cy="9049.879610944887"/><circle fill="#e60282" r="166.01481948703972" cx="2645.3326264899083" cy="9471.50884631253"/><circle fill="#e6d802" r="129.76856273961818" cx="2798.1792318967227" cy="8603.454775990309"/><circle fill="#02e666" r="140.28573318932322" cx="1783.5741167184026" cy="7010.092308432047"/><circle fill="#0210e6" r="116.45795668094219" cx="1363.748505162528" cy="7652.322993629171"/><circle fill="#e60282" r="107.43393249630763" cx="2032.9491727256957" cy="7703.967981645739"/><circle fill="#e6d802" r="135.6156891041825" cx="2037.6214164613273" cy="3432.8943085583855"/><circle fill="#02e666" r="80.69236555123567" cx="2551.992165047496" cy="3796.752429008084"/><circle fill="#0210e6" r="80.5961038689664" cx="2142.0876002145046" cy="4053.859229598234"/><circle fill="#e60282" r="107.56009568996377" cx="3684.8442239796095" cy="4443.673355616324"/><circle fill="#e6d802" r="73.55732065414716" cx="3210.5658719056955" cy="4196.606155038285"/><circle fill="#02e666" r="69.77929902350012" cx="3196.6981935405656" cy="4626.259478990087"/><circle fill="#0210e6" r="107.10538186535534" cx="2227.446046457452" cy="5352.06678923447"/><circle fill="#e60282" r="73.34437518740295" cx="2213.931534776227" cy="4819.377436250643"/><circle fill="#e6d802" r="69.65938721494175" cx="2605.1212964289534" cy="4995.1972924607535"/><circle fill="#02e666" r="68.42621291071052" cx="875.1024994271776" cy="-1440.0192460143285"/><circle fill="#0210e6" r="30.416785119036025" cx="835.5408002883537" cy="-1166.511323846854"/><circle fill="#e60282" r="30.429404658484053" cx="673.622757338747" cy="-1250.7898821356205"/><circle fill="#e6d802" r="24.824029603199016" cx="760.3700568271763" cy="-789.1867892740295"/><circle fill="#02e666" r="20.44158918999623" cx="789.4666064004097" cy="-921.2493908450964"/><circle fill="#0210e6" r="17.08460860272649" cx="683.0194149581297" cy="-885.854750406732"/><circle fill="#e60282" r="24.846455105986276" cx="407.7405897034375" cy="-972.3546863325986"/><circle fill="#e6d802" r="20.45679318376754" cx="499.1583778162142" cy="-1072.1549554337214"/><circle fill="#02e666" r="17.091243958243297" cx="531.3863523274334" cy="-964.6401279672071"/><circle fill="#0210e6" r="30.90771659054472" cx="687.6250549796531" cy="-72.66119422332852"/><circle fill="#e60282" r="17.327202564698286" cx="705.4231558488251" cy="-211.03478834082273"/><circle fill="#e6d802" r="16.32730216095013" cx="608.537005556746" cy="-182.7733894019659"/><circle fill="#02e666" r="20.592122116680518" cx="721.6397591288415" cy="-475.006832738689"/><circle fill="#0210e6" r="14.739991106897923" cx="717.9831154318804" cy="-370.37474644763284"/><circle fill="#e60282" r="12.910724615140953" cx="646.4129479606434" cy="-411.99205198785063"/><circle fill="#e6d802" r="17.245159162525812" cx="446.11674835106663" cy="-352.50146517295514"/><circle fill="#02e666" r="12.942023005909906" cx="511.6566215330872" cy="-291.2007075719372"/><circle fill="#0210e6" r="11.998229802642234" cx="531.9212101855923" cy="-363.1754696295565"/><circle fill="#e60282" r="30.972978027211315" cx="-136.73953644717193" cy="-499.27184670182703"/><circle fill="#e6d802" r="17.360012487812867" cx="-33.81875701708711" cy="-593.8737085461503"/><circle fill="#02e666" r="16.35278459601934" cx="-0.9214182848975483" cy="-498.27756204920814"/><circle fill="#0210e6" r="20.6210701490116" cx="172.84529027119902" cy="-759.5996418639703"/><circle fill="#e60282" r="14.763727787041576" cx="89.31909496685992" cy="-696.214609353149"/><circle fill="#e6d802" r="12.926652990756775" cx="164.69111241724352" cy="-661.6765879336058"/><circle fill="#02e666" r="17.2546255934962" cx="231.67109251662603" cy="-463.5626134413481"/><circle fill="#0210e6" r="12.954214269229965" cx="143.720975189128" cy="-481.7283673283431"/><circle fill="#e60282" r="12.008707090971713" cx="190.858288218539" cy="-539.8596741715111"/><circle fill="#e6d802" r="67.37740792015987" cx="1014.9646608687526" cy="1816.1682757012768"/><circle fill="#02e666" r="30.02721328298195" cx="952.9172811551322" cy="1550.8783052147696"/><circle fill="#0210e6" r="30.013873645373387" cx="800.9797998832099" cy="1647.6222426841268"/><circle fill="#e60282" r="24.592565943080952" cx="846.5220071351637" cy="1185.5770039349281"/><circle fill="#e6d802" r="20.226045641487705" cx="886.5858192510537" cy="1313.3296182396862"/><circle fill="#02e666" r="16.909358277019773" cx="778.5910443900343" cy="1287.6300209699316"/><circle fill="#0210e6" r="24.56871739116739" cx="514.9644249375552" cy="1397.11132199324"/><circle fill="#e60282" r="20.20991130629288" cx="613.8188525185941" cy="1487.2331224412303"/><circle fill="#e6d802" r="16.902307632328668" cx="636.0577898608607" cy="1378.5420055995014"/><circle fill="#02e666" r="30.826437381859552" cx="712.1141648209577" cy="482.40575858163675"/><circle fill="#0210e6" r="17.25917164498036" cx="741.9159831507324" cy="618.2340258421407"/><circle fill="#e60282" r="16.266882719339527" cx="643.2902638966071" cy="598.7133369640416"/><circle fill="#e6d802" r="20.460334539073553" cx="781.0203617368811" cy="878.4152443440412"/><circle fill="#02e666" r="14.660109692062722" cx="768.28576729858" cy="775.1210060476711"/><circle fill="#0210e6" r="12.835329091254952" cx="701.0356447550273" cy="822.6054751816807"/><circle fill="#e60282" r="17.15263425195992" cx="497.3758979532935" cy="781.4636604909749"/><circle fill="#e6d802" r="12.880400007669348" cx="556.8350427939718" cy="714.8570351983657"/><circle fill="#02e666" r="11.933088270926149" cx="583.3258894539442" cy="784.3727791129046"/><circle fill="#0210e6" r="30.756270211933867" cx="-65.8160793291534" cy="980.5223655816685"/><circle fill="#e60282" r="17.22397103627973" cx="44.811098167350885" cy="1064.2813924592676"/><circle fill="#e6d802" r="16.239512245968832" cx="68.35289185319886" cy="966.730005500313"/><circle fill="#02e666" r="20.42939988269657" cx="264.1874634305334" cy="1208.6831304828895"/><circle fill="#0210e6" r="14.634704754957049" cx="175.93042503189207" cy="1153.8425419878254"/><circle fill="#e60282" r="12.818282331788946" cx="247.14547288620116" cy="1112.7935427842444"/><circle fill="#e6d802" r="17.14247905871282" cx="295.1604004514682" cy="910.8486390339175"/><circle fill="#02e666" r="12.867316535491499" cx="209.83755258641116" cy="936.9079176089247"/><circle fill="#0210e6" r="11.921857683671618" cx="261.799992212465" cy="990.0424840868449"/><circle fill="#e60282" r="67.87624512334772" cx="-1873.1197145948993" cy="334.3077090078392"/><circle fill="#e6d802" r="30.22520223958258" cx="-1619.612147867419" cy="229.38797234053325"/><circle fill="#02e666" r="30.199246507822775" cx="-1609.6338677013212" cy="410.38646568564434"/><circle fill="#0210e6" r="24.725213918255907" cx="-1258.4659264303255" cy="102.58388538682487"/><circle fill="#e60282" r="20.343860587519778" cx="-1386.4048309780242" cy="144.525033896922"/><circle fill="#e6d802" r="16.999500416282135" cx="-1302.203278373318" cy="217.81459712979154"/><circle fill="#02e666" r="24.678943512435797" cx="-1237.3969969938596" cy="497.2550075943105"/><circle fill="#0210e6" r="20.312525278878645" cx="-1368.8665418119738" cy="469.3028288634267"/><circle fill="#e60282" r="16.985815590671947" cx="-1293.1048532956381" cy="387.49740936724277"/><circle fill="#e6d802" r="30.930438051079268" cx="-604.9749977305264" cy="-197.36114016771208"/><circle fill="#02e666" r="17.32439976584959" cx="-733.3969289771735" cy="-142.73900448103518"/><circle fill="#0210e6" r="16.32118072875568" cx="-660.0520888771008" cy="-73.45185830962285"/><circle fill="#e60282" r="20.552067406427266" cx="-968.9792612521478" cy="-23.166348810922464"/><circle fill="#e6d802" r="14.721905252179425" cx="-877.0704583755204" cy="-72.95715069156927"/><circle fill="#02e666" r="12.887200755042493" cx="-876.7132065858997" cy="9.706673663993255"/><circle fill="#0210e6" r="17.206287185330684" cx="-724.4345741806609" cy="152.1534516297027"/><circle fill="#e60282" r="12.922004229577462" cx="-704.6530008670726" cy="64.79628703564308"/><circle fill="#e6d802" r="11.97465168387109" cx="-776.8778822400681" cy="83.63714627676366"/><circle fill="#02e666" r="30.795011319333383" cx="-558.541866010758" cy="727.3533311824863"/><circle fill="#0210e6" r="17.256390810165488" cx="-691.2617251048928" cy="686.128093048523"/><circle fill="#e60282" r="16.268328840154755" cx="-625.5322894286849" cy="610.0558076698956"/><circle fill="#e6d802" r="20.49218740615996" cx="-937.0203119133153" cy="591.6667702807938"/><circle fill="#02e666" r="14.672765390077242" cx="-840.7641696670466" cy="631.5791097953087"/><circle fill="#0210e6" r="12.854226837457105" cx="-848.8834356568844" cy="549.559364795125"/><circle fill="#e60282" r="17.186666076516797" cx="-712.2050155611735" cy="392.5932692266525"/><circle fill="#e6d802" r="12.896730102046565" cx="-683.7157870777862" cy="477.3649153462491"/><circle fill="#02e666" r="11.952944450596215" cx="-757.3419317729303" cy="465.9797541777532"/><circle fill="#0210e6" r="275.6617987035653" cx="9246.877960236036" cy="-3009.651382086343"/><circle fill="#e60282" r="130.11323525601182" cx="8968.435827941767" cy="-4120.90081765614"/><circle fill="#e6d802" r="115.8476937185459" cx="8386.449778129281" cy="-3669.0875822822395"/><circle fill="#02e666" r="111.33155700866195" cx="8153.181223968382" cy="-5595.658987513639"/><circle fill="#0210e6" r="90.64371705562759" cx="8496.36057299899" cy="-5099.72538044132"/><circle fill="#e60282" r="71.49716261681726" cx="8013.479242690224" cy="-5077.367379349377"/><circle fill="#e6d802" r="86.91163248838178" cx="7167.683978549384" cy="-4368.283984524551"/><circle fill="#02e666" r="73.76826540867896" cx="7596.006034985382" cy="-4150.292017977799"/><circle fill="#0210e6" r="64.25116843170359" cx="7572.294678628261" cy="-4562.793469562414"/><circle fill="#e60282" r="145.3196196745085" cx="5827.464946519983" cy="-7947.035780431156"/><circle fill="#e6d802" r="81.69358800613608" cx="6380.870285012463" cy="-7593.240183745248"/><circle fill="#02e666" r="72.26465872248266" cx="5989.497694971645" cy="-7349.427686676178"/><circle fill="#0210e6" r="95.23269184204888" cx="7265.601535165711" cy="-6731.675108095472"/><circle fill="#e60282" r="68.9518667980026" cx="6945.344718928014" cy="-7098.443756150614"/><circle fill="#e6d802" r="57.282838874493685" cx="6820.950082565483" cy="-6742.278832288984"/><circle fill="#02e666" r="67.7521034506814" cx="6031.812189428556" cy="-6370.723419341891"/><circle fill="#0210e6" r="53.299323619107334" cx="6047.445993402438" cy="-6731.230774849553"/><circle fill="#e60282" r="49.70384250837594" cx="6314.078519014086" cy="-6575.376527229731"/><circle fill="#e6d802" r="86.10717494086737" cx="4944.405546532921" cy="-4708.908554395614"/><circle fill="#02e666" r="50.4740929021973" cx="5341.177113477586" cy="-4691.45645107737"/><circle fill="#0210e6" r="48.86894297719612" cx="5235.404013952581" cy="-4970.047169455227"/><circle fill="#e60282" r="65.64847386709063" cx="6145.593435286845" cy="-4640.467352831704"/><circle fill="#e6d802" r="45.30185377316708" cx="5818.581354810354" cy="-4663.726683426635"/><circle fill="#02e666" r="41.52460668771932" cx="5951.457872972656" cy="-4887.510503847635"/><circle fill="#0210e6" r="58.9345352759737" cx="5723.166780402687" cy="-5541.60837772251"/><circle fill="#e60282" r="42.000068405589474" cx="5541.370318929677" cy="-5304.235284821034"/><circle fill="#e6d802" r="39.735062950404846" cx="5781.818035654535" cy="-5256.5956080365595"/><circle fill="#02e666" r="284.20732022684194" cx="-2590.745283125021" cy="-9364.009091959444"/><circle fill="#0210e6" r="133.67023796552618" cx="-1478.3287751552268" cy="-9754.947821785378"/><circle fill="#e60282" r="118.8513358145222" cx="-1536.500063966055" cy="-9000.783642518349"/><circle fill="#e6d802" r="113.63136718619283" cx="242.4188691141008" cy="-9883.396067940523"/><circle fill="#02e666" r="92.74510817914029" cx="-373.65643743996594" cy="-9900.20607655558"/><circle fill="#0210e6" r="73.01561084525498" cx="-122.58210336970374" cy="-9474.603917263572"/><circle fill="#e60282" r="88.59130939345617" cx="-252.39725146329602" cy="-8356.021712141635"/><circle fill="#e6d802" r="75.35998443072188" cx="-679.0869115167179" cy="-8597.797705658002"/><circle fill="#02e666" r="65.57236194694494" cx="-314.2778127110329" cy="-8809.70635884847"/><circle fill="#0210e6" r="146.18857143903747" cx="3523.6605980973663" cy="-9202.250575758886"/><circle fill="#e60282" r="82.4280848045835" cx="2921.8600034414926" cy="-9477.392405791888"/><circle fill="#e6d802" r="72.83879559476404" cx="2929.7827047577016" cy="-9012.44957876473"/><circle fill="#02e666" r="96.61259701226155" cx="1703.8289958441865" cy="-9755.718774471557"/><circle fill="#0210e6" r="69.80499166432661" cx="2192.224308523908" cy="-9685.191040175283"/><circle fill="#e60282" r="58.00772043920389" cx="1958.0497104981796" cy="-9383.406916752616"/><circle fill="#e6d802" r="68.44762500239466" cx="2078.768817750664" cy="-8509.477820577746"/><circle fill="#02e666" r="53.80765374099906" cx="2375.0433980719185" cy="-8721.666231225423"/><circle fill="#0210e6" r="50.24868552975871" cx="2096.076961559757" cy="-8861.401312518634"/><circle fill="#e60282" r="86.92357617674462" cx="1283.1271259732553" cy="-6668.472333084172"/><circle fill="#e6d802" r="51.036048873194304" cx="1046.2504396044544" cy="-6992.326994656899"/><circle fill="#02e666" r="49.36229428225003" cx="1339.893457889593" cy="-7059.18364692246"/><circle fill="#0210e6" r="66.60230304632756" cx="552.3799478118855" cy="-7642.374262707481"/><circle fill="#e60282" r="45.89718416038031" cx="755.3675458128197" cy="-7379.17921892982"/><circle fill="#e6d802" r="42.07246475231692" cx="869.8995117295098" cy="-7616.694130299942"/><circle fill="#02e666" r="59.572788874132115" cx="1549.5253318748878" cy="-7788.92746538934"/><circle fill="#0210e6" r="42.44568537750551" cx="1450.5700565403354" cy="-7503.390998563043"/><circle fill="#e60282" r="40.19967655611444" cx="1276.3112711826077" cy="-7679.645989762857"/><circle fill="#e6d802" r="90.17263052244219" cx="1676.951666478114" cy="-2970.990794268748"/></g></svg>