<?xml version='1.0' encoding='UTF-8'?>
<svg preserveAspectRatio="xMidYMid meet" xmlns="http://www.w3.org/2000/svg" xmlns:svg="http://www.w3.org/2000/svg"><g><circle fill="#000000" r="70.0" cx="0.0" cy="0.0"/><path fill="#00001a" d="M 100.0,0.0 a 100.0 100.0 0.0 1 1 -100.0,-100.0 a 100.0 100.0 0.0 0 1 100.0,100.0 z M 70.0,0.0 a 70.0 70.0 0.0 1 0 -70.0,70.0 a 70.0 70.0 0.0 0 0 70.0,-70.0 z"/><circle fill="#000000" r="70.0" cx="0.0" cy="0.0"/><path fill="#4d032c" d="M -14.218404333879478,-68.540768730722 l -0.7617002321721155 -3.6718268962886778 a 73.75 73.75 0.0 0 1 38.113251274009,2.184601057780554 l -1.1762616970147803 3.5607454865710224 a 70.0 70.0 0.0 0 0 -36.175289344822104,-2.0735196480628986 z"/><path fill="#e6cb0b" d="M -21.956885010942674,66.46724908265905 l -1.1762616970147857 3.5607454865710206 a 73.75 73.75 0.0 0 1 -31.91474329522108,-20.948545650176825 l 2.7990452543989086 -2.495565199273898 a 70.0 70.0 0.0 0 0 30.291959737836958,19.8833653628797 z"/><path fill="#186b9d" d="M -68.54076873072198,14.218404333879493 l -3.6718268962886778 0.7617002321721161 a 73.75 73.75 0.0 0 1 2.1846010577805397,-38.11325127400896 l 3.5607454865710224 1.1762616970147803 a 70.0 70.0 0.0 0 0 -2.0735196480628844,36.17528934482206 z"/><path fill="#2aff93" d="M -46.5838837197794,-52.24884474877959 l -2.495565199273897 -2.799045254398906 a 73.75 73.75 0.0 0 1 34.09934435300177,-17.16470562383219 l 0.7617002321721102 3.671826896288678 a 70.0 70.0 0.0 0 0 -32.36547938589998,16.291923981942418 z"/><path fill="#ff026e" d="M 70.77244802476251,-20.7442305372431 l 3.598599052106567 -1.0547913832496527 a 77.5 77.5 0.0 0 1 0.9356799579944068,40.10603869812656 l -3.643873888783716 -0.8858233924661505 a 73.75 73.75 0.0 0 0 -0.8904051213172579,-38.16542392241076 z"/><path fill="#eb3b8f" d="M 53.35125463959476,50.918622608836536 l 2.712775659640414 2.5890825055340585 a 77.5 77.5 0.0 0 1 -34.26500837874241,20.863341962498517 l -1.054791383249647 -3.5985990521065645 a 73.75 73.75 0.0 0 0 32.607024102351645,-19.85382541592601 z"/><path fill="#01a1e7" d="M 20.744230537243233,70.77244802476247 l 1.054791383249653 3.598599052106567 a 77.5 77.5 0.0 0 1 -40.106038698126625,0.9356799579944068 l 0.8858233924661505 -3.643873888783716 a 73.75 73.75 0.0 0 0 38.165423922410824,-0.8904051213172579 z"/><path fill="#44a2da" d="M -76.90059287373101,-9.620229501871124 l -3.720996429374081 -0.46549497589698846 a 81.25 81.25 0.0 0 1 15.844107112024359,-38.95956378710214 l 2.989729947280644 2.2636286891478576 a 77.5 77.5 0.0 0 0 -15.112840629930922,37.16143007385127 z"/><path fill="#00e14c" d="M -61.78775224380009,-46.78165957572237 l -2.9897299472806504 -2.2636286891478554 a 81.25 81.25 0.0 0 1 33.201181152845834,-25.81791840397857 l 1.4573677402262284 3.4552249231776386 a 77.5 77.5 0.0 0 0 -31.668818945791415,24.626322169948786 z"/><path fill="#c6840f" d="M 9.620229501871119,-76.90059287373101 l 0.4654949758969891 -3.720996429374081 a 81.25 81.25 0.0 0 1 38.95956378710213,15.844107112024345 l -2.2636286891478576 2.989729947280651 a 77.5 77.5 0.0 0 0 -37.16143007385126,-15.112840629930915 z"/><path fill="#056493" d="M 61.78775224380009,46.781659575722365 l 2.98972994728065 2.263628689147856 a 81.25 81.25 0.0 0 1 -33.20118115284584,25.817918403978574 l -1.4573677402262248 -3.4552249231776386 a 77.5 77.5 0.0 0 0 31.668818945791415,-24.626322169948793 z"/><path fill="#c99400" d="M 52.28883042151801,62.18875069616476 l 2.4133306348392924 2.8702500321306808 a 85.0 85.0 0.0 0 1 -39.85820030379191,18.63482717541738 l -0.6548806214367033 -3.692374760457909 a 81.25 81.25 0.0 0 0 38.09975029038932,-17.812702447090153 z"/><path fill="#30b4f9" d="M -50.60331337273949,-68.29571491462933 l -2.232499119385566 -3.013046246233647 a 88.75 88.75 0.0 0 1 42.73303722478508,-16.86434376290401 l 0.4268778281974619 3.725624151708459 a 85.0 85.0 0.0 0 0 -40.927415933596976,16.151765857429197 z"/><path fill="#295c79" d="M 77.97161235377192,33.844167399318934 l 3.439924074431113 1.4931250323228966 a 88.75 88.75 0.0 0 1 -28.575723936077942,35.9714687292211 l -2.2324991193855652 -3.0130462462336567 a 85.0 85.0 0.0 0 0 27.368298981032396,-34.45154751531034 z"/><path fill="#c90046" d="M -87.22178526668968,16.39886199989118 l -3.6854275464798456 0.6929096619672325 a 92.5 92.5 0.0 0 1 3.633371298797288,-47.743469613590804 l 3.538128710042116 1.2426364034486141 a 88.75 88.75 0.0 0 0 -3.4860724623595587,45.807923548174955 z"/><path fill="#f4d842" d="M 83.73571280433013,29.409061548283752 l 3.538128710042118 1.242636403448612 a 92.5 92.5 0.0 0 1 -27.01832665293511,39.53037190078139 l -2.4427911430312363 -2.845219048074881 a 88.75 88.75 0.0 0 0 25.92298908592423,-37.92778925615512 z"/><path fill="#675e00" d="M 34.03731084730841,-86.00994983304955 l 1.3798909802962898 -3.4868898580966023 a 96.25 96.25 0.0 0 1 40.00341453163469,29.698903873992542 l -2.9384655724378916 2.3297897071618223 a 92.5 92.5 0.0 0 0 -38.444839939493086,-28.54180372305776 z"/><path fill="#fe8cb8" d="M 86.0099498330495,34.03731084730856 l 3.4868898580966023 1.3798909802962895 a 96.25 96.25 0.0 0 1 -29.69890387399255,40.00341453163471 l -2.3297897071618294 -2.938465572437906 a 92.5 92.5 0.0 0 0 28.541803723057775,-38.44483993949309 z"/><path fill="#5f3002" d="M 57.46814610999177,72.48215078680157 l 2.3297897071618285 2.938465572437901 a 96.25 96.25 0.0 0 1 -45.721712485246904,19.79452128551893 l -0.5484242856586974 -3.7096806874581176 a 92.5 92.5 0.0 0 0 43.94034706374377,-19.023306170498714 z"/><path fill="#900334" d="M -86.00994983304949,-34.037310847308575 l -3.4868898580966015 -1.379890980296292 a 96.25 96.25 0.0 0 1 29.698903873992514,-40.003414531634625 l 2.3297897071618223 2.9384655724378916 a 92.5 92.5 0.0 0 0 -28.541803723057733,38.44483993949303 z"/><path fill="#fff7aa" d="M -57.46814610999176,-72.48215078680157 l -2.3297897071618285 -2.9384655724379014 a 96.25 96.25 0.0 0 1 45.72171248524689,-19.794521285518915 l 0.5484242856586974 3.7096806874581176 a 92.5 92.5 0.0 0 0 -43.94034706374376,19.0233061704987 z"/><path fill="#f77702" d="M 96.18678698294129,-3.487765745900747 l 3.74753715517953 -0.1358869771130199 a 100.0 100.0 0.0 0 1 -11.57683436297286,50.45263947945165 l -3.313405866568047 -1.7560870033664173 a 96.25 96.25 0.0 0 0 11.142703074361378,-48.56066549897221 z"/><path fill="#186698" d="M 51.11388722986997,81.55631816267906 l 1.991450151813116 3.1775188894550284 a 100.0 100.0 0.0 0 1 -49.48168465866934,15.200487085986724 l -0.13588697711301734 -3.747537155179529 a 96.25 96.25 0.0 0 0 47.626121483969236,-14.630468820262223 z"/><path fill="#f76d14" d="M -96.18678698294129,3.487765745900759 l -3.7475371551795305 0.135886977113017 a 100.0 100.0 0.0 0 1 11.576834362972862,-50.45263947945156 l 3.313405866568047 1.7560870033664173 a 96.25 96.25 0.0 0 0 -11.142703074361378,48.56066549897213 z"/><path fill="#fff8e5" d="M -3.4877657459008264,-96.18678698294127 l -0.13588697711301967 -3.74753715517953 a 100.0 100.0 0.0 0 1 50.45263947945155,11.576834362972804 l -1.7560870033664173 3.313405866568047 a 96.25 96.25 0.0 0 0 -48.560665498972114,-11.142703074361322 z"/><path fill="#6f1b45" d="M 81.55631816267916,-51.11388722986982 l 3.17751888945503 -1.9914501518131131 a 100.0 100.0 0.0 0 1 15.200487085986666,49.48168465866915 l -3.747537155179529 0.13588697711301734 a 96.25 96.25 0.0 0 0 -14.630468820262166,-47.62612148396906 z"/></g></svg>