<?xml version='1.0' encoding='UTF-8'?>
<svg preserveAspectRatio="xMidYMid meet" xmlns="http://www.w3.org/2000/svg" xmlns:svg="http://www.w3.org/2000/svg"><g><circle fill="#000000" r="50.0" cx="0.0" cy="0.0"/><path fill="#00000d" d="M 100.0,0.0 a 100.0 100.0 0.0 1 1 -100.0,-100.0 a 100.0 100.0 0.0 0 1 100.0,100.0 z M 50.0,0.0 a 50.0 50.0 0.0 1 0 -50.0,50.0 a 50.0 50.0 0.0 0 0 50.0,-50.0 z"/><circle fill="#000000" r="50.0" cx="0.0" cy="0.0"/><path fill="#fda900" d="M 52.27204381402092,-2.738904811704489 l 1.5603595168364452 -0.08175835258819257 a 53.90625 53.90625 0.0 0 1 -5.801842917418551,27.29409887392492 l -1.3921901569112691 -0.7093749481052853 a 52.34375 52.34375 0.0 0 0 5.633673557493374,-26.502965573231442 z"/><path fill="#008b48" d="M 2.738904811704402,52.27204381402092 l 0.08175835258819159 1.5603595168364452 a 53.90625 53.90625 0.0 0 1 -27.294098873924884,-5.801842917418551 l 0.7093749481052818 -1.3921901569112691 a 52.34375 52.34375 0.0 0 0 26.50296557323141,5.633673557493374 z"/><path fill="#2e0f00" d="M -23.764060761526984,46.63837025652755 l -0.7093749481052833 1.39219015691127 a 53.90625 53.90625 0.0 0 1 -20.736461539513908,-18.671592792213698 l 1.3104318043230805 -0.8509845687311604 a 52.34375 52.34375 0.0 0 0 20.13540468329611,18.13038720403359 z"/><path fill="#166aa5" d="M -43.8994654448231,28.507983052493962 l -1.3104318043230776 0.8509845687311628 a 53.90625 53.90625 0.0 0 1 -8.622506081711183,-26.53830445693253 l 1.5603595168364421 -0.0817583525881922 a 52.34375 52.34375 0.0 0 0 8.372578369197818,25.769078240789558 z"/><path fill="#9a3500" d="M -52.27204381402092,2.7389048117044044 l -1.5603595168364452 0.08175835258819099 a 53.90625 53.90625 0.0 0 1 5.801842917418551,-27.29409887392486 l 1.3921901569112691 0.7093749481052818 a 52.34375 52.34375 0.0 0 0 -5.633673557493374,26.502965573231386 z"/><path fill="#caa019" d="M -46.638370256527544,-23.76406076152699 l -1.39219015691127 -0.7093749481052832 a 53.90625 53.90625 0.0 0 1 18.671592792213698,-20.73646153951391 l 0.8509845687311604 1.3104318043230805 a 52.34375 52.34375 0.0 0 0 -18.13038720403359,20.135404683296112 z"/><path fill="#823b08" d="M -28.507983052493948,-43.8994654448231 l -0.8509845687311628 -1.3104318043230776 a 53.90625 53.90625 0.0 0 1 26.538304456932526,-8.622506081711183 l 0.0817583525881922 1.5603595168364421 a 52.34375 52.34375 0.0 0 0 -25.769078240789554,8.372578369197818 z"/><path fill="#ece491" d="M -2.738904811704395,-52.272043814020925 l -0.08175835258819109 -1.5603595168364452 a 53.90625 53.90625 0.0 0 1 27.29409887392486,5.8018429174185435 l -0.7093749481052818 1.3921901569112691 a 52.34375 52.34375 0.0 0 0 -26.502965573231386,-5.633673557493367 z"/><path fill="#1e7b8b" d="M 2.6500882543506807,58.53378999609245 l 0.07066902011601833 1.5609010665624654 a 60.15625 60.15625 0.0 0 1 -30.411857888574666,-6.690783332584729 l 0.7192493666002093 -1.387114486495335 a 58.59375 58.59375 0.0 0 0 29.62193950185844,6.516996752517599 z"/><path fill="#d0b500" d="M -26.971851247507747,52.01679324357486 l -0.7192493666002063 1.3871144864953295 a 60.15625 60.15625 0.0 0 1 -22.99204984149555,-21.000317281523287 l 1.3164454663793137 -0.8416516999622594 a 58.59375 58.59375 0.0 0 0 22.394853741716442,20.45485449499022 z"/><path fill="#32ff8d" d="M -49.366704989224175,31.561938748584645 l -1.3164454663793113 0.8416516999622573 a 60.15625 60.15625 0.0 0 1 -9.41154060705143,-29.68283317408021 l 1.5609010665624652 -0.07066902011601783 a 58.59375 58.59375 0.0 0 0 9.167085006868277,28.91185049423397 z"/><path fill="#108b3a" d="M -52.01679324357481,-26.97185124750785 l -1.3871144864953282 -0.7192493666002088 a 60.15625 60.15625 0.0 0 1 21.000317281523238,-22.992049841495458 l 0.8416516999622594 1.3164454663793137 a 58.59375 58.59375 0.0 0 0 -20.45485449499017,22.394853741716354 z"/><path fill="#3a88b3" d="M 49.366704989224125,-31.561938748584726 l 1.3164454663793106 -0.8416516999622583 a 60.15625 60.15625 0.0 0 1 9.41154060705146,29.682833174080244 l -1.5609010665624652 0.07066902011601783 a 58.59375 58.59375 0.0 0 0 -9.167085006868305,-28.911850494234002 z"/><path fill="#d2c964" d="M 58.53378999609245,-2.650088254350677 l 1.5609010665624654 -0.07066902011601824 a 60.15625 60.15625 0.0 0 1 -6.690783332584736,30.411857888574666 l -1.387114486495328 -0.7192493666002093 a 58.59375 58.59375 0.0 0 0 6.516996752517599,-29.62193950185844 z"/><path fill="#005936" d="M 46.756076259383576,44.92862391492986 l 1.1266524399851476 1.0826174437332485 a 66.40625 66.40625 0.0 0 1 -29.420689922528766,17.777026867280775 l -0.43440091239623513 -1.500900428845739 a 64.84375 64.84375 0.0 0 0 28.728438394939854,-17.358743882168284 z"/><path fill="#45da90" d="M 18.02763786444378,62.2873677970981 l 0.4344009123962358 1.5009004288457373 a 66.40625 66.40625 0.0 0 1 -34.367578303415065,0.6850119095592735 l 0.3742479888605885 -1.5170183561294834 a 64.84375 64.84375 0.0 0 0 33.55892940215824,-0.6688939822755273 z"/><path fill="#fed56d" d="M -44.928623914929766,46.75607625938367 l -1.0826174437332476 1.1266524399851483 a 66.40625 66.40625 0.0 0 1 -17.77702686728081,-29.42068992252879 l 1.500900428845739 -0.43440091239623513 a 64.84375 64.84375 0.0 0 0 17.35874388216832,28.72843839493988 z"/><path fill="#f97b3f" d="M -62.95626177937362,-15.531291537714463 l -1.5170183561294848 -0.3742479888605893 a 66.40625 66.40625 0.0 0 1 16.59055143613429,-30.105701832087984 l 1.1266524399851505 1.0826174437332483 a 64.84375 64.84375 0.0 0 0 -16.200185519989958,29.397332377215324 z"/><path fill="#0c5928" d="M -18.027637864443772,-62.287367797098106 l -0.43440091239623563 -1.5009004288457373 a 66.40625 66.40625 0.0 0 1 34.36757830341505,-0.6850119095592735 l -0.3742479888605885 1.5170183561294834 a 64.84375 64.84375 0.0 0 0 -33.55892940215823,0.6688939822755273 z"/><path fill="#a08100" d="M 44.92862391492977,-46.75607625938366 l 1.0826174437332474 -1.1266524399851485 a 66.40625 66.40625 0.0 0 1 17.77702686728081,29.42068992252879 l -1.500900428845739 0.43440091239623513 a 64.84375 64.84375 0.0 0 0 -17.35874388216832,-28.72843839493988 z"/><path fill="#044a21" d="M 62.95626177937362,15.531291537714456 l 1.5170183561294848 0.37424798886058913 a 66.40625 66.40625 0.0 0 1 -16.590551436134298,30.10570183208799 l -1.1266524399851505 -1.0826174437332483 a 64.84375 64.84375 0.0 0 0 16.200185519989965,-29.39733237721533 z"/><path fill="#baab54" d="M -33.35823197108585,62.78176207168548 l -0.7331479554084804 1.37981894663045 a 72.65625 72.65625 0.0 0 1 -27.5134116490746,-25.641711872728095 l 1.3248342274315874 -0.8283842827008101 a 71.09375 71.09375 0.0 0 0 26.921725377051494,25.090277208798454 z"/><path fill="#3986b1" d="M -60.27995734813735,37.69148486288703 l -1.32483422743159 0.8283842827008137 a 72.65625 72.65625 0.0 0 1 -11.006457496513246,-35.963079702840815 l 1.5615322381092938 -0.05498471919885617 a 71.09375 71.09375 0.0 0 0 10.769759485835543,35.18968013933886 z"/><path fill="#f10063" d="M -71.0497168339729,2.501804723548168 l -1.5615322381092944 0.054984719198860645 a 72.65625 72.65625 0.0 0 1 8.44966805376626,-36.64816936924136 l 1.3798189466304507 0.7331479554084765 a 71.09375 71.09375 0.0 0 0 -8.267954762287417,35.86003669463402 z"/><path fill="#eadf97" d="M -62.78176207168548,-33.358231971085864 l -1.37981894663045 -0.7331479554084803 a 72.65625 72.65625 0.0 0 1 25.64171187272808,-27.5134116490746 l 0.8283842827008172 1.3248342274315874 a 71.09375 71.09375 0.0 0 0 -25.090277208798447,26.921725377051494 z"/><path fill="#00c151" d="M 62.78176207168548,33.35823197108585 l 1.3798189466304502 0.7331479554084802 a 72.65625 72.65625 0.0 0 1 -25.641711872728052,27.51341164907458 l -0.8283842827008101 -1.3248342274315874 a 71.09375 71.09375 0.0 0 0 25.090277208798412,-26.921725377051473 z"/><path fill="#ea72b2" d="M 37.69148486288708,60.27995734813732 l 0.8283842827008151 1.3248342274315892 a 72.65625 72.65625 0.0 0 1 -35.96307970284095,11.006457496513304 l -0.054984719198863274 -1.5615322381092938 a 71.09375 71.09375 0.0 0 0 35.189680139338996,-10.7697594858356 z"/><path fill="#ffbcd7" d="M -30.102978661395902,-71.24511449758533 l -0.6081409830585033 -1.439295242375461 a 78.90625 78.90625 0.0 0 1 40.45671472367399,-5.617695376149545 l -0.19298208077662338 1.5505367349724821 a 77.34375 77.34375 0.0 0 0 -39.65559165983886,5.506453883552524 z"/><path fill="#1d485c" d="M 9.552612998442958,-76.75156838113784 l 0.1929820807766252 -1.5505367349724817 a 78.90625 78.90625 0.0 0 1 37.84539039243633,15.363290455369075 l -0.9423957519139776 1.2463131615988345 a 77.34375 77.34375 0.0 0 0 -37.095976721298975,-15.059066881995427 z"/><path fill="#ff7f58" d="M 61.692501499142445,46.64858971974187 l 1.2463131615988368 0.942395751913978 a 78.90625 78.90625 0.0 0 1 -32.22769501628678,25.093424268304865 l -0.6081409830585045 -1.4392952423754508 a 77.34375 77.34375 0.0 0 0 31.58952283774645,-24.596524777843392 z"/><path fill="#ff3192" d="M 30.102978661396037,71.24511449758526 l 0.608140983058505 1.4392952423754604 a 78.90625 78.90625 0.0 0 1 -40.45671472367403,5.617695376149588 l 0.19298208077662338 -1.5505367349724821 a 77.34375 77.34375 0.0 0 0 39.655591659838905,-5.506453883552567 z"/><path fill="#d1b04b" d="M -71.24511449758526,30.10297866139604 l -1.4392952423754604 0.6081409830585051 a 78.90625 78.90625 0.0 0 1 -5.617695376149588,-40.45671472367401 l 1.5505367349724821 0.19298208077661627 a 77.34375 77.34375 0.0 0 0 5.506453883552567,39.65559165983889 z"/><path fill="#9d0d59" d="M -61.692501499142445,-46.64858971974188 l -1.246313161598837 -0.9423957519139776 a 78.90625 78.90625 0.0 0 1 32.22769501628679,-25.093424268304886 l 0.6081409830585045 1.439295242375465 a 77.34375 77.34375 0.0 0 0 -31.589522837746454,24.5965247778434 z"/><path fill="#fbcd4f" d="M 61.77606857604735,56.31724771639675 l 1.1546928705803243 1.0526588358204998 a 85.15625 85.15625 0.0 0 1 -37.116076630458345,23.77927065805604 l -0.47366394158109415 -1.4889757286288727 a 83.59375 83.59375 0.0 0 0 36.43504770145911,-23.342953765247664 z"/><path fill="#000000" d="M -17.884132905596974,81.65826859098497 l -0.33428285804854146 1.5263227774015884 a 85.15625 85.15625 0.0 0 1 -39.151490788571635,-20.253829921758793 l 1.0526588358204947 -1.1546928705803268 a 83.59375 83.59375 0.0 0 0 38.43311481079968,19.88220001493753 z"/><path fill="#321f16" d="M -56.31724771639664,61.77606857604745 l -1.052658835820498 1.154692870580326 a 85.15625 85.15625 0.0 0 1 -23.77927065805613,-37.11607663045843 l 1.4889757286288727 -0.47366394158109415 a 83.59375 83.59375 0.0 0 0 23.342953765247756,36.4350477014592 z"/><path fill="#0077de" d="M -79.6602014816444,25.341020874588256 l -1.4889757286288674 0.47366394158108877 a 85.15625 85.15625 0.0 0 1 -2.035414158113289,-44.033100579814864 l 1.5263227774015888 0.33428285804854596 a 83.59375 83.59375 0.0 0 0 1.9980671093405675,43.22515378018523 z"/><path fill="#8c5620" d="M 56.31724771639675,-61.776068576047344 l 1.0526588358205 -1.1546928705803243 a 85.15625 85.15625 0.0 0 1 23.779270658055985,37.11607663045819 l -1.4889757286288727 0.47366394158109415 a 83.59375 83.59375 0.0 0 0 -23.342953765247614,-36.435047701458956 z"/><path fill="#bb9d0f" d="M -89.50592068035132,7.7839307053158 l -1.5566247074843709 0.13537270791853584 a 91.40625 91.40625 0.0 0 1 8.240416042079328,-46.5922581710144 l 1.4157628947992578 0.6610761497056359 a 89.84375 89.84375 0.0 0 0 -8.099554229394215,45.79580931339023 z"/><path fill="#833400" d="M -51.494042072276876,-73.62243574564128 l -0.8955485577787284 -1.280390186880718 a 91.40625 91.40625 0.0 0 1 44.47028721682137,-16.15971945531371 l 0.13537270791853473 1.5566247074843744 a 89.84375 89.84375 0.0 0 0 -43.71011136696117,15.883484934710054 z"/><path fill="#cfa90f" d="M -7.783930705315704,-89.50592068035132 l -0.13537270791853417 -1.5566247074843709 a 91.40625 91.40625 0.0 0 1 46.59225817101438,8.240416042079357 l -0.6610761497056501 1.4157628947992578 a 89.84375 89.84375 0.0 0 0 -45.795809313390194,-8.099554229394244 z"/><path fill="#c57700" d="M 73.62243574564133,-51.49404207227682 l 1.280390186880718 -0.8955485577787284 a 91.40625 91.40625 0.0 0 1 16.159719455313695,44.470287216821276 l -1.5566247074843602 0.13537270791854183 a 89.84375 89.84375 0.0 0 0 -15.883484934710054,-43.71011136696109 z"/><path fill="#0c5d2a" d="M 81.40636645095711,38.01187860807442 l 1.4157628947992535 0.661076149705643 a 91.40625 91.40625 0.0 0 1 -30.432538715700733,36.22987117474189 l -0.8955485577787243 -1.280390186880723 a 89.84375 89.84375 0.0 0 0 29.912324378680204,-35.61055713756681 z"/><path fill="#004215" d="M 7.783930705315638,89.50592068035132 l 0.13537270791853437 1.5566247074843709 a 91.40625 91.40625 0.0 0 1 -46.59225817101447,-8.2404160420794 l 0.661076149705643 -1.4157628947992578 a 89.84375 89.84375 0.0 0 0 45.79580931339029,8.099554229394286 z"/><path fill="#06e64b" d="M -38.011878608074554,81.40636645095705 l -0.6610761497056442 1.415762894799253 a 91.40625 91.40625 0.0 0 1 -36.22987117474186,-30.432538715700762 l 1.280390186880723 -0.8955485577787314 a 89.84375 89.84375 0.0 0 0 35.61055713756678,29.91232437868024 z"/><path fill="#d57421" d="M -73.62243574564131,51.49404207227683 l -1.2803901868807186 0.8955485577787275 a 91.40625 91.40625 0.0 0 1 -16.159719455313653,-44.470287216821234 l 1.5566247074843602 -0.13537270791853473 a 89.84375 89.84375 0.0 0 0 15.883484934710012,43.710111366961044 z"/><path fill="#daa612" d="M -77.06176572708351,57.406385116000784 l -1.2530368410907888 0.9334371563577365 a 97.65625 97.65625 0.0 0 1 -18.677717084406694,-46.97345541631395 l 1.5518803144412914 -0.1818618696967107 a 96.09375 96.09375 0.0 0 0 18.378873611056193,46.22188012965293 z"/><path fill="#bb5a8f" d="M -11.184504986347768,-95.4406393381397 l -0.18186186969671186 -1.5518803144412963 a 97.65625 97.65625 0.0 0 1 50.01906423626695,7.311350228362164 l -0.6184431580835579 1.4348987107875075 a 96.09375 96.09375 0.0 0 0 -49.21875920848668,-7.194368624708375 z"/><path fill="#57fec1" d="M 88.2462707134313,38.03425422213898 l 1.434898710787501 0.6184431580835605 a 97.65625 97.65625 0.0 0 1 -31.341347151860305,39.66210518795179 l -0.9334371563577406 -1.2530368410907897 a 96.09375 96.09375 0.0 0 0 30.839885597430545,-39.027511504944556 z"/><path fill="#0d4bb3" d="M 57.406385116000784,77.06176572708353 l 0.9334371563577365 1.2530368410907888 a 97.65625 97.65625 0.0 0 1 -46.973455416314046,18.67771708440671 l -0.1818618696967107 -1.5518803144412914 a 96.09375 96.09375 0.0 0 0 46.22188012965302,-18.378873611056207 z"/></g></svg>