<?xml version='1.0' encoding='UTF-8'?>
<svg xmlns="http://www.w3.org/2000/svg" xmlns:svg="http://www.w3.org/2000/svg"><g><path fill="#d60c00" d="M 100.0,100.0 l -38.56491945886716 -70.0909907700775 a 80.0 80.0 0.0 0 1 60.85721826719466,-6.7403401688060285 l -22.2922988083275 76.83133093888353 z"/><path fill="#000000" d="M 100.0,100.0 l 22.2922988083275 -76.83133093888353 a 80.0 80.0 0.0 0 1 47.798691961749995,38.266411480016366 l -70.0909907700775 38.56491945886716 z"/><path fill="#f4894c" d="M 100.0,100.0 l 70.0909907700775 -38.56491945886716 a 80.0 80.0 0.0 0 1 6.7403401688060285,60.857218267194675 l -76.83133093888353 -22.292298808327516 z"/><path fill="#931500" d="M 100.0,100.0 l 76.83133093888351 22.292298808327526 a 80.0 80.0 0.0 0 1 -38.26641148001637,47.79869196174998 l -38.56491945886714 -70.09099077007751 z"/><path fill="#fe121c" d="M 100.0,100.0 l 38.56491945886714 70.09099077007751 a 80.0 80.0 0.0 0 1 -60.85721826719465,6.740340168806014 l 22.292298808327512 -76.83133093888353 z"/><path fill="#fe8274" d="M 100.0,100.0 l -22.292298808327512 76.83133093888353 a 80.0 80.0 0.0 0 1 -47.79869196175001,-38.2664114800164 l 70.09099077007752 -38.564919458867124 z"/><path fill="#210001" d="M 100.0,100.0 l -70.09099077007752 38.564919458867124 a 80.0 80.0 0.0 0 1 -6.740340168805986,-60.85721826719467 l 76.83133093888351 22.29229880832754 z"/><path fill="#5a1100" d="M 100.0,100.0 l -76.83133093888351 -22.29229880832754 a 80.0 80.0 0.0 0 1 38.26641148001635,-47.79869196174995 l 38.56491945886716 70.0909907700775 z"/><path fill="#b1b8f9" d="M 22.139875258511907,118.37936275391269 l -19.465031185372023 4.594840688478175 a 100.0 100.0 0.0 0 1 28.766334150607587,-95.77315918113786 l 13.711764355250502 14.559791147749394 a 80.0 80.0 0.0 0 0 -23.013067320486066,76.61852734491029 z"/><path fill="#000000" d="M 45.15294257899798,41.76083540900241 l -13.71176435525051 -14.559791147749392 a 100.0 100.0 0.0 0 1 97.32515592686018,-22.97420344239098 l -5.753266830121532 19.154631836227594 a 80.0 80.0 0.0 0 0 -77.86012474148814,18.37936275391278 z"/><path fill="#000000" d="M 123.0130673204861,23.381472655089652 l 5.753266830121518 -19.15463183622759 a 100.0 100.0 0.0 0 1 68.55882177625253,72.79895573874708 l -19.465031185372027 4.594840688478172 a 80.0 80.0 0.0 0 0 -54.84705742100202,-58.23916459099767 z"/><path fill="#000e3e" d="M 177.8601247414881,81.62063724608731 l 19.46503118537202 -4.5948406884781905 a 100.0 100.0 0.0 0 1 -28.766334150607584,95.77315918113793 l -13.711764355250494 -14.559791147749394 a 80.0 80.0 0.0 0 0 23.01306732048606,-76.61852734491035 z"/><path fill="#100227" d="M 154.84705742100203,158.23916459099758 l 13.711764355250509 14.559791147749394 a 100.0 100.0 0.0 0 1 -97.32515592686018,22.974203442390973 l 5.753266830121532 -19.154631836227594 a 80.0 80.0 0.0 0 0 77.86012474148814,-18.379362753912773 z"/><path fill="#6b05d4" d="M 76.9869326795139,176.61852734491035 l -5.753266830121521 19.154631836227587 a 100.0 100.0 0.0 0 1 -68.55882177625251,-72.79895573874708 l 19.465031185372027 -4.594840688478165 a 80.0 80.0 0.0 0 0 54.847057421002006,58.23916459099766 z"/><path fill="#b1b8f9" d="M -1.4670562288537425,-7.742454493345548 l -13.711764355250507 -14.559791147749397 a 44.0 44.0 0.0 1 1 60.331763163102224,64.06308105009735 l -13.711764355250509 -14.5597911477494 a 24.0 24.0 0.0 1 0 -32.90823445260121,-34.94349875459855 z"/><path fill="#000000" d="M 142.5741745428993,-41.744275588084164 l 5.7532668301215235 -19.154631836227587 a 44.0 44.0 0.0 1 1 -25.31437405253471,84.2803800794014 l 5.753266830121529 -19.154631836227594 a 24.0 24.0 0.0 1 0 13.80784039229166,-45.97111640694621 z"/><path fill="#000000" d="M 244.04123077175302,65.99817890526154 l 19.465031185372023 -4.594840688478174 a 44.0 44.0 0.0 1 1 -85.64613721563691,20.21729902930396 l 19.465031185372027 -4.594840688478172 a 24.0 24.0 0.0 1 0 46.71607484489286,-11.027617652347612 z"/><path fill="#000e3e" d="M 201.46705622885378,207.7424544933456 l 13.711764355250505 14.559791147749397 a 44.0 44.0 0.0 1 1 -60.331763163102224,-64.06308105009735 l 13.711764355250509 14.5597911477494 a 24.0 24.0 0.0 1 0 32.90823445260121,34.94349875459855 z"/><path fill="#100227" d="M 57.425825457100714,241.74427558808415 l -5.753266830121526 19.154631836227587 a 44.0 44.0 0.0 1 1 25.31437405253471,-84.2803800794014 l -5.753266830121525 19.154631836227594 a 24.0 24.0 0.0 1 0 -13.80784039229166,45.97111640694621 z"/><path fill="#6b05d4" d="M -44.04123077175299,134.0018210947385 l -19.465031185372023 4.594840688478171 a 44.0 44.0 0.0 1 1 85.64613721563691,-20.21729902930396 l -19.465031185372027 4.594840688478175 a 24.0 24.0 0.0 1 0 -46.71607484489286,11.027617652347612 z"/><path fill="#000000" d="M -1.4670562288537425,-7.742454493345548 l -15.24765179414367 -4.848619882455972 a 16.0 16.0 0.0 0 1 7.894425811613992,-9.361590096634782 l 7.353225982529677 14.210209979090754 z"/><path fill="#e11100" d="M -1.4670562288537425,-7.742454493345548 l -7.353225982529677 -14.210209979090754 a 16.0 16.0 0.0 0 1 12.20184586498566,-1.0374418150529099 l -4.848619882455984 15.247651794143664 z"/><path fill="#ffffff" d="M -1.4670562288537425,-7.742454493345548 l 4.848619882455984 -15.247651794143664 a 16.0 16.0 0.0 0 1 9.361590096634771,7.894425811613986 l -14.210209979090754 7.353225982529678 z"/><path fill="#f20016" d="M -1.4670562288537425,-7.742454493345548 l 14.210209979090754 -7.353225982529678 a 16.0 16.0 0.0 0 1 1.0374418150529099,12.201845864985666 l -15.247651794143664 -4.848619882455988 z"/><path fill="#8d090c" d="M -1.4670562288537425,-7.742454493345548 l 15.247651794143666 4.848619882455983 a 16.0 16.0 0.0 0 1 -7.89442581161399,9.361590096634773 l -7.3532259825296755 -14.210209979090756 z"/><path fill="#700100" d="M -1.4670562288537425,-7.742454493345548 l 7.353225982529679 14.210209979090754 a 16.0 16.0 0.0 0 1 -12.201845864985666,1.0374418150529099 l 4.848619882455987 -15.247651794143664 z"/><path fill="#ff2103" d="M -1.4670562288537425,-7.742454493345548 l -4.848619882455982 15.247651794143666 a 16.0 16.0 0.0 0 1 -9.361590096634771,-7.8944258116139885 l 14.210209979090754 -7.353225982529677 z"/><path fill="#3c0400" d="M -1.4670562288537425,-7.742454493345548 l -14.210209979090752 7.3532259825296835 a 16.0 16.0 0.0 0 1 -1.0374418150529188,-12.20184586498565 l 15.247651794143671 4.848619882455965 z"/><path fill="#d60c00" d="M 100.0,100.0 l -38.56491945886716 -70.0909907700775 a 80.0 80.0 0.0 0 1 60.85721826719466,-6.7403401688060285 l -22.2922988083275 76.83133093888353 z"/><path fill="#000000" d="M 100.0,100.0 l 22.2922988083275 -76.83133093888353 a 80.0 80.0 0.0 0 1 47.798691961749995,38.266411480016366 l -70.0909907700775 38.56491945886716 z"/><path fill="#f4894c" d="M 100.0,100.0 l 70.0909907700775 -38.56491945886716 a 80.0 80.0 0.0 0 1 6.7403401688060285,60.857218267194675 l -76.83133093888353 -22.292298808327516 z"/><path fill="#931500" d="M 100.0,100.0 l 76.83133093888351 22.292298808327526 a 80.0 80.0 0.0 0 1 -38.26641148001637,47.79869196174998 l -38.56491945886714 -70.09099077007751 z"/><path fill="#fe121c" d="M 100.0,100.0 l 38.56491945886714 70.09099077007751 a 80.0 80.0 0.0 0 1 -60.85721826719465,6.740340168806014 l 22.292298808327512 -76.83133093888353 z"/><path fill="#fe8274" d="M 100.0,100.0 l -22.292298808327512 76.83133093888353 a 80.0 80.0 0.0 0 1 -47.79869196175001,-38.2664114800164 l 70.09099077007752 -38.564919458867124 z"/><path fill="#210001" d="M 100.0,100.0 l -70.09099077007752 38.564919458867124 a 80.0 80.0 0.0 0 1 -6.740340168805986,-60.85721826719467 l 76.83133093888351 22.29229880832754 z"/><path fill="#5a1100" d="M 100.0,100.0 l -76.83133093888351 -22.29229880832754 a 80.0 80.0 0.0 0 1 38.26641148001635,-47.79869196174995 l 38.56491945886716 70.0909907700775 z"/><path fill="#b1b8f9" d="M 22.139875258511907,118.37936275391269 l -19.465031185372023 4.594840688478175 a 100.0 100.0 0.0 0 1 28.766334150607587,-95.77315918113786 l 13.711764355250502 14.559791147749394 a 80.0 80.0 0.0 0 0 -23.013067320486066,76.61852734491029 z"/><path fill="#000000" d="M 45.15294257899798,41.76083540900241 l -13.71176435525051 -14.559791147749392 a 100.0 100.0 0.0 0 1 97.32515592686018,-22.97420344239098 l -5.753266830121532 19.154631836227594 a 80.0 80.0 0.0 0 0 -77.86012474148814,18.37936275391278 z"/><path fill="#000000" d="M 123.0130673204861,23.381472655089652 l 5.753266830121518 -19.15463183622759 a 100.0 100.0 0.0 0 1 68.55882177625253,72.79895573874708 l -19.465031185372027 4.594840688478172 a 80.0 80.0 0.0 0 0 -54.84705742100202,-58.23916459099767 z"/><path fill="#000e3e" d="M 177.8601247414881,81.62063724608731 l 19.46503118537202 -4.5948406884781905 a 100.0 100.0 0.0 0 1 -28.766334150607584,95.77315918113793 l -13.711764355250494 -14.559791147749394 a 80.0 80.0 0.0 0 0 23.01306732048606,-76.61852734491035 z"/><path fill="#100227" d="M 154.84705742100203,158.23916459099758 l 13.711764355250509 14.559791147749394 a 100.0 100.0 0.0 0 1 -97.32515592686018,22.974203442390973 l 5.753266830121532 -19.154631836227594 a 80.0 80.0 0.0 0 0 77.86012474148814,-18.379362753912773 z"/><path fill="#6b05d4" d="M 76.9869326795139,176.61852734491035 l -5.753266830121521 19.154631836227587 a 100.0 100.0 0.0 0 1 -68.55882177625251,-72.79895573874708 l 19.465031185372027 -4.594840688478165 a 80.0 80.0 0.0 0 0 54.847057421002006,58.23916459099766 z"/><path fill="#b1b8f9" d="M -1.4670562288537425,-7.742454493345548 l -13.711764355250507 -14.559791147749397 a 44.0 44.0 0.0 1 1 60.331763163102224,64.06308105009735 l -13.711764355250509 -14.5597911477494 a 24.0 24.0 0.0 1 0 -32.90823445260121,-34.94349875459855 z"/><path fill="#000000" d="M 142.5741745428993,-41.744275588084164 l 5.7532668301215235 -19.154631836227587 a 44.0 44.0 0.0 1 1 -25.31437405253471,84.2803800794014 l 5.753266830121529 -19.154631836227594 a 24.0 24.0 0.0 1 0 13.80784039229166,-45.97111640694621 z"/><path fill="#000000" d="M 244.04123077175302,65.99817890526154 l 19.465031185372023 -4.594840688478174 a 44.0 44.0 0.0 1 1 -85.64613721563691,20.21729902930396 l 19.465031185372027 -4.594840688478172 a 24.0 24.0 0.0 1 0 46.71607484489286,-11.027617652347612 z"/><path fill="#000e3e" d="M 201.46705622885378,207.7424544933456 l 13.711764355250505 14.559791147749397 a 44.0 44.0 0.0 1 1 -60.331763163102224,-64.06308105009735 l 13.711764355250509 14.5597911477494 a 24.0 24.0 0.0 1 0 32.90823445260121,34.94349875459855 z"/><path fill="#100227" d="M 57.425825457100714,241.74427558808415 l -5.753266830121526 19.154631836227587 a 44.0 44.0 0.0 1 1 25.31437405253471,-84.2803800794014 l -5.753266830121525 19.154631836227594 a 24.0 24.0 0.0 1 0 -13.80784039229166,45.97111640694621 z"/><path fill="#6b05d4" d="M -44.04123077175299,134.0018210947385 l -19.465031185372023 4.594840688478171 a 44.0 44.0 0.0 1 1 85.64613721563691,-20.21729902930396 l -19.465031185372027 4.594840688478175 a 24.0 24.0 0.0 1 0 -46.71607484489286,11.027617652347612 z"/><path fill="#250cb4" d="M 5.353882815808999,-22.21569844724183 l 1.7052347611656848 -3.618310988474071 a 20.0 20.0 0.0 0 1 11.404659271140432,16.429660584114053 l -3.9861666153937705 0.3323788716512599 a 16.0 16.0 0.0 0 0 -9.123727416912345,-13.143728467291243 z"/><path fill="#4125ff" d="M 14.477610232721343,-9.071969979950588 l 3.9861666153937714 -0.3323788716512604 a 20.0 20.0 0.0 0 1 -8.526173805828417,18.091554942370344 l -2.280931854228088 -3.28593211682281 a 16.0 16.0 0.0 0 0 6.820939044662735,-14.473243953896272 z"/><path fill="#ffffff" d="M 7.65667118805861,5.401273973945681 l 2.2809318542280885 3.285932116822807 a 20.0 20.0 0.0 0 1 -19.93083307696887,1.6618943582563204 l 1.7052347611656842 -3.6183109884740716 a 16.0 16.0 0.0 0 0 15.944666461575096,-1.3295154866050556 z"/><path fill="#000000" d="M -8.287995273516483,6.730789460550737 l -1.7052347611656844 3.618310988474071 a 20.0 20.0 0.0 0 1 -11.404659271140435,-16.429660584114057 l 3.9861666153937705 -0.3323788716512599 a 16.0 16.0 0.0 0 0 9.123727416912349,13.143728467291245 z"/><path fill="#000000" d="M -17.411722690428828,-6.4129390067405065 l -3.9861666153937714 0.33237887165126084 a 20.0 20.0 0.0 0 1 8.526173805828446,-18.09155494237036 l 2.2809318542280828 3.2859321168228117 a 16.0 16.0 0.0 0 0 -6.820939044662756,14.473243953896288 z"/><path fill="#000000" d="M -10.590783645766082,-20.886182960636788 l -2.2809318542280854 -3.2859321168228095 a 20.0 20.0 0.0 0 1 19.930833076968852,-1.661894358256307 l -1.7052347611656842 3.61831098847407 a 16.0 16.0 0.0 0 0 -15.944666461575082,1.3295154866050467 z"/><path fill="#250cb4" d="M 28.03057672506017,-10.202058143564871 l 3.9861666153937723 -0.33237887165126045 a 8.8 8.8 0.0 1 1 -17.539133107732596,1.462467035265545 l 3.9861666153937723 -0.3323788716512599 a 4.8 4.8 0.0 1 0 9.566799876945051,-0.7977092919630244 z"/><path fill="#4125ff" d="M 15.411839492434108,16.573443171143232 l 2.280931854228088 3.2859321168228086 a 8.8 8.8 0.0 1 1 -10.036100158603588,-14.458101314020354 l 2.280931854228089 3.285932116822808 a 4.8 4.8 0.0 1 0 5.47423645014741,7.8862370803747375 z"/><path fill="#ffffff" d="M -14.085793461479817,19.033046821362582 l -1.7052347611656857 3.6183109884740716 a 8.8 8.8 0.0 1 1 7.503032949129015,-15.920568349285915 l -1.7052347611656842 3.6183109884740734 a 4.8 4.8 0.0 1 0 -4.0925634267976445,8.68394637233777 z"/><path fill="#000000" d="M -30.964689182767653,-5.282850843126223 l -3.9861666153937723 0.33237887165125996 a 8.8 8.8 0.0 1 1 17.539133107732596,-1.4624670352655447 l -3.9861666153937723 0.33237887165126034 a 4.8 4.8 0.0 1 0 -9.566799876945051,0.7977092919630244 z"/><path fill="#000000" d="M -18.34595195014155,-32.058352157834356 l -2.2809318542280828 -3.285932116822812 a 8.8 8.8 0.0 1 1 10.036100158603562,14.458101314020372 l -2.2809318542280828 -3.2859321168228126 a 4.8 4.8 0.0 1 0 -5.474236450147396,-7.886237080374747 z"/><path fill="#000000" d="M 11.15168100377233,-34.51795580805368 l 1.7052347611656853 -3.618310988474072 a 8.8 8.8 0.0 1 1 -7.503032949129015,15.920568349285913 l 1.705234761165685 -3.6183109884740716 a 4.8 4.8 0.0 1 0 4.0925634267976445,-8.68394637233777 z"/><path fill="#d60c00" d="M 100.0,100.0 l -38.56491945886716 -70.0909907700775 a 80.0 80.0 0.0 0 1 60.85721826719466,-6.7403401688060285 l -22.2922988083275 76.83133093888353 z"/><path fill="#000000" d="M 100.0,100.0 l 22.2922988083275 -76.83133093888353 a 80.0 80.0 0.0 0 1 47.798691961749995,38.266411480016366 l -70.0909907700775 38.56491945886716 z"/><path fill="#f4894c" d="M 100.0,100.0 l 70.0909907700775 -38.56491945886716 a 80.0 80.0 0.0 0 1 6.7403401688060285,60.857218267194675 l -76.83133093888353 -22.292298808327516 z"/><path fill="#931500" d="M 100.0,100.0 l 76.83133093888351 22.292298808327526 a 80.0 80.0 0.0 0 1 -38.26641148001637,47.79869196174998 l -38.56491945886714 -70.09099077007751 z"/><path fill="#fe121c" d="M 100.0,100.0 l 38.56491945886714 70.09099077007751 a 80.0 80.0 0.0 0 1 -60.85721826719465,6.740340168806014 l 22.292298808327512 -76.83133093888353 z"/><path fill="#fe8274" d="M 100.0,100.0 l -22.292298808327512 76.83133093888353 a 80.0 80.0 0.0 0 1 -47.79869196175001,-38.2664114800164 l 70.09099077007752 -38.564919458867124 z"/><path fill="#210001" d="M 100.0,100.0 l -70.09099077007752 38.564919458867124 a 80.0 80.0 0.0 0 1 -6.740340168805986,-60.85721826719467 l 76.83133093888351 22.29229880832754 z"/><path fill="#5a1100" d="M 100.0,100.0 l -76.83133093888351 -22.29229880832754 a 80.0 80.0 0.0 0 1 38.26641148001635,-47.79869196174995 l 38.56491945886716 70.0909907700775 z"/><path fill="#b1b8f9" d="M 22.139875258511907,118.37936275391269 l -19.465031185372023 4.594840688478175 a 100.0 100.0 0.0 0 1 28.766334150607587,-95.77315918113786 l 13.711764355250502 14.559791147749394 a 80.0 80.0 0.0 0 0 -23.013067320486066,76.61852734491029 z"/><path fill="#000000" d="M 45.15294257899798,41.76083540900241 l -13.71176435525051 -14.559791147749392 a 100.0 100.0 0.0 0 1 97.32515592686018,-22.97420344239098 l -5.753266830121532 19.154631836227594 a 80.0 80.0 0.0 0 0 -77.86012474148814,18.37936275391278 z"/><path fill="#000000" d="M 123.0130673204861,23.381472655089652 l 5.753266830121518 -19.15463183622759 a 100.0 100.0 0.0 0 1 68.55882177625253,72.79895573874708 l -19.465031185372027 4.594840688478172 a 80.0 80.0 0.0 0 0 -54.84705742100202,-58.23916459099767 z"/><path fill="#000e3e" d="M 177.8601247414881,81.62063724608731 l 19.46503118537202 -4.5948406884781905 a 100.0 100.0 0.0 0 1 -28.766334150607584,95.77315918113793 l -13.711764355250494 -14.559791147749394 a 80.0 80.0 0.0 0 0 23.01306732048606,-76.61852734491035 z"/><path fill="#100227" d="M 154.84705742100203,158.23916459099758 l 13.711764355250509 14.559791147749394 a 100.0 100.0 0.0 0 1 -97.32515592686018,22.974203442390973 l 5.753266830121532 -19.154631836227594 a 80.0 80.0 0.0 0 0 77.86012474148814,-18.379362753912773 z"/><path fill="#6b05d4" d="M 76.9869326795139,176.61852734491035 l -5.753266830121521 19.154631836227587 a 100.0 100.0 0.0 0 1 -68.55882177625251,-72.79895573874708 l 19.465031185372027 -4.594840688478165 a 80.0 80.0 0.0 0 0 54.847057421002006,58.23916459099766 z"/><path fill="#b1b8f9" d="M -1.4670562288537425,-7.742454493345548 l -13.711764355250507 -14.559791147749397 a 44.0 44.0 0.0 1 1 60.331763163102224,64.06308105009735 l -13.711764355250509 -14.5597911477494 a 24.0 24.0 0.0 1 0 -32.90823445260121,-34.94349875459855 z"/><path fill="#000000" d="M 142.5741745428993,-41.744275588084164 l 5.7532668301215235 -19.154631836227587 a 44.0 44.0 0.0 1 1 -25.31437405253471,84.2803800794014 l 5.753266830121529 -19.154631836227594 a 24.0 24.0 0.0 1 0 13.80784039229166,-45.97111640694621 z"/><path fill="#000000" d="M 244.04123077175302,65.99817890526154 l 19.465031185372023 -4.594840688478174 a 44.0 44.0 0.0 1 1 -85.64613721563691,20.21729902930396 l 19.465031185372027 -4.594840688478172 a 24.0 24.0 0.0 1 0 46.71607484489286,-11.027617652347612 z"/><path fill="#000e3e" d="M 201.46705622885378,207.7424544933456 l 13.711764355250505 14.559791147749397 a 44.0 44.0 0.0 1 1 -60.331763163102224,-64.06308105009735 l 13.711764355250509 14.5597911477494 a 24.0 24.0 0.0 1 0 32.90823445260121,34.94349875459855 z"/><path fill="#100227" d="M 57.425825457100714,241.74427558808415 l -5.753266830121526 19.154631836227587 a 44.0 44.0 0.0 1 1 25.31437405253471,-84.2803800794014 l -5.753266830121525 19.154631836227594 a 24.0 24.0 0.0 1 0 -13.80784039229166,45.97111640694621 z"/><path fill="#6b05d4" d="M -44.04123077175299,134.0018210947385 l -19.465031185372023 4.594840688478171 a 44.0 44.0 0.0 1 1 85.64613721563691,-20.21729902930396 l -19.465031185372027 4.594840688478175 a 24.0 24.0 0.0 1 0 -46.71607484489286,11.027617652347612 z"/><path fill="#000000" d="M 142.5741745428993,-41.744275588084164 l -15.755784600239272 -2.7848252424277917 a 16.0 16.0 0.0 0 1 6.583931279835662,-10.325365704656132 l 9.17185332040361 13.110190947083924 z"/><path fill="#000000" d="M 142.5741745428993,-41.744275588084164 l -9.17185332040361 -13.110190947083924 a 16.0 16.0 0.0 0 1 11.956678562831408,-2.6455936531553466 l -2.784825242427798 15.75578460023927 z"/><path fill="#ffffff" d="M 142.5741745428993,-41.744275588084164 l 2.784825242427798 -15.75578460023927 a 16.0 16.0 0.0 0 1 10.325365704656125,6.58393127983566 l -13.110190947083924 9.17185332040361 z"/><path fill="#ff767f" d="M 142.5741745428993,-41.744275588084164 l 13.110190947083924 -9.17185332040361 a 16.0 16.0 0.0 0 1 2.6455936531553466,11.95667856283141 l -15.75578460023927 -2.7848252424278006 z"/><path fill="#ba000d" d="M 142.5741745428993,-41.744275588084164 l 15.75578460023927 2.784825242427797 a 16.0 16.0 0.0 0 1 -6.583931279835662,10.325365704656129 l -9.171853320403608 -13.110190947083925 z"/><path fill="#ed0e17" d="M 142.5741745428993,-41.744275588084164 l 9.171853320403612 13.110190947083924 a 16.0 16.0 0.0 0 1 -11.956678562831412,2.6455936531553466 l 2.7848252424277997 -15.75578460023927 z"/><path fill="#ff6842" d="M 142.5741745428993,-41.744275588084164 l -2.784825242427796 15.755784600239272 a 16.0 16.0 0.0 0 1 -10.325365704656129,-6.583931279835664 l 13.110190947083925 -9.171853320403608 z"/><path fill="#000000" d="M 142.5741745428993,-41.744275588084164 l -13.110190947083929 9.171853320403603 a 16.0 16.0 0.0 0 1 -2.645593653155343,-11.956678562831394 l 15.755784600239272 2.7848252424277917 z"/><path fill="#d60c00" d="M 100.0,100.0 l -38.56491945886716 -70.0909907700775 a 80.0 80.0 0.0 0 1 60.85721826719466,-6.7403401688060285 l -22.2922988083275 76.83133093888353 z"/><path fill="#000000" d="M 100.0,100.0 l 22.2922988083275 -76.83133093888353 a 80.0 80.0 0.0 0 1 47.798691961749995,38.266411480016366 l -70.0909907700775 38.56491945886716 z"/><path fill="#f4894c" d="M 100.0,100.0 l 70.0909907700775 -38.56491945886716 a 80.0 80.0 0.0 0 1 6.7403401688060285,60.857218267194675 l -76.83133093888353 -22.292298808327516 z"/><path fill="#931500" d="M 100.0,100.0 l 76.83133093888351 22.292298808327526 a 80.0 80.0 0.0 0 1 -38.26641148001637,47.79869196174998 l -38.56491945886714 -70.09099077007751 z"/><path fill="#fe121c" d="M 100.0,100.0 l 38.56491945886714 70.09099077007751 a 80.0 80.0 0.0 0 1 -60.85721826719465,6.740340168806014 l 22.292298808327512 -76.83133093888353 z"/><path fill="#fe8274" d="M 100.0,100.0 l -22.292298808327512 76.83133093888353 a 80.0 80.0 0.0 0 1 -47.79869196175001,-38.2664114800164 l 70.09099077007752 -38.564919458867124 z"/><path fill="#210001" d="M 100.0,100.0 l -70.09099077007752 38.564919458867124 a 80.0 80.0 0.0 0 1 -6.740340168805986,-60.85721826719467 l 76.83133093888351 22.29229880832754 z"/><path fill="#5a1100" d="M 100.0,100.0 l -76.83133093888351 -22.29229880832754 a 80.0 80.0 0.0 0 1 38.26641148001635,-47.79869196174995 l 38.56491945886716 70.0909907700775 z"/><path fill="#b1b8f9" d="M 22.139875258511907,118.37936275391269 l -19.465031185372023 4.594840688478175 a 100.0 100.0 0.0 0 1 28.766334150607587,-95.77315918113786 l 13.711764355250502 14.559791147749394 a 80.0 80.0 0.0 0 0 -23.013067320486066,76.61852734491029 z"/><path fill="#000000" d="M 45.15294257899798,41.76083540900241 l -13.71176435525051 -14.559791147749392 a 100.0 100.0 0.0 0 1 97.32515592686018,-22.97420344239098 l -5.753266830121532 19.154631836227594 a 80.0 80.0 0.0 0 0 -77.86012474148814,18.37936275391278 z"/><path fill="#000000" d="M 123.0130673204861,23.381472655089652 l 5.753266830121518 -19.15463183622759 a 100.0 100.0 0.0 0 1 68.55882177625253,72.79895573874708 l -19.465031185372027 4.594840688478172 a 80.0 80.0 0.0 0 0 -54.84705742100202,-58.23916459099767 z"/><path fill="#000e3e" d="M 177.8601247414881,81.62063724608731 l 19.46503118537202 -4.5948406884781905 a 100.0 100.0 0.0 0 1 -28.766334150607584,95.77315918113793 l -13.711764355250494 -14.559791147749394 a 80.0 80.0 0.0 0 0 23.01306732048606,-76.61852734491035 z"/><path fill="#100227" d="M 154.84705742100203,158.23916459099758 l 13.711764355250509 14.559791147749394 a 100.0 100.0 0.0 0 1 -97.32515592686018,22.974203442390973 l 5.753266830121532 -19.154631836227594 a 80.0 80.0 0.0 0 0 77.86012474148814,-18.379362753912773 z"/><path fill="#6b05d4" d="M 76.9869326795139,176.61852734491035 l -5.753266830121521 19.154631836227587 a 100.0 100.0 0.0 0 1 -68.55882177625251,-72.79895573874708 l 19.465031185372027 -4.594840688478165 a 80.0 80.0 0.0 0 0 54.847057421002006,58.23916459099766 z"/><path fill="#b1b8f9" d="M -1.4670562288537425,-7.742454493345548 l -13.711764355250507 -14.559791147749397 a 44.0 44.0 0.0 1 1 60.331763163102224,64.06308105009735 l -13.711764355250509 -14.5597911477494 a 24.0 24.0 0.0 1 0 -32.90823445260121,-34.94349875459855 z"/><path fill="#000000" d="M 142.5741745428993,-41.744275588084164 l 5.7532668301215235 -19.154631836227587 a 44.0 44.0 0.0 1 1 -25.31437405253471,84.2803800794014 l 5.753266830121529 -19.154631836227594 a 24.0 24.0 0.0 1 0 13.80784039229166,-45.97111640694621 z"/><path fill="#000000" d="M 244.04123077175302,65.99817890526154 l 19.465031185372023 -4.594840688478174 a 44.0 44.0 0.0 1 1 -85.64613721563691,20.21729902930396 l 19.465031185372027 -4.594840688478172 a 24.0 24.0 0.0 1 0 46.71607484489286,-11.027617652347612 z"/><path fill="#000e3e" d="M 201.46705622885378,207.7424544933456 l 13.711764355250505 14.559791147749397 a 44.0 44.0 0.0 1 1 -60.331763163102224,-64.06308105009735 l 13.711764355250509 14.5597911477494 a 24.0 24.0 0.0 1 0 32.90823445260121,34.94349875459855 z"/><path fill="#100227" d="M 57.425825457100714,241.74427558808415 l -5.753266830121526 19.154631836227587 a 44.0 44.0 0.0 1 1 25.31437405253471,-84.2803800794014 l -5.753266830121525 19.154631836227594 a 24.0 24.0 0.0 1 0 -13.80784039229166,45.97111640694621 z"/><path fill="#6b05d4" d="M -44.04123077175299,134.0018210947385 l -19.465031185372023 4.594840688478171 a 44.0 44.0 0.0 1 1 85.64613721563691,-20.21729902930396 l -19.465031185372027 4.594840688478175 a 24.0 24.0 0.0 1 0 -46.71607484489286,11.027617652347612 z"/><path fill="#0e3fff" d="M 142.02815634326467,-25.753595048292627 l -0.13650454990865424 3.9976701349478843 a 20.0 20.0 0.0 0 1 -16.969158089304518,-10.585257377134969 l 3.5303361677695566 -1.8806186595208896 a 16.0 16.0 0.0 0 0 13.575326471443615,8.468205901707975 z"/><path fill="#7b81f5" d="M 128.45282987182108,-34.2218009500006 l -3.5303361677695575 1.8806186595208911 a 20.0 20.0 0.0 0 1 0.6825227495432555,-19.988350674739436 l 3.393831617860906 2.1170514754269973 a 16.0 16.0 0.0 0 0 -0.5460181996346041,15.990680539791548 z"/><path fill="#170060" d="M 128.99884807145568,-50.212481489792154 l -3.3938316178609056 -2.1170514754269973 a 20.0 20.0 0.0 0 1 17.651680838847785,-9.403093297604435 l -0.13650454990865235 3.997670134947885 a 16.0 16.0 0.0 0 0 -14.121344671078226,7.522474638083548 z"/><path fill="#1d07ac" d="M 143.1201927425339,-57.734956127875705 l 0.13650454990865118 -3.9976701349478843 a 20.0 20.0 0.0 0 1 16.969158089304543,10.585257377134983 l -3.5303361677695584 1.880618659520886 a 16.0 16.0 0.0 0 0 -13.575326471443635,-8.468205901707986 z"/><path fill="#0600f0" d="M 156.69551921397752,-49.26675022616772 l 3.5303361677695597 -1.8806186595208876 a 20.0 20.0 0.0 0 1 -0.6825227495432666,19.988350674739422 l -3.393831617860906 -2.1170514754269973 a 16.0 16.0 0.0 0 0 0.546018199634613,-15.990680539791537 z"/><path fill="#000000" d="M 156.14950101434292,-33.27606968637618 l 3.393831617860907 2.1170514754269956 a 20.0 20.0 0.0 0 1 -17.651680838847774,9.403093297604444 l 0.1365045499086488 -3.9976701349478834 a 16.0 16.0 0.0 0 0 14.12134467107822,-7.5224746380835565 z"/><path fill="#0e3fff" d="M 116.44968690140456,-27.827697507629573 l -3.530336167769559 1.8806186595208907 a 8.8 8.8 0.0 1 1 15.533479138186056,-8.27472210189192 l -3.5303361677695584 1.8806186595208914 a 4.8 4.8 0.0 1 0 -8.47280680264694,4.513484782850137 z"/><path fill="#7b81f5" d="M 117.4598205707286,-57.41045650624393 l -3.3938316178609074 -2.1170514754269965 a 8.8 8.8 0.0 1 1 14.932859118587992,9.315026491878783 l -3.393831617860908 -2.1170514754269956 a 4.8 4.8 0.0 1 0 -8.145195882866176,-5.0809235410247915 z"/><path fill="#170060" d="M 143.58430821222333,-71.32703458669852 l 0.1365045499086512 -3.997670134947885 a 8.8 8.8 0.0 1 1 -0.6006200195980663,17.589748593770693 l 0.13650454990865168 -3.997670134947887 a 4.8 4.8 0.0 1 0 0.3276109197807634,-9.594408323874921 z"/><path fill="#1d07ac" d="M 168.69866218439404,-55.66085366853875 l 3.530336167769559 -1.8806186595208911 a 8.8 8.8 0.0 1 1 -15.533479138186056,8.27472210189192 l 3.5303361677695584 -1.8806186595208914 a 4.8 4.8 0.0 1 0 8.47280680264694,-4.513484782850137 z"/><path fill="#0600f0" d="M 167.68852851507,-26.078094669924397 l 3.3938316178609074 2.117051475426997 a 8.8 8.8 0.0 1 1 -14.932859118587992,-9.315026491878784 l 3.393831617860908 2.1170514754269956 a 4.8 4.8 0.0 1 0 8.145195882866176,5.0809235410247915 z"/><path fill="#000000" d="M 141.5640408735753,-12.16151658946982 l -0.13650454990864813 3.9976701349478856 a 8.8 8.8 0.0 1 1 0.6006200195980507,-17.589748593770693 l -0.1365045499086477 3.997670134947885 a 4.8 4.8 0.0 1 0 -0.32761091978075485,9.594408323874923 z"/><path fill="#d60c00" d="M 100.0,100.0 l -38.56491945886716 -70.0909907700775 a 80.0 80.0 0.0 0 1 60.85721826719466,-6.7403401688060285 l -22.2922988083275 76.83133093888353 z"/><path fill="#000000" d="M 100.0,100.0 l 22.2922988083275 -76.83133093888353 a 80.0 80.0 0.0 0 1 47.798691961749995,38.266411480016366 l -70.0909907700775 38.56491945886716 z"/><path fill="#f4894c" d="M 100.0,100.0 l 70.0909907700775 -38.56491945886716 a 80.0 80.0 0.0 0 1 6.7403401688060285,60.857218267194675 l -76.83133093888353 -22.292298808327516 z"/><path fill="#931500" d="M 100.0,100.0 l 76.83133093888351 22.292298808327526 a 80.0 80.0 0.0 0 1 -38.26641148001637,47.79869196174998 l -38.56491945886714 -70.09099077007751 z"/><path fill="#fe121c" d="M 100.0,100.0 l 38.56491945886714 70.09099077007751 a 80.0 80.0 0.0 0 1 -60.85721826719465,6.740340168806014 l 22.292298808327512 -76.83133093888353 z"/><path fill="#fe8274" d="M 100.0,100.0 l -22.292298808327512 76.83133093888353 a 80.0 80.0 0.0 0 1 -47.79869196175001,-38.2664114800164 l 70.09099077007752 -38.564919458867124 z"/><path fill="#210001" d="M 100.0,100.0 l -70.09099077007752 38.564919458867124 a 80.0 80.0 0.0 0 1 -6.740340168805986,-60.85721826719467 l 76.83133093888351 22.29229880832754 z"/><path fill="#5a1100" d="M 100.0,100.0 l -76.83133093888351 -22.29229880832754 a 80.0 80.0 0.0 0 1 38.26641148001635,-47.79869196174995 l 38.56491945886716 70.0909907700775 z"/><path fill="#b1b8f9" d="M 22.139875258511907,118.37936275391269 l -19.465031185372023 4.594840688478175 a 100.0 100.0 0.0 0 1 28.766334150607587,-95.77315918113786 l 13.711764355250502 14.559791147749394 a 80.0 80.0 0.0 0 0 -23.013067320486066,76.61852734491029 z"/><path fill="#000000" d="M 45.15294257899798,41.76083540900241 l -13.71176435525051 -14.559791147749392 a 100.0 100.0 0.0 0 1 97.32515592686018,-22.97420344239098 l -5.753266830121532 19.154631836227594 a 80.0 80.0 0.0 0 0 -77.86012474148814,18.37936275391278 z"/><path fill="#000000" d="M 123.0130673204861,23.381472655089652 l 5.753266830121518 -19.15463183622759 a 100.0 100.0 0.0 0 1 68.55882177625253,72.79895573874708 l -19.465031185372027 4.594840688478172 a 80.0 80.0 0.0 0 0 -54.84705742100202,-58.23916459099767 z"/><path fill="#000e3e" d="M 177.8601247414881,81.62063724608731 l 19.46503118537202 -4.5948406884781905 a 100.0 100.0 0.0 0 1 -28.766334150607584,95.77315918113793 l -13.711764355250494 -14.559791147749394 a 80.0 80.0 0.0 0 0 23.01306732048606,-76.61852734491035 z"/><path fill="#100227" d="M 154.84705742100203,158.23916459099758 l 13.711764355250509 14.559791147749394 a 100.0 100.0 0.0 0 1 -97.32515592686018,22.974203442390973 l 5.753266830121532 -19.154631836227594 a 80.0 80.0 0.0 0 0 77.86012474148814,-18.379362753912773 z"/><path fill="#6b05d4" d="M 76.9869326795139,176.61852734491035 l -5.753266830121521 19.154631836227587 a 100.0 100.0 0.0 0 1 -68.55882177625251,-72.79895573874708 l 19.465031185372027 -4.594840688478165 a 80.0 80.0 0.0 0 0 54.847057421002006,58.23916459099766 z"/><path fill="#b1b8f9" d="M -1.4670562288537425,-7.742454493345548 l -13.711764355250507 -14.559791147749397 a 44.0 44.0 0.0 1 1 60.331763163102224,64.06308105009735 l -13.711764355250509 -14.5597911477494 a 24.0 24.0 0.0 1 0 -32.90823445260121,-34.94349875459855 z"/><path fill="#000000" d="M 142.5741745428993,-41.744275588084164 l 5.7532668301215235 -19.154631836227587 a 44.0 44.0 0.0 1 1 -25.31437405253471,84.2803800794014 l 5.753266830121529 -19.154631836227594 a 24.0 24.0 0.0 1 0 13.80784039229166,-45.97111640694621 z"/><path fill="#000000" d="M 244.04123077175302,65.99817890526154 l 19.465031185372023 -4.594840688478174 a 44.0 44.0 0.0 1 1 -85.64613721563691,20.21729902930396 l 19.465031185372027 -4.594840688478172 a 24.0 24.0 0.0 1 0 46.71607484489286,-11.027617652347612 z"/><path fill="#000e3e" d="M 201.46705622885378,207.7424544933456 l 13.711764355250505 14.559791147749397 a 44.0 44.0 0.0 1 1 -60.331763163102224,-64.06308105009735 l 13.711764355250509 14.5597911477494 a 24.0 24.0 0.0 1 0 32.90823445260121,34.94349875459855 z"/><path fill="#100227" d="M 57.425825457100714,241.74427558808415 l -5.753266830121526 19.154631836227587 a 44.0 44.0 0.0 1 1 25.31437405253471,-84.2803800794014 l -5.753266830121525 19.154631836227594 a 24.0 24.0 0.0 1 0 -13.80784039229166,45.97111640694621 z"/><path fill="#6b05d4" d="M -44.04123077175299,134.0018210947385 l -19.465031185372023 4.594840688478171 a 44.0 44.0 0.0 1 1 85.64613721563691,-20.21729902930396 l -19.465031185372027 4.594840688478175 a 24.0 24.0 0.0 1 0 -46.71607484489286,11.027617652347612 z"/><path fill="#020000" d="M 244.04123077175302,65.99817890526154 l -11.356054878142343 -11.271203023839979 a 16.0 16.0 0.0 0 1 11.296055556568906,-4.7286844783086135 l 0.05999932157343732 15.999887502148592 z"/><path fill="#690100" d="M 244.04123077175302,65.99817890526154 l -0.05999932157343732 -15.999887502148592 a 16.0 16.0 0.0 0 1 11.331202345413429,4.64383262400626 l -11.271203023839991 11.356054878142332 z"/><path fill="#000000" d="M 244.04123077175302,65.99817890526154 l 11.271203023839991 -11.356054878142332 a 16.0 16.0 0.0 0 1 4.728684478308601,11.296055556568895 l -15.999887502148592 0.0599993215734383 z"/><path fill="#d72100" d="M 244.04123077175302,65.99817890526154 l 15.999887502148592 -0.0599993215734383 a 16.0 16.0 0.0 0 1 -4.643832624006272,11.331202345413441 l -11.35605487814232 -11.271203023840004 z"/><path fill="#ffffff" d="M 244.04123077175302,65.99817890526154 l 11.356054878142322 11.27120302384 a 16.0 16.0 0.0 0 1 -11.296055556568886,4.728684478308592 l -0.05999932157343536 -15.999887502148592 z"/><path fill="#e90c4e" d="M 244.04123077175302,65.99817890526154 l 0.05999932157343928 15.999887502148592 a 16.0 16.0 0.0 0 1 -11.331202345413441,-4.643832624006272 l 11.271203023840002 -11.35605487814232 z"/><path fill="#ab1601" d="M 244.04123077175302,65.99817890526154 l -11.27120302384 11.356054878142324 a 16.0 16.0 0.0 0 1 -4.728684478308592,-11.296055556568888 l 15.999887502148592 -0.05999932157343634 z"/><path fill="#ff2443" d="M 244.04123077175302,65.99817890526154 l -15.999887502148592 0.05999932157344026 a 16.0 16.0 0.0 0 1 4.643832624006251,-11.331202345413423 l 11.356054878142341 11.271203023839982 z"/><path fill="#d60c00" d="M 100.0,100.0 l -38.56491945886716 -70.0909907700775 a 80.0 80.0 0.0 0 1 60.85721826719466,-6.7403401688060285 l -22.2922988083275 76.83133093888353 z"/><path fill="#000000" d="M 100.0,100.0 l 22.2922988083275 -76.83133093888353 a 80.0 80.0 0.0 0 1 47.798691961749995,38.266411480016366 l -70.0909907700775 38.56491945886716 z"/><path fill="#f4894c" d="M 100.0,100.0 l 70.0909907700775 -38.56491945886716 a 80.0 80.0 0.0 0 1 6.7403401688060285,60.857218267194675 l -76.83133093888353 -22.292298808327516 z"/><path fill="#931500" d="M 100.0,100.0 l 76.83133093888351 22.292298808327526 a 80.0 80.0 0.0 0 1 -38.26641148001637,47.79869196174998 l -38.56491945886714 -70.09099077007751 z"/><path fill="#fe121c" d="M 100.0,100.0 l 38.56491945886714 70.09099077007751 a 80.0 80.0 0.0 0 1 -60.85721826719465,6.740340168806014 l 22.292298808327512 -76.83133093888353 z"/><path fill="#fe8274" d="M 100.0,100.0 l -22.292298808327512 76.83133093888353 a 80.0 80.0 0.0 0 1 -47.79869196175001,-38.2664114800164 l 70.09099077007752 -38.564919458867124 z"/><path fill="#210001" d="M 100.0,100.0 l -70.09099077007752 38.564919458867124 a 80.0 80.0 0.0 0 1 -6.740340168805986,-60.85721826719467 l 76.83133093888351 22.29229880832754 z"/><path fill="#5a1100" d="M 100.0,100.0 l -76.83133093888351 -22.29229880832754 a 80.0 80.0 0.0 0 1 38.26641148001635,-47.79869196174995 l 38.56491945886716 70.0909907700775 z"/><path fill="#b1b8f9" d="M 22.139875258511907,118.37936275391269 l -19.465031185372023 4.594840688478175 a 100.0 100.0 0.0 0 1 28.766334150607587,-95.77315918113786 l 13.711764355250502 14.559791147749394 a 80.0 80.0 0.0 0 0 -23.013067320486066,76.61852734491029 z"/><path fill="#000000" d="M 45.15294257899798,41.76083540900241 l -13.71176435525051 -14.559791147749392 a 100.0 100.0 0.0 0 1 97.32515592686018,-22.97420344239098 l -5.753266830121532 19.154631836227594 a 80.0 80.0 0.0 0 0 -77.86012474148814,18.37936275391278 z"/><path fill="#000000" d="M 123.0130673204861,23.381472655089652 l 5.753266830121518 -19.15463183622759 a 100.0 100.0 0.0 0 1 68.55882177625253,72.79895573874708 l -19.465031185372027 4.594840688478172 a 80.0 80.0 0.0 0 0 -54.84705742100202,-58.23916459099767 z"/><path fill="#000e3e" d="M 177.8601247414881,81.62063724608731 l 19.46503118537202 -4.5948406884781905 a 100.0 100.0 0.0 0 1 -28.766334150607584,95.77315918113793 l -13.711764355250494 -14.559791147749394 a 80.0 80.0 0.0 0 0 23.01306732048606,-76.61852734491035 z"/><path fill="#100227" d="M 154.84705742100203,158.23916459099758 l 13.711764355250509 14.559791147749394 a 100.0 100.0 0.0 0 1 -97.32515592686018,22.974203442390973 l 5.753266830121532 -19.154631836227594 a 80.0 80.0 0.0 0 0 77.86012474148814,-18.379362753912773 z"/><path fill="#6b05d4" d="M 76.9869326795139,176.61852734491035 l -5.753266830121521 19.154631836227587 a 100.0 100.0 0.0 0 1 -68.55882177625251,-72.79895573874708 l 19.465031185372027 -4.594840688478165 a 80.0 80.0 0.0 0 0 54.847057421002006,58.23916459099766 z"/><path fill="#b1b8f9" d="M -1.4670562288537425,-7.742454493345548 l -13.711764355250507 -14.559791147749397 a 44.0 44.0 0.0 1 1 60.331763163102224,64.06308105009735 l -13.711764355250509 -14.5597911477494 a 24.0 24.0 0.0 1 0 -32.90823445260121,-34.94349875459855 z"/><path fill="#000000" d="M 142.5741745428993,-41.744275588084164 l 5.7532668301215235 -19.154631836227587 a 44.0 44.0 0.0 1 1 -25.31437405253471,84.2803800794014 l 5.753266830121529 -19.154631836227594 a 24.0 24.0 0.0 1 0 13.80784039229166,-45.97111640694621 z"/><path fill="#000000" d="M 244.04123077175302,65.99817890526154 l 19.465031185372023 -4.594840688478174 a 44.0 44.0 0.0 1 1 -85.64613721563691,20.21729902930396 l 19.465031185372027 -4.594840688478172 a 24.0 24.0 0.0 1 0 46.71607484489286,-11.027617652347612 z"/><path fill="#000e3e" d="M 201.46705622885378,207.7424544933456 l 13.711764355250505 14.559791147749397 a 44.0 44.0 0.0 1 1 -60.331763163102224,-64.06308105009735 l 13.711764355250509 14.5597911477494 a 24.0 24.0 0.0 1 0 32.90823445260121,34.94349875459855 z"/><path fill="#100227" d="M 57.425825457100714,241.74427558808415 l -5.753266830121526 19.154631836227587 a 44.0 44.0 0.0 1 1 25.31437405253471,-84.2803800794014 l -5.753266830121525 19.154631836227594 a 24.0 24.0 0.0 1 0 -13.80784039229166,45.97111640694621 z"/><path fill="#6b05d4" d="M -44.04123077175299,134.0018210947385 l -19.465031185372023 4.594840688478171 a 44.0 44.0 0.0 1 1 85.64613721563691,-20.21729902930396 l -19.465031185372027 4.594840688478175 a 24.0 24.0 0.0 1 0 -46.71607484489286,11.027617652347612 z"/><path fill="#12064d" d="M 258.6400494496108,59.45031717710703 l 3.6497046694644473 -1.6369654320386273 a 20.0 20.0 0.0 0 1 -2.0359934273490152,19.896098380431063 l -3.2425059839946453 -2.3422542440475844 a 16.0 16.0 0.0 0 0 1.6287947418792132,-15.91687870434485 z"/><path fill="#000000" d="M 257.0112547077316,75.36719588145186 l 3.2425059839946444 2.3422542440475844 a 20.0 20.0 0.0 0 1 -18.24852334732223,8.18482716019314 l 0.40719868546980287 -3.9792196760862115 a 16.0 16.0 0.0 0 0 14.598818677857784,-6.547861728154514 z"/><path fill="#5624e9" d="M 242.41243602987382,81.9150576096064 l -0.40719868546980076 3.979219676086213 a 20.0 20.0 0.0 0 1 -16.212529919973232,-11.711271220237931 l 3.6497046694644464 -1.636965432038627 a 16.0 16.0 0.0 0 0 12.970023935978586,9.369016976190345 z"/><path fill="#616dff" d="M 229.44241209389523,72.54604063341606 l -3.6497046694644473 1.6369654320386278 a 20.0 20.0 0.0 0 1 2.0359934273490046,-19.89609838043105 l 3.2425059839946453 2.342254244047581 a 16.0 16.0 0.0 0 0 -1.6287947418792026,15.916878704344839 z"/><path fill="#c6ccff" d="M 231.07120683577443,56.62916192907121 l -3.242505983994647 -2.3422542440475813 a 20.0 20.0 0.0 0 1 18.248523347322276,-8.184827160193157 l -0.4071986854698082 3.9792196760862133 a 16.0 16.0 0.0 0 0 -14.598818677857821,6.547861728154524 z"/><path fill="#000000" d="M 245.67002551363225,50.08130020091669 l 0.4071986854698073 -3.9792196760862124 a 20.0 20.0 0.0 0 1 16.2125299199732,11.711271220237926 l -3.649704669464448 1.6369654320386289 a 16.0 16.0 0.0 0 0 -12.97002393597856,-9.369016976190341 z"/><path fill="#12064d" d="M 268.0357750533134,83.33086031121367 l 3.242505983994645 2.3422542440475858 a 8.8 8.8 0.0 1 1 -14.267026329576437,-10.305918673809376 l 3.2425059839946453 2.342254244047586 a 4.8 4.8 0.0 1 0 7.782014361587146,5.621410185714204 z"/><path fill="#000000" d="M 241.0279604992765,95.4444045082995 l -0.4071986854698018 3.9792196760862137 a 8.8 8.8 0.0 1 1 1.7916742160671266,-17.508566574779337 l -0.4071986854698014 3.9792196760862133 a 4.8 4.8 0.0 1 0 -0.9772768451275234,9.55012722260691 z"/><path fill="#5624e9" d="M 217.0334162177161,78.11172310234738 l -3.649704669464448 1.6369654320386273 a 8.8 8.8 0.0 1 1 16.058700545643568,-7.20264790096996 l -3.6497046694644464 1.636965432038628 a 4.8 4.8 0.0 1 0 -8.759291206714673,3.9287170368927047 z"/><path fill="#616dff" d="M 220.04668649019263,48.66549749930944 l -3.2425059839946475 -2.342254244047582 a 8.8 8.8 0.0 1 1 14.267026329576446,10.305918673809362 l -3.242505983994647 -2.3422542440475826 a 4.8 4.8 0.0 1 0 -7.7820143615871515,-5.621410185714197 z"/><path fill="#c6ccff" d="M 247.0545010442296,36.55195330222356 l 0.4071986854698084 -3.9792196760862133 a 8.8 8.8 0.0 1 1 -1.7916742160671577,17.508566574779337 l 0.40719868546980886 -3.979219676086215 a 4.8 4.8 0.0 1 0 0.9772768451275404,-9.550127222606909 z"/><path fill="#000000" d="M 271.04904532578996,53.884634708175696 l 3.649704669464448 -1.6369654320386278 a 8.8 8.8 0.0 1 1 -16.058700545643568,7.20264790096996 l 3.6497046694644464 -1.636965432038627 a 4.8 4.8 0.0 1 0 8.759291206714673,-3.9287170368927047 z"/><path fill="#d60c00" d="M 100.0,100.0 l -38.56491945886716 -70.0909907700775 a 80.0 80.0 0.0 0 1 60.85721826719466,-6.7403401688060285 l -22.2922988083275 76.83133093888353 z"/><path fill="#000000" d="M 100.0,100.0 l 22.2922988083275 -76.83133093888353 a 80.0 80.0 0.0 0 1 47.798691961749995,38.266411480016366 l -70.0909907700775 38.56491945886716 z"/><path fill="#f4894c" d="M 100.0,100.0 l 70.0909907700775 -38.56491945886716 a 80.0 80.0 0.0 0 1 6.7403401688060285,60.857218267194675 l -76.83133093888353 -22.292298808327516 z"/><path fill="#931500" d="M 100.0,100.0 l 76.83133093888351 22.292298808327526 a 80.0 80.0 0.0 0 1 -38.26641148001637,47.79869196174998 l -38.56491945886714 -70.09099077007751 z"/><path fill="#fe121c" d="M 100.0,100.0 l 38.56491945886714 70.09099077007751 a 80.0 80.0 0.0 0 1 -60.85721826719465,6.740340168806014 l 22.292298808327512 -76.83133093888353 z"/><path fill="#fe8274" d="M 100.0,100.0 l -22.292298808327512 76.83133093888353 a 80.0 80.0 0.0 0 1 -47.79869196175001,-38.2664114800164 l 70.09099077007752 -38.564919458867124 z"/><path fill="#210001" d="M 100.0,100.0 l -70.09099077007752 38.564919458867124 a 80.0 80.0 0.0 0 1 -6.740340168805986,-60.85721826719467 l 76.83133093888351 22.29229880832754 z"/><path fill="#5a1100" d="M 100.0,100.0 l -76.83133093888351 -22.29229880832754 a 80.0 80.0 0.0 0 1 38.26641148001635,-47.79869196174995 l 38.56491945886716 70.0909907700775 z"/><path fill="#b1b8f9" d="M 22.139875258511907,118.37936275391269 l -19.465031185372023 4.594840688478175 a 100.0 100.0 0.0 0 1 28.766334150607587,-95.77315918113786 l 13.711764355250502 14.559791147749394 a 80.0 80.0 0.0 0 0 -23.013067320486066,76.61852734491029 z"/><path fill="#000000" d="M 45.15294257899798,41.76083540900241 l -13.71176435525051 -14.559791147749392 a 100.0 100.0 0.0 0 1 97.32515592686018,-22.97420344239098 l -5.753266830121532 19.154631836227594 a 80.0 80.0 0.0 0 0 -77.86012474148814,18.37936275391278 z"/><path fill="#000000" d="M 123.0130673204861,23.381472655089652 l 5.753266830121518 -19.15463183622759 a 100.0 100.0 0.0 0 1 68.55882177625253,72.79895573874708 l -19.465031185372027 4.594840688478172 a 80.0 80.0 0.0 0 0 -54.84705742100202,-58.23916459099767 z"/><path fill="#000e3e" d="M 177.8601247414881,81.62063724608731 l 19.46503118537202 -4.5948406884781905 a 100.0 100.0 0.0 0 1 -28.766334150607584,95.77315918113793 l -13.711764355250494 -14.559791147749394 a 80.0 80.0 0.0 0 0 23.01306732048606,-76.61852734491035 z"/><path fill="#100227" d="M 154.84705742100203,158.23916459099758 l 13.711764355250509 14.559791147749394 a 100.0 100.0 0.0 0 1 -97.32515592686018,22.974203442390973 l 5.753266830121532 -19.154631836227594 a 80.0 80.0 0.0 0 0 77.86012474148814,-18.379362753912773 z"/><path fill="#6b05d4" d="M 76.9869326795139,176.61852734491035 l -5.753266830121521 19.154631836227587 a 100.0 100.0 0.0 0 1 -68.55882177625251,-72.79895573874708 l 19.465031185372027 -4.594840688478165 a 80.0 80.0 0.0 0 0 54.847057421002006,58.23916459099766 z"/><path fill="#b1b8f9" d="M -1.4670562288537425,-7.742454493345548 l -13.711764355250507 -14.559791147749397 a 44.0 44.0 0.0 1 1 60.331763163102224,64.06308105009735 l -13.711764355250509 -14.5597911477494 a 24.0 24.0 0.0 1 0 -32.90823445260121,-34.94349875459855 z"/><path fill="#000000" d="M 142.5741745428993,-41.744275588084164 l 5.7532668301215235 -19.154631836227587 a 44.0 44.0 0.0 1 1 -25.31437405253471,84.2803800794014 l 5.753266830121529 -19.154631836227594 a 24.0 24.0 0.0 1 0 13.80784039229166,-45.97111640694621 z"/><path fill="#000000" d="M 244.04123077175302,65.99817890526154 l 19.465031185372023 -4.594840688478174 a 44.0 44.0 0.0 1 1 -85.64613721563691,20.21729902930396 l 19.465031185372027 -4.594840688478172 a 24.0 24.0 0.0 1 0 46.71607484489286,-11.027617652347612 z"/><path fill="#000e3e" d="M 201.46705622885378,207.7424544933456 l 13.711764355250505 14.559791147749397 a 44.0 44.0 0.0 1 1 -60.331763163102224,-64.06308105009735 l 13.711764355250509 14.5597911477494 a 24.0 24.0 0.0 1 0 32.90823445260121,34.94349875459855 z"/><path fill="#100227" d="M 57.425825457100714,241.74427558808415 l -5.753266830121526 19.154631836227587 a 44.0 44.0 0.0 1 1 25.31437405253471,-84.2803800794014 l -5.753266830121525 19.154631836227594 a 24.0 24.0 0.0 1 0 -13.80784039229166,45.97111640694621 z"/><path fill="#6b05d4" d="M -44.04123077175299,134.0018210947385 l -19.465031185372023 4.594840688478171 a 44.0 44.0 0.0 1 1 85.64613721563691,-20.21729902930396 l -19.465031185372027 4.594840688478175 a 24.0 24.0 0.0 1 0 -46.71607484489286,11.027617652347612 z"/><path fill="#f50054" d="M 201.46705622885378,207.7424544933456 l 13.50524174400018 -8.579536434803163 a 16.0 16.0 0.0 0 1 2.1110546672323576,12.062536061062943 l -15.616296411232538 -3.48299962625978 z"/><path fill="#940046" d="M 201.46705622885378,207.7424544933456 l 15.616296411232538 3.482999626259776 a 16.0 16.0 0.0 0 1 -7.0367599764293765,10.022242117740406 l -8.579536434803162 -13.505241744000182 z"/><path fill="#eb0069" d="M 201.46705622885378,207.7424544933456 l 8.579536434803154 13.505241744000186 a 16.0 16.0 0.0 0 1 -12.062536061062954,2.111054667232347 l 3.4829996262598 -15.616296411232533 z"/><path fill="#ff3117" d="M 201.46705622885378,207.7424544933456 l -3.4829996262598 15.616296411232533 a 16.0 16.0 0.0 0 1 -10.022242117740387,-7.0367599764293765 l 13.505241744000186 -8.579536434803156 z"/><path fill="#82000b" d="M 201.46705622885378,207.7424544933456 l -13.505241744000186 8.579536434803156 a 16.0 16.0 0.0 0 1 -2.111054667232347,-12.062536061062955 l 15.616296411232533 3.482999626259799 z"/><path fill="#ff130e" d="M 201.46705622885378,207.7424544933456 l -15.616296411232533 -3.482999626259799 a 16.0 16.0 0.0 0 1 7.036759976429369,-10.022242117740381 l 8.579536434803163 13.50524174400018 z"/><path fill="#5c0003" d="M 201.46705622885378,207.7424544933456 l -8.579536434803163 -13.50524174400018 a 16.0 16.0 0.0 0 1 12.062536061062968,-2.1110546672323522 l -3.482999626259805 15.616296411232533 z"/><path fill="#ff3335" d="M 201.46705622885378,207.7424544933456 l 3.482999626259805 -15.616296411232533 a 16.0 16.0 0.0 0 1 10.022242117740376,7.036759976429369 l -13.50524174400018 8.579536434803163 z"/><path fill="#d60c00" d="M 100.0,100.0 l -38.56491945886716 -70.0909907700775 a 80.0 80.0 0.0 0 1 60.85721826719466,-6.7403401688060285 l -22.2922988083275 76.83133093888353 z"/><path fill="#000000" d="M 100.0,100.0 l 22.2922988083275 -76.83133093888353 a 80.0 80.0 0.0 0 1 47.798691961749995,38.266411480016366 l -70.0909907700775 38.56491945886716 z"/><path fill="#f4894c" d="M 100.0,100.0 l 70.0909907700775 -38.56491945886716 a 80.0 80.0 0.0 0 1 6.7403401688060285,60.857218267194675 l -76.83133093888353 -22.292298808327516 z"/><path fill="#931500" d="M 100.0,100.0 l 76.83133093888351 22.292298808327526 a 80.0 80.0 0.0 0 1 -38.26641148001637,47.79869196174998 l -38.56491945886714 -70.09099077007751 z"/><path fill="#fe121c" d="M 100.0,100.0 l 38.56491945886714 70.09099077007751 a 80.0 80.0 0.0 0 1 -60.85721826719465,6.740340168806014 l 22.292298808327512 -76.83133093888353 z"/><path fill="#fe8274" d="M 100.0,100.0 l -22.292298808327512 76.83133093888353 a 80.0 80.0 0.0 0 1 -47.79869196175001,-38.2664114800164 l 70.09099077007752 -38.564919458867124 z"/><path fill="#210001" d="M 100.0,100.0 l -70.09099077007752 38.564919458867124 a 80.0 80.0 0.0 0 1 -6.740340168805986,-60.85721826719467 l 76.83133093888351 22.29229880832754 z"/><path fill="#5a1100" d="M 100.0,100.0 l -76.83133093888351 -22.29229880832754 a 80.0 80.0 0.0 0 1 38.26641148001635,-47.79869196174995 l 38.56491945886716 70.0909907700775 z"/><path fill="#b1b8f9" d="M 22.139875258511907,118.37936275391269 l -19.465031185372023 4.594840688478175 a 100.0 100.0 0.0 0 1 28.766334150607587,-95.77315918113786 l 13.711764355250502 14.559791147749394 a 80.0 80.0 0.0 0 0 -23.013067320486066,76.61852734491029 z"/><path fill="#000000" d="M 45.15294257899798,41.76083540900241 l -13.71176435525051 -14.559791147749392 a 100.0 100.0 0.0 0 1 97.32515592686018,-22.97420344239098 l -5.753266830121532 19.154631836227594 a 80.0 80.0 0.0 0 0 -77.86012474148814,18.37936275391278 z"/><path fill="#000000" d="M 123.0130673204861,23.381472655089652 l 5.753266830121518 -19.15463183622759 a 100.0 100.0 0.0 0 1 68.55882177625253,72.79895573874708 l -19.465031185372027 4.594840688478172 a 80.0 80.0 0.0 0 0 -54.84705742100202,-58.23916459099767 z"/><path fill="#000e3e" d="M 177.8601247414881,81.62063724608731 l 19.46503118537202 -4.5948406884781905 a 100.0 100.0 0.0 0 1 -28.766334150607584,95.77315918113793 l -13.711764355250494 -14.559791147749394 a 80.0 80.0 0.0 0 0 23.01306732048606,-76.61852734491035 z"/><path fill="#100227" d="M 154.84705742100203,158.23916459099758 l 13.711764355250509 14.559791147749394 a 100.0 100.0 0.0 0 1 -97.32515592686018,22.974203442390973 l 5.753266830121532 -19.154631836227594 a 80.0 80.0 0.0 0 0 77.86012474148814,-18.379362753912773 z"/><path fill="#6b05d4" d="M 76.9869326795139,176.61852734491035 l -5.753266830121521 19.154631836227587 a 100.0 100.0 0.0 0 1 -68.55882177625251,-72.79895573874708 l 19.465031185372027 -4.594840688478165 a 80.0 80.0 0.0 0 0 54.847057421002006,58.23916459099766 z"/><path fill="#b1b8f9" d="M -1.4670562288537425,-7.742454493345548 l -13.711764355250507 -14.559791147749397 a 44.0 44.0 0.0 1 1 60.331763163102224,64.06308105009735 l -13.711764355250509 -14.5597911477494 a 24.0 24.0 0.0 1 0 -32.90823445260121,-34.94349875459855 z"/><path fill="#000000" d="M 142.5741745428993,-41.744275588084164 l 5.7532668301215235 -19.154631836227587 a 44.0 44.0 0.0 1 1 -25.31437405253471,84.2803800794014 l 5.753266830121529 -19.154631836227594 a 24.0 24.0 0.0 1 0 13.80784039229166,-45.97111640694621 z"/><path fill="#000000" d="M 244.04123077175302,65.99817890526154 l 19.465031185372023 -4.594840688478174 a 44.0 44.0 0.0 1 1 -85.64613721563691,20.21729902930396 l 19.465031185372027 -4.594840688478172 a 24.0 24.0 0.0 1 0 46.71607484489286,-11.027617652347612 z"/><path fill="#000e3e" d="M 201.46705622885378,207.7424544933456 l 13.711764355250505 14.559791147749397 a 44.0 44.0 0.0 1 1 -60.331763163102224,-64.06308105009735 l 13.711764355250509 14.5597911477494 a 24.0 24.0 0.0 1 0 32.90823445260121,34.94349875459855 z"/><path fill="#100227" d="M 57.425825457100714,241.74427558808415 l -5.753266830121526 19.154631836227587 a 44.0 44.0 0.0 1 1 25.31437405253471,-84.2803800794014 l -5.753266830121525 19.154631836227594 a 24.0 24.0 0.0 1 0 -13.80784039229166,45.97111640694621 z"/><path fill="#6b05d4" d="M -44.04123077175299,134.0018210947385 l -19.465031185372023 4.594840688478171 a 44.0 44.0 0.0 1 1 85.64613721563691,-20.21729902930396 l -19.465031185372027 4.594840688478175 a 24.0 24.0 0.0 1 0 -46.71607484489286,11.027617652347612 z"/><path fill="#0027e4" d="M 213.02967420268504,196.68325625878836 l 2.8906544934578156 -2.764799558639313 a 20.0 20.0 0.0 0 1 4.74529703712371,19.428900021088804 l -3.8397139008825576 -1.1209804455784482 a 16.0 16.0 0.0 0 0 -3.796237629698968,-15.543120016871041 z"/><path fill="#7990ff" d="M 216.825911832384,212.2263762756594 l 3.8397139008825567 1.1209804455784498 a 20.0 20.0 0.0 0 1 -14.453272467289093,13.823997793196568 l -0.9490594074247376 -3.885780004217761 a 16.0 16.0 0.0 0 0 11.562617973831273,-11.059198234557257 z"/><path fill="#4300ff" d="M 205.26329385855271,223.28557451021666 l 0.9490594074247393 3.8857800042177635 a 20.0 20.0 0.0 0 1 -19.198569504412777,-5.604902227892256 l 2.8906544934578164 -2.7647995586393126 a 16.0 16.0 0.0 0 0 15.358855603530223,4.483921782313805 z"/><path fill="#386df8" d="M 189.9044382550225,218.80165272790285 l -2.890654493457816 2.7647995586393126 a 20.0 20.0 0.0 0 1 -4.7452970371237075,-19.428900021088793 l 3.8397139008825576 1.1209804455784447 a 16.0 16.0 0.0 0 0 3.7962376296989664,15.543120016871038 z"/><path fill="#6848fb" d="M 186.10820062532355,203.25853271103182 l -3.8397139008825576 -1.1209804455784458 a 20.0 20.0 0.0 0 1 14.45327246728911,-13.823997793196593 l 0.9490594074247358 3.8857800042177644 a 16.0 16.0 0.0 0 0 -11.562617973831289,11.059198234557275 z"/><path fill="#000000" d="M 197.67081859915484,192.19933447647455 l -0.9490594074247363 -3.8857800042177644 a 20.0 20.0 0.0 0 1 19.198569504412763,5.604902227892261 l -2.8906544934578164 2.7647995586393126 a 16.0 16.0 0.0 0 0 -15.358855603530209,-4.483921782313809 z"/><path fill="#0027e4" d="M 229.88093909538472,216.03770979062614 l 3.8397139008825585 1.1209804455784476 a 8.8 8.8 0.0 1 1 -16.894741163883253,-4.932313960545168 l 3.8397139008825576 1.1209804455784473 a 4.8 4.8 0.0 1 0 9.215313362118138,2.690353069388273 z"/><path fill="#7990ff" d="M 208.49009584379684,236.49722652455705 l 0.9490594074247386 3.885780004217765 a 8.8 8.8 0.0 1 1 -4.175861392668851,-17.097432018558163 l 0.9490594074247389 3.8857800042177626 a 4.8 4.8 0.0 1 0 2.2777425778193727,9.325872010122634 z"/><path fill="#4300ff" d="M 180.07621297726593,228.20197122727652 l -2.890654493457817 2.7647995586393126 a 8.8 8.8 0.0 1 1 12.718879771214391,-12.165118058012974 l -2.8906544934578164 2.7647995586393117 a 4.8 4.8 0.0 1 0 -6.937570784298758,6.635518940734349 z"/><path fill="#386df8" d="M 173.05317336232287,199.4471991960651 l -3.8397139008825585 -1.1209804455784471 a 8.8 8.8 0.0 1 1 16.894741163883253,4.932313960545168 l -3.8397139008825576 -1.1209804455784473 a 4.8 4.8 0.0 1 0 -9.215313362118138,-2.690353069388273 z"/><path fill="#6848fb" d="M 194.44401661391075,178.98768246213416 l -0.9490594074247356 -3.8857800042177653 a 8.8 8.8 0.0 1 1 4.175861392668835,17.097432018558166 l -0.9490594074247349 -3.885780004217766 a 4.8 4.8 0.0 1 0 -2.2777425778193643,-9.325872010122634 z"/><path fill="#000000" d="M 222.85789948044163,187.2829377594147 l 2.8906544934578164 -2.7647995586393126 a 8.8 8.8 0.0 1 1 -12.718879771214393,12.165118058012974 l 2.890654493457818 -2.7647995586393117 a 4.8 4.8 0.0 1 0 6.937570784298758,-6.635518940734349 z"/><path fill="#d60c00" d="M 100.0,100.0 l -38.56491945886716 -70.0909907700775 a 80.0 80.0 0.0 0 1 60.85721826719466,-6.7403401688060285 l -22.2922988083275 76.83133093888353 z"/><path fill="#000000" d="M 100.0,100.0 l 22.2922988083275 -76.83133093888353 a 80.0 80.0 0.0 0 1 47.798691961749995,38.266411480016366 l -70.0909907700775 38.56491945886716 z"/><path fill="#f4894c" d="M 100.0,100.0 l 70.0909907700775 -38.56491945886716 a 80.0 80.0 0.0 0 1 6.7403401688060285,60.857218267194675 l -76.83133093888353 -22.292298808327516 z"/><path fill="#931500" d="M 100.0,100.0 l 76.83133093888351 22.292298808327526 a 80.0 80.0 0.0 0 1 -38.26641148001637,47.79869196174998 l -38.56491945886714 -70.09099077007751 z"/><path fill="#fe121c" d="M 100.0,100.0 l 38.56491945886714 70.09099077007751 a 80.0 80.0 0.0 0 1 -60.85721826719465,6.740340168806014 l 22.292298808327512 -76.83133093888353 z"/><path fill="#fe8274" d="M 100.0,100.0 l -22.292298808327512 76.83133093888353 a 80.0 80.0 0.0 0 1 -47.79869196175001,-38.2664114800164 l 70.09099077007752 -38.564919458867124 z"/><path fill="#210001" d="M 100.0,100.0 l -70.09099077007752 38.564919458867124 a 80.0 80.0 0.0 0 1 -6.740340168805986,-60.85721826719467 l 76.83133093888351 22.29229880832754 z"/><path fill="#5a1100" d="M 100.0,100.0 l -76.83133093888351 -22.29229880832754 a 80.0 80.0 0.0 0 1 38.26641148001635,-47.79869196174995 l 38.56491945886716 70.0909907700775 z"/><path fill="#b1b8f9" d="M 22.139875258511907,118.37936275391269 l -19.465031185372023 4.594840688478175 a 100.0 100.0 0.0 0 1 28.766334150607587,-95.77315918113786 l 13.711764355250502 14.559791147749394 a 80.0 80.0 0.0 0 0 -23.013067320486066,76.61852734491029 z"/><path fill="#000000" d="M 45.15294257899798,41.76083540900241 l -13.71176435525051 -14.559791147749392 a 100.0 100.0 0.0 0 1 97.32515592686018,-22.97420344239098 l -5.753266830121532 19.154631836227594 a 80.0 80.0 0.0 0 0 -77.86012474148814,18.37936275391278 z"/><path fill="#000000" d="M 123.0130673204861,23.381472655089652 l 5.753266830121518 -19.15463183622759 a 100.0 100.0 0.0 0 1 68.55882177625253,72.79895573874708 l -19.465031185372027 4.594840688478172 a 80.0 80.0 0.0 0 0 -54.84705742100202,-58.23916459099767 z"/><path fill="#000e3e" d="M 177.8601247414881,81.62063724608731 l 19.46503118537202 -4.5948406884781905 a 100.0 100.0 0.0 0 1 -28.766334150607584,95.77315918113793 l -13.711764355250494 -14.559791147749394 a 80.0 80.0 0.0 0 0 23.01306732048606,-76.61852734491035 z"/><path fill="#100227" d="M 154.84705742100203,158.23916459099758 l 13.711764355250509 14.559791147749394 a 100.0 100.0 0.0 0 1 -97.32515592686018,22.974203442390973 l 5.753266830121532 -19.154631836227594 a 80.0 80.0 0.0 0 0 77.86012474148814,-18.379362753912773 z"/><path fill="#6b05d4" d="M 76.9869326795139,176.61852734491035 l -5.753266830121521 19.154631836227587 a 100.0 100.0 0.0 0 1 -68.55882177625251,-72.79895573874708 l 19.465031185372027 -4.594840688478165 a 80.0 80.0 0.0 0 0 54.847057421002006,58.23916459099766 z"/><path fill="#b1b8f9" d="M -1.4670562288537425,-7.742454493345548 l -13.711764355250507 -14.559791147749397 a 44.0 44.0 0.0 1 1 60.331763163102224,64.06308105009735 l -13.711764355250509 -14.5597911477494 a 24.0 24.0 0.0 1 0 -32.90823445260121,-34.94349875459855 z"/><path fill="#000000" d="M 142.5741745428993,-41.744275588084164 l 5.7532668301215235 -19.154631836227587 a 44.0 44.0 0.0 1 1 -25.31437405253471,84.2803800794014 l 5.753266830121529 -19.154631836227594 a 24.0 24.0 0.0 1 0 13.80784039229166,-45.97111640694621 z"/><path fill="#000000" d="M 244.04123077175302,65.99817890526154 l 19.465031185372023 -4.594840688478174 a 44.0 44.0 0.0 1 1 -85.64613721563691,20.21729902930396 l 19.465031185372027 -4.594840688478172 a 24.0 24.0 0.0 1 0 46.71607484489286,-11.027617652347612 z"/><path fill="#000e3e" d="M 201.46705622885378,207.7424544933456 l 13.711764355250505 14.559791147749397 a 44.0 44.0 0.0 1 1 -60.331763163102224,-64.06308105009735 l 13.711764355250509 14.5597911477494 a 24.0 24.0 0.0 1 0 32.90823445260121,34.94349875459855 z"/><path fill="#100227" d="M 57.425825457100714,241.74427558808415 l -5.753266830121526 19.154631836227587 a 44.0 44.0 0.0 1 1 25.31437405253471,-84.2803800794014 l -5.753266830121525 19.154631836227594 a 24.0 24.0 0.0 1 0 -13.80784039229166,45.97111640694621 z"/><path fill="#6b05d4" d="M -44.04123077175299,134.0018210947385 l -19.465031185372023 4.594840688478171 a 44.0 44.0 0.0 1 1 85.64613721563691,-20.21729902930396 l -19.465031185372027 4.594840688478175 a 24.0 24.0 0.0 1 0 -46.71607484489286,11.027617652347612 z"/><path fill="#ef0500" d="M 57.425825457100714,241.74427558808415 l -10.049610226085177 -12.450113826940068 a 16.0 16.0 0.0 0 1 11.747022600512386,-3.4595936257801547 l -1.6974123744272087 15.909707452720223 z"/><path fill="#ff717e" d="M 57.425825457100714,241.74427558808415 l 1.6974123744272047 -15.909707452720223 a 16.0 16.0 0.0 0 1 10.752701452512849,5.860097226635027 l -12.450113826940052 10.049610226085196 z"/><path fill="#ff2d5b" d="M 57.425825457100714,241.74427558808415 l 12.450113826940049 -10.0496102260852 a 16.0 16.0 0.0 0 1 3.4595936257801725,11.74702260051241 l -15.909707452720221 -1.6974123744272116 z"/><path fill="#ff5719" d="M 57.425825457100714,241.74427558808415 l 15.909707452720223 1.6974123744271936 a 16.0 16.0 0.0 0 1 -5.86009722663503,10.752701452512861 l -10.049610226085193 -12.450113826940054 z"/><path fill="#fa785d" d="M 57.425825457100714,241.74427558808415 l 10.049610226085196 12.45011382694005 a 16.0 16.0 0.0 0 1 -11.747022600512393,3.4595936257801725 l 1.6974123744271965 -15.909707452720223 z"/><path fill="#ee3419" d="M 57.425825457100714,241.74427558808415 l -1.6974123744271927 15.909707452720225 a 16.0 16.0 0.0 0 1 -10.75270145251286,-5.86009722663503 l 12.450113826940052 -10.049610226085194 z"/><path fill="#ff5e4a" d="M 57.425825457100714,241.74427558808415 l -12.45011382694005 10.049610226085198 a 16.0 16.0 0.0 0 1 -3.4595936257801707,-11.747022600512407 l 15.909707452720221 1.6974123744272096 z"/><path fill="#fff7f4" d="M 57.425825457100714,241.74427558808415 l -15.909707452720223 -1.6974123744272058 a 16.0 16.0 0.0 0 1 5.860097226635029,-10.752701452512847 l 10.049610226085194 12.450113826940052 z"/><path fill="#d60c00" d="M 100.0,100.0 l -38.56491945886716 -70.0909907700775 a 80.0 80.0 0.0 0 1 60.85721826719466,-6.7403401688060285 l -22.2922988083275 76.83133093888353 z"/><path fill="#000000" d="M 100.0,100.0 l 22.2922988083275 -76.83133093888353 a 80.0 80.0 0.0 0 1 47.798691961749995,38.266411480016366 l -70.0909907700775 38.56491945886716 z"/><path fill="#f4894c" d="M 100.0,100.0 l 70.0909907700775 -38.56491945886716 a 80.0 80.0 0.0 0 1 6.7403401688060285,60.857218267194675 l -76.83133093888353 -22.292298808327516 z"/><path fill="#931500" d="M 100.0,100.0 l 76.83133093888351 22.292298808327526 a 80.0 80.0 0.0 0 1 -38.26641148001637,47.79869196174998 l -38.56491945886714 -70.09099077007751 z"/><path fill="#fe121c" d="M 100.0,100.0 l 38.56491945886714 70.09099077007751 a 80.0 80.0 0.0 0 1 -60.85721826719465,6.740340168806014 l 22.292298808327512 -76.83133093888353 z"/><path fill="#fe8274" d="M 100.0,100.0 l -22.292298808327512 76.83133093888353 a 80.0 80.0 0.0 0 1 -47.79869196175001,-38.2664114800164 l 70.09099077007752 -38.564919458867124 z"/><path fill="#210001" d="M 100.0,100.0 l -70.09099077007752 38.564919458867124 a 80.0 80.0 0.0 0 1 -6.740340168805986,-60.85721826719467 l 76.83133093888351 22.29229880832754 z"/><path fill="#5a1100" d="M 100.0,100.0 l -76.83133093888351 -22.29229880832754 a 80.0 80.0 0.0 0 1 38.26641148001635,-47.79869196174995 l 38.56491945886716 70.0909907700775 z"/><path fill="#b1b8f9" d="M 22.139875258511907,118.37936275391269 l -19.465031185372023 4.594840688478175 a 100.0 100.0 0.0 0 1 28.766334150607587,-95.77315918113786 l 13.711764355250502 14.559791147749394 a 80.0 80.0 0.0 0 0 -23.013067320486066,76.61852734491029 z"/><path fill="#000000" d="M 45.15294257899798,41.76083540900241 l -13.71176435525051 -14.559791147749392 a 100.0 100.0 0.0 0 1 97.32515592686018,-22.97420344239098 l -5.753266830121532 19.154631836227594 a 80.0 80.0 0.0 0 0 -77.86012474148814,18.37936275391278 z"/><path fill="#000000" d="M 123.0130673204861,23.381472655089652 l 5.753266830121518 -19.15463183622759 a 100.0 100.0 0.0 0 1 68.55882177625253,72.79895573874708 l -19.465031185372027 4.594840688478172 a 80.0 80.0 0.0 0 0 -54.84705742100202,-58.23916459099767 z"/><path fill="#000e3e" d="M 177.8601247414881,81.62063724608731 l 19.46503118537202 -4.5948406884781905 a 100.0 100.0 0.0 0 1 -28.766334150607584,95.77315918113793 l -13.711764355250494 -14.559791147749394 a 80.0 80.0 0.0 0 0 23.01306732048606,-76.61852734491035 z"/><path fill="#100227" d="M 154.84705742100203,158.23916459099758 l 13.711764355250509 14.559791147749394 a 100.0 100.0 0.0 0 1 -97.32515592686018,22.974203442390973 l 5.753266830121532 -19.154631836227594 a 80.0 80.0 0.0 0 0 77.86012474148814,-18.379362753912773 z"/><path fill="#6b05d4" d="M 76.9869326795139,176.61852734491035 l -5.753266830121521 19.154631836227587 a 100.0 100.0 0.0 0 1 -68.55882177625251,-72.79895573874708 l 19.465031185372027 -4.594840688478165 a 80.0 80.0 0.0 0 0 54.847057421002006,58.23916459099766 z"/><path fill="#b1b8f9" d="M -1.4670562288537425,-7.742454493345548 l -13.711764355250507 -14.559791147749397 a 44.0 44.0 0.0 1 1 60.331763163102224,64.06308105009735 l -13.711764355250509 -14.5597911477494 a 24.0 24.0 0.0 1 0 -32.90823445260121,-34.94349875459855 z"/><path fill="#000000" d="M 142.5741745428993,-41.744275588084164 l 5.7532668301215235 -19.154631836227587 a 44.0 44.0 0.0 1 1 -25.31437405253471,84.2803800794014 l 5.753266830121529 -19.154631836227594 a 24.0 24.0 0.0 1 0 13.80784039229166,-45.97111640694621 z"/><path fill="#000000" d="M 244.04123077175302,65.99817890526154 l 19.465031185372023 -4.594840688478174 a 44.0 44.0 0.0 1 1 -85.64613721563691,20.21729902930396 l 19.465031185372027 -4.594840688478172 a 24.0 24.0 0.0 1 0 46.71607484489286,-11.027617652347612 z"/><path fill="#000e3e" d="M 201.46705622885378,207.7424544933456 l 13.711764355250505 14.559791147749397 a 44.0 44.0 0.0 1 1 -60.331763163102224,-64.06308105009735 l 13.711764355250509 14.5597911477494 a 24.0 24.0 0.0 1 0 32.90823445260121,34.94349875459855 z"/><path fill="#100227" d="M 57.425825457100714,241.74427558808415 l -5.753266830121526 19.154631836227587 a 44.0 44.0 0.0 1 1 25.31437405253471,-84.2803800794014 l -5.753266830121525 19.154631836227594 a 24.0 24.0 0.0 1 0 -13.80784039229166,45.97111640694621 z"/><path fill="#6b05d4" d="M -44.04123077175299,134.0018210947385 l -19.465031185372023 4.594840688478171 a 44.0 44.0 0.0 1 1 85.64613721563691,-20.21729902930396 l -19.465031185372027 4.594840688478175 a 24.0 24.0 0.0 1 0 -46.71607484489286,11.027617652347612 z"/><path fill="#000000" d="M 53.68993076036497,257.3020097037869 l -0.9339736741839341 3.889433528925692 a 20.0 20.0 0.0 0 1 -14.506807026443195,-13.7678084638601 l 3.835335079472573 -1.1358718361536724 a 16.0 16.0 0.0 0 0 11.605445621154555,11.014246771088079 z"/><path fill="#0f0255" d="M 42.08448513921043,246.28776293269885 l -3.8353350794725722 1.1358718361536735 a 20.0 20.0 0.0 0 1 4.669868370919681,-19.447167644628504 l 2.901361405288636 2.7535616927720277 a 16.0 16.0 0.0 0 0 -3.7358946967357447,15.557734115702804 z"/><path fill="#0009c3" d="M 45.82037983594617,230.73002881699603 l -2.9013614052886365 -2.753561692772027 a 20.0 20.0 0.0 0 1 19.176675397362853,-5.679359180768327 l -0.9339736741839317 3.889433528925693 a 16.0 16.0 0.0 0 0 -15.341340317890285,4.543487344614661 z"/><path fill="#07002a" d="M 61.161720153836455,226.18654147238138 l 0.9339736741839381 -3.889433528925691 a 20.0 20.0 0.0 0 1 14.506807026443177,13.767808463860108 l -3.835335079472573 1.1358718361536688 a 16.0 16.0 0.0 0 0 -11.605445621154542,-11.014246771088086 z"/><path fill="#2a5bff" d="M 72.767165774991,237.20078824346945 l 3.8353350794725736 -1.1358718361536695 a 20.0 20.0 0.0 0 1 -4.669868370919678,19.447167644628472 l -2.901361405288638 -2.753561692772024 a 16.0 16.0 0.0 0 0 3.735894696735743,-15.557734115702779 z"/><path fill="#e6ecff" d="M 69.03127107825526,252.75852235917225 l 2.9013614052886387 2.753561692772024 a 20.0 20.0 0.0 0 1 -19.17667539736287,5.679359180768341 l 0.9339736741839353 -3.889433528925693 a 16.0 16.0 0.0 0 0 15.341340317890296,-4.543487344614672 z"/><path fill="#000000" d="M 29.04434586900367,250.1497271756213 l -3.8353350794725736 1.1358718361536728 a 8.8 8.8 0.0 1 1 16.875474349679322,-4.99783607907616 l -3.835335079472575 1.1358718361536733 a 4.8 4.8 0.0 1 0 -9.204804190734173,2.7260924067688146 z"/><path fill="#0f0255" d="M 35.95575105796481,221.36791906157117 l -2.9013614052886365 -2.7535616927720277 a 8.8 8.8 0.0 1 1 12.765990183269999,12.11567144819692 l -2.901361405288636 -2.7535616927720277 a 4.8 4.8 0.0 1 0 -6.9632673726927266,-6.608548062652865 z"/><path fill="#0009c3" d="M 64.33723064606184,212.962467474034 l 0.9339736741839348 -3.889433528925693 a 8.8 8.8 0.0 1 1 -4.109484166409313,17.113507527273047 l 0.9339736741839353 -3.889433528925693 a 4.8 4.8 0.0 1 0 2.2415368180414434,-9.334640469421661 z"/><path fill="#07002a" d="M 85.80730504519775,233.33882400054696 l 3.835335079472573 -1.1358718361536733 a 8.8 8.8 0.0 1 1 -16.875474349679322,4.997836079076161 l 3.835335079472575 -1.1358718361536733 a 4.8 4.8 0.0 1 0 9.204804190734173,-2.7260924067688146 z"/><path fill="#2a5bff" d="M 78.89589985623662,262.12063211459713 l 2.9013614052886383 2.7535616927720254 a 8.8 8.8 0.0 1 1 -12.765990183270008,-12.115671448196911 l 2.901361405288638 2.753561692772026 a 4.8 4.8 0.0 1 0 6.963267372692732,6.60854806265286 z"/><path fill="#e6ecff" d="M 50.51442026813959,270.52608370213426 l -0.9339736741839353 3.889433528925693 a 8.8 8.8 0.0 1 1 4.109484166409313,-17.113507527273047 l -0.9339736741839344 3.889433528925693 a 4.8 4.8 0.0 1 0 -2.2415368180414434,9.334640469421661 z"/><path fill="#d60c00" d="M 100.0,100.0 l -38.56491945886716 -70.0909907700775 a 80.0 80.0 0.0 0 1 60.85721826719466,-6.7403401688060285 l -22.2922988083275 76.83133093888353 z"/><path fill="#000000" d="M 100.0,100.0 l 22.2922988083275 -76.83133093888353 a 80.0 80.0 0.0 0 1 47.798691961749995,38.266411480016366 l -70.0909907700775 38.56491945886716 z"/><path fill="#f4894c" d="M 100.0,100.0 l 70.0909907700775 -38.56491945886716 a 80.0 80.0 0.0 0 1 6.7403401688060285,60.857218267194675 l -76.83133093888353 -22.292298808327516 z"/><path fill="#931500" d="M 100.0,100.0 l 76.83133093888351 22.292298808327526 a 80.0 80.0 0.0 0 1 -38.26641148001637,47.79869196174998 l -38.56491945886714 -70.09099077007751 z"/><path fill="#fe121c" d="M 100.0,100.0 l 38.56491945886714 70.09099077007751 a 80.0 80.0 0.0 0 1 -60.85721826719465,6.740340168806014 l 22.292298808327512 -76.83133093888353 z"/><path fill="#fe8274" d="M 100.0,100.0 l -22.292298808327512 76.83133093888353 a 80.0 80.0 0.0 0 1 -47.79869196175001,-38.2664114800164 l 70.09099077007752 -38.564919458867124 z"/><path fill="#210001" d="M 100.0,100.0 l -70.09099077007752 38.564919458867124 a 80.0 80.0 0.0 0 1 -6.740340168805986,-60.85721826719467 l 76.83133093888351 22.29229880832754 z"/><path fill="#5a1100" d="M 100.0,100.0 l -76.83133093888351 -22.29229880832754 a 80.0 80.0 0.0 0 1 38.26641148001635,-47.79869196174995 l 38.56491945886716 70.0909907700775 z"/><path fill="#b1b8f9" d="M 22.139875258511907,118.37936275391269 l -19.465031185372023 4.594840688478175 a 100.0 100.0 0.0 0 1 28.766334150607587,-95.77315918113786 l 13.711764355250502 14.559791147749394 a 80.0 80.0 0.0 0 0 -23.013067320486066,76.61852734491029 z"/><path fill="#000000" d="M 45.15294257899798,41.76083540900241 l -13.71176435525051 -14.559791147749392 a 100.0 100.0 0.0 0 1 97.32515592686018,-22.97420344239098 l -5.753266830121532 19.154631836227594 a 80.0 80.0 0.0 0 0 -77.86012474148814,18.37936275391278 z"/><path fill="#000000" d="M 123.0130673204861,23.381472655089652 l 5.753266830121518 -19.15463183622759 a 100.0 100.0 0.0 0 1 68.55882177625253,72.79895573874708 l -19.465031185372027 4.594840688478172 a 80.0 80.0 0.0 0 0 -54.84705742100202,-58.23916459099767 z"/><path fill="#000e3e" d="M 177.8601247414881,81.62063724608731 l 19.46503118537202 -4.5948406884781905 a 100.0 100.0 0.0 0 1 -28.766334150607584,95.77315918113793 l -13.711764355250494 -14.559791147749394 a 80.0 80.0 0.0 0 0 23.01306732048606,-76.61852734491035 z"/><path fill="#100227" d="M 154.84705742100203,158.23916459099758 l 13.711764355250509 14.559791147749394 a 100.0 100.0 0.0 0 1 -97.32515592686018,22.974203442390973 l 5.753266830121532 -19.154631836227594 a 80.0 80.0 0.0 0 0 77.86012474148814,-18.379362753912773 z"/><path fill="#6b05d4" d="M 76.9869326795139,176.61852734491035 l -5.753266830121521 19.154631836227587 a 100.0 100.0 0.0 0 1 -68.55882177625251,-72.79895573874708 l 19.465031185372027 -4.594840688478165 a 80.0 80.0 0.0 0 0 54.847057421002006,58.23916459099766 z"/><path fill="#b1b8f9" d="M -1.4670562288537425,-7.742454493345548 l -13.711764355250507 -14.559791147749397 a 44.0 44.0 0.0 1 1 60.331763163102224,64.06308105009735 l -13.711764355250509 -14.5597911477494 a 24.0 24.0 0.0 1 0 -32.90823445260121,-34.94349875459855 z"/><path fill="#000000" d="M 142.5741745428993,-41.744275588084164 l 5.7532668301215235 -19.154631836227587 a 44.0 44.0 0.0 1 1 -25.31437405253471,84.2803800794014 l 5.753266830121529 -19.154631836227594 a 24.0 24.0 0.0 1 0 13.80784039229166,-45.97111640694621 z"/><path fill="#000000" d="M 244.04123077175302,65.99817890526154 l 19.465031185372023 -4.594840688478174 a 44.0 44.0 0.0 1 1 -85.64613721563691,20.21729902930396 l 19.465031185372027 -4.594840688478172 a 24.0 24.0 0.0 1 0 46.71607484489286,-11.027617652347612 z"/><path fill="#000e3e" d="M 201.46705622885378,207.7424544933456 l 13.711764355250505 14.559791147749397 a 44.0 44.0 0.0 1 1 -60.331763163102224,-64.06308105009735 l 13.711764355250509 14.5597911477494 a 24.0 24.0 0.0 1 0 32.90823445260121,34.94349875459855 z"/><path fill="#100227" d="M 57.425825457100714,241.74427558808415 l -5.753266830121526 19.154631836227587 a 44.0 44.0 0.0 1 1 25.31437405253471,-84.2803800794014 l -5.753266830121525 19.154631836227594 a 24.0 24.0 0.0 1 0 -13.80784039229166,45.97111640694621 z"/><path fill="#6b05d4" d="M -44.04123077175299,134.0018210947385 l -19.465031185372023 4.594840688478171 a 44.0 44.0 0.0 1 1 85.64613721563691,-20.21729902930396 l -19.465031185372027 4.594840688478175 a 24.0 24.0 0.0 1 0 -46.71607484489286,11.027617652347612 z"/><path fill="#240011" d="M -44.04123077175299,134.0018210947385 l -15.188773541846082 5.030025675333719 a 16.0 16.0 0.0 0 1 0.8919235079289809,-12.213345180108973 l 14.296850033917101 7.1833195047752545 z"/><path fill="#ff648c" d="M -44.04123077175299,134.0018210947385 l -14.296850033917101 -7.183319504775251 a 16.0 16.0 0.0 0 1 9.266824358583385,-8.00545403707083 l 5.030025675333716 15.188773541846082 z"/><path fill="#350801" d="M -44.04123077175299,134.0018210947385 l -5.030025675333716 -15.188773541846082 a 16.0 16.0 0.0 0 1 12.21334518010897,0.8919235079289809 l -7.183319504775254 14.296850033917101 z"/><path fill="#e70114" d="M -44.04123077175299,134.0018210947385 l 7.183319504775254 -14.296850033917101 a 16.0 16.0 0.0 0 1 8.005454037070828,9.266824358583385 l -15.188773541846082 5.030025675333717 z"/><path fill="#000000" d="M -44.04123077175299,134.0018210947385 l 15.188773541846082 -5.030025675333717 a 16.0 16.0 0.0 0 1 -0.8919235079289827,12.213345180108973 l -14.2968500339171 -7.183319504775256 z"/><path fill="#a70315" d="M -44.04123077175299,134.0018210947385 l 14.296850033917101 7.183319504775253 a 16.0 16.0 0.0 0 1 -9.266824358583388,8.00545403707083 l -5.030025675333714 -15.188773541846084 z"/><path fill="#000000" d="M -44.04123077175299,134.0018210947385 l 5.030025675333718 15.188773541846082 a 16.0 16.0 0.0 0 1 -12.213345180108973,-0.8919235079289827 l 7.183319504775255 -14.2968500339171 z"/><path fill="#000000" d="M -44.04123077175299,134.0018210947385 l -7.183319504775252 14.296850033917101 a 16.0 16.0 0.0 0 1 -8.00545403707083,-9.266824358583387 l 15.188773541846082 -5.0300256753337145 z"/><path fill="#d60c00" d="M 100.0,100.0 l -38.56491945886716 -70.0909907700775 a 80.0 80.0 0.0 0 1 60.85721826719466,-6.7403401688060285 l -22.2922988083275 76.83133093888353 z"/><path fill="#000000" d="M 100.0,100.0 l 22.2922988083275 -76.83133093888353 a 80.0 80.0 0.0 0 1 47.798691961749995,38.266411480016366 l -70.0909907700775 38.56491945886716 z"/><path fill="#f4894c" d="M 100.0,100.0 l 70.0909907700775 -38.56491945886716 a 80.0 80.0 0.0 0 1 6.7403401688060285,60.857218267194675 l -76.83133093888353 -22.292298808327516 z"/><path fill="#931500" d="M 100.0,100.0 l 76.83133093888351 22.292298808327526 a 80.0 80.0 0.0 0 1 -38.26641148001637,47.79869196174998 l -38.56491945886714 -70.09099077007751 z"/><path fill="#fe121c" d="M 100.0,100.0 l 38.56491945886714 70.09099077007751 a 80.0 80.0 0.0 0 1 -60.85721826719465,6.740340168806014 l 22.292298808327512 -76.83133093888353 z"/><path fill="#fe8274" d="M 100.0,100.0 l -22.292298808327512 76.83133093888353 a 80.0 80.0 0.0 0 1 -47.79869196175001,-38.2664114800164 l 70.09099077007752 -38.564919458867124 z"/><path fill="#210001" d="M 100.0,100.0 l -70.09099077007752 38.564919458867124 a 80.0 80.0 0.0 0 1 -6.740340168805986,-60.85721826719467 l 76.83133093888351 22.29229880832754 z"/><path fill="#5a1100" d="M 100.0,100.0 l -76.83133093888351 -22.29229880832754 a 80.0 80.0 0.0 0 1 38.26641148001635,-47.79869196174995 l 38.56491945886716 70.0909907700775 z"/><path fill="#b1b8f9" d="M 22.139875258511907,118.37936275391269 l -19.465031185372023 4.594840688478175 a 100.0 100.0 0.0 0 1 28.766334150607587,-95.77315918113786 l 13.711764355250502 14.559791147749394 a 80.0 80.0 0.0 0 0 -23.013067320486066,76.61852734491029 z"/><path fill="#000000" d="M 45.15294257899798,41.76083540900241 l -13.71176435525051 -14.559791147749392 a 100.0 100.0 0.0 0 1 97.32515592686018,-22.97420344239098 l -5.753266830121532 19.154631836227594 a 80.0 80.0 0.0 0 0 -77.86012474148814,18.37936275391278 z"/><path fill="#000000" d="M 123.0130673204861,23.381472655089652 l 5.753266830121518 -19.15463183622759 a 100.0 100.0 0.0 0 1 68.55882177625253,72.79895573874708 l -19.465031185372027 4.594840688478172 a 80.0 80.0 0.0 0 0 -54.84705742100202,-58.23916459099767 z"/><path fill="#000e3e" d="M 177.8601247414881,81.62063724608731 l 19.46503118537202 -4.5948406884781905 a 100.0 100.0 0.0 0 1 -28.766334150607584,95.77315918113793 l -13.711764355250494 -14.559791147749394 a 80.0 80.0 0.0 0 0 23.01306732048606,-76.61852734491035 z"/><path fill="#100227" d="M 154.84705742100203,158.23916459099758 l 13.711764355250509 14.559791147749394 a 100.0 100.0 0.0 0 1 -97.32515592686018,22.974203442390973 l 5.753266830121532 -19.154631836227594 a 80.0 80.0 0.0 0 0 77.86012474148814,-18.379362753912773 z"/><path fill="#6b05d4" d="M 76.9869326795139,176.61852734491035 l -5.753266830121521 19.154631836227587 a 100.0 100.0 0.0 0 1 -68.55882177625251,-72.79895573874708 l 19.465031185372027 -4.594840688478165 a 80.0 80.0 0.0 0 0 54.847057421002006,58.23916459099766 z"/><path fill="#b1b8f9" d="M -1.4670562288537425,-7.742454493345548 l -13.711764355250507 -14.559791147749397 a 44.0 44.0 0.0 1 1 60.331763163102224,64.06308105009735 l -13.711764355250509 -14.5597911477494 a 24.0 24.0 0.0 1 0 -32.90823445260121,-34.94349875459855 z"/><path fill="#000000" d="M 142.5741745428993,-41.744275588084164 l 5.7532668301215235 -19.154631836227587 a 44.0 44.0 0.0 1 1 -25.31437405253471,84.2803800794014 l 5.753266830121529 -19.154631836227594 a 24.0 24.0 0.0 1 0 13.80784039229166,-45.97111640694621 z"/><path fill="#000000" d="M 244.04123077175302,65.99817890526154 l 19.465031185372023 -4.594840688478174 a 44.0 44.0 0.0 1 1 -85.64613721563691,20.21729902930396 l 19.465031185372027 -4.594840688478172 a 24.0 24.0 0.0 1 0 46.71607484489286,-11.027617652347612 z"/><path fill="#000e3e" d="M 201.46705622885378,207.7424544933456 l 13.711764355250505 14.559791147749397 a 44.0 44.0 0.0 1 1 -60.331763163102224,-64.06308105009735 l 13.711764355250509 14.5597911477494 a 24.0 24.0 0.0 1 0 32.90823445260121,34.94349875459855 z"/><path fill="#100227" d="M 57.425825457100714,241.74427558808415 l -5.753266830121526 19.154631836227587 a 44.0 44.0 0.0 1 1 25.31437405253471,-84.2803800794014 l -5.753266830121525 19.154631836227594 a 24.0 24.0 0.0 1 0 -13.80784039229166,45.97111640694621 z"/><path fill="#6b05d4" d="M -44.04123077175299,134.0018210947385 l -19.465031185372023 4.594840688478171 a 44.0 44.0 0.0 1 1 85.64613721563691,-20.21729902930396 l -19.465031185372027 4.594840688478175 a 24.0 24.0 0.0 1 0 -46.71607484489286,11.027617652347612 z"/><path fill="#03031d" d="M -33.41947803983909,145.96753749209972 l 2.6554381829784752 2.9914290993403094 a 20.0 20.0 0.0 0 1 -19.591863425689723,4.0198118748419835 l 1.2629345021594691 -3.7953914743087065 a 16.0 16.0 0.0 0 0 15.67349074055178,-3.2158494998735865 z"/><path fill="#0028d1" d="M -49.09296878039087,149.18338699197332 l -1.2629345021594687 3.795391474308706 a 20.0 20.0 0.0 0 1 -13.277190914892405,-14.95714549670158 l 3.9183726851379497 -0.8039623749683891 a 16.0 16.0 0.0 0 0 10.621752731913924,11.965716397361263 z"/><path fill="#02000a" d="M -59.71472151230479,137.21767059461206 l -3.9183726851379497 0.8039623749683911 a 20.0 20.0 0.0 0 1 6.314672510797374,-18.976957371543502 l 2.6554381829784752 2.9914290993403085 a 16.0 16.0 0.0 0 0 -5.0517380086379,15.181565897234801 z"/><path fill="#4f55f9" d="M -54.662983503666894,122.03610469737725 l -2.6554381829784757 -2.991429099340309 a 20.0 20.0 0.0 0 1 19.591863425689723,-4.019811874841986 l -1.2629345021594691 3.7953914743087065 a 16.0 16.0 0.0 0 0 -15.67349074055178,3.2158494998735883 z"/><path fill="#000da7" d="M -38.989492763115116,118.82025519750367 l 1.2629345021594724 -3.795391474308705 a 20.0 20.0 0.0 0 1 13.277190914892381,14.957145496701555 l -3.9183726851379497 0.8039623749683944 a 16.0 16.0 0.0 0 0 -10.621752731913904,-11.965716397361245 z"/><path fill="#01014a" d="M -28.367740031201194,130.78597159486492 l 3.918372685137949 -0.8039623749683941 a 20.0 20.0 0.0 0 1 -6.314672510797359,18.97695737154351 l -2.655438182978477 -2.9914290993403103 a 16.0 16.0 0.0 0 0 5.051738008637887,-15.181565897234806 z"/><path fill="#03031d" d="M -53.386946087733065,162.0877180046229 l -1.2629345021594698 3.795391474308707 a 8.8 8.8 0.0 1 1 5.556911809501666,-16.699722486958308 l -1.26293450215947 3.7953914743087065 a 4.8 4.8 0.0 1 0 -3.031042805182726,9.108939538340895 z"/><path fill="#0028d1" d="M -73.03718864177382,139.95114266950458 l -3.9183726851379506 0.8039623749683904 a 8.8 8.8 0.0 1 1 17.24083981460698,-3.537434449860918 l -3.9183726851379497 0.8039623749683908 a 4.8 4.8 0.0 1 0 -9.40409444433108,1.9295096999241368 z"/><path fill="#02000a" d="M -63.69147332579371,111.86524575962021 l -2.6554381829784752 -2.99142909934031 a 8.8 8.8 0.0 1 1 11.683928005105289,13.162288037097364 l -2.6554381829784752 -2.9914290993403103 a 4.8 4.8 0.0 1 0 -6.373051639148338,-7.179429838416743 z"/><path fill="#4f55f9" d="M -34.69551545577292,105.91592418485406 l 1.2629345021594693 -3.795391474308707 a 8.8 8.8 0.0 1 1 -5.556911809501665,16.699722486958308 l 1.26293450215947 -3.7953914743087065 a 4.8 4.8 0.0 1 0 3.031042805182726,-9.108939538340895 z"/><path fill="#000da7" d="M -15.045272901732183,128.0524995199724 l 3.9183726851379506 -0.8039623749683908 a 8.8 8.8 0.0 1 1 -17.24083981460698,3.537434449860918 l 3.9183726851379497 -0.8039623749683904 a 4.8 4.8 0.0 1 0 9.40409444433108,-1.9295096999241368 z"/><path fill="#01014a" d="M -24.39098821771226,156.13839642985675 l 2.6554381829784774 2.991429099340308 a 8.8 8.8 0.0 1 1 -11.6839280051053,-13.162288037097355 l 2.655438182978477 2.9914290993403085 a 4.8 4.8 0.0 1 0 6.373051639148345,7.179429838416738 z"/><circle fill="#250cb4" r="4.000000000000001" cx="28.03057672506017" cy="-10.202058143564871"/><circle fill="#4125ff" r="4.000000000000001" cx="15.411839492434108" cy="16.573443171143232"/><circle fill="#ffffff" r="4.000000000000001" cx="-14.085793461479817" cy="19.033046821362582"/><circle fill="#000000" r="4.000000000000001" cx="-30.964689182767653" cy="-5.282850843126223"/><circle fill="#000000" r="4.000000000000001" cx="-18.34595195014155" cy="-32.058352157834356"/><circle fill="#000000" r="4.000000000000001" cx="11.15168100377233" cy="-34.51795580805368"/><circle fill="#0e3fff" r="4.000000000000001" cx="116.44968690140456" cy="-27.827697507629573"/><circle fill="#7b81f5" r="4.000000000000001" cx="117.4598205707286" cy="-57.41045650624393"/><circle fill="#170060" r="4.000000000000001" cx="143.58430821222333" cy="-71.32703458669852"/><circle fill="#1d07ac" r="4.000000000000001" cx="168.69866218439404" cy="-55.66085366853875"/><circle fill="#0600f0" r="4.000000000000001" cx="167.68852851507" cy="-26.078094669924397"/><circle fill="#000000" r="4.000000000000001" cx="141.5640408735753" cy="-12.16151658946982"/><circle fill="#12064d" r="4.000000000000001" cx="268.0357750533134" cy="83.33086031121367"/><circle fill="#000000" r="4.000000000000001" cx="241.0279604992765" cy="95.4444045082995"/><circle fill="#5624e9" r="4.000000000000001" cx="217.0334162177161" cy="78.11172310234738"/><circle fill="#616dff" r="4.000000000000001" cx="220.04668649019263" cy="48.66549749930944"/><circle fill="#c6ccff" r="4.000000000000001" cx="247.0545010442296" cy="36.55195330222356"/><circle fill="#000000" r="4.000000000000001" cx="271.04904532578996" cy="53.884634708175696"/><circle fill="#0027e4" r="4.000000000000001" cx="229.88093909538472" cy="216.03770979062614"/><circle fill="#7990ff" r="4.000000000000001" cx="208.49009584379684" cy="236.49722652455705"/><circle fill="#4300ff" r="4.000000000000001" cx="180.07621297726593" cy="228.20197122727652"/><circle fill="#386df8" r="4.000000000000001" cx="173.05317336232287" cy="199.4471991960651"/><circle fill="#6848fb" r="4.000000000000001" cx="194.44401661391075" cy="178.98768246213416"/><circle fill="#000000" r="4.000000000000001" cx="222.85789948044163" cy="187.2829377594147"/><circle fill="#000000" r="4.000000000000001" cx="29.04434586900367" cy="250.1497271756213"/><circle fill="#0f0255" r="4.000000000000001" cx="35.95575105796481" cy="221.36791906157117"/><circle fill="#0009c3" r="4.000000000000001" cx="64.33723064606184" cy="212.962467474034"/><circle fill="#07002a" r="4.000000000000001" cx="85.80730504519775" cy="233.33882400054696"/><circle fill="#2a5bff" r="4.000000000000001" cx="78.89589985623662" cy="262.12063211459713"/><circle fill="#e6ecff" r="4.000000000000001" cx="50.51442026813959" cy="270.52608370213426"/><circle fill="#03031d" r="4.000000000000001" cx="-53.386946087733065" cy="162.0877180046229"/><circle fill="#0028d1" r="4.000000000000001" cx="-73.03718864177382" cy="139.95114266950458"/><circle fill="#02000a" r="4.000000000000001" cx="-63.69147332579371" cy="111.86524575962021"/><circle fill="#4f55f9" r="4.000000000000001" cx="-34.69551545577292" cy="105.91592418485406"/><circle fill="#000da7" r="4.000000000000001" cx="-15.045272901732183" cy="128.0524995199724"/><circle fill="#01014a" r="4.000000000000001" cx="-24.39098821771226" cy="156.13839642985675"/></g></svg>