<?xml version='1.0' encoding='UTF-8'?>
<svg viewBox="-430.3345395741391 -643.9621615752187 1171.218384189184 1540.024575633207" preserveAspectRatio="xMidYMid meet" xmlns="http://www.w3.org/2000/svg" xmlns:svg="http://www.w3.org/2000/svg"><g transform="translate(0.0, 0.0)"><rect x="0.0" y="0.0" width="100.0" height="100.0" transform="rotate(114.59155902616465, 0.0, 0.0)"/><path fill="#7c8138" d="M 171.033504181897,-2.1640943611353123 l 8.780413687246853 17.9695391004001 a 220.00000000000003 220.00000000000003 0.0 0 1 -188.13685460008674,2.38050379724886 l 8.322936730942843 -18.18594853651362 a 200.00000000000003 200.00000000000003 0.0 0 0 171.03350418189703,-2.1640943611353407 z"/><path fill="#38814c" d="M 177.84993344867877,55.07891508178352 l 0.7586666924533253 19.985605441160942 a 430.00000000000017 430.00000000000017 0.0 0 1 -195.2544736030178,-38.69262344991711 l 8.322936730942843 -18.18594853651365 a 410.00000000000017 410.00000000000017 0.0 0 0 186.17287017962164,36.892966545269815 z"/><rect fill="#385f81" x="165.2136119032507" y="119.60126438245578" width="20.00000000000001" height="200.00000000000003" transform="rotate(114.59155902616465, 165.2136119032507, 119.60126438245578)"/><path fill="#693881" d="M -33.29174692377139,72.74379414605454 l 8.322936730942846 -18.185948536513635 a 430.0 430.0 0.0 0 1 156.90951509260242,122.47788635028364 l -15.62105371199408 12.48930265975622 a 410.0 410.0 0.0 0 0 -149.61139811155118,-116.78124047352622 z"/><path fill="#813842" d="M -41.61468365471424,90.92974268256818 l 8.322936730942846 -18.185948536513635 a 220.00000000000003 220.00000000000003 0.0 0 1 121.17288364484364,143.93844214224362 l -19.338653425928655 5.100635614491509 a 200.00000000000003 200.00000000000003 0.0 0 0 -110.15716694985782,-130.8531292202215 z"/><path fill="#7c8138" d="M 192.3957141386467,-28.883781860233412 l 3.8923037331243417 0.9219390701702102 a 44.00000000000001 44.00000000000001 0.0 0 1 -23.49843095242467,29.39165624900791 l -1.756082737449372 -3.5939078200800196 a 40.00000000000001 40.00000000000001 0.0 0 0 21.362209956749698,-26.7196874990981 z"/><path fill="#38814c" d="M 202.11132635900685,-22.676051783560162 l 3.1864114906035415 2.418011954591978 a 86.00000000000004 86.00000000000004 0.0 0 1 -30.75206819281466,25.28176110799291 l -1.7560827374493755 -3.5939078200800196 a 82.00000000000004 82.00000000000004 0.0 0 0 29.321739439660497,-24.10586524250487 z"/><rect fill="#385f81" x="210.48474785759595" y="-12.537106095468994" width="4.000000000000002" height="40.00000000000001" transform="rotate(63.95858636795931, 210.48474785759595, -12.537106095468994)"/><path fill="#693881" d="M 178.0578351316945,12.21153691918477 l -1.7560827374493742 -3.5939078200800187 a 86.0 86.0 0.0 0 1 38.8425922332064,-8.724114365481398 l -0.05054945944394973 3.99968058126521 a 82.0 82.0 0.0 0 0 -37.03596003631308,8.318341604296208 z"/><path fill="#813842" d="M 179.81391786914386,15.80544473926479 l -1.7560827374493742 -3.5939078200800187 a 44.00000000000001 44.00000000000001 0.0 0 1 37.62737092001731,-0.4761007594498219 l -1.6645873461885614 3.6371897073027313 a 40.00000000000001 40.00000000000001 0.0 0 0 -34.206700836379376,0.43281887222710935 z"/><path fill="#7c8138" d="M 208.19671496980754,39.287823745381445 l 3.1864114906035397 2.4180119545919805 a 44.0 44.0 0.0 0 1 -33.381459673241636,17.3702004700423 l -0.15173333849066495 -3.9971210882321913 a 40.0 40.0 0.0 0 0 30.346781521128765,-15.791091336402086 z"/><path fill="#38814c" d="M 214.56969794329547,48.89584755576399 l 1.9355397363504698 3.5005265216833243 a 86.00000000000003 86.00000000000003 0.0 0 1 -38.35183755398585,10.676783180800586 l -0.15173333849066495 -3.9971210882321913 a 82.00000000000003 82.00000000000003 0.0 0 0 36.56803115612605,-10.180188614251719 z"/><rect fill="#385f81" x="218.124611007982" y="61.55582387334127" width="4.000000000000002" height="40.0" transform="rotate(87.82605844940856, 218.124611007982, 61.55582387334127)"/><path fill="#693881" d="M 178.45686680264143,71.06739943471227 l -0.15173333849066556 -3.9971210882321886 a 85.99999999999999 85.99999999999999 0.0 0 1 39.05089472060354,7.738524689983433 l -1.6645873461885685 3.637189707302724 a 81.99999999999999 81.99999999999999 0.0 0 0 -37.234574035924304,-7.378593309053969 z"/><path fill="#813842" d="M 178.6086001411321,75.06452052294446 l -0.15173333849066556 -3.9971210882321886 a 44.0 44.0 0.0 0 1 34.60226276235507,14.789493771277229 l -2.9939269126325208 2.652621654479713 a 40.0 40.0 0.0 0 0 -31.456602511231882,-13.444994337524754 z"/><path fill="#7c8138" d="M 199.4203127396301,119.16844551022871 l 1.756082737449372 3.5939078200800196 a 44.00000000000002 44.00000000000002 0.0 0 1 -37.627370920017356,0.47610075944978547 l 1.6645873461885614 -3.637189707302724 a 40.00000000000002 40.00000000000002 0.0 0 0 34.20670083637942,-0.43281887222708093 z"/><path fill="#38814c" d="M 200.78359859298646,130.61704739881247 l 0.15173333849066684 3.9971210882321886 a 86.00000000000007 86.00000000000007 0.0 0 1 -39.05089472060357,-7.738524689983419 l 1.6645873461885685 -3.637189707302724 a 82.00000000000007 82.00000000000007 0.0 0 0 37.23457403592434,7.378593309053954 z"/><rect fill="#385f81" x="198.25633428390086" y="143.52151725894691" width="4.0000000000000036" height="40.00000000000002" transform="rotate(114.59155902616463, 198.25633428390086, 143.52151725894691)"/><path fill="#693881" d="M 158.55526251849642,134.1500232116667 l 1.6645873461885692 -3.637189707302727 a 86.00000000000003 86.00000000000003 0.0 0 1 31.38190301852049,24.49557727005674 l -3.124210742398816 2.497860531951254 a 82.00000000000003 82.00000000000003 0.0 0 0 -29.922279622310242,-23.356248094705265 z"/><path fill="#813842" d="M 156.89067517230785,137.78721291896943 l 1.6645873461885692 -3.637189707302727 a 44.00000000000002 44.00000000000002 0.0 0 1 24.234576728968733,28.787688428448728 l -3.8677306851857267 1.0201271228982982 a 40.00000000000002 40.00000000000002 0.0 0 0 -22.031433389971575,-26.1706258440443 z"/><path fill="#7c8138" d="M -67.4984477601508,73.17661301828161 l -1.7560827374493708 -3.5939078200800205 a 44.0 44.0 0.0 0 1 37.627370920017334,-0.47610075944977037 l -1.6645873461885685 3.637189707302724 a 40.0 40.0 0.0 0 0 -34.2067008363794,0.4328188722270667 z"/><path fill="#38814c" d="M -68.86173361350716,61.72801112969783 l -0.15173333849066556 -3.9971210882321886 a 86.00000000000003 86.00000000000003 0.0 0 1 39.05089472060356,7.738524689983433 l -1.6645873461885685 3.637189707302724 a 82.00000000000003 82.00000000000003 0.0 0 0 -37.234574035924325,-7.378593309053969 z"/><rect fill="#385f81" x="-66.33446930442153" y="48.82354126956339" width="4.000000000000002" height="40.0" transform="rotate(294.59155902616465, -66.33446930442153, 48.82354126956339)"/><path fill="#693881" d="M -26.633397539017114,58.19503531684363 l -1.6645873461885696 3.637189707302727 a 85.99999999999999 85.99999999999999 0.0 0 1 -31.381903018520475,-24.49557727005673 l 3.12421074239883 -2.497860531951254 a 81.99999999999999 81.99999999999999 0.0 0 0 29.922279622310214,23.356248094705258 z"/><path fill="#813842" d="M -24.968810192828546,54.557845609540905 l -1.6645873461885696 3.637189707302727 a 44.0 44.0 0.0 0 1 -24.234576728968715,-28.787688428448728 l 3.8677306851857267 -1.0201271228982947 a 40.0 40.0 0.0 0 0 22.031433389971557,26.170625844044295 z"/><path fill="#7c8138" d="M -75.82138449109364,91.36256155479523 l -1.7560827374493708 -3.5939078200800205 a 44.0 44.0 0.0 0 1 37.627370920017334,-0.47610075944977037 l -1.6645873461885685 3.637189707302724 a 40.0 40.0 0.0 0 0 -34.2067008363794,0.4328188722270667 z"/><path fill="#38814c" d="M -77.18467034444998,79.91395966621148 l -0.15173333849066556 -3.9971210882321886 a 86.00000000000003 86.00000000000003 0.0 0 1 39.05089472060356,7.738524689983433 l -1.6645873461885685 3.637189707302724 a 82.00000000000003 82.00000000000003 0.0 0 0 -37.234574035924325,-7.378593309053969 z"/><rect fill="#385f81" x="-74.65740603536437" y="67.00948980607703" width="4.000000000000002" height="40.0" transform="rotate(294.59155902616465, -74.65740603536437, 67.00948980607703)"/><path fill="#693881" d="M -34.95633426995997,76.38098385335726 l -1.6645873461885696 3.637189707302727 a 85.99999999999999 85.99999999999999 0.0 0 1 -31.381903018520475,-24.49557727005673 l 3.12421074239883 -2.497860531951254 a 81.99999999999999 81.99999999999999 0.0 0 0 29.922279622310214,23.356248094705258 z"/><path fill="#813842" d="M -33.2917469237714,72.74379414605454 l -1.6645873461885696 3.637189707302727 a 44.0 44.0 0.0 0 1 -24.234576728968715,-28.787688428448728 l 3.8677306851857267 -1.0201271228982947 a 40.0 40.0 0.0 0 0 22.031433389971557,26.170625844044295 z"/></g></svg>