<?xml version='1.0' encoding='UTF-8'?>
<svg xmlns="http://www.w3.org/2000/svg" xmlns:svg="http://www.w3.org/2000/svg"><g><path fill="#ff040b" d="M 100.0,100.0 l -0.17693198822978012 0.23616775241797086 a 0.29509343561167034 0.29509343561167034 0.0 0 1 -0.11589208007930196,-0.19964103945311368 l 0.2928240683090821 -0.03652671296485718 z"/><path fill="#ff9682" d="M 99.82306801177022,100.23616775241797 l -0.8354697750775324 1.1151800246372763 a 1.6885195127388708 1.6885195127388708 0.0 0 1 -0.6631324691455052,-1.142342559946534 l 1.3827101641437356 -0.17247850414385604 a 0.29509343561167034 0.29509343561167034 0.0 0 0 0.11589208007930196,0.19964103945311368 z"/><path fill="#920b05" d="M 98.98759823669269,101.35134777705525 l -1.5437073152270295 2.0605312282755706 a 4.263169239941442 4.263169239941442 0.0 0 1 -1.674274962853057,-2.8841832305157205 l 2.5548498089345815 -0.3186905577063841 a 1.6885195127388708 1.6885195127388708 0.0 0 0 0.6631324691455052,1.1423425599465338 z"/><path fill="#aa0035" d="M 97.44389092146565,103.41187900533082 l -0.7009571047439276 0.935633322301175 a 5.432250322027421 5.432250322027421 0.0 0 1 -2.1334083153231553,-3.6751075082748343 l 1.160090457214026 -0.14470904454206135 a 4.263169239941442 4.263169239941442 0.0 0 0 1.6742749628530569,2.8841832305157205 z"/><path fill="#ffffff" d="M 100.0,100.0 l -0.2928240683090821 0.03652671296485718 a 0.29509343561167034 0.29509343561167034 0.0 0 1 0.12536712442697953,-0.2795047113243082 l 0.16745694388210255 0.24297799835945103 z"/><path fill="#930026" d="M 99.70717593169091,100.03652671296486 l -1.3827101641437356 0.17247850414385604 a 1.6885195127388708 1.6885195127388708 0.0 0 1 0.7173485083195295,-1.5993211031457966 l 0.7907287802511856 1.1473378876776321 a 0.29509343561167034 0.29509343561167034 0.0 0 0 -0.12536712442697953,0.2795047113243082 z"/><path fill="#ff4821" d="M 98.32446576754718,100.20900521710871 l -2.554849808934582 0.31869055770638416 a 4.263169239941442 4.263169239941442 0.0 0 1 1.8111594636091377,-4.03796135033164 l 1.4610388536449737 2.1199496894794594 a 1.6885195127388708 1.6885195127388708 0.0 0 0 -0.7173485083195295,1.5993211031457966 z"/><path fill="#ef1900" d="M 95.7696159586126,100.5276957748151 l -1.1600904572140258 0.14470904454206165 a 5.432250322027421 5.432250322027421 0.0 0 1 2.3078304016776237,-5.145284085877536 l 0.6634195191455392 0.9626136910038348 a 4.263169239941442 4.263169239941442 0.0 0 0 -1.8111594636091373,4.03796135033164 z"/><path fill="#0b0100" d="M 100.0,100.0 l -0.16745694388210255 -0.24297799835945103 a 0.29509343561167034 0.29509343561167034 0.0 0 1 0.04503300202252079,-0.0255224936338799 l 0.12242394185958176 0.2685004919933309 z"/><path fill="#c80712" d="M 99.8325430561179,99.75702200164055 l -0.7907287802511858 -1.1473378876776321 a 1.6885195127388708 1.6885195127388708 0.0 0 1 0.2576780553407477,-0.14603926524231858 l 0.5780837269329588 1.2678546592860709 a 0.29509343561167034 0.29509343561167034 0.0 0 0 -0.04503300202252079,0.0255224936338799 z"/><path fill="#ff6856" d="M 99.04181427586671,98.60968411396291 l -1.4610388536449734 -2.11994968947946 a 4.263169239941442 4.263169239941442 0.0 0 1 0.6505848176754183,-0.3687195195007411 l 1.0681320913103027 2.342629943737882 a 1.6885195127388708 1.6885195127388708 0.0 0 0 -0.2576780553407477,0.14603926524231858 z"/><path fill="#420607" d="M 97.58077542222173,96.48973442448346 l -0.6634195191455394 -0.9626136910038342 a 5.432250322027421 5.432250322027421 0.0 0 1 0.8289934990645567,-0.46983279710781833 l 0.4850108377564013 1.063726968610911 a 4.263169239941442 4.263169239941442 0.0 0 0 -0.6505848176754185,0.36871951950074155 z"/><path fill="#620000" d="M 100.0,100.0 l -0.12242394185958176 -0.2685004919933309 a 0.29509343561167034 0.29509343561167034 0.0 0 1 0.130737685602372,-0.02647580774289915 l -0.00831374374279024 0.2949762997362301 z"/><path fill="#fb8e3b" d="M 99.87757605814042,99.73149950800666 l -0.5780837269329587 -1.2678546592860709 a 1.6885195127388708 1.6885195127388708 0.0 0 1 0.7480787660774197,-0.15149411201487295 l -0.03925735354208895 1.3928729635580446 a 0.29509343561167034 0.29509343561167034 0.0 0 0 -0.130737685602372,0.02647580774289915 z"/><path fill="#f4200f" d="M 99.29949233120746,98.4636448487206 l -1.068132091310303 -2.3426299437378826 a 4.263169239941442 4.263169239941442 0.0 0 1 1.888747130568584,-0.382491901042028 l -0.0725362731808612 2.5736277327650376 a 1.6885195127388708 1.6885195127388708 0.0 0 0 -0.7480787660774197,0.15149411201487295 z"/><path fill="#c9080c" d="M 98.23136023989716,96.12101490498272 l -0.48501083775640114 -1.063726968610911 a 5.432250322027421 5.432250322027421 0.0 0 1 2.406694792252838,-0.48738195358084724 l -0.03293682392785291 1.1686170211497302 a 4.263169239941442 4.263169239941442 0.0 0 0 -1.8887471305685837,0.382491901042028 z"/><path fill="#ff1909" d="M 96.74293381672173,104.34751232763199 l -0.835469775077533 1.115180024637277 a 6.825676399154624 6.825676399154624 0.0 0 1 -2.726760376081737,-5.757744566467282 l 1.3921236203404064 0.06023336374817756 a 5.432250322027422 5.432250322027422 0.0 0 0 2.1701065308188636,4.582331178081827 z"/><path fill="#ff745e" d="M 95.9074640416442,105.46269235226927 l -3.945073765641536 5.265860705440511 a 13.405410131263814 13.405410131263814 0.0 0 1 -5.355270164226078,-11.308026169261293 l 6.573583553785877 0.28442089735349896 a 6.825676399154624 6.825676399154624 0.0 0 0 2.726760376081737,5.757744566467282 z"/><path fill="#000000" d="M 91.96239027600267,110.72855305770979 l -7.289359128001875 9.729792668083906 a 25.562861420941417 25.562861420941417 0.0 0 1 -10.21199856918569,-21.563346669644446 l 12.146087532961486 0.5255278322992449 a 13.405410131263814 13.405410131263814 0.0 0 0 5.355270164226079,11.308026169261293 z"/><path fill="#490800" d="M 84.67303114800079,120.45834572579369 l -3.309907272837835 4.418044295771029 a 31.083241983382717 31.083241983382717 0.0 0 1 -12.41731187416761,-26.220019404988978 l 5.515220577819754 0.23862843957350677 a 25.562861420941417 25.562861420941417 0.0 0 0 10.21199856918569,21.563346669644442 z"/><path fill="#510012" d="M 94.57282728590286,99.76518114955016 l -1.3921236203404068 -0.06023336374817732 a 6.825676399154624 6.825676399154624 0.0 0 1 0.509068447243822,-2.307039697641217 l 1.2881999638482755 0.5312034314266088 a 5.432250322027422 5.432250322027422 0.0 0 0 -0.40514479075169074,1.8360696299627852 z"/><path fill="#ff2028" d="M 93.18070366556246,99.70494778580199 l -6.573583553785877 -0.28442089735349946 a 13.405410131263814 13.405410131263814 0.0 0 1 0.9997941480252805,-4.530952176375916 l 6.082857853004418 2.508333376088199 a 6.825676399154624 6.825676399154624 0.0 0 0 -0.5090684472438216,2.3070396976412164 z"/><path fill="#f22117" d="M 86.60712011177658,99.42052688844849 l -12.146087532961486 -0.5255278322992448 a 25.562861420941417 25.562861420941417 0.0 0 1 1.9065137884766052,-8.640101381119845 l 11.239367892510161 4.634677037043173 a 13.405410131263814 13.405410131263814 0.0 0 0 -0.9997941480252805,4.530952176375917 z"/><path fill="#ffb3a1" d="M 74.4610325788151,98.89499905614925 l -5.515220577819751 -0.23862843957350502 a 31.083241983382717 31.083241983382717 0.0 0 1 2.3182314552363446,-10.505958529755896 l 5.103502911060012 2.104485588209556 a 25.562861420941417 25.562861420941417 0.0 0 0 -1.9065137884766052,8.640101381119845 z"/><path fill="#f60f00" d="M 94.97797207665455,97.92911151958738 l -1.2881999638482753 -0.5312034314266086 a 6.825676399154624 6.825676399154624 0.0 0 1 6.022347381279043,-4.217510944654011 l 0.05876929707475753 1.392186195212207 a 5.432250322027422 5.432250322027422 0.0 0 0 -4.792916714505525,3.3565281808684126 z"/><path fill="#c8003f" d="M 93.68977211280628,97.39790808816078 l -6.082857853004418 -2.508333376088199 a 13.405410131263814 13.405410131263814 0.0 0 1 11.827697634330722,-8.283056599809388 l 0.277507599952739 6.573879031243576 a 6.825676399154624 6.825676399154624 0.0 0 0 -6.022347381279043,4.217510944654011 z"/><path fill="#ff5a53" d="M 87.60691425980187,94.88957471207257 l -11.239367892510161 -4.634677037043175 a 25.562861420941417 25.562861420941417 0.0 0 1 22.55431147533928,-15.795013052896401 l 0.512754051501604 12.146633490130188 a 13.405410131263814 13.405410131263814 0.0 0 0 -11.827697634330722,8.283056599809388 z"/><path fill="#ff333c" d="M 76.36754636729171,90.2548976750294 l -5.103502911060011 -2.104485588209555 a 31.083241983382717 31.083241983382717 0.0 0 1 27.42498618649313,-19.205995947373353 l 0.23282819990616233 5.515468482686506 a 25.562861420941417 25.562861420941417 0.0 0 0 -22.55431147533928,15.795013052896403 z"/><path fill="#ff2951" d="M 99.77088879116009,94.57258333871897 l -0.05876929707475775 -1.3921861952122065 a 6.825676399154624 6.825676399154624 0.0 0 1 0.480182053850358,-0.0033641242738506882 l -0.03925735354208898 1.3928729635580455 a 5.432250322027422 5.432250322027422 0.0 0 0 -0.38215540323351127,0.002677355928011771 z"/><path fill="#fa9da9" d="M 99.71211949408533,93.18039714350677 l -0.27750759995273877 -6.573879031243577 a 13.405410131263814 13.405410131263814 0.0 0 1 0.9430621953208767,-0.006607032473602281 l -0.18537254151777988 6.577121939443329 a 6.825676399154624 6.825676399154624 0.0 0 0 -0.480182053850358,0.003364124273850244 z"/><path fill="#ffffff" d="M 99.43461189413259,86.60651811226319 l -0.5127540515016045 -12.146633490130188 a 25.562861420941417 25.562861420941417 0.0 0 1 1.7983312688131532,-0.012598992039226431 l -0.3425150219906721 12.152625449695812 a 13.405410131263814 13.405410131263814 0.0 0 0 -0.9430621953208767,0.006607032473603169 z"/><path fill="#fe979b" d="M 98.92185784263098,74.45988462213299 l -0.2328281999061619 -5.515468482686505 a 31.083241983382717 31.083241983382717 0.0 0 1 2.186686579187516,-0.015319784113883905 l -0.155527110468201 5.518189274761163 a 25.562861420941417 25.562861420941417 0.0 0 0 -1.7983312688131532,0.012598992039226431 z"/><path fill="#770001" d="M 81.36312387516296,124.87639002156473 l -1.5437073152270282 2.060531228275569 a 33.65789171058529 33.65789171058529 0.0 0 1 -13.110414437602525,-31.893042183663773 l 2.5465843000819675 0.3791168953769777 a 31.08324198338272 31.08324198338272 0.0 0 0 12.107537452747586,29.453394060011227 z"/><path fill="#67030e" d="M 79.81941655993592,126.9369212498403 l -7.289359128001875 9.729792668083906 a 45.81534300026289 45.81534300026289 0.0 0 1 -17.845982139916792,-43.413018246382606 l 12.02492683031614 1.79018339463493 a 33.65789171058529 33.65789171058529 0.0 0 0 13.110414437602525,31.893042183663773 z"/><path fill="#fb5e5a" d="M 72.53005743193405,136.6667139179242 l -13.468634467559479 17.977852180193572 a 68.27880852617011 68.27880852617011 0.0 0 1 -26.595946198325716,-64.69861330888386 l 22.218598525968403 3.3077428823076716 a 45.81534300026289 45.81534300026289 0.0 0 0 17.845982139916792,43.41301824638261 z"/><path fill="#cc411c" d="M 59.06142296437457,154.64456609811776 l -6.1157545398081465 8.163272331121572 a 78.47888052313361 78.47888052313361 0.0 0 1 -30.569075957119207,-74.36384514434239 l 10.088884298601641 1.501959504336952 a 68.27880852617011 68.27880852617011 0.0 0 0 26.595946198325713,64.69861330888386 z"/><path fill="#ff5548" d="M 69.25558642241536,95.42299596155348 l -2.546584300081972 -0.37911689537697674 a 33.65789171058529 33.65789171058529 0.0 0 1 0.11669054639675824,-0.7288599361479857 l 2.5376580938290445 0.43487080450201265 a 31.08324198338272 31.08324198338272 0.0 0 0 -0.10776434014383085,0.6731060270229499 z"/><path fill="#ffffff" d="M 66.7090021223334,95.04387906617652 l -12.02492683031614 -1.7901833946349313 a 45.81534300026289 45.81534300026289 0.0 0 1 0.15883993727314305,-0.9921289265800248 l 11.98277743943975 2.0534523850669704 a 33.65789171058529 33.65789171058529 0.0 0 0 -0.1166905463967538,0.7288599361479857 z"/><path fill="#e12700" d="M 54.684075292017255,93.25369567154158 l -22.218598525968396 -3.3077428823076733 a 68.27880852617011 68.27880852617011 0.0 0 1 0.23671986180087146,-1.4785741320509915 l 22.140718601440668 3.7941880877786396 a 45.81534300026289 45.81534300026289 0.0 0 0 -0.15883993727314305,0.9921289265800253 z"/><path fill="#f63e1d" d="M 32.46547676604885,89.9459527892339 l -10.088884298601648 -1.501959504336953 a 78.47888052313361 78.47888052313361 0.0 0 1 0.27208309800256103,-1.6994561732774072 l 10.053521062399966 1.7228415455633677 a 68.27880852617011 68.27880852617011 0.0 0 0 -0.23671986180087856,1.4785741320509924 z"/><path fill="#ff2d38" d="M 69.3633507625592,94.74988993453054 l -2.53765809382904 -0.4348708045020134 a 33.65789171058529 33.65789171058529 0.0 0 1 23.790813693783896,-26.638442858908903 l 0.717787362966714 2.472570023143845 a 31.08324198338272 31.08324198338272 0.0 0 0 -21.97094296292157,24.60074364026707 z"/><path fill="#bb0201" d="M 66.82569266873014,94.31501913002853 l -11.982777439439756 -2.05345238506697 a 45.81534300026289 45.81534300026289 0.0 0 1 32.38421167340272,-36.260423174098804 l 3.389379459820937 11.67543270025687 a 33.65789171058529 33.65789171058529 0.0 0 0 -23.7908136937839,26.638442858908903 z"/><path fill="#ff9484" d="M 54.8429152292904,92.26156674496156 l -22.140718601440664 -3.7941880877786405 a 68.27880852617011 68.27880852617011 0.0 0 1 48.26233404181955,-54.039069203694204 l 6.262596233023832 21.572834117374043 a 45.81534300026289 45.81534300026289 0.0 0 0 -32.38421167340272,36.260423174098804 z"/><path fill="#f82624" d="M 32.70219662784973,88.4673786571829 l -10.05352106239997 -1.7228415455633672 a 78.47888052313361 78.47888052313361 0.0 0 1 55.472173999401406,-62.11188723354175 l 2.843681104818117 9.795659575410909 a 68.27880852617011 68.27880852617011 0.0 0 0 -48.26233404181956,54.03906920369421 z"/><path fill="#631200" d="M 91.33429372548076,70.14914629426347 l -0.7177873629667143 -2.4725700231438448 a 33.65789171058529 33.65789171058529 0.0 0 1 10.331746132579148,-1.3211076485520583 l -0.07253627318086231 2.5736277327650328 a 31.08324198338272 31.08324198338272 0.0 0 0 -9.541422496431572,1.2200499389308703 z"/><path fill="#960008" d="M 90.61650636251406,67.67657627111963 l -3.389379459820937 -11.675432700256874 a 45.81534300026289 45.81534300026289 0.0 0 1 14.063640614390756,-1.798300397990996 l -0.3425150219906712 12.152625449695812 a 33.65789171058529 33.65789171058529 0.0 0 0 -10.331746132579148,1.3211076485520579 z"/><path fill="#7d0004" d="M 87.22712690269312,56.00114357086275 l -6.262596233023829 -21.572834117374047 a 68.27880852617011 68.27880852617011 0.0 0 1 20.959105876067454,-2.680015045314807 l -0.632869028652868 22.454548764697854 a 45.81534300026289 45.81534300026289 0.0 0 0 -14.063640614390756,1.7983003979909995 z"/><path fill="#ea0d00" d="M 80.96453066966929,34.428309453488694 l -2.8436811048181148 -9.795659575410909 a 78.47888052313361 78.47888052313361 0.0 0 1 24.090156249419074,-3.0803785988861705 l -0.28736926853350653 10.196023128982276 a 68.27880852617011 68.27880852617011 0.0 0 0 -20.959105876067454,2.6800150453148035 z"/><path fill="#fcc4c7" d="M 52.94566842456642,162.80783842923935 l -0.7009571047439201 0.935633322301165 a 79.64796160521959 79.64796160521959 0.0 0 1 -21.70397206576626,-24.76644153509728 l 1.0195302689132149 -0.5721089120622409 a 78.47888052313363 78.47888052313363 0.0 0 0 21.385398901596965,24.402917124858355 z"/><path fill="#cb1a09" d="M 52.2447113198225,163.74347175154054 l -3.309907272837837 4.418044295771032 a 85.1683421676609 85.1683421676609 0.0 0 1 -23.208269013295084,-26.482997485754908 l 4.814204220366662 -2.701488345113404 a 79.64796160521959 79.64796160521959 0.0 0 0 21.70397206576626,24.76644153509728 z"/><path fill="#ff7069" d="M 48.93480404698467,168.16151604731158 l -6.115754539808164 8.163272331121595 a 95.36841416462443 95.36841416462443 0.0 0 1 -25.98777614981411,-29.654698075139805 l 8.895261676327195 -4.991571741736699 a 85.1683421676609 85.1683421676609 0.0 0 0 23.20826901329508,26.482997485754908 z"/><path fill="#fdd1d1" d="M 42.8190495071765,176.32478837843314 l -2.7770041336611704 3.7067283947006824 a 99.99999999999999 99.99999999999999 0.0 0 1 -27.249877621907554,-31.094884333454488 l 4.039105605754614 -2.2665421363859934 a 95.36841416462443 95.36841416462443 0.0 0 0 25.98777614981411,29.654698075139798 z"/><path fill="#f2706e" d="M 31.56026952296945,138.40492130438102 l -1.0195302689132186 0.5721089120622355 a 79.64796160521959 79.64796160521959 0.0 0 1 -1.7749862248925543,-74.60679089995652 l 1.0455837017276082 0.5229773409746201 a 78.47888052313363 78.47888052313363 0.0 0 0 1.7489327920781648,73.51170464691967 z"/><path fill="#370c00" d="M 30.540739254056234,138.97703021644324 l -4.814204220366665 2.701488345113404 a 85.1683421676609 85.1683421676609 0.0 0 1 -1.898010082088871,-79.77776916493264 l 4.9372280775629775 2.46948991986271 a 79.64796160521959 79.64796160521959 0.0 0 0 1.774986224892558,74.60679089995652 z"/><path fill="#ffd7d6" d="M 25.726535033689572,141.67851856155664 l -8.895261676327188 4.991571741736703 a 95.36841416462443 95.36841416462443 0.0 0 1 -2.1253227078314083,-89.33224643346439 l 9.122574302069722 4.562905526795049 a 85.1683421676609 85.1683421676609 0.0 0 0 1.8980100820888737,79.77776916493264 z"/><path fill="#ffffff" d="M 16.831273357362377,146.67009030329336 l -4.0391056057546155 2.26654213638599 a 99.99999999999999 99.99999999999999 0.0 0 1 -2.228539424135418,-93.67068459297178 l 4.142322322058632 2.071896023121411 a 95.36841416462443 95.36841416462443 0.0 0 0 2.125322707831401,89.33224643346438 z"/><path fill="#ffa97f" d="M 29.811336730891284,64.89321665746132 l -1.0455837017276135 -0.5229773409746121 a 79.64796160521959 79.64796160521959 0.0 0 1 62.54307984571459,-43.54259182586803 l 0.12756985693606993 1.1621000422048837 a 78.47888052313363 78.47888052313363 0.0 0 0 -61.62506600092304,42.90346912463776 z"/><path fill="#ee1e1b" d="M 28.765753029163676,64.3702393164867 l -4.9372280775629775 -2.469489919862712 a 85.1683421676609 85.1683421676609 0.0 0 1 66.87792527473898,-46.56051811939021 l 0.6023826485385726 5.48741621338489 a 79.64796160521959 79.64796160521959 0.0 0 0 -62.54307984571458,43.54259182586803 z"/><path fill="#ee8e3c" d="M 23.8285249516007,61.900749396624 l -9.122574302069717 -4.562905526795045 a 95.36841416462443 95.36841416462443 0.0 0 1 74.88747008267944,-52.13677597467153 l 1.1130294941292647 10.139163382076362 a 85.1683421676609 85.1683421676609 0.0 0 0 -66.87792527473898,46.56051811939021 z"/><path fill="#e74c00" d="M 14.705950649530976,57.33784386982895 l -4.142322322058631 -2.071896023121409 a 99.99999999999999 99.99999999999999 0.0 0 1 78.52439483098577,-54.66880877842144 l 0.5053975737523047 4.603928826871325 a 95.36841416462443 95.36841416462443 0.0 0 0 -74.88747008267944,52.13677597467153 z"/><path fill="#ff2c5a" d="M 91.43640273181434,21.98974753282357 l -0.1275698569360681 -1.1621000422048895 a 79.64796160521959 79.64796160521959 0.0 0 1 10.935109763319838,-0.44399323257679546 l -0.03293682392785158 1.1686170211497284 a 78.47888052313363 78.47888052313363 0.0 0 0 -10.774603082455918,0.4374762536319565 z"/><path fill="#f60145" d="M 91.30883287487826,20.827647490618688 l -0.6023826485385753 -5.487416213384894 a 85.1683421676609 85.1683421676609 0.0 0 1 11.693019522326615,-0.4747662939530626 l -0.155527110468201 5.518189274761156 a 79.64796160521959 79.64796160521959 0.0 0 0 -10.935109763319838,0.44399323257680123 z"/><path fill="#e71049" d="M 90.7064502263397,15.340231277233798 l -1.1130294941292602 -10.139163382076351 a 95.36841416462443 95.36841416462443 0.0 0 1 13.093418284989383,-0.5316260408590203 l -0.2873692685335083 10.196023128982304 a 85.1683421676609 85.1683421676609 0.0 0 0 -11.693019522326615,0.474766293953067 z"/><path fill="#ef5163" d="M 89.59342073221043,5.201067895157436 l -0.5053975737523159 -4.603928826871328 a 99.99999999999999 99.99999999999999 0.0 0 1 13.729302725310703,-0.5574445643411083 l -0.13048686656900443 4.629747350353426 a 95.36841416462443 95.36841416462443 0.0 0 0 -13.093418284989383,0.5316260408590097 z"/><path fill="#610017" d="M 100.0,100.0 l 0.008313743742789977 -0.2949762997362301 a 0.29509343561167034 0.29509343561167034 0.0 0 1 0.04896444134633314,0.005495134107108057 l -0.057278185089123114 0.289481165629122 z"/><path fill="#fffdfd" d="M 100.00831374374279,99.70502370026377 l 0.03925735354208774 -1.3928729635580448 a 1.6885195127388708 1.6885195127388708 0.0 0 1 0.2801736828617265,0.03144306190931023 l -0.2704665950574811 1.3669250357558427 a 0.29509343561167034 0.29509343561167034 0.0 0 0 -0.04896444134633314,-0.005495134107108057 z"/><path fill="#b50034" d="M 100.04757109728487,98.31215073670573 l 0.07253627318085884 -2.5736277327650376 a 4.263169239941442 4.263169239941442 0.0 0 1 0.7073817137474439,0.07938735284374321 l -0.4997443040665762 2.525683441830605 a 1.6885195127388708 1.6885195127388708 0.0 0 0 -0.2801736828617265,-0.03144306190931023 z"/><path fill="#ffb4c2" d="M 100.12010737046573,95.73852300394068 l 0.03293682392785175 -1.1686170211497304 a 5.432250322027421 5.432250322027421 0.0 0 1 0.9013657037818286,0.10115760101896698 l -0.2269208139622365 1.1468467729745067 a 4.263169239941442 4.263169239941442 0.0 0 0 -0.7073817137474439,-0.07938735284374321 z"/><path fill="#ff655d" d="M 100.0,100.0 l 0.057278185089123114 -0.289481165629122 a 0.29509343561167034 0.29509343561167034 0.0 0 1 0.08908317884436831,0.03324204510177725 l -0.14636136393349142 0.25623912052734477 z"/><path fill="#ff2b20" d="M 100.05727818508912,99.71051883437087 l 0.27046659505748116 -1.3669250357558425 a 1.6885195127388708 1.6885195127388708 0.0 0 1 0.5097324019551105,0.19021040465149786 l -0.6911158181682233 1.2099566762061218 a 0.29509343561167034 0.29509343561167034 0.0 0 0 -0.08908317884436831,-0.03324204510177725 z"/><path fill="#ac0417" d="M 100.3277447801466,98.34359379861503 l 0.4997443040665763 -2.5256834418306044 a 4.263169239941442 4.263169239941442 0.0 0 1 1.2869709116311288,0.4802426860390603 l -1.2769828137425945 2.235651160443042 a 1.6885195127388708 1.6885195127388708 0.0 0 0 -0.5097324019551105,-0.19021040465149786 z"/><path fill="#370207" d="M 100.82748908421318,95.81791035678444 l 0.22692081396223646 -1.1468467729745069 a 5.432250322027421 5.432250322027421 0.0 0 1 1.639894584443979,0.6119387570742634 l -0.5798444867750865 1.0151507019393038 a 4.263169239941442 4.263169239941442 0.0 0 0 -1.286970911631129,-0.4802426860390603 z"/><path fill="#f52c10" d="M 100.0,100.0 l 0.14636136393349142 -0.25623912052734477 a 0.29509343561167034 0.29509343561167034 0.0 0 1 0.11251030140053836,0.11458603503929363 l -0.2588716653340298 0.14165308548805114 z"/><path fill="#b90500" d="M 100.1463613639335,99.74376087947266 l 0.6911158181682233 -1.209956676206122 a 1.6885195127388708 1.6885195127388708 0.0 0 1 0.6437819902877817,0.6556593021128373 l -1.2223875070554666 0.6688834091325784 a 0.29509343561167034 0.29509343561167034 0.0 0 0 -0.11251030140053836,-0.11458603503929363 z"/><path fill="#f0543b" d="M 100.83747718210172,98.53380420326653 l 1.2769828137425947 -2.2356511604430422 a 4.263169239941442 4.263169239941442 0.0 0 1 1.6254189291371224,1.655406732087434 l -2.2586197525919354 1.2359037304684455 a 1.6885195127388708 1.6885195127388708 0.0 0 0 -0.6437819902877816,-0.6556593021128372 z"/><path fill="#000000" d="M 102.11445999584431,96.29815304282349 l 0.5798444867750863 -1.0151507019393036 a 5.432250322027421 5.432250322027421 0.0 0 1 2.071154581082472,2.109365884238704 l -1.0255801387204357 0.5611915497880333 a 4.263169239941442 4.263169239941442 0.0 0 0 -1.6254189291371226,-1.655406732087434 z"/><path fill="#5b1401" d="M 100.0,100.0 l 0.2588716653340298 -0.14165308548805114 a 0.29509343561167034 0.29509343561167034 0.0 0 1 0.005601932139403465,0.010756744895353748 l -0.26447359747343324 0.1308963405926974 z"/><path fill="#c20325" d="M 100.25887166533403,99.85834691451196 l 1.2223875070554666 -0.6688834091325784 a 1.6885195127388708 1.6885195127388708 0.0 0 1 0.03205415839500203,0.061549907444436336 l -1.2488397333110652 0.6180902465834958 a 0.29509343561167034 0.29509343561167034 0.0 0 0 -0.005601932139403465,-0.010756744895353748 z"/><path fill="#ffb5d5" d="M 101.4812591723895,99.18946350537936 l 2.2586197525919354 -1.2359037304684455 a 4.263169239941442 4.263169239941442 0.0 0 1 0.08093024750429167,0.1554010304048783 l -2.307495841701225 1.1420526075080035 a 1.6885195127388708 1.6885195127388708 0.0 0 0 -0.03205415839500203,-0.061549907444436336 z"/><path fill="#7d0119" d="M 103.73987892498143,97.95355977491093 l 1.0255801387204362 -0.5611915497880334 a 5.432250322027421 5.432250322027421 0.0 0 1 0.10312360085263395,0.19801636996984195 l -1.0477734920687785 0.5185762102230698 a 4.263169239941442 4.263169239941442 0.0 0 0 -0.08093024750429167,-0.1554010304048783 z"/><path fill="#d0001e" d="M 100.15304419439359,94.56990598279096 l 0.03925735354208776 -1.3928729635580457 a 6.825676399154624 6.825676399154624 0.0 0 1 0.18785917128692023,0.007885460085433005 l -0.07760781916497034 1.3912631881935784 a 5.432250322027422 5.432250322027422 0.0 0 0 -0.14950870566403765,-0.006275684720965735 z"/><path fill="#fa005d" d="M 100.19230154793567,93.17703301923291 l 0.18537254151777396 -6.5771219394433285 a 13.405410131263814 13.405410131263814 0.0 0 1 0.3689494038030291,0.015486791394335064 l -0.36646277403388283 6.569520608134426 a 6.825676399154624 6.825676399154624 0.0 0 0 -0.18785917128692023,-0.007885460085432783 z"/><path fill="#b00050" d="M 100.37767408945345,86.59991107978958 l 0.3425150219906614 -12.152625449695812 a 25.562861420941417 25.562861420941417 0.0 0 1 0.7035519531595733,0.029531860524368625 l -0.6771175713472056 12.138580380565779 a 13.405410131263814 13.405410131263814 0.0 0 0 -0.3689494038030291,-0.015486791394335953 z"/><path fill="#ff0343" d="M 100.72018911144411,74.44728563009377 l 0.15552711046819612 -5.518189274761164 a 31.083241983382717 31.083241983382717 0.0 0 1 0.8554862168139543,0.03590935896348402 l -0.3074613741225771 5.511811776322048 a 25.562861420941417 25.562861420941417 0.0 0 0 -0.7035519531595733,-0.029531860524368625 z"/><path fill="#ff125a" d="M 100.30255290005762,94.57618166751192 l 0.07760781916497032 -1.3912631881935777 a 6.825676399154624 6.825676399154624 0.0 0 1 1.6021331537063734,0.283590932207636 l -0.40467490890877933 1.3333695851180094 a 5.432250322027422 5.432250322027422 0.0 0 0 -1.2750660639625644,-0.22569732913206764 z"/><path fill="#ffd7e0" d="M 100.3801607192226,93.18491847931834 l 0.3664627740338828 -6.569520608134427 a 13.405410131263814 13.405410131263814 0.0 0 1 3.14653827025686,0.556963520307181 l -1.9108678905843695 6.296148020034883 a 6.825676399154624 6.825676399154624 0.0 0 0 -1.6021331537063732,-0.28359093220763665 z"/><path fill="#140102" d="M 100.74662349325648,86.61539787118392 l 0.6771175713472056 -12.13858038056578 a 25.562861420941417 25.562861420941417 0.0 0 1 6.00015374171038,1.0620772618457632 l -3.5307330428007266 11.633466639027198 a 13.405410131263814 13.405410131263814 0.0 0 0 -3.1465382702568596,-0.5569635203071801 z"/><path fill="#ad2508" d="M 101.42374106460369,74.47681749061815 l 0.30746137412257724 -5.5118117763220456 a 31.083241983382717 31.083241983382717 0.0 0 1 7.295905869845086,1.2914361968866226 l -1.603213502257283 5.282452841281184 a 25.562861420941417 25.562861420941417 0.0 0 0 -6.00015374171038,-1.0620772618457615 z"/><path fill="#ff3d38" d="M 101.57761896402019,94.80187899664399 l 0.40467490890877916 -1.3333695851180094 a 6.825676399154624 6.825676399154624 0.0 0 1 2.6847531662930697,1.5506743662404352 l -0.9527532023693244 1.0168075372424714 a 5.432250322027422 5.432250322027422 0.0 0 0 -2.1366748728325247,-1.2341123183648972 z"/><path fill="#f55d32" d="M 101.98229387292898,93.46850941152599 l 1.9108678905843695 -6.296148020034883 a 13.405410131263814 13.405410131263814 0.0 0 1 5.272769347785838,3.0454748575635957 l -4.4988840720771375 4.801347528711722 a 6.825676399154624 6.825676399154624 0.0 0 0 -2.6847531662930697,-1.5506743662404352 z"/><path fill="#000000" d="M 103.89316176351333,87.1723613914911 l 3.5307330428007266 -11.633466639027196 a 25.562861420941417 25.562861420941417 0.0 0 1 10.054677240175552,5.807435280424352 l -8.31264093519044 8.87150621616644 a 13.405410131263814 13.405410131263814 0.0 0 0 -5.272769347785838,-3.0454748575635957 z"/><path fill="#7e0f03" d="M 107.42389480631407,75.5388947524639 l 1.6032135022572835 -5.282452841281184 a 31.083241983382717 31.083241983382717 0.0 0 1 12.226016507884259,7.061569248909866 l -3.7745527699659895 4.028318872795673 a 25.562861420941417 25.562861420941417 0.0 0 0 -10.054677240175552,-5.807435280424354 z"/><path fill="#ff5437" d="M 103.71429383685272,96.03599131500889 l 0.9527532023693243 -1.016807537242471 a 6.825676399154624 6.825676399154624 0.0 0 1 1.4503753586435293,1.9531105707428207 l -1.2488397333110655 0.6180902465834963 a 5.432250322027422 5.432250322027422 0.0 0 0 -1.1542888277017882,-1.554393280083846 z"/><path fill="#2a030c" d="M 104.66704703922204,95.01918377776641 l 4.498884072077138 -4.801347528711722 a 13.405410131263814 13.405410131263814 0.0 0 1 2.8484908146690637,3.8358466914366165 l -5.896999528102673 2.918611408017927 a 6.825676399154624 6.825676399154624 0.0 0 0 -1.4503753586435293,-1.9531105707428211 z"/><path fill="#6c0017" d="M 109.16593111129917,90.21783624905468 l 8.31264093519044 -8.871506216166441 a 25.562861420941417 25.562861420941417 0.0 0 1 5.431805162334488,7.3146003326290305 l -10.895955282855864 5.392752574974027 a 13.405410131263814 13.405410131263814 0.0 0 0 -2.8484908146690646,-3.8358466914366165 z"/><path fill="#000000" d="M 117.4785720464896,81.34633003288825 l 3.774552769965989 -4.028318872795674 a 31.083241983382717 31.083241983382717 0.0 0 1 6.60482062188531,8.89421134852229 l -4.947568229516811 2.448707856902411 a 25.562861420941417 25.562861420941417 0.0 0 0 -5.431805162334488,-7.314600332629029 z"/><path fill="#ffd7ca" d="M 100.87571622191231,68.9290963553326 l 0.07253627318085877 -2.5736277327650354 a 33.65789171058529 33.65789171058529 0.0 0 1 8.913743782923117,1.4638740843646145 l -0.7543902703472636 2.4616491500190776 a 31.08324198338272 31.08324198338272 0.0 0 0 -8.231889785756712,-1.3518955016186567 z"/><path fill="#000000" d="M 100.94825249509317,66.35546862256757 l 0.3425150219906614 -12.152625449695812 a 45.81534300026289 45.81534300026289 0.0 0 1 12.133446513604635,1.9926350070009846 l -3.562217752672181 11.623864527059439 a 33.65789171058529 33.65789171058529 0.0 0 0 -8.913743782923117,-1.4638740843646119 z"/><path fill="#000000" d="M 101.29076751708384,54.20284317287176 l 0.6328690286528478 -22.454548764697854 a 68.27880852617011 68.27880852617011 0.0 0 1 18.082529061502026,2.969632773561983 l -6.581951576550239 21.477550998136856 a 45.81534300026289 45.81534300026289 0.0 0 0 -12.133446513604635,-1.9926350070009846 z"/><path fill="#ff6442" d="M 101.92363654573668,31.748294408173905 l 0.2873692685334979 -10.196023128982276 a 78.47888052313361 78.47888052313361 0.0 0 1 20.78385180417718,3.4132618987431016 l -2.988692011208652 9.752394003801157 a 68.27880852617011 68.27880852617011 0.0 0 0 -18.082529061502026,-2.969632773561983 z"/><path fill="#ee0024" d="M 109.10760600766902,70.28099185695126 l 0.7543902703472641 -2.461649150019077 a 33.65789171058529 33.65789171058529 0.0 0 1 4.24349238859392,1.6210620097919413 l -1.0789948716878612 2.337646526884587 a 31.08324198338272 31.08324198338272 0.0 0 0 -3.9188877872533237,-1.497059386657451 z"/><path fill="#f73e3b" d="M 109.86199627801629,67.81934270693219 l 3.5622177526721814 -11.623864527059439 a 45.81534300026289 45.81534300026289 0.0 0 1 5.7762696776783535,2.2066002422830238 l -5.094995041756613 11.038326294568357 a 33.65789171058529 33.65789171058529 0.0 0 0 -4.243492388593921,-1.6210620097919417 z"/><path fill="#681d02" d="M 113.42421403068847,56.195478179872744 l 6.581951576550239 -21.477550998136863 a 68.27880852617011 68.27880852617011 0.0 0 1 8.608400275764815,3.28850611105932 l -9.4140821746367 20.395645129360567 a 45.81534300026289 45.81534300026289 0.0 0 0 -5.7762696776783535,-2.2066002422830238 z"/><path fill="#330a03" d="M 120.00616560723871,34.71792718173589 l 2.988692011208652 -9.752394003801147 a 78.47888052313361 78.47888052313361 0.0 0 1 9.894396684999563,3.7797712608078378 l -4.2746884204434 9.261128854052622 a 68.27880852617011 68.27880852617011 0.0 0 0 -8.608400275764815,-3.288506111059313 z"/><path fill="#f57465" d="M 113.02649379492235,71.77805124360872 l 1.078994871687861 -2.3376465268845847 a 33.65789171058529 33.65789171058529 0.0 0 1 0.69593407102993,0.330940676377542 l -1.1322301272271922 2.3123313250447843 a 31.08324198338272 31.08324198338272 0.0 0 0 -0.6426988154905988,-0.3056254745377416 z"/><path fill="#e80035" d="M 114.10548866661021,69.44040471672413 l 5.094995041756612 -11.038326294568355 a 45.81534300026289 45.81534300026289 0.0 0 1 0.9473100229797824,0.45047861973504943 l -5.346370993706465 10.91878835121085 a 33.65789171058529 33.65789171058529 0.0 0 0 -0.6959340710299298,-0.3309406763775442 z"/><path fill="#9c2d00" d="M 119.20048370836682,58.402078422155775 l 9.4140821746367 -20.39564512936057 a 68.27880852617011 68.27880852617011 0.0 0 1 1.4117803215745255,0.6713502815387962 l -9.878552473231444 20.174773467556825 a 45.81534300026289 45.81534300026289 0.0 0 0 -0.9473100229797815,-0.4504786197350512 z"/><path fill="#f6a878" d="M 128.61456588300354,38.00643329279521 l 4.274688420443399 -9.261128854052627 a 78.47888052313361 78.47888052313361 0.0 0 1 1.622684132504924,0.7716423246293314 l -4.485592231373797 9.160836810962088 a 68.27880852617011 68.27880852617011 0.0 0 0 -1.4117803215745255,-0.6713502815387926 z"/><path fill="#d71000" d="M 113.66919261041292,72.08367671814645 l 1.1322301272271933 -2.312331325044782 a 33.65789171058529 33.65789171058529 0.0 0 1 15.36401854240201,15.298824508005197 l -2.3074958417012255 1.1420526075080026 a 31.08324198338272 31.08324198338272 0.0 0 0 -14.188752827927978,-14.128545790468417 z"/><path fill="#ffffff" d="M 114.80142273764011,69.77134539310165 l 5.346370993706465 -10.91878835121085 a 45.81534300026289 45.81534300026289 0.0 0 1 20.91360283155141,20.82486028424202 l -10.895955282855866 5.392752574974027 a 33.65789171058529 33.65789171058529 0.0 0 0 -15.364018542402011,-15.298824508005199 z"/><path fill="#c91453" d="M 120.14779373134657,58.852557041890805 l 9.878552473231442 -20.17477346755683 a 68.27880852617011 68.27880852617011 0.0 0 1 31.167634897324113,31.03538148615075 l -20.132584539004146 9.9642522656481 a 45.81534300026289 45.81534300026289 0.0 0 0 -20.91360283155141,-20.82486028424202 z"/><path fill="#fc7277" d="M 130.026346204578,38.677783574333965 l 4.4855922313738 -9.160836810962087 a 78.47888052313361 78.47888052313361 0.0 0 1 35.823722588220576,35.67171203211557 l -9.141679922270267 4.524506264997264 a 68.27880852617011 68.27880852617011 0.0 0 0 -31.16763489732411,-31.035381486150747 z"/><path fill="#ec5420" d="M 102.21100581427018,21.552271279191615 l 0.032936823927851404 -1.168617021149718 a 79.64796160521959 79.64796160521959 0.0 0 1 4.465136667298685,0.2514539903839117 l -0.09847656532815385 1.1649261532700024 a 78.47888052313363 78.47888052313363 0.0 0 0 -4.399596925898383,-0.24776312250419608 z"/><path fill="#ff6f48" d="M 102.24394263819804,20.383654258041886 l 0.1555271104681962 -5.518189274761167 a 85.1683421676609 85.1683421676609 0.0 0 1 4.774614187752696,0.2688822044007937 l -0.46500463092220734 5.500761060744296 a 79.64796160521959 79.64796160521959 0.0 0 0 -4.465136667298685,-0.25145399038392213 z"/><path fill="#170206" d="M 102.39946974866623,14.86546498328073 l 0.2873692685334987 -10.196023128982304 a 95.36841416462443 95.36841416462443 0.0 0 1 5.346439436821513,0.3010845201179393 l -0.859194517602317 10.163820813265147 a 85.1683421676609 85.1683421676609 0.0 0 0 -4.774614187752695,-0.26888220440078214 z"/><path fill="#4a0000" d="M 102.68683901719973,4.669441854298427 l 0.13048686656900146 -4.629747350353422 a 99.99999999999999 99.99999999999999 0.0 0 1 5.606090322098173,0.315706749194983 l -0.3901377518456606 4.615125121276378 a 95.36841416462443 95.36841416462443 0.0 0 0 -5.346439436821514,-0.3010845201179393 z"/><path fill="#f70100" d="M 106.61060274016856,21.80003440169581 l 0.0984765653281534 -1.1649261532700108 a 79.64796160521959 79.64796160521959 0.0 0 1 34.78017289019519,11.376365218718613 l -0.6089835681205713 0.9979426788400332 a 78.47888052313363 78.47888052313363 0.0 0 0 -34.26966588740277,-11.209381744288635 z"/><path fill="#490602" d="M 106.70907930549672,20.63510824842581 l 0.46500463092220684 -5.500761060744291 a 85.1683421676609 85.1683421676609 0.0 0 1 37.19077808977383,12.164858284441092 l -2.875609830500842 4.712267995021804 a 79.64796160521959 79.64796160521959 0.0 0 0 -34.780172890195196,-11.376365218718604 z"/><path fill="#fb3144" d="M 107.17408393641892,15.134347187681513 l 0.8591945176023171 -10.163820813265142 a 95.36841416462443 95.36841416462443 0.0 0 1 41.64488162735364,13.621766182095039 l -5.3132980551821305 8.706912915611198 a 85.1683421676609 85.1683421676609 0.0 0 0 -37.19077808977383,-12.164858284441095 z"/><path fill="#fdada1" d="M 108.03327845402124,4.970526374416366 l 0.3901377518456606 -4.615125121276382 a 99.99999999999999 99.99999999999999 0.0 0 1 43.66737351369446,14.283309942200791 l -2.4126296381864734 3.9535813611706345 a 95.36841416462443 95.36841416462443 0.0 0 0 -41.64488162735364,-13.621766182095044 z"/><path fill="#d80029" d="M 140.8802686275713,33.0094161459844 l 0.6089835681205734 -0.9979426788400373 a 79.64796160521959 79.64796160521959 0.0 0 1 11.487286574672423,8.513455050942941 l -0.7775951577744777 0.8729812982515526 a 78.47888052313363 78.47888052313363 0.0 0 0 -11.318674985018518,-8.388493670354457 z"/><path fill="#711003" d="M 141.48925219569188,32.01147346714437 l 2.875609830500838 -4.712267995021793 a 85.1683421676609 85.1683421676609 0.0 0 1 12.283467572201669,9.103520519477957 l -3.6717908280300833 4.122202526486774 a 79.64796160521959 79.64796160521959 0.0 0 0 -11.487286574672424,-8.513455050942937 z"/><path fill="#b1001b" d="M 144.3648620261927,27.29920547212258 l 5.313298055182136 -8.70691291561121 a 95.36841416462443 95.36841416462443 0.0 0 1 13.754580551742537,10.19379141546082 l -6.784411034723007 7.616642019628358 a 85.1683421676609 85.1683421676609 0.0 0 0 -12.283467572201666,-9.103520519477968 z"/><path fill="#ffffff" d="M 149.6781600813748,18.592292556511367 l 2.4126296381864725 -3.9535813611706208 a 99.99999999999999 99.99999999999999 0.0 0 1 14.422574467894016,10.68885490521457 l -3.080623554337947 3.458517871416859 a 95.36841416462443 95.36841416462443 0.0 0 0 -13.754580551742542,-10.193791415460808 z"/><path fill="#fe2c00" d="M 152.19894361258991,41.39790981633896 l 0.7775951577744831 -0.8729812982515557 a 79.64796160521959 79.64796160521959 0.0 0 1 18.406895745876874,24.145154067177057 l -1.047773492068771 0.5185762102230669 a 78.47888052313363 78.47888052313363 0.0 0 0 -18.136717411582588,-23.790748979148567 z"/><path fill="#961120" d="M 152.9765387703644,40.5249285180874 l 3.6717908280300815 -4.122202526486773 a 85.1683421676609 85.1683421676609 0.0 0 1 19.682673147363616,25.818648736761418 l -4.947568229516818 2.448707856902409 a 79.64796160521959 79.64796160521959 0.0 0 0 -18.40689574587688,-24.145154067177053 z"/><path fill="#ea5744" d="M 156.64832959839447,36.40272599160063 l 6.784411034723004 -7.6166420196283555 a 95.36841416462443 95.36841416462443 0.0 0 1 22.03994203491091,28.910784491392494 l -9.1416799222703 4.524506264997278 a 85.1683421676609 85.1683421676609 0.0 0 0 -19.682673147363616,-25.818648736761418 z"/><path fill="#a63309" d="M 163.4327406331175,28.78608397197229 l 3.0806235543379437 -3.458517871416856 a 99.99999999999999 99.99999999999999 0.0 0 1 23.11031616491565,30.314842439853155 l -4.150997684342684 2.054459922956198 a 95.36841416462443 95.36841416462443 0.0 0 0 -22.039942034910908,-28.910784491392498 z"/><path fill="#f7769f" d="M 100.0,100.0 l 0.26447359747343324 -0.1308963405926974 a 0.29509343561167034 0.29509343561167034 0.0 0 1 0.007298076198177961,0.01591680706246297 l -0.2717716736716112 0.11497953353023442 z"/><path fill="#fec9b6" d="M 100.26447359747344,99.8691036594073 l 1.248839733311065 -0.6180902465834958 a 1.6885195127388708 1.6885195127388708 0.0 0 1 0.041759465236953286,0.091075693533339 l -1.2833011223498403 0.5429313601126198 a 0.29509343561167034 0.29509343561167034 0.0 0 0 -0.007298076198177961,-0.01591680706246297 z"/><path fill="#db0e1c" d="M 101.5133133307845,99.25101341282381 l 2.3074958417012255 -1.1420526075080033 a 4.263169239941442 4.263169239941442 0.0 0 1 0.10543417848089387,0.22994765073686807 l -2.3711705549451665 1.0031806503044742 a 1.6885195127388708 1.6885195127388708 0.0 0 0 -0.041759465236953064,-0.091075693533339 z"/><path fill="#eb3925" d="M 103.82080917248572,98.1089608053158 l 1.0477734920687782 -0.5185762102230701 a 5.432250322027421 5.432250322027421 0.0 0 1 0.13434719988113852,0.2930057732781822 l -1.0766865134690224 0.45551808768175617 a 4.263169239941442 4.263169239941442 0.0 0 0 -0.10543417848089431,-0.2299476507368683 z"/><path fill="#cc1707" d="M 100.0,100.0 l 0.2717716736716112 -0.11497953353023442 a 0.29509343561167034 0.29509343561167034 0.0 0 1 0.01993536034275012,0.07040216205497477 l -0.2917070340143613 0.044577371475259656 z"/><path fill="#ff232d" d="M 100.27177167367161,99.88502046646977 l 1.2833011223498403 -0.5429313601126198 a 1.6885195127388708 1.6885195127388708 0.0 0 1 0.11406978560007985,0.4028399483791423 l -1.37743554760717 0.21049357378845227 a 0.29509343561167034 0.29509343561167034 0.0 0 0 -0.01993536034275012,-0.07040216205497477 z"/><path fill="#fe5746" d="M 101.55507279602145,99.34208910635715 l 2.3711705549451665 -1.0031806503044742 a 4.263169239941442 4.263169239941442 0.0 0 1 0.28800306866941217,1.0170891503432387 l -2.545103838014499 0.3889314483403778 a 1.6885195127388708 1.6885195127388708 0.0 0 0 -0.11406978560007985,-0.4028399483791422 z"/><path fill="#fd3533" d="M 103.92624335096662,98.33890845605268 l 1.0766865134690227 -0.45551808768175633 a 5.432250322027421 5.432250322027421 0.0 0 1 0.3669816219976736,1.2960036427168784 l -1.155665066797284 0.17660359530811665 a 4.263169239941442 4.263169239941442 0.0 0 0 -0.28800306866941217,-1.0170891503432387 z"/><path fill="#ff625b" d="M 100.0,100.0 l 0.2917070340143613 -0.044577371475259656 a 0.29509343561167034 0.29509343561167034 0.0 0 1 0.0015854753489620288,0.012025264132355773 l -0.29329250936332335 0.03255210734290388 z"/><path fill="#a91e00" d="M 100.29170703401437,99.95542262852474 l 1.37743554760717 -0.2104935737884523 a 1.6885195127388708 1.6885195127388708 0.0 0 1 0.009072062406741521,0.06880835248413292 l -1.3849221346649494 0.15371048543667515 a 0.29509343561167034 0.29509343561167034 0.0 0 0 -0.0015854753489620288,-0.012025264132355773 z"/><path fill="#090200" d="M 101.66914258162153,99.74492905473629 l 2.545103838014499 -0.3889314483403778 a 4.263169239941442 4.263169239941442 0.0 0 1 0.022905117236409644,0.17372713169632698 l -2.5589368928441667 0.2840126691281837 a 1.6885195127388708 1.6885195127388708 0.0 0 0 -0.009072062406741521,-0.06880835248413289 z"/><path fill="#ff6a6b" d="M 104.21424641963603,99.35599760639592 l 1.155665066797284 -0.17660359530811667 a 5.432250322027421 5.432250322027421 0.0 0 1 0.029186345528537494,0.22136800440867213 l -1.161946295089412 0.12896272259577152 a 4.263169239941442 4.263169239941442 0.0 0 0 -0.022905117236409644,-0.17372713169632698 z"/><path fill="#a8001e" d="M 100.0,100.0 l 0.29329250936332335 -0.03255210734290388 a 0.29509343561167034 0.29509343561167034 0.0 0 1 6.219611737375841E-4,0.0062002620561280725 l -0.29391447053706093 0.02635184528677581 z"/><path fill="#ffffff" d="M 100.29329250936333,99.96744789265709 l 1.3849221346649496 -0.15371048543667518 a 1.6885195127388708 1.6885195127388708 0.0 0 1 0.0035588510325383904,0.03547779178539155 l -1.3878590245237503 0.1244329557074117 a 0.29509343561167034 0.29509343561167034 0.0 0 0 -6.219611737375841E-4,-0.0062002620561280725 z"/><path fill="#ffffff" d="M 101.67821464402827,99.81373740722042 l 2.558936892844167 -0.2840126691281837 a 4.263169239941442 4.263169239941442 0.0 0 1 0.00898537691568757,0.08957422730353651 l -2.564363418727316 0.2299162336100387 a 1.6885195127388708 1.6885195127388708 0.0 0 0 -0.0035588510325386125,-0.03547779178539154 z"/><path fill="#fff0e8" d="M 104.23715153687245,99.52972473809224 l 1.1619462950894117 -0.12896272259577157 a 5.432250322027421 5.432250322027421 0.0 0 1 0.01144942034824159,0.11413800337930696 l -1.1644103385219653 0.10439894652000115 a 4.263169239941442 4.263169239941442 0.0 0 0 -0.008985376915688015,-0.08957422730353654 z"/><path fill="#fd7165" d="M 104.86858266455451,97.59038459509273 l 1.248839733311066 -0.6180902465834962 a 6.825676399154624 6.825676399154624 0.0 0 1 0.40460590908916627,1.0144979947256747 l -1.3314379099187983 0.41098579592142115 a 5.432250322027422 5.432250322027422 0.0 0 0 -0.3220077324814339,-0.8073935440635995 z"/><path fill="#f9bab3" d="M 106.11742239786557,96.97229434850924 l 5.896999528102673 -2.9186114080179264 a 13.405410131263814 13.405410131263814 0.0 0 1 0.7946330642842785,1.9924416133068874 l -6.287026683297785 1.9406677894367137 a 6.825676399154624 6.825676399154624 0.0 0 0 -0.4046059090891667,-1.0144979947256747 z"/><path fill="#ff0586" d="M 112.01442192596824,94.05368294049131 l 10.895955282855864 -5.392752574974027 a 25.562861420941417 25.562861420941417 0.0 0 1 1.51529081944485,3.799399522398587 l -11.616613038016435 3.5857946658823283 a 13.405410131263814 13.405410131263814 0.0 0 0 -0.7946330642842785,-1.9924416133068878 z"/><path fill="#ffffff" d="M 122.9103772088241,88.66093036551729 l 4.947568229516812 -2.4487078569024106 a 31.083241983382717 31.083241983382717 0.0 0 1 1.8425226519210218,4.619891834547008 l -5.274800061992984 1.6282155447539894 a 25.562861420941417 25.562861420941417 0.0 0 0 -1.51529081944485,-3.799399522398587 z"/><path fill="#000000" d="M 105.19059039703593,98.39777813915634 l 1.331437909918798 -0.4109857959214211 a 6.825676399154624 6.825676399154624 0.0 0 1 0.2544765008806176,1.1953807219183628 l -1.3833879543696384 0.1669550841486679 a 5.432250322027422 5.432250322027422 0.0 0 0 -0.2025264564297773,-0.9513500101456095 z"/><path fill="#ffd8dd" d="M 106.52202830695474,97.98679234323492 l 6.2870266832977855 -1.940667789436714 a 13.405410131263814 13.405410131263814 0.0 0 1 0.4997837083949799,2.347689504047768 l -6.532333890812148 0.788359007307309 a 6.825676399154624 6.825676399154624 0.0 0 0 -0.25447650088061735,-1.1953807219183628 z"/><path fill="#ff626d" d="M 112.80905499025252,96.04612455379821 l 11.616613038016435 -3.5857946658823283 a 25.562861420941417 25.562861420941417 0.0 0 1 0.9530407166245034,4.476823973584304 l -12.069870046245958 1.456660196345791 a 13.405410131263814 13.405410131263814 0.0 0 0 -0.49978370839498076,-2.3476895040477674 z"/><path fill="#000000" d="M 124.42566802826897,92.46032988791589 l 5.274800061992985 -1.6282155447539888 a 31.083241983382717 31.083241983382717 0.0 0 1 1.1588528657667387,5.443608232916094 l -5.48061221113522 0.6614312854221991 a 25.562861420941417 25.562861420941417 0.0 0 0 -0.9530407166245034,-4.476823973584304 z"/><path fill="#ac0001" d="M 105.39311685346571,99.34912814930195 l 1.3833879543696384 -0.16695508414866783 a 6.825676399154624 6.825676399154624 0.0 0 1 0.007631048725505352,0.0659233601101073 l -1.38494579298784 0.15349717555507447 a 5.432250322027422 5.432250322027422 0.0 0 0 -0.0060732101073037725,-0.05246545151651394 z"/><path fill="#ffffff" d="M 106.77650480783535,99.18217306515328 l 6.532333890812148 -0.7883590073073089 a 13.405410131263814 13.405410131263814 0.0 0 1 0.014987135620687653,0.129471370722532 l -6.53968997770733 0.7248109966948842 a 6.825676399154624 6.825676399154624 0.0 0 0 -0.007631048725505352,-0.06592336011010735 z"/><path fill="#ffffff" d="M 113.3088386986475,98.39381405784597 l 12.06987004624596 -1.456660196345791 a 25.562861420941417 25.562861420941417 0.0 0 1 0.028579063767322666,0.2468897762434512 l -12.083461974392595 1.339241790824872 a 13.405410131263814 13.405410131263814 0.0 0 0 -0.014987135620687653,-0.12947137072253212 z"/><path fill="#fb9b87" d="M 125.37870874489346,96.9371538615002 l 5.4806122111352185 -0.6614312854221994 a 31.083241983382717 31.083241983382717 0.0 0 1 0.03475080274114184,0.3002064022422649 l -5.486783950109036 0.6081146594233857 a 25.562861420941417 25.562861420941417 0.0 0 0 -0.028579063767324442,-0.2468897762434512 z"/><path fill="#6a1600" d="M 105.39919006357302,99.40159360081846 l 1.3849457929878397 -0.15349717555507444 a 6.825676399154624 6.825676399154624 0.0 0 1 0.014270420272987971,0.14237063790497914 l -1.3878590245237516 0.12443295570741181 a 5.432250322027422 5.432250322027422 0.0 0 0 -0.01135718873707603,-0.1133064180573165 z"/><path fill="#470901" d="M 106.78413585656085,99.24809642526338 l 6.53968997770733 -0.7248109966948842 a 13.405410131263814 13.405410131263814 0.0 0 1 0.028026648982157454,0.2796113791744179 l -6.5534462064165 0.5875702554254455 a 6.825676399154624 6.825676399154624 0.0 0 0 -0.01427042027298775,-0.14237063790497917 z"/><path fill="#ff6076" d="M 113.32382583426819,98.5232854285685 l 12.083461974392595 -1.3392417908248717 a 25.562861420941417 25.562861420941417 0.0 0 1 0.053444194322214145,0.5331927085829558 l -12.108879519732652 1.0856604614163339 a 13.405410131263814 13.405410131263814 0.0 0 0 -0.028026648982157454,-0.2796113791744179 z"/><path fill="#f06d6a" d="M 125.40728780866078,97.18404363774363 l 5.486783950109035 -0.6081146594233859 a 31.083241983382717 31.083241983382717 0.0 0 1 0.06498563667694146,0.648337355969163 l -5.498325392463762 0.49297001203717894 a 25.562861420941417 25.562861420941417 0.0 0 0 -0.053444194322214145,-0.533192708582956 z"/><path fill="#ffb8b1" d="M 127.85794543834092,86.21222250861487 l 2.3074958417012232 -1.1420526075080024 a 33.65789171058529 33.65789171058529 0.0 0 1 0.3455240182018202,0.7194581484184164 l -2.333926591638111 1.0870178851466914 a 31.08324198338272 31.08324198338272 0.0 0 0 -0.31909326826493256,-0.6644234260571054 z"/><path fill="#ff6367" d="M 130.16544128004216,85.07016990110687 l 10.895955282855864 -5.392752574974027 a 45.81534300026289 45.81534300026289 0.0 0 1 0.47032956029645767,0.9793311514445584 l -11.020760824950504 5.1328795719478855 a 33.65789171058529 33.65789171058529 0.0 0 0 -0.345524018201818,-0.7194581484184166 z"/><path fill="#ff1117" d="M 141.061396562898,79.67741732613285 l 20.132584539004146 -9.964252265648097 a 68.27880852617011 68.27880852617011 0.0 0 1 0.7009342261498581,1.4595015511029334 l -20.363189204857548 9.484081865989722 a 45.81534300026289 45.81534300026289 0.0 0 0 -0.4703295602964559,-0.9793311514445584 z"/><path fill="#7c0005" d="M 161.19398110190215,69.71316506048476 l 9.141679922270276 -4.524506264997265 a 78.47888052313361 78.47888052313361 0.0 0 1 0.8056457717405241,1.6775343671738847 l -9.246391467860938 4.306473448926315 a 68.27880852617011 68.27880852617011 0.0 0 0 -0.7009342261498617,-1.4595015511029352 z"/><path fill="#f2001f" d="M 128.17703870660586,86.87664593467198 l 2.3339265916381087 -1.0870178851466912 a 33.65789171058529 33.65789171058529 0.0 0 1 1.8137949284406845,4.83148338685311 l -2.472672258118532 0.7174350993053267 a 31.08324198338272 31.08324198338272 0.0 0 0 -1.675049261960261,-4.461900601011745 z"/><path fill="#ff2136" d="M 130.51096529824397,85.78962804952529 l 11.020760824950504 -5.132879571947885 a 45.81534300026289 45.81534300026289 0.0 0 1 2.4689495555217036,6.5766468818702455 l -11.675915452031525 3.387716076930749 a 33.65789171058529 33.65789171058529 0.0 0 0 -1.8137949284406822,-4.83148338685311 z"/><path fill="#ff6f83" d="M 141.53172612319446,80.65674847757741 l 20.363189204857548 -9.48408186598972 a 68.27880852617011 68.27880852617011 0.0 0 1 3.6794864541616974,9.801205966937223 l -21.573726103497542 6.259522780922744 a 45.81534300026289 45.81534300026289 0.0 0 0 -2.4689495555217036,-6.576646881870246 z"/><path fill="#fca3b1" d="M 161.89491532805204,71.17266661158769 l 9.246391467860944 -4.306473448926318 a 78.47888052313361 78.47888052313361 0.0 0 1 4.229159589273843,11.265393885235625 l -9.79606460297309 2.842285530627919 a 68.27880852617011 68.27880852617011 0.0 0 0 -3.6794864541616974,-9.801205966937225 z"/><path fill="#fc3747" d="M 129.85208796856614,91.33854653568375 l 2.472672258118536 -0.7174350993053259 a 33.65789171058529 33.65789171058529 0.0 0 1 0.3013478036187993,1.1090186011339975 l -2.4957237625636672 0.6326010739473364 a 31.08324198338272 31.08324198338272 0.0 0 0 -0.27829629917366816,-1.0241845757760082 z"/><path fill="#fddedd" d="M 132.32476022668467,90.62111143637843 l 11.675915452031525 -3.38771607693075 a 45.81534300026289 45.81534300026289 0.0 0 1 0.41019660719953066,1.5096033952906867 l -11.784764255612252 2.9871312827740617 a 33.65789171058529 33.65789171058529 0.0 0 0 -0.3013478036188033,-1.1090186011339984 z"/><path fill="#b8051f" d="M 144.00067567871622,87.23339535944768 l 21.573726103497542 -6.259522780922744 a 68.27880852617011 68.27880852617011 0.0 0 1 0.6113178199037037,2.2497686239502244 l -21.774847316201715 5.519357552263205 a 45.81534300026289 45.81534300026289 0.0 0 0 -0.41019660719953066,-1.5096033952906858 z"/><path fill="#170006" d="M 165.57440178221376,80.97387257852498 l 9.79606460297308 -2.8422855306279198 a 78.47888052313361 78.47888052313361 0.0 0 1 0.702641700777443,2.5858582897797975 l -9.88738848384682 2.5061958647983467 a 68.27880852617011 68.27880852617011 0.0 0 0 -0.6113178199037037,-2.2497686239502244 z"/><path fill="#e34364" d="M 130.13038426773977,92.36273111145974 l 2.4957237625636655 -0.6326010739473376 a 33.65789171058529 33.65789171058529 0.0 0 1 0.8973127838706336,5.264220063166973 l -2.564363418727318 0.2299162336100382 a 31.08324198338272 31.08324198338272 0.0 0 0 -0.8286731277069812,-4.861535222829674 z"/><path fill="#f76374" d="M 132.62610803030344,91.7301300375124 l 11.784764255612252 -2.9871312827740604 a 45.81534300026289 45.81534300026289 0.0 0 1 1.2214280479910329,7.1656908845246985 l -12.108879519732653 1.0856604614163343 a 33.65789171058529 33.65789171058529 0.0 0 0 -0.8973127838706318,-5.264220063166972 z"/><path fill="#090002" d="M 144.41087228591567,88.74299875473834 l 21.77484731620172 -5.519357552263204 a 68.27880852617011 68.27880852617011 0.0 0 1 1.8202996279389332,10.679060852155512 l -22.37371889614962 2.0059875846323925 a 45.81534300026289 45.81534300026289 0.0 0 0 -1.2214280479910329,-7.165690884524699 z"/><path fill="#f15941" d="M 166.1857196021174,83.22364120247514 l 9.887388483846816 -2.5061958647983484 a 78.47888052313361 78.47888052313361 0.0 0 1 2.0922315444706534,12.274390236237993 l -10.159320400378533 0.9108664807158675 a 68.27880852617011 68.27880852617011 0.0 0 0 -1.8202996279389367,-10.679060852155512 z"/><path fill="#dc3201" d="M 170.33566102417245,65.18865879548747 l 1.0477734920687671 -0.5185762102230645 a 79.64796160521959 79.64796160521959 0.0 0 1 1.1500849244131113,2.425717904357652 l -1.0646545584617542 0.48297126999222684 a 78.47888052313363 78.47888052313363 0.0 0 0 -1.1332038580201242,-2.390112964126814 z"/><path fill="#ef1623" d="M 171.3834345162412,64.67008258526442 l 4.947568229516816 -2.4487078569024123 a 85.1683421676609 85.1683421676609 0.0 0 1 1.229797026693336,2.5938438136628323 l -5.027280331797044 2.280581947597234 a 79.64796160521959 79.64796160521959 0.0 0 0 -1.1500849244131075,-2.425717904357654 z"/><path fill="#f00022" d="M 176.33100274575804,62.221374728362 l 9.141679922270303 -4.524506264997278 a 95.36841416462443 95.36841416462443 0.0 0 1 1.3770820142210987,2.9044920307686155 l -9.288964909798068 4.213858047891492 a 85.1683421676609 85.1683421676609 0.0 0 0 -1.2297970266933334,-2.5938438136628292 z"/><path fill="#ea0300" d="M 185.47268266802834,57.69686846336473 l 4.150997684342685 -2.0544599229561986 a 99.99999999999999 99.99999999999999 0.0 0 1 1.4439602737275115,3.0455492588509405 l -4.217875943849094 1.9134026948738736 a 95.36841416462443 95.36841416462443 0.0 0 0 -1.3770820142211022,-2.9044920307686155 z"/><path fill="#fc949a" d="M 171.46886488219255,67.57877175961423 l 1.0646545584617522 -0.4829712699922288 a 79.64796160521959 79.64796160521959 0.0 0 1 4.086799354137357,11.152773450208285 l -1.1246410253456673 0.31926969884524325 a 78.47888052313363 78.47888052313363 0.0 0 0 -4.026812887253442,-10.9890718790613 z"/><path fill="#ca1f00" d="M 172.5335194406543,67.09580048962201 l 5.027280331797043 -2.2805819475972298 a 85.1683421676609 85.1683421676609 0.0 0 1 4.370054408786474,11.925769425635814 l -5.310535386446162 1.5075859721697 a 79.64796160521959 79.64796160521959 0.0 0 0 -4.086799354137355,-11.152773450208283 z"/><path fill="#f53b00" d="M 177.56079977245133,64.81521854202477 l 9.288964909798059 -4.213858047891493 a 95.36841416462443 95.36841416462443 0.0 0 1 4.893428099829103,13.354043167552806 l -9.81233860084069 2.7855843059745027 a 85.1683421676609 85.1683421676609 0.0 0 0 -4.370054408786473,-11.925769425635817 z"/><path fill="#ff637a" d="M 186.8497646822494,60.60136049413327 l 4.217875943849099 -1.913402694873873 a 99.99999999999999 99.99999999999999 0.0 0 1 5.131078400215482,14.00258490667689 l -4.455526244235486 1.2648609557497892 a 95.36841416462443 95.36841416462443 0.0 0 0 -4.893428099829094,-13.354043167552806 z"/><path fill="#fc5a71" d="M 175.49567776944605,78.56784363867567 l 1.124641025345671 -0.31926969884524437 a 79.64796160521959 79.64796160521959 0.0 0 1 2.2899390341726296,10.936205432142172 l -1.1582529891678064 0.1587469356401492 a 78.47888052313363 78.47888052313363 0.0 0 0 -2.256327070350494,-10.775682668937076 z"/><path fill="#f15009" d="M 176.62031879479173,78.24857393983042 l 5.310535386446164 -1.5075859721696987 a 85.1683421676609 85.1683421676609 0.0 0 1 2.4486541434943216,11.69419113168462 l -5.469250495767852 0.7496002726272479 a 79.64796160521959 79.64796160521959 0.0 0 0 -2.289939034172633,-10.93620543214217 z"/><path fill="#ffbaae" d="M 181.93085418123786,76.74098796766073 l 9.812338600840684 -2.785584305974501 a 95.36841416462443 95.36841416462443 0.0 0 1 2.741913914949512,13.094730210567008 l -10.105598372295873 1.3850452270921156 a 85.1683421676609 85.1683421676609 0.0 0 0 -2.4486541434943234,-11.694191131684622 z"/><path fill="#ffbfb1" d="M 191.74319278207855,73.95540366168623 l 4.455526244235495 -1.26486095574979 a 99.99999999999999 99.99999999999999 0.0 0 1 2.8750755047855048,13.730678364812647 l -4.588687834071493 0.6289128015041516 a 95.36841416462443 95.36841416462443 0.0 0 0 -2.7419139149495066,-13.09473021056701 z"/><path fill="#ac0018" d="M 177.75200483979654,89.34352630761268 l 1.1582529891678057 -0.1587469356401489 a 79.64796160521959 79.64796160521959 0.0 0 1 0.41949213999254265,3.7026572554222583 l -1.1644103385219466 0.10439894651999992 a 78.47888052313363 78.47888052313363 0.0 0 0 -0.41333479063840173,-3.6483092663021095 z"/><path fill="#ff7a4c" d="M 178.91025782896435,89.18477937197252 l 5.469250495767854 -0.7496002726272479 a 85.1683421676609 85.1683421676609 0.0 0 1 0.4485670366884573,3.959287516012327 l -5.498325392463769 0.49297001203717983 a 79.64796160521959 79.64796160521959 0.0 0 0 -0.419492139992542,-3.7026572554222588 z"/><path fill="#ff7f76" d="M 184.3795083247322,88.43517909934528 l 10.10559837229587 -1.385045227092116 a 95.36841416462443 95.36841416462443 0.0 0 1 0.5022890647711371,4.433466262388572 l -10.159320400378547 0.9108664807158702 a 85.1683421676609 85.1683421676609 0.0 0 0 -0.4485670366884591,-3.959287516012327 z"/><path fill="#af001b" d="M 194.48510669702807,87.05013387225316 l 4.588687834071492 -0.6289128015041507 a 99.99999999999999 99.99999999999999 0.0 0 1 0.5266828322258599,4.648778425460182 l -4.613081601526218 0.41360063843254125 a 95.36841416462443 95.36841416462443 0.0 0 0 -0.5022890647711336,-4.433466262388572 z"/><path fill="#ca001f" d="M 100.0,100.0 l 0.29391447053706093 -0.02635184528677581 a 0.29509343561167034 0.29509343561167034 0.0 0 1 2.869368382512061E-4,0.0034244023529322876 l -0.29420140737531214 0.022927442933843523 z"/><path fill="#ffffff" d="M 100.29391447053706,99.97364815471323 l 1.3878590245237505 -0.12443295570741171 a 1.6885195127388708 1.6885195127388708 0.0 0 1 0.0016418476043240648,0.019594370780935108 l -1.3892139352898234 0.10826298727940889 a 0.29509343561167034 0.29509343561167034 0.0 0 0 -2.869368382512061E-4,-0.0034244023529322876 z"/><path fill="#791501" d="M 101.68177349506081,99.84921519900581 l 2.5643634187273165 -0.22991623361003868 a 4.263169239941442 4.263169239941442 0.0 0 1 0.004145332138965063,0.04947181134661158 l -2.5668669032619578 0.2000387930443622 a 1.6885195127388708 1.6885195127388708 0.0 0 0 -0.0016418476043240648,-0.019594370780935094 z"/><path fill="#f58b7e" d="M 104.24613691378813,99.61929896539577 l 1.1644103385219653 -0.10439894652000115 a 5.432250322027421 5.432250322027421 0.0 0 1 0.005282098968962146,0.06303837544169416 l -1.165547105351962 0.09083238242491859 a 4.263169239941442 4.263169239941442 0.0 0 0 -0.004145332138965507,-0.049471811346611605 z"/><path fill="#c01901" d="M 100.0,100.0 l 0.29420140737531214 -0.022927442933843523 a 0.29509343561167034 0.29509343561167034 0.0 0 1 -0.010669309939106142,0.10471794033130918 l -0.283532097436206 -0.08179049739746566 z"/><path fill="#b10326" d="M 100.29420140737531,99.97707255706615 l 1.3892139352898234 -0.10826298727940889 a 1.6885195127388708 1.6885195127388708 0.0 0 1 -0.06104960614355015,0.5991942356044992 l -1.3388336390853794 -0.3862133079937812 a 0.29509343561167034 0.29509343561167034 0.0 0 0 0.010669309939106142,-0.10471794033130918 z"/><path fill="#ff807e" d="M 101.68341534266514,99.86880956978675 l 2.5668669032619573 -0.2000387930443622 a 4.263169239941442 4.263169239941442 0.0 0 1 -0.15413787111027188,1.5128438935454425 l -2.4737786382952356 -0.7136108648965811 a 1.6885195127388708 1.6885195127388708 0.0 0 0 0.06104960614355015,-0.5991942356044992 z"/><path fill="#6e0500" d="M 104.2502822459271,99.66877077674239 l 1.165547105351962 -0.09083238242491856 a 5.432250322027421 5.432250322027421 0.0 0 1 -0.19640681681848982,1.9277082999412734 l -1.1232781596437444 -0.32403202397091224 a 4.263169239941442 4.263169239941442 0.0 0 0 0.15413787111027233,-1.5128438935454425 z"/><path fill="#fa717c" d="M 100.0,100.0 l 0.283532097436206 0.08179049739746566 a 0.29509343561167034 0.29509343561167034 0.0 0 1 -0.056507896801986784,0.10673045121963845 l -0.22702420063421921 -0.1885209486171041 z"/><path fill="#ffffff" d="M 100.28353209743621,100.08179049739746 l 1.3388336390853792 0.3862133079937812 a 1.6885195127388708 1.6885195127388708 0.0 0 1 -0.3233372039476692,0.6107097879498088 l -1.0720043319396968 -0.8901926447239515 a 0.29509343561167034 0.29509343561167034 0.0 0 0 0.056507896801986784,-0.10673045121963845 z"/><path fill="#a60800" d="M 101.62236573652159,100.46800380539125 l 2.4737786382952356 0.713610864896581 a 4.263169239941442 4.263169239941442 0.0 0 1 -0.8163608484230482,1.5419183271952068 l -1.9807549938198568 -1.644819404141979 a 1.6885195127388708 1.6885195127388708 0.0 0 0 0.3233372039476694,-0.6107097879498088 z"/><path fill="#ff692b" d="M 104.09614437481682,101.18161467028783 l 1.123278159643745 0.3240320239709123 a 5.432250322027421 5.432250322027421 0.0 0 1 -1.0402299866935611,1.9647557622087737 l -0.899409021373232 -0.7468694589844789 a 4.263169239941442 4.263169239941442 0.0 0 0 0.8163608484230482,-1.541918327195207 z"/><path fill="#ff6870" d="M 100.0,100.0 l 0.22702420063421921 0.1885209486171041 a 0.29509343561167034 0.29509343561167034 0.0 0 1 -0.40395618886399887,0.047646803800867055 l 0.17693198822977968 -0.23616775241797117 z"/><path fill="#7c1e01" d="M 100.22702420063422,100.18852094861711 l 1.0720043319396968 0.8901926447239515 a 1.6885195127388708 1.6885195127388708 0.0 0 1 -2.311430295881226,0.2726341837141931 l 0.8354697750775304 -1.1151800246372776 a 0.29509343561167034 0.29509343561167034 0.0 0 0 0.40395618886399887,-0.047646803800867055 z"/><path fill="#ffb59b" d="M 101.29902853257391,101.07871359334105 l 1.9807549938198565 1.6448194041419792 a 4.263169239941442 4.263169239941442 0.0 0 1 -5.835892604928109,0.6883460078477877 l 1.5437073152270262 -2.0605312282755737 a 1.6885195127388708 1.6885195127388708 0.0 0 0 2.311430295881226,-0.27263418371419323 z"/><path fill="#faa98d" d="M 103.27978352639377,102.72353299748303 l 0.8994090213732325 0.7468694589844789 a 5.432250322027421 5.432250322027421 0.0 0 1 -7.4362587310452675,0.8771098711644851 l 0.7009571047439263 -0.9356333223011766 a 4.263169239941442 4.263169239941442 0.0 0 0 5.835892604928109,-0.6883460078477874 z"/><path fill="#bf0950" d="M 105.4105472523101,99.51490001887578 l 1.3878590245237514 -0.1244329557074118 a 6.825676399154624 6.825676399154624 0.0 0 1 -6.285162978239661,7.415885823835411 l -0.1047759305232363 -1.3894812833576022 a 5.432250322027422 5.432250322027422 0.0 0 0 5.002079884239146,-5.901971584770397 z"/><path fill="#0f0204" d="M 106.79840627683384,99.39046706316837 l 6.5534462064165 -0.5875702554254454 a 13.405410131263814 13.405410131263814 0.0 0 1 -12.343859060703991,14.56456256371185 l -0.4947501239521692 -6.561106484450992 a 6.825676399154624 6.825676399154624 0.0 0 0 6.285162978239661,-7.415885823835412 z"/><path fill="#000000" d="M 113.35185248325034,98.80289680774293 l 12.108879519732653 -1.0856604614163339 a 25.562861420941417 25.562861420941417 0.0 0 1 -23.53858296602969,27.773256530548014 l -0.9141556144069565 -12.12303350541983 a 13.405410131263814 13.405410131263814 0.0 0 0 12.343859060703993,-14.56456256371185 z"/><path fill="#000000" d="M 125.46073200298301,97.7172363463266 l 5.498325392463762 -0.4929700120371788 a 31.083241983382717 31.083241983382717 0.0 0 1 -28.621814210503445,33.770978889647154 l -0.4150941479900041 -5.504752347061967 a 25.562861420941417 25.562861420941417 0.0 0 0 23.538582966029686,-27.77325653054801 z"/><path fill="#410d02" d="M 100.40846736807094,105.41687160364617 l 0.10477593052323637 1.389481283357603 a 6.825676399154624 6.825676399154624 0.0 0 1 -0.49163820501395616,0.019289319111913672 l -0.004410566665186744 -1.39341909679744 a 5.432250322027422 5.432250322027422 0.0 0 0 0.39127284115590655,-0.015351505672076549 z"/><path fill="#ff5245" d="M 100.51324329859419,106.80635288700377 l 0.4947501239521689 6.561106484450991 a 13.405410131263814 13.405410131263814 0.0 0 1 -0.9655617097855249,0.03788360577422889 l -0.020826619180600137 -6.5797007711133055 a 6.825676399154624 6.825676399154624 0.0 0 0 0.4916382050139561,-0.019289319111914338 z"/><path fill="#a70c06" d="M 101.00799342254635,113.36745937145477 l 0.9141556144069559 12.123033505419832 a 25.562861420941417 25.562861420941417 0.0 0 1 -1.8412357353431936,0.07224048761280777 l -0.038481588849287096 -12.157390387258411 a 13.405410131263814 13.405410131263814 0.0 0 0 0.9655617097855249,-0.037883605774228 z"/><path fill="#0a0100" d="M 101.92214903695331,125.4904928768746 l 0.41509414799000754 5.504752347061961 a 31.083241983382717 31.083241983382717 0.0 0 1 -2.2388564006077694,0.08784104879694787 l -0.01747348272543192 -5.5203529082461 a 25.562861420941417 25.562861420941417 0.0 0 0 1.8412357353431938,-0.07224048761280955 z"/><path fill="#9d1108" d="M 100.01719452691505,105.43222310931824 l 0.004410566665186769 1.3934190967974398 a 6.825676399154624 6.825676399154624 0.0 0 1 -1.062577487248912,-0.07981128757080191 l 0.212509060506753 -1.3771260405716816 a 5.432250322027422 5.432250322027422 0.0 0 0 0.8456578600769722,0.06351823134504375 z"/><path fill="#ff568c" d="M 100.02160509358023,106.82564220611569 l 0.0208266191806001 6.579700771113306 a 13.405410131263814 13.405410131263814 0.0 0 1 -2.0868681988181566,-0.15674681605523322 l 1.0034640923886444 -6.502765242628875 a 6.825676399154624 6.825676399154624 0.0 0 0 1.062577487248912,0.07981128757080214 z"/><path fill="#f11100" d="M 100.04243171276083,113.405342977229 l 0.03848158884928706 12.157390387258411 a 25.562861420941417 25.562861420941417 0.0 0 1 -3.979462175927389,-0.2989014955722169 l 1.8541123882599453 -12.015235707741427 a 13.405410131263814 13.405410131263814 0.0 0 0 2.0868681988181566,0.15674681605523233 z"/><path fill="#d71005" d="M 100.08091330161012,125.5627333644874 l 0.017473482725431966 5.5203529082461 a 31.083241983382717 31.083241983382717 0.0 0 1 -4.838839586116818,-0.3634502164321525 l 0.8419039274639974 -5.455804187386164 a 25.562861420941417 25.562861420941417 0.0 0 0 3.979462175927389,0.2989014955722169 z"/><path fill="#fc698c" d="M 99.17153666683807,105.3687048779732 l -0.21250906050675317 1.377126040571682 a 6.825676399154624 6.825676399154624 0.0 0 1 -3.0515635646871098,-1.2831385662756065 l 0.8354697750775313 -1.1151800246372785 a 5.432250322027422 5.432250322027422 0.0 0 0 2.4286028501163317,1.021192550341203 z"/><path fill="#feebeb" d="M 98.95902760633132,106.74583091854488 l -1.0034640923886446 6.5027652426288745 a 13.405410131263814 13.405410131263814 0.0 0 1 -5.993173237939993,-2.520043103463961 l 3.9450737656415273 -5.265860705440519 a 6.825676399154624 6.825676399154624 0.0 0 0 3.0515635646871098,1.283138566275606 z"/><path fill="#3a0602" d="M 97.95556351394268,113.24859616117377 l -1.854112388259945 12.015235707741427 a 25.562861420941417 25.562861420941417 0.0 0 1 -11.428419977681902,-4.80548614312147 l 7.2893591280018555 -9.729792668083919 a 13.405410131263814 13.405410131263814 0.0 0 0 5.993173237939992,2.520043103463962 z"/><path fill="#ed1029" d="M 96.10145112568273,125.26383186891519 l -0.8419039274639978 5.455804187386166 a 31.083241983382717 31.083241983382717 0.0 0 1 -13.89642332305573,-5.8432460347366 l 3.309907272837826 -4.418044295771036 a 25.562861420941417 25.562861420941417 0.0 0 0 11.428419977681902,4.80548614312147 z"/><path fill="#f47e37" d="M 130.95905739544676,97.22426633428944 l 2.5643634187273143 -0.2299162336100385 a 33.65789171058529 33.65789171058529 0.0 0 1 0.11657135889215553,4.103193063632988 l -2.5732805077699723 -0.0839562154661384 a 31.08324198338272 31.08324198338272 0.0 0 0 -0.10765426984949755,-3.789320614556811 z"/><path fill="#fb7957" d="M 133.52342081417407,96.9943501006794 l 12.108879519732653 -1.0856604614163339 a 45.81534300026289 45.81534300026289 0.0 0 1 0.15867769845996804,5.5852933161444245 l -12.15098585930047 -0.3964397910951032 a 33.65789171058529 33.65789171058529 0.0 0 0 -0.11657135889215198,-4.103193063632988 z"/><path fill="#bc0040" d="M 145.63230033390673,95.90868963926307 l 22.373718896149622 -2.0059875846323925 a 68.27880852617011 68.27880852617011 0.0 0 1 0.2364780765792709,8.323787358600253 l -22.451519274268925 -0.7325064578234368 a 45.81534300026289 45.81534300026289 0.0 0 0 -0.15867769845996804,-5.5852933161444245 z"/><path fill="#f20019" d="M 168.00601923005638,93.90270205463071 l 10.159320400378526 -0.9108664807158674 a 78.47888052313361 78.47888052313361 0.0 0 1 0.2718051928380092,9.567265857680905 l -10.19464751663726 -0.3326120183647845 a 68.27880852617011 68.27880852617011 0.0 0 0 -0.23647807657927444,-8.323787358600253 z"/><path fill="#e28834" d="M 131.06671166529625,101.01358694884621 l 2.5732805077699688 0.08395621546613806 a 33.65789171058529 33.65789171058529 0.0 0 1 -0.701497184865584,5.824105650368079 l -2.5196197036061854 -0.5294693258194885 a 31.08324198338272 31.08324198338272 0.0 0 0 0.6478363807018006,-5.378592540014728 z"/><path fill="#fd948b" d="M 133.63999217306622,101.09754316431234 l 12.150985859300475 0.39643979109510313 a 45.81534300026289 45.81534300026289 0.0 0 1 -0.9548825700282375,7.927810818806114 l -11.897600474137825 -2.500144959533138 a 33.65789171058529 33.65789171058529 0.0 0 0 0.7014971848655875,-5.824105650368079 z"/><path fill="#790001" d="M 145.7909780323667,101.49398295540745 l 22.451519274268925 0.7325064578234364 a 68.27880852617011 68.27880852617011 0.0 0 1 -1.4230657219691807,11.814851564591724 l -21.983336122327977 -4.619547203609047 a 45.81534300026289 45.81534300026289 0.0 0 0 0.9548825700282322,-7.927810818806114 z"/><path fill="#430400" d="M 168.24249730663564,102.22648941323088 l 10.194647516637263 0.3326120183647847 a 78.47888052313361 78.47888052313361 0.0 0 1 -1.6356554424669145,13.579855072906934 l -9.982057796139529 -2.097615526679995 a 68.27880852617011 68.27880852617011 0.0 0 0 1.4230657219691807,-11.814851564591724 z"/><path fill="#990749" d="M 130.41887528459446,106.39217948886093 l 2.519619703606185 0.5294693258194889 a 33.65789171058529 33.65789171058529 0.0 0 1 -23.379247616625793,25.35023467684397 l -0.7312315889871002 -2.4686274690709524 a 31.08324198338272 31.08324198338272 0.0 0 0 21.59085950200671,-23.411076533592507 z"/><path fill="#ffffff" d="M 132.93849498820066,106.92164881468042 l 11.897600474137827 2.5001449595331393 a 45.81534300026289 45.81534300026289 0.0 0 1 -31.823985229203267,34.506905745718456 l -3.452862861560348 -11.656816028407626 a 33.65789171058529 33.65789171058529 0.0 0 0 23.37924761662579,-25.350234676843968 z"/><path fill="#f72a89" d="M 144.83609546233848,109.42179377421357 l 21.983336122327973 4.619547203609047 a 68.27880852617011 68.27880852617011 0.0 0 1 -47.42742609155992,51.42579441627208 l -6.379895259971317 -21.538435874162673 a 45.81534300026289 45.81534300026289 0.0 0 0 31.823985229203267,-34.506905745718456 z"/><path fill="#eb2c0f" d="M 166.81943158466646,114.04134097782261 l 9.982057796139532 2.097615526679991 a 78.47888052313361 78.47888052313361 0.0 0 1 -54.5125403635695,59.1082191227016 l -2.8969435241299593 -9.780040233109503 a 68.27880852617011 68.27880852617011 0.0 0 0 47.42742609155992,-51.42579441627208 z"/><path fill="#ffe5ee" d="M 108.82801578258776,129.80325602245344 l 0.7312315889871015 2.4686274690709538 a 33.65789171058529 33.65789171058529 0.0 0 1 -29.739830811638882,-5.334962241684076 l 1.5437073152270244 -2.060531228275572 a 31.08324198338272 31.08324198338272 0.0 0 0 27.464891907424757,4.926866000888694 z"/><path fill="#130200" d="M 109.55924737157486,132.2718834915244 l 3.452862861560351 11.656816028407624 a 45.81534300026289 45.81534300026289 0.0 0 1 -40.48205280120109,-7.261985602007774 l 7.289359128001863 -9.72979266808392 a 33.65789171058529 33.65789171058529 0.0 0 0 29.739830811638882,5.334962241684071 z"/><path fill="#ff6217" d="M 113.0121102331352,143.92869951993202 l 6.379895259971315 21.538435874162673 a 68.27880852617011 68.27880852617011 0.0 0 1 -60.33058252873185,-10.822569295976855 l 13.468634467559447 -17.977852180193594 a 45.81534300026289 45.81534300026289 0.0 0 0 40.48205280120109,7.261985602007776 z"/><path fill="#34000a" d="M 119.39200549310652,165.46713539409467 l 2.8969435241299633 9.780040233109498 a 78.47888052313361 78.47888052313361 0.0 0 1 -69.34328059266996,-12.43933719796477 l 6.115754539808137 -8.163272331121583 a 68.27880852617011 68.27880852617011 0.0 0 0 60.33058252873185,10.822569295976855 z"/><path fill="#fe051e" d="M 178.16533963043491,92.99183557391484 l 1.1644103385219529 -0.10439894652000004 a 79.64796160521959 79.64796160521959 0.0 0 1 -20.009941321561058,60.262898177786674 l -0.8707023341835978 -0.7801461540881505 a 78.47888052313363 78.47888052313363 0.0 0 0 19.716233317222702,-59.378353077178524 z"/><path fill="#f44e68" d="M 179.3297499689569,92.88743662739485 l 5.498325392463766 -0.4929700120371791 a 85.1683421676609 85.1683421676609 0.0 0 1 -21.396825416280908,64.43970477813578 l -4.111441297743909 -3.6838365883119195 a 79.64796160521959 79.64796160521959 0.0 0 0 20.00994132156105,-60.262898177786674 z"/><path fill="#2a0900" d="M 184.82807536142064,92.39446661535767 l 10.159320400378554 -0.91086648071587 a 95.36841416462443 95.36841416462443 0.0 0 1 -23.959387445759923,72.15723938631366 l -7.596758370899543 -6.806668127462018 a 85.1683421676609 85.1683421676609 0.0 0 0 21.39682541628091,-64.43970477813578 z"/><path fill="#6e000b" d="M 194.98739576179918,91.48360013464182 l 4.61308160152622 -0.4136006384325419 a 99.99999999999999 99.99999999999999 0.0 0 1 -25.1229798205529,75.66156994259781 l -3.4494892267332347 -3.09072991785159 a 95.36841416462443 95.36841416462443 0.0 0 0 23.959387445759916,-72.15723938631368 z"/><path fill="#be1000" d="M 158.4491063132122,152.3701886510933 l 0.8707023341835939 0.780146154088153 a 79.64796160521959 79.64796160521959 0.0 0 1 -39.48720456503979,23.98892629562928 l -0.2911050298575901 -1.1322581146023651 a 78.47888052313363 78.47888052313363 0.0 0 0 38.90760726071379,-23.63681433511507 z"/><path fill="#ff371f" d="M 159.3198086473958,153.15033480518144 l 4.111441297743911 3.6838365883119226 a 85.1683421676609 85.1683421676609 0.0 0 1 -42.224052968347884,25.651592856923312 l -1.3745928944358212 -5.346503149605951 a 79.64796160521959 79.64796160521959 0.0 0 0 39.4872045650398,-23.988926295629284 z"/><path fill="#fcc7bd" d="M 163.4312499451397,156.83417139349336 l 7.596758370899537 6.806668127462025 a 95.36841416462443 95.36841416462443 0.0 0 1 -47.28095990488194,28.723721388700262 l -2.539851434365481 -9.878796659238972 a 85.1683421676609 85.1683421676609 0.0 0 0 42.224052968347884,-25.651592856923315 z"/><path fill="#f7a99e" d="M 171.02800831603926,163.64083952095538 l 3.449489226733231 3.090729917851591 a 99.99999999999999 99.99999999999999 0.0 0 1 -49.57716904389939,30.118694580699987 l -1.1532800877157854 -4.485703109851315 a 95.36841416462443 95.36841416462443 0.0 0 0 47.28095990488194,-28.723721388700262 z"/><path fill="#45000c" d="M 119.54149905249844,176.00700298620836 l 0.291105029857586 1.132258114602368 a 79.64796160521959 79.64796160521959 0.0 0 1 -2.232664649524604,0.5398217968857437 l -0.25833374542297705 -1.1401816752022569 a 78.47888052313363 78.47888052313363 0.0 0 0 2.199893365089995,-0.5318982362858549 z"/><path fill="#ca2000" d="M 119.83260408235603,177.13926110081073 l 1.374592894435823 5.346503149605947 a 85.1683421676609 85.1683421676609 0.0 0 1 -2.3874100853811537,0.5772367124046305 l -1.2198474585792738 -5.383918065124831 a 79.64796160521959 79.64796160521959 0.0 0 0 2.2326646495246045,-0.5398217968857466 z"/><path fill="#fe7899" d="M 121.20719697679185,182.48576425041668 l 2.5398514343654846 9.878796659238978 a 95.36841416462443 95.36841416462443 0.0 0 1 -2.673335044554669,0.6463686912122686 l -2.2539264751919674 -9.94792863804662 a 85.1683421676609 85.1683421676609 0.0 0 0 2.387410085381152,-0.5772367124046269 z"/><path fill="#aa0600" d="M 123.74704841115732,192.36456090965567 l 1.1532800877157903 4.485703109851318 a 99.99999999999999 99.99999999999999 0.0 0 1 -2.8031660880299127,0.6777597141298024 l -1.0234490442405466 -4.517094132768847 a 95.36841416462443 95.36841416462443 0.0 0 0 2.673335044554669,-0.6463686912122739 z"/><path fill="#430008" d="M 117.34160568740845,176.53890122249422 l 0.258333745422979 1.1401816752022593 a 79.64796160521959 79.64796160521959 0.0 0 1 -65.35522811300878,-13.935611146155873 l 0.7009571047439067 -0.9356333223011646 a 78.47888052313363 78.47888052313363 0.0 0 0 64.3959372628419,13.731062793254779 z"/><path fill="#180002" d="M 117.59993943283142,177.67908289769647 l 1.2198474585792733 5.383918065124826 a 85.1683421676609 85.1683421676609 0.0 0 1 -69.88498284442588,-14.901484915509664 l 3.309907272837819 -4.418044295771033 a 79.64796160521959 79.64796160521959 0.0 0 0 65.35522811300879,13.935611146155871 z"/><path fill="#ffffff" d="M 118.8197868914107,183.06300096282132 l 2.253926475191967 9.94792863804663 a 95.36841416462443 95.36841416462443 0.0 0 1 -78.254663859426,-16.68614122243468 l 6.115754539808151 -8.163272331121618 a 85.1683421676609 85.1683421676609 0.0 0 0 69.88498284442589,14.90148491550967 z"/><path fill="#eb001d" d="M 121.07371336660266,193.01092960086794 l 1.0234490442405455 4.517094132768836 a 99.99999999999999 99.99999999999999 0.0 0 1 -82.05511703732772,-17.49650696050283 l 2.7770041336611655 -3.7067283947006757 a 95.36841416462443 95.36841416462443 0.0 0 0 78.254663859426,16.68614122243467 z"/></g></svg>