<?xml version='1.0' encoding='UTF-8'?>
<svg viewBox="-232.38185756302073 -185.96720498270543 623.7188237340412 615.7392254909676" preserveAspectRatio="xMidYMid meet" xmlns="http://www.w3.org/2000/svg" xmlns:svg="http://www.w3.org/2000/svg"><g transform="translate(0.0, 0.0)"><path fill="#c32430" d="M 100.0,100.0 l -0.0 -0.0 a 0.0 0.0 0.0 0 1 0.0,0.0 l 0.0 0.0 z"/><path fill="#ea9ca7" d="M 100.0,100.0 l -0.0 -0.0 a 0.0 0.0 0.0 0 1 0.0,0.0 l 0.0 0.0 z"/><path fill="#fddfe7" d="M 100.0,100.0 l -0.0 -0.0 a 0.0 0.0 0.0 0 1 0.0,0.0 l 0.0 0.0 z"/><path fill="#da3d47" d="M 100.0,100.0 l -0.0 -0.0 a 0.0 0.0 0.0 0 1 0.0,0.0 l 0.0 0.0 z"/><path fill="#f69c9a" d="M 100.0,100.0 l -0.0 -0.0 a 0.0 0.0 0.0 0 1 0.0,0.0 l 0.0 0.0 z"/><path fill="#eb4b5a" d="M 100.0,100.0 l -0.0 -0.0 a 0.0 0.0 0.0 0 1 0.0,0.0 l 0.0 0.0 z"/><path fill="#ec3e61" d="M 100.0,100.0 l -0.0 -0.0 a 0.0 0.0 0.0 0 1 0.0,0.0 l -0.0 0.0 z"/><path fill="#f47283" d="M 100.0,100.0 l 0.0 -0.0 a 0.0 0.0 0.0 0 1 0.0,0.0 l -0.0 0.0 z"/><path fill="#fab8c3" d="M 100.0,100.0 l 0.0 -0.0 a 0.0 0.0 0.0 0 1 0.0,0.0 l -0.0 0.0 z"/><path fill="#f5d1d4" d="M 100.0,100.0 l 0.0 -0.0 a 0.0 0.0 0.0 0 1 0.0,0.0 l -0.0 0.0 z"/><path fill="#c32430" d="M 100.0,100.0 l 0.0 -0.0 a 0.0 0.0 0.0 0 1 0.0,0.0 l -0.0 0.0 z"/><path fill="#ea9ca7" d="M 100.0,100.0 l 0.0 -0.0 a 0.0 0.0 0.0 0 1 0.0,0.0 l -0.0 0.0 z"/><path fill="#fddfe7" d="M 100.0,100.0 l 0.0 -0.0 a 0.0 0.0 0.0 0 1 0.0,0.0 l -0.0 0.0 z"/><path fill="#da3d47" d="M 100.0,100.0 l 0.0 -0.0 a 0.0 0.0 0.0 0 1 0.0,0.0 l -0.0 0.0 z"/><path fill="#f69c9a" d="M 100.0,100.0 l 0.0 -0.0 a 0.0 0.0 0.0 0 1 0.0,0.0 l -0.0 -0.0 z"/><path fill="#eb4b5a" d="M 100.0,100.0 l 0.0 0.0 a 0.0 0.0 0.0 0 1 0.0,0.0 l -0.0 -0.0 z"/><path fill="#ec3e61" d="M 100.0,100.0 l 0.0 0.0 a 0.0 0.0 0.0 0 1 -0.0,0.0 l 0.0 -0.0 z"/><path fill="#f47283" d="M 100.0,100.0 l -0.0 0.0 a 0.0 0.0 0.0 0 1 0.0,0.0 l 0.0 -0.0 z"/><path fill="#fab8c3" d="M 100.0,100.0 l -0.0 0.0 a 0.0 0.0 0.0 0 1 0.0,0.0 l 0.0 -0.0 z"/><path fill="#f5d1d4" d="M 100.0,100.0 l -0.0 0.0 a 0.0 0.0 0.0 0 1 0.0,-0.0 l 0.0 0.0 z"/><path fill="#c32430" d="M 100.0,100.0 l -0.0 -0.0 a 0.0 0.0 0.0 0 1 0.0,0.0 l 0.0 0.0 z"/><path fill="#c32430" d="M 100.0,100.0 l 7.891705206493656 7.821622533544928 a 11.111111111111114 11.111111111111114 0.0 0 1 -3.136403438081552,2.2204835809508543 l -4.755301768412104 -10.042106114495782 a 0.0 0.0 0.0 0 0 0.0,0.0 z"/><path fill="#ea9ca7" d="M 100.0,100.0 l 4.755301768412104 10.042106114495782 a 11.111111111111114 11.111111111111114 0.0 0 1 -3.2199604692964385,0.9624164657294347 l -1.5353412991156654 -11.004522580225217 a 0.0 0.0 0.0 0 0 0.0,0.0 z"/><path fill="#fddfe7" d="M 100.0,100.0 l 1.5353412991156654 11.004522580225217 a 11.111111111111114 11.111111111111114 0.0 0 1 -0.4447473131956807,0.05293620926760312 l -1.0905939859199847 -11.05745878949282 a 0.0 0.0 0.0 0 0 0.0,0.0 z"/><path fill="#da3d47" d="M 100.0,100.0 l 1.0905939859199847 11.05745878949282 a 11.111111111111114 11.111111111111114 0.0 0 1 -0.8935909196398584,0.051905724975732426 l -0.19700306628012626 -11.109364514468552 a 0.0 0.0 0.0 0 0 0.0,0.0 z"/><path fill="#f69c9a" d="M 100.0,100.0 l 0.19700306628012626 11.109364514468552 a 11.111111111111114 11.111111111111114 0.0 0 1 -1.6374996484454492,-0.09202546548640456 l 1.4404965821653228 -11.017339048982148 a 0.0 0.0 0.0 0 0 0.0,0.0 z"/><path fill="#eb4b5a" d="M 100.0,100.0 l -1.4404965821653228 11.017339048982148 a 11.111111111111114 11.111111111111114 0.0 0 1 -0.8664853436461042,-0.1483637284914323 l 2.306981925811427 -10.868975320490716 a 0.0 0.0 0.0 0 0 0.0,0.0 z"/><path fill="#ec3e61" d="M 100.0,100.0 l -2.306981925811427 10.868975320490716 a 11.111111111111114 11.111111111111114 0.0 0 1 -1.902109900199938,-0.585963304371063 l 4.209091826011365 -10.283012016119653 a 0.0 0.0 0.0 0 0 0.0,0.0 z"/><path fill="#f47283" d="M 100.0,100.0 l -4.209091826011365 10.283012016119653 a 11.111111111111114 11.111111111111114 0.0 0 1 -0.5430976903681977,-0.23943272764539714 l 4.752189516379563 -10.043579288474255 a 0.0 0.0 0.0 0 0 0.0,0.0 z"/><path fill="#fab8c3" d="M 100.0,100.0 l -4.752189516379563 10.043579288474255 a 11.111111111111114 11.111111111111114 0.0 0 1 -0.5750003621536681,-0.2927927498656917 l 5.327189878533231 -9.750786538608564 a 0.0 0.0 0.0 0 0 0.0,0.0 z"/><path fill="#f5d1d4" d="M 100.0,100.0 l -5.327189878533231 9.750786538608564 a 11.111111111111114 11.111111111111114 0.0 0 1 -0.43816702716747,-0.2524998576673063 l 5.765356905700701 -9.498286680941257 a 0.0 0.0 0.0 0 0 0.0,0.0 z"/><path fill="#c32430" d="M 100.0,100.0 l -5.765356905700701 9.498286680941257 a 11.111111111111114 11.111111111111114 0.0 0 1 -1.5412654524678775,-1.1275005865193055 l 7.306622358168578 -8.370786094421952 a 0.0 0.0 0.0 0 0 0.0,0.0 z"/><path fill="#ea9ca7" d="M 100.0,100.0 l -7.306622358168578 8.370786094421952 a 11.111111111111114 11.111111111111114 0.0 0 1 -1.2200788876539086,-1.2467313509527447 l 8.526701245822487 -7.124054743469207 a 0.0 0.0 0.0 0 0 0.0,0.0 z"/><path fill="#fddfe7" d="M 100.0,100.0 l -8.526701245822487 7.124054743469207 a 11.111111111111114 11.111111111111114 0.0 0 1 -0.5574218611801509,-0.7259692876255928 l 9.084123107002638 -6.398085455843614 a 0.0 0.0 0.0 0 0 0.0,0.0 z"/><path fill="#da3d47" d="M 100.0,100.0 l -9.084123107002638 6.398085455843614 a 11.111111111111114 11.111111111111114 0.0 0 1 -0.9973352750116202,-1.7267915221276793 l 10.081458382014258 -4.671293933715935 a 0.0 0.0 0.0 0 0 0.0,0.0 z"/><path fill="#f69c9a" d="M 100.0,100.0 l -10.081458382014258 4.671293933715935 a 11.111111111111114 11.111111111111114 0.0 0 1 1.2040728758262915,-11.353270938912877 l 8.877385506187967 6.681977005196941 a 0.0 0.0 0.0 0 0 0.0,0.0 z"/><path fill="#eb4b5a" d="M 100.0,100.0 l -8.877385506187967 -6.681977005196941 a 11.111111111111114 11.111111111111114 0.0 0 1 12.268164185224897,-3.899110371497642 l -3.39077867903693 10.581087376694583 a 0.0 0.0 0.0 0 0 0.0,0.0 z"/><path fill="#ec3e61" d="M 100.0,100.0 l 3.39077867903693 -10.581087376694583 a 11.111111111111114 11.111111111111114 0.0 0 1 1.3832217928679258,0.5478571083458554 l -4.774000471904856 10.033230268348728 a 0.0 0.0 0.0 0 0 0.0,0.0 z"/><path fill="#f47283" d="M 100.0,100.0 l 4.774000471904856 -10.033230268348728 a 11.111111111111114 11.111111111111114 0.0 0 1 5.990399130951154,12.78722578640794 l -10.76439960285601 -2.753995518059213 a 0.0 0.0 0.0 0 0 0.0,0.0 z"/><path fill="#fab8c3" d="M 100.0,100.0 l 10.76439960285601 2.753995518059213 a 11.111111111111114 11.111111111111114 0.0 0 1 -0.37974449352406303,1.1976786061168632 l -10.384655109331947 -3.951674124176076 a 0.0 0.0 0.0 0 0 0.0,0.0 z"/><path fill="#f5d1d4" d="M 100.0,100.0 l 10.384655109331947 3.951674124176076 a 11.111111111111114 11.111111111111114 0.0 0 1 -0.8702473382038125,1.7870395721284753 l -9.514407771128134 -5.7387136963045515 a 0.0 0.0 0.0 0 0 0.0,0.0 z"/><path fill="#c32430" d="M 100.0,100.0 l 9.514407771128134 5.7387136963045515 a 11.111111111111114 11.111111111111114 0.0 0 1 -1.6227025646344844,2.0829088372403834 l -7.89170520649365 -7.821622533544935 a 0.0 0.0 0.0 0 0 0.0,0.0 z"/><path fill="#c32430" d="M 107.5135474185698,91.81443982904285 l 7.513547418569799 -8.185560170957144 a 22.22222222222223 22.22222222222223 0.0 0 1 4.678019821347282,6.098067397939314 l -9.852557329243439 5.136526471987487 a 11.111111111111114 11.111111111111114 0.0 0 0 -2.3390099106736413,-3.049033698969657 z"/><path fill="#ea9ca7" d="M 109.85255732924344,94.86347352801252 l 9.85255732924344 -5.136526471987487 a 22.22222222222223 22.22222222222223 0.0 0 1 2.1701348846055595,6.3614525143219876 l -10.93762477154622 1.955800214826494 a 11.111111111111114 11.111111111111114 0.0 0 0 -1.0850674423027797,-3.1807262571609938 z"/><path fill="#fddfe7" d="M 110.93762477154623,98.0441997851735 l 10.93762477154622 -1.9558002148264937 a 22.22222222222223 22.22222222222223 0.0 0 1 0.1398714591183854,0.8847856431417132 l -11.007560501105413 1.5134073932556371 a 11.111111111111114 11.111111111111114 0.0 0 0 -0.0699357295591927,-0.4423928215708566 z"/><path fill="#da3d47" d="M 111.00756050110542,98.48659260674437 l 11.007560501105413 -1.5134073932556371 a 22.22222222222223 22.22222222222223 0.0 0 1 0.1722026258294207,1.7818928136814822 l -11.093661814020123 0.622460986414896 a 11.111111111111114 11.111111111111114 0.0 0 0 -0.08610131291471035,-0.8909464068407411 z"/><path fill="#f69c9a" d="M 111.09366181402012,99.37753901358509 l 11.093661814020123 -0.622460986414896 a 22.22222222222223 22.22222222222223 0.0 0 1 -0.05844977323144107,3.279646133935346 l -11.064436927404403 -1.017362080552777 a 11.111111111111114 11.111111111111114 0.0 0 0 0.029224886615720536,-1.6398230669676732 z"/><path fill="#eb4b5a" d="M 111.0644369274044,101.01736208055277 l 11.064436927404403 1.0173620805527772 a 22.22222222222223 22.22222222222223 0.0 0 1 -0.23011908547485405,1.7430662044918903 l -10.949377384666976 -1.8888951827987224 a 11.111111111111114 11.111111111111114 0.0 0 0 0.11505954273742702,-0.8715331022459452 z"/><path fill="#ec3e61" d="M 110.94937738466697,101.88889518279872 l 10.949377384666976 1.8888951827987224 a 22.22222222222223 22.22222222222223 0.0 0 1 -1.0253256741830015,3.8463238979438055 l -10.436714547575475 -3.812057131770625 a 11.111111111111114 11.111111111111114 0.0 0 0 0.5126628370915007,-1.923161948971903 z"/><path fill="#f47283" d="M 110.43671454757548,103.81205713177063 l 10.436714547575475 3.8120571317706253 a 22.22222222222223 22.22222222222223 0.0 0 1 -0.43690149922862176,1.1037434526988918 l -10.218263797961164 -4.363928858120071 a 11.111111111111114 11.111111111111114 0.0 0 0 0.21845074961431088,-0.5518717263494461 z"/><path fill="#fab8c3" d="M 110.21826379796116,104.36392885812008 l 10.218263797961164 4.3639288581200715 a 22.22222222222223 22.22222222222223 0.0 0 1 -0.5410988010063775,1.171590427987729 l -9.947714397457975 -4.949724072113936 a 11.111111111111114 11.111111111111114 0.0 0 0 0.27054940050318876,-0.5857952139938645 z"/><path fill="#f5d1d4" d="M 109.94771439745797,104.94972407211394 l 9.947714397457975 4.949724072113936 a 22.22222222222223 22.22222222222223 0.0 0 1 -0.471056413987224,0.8950373970492418 l -9.712186190464363 -5.397242770638557 a 11.111111111111114 11.111111111111114 0.0 0 0 0.235528206993612,-0.4475186985246209 z"/><path fill="#c32430" d="M 109.71218619046437,105.39724277063856 l 9.712186190464363 5.397242770638557 a 22.22222222222223 22.22222222222223 0.0 0 1 -2.1352532283642347,3.166657657696784 l -8.644559576282246 -6.980571599486949 a 11.111111111111114 11.111111111111114 0.0 0 0 1.0676266141821174,-1.5833288288483915 z"/><path fill="#ea9ca7" d="M 108.64455957628225,106.98057159948695 l 8.644559576282246 6.980571599486948 a 22.22222222222223 22.22222222222223 0.0 0 1 -2.3981491766698397,2.533891619747507 l -7.445484987947326 -8.247517409360702 a 11.111111111111114 11.111111111111114 0.0 0 0 1.1990745883349199,-1.2669458098737536 z"/><path fill="#fddfe7" d="M 107.44548498794732,108.2475174093607 l 7.445484987947326 8.247517409360702 a 22.22222222222223 22.22222222222223 0.0 0 1 -1.4081627541316184,1.1696494387059566 l -6.741403610881517 -8.83234212871368 a 11.111111111111114 11.111111111111114 0.0 0 0 0.7040813770658092,-0.5848247193529783 z"/><path fill="#da3d47" d="M 106.74140361088152,108.83234212871368 l 6.741403610881517 8.83234212871368 a 22.22222222222223 22.22222222222223 0.0 0 1 -3.3746314152002803,2.1255138809806233 l -5.054087903281377 -9.895099069203992 a 11.111111111111114 11.111111111111114 0.0 0 0 1.6873157076001402,-1.0627569404903117 z"/><path fill="#f69c9a" d="M 105.05408790328138,109.895099069204 l 5.054087903281377 9.895099069203992 a 22.22222222222223 22.22222222222223 0.0 0 1 -22.78212951168761,-1.5364845991256466 l 6.336976852562428 -9.126856769641169 a 11.111111111111114 11.111111111111114 0.0 0 0 11.391064755843805,0.7682422995628233 z"/><path fill="#eb4b5a" d="M 93.66302314743757,109.12685676964117 l -6.336976852562429 9.126856769641169 a 22.22222222222223 22.22222222222223 0.0 0 1 -8.732488908796963,-24.219564284205426 l 10.70322130696091 2.982925372461546 a 11.111111111111114 11.111111111111114 0.0 0 0 4.366244454398482,12.109782142102713 z"/><path fill="#ec3e61" d="M 89.29677869303909,97.01707462753845 l -10.703221306960911 -2.982925372461545 a 22.22222222222223 22.22222222222223 0.0 0 1 0.9889266973163764,-2.8063898063266777 l 10.208757958302723 4.386120275624884 a 11.111111111111114 11.111111111111114 0.0 0 0 -0.4944633486581882,1.4031949031633388 z"/><path fill="#f47283" d="M 89.79124204169727,95.61387972437511 l -10.208757958302723 -4.386120275624884 a 22.22222222222223 22.22222222222223 0.0 0 1 25.096689798933014,-12.951766728089169 l -2.339586941163784 10.862003639669467 a 11.111111111111114 11.111111111111114 0.0 0 0 -12.548344899466507,6.475883364044583 z"/><path fill="#fab8c3" d="M 102.3395869411638,89.13799636033053 l 2.3395869411637844 -10.862003639669467 a 22.22222222222223 22.22222222222223 0.0 0 1 2.4226949770780375,0.6671647050679184 l -3.5509344297028034 10.528421287135508 a 11.111111111111114 11.111111111111114 0.0 0 0 -1.2113474885390185,-0.3335823525339592 z"/><path fill="#f5d1d4" d="M 103.55093442970279,89.47157871286448 l 3.550934429702803 -10.528421287135508 a 22.22222222222223 22.22222222222223 0.0 0 1 3.638134174999978,1.6022930982541972 l -5.370001517202792 9.72727473800841 a 11.111111111111114 11.111111111111114 0.0 0 0 -1.819067087499989,-0.8011465491270986 z"/><path fill="#c32430" d="M 105.37000151720278,90.27272526199158 l 5.370001517202792 -9.72727473800841 a 22.22222222222223 22.22222222222223 0.0 0 1 4.287091802734028,3.0834291341025413 l -7.5135474185698055 8.185560170957139 a 11.111111111111114 11.111111111111114 0.0 0 0 -2.1435459013670144,-1.5417145670512706 z"/><path fill="#c32430" d="M 86.57045571207229,117.70521111742008 l -6.714772143963858 8.852605558710039 a 33.33333333333334 33.33333333333334 0.0 0 1 -7.8420315161622,-8.450485574016312 l 9.328782649351258 -6.035777034037935 a 22.22222222222223 22.22222222222223 0.0 0 0 5.2280210107748,5.633657049344208 z"/><path fill="#ea9ca7" d="M 81.34243470129749,112.07155406807587 l -9.328782649351258 6.035777034037935 a 33.33333333333334 33.33333333333334 0.0 0 1 -4.133666373250836,-9.195777303235715 l 10.706671440434867 -2.970517932959363 a 22.22222222222223 22.22222222222223 0.0 0 0 2.7557775821672266,6.130518202157144 z"/><path fill="#fddfe7" d="M 78.58665711913025,105.94103586591874 l -10.70667144043487 2.9705179329593627 a 33.33333333333334 33.33333333333334 0.0 0 1 -0.33305435883333345,-1.30172828488887 l 10.81768956004598 -2.5366085046630733 a 22.22222222222223 22.22222222222223 0.0 0 0 0.22203623922222349,0.8678188565925806 z"/><path fill="#da3d47" d="M 78.36462087990805,105.07321700932614 l -10.817689560045983 2.5366085046630724 a 33.33333333333334 33.33333333333334 0.0 0 1 -0.5072349609646007,-2.636949585772858 l 10.986767880367516 -1.6576253094054532 a 22.22222222222223 22.22222222222223 0.0 0 0 0.33815664064306716,1.757966390515239 z"/><path fill="#f69c9a" d="M 78.02646423926497,103.31525061881091 l -10.986767880367516 1.657625309405453 a 33.33333333333334 33.33333333333334 0.0 0 1 -0.3729627956895172,-4.906094456657362 l 11.111088812264025 -0.0222604905196655 a 22.22222222222223 22.22222222222223 0.0 0 0 0.2486418637930079,3.2707296377715744 z"/><path fill="#eb4b5a" d="M 77.77782237547196,100.04452098103934 l -11.11108881226402 0.022260490519665693 a 33.33333333333334 33.33333333333334 0.0 0 1 0.0990494384964169,-2.6354253980907663 l 11.078072332765213 0.8562146421772565 a 22.22222222222223 22.22222222222223 0.0 0 0 -0.06603295899761008,1.7569502653938442 z"/><path fill="#ec3e61" d="M 77.84385533446957,98.28757071564549 l -11.078072332765215 -0.8562146421772564 a 33.33333333333334 33.33333333333334 0.0 0 1 0.9914644372277213,-5.888070470730297 l 10.747584187022643 2.8189047990873553 a 22.22222222222223 22.22222222222223 0.0 0 0 -0.6609762914851487,3.925380313820199 z"/><path fill="#f47283" d="M 78.50483162595472,94.36219040182529 l -10.74758418702264 -2.8189047990873557 a 33.33333333333334 33.33333333333334 0.0 0 1 0.4975826939348291,-1.7096665329400351 l 10.581723289044366 3.3887936434007004 a 22.22222222222223 22.22222222222223 0.0 0 0 -0.33172179595655393,1.1397776886266904 z"/><path fill="#fab8c3" d="M 78.83655342191128,93.2224127131986 l -10.581723289044364 -3.388793643400701 a 33.33333333333334 33.33333333333334 0.0 0 1 0.6436717313492917,-1.8256132668006884 l 10.367166045261268 3.99733139900093 a 22.22222222222223 22.22222222222223 0.0 0 0 -0.42911448756619563,1.2170755112004592 z"/><path fill="#f5d1d4" d="M 79.26566790947747,92.00533720199813 l -10.367166045261266 -3.9973313990009305 a 33.33333333333334 33.33333333333334 0.0 0 1 0.5778793588272197,-1.4027737319363083 l 10.174539592318858 4.464922642979699 a 22.22222222222223 22.22222222222223 0.0 0 0 -0.385252905884812,0.9351824879575394 z"/><path fill="#c32430" d="M 79.65092081536228,91.0701547140406 l -10.17453959231886 -4.4649226429797 a 33.33333333333334 33.33333333333334 0.0 0 1 2.744435104674837,-5.028805709547739 l 9.259727890760583 6.1411912128289465 a 22.22222222222223 22.22222222222223 0.0 0 0 -1.8296234031165604,3.3525371396984927 z"/><path fill="#ea9ca7" d="M 81.48054421847884,87.7176175743421 l -9.25972789076058 -6.1411912128289465 a 33.33333333333334 33.33333333333334 0.0 0 1 3.225849337310514,-4.120713534680444 l 8.18444477832374 7.514762391055761 a 22.22222222222223 22.22222222222223 0.0 0 0 -2.1505662248736748,2.7471423564536295 z"/><path fill="#fddfe7" d="M 83.63111044335253,84.97047521788848 l -8.184444778323742 -7.514762391055761 a 33.33333333333334 33.33333333333334 0.0 0 1 1.9388354879915841,-1.9443949679988286 l 7.538166282326548 8.16289404705537 a 22.22222222222223 22.22222222222223 0.0 0 0 -1.29255699199439,1.296263311999219 z"/><path fill="#da3d47" d="M 84.92366743534691,83.67421190588925 l -7.538166282326547 -8.16289404705537 a 33.33333333333334 33.33333333333334 0.0 0 1 4.741458407917487,-3.647869470123439 l 5.957680146354052 9.378850537096518 a 22.22222222222223 22.22222222222223 0.0 0 0 -3.160972271944992,2.4319129800822914 z"/><path fill="#f69c9a" d="M 88.0846397072919,81.24229892580696 l -5.957680146354051 -9.378850537096517 a 33.33333333333334 33.33333333333334 0.0 0 1 34.238931019164426,-0.9025381924772216 l -5.455296860034089 9.67969660125559 a 22.22222222222223 22.22222222222223 0.0 0 0 -22.825954012776286,0.6016921283181489 z"/><path fill="#eb4b5a" d="M 110.91059372006819,80.64060679748881 l 5.455296860034092 -9.679696601255591 a 33.33333333333334 33.33333333333334 0.0 0 1 16.44016115669236,34.94451786224531 l -10.935350578931546 -1.9684760194928472 a 22.22222222222223 22.22222222222223 0.0 0 0 -10.960107437794905,-23.296345241496876 z"/><path fill="#ec3e61" d="M 121.8707011578631,103.9369520389857 l 10.935350578931544 1.9684760194928477 a 33.33333333333334 33.33333333333334 0.0 0 1 -1.0830457914135287,4.329903147712431 l -10.574335315127033 -3.4117770687303244 a 22.22222222222223 22.22222222222223 0.0 0 0 0.722030527609018,-2.8866020984749543 z"/><path fill="#f47283" d="M 121.14867063025407,106.82355413746065 l 10.574335315127035 3.411777068730325 a 33.33333333333334 33.33333333333334 0.0 0 1 -35.66231817821876,22.864410941495425 l 1.3131040776125538 -11.033247382562134 a 22.22222222222223 22.22222222222223 0.0 0 0 23.774878785479174,-15.242940627663614 z"/><path fill="#fab8c3" d="M 97.3737918447749,122.06649476512426 l -1.3131040776125524 11.033247382562132 a 33.33333333333334 33.33333333333334 0.0 0 1 -3.7117304601352816,-0.6563659851872625 l 2.550347564324313 -10.814458720833045 a 22.22222222222223 22.22222222222223 0.0 0 0 2.474486973423521,0.437577323458175 z"/><path fill="#f5d1d4" d="M 94.89930487135138,121.62891744166609 l -2.550347564324313 10.814458720833045 a 33.33333333333334 33.33333333333334 0.0 0 1 -5.658124988238771,-1.8823361483814622 l 4.4363892270705705 -10.187013338039222 a 22.22222222222223 22.22222222222223 0.0 0 0 3.7720833254925132,1.2548907655876391 z"/><path fill="#c32430" d="M 91.12722154585886,120.37402667607844 l -4.43638922707057 10.187013338039225 a 33.33333333333334 33.33333333333334 0.0 0 1 -6.8351487506798625,-4.00322333798756 l 6.714772143963856 -8.852605558710039 a 22.22222222222223 22.22222222222223 0.0 0 0 4.556765833786576,2.6688155586583733 z"/><path fill="#c32430" d="M 128.18614312644846,82.20526912913616 l 9.395381042149483 -5.931576956954615 a 44.44444444444446 44.44444444444446 0.0 0 1 5.834590694439905,14.221066527629668 l -10.854028715759455 2.376310325047198 a 33.33333333333334 33.33333333333334 0.0 0 0 -4.375943020829933,-10.665799895722252 z"/><path fill="#ea9ca7" d="M 132.56208614727836,92.87106902485841 l 10.854028715759458 -2.3763103250471977 a 44.44444444444446 44.44444444444446 0.0 0 1 0.8559752070727065,13.415571567484525 l -11.068022517527638 -0.9775825668239335 a 33.33333333333334 33.33333333333334 0.0 0 0 -0.6419814053045272,-10.061678675613393 z"/><path fill="#fddfe7" d="M 133.2040675525829,102.9327477004718 l 11.068022517527636 0.9775825668239336 a 44.44444444444446 44.44444444444446 0.0 0 1 -0.19356099958602435,1.7810594535224427 l -11.019632267631131 -1.422847430204544 a 33.33333333333334 33.33333333333334 0.0 0 0 0.1451707496895196,-1.3357945901418322 z"/><path fill="#da3d47" d="M 133.0588968028934,104.26854229061362 l 11.01963226763113 1.4228474302045442 a 44.44444444444446 44.44444444444446 0.0 0 1 -0.6011475931428105,3.5295615232529043 l -10.869345369345425 -2.305237811017771 a 33.33333333333334 33.33333333333334 0.0 0 0 0.45086069485710567,-2.647171142439677 z"/><path fill="#f69c9a" d="M 132.6080361080363,106.9157134330533 l 10.869345369345426 2.3052378110177703 a 44.44444444444446 44.44444444444446 0.0 0 1 -1.8310118175959307,6.299633027656084 l -10.411592414946444 -3.8801460679317907 a 33.33333333333334 33.33333333333334 0.0 0 0 1.3732588631969485,-4.724724770742063 z"/><path fill="#eb4b5a" d="M 131.23477724483934,111.64043820379537 l 10.411592414946444 3.880146067931791 a 44.44444444444446 44.44444444444446 0.0 0 1 -1.3573533317074578,3.24384498394562 l -10.07225408201958 -4.691107313918197 a 33.33333333333334 33.33333333333334 0.0 0 0 1.0180149987805933,-2.432883737959214 z"/><path fill="#ec3e61" d="M 130.21676224605875,114.07332194175459 l 10.07225408201958 4.691107313918196 a 44.44444444444446 44.44444444444446 0.0 0 1 -3.994121129835783,6.886871384331827 l -9.073723799560632 -6.412825160001155 a 33.33333333333334 33.33333333333334 0.0 0 0 2.9955908473768353,-5.165153538248868 z"/><path fill="#f47283" d="M 127.2211713986819,119.23847548000344 l 9.073723799560634 6.4128251600011525 a 44.44444444444446 44.44444444444446 0.0 0 1 -1.4215385207491114,1.9015147518865545 l -8.718339169373358 -6.88820384797279 a 33.33333333333334 33.33333333333334 0.0 0 0 1.0661538905618357,-1.4261360639149174 z"/><path fill="#fab8c3" d="M 126.15501750812007,120.66461154391837 l 8.718339169373357 6.8882038479727905 a 44.44444444444446 44.44444444444446 0.0 0 1 -1.658201166430997,1.97788196444042 l -8.303788877765609 -7.382674339082893 a 33.33333333333334 33.33333333333334 0.0 0 0 1.243650874823249,-1.4834114733303174 z"/><path fill="#f5d1d4" d="M 124.91136663329682,122.14802301724869 l 8.303788877765607 7.382674339082896 a 44.44444444444446 44.44444444444446 0.0 0 1 -1.3781227937481066,1.480784222786295 l -7.959258179328579 -7.752870394779471 a 33.33333333333334 33.33333333333334 0.0 0 0 1.0335920953110787,-1.1105881670897197 z"/><path fill="#c32430" d="M 123.87777453798574,123.2586111843384 l 7.95925817932858 7.75287039477947 a 44.44444444444446 44.44444444444446 0.0 0 1 -5.780388683963143,4.9935172917963415 l -6.514161008337794 -9.001249717728555 a 33.33333333333334 33.33333333333334 0.0 0 0 4.335291512972358,-3.7451379688472564 z"/><path fill="#ea9ca7" d="M 119.54248302501338,127.00374915318567 l 6.514161008337794 9.001249717728555 a 44.44444444444446 44.44444444444446 0.0 0 1 -5.95631723041274,3.6344449242550567 l -5.025081700734608 -9.909860948792318 a 33.33333333333334 33.33333333333334 0.0 0 0 4.467237922809554,-2.7258336931912943 z"/><path fill="#fddfe7" d="M 115.07524510220384,129.72958284637696 l 5.025081700734609 9.90986094879232 a 44.44444444444446 44.44444444444446 0.0 0 1 -3.33075984925489,1.51988401957078 l -4.192391738420886 -10.289831953685017 a 33.33333333333334 33.33333333333334 0.0 0 0 2.498069886941167,-1.1399130146780827 z"/><path fill="#da3d47" d="M 112.57717521526267,130.86949586105504 l 4.192391738420887 10.289831953685015 a 44.44444444444446 44.44444444444446 0.0 0 1 -7.6271404680874015,2.3346336044130584 l -2.2856066213990376 -10.87349035478828 a 33.33333333333334 33.33333333333334 0.0 0 0 5.720355351065552,-1.7509752033097925 z"/><path fill="#f69c9a" d="M 106.85681986419712,132.62047106436484 l 2.2856066213990367 10.873490354788279 a 44.44444444444446 44.44444444444446 0.0 0 1 -43.16828597739425,-14.901138406730533 l 8.506464872949522 -7.148205753105646 a 33.33333333333334 33.33333333333334 0.0 0 0 32.376214483045686,11.1758538050479 z"/><path fill="#eb4b5a" d="M 74.48060538115143,121.44461725931694 l -8.506464872949525 7.148205753105645 a 44.44444444444446 44.44444444444446 0.0 0 1 -4.166597139668863,-51.32264699829683 l 9.548114157866745 5.682455996468562 a 33.33333333333334 33.33333333333334 0.0 0 0 3.1249478547516425,38.49198524872263 z"/><path fill="#ec3e61" d="M 71.35565752639977,82.95263201059431 l -9.548114157866742 -5.682455996468565 a 44.44444444444446 44.44444444444446 0.0 0 1 3.379047610448236,-4.898697406168453 l 8.703352255254682 6.9071303480106785 a 33.33333333333334 33.33333333333334 0.0 0 0 -2.534285707836176,3.674023054626339 z"/><path fill="#f47283" d="M 73.88994323423594,79.27860895596797 l -8.703352255254682 -6.907130348010678 a 44.44444444444446 44.44444444444446 0.0 0 1 55.22610667248752,-11.850972228887006 l -5.103174412867197 9.869873405232429 a 33.33333333333334 33.33333333333334 0.0 0 0 -41.41958000436564,8.888229171665255 z"/><path fill="#fab8c3" d="M 115.3095232386016,70.39037978430271 l 5.103174412867198 -9.869873405232429 a 44.44444444444446 44.44444444444446 0.0 0 1 4.326673377688569,2.5569779555934886 l -6.1848427572893385 9.230628916334055 a 33.33333333333334 33.33333333333334 0.0 0 0 -3.2450050332664286,-1.9177334666951147 z"/><path fill="#f5d1d4" d="M 118.55452827186802,72.30811325099782 l 6.18484275728934 -9.230628916334057 a 44.44444444444446 44.44444444444446 0.0 0 1 6.182760046550994,4.99869302906629 l -7.7305327689270875 7.980955659067483 a 33.33333333333334 33.33333333333334 0.0 0 0 -4.637070034913247,-3.7490197717997162 z"/><path fill="#c32430" d="M 123.19159830678127,76.05713302279754 l 7.730532768927089 -7.980955659067485 a 44.44444444444446 44.44444444444446 0.0 0 1 6.659393092889571,8.197514808451482 l -9.395381042149484 5.931576956954615 a 33.33333333333334 33.33333333333334 0.0 0 0 -4.994544819667176,-6.148136106338612 z"/><path fill="#c32430" d="M 140.7430062536171,82.24285824258229 l 10.185751563404267 -4.4392854393544265 a 55.555555555555564 55.555555555555564 0.0 0 1 4.5151613414534495,18.676259383310594 l -11.088783831694961 0.7040335626923095 a 44.44444444444446 44.44444444444446 0.0 0 0 -3.6121290731627553,-14.941007506648479 z"/><path fill="#ea9ca7" d="M 144.35513532677984,97.18386574923076 l 11.088783831694956 -0.7040335626923093 a 55.555555555555564 55.555555555555564 0.0 0 1 -1.4836530137837318,16.737937318205045 l -10.792053228938208 -2.643553900948696 a 44.44444444444446 44.44444444444446 0.0 0 0 1.186922411026984,-13.39034985456404 z"/><path fill="#fddfe7" d="M 143.16821291575286,110.5742156037948 l 10.79205322893821 2.643553900948698 a 55.555555555555564 55.555555555555564 0.0 0 1 -0.5765368146719911,2.163946781343728 l -10.676745866003813 -3.0763432572174434 a 44.44444444444446 44.44444444444446 0.0 0 0 0.46122945173759433,-1.7311574250749828 z"/><path fill="#da3d47" d="M 142.70698346401528,112.30537302886978 l 10.676745866003811 3.076343257217444 a 55.555555555555564 55.555555555555564 0.0 0 1 -1.411348647460029,4.2471247207981015 l -10.394476136511805 -3.925768201377064 a 44.44444444444446 44.44444444444446 0.0 0 0 1.1290789179680232,-3.397699776638481 z"/><path fill="#f69c9a" d="M 141.57790454604725,115.70307280550826 l 10.394476136511805 3.9257682013770636 a 55.555555555555564 55.555555555555564 0.0 0 1 -3.4556491842958224,7.4367555653658215 l -9.703346299652644 -5.413119314450228 a 44.44444444444446 44.44444444444446 0.0 0 0 2.7645193474366607,-5.949404452292658 z"/><path fill="#eb4b5a" d="M 138.8133851986106,121.65247725780091 l 9.703346299652642 5.413119314450227 a 55.555555555555564 55.555555555555564 0.0 0 1 -2.291566703110595,3.7508583300798692 l -9.245032959030517 -6.163290980466201 a 44.44444444444446 44.44444444444446 0.0 0 0 1.8332533624884704,-3.0006866640638954 z"/><path fill="#ec3e61" d="M 136.98013183612213,124.65316392186482 l 9.245032959030523 6.1632909804662 a 55.555555555555564 55.555555555555564 0.0 0 1 -6.23954698976196,7.752575702645886 l -7.9971235610781335 -7.713806120995379 a 44.44444444444446 44.44444444444446 0.0 0 0 4.991637591809571,-6.202060562116706 z"/><path fill="#f47283" d="M 131.98849424431256,130.85522448398152 l 7.997123561078132 7.713806120995376 a 55.555555555555564 55.555555555555564 0.0 0 1 -2.1165986615481795,2.080165477722086 l -7.573803828768494 -8.129839216539793 a 44.44444444444446 44.44444444444446 0.0 0 0 1.6932789292385415,-1.6641323821776695 z"/><path fill="#fab8c3" d="M 130.29521531507402,132.5193568661592 l 7.573803828768496 8.129839216539793 a 55.555555555555564 55.555555555555564 0.0 0 1 -2.423476404514818,2.1296918528342985 l -7.089108547865532 -8.555777587106654 a 44.44444444444446 44.44444444444446 0.0 0 0 1.9387811236118537,-1.7037534822674374 z"/><path fill="#f5d1d4" d="M 128.35643419146217,134.22311034842662 l 7.089108547865534 8.555777587106652 a 55.555555555555564 55.555555555555564 0.0 0 1 -1.9832582509674044,1.568550208134761 l -6.692456897672056 -8.869487628733602 a 44.44444444444446 44.44444444444446 0.0 0 0 1.5866066007739263,-1.2548401665078117 z"/><path fill="#c32430" d="M 126.76982759068824,135.47795051493443 l 6.692456897672052 8.869487628733605 a 55.555555555555564 55.555555555555564 0.0 0 1 -8.08794283953868,5.07484973311178 l -5.074868329764318 -9.88445757535596 a 44.44444444444446 44.44444444444446 0.0 0 0 6.470354271630946,-4.059879786489425 z"/><path fill="#ea9ca7" d="M 120.29947331905728,139.53783030142387 l 5.074868329764318 9.88445757535596 a 55.555555555555564 55.555555555555564 0.0 0 1 -8.047869427159469,3.3623037522021235 l -3.4652944443324234 -10.556918325796389 a 44.44444444444446 44.44444444444446 0.0 0 0 6.438295541727575,-2.6898430017616946 z"/><path fill="#fddfe7" d="M 113.86117777732971,142.22767330318555 l 3.4652944443324243 10.556918325796383 a 55.555555555555564 55.555555555555564 0.0 0 1 -4.403272207377241,1.246979276158397 l -2.584640002856977 -10.806314181028064 a 44.44444444444446 44.44444444444446 0.0 0 0 3.522617765901794,-0.9975834209267163 z"/><path fill="#da3d47" d="M 110.33856001142792,143.22525672411228 l 2.5846400028569763 10.806314181028062 a 55.555555555555564 55.555555555555564 0.0 0 1 -9.866059208244518,1.439805886665214 l -0.6114281612080736 -11.094275358361102 a 44.44444444444446 44.44444444444446 0.0 0 0 7.892847366595615,-1.151844709332174 z"/><path fill="#f69c9a" d="M 102.4457126448323,144.37710143344447 l 0.611428161208074 11.094275358361106 a 55.555555555555564 55.555555555555564 0.0 0 1 -50.51449548605084,-26.588523057070326 l 9.491470936002088 -5.776570746947044 a 44.44444444444446 44.44444444444446 0.0 0 0 40.41159638884068,21.270818445656264 z"/><path fill="#eb4b5a" d="M 62.03411625599162,123.10628298778819 l -9.49147093600209 5.776570746947043 a 55.555555555555564 55.555555555555564 0.0 0 1 4.573773771041518,-64.20166234304384 l 8.576716181793785 7.063761721661713 a 44.44444444444446 44.44444444444446 0.0 0 0 -3.659019016833213,51.36132987443508 z"/><path fill="#ec3e61" d="M 65.69313527282483,71.7449531133531 l -8.576716181793786 -7.063761721661718 a 55.555555555555564 55.555555555555564 0.0 0 1 5.102971635247913,-5.412571382956655 l 7.556121854744205 8.146275998253053 a 44.44444444444446 44.44444444444446 0.0 0 0 -4.082377308198332,4.33005710636532 z"/><path fill="#f47283" d="M 69.77551258102316,67.41489600698779 l -7.556121854744204 -8.146275998253047 a 55.555555555555564 55.555555555555564 0.0 0 1 70.48025967406079,-4.1813422239599145 l -6.539930080067954 8.982544443045029 a 44.44444444444446 44.44444444444446 0.0 0 0 -56.38420773924864,3.345073779167933 z"/><path fill="#fab8c3" d="M 126.15972032027182,64.06982222781986 l 6.539930080067948 -8.98254444304503 a 55.555555555555564 55.555555555555564 0.0 0 1 4.861521056320465,3.9788957157419578 l -7.512234291332039 8.186765299896642 a 44.44444444444446 44.44444444444446 0.0 0 0 -3.8892168450563744,-3.183116572593569 z"/><path fill="#f5d1d4" d="M 130.04893716532817,67.25293880041343 l 7.51223429133204 -8.186765299896638 a 55.555555555555564 55.555555555555564 0.0 0 1 6.692308761911,7.347382185877361 l -8.850696043714244 6.7172888627211655 a 44.44444444444446 44.44444444444446 0.0 0 0 -5.3538470095287956,-5.877905748701888 z"/><path fill="#c32430" d="M 135.40278417485698,73.13084454911532 l 8.850696043714239 -6.717288862721167 a 55.555555555555564 55.555555555555564 0.0 0 1 6.675277598450149,11.390017116833713 l -10.185751563404267 4.439285439354425 a 44.44444444444446 44.44444444444446 0.0 0 0 -5.340222078760121,-9.11201369346697 z"/><path fill="#c32430" d="M 75.42790364556203,50.17398436725412 l -4.914419270887595 -9.965203126549168 a 66.66666666666667 66.66666666666667 0.0 0 1 22.13123923622447,-6.468454901872173 l 1.225879398183519 11.04327894352786 a 55.555555555555564 55.555555555555564 0.0 0 0 -18.442699363520394,5.390379084893482 z"/><path fill="#ea9ca7" d="M 93.87060300908243,44.78360528236065 l -1.2258793981835177 -11.043278943527865 a 66.66666666666667 66.66666666666667 0.0 0 1 20.147115545494223,0.8317492294583015 l -2.131973192732186 10.904654071951484 a 55.555555555555564 55.555555555555564 0.0 0 0 -16.78926295457852,-0.6931243578819206 z"/><path fill="#fddfe7" d="M 110.65986596366095,45.47672964024257 l 2.1319731927321848 -10.904654071951482 a 66.66666666666667 66.66666666666667 0.0 0 1 2.626457878050116,0.5686879190723868 l -2.569716172407203 10.809872752106081 a 55.555555555555564 55.555555555555564 0.0 0 0 -2.188714898375098,-0.47390659922698575 z"/><path fill="#da3d47" d="M 112.84858086203604,45.95063623946955 l 2.5697161724072037 -10.809872752106084 a 66.66666666666667 66.66666666666667 0.0 0 1 5.170708244238676,1.4515295198832483 l -3.431500879780316 10.567951165458872 a 55.555555555555564 55.555555555555564 0.0 0 0 -4.308923536865564,-1.209607933236036 z"/><path fill="#f69c9a" d="M 117.15750439890166,47.16024417270561 l 3.4315008797803164 -10.567951165458876 a 66.66666666666667 66.66666666666667 0.0 0 1 9.109632237105505,3.7215664394363124 l -4.949772919297899 9.947690092219489 a 55.555555555555564 55.555555555555564 0.0 0 0 -7.591360197587921,-3.101305366196925 z"/><path fill="#eb4b5a" d="M 124.74886459648948,50.2615495389025 l 4.949772919297899 -9.947690092219492 a 66.66666666666667 66.66666666666667 0.0 0 1 4.625633304176539,2.534684953986737 l -5.720711803327319 9.525242599888372 a 55.555555555555564 55.555555555555564 0.0 0 0 -3.854694420147119,-2.112237461655617 z"/><path fill="#ec3e61" d="M 128.60355901663664,52.37378700055813 l 5.7207118033273225 -9.525242599888369 a 66.66666666666667 66.66666666666667 0.0 0 1 9.645645533232003,7.0406693319267255 l -7.328319392199326 8.351797711233914 a 55.555555555555564 55.555555555555564 0.0 0 0 -8.03803794436,-5.867224443272271 z"/><path fill="#f47283" d="M 136.64159696099668,58.241011443830445 l 7.328319392199322 -8.351797711233914 a 66.66666666666667 66.66666666666667 0.0 0 1 2.613134085368795,2.4194468410194148 l -7.763841739760785 7.948556571064017 a 55.555555555555564 55.555555555555564 0.0 0 0 -2.1776117378073323,-2.0162057008495182 z"/><path fill="#fab8c3" d="M 138.81920869880398,60.25721714467993 l 7.763841739760788 -7.948556571064012 a 66.66666666666667 66.66666666666667 0.0 0 1 2.6898559267495203,2.7844898067612807 l -8.21215106088571 7.484474936603803 a 55.555555555555564 55.555555555555564 0.0 0 0 -2.241546605624599,-2.3204081723010717 z"/><path fill="#f5d1d4" d="M 141.06075530442854,62.577625316980956 l 8.212151060885708 -7.484474936603799 a 66.66666666666667 66.66666666666667 0.0 0 1 1.9923366283110742,2.28855184450052 l -8.54420716560422 7.103049629187041 a 55.555555555555564 55.555555555555564 0.0 0 0 -1.6602805235925615,-1.9071265370837622 z"/><path fill="#c32430" d="M 142.72103582802114,64.48475185406477 l 8.54420716560422 -7.103049629187045 a 66.66666666666667 66.66666666666667 0.0 0 1 6.540485905777508,9.407724897600477 l -9.63428814990047 5.535095479586964 a 55.555555555555564 55.555555555555564 0.0 0 0 -5.450404921481258,-7.839770748000397 z"/><path fill="#ea9ca7" d="M 148.17144074950238,72.32452260206516 l 9.63428814990047 -5.535095479586967 a 66.66666666666667 66.66666666666667 0.0 0 1 4.485448048820686,9.456547558651131 l -10.381862824703916 3.9590042198117814 a 55.555555555555564 55.555555555555564 0.0 0 0 -3.7378733740172407,-7.880456298875945 z"/><path fill="#fddfe7" d="M 151.9093141235196,80.20497890094106 l 10.38186282470392 -3.959004219811779 a 66.66666666666667 66.66666666666667 0.0 0 1 1.743750276507182,5.207528620898723 l -10.672487870788444 3.0910827829953256 a 55.555555555555564 55.555555555555564 0.0 0 0 -1.453125230422657,-4.3396071840822685 z"/><path fill="#da3d47" d="M 153.3624393539423,84.54458608502337 l 10.67248787078845 -3.0910827829953256 a 66.66666666666667 66.66666666666667 0.0 0 1 2.2838466292414186,11.744682311343471 l -11.053128975662027 1.1336357311047465 a 55.555555555555564 55.555555555555564 0.0 0 0 -1.9032055243678414,-9.787235259452892 z"/><path fill="#f69c9a" d="M 155.26564487831013,94.33182134447621 l 11.053128975662018 -1.1336357311047478 a 66.66666666666667 66.66666666666667 0.0 0 1 -29.013796968028977,62.05381112868018 l -6.217496147657194 -9.208666123675279 a 55.555555555555564 55.555555555555564 0.0 0 0 24.17816414002415,-51.711509273900155 z"/><path fill="#eb4b5a" d="M 131.087480738286,146.04333061837642 l 6.21749614765719 9.208666123675279 a 66.66666666666667 66.66666666666667 0.0 0 1 -77.21505964641347,-1.8513437638637313 l 6.651680460078381 -8.900108829697992 a 55.555555555555564 55.555555555555564 0.0 0 0 64.3458830386779,1.542786469886444 z"/><path fill="#ec3e61" d="M 66.74159769960809,144.50054414848998 l -6.651680460078383 8.90010882969799 a 66.66666666666667 66.66666666666667 0.0 0 1 -6.776479012767323,-5.810639380395079 l 7.781093628872938 -7.931668932965479 a 55.555555555555564 55.555555555555564 0.0 0 0 5.647065843972769,4.842199483662569 z"/><path fill="#f47283" d="M 61.09453185563532,139.6583446648274 l -7.781093628872937 7.931668932965477 a 66.66666666666667 66.66666666666667 0.0 0 1 -8.998221768448857,-84.24583614155755 l 9.280797256947743 6.109303757294114 a 55.555555555555564 55.555555555555564 0.0 0 0 7.498518140374053,70.20486345129795 z"/><path fill="#fab8c3" d="M 53.596013715261265,69.45348121352944 l -9.280797256947746 -6.109303757294107 a 66.66666666666667 66.66666666666667 0.0 0 1 4.494413320355218,-6.052378554472721 l 8.531728370221877 7.118033516372897 a 55.555555555555564 55.555555555555564 0.0 0 0 -3.7453444336293487,5.043648795393931 z"/><path fill="#f5d1d4" d="M 57.34135814889061,64.40983241813552 l -8.531728370221877 -7.118033516372894 a 66.66666666666667 66.66666666666667 0.0 0 1 8.428560254870895,-8.437395514147287 l 7.126968327743391 8.524266102064104 a 55.555555555555564 55.555555555555564 0.0 0 0 -7.023800212392409,7.031162928456077 z"/><path fill="#c32430" d="M 64.36515836128302,57.37866948967944 l -7.126968327743396 -8.524266102064107 a 66.66666666666667 66.66666666666667 0.0 0 1 13.275294341134867,-8.645622146910402 l 4.914419270887585 9.965203126549177 a 55.555555555555564 55.555555555555564 0.0 0 0 -11.062745284279057,7.204685122425332 z"/><path fill="#c32430" d="M 132.32714656475505,158.30437410199417 l 5.387857760792512 9.717395683665698 a 77.77777777777779 77.77777777777779 0.0 0 1 -25.42708544809672,8.779205245328962 l -1.755416982492978 -10.971567861569838 a 66.66666666666667 66.66666666666667 0.0 0 0 21.794644669797183,-7.525033067424822 z"/><path fill="#ea9ca7" d="M 110.53250189495787,165.829407169419 l 1.7554169824929802 10.971567861569834 a 77.77777777777779 77.77777777777779 0.0 0 1 -23.524440027397258,0.1608551739653059 l 1.6052173071352023 -10.994547172136308 a 66.66666666666667 66.66666666666667 0.0 0 0 20.163805737769074,-0.13787586339883262 z"/><path fill="#fddfe7" d="M 90.3686961571888,165.96728303281782 l -1.6052173071352 10.994547172136308 a 77.77777777777779 77.77777777777779 0.0 0 1 -3.0925564143513875,-0.5153767083679099 l 2.04701108061397 -10.920921928083743 a 66.66666666666667 66.66666666666667 0.0 0 0 2.6507626408726175,0.4417514643153453 z"/><path fill="#da3d47" d="M 87.71793351631618,165.5255315685025 l -2.0470110806139696 10.92092192808375 a 77.77777777777779 77.77777777777779 0.0 0 1 -6.106936725073014,-1.4014534232034848 l 2.9194306127672576 -10.720714296197542 a 66.66666666666667 66.66666666666667 0.0 0 0 5.234517192919727,1.2012457913172767 z"/><path fill="#f69c9a" d="M 82.48341632339645,164.3242857771852 l -2.9194306127672576 10.720714296197539 a 77.77777777777779 77.77777777777779 0.0 0 1 -10.824366119101978,-3.8258219486181098 l 4.465768629781824 -10.174168303537805 a 66.66666666666667 66.66666666666667 0.0 0 0 9.278028102087411,3.2792759559583757 z"/><path fill="#eb4b5a" d="M 73.20538822130904,161.04500982122684 l -4.465768629781826 10.174168303537808 a 77.77777777777779 77.77777777777779 0.0 0 1 -5.532508559657043,-2.694248081544206 l 5.256126995447119 -9.789275720460061 a 66.66666666666667 66.66666666666667 0.0 0 0 4.742150193991751,2.3093554984664593 z"/><path fill="#ec3e61" d="M 68.46323802731729,158.73565432276038 l -5.256126995447119 9.789275720460065 a 77.77777777777779 77.77777777777779 0.0 0 1 -11.635169354152893,-7.663563946303366 l 6.918294046040387 -8.694480870988151 a 66.66666666666667 66.66666666666667 0.0 0 0 9.973002303559625,6.568769096831453 z"/><path fill="#f47283" d="M 58.490235723757664,152.16688522592892 l -6.91829404604039 8.694480870988155 a 77.77777777777779 77.77777777777779 0.0 0 1 -3.18084411792361,-2.672845708728399 l 7.372700348600901 -8.312645769741245 a 66.66666666666667 66.66666666666667 0.0 0 0 2.7264378153630986,2.291010607481489 z"/><path fill="#fab8c3" d="M 55.763797908394565,149.87587461844743 l -7.3727003486009055 8.312645769741241 a 77.77777777777779 77.77777777777779 0.0 0 1 -3.290725679634991,-3.0939331009377504 l 7.842804017120187 -7.870655326750132 a 66.66666666666667 66.66666666666667 0.0 0 0 2.8206220111157094,2.651942657946641 z"/><path fill="#f5d1d4" d="M 52.943175897278856,147.2239319605008 l -7.842804017120191 7.870655326750134 a 77.77777777777779 77.77777777777779 0.0 0 1 -2.450075760239006,-2.5551337221777306 l 8.19281484001148 -7.505636223581888 a 66.66666666666667 66.66666666666667 0.0 0 0 2.1000649373477174,2.190114619009485 z"/><path fill="#c32430" d="M 50.84311095993114,145.03381734149133 l -8.192814840011478 7.505636223581886 a 77.77777777777779 77.77777777777779 0.0 0 1 -8.14944736268975,-10.596111989489172 l 9.357021606110017 -5.991905939369147 a 66.66666666666667 66.66666666666667 0.0 0 0 6.985240596591211,9.082381705276433 z"/><path fill="#ea9ca7" d="M 43.85787036333993,135.95143563621488 l -9.357021606110013 5.991905939369147 a 77.77777777777779 77.77777777777779 0.0 0 1 -5.757414523874363,-10.768278605426957 l 10.179509395234916 -4.453580424308154 a 66.66666666666667 66.66666666666667 0.0 0 0 4.93492673474946,9.229953090365964 z"/><path fill="#fddfe7" d="M 38.92294362859046,126.72148254584891 l -10.179509395234923 4.453580424308153 a 77.77777777777779 77.77777777777779 0.0 0 1 -2.3241271763567752,-5.970612131522379 l 10.511527563285888 -3.600635834090671 a 66.66666666666667 66.66666666666667 0.0 0 0 1.9921090083058104,5.117667541304897 z"/><path fill="#da3d47" d="M 36.93083462028465,121.60381500454402 l -10.511527563285892 3.60063583409067 a 77.77777777777779 77.77777777777779 0.0 0 1 -3.320197776754096,-13.558175787888473 l 10.985841531393618 -1.6637535786780298 a 66.66666666666667 66.66666666666667 0.0 0 0 2.84588380864637,11.621293532475834 z"/><path fill="#f69c9a" d="M 34.08495081163828,109.98252147206819 l -10.98584153139362 1.6637535786780302 a 77.77777777777779 77.77777777777779 0.0 0 1 30.329514634871167,-73.9398513296023 l 6.6530537264120255 8.899082325550872 a 66.66666666666667 66.66666666666667 0.0 0 0 -25.996726829889575,63.37701542537341 z"/><path fill="#eb4b5a" d="M 60.08167764152786,46.605506046694764 l -6.653053726412024 -8.899082325550873 a 77.77777777777779 77.77777777777779 0.0 0 1 90.08390189468624,-2.173801624240687 l -6.216075115686024 9.209625414728116 a 66.66666666666667 66.66666666666667 0.0 0 0 -77.21477305258819,1.8632585350634443 z"/><path fill="#ec3e61" d="M 137.29645069411606,44.742247511631334 l 6.216075115686012 -9.209625414728114 a 77.77777777777779 77.77777777777779 0.0 0 1 8.22268383703796,6.3911280340935885 l -7.390744235262865 8.296607124143314 a 66.66666666666667 66.66666666666667 0.0 0 0 -7.048014717461108,-5.478109743508789 z"/><path fill="#f47283" d="M 144.34446541157718,50.22035725514012 l 7.390744235262863 -8.296607124143316 a 77.77777777777779 77.77777777777779 0.0 0 1 15.211365022404424,97.66840636627751 l -9.563796381320643 -5.656022356753468 a 66.66666666666667 66.66666666666667 0.0 0 0 -13.038312876346644,-83.71577688538072 z"/><path fill="#fab8c3" d="M 157.3827782879238,133.93613414052083 l 9.563796381320637 5.656022356753474 a 77.77777777777779 77.77777777777779 0.0 0 1 -4.897923646857302,7.305046216228747 l -8.864093003198164 -6.699600387643294 a 66.66666666666667 66.66666666666667 0.0 0 0 4.198220268734829,-6.261468185338927 z"/><path fill="#f5d1d4" d="M 153.18455801918896,140.19760232585975 l 8.864093003198166 6.6996003876432955 a 77.77777777777779 77.77777777777779 0.0 0 1 -9.348671493351484,10.305025159968848 l -7.528568504147955 -8.171746839067417 a 66.66666666666667 66.66666666666667 0.0 0 0 8.013146994301273,-8.832878708544726 z"/><path fill="#c32430" d="M 145.1714110248877,149.0304810344045 l 7.5285685041479535 8.171746839067415 a 77.77777777777779 77.77777777777779 0.0 0 1 -14.984975203488089,10.819541912187981 l -5.387857760792514 -9.717395683665707 a 66.66666666666667 66.66666666666667 0.0 0 0 12.84426446013265,-9.27389306758969 z"/><path fill="#c32430" d="M 25.73311127854285,123.10437092162613 l -10.60955553163674 3.3006244173751598 a 88.8888888888889 88.8888888888889 0.0 0 1 -3.918430671613823,-30.49214043145235 l 11.09935936558847 0.5108931365563834 a 77.77777777777779 77.77777777777779 0.0 0 0 3.428626837662094,26.680622877520804 z"/><path fill="#ea9ca7" d="M 22.304484440880756,96.4237480441053 l -11.099359365588468 -0.5108931365563842 a 88.8888888888889 88.8888888888889 0.0 0 1 5.28367660430632,-26.361406974795447 l 10.438899790050186 3.8060690084058173 a 77.77777777777779 77.77777777777779 0.0 0 0 -4.623217028768039,23.066231102946013 z"/><path fill="#fddfe7" d="M 26.927701469648795,73.35751694115929 l -10.438899790050177 -3.8060690084058155 a 88.8888888888889 88.8888888888889 0.0 0 1 1.294973389319983,-3.3408978540390404 l 10.277028116385182 4.223681240160694 a 77.77777777777779 77.77777777777779 0.0 0 0 -1.1331017156549876,2.923285622284162 z"/><path fill="#da3d47" d="M 28.060803185303797,70.43423131887513 l -10.277028116385178 -4.223681240160696 a 88.8888888888889 88.8888888888889 0.0 0 1 2.986606412513975,-6.508218960468787 l 9.903702314820933 5.037208610219295 a 77.77777777777779 77.77777777777779 0.0 0 0 -2.6132806109497295,5.694691590410187 z"/><path fill="#f69c9a" d="M 30.674083796253512,64.73953972846493 l -9.903702314820931 -5.037208610219294 a 88.8888888888889 88.8888888888889 0.0 0 1 6.795143098222409,-11.223990044183473 l 9.054309427543132 6.440207365742225 a 77.77777777777779 77.77777777777779 0.0 0 0 -5.94575021094461,9.820991288660544 z"/><path fill="#eb4b5a" d="M 36.61983400719812,54.9185484398044 l -9.05430942754313 -6.4402073657422285 a 88.8888888888889 88.8888888888889 0.0 0 1 4.2998406159453975,-5.565170623200149 l 8.516829350549955 7.135853693642254 a 77.77777777777779 77.77777777777779 0.0 0 0 -3.7623605389522226,4.869524295300124 z"/><path fill="#ec3e61" d="M 40.38219454615035,50.049024144504266 l -8.516829350549955 -7.135853693642248 a 88.8888888888889 88.8888888888889 0.0 0 1 11.277922193591188,-11.239949966606623 l 7.107089076351059 8.540847439468074 a 77.77777777777779 77.77777777777779 0.0 0 0 -9.868181919392292,9.834956220780796 z"/><path fill="#f47283" d="M 50.250376465542644,40.21406792372348 l -7.1070890763510555 -8.540847439468076 a 88.8888888888889 88.8888888888889 0.0 0 1 3.7297047461919384,-2.9386090207267 l 6.640875983077066 8.90817356705891 a 77.77777777777779 77.77777777777779 0.0 0 0 -3.263491652917949,2.5712828931358658 z"/><path fill="#fab8c3" d="M 53.513868118460586,37.64278503058762 l -6.640875983077063 -8.908173567058913 a 88.8888888888889 88.8888888888889 0.0 0 1 4.226425672941776,-2.963767657146459 l 6.112572773959343 9.278644524202221 a 77.77777777777779 77.77777777777779 0.0 0 0 -3.698122463824056,2.593296700003151 z"/><path fill="#f5d1d4" d="M 57.21199058228465,35.04948833058445 l -6.11257277395934 -9.278644524202221 a 88.8888888888889 88.8888888888889 0.0 0 1 3.4282592428598777,-2.14821227073773 l 5.684040368601849 9.54717105804444 a 77.77777777777779 77.77777777777779 0.0 0 0 -2.9997268375023864,1.8796857368955102 z"/><path fill="#c32430" d="M 60.21171741978704,33.16980259368894 l -5.684040368601855 -9.547171058044437 a 88.8888888888889 88.8888888888889 0.0 0 1 13.749891013589405,-6.658297848477989 l 3.9653039919031805 10.379458289104193 a 77.77777777777779 77.77777777777779 0.0 0 0 -12.03115463689073,5.826010617418234 z"/><path fill="#ea9ca7" d="M 72.24287205667777,27.343791976270722 l -3.96530399190318 -10.379458289104186 a 88.8888888888889 88.8888888888889 0.0 0 1 13.386984708218193,-3.941606252399744 l 2.2919309033759063 10.872159070654163 a 77.77777777777779 77.77777777777779 0.0 0 0 -11.71361161969092,3.448905470849766 z"/><path fill="#fddfe7" d="M 83.95648367636869,23.894886505420942 l -2.291930903375906 -10.872159070654153 a 88.8888888888889 88.8888888888889 0.0 0 1 7.220956272507083,-1.2140119175521242 l 1.3893113693125194 11.02391056034817 a 77.77777777777779 77.77777777777779 0.0 0 0 -6.318336738443696,1.0622604278581065 z"/><path fill="#da3d47" d="M 90.27482041481238,22.83262607756285 l -1.3893113693125203 -11.023910560348167 a 88.8888888888889 88.8888888888889 0.0 0 1 15.942846864415781,-0.5663717903972163 l -0.6035444887394519 11.094707034147817 a 77.77777777777779 77.77777777777779 0.0 0 0 -13.94999100636381,0.4955753165975665 z"/><path fill="#f69c9a" d="M 104.22481142117618,22.337050760965283 l 0.6035444887394527 -11.094707034147818 a 88.8888888888889 88.8888888888889 0.0 0 1 75.6951302369766,51.11190290507351 l -10.065435768361525 4.705719171013627 a 77.77777777777779 77.77777777777779 0.0 0 0 -66.23323895735453,-44.722915041939316 z"/><path fill="#eb4b5a" d="M 170.4580503785307,67.05996580290454 l 10.06543576836153 -4.705719171013629 a 88.8888888888889 88.8888888888889 0.0 0 1 -18.48995752607084,101.30952559966134 l -7.754191077602677 -7.957971528944057 a 77.77777777777779 77.77777777777779 0.0 0 0 16.178712835311984,-88.64583489970366 z"/><path fill="#ec3e61" d="M 154.27933754321873,155.70580070260826 l 7.754191077602675 7.957971528944039 a 88.8888888888889 88.8888888888889 0.0 0 1 -9.061487930453053,7.716879719793706 l -6.621505086296047 -8.922581493918251 a 77.77777777777779 77.77777777777779 0.0 0 0 7.928801939146425,-6.752269754819494 z"/><path fill="#f47283" d="M 146.35053560407232,162.45807045742777 l 6.621505086296043 8.922581493918253 a 88.8888888888889 88.8888888888889 0.0 0 1 -112.82469296340898,-5.662354774808337 l 7.481581534130086 -8.214787147067213 a 77.77777777777779 77.77777777777779 0.0 0 0 98.72160634298285,4.954560427957297 z"/><path fill="#fab8c3" d="M 47.62892926108946,157.50351002947048 l -7.481581534130082 8.21478714706721 a 88.8888888888889 88.8888888888889 0.0 0 1 -7.03684002603345,-7.1774534187531 l 8.361186537384263 -7.317605469723077 a 77.77777777777779 77.77777777777779 0.0 0 0 6.157235022779268,6.280271741408967 z"/><path fill="#f5d1d4" d="M 41.471694238310185,151.2232382880615 l -8.361186537384262 7.317605469723072 a 88.8888888888889 88.8888888888889 0.0 0 1 -9.360132264863042,-12.854638818439145 l 9.53120307049214 -5.710775617418179 a 77.77777777777779 77.77777777777779 0.0 0 0 8.190115731755164,11.24780896613425 z"/><path fill="#c32430" d="M 33.28157850655502,139.97542932192727 l -9.531203070492143 5.710775617418179 a 88.8888888888889 88.8888888888889 0.0 0 1 -8.626819689156829,-19.281209600344297 l 10.609555531636758 -3.3006244173751433 a 77.77777777777779 77.77777777777779 0.0 0 0 7.548467228012214,16.871058400301262 z"/><path fill="#c32430" d="M 120.34005586313386,186.53043797061144 l 2.5425069828917275 10.816304746326416 a 100.0 100.0 0.0 0 1 -34.52943620112761,1.972693150621403 l 1.294097039455778 -11.035492874173244 a 88.8888888888889 88.8888888888889 0.0 0 0 30.6928321787801,-1.7535050227745757 z"/><path fill="#ea9ca7" d="M 89.64722368435375,188.283942993386 l -1.294097039455781 11.035492874173238 a 100.0 100.0 0.0 0 1 -29.162296756219813,-8.025341672889704 l 4.534352234591317 -10.143788243852157 a 88.8888888888889 88.8888888888889 0.0 0 0 25.922041561084278,7.133637042568623 z"/><path fill="#fddfe7" d="M 63.72518212326947,181.15030595081737 l -4.534352234591313 10.14378824385216 a 100.0 100.0 0.0 0 1 -3.6461436842334907,-1.7188460770187284 l 4.9394793106172585 -9.95280534640564 a 88.8888888888889 88.8888888888889 0.0 0 0 3.241016608207545,1.5278631795722077 z"/><path fill="#da3d47" d="M 60.484165515061925,179.62244277124518 l -4.939479310617255 9.952805346405636 a 100.0 100.0 0.0 0 1 -7.065962332892486,-3.869016686696906 l 5.724586236494197 -9.522914603439318 a 88.8888888888889 88.8888888888889 0.0 0 0 6.280855407015544,3.4391259437305877 z"/><path fill="#f69c9a" d="M 54.20331010804638,176.1833168275146 l -5.724586236494197 9.522914603439313 a 100.0 100.0 0.0 0 1 -12.055109702094036,-8.517869842395251 l 7.064042870060199 -8.57648462095095 a 88.8888888888889 88.8888888888889 0.0 0 0 10.715653068528034,7.571439859906889 z"/><path fill="#eb4b5a" d="M 43.48765703951835,168.6118769676077 l -7.0640428700602 8.576484620950954 a 100.0 100.0 0.0 0 1 -5.903267149879645,-5.267726012110874 l 7.719961442269053 -7.991181730716413 a 88.8888888888889 88.8888888888889 0.0 0 0 5.247348577670792,4.682423121876333 z"/><path fill="#ec3e61" d="M 38.240308461847555,163.92945384573136 l -7.719961442269049 7.991181730716412 a 100.0 100.0 0.0 0 1 -11.716581148874543,-13.549653374496273 l 9.021803792143999 -6.485664689105718 a 88.8888888888889 88.8888888888889 0.0 0 0 10.414738798999593,12.044136332885579 z"/><path fill="#f47283" d="M 27.825569662847954,151.8853175128458 l -9.021803792143995 6.485664689105716 a 100.0 100.0 0.0 0 1 -3.0011081156286714,-4.419081782309034 l 9.355260249436071 -5.99465560218249 a 88.8888888888889 88.8888888888889 0.0 0 0 2.6676516583365952,3.928072695385808 z"/><path fill="#fab8c3" d="M 25.157918004511373,147.95724481745998 l -9.35526024943607 5.994655602182491 a 100.0 100.0 0.0 0 1 -2.989845100640581,-4.978495772126892 l 9.687465260618367 -5.441489405279505 a 88.8888888888889 88.8888888888889 0.0 0 0 2.6576400894582832,4.4253295752239055 z"/><path fill="#f5d1d4" d="M 22.500277915053076,143.5319152422361 l -9.687465260618355 5.441489405279503 a 100.0 100.0 0.0 0 1 -2.1381042875723875,-4.017956983690587 l 9.925032403681953 -4.995049740424996 a 88.8888888888889 88.8888888888889 0.0 0 0 1.9005371445087889,3.5715173188360794 z"/><path fill="#c32430" d="M 20.5997407705443,139.9603979234 l -9.925032403681952 4.995049740424994 a 100.0 100.0 0.0 0 1 -6.378559358972867,-15.959363354389266 l 10.633761221345608 -3.2217871454928577 a 88.8888888888889 88.8888888888889 0.0 0 0 5.66983054130921,14.18610075945713 z"/><path fill="#ea9ca7" d="M 14.929910229235077,125.77429716394288 l -10.633761221345603 3.2217871454928546 a 100.0 100.0 0.0 0 1 -3.3587802417336032,-15.33610286627806 l 11.006959025982681 -1.5177757159064065 a 88.8888888888889 88.8888888888889 0.0 0 0 2.985582437096525,13.632091436691612 z"/><path fill="#fddfe7" d="M 11.944327792138552,112.14220572725127 l -11.006959025982669 1.5177757159064051 a 100.0 100.0 0.0 0 1 -0.7881890255036677,-8.199789730825303 l 11.094535584371968 -0.6066879680369279 a 88.8888888888889 88.8888888888889 0.0 0 0 0.7006124671143681,7.288701982955826 z"/><path fill="#da3d47" d="M 11.243715325024183,104.85350374429544 l -11.094535584371965 0.6066879680369278 a 100.0 100.0 0.0 0 1 0.6320864510156063,-17.935882533738695 l 11.024303756481345 1.3861878690451483 a 88.8888888888889 88.8888888888889 0.0 0 0 -0.5618546231249866,15.94300669665662 z"/><path fill="#f69c9a" d="M 11.80556994814917,88.9104970476388 l -11.024303756481341 -1.3861878690451477 a 100.0 100.0 0.0 0 1 63.37582709888926,-80.88000551587224 l 3.982545189938101 10.372855148586495 a 88.8888888888889 88.8888888888889 0.0 0 0 -56.334068532346016,71.89333823633089 z"/><path fill="#eb4b5a" d="M 68.1396384804952,17.017158811307894 l -3.9825451899380973 -10.3728551485865 a 100.0 100.0 0.0 0 1 112.21800009234403,28.80459169333674 l -8.486121486988992 7.172344960437975 a 88.8888888888889 88.8888888888889 0.0 0 0 -99.74933341541694,-25.604081505188212 z"/><path fill="#ec3e61" d="M 167.88897189591208,42.62124031649607 l 8.486121486989006 -7.172344960437977 a 100.0 100.0 0.0 0 1 7.939274036175462,10.78227122977007 l -9.368263046564053 5.97431482379686 a 88.8888888888889 88.8888888888889 0.0 0 0 -7.057132476600415,-9.584241093128952 z"/><path fill="#f47283" d="M 174.94610437251248,52.20548140962501 l 9.368263046564056 -5.97431482379686 a 100.0 100.0 0.0 0 1 -15.325231946826651,126.16012561697436 l -7.665459496916654 -8.043476911422488 a 88.8888888888889 88.8888888888889 0.0 0 0 13.622428397179249,-112.14233388175501 z"/><path fill="#fab8c3" d="M 161.3236759753333,164.34781529138007 l 7.665459496916652 8.0434769114225 a 100.0 100.0 0.0 0 1 -8.613961099083147,7.325947585148599 l -6.708352708129638 -8.857471087550124 a 88.8888888888889 88.8888888888889 0.0 0 0 7.656854310296133,-6.511953409020975 z"/><path fill="#f5d1d4" d="M 153.66682166503716,170.85976870040105 l 6.708352708129637 8.85747108755012 a 100.0 100.0 0.0 0 1 -15.169553929018235,9.481705722966044 l -5.0228467160165025 -9.910993945657452 a 88.8888888888889 88.8888888888889 0.0 0 0 13.4840479369051,-8.428182864858712 z"/><path fill="#c32430" d="M 140.18277372813208,179.28795156525973 l 5.022846716016502 9.91099394565746 a 100.0 100.0 0.0 0 1 -22.323057598123075,8.147797206020648 l -2.5425069828917195 -10.816304746326423 a 88.8888888888889 88.8888888888889 0.0 0 0 19.842717864998292,-7.242486405351684 z"/><path fill="#c32430" d="M 121.62416996757297,197.63398626100195 l 2.4026855519525525 10.8482206956669 a 111.11111111111113 111.11111111111113 0.0 0 1 -38.391135552906114,1.6964954838132904 l 1.4364280033380652 -11.017870244048225 a 100.0 100.0 0.0 0 0 34.5520219976155,-1.5268459354319646 z"/><path fill="#ea9ca7" d="M 87.07214796995747,199.16083219643392 l -1.4364280033380643 11.017870244048229 a 111.11111111111113 111.11111111111113 0.0 0 1 -32.28475744542744,-9.334533969288717 l 4.664903747880814 -10.084416847119357 a 100.0 100.0 0.0 0 0 29.05628170088469,8.401080572359845 z"/><path fill="#fddfe7" d="M 58.01586626907278,190.75975162407408 l -4.664903747880812 10.084416847119357 a 111.11111111111113 111.11111111111113 0.0 0 1 -4.026282481033819,-1.9619609750349838 l 5.067531995984197 -9.888220749615854 a 100.0 100.0 0.0 0 0 3.623654232930434,1.7657648775314811 z"/><path fill="#da3d47" d="M 54.39221203614234,188.9939867465426 l -5.0675319959841945 9.888220749615858 a 111.11111111111113 111.11111111111113 0.0 0 1 -7.794927816753041,-4.399885671971251 l 5.847024777659499 -9.448232182418735 a 100.0 100.0 0.0 0 0 7.015435035077736,3.9598971047741287 z"/><path fill="#f69c9a" d="M 47.37677700106461,185.03408964176847 l -5.8470247776595 9.448232182418733 a 111.11111111111113 111.11111111111113 0.0 0 1 -13.2712916706883,-9.636399529243702 l 7.174153944728332 -8.484592229494368 a 100.0 100.0 0.0 0 0 11.944162503619467,8.672759576319336 z"/><path fill="#eb4b5a" d="M 35.43261449744513,176.36133006544912 l -7.174153944728332 8.48459222949436 a 111.11111111111113 111.11111111111113 0.0 0 1 -6.4830923367131135,-5.937202912331053 l 7.822463178399644 -7.890871938261256 a 100.0 100.0 0.0 0 0 5.834783103041801,5.343482621097948 z"/><path fill="#ec3e61" d="M 29.597831394403343,171.0178474443512 l -7.8224631783996434 7.890871938261254 a 111.11111111111113 111.11111111111113 0.0 0 1 -12.823016946853286,-15.221949383424201 l 9.104764873084974 -6.368676999918833 a 100.0 100.0 0.0 0 0 11.540715252167956,13.69975444508178 z"/><path fill="#f47283" d="M 18.057116142235373,157.31809299926942 l -9.104764873084974 6.368676999918832 a 111.11111111111113 111.11111111111113 0.0 0 1 -3.2709106222940108,-4.9527221743259835 l 9.431855935314374 -5.873404782486233 a 100.0 100.0 0.0 0 0 2.943819560064611,4.4574499568933845 z"/><path fill="#fab8c3" d="M 15.113296582170776,152.860643042376 l -9.431855935314376 5.873404782486232 a 111.11111111111113 111.11111111111113 0.0 0 1 -3.25037437937719,-5.574079967040489 l 9.756893373252083 -5.315996785782183 a 100.0 100.0 0.0 0 0 2.9253369414394825,5.016671970336439 z"/><path fill="#f5d1d4" d="M 12.187959640731279,147.84397107203958 l -9.756893373252096 5.315996785782183 a 111.11111111111113 111.11111111111113 0.0 0 1 -2.3178500818647496,-4.4946883295597075 l 9.988678381438575 -4.86652795282621 a 100.0 100.0 0.0 0 0 2.08606507367827,4.045219496603735 z"/><path fill="#c32430" d="M 10.101894567053009,143.79875157543586 l -9.988678381438572 4.866527952826211 a 111.11111111111113 111.11111111111113 0.0 0 1 -6.857816900076362,-17.822626745860614 l 10.674460071446205 -3.0842652782401494 a 100.0 100.0 0.0 0 0 6.172035210068728,16.040364071274553 z"/><path fill="#ea9ca7" d="M 3.929859356984295,127.7583875041613 l -10.674460071446209 3.0842652782401476 a 111.11111111111113 111.11111111111113 0.0 0 1 -3.5117247550238595,-17.086864680206006 l 11.0256325469486 -1.3755788102195456 a 100.0 100.0 0.0 0 0 3.160552279521468,15.378178212185402 z"/><path fill="#fddfe7" d="M 0.7693070774628126,112.38020929197589 l -11.025632546948595 1.3755788102195448 a 111.11111111111113 111.11111111111113 0.0 0 1 -0.7580955129380467,-9.121422311404201 l 11.101442098242401 -0.46343657907912306 a 100.0 100.0 0.0 0 0 0.68228596164424,8.20928008026378 z"/><path fill="#da3d47" d="M 0.08702111581857253,104.17092921171212 l -11.1014420982424 0.4634365790791233 a 111.11111111111113 111.11111111111113 0.0 0 1 0.9594868667506073,-19.91803318904701 l 11.005493411567343 1.5283667398255787 a 100.0 100.0 0.0 0 0 -0.863538180075551,17.926229870142308 z"/><path fill="#f69c9a" d="M 0.9505592958941236,86.24469934156978 l -11.00549341156734 -1.5283667398255805 a 111.11111111111113 111.11111111111113 0.0 0 1 71.57165861162576,-88.95028349503647 l 3.848327550404747 10.423395089329233 a 100.0 100.0 0.0 0 0 -64.41449275046317,80.05525514553283 z"/><path fill="#eb4b5a" d="M 65.3650520463573,6.189444196036973 l -3.8483275504047527 -10.423395089329242 a 111.11111111111113 111.11111111111113 0.0 0 1 124.26317952298389,33.611807914990216 l -8.577990401893643 7.0622142978302165 a 100.0 100.0 0.0 0 0 -111.8368615706855,-30.250627123491192 z"/><path fill="#ec3e61" d="M 177.20191361704275,36.44007131952811 l 8.577990401893654 -7.062214297830215 a 111.11111111111113 111.11111111111113 0.0 0 1 8.666047022036441,12.09316430694784 l -9.444595104097289 5.852897867135425 a 100.0 100.0 0.0 0 0 -7.7994423198328064,-10.88384787625305 z"/><path fill="#f47283" d="M 185.00135593687554,47.32391919578116 l 9.444595104097301 -5.85289786713543 a 111.11111111111113 111.11111111111113 0.0 0 1 -18.835939874176574,139.94645359966808 l -7.561001116679634 -8.141747492831385 a 100.0 100.0 0.0 0 0 16.952345886758906,-125.95180823970126 z"/><path fill="#fab8c3" d="M 168.0490100501167,173.27572743548248 l 7.561001116679643 8.1417474928314 a 111.11111111111113 111.11111111111113 0.0 0 1 -9.675335516189188,8.015726731891249 l -6.59346756506072 -8.943320166020527 a 100.0 100.0 0.0 0 0 8.707801964570265,-7.214154058702121 z"/><path fill="#f5d1d4" d="M 159.34120808554644,180.4898814941846 l 6.593467565060723 8.943320166020525 a 111.11111111111113 111.11111111111113 0.0 0 1 -16.9896375318334,10.316797116223286 l -4.894503811877385 -9.974999877642858 a 100.0 100.0 0.0 0 0 15.29067377865006,-9.285117404600953 z"/><path fill="#c32430" d="M 144.0505343068964,189.77499889878555 l 4.894503811877381 9.974999877642855 a 111.11111111111113 111.11111111111113 0.0 0 1 -24.918182599248336,8.732208180240452 l -2.402685551952544 -10.848220695666896 a 100.0 100.0 0.0 0 0 22.4263643393235,-7.858987362216411 z"/></g></svg>