<?xml version='1.0' encoding='UTF-8'?>
<svg preserveAspectRatio="xMidYMid meet" xmlns="http://www.w3.org/2000/svg" xmlns:svg="http://www.w3.org/2000/svg"><g><circle fill="#000000" r="85.0" cx="0.0" cy="0.0"/><path fill="#00000d" d="M 100.0,0.0 a 100.0 100.0 0.0 1 1 -100.0,-100.0 a 100.0 100.0 0.0 0 1 100.0,100.0 z M 85.0,0.0 a 85.0 85.0 0.0 1 0 -85.0,85.0 a 85.0 85.0 0.0 0 0 85.0,-85.0 z"/><circle fill="#000000" r="85.0" cx="0.0" cy="0.0"/><path fill="#0dfd7a" d="M -84.62774948833001,7.946320943710988 l -1.493430873323471 0.14022919312431137 a 86.5 86.5 0.0 0 1 7.494775296142388,-44.143982470186096 l 1.3634636716562625 0.6252733930638854 a 85.0 85.0 0.0 0 0 -7.36480809447518,43.3784798839979 z"/><path fill="#6b0037" d="M -49.19559054804306,-69.31662045014383 l -0.8681574802595835 -1.2232344785319498 a 86.5 86.5 0.0 0 1 41.97719789146736,-15.58132543297772 l 0.1402291931243127 1.4934308733234758 a 85.0 85.0 0.0 0 0 -41.24926960433209,15.311129038186195 z"/><path fill="#ee9d1e" d="M 49.19559054804307,69.31662045014382 l 0.8681574802595837 1.2232344785319496 a 86.5 86.5 0.0 0 1 -41.97719789146738,15.581325432977735 l -0.1402291931243127 -1.4934308733234758 a 85.0 85.0 0.0 0 0 41.249269604332106,-15.311129038186209 z"/><path fill="#1577c9" d="M 7.946320943710907,84.62774948833002 l 0.14022919312431162 1.493430873323471 a 86.5 86.5 0.0 0 1 -44.14398247018619,-7.494775296142416 l 0.6252733930638925 -1.3634636716562625 a 85.0 85.0 0.0 0 0 43.37847988399798,7.364808094475208 z"/><path fill="#172636" d="M 74.20344380590636,-44.45333426576343 l 1.2867649214897054 -0.7708670681924297 a 88.0 88.0 0.0 0 1 12.498330434496623,43.80399847658612 l -1.4998046448049962 0.02420800325062089 a 86.5 86.5 0.0 0 0 -12.285290711181332,-43.057339411644314 z"/><path fill="#000000" d="M -47.517868996799194,-74.06788862930433 l -0.8099636760818045 -1.2625208289085963 a 89.5 89.5 0.0 0 1 44.139906597428855,-14.071555146523533 l 0.07018870517517684 1.4983569486827406 a 88.0 88.0 0.0 0 0 -43.400131626522224,13.835719026749388 z"/><path fill="#ff7d61" d="M 78.18562599958122,40.38573865925456 l 1.3327095340837711 0.6883932726009299 a 89.5 89.5 0.0 0 1 -31.19050286078387,34.256277526357366 l -0.8099636760818072 -1.2625208289085919 a 88.0 88.0 0.0 0 0 30.667757002781904,-33.6821499700497 z"/><path fill="#0db453" d="M -74.06788862930424,47.517868996799336 l -1.262520828908595 0.8099636760818071 a 89.5 89.5 0.0 0 1 -14.071555146523618,-44.139906597429004 l 1.4983569486827406 -0.07018870517517684 a 88.0 88.0 0.0 0 0 13.835719026749473,43.40013162652237 z"/><path fill="#1c70b3" d="M 81.05463714005097,37.952546661517566 l 1.3584576056991786 0.6360762010310205 a 91.0 91.0 0.0 0 1 -30.335572522710933,36.03665220635054 l -0.8584206959841651 -1.230086951685152 a 89.5 89.5 0.0 0 0 29.83553561299592,-35.44264145569641 z"/><path fill="#00df76" d="M -65.21208785279862,63.46954858732551 l -1.0749245250461312 1.0462013503405305 a 92.5 92.5 0.0 0 1 -23.37709925117535,-41.78697773636528 l 1.454012621011131 -0.3685746843454183 a 91.0 91.0 0.0 0 0 22.99801115521035,41.10935107037017 z"/><path fill="#fbd000" d="M 65.21208785279863,-63.4695485873255 l 1.0749245250461312 -1.0462013503405303 a 92.5 92.5 0.0 0 1 23.377099251175377,41.78697773636542 l -1.454012621011131 0.3685746843454183 a 91.0 91.0 0.0 0 0 -22.998011155210378,-41.10935107037031 z"/><path fill="#18e975" d="M -89.44031732774394,-23.594059343666714 l -1.4503835242336856 -0.3826063677351358 a 94.0 94.0 0.0 0 1 24.165377802094014,-42.233086318708274 l 1.0647657933492098 1.0565385962251526 a 92.5 92.5 0.0 0 0 -23.779760071209537,41.55915409021826 z"/><path fill="#1b638a" d="M 65.66055725653452,65.15321343388484 l 1.0647657933492076 1.0565385962251606 a 94.0 94.0 0.0 0 1 -42.04437422801612,24.492236731175403 l -0.39384492800852655 -1.4473721610843313 a 92.5 92.5 0.0 0 0 41.373453362675434,-24.10140316631623 z"/><path fill="#e6d97d" d="M 83.40169592142283,43.36077856116659 l 1.330878126405683 0.6919273174654245 a 95.5 95.5 0.0 0 1 -33.37836533367895,36.464343541621616 l -0.8066106080756512 -1.2646656977003232 a 94.0 94.0 0.0 0 0 32.854097815348915,-35.89160516138672 z"/><path fill="#f7007f" d="M -69.51621827299871,65.48087810209023 l -1.0918777739214458 1.0284954675720976 a 97.0 97.0 0.0 0 1 -23.794995627395444,-44.21461449200547 l 1.4598416238296181 -0.3447643156338671 a 95.5 95.5 0.0 0 0 23.427031777487272,43.530883340067234 z"/><path fill="#207b9f" d="M 29.39356698872177,-92.43926773660382 l 0.4545396957018826 -1.4294732124217089 a 98.5 98.5 0.0 0 1 42.93548243366822,27.50008000812073 l -1.1083795297171406 1.010690268135619 a 97.0 97.0 0.0 0 0 -42.28164259965296,-27.08129706383464 z"/><path fill="#8f0239" d="M -98.31912892194532,5.966480372036524 l -1.4972456181006901 0.09086010718837363 a 100.0 100.0 0.0 0 1 10.344188235091591,-50.71971701486762 l 1.3420827945743241 0.6699356480346452 a 98.5 98.5 0.0 0 0 -10.189025411565225,49.9589212596446 z"/></g></svg>