<?xml version='1.0' encoding='UTF-8'?>
<svg preserveAspectRatio="xMidYMid meet" xmlns="http://www.w3.org/2000/svg" xmlns:svg="http://www.w3.org/2000/svg"><g><circle fill="#000000" r="85.0" cx="0.0" cy="0.0"/><path fill="#00000d" d="M 100.0,0.0 a 100.0 100.0 0.0 1 1 -100.0,-100.0 a 100.0 100.0 0.0 0 1 100.0,100.0 z M 85.0,0.0 a 85.0 85.0 0.0 1 0 -85.0,85.0 a 85.0 85.0 0.0 0 0 85.0,-85.0 z"/><circle fill="#000000" r="85.0" cx="0.0" cy="0.0"/><path fill="#0078a6" d="M 8.789403543214938,84.54434567346607 l 0.10340474756723489 0.9946393608643066 a 86.0 86.0 0.0 0 1 -43.96090291714522,-7.013646835272278 l 0.4077685421670125 -0.9130853278960274 a 85.0 85.0 0.0 0 0 43.449729627410974,6.932092802303998 z"/><path fill="#006f27" d="M 34.6603260841959,-77.6122528711621 l 0.40776854216701053 -0.9130853278960247 a 86.0 86.0 0.0 0 1 34.56443528191305,28.054447791090734 l -0.8096805803287879 0.5868708186972995 a 85.0 85.0 0.0 0 0 -34.162523243751274,-27.72823328189201 z"/><path fill="#008244" d="M -83.79544469441825,-19.347440359507292 l -0.9743656359816076 -0.22497023673845673 a 87.0 87.0 0.0 0 1 21.143206408407924,-39.76269935860276 l 0.7313402749654259 0.6820127581017061 a 86.0 86.0 0.0 0 0 -20.90018104739174,39.30565683723951 z"/><path fill="#28679b" d="M -25.14234749767151,-82.24270400653381 l -0.2923528778799014 -0.9563105117038814 a 87.0 87.0 0.0 0 1 45.007110971797154,-1.5707958121621832 l -0.22497023673845717 0.9743656359816129 a 86.0 86.0 0.0 0 0 -44.4897878571788,1.5527406878844516 z"/><path fill="#da571f" d="M 62.89526364702651,58.653097196746785 l 0.7313402749654245 0.6820127581017068 a 87.0 87.0 0.0 0 1 -38.19190354644052,23.863904563389198 l -0.2923528778799067 -0.9563105117038759 a 86.0 86.0 0.0 0 0 37.752916149355,-23.58960680978703 z"/><path fill="#13cf6e" d="M -58.65309719674678,62.89526364702652 l -0.6820127581017068 0.7313402749654245 a 87.0 87.0 0.0 0 1 -23.863904563389184,-38.19190354644052 l 0.9563105117038759 -0.2923528778798996 a 86.0 86.0 0.0 0 0 23.589606809787014,37.752916149354995 z"/><path fill="#29b870" d="M 68.29417872984735,53.8971720187216 l 0.7849905601131886 0.6195077243531211 a 88.0 88.0 0.0 0 1 -36.51319368406624,27.23573448938881 l -0.37006790461244066 -0.9290047071870902 a 87.0 87.0 0.0 0 0 36.09827102856549,-26.92623750655484 z"/><path fill="#fdfcf8" d="M -79.33234181441806,-40.34079253361708 l -0.891374627128293 -0.45326733183839385 a 90.0 90.0 0.0 0 1 31.144969949895696,-34.64649052230541 l 0.5453194054627843 0.8382283376417803 a 89.0 89.0 0.0 0 0 -30.798914728230187,34.26152951650203 z"/><path fill="#b5a22a" d="M -48.53342708618788,-74.60232205011908 l -0.5453194054627855 -0.8382283376417873 a 90.0 90.0 0.0 0 1 44.29558043786519,-14.43225596934537 l 0.05314628948650579 0.9985867373011814 a 89.0 89.0 0.0 0 0 -43.80340732188891,14.271897569685976 z"/><path fill="#edd80f" d="M -88.71869986403327,-15.132491349265088 l -0.985763331822592 -0.16813879276961172 a 91.0 91.0 0.0 0 1 19.668434306415786,-42.80233585280517 l 0.7696266910927534 0.6384941318114272 a 90.0 90.0 0.0 0 0 -19.452297665685947,42.331980513763355 z"/><path fill="#c8420a" d="M -91.10212723635031,12.821950437115243 l -0.9902405134385903 0.1393690264903832 a 93.0 93.0 0.0 0 1 5.857378052010188,-47.78267141645203 l 0.9272579537395558 0.3744231392779156 a 92.0 92.0 0.0 0 0 -5.794395492311153,47.26887925068373 z"/><path fill="#0b3463" d="M 92.72655185328718,7.1264704727968 l 0.9970596973471739 0.0766287147612558 a 94.0 94.0 0.0 0 1 -16.158132607139372,45.896773470163424 l -0.8251646696116381 -0.5648922623161852 a 93.0 93.0 0.0 0 0 15.986237579403834,-45.408509922608495 z"/><path fill="#275693" d="M -52.53498039540526,76.74031427388334 l -0.5648922623161855 0.825164669611649 a 94.0 94.0 0.0 0 1 -31.668705473331528,-36.94174005058206 l 0.901793384372894 -0.43216743503099053 a 93.0 93.0 0.0 0 0 31.33180435127482,36.5487428160014 z"/><path fill="#36021e" d="M -76.74031427388334,-52.534980395405285 l -0.825164669611649 -0.5648922623161855 a 94.0 94.0 0.0 0 1 36.941740050582055,-31.668705473331528 l 0.43216743503099053 0.901793384372894 a 93.0 93.0 0.0 0 0 -36.54874281600139,31.33180435127482 z"/><path fill="#090502" d="M 0.4330373739984363,-94.99901304030858 l 0.004558288147351839 -0.9999896109506167 a 96.0 96.0 0.0 0 1 47.940874623488035,13.080225448372001 l -0.5039423988086824 0.8637372625300799 a 95.0 95.0 0.0 0 0 -47.441490512826704,-12.943973099951464 z"/><path fill="#847503" d="M 47.874527886825135,-82.05503994035712 l 0.5039423988086855 -0.863737262530075 a 96.0 96.0 0.0 0 1 34.97790257939924,35.298244837261755 l -0.8682955506774164 0.4960472121419315 a 95.0 95.0 0.0 0 0 -34.61354942753051,-34.930554786873614 z"/><path fill="#5eb5e8" d="M -74.99220565336374,59.93470690045626 l -0.7811688088892055 0.6243198635464196 a 97.0 97.0 0.0 0 1 -20.127806134530474,-46.000058389041065 l 0.9886719649152838 -0.15009245747383204 a 96.0 96.0 0.0 0 0 19.920302978504395,45.52583098296848 z"/><path fill="#16e66d" d="M 34.97780173141192,-89.40108157085146 l 0.3643521013688741 -0.9312612663630361 a 97.0 97.0 0.0 0 1 40.43122062947216,29.77331607321181 l -0.7811688088892055 0.6243198635464253 a 96.0 96.0 0.0 0 0 -40.014403921951825,-29.466374670395197 z"/><path fill="#184865" d="M 59.93470690045626,74.99220565336374 l 0.6243198635464196 0.7811688088892056 a 97.0 97.0 0.0 0 1 -46.00005838904124,20.127806134530488 l -0.15009245747382494 -0.9886719649152838 a 96.0 96.0 0.0 0 0 45.52583098296865,-19.92030297850441 z"/><path fill="#009e5f" d="M 14.408875917487636,94.91250863186815 l 0.15009245747382965 0.9886719649152932 a 97.0 97.0 0.0 0 1 -49.901122207742276,-5.568837759568946 l 0.36435210136887264 -0.9312612663630375 a 96.0 96.0 0.0 0 0 49.38667764889957,5.51142706101669 z"/><path fill="#db885c" d="M 89.12241183511865,38.29093507204415 l 0.9187877508775121 0.39475190795921794 a 98.0 98.0 0.0 0 1 -31.406076847300263,39.837700500530524 l -0.5983175789662809 -0.801259055923822 a 97.0 97.0 0.0 0 0 31.08560667538903,-39.43119335256592 z"/><path fill="#346c8f" d="M -89.12241183511865,-38.290935072044164 l -0.918787750877512 -0.39475190795921805 a 98.0 98.0 0.0 0 1 31.406076847300234,-39.83770050053052 l 0.598317578966288 0.801259055923822 a 97.0 97.0 0.0 0 0 -31.08560667538901,39.43119335256591 z"/><path fill="#bb6303" d="M 94.7463195896174,28.707750246616026 l 0.9570335312082563 0.28997727521834443 a 100.0 100.0 0.0 0 1 -27.320681851755158,43.96671772450622 l -0.6838267126907027 -0.729644452463404 a 99.0 99.0 0.0 0 0 27.047475033237603,-43.527050547261155 z"/></g></svg>