<?xml version='1.0' encoding='UTF-8'?>
<svg preserveAspectRatio="xMidYMid meet" xmlns="http://www.w3.org/2000/svg" xmlns:svg="http://www.w3.org/2000/svg"><g><circle fill="#000000" r="50.0" cx="0.0" cy="0.0"/><path fill="#00000d" d="M 100.0,0.0 a 100.0 100.0 0.0 1 1 -100.0,-100.0 a 100.0 100.0 0.0 0 1 100.0,100.0 z M 50.0,0.0 a 50.0 50.0 0.0 1 0 -50.0,50.0 a 50.0 50.0 0.0 0 0 50.0,-50.0 z"/><circle fill="#000000" r="50.0" cx="0.0" cy="0.0"/><path fill="#d78643" d="M -24.35946718472679,-46.03574664961273 l -1.9487573747781466 -3.682859731969022 a 56.25000000000001 56.25000000000001 0.0 0 1 28.383936953298942,-6.49308206537962 l -0.15375647361436862 4.163828773848991 a 52.083333333333336 52.083333333333336 0.0 0 0 -26.281423104906427,6.012113023499651 z"/><path fill="#06aa4b" d="M 24.359467184726714,46.03574664961277 l 1.948757374778143 3.6828597319690237 a 56.25000000000001 56.25000000000001 0.0 0 1 -28.3839369532989,6.493082065379597 l 0.15375647361436862 -4.163828773848991 a 52.083333333333336 52.083333333333336 0.0 0 0 26.281423104906388,-6.01211302349963 z"/><path fill="#53e28b" d="M -27.688392488385606,44.113790729433155 l -2.2150713990708506 3.5291032583546564 a 56.25000000000001 56.25000000000001 0.0 0 1 -19.815142494125297,-21.33466942828288 l 3.6828597319690246 -1.9487573747781468 a 52.083333333333336 52.083333333333336 0.0 0 0 18.347354161227123,19.75432354470637 z"/><path fill="#0fe077" d="M -52.04785967311238,-1.9219559201795353 l -4.163828773848995 -0.15375647361436154 a 56.25000000000001 56.25000000000001 0.0 0 1 8.568794459173514,-27.8277514936625 l 3.5291032583546595 2.2150713990708475 a 52.083333333333336 52.083333333333336 0.0 0 0 -7.934068943679179,25.766436568206014 z"/><path fill="#d65000" d="M 47.78190805517986,36.97381335103872 l 3.2953040038055006 2.549918162140595 a 64.58333333333333 64.58333333333333 0.0 0 1 -26.604914618008852,20.243430059082232 l -1.5788578994178373 -3.855945907887836 a 60.41666666666667 60.41666666666667 0.0 0 0 24.888468513621188,-18.937402313334992 z"/><path fill="#dcac10" d="M 22.89343954155873,55.91121566437369 l 1.5788578994178373 3.8559459078878335 a 64.58333333333333 64.58333333333333 0.0 0 1 -33.16224695425275,4.2288673818943066 l 0.5606419040823347 -4.128776061558433 a 60.41666666666667 60.41666666666667 0.0 0 0 31.022747150752583,-3.956037228223707 z"/><path fill="#5fcffd" d="M -22.89343954155868,-55.911215664373714 l -1.5788578994178368 -3.8559459078878335 a 64.58333333333333 64.58333333333333 0.0 0 1 33.162246954252794,-4.2288673818942994 l -0.5606419040823383 4.128776061558433 a 60.41666666666667 60.41666666666667 0.0 0 0 -31.022747150752622,3.9560372282236997 z"/><path fill="#fbddc9" d="M 22.311444206403532,65.02893169524272 l 1.3522087397820297 3.9411473754692463 a 72.91666666666666 72.91666666666666 0.0 0 1 -37.65536788380634,2.5915879786388234 l 0.7995265678640422 -4.089238117105751 a 68.75 68.75 0.0 0 0 35.50363257616027,-2.443497237002319 z"/><path fill="#ec6b12" d="M -22.31144420640353,-65.02893169524272 l -1.3522087397820302 -3.9411473754692463 a 72.91666666666666 72.91666666666666 0.0 0 1 37.655367883806335,-2.5915879786388234 l -0.7995265678640351 4.089238117105751 a 68.75 68.75 0.0 0 0 -35.50363257616027,2.443497237002319 z"/><path fill="#89b9e5" d="M 69.53499424626911,-33.2674743999165 l 3.758648337636159 -1.7982418594549423 a 81.24999999999999 81.24999999999999 0.0 0 1 7.713371959339356,41.344736468811334 l -4.154205874012547 -0.3220010363815362 a 77.08333333333333 77.08333333333333 0.0 0 0 -7.317814422962968,-39.22449357297486 z"/><path fill="#360021" d="M 76.85280866923208,5.95701917305835 l 4.154205874012535 0.32200103638153116 a 81.24999999999999 81.24999999999999 0.0 0 1 -13.992392168779308,39.662278074433345 l -3.4366473012546237 -2.3559640145575997 a 77.08333333333333 77.08333333333333 0.0 0 0 13.274833596021395,-37.628315096257275 z"/><path fill="#007da3" d="M -66.73354035375819,-53.31642839029797 l -3.255294651402854 -2.600801384892595 a 89.58333333333334 89.58333333333334 0.0 0 1 37.335340797009245,-27.502929221956602 l 1.518767172472181 3.880007395216168 a 85.41666666666666 85.41666666666666 0.0 0 0 -35.59881331807857,26.22372321163303 z"/><path fill="#008edd" d="M -31.13472703567962,-79.54015160193097 l -1.5187671724721852 -3.880007395216163 a 89.58333333333334 89.58333333333334 0.0 0 1 46.084818200137846,-5.150564986195212 l -0.6247127438133049 4.119568557364786 a 85.41666666666666 85.41666666666666 0.0 0 0 -43.94133828385235,4.911003824046588 z"/><path fill="#944918" d="M 84.45115542597753,12.806611248172857 l 4.119568557364777 0.6247127438133125 a 89.58333333333334 89.58333333333334 0.0 0 1 -18.581888978181272,42.48590578320441 l -3.2552946514028633 -2.6008013848925984 a 85.41666666666666 85.41666666666666 0.0 0 0 17.71761507221936,-40.50981714212512 z"/><path fill="#590040" d="M 31.13472703567963,79.54015160193097 l 1.5187671724721847 3.880007395216163 a 89.58333333333334 89.58333333333334 0.0 0 1 -46.08481820013801,5.150564986195183 l 0.6247127438133191 -4.119568557364786 a 85.41666666666666 85.41666666666666 0.0 0 0 43.9413382838525,-4.91100382404656 z"/><path fill="#ead227" d="M -53.31642839029795,66.73354035375819 l -2.6008013848925953 3.255294651402854 a 89.58333333333334 89.58333333333334 0.0 0 1 -27.502929221956595,-37.335340797009245 l 3.880007395216168 -1.518767172472181 a 85.41666666666666 85.41666666666666 0.0 0 0 26.223723211633022,35.59881331807857 z"/><path fill="#6d0029" d="M -79.54015160193097,31.134727035679635 l -3.880007395216163 1.518767172472185 a 89.58333333333334 89.58333333333334 0.0 0 1 -5.150564986195183,-46.084818200138 l 4.119568557364786 0.624712743813312 a 85.41666666666666 85.41666666666666 0.0 0 0 4.91100382404656,43.9413382838525 z"/><path fill="#266585" d="M -12.116050565531781,-92.96377691710614 l -0.5384911362458562 -4.131723418538042 a 97.91666666666667 97.91666666666667 0.0 0 1 50.24313728261077,6.681059600927026 l -1.5995147055673584 3.847423009987949 a 93.75000000000001 93.75000000000001 0.0 0 0 -48.10513144079755,-6.396759192376933 z"/><path fill="#2889b0" d="M 86.5670177247292,35.989080875265834 l 3.8474230099879563 1.5995147055673626 a 97.91666666666667 97.91666666666667 0.0 0 1 -30.907535979906136,40.17130345210647 l -2.5322087129706787 -3.3089318737420967 a 93.75000000000001 93.75000000000001 0.0 0 0 29.59232168288886,-38.46188628393174 z"/><path fill="#ff82ca" d="M 56.974696041840375,74.45096715919748 l 2.532208712970677 3.3089318737421025 a 97.91666666666667 97.91666666666667 0.0 0 1 -46.85236305303341,19.335601302704596 l -0.5384911362458595 -4.13172341853803 a 93.75000000000001 93.75000000000001 0.0 0 0 44.85864547630859,-18.51280975790867 z"/><path fill="#cab318" d="M -74.45096715919748,56.97469604184038 l -3.3089318737421025 2.5322087129706774 a 97.91666666666667 97.91666666666667 0.0 0 1 -19.335601302704596,-46.852363053033415 l 4.13172341853803 -0.5384911362458595 a 93.75000000000001 93.75000000000001 0.0 0 0 18.51280975790867,44.858645476308595 z"/><path fill="#10ff83" d="M -92.96377691710614,12.116050565531797 l -4.131723418538042 0.538491136245856 a 97.91666666666667 97.91666666666667 0.0 0 1 6.681059600926983,-50.24313728261069 l 3.8474230099879634 1.5995147055673655 a 93.75000000000001 93.75000000000001 0.0 0 0 -6.396759192376905,48.105131440797464 z"/><path fill="#00be75" d="M -56.97469604184036,-74.45096715919749 l -2.5322087129706774 -3.3089318737421016 a 97.91666666666667 97.91666666666667 0.0 0 1 46.85236305303341,-19.335601302704614 l 0.5384911362458595 4.13172341853803 a 93.75000000000001 93.75000000000001 0.0 0 0 -44.85864547630859,18.512809757908684 z"/></g></svg>