<svg viewBox="100.0 300.0 200.00000000000006 200.0" preserveAspectRatio="xMidYMid meet" xmlns="http://www.w3.org/2000/svg" xmlns:svg="http://www.w3.org/2000/svg" style="width: 100%; height: 100%;"><g transform="translate(100.0, 300.0)"><circle fill="#ca1e3f" r="11.107385176829709" cx="100.0" cy="100.0"></circle><path fill="#19041b" d="M 112.7794369970342,100.0 a 12.779436997034194 12.779436997034194 0.0 1 1 -12.779436997034194,-12.779436997034194 a 12.779436997034194 12.779436997034194 0.0 0 1 12.779436997034194,12.779436997034194 z M 111.10738517682971,100.0 a 11.107385176829709 11.107385176829709 0.0 1 0 -11.107385176829709,11.107385176829709 a 11.107385176829709 11.107385176829709 0.0 0 0 11.107385176829709,-11.107385176829709 z"></path><path fill="#ffffff" d="M 117.54707816123275,100.0 a 17.54707816123275 17.54707816123275 0.0 1 1 -17.54707816123275,-17.54707816123275 a 17.54707816123275 17.54707816123275 0.0 0 1 17.54707816123275,17.54707816123275 z M 112.7794369970342,100.0 a 12.779436997034194 12.779436997034194 0.0 1 0 -12.779436997034194,12.779436997034194 a 12.779436997034194 12.779436997034194 0.0 0 0 12.779436997034194,-12.779436997034194 z"></path><path fill="#e2602a" d="M 121.99455771675616,100.0 a 21.994557716756162 21.994557716756162 0.0 1 1 -21.994557716756162,-21.994557716756162 a 21.994557716756162 21.994557716756162 0.0 0 1 21.994557716756162,21.994557716756162 z M 117.54707816123275,100.0 a 17.54707816123275 17.54707816123275 0.0 1 0 -17.54707816123275,17.54707816123275 a 17.54707816123275 17.54707816123275 0.0 0 0 17.54707816123275,-17.54707816123275 z"></path><path fill="#ec7d97" d="M 122.73889923550105,100.0 a 22.73889923550105 22.73889923550105 0.0 1 1 -22.73889923550105,-22.73889923550105 a 22.73889923550105 22.73889923550105 0.0 0 1 22.73889923550105,22.73889923550105 z M 121.99455771675616,100.0 a 21.994557716756162 21.994557716756162 0.0 1 0 -21.994557716756162,21.994557716756162 a 21.994557716756162 21.994557716756162 0.0 0 0 21.994557716756162,-21.994557716756162 z"></path><path fill="#ca1e3f" d="M 123.00205098365261,100.0 a 23.00205098365261 23.00205098365261 0.0 1 1 -23.00205098365261,-23.00205098365261 a 23.00205098365261 23.00205098365261 0.0 0 1 23.00205098365261,23.00205098365261 z M 122.73889923550105,100.0 a 22.73889923550105 22.73889923550105 0.0 1 0 -22.73889923550105,22.73889923550105 a 22.73889923550105 22.73889923550105 0.0 0 0 22.73889923550105,-22.73889923550105 z"></path><path fill="#19041b" d="M 127.83889254674605,100.0 a 27.838892546746045 27.838892546746045 0.0 1 1 -27.838892546746045,-27.838892546746045 a 27.838892546746045 27.838892546746045 0.0 0 1 27.838892546746045,27.838892546746045 z M 123.00205098365262,100.0 a 23.00205098365261 23.00205098365261 0.0 1 0 -23.00205098365261,23.00205098365261 a 23.00205098365261 23.00205098365261 0.0 0 0 23.00205098365261,-23.00205098365261 z"></path><path fill="#ffffff" d="M 134.91218109320175,100.0 a 34.91218109320175 34.91218109320175 0.0 1 1 -34.91218109320175,-34.91218109320175 a 34.91218109320175 34.91218109320175 0.0 0 1 34.91218109320175,34.91218109320175 z M 127.83889254674605,100.0 a 27.838892546746045 27.838892546746045 0.0 1 0 -27.838892546746045,27.838892546746045 a 27.838892546746045 27.838892546746045 0.0 0 0 27.838892546746045,-27.838892546746045 z"></path><path fill="#e2602a" d="M 135.6811798303647,100.0 a 35.681179830364705 35.681179830364705 0.0 1 1 -35.681179830364705,-35.681179830364705 a 35.681179830364705 35.681179830364705 0.0 0 1 35.681179830364705,35.681179830364705 z M 134.91218109320175,100.0 a 34.91218109320175 34.91218109320175 0.0 1 0 -34.91218109320175,34.91218109320175 a 34.91218109320175 34.91218109320175 0.0 0 0 34.91218109320175,-34.91218109320175 z"></path><path fill="#ec7d97" d="M 138.76564260831603,100.0 a 38.76564260831603 38.76564260831603 0.0 1 1 -38.76564260831603,-38.76564260831603 a 38.76564260831603 38.76564260831603 0.0 0 1 38.76564260831603,38.76564260831603 z M 135.6811798303647,100.0 a 35.681179830364705 35.681179830364705 0.0 1 0 -35.681179830364705,35.681179830364705 a 35.681179830364705 35.681179830364705 0.0 0 0 35.681179830364705,-35.681179830364705 z"></path><path fill="#ca1e3f" d="M 147.8038802362837,100.0 a 47.80388023628372 47.80388023628372 0.0 1 1 -47.80388023628372,-47.80388023628372 a 47.80388023628372 47.80388023628372 0.0 0 1 47.80388023628372,47.80388023628372 z M 138.765642608316,100.0 a 38.76564260831603 38.76564260831603 0.0 1 0 -38.76564260831603,38.76564260831603 a 38.76564260831603 38.76564260831603 0.0 0 0 38.76564260831603,-38.76564260831603 z"></path><path fill="#19041b" d="M 149.57814412080504,100.0 a 49.57814412080504 49.57814412080504 0.0 1 1 -49.57814412080504,-49.57814412080504 a 49.57814412080504 49.57814412080504 0.0 0 1 49.57814412080504,49.57814412080504 z M 147.8038802362837,100.0 a 47.80388023628372 47.80388023628372 0.0 1 0 -47.80388023628372,47.80388023628372 a 47.80388023628372 47.80388023628372 0.0 0 0 47.80388023628372,-47.80388023628372 z"></path><path fill="#ffffff" d="M 161.88236798229468,100.0 a 61.88236798229468 61.88236798229468 0.0 1 1 -61.88236798229468,-61.88236798229468 a 61.88236798229468 61.88236798229468 0.0 0 1 61.88236798229468,61.88236798229468 z M 149.57814412080504,100.0 a 49.57814412080504 49.57814412080504 0.0 1 0 -49.57814412080504,49.57814412080504 a 49.57814412080504 49.57814412080504 0.0 0 0 49.57814412080504,-49.57814412080504 z"></path><path fill="#e2602a" d="M 176.0875534462183,100.0 a 76.0875534462183 76.0875534462183 0.0 1 1 -76.0875534462183,-76.0875534462183 a 76.0875534462183 76.0875534462183 0.0 0 1 76.0875534462183,76.0875534462183 z M 161.88236798229468,100.0 a 61.88236798229468 61.88236798229468 0.0 1 0 -61.88236798229468,61.88236798229468 a 61.88236798229468 61.88236798229468 0.0 0 0 61.88236798229468,-61.88236798229468 z"></path><path fill="#ec7d97" d="M 178.90021703883139,100.0 a 78.90021703883139 78.90021703883139 0.0 1 1 -78.90021703883139,-78.90021703883139 a 78.90021703883139 78.90021703883139 0.0 0 1 78.90021703883139,78.90021703883139 z M 176.0875534462183,100.0 a 76.0875534462183 76.0875534462183 0.0 1 0 -76.0875534462183,76.0875534462183 a 76.0875534462183 76.0875534462183 0.0 0 0 76.0875534462183,-76.0875534462183 z"></path><path fill="#ca1e3f" d="M 200.00000000000003,100.0 a 100.00000000000003 100.00000000000003 0.0 1 1 -100.00000000000003,-100.00000000000003 a 100.00000000000003 100.00000000000003 0.0 0 1 100.00000000000003,100.00000000000003 z M 178.90021703883139,100.0 a 78.90021703883139 78.90021703883139 0.0 1 0 -78.90021703883139,78.90021703883139 a 78.90021703883139 78.90021703883139 0.0 0 0 78.90021703883139,-78.90021703883139 z"></path></g></svg>
