<?xml version='1.0' encoding='UTF-8'?>
<svg viewBox="-246.45193769508 -384.9283339228306 1212.2326419942408 1258.7063437962706" preserveAspectRatio="xMidYMid meet" xmlns="http://www.w3.org/2000/svg" xmlns:svg="http://www.w3.org/2000/svg"><g transform="translate(0.0, 0.0)"><rect x="0.0" y="0.0" width="100.0" height="100.0" transform="rotate(0.0, 0.0, 0.0)"/><path d="M 100.0,7.4074074074074066 l -1.360718665719281E-15 -7.4074074074074066 a 200.00000000000006 200.00000000000006 0.0 0 0 167.05066656669283,-309.9730639730641 l 6.187061724692313 -4.073076443446837 a 207.40740740740745 207.40740740740745 0.0 0 1 -173.23772829138514,321.4535478239183 z"/><path d="M 100.0,40.74074074074075 l -6.123233995736766E-15 -33.333333333333336 a 464.46208112874785 464.46208112874785 0.0 0 0 343.3442908010447,-151.66866243075938 l 24.640999036034714 22.44843597262951 a 497.7954144620812 497.7954144620812 0.0 0 1 -367.9852898370794,162.55355979146321 z"/><path d="M 100.0,100.0 l -1.0885749325754248E-14 -59.25925925925925 a 259.2592592592593 259.2592592592593 0.0 0 1 238.73699235734287,360.35333421832826 l -54.568455395964065 -23.10721713350148 a 200.00000000000003 200.00000000000003 0.0 0 0 -184.1685369613788,-277.98685782556754 z"/><path d="M 267.50896743518854,-310.2747733392453 l -0.4583008684957247 0.3017093661812472 a 14.814814814814772 14.814814814814772 0.0 0 0 -25.982326146482258,2.289911997726088 l -0.5040075072999137 -0.21689781070991065 a 15.36351165980791 15.36351165980791 0.0 0 1 26.944634522277898,-2.3747235531974247 z"/><path d="M 269.5713213434193,-311.6324654870609 l -2.0623539082307616 1.3576921478156125 a 34.40459860212937 34.40459860212937 0.0 0 0 -23.36850919014321,-15.065342638509453 l 0.3852518626879231 -2.438895777463717 a 36.873734404598494 36.873734404598494 0.0 0 1 25.04561123568605,16.146546268157557 z"/><path d="M 273.2377282913851,-314.0461404165109 l -3.6664069479657977 2.4136749294499777 a 19.20438957475989 19.20438957475989 0.0 0 1 12.571343017574243,-29.44827184604468 l 0.7929571153773995 4.317358635360236 a 14.814814814814772 14.814814814814772 0.0 0 0 -9.697893184985844,22.717238281234465 z"/><path d="M 445.1695499888991,-142.5984079142683 l -1.8252591878544235 -1.6628471090836667 a 66.66666666666664 66.66666666666664 0.0 0 0 -38.880197779495134,-110.74705793677948 l 0.3852518626879373 -2.4388957774637277 a 69.13580246913578 69.13580246913578 0.0 0 1 40.32020510466162,114.84880082332688 z"/><path d="M 453.383216334244,-135.1155959233918 l -8.213666345344908 -7.482811990876502 a 154.82069370958257 154.82069370958257 0.0 0 0 39.70274963862127,-118.65070596287825 l 11.063037783241022 -1.0324655587661766 a 165.93180482069366 165.93180482069366 0.0 0 1 -42.55212107651739,127.16598351252092 z"/><path d="M 467.9852898370794,-121.81281905072245 l -14.602073502835388 -13.302776872669334 a 86.41975308641975 86.41975308641975 0.0 0 1 142.38738248337677,22.06650752180589 l -17.943613921936432 8.259003724827984 a 66.66666666666666 66.66666666666666 0.0 0 0 -109.84169505860494,-17.02273437396454 z"/><path d="M 334.6948845502344,399.3824292454763 l 4.04210780710845 1.7116457135927021 a 118.51851851851853 118.51851851851853 0.0 0 0 130.54675290711742,162.78311742172977 l 0.7929571153773907 4.31735863536025 a 122.90809327846367 122.90809327846367 0.0 0 1 -135.38181782960325,-168.81212177068272 z"/><path d="M 316.5053994182464,391.68002353430916 l 18.189485131988025 7.70240571116716 a 275.23678881703574 275.23678881703574 0.0 0 0 3.4259356173060915,222.40408333171024 l -17.94361392193644 8.259003724828005 a 294.98987523678886 294.98987523678886 0.0 0 1 -3.6718068273576776,-238.3654927677054 z"/><path d="M 284.1685369613788,377.98685782556754 l 32.3368624568676 13.693165708741617 a 153.63511659807955 153.63511659807955 0.0 0 1 -251.8047236527998,47.00746180254137 l 25.218502949486634 -24.437728406465368 a 118.51851851851852 118.51851851851852 0.0 0 0 194.24935824644555,-36.26289910481762 z"/><path d="M 241.03100653078096,-307.699218479835 l 0.037333889429623505 0.016066504497029257 a 1.0973936899862726 1.0973936899862726 0.0 0 0 1.1999582744723756,1.514272690038643 l 0.007109009624908902 0.040017669208105566 a 1.138037900726505 1.138037900726505 0.0 0 1 -1.244401173526908,-1.5703568637437777 z"/><path d="M 240.86300402834763,-307.77151775007167 l 0.16800250243330583 0.07229927023663167 a 2.5484887853429 2.5484887853429 0.0 0 0 0.019715194927514945,2.0594470098682236 l -0.16658759001967366 0.07550231885206937 a 2.7313877336739454 2.7313877336739454 0.0 0 1 -0.02113010734114712,-2.207248598956925 z"/><path d="M 240.56433291291066,-307.9000497860479 l 0.29867111543698804 0.12853203597623405 a 1.422547375908131 1.422547375908131 0.0 0 1 -2.334023167043662,0.4216538714433731 l 0.23481989417299176 -0.22491006373471933 a 1.0973936899862724 1.0973936899862724 0.0 0 0 1.8005321574336823,-0.3252758436848878 z"/><path d="M 244.16899542005922,-325.52077492423354 l -0.028537175013921265 0.18065894647879255 a 4.938271604938225 4.938271604938225 0.0 0 0 -5.268368655907134,6.916354163933113 l -0.1665875900196765 0.07550231885206315 a 5.121170553269271 5.121170553269271 0.0 0 1 5.463493420940732,-7.172515429263969 z"/><path d="M 244.29741270762187,-326.3337401833881 l -0.12841728756264573 0.8129652591545666 a 11.468199534043048 11.468199534043048 0.0 0 0 -8.958115757637744,2.3763003280157466 l -0.514485267285858 -0.6424238648143437 a 12.291244801532752 12.291244801532752 0.0 0 1 9.601018312486248,-2.5468417223559694 z"/><path d="M 244.52571010773323,-327.77901175521845 l -0.22829740011137012 1.4452715718303404 a 6.40146319158659 6.40146319158659 0.0 0 1 -4.434278493512872,-9.708380962182282 l 1.2418467700571694 0.7737869338113237 a 4.938271604938226 4.938271604938226 0.0 0 0 3.420729123567073,7.489322456540617 z"/><path d="M 282.2014019250956,-340.7609329897456 l -0.0587375641020312 -0.3198043433600164 a 8.779149519890218 8.779149519890218 0.0 0 0 4.754222911916106,-14.707288991557746 l 0.23481989417299776 -0.22491006373471478 a 9.104303205812077 9.104303205812077 0.0 0 1 -4.930305241987072,15.252003398652477 z"/><path d="M 282.4657209635547,-339.32181344462555 l -0.26431903845914045 -1.439119545120074 a 20.387910282743285 20.387910282743285 0.0 0 0 13.620736937372746,-9.27065307873876 l 1.241846770057185 0.7737869338113121 a 21.851101869391655 21.851101869391655 0.0 0 1 -14.59826466897079,9.935985690047522 z"/><path d="M 282.93562147637095,-336.7633786977454 l -0.4699005128162496 -2.558434746880131 a 11.380379007265097 11.380379007265097 0.0 0 1 13.164579559523023,13.664663824747876 l -2.5391462436461563 -0.5649169844908108 a 8.779149519890217 8.779149519890217 0.0 0 0 -10.155532803060618,-10.541312093376934 z"/><path d="M 404.4926301965635,-255.1889719066102 l -0.028537175013921265 0.18065894647879466 a 4.938271604938282 4.938271604938282 0.0 0 0 -5.268368655907181,6.916354163933201 l -0.16658759001967827 0.07550231885206493 a 5.121170553269329 5.121170553269329 0.0 0 1 5.463493420940781,-7.172515429264061 z"/><path d="M 404.6210474841261,-256.0019371657648 l -0.12841728756264573 0.8129652591545761 a 11.46819953404318 11.46819953404318 0.0 0 0 -8.95811575763784,2.376300328015792 l -0.5144852672858651 -0.6424238648143503 a 12.291244801532894 12.291244801532894 0.0 0 1 9.601018312486351,-2.546841722356018 z"/><path d="M 404.8493448842375,-257.44720873759513 l -0.22829740011137012 1.4452715718303573 a 6.401463191586662 6.401463191586662 0.0 0 1 -4.43427849351294,-9.708380962182385 l 1.241846770057185 0.7737869338113308 a 4.938271604938282 4.938271604938282 0.0 0 0 3.420729123567125,7.489322456540697 z"/><path d="M 485.6917839077605,-261.32559280742555 l -0.8194842802400772 0.07647893027897461 a 22.222222222222264 22.222222222222264 0.0 0 0 -36.017177783200395,-15.28051323245517 l -0.5144852672858633 -0.6424238648143508 a 23.045267489711975 23.045267489711975 0.0 0 1 37.351147330726334,15.846458166990546 z"/><path d="M 489.37946316884086,-261.6697479936809 l -3.687679261080348 0.3441551862553858 a 51.606897903194294 51.606897903194294 0.0 0 0 -20.324072980561915,-36.418381914881685 l 2.2290691250157195 -2.957815403423652 a 55.310601606898004 55.310601606898004 0.0 0 1 21.782683116626544,39.03204213204995 z"/><path d="M 495.93533741076146,-262.2815794359127 l -6.555874241920618 0.6118314422317969 a 28.80658436213997 28.80658436213997 0.0 0 1 37.40114829561877,-30.132087732735858 l -1.9929596542208152 6.2755028966792565 a 22.22222222222226 22.22222222222226 0.0 0 0 -28.852314399477333,23.244753393824805 z"/><path d="M 594.4414422308107,-112.43731034789494 l 1.329156586810103 -0.6117780536909607 a 39.50617283950607 39.50617283950607 0.0 0 0 69.41709063541661,4.374239763249891 l 1.2418467700571796 0.7737869338113272 a 40.96936442615445 40.96936442615445 0.0 0 1 -71.9880939922839,-4.536248643370258 z"/><path d="M 588.4602375901652,-109.68430910628561 l 5.981204640645465 -2.753001241609324 a 91.74559627234501 91.74559627234501 0.0 0 0 55.571656993382895,49.08205348479685 l -1.9929596542207975 6.275502896679235 a 98.3299584122627 98.3299584122627 0.0 0 1 -59.55990197980756,-52.60455513986676 z"/><path d="M 577.8269848956844,-104.79008467675791 l 10.633252694480824 -4.894224429527686 a 51.21170553269306 51.21170553269306 0.0 0 1 -44.94311395562673,72.5996394930779 l -0.36054093319472 -11.699978883175831 a 39.50617283950608 39.50617283950608 0.0 0 0 34.670402194340625,-56.00543618037439 z"/><path d="M 469.34248282856237,564.1969967241588 l -0.058737564102026706 -0.31980434336002067 a 8.779149519890309 8.779149519890309 0.0 0 0 4.754222911916389,-14.707288991557823 l 0.23481989417300397 -0.224910063734713 a 9.10430320581217 9.10430320581217 0.0 0 1 -4.930305241987366,15.252003398652556 z"/><path d="M 469.6068018670215,565.6361162692789 l -0.2643190384591202 -1.439119545120093 a 20.387910282743498 20.387910282743498 0.0 0 0 13.620736937373035,-9.270653078738638 l 1.241846770057185 0.7737869338113388 a 21.851101869391883 21.851101869391883 0.0 0 1 -14.5982646689711,9.935985690047392 z"/><path d="M 470.0767023798377,568.194551016159 l -0.46990051281621364 -2.5584347468801654 a 11.380379007265214 11.380379007265214 0.0 0 1 13.164579559522942,13.664663824748228 l -2.5391462436461723 -0.564916984490857 a 8.779149519890309 8.779149519890309 0.0 0 0 -10.155532803060556,-10.541312093377206 z"/><path d="M 336.7916635807304,622.3982906308776 l 1.3291565868101067 -0.6117780536909683 a 39.506172839506256 39.506172839506256 0.0 0 0 69.41709063541695,4.374239763249668 l 1.2418467700571938 0.7737869338113263 a 40.969364426154634 40.969364426154634 0.0 0 1 -71.98809399228425,-4.536248643370026 z"/><path d="M 330.8104589400849,625.1512918724869 l 5.9812046406454815 -2.7530012416093577 a 91.74559627234544 91.74559627234544 0.0 0 0 55.57165699338332,49.08205348479689 l -1.9929596542207832 6.275502896679271 a 98.32995841226315 98.32995841226315 0.0 0 1 -59.55990197980802,-52.604555139866804 z"/><path d="M 320.17720624560405,630.0455163020147 l 10.633252694480854 -4.894224429527746 a 51.211705532693294 51.211705532693294 0.0 0 1 -44.943113955626664,72.5996394930784 l -0.36054093319476266 -11.699978883175888 a 39.506172839506256 39.506172839506256 0.0 0 0 34.670402194340575,-56.00543618037476 z"/><path d="M 66.56871302096411,436.8772832326679 l -1.8680372555175278 1.810202104182618 a 70.23319615912206 70.23319615912206 0.0 0 0 -118.99395447741963,33.62269823167796 l -2.539146243646158 -0.5649169844908428 a 72.83442564649695 72.83442564649695 0.0 0 1 123.40113797658331,-34.86798335136973 z"/><path d="M 74.974880670793,428.7313737638461 l -8.406167649828877 8.145909468821783 a 163.103282261947 163.103282261947 0.0 0 0 -122.15411139361181,-49.52191430000768 l -0.36054093319472713 -11.69997888317586 a 174.808814955134 174.808814955134 0.0 0 1 130.9208199766354,53.075983714361755 z"/><path d="M 89.91917871493322,414.24975693038516 l -14.944298044140222 14.481616833460944 a 91.04303205812118 91.04303205812118 0.0 0 1 32.53381842037115,-148.26806457906957 l 7.507996690912531 19.408226498897804 a 70.23319615912206 70.23319615912206 0.0 0 0 -25.097517067143453,114.37822124671082 z"/><path d="M 242.2688252879885,-306.16591501350615 l -5.265933055490545E-4 -0.002964271793193465 a 0.08128842148047785 0.08128842148047785 0.0 0 0 0.04481376820412445,-0.1359196433396957 l 0.002186362498294403 -0.002069789071239697 a 0.08429910375753258 0.08429910375753258 0.0 0 1 -0.046473537396869796,0.14095370420412887 z"/><path d="M 242.2711949578635,-306.1525757904368 l -0.0023696698749707456 -0.013339223069370595 a 0.18877694706246773 0.18877694706246773 0.0 0 0 0.12661624272752112,-0.08510264230354189 l 0.011456614957750882 0.0072316098567754145 a 0.20232501730921404 0.20232501730921404 0.0 0 1 -0.13570318781030125,0.09121025551613707 z"/><path d="M 242.27540770430787,-306.1288616160912 l -0.004212746444392436 -0.02371417434554772 a 0.10537387969691574 0.10537387969691574 0.0 0 1 0.12115453309222968,0.12723316950298263 l -0.023479718262402915 -0.005367692969419732 a 0.08128842148047787 0.08128842148047787 0.0 0 0 -0.09346206838543432,-0.09815130218801518 z"/><path d="M 241.03838190422553,-305.63417870560744 l 0.012339821482938801 -0.00559276435941077 a 0.36579789666207135 0.36579789666207135 0.0 0 0 0.6425037838985207,0.04424882842885713 l 0.011456614957747191 0.0072316098567758585 a 0.3793459669088148 0.3793459669088148 0.0 0 1 -0.6663002203392067,-0.045887673926222214 z"/><path d="M 240.9828527075523,-305.6090112659901 l 0.05552919667322461 -0.02516743961734847 a 0.8494962617809214 0.8494962617809214 0.0 0 0 0.5118940707593751,0.4574556224084967 l -0.018791782823396774 0.05799793615625326 a 0.9104625778912667 0.9104625778912667 0.0 0 1 -0.548631484609203,-0.4902861189474015 z"/><path d="M 240.88413413568878,-305.5642691511148 l 0.09871857186351041 -0.04474211487528616 a 0.4741824586360185 0.4741824586360185 0.0 0 1 -0.4200519698424295,0.6697813254490493 l -0.00270669304238369 -0.10835075951306794 a 0.3657978966620714 0.3657978966620714 0.0 0 0 0.32404009102130277,-0.5166884510606953 z"/><path d="M 238.546374927539,-307.3665238833494 l -0.017394066235037073 0.016660004721091824 a 0.6503073718437578 0.6503073718437578 0.0 0 0 -1.1035921814308123,0.30489241729514344 l -0.023479718262400473 -0.005367692969419857 a 0.6743928300601931 0.6743928300601931 0.0 0 1 1.14446596592825,-0.3161847290468154 z"/><path d="M 238.62464822559667,-307.4414939045943 l -0.07827329805766683 0.07497002124491321 a 1.5102155764995906 1.5102155764995906 0.0 0 0 -1.1283640558837338,-0.4651226149694044 l -0.002706693042399788 -0.1083507595130801 a 1.61860013847355 1.61860013847355 0.0 0 1 1.2093440469838004,0.4985033532375713 z"/><path d="M 238.76380075547698,-307.57477394236304 l -0.13915252988029658 0.1332800377687346 a 0.8429910375752413 0.8429910375752413 0.0 0 1 0.3092377963910569,-1.3710728664660181 l 0.06846960499091215 0.1801080459949267 a 0.6503073718437576 0.6503073718437576 0.0 0 0 -0.23855487150167248,1.0576847827023568 z"/><path d="M 238.85974976765525,-318.4181690494622 l 0.012339821482938801 -0.00559276435941077 a 0.36579789666207135 0.36579789666207135 0.0 0 0 0.6425037838985207,0.04424882842885713 l 0.011456614957747191 0.0072316098567758585 a 0.3793459669088148 0.3793459669088148 0.0 0 1 -0.6663002203392067,-0.045887673926222214 z"/><path d="M 238.804220570982,-318.3930016098449 l 0.05552919667322461 -0.02516743961734847 a 0.8494962617809214 0.8494962617809214 0.0 0 0 0.5118940707593751,0.4574556224084967 l -0.018791782823396774 0.05799793615625326 a 0.9104625778912667 0.9104625778912667 0.0 0 1 -0.548631484609203,-0.4902861189474015 z"/><path d="M 238.7055019991185,-318.34825949496957 l 0.09871857186351041 -0.04474211487528616 a 0.4741824586360185 0.4741824586360185 0.0 0 1 -0.4200519698424295,0.6697813254490493 l -0.00270669304238369 -0.10835075951306794 a 0.3657978966620714 0.3657978966620714 0.0 0 0 0.32404009102130277,-0.5166884510606953 z"/><path d="M 235.1727696426225,-323.19206154916697 l 0.03811001979895283 0.047586952949211954 a 1.646090534979443 1.646090534979443 0.0 0 0 0.5215923983400989,2.8507920058477167 l -0.018791782823393555 0.05799793615625903 a 1.7070568510897925 1.7070568510897925 0.0 0 1 -0.5409106353156581,-2.9563768949531877 z"/><path d="M 235.00127455352722,-323.40620283743846 l 0.17149508909528777 0.21414128827145382 a 3.8227331780144294 3.8227331780144294 0.0 0 0 -1.4254127392877463,2.7408114751384374 l -0.2737935541514427 -0.017439800213293832 a 4.097081600511003 4.097081600511003 0.0 0 1 1.5277112043439012,-2.9375129631965975 z"/><path d="M 234.6963943951356,-323.78689846103214 l 0.30488015839162264 0.38069562359369563 a 2.133821063862241 2.133821063862241 0.0 0 1 -3.3876682277702947,-1.0867291634328908 l 0.46944400795587304 -0.13230038623760643 a 1.646090534979443 1.646090534979443 0.0 0 0 2.613344061422799,0.8383339260768016 z"/><path d="M 239.95512286374287,-335.9848035949177 l -0.09198864963386516 -0.05731755065269054 a 2.9263831732967422 2.9263831732967422 0.0 0 0 -2.556774252258982,-4.473044374475644 l -0.002706693042393571 -0.10835075951307438 a 3.034767735270696 3.034767735270696 0.0 0 1 2.6514695949352407,4.638712684641409 z"/><path d="M 240.36907178709527,-335.7268746169806 l -0.4139489233523933 -0.2579289779371075 a 6.79597009424777 6.79597009424777 0.0 0 0 0.7732608746203234,-5.437402278064122 l 0.4694440079558644 -0.13230038623761065 a 7.283700623130561 7.283700623130561 0.0 0 1 -0.8287559592237945,5.82763164223884 z"/><path d="M 241.1049809841662,-335.26833421175905 l -0.7359091970709213 -0.45854040522152434 a 3.79345966908837 3.79345966908837 0.0 0 1 6.322351894818917,-0.17638061278644906 l -0.7091998074591173 0.4988559738584262 a 2.9263831732967427 2.9263831732967427 0.0 0 0 -4.877242890288879,0.13606504414954718 z"/><path d="M 286.9142813391447,-355.8046863293844 l -0.017394066235034967 0.01666000472109182 a 0.6503073718437165 0.6503073718437165 0.0 0 0 -1.1035921814307241,0.3048924172951908 l -0.02347971826239914 -0.005367692969418081 a 0.6743928300601505 0.6743928300601505 0.0 0 1 1.1444659659281582,-0.3161847290468645 z"/><path d="M 286.9925546372023,-355.8796563506294 l -0.07827329805765737 0.0749700212449132 a 1.5102155764994951 1.5102155764994951 0.0 0 0 -1.1283640558836905,-0.4651226149693069 l -0.0027066930424062274 -0.10835075951307305 a 1.6186001384734479 1.6186001384734479 0.0 0 1 1.2093440469837542,0.49850335323746675 z"/><path d="M 287.1317071670826,-356.0129363883981 l -0.13915252988027974 0.13328003776873457 a 0.842991037575188 0.842991037575188 0.0 0 1 0.3092377963909546,-1.3710728664659502 l 0.0684696049909187 0.18010804599491115 a 0.6503073718437166 0.6503073718437166 0.0 0 0 -0.2385548715015936,1.0576847827023044 z"/><path d="M 295.9141275121022,-349.9742685178317 l -0.09198864963386516 -0.05731755065269054 a 2.9263831732967422 2.9263831732967422 0.0 0 0 -2.556774252258982,-4.473044374475644 l -0.002706693042393571 -0.10835075951307438 a 3.034767735270696 3.034767735270696 0.0 0 1 2.6514695949352407,4.638712684641409 z"/><path d="M 296.3280764354546,-349.7163395398946 l -0.4139489233523933 -0.2579289779371075 a 6.79597009424777 6.79597009424777 0.0 0 0 0.7732608746203234,-5.437402278064122 l 0.4694440079558644 -0.13230038623761065 a 7.283700623130561 7.283700623130561 0.0 0 1 -0.8287559592237945,5.82763164223884 z"/><path d="M 297.0639856325255,-349.25779913467306 l -0.7359091970709213 -0.45854040522152434 a 3.79345966908837 3.79345966908837 0.0 0 1 6.322351894818917,-0.17638061278644906 l -0.7091998074591173 0.4988559738584262 a 2.9263831732967427 2.9263831732967427 0.0 0 0 -4.877242890288879,0.13606504414954718 z"/><path d="M 295.44221561614097,-325.69899532243255 l 0.18808490693675142 0.04184570255487562 a 5.202458974749739 5.202458974749739 0.0 0 0 6.926971822046539,5.992751210844459 l 0.06846960499089771 0.18010804599491959 a 5.395142640481211 5.395142640481211 0.0 0 1 -7.183526333974188,-6.214704959394255 z"/><path d="M 294.5958335349256,-325.8873009839295 l 0.8463820812153815 0.18830566149694034 a 12.081724611995979 12.081724611995979 0.0 0 0 1.9114789308843194,9.574815696869631 l -0.7091998074591119 0.4988559738584257 a 12.9488011077876 12.9488011077876 0.0 0 1 -2.048661204640589,-10.261977332224998 z"/><path d="M 293.0911542794316,-326.2220666043685 l 1.5046792554940114 0.334765620439005 a 6.743928300601514 6.743928300601514 0.0 0 1 -10.498563967747499,4.026184184456943 l 0.8949925085625594 -1.2550362911720203 a 5.202458974749739 5.202458974749739 0.0 0 0 8.098892203690928,-3.1059135137239275 z"/><path d="M 399.1833845441594,-248.0863660318388 l 0.012339821482938803 -0.005592764359412872 a 0.3657978966620949 0.3657978966620949 0.0 0 0 0.6425037838985682,0.044248828428769274 l 0.011456614957748856 0.007231609856774693 a 0.3793459669088391 0.3793459669088391 0.0 0 1 -0.6663002203392558,-0.04588767392613109 z"/><path d="M 399.1278553474862,-248.06119859222144 l 0.055529196673224625 -0.02516743961735793 a 0.8494962617809761 0.8494962617809761 0.0 0 0 0.5118940707594727,0.45745562240845394 l -0.01879178282338967 0.0579979361562597 a 0.9104625778913252 0.9104625778913252 0.0 0 1 -0.5486314846093077,-0.4902861189473557 z"/><path d="M 399.0291367756227,-248.01645647734614 l 0.09871857186351042 -0.044742114875302975 a 0.4741824586360489 0.4741824586360489 0.0 0 1 -0.4200519698423619,0.6697813254491517 l -0.0027066930423991775 -0.10835075951307449 a 0.36579789666209495 0.36579789666209495 0.0 0 0 0.3240400910212507,-0.5166884510607742 z"/><path d="M 395.4964044191267,-252.86025853154365 l 0.03811001979895283 0.047586952949211954 a 1.646090534979443 1.646090534979443 0.0 0 0 0.5215923983400989,2.8507920058477167 l -0.018791782823393555 0.05799793615625903 a 1.7070568510897925 1.7070568510897925 0.0 0 1 -0.5409106353156581,-2.9563768949531877 z"/><path d="M 395.3249093300314,-253.07439981981508 l 0.17149508909528777 0.21414128827145382 a 3.8227331780144294 3.8227331780144294 0.0 0 0 -1.4254127392877463,2.7408114751384374 l -0.2737935541514427 -0.017439800213293832 a 4.097081600511003 4.097081600511003 0.0 0 1 1.5277112043439012,-2.9375129631965975 z"/><path d="M 395.0200291716398,-253.4550954434088 l 0.30488015839162264 0.38069562359369563 a 2.133821063862241 2.133821063862241 0.0 0 1 -3.3876682277702947,-1.0867291634328908 l 0.46944400795587304 -0.13230038623760643 a 1.646090534979443 1.646090534979443 0.0 0 0 2.613344061422799,0.8383339260768016 z"/><path d="M 400.2787576402471,-265.6530005772945 l -0.09198864963386516 -0.05731755065269054 a 2.9263831732967422 2.9263831732967422 0.0 0 0 -2.556774252258982,-4.473044374475644 l -0.002706693042393571 -0.10835075951307438 a 3.034767735270696 3.034767735270696 0.0 0 1 2.6514695949352407,4.638712684641409 z"/><path d="M 400.6927065635995,-265.3950715993574 l -0.4139489233523933 -0.2579289779371075 a 6.79597009424777 6.79597009424777 0.0 0 0 0.7732608746203234,-5.437402278064122 l 0.4694440079558644 -0.13230038623761065 a 7.283700623130561 7.283700623130561 0.0 0 1 -0.8287559592237945,5.82763164223884 z"/><path d="M 401.42861576067037,-264.93653119413585 l -0.7359091970709213 -0.45854040522152434 a 3.79345966908837 3.79345966908837 0.0 0 1 6.322351894818917,-0.17638061278644906 l -0.7091998074591173 0.4988559738584262 a 2.9263831732967427 2.9263831732967427 0.0 0 0 -4.877242890288879,0.13606504414954718 z"/><path d="M 448.81701182452105,-276.5772140625509 l 0.03811001979895283 0.047586952949211954 a 1.646090534979443 1.646090534979443 0.0 0 0 0.5215923983400989,2.8507920058477167 l -0.018791782823393555 0.05799793615625903 a 1.7070568510897925 1.7070568510897925 0.0 0 1 -0.5409106353156581,-2.9563768949531877 z"/><path d="M 448.64551673542576,-276.7913553508224 l 0.17149508909528777 0.21414128827145382 a 3.8227331780144294 3.8227331780144294 0.0 0 0 -1.4254127392877463,2.7408114751384374 l -0.2737935541514427 -0.017439800213293832 a 4.097081600511003 4.097081600511003 0.0 0 1 1.5277112043439012,-2.9375129631965975 z"/><path d="M 448.34063657703416,-277.1720509744161 l 0.30488015839162264 0.38069562359369563 a 2.133821063862241 2.133821063862241 0.0 0 1 -3.3876682277702947,-1.0867291634328908 l 0.46944400795587304 -0.13230038623760643 a 1.646090534979443 1.646090534979443 0.0 0 0 2.613344061422799,0.8383339260768016 z"/><path d="M 465.53282715868124,-297.9630721595979 l -0.1651162314826454 0.2190974372906398 a 7.407407407407386 7.407407407407386 0.0 0 0 -11.850564212120275,5.444756201088398 l -0.2737935541514389 -0.017439800213291612 a 7.681755829903955 7.681755829903955 0.0 0 1 12.28947399775436,-5.6464138381657465 z"/><path d="M 466.27585020035315,-298.94901062740576 l -0.7430230416719044 0.9859384678078792 a 17.202299301064684 17.202299301064684 0.0 0 0 -13.536289646657309,-3.1673025192066544 l -0.2284441097304999 -1.2132481986337984 a 18.436867202299247 18.436867202299247 0.0 0 1 14.507756798059713,3.3946122500325737 z"/><path d="M 467.5967800522143,-300.7017901257309 l -1.3209298518611632 1.7527794983251184 a 9.602194787379945 9.602194787379945 0.0 0 1 0.9711253804096394,-15.980199012889026 l 1.09895833633896 1.8998374189066585 a 7.407407407407386 7.407407407407386 0.0 0 0 -0.7491538648874361,12.327582095657249 z"/><path d="M 526.6329848234062,-291.33698365999606 l 0.14762664105339546 -0.4648520664206856 a 13.16872427983543 13.16872427983543 0.0 0 0 16.66090752325013,-16.123116221773902 l 0.46944400795586816 -0.1323003862376062 a 13.656454808718223 13.656454808718223 0.0 0 1 -17.277978172259395,16.720268674432194 z"/><path d="M 525.9686649386659,-289.24514936110296 l 0.6643198847402797 -2.091834298893086 a 30.581865424115172 30.581865424115172 0.0 0 0 24.569276165143844,-2.6752581134614895 l 1.0989583363389634 1.8998374189066718 a 32.776652804087746 32.776652804087746 0.0 0 1 -26.332554386223087,2.8672549934479035 z"/><path d="M 524.7876518102388,-285.5263328297375 l 1.1810131284271637 -3.718816531365485 a 17.070568510897782 17.070568510897782 0.0 0 1 7.800250307219125,27.371915864533605 l -2.963927484362963 -2.5376213805279093 a 13.168724279835432 13.168724279835432 0.0 0 0 -6.017335951283326,-21.115477952640212 z"/><path d="M 665.2796781026713,-108.61753108768332 l -0.09198864963386937 -0.05731755065269055 a 2.9263831732968386 2.9263831732968386 0.0 0 0 -2.5567742522591574,-4.473044374475739 l -0.0027066930423957913 -0.10835075951307793 a 3.034767735270796 3.034767735270796 0.0 0 1 2.651469594935423,4.638712684641508 z"/><path d="M 665.6936270260236,-108.3596021097462 l -0.41394892335241223 -0.2579289779371075 a 6.795970094247994 6.795970094247994 0.0 0 0 0.7732608746202376,-5.437402278064316 l 0.46944400795587704 -0.13230038623762397 a 7.283700623130801 7.283700623130801 0.0 0 1 -0.8287559592237024,5.827631642239048 z"/><path d="M 666.4295362230946,-107.90106170452468 l -0.7359091970709549 -0.4585404052215244 a 3.7934596690884947 3.7934596690884947 0.0 0 1 6.322351894819121,-0.1763806127865838 l -0.7091998074591297 0.49885597385845776 a 2.926383173296839 2.926383173296839 0.0 0 0 -4.877242890289037,0.13606504414965043 z"/><path d="M 649.8654725831402,-62.8904047966774 l 0.14762664105339546 -0.4648520664206841 a 13.168724279835391 13.168724279835391 0.0 0 0 16.660907523250096,-16.123116221773845 l 0.46944400795586816 -0.1323003862376062 a 13.656454808718184 13.656454808718184 0.0 0 1 -17.27797817225936,16.720268674432134 z"/><path d="M 649.2011526983999,-60.79857049778432 l 0.6643198847402797 -2.091834298893079 a 30.581865424115076 30.581865424115076 0.0 0 0 24.56927616514377,-2.6752581134614535 l 1.09895833633896 1.8998374189066674 a 32.77665280408764 32.77665280408764 0.0 0 1 -26.33255438622301,2.8672549934478653 z"/><path d="M 648.0201395699728,-57.07975396641885 l 1.1810131284271637 -3.718816531365473 a 17.07056851089773 17.07056851089773 0.0 0 1 7.800250307219073,27.37191586453353 l -2.9639274843629515 -2.537621380527902 a 13.168724279835393 13.168724279835393 0.0 0 0 -6.017335951283286,-21.115477952640155 z"/><path d="M 543.4904168987463,-37.95133471566516 l 0.026706735792198233 0.8666651024574689 a 23.411065386373963 23.411065386373963 0.0 0 0 -18.427312935006906,36.86906906052909 l -0.7091998074591217 0.4988559738584257 a 24.278141882165592 24.278141882165592 0.0 0 1 19.10980600667383,-38.234590136844986 z"/><path d="M 543.3702365876815,-41.85132767672378 l 0.12018031106489208 3.899992961058611 a 54.36776075398222 54.36776075398222 0.0 0 0 -39.62438190942031,18.9830981869188 l -2.963927484362948 -2.537621380527888 a 58.269604985044545 58.269604985044545 0.0 0 1 42.46812908271836,-20.345469767449522 z"/><path d="M 543.1565827013438,-48.784648496383525 l 0.21365388633758586 6.933320819659751 a 30.34767735270699 30.34767735270699 0.0 0 1 -29.2313989661271,-41.30051942823836 l 6.467808734491463 2.5067979067947306 a 23.411065386373966 23.411065386373966 0.0 0 0 22.54993634529805,31.86040070178388 z"/><path d="M 474.05536224261175,549.1532433845199 l -0.017394066235039172 0.016660004721087612 a 0.65030737184372 0.65030737184372 0.0 0 0 -1.1035921814308052,0.3048924172949199 l -0.02347971826239803 -0.0053676929694239095 a 0.674392830060154 0.674392830060154 0.0 0 1 1.1444659659282423,-0.31618472904658357 z"/><path d="M 474.1336355406694,549.078273363275 l -0.07827329805767629 0.07497002124489427 a 1.510215576499503 1.510215576499503 0.0 0 0 -1.1283640558835815,-0.4651226149695882 l -0.002706693042379582 -0.10835075951307432 a 1.6186001384734563 1.6186001384734563 0.0 0 1 1.2093440469836374,0.49850335323776823 z"/><path d="M 474.2727880705497,548.9449933255063 l -0.13915252988031337 0.1332800377687009 a 0.8429910375751926 0.8429910375751926 0.0 0 1 0.3092377963912948,-1.371072866465881 l 0.06846960499087457 0.1801080459949289 a 0.65030737184372 0.65030737184372 0.0 0 0 -0.23855487150185595,1.057684782702251 z"/><path d="M 483.05520841556927,554.9836611960728 l -0.09198864963386517 -0.057317550652694754 a 2.926383173296803 2.926383173296803 0.0 0 0 -2.5567742522588888,-4.473044374475822 l -0.002706693042390018 -0.10835075951307616 a 3.0347677352707585 3.0347677352707585 0.0 0 1 2.651469594935144,4.638712684641592 z"/><path d="M 483.46915733892166,555.24159017401 l -0.41394892335239336 -0.25792897793712644 a 6.795970094247911 6.795970094247911 0.0 0 0 0.773260874620519,-5.4374022780642095 l 0.4694440079558784 -0.13230038623759732 a 7.283700623130711 7.283700623130711 0.0 0 1 -0.8287559592240039,5.827631642238933 z"/><path d="M 484.20506653599256,555.7001305792315 l -0.7359091970709214 -0.45854040522155803 a 3.793459669088448 3.793459669088448 0.0 0 1 6.322351894819055,-0.17638061278624462 l -0.7091998074591475 0.4988559738584139 a 2.926383173296803 2.926383173296803 0.0 0 0 -4.8772428902889855,0.13606504414938875 z"/><path d="M 482.58329651960776,579.2589343914723 l 0.1880849069367556 0.041845702554879884 a 5.202458974749875 5.202458974749875 0.0 0 0 6.926971822046619,5.992751210844735 l 0.06846960499089683 0.18010804599492491 a 5.395142640481352 5.395142640481352 0.0 0 1 -7.183526333974272,-6.214704959394539 z"/><path d="M 481.7369144383924,579.0706287299753 l 0.8463820812154005 0.18830566149695951 a 12.081724611996291 12.081724611996291 0.0 0 0 1.91147893088421,9.574815696869912 l -0.7091998074591386 0.4988559738584275 a 12.948801107787938 12.948801107787938 0.0 0 1 -2.0486612046404717,-10.2619773322253 z"/><path d="M 480.2322351828983,578.7358631095362 l 1.504679255494045 0.33476562043903907 a 6.74392830060169 6.74392830060169 0.0 0 1 -10.498563967747842,4.026184184456871 l 0.8949925085626038 -1.255036291172038 a 5.2024589747498755 5.2024589747498755 0.0 0 0 8.098892203691193,-3.1059135137238716 z"/><path d="M 407.62989945259136,626.2180698910889 l -0.09198864963386517 -0.057317550652694754 a 2.926383173296803 2.926383173296803 0.0 0 0 -2.5567742522588888,-4.473044374475822 l -0.002706693042390018 -0.10835075951307616 a 3.0347677352707585 3.0347677352707585 0.0 0 1 2.651469594935144,4.638712684641592 z"/><path d="M 408.04384837594375,626.4759988690261 l -0.41394892335239336 -0.25792897793712644 a 6.795970094247911 6.795970094247911 0.0 0 0 0.773260874620519,-5.4374022780642095 l 0.4694440079558784 -0.13230038623759732 a 7.283700623130711 7.283700623130711 0.0 0 1 -0.8287559592240039,5.827631642238933 z"/><path d="M 408.77975757301465,626.9345392742476 l -0.7359091970709214 -0.45854040522155803 a 3.793459669088448 3.793459669088448 0.0 0 1 6.322351894819055,-0.17638061278624462 l -0.7091998074591475 0.4988559738584139 a 2.926383173296803 2.926383173296803 0.0 0 0 -4.8772428902889855,0.13606504414938875 z"/><path d="M 392.2156939330604,671.9451961820952 l 0.14762664105339132 -0.4648520664206898 a 13.168724279835507 13.168724279835507 0.0 0 0 16.660907523250053,-16.123116221774175 l 0.46944400795586816 -0.1323003862376133 a 13.656454808718303 13.656454808718303 0.0 0 1 -17.277978172259314,16.72026867443248 z"/><path d="M 391.5513740483201,674.0370304809883 l 0.6643198847402612 -2.091834298893105 a 30.58186542411535 30.58186542411535 0.0 0 0 24.569276165143958,-2.675258113461758 l 1.0989583363389883 1.899837418906671 a 32.77665280408793 32.77665280408793 0.0 0 1 -26.332554386223208,2.867254993448192 z"/><path d="M 390.37036091989296,677.7558470123538 l 1.1810131284271306 -3.7188165313655186 a 17.07056851089788 17.07056851089788 0.0 0 1 7.800250307219459,27.371915864533676 l -2.9639274843630066 -2.5376213805278915 a 13.168724279835507 13.168724279835507 0.0 0 0 -6.017335951283583,-21.115477952640266 z"/><path d="M 285.84063824866604,696.8842662631079 l 0.02670673579220597 0.86666510245747 a 23.411065386374 23.411065386374 0.0 0 0 -18.427312935006608,36.869069060529306 l -0.7091998074591181 0.49885597385843283 a 24.278141882165627 24.278141882165627 0.0 0 1 19.10980600667352,-38.234590136845206 z"/><path d="M 285.7204579376011,692.9842733020492 l 0.12018031106492688 3.8999929610586155 a 54.36776075398229 54.36776075398229 0.0 0 0 -39.624381909420194,18.98309818691918 l -2.9639274843629764 -2.5376213805278667 a 58.269604985044616 58.269604985044616 0.0 0 1 42.46812908271824,-20.345469767449927 z"/><path d="M 285.5068040512635,686.0509524823894 l 0.21365388633764776 6.93332081965976 a 30.347677352707034 30.347677352707034 0.0 0 1 -29.23139896612751,-41.30051942823817 l 6.467808734491495 2.5067979067946773 a 23.411065386374002 23.411065386374002 0.0 0 0 22.549936345298367,31.86040070178373 z"/><path d="M -54.481363618909796,472.2683378659736 l 0.18808490693675242 0.041845702554875665 a 5.202458974749767 5.202458974749767 0.0 0 0 6.926971822046581,5.992751210844487 l 0.0684696049908986 0.18010804599492047 a 5.3951426404812395 5.3951426404812395 0.0 0 1 -7.183526333974232,-6.214704959394283 z"/><path d="M -55.327745700125185,472.08003220447665 l 0.846382081215386 0.18830566149694056 a 12.081724611996039 12.081724611996039 0.0 0 0 1.9114789308843396,9.574815696869678 l -0.709199807459115 0.49885597385843106 a 12.948801107787668 12.948801107787668 0.0 0 1 -2.0486612046406107,-10.26197733222505 z"/><path d="M -56.8324249556192,471.74526658403767 l 1.5046792554940194 0.3347656204390053 a 6.743928300601549 6.743928300601549 0.0 0 1 -10.49856396774755,4.026184184456974 l 0.894992508562563 -1.2550362911720279 a 5.202458974749767 5.202458974749767 0.0 0 0 8.098892203690967,-3.105913513723951 z"/><path d="M -55.61210510843989,386.4887038302027 l 0.026706735792202122 0.86666510245747 a 23.411065386374 23.411065386374 0.0 0 0 -18.427312935006782,36.869069060529206 l -0.7091998074591217 0.4988559738584257 a 24.278141882165627 24.278141882165627 0.0 0 1 19.1098060066737,-38.2345901368451 z"/><path d="M -55.7322854195048,382.5887108691441 l 0.12018031106490956 3.899992961058616 a 54.36776075398229 54.36776075398229 0.0 0 0 -39.62438190942027,18.983098186918994 l -2.9639274843629693 -2.537621380527881 a 58.269604985044616 58.269604985044616 0.0 0 1 42.468129082718335,-20.34546976744973 z"/><path d="M -55.945939305842415,375.65539004948437 l 0.21365388633761698 6.93332081965976 a 30.347677352707034 30.347677352707034 0.0 0 1 -29.231398966127326,-41.3005194282383 l 6.467808734491484 2.5067979067947057 a 23.411065386374002 23.411065386374002 0.0 0 0 22.549936345298224,31.860400701783835 z"/><path d="M 108.06484699419471,281.90095559210226 l -0.5561479030305584 -1.4376464073257642 a 41.619671797998265 41.619671797998265 0.0 0 0 9.148804349364449,-72.70243285944034 l 0.8949925085625754 -1.2550362911720185 a 43.16114112385006 43.16114112385006 0.0 0 1 -9.487648954896466,75.39511555793811 z"/><path d="M 110.56751255783222,288.3703644250682 l -2.502665563637513 -6.469408832965939 a 96.65379689596865 96.65379689596865 0.0 0 0 55.24975947324844,-55.21447552419005 l 6.467808734491491 2.5067979067947164 a 103.59040886230169 103.59040886230169 0.0 0 1 -59.214902644102416,59.17708645036127 z"/><path d="M 115.01669578207668,299.8715356836743 l -4.449183224244467 -11.501171258606114 a 53.95142640481257 53.95142640481257 0.0 0 1 73.38993262207455,52.013825815249994 l -12.325658517944 -0.3877032134510259 a 41.61967179799827 41.61967179799827 0.0 0 0 -56.61509087988609,-40.124951343192855 z"/></g></svg>