<?xml version='1.0' encoding='UTF-8'?>
<svg viewBox="0.0 0.0 100.0 100.0" preserveAspectRatio="xMidYMid meet" xmlns="http://www.w3.org/2000/svg" xmlns:svg="http://www.w3.org/2000/svg"><g transform="translate(0.0, 0.0)"><rect fill="#ca6124" x="0.0" y="0.0" width="0.7656241657278853" height="100.0" transform="rotate(0.0, 0.0, 0.0)"/><rect fill="#6bca24" x="0.7656241657278853" y="0.0" width="0.8511812407007735" height="100.0" transform="rotate(0.0, 0.7656241657278853, 0.0)"/><rect fill="#24caa4" x="1.6168054064286588" y="0.0" width="0.9437162135749568" height="100.0" transform="rotate(0.0, 1.6168054064286588, 0.0)"/><rect fill="#2429ca" x="2.5605216200036156" y="0.0" width="1.0435985547608024" height="100.0" transform="rotate(0.0, 2.5605216200036156, 0.0)"/><rect fill="#ca24ae" x="3.604120174764418" y="0.0" width="1.1512072665153372" height="100.0" transform="rotate(0.0, 3.604120174764418, 0.0)"/><rect fill="#ca6124" x="4.755327441279755" y="0.0" width="1.2669308829422397" height="100.0" transform="rotate(0.0, 4.755327441279755, 0.0)"/><rect fill="#6bca24" x="6.022258324221995" y="0.0" width="1.3911674699918484" height="100.0" transform="rotate(0.0, 6.022258324221995, 0.0)"/><rect fill="#24caa4" x="7.413425794213843" y="0.0" width="1.524324625461153" height="100.0" transform="rotate(0.0, 7.413425794213843, 0.0)"/><rect fill="#2429ca" x="8.937750419674996" y="0.0" width="1.666819478993805" height="100.0" transform="rotate(0.0, 8.937750419674996, 0.0)"/><rect fill="#ca24ae" x="10.604569898668801" y="0.0" width="1.8190786920801063" height="100.0" transform="rotate(0.0, 10.604569898668801, 0.0)"/><rect fill="#ca6124" x="12.423648590748908" y="0.0" width="1.9815384580570186" height="100.0" transform="rotate(0.0, 12.423648590748908, 0.0)"/><rect fill="#6bca24" x="14.405187048805926" y="0.0" width="2.1546445021081535" height="100.0" transform="rotate(0.0, 14.405187048805926, 0.0)"/><rect fill="#24caa4" x="16.55983155091408" y="0.0" width="2.338852081263788" height="100.0" transform="rotate(0.0, 16.55983155091408, 0.0)"/><rect fill="#2429ca" x="18.898683632177868" y="0.0" width="2.534625984400847" height="100.0" transform="rotate(0.0, 18.898683632177868, 0.0)"/><rect fill="#ca24ae" x="21.433309616578715" y="0.0" width="2.7424405322429166" height="100.0" transform="rotate(0.0, 21.433309616578715, 0.0)"/><rect fill="#ca6124" x="24.17575014882163" y="0.0" width="2.96277957736023" height="100.0" transform="rotate(0.0, 24.17575014882163, 0.0)"/><rect fill="#6bca24" x="27.13852972618186" y="0.0" width="3.1961365041696936" height="100.0" transform="rotate(0.0, 27.13852972618186, 0.0)"/><rect fill="#24caa4" x="30.334666230351555" y="0.0" width="3.443014228934846" height="100.0" transform="rotate(0.0, 30.334666230351555, 0.0)"/><rect fill="#2429ca" x="33.7776804592864" y="0.0" width="3.703925199765905" height="100.0" transform="rotate(0.0, 33.7776804592864, 0.0)"/><rect fill="#ca24ae" x="37.481605659052306" y="0.0" width="3.979391396619725" height="100.0" transform="rotate(0.0, 37.481605659052306, 0.0)"/><rect fill="#ca6124" x="41.46099705567203" y="0.0" width="4.269944331299833" height="100.0" transform="rotate(0.0, 41.46099705567203, 0.0)"/><rect fill="#6bca24" x="45.730941386971864" y="0.0" width="4.576125047456401" height="100.0" transform="rotate(0.0, 45.730941386971864, 0.0)"/><rect fill="#24caa4" x="50.307066434428265" y="0.0" width="4.898484120586254" height="100.0" transform="rotate(0.0, 50.307066434428265, 0.0)"/><rect fill="#2429ca" x="55.20555055501452" y="0.0" width="5.237581658032873" height="100.0" transform="rotate(0.0, 55.20555055501452, 0.0)"/><rect fill="#ca24ae" x="60.44313221304739" y="0.0" width="5.593987298986434" height="100.0" transform="rotate(0.0, 60.44313221304739, 0.0)"/><rect fill="#ca6124" x="66.03711951203383" y="0.0" width="5.968280214483713" height="100.0" transform="rotate(0.0, 66.03711951203383, 0.0)"/><rect fill="#6bca24" x="72.00539972651754" y="0.0" width="6.361049107408135" height="100.0" transform="rotate(0.0, 72.00539972651754, 0.0)"/><rect fill="#24caa4" x="78.36644883392567" y="0.0" width="6.77289221248985" height="100.0" transform="rotate(0.0, 78.36644883392567, 0.0)"/><rect fill="#2429ca" x="85.13934104641552" y="0.0" width="7.204417296305621" height="100.0" transform="rotate(0.0, 85.13934104641552, 0.0)"/><rect fill="#ca24ae" x="92.34375834272115" y="0.0" width="7.656241657278855" height="100.0" transform="rotate(0.0, 92.34375834272115, 0.0)"/></g></svg>