<?xml version='1.0' encoding='UTF-8'?>
<svg xmlns="http://www.w3.org/2000/svg" xmlns:svg="http://www.w3.org/2000/svg"><g><path fill="#54110b" d="M 100.0,100.0 l -7.490043047030287 19.06503765169526 a 20.483564277413358 20.483564277413358 0.0 0 1 -0.35909881013558387,-0.1450118162739109 l 7.849141857165871 -18.92002583542135 z"/><path fill="#ff5553" d="M 92.50995695296972,119.06503765169526 l -4.312533063846101 10.977053765933338 a 32.27736141009955 32.27736141009955 0.0 0 1 -0.5658566995326959,-0.22850509507123107 l 4.519290953243213 -10.893560487136018 a 20.483564277413358 20.483564277413358 0.0 0 0 0.35909881013558387,0.1450118162739109 z"/><path fill="#ffffff" d="M 88.19742388912361,130.0420914176286 l -0.16929506796634977 0.43092100068830413 a 32.74034491830685 32.74034491830685 0.0 0 1 -0.5739732960711691,-0.2317827511725134 l 0.17741166450482382 -0.42764334458701825 a 32.27736141009955 32.27736141009955 0.0 0 0 0.565856699532695,0.22850509507122752 z"/><path fill="#000000" d="M 88.02812882115725,130.4730124183169 l -11.08335570344443 28.21139911566719 a 63.050802085966694 63.050802085966694 0.0 0 1 -1.105348058595979,-0.4463632990911961 l 11.61473046596924 -27.99681856774851 a 32.74034491830685 32.74034491830685 0.0 0 0 0.5739732960711699,0.23178275117251346 z"/><path fill="#a10b20" d="M 76.94477311771283,158.68441153398408 l -1.4406051362348347 3.6668936334661413 a 66.9905294975652 66.9905294975652 0.0 0 1 -1.174415697733549,-0.4742542959822944 l 1.5096727753724046 -3.639002636575043 a 63.050802085966694 63.050802085966694 0.0 0 0 1.105348058595979,0.4463632990911961 z"/><path fill="#54110b" d="M 75.50416798147799,162.35130516745022 l -2.4599671264762533 6.261561595002768 a 73.71798011955846 73.71798011955846 0.0 0 1 -1.2923551091018846,-0.521880764714802 l 2.5779065378445907 -6.213935126270265 a 66.9905294975652 66.9905294975652 0.0 0 0 1.1744156977335471,0.4742542959822984 z"/><path fill="#ff5553" d="M 73.04420085500173,168.612866762453 l -0.4700042070638834 1.196341309103811 a 75.00333473308967 75.00333473308967 0.0 0 1 -1.3148887514929408,-0.530980333741933 l 0.49253784945493706 -1.1872417400766722 a 73.71798011955846 73.71798011955846 0.0 0 0 1.2923551091018872,0.521880764714794 z"/><path fill="#ffffff" d="M 72.57419664793785,169.8092080715568 l -1.141078111732995 2.9044822609317786 a 78.12392385393585 78.12392385393585 0.0 0 1 -1.3695960194782086,-0.5530723041690417 l 1.195785379718263 -2.8823902905046737 a 75.00333473308967 75.00333473308967 0.0 0 0 1.3148887514929406,0.5309803337419368 z"/><path fill="#000000" d="M 71.43311853620486,172.7136903324886 l -5.042382586175992 12.834801249615444 a 91.91369344093407 91.91369344093407 0.0 0 1 -1.6113454427558382,-0.6506959162869119 l 5.2841320094536215 -12.737177637497581 a 78.12392385393585 78.12392385393585 0.0 0 0 1.3695960194782089,0.5530723041690493 z"/><path fill="#a10b20" d="M 66.39073595002887,185.54849158210402 l -1.4441682855654392 3.6759632176754766 a 95.86316525558676 95.86316525558676 0.0 0 1 -1.6805839117106558,-0.678655897929207 l 1.5134067545202612 -3.648003236033176 a 91.91369344093407 91.91369344093407 0.0 0 0 1.6113454427558338,0.6506959162869066 z"/><path fill="#54110b" d="M 64.94656766446343,189.2244547997795 l -1.5126796242327818 3.850350900504458 a 100.0 100.0 0.0 0 1 -1.7531070534025726,-0.7079423010076824 l 1.5852027659246986 -3.8210644974259793 a 95.86316525558676 95.86316525558676 0.0 0 0 1.6805839117106558,0.6786558979292039 z"/><path fill="#fca4ab" d="M 100.0,100.0 l -7.849141857165867 18.920025835421352 a 20.483564277413358 20.483564277413358 0.0 0 1 -6.885736652285141,-4.691190295622478 l 14.734878509451008 -14.228835539798874 z"/><path fill="#6a000b" d="M 92.15085814283412,118.92002583542134 l -4.51929095324321 10.893560487136021 a 32.27736141009955 32.27736141009955 0.0 0 1 -10.850328951082455,-7.392231281853821 l 8.483883252040524 -8.192519500904679 a 20.483564277413358 20.483564277413358 0.0 0 0 6.885736652285141,4.691190295622478 z"/><path fill="#f89db3" d="M 87.63156718959092,129.81358632255737 l -0.17741166450482257 0.4276433445870153 a 32.74034491830685 32.74034491830685 0.0 0 1 -11.005965073228534,-7.498264768571279 l 0.3330477866509014 -0.32160985786955365 a 32.27736141009955 32.27736141009955 0.0 0 0 10.850328951082455,7.392231281853817 z"/><path fill="#f89c9d" d="M 87.4541555250861,130.24122966714438 l -11.614730465969235 27.996818567748516 a 63.050802085966694 63.050802085966694 0.0 0 1 -21.19510125286367,-14.44003137691482 l 21.803866645604373 -21.055051959404977 a 32.74034491830685 32.74034491830685 0.0 0 0 11.005965073228532,7.498264768571282 z"/><path fill="#e80800" d="M 75.83942505911686,158.2380482348929 l -1.509672775372402 3.6390026365750403 a 66.9905294975652 66.9905294975652 0.0 0 1 -22.519476496871835,-15.34231628936379 l 2.8340480193805675 -2.7367177241260663 a 63.050802085966694 63.050802085966694 0.0 0 0 21.19510125286367,14.440031376914817 z"/><path fill="#fca4ab" d="M 74.32975228374445,161.87705087146793 l -2.577906537844591 6.213935126270274 a 73.71798011955846 73.71798011955846 0.0 0 1 -24.780970282666573,-16.88305161475705 l 4.839400323639332 -4.673199800877015 a 66.9905294975652 66.9905294975652 0.0 0 0 22.51947649687183,15.342316289363794 z"/><path fill="#6a000b" d="M 71.75184574589986,168.0909859977382 l -0.49253784945493423 1.1872417400766697 a 75.00333473308967 75.00333473308967 0.0 0 1 -25.213053940261993,-17.177426314773495 l 0.9246215070503538 -0.8928670400602243 a 73.71798011955846 73.71798011955846 0.0 0 0 24.780970282666573,16.88305161475705 z"/><path fill="#f89db3" d="M 71.25930789644494,169.27822773781486 l -1.1957853797182618 2.8823902905046648 a 78.12392385393585 78.12392385393585 0.0 0 1 -26.26206838887661,-17.89211040012485 l 2.24479982833288 -2.1677062051533156 a 75.00333473308967 75.00333473308967 0.0 0 0 25.213053940261993,17.1774263147735 z"/><path fill="#f89c9d" d="M 70.06352251672666,172.16061802831956 l -5.284132009453618 12.73717763749759 a 91.91369344093407 91.91369344093407 0.0 0 1 -30.89762500323314,-21.05027332476429 l 9.91968862381015 -9.57901471285814 a 78.12392385393585 78.12392385393585 0.0 0 0 26.26206838887661,17.892110400124842 z"/><path fill="#e80800" d="M 64.77939050727305,184.8977956658171 l -1.5134067545202614 3.6480032360331744 a 95.86316525558676 95.86316525558676 0.0 0 1 -32.22527591705913,-21.95478992152492 l 2.8410576683462523 -2.743486639272554 a 91.91369344093407 91.91369344093407 0.0 0 0 30.897625003233138,21.050273324764298 z"/><path fill="#fca4ab" d="M 63.26598375275279,188.5457989018503 l -1.5852027659246977 3.8210644974259735 a 100.0 100.0 0.0 0 1 -33.615910585824395,-22.902216782629573 l 2.9758374346899643 -2.8736376363213196 a 95.86316525558676 95.86316525558676 0.0 0 0 32.22527591705913,21.95478992152492 z"/><path fill="#7c0806" d="M 100.0,100.0 l -14.734878509451002 14.228835539798876 a 20.483564277413358 20.483564277413358 0.0 0 1 -2.447552538672573,-3.078029793871652 l 17.182431048123576 -11.150805745927224 z"/><path fill="#8d0021" d="M 85.26512149054899,114.22883553979888 l -8.48388325204052 8.19251950090468 a 32.27736141009955 32.27736141009955 0.0 0 1 -3.8567769159224365,-4.8502633009725145 l 9.893107629290384 -6.420285993803818 a 20.483564277413358 20.483564277413358 0.0 0 0 2.447552538672573,3.078029793871652 z"/><path fill="#390c02" d="M 76.78123823850848,122.42135504070356 l -0.3330477866509019 0.3216098578695556 a 32.74034491830685 32.74034491830685 0.0 0 1 -3.9120981698570243,-4.9198350323876685 l 0.3883690405854914 -0.2520381264544014 a 32.27736141009955 32.27736141009955 0.0 0 0 3.8567769159224348,4.8502633009725145 z"/><path fill="#0e0003" d="M 76.44819045185757,122.7429648985731 l -21.803866645604362 21.055051959404977 a 63.050802085966694 63.050802085966694 0.0 0 1 -7.533852439978624,-9.474535033051271 l 25.42562091572596 -16.500351958741373 a 32.74034491830685 32.74034491830685 0.0 0 0 3.9120981698570247,4.919835032387667 z"/><path fill="#ff302c" d="M 54.644323806253205,143.7980168579781 l -2.83404801938057 2.736717724126069 a 66.9905294975652 66.9905294975652 0.0 0 1 -8.004604975882184,-10.066551060555074 l 3.3048005552841317 -2.1447016966222705 a 63.050802085966694 63.050802085966694 0.0 0 0 7.533852439978624,9.474535033051275 z"/><path fill="#7c0806" d="M 51.81027578687264,146.53473458210414 l -4.83940032363933 4.6731998008770175 a 73.71798011955846 73.71798011955846 0.0 0 1 -8.808458671735808,-11.077473435726322 l 5.64325401949295 -3.662277425705767 a 66.9905294975652 66.9905294975652 0.0 0 0 8.004604975882188,10.06655106055507 z"/><path fill="#8d0021" d="M 46.970875463233305,151.20793438298116 l -0.9246215070503546 0.8928670400602213 a 75.00333473308967 75.00333473308967 0.0 0 1 -8.96204390254995,-11.270621451499242 l 1.0782067378644982 -0.6997190242873046 a 73.71798011955846 73.71798011955846 0.0 0 0 8.808458671735806,11.077473435726326 z"/><path fill="#390c02" d="M 46.04625395618295,152.1008014230414 l -2.2447998283328756 2.1677062051533196 a 78.12392385393585 78.12392385393585 0.0 0 1 -9.334918746080138,-11.739546984102358 l 2.617674671863064 -1.6987806725501997 a 75.00333473308967 75.00333473308967 0.0 0 0 8.96204390254995,11.270621451499238 z"/><path fill="#0e0003" d="M 43.80145412785007,154.2685076281947 l -9.919688623810142 9.579014712858138 a 91.91369344093407 91.91369344093407 0.0 0 1 -10.982639089242479,-13.811711821459744 l 11.56740896697248 -7.506849875500755 a 78.12392385393585 78.12392385393585 0.0 0 0 9.334918746080142,11.739546984102361 z"/><path fill="#ff302c" d="M 33.88176550403993,163.84752234105284 l -2.841057668346247 2.7434866392725605 a 95.86316525558676 95.86316525558676 0.0 0 1 -11.454555970281978,-14.405192123565271 l 3.3129745493857428 -2.150006337167028 a 91.91369344093407 91.91369344093407 0.0 0 0 10.982639089242483,13.811711821459738 z"/><path fill="#7c0806" d="M 31.04070783569368,166.5910089803254 l -2.975837434689967 2.8736376363213147 a 100.0 100.0 0.0 0 1 -11.9488605865895,-15.02682712923018 l 3.470142050997495 -2.2520026306564063 a 95.86316525558676 95.86316525558676 0.0 0 0 11.454555970281973,14.405192123565271 z"/><path fill="#5f1002" d="M 100.0,100.0 l -17.182431048123572 11.150805745927226 a 20.483564277413358 20.483564277413358 0.0 0 1 -0.8433895487114924,-1.4221780257581909 l 18.025820596835064 -9.728627720169035 z"/><path fill="#2f0401" d="M 82.81756895187642,111.15080574592723 l -9.893107629290382 6.42028599380382 a 32.27736141009955 32.27736141009955 0.0 0 1 -1.3289869333570525,-2.241023754714221 l 10.378705013935942 -5.60144026484779 a 20.483564277413358 20.483564277413358 0.0 0 0 0.8433895487114924,1.4221780257581909 z"/><path fill="#ffd4d8" d="M 72.92446132258604,117.57109173973105 l -0.3883690405854935 0.2520381264543992 a 32.74034491830685 32.74034491830685 0.0 0 1 -1.3480497998952905,-2.273168793670498 l 0.40743190712373334 -0.21989308749812153 a 32.27736141009955 32.27736141009955 0.0 0 0 1.3289869333570508,2.24102375471422 z"/><path fill="#e81f31" d="M 72.53609228200055,117.82312986618544 l -25.425620915725958 16.50035195874138 a 63.050802085966694 63.050802085966694 0.0 0 1 -2.59605148776852,-4.377629987568451 l 26.673622603599185 -14.395890764843429 a 32.74034491830685 32.74034491830685 0.0 0 0 1.3480497998952927,2.2731687936705 z"/><path fill="#5c0300" d="M 47.11047136627459,134.32348182492683 l -3.3048005552841273 2.1447016966222665 a 66.9905294975652 66.9905294975652 0.0 0 1 -2.7582656844148703,-4.651166061484588 l 3.4670147519304777 -1.8711656227061262 a 63.050802085966694 63.050802085966694 0.0 0 0 2.59605148776852,4.377629987568447 z"/><path fill="#5f1002" d="M 43.805670810990456,136.4681835215491 l -5.643254019492952 3.6622774257057715 a 73.71798011955846 73.71798011955846 0.0 0 1 -3.0352614976053527,-5.118254323780914 l 5.920249832683439 -3.1951891634094487 a 66.9905294975652 66.9905294975652 0.0 0 0 2.758265684414866,4.6511660614845916 z"/><path fill="#2f0401" d="M 38.162416791497506,140.13046094725485 l -1.0782067378644953 0.6997190242873017 a 75.00333473308967 75.00333473308967 0.0 0 1 -3.0881846428528688,-5.207496755513692 l 1.1311298831120098 -0.6104765925545195 a 73.71798011955846 73.71798011955846 0.0 0 0 3.0352614976053545,5.11825432378091 z"/><path fill="#ffd4d8" d="M 37.08421005363301,140.83017997154215 l -2.617674671863064 1.698780672550201 a 78.12392385393585 78.12392385393585 0.0 0 1 -3.2166716685823857,-5.4241598916252745 l 2.7461616975925836 -1.482117536438622 a 75.00333473308967 75.00333473308967 0.0 0 0 3.088184642852866,5.207496755513695 z"/><path fill="#e81f31" d="M 34.466535381769944,142.52896064409236 l -11.567408966972476 7.506849875500759 a 91.91369344093407 91.91369344093407 0.0 0 1 -3.7844511522359348,-6.381586393248451 l 12.135188450626018 -6.5494233738775804 a 78.12392385393585 78.12392385393585 0.0 0 0 3.216671668582393,5.424159891625273 z"/><path fill="#5c0300" d="M 22.899126414797465,150.0358105195931 l -3.312974549385744 2.15000633716703 a 95.86316525558676 95.86316525558676 0.0 0 1 -3.9470665645878555,-6.65579902304667 l 3.4755899617376684 -1.875793707368807 a 91.91369344093407 91.91369344093407 0.0 0 0 3.784451152235931,6.381586393248448 z"/><path fill="#5f1002" d="M 19.586151865411722,152.18581685676014 l -3.4701420509975005 2.252002630656407 a 100.0 100.0 0.0 0 1 -4.1173964515612855,-6.943020299091139 l 3.640471937970929 -1.9647813546119437 a 95.86316525558676 95.86316525558676 0.0 0 0 3.947066564587857,6.655799023046676 z"/><path fill="#ff3f8e" d="M 100.0,100.0 l -18.025820596835064 9.72862772016904 a 20.483564277413358 20.483564277413358 0.0 0 1 -2.399476578687235,-8.184723319461066 l 20.4252971755223 -1.543904400707974 z"/><path fill="#000000" d="M 81.97417940316494,109.72862772016904 l -10.378705013935939 5.601440264847792 a 32.27736141009955 32.27736141009955 0.0 0 1 -3.781020318361172,-12.897231607060675 l 11.760248753609876 -0.8889319772481823 a 20.483564277413358 20.483564277413358 0.0 0 0 2.399476578687235,8.184723319461066 z"/><path fill="#ff7232" d="M 71.595474389229,115.33006798501683 l -0.4074319071237348 0.2198930874981221 a 32.74034491830685 32.74034491830685 0.0 0 1 -3.8352549266166727,-13.082228312947874 l 0.4616665153792354 -0.034896381610922234 a 32.27736141009955 32.27736141009955 0.0 0 0 3.781020318361172,12.897231607060675 z"/><path fill="#f18a8f" d="M 71.18804248210526,115.54996107251495 l -26.673622603599185 14.395890764843438 a 63.050802085966694 63.050802085966694 0.0 0 1 -7.385869022782487,-25.19353385742409 l 30.224236699764997 -2.284585220367223 a 32.74034491830685 32.74034491830685 0.0 0 0 3.835254926616674,13.082228312947874 z"/><path fill="#ffffff" d="M 44.51441987850608,129.9458518373584 l -3.467014751930471 1.8711656227061246 a 66.9905294975652 66.9905294975652 0.0 0 1 -7.847374819455126,-26.767751038639304 l 3.928520548603103 -0.29694844149090827 a 63.050802085966694 63.050802085966694 0.0 0 0 7.385869022782494,25.193533857424086 z"/><path fill="#ff3f8e" d="M 41.047405126575605,131.8170174600645 l -5.920249832683439 3.195189163409448 a 73.71798011955846 73.71798011955846 0.0 0 1 -8.635438848894928,-29.455873146717277 l 6.708313862123248 -0.5070670553314756 a 66.9905294975652 66.9905294975652 0.0 0 0 7.847374819455119,26.767751038639304 z"/><path fill="#000000" d="M 35.12715529389217,135.01220662347396 l -1.1311298831120085 0.6104765925545255 a 75.00333473308967 75.00333473308967 0.0 0 1 -8.786007287507774,-29.96946891240861 l 1.2816983217248463 -0.09688082686319177 a 73.71798011955846 73.71798011955846 0.0 0 0 8.635438848894935,29.455873146717277 z"/><path fill="#ff7232" d="M 33.99602541078016,135.62268321602846 l -2.7461616975925915 1.4821175364386219 a 78.12392385393585 78.12392385393585 0.0 0 1 -9.151557950750153,-31.216378786195065 l 3.1117123608349715 -0.23520766265216864 a 75.00333473308967 75.00333473308967 0.0 0 0 8.786007287507772,29.96946891240861 z"/><path fill="#f18a8f" d="M 31.249863713187565,137.1048007524671 l -12.135188450626016 6.549423373877579 a 91.91369344093407 91.91369344093407 0.0 0 1 -10.766913008169583,-36.72642807157031 l 13.750543508045453 -1.0393740885023348 a 78.12392385393585 78.12392385393585 0.0 0 0 9.151557950750146,31.216378786195065 z"/><path fill="#ffffff" d="M 19.114675262561548,143.65422412634467 l -3.4755899617376667 1.875793707368811 a 95.86316525558676 95.86316525558676 0.0 0 1 -11.229560279371997,-38.30453887412171 l 3.9382372329400823 -0.2976829048174068 a 91.91369344093407 91.91369344093407 0.0 0 0 10.766913008169581,36.726428071570304 z"/><path fill="#ff3f8e" d="M 15.63908530082388,145.5300178337135 l -3.6404719379709247 1.9647813546119421 a 100.0 100.0 0.0 0 1 -11.71415553558258,-39.95751524790111 l 4.125067194181511 -0.31180498083254804 a 95.86316525558676 95.86316525558676 0.0 0 0 11.229560279371995,38.30453887412171 z"/><path fill="#f80039" d="M 100.0,100.0 l -20.4252971755223 1.5439044007079792 a 20.483564277413358 20.483564277413358 0.0 0 1 -0.03839931076987213,-0.6419445214239577 l 20.46369648629217 -0.9019598792840214 z"/><path fill="#f86287" d="M 79.5747028244777,101.54390440070797 l -11.76024875360988 0.8889319772481857 a 32.27736141009955 32.27736141009955 0.0 0 1 -0.06050843568199937,-1.0115561453375639 l 11.782357878522006 -0.5193203533345797 a 20.483564277413358 20.483564277413358 0.0 0 0 0.03839931076987213,0.6419445214239577 z"/><path fill="#ffe6e3" d="M 67.81445407086782,102.43283637795616 l -0.46166651537923487 0.034896381610922254 a 32.74034491830685 32.74034491830685 0.0 0 1 -0.061376363127252476,-1.026065813800442 l 0.4625344428244844 -0.02038671314804419 a 32.27736141009955 32.27736141009955 0.0 0 0 0.060508435682002926,1.0115561453375639 z"/><path fill="#be3503" d="M 67.35278755548859,102.46773275956708 l -30.224236699765 2.284585220367231 a 63.050802085966694 63.050802085966694 0.0 0 1 -0.11819756126420344,-1.9759801771952024 l 30.281057897901952 -1.3346708569724706 a 32.74034491830685 32.74034491830685 0.0 0 0 0.06137636312725192,1.026065813800442 z"/><path fill="#920c17" d="M 37.12855085572359,104.7523179799343 l -3.928520548603103 0.2969484414909111 a 66.9905294975652 66.9905294975652 0.0 0 1 -0.12558313221160233,-2.099449237243907 l 3.935906119550502 -0.1734793814422062 a 63.050802085966694 63.050802085966694 0.0 0 0 0.11819756126420344,1.9759801771952024 z"/><path fill="#f80039" d="M 33.200030307120485,105.04926642142522 l -6.708313862123247 0.5070670553314768 a 73.71798011955846 73.71798011955846 0.0 0 1 -0.13819468084759112,-2.3102841296215395 l 6.720925410759236 -0.29623216295384447 a 66.9905294975652 66.9905294975652 0.0 0 0 0.12558313221160233,2.099449237243907 z"/><path fill="#f86287" d="M 26.491716444997238,105.55633347675669 l -1.2816983217248412 0.09688082686319166 a 75.00333473308967 75.00333473308967 0.0 0 1 -0.14060425813531707,-2.3505664916689106 l 1.284107899012568 -0.056598464815820204 a 73.71798011955846 73.71798011955846 0.0 0 0 0.13819468084759023,2.310284129621539 z"/><path fill="#ffe6e3" d="M 25.21001812327239,105.65321430361989 l -3.111712360834982 0.23520766265216875 a 78.12392385393585 78.12392385393585 0.0 0 1 -0.14645423960404358,-2.4483641729030956 l 3.1175623423037138 -0.13740998141798366 a 75.00333473308967 75.00333473308967 0.0 0 0 0.14060425813531197,2.3505664916689106 z"/><path fill="#be3503" d="M 22.09830576243742,105.88842196627206 l -13.750543508045453 1.03937408850234 a 91.91369344093407 91.91369344093407 0.0 0 1 -0.17230509449652232,-2.8805285617850327 l 13.776394362937921 -0.607209699620403 a 78.12392385393585 78.12392385393585 0.0 0 0 0.14645423960405424,2.4483641729030956 z"/><path fill="#920c17" d="M 8.347762254391967,106.92779605477439 l -3.9382372329400797 0.29768290481740445 a 95.86316525558676 95.86316525558676 0.0 0 1 -0.1797089326925514,-3.0043030064860603 l 3.9456410711361087 -0.17390846011637695 a 91.91369344093407 91.91369344093407 0.0 0 0 0.17230509449652232,2.8805285617850327 z"/><path fill="#f80039" d="M 4.409525021451884,107.2254789595918 l -4.125067194181512 0.3118049808325541 a 100.0 100.0 0.0 0 1 -0.18746400894796889,-3.1339493104323237 l 4.132822270436932 -0.18215867688629128 a 95.86316525558676 95.86316525558676 0.0 0 0 0.17970893269254873,3.0043030064860607 z"/><path fill="#ff1609" d="M 100.0,100.0 l -20.46369648629217 0.9019598792840264 a 20.483564277413358 20.483564277413358 0.0 0 1 2.7179871917412157,-11.13261025646985 l 17.745709294550956 10.230650377185823 z"/><path fill="#f77997" d="M 79.53630351370782,100.90195987928402 l -11.782357878522005 0.5193203533345825 a 32.27736141009955 32.27736141009955 0.0 0 1 4.282919403464833,-17.542419855224253 l 10.217425666798388 5.890489245419822 a 20.483564277413358 20.483564277413358 0.0 0 0 -2.7179871917412157,11.13261025646985 z"/><path fill="#e4004c" d="M 67.75394563518583,101.4212802326186 l -0.46253444282448825 0.020386713148044265 a 32.74034491830685 32.74034491830685 0.0 0 1 4.344353206110327,-17.79404671480008 l 0.4011006401789956 0.23124014642777624 a 32.27736141009955 32.27736141009955 0.0 0 0 -4.282919403464835,17.542419855224257 z"/><path fill="#8b0823" d="M 67.29141119236134,101.44166694576666 l -30.281057897901952 1.3346708569724781 a 63.050802085966694 63.050802085966694 0.0 0 1 8.36628187251737,-34.267473984245534 l 26.259129231494907 15.13875641247298 a 32.74034491830685 32.74034491830685 0.0 0 0 -4.344353206110323,17.794046714800075 z"/><path fill="#000000" d="M 37.010353294459385,102.77633780273912 l -3.935906119550508 0.1734793814422073 a 66.9905294975652 66.9905294975652 0.0 0 1 8.889048735679173,-36.408676032680994 l 3.4131392563887033 1.9677226669932537 a 63.050802085966694 63.050802085966694 0.0 0 0 -8.36628187251737,34.267473984245534 z"/><path fill="#ff1609" d="M 33.07444717490888,102.94981718418133 l -6.7209254107592304 0.2962321629538457 a 73.71798011955846 73.71798011955846 0.0 0 1 9.78172172832877,-40.06497748393185 l 5.828252418109628 3.360069288297005 a 66.9905294975652 66.9905294975652 0.0 0 0 -8.889048735679168,36.408676032681 z"/><path fill="#f77997" d="M 26.353521764149647,103.24604934713517 l -1.2841078990125645 0.05659846481582052 a 75.00333473308967 75.00333473308967 0.0 0 1 9.9522768782582,-40.763554731524295 l 1.1135527490831407 0.6419787827766257 a 73.71798011955846 73.71798011955846 0.0 0 0 -9.781721728328776,40.06497748393185 z"/><path fill="#e4004c" d="M 25.06941386513708,103.30264781195099 l -3.117562342303714 0.13740998141798463 a 78.12392385393585 78.12392385393585 0.0 0 1 10.366351359939088,-42.45956339400436 l 2.703487860622829 1.5585986810620867 a 75.00333473308967 75.00333473308967 0.0 0 0 -9.952276878258203,40.763554731524295 z"/><path fill="#8b0823" d="M 21.951851522833365,103.44005779336898 l -13.776394362937928 0.6072096996204065 a 91.91369344093407 91.91369344093407 0.0 0 1 12.1961314024609,-49.95416385803836 l 11.946614320416117 6.887390764413595 a 78.12392385393585 78.12392385393585 0.0 0 0 -10.366351359939088,42.45956339400436 z"/><path fill="#000000" d="M 8.175457159895444,104.04726749298939 l -3.9456410711360976 0.17390846011637823 a 95.86316525558676 95.86316525558676 0.0 0 1 12.720191261428202,-52.100661891094234 l 3.421581212168789 1.9725895729394836 a 91.91369344093407 91.91369344093407 0.0 0 0 -12.196131402460892,49.95416385803837 z"/><path fill="#ff1609" d="M 4.2298160887593355,104.22117595310576 l -4.132822270436941 0.18215867688629175 a 100.0 100.0 0.0 0 1 13.269112518363139,-54.3489897837041 l 3.5839010135020146 2.0661692157235763 a 95.86316525558676 95.86316525558676 0.0 0 0 -12.720191261428212,52.100661891094234 z"/><path fill="#f05437" d="M 100.0,100.0 l -17.74570929455096 -10.230650377185817 a 20.483564277413358 20.483564277413358 0.0 0 1 2.0886615350443165,-2.976668085070349 l 15.657047759506643 13.207318462256167 z"/><path fill="#f95256" d="M 82.25429070544905,89.76934962281418 l -10.21742566679839 -5.890489245419822 a 32.27736141009955 32.27736141009955 0.0 0 1 3.2912476713995016,-4.690540683179254 l 9.014839530443204 7.604361843528727 a 20.483564277413358 20.483564277413358 0.0 0 0 -2.0886615350443165,2.976668085070349 z"/><path fill="#ff4134" d="M 72.03686503865066,83.87886037739435 l -0.40110064017899644 -0.23124014642777677 a 32.74034491830685 32.74034491830685 0.0 0 1 3.338457025780209,-4.757821368031265 l 0.3538912857982872 0.298520831279788 a 32.27736141009955 32.27736141009955 0.0 0 0 -3.2912476713995,4.690540683179254 z"/><path fill="#ff659b" d="M 71.63576439847166,83.64762023096657 l -26.259129231494907 -15.13875641247297 a 63.050802085966694 63.050802085966694 0.0 0 1 6.429144034071417,-9.16253186045042 l 23.168442223203698 19.543466904892124 a 32.74034491830685 32.74034491830685 0.0 0 0 -3.338457025780208,4.757821368031266 z"/><path fill="#ff8c5e" d="M 45.37663516697676,68.5088638184936 l -3.413139256388706 -1.9677226669932568 a 66.9905294975652 66.9905294975652 0.0 0 1 6.830868899515816,-9.73505237939709 l 3.01141439094431 2.5402431859399286 a 63.050802085966694 63.050802085966694 0.0 0 0 -6.42914403407142,9.162531860450418 z"/><path fill="#f05437" d="M 41.96349591058806,66.54114115150034 l -5.828252418109626 -3.3600692882970056 a 73.71798011955846 73.71798011955846 0.0 0 1 7.516851434233237,-10.712684362247622 l 5.142269883392203 4.337701271147537 a 66.9905294975652 66.9905294975652 0.0 0 0 -6.8308688995158136,9.73505237939709 z"/><path fill="#f95256" d="M 36.13524349247843,63.18107186320333 l -1.1135527490831365 -0.6419787827766267 a 75.00333473308967 75.00333473308967 0.0 0 1 7.647916062625799,-10.89947187658248 l 0.9824881206905758 0.8287662971114855 a 73.71798011955846 73.71798011955846 0.0 0 0 -7.516851434233239,10.712684362247622 z"/><path fill="#ff4134" d="M 35.0216907433953,62.539093080426696 l -2.7034878606228365 -1.5585986810620849 a 78.12392385393585 78.12392385393585 0.0 0 1 7.966115296661265,-11.35295535811129 l 2.385288626587368 2.012082162590893 a 75.00333473308967 75.00333473308967 0.0 0 0 -7.6479160626257965,10.899471876582481 z"/><path fill="#ff659b" d="M 32.318202882772454,60.980494399364616 l -11.946614320416117 -6.887390764413587 a 91.91369344093407 91.91369344093407 0.0 0 1 9.37222611426182,-13.356882334597174 l 10.540503502815568 8.891317740899474 a 78.12392385393585 78.12392385393585 0.0 0 0 -7.966115296661272,11.352955358111288 z"/><path fill="#ff8c5e" d="M 20.37158856235635,54.09310363495102 l -3.4215812121687934 -1.972589572939488 a 95.86316525558676 95.86316525558676 0.0 0 1 9.774944593882228,-13.93081890854221 l 3.018862732548385 2.546526146884524 a 91.91369344093407 91.91369344093407 0.0 0 0 -9.37222611426182,13.356882334597174 z"/><path fill="#f05437" d="M 16.950007350187548,52.12051406201153 l -3.5839010135020097 -2.0661692157235785 a 100.0 100.0 0.0 0 1 10.196768036837335,-14.531983031647654 l 3.1620775705468986 2.6673333388290175 a 95.86316525558676 95.86316525558676 0.0 0 0 -9.774944593882225,13.930818908542214 z"/><path fill="#fb4532" d="M 100.0,100.0 l -15.657047759506645 -13.207318462256165 a 20.483564277413358 20.483564277413358 0.0 0 1 15.8018298112079,-7.275734134083809 l -0.14478205170125646 20.483052596339974 z"/><path fill="#210014" d="M 84.34295224049336,86.79268153774383 l -9.014839530443206 -7.604361843528725 a 32.27736141009955 32.27736141009955 0.0 0 1 24.900030329177167,-11.464874813245949 l -0.08336098752605992 11.793502522690865 a 20.483564277413358 20.483564277413358 0.0 0 0 -15.8018298112079,7.275734134083809 z"/><path fill="#ff0744" d="M 75.32811271005016,79.1883196942151 l -0.3538912857982862 -0.2985208312797888 a 32.74034491830685 32.74034491830685 0.0 0 1 25.257194077780962,-11.629325924808413 l -0.0032724628055085248 0.46297194284225185 a 32.27736141009955 32.27736141009955 0.0 0 0 -24.900030329177167,11.464874813245949 z"/><path fill="#ffffff" d="M 74.97422142425187,78.88979886293532 l -23.1684422232037 -19.543466904892124 a 63.050802085966694 63.050802085966694 0.0 0 1 48.63987685586582,-22.395559029932652 l -0.21424055488115812 30.309700010016364 a 32.74034491830685 32.74034491830685 0.0 0 0 -25.257194077780962,11.629325924808413 z"/><path fill="#ca3402" d="M 51.805779201048175,59.34633195804319 l -3.0114143909443105 -2.5402431859399233 a 66.9905294975652 66.9905294975652 0.0 0 1 51.67913805169574,-23.7949448408855 l -0.027846804885605536 3.939628996892772 a 63.050802085966694 63.050802085966694 0.0 0 0 -48.63987685586582,22.39555902993265 z"/><path fill="#fb4532" d="M 48.794364810103865,56.80608877210326 l -5.142269883392204 -4.337701271147539 a 73.71798011955846 73.71798011955846 0.0 0 1 56.868958941864875,-26.184526139476795 l -0.04755100677693491 6.727282569738833 a 66.9905294975652 66.9905294975652 0.0 0 0 -51.67913805169574,23.7949448408855 z"/><path fill="#210014" d="M 43.65209492671166,52.46838750095572 l -0.982488120690572 -0.8287662971114824 a 75.00333473308967 75.00333473308967 0.0 0 1 57.86053221373277,-26.641082347635514 l -0.00908515117732378 1.2853225052702015 a 73.71798011955846 73.71798011955846 0.0 0 0 -56.868958941864875,26.184526139476795 z"/><path fill="#ff0744" d="M 42.66960680602109,51.639621203844236 l -2.385288626587371 -2.0120821625908936 a 78.12392385393585 78.12392385393585 0.0 0 1 60.26787780703325,-27.749511353325047 l -0.02205696671310875 3.12051116828043 a 75.00333473308967 75.00333473308967 0.0 0 0 -57.860532213732775,26.64108234763551 z"/><path fill="#ffffff" d="M 40.28431817943372,49.62753904125334 l -10.540503502815568 -8.891317740899476 a 91.91369344093407 91.91369344093407 0.0 0 1 70.90585024183028,-32.647618729876974 l -0.09746893198146722 13.789425117451401 a 78.12392385393585 78.12392385393585 0.0 0 0 -60.26787780703325,27.749511353325047 z"/><path fill="#ca3402" d="M 29.743814676618157,40.73622130035386 l -3.0188627325483885 -2.5465261468845237 a 95.86316525558676 95.86316525558676 0.0 0 1 73.95262865471231,-34.05046573952343 l -0.027915680333634896 3.9493731565309815 a 91.91369344093407 91.91369344093407 0.0 0 0 -70.9058502418303,32.647618729876974 z"/><path fill="#fb4532" d="M 26.724951944069772,38.18969515346934 l -3.1620775705469 -2.667333338829014 a 100.0 100.0 0.0 0 1 77.14394622537509,-35.51986380664499 l -0.029240000115876796 4.13673140595057 a 95.86316525558676 95.86316525558676 0.0 0 0 -73.95262865471231,34.05046573952343 z"/><path fill="#a00e00" d="M 100.0,100.0 l 0.14478205170125144 -20.483052596339974 a 20.483564277413358 20.483564277413358 0.0 0 1 6.087023611923645,0.9704668200329998 l -6.231805663624897 19.512585776306974 z"/><path fill="#cf2f0f" d="M 100.14478205170126,79.51694740366003 l 0.08336098752605708 -11.793502522690863 a 32.27736141009955 32.27736141009955 0.0 0 1 9.591741865477696,1.5292313321297986 l -3.5880792410801066 11.234738010594064 a 20.483564277413358 20.483564277413358 0.0 0 0 -6.087023611923645,-0.9704668200329998 z"/><path fill="#690314" d="M 100.22814303922732,67.72344488096917 l 0.0032724628055094025 -0.4629719428422493 a 32.74034491830685 32.74034491830685 0.0 0 1 9.729324930037247,1.551166485936652 l -0.14085552736506202 0.44103678903539745 a 32.27736141009955 32.27736141009955 0.0 0 0 -9.591741865477694,-1.5292313321298003 z"/><path fill="#150100" d="M 100.23141550203283,67.26047293812691 l 0.21424055488114777 -30.309700010016364 a 63.050802085966694 63.050802085966694 0.0 0 1 18.73656927330758,2.987210163827264 l -9.22148489815148 28.873656332125755 a 32.74034491830685 32.74034491830685 0.0 0 0 -9.729324930037247,-1.5511664859366547 z"/><path fill="#f9899e" d="M 100.44565605691399,36.950772928110545 l 0.027846804885605723 -3.9396289968927745 a 66.9905294975652 66.9905294975652 0.0 0 1 19.907323222872225,3.173865898207768 l -1.1986007544502506 3.7529732625122705 a 63.050802085966694 63.050802085966694 0.0 0 0 -18.73656927330758,-2.987210163827264 z"/><path fill="#a00e00" d="M 100.4735028617996,33.011143931217774 l 0.0475510067769339 -6.727282569738835 a 73.71798011955846 73.71798011955846 0.0 0 1 21.906494374412386,3.4925979081077143 l -2.0467221583170954 6.408550559838886 a 66.9905294975652 66.9905294975652 0.0 0 0 -19.907323222872225,-3.173865898207765 z"/><path fill="#cf2f0f" d="M 100.52105386857653,26.28386136147894 l 0.009085151177323225 -1.2853225052701969 a 75.00333473308967 75.00333473308967 0.0 0 1 22.28845836155337,3.5534952200947556 l -0.39104913831830856 1.2244251932831531 a 73.71798011955846 73.71798011955846 0.0 0 0 -21.906494374412386,-3.4925979081077116 z"/><path fill="#690314" d="M 100.53013901975386,24.99853885620874 l 0.022056966713107966 -3.1205111682804354 a 78.12392385393585 78.12392385393585 0.0 0 1 23.215792071861205,3.701341960033309 l -0.9493906770209435 2.9726644283418864 a 75.00333473308967 75.00333473308967 0.0 0 0 -22.28845836155337,-3.55349522009476 z"/><path fill="#150100" d="M 100.55219598646697,21.87802768792831 l 0.09746893198146266 -13.789425117451394 a 91.91369344093407 91.91369344093407 0.0 0 1 27.31364593861239,4.354671315161134 l -4.195322798732647 13.136095762323563 a 78.12392385393585 78.12392385393585 0.0 0 0 -23.215792071861205,-3.7013419600333037 z"/><path fill="#f9899e" d="M 100.64966491844844,8.088602570476908 l 0.02791568033363234 -3.949373156530992 a 95.86316525558676 95.86316525558676 0.0 0 1 28.48729559571463,4.541788718210096 l -1.20156533743587 3.7622557534820373 a 91.91369344093407 91.91369344093407 0.0 0 0 -27.313645938612392,-4.354671315161141 z"/><path fill="#a00e00" d="M 100.67758059878207,4.139229413945927 l 0.02924000011587845 -4.136731405950566 a 100.0 100.0 0.0 0 1 29.716623188649024,4.737782970237769 l -1.258567593050273 3.940737153922882 a 95.86316525558676 95.86316525558676 0.0 0 0 -28.487295595714627,-4.541788718210086 z"/><path fill="#fa5074" d="M 100.0,100.0 l 6.231805663624892 -19.512585776306977 a 20.483564277413358 20.483564277413358 0.0 1 1 -13.721848710655184,38.577623428002234 l 7.4900430470302926 -19.065037651695256 z"/><path fill="#fb404d" d="M 106.2318056636249,80.48741422369302 l 3.5880792410801035 -11.234738010594066 a 32.27736141009955 32.27736141009955 0.0 1 1 -21.62246101558139,60.78941520452963 l 4.312533063846104 -10.977053765933334 a 20.483564277413358 20.483564277413358 0.0 1 0 13.721848710655184,-38.577623428002234 z"/><path fill="#ff5e3f" d="M 109.819884904705,69.25267621309897 l 0.14085552736506102 -0.4410367890353944 a 32.74034491830685 32.74034491830685 0.0 1 1 -21.9326116109128,61.66137299425333 l 0.16929506796634541 -0.43092100068830064 a 32.27736141009955 32.27736141009955 0.0 1 0 21.622461015581393,-60.78941520452963 z"/><path fill="#de0009" d="M 109.96074043207007,68.81163942406357 l 9.221484898151475 -28.873656332125762 a 63.050802085966694 63.050802085966694 0.0 1 1 -42.237452212508714,118.74642844204628 l 11.08335570344444 -28.211399115667184 a 32.74034491830685 32.74034491830685 0.0 1 0 21.9326116109128,-61.661372994253334 z"/><path fill="#fda07c" d="M 119.18222533022156,39.93798309193781 l 1.19860075445025 -3.752973262512271 a 66.9905294975652 66.9905294975652 0.0 1 1 -44.8766581031938,126.1662953380247 l 1.4406051362348364 -3.6668936334661453 a 63.050802085966694 63.050802085966694 0.0 1 0 42.237452212508714,-118.74642844204628 z"/><path fill="#fa5074" d="M 120.38082608467181,36.18500982942554 l 2.046722158317093 -6.408550559838884 a 73.71798011955846 73.71798011955846 0.0 1 1 -49.38334738798715,138.83640749286636 l 2.4599671264762506 -6.2615615950027745 a 66.9905294975652 66.9905294975652 0.0 1 0 44.876658103193805,-126.1662953380247 z"/><path fill="#fb404d" d="M 122.4275482429889,29.776459269586653 l 0.39104913831830895 -1.2244251932831496 a 75.00333473308967 75.00333473308967 0.0 1 1 -50.244400733369346,141.2571739952533 l 0.47000420706388724 -1.1963413091038149 a 73.71798011955846 73.71798011955846 0.0 1 0 49.38334738798715,-138.83640749286636 z"/><path fill="#ff5e3f" d="M 122.81859738130721,28.5520340763035 l 0.9493906770209408 -2.972664428341893 a 78.12392385393585 78.12392385393585 0.0 1 1 -52.334869522123284,147.13432068452698 l 1.1410781117329947 -2.904482260931786 a 75.00333473308967 75.00333473308967 0.0 1 0 50.244400733369346,-141.2571739952533 z"/><path fill="#de0009" d="M 123.76798805832814,25.579369647961613 l 4.195322798732643 -13.136095762323565 a 91.91369344093407 91.91369344093407 0.0 1 1 -61.572574907031914,173.105217696466 l 5.0423825861759966 -12.834801249615452 a 78.12392385393585 78.12392385393585 0.0 1 0 52.33486952212328,-147.13432068452698 z"/><path fill="#fda07c" d="M 127.9633108570608,12.44327388563805 l 1.201565337435872 -3.762255753482036 a 95.86316525558676 95.86316525558676 0.0 1 1 -64.21830853003323,180.5434366676235 l 1.4441682855654463 -3.6759632176754735 a 91.91369344093407 91.91369344093407 0.0 1 0 61.572574907031914,-173.10521769646599 z"/><path fill="#fa5074" d="M 129.16487619449669,8.681018132156012 l 1.2585675930502707 -3.9407371539228757 a 100.0 100.0 0.0 1 1 -66.98955574731629,188.33452472205082 l 1.5126796242327885 -3.850350900504452 a 95.86316525558676 95.86316525558676 0.0 1 0 64.21830853003323,-180.5434366676235 z"/></g></svg>