<?xml version='1.0' encoding='UTF-8'?>
<svg xmlns="http://www.w3.org/2000/svg" xmlns:svg="http://www.w3.org/2000/svg"><g><path fill="#0034b1" d="M 100.0,100.0 l -7.905626172975225 -4.488396474504304 a 9.090909090909092 9.090909090909092 0.0 0 1 2.363139038293199,-2.7175361133747833 l 5.542487134682026 7.205932587879087 z"/><path fill="#9060ff" d="M 100.0,100.0 l -5.542487134682026 -7.205932587879087 a 9.090909090909092 9.090909090909092 0.0 0 1 5.919610745876245,-1.8771509128409951 l -0.37712361119421905 9.083083500720083 z"/><path fill="#070083" d="M 100.0,100.0 l 0.37712361119421905 -9.083083500720083 a 9.090909090909092 9.090909090909092 0.0 0 1 1.2145416194433531,0.13259581050157543 l -1.5916652306375723 8.950487690218507 z"/><path fill="#2267eb" d="M 100.0,100.0 l 1.5916652306375723 -8.950487690218507 a 9.090909090909092 9.090909090909092 0.0 0 1 6.098266334834369,4.101819768249441 l -7.689931565471941 4.848667921969066 z"/><path fill="#001dc4" d="M 100.0,100.0 l 7.689931565471941 -4.848667921969066 a 9.090909090909092 9.090909090909092 0.0 0 1 -10.446664377499628,13.511522665196814 l 2.7567328120276873 -8.662854743227747 z"/><path fill="#0b00f4" d="M 100.0,100.0 l -2.7567328120276855 8.662854743227749 a 9.090909090909092 9.090909090909092 0.0 0 1 -1.8844222698188107,-0.8459303093199981 l 4.641155081846496 -7.816924433907751 z"/><path fill="#0015ea" d="M 100.0,100.0 l -4.641155081846494 7.816924433907752 a 9.090909090909092 9.090909090909092 0.0 0 1 -3.912676781067579,-4.738517612162203 l 8.553831862914073 -3.078406821745549 z"/><path fill="#2c00b0" d="M 100.0,100.0 l -8.553831862914071 3.0784068217455514 a 9.090909090909092 9.090909090909092 0.0 0 1 -0.41241827209064574,-1.578077985889402 l 8.966250135004717 -1.5003288358561493 z"/><path fill="#171d4c" d="M 100.0,100.0 l -8.966250135004715 1.5003288358561513 a 9.090909090909092 9.090909090909092 0.0 0 1 -0.023035532005785342,-2.855825533031446 l 8.9892856670105 1.3554966971752949 z"/><path fill="#3500b0" d="M 100.0,100.0 l -8.9892856670105 -1.3554966971752929 a 9.090909090909092 9.090909090909092 0.0 0 1 0.08360488077384254,-0.47028473356300493 l 8.905680786236658 1.8257814307382978 z"/><path fill="#0034b1" d="M 100.0,100.0 l -8.905680786236658 -1.8257814307382956 a 9.090909090909092 9.090909090909092 0.0 0 1 1.000054613261435,-2.66261504376601 l 7.905626172975223 4.488396474504306 z"/><path fill="#0034b1" d="M 108.59580116163092,97.04080577033577 l 8.59580116163092 -2.959194229664233 a 18.181818181818183 18.181818181818183 0.0 0 1 0.9491432386398664,7.139806837705764 l -9.070372780950853 -0.6107091891886496 a 9.090909090909092 9.090909090909092 0.0 0 0 -0.4745716193199332,-3.569903418852882 z"/><path fill="#9060ff" d="M 109.07037278095085,100.61070918918865 l 9.070372780950853 0.610709189188655 a 18.181818181818183 18.181818181818183 0.0 0 1 -5.0168087285259055,11.361935482587429 l -6.5619684166879 -6.291676930482369 a 9.090909090909092 9.090909090909092 0.0 0 0 2.5084043642629528,-5.680967741293715 z"/><path fill="#070083" d="M 106.5619684166879,106.29167693048237 l 6.561968416687903 6.291676930482368 a 18.181818181818183 18.181818181818183 0.0 0 1 -1.8058168688267298,1.646146230913752 l -5.659059982274538 -7.114750045939244 a 9.090909090909092 9.090909090909092 0.0 0 0 0.9029084344133649,-0.823073115456876 z"/><path fill="#2267eb" d="M 105.65905998227454,107.11475004593923 l 5.659059982274541 7.114750045939242 a 18.181818181818183 18.181818181818183 0.0 0 1 -14.220510154007577,3.7191668108424354 l 1.451195094729247 -8.974333451360458 a 9.090909090909092 9.090909090909092 0.0 0 0 7.110255077003789,-1.8595834054212181 z"/><path fill="#001dc4" d="M 98.54880490527076,108.97433345136047 l -1.4511950947292456 8.97433345136046 a 18.181818181818183 18.181818181818183 0.0 0 1 -6.442845177539592,-33.544983401564565 l 4.672617683499041 7.7981582494218245 a 9.090909090909092 9.090909090909092 0.0 0 0 3.2214225887697956,16.772491700782282 z"/><path fill="#0b00f4" d="M 95.32738231650096,92.20184175057818 l -4.672617683499043 -7.798158249421822 a 18.181818181818183 18.181818181818183 0.0 0 1 3.7619961557910875,-1.707034399382251 l 2.791619605603499 8.651675449112947 a 9.090909090909092 9.090909090909092 0.0 0 0 -1.8809980778955437,0.853517199691125 z"/><path fill="#0015ea" d="M 97.2083803943965,91.34832455088706 l -2.791619605603502 -8.651675449112947 a 18.181818181818183 18.181818181818183 0.0 0 1 12.283703984858402,0.40121244731528094 l -3.3502323868256987 8.451069225455306 a 9.090909090909092 9.090909090909092 0.0 0 0 -6.141851992429201,-0.20060622365764047 z"/><path fill="#2c00b0" d="M 103.3502323868257,91.54893077454469 l 3.350232386825697 -8.451069225455306 a 18.181818181818183 18.181818181818183 0.0 0 1 2.912484804108894,1.4693903867409475 l -4.806474788880144 7.716374032084833 a 9.090909090909092 9.090909090909092 0.0 0 0 -1.456242402054447,-0.7346951933704737 z"/><path fill="#171d4c" d="M 104.80647478888015,92.28362596791517 l 4.806474788880142 -7.716374032084834 a 18.181818181818183 18.181818181818183 0.0 0 1 4.313675658294723,3.7439661801934747 l -6.963312618027503 5.844390941988097 a 9.090909090909092 9.090909090909092 0.0 0 0 -2.1568378291473618,-1.8719830900967374 z"/><path fill="#3500b0" d="M 106.9633126180275,94.1556090580119 l 6.963312618027502 -5.8443909419881 a 18.181818181818183 18.181818181818183 0.0 0 1 0.5947212468049035,0.7476206694877447 l -7.260673241429954 5.470580607244227 a 9.090909090909092 9.090909090909092 0.0 0 0 -0.29736062340245173,-0.3738103347438724 z"/><path fill="#0034b1" d="M 107.26067324142996,94.52941939275577 l 7.260673241429951 -5.47058060724423 a 18.181818181818183 18.181818181818183 0.0 0 1 2.6702558404019365,5.022772755159997 l -8.59580116163092 2.9591942296642313 a 9.090909090909092 9.090909090909092 0.0 0 0 -1.3351279202009687,-2.5113863775799987 z"/><path fill="#0034b1" d="M 117.80669493174386,96.32574796666019 l 8.903347465871926 -1.8371260166699057 a 27.27272727272727 27.27272727272727 0.0 0 1 0.044238153443918904,10.803837316527524 l -8.918093517019898 -1.764153088839267 a 18.181818181818183 18.181818181818183 0.0 0 0 -0.02949210229594712,-7.202558211018351 z"/><path fill="#9060ff" d="M 117.83618703403981,103.52830617767853 l 8.9180935170199 1.7641530888392651 a 27.27272727272727 27.27272727272727 0.0 0 1 -9.640262852267165,15.942230538091483 l -5.704672566264181 -7.078229934869755 a 18.181818181818183 18.181818181818183 0.0 0 0 6.426841901511446,-10.628153692060993 z"/><path fill="#070083" d="M 111.40934513252836,114.15645986973952 l 5.704672566264179 7.078229934869759 a 27.27272727272727 27.27272727272727 0.0 0 1 -3.0019049341874933,2.1030462940707455 l -4.704037588201681 -7.779245366226673 a 18.181818181818183 18.181818181818183 0.0 0 0 2.001269956124995,-1.402030862713831 z"/><path fill="#2267eb" d="M 109.40807517640337,115.55849073245335 l 4.704037588201682 7.779245366226673 a 27.27272727272727 27.27272727272727 0.0 0 1 -21.868582785410208,2.8087517287302255 l 2.5854900069350535 -8.715495942470081 a 18.181818181818183 18.181818181818183 0.0 0 0 14.579055190273472,-1.8725011524868176 z"/><path fill="#001dc4" d="M 94.82901998612991,117.43099188494017 l -2.585490006935051 8.715495942470081 a 27.27272727272727 27.27272727272727 0.0 0 1 -3.158701452369286,-51.139700598155855 l 3.6383904910581446 8.331070923581862 a 18.181818181818183 18.181818181818183 0.0 0 0 2.105800968246192,34.09313373210391 z"/><path fill="#0b00f4" d="M 92.72321901788371,83.33785815283626 l -3.638390491058146 -8.331070923581862 a 27.27272727272727 27.27272727272727 0.0 0 1 5.923808653807596,-1.818873125320085 l 1.6637876064556147 8.937361965355223 a 18.181818181818183 18.181818181818183 0.0 0 0 -3.949205769205064,1.2125820835467245 z"/><path fill="#0015ea" d="M 96.67242478708877,82.12527606928954 l -1.6637876064556152 -8.937361965355223 a 27.27272727272727 27.27272727272727 0.0 0 1 18.197798739311754,2.950155898998158 l -4.4021453066483005 7.95397666568917 a 18.181818181818183 18.181818181818183 0.0 0 0 -12.13186582620784,-1.966770599332106 z"/><path fill="#2c00b0" d="M 108.80429061329662,84.09204666862166 l 4.4021453066483005 -7.95397666568917 a 27.27272727272727 27.27272727272727 0.0 0 1 4.051449620571363,2.743998290505882 l -5.752628513505421 7.039310568853876 a 18.181818181818183 18.181818181818183 0.0 0 0 -2.7009664137142426,-1.829332193670588 z"/><path fill="#171d4c" d="M 111.50525702701086,85.92137886229224 l 5.752628513505421 -7.039310568853876 a 27.27272727272727 27.27272727272727 0.0 0 1 5.700268840072791,6.396355692778293 l -7.652718126863018 4.907192004594446 a 18.181818181818183 18.181818181818183 0.0 0 0 -3.800179226715194,-4.264237128518863 z"/><path fill="#3500b0" d="M 115.30543625372604,90.1856159908111 l 7.652718126863017 -4.907192004594446 a 27.27272727272727 27.27272727272727 0.0 0 1 0.7415498907717444,1.2261816015179434 l -7.899901423786931 4.498464804088465 a 18.181818181818183 18.181818181818183 0.0 0 0 -0.49436659384783077,-0.8174544010119629 z"/><path fill="#0034b1" d="M 115.79980284757387,91.00307039182306 l 7.899901423786932 -4.498464804088465 a 27.27272727272727 27.27272727272727 0.0 0 1 3.0103381262549744,7.984016362255658 l -8.903347465871924 1.837126016669914 a 18.181818181818183 18.181818181818183 0.0 0 0 -2.0068920841699818,-5.3226775748371065 z"/><path fill="#0034b1" d="M 84.37142654273232,77.64939945810515 l -5.209524485755899 -7.45020018063162 a 36.36363636363637 36.36363636363637 0.0 0 1 13.206576319822943,-5.7530166154387805 l 1.907880405800161 8.888454334491314 a 27.27272727272727 27.27272727272727 0.0 0 0 -9.904932239867206,4.314762461579086 z"/><path fill="#9060ff" d="M 94.27635878259953,73.33463699652607 l -1.9078804058001606 -8.888454334491316 a 36.36363636363637 36.36363636363637 0.0 0 1 24.607243292008537,3.39578687262202 l -4.243930417201977 8.039507616335811 a 27.27272727272727 27.27272727272727 0.0 0 0 -18.4554324690064,-2.5468401544665156 z"/><path fill="#070083" d="M 112.73179125160596,75.8814771509926 l 4.243930417201978 -8.03950761633581 a 36.36363636363637 36.36363636363637 0.0 0 1 4.15875432173459,2.566680813933944 l -5.2836189976356245 7.397837412852322 a 27.27272727272727 27.27272727272727 0.0 0 0 -3.1190657413009433,-1.9250106104504567 z"/><path fill="#2267eb" d="M 115.85085699290687,77.80648776144305 l 5.283618997635626 -7.397837412852324 a 36.36363636363637 36.36363636363637 0.0 0 1 14.974789394622219,25.297749421937233 l -9.02731634629118 1.073400057368012 a 27.27272727272727 27.27272727272727 0.0 0 0 -11.231092045966665,-18.97331206645292 z"/><path fill="#001dc4" d="M 127.08194903887353,96.77979982789597 l 9.027316346291183 -1.0734000573680125 a 36.36363636363637 36.36363636363637 0.0 0 1 -60.95729975928751,30.843350460485322 l 6.2120085935306975 -6.637437557753323 a 27.27272727272727 27.27272727272727 0.0 0 0 45.717974819465624,-23.132512845363987 z"/><path fill="#0b00f4" d="M 81.36397421940791,119.91231267325995 l -6.212008593530699 6.637437557753325 a 36.36363636363637 36.36363636363637 0.0 0 1 -5.352023781569981,-6.294614166805966 l 7.550014538923197 -5.063784016051832 a 27.27272727272727 27.27272727272727 0.0 0 0 4.014017836177484,4.720960625104473 z"/><path fill="#0015ea" d="M 77.34995638323043,115.1913520481555 l -7.550014538923195 5.063784016051835 a 36.36363636363637 36.36363636363637 0.0 0 1 -5.986403030845443,-23.84039426717419 l 9.046615296634556 0.8963145507417174 a 27.27272727272727 27.27272727272727 0.0 0 0 4.489802273134082,17.88029570038064 z"/><path fill="#2c00b0" d="M 72.86015411009635,97.31105634777485 l -9.046615296634556 -0.8963145507417142 a 36.36363636363637 36.36363636363637 0.0 0 1 1.2231091615214638,-6.4086431754506386 l 8.740838006254194 2.4984753446043744 a 27.27272727272727 27.27272727272727 0.0 0 0 -0.9173318711411014,4.806482381587978 z"/><path fill="#171d4c" d="M 73.77748598123745,92.50457396618688 l -8.74083800625419 -2.4984753446043726 a 36.36363636363637 36.36363636363637 0.0 0 1 4.825903120417909,-10.354273554717725 l 7.534362226149714 5.087043733283806 a 27.27272727272727 27.27272727272727 0.0 0 0 -3.6194273403134325,7.765705166038292 z"/><path fill="#3500b0" d="M 77.39691332155088,84.7388688001486 l -7.534362226149713 -5.087043733283803 a 36.36363636363637 36.36363636363637 0.0 0 1 1.110373643701311,-1.5548602762819694 l 7.256768815224383 5.475758802354296 a 27.27272727272727 27.27272727272727 0.0 0 0 -0.8327802327759812,1.1661452072114766 z"/><path fill="#0034b1" d="M 78.22969355432687,83.57272359293712 l -7.256768815224386 -5.475758802354293 a 36.36363636363637 36.36363636363637 0.0 0 1 8.188977317873903,-7.897765513109269 l 5.20952448575591 7.450200180631612 a 27.27272727272727 27.27272727272727 0.0 0 0 -6.141732988405426,5.923324134831951 z"/><path fill="#0034b1" d="M 119.54213758353919,130.66625031288962 l 4.88553439588479 7.666562578222401 a 45.45454545454545 45.45454545454545 0.0 0 1 -16.801173544442317,6.477367024846376 l -1.5252996869963287 -8.962035983191676 a 36.36363636363637 36.36363636363637 0.0 0 0 13.440938835553856,-5.181893619877101 z"/><path fill="#9060ff" d="M 106.10119874798531,135.84814393276673 l 1.5252996869963291 8.962035983191674 a 45.45454545454545 45.45454545454545 0.0 0 1 -30.548941602762117,-5.558717501174234 l 4.5844886335560915 -7.850292482956824 a 36.36363636363637 36.36363636363637 0.0 0 0 24.439153282209695,4.4469740009393846 z"/><path fill="#070083" d="M 81.66204546577562,131.40116993182733 l -4.584488633556091 7.850292482956828 a 45.45454545454545 45.45454545454545 0.0 0 1 -5.05620640888455,-3.428133837647149 l 5.595729915332999 -7.1646657154274 a 36.36363636363637 36.36363636363637 0.0 0 0 4.044965127107641,2.742507070117721 z"/><path fill="#2267eb" d="M 77.61708033866799,128.65866286170962 l -5.595729915333 7.164665715427399 a 45.45454545454545 45.45454545454545 0.0 0 1 -17.346434902376046,-32.39514838246664 l 9.065016895808206 -0.6856360389340743 a 36.36363636363637 36.36363636363637 0.0 0 0 13.87714792190084,25.91611870597331 z"/><path fill="#001dc4" d="M 63.73993241676713,102.74254415573631 l -9.065016895808208 0.6856360389340748 a 45.45454545454545 45.45454545454545 0.0 0 1 77.77852150697021,-35.25411502074543 l -6.490687405585831 6.36518696521501 a 36.36363636363637 36.36363636363637 0.0 0 0 -62.22281720557616,28.203292016596343 z"/><path fill="#0b00f4" d="M 125.96274962234328,74.53925213913993 l 6.490687405585825 -6.365186965215007 a 45.45454545454545 45.45454545454545 0.0 0 1 6.346767874193477,8.147678935223656 l -7.760040980424517 4.735651178170276 a 36.36363636363637 36.36363636363637 0.0 0 0 -5.0774142993547855,-6.518143148178925 z"/><path fill="#0015ea" d="M 131.04016392169808,81.05739528731888 l 7.76004098042452 -4.735651178170277 a 45.45454545454545 45.45454545454545 0.0 0 1 6.199320372655574,30.09373931175877 l -8.999905054955633 -1.2830966841814764 a 36.36363636363637 36.36363636363637 0.0 0 0 -4.959456298124461,-24.07499144940702 z"/><path fill="#2c00b0" d="M 135.99962021982253,105.13238673672589 l 8.999905054955635 1.2830966841814726 a 45.45454545454545 45.45454545454545 0.0 0 1 -1.8707080289909488,7.93794214440015 l -8.625763449157446 -2.8706851130615005 a 36.36363636363637 36.36363636363637 0.0 0 0 1.4965664231927605,-6.350353715520122 z"/><path fill="#171d4c" d="M 134.50305379662979,111.48274045224598 l 8.625763449157446 2.8706851130615 a 45.45454545454545 45.45454545454545 0.0 0 1 -6.581379785223419,12.672497500251513 l -7.3094874921127655 -5.405184613111803 a 36.36363636363637 36.36363636363637 0.0 0 0 5.265103828178738,-10.13799800020121 z"/><path fill="#3500b0" d="M 129.23794996845103,121.62073845244724 l 7.309487492112763 5.405184613111799 a 45.45454545454545 45.45454545454545 0.0 0 1 -1.469965632489889,1.8823226894157843 l -7.015494365614785 -5.781649150994955 a 36.36363636363637 36.36363636363637 0.0 0 0 1.1759725059919113,-1.5058581515326281 z"/><path fill="#0034b1" d="M 128.06197746245917,123.1265966039798 l 7.015494365614785 5.781649150994954 a 45.45454545454545 45.45454545454545 0.0 0 1 -10.649799848649959,9.424567136137227 l -4.885534395884793 -7.6665625782224005 a 36.36363636363637 36.36363636363637 0.0 0 0 8.519839878919967,-7.539653708909782 z"/><path fill="#0034b1" d="M 77.22704206398971,60.6616206571236 l -4.554591587202058 -7.867675868575275 a 54.54545454545454 54.54545454545454 0.0 0 1 20.474151804771072,-6.90713681492126 l 1.1422329530735453 9.018865337728819 a 45.45454545454545 45.45454545454545 0.0 0 0 -17.06179317064256,5.755947345767716 z"/><path fill="#9060ff" d="M 94.28883523463227,54.90567331135589 l -1.1422329530735473 -9.018865337728819 a 54.54545454545454 54.54545454545454 0.0 0 1 36.34138158495112,8.225661922229136 l -4.914663977751637 7.647921684023963 a 45.45454545454545 45.45454545454545 0.0 0 0 -30.28448465412594,-6.85471826852428 z"/><path fill="#070083" d="M 124.57331988875816,61.76039157988015 l 4.914663977751638 -7.647921684023963 a 54.54545454545454 54.54545454545454 0.0 0 1 5.886742261816962,4.368433739746351 l -5.895787688054465 6.91984939406624 a 45.45454545454545 45.45454545454545 0.0 0 0 -4.905618551514134,-3.640361449788628 z"/><path fill="#2267eb" d="M 129.47893844027234,65.4007530296688 l 5.8957876880544635 -6.919849394066237 a 54.54545454545454 54.54545454545454 0.0 0 1 19.141228902183784,39.72542452105627 l -9.085992505085095 0.2989453072235264 a 45.45454545454545 45.45454545454545 0.0 0 0 -15.951024085153154,-33.104520434213555 z"/><path fill="#001dc4" d="M 145.42996252542548,98.50527346388236 l 9.085992505085093 -0.2989453072235285 a 54.54545454545454 54.54545454545454 0.0 0 1 -95.0512607589314,38.291556728272525 l 6.755884288070121 -6.082980814155228 a 45.45454545454545 45.45454545454545 0.0 0 0 79.2093839657762,-31.90963060689377 z"/><path fill="#0b00f4" d="M 66.22057855964931,130.41490407077612 l -6.755884288070135 6.082980814155223 a 54.54545454545454 54.54545454545454 0.0 0 1 -7.192810886115737,-10.092705544516974 l 7.954686102422755 -4.400863223402396 a 45.45454545454545 45.45454545454545 0.0 0 0 5.9940090717631165,8.410587953764146 z"/><path fill="#0015ea" d="M 60.2265694878862,122.004316117012 l -7.954686102422756 4.400863223402397 a 54.54545454545454 54.54545454545454 0.0 0 1 -5.894445460168995,-36.39654802116067 l 8.937093679117588 1.6652281134577152 a 45.45454545454545 45.45454545454545 0.0 0 0 4.912037883474163,30.330456684300557 z"/><path fill="#2c00b0" d="M 55.31453160441204,91.67385943271142 l -8.937093679117588 -1.6652281134577098 a 54.54545454545454 54.54545454545454 0.0 0 1 2.6484942358100767,-9.421282336719887 l 8.495677973149242 3.2354418362443553 a 45.45454545454545 45.45454545454545 0.0 0 0 -2.2070785298417306,7.851068613933242 z"/><path fill="#171d4c" d="M 57.52161013425377,83.8227908187782 l -8.495677973149244 -3.2354418362443544 a 54.54545454545454 54.54545454545454 0.0 0 1 8.538138578163009,-14.856847364452978 l 7.072654876788739 5.71158306365318 a 45.45454545454545 45.45454545454545 0.0 0 0 -7.115115481802505,12.380706137044154 z"/><path fill="#3500b0" d="M 64.63672561605627,71.44208468173406 l -7.072654876788745 -5.7115830636531815 a 54.54545454545454 54.54545454545454 0.0 0 1 1.858557439670042,-2.181612817405055 l 6.762895303510405 6.075185199887358 a 45.45454545454545 45.45454545454545 0.0 0 0 -1.548797866391702,1.818010681170879 z"/><path fill="#0034b1" d="M 66.18552348244796,69.6240740005632 l -6.7628953035104065 -6.075185199887355 a 54.54545454545454 54.54545454545454 0.0 0 1 13.249822297850104,-10.754944012127524 l 4.554591587202054 7.867675868575276 a 45.45454545454545 45.45454545454545 0.0 0 0 -11.041518581541752,8.962453343439602 z"/><path fill="#0034b1" d="M 154.5435962495692,100.45024408294921 l 9.0905993749282 0.07504068049152562 a 63.63636363636363 63.63636363636363 0.0 0 1 -5.197025575264856,24.667649434397124 l -8.348167149890365 -3.598990599691117 a 54.54545454545454 54.54545454545454 0.0 0 0 4.454593350227022,-21.143699515197532 z"/><path fill="#9060ff" d="M 150.08900289934218,121.59394359814668 l 8.348167149890363 3.5989905996911142 a 63.63636363636363 63.63636363636363 0.0 0 1 -29.809271341718436,31.64042037895819 l -4.0896998153591575 -8.119050653827994 a 54.54545454545454 54.54545454545454 0.0 0 0 25.55080400718723,-27.12036032482131 z"/><path fill="#070083" d="M 124.53819889215495,148.71430392296799 l 4.089699815359157 8.119050653828001 a 63.63636363636363 63.63636363636363 0.0 0 1 -7.8792963452329365,3.3254542284940705 l -2.9640860517544496 -8.594115543612865 a 54.54545454545454 54.54545454545454 0.0 0 0 6.7536825816282295,-2.8503893387092063 z"/><path fill="#2267eb" d="M 117.78451631052673,151.56469326167718 l 2.9640860517544514 8.594115543612869 a 63.63636363636363 63.63636363636363 0.0 0 1 -51.26444620962488,-4.316440919033322 l 4.359406263906251 -7.9774811266081045 a 54.54545454545454 54.54545454545454 0.0 0 0 43.94095389396418,3.699806502028558 z"/><path fill="#001dc4" d="M 73.8435624165625,147.8648867596486 l -4.359406263906248 7.977481126608109 a 63.63636363636363 63.63636363636363 0.0 0 1 17.87198173895525,-118.209983904857 l 1.8062660154840682 8.909659431228619 a 54.54545454545454 54.54545454545454 0.0 0 0 -15.318841490533067,101.32284334702027 z"/><path fill="#0b00f4" d="M 89.1624039070956,46.54204341262836 l -1.8062660154840688 -8.90965943122861 a 63.63636363636363 63.63636363636363 0.0 0 1 14.405456967868265,-1.244360529928402 l -0.25165640849711224 9.087425221218382 a 54.54545454545454 54.54545454545454 0.0 0 0 -12.347534543887084,1.0665947399386297 z"/><path fill="#0015ea" d="M 101.50993845098269,45.47544867268974 l 0.2516564084971125 -9.08742522121838 a 63.63636363636363 63.63636363636363 0.0 0 1 40.066541129383474,15.65372578229796 l -5.975447998409038 6.851178680890101 a 54.54545454545454 54.54545454545454 0.0 0 0 -34.34274953947155,-13.41747924196968 z"/><path fill="#2c00b0" d="M 135.85268799045423,58.892927914659424 l 5.975447998409039 -6.8511786808901 a 63.63636363636363 63.63636363636363 0.0 0 1 7.8966668466441226,8.24640417318718 l -7.1035432622153465 5.67312094186336 a 54.54545454545454 54.54545454545454 0.0 0 0 -6.768571582837815,-7.068346434160439 z"/><path fill="#171d4c" d="M 142.62125957329206,65.9612743488199 l 7.103543262215342 -5.67312094186336 a 63.63636363636363 63.63636363636363 0.0 0 1 9.866961794140796,17.386785222822894 l -8.513109232806883 3.189294481460088 a 54.54545454545454 54.54545454545454 0.0 0 0 -8.457395823549255,-14.902958762419622 z"/><path fill="#3500b0" d="M 151.07865539684127,80.86423311123944 l 8.513109232806885 -3.189294481460088 a 63.63636363636363 63.63636363636363 0.0 0 1 1.0903502077321772,3.160831259869532 l -8.668873548197197 2.737747158621584 a 54.54545454545454 54.54545454545454 0.0 0 0 -0.9345858923418646,-2.709283937031028 z"/><path fill="#0034b1" d="M 152.01324128918318,83.57351704827056 l 8.668873548197196 -2.737747158621583 a 63.63636363636363 63.63636363636363 0.0 0 1 2.952080787117021,19.689514873791715 l -9.090599374928196 -0.07504068049151869 a 54.54545454545454 54.54545454545454 0.0 0 0 -2.5303549603860205,-16.876727034678613 z"/><path fill="#0034b1" d="M 95.10549356949801,163.44785720307092 l -0.6992152043574212 9.063979600438714 a 72.72727272727273 72.72727272727273 0.0 0 1 -27.71710161586614,-7.861660835411655 l 4.1638529063406935 -8.081271996012262 a 63.63636363636363 63.63636363636363 0.0 0 0 24.25246391388287,6.8789532309852035 z"/><path fill="#9060ff" d="M 70.85302965561526,156.56890397208576 l -4.163852906340685 8.081271996012259 a 72.72727272727273 72.72727272727273 0.0 0 1 -33.73528626319411,-36.47083251594121 l 8.380763689239949 -3.522417931519602 a 63.63636363636363 63.63636363636363 0.0 0 0 29.51837548029485,31.91197845144855 z"/><path fill="#070083" d="M 41.334654175320416,124.65692552063723 l -8.380763689239954 3.5224179315196036 a 72.72727272727273 72.72727272727273 0.0 0 1 -3.173078346486074,-9.244670110053198 l 8.777398482550716 -2.3668341677629527 a 63.63636363636363 63.63636363636363 0.0 0 0 2.776443553175312,8.089086346296547 z"/><path fill="#2267eb" d="M 38.5582106221451,116.56783917434069 l -8.777398482550714 2.366834167762953 a 72.72727272727273 72.72727272727273 0.0 0 1 8.945306625430126,-58.110784388878336 l 7.659235154371949 4.897013880846856 a 63.63636363636363 63.63636363636363 0.0 0 0 -7.827143297251361,50.84693634026853 z"/><path fill="#001dc4" d="M 46.38535391939647,65.72090283407209 l -7.659235154371946 -4.8970138808468455 a 72.72727272727273 72.72727272727273 0.0 0 1 133.37529719851577,29.655501066334974 l -9.012676995442533 1.1900762475549698 a 63.63636363636363 63.63636363636363 0.0 0 0 -116.70338504870129,-25.9485634330431 z"/><path fill="#0b00f4" d="M 163.08873896809774,91.66946626711528 l 9.012676995442542 -1.19007624755497 a 72.72727272727273 72.72727272727273 0.0 0 1 0.2880463725283047,16.522177022325206 l -9.048682792008577 -0.8751958802356832 a 63.63636363636363 63.63636363636363 0.0 0 0 -0.25204057596226903,-14.456904894534553 z"/><path fill="#0015ea" d="M 163.34077954406,106.12637116164976 l 9.04868279200858 0.8751958802356804 a 72.72727272727273 72.72727272727273 0.0 0 1 -20.992655368857765,44.45350493282254 l -6.424600870901358 -6.431883996838501 a 63.63636363636363 63.63636363636363 0.0 0 0 18.368573447750542,-38.89681681621972 z"/><path fill="#2c00b0" d="M 144.9722060963095,145.02318797786947 l 6.424600870901361 6.4318839968385015 a 72.72727272727273 72.72727272727273 0.0 0 1 -10.022037597905811,8.356169928331703 l -5.171846171163132 -7.476405237879966 a 63.63636363636363 63.63636363636363 0.0 0 0 8.769282898167582,-7.311648687290237 z"/><path fill="#171d4c" d="M 136.20292319814186,152.33483666515974 l 5.171846171163134 7.476405237879964 a 72.72727272727273 72.72727272727273 0.0 0 1 -20.598174146313013,9.885166105458554 l -2.5970744028740036 -8.712051001062278 a 63.63636363636363 63.63636363636363 0.0 0 0 18.02340237802388,-8.64952034227624 z"/><path fill="#3500b0" d="M 118.17952082011809,160.9843570074359 l 2.597074402874007 8.712051001062283 a 72.72727272727273 72.72727272727273 0.0 0 1 -3.689432993210289,0.9950701574039886 l -2.135895278722723 -8.836434770737775 a 63.63636363636363 63.63636363636363 0.0 0 0 3.228253869059005,-0.8706863877284974 z"/><path fill="#0034b1" d="M 114.951266951059,161.85504339516444 l 2.135895278722723 8.836434770737783 a 72.72727272727273 72.72727272727273 0.0 0 1 -22.680883864641082,1.8203586376074323 l 0.6992152043574151 -9.063979600438707 a 63.63636363636363 63.63636363636363 0.0 0 0 19.845773381560946,-1.5928138079065093 z"/><path fill="#0034b1" d="M 123.22115307421969,168.92049222292863 l 2.9026441342774647 8.615061527866079 a 81.81818181818183 81.81818181818183 0.0 0 1 -32.15650432435329,4.05991990361434 l 0.6703007906506784 -9.06616373937878 a 72.72727272727273 72.72727272727273 0.0 0 0 28.58355939942515,-3.6088176921016384 z"/><path fill="#9060ff" d="M 94.63759367479456,172.52930991503024 l -0.6703007906506773 9.066163739378784 a 81.81818181818183 81.81818181818183 0.0 0 1 -50.979252807337495,-22.91113756930685 l 6.334662213688176 -6.520481787233578 a 72.72727272727273 72.72727272727273 0.0 0 0 45.3148913843,20.365455617161643 z"/><path fill="#070083" d="M 49.32270229049458,152.16385429786862 l -6.334662213688178 6.520481787233577 a 81.81818181818183 81.81818181818183 0.0 0 1 -7.35409797577646,-8.174678923530657 l 7.151784210996674 -5.6121841290635 a 72.72727272727273 72.72727272727273 0.0 0 0 6.536975978467964,7.266381265360579 z"/><path fill="#2267eb" d="M 42.7857263120266,144.897473032508 l -7.1517842109966745 5.612184129063505 a 81.81818181818183 81.81818181818183 0.0 0 1 -16.315372147092873,-64.10089410878545 l 8.96460333845144 1.5101374385793207 a 72.72727272727273 72.72727272727273 0.0 0 0 14.502553019638107,56.978572541142626 z"/><path fill="#001dc4" d="M 28.283173292388497,87.9189004913654 l -8.964603338451438 -1.510137438579324 a 81.81818181818183 81.81818181818183 0.0 0 1 151.13968846508155,-28.000212854300024 l -7.8286953798909735 4.621272200168214 a 72.72727272727273 72.72727272727273 0.0 0 0 -134.34638974673913,24.889078092711134 z"/><path fill="#0b00f4" d="M 162.62956303912765,63.02982239865429 l 7.828695379890957 -4.6212722001682165 a 81.81818181818183 81.81818181818183 0.0 0 1 7.570242305597691,16.97909618180472 l -8.669833413846263 2.7347059577454687 a 72.72727272727273 72.72727272727273 0.0 0 0 -6.729104271642385,-15.092529939381972 z"/><path fill="#0015ea" d="M 169.35866731077004,78.12235233803632 l 8.669833413846256 -2.7347059577454695 a 81.81818181818183 81.81818181818183 0.0 0 1 -2.1686605413126117,55.26361009308538 l -8.42887113147819 -3.4056951637084723 a 72.72727272727273 72.72727272727273 0.0 0 0 1.9276982589445453,-49.12320897163144 z"/><path fill="#2c00b0" d="M 167.43096905182546,127.24556130966775 l 8.42887113147819 3.4056951637084603 a 81.81818181818183 81.81818181818183 0.0 0 1 -6.69823955673597,13.06244703941499 l -7.684622291840867 -4.857078168087902 a 72.72727272727273 72.72727272727273 0.0 0 0 5.953990717098648,-11.611064035035547 z"/><path fill="#171d4c" d="M 161.47697833472685,138.85662534470322 l 7.68462229184086 4.857078168087902 a 81.81818181818183 81.81818181818183 0.0 0 1 -16.975044477900006,19.300407870096855 l -5.798506238740863 -7.001567931432 a 72.72727272727273 72.72727272727273 0.0 0 0 15.08892842480001,-17.155918106752758 z"/><path fill="#3500b0" d="M 146.38804990992685,156.01254345145597 l 5.798506238740861 7.001567931431995 a 81.81818181818183 81.81818181818183 0.0 0 1 -3.381806975606783,2.6540798072740133 l -5.422749908117886 -7.296465687795774 a 72.72727272727273 72.72727272727273 0.0 0 0 3.0060506449838087,-2.359182050910235 z"/><path fill="#0034b1" d="M 143.38199926494306,158.3717255023662 l 5.422749908117886 7.2964656877957745 a 81.81818181818183 81.81818181818183 0.0 0 1 -22.680951964563732,11.867362560632735 l -2.9026441342774696 -8.615061527866075 a 72.72727272727273 72.72727272727273 0.0 0 0 20.160846190723316,-10.548766720562433 z"/><path fill="#0034b1" d="M 18.18275794540142,99.60785383811086 l -9.090804672733164 -0.043571795765456486 a 90.9090909090909 90.9090909090909 0.0 0 1 7.302291103181652,-35.26498842796544 l 8.360575562414994 3.570070638562001 a 81.81818181818183 81.81818181818183 0.0 0 0 -6.572061992863482,31.7384895851689 z"/><path fill="#9060ff" d="M 24.7548199382649,67.86936425294198 l -8.360575562415 -3.5700706385619925 a 90.9090909090909 90.9090909090909 0.0 0 1 42.427949729767946,-45.34774277685283 l 4.117780589438212 8.104844916247274 a 81.81818181818183 81.81818181818183 0.0 0 0 -38.18515475679116,40.81296849916755 z"/><path fill="#070083" d="M 62.93997469505605,27.056395753774453 l -4.117780589438212 -8.10484491624727 a 90.9090909090909 90.9090909090909 0.0 0 1 11.23962513095303,-4.78958519580917 l 2.993818076342908 8.583803435828187 a 81.81818181818183 81.81818181818183 0.0 0 0 -10.115662617857726,4.310626676228253 z"/><path fill="#2267eb" d="M 73.05563731291377,22.745769077546214 l -2.9938180763429103 -8.583803435828187 a 90.9090909090909 90.9090909090909 0.0 0 1 73.25583006793643,5.912793860369959 l -4.331764930450731 7.9925240497912 a 81.81818181818183 81.81818181818183 0.0 0 0 -65.9302470611428,-5.321514474332972 z"/><path fill="#001dc4" d="M 138.98588437405658,28.067283551879186 l 4.331764930450723 -7.992524049791191 a 90.9090909090909 90.9090909090909 0.0 0 1 -24.946676521111765,168.95877445511883 l -1.8370972783395487 -8.903353395720671 a 81.81818181818183 81.81818181818183 0.0 0 0 22.45200886900059,-152.06289700960696 z"/><path fill="#0b00f4" d="M 116.53387550505599,180.13018056148613 l 1.8370972783395525 8.903353395720668 a 90.9090909090909 90.9090909090909 0.0 0 1 -20.572947317108763,1.8488852341320445 l 0.22019745337132335 -9.088241919133878 a 81.81818181818183 81.81818181818183 0.0 0 0 18.515652585397888,-1.663996710718834 z"/><path fill="#0015ea" d="M 98.01822291965811,181.79417727220496 l -0.22019745337131902 9.088241919133873 a 90.9090909090909 90.9090909090909 0.0 0 1 -57.31498389173325,-22.164194027260017 l 5.9516958425446305 -6.871822516407882 a 81.81818181818183 81.81818181818183 0.0 0 0 51.58348550255994,19.947774624534027 z"/><path fill="#2c00b0" d="M 46.43473741709819,161.84640264767094 l -5.951695842544636 6.871822516407874 a 90.9090909090909 90.9090909090909 0.0 0 1 -11.321665234289854,-11.741456144489753 l 7.083862365973623 -5.6976769019589 a 81.81818181818183 81.81818181818183 0.0 0 0 10.189498710860867,10.567310530040778 z"/><path fill="#171d4c" d="M 36.24523870623734,151.27909211763017 l -7.083862365973618 5.697676901958903 a 90.9090909090909 90.9090909090909 0.0 0 1 -14.18155652584866,-24.789321604051064 l 8.502018018558488 -3.218744741553799 a 81.81818181818183 81.81818181818183 0.0 0 0 12.763400873263791,22.31038944364596 z"/><path fill="#3500b0" d="M 23.481837832973554,128.96870267398424 l -8.502018018558482 3.218744741553801 a 90.9090909090909 90.9090909090909 0.0 0 1 -1.5732647901854104,-4.5100541649880785 l 8.659344497577024 -2.7677393250549933 a 81.81818181818183 81.81818181818183 0.0 0 0 1.4159383111668689,4.059048748489271 z"/><path fill="#0034b1" d="M 22.065899521806685,124.909653925495 l -8.659344497577022 2.767739325054996 a 90.9090909090909 90.9090909090909 0.0 0 1 -4.314601751561428,-28.11311120820442 l 9.09080467273317 0.043571795765441124 a 81.81818181818183 81.81818181818183 0.0 0 0 3.8831415764052792,25.30180008738398 z"/><path fill="#0034b1" d="M 160.79982702159958,167.58582576295805 l 6.079982702159962 6.758582576295805 a 100.0 100.0 0.0 0 1 -34.11531950217756,20.135685757438598 l -2.9785900201438196 -8.589099463335685 a 90.9090909090909 90.9090909090909 0.0 0 0 31.013926820161423,-18.305168870398717 z"/><path fill="#9060ff" d="M 129.78590020143818,185.89099463335674 l 2.978590020143817 8.58909946333568 a 100.0 100.0 0.0 0 1 -68.30378509423066,-1.0083950645526247 l 3.230844988422618 -8.49742718473999 a 90.9090909090909 90.9090909090909 0.0 0 0 62.09435008566423,0.9167227859569351 z"/><path fill="#070083" d="M 67.69155011577391,184.97427184739982 l -3.230844988422608 8.497427184739987 a 100.0 100.0 0.0 0 1 -12.212637935198803,-5.609574580731174 l 4.341084800713411 -7.987465859218972 a 90.9090909090909 90.9090909090909 0.0 0 0 11.102398122908,5.0996132552101585 z"/><path fill="#2267eb" d="M 56.589151992865936,179.8746585921897 l -4.341084800713409 7.98746585921897 a 100.0 100.0 0.0 0 1 -49.364697999832345,-64.02182200859528 l 8.828784618879979 -2.1673002220739406 a 90.9090909090909 90.9090909090909 0.0 0 0 44.876998181665776,58.20165637145025 z"/><path fill="#001dc4" d="M 11.712153811200153,121.67300222073943 l -8.828784618879986 2.1673002220739437 a 100.0 100.0 0.0 0 1 156.02548914267243,-104.64714874724339 l -5.355350757726626 7.346076936766366 a 90.9090909090909 90.9090909090909 0.0 0 0 -141.84135376606582,95.13377158840308 z"/><path fill="#0b00f4" d="M 153.553507577266,26.53923063233637 l 5.3553507577266 -7.346076936766367 a 100.0 100.0 0.0 0 1 16.72098669825085,15.384170264332255 l -6.875440457567578 5.947516003645248 a 90.9090909090909 90.9090909090909 0.0 0 0 -15.200896998409874,-13.985609331211137 z"/><path fill="#0015ea" d="M 168.75440457567592,40.524839963547564 l 6.8754404575675885 -5.947516003645252 a 100.0 100.0 0.0 0 1 24.342270510387426,63.06129641561615 l -9.088374140330075 0.21467087495287984 a 90.9090909090909 90.9090909090909 0.0 0 0 -22.12933682762494,-57.32845128692377 z"/><path fill="#2c00b0" d="M 190.8837414033008,97.85329125047136 l 9.088374140330082 -0.21467087495287382 a 100.0 100.0 0.0 0 1 -1.1871372621953284,17.902552872866252 l -8.980452571039606 -1.4128339316713294 a 90.9090909090909 90.9090909090909 0.0 0 0 1.079215692904853,-16.27504806624205 z"/><path fill="#171d4c" d="M 189.80452571039595,114.1283393167133 l 8.980452571039597 1.4128339316713294 a 100.0 100.0 0.0 0 1 -9.696257530832701,29.88128633958911 l -8.098974613691169 -4.129314507997613 a 90.9090909090909 90.9090909090909 0.0 0 0 8.814779573484273,-27.164805763262827 z"/><path fill="#3500b0" d="M 180.98974613691166,141.2931450799761 l 8.09897461369117 4.129314507997611 a 100.0 100.0 0.0 0 1 -2.5087560632766515,4.616622285511406 l -7.8709058806660295 -4.549007443044104 a 90.9090909090909 90.9090909090909 0.0 0 0 2.28068733025151,-4.196929350464913 z"/><path fill="#0034b1" d="M 178.7090588066602,145.49007443044098 l 7.870905880666023 4.5490074430441005 a 100.0 100.0 0.0 0 1 -19.700154963566625,24.30532646576871 l -6.079982702159967 -6.758582576295808 a 90.9090909090909 90.9090909090909 0.0 0 0 17.90923178506057,-22.095751332517004 z"/></g></svg>