<?xml version='1.0' encoding='UTF-8'?>
<svg preserveAspectRatio="xMidYMid meet" xmlns="http://www.w3.org/2000/svg" xmlns:svg="http://www.w3.org/2000/svg"><g><path fill="#800000" d="M 0.0,0.0 l 20.0 0.0 a 40.0 40.0 0.0 1 1 -80.0,4.898587196589413E-15 l 20.0 -2.4492935982947065E-15 a 20.0 20.0 0.0 1 0 40.0,-2.4492935982947065E-15 z"/><path fill="#806000" d="M 20.0,0.0 l -20.0 2.4492935982947065E-15 a 34.54043574093404 34.54043574093404 0.0 1 1 40.10458752073529,34.08932261199874 l -3.2218191001030974 -19.738791292432545 a 14.540435740934045 14.540435740934045 0.0 1 0 -16.8827684206322,-14.350531319566192 z"/><path fill="#408000" d="M 58.71472295137556,44.33207402376193 l 18.399952565031466 -7.838478526129414 a 37.21425581479929 37.21425581479929 0.0 1 1 -40.23190709577483,-22.143064178066325 l 3.221819100103101 19.738791292432545 a 17.214255814799287 17.214255814799287 0.0 1 0 18.61013543064026,10.242751411763193 z"/><path fill="#008020" d="M 77.11467551640703,36.49359549763252 l -18.399952565031466 7.83847852612943 a 41.186522182740944 41.186522182740944 0.0 1 1 79.04005590878661,-14.373882720524954 l -19.98156241605527 -0.8585822111410888 a 21.18652218274094 21.18652218274094 0.0 1 0 -40.658540927699875,7.393986405536612 z"/><path fill="#008080" d="M 190.14384901485647,20.710338127497884 l 18.47997431800132 -7.647911427704409 a 47.242317704016905 47.242317704016905 0.0 1 1 -90.85060688875089,16.037182392302434 l 19.98156241605527 0.858582211141087 a 27.2423177040169 27.2423177040169 0.0 1 0 52.389070154694295,-9.24785317573911 z"/><path fill="#002080" d="M 208.6238233328578,13.062426699793475 l -18.479974318001315 7.647911427704423 a 57.950019307665414 57.950019307665414 0.0 1 1 37.08769277276534,33.40398217707322 l 5.680084614475533 -19.17646053818062 a 37.950019307665414 37.950019307665414 0.0 1 0 -24.28780306923956,-21.87543306659702 z"/><path fill="#400080" d="M 214.31837568828973,121.88260335771615 l -1.7699901267163969 19.921524413340624 a 54.66586993532938 54.66586993532938 0.0 1 1 20.363240840524025,-106.86626800466627 l -5.680084614475527 19.176460538180606 a 34.66586993532938 34.66586993532938 0.0 1 0 -12.9131660993321,67.76828305314504 z"/><path fill="#800060" d="M 212.54838556157333,141.80412777105678 l 1.7699901267163942 -19.921524413340617 a 64.7251053090528 64.7251053090528 0.0 0 1 24.837442070598662,7.41779080389124 l -9.444737646091927 17.62943364934035 a 44.7251053090528 44.7251053090528 0.0 0 0 -17.16269455122313,-5.1257000398909724 z"/></g></svg>