<?xml version='1.0' encoding='UTF-8'?>
<svg xmlns="http://www.w3.org/2000/svg" xmlns:svg="http://www.w3.org/2000/svg"><g><path fill="#25fff6" d="M 100.0,100.0 l 26.695189614319744 -70.08827898768463 a 75.0 75.0 0.0 0 1 41.74105734091286,39.4047312351444 l -68.4362469552326 30.68354775254023 z"/><path fill="#00403b" d="M 100.0,100.0 l 68.4362469552326 -30.68354775254023 a 75.0 75.0 0.0 0 1 1.652032032452027,57.37873736685999 l -70.08827898768463 -26.69518961431976 z"/><path fill="#000000" d="M 100.0,100.0 l 70.08827898768463 26.69518961431974 a 75.0 75.0 0.0 0 1 -39.404731235144354,41.74105734091283 l -30.68354775254028 -68.43624695523258 z"/><path fill="#000000" d="M 100.0,100.0 l 30.683547752540296 68.43624695523256 a 75.0 75.0 0.0 0 1 -57.37873736686005,1.6520320324520696 l 26.69518961431975 -70.08827898768463 z"/><path fill="#023f3a" d="M 100.0,100.0 l -26.695189614319737 70.08827898768465 a 75.0 75.0 0.0 0 1 -41.74105734091284,-39.40473123514436 l 68.43624695523258 -30.683547752540285 z"/><path fill="#000000" d="M 100.0,100.0 l -68.43624695523256 30.6835477525403 a 75.0 75.0 0.0 0 1 -1.6520320324521265,-57.37873736685992 l 70.08827898768469 26.695189614319624 z"/><path fill="#004343" d="M 100.0,100.0 l -70.08827898768466 -26.695189614319688 a 75.0 75.0 0.0 0 1 39.40473123514437,-41.74105734091289 l 30.68354775254029 68.43624695523258 z"/><path fill="#003330" d="M 100.0,100.0 l -30.68354775254029 -68.43624695523258 a 75.0 75.0 0.0 0 1 57.37873736685997,-1.6520320324520839 l -26.695189614319684 70.08827898768466 z"/><path fill="#95000e" d="M 79.05834084699002,27.98300956080466 l -6.98055305100333 -24.00566347973178 a 100.0 100.0 0.0 0 1 97.1191637345989,23.82998186092813 l -17.299237882646395 18.048168014499744 a 75.0 75.0 0.0 0 0 -72.83937280094918,-17.872486395696093 z"/><path fill="#e93a06" d="M 151.89771364793918,45.85549595650076 l 17.299237882646395 -18.048168014499748 a 100.0 100.0 0.0 0 1 27.92221220401335,96.0226539189271 l -24.27979093364972 -5.957495465232029 a 75.0 75.0 0.0 0 0 -20.941659153010022,-72.01699043919533 z"/><path fill="#660700" d="M 172.8393728009492,117.872486395696 l 24.279790933649736 5.957495465232019 a 100.0 100.0 0.0 0 1 -69.19695153058564,72.19267205799905 l -6.9805530510033265 -24.00566347973178 a 75.0 75.0 0.0 0 0 51.89771364793923,-54.14450404349928 z"/><path fill="#951828" d="M 120.94165915301,172.01699043919535 l 6.980553051003333 24.00566347973178 a 100.0 100.0 0.0 0 1 -97.11916373459898,-23.829981860928186 l 17.299237882646423 -18.048168014499737 a 75.0 75.0 0.0 0 0 72.83937280094923,17.872486395696143 z"/><path fill="#210100" d="M 48.102286352060766,154.1445040434992 l -17.299237882646416 18.048168014499733 a 100.0 100.0 0.0 0 1 -27.922212204013285,-96.02265391892702 l 24.279790933649736 5.9574954652320145 a 75.0 75.0 0.0 0 0 20.941659153009965,72.01699043919527 z"/><path fill="#000000" d="M 27.160627199050793,82.12751360430393 l -24.279790933649736 -5.9574954652320224 a 100.0 100.0 0.0 0 1 69.19695153058562,-72.19267205799902 l 6.9805530510033265 24.00566347973178 a 75.0 75.0 0.0 0 0 -51.89771364793921,54.14450404349927 z"/><path fill="#95000e" d="M 200.3355797193491,-4.679374484098538 l 17.299237882646395 -18.048168014499748 a 47.5 47.5 0.0 1 1 -65.73710395405631,68.58303845509904 l 17.299237882646402 -18.04816801449975 a 22.5 22.5 0.0 1 0 31.138628188763512,-32.48670242609954 z"/><path fill="#e93a06" d="M 240.82278741516848,134.55347369834575 l 24.279790933649732 5.957495465232025 a 47.5 47.5 0.0 1 1 -92.26320554786899,-22.63848276788169 l 24.279790933649736 5.957495465232022 a 22.5 22.5 0.0 1 0 43.70362368056952,10.723491837417644 z"/><path fill="#660700" d="M 140.4872076958193,239.2328481824443 l 6.980553051003327 24.00566347973178 a 47.5 47.5 0.0 1 1 -26.526101593812648,-91.22152122298077 l 6.98055305100333 24.00566347973178 a 22.5 22.5 0.0 1 0 12.564995491805991,43.21019426351721 z"/><path fill="#951828" d="M -0.33557971934919806,204.67937448409847 l -17.299237882646416 18.048168014499733 a 47.5 47.5 0.0 1 1 65.73710395405638,-68.583038455099 l -17.299237882646413 18.048168014499737 a 22.5 22.5 0.0 1 0 -31.138628188763544,32.48670242609953 z"/><path fill="#210100" d="M -40.822787415168456,65.44652630165427 l -24.279790933649736 -5.9574954652320224 a 47.5 47.5 0.0 1 1 92.26320554786899,22.63848276788169 l -24.279790933649736 -5.957495465232025 a 22.5 22.5 0.0 1 0 -43.70362368056952,-10.723491837417644 z"/><path fill="#000000" d="M 59.51279230418069,-39.23284818244433 l -6.98055305100333 -24.00566347973178 a 47.5 47.5 0.0 1 1 26.526101593812648,91.22152122298077 l -6.9805530510033265 -24.00566347973178 a 22.5 22.5 0.0 1 0 -12.564995491805991,-43.21019426351721 z"/><path fill="#000000" d="M 217.6348176019955,-22.727542498598286 l 12.089894823507592 -14.331676215869669 a 18.75 18.75 0.0 0 1 6.5929772280381655,12.746497391392625 l -18.682872051545758 1.5851788244770444 z"/><path fill="#003132" d="M 217.6348176019955,-22.727542498598286 l 18.682872051545758 -1.5851788244770444 a 18.75 18.75 0.0 0 1 -4.351195835676091,13.67507364798464 l -14.331676215869667 -12.089894823507596 z"/><path fill="#077256" d="M 217.6348176019955,-22.727542498598286 l 14.331676215869669 12.089894823507592 a 18.75 18.75 0.0 0 1 -12.746497391392628,6.5929772280381655 l -1.585178824477041 -18.682872051545758 z"/><path fill="#000000" d="M 217.6348176019955,-22.727542498598286 l 1.5851788244770455 18.682872051545758 a 18.75 18.75 0.0 0 1 -13.675073647984627,-4.351195835676082 l 12.089894823507581 -14.331676215869676 z"/><path fill="#000000" d="M 217.6348176019955,-22.727542498598286 l -12.089894823507578 14.331676215869681 a 18.75 18.75 0.0 0 1 -6.59297722803818,-12.746497391392639 l 18.682872051545758 -1.5851788244770422 z"/><path fill="#128687" d="M 217.6348176019955,-22.727542498598286 l -18.682872051545758 1.5851788244770468 a 18.75 18.75 0.0 0 1 4.351195835676101,-13.675073647984654 l 14.331676215869656 12.089894823507606 z"/><path fill="#023731" d="M 217.6348176019955,-22.727542498598286 l -14.33167621586966 -12.089894823507603 a 18.75 18.75 0.0 0 1 12.746497391392616,-6.592977228038155 l 1.585178824477043 18.682872051545758 z"/><path fill="#000000" d="M 217.6348176019955,-22.727542498598286 l -1.585178824477048 -18.682872051545758 a 18.75 18.75 0.0 0 1 13.675073647984627,4.351195835676078 l -12.08989482350758 14.33167621586968 z"/><path fill="#25fff6" d="M 100.0,100.0 l 26.695189614319744 -70.08827898768463 a 75.0 75.0 0.0 0 1 41.74105734091286,39.4047312351444 l -68.4362469552326 30.68354775254023 z"/><path fill="#00403b" d="M 100.0,100.0 l 68.4362469552326 -30.68354775254023 a 75.0 75.0 0.0 0 1 1.652032032452027,57.37873736685999 l -70.08827898768463 -26.69518961431976 z"/><path fill="#000000" d="M 100.0,100.0 l 70.08827898768463 26.69518961431974 a 75.0 75.0 0.0 0 1 -39.404731235144354,41.74105734091283 l -30.68354775254028 -68.43624695523258 z"/><path fill="#000000" d="M 100.0,100.0 l 30.683547752540296 68.43624695523256 a 75.0 75.0 0.0 0 1 -57.37873736686005,1.6520320324520696 l 26.69518961431975 -70.08827898768463 z"/><path fill="#023f3a" d="M 100.0,100.0 l -26.695189614319737 70.08827898768465 a 75.0 75.0 0.0 0 1 -41.74105734091284,-39.40473123514436 l 68.43624695523258 -30.683547752540285 z"/><path fill="#000000" d="M 100.0,100.0 l -68.43624695523256 30.6835477525403 a 75.0 75.0 0.0 0 1 -1.6520320324521265,-57.37873736685992 l 70.08827898768469 26.695189614319624 z"/><path fill="#004343" d="M 100.0,100.0 l -70.08827898768466 -26.695189614319688 a 75.0 75.0 0.0 0 1 39.40473123514437,-41.74105734091289 l 30.68354775254029 68.43624695523258 z"/><path fill="#003330" d="M 100.0,100.0 l -30.68354775254029 -68.43624695523258 a 75.0 75.0 0.0 0 1 57.37873736685997,-1.6520320324520839 l -26.695189614319684 70.08827898768466 z"/><path fill="#95000e" d="M 79.05834084699002,27.98300956080466 l -6.98055305100333 -24.00566347973178 a 100.0 100.0 0.0 0 1 97.1191637345989,23.82998186092813 l -17.299237882646395 18.048168014499744 a 75.0 75.0 0.0 0 0 -72.83937280094918,-17.872486395696093 z"/><path fill="#e93a06" d="M 151.89771364793918,45.85549595650076 l 17.299237882646395 -18.048168014499748 a 100.0 100.0 0.0 0 1 27.92221220401335,96.0226539189271 l -24.27979093364972 -5.957495465232029 a 75.0 75.0 0.0 0 0 -20.941659153010022,-72.01699043919533 z"/><path fill="#660700" d="M 172.8393728009492,117.872486395696 l 24.279790933649736 5.957495465232019 a 100.0 100.0 0.0 0 1 -69.19695153058564,72.19267205799905 l -6.9805530510033265 -24.00566347973178 a 75.0 75.0 0.0 0 0 51.89771364793923,-54.14450404349928 z"/><path fill="#951828" d="M 120.94165915301,172.01699043919535 l 6.980553051003333 24.00566347973178 a 100.0 100.0 0.0 0 1 -97.11916373459898,-23.829981860928186 l 17.299237882646423 -18.048168014499737 a 75.0 75.0 0.0 0 0 72.83937280094923,17.872486395696143 z"/><path fill="#210100" d="M 48.102286352060766,154.1445040434992 l -17.299237882646416 18.048168014499733 a 100.0 100.0 0.0 0 1 -27.922212204013285,-96.02265391892702 l 24.279790933649736 5.9574954652320145 a 75.0 75.0 0.0 0 0 20.941659153009965,72.01699043919527 z"/><path fill="#000000" d="M 27.160627199050793,82.12751360430393 l -24.279790933649736 -5.9574954652320224 a 100.0 100.0 0.0 0 1 69.19695153058562,-72.19267205799902 l 6.9805530510033265 24.00566347973178 a 75.0 75.0 0.0 0 0 -51.89771364793921,54.14450404349927 z"/><path fill="#95000e" d="M 200.3355797193491,-4.679374484098538 l 17.299237882646395 -18.048168014499748 a 47.5 47.5 0.0 1 1 -65.73710395405631,68.58303845509904 l 17.299237882646402 -18.04816801449975 a 22.5 22.5 0.0 1 0 31.138628188763512,-32.48670242609954 z"/><path fill="#e93a06" d="M 240.82278741516848,134.55347369834575 l 24.279790933649732 5.957495465232025 a 47.5 47.5 0.0 1 1 -92.26320554786899,-22.63848276788169 l 24.279790933649736 5.957495465232022 a 22.5 22.5 0.0 1 0 43.70362368056952,10.723491837417644 z"/><path fill="#660700" d="M 140.4872076958193,239.2328481824443 l 6.980553051003327 24.00566347973178 a 47.5 47.5 0.0 1 1 -26.526101593812648,-91.22152122298077 l 6.98055305100333 24.00566347973178 a 22.5 22.5 0.0 1 0 12.564995491805991,43.21019426351721 z"/><path fill="#951828" d="M -0.33557971934919806,204.67937448409847 l -17.299237882646416 18.048168014499733 a 47.5 47.5 0.0 1 1 65.73710395405638,-68.583038455099 l -17.299237882646413 18.048168014499737 a 22.5 22.5 0.0 1 0 -31.138628188763544,32.48670242609953 z"/><path fill="#210100" d="M -40.822787415168456,65.44652630165427 l -24.279790933649736 -5.9574954652320224 a 47.5 47.5 0.0 1 1 92.26320554786899,22.63848276788169 l -24.279790933649736 -5.957495465232025 a 22.5 22.5 0.0 1 0 -43.70362368056952,-10.723491837417644 z"/><path fill="#000000" d="M 59.51279230418069,-39.23284818244433 l -6.98055305100333 -24.00566347973178 a 47.5 47.5 0.0 1 1 26.526101593812648,91.22152122298077 l -6.9805530510033265 -24.00566347973178 a 22.5 22.5 0.0 1 0 -12.564995491805991,-43.21019426351721 z"/><path fill="#76040c" d="M 235.49595534256892,-17.02296025164419 l 5.95371258019114 1.901527415651365 a 25.0 25.0 0.0 0 1 -18.49450935216889,16.821210533803363 l -1.3300852421489164 -6.106830049102207 a 18.75 18.75 0.0 0 0 13.870882014126668,-12.615907900352521 z"/><path fill="#e51f13" d="M 221.62507332844228,-4.4070523512916715 l 1.3300852421489184 6.106830049102206 a 25.0 25.0 0.0 0 1 -23.81485032076456,-7.6061096626054505 l 4.623627338042223 -4.205302633450843 a 18.75 18.75 0.0 0 0 17.86113774057342,5.704582246954088 z"/><path fill="#340201" d="M 203.76393558786884,-10.111634598245754 l -4.623627338042222 4.205302633450843 a 25.0 25.0 0.0 0 1 -5.32034096859567,-24.427320196408836 l 5.953712580191137 1.9015274156513655 a 18.75 18.75 0.0 0 0 3.9902557264467546,18.32049014730663 z"/><path fill="#f31600" d="M 199.7736798614221,-28.432124745552386 l -5.953712580191139 -1.9015274156513657 a 25.0 25.0 0.0 0 1 18.494509352168865,-16.821210533803356 l 1.3300852421489235 6.106830049102204 a 18.75 18.75 0.0 0 0 -13.87088201412665,12.615907900352518 z"/><path fill="#3c0404" d="M 213.64456187554873,-41.048032645904904 l -1.330085242148923 -6.1068300491022045 a 25.0 25.0 0.0 0 1 23.814850320764606,7.606109662605474 l -4.62362733804223 4.205302633450838 a 18.75 18.75 0.0 0 0 -17.861137740573454,-5.704582246954107 z"/><path fill="#8d0504" d="M 231.5056996161222,-35.34345039895079 l 4.623627338042229 -4.205302633450836 a 25.0 25.0 0.0 0 1 5.320340968595642,24.427320196408807 l -5.953712580191137 -1.9015274156513655 a 18.75 18.75 0.0 0 0 -3.9902557264467333,-18.320490147306607 z"/><path fill="#76040c" d="M 225.34931200645923,12.69207178619451 l 1.3300852421489169 6.106830049102206 a 11.875 11.875 0.0 1 1 -5.054323920165885,-23.205954186588386 l 1.3300852421489173 6.106830049102207 a 5.625 5.625 0.0 1 0 2.394153435868051,10.992294088383971 z"/><path fill="#e51f13" d="M 190.81777904135063,1.6632127754166035 l -4.623627338042222 4.205302633450843 a 11.875 11.875 0.0 1 1 17.569783884560444,-15.980150007113206 l -4.623627338042223 4.205302633450843 a 5.625 5.625 0.0 1 0 -8.322529208475999,7.569544740211519 z"/><path fill="#340201" d="M 183.10328463688688,-33.756401509376204 l -5.953712580191139 -1.9015274156513657 a 11.875 11.875 0.0 1 1 22.62410780472633,7.225804179475191 l -5.953712580191141 -1.9015274156513664 a 5.625 5.625 0.0 1 0 -10.71668264434405,-3.4227493481724593 z"/><path fill="#f31600" d="M 209.92032319753176,-58.14715678339108 l -1.330085242148923 -6.1068300491022045 a 11.875 11.875 0.0 1 1 5.054323920165906,23.20595418658838 l -1.3300852421489218 -6.106830049102207 a 5.625 5.625 0.0 1 0 -2.394153435868061,-10.992294088383968 z"/><path fill="#3c0404" d="M 244.45185616264044,-47.11829777261313 l 4.623627338042229 -4.205302633450836 a 11.875 11.875 0.0 1 1 -17.569783884560472,15.980150007113176 l 4.62362733804223 -4.205302633450835 a 5.625 5.625 0.0 1 0 8.322529208476013,-7.569544740211504 z"/><path fill="#8d0504" d="M 252.16635056710413,-11.698683487820361 l 5.953712580191139 1.9015274156513666 a 11.875 11.875 0.0 1 1 -22.62410780472633,-7.225804179475191 l 5.953712580191141 1.9015274156513655 a 5.625 5.625 0.0 1 0 10.71668264434405,3.4227493481724593 z"/><path fill="#25fff6" d="M 100.0,100.0 l 26.695189614319744 -70.08827898768463 a 75.0 75.0 0.0 0 1 41.74105734091286,39.4047312351444 l -68.4362469552326 30.68354775254023 z"/><path fill="#00403b" d="M 100.0,100.0 l 68.4362469552326 -30.68354775254023 a 75.0 75.0 0.0 0 1 1.652032032452027,57.37873736685999 l -70.08827898768463 -26.69518961431976 z"/><path fill="#000000" d="M 100.0,100.0 l 70.08827898768463 26.69518961431974 a 75.0 75.0 0.0 0 1 -39.404731235144354,41.74105734091283 l -30.68354775254028 -68.43624695523258 z"/><path fill="#000000" d="M 100.0,100.0 l 30.683547752540296 68.43624695523256 a 75.0 75.0 0.0 0 1 -57.37873736686005,1.6520320324520696 l 26.69518961431975 -70.08827898768463 z"/><path fill="#023f3a" d="M 100.0,100.0 l -26.695189614319737 70.08827898768465 a 75.0 75.0 0.0 0 1 -41.74105734091284,-39.40473123514436 l 68.43624695523258 -30.683547752540285 z"/><path fill="#000000" d="M 100.0,100.0 l -68.43624695523256 30.6835477525403 a 75.0 75.0 0.0 0 1 -1.6520320324521265,-57.37873736685992 l 70.08827898768469 26.695189614319624 z"/><path fill="#004343" d="M 100.0,100.0 l -70.08827898768466 -26.695189614319688 a 75.0 75.0 0.0 0 1 39.40473123514437,-41.74105734091289 l 30.68354775254029 68.43624695523258 z"/><path fill="#003330" d="M 100.0,100.0 l -30.68354775254029 -68.43624695523258 a 75.0 75.0 0.0 0 1 57.37873736685997,-1.6520320324520839 l -26.695189614319684 70.08827898768466 z"/><path fill="#95000e" d="M 79.05834084699002,27.98300956080466 l -6.98055305100333 -24.00566347973178 a 100.0 100.0 0.0 0 1 97.1191637345989,23.82998186092813 l -17.299237882646395 18.048168014499744 a 75.0 75.0 0.0 0 0 -72.83937280094918,-17.872486395696093 z"/><path fill="#e93a06" d="M 151.89771364793918,45.85549595650076 l 17.299237882646395 -18.048168014499748 a 100.0 100.0 0.0 0 1 27.92221220401335,96.0226539189271 l -24.27979093364972 -5.957495465232029 a 75.0 75.0 0.0 0 0 -20.941659153010022,-72.01699043919533 z"/><path fill="#660700" d="M 172.8393728009492,117.872486395696 l 24.279790933649736 5.957495465232019 a 100.0 100.0 0.0 0 1 -69.19695153058564,72.19267205799905 l -6.9805530510033265 -24.00566347973178 a 75.0 75.0 0.0 0 0 51.89771364793923,-54.14450404349928 z"/><path fill="#951828" d="M 120.94165915301,172.01699043919535 l 6.980553051003333 24.00566347973178 a 100.0 100.0 0.0 0 1 -97.11916373459898,-23.829981860928186 l 17.299237882646423 -18.048168014499737 a 75.0 75.0 0.0 0 0 72.83937280094923,17.872486395696143 z"/><path fill="#210100" d="M 48.102286352060766,154.1445040434992 l -17.299237882646416 18.048168014499733 a 100.0 100.0 0.0 0 1 -27.922212204013285,-96.02265391892702 l 24.279790933649736 5.9574954652320145 a 75.0 75.0 0.0 0 0 20.941659153009965,72.01699043919527 z"/><path fill="#000000" d="M 27.160627199050793,82.12751360430393 l -24.279790933649736 -5.9574954652320224 a 100.0 100.0 0.0 0 1 69.19695153058562,-72.19267205799902 l 6.9805530510033265 24.00566347973178 a 75.0 75.0 0.0 0 0 -51.89771364793921,54.14450404349927 z"/><path fill="#95000e" d="M 200.3355797193491,-4.679374484098538 l 17.299237882646395 -18.048168014499748 a 47.5 47.5 0.0 1 1 -65.73710395405631,68.58303845509904 l 17.299237882646402 -18.04816801449975 a 22.5 22.5 0.0 1 0 31.138628188763512,-32.48670242609954 z"/><path fill="#e93a06" d="M 240.82278741516848,134.55347369834575 l 24.279790933649732 5.957495465232025 a 47.5 47.5 0.0 1 1 -92.26320554786899,-22.63848276788169 l 24.279790933649736 5.957495465232022 a 22.5 22.5 0.0 1 0 43.70362368056952,10.723491837417644 z"/><path fill="#660700" d="M 140.4872076958193,239.2328481824443 l 6.980553051003327 24.00566347973178 a 47.5 47.5 0.0 1 1 -26.526101593812648,-91.22152122298077 l 6.98055305100333 24.00566347973178 a 22.5 22.5 0.0 1 0 12.564995491805991,43.21019426351721 z"/><path fill="#951828" d="M -0.33557971934919806,204.67937448409847 l -17.299237882646416 18.048168014499733 a 47.5 47.5 0.0 1 1 65.73710395405638,-68.583038455099 l -17.299237882646413 18.048168014499737 a 22.5 22.5 0.0 1 0 -31.138628188763544,32.48670242609953 z"/><path fill="#210100" d="M -40.822787415168456,65.44652630165427 l -24.279790933649736 -5.9574954652320224 a 47.5 47.5 0.0 1 1 92.26320554786899,22.63848276788169 l -24.279790933649736 -5.957495465232025 a 22.5 22.5 0.0 1 0 -43.70362368056952,-10.723491837417644 z"/><path fill="#000000" d="M 59.51279230418069,-39.23284818244433 l -6.98055305100333 -24.00566347973178 a 47.5 47.5 0.0 1 1 26.526101593812648,91.22152122298077 l -6.9805530510033265 -24.00566347973178 a 22.5 22.5 0.0 1 0 -12.564995491805991,-43.21019426351721 z"/><path fill="#004a41" d="M 265.1025783488182,140.51096916357778 l 12.995290771510318 -13.516098466787623 a 18.75 18.75 0.0 0 1 5.751092337566218,13.147831813762902 l -18.746383109076536 0.3682666530247199 z"/><path fill="#08686d" d="M 265.1025783488182,140.51096916357778 l 18.746383109076536 -0.3682666530247199 a 18.75 18.75 0.0 0 1 -5.230284642288915,13.363557424535042 l -13.516098466787621 -12.995290771510321 z"/><path fill="#000807" d="M 265.1025783488182,140.51096916357778 l 13.516098466787623 12.995290771510318 a 18.75 18.75 0.0 0 1 -13.147831813762924,5.751092337566218 l -0.36826665302469985 -18.746383109076536 z"/><path fill="#013d33" d="M 265.1025783488182,140.51096916357778 l 0.3682666530247044 18.746383109076536 a 18.75 18.75 0.0 0 1 -13.363557424535026,-5.230284642288915 l 12.995290771510321 -13.516098466787621 z"/><path fill="#00e1c6" d="M 265.1025783488182,140.51096916357778 l -12.995290771510316 13.516098466787627 a 18.75 18.75 0.0 0 1 -5.75109233756622,-13.147831813762892 l 18.746383109076536 -0.36826665302473427 z"/><path fill="#00ac9c" d="M 265.1025783488182,140.51096916357778 l -18.746383109076536 0.3682666530247389 a 18.75 18.75 0.0 0 1 5.230284642288913,-13.36355742453506 l 13.516098466787623 12.995290771510321 z"/><path fill="#00887b" d="M 265.1025783488182,140.51096916357778 l -13.516098466787627 -12.995290771510316 a 18.75 18.75 0.0 0 1 13.147831813762924,-5.75109233756622 l 0.36826665302470213 18.746383109076536 z"/><path fill="#000000" d="M 265.1025783488182,140.51096916357778 l -0.3682666530247067 -18.746383109076536 a 18.75 18.75 0.0 0 1 13.36355742453505,5.230284642288936 l -12.995290771510344 13.5160984667876 z"/><path fill="#25fff6" d="M 100.0,100.0 l 26.695189614319744 -70.08827898768463 a 75.0 75.0 0.0 0 1 41.74105734091286,39.4047312351444 l -68.4362469552326 30.68354775254023 z"/><path fill="#00403b" d="M 100.0,100.0 l 68.4362469552326 -30.68354775254023 a 75.0 75.0 0.0 0 1 1.652032032452027,57.37873736685999 l -70.08827898768463 -26.69518961431976 z"/><path fill="#000000" d="M 100.0,100.0 l 70.08827898768463 26.69518961431974 a 75.0 75.0 0.0 0 1 -39.404731235144354,41.74105734091283 l -30.68354775254028 -68.43624695523258 z"/><path fill="#000000" d="M 100.0,100.0 l 30.683547752540296 68.43624695523256 a 75.0 75.0 0.0 0 1 -57.37873736686005,1.6520320324520696 l 26.69518961431975 -70.08827898768463 z"/><path fill="#023f3a" d="M 100.0,100.0 l -26.695189614319737 70.08827898768465 a 75.0 75.0 0.0 0 1 -41.74105734091284,-39.40473123514436 l 68.43624695523258 -30.683547752540285 z"/><path fill="#000000" d="M 100.0,100.0 l -68.43624695523256 30.6835477525403 a 75.0 75.0 0.0 0 1 -1.6520320324521265,-57.37873736685992 l 70.08827898768469 26.695189614319624 z"/><path fill="#004343" d="M 100.0,100.0 l -70.08827898768466 -26.695189614319688 a 75.0 75.0 0.0 0 1 39.40473123514437,-41.74105734091289 l 30.68354775254029 68.43624695523258 z"/><path fill="#003330" d="M 100.0,100.0 l -30.68354775254029 -68.43624695523258 a 75.0 75.0 0.0 0 1 57.37873736685997,-1.6520320324520839 l -26.695189614319684 70.08827898768466 z"/><path fill="#95000e" d="M 79.05834084699002,27.98300956080466 l -6.98055305100333 -24.00566347973178 a 100.0 100.0 0.0 0 1 97.1191637345989,23.82998186092813 l -17.299237882646395 18.048168014499744 a 75.0 75.0 0.0 0 0 -72.83937280094918,-17.872486395696093 z"/><path fill="#e93a06" d="M 151.89771364793918,45.85549595650076 l 17.299237882646395 -18.048168014499748 a 100.0 100.0 0.0 0 1 27.92221220401335,96.0226539189271 l -24.27979093364972 -5.957495465232029 a 75.0 75.0 0.0 0 0 -20.941659153010022,-72.01699043919533 z"/><path fill="#660700" d="M 172.8393728009492,117.872486395696 l 24.279790933649736 5.957495465232019 a 100.0 100.0 0.0 0 1 -69.19695153058564,72.19267205799905 l -6.9805530510033265 -24.00566347973178 a 75.0 75.0 0.0 0 0 51.89771364793923,-54.14450404349928 z"/><path fill="#951828" d="M 120.94165915301,172.01699043919535 l 6.980553051003333 24.00566347973178 a 100.0 100.0 0.0 0 1 -97.11916373459898,-23.829981860928186 l 17.299237882646423 -18.048168014499737 a 75.0 75.0 0.0 0 0 72.83937280094923,17.872486395696143 z"/><path fill="#210100" d="M 48.102286352060766,154.1445040434992 l -17.299237882646416 18.048168014499733 a 100.0 100.0 0.0 0 1 -27.922212204013285,-96.02265391892702 l 24.279790933649736 5.9574954652320145 a 75.0 75.0 0.0 0 0 20.941659153009965,72.01699043919527 z"/><path fill="#000000" d="M 27.160627199050793,82.12751360430393 l -24.279790933649736 -5.9574954652320224 a 100.0 100.0 0.0 0 1 69.19695153058562,-72.19267205799902 l 6.9805530510033265 24.00566347973178 a 75.0 75.0 0.0 0 0 -51.89771364793921,54.14450404349927 z"/><path fill="#95000e" d="M 200.3355797193491,-4.679374484098538 l 17.299237882646395 -18.048168014499748 a 47.5 47.5 0.0 1 1 -65.73710395405631,68.58303845509904 l 17.299237882646402 -18.04816801449975 a 22.5 22.5 0.0 1 0 31.138628188763512,-32.48670242609954 z"/><path fill="#e93a06" d="M 240.82278741516848,134.55347369834575 l 24.279790933649732 5.957495465232025 a 47.5 47.5 0.0 1 1 -92.26320554786899,-22.63848276788169 l 24.279790933649736 5.957495465232022 a 22.5 22.5 0.0 1 0 43.70362368056952,10.723491837417644 z"/><path fill="#660700" d="M 140.4872076958193,239.2328481824443 l 6.980553051003327 24.00566347973178 a 47.5 47.5 0.0 1 1 -26.526101593812648,-91.22152122298077 l 6.98055305100333 24.00566347973178 a 22.5 22.5 0.0 1 0 12.564995491805991,43.21019426351721 z"/><path fill="#951828" d="M -0.33557971934919806,204.67937448409847 l -17.299237882646416 18.048168014499733 a 47.5 47.5 0.0 1 1 65.73710395405638,-68.583038455099 l -17.299237882646413 18.048168014499737 a 22.5 22.5 0.0 1 0 -31.138628188763544,32.48670242609953 z"/><path fill="#210100" d="M -40.822787415168456,65.44652630165427 l -24.279790933649736 -5.9574954652320224 a 47.5 47.5 0.0 1 1 92.26320554786899,22.63848276788169 l -24.279790933649736 -5.957495465232025 a 22.5 22.5 0.0 1 0 -43.70362368056952,-10.723491837417644 z"/><path fill="#000000" d="M 59.51279230418069,-39.23284818244433 l -6.98055305100333 -24.00566347973178 a 47.5 47.5 0.0 1 1 26.526101593812648,91.22152122298077 l -6.9805530510033265 -24.00566347973178 a 22.5 22.5 0.0 1 0 -12.564995491805991,-43.21019426351721 z"/><path fill="#8f140d" d="M 261.2376282317559,122.16363528116806 l -1.2883167056874396 -6.115777960803242 a 25.0 25.0 0.0 0 1 23.762309723217268,7.768695940625665 l -4.652260725116879 4.173603975646827 a 18.75 18.75 0.0 0 0 -17.82173229241295,-5.82652195546925 z"/><path fill="#fe8076" d="M 279.0593605241688,127.9901572366373 l 4.652260725116878 -4.1736039756468255 a 25.0 25.0 0.0 0 1 5.153266822749765,24.463111843212964 l -5.940577430804318 -1.9421739851564155 a 18.75 18.75 0.0 0 0 -3.8649501170623246,-18.34733388240972 z"/><path fill="#f54443" d="M 282.92431064123116,146.33749111904703 l 5.9405774308043195 1.9421739851564146 a 25.0 25.0 0.0 0 1 -18.609042900467525,16.694415902587313 l -1.2883167056874374 -6.115777960803243 a 18.75 18.75 0.0 0 0 13.956782175350643,-12.520811926940485 z"/><path fill="#8a0200" d="M 268.96752846588055,158.8583030459875 l 1.2883167056874403 6.115777960803242 a 25.0 25.0 0.0 0 1 -23.76230972321726,-7.76869594062565 l 4.652260725116879 -4.173603975646831 a 18.75 18.75 0.0 0 0 17.821732292412943,5.826521955469239 z"/><path fill="#ff8e8f" d="M 251.1457961734676,153.03178109051828 l -4.652260725116875 4.173603975646829 a 25.0 25.0 0.0 0 1 -5.153266822749769,-24.463111843213007 l 5.940577430804318 1.9421739851564261 a 18.75 18.75 0.0 0 0 3.8649501170623264,18.347333882409753 z"/><path fill="#cd0017" d="M 247.28084605640527,134.6844472081085 l -5.940577430804317 -1.942173985156423 a 25.0 25.0 0.0 0 1 18.609042900467507,-16.694415902587277 l 1.288316705687441 6.115777960803243 a 18.75 18.75 0.0 0 0 -13.956782175350632,12.520811926940457 z"/><path fill="#8f140d" d="M 292.08569055449607,116.30406610482618 l 4.652260725116873 -4.173603975646829 a 11.875 11.875 0.0 1 1 -17.67859075544412,15.85969510745795 l 4.652260725116875 -4.173603975646829 a 5.625 5.625 0.0 1 0 8.374069305210373,-7.512487156164292 z"/><path fill="#fe8076" d="M 299.5579274474832,151.77557827748498 l 5.940577430804319 1.942173985156416 a 11.875 11.875 0.0 1 1 -22.57419423705641,-7.38026114359438 l 5.940577430804318 1.9421739851564155 a 5.625 5.625 0.0 1 0 10.693039375447775,3.495913173281548 z"/><path fill="#f54443" d="M 272.57481524180537,175.9824813362366 l 1.2883167056874387 6.115777960803243 a 11.875 11.875 0.0 1 1 -4.8956034816122695,-23.23995625105232 l 1.28831670568744 6.115777960803241 a 5.625 5.625 0.0 1 0 2.3189700702373903,11.008400329445836 z"/><path fill="#8a0200" d="M 238.11946614314036,164.7178722223294 l -4.652260725116875 4.173603975646829 a 11.875 11.875 0.0 1 1 17.678590755444123,-15.85969510745795 l -4.652260725116875 4.173603975646829 a 5.625 5.625 0.0 1 0 -8.374069305210373,7.512487156164292 z"/><path fill="#ff8e8f" d="M 230.6472292501532,129.24636004967053 l -5.940577430804316 -1.9421739851564257 a 11.875 11.875 0.0 1 1 22.574194237056403,7.380261143594419 l -5.940577430804318 -1.9421739851564261 a 5.625 5.625 0.0 1 0 -10.693039375447768,-3.4959131732815667 z"/><path fill="#cd0017" d="M 257.63034145583106,105.03945699091898 l -1.2883167056874396 -6.115777960803242 a 11.875 11.875 0.0 1 1 4.8956034816122695,23.239956251052323 l -1.2883167056874392 -6.1157779608032445 a 5.625 5.625 0.0 1 0 -2.3189700702373903,-11.008400329445836 z"/><path fill="#25fff6" d="M 100.0,100.0 l 26.695189614319744 -70.08827898768463 a 75.0 75.0 0.0 0 1 41.74105734091286,39.4047312351444 l -68.4362469552326 30.68354775254023 z"/><path fill="#00403b" d="M 100.0,100.0 l 68.4362469552326 -30.68354775254023 a 75.0 75.0 0.0 0 1 1.652032032452027,57.37873736685999 l -70.08827898768463 -26.69518961431976 z"/><path fill="#000000" d="M 100.0,100.0 l 70.08827898768463 26.69518961431974 a 75.0 75.0 0.0 0 1 -39.404731235144354,41.74105734091283 l -30.68354775254028 -68.43624695523258 z"/><path fill="#000000" d="M 100.0,100.0 l 30.683547752540296 68.43624695523256 a 75.0 75.0 0.0 0 1 -57.37873736686005,1.6520320324520696 l 26.69518961431975 -70.08827898768463 z"/><path fill="#023f3a" d="M 100.0,100.0 l -26.695189614319737 70.08827898768465 a 75.0 75.0 0.0 0 1 -41.74105734091284,-39.40473123514436 l 68.43624695523258 -30.683547752540285 z"/><path fill="#000000" d="M 100.0,100.0 l -68.43624695523256 30.6835477525403 a 75.0 75.0 0.0 0 1 -1.6520320324521265,-57.37873736685992 l 70.08827898768469 26.695189614319624 z"/><path fill="#004343" d="M 100.0,100.0 l -70.08827898768466 -26.695189614319688 a 75.0 75.0 0.0 0 1 39.40473123514437,-41.74105734091289 l 30.68354775254029 68.43624695523258 z"/><path fill="#003330" d="M 100.0,100.0 l -30.68354775254029 -68.43624695523258 a 75.0 75.0 0.0 0 1 57.37873736685997,-1.6520320324520839 l -26.695189614319684 70.08827898768466 z"/><path fill="#95000e" d="M 79.05834084699002,27.98300956080466 l -6.98055305100333 -24.00566347973178 a 100.0 100.0 0.0 0 1 97.1191637345989,23.82998186092813 l -17.299237882646395 18.048168014499744 a 75.0 75.0 0.0 0 0 -72.83937280094918,-17.872486395696093 z"/><path fill="#e93a06" d="M 151.89771364793918,45.85549595650076 l 17.299237882646395 -18.048168014499748 a 100.0 100.0 0.0 0 1 27.92221220401335,96.0226539189271 l -24.27979093364972 -5.957495465232029 a 75.0 75.0 0.0 0 0 -20.941659153010022,-72.01699043919533 z"/><path fill="#660700" d="M 172.8393728009492,117.872486395696 l 24.279790933649736 5.957495465232019 a 100.0 100.0 0.0 0 1 -69.19695153058564,72.19267205799905 l -6.9805530510033265 -24.00566347973178 a 75.0 75.0 0.0 0 0 51.89771364793923,-54.14450404349928 z"/><path fill="#951828" d="M 120.94165915301,172.01699043919535 l 6.980553051003333 24.00566347973178 a 100.0 100.0 0.0 0 1 -97.11916373459898,-23.829981860928186 l 17.299237882646423 -18.048168014499737 a 75.0 75.0 0.0 0 0 72.83937280094923,17.872486395696143 z"/><path fill="#210100" d="M 48.102286352060766,154.1445040434992 l -17.299237882646416 18.048168014499733 a 100.0 100.0 0.0 0 1 -27.922212204013285,-96.02265391892702 l 24.279790933649736 5.9574954652320145 a 75.0 75.0 0.0 0 0 20.941659153009965,72.01699043919527 z"/><path fill="#000000" d="M 27.160627199050793,82.12751360430393 l -24.279790933649736 -5.9574954652320224 a 100.0 100.0 0.0 0 1 69.19695153058562,-72.19267205799902 l 6.9805530510033265 24.00566347973178 a 75.0 75.0 0.0 0 0 -51.89771364793921,54.14450404349927 z"/><path fill="#95000e" d="M 200.3355797193491,-4.679374484098538 l 17.299237882646395 -18.048168014499748 a 47.5 47.5 0.0 1 1 -65.73710395405631,68.58303845509904 l 17.299237882646402 -18.04816801449975 a 22.5 22.5 0.0 1 0 31.138628188763512,-32.48670242609954 z"/><path fill="#e93a06" d="M 240.82278741516848,134.55347369834575 l 24.279790933649732 5.957495465232025 a 47.5 47.5 0.0 1 1 -92.26320554786899,-22.63848276788169 l 24.279790933649736 5.957495465232022 a 22.5 22.5 0.0 1 0 43.70362368056952,10.723491837417644 z"/><path fill="#660700" d="M 140.4872076958193,239.2328481824443 l 6.980553051003327 24.00566347973178 a 47.5 47.5 0.0 1 1 -26.526101593812648,-91.22152122298077 l 6.98055305100333 24.00566347973178 a 22.5 22.5 0.0 1 0 12.564995491805991,43.21019426351721 z"/><path fill="#951828" d="M -0.33557971934919806,204.67937448409847 l -17.299237882646416 18.048168014499733 a 47.5 47.5 0.0 1 1 65.73710395405638,-68.583038455099 l -17.299237882646413 18.048168014499737 a 22.5 22.5 0.0 1 0 -31.138628188763544,32.48670242609953 z"/><path fill="#210100" d="M -40.822787415168456,65.44652630165427 l -24.279790933649736 -5.9574954652320224 a 47.5 47.5 0.0 1 1 92.26320554786899,22.63848276788169 l -24.279790933649736 -5.957495465232025 a 22.5 22.5 0.0 1 0 -43.70362368056952,-10.723491837417644 z"/><path fill="#000000" d="M 59.51279230418069,-39.23284818244433 l -6.98055305100333 -24.00566347973178 a 47.5 47.5 0.0 1 1 26.526101593812648,91.22152122298077 l -6.9805530510033265 -24.00566347973178 a 22.5 22.5 0.0 1 0 -12.564995491805991,-43.21019426351721 z"/><path fill="#000000" d="M 147.46776074682265,263.23851166217605 l -15.683545171376817 10.275646493402881 a 18.75 18.75 0.0 0 1 -2.672375288910203,-14.099608320568036 l 18.35592046028702 3.8239618271651548 z"/><path fill="#005f57" d="M 147.46776074682265,263.23851166217605 l -18.355920460287024 -3.8239618271651503 a 18.75 18.75 0.0 0 1 8.080273966884144,-11.859583344211668 l 10.27564649340288 15.683545171376819 z"/><path fill="#000c0c" d="M 147.46776074682265,263.23851166217605 l -10.275646493402883 -15.683545171376815 a 18.75 18.75 0.0 0 1 14.099608320568004,-2.6723752889102155 l -3.823961827165121 18.35592046028703 z"/><path fill="#044641" d="M 147.46776074682265,263.23851166217605 l 3.823961827165117 -18.35592046028703 a 18.75 18.75 0.0 0 1 11.8595833442117,8.080273966884151 l -15.683545171376817 10.27564649340288 z"/><path fill="#001412" d="M 147.46776074682265,263.23851166217605 l 15.683545171376808 -10.275646493402894 a 18.75 18.75 0.0 0 1 2.672375288910219,14.099608320568018 l -18.355920460287027 -3.8239618271651246 z"/><path fill="#00716b" d="M 147.46776074682265,263.23851166217605 l 18.35592046028703 3.82396182716512 a 18.75 18.75 0.0 0 1 -8.080273966884153,11.8595833442117 l -10.275646493402878 -15.683545171376819 z"/><path fill="#0b9887" d="M 147.46776074682265,263.23851166217605 l 10.275646493402881 15.683545171376817 a 18.75 18.75 0.0 0 1 -14.099608320568006,2.6723752889102137 l 3.8239618271651237 -18.35592046028703 z"/><path fill="#000000" d="M 147.46776074682265,263.23851166217605 l -3.823961827165119 18.35592046028703 a 18.75 18.75 0.0 0 1 -11.8595833442117,-8.080273966884151 l 15.683545171376819 -10.27564649340288 z"/><path fill="#25fff6" d="M 100.0,100.0 l 26.695189614319744 -70.08827898768463 a 75.0 75.0 0.0 0 1 41.74105734091286,39.4047312351444 l -68.4362469552326 30.68354775254023 z"/><path fill="#00403b" d="M 100.0,100.0 l 68.4362469552326 -30.68354775254023 a 75.0 75.0 0.0 0 1 1.652032032452027,57.37873736685999 l -70.08827898768463 -26.69518961431976 z"/><path fill="#000000" d="M 100.0,100.0 l 70.08827898768463 26.69518961431974 a 75.0 75.0 0.0 0 1 -39.404731235144354,41.74105734091283 l -30.68354775254028 -68.43624695523258 z"/><path fill="#000000" d="M 100.0,100.0 l 30.683547752540296 68.43624695523256 a 75.0 75.0 0.0 0 1 -57.37873736686005,1.6520320324520696 l 26.69518961431975 -70.08827898768463 z"/><path fill="#023f3a" d="M 100.0,100.0 l -26.695189614319737 70.08827898768465 a 75.0 75.0 0.0 0 1 -41.74105734091284,-39.40473123514436 l 68.43624695523258 -30.683547752540285 z"/><path fill="#000000" d="M 100.0,100.0 l -68.43624695523256 30.6835477525403 a 75.0 75.0 0.0 0 1 -1.6520320324521265,-57.37873736685992 l 70.08827898768469 26.695189614319624 z"/><path fill="#004343" d="M 100.0,100.0 l -70.08827898768466 -26.695189614319688 a 75.0 75.0 0.0 0 1 39.40473123514437,-41.74105734091289 l 30.68354775254029 68.43624695523258 z"/><path fill="#003330" d="M 100.0,100.0 l -30.68354775254029 -68.43624695523258 a 75.0 75.0 0.0 0 1 57.37873736685997,-1.6520320324520839 l -26.695189614319684 70.08827898768466 z"/><path fill="#95000e" d="M 79.05834084699002,27.98300956080466 l -6.98055305100333 -24.00566347973178 a 100.0 100.0 0.0 0 1 97.1191637345989,23.82998186092813 l -17.299237882646395 18.048168014499744 a 75.0 75.0 0.0 0 0 -72.83937280094918,-17.872486395696093 z"/><path fill="#e93a06" d="M 151.89771364793918,45.85549595650076 l 17.299237882646395 -18.048168014499748 a 100.0 100.0 0.0 0 1 27.92221220401335,96.0226539189271 l -24.27979093364972 -5.957495465232029 a 75.0 75.0 0.0 0 0 -20.941659153010022,-72.01699043919533 z"/><path fill="#660700" d="M 172.8393728009492,117.872486395696 l 24.279790933649736 5.957495465232019 a 100.0 100.0 0.0 0 1 -69.19695153058564,72.19267205799905 l -6.9805530510033265 -24.00566347973178 a 75.0 75.0 0.0 0 0 51.89771364793923,-54.14450404349928 z"/><path fill="#951828" d="M 120.94165915301,172.01699043919535 l 6.980553051003333 24.00566347973178 a 100.0 100.0 0.0 0 1 -97.11916373459898,-23.829981860928186 l 17.299237882646423 -18.048168014499737 a 75.0 75.0 0.0 0 0 72.83937280094923,17.872486395696143 z"/><path fill="#210100" d="M 48.102286352060766,154.1445040434992 l -17.299237882646416 18.048168014499733 a 100.0 100.0 0.0 0 1 -27.922212204013285,-96.02265391892702 l 24.279790933649736 5.9574954652320145 a 75.0 75.0 0.0 0 0 20.941659153009965,72.01699043919527 z"/><path fill="#000000" d="M 27.160627199050793,82.12751360430393 l -24.279790933649736 -5.9574954652320224 a 100.0 100.0 0.0 0 1 69.19695153058562,-72.19267205799902 l 6.9805530510033265 24.00566347973178 a 75.0 75.0 0.0 0 0 -51.89771364793921,54.14450404349927 z"/><path fill="#95000e" d="M 200.3355797193491,-4.679374484098538 l 17.299237882646395 -18.048168014499748 a 47.5 47.5 0.0 1 1 -65.73710395405631,68.58303845509904 l 17.299237882646402 -18.04816801449975 a 22.5 22.5 0.0 1 0 31.138628188763512,-32.48670242609954 z"/><path fill="#e93a06" d="M 240.82278741516848,134.55347369834575 l 24.279790933649732 5.957495465232025 a 47.5 47.5 0.0 1 1 -92.26320554786899,-22.63848276788169 l 24.279790933649736 5.957495465232022 a 22.5 22.5 0.0 1 0 43.70362368056952,10.723491837417644 z"/><path fill="#660700" d="M 140.4872076958193,239.2328481824443 l 6.980553051003327 24.00566347973178 a 47.5 47.5 0.0 1 1 -26.526101593812648,-91.22152122298077 l 6.98055305100333 24.00566347973178 a 22.5 22.5 0.0 1 0 12.564995491805991,43.21019426351721 z"/><path fill="#951828" d="M -0.33557971934919806,204.67937448409847 l -17.299237882646416 18.048168014499733 a 47.5 47.5 0.0 1 1 65.73710395405638,-68.583038455099 l -17.299237882646413 18.048168014499737 a 22.5 22.5 0.0 1 0 -31.138628188763544,32.48670242609953 z"/><path fill="#210100" d="M -40.822787415168456,65.44652630165427 l -24.279790933649736 -5.9574954652320224 a 47.5 47.5 0.0 1 1 92.26320554786899,22.63848276788169 l -24.279790933649736 -5.957495465232025 a 22.5 22.5 0.0 1 0 -43.70362368056952,-10.723491837417644 z"/><path fill="#000000" d="M 59.51279230418069,-39.23284818244433 l -6.98055305100333 -24.00566347973178 a 47.5 47.5 0.0 1 1 26.526101593812648,91.22152122298077 l -6.9805530510033265 -24.00566347973178 a 22.5 22.5 0.0 1 0 -12.564995491805991,-43.21019426351721 z"/><path fill="#ad2701" d="M 161.56328828337726,250.8741029231287 l 4.698509178851537 -4.1214695796824525 a 25.0 25.0 0.0 0 1 4.880171070016028,24.519052394564106 l -5.918551946355546 -2.008293518958574 a 18.75 18.75 0.0 0 0 -3.6601283025120193,-18.389289295923078 z"/><path fill="#780409" d="M 165.22341658588928,269.26339221905175 l 5.918551946355546 2.008293518958567 a 25.0 25.0 0.0 0 1 -18.79403671540617,16.485878318729817 l -1.2200427675040046 -6.129763098641021 a 18.75 18.75 0.0 0 0 14.095527536554627,-12.364408739047363 z"/><path fill="#b80504" d="M 151.12788904933467,281.6278009580991 l 1.2200427675040053 6.129763098641021 a 25.0 25.0 0.0 0 1 -23.674207785422176,-8.033174075834282 l 4.698509178851541 -4.121469579682449 a 18.75 18.75 0.0 0 0 17.75565583906663,6.02488055687571 z"/><path fill="#d00826" d="M 133.37223321026804,275.6029204012234 l -4.698509178851538 4.121469579682452 a 25.0 25.0 0.0 0 1 -4.880171070016026,-24.519052394564095 l 5.918551946355546 2.0082935189585704 a 18.75 18.75 0.0 0 0 3.6601283025120175,18.389289295923074 z"/><path fill="#660e04" d="M 129.71210490775601,257.21363110530035 l -5.918551946355544 -2.0082935189585713 a 25.0 25.0 0.0 0 1 18.794036715406136,-16.485878318729792 l 1.22004276750401 6.129763098641018 a 18.75 18.75 0.0 0 0 -14.095527536554604,12.364408739047345 z"/><path fill="#840012" d="M 143.80763244431063,244.849222366253 l -1.2200427675040115 -6.129763098641019 a 25.0 25.0 0.0 0 1 23.67420778542223,8.033174075834305 l -4.698509178851548 4.121469579682444 a 18.75 18.75 0.0 0 0 -17.75565583906667,-6.024880556875729 z"/><path fill="#ad2701" d="M 181.7953620356848,274.8866140721358 l 5.918551946355544 2.0082935189585736 a 11.875 11.875 0.0 1 1 -22.490497396151063,-7.631515372042578 l 5.918551946355542 2.008293518958572 a 5.625 5.625 0.0 1 0 10.653393503439979,3.614928334125432 z"/><path fill="#780409" d="M 154.54400879834586,298.791137634294 l 1.2200427675040038 6.129763098641021 a 11.875 11.875 0.0 1 1 -4.636162516515216,-23.29309977483588 l 1.2200427675040046 6.129763098641021 a 5.625 5.625 0.0 1 0 2.1960769815072076,11.033573577553838 z"/><path fill="#b80504" d="M 120.21640750948373,287.14303522433426 l -4.6985091788515385 4.121469579682451 a 11.875 11.875 0.0 1 1 17.854334879635847,-15.661584402793315 l -4.698509178851539 4.121469579682451 a 5.625 5.625 0.0 1 0 -8.45731652193277,7.418645243428413 z"/><path fill="#d00826" d="M 113.1401594579605,251.59040925221632 l -5.918551946355544 -2.0082935189585727 a 11.875 11.875 0.0 1 1 22.490497396151063,7.631515372042578 l -5.918551946355542 -2.008293518958573 a 5.625 5.625 0.0 1 0 -10.653393503439979,-3.614928334125432 z"/><path fill="#660e04" d="M 140.39151269529938,227.68588569005814 l -1.22004276750401 -6.129763098641019 a 11.875 11.875 0.0 1 1 4.6361625165152365,23.293099774835873 l -1.220042767504009 -6.129763098641021 a 5.625 5.625 0.0 1 0 -2.1960769815072174,-11.033573577553835 z"/><path fill="#840012" d="M 174.71911398416162,239.3339881000179 l 4.698509178851546 -4.121469579682444 a 11.875 11.875 0.0 1 1 -17.854334879635875,15.661584402793284 l 4.6985091788515465 -4.121469579682444 a 5.625 5.625 0.0 1 0 8.457316521932782,-7.418645243428397 z"/><path fill="#25fff6" d="M 100.0,100.0 l 26.695189614319744 -70.08827898768463 a 75.0 75.0 0.0 0 1 41.74105734091286,39.4047312351444 l -68.4362469552326 30.68354775254023 z"/><path fill="#00403b" d="M 100.0,100.0 l 68.4362469552326 -30.68354775254023 a 75.0 75.0 0.0 0 1 1.652032032452027,57.37873736685999 l -70.08827898768463 -26.69518961431976 z"/><path fill="#000000" d="M 100.0,100.0 l 70.08827898768463 26.69518961431974 a 75.0 75.0 0.0 0 1 -39.404731235144354,41.74105734091283 l -30.68354775254028 -68.43624695523258 z"/><path fill="#000000" d="M 100.0,100.0 l 30.683547752540296 68.43624695523256 a 75.0 75.0 0.0 0 1 -57.37873736686005,1.6520320324520696 l 26.69518961431975 -70.08827898768463 z"/><path fill="#023f3a" d="M 100.0,100.0 l -26.695189614319737 70.08827898768465 a 75.0 75.0 0.0 0 1 -41.74105734091284,-39.40473123514436 l 68.43624695523258 -30.683547752540285 z"/><path fill="#000000" d="M 100.0,100.0 l -68.43624695523256 30.6835477525403 a 75.0 75.0 0.0 0 1 -1.6520320324521265,-57.37873736685992 l 70.08827898768469 26.695189614319624 z"/><path fill="#004343" d="M 100.0,100.0 l -70.08827898768466 -26.695189614319688 a 75.0 75.0 0.0 0 1 39.40473123514437,-41.74105734091289 l 30.68354775254029 68.43624695523258 z"/><path fill="#003330" d="M 100.0,100.0 l -30.68354775254029 -68.43624695523258 a 75.0 75.0 0.0 0 1 57.37873736685997,-1.6520320324520839 l -26.695189614319684 70.08827898768466 z"/><path fill="#95000e" d="M 79.05834084699002,27.98300956080466 l -6.98055305100333 -24.00566347973178 a 100.0 100.0 0.0 0 1 97.1191637345989,23.82998186092813 l -17.299237882646395 18.048168014499744 a 75.0 75.0 0.0 0 0 -72.83937280094918,-17.872486395696093 z"/><path fill="#e93a06" d="M 151.89771364793918,45.85549595650076 l 17.299237882646395 -18.048168014499748 a 100.0 100.0 0.0 0 1 27.92221220401335,96.0226539189271 l -24.27979093364972 -5.957495465232029 a 75.0 75.0 0.0 0 0 -20.941659153010022,-72.01699043919533 z"/><path fill="#660700" d="M 172.8393728009492,117.872486395696 l 24.279790933649736 5.957495465232019 a 100.0 100.0 0.0 0 1 -69.19695153058564,72.19267205799905 l -6.9805530510033265 -24.00566347973178 a 75.0 75.0 0.0 0 0 51.89771364793923,-54.14450404349928 z"/><path fill="#951828" d="M 120.94165915301,172.01699043919535 l 6.980553051003333 24.00566347973178 a 100.0 100.0 0.0 0 1 -97.11916373459898,-23.829981860928186 l 17.299237882646423 -18.048168014499737 a 75.0 75.0 0.0 0 0 72.83937280094923,17.872486395696143 z"/><path fill="#210100" d="M 48.102286352060766,154.1445040434992 l -17.299237882646416 18.048168014499733 a 100.0 100.0 0.0 0 1 -27.922212204013285,-96.02265391892702 l 24.279790933649736 5.9574954652320145 a 75.0 75.0 0.0 0 0 20.941659153009965,72.01699043919527 z"/><path fill="#000000" d="M 27.160627199050793,82.12751360430393 l -24.279790933649736 -5.9574954652320224 a 100.0 100.0 0.0 0 1 69.19695153058562,-72.19267205799902 l 6.9805530510033265 24.00566347973178 a 75.0 75.0 0.0 0 0 -51.89771364793921,54.14450404349927 z"/><path fill="#95000e" d="M 200.3355797193491,-4.679374484098538 l 17.299237882646395 -18.048168014499748 a 47.5 47.5 0.0 1 1 -65.73710395405631,68.58303845509904 l 17.299237882646402 -18.04816801449975 a 22.5 22.5 0.0 1 0 31.138628188763512,-32.48670242609954 z"/><path fill="#e93a06" d="M 240.82278741516848,134.55347369834575 l 24.279790933649732 5.957495465232025 a 47.5 47.5 0.0 1 1 -92.26320554786899,-22.63848276788169 l 24.279790933649736 5.957495465232022 a 22.5 22.5 0.0 1 0 43.70362368056952,10.723491837417644 z"/><path fill="#660700" d="M 140.4872076958193,239.2328481824443 l 6.980553051003327 24.00566347973178 a 47.5 47.5 0.0 1 1 -26.526101593812648,-91.22152122298077 l 6.98055305100333 24.00566347973178 a 22.5 22.5 0.0 1 0 12.564995491805991,43.21019426351721 z"/><path fill="#951828" d="M -0.33557971934919806,204.67937448409847 l -17.299237882646416 18.048168014499733 a 47.5 47.5 0.0 1 1 65.73710395405638,-68.583038455099 l -17.299237882646413 18.048168014499737 a 22.5 22.5 0.0 1 0 -31.138628188763544,32.48670242609953 z"/><path fill="#210100" d="M -40.822787415168456,65.44652630165427 l -24.279790933649736 -5.9574954652320224 a 47.5 47.5 0.0 1 1 92.26320554786899,22.63848276788169 l -24.279790933649736 -5.957495465232025 a 22.5 22.5 0.0 1 0 -43.70362368056952,-10.723491837417644 z"/><path fill="#000000" d="M 59.51279230418069,-39.23284818244433 l -6.98055305100333 -24.00566347973178 a 47.5 47.5 0.0 1 1 26.526101593812648,91.22152122298077 l -6.9805530510033265 -24.00566347973178 a 22.5 22.5 0.0 1 0 -12.564995491805991,-43.21019426351721 z"/><path fill="#0babcd" d="M -17.634817601995614,222.7275424985982 l -11.084248901570552 15.122894110851666 a 18.75 18.75 0.0 0 1 -7.446999638038841,-12.267140696562416 l 18.531248539609393 -2.85575341428925 z"/><path fill="#000101" d="M -17.634817601995614,222.7275424985982 l -18.531248539609393 2.8557534142892544 a 18.75 18.75 0.0 0 1 3.408354428757729,-13.940002315859811 l 15.122894110851664 11.084248901570557 z"/><path fill="#168b83" d="M -17.634817601995614,222.7275424985982 l -15.122894110851666 -11.084248901570552 a 18.75 18.75 0.0 0 1 12.267140696562414,-7.446999638038841 l 2.8557534142892513 18.531248539609393 z"/><path fill="#046f6b" d="M -17.634817601995614,222.7275424985982 l -2.8557534142892558 -18.531248539609393 a 18.75 18.75 0.0 0 1 13.940002315859811,3.408354428757729 l -11.084248901570556 15.122894110851664 z"/><path fill="#000000" d="M -17.634817601995614,222.7275424985982 l 11.08424890157055 -15.122894110851666 a 18.75 18.75 0.0 0 1 7.44699963803885,12.267140696562446 l -18.5312485396094 2.85575341428922 z"/><path fill="#00cfc8" d="M -17.634817601995614,222.7275424985982 l 18.531248539609397 -2.855753414289224 a 18.75 18.75 0.0 0 1 -3.4083544287577148,13.940002315859756 l -15.122894110851682 -11.084248901570533 z"/><path fill="#000000" d="M -17.634817601995614,222.7275424985982 l 15.122894110851675 11.08424890157054 a 18.75 18.75 0.0 0 1 -12.267140696562427,7.446999638038854 l -2.8557534142892487 -18.531248539609393 z"/><path fill="#000000" d="M -17.634817601995614,222.7275424985982 l 2.8557534142892536 18.531248539609393 a 18.75 18.75 0.0 0 1 -13.940002315859811,-3.4083544287577308 l 11.084248901570557 -15.122894110851663 z"/><path fill="#25fff6" d="M 100.0,100.0 l 26.695189614319744 -70.08827898768463 a 75.0 75.0 0.0 0 1 41.74105734091286,39.4047312351444 l -68.4362469552326 30.68354775254023 z"/><path fill="#00403b" d="M 100.0,100.0 l 68.4362469552326 -30.68354775254023 a 75.0 75.0 0.0 0 1 1.652032032452027,57.37873736685999 l -70.08827898768463 -26.69518961431976 z"/><path fill="#000000" d="M 100.0,100.0 l 70.08827898768463 26.69518961431974 a 75.0 75.0 0.0 0 1 -39.404731235144354,41.74105734091283 l -30.68354775254028 -68.43624695523258 z"/><path fill="#000000" d="M 100.0,100.0 l 30.683547752540296 68.43624695523256 a 75.0 75.0 0.0 0 1 -57.37873736686005,1.6520320324520696 l 26.69518961431975 -70.08827898768463 z"/><path fill="#023f3a" d="M 100.0,100.0 l -26.695189614319737 70.08827898768465 a 75.0 75.0 0.0 0 1 -41.74105734091284,-39.40473123514436 l 68.43624695523258 -30.683547752540285 z"/><path fill="#000000" d="M 100.0,100.0 l -68.43624695523256 30.6835477525403 a 75.0 75.0 0.0 0 1 -1.6520320324521265,-57.37873736685992 l 70.08827898768469 26.695189614319624 z"/><path fill="#004343" d="M 100.0,100.0 l -70.08827898768466 -26.695189614319688 a 75.0 75.0 0.0 0 1 39.40473123514437,-41.74105734091289 l 30.68354775254029 68.43624695523258 z"/><path fill="#003330" d="M 100.0,100.0 l -30.68354775254029 -68.43624695523258 a 75.0 75.0 0.0 0 1 57.37873736685997,-1.6520320324520839 l -26.695189614319684 70.08827898768466 z"/><path fill="#95000e" d="M 79.05834084699002,27.98300956080466 l -6.98055305100333 -24.00566347973178 a 100.0 100.0 0.0 0 1 97.1191637345989,23.82998186092813 l -17.299237882646395 18.048168014499744 a 75.0 75.0 0.0 0 0 -72.83937280094918,-17.872486395696093 z"/><path fill="#e93a06" d="M 151.89771364793918,45.85549595650076 l 17.299237882646395 -18.048168014499748 a 100.0 100.0 0.0 0 1 27.92221220401335,96.0226539189271 l -24.27979093364972 -5.957495465232029 a 75.0 75.0 0.0 0 0 -20.941659153010022,-72.01699043919533 z"/><path fill="#660700" d="M 172.8393728009492,117.872486395696 l 24.279790933649736 5.957495465232019 a 100.0 100.0 0.0 0 1 -69.19695153058564,72.19267205799905 l -6.9805530510033265 -24.00566347973178 a 75.0 75.0 0.0 0 0 51.89771364793923,-54.14450404349928 z"/><path fill="#951828" d="M 120.94165915301,172.01699043919535 l 6.980553051003333 24.00566347973178 a 100.0 100.0 0.0 0 1 -97.11916373459898,-23.829981860928186 l 17.299237882646423 -18.048168014499737 a 75.0 75.0 0.0 0 0 72.83937280094923,17.872486395696143 z"/><path fill="#210100" d="M 48.102286352060766,154.1445040434992 l -17.299237882646416 18.048168014499733 a 100.0 100.0 0.0 0 1 -27.922212204013285,-96.02265391892702 l 24.279790933649736 5.9574954652320145 a 75.0 75.0 0.0 0 0 20.941659153009965,72.01699043919527 z"/><path fill="#000000" d="M 27.160627199050793,82.12751360430393 l -24.279790933649736 -5.9574954652320224 a 100.0 100.0 0.0 0 1 69.19695153058562,-72.19267205799902 l 6.9805530510033265 24.00566347973178 a 75.0 75.0 0.0 0 0 -51.89771364793921,54.14450404349927 z"/><path fill="#95000e" d="M 200.3355797193491,-4.679374484098538 l 17.299237882646395 -18.048168014499748 a 47.5 47.5 0.0 1 1 -65.73710395405631,68.58303845509904 l 17.299237882646402 -18.04816801449975 a 22.5 22.5 0.0 1 0 31.138628188763512,-32.48670242609954 z"/><path fill="#e93a06" d="M 240.82278741516848,134.55347369834575 l 24.279790933649732 5.957495465232025 a 47.5 47.5 0.0 1 1 -92.26320554786899,-22.63848276788169 l 24.279790933649736 5.957495465232022 a 22.5 22.5 0.0 1 0 43.70362368056952,10.723491837417644 z"/><path fill="#660700" d="M 140.4872076958193,239.2328481824443 l 6.980553051003327 24.00566347973178 a 47.5 47.5 0.0 1 1 -26.526101593812648,-91.22152122298077 l 6.98055305100333 24.00566347973178 a 22.5 22.5 0.0 1 0 12.564995491805991,43.21019426351721 z"/><path fill="#951828" d="M -0.33557971934919806,204.67937448409847 l -17.299237882646416 18.048168014499733 a 47.5 47.5 0.0 1 1 65.73710395405638,-68.583038455099 l -17.299237882646413 18.048168014499737 a 22.5 22.5 0.0 1 0 -31.138628188763544,32.48670242609953 z"/><path fill="#210100" d="M -40.822787415168456,65.44652630165427 l -24.279790933649736 -5.9574954652320224 a 47.5 47.5 0.0 1 1 92.26320554786899,22.63848276788169 l -24.279790933649736 -5.957495465232025 a 22.5 22.5 0.0 1 0 -43.70362368056952,-10.723491837417644 z"/><path fill="#000000" d="M 59.51279230418069,-39.23284818244433 l -6.98055305100333 -24.00566347973178 a 47.5 47.5 0.0 1 1 26.526101593812648,91.22152122298077 l -6.9805530510033265 -24.00566347973178 a 22.5 22.5 0.0 1 0 -12.564995491805991,-43.21019426351721 z"/><path fill="#5a0003" d="M -10.519864993211993,205.37992164227433 l 2.3716508695945384 -5.782540285441294 a 25.0 25.0 0.0 0 1 15.288005403207237,19.78072017878786 l -6.193652220396348 0.8373602407443279 a 18.75 18.75 0.0 0 0 -11.466004052405427,-14.835540134090895 z"/><path fill="#fd130c" d="M 0.9461390591934276,220.21546177636523 l 6.1936522203963476 -0.8373602407443278 a 25.0 25.0 0.0 0 1 -9.486603478378147,23.130161141765196 l -3.822001350801811 -4.945180044696972 a 18.75 18.75 0.0 0 0 7.114952608783609,-17.347620856323896 z"/><path fill="#000000" d="M -6.16881354959018,237.56308263268912 l 3.822001350801812 4.945180044696969 a 25.0 25.0 0.0 0 1 -24.774608881585365,3.349440962977307 l 2.3716508695945286 -5.782540285441296 a 18.75 18.75 0.0 0 0 18.580956661189024,-2.51208072223298 z"/><path fill="#cf2001" d="M -24.749770210779204,240.0751633549221 l -2.3716508695945286 5.782540285441297 a 25.0 25.0 0.0 0 1 -15.288005403207276,-19.780720178787877 l 6.193652220396348 -0.8373602407443279 a 18.75 18.75 0.0 0 0 11.466004052405456,14.835540134090909 z"/><path fill="#ff0f2f" d="M -36.215774263184656,225.2396232208312 l -6.1936522203963476 0.8373602407443285 a 25.0 25.0 0.0 0 1 9.486603478378143,-23.130161141765196 l 3.8220013508018127 4.945180044696972 a 18.75 18.75 0.0 0 0 -7.114952608783607,17.347620856323896 z"/><path fill="#bd000d" d="M -29.100821654401045,207.8920023645073 l -3.8220013508018127 -4.945180044696969 a 25.0 25.0 0.0 0 1 24.774608881585408,-3.349440962977293 l -2.3716508695945393 5.782540285441293 a 18.75 18.75 0.0 0 0 -18.580956661189056,2.5120807222329695 z"/><path fill="#5a0003" d="M 18.288365276303207,217.8708531022811 l 6.1936522203963476 -0.8373602407443278 a 11.875 11.875 0.0 1 1 -23.53587843750612,3.181968914828444 l 6.193652220396347 -0.837360240744327 a 5.625 5.625 0.0 1 0 11.148573996713425,-1.507248433339789 z"/><path fill="#fd130c" d="M 4.532790232654891,251.40958675784066 l 3.822001350801811 4.945180044696971 a 11.875 11.875 0.0 1 1 -14.523605133046884,-18.791684169848487 l 3.8220013508018127 4.94518004469697 a 5.625 5.625 0.0 1 0 6.87960243144326,8.901324080454547 z"/><path fill="#000000" d="M -31.390392645643885,256.2662761541577 l -2.37165086959453 5.782540285441296 a 11.875 11.875 0.0 1 1 9.012273304459212,-21.97365308467693 l -2.3716508695945286 5.7825402854413 a 5.625 5.625 0.0 1 0 -4.268971565270153,10.408572513794333 z"/><path fill="#cf2001" d="M -53.55800048029443,227.58423189491532 l -6.1936522203963476 0.8373602407443269 a 11.875 11.875 0.0 1 1 23.53587843750612,-3.181968914828444 l -6.193652220396347 0.8373602407443279 a 5.625 5.625 0.0 1 0 -11.148573996713425,1.507248433339789 z"/><path fill="#ff0f2f" d="M -39.80242543664612,194.04549823935577 l -3.822001350801812 -4.94518004469697 a 11.875 11.875 0.0 1 1 14.523605133046882,18.791684169848487 l -3.822001350801811 -4.945180044696972 a 5.625 5.625 0.0 1 0 -6.87960243144326,-8.901324080454547 z"/><path fill="#bd000d" d="M -3.879242558347279,189.18880884303871 l 2.3716508695945397 -5.782540285441293 a 11.875 11.875 0.0 1 1 -9.012273304459251,21.97365308467691 l 2.3716508695945393 -5.782540285441293 a 5.625 5.625 0.0 1 0 4.2689715652701725,-10.408572513794326 z"/><path fill="#25fff6" d="M 100.0,100.0 l 26.695189614319744 -70.08827898768463 a 75.0 75.0 0.0 0 1 41.74105734091286,39.4047312351444 l -68.4362469552326 30.68354775254023 z"/><path fill="#00403b" d="M 100.0,100.0 l 68.4362469552326 -30.68354775254023 a 75.0 75.0 0.0 0 1 1.652032032452027,57.37873736685999 l -70.08827898768463 -26.69518961431976 z"/><path fill="#000000" d="M 100.0,100.0 l 70.08827898768463 26.69518961431974 a 75.0 75.0 0.0 0 1 -39.404731235144354,41.74105734091283 l -30.68354775254028 -68.43624695523258 z"/><path fill="#000000" d="M 100.0,100.0 l 30.683547752540296 68.43624695523256 a 75.0 75.0 0.0 0 1 -57.37873736686005,1.6520320324520696 l 26.69518961431975 -70.08827898768463 z"/><path fill="#023f3a" d="M 100.0,100.0 l -26.695189614319737 70.08827898768465 a 75.0 75.0 0.0 0 1 -41.74105734091284,-39.40473123514436 l 68.43624695523258 -30.683547752540285 z"/><path fill="#000000" d="M 100.0,100.0 l -68.43624695523256 30.6835477525403 a 75.0 75.0 0.0 0 1 -1.6520320324521265,-57.37873736685992 l 70.08827898768469 26.695189614319624 z"/><path fill="#004343" d="M 100.0,100.0 l -70.08827898768466 -26.695189614319688 a 75.0 75.0 0.0 0 1 39.40473123514437,-41.74105734091289 l 30.68354775254029 68.43624695523258 z"/><path fill="#003330" d="M 100.0,100.0 l -30.68354775254029 -68.43624695523258 a 75.0 75.0 0.0 0 1 57.37873736685997,-1.6520320324520839 l -26.695189614319684 70.08827898768466 z"/><path fill="#95000e" d="M 79.05834084699002,27.98300956080466 l -6.98055305100333 -24.00566347973178 a 100.0 100.0 0.0 0 1 97.1191637345989,23.82998186092813 l -17.299237882646395 18.048168014499744 a 75.0 75.0 0.0 0 0 -72.83937280094918,-17.872486395696093 z"/><path fill="#e93a06" d="M 151.89771364793918,45.85549595650076 l 17.299237882646395 -18.048168014499748 a 100.0 100.0 0.0 0 1 27.92221220401335,96.0226539189271 l -24.27979093364972 -5.957495465232029 a 75.0 75.0 0.0 0 0 -20.941659153010022,-72.01699043919533 z"/><path fill="#660700" d="M 172.8393728009492,117.872486395696 l 24.279790933649736 5.957495465232019 a 100.0 100.0 0.0 0 1 -69.19695153058564,72.19267205799905 l -6.9805530510033265 -24.00566347973178 a 75.0 75.0 0.0 0 0 51.89771364793923,-54.14450404349928 z"/><path fill="#951828" d="M 120.94165915301,172.01699043919535 l 6.980553051003333 24.00566347973178 a 100.0 100.0 0.0 0 1 -97.11916373459898,-23.829981860928186 l 17.299237882646423 -18.048168014499737 a 75.0 75.0 0.0 0 0 72.83937280094923,17.872486395696143 z"/><path fill="#210100" d="M 48.102286352060766,154.1445040434992 l -17.299237882646416 18.048168014499733 a 100.0 100.0 0.0 0 1 -27.922212204013285,-96.02265391892702 l 24.279790933649736 5.9574954652320145 a 75.0 75.0 0.0 0 0 20.941659153009965,72.01699043919527 z"/><path fill="#000000" d="M 27.160627199050793,82.12751360430393 l -24.279790933649736 -5.9574954652320224 a 100.0 100.0 0.0 0 1 69.19695153058562,-72.19267205799902 l 6.9805530510033265 24.00566347973178 a 75.0 75.0 0.0 0 0 -51.89771364793921,54.14450404349927 z"/><path fill="#95000e" d="M 200.3355797193491,-4.679374484098538 l 17.299237882646395 -18.048168014499748 a 47.5 47.5 0.0 1 1 -65.73710395405631,68.58303845509904 l 17.299237882646402 -18.04816801449975 a 22.5 22.5 0.0 1 0 31.138628188763512,-32.48670242609954 z"/><path fill="#e93a06" d="M 240.82278741516848,134.55347369834575 l 24.279790933649732 5.957495465232025 a 47.5 47.5 0.0 1 1 -92.26320554786899,-22.63848276788169 l 24.279790933649736 5.957495465232022 a 22.5 22.5 0.0 1 0 43.70362368056952,10.723491837417644 z"/><path fill="#660700" d="M 140.4872076958193,239.2328481824443 l 6.980553051003327 24.00566347973178 a 47.5 47.5 0.0 1 1 -26.526101593812648,-91.22152122298077 l 6.98055305100333 24.00566347973178 a 22.5 22.5 0.0 1 0 12.564995491805991,43.21019426351721 z"/><path fill="#951828" d="M -0.33557971934919806,204.67937448409847 l -17.299237882646416 18.048168014499733 a 47.5 47.5 0.0 1 1 65.73710395405638,-68.583038455099 l -17.299237882646413 18.048168014499737 a 22.5 22.5 0.0 1 0 -31.138628188763544,32.48670242609953 z"/><path fill="#210100" d="M -40.822787415168456,65.44652630165427 l -24.279790933649736 -5.9574954652320224 a 47.5 47.5 0.0 1 1 92.26320554786899,22.63848276788169 l -24.279790933649736 -5.957495465232025 a 22.5 22.5 0.0 1 0 -43.70362368056952,-10.723491837417644 z"/><path fill="#000000" d="M 59.51279230418069,-39.23284818244433 l -6.98055305100333 -24.00566347973178 a 47.5 47.5 0.0 1 1 26.526101593812648,91.22152122298077 l -6.9805530510033265 -24.00566347973178 a 22.5 22.5 0.0 1 0 -12.564995491805991,-43.21019426351721 z"/><path fill="#09a58a" d="M -65.10257834881818,59.48903083642225 l 1.6401217032942603 18.67812894265331 a 18.75 18.75 0.0 0 1 -13.687812160150534,-4.310956129055837 l 12.047690456856273 -14.367172813597472 z"/><path fill="#000000" d="M -65.10257834881818,59.48903083642225 l -12.047690456856268 14.367172813597474 a 18.75 18.75 0.0 0 1 -6.6304384857970415,-12.727051110303233 l 18.67812894265331 -1.6401217032942403 z"/><path fill="#000000" d="M -65.10257834881818,59.48903083642225 l -18.67812894265331 1.640121703294245 a 18.75 18.75 0.0 0 1 4.3109561290558585,-13.687812160150543 l 14.36717281359745 12.047690456856298 z"/><path fill="#024e49" d="M -65.10257834881818,59.48903083642225 l -14.367172813597461 -12.047690456856285 a 18.75 18.75 0.0 0 1 12.72705111030322,-6.630438485797024 l 1.6401217032942417 18.67812894265331 z"/><path fill="#001510" d="M -65.10257834881818,59.48903083642225 l -1.6401217032942417 -18.67812894265331 a 18.75 18.75 0.0 0 1 13.687812160150525,4.310956129055848 l -12.047690456856284 14.367172813597461 z"/><path fill="#00221e" d="M -65.10257834881818,59.48903083642225 l 12.047690456856284 -14.367172813597461 a 18.75 18.75 0.0 0 1 6.6304384857970255,12.727051110303218 l -18.67812894265331 1.6401217032942426 z"/><path fill="#000000" d="M -65.10257834881818,59.48903083642225 l 18.67812894265331 -1.6401217032942426 a 18.75 18.75 0.0 0 1 -4.31095612905585,13.68781216015053 l -14.36717281359746 -12.047690456856287 z"/><path fill="#00d3e4" d="M -65.10257834881818,59.48903083642225 l 14.367172813597463 12.047690456856284 a 18.75 18.75 0.0 0 1 -12.727051110303224,6.6304384857970255 l -1.6401217032942392 -18.67812894265331 z"/><path fill="#25fff6" d="M 100.0,100.0 l 26.695189614319744 -70.08827898768463 a 75.0 75.0 0.0 0 1 41.74105734091286,39.4047312351444 l -68.4362469552326 30.68354775254023 z"/><path fill="#00403b" d="M 100.0,100.0 l 68.4362469552326 -30.68354775254023 a 75.0 75.0 0.0 0 1 1.652032032452027,57.37873736685999 l -70.08827898768463 -26.69518961431976 z"/><path fill="#000000" d="M 100.0,100.0 l 70.08827898768463 26.69518961431974 a 75.0 75.0 0.0 0 1 -39.404731235144354,41.74105734091283 l -30.68354775254028 -68.43624695523258 z"/><path fill="#000000" d="M 100.0,100.0 l 30.683547752540296 68.43624695523256 a 75.0 75.0 0.0 0 1 -57.37873736686005,1.6520320324520696 l 26.69518961431975 -70.08827898768463 z"/><path fill="#023f3a" d="M 100.0,100.0 l -26.695189614319737 70.08827898768465 a 75.0 75.0 0.0 0 1 -41.74105734091284,-39.40473123514436 l 68.43624695523258 -30.683547752540285 z"/><path fill="#000000" d="M 100.0,100.0 l -68.43624695523256 30.6835477525403 a 75.0 75.0 0.0 0 1 -1.6520320324521265,-57.37873736685992 l 70.08827898768469 26.695189614319624 z"/><path fill="#004343" d="M 100.0,100.0 l -70.08827898768466 -26.695189614319688 a 75.0 75.0 0.0 0 1 39.40473123514437,-41.74105734091289 l 30.68354775254029 68.43624695523258 z"/><path fill="#003330" d="M 100.0,100.0 l -30.68354775254029 -68.43624695523258 a 75.0 75.0 0.0 0 1 57.37873736685997,-1.6520320324520839 l -26.695189614319684 70.08827898768466 z"/><path fill="#95000e" d="M 79.05834084699002,27.98300956080466 l -6.98055305100333 -24.00566347973178 a 100.0 100.0 0.0 0 1 97.1191637345989,23.82998186092813 l -17.299237882646395 18.048168014499744 a 75.0 75.0 0.0 0 0 -72.83937280094918,-17.872486395696093 z"/><path fill="#e93a06" d="M 151.89771364793918,45.85549595650076 l 17.299237882646395 -18.048168014499748 a 100.0 100.0 0.0 0 1 27.92221220401335,96.0226539189271 l -24.27979093364972 -5.957495465232029 a 75.0 75.0 0.0 0 0 -20.941659153010022,-72.01699043919533 z"/><path fill="#660700" d="M 172.8393728009492,117.872486395696 l 24.279790933649736 5.957495465232019 a 100.0 100.0 0.0 0 1 -69.19695153058564,72.19267205799905 l -6.9805530510033265 -24.00566347973178 a 75.0 75.0 0.0 0 0 51.89771364793923,-54.14450404349928 z"/><path fill="#951828" d="M 120.94165915301,172.01699043919535 l 6.980553051003333 24.00566347973178 a 100.0 100.0 0.0 0 1 -97.11916373459898,-23.829981860928186 l 17.299237882646423 -18.048168014499737 a 75.0 75.0 0.0 0 0 72.83937280094923,17.872486395696143 z"/><path fill="#210100" d="M 48.102286352060766,154.1445040434992 l -17.299237882646416 18.048168014499733 a 100.0 100.0 0.0 0 1 -27.922212204013285,-96.02265391892702 l 24.279790933649736 5.9574954652320145 a 75.0 75.0 0.0 0 0 20.941659153009965,72.01699043919527 z"/><path fill="#000000" d="M 27.160627199050793,82.12751360430393 l -24.279790933649736 -5.9574954652320224 a 100.0 100.0 0.0 0 1 69.19695153058562,-72.19267205799902 l 6.9805530510033265 24.00566347973178 a 75.0 75.0 0.0 0 0 -51.89771364793921,54.14450404349927 z"/><path fill="#95000e" d="M 200.3355797193491,-4.679374484098538 l 17.299237882646395 -18.048168014499748 a 47.5 47.5 0.0 1 1 -65.73710395405631,68.58303845509904 l 17.299237882646402 -18.04816801449975 a 22.5 22.5 0.0 1 0 31.138628188763512,-32.48670242609954 z"/><path fill="#e93a06" d="M 240.82278741516848,134.55347369834575 l 24.279790933649732 5.957495465232025 a 47.5 47.5 0.0 1 1 -92.26320554786899,-22.63848276788169 l 24.279790933649736 5.957495465232022 a 22.5 22.5 0.0 1 0 43.70362368056952,10.723491837417644 z"/><path fill="#660700" d="M 140.4872076958193,239.2328481824443 l 6.980553051003327 24.00566347973178 a 47.5 47.5 0.0 1 1 -26.526101593812648,-91.22152122298077 l 6.98055305100333 24.00566347973178 a 22.5 22.5 0.0 1 0 12.564995491805991,43.21019426351721 z"/><path fill="#951828" d="M -0.33557971934919806,204.67937448409847 l -17.299237882646416 18.048168014499733 a 47.5 47.5 0.0 1 1 65.73710395405638,-68.583038455099 l -17.299237882646413 18.048168014499737 a 22.5 22.5 0.0 1 0 -31.138628188763544,32.48670242609953 z"/><path fill="#210100" d="M -40.822787415168456,65.44652630165427 l -24.279790933649736 -5.9574954652320224 a 47.5 47.5 0.0 1 1 92.26320554786899,22.63848276788169 l -24.279790933649736 -5.957495465232025 a 22.5 22.5 0.0 1 0 -43.70362368056952,-10.723491837417644 z"/><path fill="#000000" d="M 59.51279230418069,-39.23284818244433 l -6.98055305100333 -24.00566347973178 a 47.5 47.5 0.0 1 1 26.526101593812648,91.22152122298077 l -6.9805530510033265 -24.00566347973178 a 22.5 22.5 0.0 1 0 -12.564995491805991,-43.21019426351721 z"/><path fill="#69000a" d="M -57.103114458385534,76.4469516248227 l 2.666487963477551 5.6526402628001495 a 25.0 25.0 0.0 0 1 -24.914296191113817,-2.06829526457234 l 3.5620860843009012 -5.135566446657064 a 18.75 18.75 0.0 0 0 18.685722143335365,1.5512214484292546 z"/><path fill="#e10100" d="M -75.78883660172089,74.89573017639344 l -3.562086084300902 5.135566446657065 a 25.0 25.0 0.0 0 1 -10.665951853910194,-22.61056105120058 l 6.2285740477784515 0.5170738161430783 a 18.75 18.75 0.0 0 0 7.999463890432645,16.957920788400436 z"/><path fill="#aa1603" d="M -83.78830049215354,57.937809387993006 l -6.228574047778451 -0.5170738161430788 a 25.0 25.0 0.0 0 1 14.248344337203598,-20.542265786628285 l 2.666487963477552 5.652640262800153 a 18.75 18.75 0.0 0 0 -10.6862582529027,15.40669933997121 z"/><path fill="#a4000d" d="M -73.10204223925084,42.5311100480218 l -2.666487963477552 -5.6526402628001495 a 25.0 25.0 0.0 0 1 24.91429619111382,2.06829526457234 l -3.562086084300905 5.135566446657064 a 18.75 18.75 0.0 0 0 -18.685722143335365,-1.5512214484292546 z"/><path fill="#ce0011" d="M -54.416320095915474,44.08233149645106 l 3.5620860843009012 -5.135566446657065 a 25.0 25.0 0.0 0 1 10.665951853910197,22.610561051200584 l -6.2285740477784515 -0.5170738161430819 a 18.75 18.75 0.0 0 0 -7.999463890432647,-16.957920788400436 z"/><path fill="#ff2f1d" d="M -46.41685620548283,61.04025228485149 l 6.22857404777845 0.5170738161430851 a 25.0 25.0 0.0 0 1 -14.248344337203601,20.54226578662826 l -2.6664879634775485 -5.652640262800151 a 18.75 18.75 0.0 0 0 10.6862582529027,-15.406699339971194 z"/><path fill="#69000a" d="M -85.76267763776343,89.27531622703323 l -3.5620860843009035 5.135566446657064 a 11.875 11.875 0.0 1 1 13.535927120343432,-19.515152497296842 l -3.562086084300903 5.135566446657064 a 5.625 5.625 0.0 1 0 -6.411754951741626,9.244019603982714 z"/><path fill="#e10100" d="M -101.2283078259332,56.49000270279238 l -6.228574047778451 -0.5170738161430803 a 11.875 11.875 0.0 1 1 23.668581381558113,1.9648805013437067 l -6.22857404777845 -0.517073816143081 a 5.625 5.625 0.0 1 0 -11.211433286001212,-0.9307328690575454 z"/><path fill="#aa1603" d="M -80.56820853698798,26.703717312181375 l -2.6664879634775507 -5.6526402628001495 a 11.875 11.875 0.0 1 1 10.132654261214691,21.480032998640567 l -2.6664879634775493 -5.6526402628001495 a 5.625 5.625 0.0 1 0 -4.799678334259591,-10.17475247304027 z"/><path fill="#a4000d" d="M -44.44247905987294,29.702745445811278 l 3.562086084300903 -5.135566446657064 a 11.875 11.875 0.0 1 1 -13.535927120343432,19.515152497296842 l 3.562086084300903 -5.135566446657064 a 5.625 5.625 0.0 1 0 6.411754951741626,-9.244019603982714 z"/><path fill="#ce0011" d="M -28.976848871703165,62.48805897005212 l 6.228574047778451 0.5170738161430811 a 11.875 11.875 0.0 1 1 -23.668581381558113,-1.964880501343707 l 6.22857404777845 0.5170738161430803 a 5.625 5.625 0.0 1 0 11.211433286001212,0.9307328690575454 z"/><path fill="#ff2f1d" d="M -49.63694816064839,92.27434436066311 l 2.66648796347755 5.65264026280015 a 11.875 11.875 0.0 1 1 -10.132654261214691,-21.48003299864057 l 2.6664879634775502 5.6526402628001495 a 5.625 5.625 0.0 1 0 4.799678334259591,10.17475247304027 z"/><path fill="#25fff6" d="M 100.0,100.0 l 26.695189614319744 -70.08827898768463 a 75.0 75.0 0.0 0 1 41.74105734091286,39.4047312351444 l -68.4362469552326 30.68354775254023 z"/><path fill="#00403b" d="M 100.0,100.0 l 68.4362469552326 -30.68354775254023 a 75.0 75.0 0.0 0 1 1.652032032452027,57.37873736685999 l -70.08827898768463 -26.69518961431976 z"/><path fill="#000000" d="M 100.0,100.0 l 70.08827898768463 26.69518961431974 a 75.0 75.0 0.0 0 1 -39.404731235144354,41.74105734091283 l -30.68354775254028 -68.43624695523258 z"/><path fill="#000000" d="M 100.0,100.0 l 30.683547752540296 68.43624695523256 a 75.0 75.0 0.0 0 1 -57.37873736686005,1.6520320324520696 l 26.69518961431975 -70.08827898768463 z"/><path fill="#023f3a" d="M 100.0,100.0 l -26.695189614319737 70.08827898768465 a 75.0 75.0 0.0 0 1 -41.74105734091284,-39.40473123514436 l 68.43624695523258 -30.683547752540285 z"/><path fill="#000000" d="M 100.0,100.0 l -68.43624695523256 30.6835477525403 a 75.0 75.0 0.0 0 1 -1.6520320324521265,-57.37873736685992 l 70.08827898768469 26.695189614319624 z"/><path fill="#004343" d="M 100.0,100.0 l -70.08827898768466 -26.695189614319688 a 75.0 75.0 0.0 0 1 39.40473123514437,-41.74105734091289 l 30.68354775254029 68.43624695523258 z"/><path fill="#003330" d="M 100.0,100.0 l -30.68354775254029 -68.43624695523258 a 75.0 75.0 0.0 0 1 57.37873736685997,-1.6520320324520839 l -26.695189614319684 70.08827898768466 z"/><path fill="#95000e" d="M 79.05834084699002,27.98300956080466 l -6.98055305100333 -24.00566347973178 a 100.0 100.0 0.0 0 1 97.1191637345989,23.82998186092813 l -17.299237882646395 18.048168014499744 a 75.0 75.0 0.0 0 0 -72.83937280094918,-17.872486395696093 z"/><path fill="#e93a06" d="M 151.89771364793918,45.85549595650076 l 17.299237882646395 -18.048168014499748 a 100.0 100.0 0.0 0 1 27.92221220401335,96.0226539189271 l -24.27979093364972 -5.957495465232029 a 75.0 75.0 0.0 0 0 -20.941659153010022,-72.01699043919533 z"/><path fill="#660700" d="M 172.8393728009492,117.872486395696 l 24.279790933649736 5.957495465232019 a 100.0 100.0 0.0 0 1 -69.19695153058564,72.19267205799905 l -6.9805530510033265 -24.00566347973178 a 75.0 75.0 0.0 0 0 51.89771364793923,-54.14450404349928 z"/><path fill="#951828" d="M 120.94165915301,172.01699043919535 l 6.980553051003333 24.00566347973178 a 100.0 100.0 0.0 0 1 -97.11916373459898,-23.829981860928186 l 17.299237882646423 -18.048168014499737 a 75.0 75.0 0.0 0 0 72.83937280094923,17.872486395696143 z"/><path fill="#210100" d="M 48.102286352060766,154.1445040434992 l -17.299237882646416 18.048168014499733 a 100.0 100.0 0.0 0 1 -27.922212204013285,-96.02265391892702 l 24.279790933649736 5.9574954652320145 a 75.0 75.0 0.0 0 0 20.941659153009965,72.01699043919527 z"/><path fill="#000000" d="M 27.160627199050793,82.12751360430393 l -24.279790933649736 -5.9574954652320224 a 100.0 100.0 0.0 0 1 69.19695153058562,-72.19267205799902 l 6.9805530510033265 24.00566347973178 a 75.0 75.0 0.0 0 0 -51.89771364793921,54.14450404349927 z"/><path fill="#95000e" d="M 200.3355797193491,-4.679374484098538 l 17.299237882646395 -18.048168014499748 a 47.5 47.5 0.0 1 1 -65.73710395405631,68.58303845509904 l 17.299237882646402 -18.04816801449975 a 22.5 22.5 0.0 1 0 31.138628188763512,-32.48670242609954 z"/><path fill="#e93a06" d="M 240.82278741516848,134.55347369834575 l 24.279790933649732 5.957495465232025 a 47.5 47.5 0.0 1 1 -92.26320554786899,-22.63848276788169 l 24.279790933649736 5.957495465232022 a 22.5 22.5 0.0 1 0 43.70362368056952,10.723491837417644 z"/><path fill="#660700" d="M 140.4872076958193,239.2328481824443 l 6.980553051003327 24.00566347973178 a 47.5 47.5 0.0 1 1 -26.526101593812648,-91.22152122298077 l 6.98055305100333 24.00566347973178 a 22.5 22.5 0.0 1 0 12.564995491805991,43.21019426351721 z"/><path fill="#951828" d="M -0.33557971934919806,204.67937448409847 l -17.299237882646416 18.048168014499733 a 47.5 47.5 0.0 1 1 65.73710395405638,-68.583038455099 l -17.299237882646413 18.048168014499737 a 22.5 22.5 0.0 1 0 -31.138628188763544,32.48670242609953 z"/><path fill="#210100" d="M -40.822787415168456,65.44652630165427 l -24.279790933649736 -5.9574954652320224 a 47.5 47.5 0.0 1 1 92.26320554786899,22.63848276788169 l -24.279790933649736 -5.957495465232025 a 22.5 22.5 0.0 1 0 -43.70362368056952,-10.723491837417644 z"/><path fill="#000000" d="M 59.51279230418069,-39.23284818244433 l -6.98055305100333 -24.00566347973178 a 47.5 47.5 0.0 1 1 26.526101593812648,91.22152122298077 l -6.9805530510033265 -24.00566347973178 a 22.5 22.5 0.0 1 0 -12.564995491805991,-43.21019426351721 z"/><path fill="#000000" d="M 52.532239253177366,-63.23851166217611 l -18.510799409228515 -2.9854321682639746 a 18.75 18.75 0.0 0 1 7.53270695273101,-12.21469895013736 l 10.978092456497505 15.200131118401334 z"/><path fill="#00d0bd" d="M 52.532239253177366,-63.23851166217611 l -10.978092456497505 -15.200131118401334 a 18.75 18.75 0.0 0 1 13.96352462476148,-3.3106682908271807 l -2.9854321682639737 18.510799409228515 z"/><path fill="#019091" d="M 52.532239253177366,-63.23851166217611 l 2.9854321682639737 -18.510799409228515 a 18.75 18.75 0.0 0 1 12.214698950137358,7.53270695273101 l -15.200131118401332 10.978092456497505 z"/><path fill="#006d67" d="M 52.532239253177366,-63.23851166217611 l 15.200131118401332 -10.978092456497505 a 18.75 18.75 0.0 0 1 3.3106682908271825,13.963524624761481 l -18.510799409228515 -2.985432168263977 z"/><path fill="#6debff" d="M 52.532239253177366,-63.23851166217611 l 18.510799409228515 2.9854321682639724 a 18.75 18.75 0.0 0 1 -7.5327069527310115,12.214698950137363 l -10.978092456497503 -15.200131118401336 z"/><path fill="#006157" d="M 52.532239253177366,-63.23851166217611 l 10.978092456497508 15.200131118401332 a 18.75 18.75 0.0 0 1 -13.9635246247615,3.310668290827179 l 2.985432168263992 -18.51079940922851 z"/><path fill="#001c15" d="M 52.532239253177366,-63.23851166217611 l -2.985432168263988 18.51079940922851 a 18.75 18.75 0.0 0 1 -12.214698950137347,-7.532706952731008 l 15.200131118401334 -10.978092456497503 z"/><path fill="#00221f" d="M 52.532239253177366,-63.23851166217611 l -15.20013111840133 10.978092456497512 a 18.75 18.75 0.0 0 1 -3.3106682908271843,-13.96352462476148 l 18.510799409228515 2.9854321682639666 z"/><path fill="#25fff6" d="M 100.0,100.0 l 26.695189614319744 -70.08827898768463 a 75.0 75.0 0.0 0 1 41.74105734091286,39.4047312351444 l -68.4362469552326 30.68354775254023 z"/><path fill="#00403b" d="M 100.0,100.0 l 68.4362469552326 -30.68354775254023 a 75.0 75.0 0.0 0 1 1.652032032452027,57.37873736685999 l -70.08827898768463 -26.69518961431976 z"/><path fill="#000000" d="M 100.0,100.0 l 70.08827898768463 26.69518961431974 a 75.0 75.0 0.0 0 1 -39.404731235144354,41.74105734091283 l -30.68354775254028 -68.43624695523258 z"/><path fill="#000000" d="M 100.0,100.0 l 30.683547752540296 68.43624695523256 a 75.0 75.0 0.0 0 1 -57.37873736686005,1.6520320324520696 l 26.69518961431975 -70.08827898768463 z"/><path fill="#023f3a" d="M 100.0,100.0 l -26.695189614319737 70.08827898768465 a 75.0 75.0 0.0 0 1 -41.74105734091284,-39.40473123514436 l 68.43624695523258 -30.683547752540285 z"/><path fill="#000000" d="M 100.0,100.0 l -68.43624695523256 30.6835477525403 a 75.0 75.0 0.0 0 1 -1.6520320324521265,-57.37873736685992 l 70.08827898768469 26.695189614319624 z"/><path fill="#004343" d="M 100.0,100.0 l -70.08827898768466 -26.695189614319688 a 75.0 75.0 0.0 0 1 39.40473123514437,-41.74105734091289 l 30.68354775254029 68.43624695523258 z"/><path fill="#003330" d="M 100.0,100.0 l -30.68354775254029 -68.43624695523258 a 75.0 75.0 0.0 0 1 57.37873736685997,-1.6520320324520839 l -26.695189614319684 70.08827898768466 z"/><path fill="#95000e" d="M 79.05834084699002,27.98300956080466 l -6.98055305100333 -24.00566347973178 a 100.0 100.0 0.0 0 1 97.1191637345989,23.82998186092813 l -17.299237882646395 18.048168014499744 a 75.0 75.0 0.0 0 0 -72.83937280094918,-17.872486395696093 z"/><path fill="#e93a06" d="M 151.89771364793918,45.85549595650076 l 17.299237882646395 -18.048168014499748 a 100.0 100.0 0.0 0 1 27.92221220401335,96.0226539189271 l -24.27979093364972 -5.957495465232029 a 75.0 75.0 0.0 0 0 -20.941659153010022,-72.01699043919533 z"/><path fill="#660700" d="M 172.8393728009492,117.872486395696 l 24.279790933649736 5.957495465232019 a 100.0 100.0 0.0 0 1 -69.19695153058564,72.19267205799905 l -6.9805530510033265 -24.00566347973178 a 75.0 75.0 0.0 0 0 51.89771364793923,-54.14450404349928 z"/><path fill="#951828" d="M 120.94165915301,172.01699043919535 l 6.980553051003333 24.00566347973178 a 100.0 100.0 0.0 0 1 -97.11916373459898,-23.829981860928186 l 17.299237882646423 -18.048168014499737 a 75.0 75.0 0.0 0 0 72.83937280094923,17.872486395696143 z"/><path fill="#210100" d="M 48.102286352060766,154.1445040434992 l -17.299237882646416 18.048168014499733 a 100.0 100.0 0.0 0 1 -27.922212204013285,-96.02265391892702 l 24.279790933649736 5.9574954652320145 a 75.0 75.0 0.0 0 0 20.941659153009965,72.01699043919527 z"/><path fill="#000000" d="M 27.160627199050793,82.12751360430393 l -24.279790933649736 -5.9574954652320224 a 100.0 100.0 0.0 0 1 69.19695153058562,-72.19267205799902 l 6.9805530510033265 24.00566347973178 a 75.0 75.0 0.0 0 0 -51.89771364793921,54.14450404349927 z"/><path fill="#95000e" d="M 200.3355797193491,-4.679374484098538 l 17.299237882646395 -18.048168014499748 a 47.5 47.5 0.0 1 1 -65.73710395405631,68.58303845509904 l 17.299237882646402 -18.04816801449975 a 22.5 22.5 0.0 1 0 31.138628188763512,-32.48670242609954 z"/><path fill="#e93a06" d="M 240.82278741516848,134.55347369834575 l 24.279790933649732 5.957495465232025 a 47.5 47.5 0.0 1 1 -92.26320554786899,-22.63848276788169 l 24.279790933649736 5.957495465232022 a 22.5 22.5 0.0 1 0 43.70362368056952,10.723491837417644 z"/><path fill="#660700" d="M 140.4872076958193,239.2328481824443 l 6.980553051003327 24.00566347973178 a 47.5 47.5 0.0 1 1 -26.526101593812648,-91.22152122298077 l 6.98055305100333 24.00566347973178 a 22.5 22.5 0.0 1 0 12.564995491805991,43.21019426351721 z"/><path fill="#951828" d="M -0.33557971934919806,204.67937448409847 l -17.299237882646416 18.048168014499733 a 47.5 47.5 0.0 1 1 65.73710395405638,-68.583038455099 l -17.299237882646413 18.048168014499737 a 22.5 22.5 0.0 1 0 -31.138628188763544,32.48670242609953 z"/><path fill="#210100" d="M -40.822787415168456,65.44652630165427 l -24.279790933649736 -5.9574954652320224 a 47.5 47.5 0.0 1 1 92.26320554786899,22.63848276788169 l -24.279790933649736 -5.957495465232025 a 22.5 22.5 0.0 1 0 -43.70362368056952,-10.723491837417644 z"/><path fill="#000000" d="M 59.51279230418069,-39.23284818244433 l -6.98055305100333 -24.00566347973178 a 47.5 47.5 0.0 1 1 26.526101593812648,91.22152122298077 l -6.9805530510033265 -24.00566347973178 a 22.5 22.5 0.0 1 0 -12.564995491805991,-43.21019426351721 z"/><path fill="#000000" d="M 54.69574680536393,-81.86327300485193 l 0.7211691840621872 -6.208253780891941 a 25.0 25.0 0.0 0 1 20.063683581448476,14.914710897081296 l -5.737090079424306 2.4795760566216174 a 18.75 18.75 0.0 0 0 -15.047762686086358,-11.186033172810973 z"/><path fill="#fa4047" d="M 69.74350949145028,-70.67723983204095 l 5.7370900794243065 -2.4795760566216174 a 25.0 25.0 0.0 0 1 -2.884676736248765,24.833015123567762 l -5.015920895362115 -3.7286777242703266 a 18.75 18.75 0.0 0 0 2.163507552186573,-18.624761342675818 z"/><path fill="#f53550" d="M 67.58000193926371,-52.05247848936513 l 5.015920895362116 3.7286777242703213 a 25.0 25.0 0.0 0 1 -22.948360317697237,9.918304226486477 l 0.721169184062191 -6.2082537808919405 a 18.75 18.75 0.0 0 0 17.21127023827293,-7.4387281698648575 z"/><path fill="#5d0406" d="M 50.36873170099081,-44.613750319500284 l -0.721169184062192 6.2082537808919405 a 25.0 25.0 0.0 0 1 -20.063683581448473,-14.914710897081335 l 5.737090079424309 -2.4795760566216067 a 18.75 18.75 0.0 0 0 15.047762686086354,11.186033172811001 z"/><path fill="#620a07" d="M 35.32096901490445,-55.799783492311256 l -5.737090079424307 2.4795760566216143 a 25.0 25.0 0.0 0 1 2.8846767362487657,-24.833015123567744 l 5.015920895362116 3.7286777242703195 a 18.75 18.75 0.0 0 0 -2.1635075521865748,18.62476134267581 z"/><path fill="#f73e55" d="M 37.48447656709102,-74.42454483498707 l -5.015920895362116 -3.7286777242703217 a 25.0 25.0 0.0 0 1 22.948360317697215,-9.918304226486478 l -0.7211691840621874 6.2082537808919405 a 18.75 18.75 0.0 0 0 -17.21127023827291,7.438728169864859 z"/><path fill="#000000" d="M 85.80736171383835,-77.62005279058148 l 5.7370900794243065 -2.4795760566216174 a 11.875 11.875 0.0 1 1 -21.800942301812363,9.422389015162146 l 5.737090079424306 -2.4795760566216165 a 5.625 5.625 0.0 1 0 10.326762142963752,-4.463236901918911 z"/><path fill="#fa4047" d="M 81.62458044627763,-41.612180861408234 l 5.0159208953621155 3.7286777242703226 a 11.875 11.875 0.0 1 1 -19.060499402376042,-14.168975352227225 l 5.015920895362116 3.7286777242703213 a 5.625 5.625 0.0 1 0 9.02865761165181,6.7116199036865805 z"/><path fill="#f53550" d="M 48.34945798561664,-27.23063973300284 l -0.7211691840621934 6.2082537808919405 a 11.875 11.875 0.0 1 1 2.7404428994363332,-23.591364367389374 l -0.7211691840621925 6.2082537808919405 a 5.625 5.625 0.0 1 0 -1.2981045313119475,11.174856805605494 z"/><path fill="#5d0406" d="M 19.25711679251638,-48.856970533770784 l -5.73709007942431 2.4795760566216067 a 11.875 11.875 0.0 1 1 21.80094230181238,-9.422389015162107 l -5.737090079424313 2.4795760566216076 a 5.625 5.625 0.0 1 0 -10.326762142963759,4.463236901918893 z"/><path fill="#620a07" d="M 23.4398980600771,-84.86484246294397 l -5.015920895362116 -3.7286777242703217 a 11.875 11.875 0.0 1 1 19.06049940237604,14.168975352227225 l -5.015920895362115 -3.728677724270323 a 5.625 5.625 0.0 1 0 -9.02865761165181,-6.7116199036865805 z"/><path fill="#f73e55" d="M 56.71502052073806,-99.24638359134937 l 0.7211691840621872 -6.208253780891941 a 11.875 11.875 0.0 1 1 -2.740442899436313,23.591364367389374 l 0.7211691840621879 -6.2082537808919405 a 5.625 5.625 0.0 1 0 1.2981045313119375,-11.174856805605494 z"/><circle fill="#76040c" r="6.25" cx="226.67939724860815" cy="18.798901835296718"/><circle fill="#e51f13" r="6.25" cx="186.19415170330842" cy="5.868515408867447"/><circle fill="#340201" r="6.25" cx="177.14957205669575" cy="-35.65792892502757"/><circle fill="#f31600" r="6.25" cx="208.59023795538283" cy="-64.25398683249328"/><circle fill="#3c0404" r="6.25" cx="249.07548350068268" cy="-51.32360040606397"/><circle fill="#8d0504" r="6.25" cx="258.1200631472953" cy="-9.797156072168994"/><circle fill="#8f140d" r="6.25" cx="296.73795127961296" cy="112.13046212917935"/><circle fill="#fe8076" r="6.25" cx="305.4985048782875" cy="153.7177522626414"/><circle fill="#f54443" r="6.25" cx="273.86313194749283" cy="182.09825929703982"/><circle fill="#8a0200" r="6.25" cx="233.46720541802347" cy="168.89147619797623"/><circle fill="#ff8e8f" r="6.25" cx="224.70665181934888" cy="127.3041860645141"/><circle fill="#cd0017" r="6.25" cx="256.3420247501436" cy="98.92367903011574"/><circle fill="#ad2701" r="6.25" cx="187.71391398204034" cy="276.89490759109435"/><circle fill="#780409" r="6.25" cx="155.76405156584985" cy="304.920900732935"/><circle fill="#b80504" r="6.25" cx="115.51789833063219" cy="291.2645048040167"/><circle fill="#d00826" r="6.25" cx="107.22160751160494" cy="249.58211573325775"/><circle fill="#660e04" r="6.25" cx="139.17146992779539" cy="221.55612259141714"/><circle fill="#840012" r="6.25" cx="179.41762316301316" cy="235.21251852033546"/><circle fill="#5a0003" r="6.25" cx="24.482017496699555" cy="217.03349286153679"/><circle fill="#fd130c" r="6.25" cx="8.354791583456702" cy="256.35476680253765"/><circle fill="#000000" r="6.25" cx="-33.76204351523842" cy="262.048816439599"/><circle fill="#cf2001" r="6.25" cx="-59.75165270069078" cy="228.42159213565964"/><circle fill="#ff0f2f" r="6.25" cx="-43.62442678744793" cy="189.1003181946588"/><circle fill="#bd000d" r="6.25" cx="-1.5075916887527394" cy="183.40626855759743"/><circle fill="#69000a" r="6.25" cx="-89.32476372206433" cy="94.4108826736903"/><circle fill="#e10100" r="6.25" cx="-107.45688187371165" cy="55.9729288866493"/><circle fill="#aa1603" r="6.25" cx="-83.23469650046553" cy="21.051077049381227"/><circle fill="#a4000d" r="6.25" cx="-40.880392975572036" cy="24.567178999154216"/><circle fill="#ce0011" r="6.25" cx="-22.748274823924714" cy="63.005132786195205"/><circle fill="#ff2f1d" r="6.25" cx="-46.97046019717084" cy="97.92698462346326"/><circle fill="#000000" r="6.25" cx="91.54445179326265" cy="-80.09962884720309"/><circle fill="#fa4047" r="6.25" cx="86.64050134163975" cy="-37.883503137137915"/><circle fill="#f53550" r="6.25" cx="47.62828880155445" cy="-21.0223859521109"/><circle fill="#5d0406" r="6.25" cx="13.520026713092072" cy="-46.37739447714918"/><circle fill="#620a07" r="6.25" cx="18.423977164714984" cy="-88.5935201872143"/><circle fill="#f73e55" r="6.25" cx="57.43618970480024" cy="-105.45463737224131"/></g></svg>