<?xml version='1.0' encoding='UTF-8'?>
<svg preserveAspectRatio="xMidYMid meet" xmlns="http://www.w3.org/2000/svg" xmlns:svg="http://www.w3.org/2000/svg"><g><circle fill="#000000" r="10000.0" cx="0.0" cy="0.0"/><circle fill="#000000" r="10000.0" cx="0.0" cy="0.0"/><circle fill="#0049db" r="4641.016151377544" cx="5358.983848622456" cy="0.0"/><path fill="#c2002f" d="M 717.9676972449124,0.0 a 5801.27018922193 5801.27018922193 0.0 0 1 9282.032302755088,0.0 a 5801.27018922193 5801.27018922193 0.0 0 1 -9282.032302755088,-0.0 z"/><circle fill="#ffffff" r="2320.508075688772" cx="5358.983848622456" cy="0.0"/><circle fill="#030042" r="1160.254037844386" cx="5358.983848622456" cy="0.0"/><circle fill="#7ca9ff" r="4741.016151377544" cx="-2952.6970050681016" cy="-4351.837717141314"/><path fill="#ff638a" d="M -7693.713156445645,-4351.837717141314 a 5926.270189221929 5926.270189221929 0.0 0 1 9482.032302755088,0.0 a 5926.270189221929 5926.270189221929 0.0 0 1 -9482.032302755088,-0.0 z"/><circle fill="#ffffff" r="2370.508075688772" cx="-2952.6970050681016" cy="-4351.837717141314"/><circle fill="#0800e2" r="1185.254037844386" cx="-2952.6970050681016" cy="-4351.837717141314"/><circle fill="#1e6cff" r="4537.124774965342" cx="-2395.6554054848166" cy="4909.56626418962"/><path fill="#ff0545" d="M -6932.780180450159,4909.56626418962 a 5671.405968706677 5671.405968706677 0.0 0 1 9074.249549930684,0.0 a 5671.405968706677 5671.405968706677 0.0 0 1 -9074.249549930684,-0.0 z"/><circle fill="#ffffff" r="2268.562387482671" cx="-2395.6554054848166" cy="4909.56626418962"/><circle fill="#040084" r="1134.2811937413355" cx="-2395.6554054848166" cy="4909.56626418962"/><circle fill="#0c5ef1" r="717.566838560703" cx="5.583241220219682" cy="235.61323545354549"/><path fill="#d90a42" d="M -711.9835973404834,235.61323545354549 a 896.9585482008786 896.9585482008786 0.0 0 1 1435.133677121406,0.0 a 896.9585482008786 896.9585482008786 0.0 0 1 -1435.133677121406,-0.0 z"/><circle fill="#ffffff" r="358.7834192803515" cx="5.583241220219682" cy="235.61323545354549"/><circle fill="#06055f" r="179.39170964017575" cx="5.583241220219682" cy="235.61323545354549"/><circle fill="#0952dc" r="2312.744590130963" cx="3681.464274832154" cy="-6748.386216696204"/><path fill="#c40838" d="M 1368.719684701191,-6748.386216696204 a 2890.930737663704 2890.930737663704 0.0 0 1 4625.489180261926,0.0 a 2890.930737663704 2890.930737663704 0.0 0 1 -4625.489180261926,-0.0 z"/><circle fill="#ffffff" r="1156.3722950654815" cx="3681.464274832154" cy="-6748.386216696204"/><circle fill="#05034a" r="578.1861475327407" cx="3681.464274832154" cy="-6748.386216696204"/><circle fill="#033c89" r="2236.1947565953333" cx="-7729.006492764251" cy="734.2550594485269"/><path fill="#700227" d="M -9965.201249359583,734.2550594485269 a 2795.243445744167 2795.243445744167 0.0 0 1 4472.389513190667,0.0 a 2795.243445744167 2795.243445744167 0.0 0 1 -4472.389513190667,-0.0 z"/><circle fill="#dfdfdf" r="1118.0973782976666" cx="-7729.006492764251" cy="734.2550594485269"/><circle fill="#000000" r="559.0486891488333" cx="-7729.006492764251" cy="734.2550594485269"/><circle fill="#0964b5" r="2170.032160892205" cx="4071.361882384019" cy="6688.229121683327"/><path fill="#9d0849" d="M 1901.3297214918139,6688.229121683327 a 2712.5402011152564 2712.5402011152564 0.0 0 1 4340.06432178441,0.0 a 2712.5402011152564 2712.5402011152564 0.0 0 1 -4340.06432178441,-0.0 z"/><circle fill="#f8f8f8" r="1085.0160804461025" cx="4071.361882384019" cy="6688.229121683327"/><circle fill="#020723" r="542.5080402230512" cx="4071.361882384019" cy="6688.229121683327"/><circle fill="#1249bd" r="292.43327399991233" cx="470.0507464775119" cy="-661.2536241931407"/><path fill="#a61033" d="M 177.61747247759956,-661.2536241931407 a 365.54159249989044 365.54159249989044 0.0 0 1 584.8665479998247,0.0 a 365.54159249989044 365.54159249989044 0.0 0 1 -584.8665479998247,-0.0 z"/><circle fill="#ffffff" r="146.21663699995617" cx="470.0507464775119" cy="-661.2536241931407"/><circle fill="#070532" r="73.10831849997808" cx="470.0507464775119" cy="-661.2536241931407"/><circle fill="#0047b1" r="290.0215642905088" cx="548.6446452854833" cy="1084.3291484508875"/><path fill="#97002f" d="M 258.6230809949745,1084.3291484508875 a 362.526955363136 362.526955363136 0.0 0 1 580.0431285810176,0.0 a 362.526955363136 362.526955363136 0.0 0 1 -580.0431285810176,-0.0 z"/><circle fill="#f1f1f1" r="145.0107821452544" cx="548.6446452854833" cy="1084.3291484508875"/><circle fill="#000118" r="72.5053910726272" cx="548.6446452854833" cy="1084.3291484508875"/><circle fill="#002694" r="291.1729426067884" cx="-1001.855988926975" cy="286.8201067724434"/><path fill="#7a0015" d="M -1293.0289315337634,286.8201067724434 a 363.96617825848557 363.96617825848557 0.0 0 1 582.3458852135768,0.0 a 363.96617825848557 363.96617825848557 0.0 0 1 -582.3458852135768,-0.0 z"/><circle fill="#e3e3e3" r="145.5864713033942" cx="-1001.855988926975" cy="286.8201067724434"/><circle fill="#000000" r="72.7932356516971" cx="-1001.855988926975" cy="286.8201067724434"/><circle fill="#0077e1" r="1130.2139110875814" cx="6912.1981714875965" cy="-5558.2930564290855"/><path fill="#c70058" d="M 5781.984260400015,-5558.2930564290855 a 1412.7673888594768 1412.7673888594768 0.0 0 1 2260.427822175163,0.0 a 1412.7673888594768 1412.7673888594768 0.0 0 1 -2260.427822175163,-0.0 z"/><circle fill="#ffffff" r="565.1069555437907" cx="6912.1981714875965" cy="-5558.2930564290855"/><circle fill="#000b48" r="282.55347777189536" cx="6912.1981714875965" cy="-5558.2930564290855"/><circle fill="#0743af" r="1147.9028806334493" cx="899.1926737193351" cy="-8806.308871838817"/><path fill="#97062d" d="M -248.71020691411422,-8806.308871838817 a 1434.8786007918116 1434.8786007918116 0.0 0 1 2295.8057612668986,0.0 a 1434.8786007918116 1434.8786007918116 0.0 0 1 -2295.8057612668986,-0.0 z"/><circle fill="#f4f4f4" r="573.9514403167246" cx="899.1926737193351" cy="-8806.308871838817"/><circle fill="#02011c" r="286.9757201583623" cx="899.1926737193351" cy="-8806.308871838817"/><circle fill="#0b5aa6" r="550.1869537043344" cx="2336.8842941597754" cy="-4220.841617631275"/><path fill="#8e0941" d="M 1786.697340455441,-4220.841617631275 a 687.733692130418 687.733692130418 0.0 0 1 1100.3739074086689,0.0 a 687.733692130418 687.733692130418 0.0 0 1 -1100.3739074086689,-0.0 z"/><circle fill="#f1f1f1" r="275.0934768521672" cx="2336.8842941597754" cy="-4220.841617631275"/><circle fill="#010416" r="137.5467384260836" cx="2336.8842941597754" cy="-4220.841617631275"/><circle fill="#00699e" r="1116.2918538383826" cx="-8517.559716148351" cy="-2524.1725194655587"/><path fill="#84004c" d="M -9633.851569986733,-2524.1725194655587 a 1395.364817297978 1395.364817297978 0.0 0 1 2232.5837076767652,0.0 a 1395.364817297978 1395.364817297978 0.0 0 1 -2232.5837076767652,-0.0 z"/><circle fill="#e8e8e8" r="558.1459269191913" cx="-8517.559716148351" cy="-2524.1725194655587"/><circle fill="#000105" r="279.07296345959566" cx="-8517.559716148351" cy="-2524.1725194655587"/><circle fill="#0145cf" r="1081.9477645889585" cx="-7947.844259221762" cy="4045.173334317771"/><path fill="#b5012d" d="M -9029.79202381072,4045.173334317771 a 1352.4347057361979 1352.4347057361979 0.0 0 1 2163.895529177917,0.0 a 1352.4347057361979 1352.4347057361979 0.0 0 1 -2163.895529177917,-0.0 z"/><circle fill="#ffffff" r="540.9738822944793" cx="-7947.844259221762" cy="4045.173334317771"/><circle fill="#020036" r="270.48694114723963" cx="-7947.844259221762" cy="4045.173334317771"/><circle fill="#0047b4" r="538.492877075524" cx="-4961.814410833785" cy="530.4427778084422"/><path fill="#9b002f" d="M -5500.307287909309,530.4427778084422 a 673.1160963444049 673.1160963444049 0.0 0 1 1076.985754151048,0.0 a 673.1160963444049 673.1160963444049 0.0 0 1 -1076.985754151048,-0.0 z"/><circle fill="#f3f3f3" r="269.246438537762" cx="-4961.814410833785" cy="530.4427778084422"/><circle fill="#00011b" r="134.623219268881" cx="-4961.814410833785" cy="530.4427778084422"/><circle fill="#073fb9" r="1072.752424499898" cx="7069.185872323598" cy="5451.82174844454"/><path fill="#a10629" d="M 5996.4334478237,5451.82174844454 a 1340.9405306248725 1340.9405306248725 0.0 0 1 2145.504848999796,0.0 a 1340.9405306248725 1340.9405306248725 0.0 0 1 -2145.504848999796,-0.0 z"/><circle fill="#f9f9f9" r="536.376212249949" cx="7069.185872323598" cy="5451.82174844454"/><circle fill="#040126" r="268.1881061249745" cx="7069.185872323598" cy="5451.82174844454"/><circle fill="#0069ce" r="1055.9850818424902" cx="1627.935663013621" cy="8794.61359772631"/><path fill="#b4004c" d="M 571.9505811711308,8794.61359772631 a 1319.9813523031125 1319.9813523031125 0.0 0 1 2111.9701636849804,0.0 a 1319.9813523031125 1319.9813523031125 0.0 0 1 -2111.9701636849804,-0.0 z"/><circle fill="#ffffff" r="527.9925409212451" cx="1627.935663013621" cy="8794.61359772631"/><circle fill="#000735" r="263.99627046062255" cx="1627.935663013621" cy="8794.61359772631"/><circle fill="#002372" r="528.1523038605116" cx="2643.7873752926007" cy="4398.637360574898"/><path fill="#580013" d="M 2115.6350714320893,4398.637360574898 a 660.1903798256394 660.1903798256394 0.0 0 1 1056.304607721023,0.0 a 660.1903798256394 660.1903798256394 0.0 0 1 -1056.304607721023,-0.0 z"/><circle fill="#d2d2d2" r="264.0761519302558" cx="2643.7873752926007" cy="4398.637360574898"/><circle fill="#000000" r="132.0380759651279" cx="2643.7873752926007" cy="4398.637360574898"/><circle fill="#112f86" r="158.7715097035818" cx="678.0780535732017" cy="-1061.6414316241278"/><path fill="#700e1e" d="M 519.3065438696199,-1061.6414316241278 a 198.46438712947727 198.46438712947727 0.0 0 1 317.5430194071636,0.0 a 198.46438712947727 198.46438712947727 0.0 0 1 -317.5430194071636,-0.0 z"/><circle fill="#e5e5e5" r="79.3857548517909" cx="678.0780535732017" cy="-1061.6414316241278"/><circle fill="#000000" r="39.69287742589545" cx="678.0780535732017" cy="-1061.6414316241278"/><circle fill="#0047b9" r="101.56018094674695" cx="625.8662979679041" cy="-299.3802258138867"/><path fill="#a0002f" d="M 524.3061170211571,-299.3802258138867 a 126.9502261834337 126.9502261834337 0.0 0 1 203.1203618934939,0.0 a 126.9502261834337 126.9502261834337 0.0 0 1 -203.1203618934939,-0.0 z"/><circle fill="#f6f6f6" r="50.78009047337348" cx="625.8662979679041" cy="-299.3802258138867"/><circle fill="#000020" r="25.39004523668674" cx="625.8662979679041" cy="-299.3802258138867"/><circle fill="#1043fd" r="101.70100779590929" cx="84.41386286297661" cy="-579.8532182802787"/><path fill="#f10220" d="M -17.287144932932677,-579.8532182802787 a 127.1262597448866 127.1262597448866 0.0 0 1 203.40201559181858,0.0 a 127.1262597448866 127.1262597448866 0.0 0 1 -203.40201559181858,-0.0 z"/><circle fill="#ffffff" r="50.850503897954646" cx="84.41386286297661" cy="-579.8532182802787"/><circle fill="#130173" r="25.425251948977323" cx="84.41386286297661" cy="-579.8532182802787"/><circle fill="#23a9ff" r="156.88271671203833" cx="788.9744031309394" cy="1461.1116372589786"/><path fill="#ff0a89" d="M 632.0916864189011,1461.1116372589786 a 196.1033958900479 196.1033958900479 0.0 0 1 313.76543342407666,0.0 a 196.1033958900479 196.1033958900479 0.0 0 1 -313.76543342407666,-0.0 z"/><circle fill="#ffffff" r="78.44135835601917" cx="788.9744031309394" cy="1461.1116372589786"/><circle fill="#002089" r="39.22067917800958" cx="788.9744031309394" cy="1461.1116372589786"/><circle fill="#002ecb" r="101.07368606613977" cx="670.7703933884841" cy="712.7907298427799"/><path fill="#b10019" d="M 569.6967073223443,712.7907298427799 a 126.34210758267471 126.34210758267471 0.0 0 1 202.14737213227954,0.0 a 126.34210758267471 126.34210758267471 0.0 0 1 -202.14737213227954,-0.0 z"/><circle fill="#fefefe" r="50.536843033069886" cx="670.7703933884841" cy="712.7907298427799"/><circle fill="#070032" r="25.268421516534943" cx="670.7703933884841" cy="712.7907298427799"/><circle fill="#4e9bff" r="100.92270102503792" cx="160.2967670244356" cy="1039.347551844545"/><path fill="#ff347b" d="M 59.374065999397686,1039.347551844545 a 126.15337628129741 126.15337628129741 0.0 0 1 201.84540205007585,0.0 a 126.15337628129741 126.15337628129741 0.0 0 1 -201.84540205007585,-0.0 z"/><circle fill="#ffffff" r="50.46135051251896" cx="160.2967670244356" cy="1039.347551844545"/><circle fill="#000bb4" r="25.23067525625948" cx="160.2967670244356" cy="1039.347551844545"/><circle fill="#004ed3" r="157.7827114884108" cx="-1450.16820463483" cy="310.8479362869036"/><path fill="#b90034" d="M -1607.9509161232409,310.8479362869036 a 197.22838936051346 197.22838936051346 0.0 0 1 315.5654229768216,0.0 a 197.22838936051346 197.22838936051346 0.0 0 1 -315.5654229768216,-0.0 z"/><circle fill="#ffffff" r="78.8913557442054" cx="-1450.16820463483" cy="310.8479362869036"/><circle fill="#00003a" r="39.4456778721027" cx="-1450.16820463483" cy="310.8479362869036"/><circle fill="#004ed2" r="101.44649009948479" cx="-769.323693235319" cy="-29.53215005364821"/><path fill="#b80034" d="M -870.7701833348037,-29.53215005364821 a 126.80811262435597 126.80811262435597 0.0 0 1 202.89298019896958,0.0 a 126.80811262435597 126.80811262435597 0.0 0 1 -202.89298019896958,-0.0 z"/><circle fill="#ffffff" r="50.723245049742395" cx="-769.323693235319" cy="-29.53215005364821"/><circle fill="#000039" r="25.361622524871198" cx="-769.323693235319" cy="-29.53215005364821"/><circle fill="#065798" r="101.1546862695174" cx="-738.3464766086304" cy="577.4809147556539"/><path fill="#7f053e" d="M -839.5011628781477,577.4809147556539 a 126.44335783689675 126.44335783689675 0.0 0 1 202.3093725390348,0.0 a 126.44335783689675 126.44335783689675 0.0 0 1 -202.3093725390348,-0.0 z"/><circle fill="#e8e8e8" r="50.5773431347587" cx="-738.3464766086304" cy="577.4809147556539"/><circle fill="#000105" r="25.28867156737935" cx="-738.3464766086304" cy="577.4809147556539"/><circle fill="#0d50e1" r="637.7022603782393" cx="8257.765024545133" cy="-4411.568401909442"/><path fill="#c90c37" d="M 7620.062764166894,-4411.568401909442 a 797.1278254727991 797.1278254727991 0.0 0 1 1275.4045207564786,0.0 a 797.1278254727991 797.1278254727991 0.0 0 1 -1275.4045207564786,-0.0 z"/><circle fill="#ffffff" r="318.85113018911966" cx="8257.765024545133" cy="-4411.568401909442"/><circle fill="#090550" r="159.42556509455983" cx="8257.765024545133" cy="-4411.568401909442"/><circle fill="#0041d0" r="450.6778467822591" cx="6426.934439327289" cy="-7062.865374515072"/><path fill="#b70028" d="M 5976.25659254503,-7062.865374515072 a 563.347308477824 563.347308477824 0.0 0 1 901.3556935645182,0.0 a 563.347308477824 563.347308477824 0.0 0 1 -901.3556935645182,-0.0 z"/><circle fill="#ffffff" r="225.33892339112955" cx="6426.934439327289" cy="-7062.865374515072"/><circle fill="#040037" r="112.66946169556478" cx="6426.934439327289" cy="-7062.865374515072"/><circle fill="#00318e" r="315.92681602699986" cx="5599.707100482054" cy="-4951.094414179102"/><path fill="#75001d" d="M 5283.780284455053,-4951.094414179102 a 394.9085200337498 394.9085200337498 0.0 0 1 631.8536320539997,0.0 a 394.9085200337498 394.9085200337498 0.0 0 1 -631.8536320539997,-0.0 z"/><circle fill="#e0e0e0" r="157.96340801349993" cx="5599.707100482054" cy="-4951.094414179102"/><circle fill="#000000" r="78.98170400674996" cx="5599.707100482054" cy="-4951.094414179102"/><circle fill="#2b4cff" r="652.8388993514261" cx="-829.5901848575315" cy="-9310.273936177491"/><path fill="#ff1221" d="M -1482.4290842089576,-9310.273936177491 a 816.0486241892826 816.0486241892826 0.0 0 1 1305.6777987028522,0.0 a 816.0486241892826 816.0486241892826 0.0 0 1 -1305.6777987028522,-0.0 z"/><circle fill="#ffffff" r="326.41944967571305" cx="-829.5901848575315" cy="-9310.273936177491"/><circle fill="#200091" r="163.20972483785653" cx="-829.5901848575315" cy="-9310.273936177491"/><circle fill="#0853ad" r="455.34109516329016" cx="2446.5937004647844" cy="-9225.762454915297"/><path fill="#94063b" d="M 1991.2526053014942,-9225.762454915297 a 569.1763689541126 569.1763689541126 0.0 0 1 910.6821903265803,0.0 a 569.1763689541126 569.1763689541126 0.0 0 1 -910.6821903265803,-0.0 z"/><circle fill="#f3f3f3" r="227.67054758164508" cx="2446.5937004647844" cy="-9225.762454915297"/><circle fill="#01031a" r="113.83527379082254" cx="2446.5937004647844" cy="-9225.762454915297"/><circle fill="#014b8f" r="319.59791335005656" cx="1120.0967195660542" cy="-7355.529776707251"/><path fill="#760134" d="M 800.4988062159975,-7355.529776707251 a 399.49739168757065 399.49739168757065 0.0 0 1 639.1958267001131,0.0 a 399.49739168757065 399.49739168757065 0.0 0 1 -639.1958267001131,-0.0 z"/><circle fill="#e1e1e1" r="159.79895667502828" cx="1120.0967195660542" cy="-7355.529776707251"/><circle fill="#000000" r="79.89947833751414" cx="1120.0967195660542" cy="-7355.529776707251"/><circle fill="#306cf2" r="246.57678072458606" cx="1964.443118047107" cy="-3516.483740670454"/><path fill="#f01848" d="M 1717.8663373225208,-3516.483740670454 a 308.2209759057326 308.2209759057326 0.0 0 1 493.1535614491721,0.0 a 308.2209759057326 308.2209759057326 0.0 0 1 -493.1535614491721,-0.0 z"/><circle fill="#ffffff" r="123.28839036229303" cx="1964.443118047107" cy="-3516.483740670454"/><circle fill="#100880" r="61.644195181146515" cx="1964.443118047107" cy="-3516.483740670454"/><circle fill="#006bf8" r="211.86816568959964" cx="3095.5433359504186" cy="-4292.705818062912"/><path fill="#de004c" d="M 2883.675170260819,-4292.705818062912 a 264.8352071119996 264.8352071119996 0.0 0 1 423.73633137919927,0.0 a 264.8352071119996 264.8352071119996 0.0 0 1 -423.73633137919927,-0.0 z"/><circle fill="#ffffff" r="105.93408284479982" cx="3095.5433359504186" cy="-4292.705818062912"/><circle fill="#00055f" r="52.96704142239991" cx="3095.5433359504186" cy="-4292.705818062912"/><circle fill="#185be8" r="212.48196234152655" cx="1971.451986584445" cy="-4890.26159349303"/><path fill="#d11541" d="M 1758.9700242429185,-4890.26159349303 a 265.6024529269082 265.6024529269082 0.0 0 1 424.9639246830531,0.0 a 265.6024529269082 265.6024529269082 0.0 0 1 -424.9639246830531,-0.0 z"/><circle fill="#ffffff" r="106.24098117076328" cx="1971.451986584445" cy="-4890.26159349303"/><circle fill="#0e095d" r="53.12049058538164" cx="1971.451986584445" cy="-4890.26159349303"/><circle fill="#0057fc" r="638.4438723340171" cx="-8331.519466950549" cy="-4269.018213039687"/><path fill="#e2003a" d="M -8969.963339284566,-4269.018213039687 a 798.0548404175215 798.0548404175215 0.0 0 1 1276.8877446680342,0.0 a 798.0548404175215 798.0548404175215 0.0 0 1 -1276.8877446680342,-0.0 z"/><circle fill="#ffffff" r="319.22193616700855" cx="-8331.519466950549" cy="-4269.018213039687"/><circle fill="#030063" r="159.61096808350428" cx="-8331.519466950549" cy="-4269.018213039687"/><circle fill="#005ee7" r="439.54162450440083" cx="-9472.25226657884" cy="-1295.6856670797777"/><path fill="#ce0042" d="M -9911.793891083242,-1295.6856670797777 a 549.4270306305011 549.4270306305011 0.0 0 1 879.0832490088017,0.0 a 549.4270306305011 549.4270306305011 0.0 0 1 -879.0832490088017,-0.0 z"/><circle fill="#ffffff" r="219.77081225220041" cx="-9472.25226657884" cy="-1295.6856670797777"/><circle fill="#00034e" r="109.88540612610021" cx="-9472.25226657884" cy="-1295.6856670797777"/><circle fill="#003ab2" r="311.73302734454626" cx="-7300.3795606363465" cy="-1777.3609432930182"/><path fill="#980024" d="M -7612.112587980892,-1777.3609432930182 a 389.66628418068285 389.66628418068285 0.0 0 1 623.4660546890925,0.0 a 389.66628418068285 389.66628418068285 0.0 0 1 -623.4660546890925,-0.0 z"/><circle fill="#f2f2f2" r="155.86651367227313" cx="-7300.3795606363465" cy="-1777.3609432930182"/><circle fill="#010019" r="77.93325683613656" cx="-7300.3795606363465" cy="-1777.3609432930182"/><circle fill="#004ac1" r="608.9623534229996" cx="-7485.022129828607" cy="5671.510539124698"/><path fill="#a70031" d="M -8093.984483251606,5671.510539124698 a 761.2029417787493 761.2029417787493 0.0 0 1 1217.9247068459993,0.0 a 761.2029417787493 761.2029417787493 0.0 0 1 -1217.9247068459993,-0.0 z"/><circle fill="#f9f9f9" r="304.4811767114998" cx="-7485.022129828607" cy="5671.510539124698"/><circle fill="#000028" r="152.2405883557499" cx="-7485.022129828607" cy="5671.510539124698"/><circle fill="#2255d2" r="430.572238024718" cx="-9074.897052710856" cy="3036.476769936347"/><path fill="#bc1f3e" d="M -9505.469290735575,3036.476769936347 a 538.2152975308975 538.2152975308975 0.0 0 1 861.144476049436,0.0 a 538.2152975308975 538.2152975308975 0.0 0 1 -861.144476049436,-0.0 z"/><circle fill="#ffffff" r="215.286119012359" cx="-9074.897052710856" cy="3036.476769936347"/><circle fill="#130d4e" r="107.6430595061795" cx="-9074.897052710856" cy="3036.476769936347"/><circle fill="#0168d0" r="304.5343000965094" cx="-6900.868752283918" cy="3136.231750074469"/><path fill="#b7014b" d="M -7205.403052380428,3136.231750074469 a 380.6678751206368 380.6678751206368 0.0 0 1 609.0686001930188,0.0 a 380.6678751206368 380.6678751206368 0.0 0 1 -609.0686001930188,-0.0 z"/><circle fill="#ffffff" r="152.2671500482547" cx="-6900.868752283918" cy="3136.231750074469"/><circle fill="#000738" r="76.13357502412735" cx="-6900.868752283918" cy="3136.231750074469"/><circle fill="#064dcf" r="242.15774514149015" cx="-4182.990100158321" cy="477.0753057989443"/><path fill="#b60634" d="M -4425.147845299812,477.0753057989443 a 302.6971814268627 302.6971814268627 0.0 0 1 484.3154902829803,0.0 a 302.6971814268627 302.6971814268627 0.0 0 1 -484.3154902829803,-0.0 z"/><circle fill="#ffffff" r="121.07887257074508" cx="-4182.990100158321" cy="477.0753057989443"/><circle fill="#03023b" r="60.53943628537254" cx="-4182.990100158321" cy="477.0753057989443"/><circle fill="#003fb2" r="207.9048488724842" cx="-5417.740556605999" cy="-60.52330827575395"/><path fill="#980028" d="M -5625.645405478483,-60.52330827575395 a 259.8810610906052 259.8810610906052 0.0 0 1 415.8096977449684,0.0 a 259.8810610906052 259.8810610906052 0.0 0 1 -415.8096977449684,-0.0 z"/><circle fill="#f2f2f2" r="103.9524244362421" cx="-5417.740556605999" cy="-60.52330827575395"/><circle fill="#010019" r="51.97621221812105" cx="-5417.740556605999" cy="-60.52330827575395"/><circle fill="#0331da" r="206.68294451644212" cx="-5327.126968473424" cy="1179.9300681506415"/><path fill="#c1031a" d="M -5533.8099129898665,1179.9300681506415 a 258.3536806455527 258.3536806455527 0.0 0 1 413.36588903288424,0.0 a 258.3536806455527 258.3536806455527 0.0 0 1 -413.36588903288424,-0.0 z"/><circle fill="#ffffff" r="103.34147225822106" cx="-5327.126968473424" cy="1179.9300681506415"/><circle fill="#0c0143" r="51.67073612911053" cx="-5327.126968473424" cy="1179.9300681506415"/><circle fill="#004ec4" r="611.815187298711" cx="8328.489823457654" cy="4332.9287252385575"/><path fill="#ab0035" d="M 7716.674636158943,4332.9287252385575 a 764.7689841233888 764.7689841233888 0.0 0 1 1223.630374597422,0.0 a 764.7689841233888 764.7689841233888 0.0 0 1 -1223.630374597422,-0.0 z"/><circle fill="#fbfbfb" r="305.9075936493555" cx="8328.489823457654" cy="4332.9287252385575"/><circle fill="#00012b" r="152.95379682467774" cx="8328.489823457654" cy="4332.9287252385575"/><circle fill="#6e9fff" r="421.8451071923862" cx="6655.526258481404" cy="6888.034652444698"/><path fill="#ff557f" d="M 6233.681151289017,6888.034652444698 a 527.3063839904827 527.3063839904827 0.0 0 1 843.6902143847724,0.0 a 527.3063839904827 527.3063839904827 0.0 0 1 -843.6902143847724,-0.0 z"/><circle fill="#ffffff" r="210.9225535961931" cx="6655.526258481404" cy="6888.034652444698"/><circle fill="#0800d4" r="105.46127679809655" cx="6655.526258481404" cy="6888.034652444698"/><circle fill="#004278" r="301.481919193002" cx="5800.898559226287" cy="4922.702364163965"/><path fill="#5f002b" d="M 5499.416640033285,4922.702364163965 a 376.85239899125247 376.85239899125247 0.0 0 1 602.963838386004,0.0 a 376.85239899125247 376.85239899125247 0.0 0 1 -602.963838386004,-0.0 z"/><circle fill="#d5d5d5" r="150.740959596501" cx="5800.898559226287" cy="4922.702364163965"/><circle fill="#000000" r="75.3704797982505" cx="5800.898559226287" cy="4922.702364163965"/><circle fill="#3790ee" r="597.3889483386773" cx="90.23895803673872" cy="9402.178019973675"/><path fill="#ec1f70" d="M -507.1499903019386,9402.178019973675 a 746.7361854233466 746.7361854233466 0.0 0 1 1194.7778966773546,0.0 a 746.7361854233466 746.7361854233466 0.0 0 1 -1194.7778966773546,-0.0 z"/><circle fill="#ffffff" r="298.69447416933866" cx="90.23895803673872" cy="9402.178019973675"/><circle fill="#0b1880" r="149.34723708466933" cx="90.23895803673872" cy="9402.178019973675"/><circle fill="#002aa1" r="417.5003494948353" cx="3074.3132929798976" cy="9075.951593554182"/><path fill="#870017" d="M 2656.8129434850625,9075.951593554182 a 521.875436868544 521.875436868544 0.0 0 1 835.0006989896706,0.0 a 521.875436868544 521.875436868544 0.0 0 1 -835.0006989896706,-0.0 z"/><circle fill="#e9e9e9" r="208.75017474741765" cx="3074.3132929798976" cy="9075.951593554182"/><circle fill="#010008" r="104.37508737370882" cx="3074.3132929798976" cy="9075.951593554182"/><circle fill="#00217b" r="297.93655586142944" cx="1721.94908276099" cy="7443.959949321105"/><path fill="#620011" d="M 1424.0125268995605,7443.959949321105 a 372.42069482678687 372.42069482678687 0.0 0 1 595.8731117228589,0.0 a 372.42069482678687 372.42069482678687 0.0 0 1 -595.8731117228589,-0.0 z"/><circle fill="#d7d7d7" r="148.96827793071472" cx="1721.94908276099" cy="7443.959949321105"/><circle fill="#000000" r="74.48413896535736" cx="1721.94908276099" cy="7443.959949321105"/><circle fill="#004fc3" r="238.2250299248261" cx="2236.6137920974998" cy="3749.3732456816415"/><path fill="#aa0035" d="M 1998.3887621726738,3749.3732456816415 a 297.7812874060326 297.7812874060326 0.0 0 1 476.4500598496522,0.0 a 297.7812874060326 297.7812874060326 0.0 0 1 -476.4500598496522,-0.0 z"/><circle fill="#fbfbfb" r="119.11251496241304" cx="2236.6137920974998" cy="3749.3732456816415"/><circle fill="#00012a" r="59.55625748120652" cx="2236.6137920974998" cy="3749.3732456816415"/><circle fill="#053fb1" r="203.29467455010527" cx="3374.9401855877327" cy="4419.379834475826"/><path fill="#980529" d="M 3171.6455110376273,4419.379834475826 a 254.11834318763155 254.11834318763155 0.0 0 1 406.58934910021054,0.0 a 254.11834318763155 254.11834318763155 0.0 0 1 -406.58934910021054,-0.0 z"/><circle fill="#f4f4f4" r="101.64733727505264" cx="3374.9401855877327" cy="4419.379834475826"/><circle fill="#02011c" r="50.82366863752632" cx="3374.9401855877327" cy="4419.379834475826"/><circle fill="#00408c" r="202.68478092480353" cx="2341.6346624856374" cy="5064.089524626451"/><path fill="#73002a" d="M 2138.949881560834,5064.089524626451 a 253.35597615600443 253.35597615600443 0.0 0 1 405.36956184960707,0.0 a 253.35597615600443 253.35597615600443 0.0 0 1 -405.36956184960707,-0.0 z"/><circle fill="#dfdfdf" r="101.34239046240177" cx="2341.6346624856374" cy="5064.089524626451"/><circle fill="#000000" r="50.67119523120088" cx="2341.6346624856374" cy="5064.089524626451"/><circle fill="#0965ef" r="99.70163776006181" cx="797.4121947997085" cy="-1290.9179692321852"/><path fill="#d60848" d="M 697.7105570396467,-1290.9179692321852 a 124.62704720007727 124.62704720007727 0.0 0 1 199.40327552012363,0.0 a 124.62704720007727 124.62704720007727 0.0 0 1 -199.40327552012363,-0.0 z"/><circle fill="#ffffff" r="49.85081888003091" cx="797.4121947997085" cy="-1290.9179692321852"/><circle fill="#03065b" r="24.925409440015454" cx="797.4121947997085" cy="-1290.9179692321852"/><circle fill="#166ef6" r="50.87530896497736" cx="747.2826514688231" cy="-863.746226508008"/><path fill="#ea094d" d="M 696.4073425038458,-863.746226508008 a 63.594136206221705 63.594136206221705 0.0 0 1 101.75061792995471,0.0 a 63.594136206221705 63.594136206221705 0.0 0 1 -101.75061792995471,-0.0 z"/><circle fill="#ffffff" r="25.43765448248868" cx="747.2826514688231" cy="-863.746226508008"/><circle fill="#04066f" r="12.71882724124434" cx="747.2826514688231" cy="-863.746226508008"/><circle fill="#00238a" r="50.91062339610504" cx="476.32063948904045" cy="-1004.5402687348569"/><path fill="#710012" d="M 425.4100160929354,-1004.5402687348569 a 63.63827924513131 63.63827924513131 0.0 0 1 101.82124679221008,0.0 a 63.63827924513131 63.63827924513131 0.0 0 1 -101.82124679221008,-0.0 z"/><circle fill="#dedede" r="25.45531169805252" cx="476.32063948904045" cy="-1004.5402687348569"/><circle fill="#000000" r="12.72765584902626" cx="476.32063948904045" cy="-1004.5402687348569"/><circle fill="#2866f4" r="51.304912856113" cx="669.1503814670597" cy="-152.7711366720529"/><path fill="#f30f41" d="M 617.8454686109467,-152.7711366720529 a 64.13114107014125 64.13114107014125 0.0 0 1 102.609825712226,0.0 a 64.13114107014125 64.13114107014125 0.0 0 1 -102.609825712226,-0.0 z"/><circle fill="#ffffff" r="25.6524564280565" cx="669.1503814670597" cy="-152.7711366720529"/><circle fill="#0e067d" r="12.82622821402825" cx="669.1503814670597" cy="-152.7711366720529"/><circle fill="#005af2" r="39.109452629728835" cx="697.7677393273324" cy="-420.2856787139744"/><path fill="#d9003d" d="M 658.6582866976036,-420.2856787139744 a 48.886815787161055 48.886815787161055 0.0 0 1 78.21890525945767,0.0 a 48.886815787161055 48.886815787161055 0.0 0 1 -78.21890525945767,-0.0 z"/><circle fill="#ffffff" r="19.554726314864418" cx="697.7677393273324" cy="-420.2856787139744"/><circle fill="#000059" r="9.777363157432209" cx="697.7677393273324" cy="-420.2856787139744"/><circle fill="#0476ff" r="34.359950101291645" cx="494.80560691859426" cy="-335.3993497037571"/><path fill="#ea0055" d="M 460.4456568173026,-335.3993497037571 a 42.949937626614556 42.949937626614556 0.0 0 1 68.71990020258329,0.0 a 42.949937626614556 42.949937626614556 0.0 0 1 -68.71990020258329,-0.0 z"/><circle fill="#ffffff" r="17.179975050645822" cx="494.80560691859426" cy="-335.3993497037571"/><circle fill="#00086a" r="8.589987525322911" cx="494.80560691859426" cy="-335.3993497037571"/><circle fill="#02279f" r="51.400794231728305" cx="-60.517908526625874" cy="-530.5080723590895"/><path fill="#860215" d="M -111.91870275835419,-530.5080723590895 a 64.25099278966037 64.25099278966037 0.0 0 1 102.80158846345661,0.0 a 64.25099278966037 64.25099278966037 0.0 0 1 -102.80158846345661,-0.0 z"/><circle fill="#eaeaea" r="25.700397115864153" cx="-60.517908526625874" cy="-530.5080723590895"/><circle fill="#010008" r="12.850198557932076" cx="-60.517908526625874" cy="-530.5080723590895"/><circle fill="#003192" r="39.165143875939705" cx="141.8333540767393" cy="-708.4855420390803"/><path fill="#79001d" d="M 102.6682102007996,-708.4855420390803 a 48.95642984492462 48.95642984492462 0.0 0 1 78.33028775187941,0.0 a 48.95642984492462 48.95642984492462 0.0 0 1 -78.33028775187941,-0.0 z"/><circle fill="#e2e2e2" r="19.582571937969853" cx="141.8333540767393" cy="-708.4855420390803"/><circle fill="#000000" r="9.791285968984926" cx="141.8333540767393" cy="-708.4855420390803"/><circle fill="#063cb4" r="34.38679920341531" cx="189.57976577576162" cy="-493.48178736458675"/><path fill="#9b0526" d="M 155.1929665723463,-493.48178736458675 a 42.983499004269135 42.983499004269135 0.0 0 1 68.77359840683062,0.0 a 42.983499004269135 42.983499004269135 0.0 0 1 -68.77359840683062,-0.0 z"/><circle fill="#f6f6f6" r="17.193399601707654" cx="189.57976577576162" cy="-493.48178736458675"/><circle fill="#030120" r="8.596699800853827" cx="189.57976577576162" cy="-493.48178736458675"/><circle fill="#0743c4" r="98.30806578903336" cx="926.0406578266271" cy="1676.3677110343326"/><path fill="#ac072c" d="M 827.7325920375938,1676.3677110343326 a 122.8850822362917 122.8850822362917 0.0 0 1 196.61613157806673,0.0 a 122.8850822362917 122.8850822362917 0.0 0 1 -196.61613157806673,-0.0 z"/><circle fill="#ffffff" r="49.15403289451668" cx="926.0406578266271" cy="1676.3677110343326"/><circle fill="#050231" r="24.57701644725834" cx="926.0406578266271" cy="1676.3677110343326"/><circle fill="#0043b6" r="50.36526899426413" cx="840.0438706474164" cy="1260.2543818089862"/><path fill="#9c002c" d="M 789.6786016531522,1260.2543818089862 a 62.95658624283018 62.95658624283018 0.0 0 1 100.73053798852825,0.0 a 62.95658624283018 62.95658624283018 0.0 0 1 -100.73053798852825,-0.0 z"/><circle fill="#f4f4f4" r="25.182634497132064" cx="840.0438706474164" cy="1260.2543818089862"/><circle fill="#00001d" r="12.591317248566032" cx="840.0438706474164" cy="1260.2543818089862"/><circle fill="#084da7" r="50.32775048026119" cx="585.3567185687683" cy="1422.692680380941"/><path fill="#8e0736" d="M 535.0289680885071,1422.692680380941 a 62.909688100326484 62.909688100326484 0.0 0 1 100.65550096052237,0.0 a 62.909688100326484 62.909688100326484 0.0 0 1 -100.65550096052237,-0.0 z"/><circle fill="#f0f0f0" r="25.163875240130594" cx="585.3567185687683" cy="1422.692680380941"/><circle fill="#010215" r="12.581937620065297" cx="585.3567185687683" cy="1422.692680380941"/><circle fill="#006ce2" r="51.13085774833212" cx="700.805869132252" cy="563.5791573873713"/><path fill="#c8004e" d="M 649.6750113839199,563.5791573873713 a 63.91357218541515 63.91357218541515 0.0 0 1 102.26171549666424,0.0 a 63.91357218541515 63.91357218541515 0.0 0 1 -102.26171549666424,-0.0 z"/><circle fill="#ffffff" r="25.56542887416606" cx="700.805869132252" cy="563.5791573873713"/><circle fill="#000849" r="12.78271443708303" cx="700.805869132252" cy="563.5791573873713"/><circle fill="#0c42a2" r="38.87885127997832" cx="752.6165590046363" cy="826.3156957469881"/><path fill="#8b0a2d" d="M 713.737707724658,826.3156957469881 a 48.598564099972904 48.598564099972904 0.0 0 1 77.75770255995664,0.0 a 48.598564099972904 48.598564099972904 0.0 0 1 -77.75770255995664,-0.0 z"/><circle fill="#f0f0f0" r="19.43942563998916" cx="752.6165590046363" cy="826.3156957469881"/><circle fill="#020114" r="9.71971281999458" cx="752.6165590046363" cy="826.3156957469881"/><circle fill="#0082f8" r="34.181829353903424" cx="544.0801933013869" cy="760.1578878051621"/><path fill="#df0061" d="M 509.89836394748346,760.1578878051621 a 42.72728669237929 42.72728669237929 0.0 0 1 68.36365870780685,0.0 a 42.72728669237929 42.72728669237929 0.0 0 1 -68.36365870780685,-0.0 z"/><circle fill="#ffffff" r="17.090914676951712" cx="544.0801933013869" cy="760.1578878051621"/><circle fill="#000e60" r="8.545457338475856" cx="544.0801933013869" cy="760.1578878051621"/><circle fill="#002d6d" r="51.02787458163644" cx="12.472497055072196" cy="1004.1770722455188"/><path fill="#54001b" d="M -38.55537752656424,1004.1770722455188 a 63.784843227045556 63.784843227045556 0.0 0 1 102.05574916327288,0.0 a 63.784843227045556 63.784843227045556 0.0 0 1 -102.05574916327288,-0.0 z"/><circle fill="#d0d0d0" r="25.51393729081822" cx="12.472497055072196" cy="1004.1770722455188"/><circle fill="#000000" r="12.75696864540911" cx="12.472497055072196" cy="1004.1770722455188"/><circle fill="#08509a" r="38.81928004745666" cx="228.88992837909132" cy="1161.0964717142733"/><path fill="#820638" d="M 190.07064833163466,1161.0964717142733 a 48.52410005932081 48.52410005932081 0.0 0 1 77.63856009491332,0.0 a 48.52410005932081 48.52410005932081 0.0 0 1 -77.63856009491332,-0.0 z"/><circle fill="#eaeaea" r="19.40964002372833" cx="228.88992837909132" cy="1161.0964717142733"/><circle fill="#000108" r="9.704820011864165" cx="228.88992837909132" cy="1161.0964717142733"/><circle fill="#0647af" r="34.1530301657571" cx="256.2731641238132" cy="944.3002775198703"/><path fill="#970530" d="M 222.1201339580561,944.3002775198703 a 42.69128770719638 42.69128770719638 0.0 0 1 68.3060603315142,0.0 a 42.69128770719638 42.69128770719638 0.0 0 1 -68.3060603315142,-0.0 z"/><circle fill="#f4f4f4" r="17.07651508287855" cx="256.2731641238132" cy="944.3002775198703"/><circle fill="#01011b" r="8.538257541439275" cx="256.2731641238132" cy="944.3002775198703"/><circle fill="#063eba" r="98.97135881144209" cx="-1706.533459982353" cy="324.97268287328365"/><path fill="#a10628" d="M -1805.504818793795,324.97268287328365 a 123.71419851430261 123.71419851430261 0.0 0 1 197.94271762288417,0.0 a 123.71419851430261 123.71419851430261 0.0 0 1 -197.94271762288417,-0.0 z"/><circle fill="#f9f9f9" r="49.485679405721044" cx="-1706.533459982353" cy="324.97268287328365"/><circle fill="#040126" r="24.742839702860522" cx="-1706.533459982353" cy="324.97268287328365"/><circle fill="#023594" r="50.64348458598352" cx="-1315.7654562337461" cy="151.5451414831759"/><path fill="#7b0221" d="M -1366.4089408197297,151.5451414831759 a 63.3043557324794 63.3043557324794 0.0 0 1 101.28696917196704,0.0 a 63.3043557324794 63.3043557324794 0.0 0 1 -101.28696917196704,-0.0 z"/><circle fill="#e4e4e4" r="25.32174229299176" cx="-1315.7654562337461" cy="151.5451414831759"/><circle fill="#000000" r="12.66087114649588" cx="-1315.7654562337461" cy="151.5451414831759"/><circle fill="#0047c3" r="50.57065796850721" cx="-1299.4930980216625" cy="454.75116353065357"/><path fill="#aa002e" d="M -1350.0637559901697,454.75116353065357 a 63.213322460634025 63.213322460634025 0.0 0 1 101.14131593701443,0.0 a 63.213322460634025 63.213322460634025 0.0 0 1 -101.14131593701443,-0.0 z"/><circle fill="#fbfbfb" r="25.285328984253606" cx="-1299.4930980216625" cy="454.75116353065357"/><circle fill="#01002a" r="12.642664492126803" cx="-1299.4930980216625" cy="454.75116353065357"/><circle fill="#0333a0" r="51.309707921573896" cx="-664.7870150600613" cy="-140.916794192459"/><path fill="#87021f" d="M -716.0967229816353,-140.916794192459 a 64.13713490196736 64.13713490196736 0.0 0 1 102.61941584314779,0.0 a 64.13713490196736 64.13713490196736 0.0 0 1 -102.61941584314779,-0.0 z"/><circle fill="#eaeaea" r="25.654853960786948" cx="-664.7870150600613" cy="-140.916794192459"/><circle fill="#01000a" r="12.827426980393474" cx="-664.7870150600613" cy="-140.916794192459"/><circle fill="#004ccd" r="39.04442797754151" cx="-909.8124579900639" cy="-30.30999310502878"/><path fill="#b40033" d="M -948.8568859676054,-30.30999310502878 a 48.805534971926896 48.805534971926896 0.0 0 1 78.08885595508302,0.0 a 48.805534971926896 48.805534971926896 0.0 0 1 -78.08885595508302,-0.0 z"/><circle fill="#ffffff" r="19.522213988770755" cx="-909.8124579900639" cy="-30.30999310502878"/><circle fill="#000034" r="9.761106994385377" cx="-909.8124579900639" cy="-30.30999310502878"/><circle fill="#165bbb" r="34.2937073087252" cx="-734.2365733102447" cy="101.59486931224453"/><path fill="#a41343" d="M -768.5302806189699,101.59486931224453 a 42.8671341359065 42.8671341359065 0.0 0 1 68.5874146174504,0.0 a 42.8671341359065 42.8671341359065 0.0 0 1 -68.5874146174504,-0.0 z"/><circle fill="#ffffff" r="17.1468536543626" cx="-734.2365733102447" cy="101.59486931224453"/><circle fill="#060832" r="8.5734268271813" cx="-734.2365733102447" cy="101.59486931224453"/><circle fill="#0047c7" r="51.11084706398341" cx="-623.4535368995537" cy="677.40290956332"/><path fill="#ad002e" d="M -674.5643839635371,677.40290956332 a 63.88855882997927 63.88855882997927 0.0 0 1 102.22169412796681,0.0 a 63.88855882997927 63.88855882997927 0.0 0 1 -102.22169412796681,-0.0 z"/><circle fill="#fcfcfc" r="25.555423531991703" cx="-623.4535368995537" cy="677.40290956332"/><circle fill="#01002e" r="12.777711765995852" cx="-623.4535368995537" cy="677.40290956332"/><circle fill="#145ab8" r="38.929170026152335" cx="-877.6070269205923" cy="592.6462014816304"/><path fill="#a11142" d="M -916.5361969467446,592.6462014816304 a 48.661462532690415 48.661462532690415 0.0 0 1 77.85834005230467,0.0 a 48.661462532690415 48.661462532690415 0.0 0 1 -77.85834005230467,-0.0 z"/><circle fill="#ffffff" r="19.464585013076167" cx="-877.6070269205923" cy="592.6462014816304"/><circle fill="#05072e" r="9.732292506538084" cx="-877.6070269205923" cy="592.6462014816304"/><circle fill="#0a41e4" r="34.23806049577671" cx="-716.8186240236768" cy="443.8106209737843"/><path fill="#cc0929" d="M -751.0566845194535,443.8106209737843 a 42.79757561972088 42.79757561972088 0.0 0 1 68.47612099155342,0.0 a 42.79757561972088 42.79757561972088 0.0 0 1 -68.47612099155342,-0.0 z"/><circle fill="#ffffff" r="17.119030247888354" cx="-716.8186240236768" cy="443.8106209737843"/><circle fill="#0d0452" r="8.559515123944177" cx="-716.8186240236768" cy="443.8106209737843"/><circle fill="#088eff" r="402.8340658177511" cx="8899.436865166357" cy="-3592.438927963317"/><path fill="#ee006c" d="M 8496.602799348606,-3592.438927963317 a 503.5425822721889 503.5425822721889 0.0 0 1 805.6681316355022,0.0 a 503.5425822721889 503.5425822721889 0.0 0 1 -805.6681316355022,-0.0 z"/><circle fill="#ffffff" r="201.41703290887554" cx="8899.436865166357" cy="-3592.438927963317"/><circle fill="#00136e" r="100.70851645443777" cx="8899.436865166357" cy="-3592.438927963317"/><circle fill="#0642a4" r="222.69897998084554" cx="8234.397227536761" cy="-5271.652258562063"/><path fill="#8c052c" d="M 8011.698247555916,-5271.652258562063 a 278.3737249760569 278.3737249760569 0.0 0 1 445.3979599616911,0.0 a 278.3737249760569 278.3737249760569 0.0 0 1 -445.3979599616911,-0.0 z"/><circle fill="#eeeeee" r="111.34948999042277" cx="8234.397227536761" cy="-5271.652258562063"/><circle fill="#010110" r="55.674744995211384" cx="8234.397227536761" cy="-5271.652258562063"/><circle fill="#005bb5" r="183.9325200774956" cx="7438.150479703971" cy="-4353.986196851443"/><path fill="#9c0040" d="M 7254.217959626475,-4353.986196851443 a 229.91565009686954 229.91565009686954 0.0 0 1 367.8650401549912,0.0 a 229.91565009686954 229.91565009686954 0.0 0 1 -367.8650401549912,-0.0 z"/><circle fill="#f4f4f4" r="91.9662600387478" cx="7438.150479703971" cy="-4353.986196851443"/><circle fill="#00041c" r="45.9831300193739" cx="7438.150479703971" cy="-4353.986196851443"/><circle fill="#0052d5" r="237.093525316983" cx="6066.984186731207" cy="-7648.9244806940715"/><path fill="#bb0037" d="M 5829.890661414224,-7648.9244806940715 a 296.36690664622876 296.36690664622876 0.0 0 1 474.187050633966,0.0 a 296.36690664622876 296.36690664622876 0.0 0 1 -474.187050633966,-0.0 z"/><circle fill="#ffffff" r="118.5467626584915" cx="6066.984186731207" cy="-7648.9244806940715"/><circle fill="#00013c" r="59.27338132924575" cx="6066.984186731207" cy="-7648.9244806940715"/><circle fill="#0b399f" r="179.37382046926984" cx="7024.465044128315" cy="-6863.05976965841"/><path fill="#870925" d="M 6845.091223659045,-6863.05976965841 a 224.2172755865873 224.2172755865873 0.0 0 1 358.7476409385397,0.0 a 224.2172755865873 224.2172755865873 0.0 0 1 -358.7476409385397,-0.0 z"/><circle fill="#eeeeee" r="89.68691023463492" cx="7024.465044128315" cy="-6863.05976965841"/><circle fill="#020110" r="44.84345511731746" cx="7024.465044128315" cy="-6863.05976965841"/><circle fill="#063a96" r="139.428989349209" cx="6126.0199513458965" cy="-6555.246867196853"/><path fill="#7e0526" d="M 5986.590961996688,-6555.246867196853 a 174.28623668651122 174.28623668651122 0.0 0 1 278.857978698418,0.0 a 174.28623668651122 174.28623668651122 0.0 0 1 -278.857978698418,-0.0 z"/><circle fill="#e7e7e7" r="69.7144946746045" cx="6126.0199513458965" cy="-6555.246867196853"/><circle fill="#000003" r="34.85724733730225" cx="6126.0199513458965" cy="-6555.246867196853"/><circle fill="#076bfd" r="148.3348236733165" cx="5165.996937348165" cy="-4785.4611913897525"/><path fill="#e9024b" d="M 5017.662113674849,-4785.4611913897525 a 185.41852959164564 185.41852959164564 0.0 0 1 296.669647346633,0.0 a 185.41852959164564 185.41852959164564 0.0 0 1 -296.669647346633,-0.0 z"/><circle fill="#ffffff" r="74.16741183665825" cx="5165.996937348165" cy="-4785.4611913897525"/><circle fill="#01046b" r="37.08370591832912" cx="5165.996937348165" cy="-4785.4611913897525"/><circle fill="#2177ff" r="123.47645516143605" cx="5976.092817352968" cy="-4724.358826177047"/><path fill="#ff0851" d="M 5852.616362191532,-4724.358826177047 a 154.3455689517951 154.3455689517951 0.0 0 1 246.9529103228721,0.0 a 154.3455689517951 154.3455689517951 0.0 0 1 -246.9529103228721,-0.0 z"/><circle fill="#ffffff" r="61.738227580718025" cx="5976.092817352968" cy="-4724.358826177047"/><circle fill="#000287" r="30.869113790359012" cx="5976.092817352968" cy="-4724.358826177047"/><circle fill="#004fe1" r="114.292768837964" cx="5681.4923389736505" cy="-5373.468733907769"/><path fill="#c70034" d="M 5567.199570135686,-5373.468733907769 a 142.86596104745502 142.86596104745502 0.0 0 1 228.585537675928,0.0 a 142.86596104745502 142.86596104745502 0.0 0 1 -228.585537675928,-0.0 z"/><circle fill="#ffffff" r="57.146384418982" cx="5681.4923389736505" cy="-5373.468733907769"/><circle fill="#020048" r="28.573192209491" cx="5681.4923389736505" cy="-5373.468733907769"/><circle fill="#0066fa" r="414.2090962196207" cx="-1893.1082899726605" cy="-9396.995703597797"/><path fill="#e10047" d="M -2307.317386192281,-9396.995703597797 a 517.7613702745258 517.7613702745258 0.0 0 1 828.4181924392414,0.0 a 517.7613702745258 517.7613702745258 0.0 0 1 -828.4181924392414,-0.0 z"/><circle fill="#ffffff" r="207.10454810981034" cx="-1893.1082899726605" cy="-9396.995703597797"/><circle fill="#000361" r="103.55227405490517" cx="-1893.1082899726605" cy="-9396.995703597797"/><circle fill="#006de6" r="227.53514936523723" cx="-80.09612957433512" cy="-9772.136607053706"/><path fill="#cc004e" d="M -307.6312789395723,-9772.136607053706 a 284.41893670654656 284.41893670654656 0.0 0 1 455.07029873047446,0.0 a 284.41893670654656 284.41893670654656 0.0 0 1 -455.07029873047446,-0.0 z"/><circle fill="#ffffff" r="113.76757468261862" cx="-80.09612957433512" cy="-9772.136607053706"/><circle fill="#00084d" r="56.88378734130931" cx="-80.09612957433512" cy="-9772.136607053706"/><circle fill="#0052ac" r="187.6982172827829" cx="-416.767288048364" cy="-8578.099161748707"/><path fill="#930039" d="M -604.4655053311469,-8578.099161748707 a 234.6227716034786 234.6227716034786 0.0 0 1 375.3964345655658,0.0 a 234.6227716034786 234.6227716034786 0.0 0 1 -375.3964345655658,-0.0 z"/><circle fill="#efefef" r="93.84910864139145" cx="-416.767288048364" cy="-8578.099161748707"/><circle fill="#000213" r="46.92455432069573" cx="-416.767288048364" cy="-8578.099161748707"/><circle fill="#003faf" r="238.89546866002175" cx="3140.6391006657614" cy="-9242.053219448328"/><path fill="#960029" d="M 2901.7436320057395,-9242.053219448328 a 298.6193358250272 298.6193358250272 0.0 0 1 477.7909373200435,0.0 a 298.6193358250272 298.6193358250272 0.0 0 1 -477.7909373200435,-0.0 z"/><circle fill="#f1f1f1" r="119.44773433001087" cx="3140.6391006657614" cy="-9242.053219448328"/><circle fill="#000016" r="59.72386716500544" cx="3140.6391006657614" cy="-9242.053219448328"/><circle fill="#02325b" r="181.7444057195409" cx="1948.4919768389905" cy="-9622.968457332365"/><path fill="#43021e" d="M 1766.7475711194495,-9622.968457332365 a 227.18050714942612 227.18050714942612 0.0 0 1 363.4888114390818,0.0 a 227.18050714942612 227.18050714942612 0.0 0 1 -363.4888114390818,-0.0 z"/><circle fill="#c8c8c8" r="90.87220285977045" cx="1948.4919768389905" cy="-9622.968457332365"/><circle fill="#000000" r="45.43610142988523" cx="1948.4919768389905" cy="-9622.968457332365"/><circle fill="#005fd2" r="140.85711804554091" cx="2182.792991928636" cy="-8691.102286575431"/><path fill="#b90043" d="M 2041.9358738830952,-8691.102286575431 a 176.07139755692617 176.07139755692617 0.0 0 1 281.71423609108183,0.0 a 176.07139755692617 176.07139755692617 0.0 0 1 -281.71423609108183,-0.0 z"/><circle fill="#ffffff" r="70.42855902277046" cx="2182.792991928636" cy="-8691.102286575431"/><circle fill="#000539" r="35.21427951138523" cx="2182.792991928636" cy="-8691.102286575431"/><circle fill="#0060f5" r="149.85015309313718" cx="1223.3935091138587" cy="-6897.587356356872"/><path fill="#dc0043" d="M 1073.5433560207216,-6897.587356356872 a 187.3126913664215 187.3126913664215 0.0 0 1 299.70030618627436,0.0 a 187.3126913664215 187.3126913664215 0.0 0 1 -299.70030618627436,-0.0 z"/><circle fill="#ffffff" r="74.92507654656859" cx="1223.3935091138587" cy="-6897.587356356872"/><circle fill="#00025c" r="37.462538273284295" cx="1223.3935091138587" cy="-6897.587356356872"/><circle fill="#0d94f1" r="125.16216942723914" cx="718.2643108298736" cy="-7546.166201666829"/><path fill="#d90b73" d="M 593.1021414026344,-7546.166201666829 a 156.45271178404892 156.45271178404892 0.0 0 1 250.32433885447827,0.0 a 156.45271178404892 156.45271178404892 0.0 0 1 -250.32433885447827,-0.0 z"/><circle fill="#ffffff" r="62.58108471361957" cx="718.2643108298736" cy="-7546.166201666829"/><circle fill="#051960" r="31.290542356809784" cx="718.2643108298736" cy="-7546.166201666829"/></g></svg>