<?xml version='1.0' encoding='UTF-8'?>
<svg xmlns="http://www.w3.org/2000/svg" xmlns:svg="http://www.w3.org/2000/svg"><g><path fill="#000208" d="M 100.0,100.0 l 5.667668595574312 -6.3622730099993055 a 8.52062117236912 8.52062117236912 0.0 0 1 2.539982114370628,4.074161346079629 l -8.20765070994494 2.288111663919677 z"/><path fill="#007faa" d="M 100.0,100.0 l 8.20765070994494 -2.288111663919677 a 8.52062117236912 8.52062117236912 0.0 0 1 -0.065888993548187,4.800620632349663 l -8.141761716396752 -2.512508968429986 z"/><path fill="#3cedf8" d="M 100.0,100.0 l 8.141761716396754 2.512508968429984 a 8.52062117236912 8.52062117236912 0.0 0 1 -2.65084081156483,4.002916787413197 l -5.490920904831924 -6.5154257558431805 z"/><path fill="#4f25ff" d="M 100.0,100.0 l 5.490920904831927 6.515425755843179 a 8.52062117236912 8.52062117236912 0.0 0 1 -4.394169401855809,1.934315145731528 l -1.0967515029761183 -8.449740901574707 z"/><path fill="#c3c7ff" d="M 100.0,100.0 l 1.0967515029761221 8.449740901574707 a 8.52062117236912 8.52062117236912 0.0 0 1 -4.742380254774893,-0.7484178875021863 l 3.6456287517987707 -7.70132301407252 z"/><path fill="#ececff" d="M 100.0,100.0 l -3.6456287517987707 7.70132301407252 a 8.52062117236912 8.52062117236912 0.0 0 1 -3.5849188848606537,-3.193533529522057 l 7.230547636659424 -4.507789484550464 z"/><path fill="#0020f3" d="M 100.0,100.0 l -7.230547636659424 4.507789484550464 a 8.52062117236912 8.52062117236912 0.0 0 1 -1.2892710988295741,-4.624724840348324 l 8.519818735488998 0.11693535579786042 z"/><path fill="#2215c3" d="M 100.0,100.0 l -8.519818735488998 -0.11693535579786042 a 8.52062117236912 8.52062117236912 0.0 0 1 1.4157111515256044,-4.5875986911082425 l 7.104107583963394 4.704534046906103 z"/><path fill="#56c6ff" d="M 100.0,100.0 l -7.104107583963394 -4.704534046906103 a 8.52062117236912 8.52062117236912 0.0 0 1 3.6712151142084197,-3.093942371864715 l 3.4328924697549743 7.798476418770818 z"/><path fill="#34009c" d="M 100.0,100.0 l -3.4328924697549743 -7.798476418770818 a 8.52062117236912 8.52062117236912 0.0 0 1 4.761134217696497,-0.6179812103062847 l -1.328241747941522 8.416457629077103 z"/><path fill="#000208" d="M 100.0,100.0 l 1.328241747941522 -8.416457629077103 a 8.52062117236912 8.52062117236912 0.0 0 1 4.339426847632789,2.0541846190777973 l -5.667668595574312 6.3622730099993055 z"/><path fill="#000208" d="M 95.89549399490508,107.46686116230673 l -1.2256562992865974 2.229697168945436 a 11.064984123912042 11.064984123912042 0.0 0 1 -4.3962107874570915,-4.420997684194511 l 2.236552991908737 -1.2131007969531193 a 8.52062117236912 8.52062117236912 0.0 0 0 3.3853140948349516,3.404401312202194 z"/><path fill="#007faa" d="M 92.51017990007013,104.06245985010455 l -2.2365529919087357 1.2131007969531196 a 11.064984123912042 11.064984123912042 0.0 0 1 -1.3081560540665937,-6.095950914305003 l 2.537359912328144 0.18864650671116756 a 8.52062117236912 8.52062117236912 0.0 0 0 1.0073491336471854,4.694203610640716 z"/><path fill="#3cedf8" d="M 91.50283076642295,99.36825623946382 l -2.5373599123281436 -0.18864650671116728 a 11.064984123912042 11.064984123912042 0.0 0 1 2.1952289835010315,-5.8354828010546065 l 2.0325729887117996 1.5304998774071823 a 8.52062117236912 8.52062117236912 0.0 0 0 -1.6904420598846874,4.493629430358592 z"/><path fill="#4f25ff" d="M 93.19327282630763,94.87462680910524 l -2.032572988711799 -1.530499877407181 a 11.064984123912042 11.064984123912042 0.0 0 1 5.001644329553887,-3.7222901300205673 l 0.882458502653924 2.3864303510217955 a 8.52062117236912 8.52062117236912 0.0 0 0 -3.851529843496012,2.866359656405953 z"/><path fill="#c3c7ff" d="M 97.04480266980364,92.00826715269929 l -0.8824585026539236 -2.3864303510217946 a 11.064984123912042 11.064984123912042 0.0 0 1 6.220072940903472,-0.4272966431502718 l -0.547830322842743 2.4846860498981016 a 8.52062117236912 8.52062117236912 0.0 0 0 -4.789784115406805,0.3290409442739648 z"/><path fill="#ececff" d="M 101.83458678521045,91.67922620842532 l 0.5478303228427434 -2.4846860498981007 a 11.064984123912042 11.064984123912042 0.0 0 1 5.463672342451484,3.0033605087864297 l -1.804186891620935 1.7940714838844638 a 8.52062117236912 8.52062117236912 0.0 0 0 -4.207315773673292,-2.3127459427727928 z"/><path fill="#0020f3" d="M 106.04190255888373,93.99197215119811 l 1.804186891620934 -1.794071483884464 a 11.064984123912042 11.064984123912042 0.0 0 1 2.972594379735166,5.4804719199147405 l -2.4877268700848916 0.5338518980408704 a 8.52062117236912 8.52062117236912 0.0 0 0 -2.2890544012712084,-4.220252334071147 z"/><path fill="#2215c3" d="M 108.33095696015495,98.21222448526925 l 2.4877268700848916 -0.5338518980408702 a 11.064984123912042 11.064984123912042 0.0 0 1 -0.46226129519882697,6.217572219634291 l -2.3814311447350107 -0.8958618934134357 a 8.52062117236912 8.52062117236912 0.0 0 0 0.3559655698489461,-4.787858428179985 z"/><path fill="#56c6ff" d="M 107.974991390306,103.00008291344925 l 2.3814311447350116 0.8958618934134346 a 11.064984123912042 11.064984123912042 0.0 0 1 -3.750352275089446,4.9806372708860005 l -1.51904785732017 -2.0411458635666424 a 8.52062117236912 8.52062117236912 0.0 0 0 2.887968987674604,-3.835353300732793 z"/><path fill="#34009c" d="M 105.08702240263139,106.83543621418204 l 1.5190478573201704 2.041145863566641 a 11.064984123912042 11.064984123912042 0.0 0 1 -5.84773290636206,2.1623851801326723 l -0.17437760828544935 -2.5383804440849396 a 8.52062117236912 8.52062117236912 0.0 0 0 4.503062657327339,-1.6651505996143738 z"/><path fill="#000208" d="M 100.58395974530406,108.5005868137964 l 0.17437760828544996 2.53838044408494 a 11.064984123912042 11.064984123912042 0.0 0 1 -6.088499657971051,-1.3424089266291888 l 1.2256562992866025 -2.2296971689454335 a 8.52062117236912 8.52062117236912 0.0 0 0 4.688465750398998,1.0337256514896822 z"/><path fill="#000208" d="M 104.57221192121457,110.07614766713593 l 3.996660909610921 8.807760050197281 a 20.737105686850715 20.737105686850715 0.0 0 1 -11.569689594567556,1.6349287754619066 l 1.3996294837529613 -9.570317279822682 a 11.064984123912042 11.064984123912042 0.0 0 0 6.173399201203673,-0.872371545836506 z"/><path fill="#007faa" d="M 98.3988127200109,110.94851921297244 l -1.3996294837529586 9.570317279822683 a 20.737105686850715 20.737105686850715 0.0 0 1 -10.616951474837482,-4.879656831829829 l 6.351547405334625 -7.294366393734977 a 11.064984123912042 11.064984123912042 0.0 0 0 5.665033553255816,2.6037059457421226 z"/><path fill="#3cedf8" d="M 92.73377916675508,108.34481326723032 l -6.351547405334623 7.294366393734979 a 20.737105686850715 20.737105686850715 0.0 0 1 -6.293406277640985,-9.844985873023198 l 9.286893903611993 -2.7025057171665043 a 11.064984123912042 11.064984123912042 0.0 0 0 3.3580597793636136,5.2531251964547225 z"/><path fill="#4f25ff" d="M 89.37571938739147,103.0916880707756 l -9.286893903611992 2.7025057171665066 a 20.737105686850715 20.737105686850715 0.0 0 1 0.028250945622657397,-11.684601460877847 l 9.273717205549273 2.747381429609404 a 11.064984123912042 11.064984123912042 0.0 0 0 -0.015074247559939025,6.234714314101937 z"/><path fill="#c3c7ff" d="M 89.39079363495141,96.85697375667365 l -9.273717205549271 -2.747381429609407 a 20.737105686850715 20.737105686850715 0.0 0 1 6.340938693262743,-9.814438644352533 l 6.316200819679283 7.324994384553889 a 11.064984123912042 11.064984123912042 0.0 0 0 -3.3834223073927543,5.23682568940805 z"/><path fill="#ececff" d="M 92.77421594234417,91.6201480672656 l -6.316200819679282 -7.3249943845538885 a 20.737105686850715 20.737105686850715 0.0 0 1 10.640423208723817,-4.828260903755052 l 1.353335301703508 9.576973378339646 a 11.064984123912042 11.064984123912042 0.0 0 0 -5.677557690748044,2.5762819099692944 z"/><path fill="#0020f3" d="M 98.45177363309222,89.0438661572963 l -1.3533353017035081 -9.576973378339646 a 20.737105686850715 20.737105686850715 0.0 0 1 11.5616485370528,1.690855558923353 l -4.03920461235281 8.788330992162901 a 11.064984123912042 11.064984123912042 0.0 0 0 -6.169108622996482,-0.9022131727466078 z"/><path fill="#2215c3" d="M 104.62088225608869,89.94607933004292 l 4.03920461235281 -8.788330992162903 a 20.737105686850715 20.737105686850715 0.0 0 1 8.81213214557246,7.673137328658029 l -8.149325601643113 5.209455611353969 a 11.064984123912042 11.064984123912042 0.0 0 0 -4.702011156282157,-4.094261947849096 z"/><path fill="#56c6ff" d="M 109.32289341237086,94.04034127789203 l 8.149325601643111 -5.2094556113539685 a 20.737105686850715 20.737105686850715 0.0 0 1 3.2648260614233227,11.219252212341463 l -9.672093292794917 -0.023385117805422517 a 11.064984123912042 11.064984123912042 0.0 0 0 -1.7420583702715167,-5.986411483182071 z"/><path fill="#34009c" d="M 111.06495178264237,100.02675276107408 l 9.67209329279492 0.023385117805420328 a 20.737105686850715 20.737105686850715 0.0 0 1 -3.3190392290691246,11.203333790054527 l -8.124039703229881 -5.2488012372929305 a 11.064984123912042 11.064984123912042 0.0 0 0 1.7709856395040866,-5.977917670567017 z"/><path fill="#000208" d="M 109.29396614313828,106.0046704316411 l 8.124039703229881 5.248801237292928 a 20.737105686850715 20.737105686850715 0.0 0 1 -8.84913301554271,7.630436048399207 l -3.9966609096109025 -8.807760050197288 a 11.064984123912042 11.064984123912042 0.0 0 0 4.721754221923732,-4.071477235494846 z"/><path fill="#000208" d="M 120.71930120315906,99.14086676214468 l 22.353738602478295 -0.9269057694277146 a 43.11005327569843 43.11005327569843 0.0 0 1 -5.872087310461783,23.570570833449224 l -19.30628466420731 -11.305580758099977 a 20.737105686850715 20.737105686850715 0.0 0 0 2.8246333721907995,-11.338084305921532 z"/><path fill="#007faa" d="M 117.89466783096826,110.47895106806621 l 19.306284664207308 11.305580758099971 a 43.11005327569843 43.11005327569843 0.0 0 1 -17.683126878310134,16.654135900788 l -10.129221756739414 -19.948625276347336 a 20.737105686850715 20.737105686850715 0.0 0 0 8.50606397084224,-8.011091382540636 z"/><path fill="#3cedf8" d="M 109.38860386012603,118.49004245060684 l 10.129221756739417 19.94862527634733 a 43.11005327569843 43.11005327569843 0.0 0 1 -23.879898605299054,4.450130492127876 l 2.2637974888323154 -22.258122219605212 a 20.737105686850715 20.737105686850715 0.0 0 0 11.486879359727322,-2.1406335488699924 z"/><path fill="#4f25ff" d="M 97.90172450039871,120.63067599947684 l -2.26379748883231 22.258122219605212 a 43.11005327569843 43.11005327569843 0.0 0 1 -22.494971252406323,-9.166759904663323 l 13.938077026928497 -17.500822626514868 a 20.737105686850715 20.737105686850715 0.0 0 0 10.820691714310136,4.409460311572978 z"/><path fill="#c3c7ff" d="M 87.08103278608857,116.22121568790385 l -13.938077026928504 17.50082262651486 a 43.11005327569843 43.11005327569843 0.0 0 1 -13.968049468746294,-19.87326880095434 l 21.18711559072114 -7.187135504409802 a 20.737105686850715 20.737105686850715 0.0 0 0 6.719010904953654,9.55958167884928 z"/><path fill="#ececff" d="M 80.36202188113492,106.66163400905457 l -21.187115590721138 7.187135504409802 a 43.11005327569843 43.11005327569843 0.0 0 1 -1.0063706722807417,-24.27015527074982 l 21.709394655465015 5.408416358472575 a 20.737105686850715 20.737105686850715 0.0 0 0 0.48409160753686464,11.674603407867444 z"/><path fill="#0020f3" d="M 79.87793027359805,94.9870306011871 l -21.70939465546501 -5.408416358472573 a 43.11005327569843 43.11005327569843 0.0 0 1 12.274823701958578,-20.961438926804746 l 15.339094308351472 16.286834241583787 a 20.737105686850715 20.737105686850715 0.0 0 0 -5.904523354845038,10.083021043693535 z"/><path fill="#2215c3" d="M 85.7824536284431,84.90400955749357 l -15.339094308351472 -16.286834241583783 a 43.11005327569843 43.11005327569843 0.0 0 1 21.65884828058585,-10.99761383004931 l 4.098739899197681 21.994297330263848 a 20.737105686850715 20.737105686850715 0.0 0 0 -10.418493871432059,5.290150741369244 z"/><path fill="#56c6ff" d="M 96.20094749987516,79.61385881612433 l -4.098739899197683 -21.994297330263855 a 43.11005327569843 43.11005327569843 0.0 0 1 24.1663415642363,2.4578759523206664 l -8.44293546763916 20.718726420863984 a 20.737105686850715 20.737105686850715 0.0 0 0 -11.62466619739946,-1.1823050429207953 z"/><path fill="#34009c" d="M 107.8256136972746,80.79616385904514 l 8.442935467639158 -20.718726420863984 a 43.11005327569843 43.11005327569843 0.0 0 1 19.00119215245168,15.133007486350436 l -18.304038478431913 12.865106264365275 a 20.737105686850715 20.737105686850715 0.0 0 0 -9.140089141658923,-7.279387329851728 z"/><path fill="#000208" d="M 116.96570283893354,88.07555118889687 l 18.304038478431913 -12.865106264365275 a 43.11005327569843 43.11005327569843 0.0 0 1 7.803298488271913,23.00351606818545 l -22.353738602478295 0.926905769427675 a 20.737105686850715 20.737105686850715 0.0 0 0 -3.7535983642255317,-11.065315573247851 z"/><path fill="#000208" d="M 56.89219812860732,99.55941941677997 l -10.237704940725298 -0.10463382074260581 a 53.34829290415968 53.34829290415968 0.0 0 1 8.76317590680085,-28.754207550008065 l 8.5559361350886 5.62294473937629 a 43.11005327569843 43.11005327569843 0.0 0 0 -7.081407101164153,23.23589663137438 z"/><path fill="#007faa" d="M 63.97360522977147,76.3235227854056 l -8.555936135088603 -5.6229447393762895 a 53.34829290415968 53.34829290415968 0.0 0 1 22.917750965541522,-19.45184809944523 l 4.157718059917201 9.356010433087 a 43.11005327569843 43.11005327569843 0.0 0 0 -18.519532890370122,15.718782405734519 z"/><path fill="#3cedf8" d="M 82.4931381201416,60.60474037967109 l -4.157718059917203 -9.356010433086995 a 53.34829290415968 53.34829290415968 0.0 0 1 29.796102021813205,-3.9736643174996313 l -1.5605461222458992 10.118608920703366 a 43.11005327569843 43.11005327569843 0.0 0 0 -24.0778378396501,3.2110658298832604 z"/><path fill="#4f25ff" d="M 106.57097595979168,57.39367454978784 l 1.5605461222458976 -10.118608920703362 a 53.34829290415968 53.34829290415968 0.0 0 1 27.214401215355867,12.766129808681757 l -6.783347936887942 7.668620570670612 a 43.11005327569843 43.11005327569843 0.0 0 0 -21.991599400713824,-10.316141458649007 z"/><path fill="#c3c7ff" d="M 128.5625753605055,67.70981600843686 l 6.783347936887936 -7.668620570670618 a 53.34829290415968 53.34829290415968 0.0 0 1 15.992320310793282,25.452767921769492 l -9.852484710414252 2.7838993733336963 a 43.11005327569843 43.11005327569843 0.0 0 0 -12.923183537266965,-20.56804672443257 z"/><path fill="#ececff" d="M 141.48575889777243,88.27786273286944 l 9.852484710414252 -2.783899373333695 a 53.34829290415968 53.34829290415968 0.0 0 1 -0.30720929611036496,30.058332060359845 l -9.793527202714444 -2.9846902049436643 a 43.11005327569843 43.11005327569843 0.0 0 0 0.24825178841055617,-24.289742482082485 z"/><path fill="#0020f3" d="M 141.23750710936187,112.56760521495187 l 9.79352720271444 2.9846902049436617 a 53.34829290415968 53.34829290415968 0.0 0 1 -16.50920212213614,25.12058815181137 l -6.625194005909346 -7.805661731964648 a 43.11005327569843 43.11005327569843 0.0 0 0 13.340868925331048,-20.29961662479038 z"/><path fill="#2215c3" d="M 127.89663818403082,132.86722183974226 l 6.625194005909345 7.805661731964642 a 53.34829290415968 53.34829290415968 0.0 0 1 -27.46963992283176,12.207234998657055 l -1.3534085236119644 -10.148390811257165 a 43.11005327569843 43.11005327569843 0.0 0 0 22.197854440534382,-9.864505919364532 z"/><path fill="#56c6ff" d="M 105.69878374349645,142.73172775910678 l 1.3534085236119653 10.148390811257165 a 53.34829290415968 53.34829290415968 0.0 0 1 -29.70866113922921,-4.58182901436998 l 4.3480746022045516 -9.269077513078535 a 43.11005327569843 43.11005327569843 0.0 0 0 24.007178013412695,3.70251571619135 z"/><path fill="#34009c" d="M 81.69160573008377,139.02921204291545 l -4.348074602204546 9.269077513078535 a 53.34829290415968 53.34829290415968 0.0 0 1 -22.51539235529024,-19.916194688991375 l 8.66907476384818 -5.44689759666959 a 43.11005327569843 43.11005327569843 0.0 0 0 18.194392193646603,16.09401477258243 z"/><path fill="#000208" d="M 63.49721353643717,122.935197270333 l -8.669074763848181 5.446897596669591 a 53.34829290415968 53.34829290415968 0.0 0 1 -8.173645584706966,-28.92730927096532 l 10.237704940725294 0.10463382074262739 a 43.11005327569843 43.11005327569843 0.0 0 0 6.605015407829853,23.375777853553103 z"/><path fill="#000208" d="M 65.25263377548151,59.51962331885725 l -1.1118458492068257 -1.2952906558857045 a 55.0553310043857 55.0553310043857 0.0 0 1 28.27815417100551,-12.755214125479409 l 0.2350572495682819 1.6907770891068594 a 53.34829290415968 53.34829290415968 0.0 0 0 -27.401365571366966,12.359727692258254 z"/><path fill="#007faa" d="M 92.65399934684848,47.159895626599 l -0.23505724956828303 -1.690777089106858 a 55.0553310043857 55.0553310043857 0.0 0 1 30.68508648992356,4.557955442070094 l -0.7163603659730278 1.5494537429966257 a 53.34829290415968 53.34829290415968 0.0 0 0 -29.73366887438225,-4.416632095959862 z"/><path fill="#3cedf8" d="M 122.38766822123071,51.576527722558865 l 0.7163603659730282 -1.5494537429966262 a 55.0553310043857 55.0553310043857 0.0 0 1 23.34972065875159,20.424006361736545 l -1.440338626878379 0.9161897814019611 a 53.34829290415968 53.34829290415968 0.0 0 0 -22.62574239784624,-19.79074240014188 z"/><path fill="#4f25ff" d="M 145.01341061907692,71.36727012270075 l 1.4403386268783789 -0.9161897814019605 a 55.0553310043857 55.0553310043857 0.0 0 1 8.60098349966843,29.805579570684817 l -1.7070195506962733 -0.007957962300178423 a 53.34829290415968 53.34829290415968 0.0 0 0 -8.334302575850536,-28.881431826982677 z"/><path fill="#c3c7ff" d="M 153.34771319492745,100.2487019496834 l 1.7070195506962698 0.007957962300175836 a 55.0553310043857 55.0553310043857 0.0 0 1 -8.878505148914126,29.724091862102217 l -1.4317338283918843 -0.9295791092002794 a 53.34829290415968 53.34829290415968 0.0 0 0 8.60321942660974,-28.802470715202112 z"/><path fill="#ececff" d="M 144.74449376831774,129.05117266488548 l 1.431733828391885 0.9295791092002781 a 55.0553310043857 55.0553310043857 0.0 0 1 -23.539131145236095,20.20541500769941 l -0.7018827317208967 -1.5560654570214183 a 53.34829290415968 53.34829290415968 0.0 0 0 22.809280048565107,-19.578928659878272 z"/><path fill="#0020f3" d="M 121.93521371975258,148.63010132476379 l 0.7018827317209 1.5560654570214176 a 55.0553310043857 55.0553310043857 0.0 0 1 -30.726249322498564,4.271661652992322 l 0.25081117300507216 -1.6885120168713925 a 53.34829290415968 53.34829290415968 0.0 0 0 29.77355541777259,-4.139215093142347 z"/><path fill="#2215c3" d="M 92.16165830198004,152.7693164179061 l -0.25081117300507094 1.6885120168713892 a 55.0553310043857 55.0553310043857 0.0 0 1 -28.158000441170987,-13.01831409442077 l 1.1238743024489963 -1.284867941820501 a 53.34829290415968 53.34829290415968 0.0 0 0 27.284937311727063,12.614670019369882 z"/><path fill="#56c6ff" d="M 64.87672099025299,140.15464639853622 l -1.1238743024489934 1.2848679418205027 a 55.0553310043857 55.0553310043857 0.0 0 1 -16.649785374695792,-26.17506709986734 l 1.6401152817817248 -0.47328737368465923 a 53.34829290415968 53.34829290415968 0.0 0 0 16.13354439536306,25.3634865317315 z"/><path fill="#34009c" d="M 48.743176594889945,114.79115986680475 l -1.6401152817817235 0.4732873736846608 a 55.0553310043857 55.0553310043857 0.0 0 1 0.14461890648364895,-31.021421245292313 l 1.6356312476495702 0.4885585915072781 a 53.34829290415968 53.34829290415968 0.0 0 0 -0.1401348723514957,30.059575280100375 z"/><path fill="#000208" d="M 48.88331146724144,84.73158458670437 l -1.6356312476495711 -0.488558591507276 a 55.0553310043857 55.0553310043857 0.0 0 1 16.893107706682827,-26.01869333222557 l 1.1118458492068228 1.295290655885708 a 53.34829290415968 53.34829290415968 0.0 0 0 -16.36932230824008,25.211961267847137 z"/><path fill="#000208" d="M 44.99269544539487,102.299112359018 l -10.93486168009533 0.45703885759213936 a 65.99973982716669 65.99973982716669 0.0 0 1 8.977998080438311,-36.08855592654127 l 9.446084880978091 5.527347003900111 a 55.0553310043857 55.0553310043857 0.0 0 0 -7.489221281321072,30.10417006504902 z"/><path fill="#007faa" d="M 52.48191672671595,72.19494229396899 l -9.446084880978091 -5.527347003900112 a 65.99973982716669 65.99973982716669 0.0 0 1 27.063718979837613,-25.505752946655555 l 4.958242874996724 9.75683924602177 a 55.0553310043857 55.0553310043857 0.0 0 0 -22.575876973856246,21.276260704533897 z"/><path fill="#3cedf8" d="M 75.05779370057219,50.9186815894351 l -4.958242874996726 -9.75683924602177 a 65.99973982716669 65.99973982716669 0.0 0 1 36.55690032623905,-6.825053621245324 l -1.103806210526038 10.88860396606335 a 55.0553310043857 55.0553310043857 0.0 0 0 -30.49485124071629,5.6932889012037435 z"/><path fill="#4f25ff" d="M 105.55264494128846,45.22539268823137 l 1.1038062105260333 -10.888603966063354 a 65.99973982716669 65.99973982716669 0.0 0 1 34.44352411777442,14.022552005385865 l -6.815404623328789 8.563313862079035 a 55.0553310043857 55.0553310043857 0.0 0 0 -28.731925704971665,-11.697261901401546 z"/><path fill="#c3c7ff" d="M 134.28457064626014,56.92265458963292 l 6.815404623328792 -8.563313862079035 a 65.99973982716669 65.99973982716669 0.0 0 1 21.394572368228186,30.41809644892489 l -10.36316022357257 3.5192321123690817 a 55.0553310043857 55.0553310043857 0.0 0 0 -17.846816767984407,-25.374014699214936 z"/><path fill="#ececff" d="M 152.13138741424453,82.29666928884787 l 10.36316022357257 -3.519232112369081 a 65.99973982716669 65.99973982716669 0.0 0 1 1.5529950585943624,37.156110193929564 l -10.620685675423204 -2.642180967312182 a 55.0553310043857 55.0553310043857 0.0 0 0 -1.2954696067437297,-30.9946971142483 z"/><path fill="#0020f3" d="M 153.42685702098822,113.29136640309619 l 10.620685675423207 2.642180967312184 a 65.99973982716669 65.99973982716669 0.0 0 1 -18.781647209204447,32.09732148489083 l -7.5062184675060095 -7.964720258630443 a 55.0553310043857 55.0553310043857 0.0 0 0 15.66718000128725,-26.77478219357257 z"/><path fill="#2215c3" d="M 137.75967701970097,140.06614859666874 l 7.506218467506014 7.964720258630438 a 65.99973982716669 65.99973982716669 0.0 0 1 -33.15324919285856,16.847859993235645 l -2.0085799325609806 -10.75851714385768 a 55.0553310043857 55.0553310043857 0.0 0 0 27.655610657913524,-14.0540631080084 z"/><path fill="#56c6ff" d="M 110.1040663617875,154.1202117046771 l 2.0085799325609837 10.758517143857686 a 65.99973982716669 65.99973982716669 0.0 0 1 -36.99892880744532,-3.7506780049815927 l 4.126768539024557 -10.136560851959779 a 55.0553310043857 55.0553310043857 0.0 0 0 30.863580335859776,3.128721713083685 z"/><path fill="#34009c" d="M 79.24048602592774,150.99148999159343 l -4.126768539024551 10.136560851959782 a 65.99973982716669 65.99973982716669 0.0 0 1 -29.097709947606653,-23.158402237641614 l 8.95189715782292 -6.296318111081138 a 55.0553310043857 55.0553310043857 0.0 0 0 24.272581328808286,19.31815949676297 z"/><path fill="#000208" d="M 54.967904697119465,131.67333049483045 l -8.95189715782292 6.29631811108114 a 65.99973982716669 65.99973982716669 0.0 0 1 -11.95817377399701,-35.213497389301466 l 10.934861680095338 -0.4570388575921349 a 55.0553310043857 55.0553310043857 0.0 0 0 9.975209251724593,29.37421813581246 z"/><path fill="#000208" d="M 71.48899601317012,159.52384655679322 l -0.13281220087688497 0.27727866298631565 a 66.30718500544933 66.30718500544933 0.0 0 1 -27.783824597554688,-24.979233560129803 l 0.26163689621067476 -0.1614579579657871 a 65.99973982716669 65.99973982716669 0.0 0 0 27.654999902220897,24.863412855109274 z"/><path fill="#007faa" d="M 43.83399611094924,134.66043370168396 l -0.26163689621068076 0.16145795796578846 a 66.30718500544933 66.30718500544933 0.0 0 1 -9.868447346891893,-36.034938122339305 l 0.30739372563556344 0.005624507901458742 a 65.99973982716669 65.99973982716669 0.0 0 0 9.82269051746701,35.86785565647206 z"/><path fill="#3cedf8" d="M 34.011305593482234,98.7925780452119 l -0.30739372563555567 -0.005624507901459786 a 66.30718500544933 66.30718500544933 0.0 0 1 11.180092209292091,-35.649804441412115 l 0.25555521911142165 0.17092123225086908 a 65.99973982716669 65.99973982716669 0.0 0 0 -11.128253702767957,35.484507717062705 z"/><path fill="#4f25ff" d="M 45.13955929625019,63.308070328149206 l -0.25555521911141943 -0.17092123225086836 a 66.30718500544933 66.30718500544933 0.0 0 1 28.679031483782673,-23.946109739818098 l 0.12257973618629947 0.2819516730323457 a 65.99973982716669 65.99973982716669 0.0 0 0 -28.546056000857554,23.83507929903662 z"/><path fill="#c3c7ff" d="M 73.68561529710774,39.472991029112606 l -0.12257973618630016 -0.28195167303234414 a 66.30718500544933 66.30718500544933 0.0 0 1 37.07258089852542,-4.639694390958008 l -0.04931394687093871 0.3034644498013819 a 65.99973982716669 65.99973982716669 0.0 0 0 -36.90068721546818,4.61818161418897 z"/><path fill="#ececff" d="M 110.58630251257591,34.854809414923636 l 0.04931394687094061 -0.30346444980137444 a 66.30718500544933 66.30718500544933 0.0 0 1 33.69584782032601,16.139791144517147 l -0.20555080023235206 0.22862940793580577 a 65.99973982716669 65.99973982716669 0.0 0 0 -33.539610966964595,-16.06495610265158 z"/><path fill="#0020f3" d="M 144.12591347954054,50.91976551757526 l 0.2055508002323563 -0.22862940793580952 a 66.30718500544933 66.30718500544933 0.0 0 1 19.620921142656716,31.79500702992289 l -0.2965267268725498 0.08120614446882612 a 65.99973982716669 65.99973982716669 0.0 0 0 -19.52994521601652,-31.647583766455906 z"/><path fill="#2215c3" d="M 163.65585869555704,82.5673492840312 l 0.29652672687255144 -0.0812061444688278 a 66.30718500544933 66.30718500544933 0.0 0 1 -0.683509363001983,37.35553283611258 l -0.29335751288844847 -0.09199949609181601 a 65.99973982716669 65.99973982716669 0.0 0 0 0.68034014901788,-37.182327195551935 z"/><path fill="#56c6ff" d="M 162.97551854653915,119.74967647958306 l 0.2933575128884452 0.09199949609180791 a 66.30718500544933 66.30718500544933 0.0 0 1 -20.770930475354017,31.05594090841909 l -0.19704936132739448 -0.23599594668066715 a 65.99973982716669 65.99973982716669 0.0 0 0 20.674622323792967,-30.91194445783023 z"/><path fill="#34009c" d="M 142.3008962227462,150.66162093741326 l 0.19704936132739484 0.23599594668067211 a 66.30718500544933 66.30718500544933 0.0 0 1 -34.263727922162744,14.896307173095112 l -0.038179429829156675 -0.3050653516661015 a 65.99973982716669 65.99973982716669 0.0 0 0 34.104857990664506,-14.827237768109683 z"/><path fill="#000208" d="M 108.1960382320817,165.48885870552294 l 0.03817942982915275 0.30506535166610066 a 66.30718500544933 66.30718500544933 0.0 0 1 -36.87803384961762,-5.9927988374095085 l 0.1328122008768844 -0.2772786629863191 a 65.99973982716669 65.99973982716669 0.0 0 0 36.70704221891159,5.965012148729727 z"/><path fill="#000208" d="M 145.18980249002186,148.52344314101893 l 1.2875404716788401 1.3825220166223091 a 68.19639849064797 68.19639849064797 0.0 0 1 -34.35931579730128,17.205153032552325 l -0.335700137245901 -1.8591484638160267 a 66.30718500544933 66.30718500544933 0.0 0 0 33.40747546286834,-16.72852658535861 z"/><path fill="#007faa" d="M 111.78232702715354,165.25196972637752 l 0.3357001372459037 1.8591484638160203 a 68.19639849064797 68.19639849064797 0.0 0 1 -38.20670380010966,-4.102152808332222 l 0.7227226188187856 -1.7455084098634757 a 66.30718500544933 66.30718500544933 0.0 0 0 37.14828104404497,3.988512754379677 z"/><path fill="#3cedf8" d="M 74.63404598310859,161.26345697199787 l -0.7227226188187821 1.745508409863472 a 68.19639849064797 68.19639849064797 0.0 0 1 -29.92373330205227,-24.10705411699799 l 1.551686049922516 -1.0776817689523455 a 66.30718500544933 66.30718500544933 0.0 0 0 29.094769870948536,23.439227476086863 z"/><path fill="#4f25ff" d="M 45.53927611216006,137.82422949591103 l -1.5516860499225111 1.0776817689523475 a 68.19639849064797 68.19639849064797 0.0 0 1 -12.140188911589417,-36.458136075821976 l 1.8880001238655524 -0.06769878093436432 a 66.30718500544933 66.30718500544933 0.0 0 0 11.803874837646376,35.448153087803995 z"/><path fill="#c3c7ff" d="M 33.73540127451369,102.37607640810704 l -1.8880001238655644 0.067698780934363 a 68.19639849064797 68.19639849064797 0.0 0 1 9.497779679827238,-37.2340174314521 l 1.6248874984527149 0.9637780916935483 a 66.30718500544933 66.30718500544933 0.0 0 0 -9.234667054414388,36.20254055882419 z"/><path fill="#ececff" d="M 42.97006832892808,66.17353584928286 l -1.624887498452716 -0.96377809169355 a 68.19639849064797 68.19639849064797 0.0 0 1 28.12027033100315,-26.188361335591978 l 0.8458845731875684 1.6892622299393523 a 66.30718500544933 66.30718500544933 0.0 0 0 -27.341267405738005,25.462877197346174 z"/><path fill="#0020f3" d="M 70.31133573466609,40.71065865193669 l -0.8458845731875702 -1.689262229939351 a 68.19639849064797 68.19639849064797 0.0 0 1 37.81477384042121,-6.8280855538003085 l -0.20168072732983688 1.8784175459359744 a 66.30718500544933 66.30718500544933 0.0 0 0 -36.767208539903805,6.6389302378036845 z"/><path fill="#2215c3" d="M 107.0785442745699,34.071728414133005 l 0.2016807273298364 -1.8784175459359653 a 68.19639849064797 68.19639849064797 0.0 0 1 35.50335384192983,14.700059146375791 l -1.1852138219279382 1.4711885633620696 a 66.30718500544933 66.30718500544933 0.0 0 0 -34.51982074733173,-14.292830163801895 z"/><path fill="#56c6ff" d="M 141.59836502190163,48.3645585779349 l 1.1852138219279442 -1.4711885633620665 a 68.19639849064797 68.19639849064797 0.0 0 1 21.919869853336763,31.561038933232336 l -1.7924499023846252 0.5968676068423697 a 66.30718500544933 66.30718500544933 0.0 0 0 -21.312633772880083,-30.68671797671264 z"/><path fill="#34009c" d="M 162.9109987947817,79.05127655464754 l 1.7924499023846243 -0.596867606842369 a 68.19639849064797 68.19639849064797 0.0 0 1 1.3769820647085576,38.40161185843235 l -1.8305958036799979 -0.4669545975847882 a 66.30718500544933 66.30718500544933 0.0 0 0 -1.338836163413184,-37.33778965400519 z"/><path fill="#000208" d="M 164.24983495819487,116.38906620865272 l 1.8305958036799956 0.46695459758479335 a 68.19639849064797 68.19639849064797 0.0 0 1 -19.603087800174176,33.04994435140373 l -1.2875404716788381 -1.3825220166223033 a 66.30718500544933 66.30718500544933 0.0 0 0 19.06003246817302,-32.13437693236622 z"/><path fill="#000208" d="M 138.6480062401626,156.18790244132276 l 7.391464145760836 10.745984249220019 a 81.23901784806819 81.23901784806819 0.0 0 1 -43.495794489944245,14.265298858666764 l -0.4083776165530182 -13.036224431362442 a 68.19639849064797 68.19639849064797 0.0 0 0 36.51270796073643,-11.975058676524341 z"/><path fill="#007faa" d="M 102.13529827942622,168.1629611178471 l 0.40837761655301846 13.036224431362447 a 81.23901784806819 81.23901784806819 0.0 0 1 -44.30339361416255,-11.514868827178097 l 6.70436592045202 -11.18755546610761 a 68.19639849064797 68.19639849064797 0.0 0 0 37.190650077157514,9.66619986192326 z"/><path fill="#3cedf8" d="M 64.94464820226872,158.49676125592381 l -6.704365920452017 11.187555466107609 a 81.23901784806819 81.23901784806819 0.0 0 1 -31.04497829870513,-33.63914702056914 l 11.688520648499498 -5.786916687853189 a 68.19639849064797 68.19639849064797 0.0 0 0 26.060823570657647,28.23850824231472 z"/><path fill="#4f25ff" d="M 38.88382463161109,130.2582530136091 l -11.68852064849949 5.786916687853194 a 81.23901784806819 81.23901784806819 0.0 0 1 -7.930001726743514,-45.083233717784516 l 12.961652657788804 1.4510272503951782 a 68.19639849064797 68.19639849064797 0.0 0 0 6.6568697174541995,37.845289779536145 z"/><path fill="#c3c7ff" d="M 32.22695491415689,92.4129632340729 l -12.961652657788791 -1.4510272503951889 a 81.23901784806819 81.23901784806819 0.0 0 1 17.702694362744445,-42.21371225251093 l 10.119551530891492 8.228280289111716 a 68.19639849064797 68.19639849064797 0.0 0 0 -14.860593235847148,35.43645921379441 z"/><path fill="#ececff" d="M 47.08754815000405,56.976504020278504 l -10.11955153089149 -8.228280289111716 a 81.23901784806819 81.23901784806819 0.0 0 1 37.71491007332235,-25.941635414903004 l 4.064564294270507 12.393112474285616 a 68.19639849064797 68.19639849064797 0.0 0 0 -31.65992283670137,21.776803229729104 z"/><path fill="#0020f3" d="M 78.74747098670542,35.1997007905494 l -4.064564294270508 -12.393112474285624 a 81.23901784806819 81.23901784806819 0.0 0 1 45.75290831644091,-1.4332726279002852 l -3.2808933869423953 12.623219014422205 a 68.19639849064797 68.19639849064797 0.0 0 0 -38.407450635228,1.2031660877637051 z"/><path fill="#2215c3" d="M 117.15492162193343,33.996534702785695 l 3.280893386942398 -12.623219014422206 a 81.23901784806819 81.23901784806819 0.0 0 1 39.2646814436918,23.53014409144025 l -9.58469059948601 8.845542708883222 a 68.19639849064797 68.19639849064797 0.0 0 0 -32.960884231148185,-19.752467785901267 z"/><path fill="#56c6ff" d="M 150.1158058530816,53.74900248868697 l 9.584690599486013 -8.845542708883222 a 81.23901784806819 81.23901784806819 0.0 0 1 20.310195643552415,41.02290631780209 l -12.845416268880456 2.2594690928920045 a 68.19639849064797 68.19639849064797 0.0 0 0 -17.049469974157972,-34.43683270181087 z"/><path fill="#34009c" d="M 167.16527582723958,88.1858351904979 l 12.845416268880447 -2.259469092892001 a 81.23901784806819 81.23901784806819 0.0 0 1 -5.092633768429982,45.49118564226683 l -12.027813034279603 -5.0439699954466946 a 68.19639849064797 68.19639849064797 0.0 0 0 4.275030533829138,-38.187746553928136 z"/><path fill="#000208" d="M 162.89024529341043,126.37358174442602 l 12.027813034279596 5.043969995446694 a 81.23901784806819 81.23901784806819 0.0 0 1 -28.878587941766632,35.51633495067016 l -7.391464145760821 -10.745984249220033 a 68.19639849064797 68.19639849064797 0.0 0 0 24.242239053247857,-29.814320696896825 z"/><path fill="#000208" d="M 38.84790055011008,46.51917396122687 l -14.12219739630722 -12.35062719074775 a 100.0 100.0 0.0 0 1 47.54069938124901,-30.245846751547624 l 5.20309527048753 18.02504510150625 a 81.23901784806819 81.23901784806819 0.0 0 0 -38.62159725542932,24.571428840789125 z"/><path fill="#007faa" d="M 77.4694978055394,21.94774512043776 l -5.203095270487538 -18.025045101506244 a 100.0 100.0 0.0 0 1 56.34592062013415,0.25801714267937115 l -5.367952840397493 17.976638551419242 a 81.23901784806819 81.23901784806819 0.0 0 0 -45.77487250924912,-0.20961059259236947 z"/><path fill="#3cedf8" d="M 123.24437031478851,22.157355713030142 l 5.367952840397494 -17.976638551419242 a 100.0 100.0 0.0 0 1 47.261710183377424,30.679962417167573 l -14.234713852598667 12.220776278115046 a 81.23901784806819 81.23901784806819 0.0 0 0 -38.39494917117625,-24.924100143863377 z"/><path fill="#4f25ff" d="M 161.63931948596473,47.08145585689351 l 14.23471385259867 -12.220776278115054 a 100.0 100.0 0.0 0 1 23.17224069868524,51.36123639846096 l -18.58205379428169 2.5849038843882894 a 81.23901784806819 81.23901784806819 0.0 0 0 -18.82490075700222,-41.725364004734196 z"/><path fill="#c3c7ff" d="M 180.46422024296692,88.80681986162769 l 18.582053794281684 -2.584903884388303 a 100.0 100.0 0.0 0 1 -8.274251480610651,55.73568072439762 l -17.029722950798373 -7.871657228573639 a 81.23901784806819 81.23901784806819 0.0 0 0 6.72192063712734,-45.279119611435675 z"/><path fill="#ececff" d="M 173.74229960583955,134.08593947306335 l 17.029722950798366 7.871657228573629 a 100.0 100.0 0.0 0 1 -37.09372727787994,42.41444022983979 l -10.070575396709046 -15.829022789935664 a 81.23901784806819 81.23901784806819 0.0 0 0 30.134579723790623,-34.45707466847776 z"/><path fill="#0020f3" d="M 143.60771988204897,168.543014141541 l 10.070575396709053 15.829022789935655 a 100.0 100.0 0.0 0 1 -54.13620675617492,15.626914648421655 l 0.08590869054982875 -18.760785458023662 a 81.23901784806819 81.23901784806819 0.0 0 0 43.97972266891604,-12.695151980333648 z"/><path fill="#2215c3" d="M 99.62799721313296,181.23816612187466 l -0.08590869054982528 18.76078545802366 a 100.0 100.0 0.0 0 1 -53.99082309754295,-16.122045919367576 l 10.215117375560936 -15.73613130056485 a 81.23901784806819 81.23901784806819 0.0 0 0 43.86161441253184,13.097391761908767 z"/><path fill="#56c6ff" d="M 55.76638280060112,168.1407743599659 l -10.215117375560935 15.736131300564859 a 100.0 100.0 0.0 0 1 -36.7037345863678,-42.75237082069067 l 17.101098470401823 -7.715366641367375 a 81.23901784806819 81.23901784806819 0.0 0 0 29.817753491526915,34.73160616149319 z"/><path fill="#34009c" d="M 25.94862930907422,133.4091681984727 l -17.10109847040182 7.715366641367381 a 100.0 100.0 0.0 0 1 -7.76346968021689,-55.80912006026192 l 18.55760163147795 2.754972412288552 a 81.23901784806819 81.23901784806819 0.0 0 0 6.306966519140758,45.338781006605984 z"/><path fill="#000208" d="M 19.641662789933463,88.07038719186673 l -18.55760163147795 -2.7549724122885486 a 100.0 100.0 0.0 0 1 23.64164199534747,-51.14686800909922 l 14.122197396307193 12.350627190747772 a 81.23901784806819 81.23901784806819 0.0 0 0 -19.206237760176712,41.55121323064 z"/></g></svg>