<?xml version='1.0' encoding='UTF-8'?>
<svg xmlns="http://www.w3.org/2000/svg" xmlns:svg="http://www.w3.org/2000/svg"><g><path fill="#2700f9" d="M 100.0,100.0 l 0.4346618380503409 -9.080511945133726 a 9.090909090909092 9.090909090909092 0.0 0 1 4.840294369728822,1.6764951228145302 l -5.274956207779163 7.404016822319195 z"/><path fill="#5b3bff" d="M 100.0,100.0 l 5.274956207779163 -7.404016822319195 a 9.090909090909092 9.090909090909092 0.0 0 1 3.165533044818475,4.027218149617887 l -8.440489252597638 3.376798672701308 z"/><path fill="#094199" d="M 100.0,100.0 l 8.440489252597638 -3.376798672701308 a 9.090909090909092 9.090909090909092 0.0 0 1 0.48573734476595476,5.099327868881262 l -8.926226597363593 -1.7225291961799536 z"/><path fill="#082547" d="M 100.0,100.0 l 8.926226597363593 1.7225291961799514 a 9.090909090909092 9.090909090909092 0.0 0 1 -2.3482765301936794,4.552437019903836 l -6.577950067169914 -6.274966216083787 z"/><path fill="#8ca1ff" d="M 100.0,100.0 l 6.5779500671699145 6.2749662160837865 a 9.090909090909092 9.090909090909092 0.0 0 1 -4.436729198945914,2.5601795830898535 l -2.1412208682240013 -8.83514579917364 z"/><path fill="#4519f9" d="M 100.0,100.0 l 2.1412208682240035 8.83514579917364 a 9.090909090909092 9.090909090909092 0.0 0 1 -5.116551695463336,-0.2449167819906357 l 2.9753308272393326 -8.590229017183004 z"/><path fill="#021756" d="M 100.0,100.0 l -2.9753308272393304 8.590229017183004 a 9.090909090909092 9.090909090909092 0.0 0 1 -4.1719051804979,-2.9722537992883993 l 7.147236007737231 -5.617975217894605 z"/><path fill="#ffffff" d="M 100.0,100.0 l -7.147236007737231 5.617975217894605 a 9.090909090909092 9.090909090909092 0.0 0 1 -1.9027082479977704,-4.755921236253875 l 9.049944255735001 -0.8620539816407298 z"/><path fill="#f9f2ff" d="M 100.0,100.0 l -9.049944255735001 0.8620539816407298 a 9.090909090909092 9.090909090909092 0.0 0 1 0.9705851093475761,-5.029617284442434 l 8.079359146387425 4.167563302801704 z"/><path fill="#3f61ff" d="M 100.0,100.0 l -8.079359146387425 -4.167563302801704 a 9.090909090909092 9.090909090909092 0.0 0 1 3.5357245523017493,-3.706445382398069 l 4.543634594085676 7.874008685199773 z"/><path fill="#2700f9" d="M 100.0,100.0 l -4.543634594085676 -7.874008685199773 a 9.090909090909092 9.090909090909092 0.0 0 1 4.978296432136017,-1.2065032599339522 l -0.4346618380503409 9.080511945133726 z"/><path fill="#2700f9" d="M 92.05891782007771,104.42536347782803 l -7.941082179922291 4.425363477828031 a 18.181818181818183 18.181818181818183 0.0 0 1 -2.263826773262333,-9.991567958556768 l 9.072995566553459 0.5704205014503527 a 9.090909090909092 9.090909090909092 0.0 0 0 1.1319133866311661,4.995783979278383 z"/><path fill="#5b3bff" d="M 90.92700443344654,99.42957949854964 l -9.072995566553457 -0.5704205014503497 a 18.181818181818183 18.181818181818183 0.0 0 1 3.4973971980525302,-9.629359000933128 l 7.324296967527192 5.385100001916914 a 9.090909090909092 9.090909090909092 0.0 0 0 -1.7486985990262651,4.814679500466564 z"/><path fill="#094199" d="M 92.67570303247281,94.61489999808309 l -7.324296967527193 -5.385100001916912 a 18.181818181818183 18.181818181818183 0.0 0 1 8.148222270413466,-6.209896598312692 l 3.2501858323204598 8.490048301073259 a 9.090909090909092 9.090909090909092 0.0 0 0 -4.074111135206733,3.104948299156346 z"/><path fill="#082547" d="M 96.74981416767955,91.50995169892674 l -3.2501858323204615 -8.490048301073259 a 18.181818181818183 18.181818181818183 0.0 0 1 10.212044344505546,-0.8188359027606467 l -1.8558363399323117 8.899466252453582 a 9.090909090909092 9.090909090909092 0.0 0 0 -5.106022172252773,0.40941795138032333 z"/><path fill="#8ca1ff" d="M 101.85583633993231,91.10053374754642 l 1.855836339932309 -8.899466252453582 a 18.181818181818183 18.181818181818183 0.0 0 1 9.03361449407451,4.832199406299903 l -6.372643586969565 6.48336654930363 a 9.090909090909092 9.090909090909092 0.0 0 0 -4.516807247037255,-2.4160997031499516 z"/><path fill="#4519f9" d="M 106.37264358696956,93.51663345069638 l 6.372643586969562 -6.483366549303632 a 18.181818181818183 18.181818181818183 0.0 0 1 4.987075870244689,8.949045546549684 l -8.866181522091907 2.0088437760287903 a 9.090909090909092 9.090909090909092 0.0 0 0 -2.493537935122345,-4.474522773274842 z"/><path fill="#021756" d="M 108.8661815220919,97.99115622397122 l 8.866181522091907 -2.0088437760287925 a 18.181818181818183 18.181818181818183 0.0 0 1 -0.6428241053935224,10.22463295670428 l -8.544769469395145 -3.103472702323348 a 9.090909090909092 9.090909090909092 0.0 0 0 0.3214120526967612,-5.11231647835214 z"/><path fill="#ffffff" d="M 108.54476946939515,103.10347270232334 l 8.544769469395149 3.1034727023233377 a 18.181818181818183 18.181818181818183 0.0 0 1 -6.0686319695473685,8.253971646909456 l -5.510453484621465 -7.230458525778065 a 9.090909090909092 9.090909090909092 0.0 0 0 3.0343159847736842,-4.126985823454728 z"/><path fill="#f9f2ff" d="M 105.51045348462146,107.23045852577808 l 5.510453484621467 7.230458525778064 a 18.181818181818183 18.181818181818183 0.0 0 1 -9.567692062274423,3.662732658997723 l -0.726607453484255 -9.061824855276924 a 9.090909090909092 9.090909090909092 0.0 0 0 4.7838460311372115,-1.831366329498862 z"/><path fill="#3f61ff" d="M 100.72660745348425,109.06182485527692 l 0.7266074534842573 9.061824855276926 a 18.181818181818183 18.181818181818183 0.0 0 1 -10.02907752731104,-2.091398068513481 l 4.287931310171263 -8.016125821020186 a 9.090909090909092 9.090909090909092 0.0 0 0 5.014538763655519,1.0456990342567405 z"/><path fill="#2700f9" d="M 95.71206868982874,108.01612582102018 l -4.287931310171261 8.016125821020186 a 18.181818181818183 18.181818181818183 0.0 0 1 -7.3063017395020635,-7.181524686384314 l 7.941082179922293 -4.425363477828029 a 9.090909090909092 9.090909090909092 0.0 0 0 3.6531508697510313,3.590762343192157 z"/><path fill="#2700f9" d="M 114.67861023590073,89.27074494947554 l 7.339305117950361 -5.364627525262226 a 27.27272727272727 27.27272727272727 0.0 0 1 5.205743554961759,14.458630757510168 l -9.07455296960428 0.5450839394255063 a 18.181818181818183 18.181818181818183 0.0 0 0 -3.47049570330784,-9.639087171673449 z"/><path fill="#5b3bff" d="M 118.14910593920857,98.90983212114901 l 9.07455296960428 -0.5450839394255055 a 27.27272727272727 27.27272727272727 0.0 0 1 -3.437575795404225,14.977811655675744 l -7.928694371136206 -4.4475199457997405 a 18.181818181818183 18.181818181818183 0.0 0 0 2.291717196936151,-9.985207770450497 z"/><path fill="#094199" d="M 115.85738874227242,108.89503989159948 l 7.928694371136206 4.447519945799738 a 27.27272727272727 27.27272727272727 0.0 0 1 -10.989489119479256,10.741643181324331 l -4.26553133130979 -8.028067672907845 a 18.181818181818183 18.181818181818183 0.0 0 0 7.326326079652839,-7.161095454216223 z"/><path fill="#082547" d="M 108.53106266261959,116.0561353458157 l 4.265531331309791 8.028067672907847 a 27.27272727272727 27.27272727272727 0.0 0 1 -15.052317296139282,3.095078893726404 l 0.751907767403301 -9.059760637483315 a 18.181818181818183 18.181818181818183 0.0 0 0 10.03487819742619,-2.063385929150936 z"/><path fill="#8ca1ff" d="M 98.4961844651934,118.11952127496664 l -0.7519077674032982 9.059760637483313 a 27.27272727272727 27.27272727272727 0.0 0 1 -14.336141085866878,-5.5341510738472 l 5.530621462692256 -7.21504361286758 a 18.181818181818183 18.181818181818183 0.0 0 0 9.557427390577919,3.6894340492314672 z"/><path fill="#4519f9" d="M 88.93875707461548,114.43008722573516 l -5.5306214626922525 7.215043612867581 a 27.27272727272727 27.27272727272727 0.0 0 1 -9.06834137516423,-12.40632717791728 l 8.553401921080326 -3.07960122022849 a 18.181818181818183 18.181818181818183 0.0 0 0 6.045560916776157,8.270884785278188 z"/><path fill="#021756" d="M 82.89319615783933,106.15920244045698 l -8.55340192108033 3.0796012202284926 a 27.27272727272727 27.27272727272727 0.0 0 1 -0.9214073516852785,-15.339582061917664 l 8.860537704975421 2.0335928004107267 a 18.181818181818183 18.181818181818183 0.0 0 0 0.6142715677901869,10.226388041278444 z"/><path fill="#ffffff" d="M 82.27892459004914,95.93281439917854 l -8.860537704975423 -2.0335928004107267 a 27.27272727272727 27.27272727272727 0.0 0 1 7.518066995600494,-13.40262802556672 l 6.354515373108594 6.501135475599632 a 18.181818181818183 18.181818181818183 0.0 0 0 -5.012044663733665,8.935085350377815 z"/><path fill="#f9f2ff" d="M 87.29096925378282,86.99772904880072 l -6.354515373108592 -6.501135475599631 a 27.27272727272727 27.27272727272727 0.0 0 1 13.570608191906107,-7.2104342895428095 l 1.8309793091398907 8.904613572113899 a 18.181818181818183 18.181818181818183 0.0 0 0 -9.047072127937405,4.806956193028542 z"/><path fill="#3f61ff" d="M 96.33804138172022,82.1907728557722 l -1.8309793091398918 -8.9046135721139 a 27.27272727272727 27.27272727272727 0.0 0 1 15.314577172617089,1.2710213869167628 l -3.2738797483991355 8.48093977647498 a 18.181818181818183 18.181818181818183 0.0 0 0 -10.209718115078061,-0.8473475912778419 z"/><path fill="#2700f9" d="M 106.54775949679826,83.03812044705003 l 3.2738797483991355 -8.48093977647498 a 27.27272727272727 27.27272727272727 0.0 0 1 12.19627610865368,9.348936753638263 l -7.33930511795036 5.364627525262227 a 18.181818181818183 18.181818181818183 0.0 0 0 -8.130850739102456,-6.2326245024255105 z"/><path fill="#2700f9" d="M 125.98974237294092,91.73350471598022 l 8.663247457646978 -2.755498428006595 a 36.36363636363637 36.36363636363637 0.0 0 1 0.45789997801756144,20.48452331223067 l -8.77772245215137 -2.3656324000510764 a 27.27272727272727 27.27272727272727 0.0 0 0 -0.3434249835131702,-15.363392484172998 z"/><path fill="#5b3bff" d="M 126.33316735645408,107.09689720015322 l 8.77772245215137 2.3656324000510733 a 36.36363636363637 36.36363636363637 0.0 0 1 -10.68955945452203,17.480237023205056 l -6.105332588520859 -6.735691655852342 a 27.27272727272727 27.27272727272727 0.0 0 0 8.01716959089152,-13.110177767403787 z"/><path fill="#094199" d="M 118.31599776556257,120.207074967557 l 6.105332588520861 6.735691655852339 a 36.36363636363637 36.36363636363637 0.0 0 1 -18.443159289068795,8.926098988764664 l -1.4945427662536588 -8.967216403043505 a 27.27272727272727 27.27272727272727 0.0 0 0 13.832369466801591,-6.694574241573498 z"/><path fill="#082547" d="M 104.48362829876098,126.9016492091305 l 1.4945427662536617 8.967216403043507 a 36.36363636363637 36.36363636363637 0.0 0 1 -20.34118636247265,-2.46201240580684 l 3.590753824364503 -8.351713301591797 a 27.27272727272727 27.27272727272727 0.0 0 0 15.255889771854486,1.8465093043551306 z"/><path fill="#8ca1ff" d="M 89.22773852690649,125.05513990477537 l -3.5907538243645023 8.351713301591797 a 36.36363636363637 36.36363636363637 0.0 0 1 -15.781030489746374,-13.068452257283113 l 7.5360114468010995 -5.084600237271019 a 27.27272727272727 27.27272727272727 0.0 0 0 11.835772867309776,9.801339192962335 z"/><path fill="#4519f9" d="M 77.39196565959672,115.25380071181304 l -7.536011446801097 5.084600237271019 a 36.36363636363637 36.36363636363637 0.0 0 1 -6.2105089399586975,-19.525750854343176 l 9.088638681790773 -0.20316252368522214 a 27.27272727272727 27.27272727272727 0.0 0 0 4.6578817049690215,14.64431314075738 z"/><path fill="#021756" d="M 72.7340839546277,100.60948757105567 l -9.088638681790773 0.20316252368522433 a 36.36363636363637 36.36363636363637 0.0 0 1 5.331805316906564,-19.783761517512282 l 7.755687352564131 4.742777855692852 a 27.27272727272727 27.27272727272727 0.0 0 0 -3.9988539876799223,14.837821138134204 z"/><path fill="#ffffff" d="M 76.73293794230761,85.77166643292148 l -7.755687352564135 -4.742777855692841 a 36.36363636363637 36.36363636363637 0.0 0 1 15.18130905839007,-13.760567684250246 l 3.960360087966615 8.182919776755405 a 27.27272727272727 27.27272727272727 0.0 0 0 -11.385981793792551,10.320425763187682 z"/><path fill="#f9f2ff" d="M 88.11891973610017,75.4512406697338 l -3.9603600879666154 -8.182919776755405 a 36.36363636363637 36.36363636363637 0.0 0 1 20.210854439838823,-3.3684908387640533 l -1.0923535219930933 9.025042486446416 a 27.27272727272727 27.27272727272727 0.0 0 0 -15.158140829879112,2.5263681290730418 z"/><path fill="#3f61ff" d="M 103.27706056597928,72.92487254066077 l 1.0923535219930922 -9.025042486446418 a 36.36363636363637 36.36363636363637 0.0 0 1 18.82359633971226,8.09305804741082 l -5.798252606921162 7.001777974593715 a 27.27272727272727 27.27272727272727 0.0 0 0 -14.117697254784192,-6.069793535558116 z"/><path fill="#2700f9" d="M 117.39475782076347,78.99466607621888 l 5.79825260692116 -7.001777974593712 a 36.36363636363637 36.36363636363637 0.0 0 1 11.459979402903272,16.98511818634846 l -8.663247457646982 2.755498428006595 a 27.27272727272727 27.27272727272727 0.0 0 0 -8.59498455217745,-12.738838639761342 z"/><path fill="#2700f9" d="M 68.04378095765222,117.35263997506624 l -7.989054760586936 4.338159993766559 a 45.45454545454545 45.45454545454545 0.0 0 1 -5.385760730108564,-25.039383347424014 l 9.066206906608649 0.6697166757182416 a 36.36363636363637 36.36363636363637 0.0 0 0 4.308608584086851,20.031506677939213 z"/><path fill="#5b3bff" d="M 63.73517237356537,97.32113329712703 l -9.06620690660865 -0.6697166757182387 a 45.45454545454545 45.45454545454545 0.0 0 1 9.006522440348165,-23.97623178468092 l 7.26490241853902 5.4649630326544205 a 36.36363636363637 36.36363636363637 0.0 0 0 -7.2052179522785345,19.180985427744737 z"/><path fill="#094199" d="M 70.94039032584391,78.1401478693823 l -7.26490241853902 -5.464963032654419 a 45.45454545454545 45.45454545454545 0.0 0 1 20.53929837304092,-15.300796038260005 l 3.157042743930834 8.525122240306416 a 36.36363636363637 36.36363636363637 0.0 0 0 -16.431438698432736,12.240636830608008 z"/><path fill="#082547" d="M 87.37182902427664,65.8995110387743 l -3.157042743930839 -8.525122240306418 a 45.45454545454545 45.45454545454545 0.0 0 1 25.550992196040664,-1.7674656599503091 l -1.9531556952772924 8.87861537229648 a 36.36363636363637 36.36363636363637 0.0 0 0 -20.440793756832534,1.4139725279602473 z"/><path fill="#8ca1ff" d="M 107.81262278110916,64.48553851081407 l 1.9531556952772895 -8.87861537229648 a 45.45454545454545 45.45454545454545 0.0 0 1 22.45042653148139,12.327022577078019 l -6.443241001573568 6.413210856880877 a 36.36363636363637 36.36363636363637 0.0 0 0 -17.96034122518511,-9.861618061662416 z"/><path fill="#4519f9" d="M 125.77296400629426,74.34715657247648 l 6.443241001573563 -6.4132108568808786 a 45.45454545454545 45.45454545454545 0.0 0 1 12.22200907031054,22.50776824446354 l -8.887642815635672 1.9116572079881742 a 36.36363636363637 36.36363636363637 0.0 0 0 -9.77760725624843,-18.006214595570835 z"/><path fill="#021756" d="M 135.5505712625427,92.35337116804732 l 8.887642815635669 -1.9116572079881746 a 45.45454545454545 45.45454545454545 0.0 0 1 -1.8868099140944246,25.54245652652286 l -8.510280832816782 -3.196834097316394 a 36.36363636363637 36.36363636363637 0.0 0 0 1.5094479312755382,-20.43396522121829 z"/><path fill="#ffffff" d="M 134.04112333126716,112.78733638926558 l 8.510280832816782 3.1968340973164 a 45.45454545454545 45.45454545454545 0.0 0 1 -15.396580082336222,20.46759533578486 l -5.43096481634954 -7.290353164473373 a 36.36363636363637 36.36363636363637 0.0 0 0 12.31726406586898,-16.37407626862789 z"/><path fill="#f9f2ff" d="M 121.72385926539819,129.16141265789346 l 5.430964816349541 7.290353164473369 a 45.45454545454545 45.45454545454545 0.0 0 1 -24.018044861472642,8.894417243053201 l -0.627355844055014 -9.069236613084009 a 36.36363636363637 36.36363636363637 0.0 0 0 19.214435889178116,-7.1155337944425625 z"/><path fill="#3f61ff" d="M 102.50942337622008,136.27694645233606 l 0.6273558440550174 9.069236613084009 a 45.45454545454545 45.45454545454545 0.0 0 1 -25.01395010048707,-5.5026754793986825 l 4.375434176042393 -7.968701517204273 a 36.36363636363637 36.36363636363637 0.0 0 0 20.011160080389658,4.402140383518947 z"/><path fill="#2700f9" d="M 82.4982632958304,131.87480606881712 l -4.3754341760423925 7.968701517204273 a 45.45454545454545 45.45454545454545 0.0 0 1 -18.068102922722733,-18.15270761718859 l 7.989054760586939 -4.338159993766556 a 36.36363636363637 36.36363636363637 0.0 0 0 14.454482338178188,14.522166093750872 z"/><path fill="#2700f9" d="M 59.47528624867547,79.41205989292403 l -8.1049427502649 -4.1175880214151945 a 54.54545454545454 54.54545454545454 0.0 0 1 21.076603092320234,-22.36926193366637 l 4.592175568211527 7.84579834369292 a 45.45454545454545 45.45454545454545 0.0 0 0 -17.56383591026686,18.641051611388644 z"/><path fill="#5b3bff" d="M 77.03912215894235,60.771008281535366 l -4.5921755682115295 -7.8457983436929215 a 54.54545454545454 54.54545454545454 0.0 0 1 29.824502869190795,-7.423348703503697 l -0.3785749099869342 9.083023127610204 a 45.45454545454545 45.45454545454545 0.0 0 0 -24.85375239099233,6.186123919586414 z"/><path fill="#094199" d="M 101.89287454993467,54.58488436194896 l 0.3785749099869338 -9.083023127610204 a 54.54545454545454 54.54545454545454 0.0 0 1 29.1033337149606,9.879425289145857 l -5.229130529147032 7.436452246085899 a 45.45454545454545 45.45454545454545 0.0 0 0 -24.2527780958005,-8.232854407621552 z"/><path fill="#082547" d="M 126.14565264573517,62.81773876957051 l 5.229130529147032 -7.436452246085895 a 54.54545454545454 54.54545454545454 0.0 0 1 19.14206174056011,24.045551557175006 l -8.419474152573713 3.4288603198900596 a 45.45454545454545 45.45454545454545 0.0 0 0 -15.951718117133428,-20.03795963097917 z"/><path fill="#8ca1ff" d="M 142.0973707628686,82.85569840054968 l 8.419474152573716 -3.428860319890062 a 54.54545454545454 54.54545454545454 0.0 0 1 3.103320414876979,30.57738510354974 l -8.936694221719883 -1.6673705307015574 a 45.45454545454545 45.45454545454545 0.0 0 0 -2.586100345730813,-25.48115425295812 z"/><path fill="#4519f9" d="M 144.6834711085994,108.33685265350779 l 8.936694221719879 1.6673705307015567 a 54.54545454545454 54.54545454545454 0.0 0 1 -13.920703215515342,27.401114929026484 l -6.6165770191339845 -6.234223018872633 a 45.45454545454545 45.45454545454545 0.0 0 0 11.600586012929448,-22.834262440855408 z"/><path fill="#021756" d="M 133.08288509566995,131.1711150943632 l 6.616577019133991 6.234223018872635 a 54.54545454545454 54.54545454545454 0.0 0 1 -26.525001933970415,15.525184371563805 l -2.195743363472257 -8.821753747466602 a 45.45454545454545 45.45454545454545 0.0 0 0 22.10416827830868,-12.937653642969838 z"/><path fill="#ffffff" d="M 110.97871681736129,144.10876873733304 l 2.195743363472258 8.8217537474666 a 54.54545454545454 54.54545454545454 0.0 0 1 -30.70779995509753,-1.2798825281595878 l 2.922223295710662 -8.608439992773334 a 45.45454545454545 45.45454545454545 0.0 0 0 25.589833295914612,1.0665687734663223 z"/><path fill="#f9f2ff" d="M 85.38888352144667,143.0421999638667 l -2.922223295710662 8.608439992773336 a 54.54545454545454 54.54545454545454 0.0 0 1 -25.14108846142765,-17.678595768410027 l 7.112404705948606 -5.662007364705001 a 45.45454545454545 45.45454545454545 0.0 0 0 20.950907051189706,14.732163140341694 z"/><path fill="#3f61ff" d="M 64.43797647025698,128.31003682352502 l -7.1124047059486015 5.662007364704999 a 54.54545454545454 54.54545454545454 0.0 0 1 -11.592259019697021,-28.464479763179053 l 9.044447875898108 -0.9179274041751562 a 45.45454545454545 45.45454545454545 0.0 0 0 9.660215849747516,23.72039980264921 z"/><path fill="#2700f9" d="M 54.77776062050946,104.5896370208758 l -9.044447875898104 0.9179274041751584 a 54.54545454545454 54.54545454545454 0.0 0 1 5.63703075379922,-30.213092553542133 l 8.104942750264904 4.1175880214151945 a 45.45454545454545 45.45454545454545 0.0 0 0 -4.697525628166019,25.17757712795178 z"/><path fill="#2700f9" d="M 154.542352099713,99.41824489587086 l 9.090392016618837 -0.0969591840215243 a 63.63636363636363 63.63636363636363 0.0 0 1 -9.734532677160546,34.51020229145742 l -7.6997444913101845 -4.833069714758103 a 54.54545454545454 54.54545454545454 0.0 0 0 8.343885151851893,-29.580173392677793 z"/><path fill="#5b3bff" d="M 146.1984669478611,128.99841828854863 l 7.699744491310188 4.833069714758108 a 63.63636363636363 63.63636363636363 0.0 0 1 -26.846833982533454,23.768943892278987 l -3.864482493805408 -8.228633127940817 a 54.54545454545454 54.54545454545454 0.0 0 0 23.011571985028674,-20.373380479096276 z"/><path fill="#094199" d="M 123.18689496283244,149.37179876764492 l 3.864482493805409 8.228633127940821 a 63.63636363636363 63.63636363636363 0.0 0 1 -35.435455189116425,5.481213750634229 l 1.1977253903540799 -9.011663663745715 a 54.54545454545454 54.54545454545454 0.0 0 0 30.373247304956934,-4.698183214829335 z"/><path fill="#082547" d="M 92.81364765787552,154.06998198247425 l -1.197725390354079 9.011663663745711 a 63.63636363636363 63.63636363636363 0.0 0 1 -32.77356974811696,-14.546763028431183 l 5.879663925799363 -6.933554659684113 a 54.54545454545454 54.54545454545454 0.0 0 0 28.09163121267168,12.468654024369584 z"/><path fill="#8ca1ff" d="M 64.72201644520385,141.60132795810466 l -5.879663925799359 6.933554659684113 a 63.63636363636363 63.63636363636363 0.0 0 1 -19.706307479068652,-29.95624532848585 l 8.694850708523454 -2.6540910413289893 a 54.54545454545454 54.54545454545454 0.0 0 0 16.891120696344558,25.676781710130726 z"/><path fill="#4519f9" d="M 47.830895748859305,115.92454624797394 l -8.694850708523452 2.6540910413289924 a 63.63636363636363 63.63636363636363 0.0 0 1 -0.3824318235309949,-35.85483139746121 l 8.749483826170739 2.468027729736896 a 54.54545454545454 54.54545454545454 0.0 0 0 0.3277987058837084,30.732712626395326 z"/><path fill="#021756" d="M 47.5030970429756,85.19183362157861 l -8.749483826170739 -2.4680277297368947 a 63.63636363636363 63.63636363636363 0.0 0 1 19.062863233843608,-30.369761835875522 l 6.026217649907366 6.80656513486197 a 54.54545454545454 54.54545454545454 0.0 0 0 -16.339597057580235,26.03122443075045 z"/><path fill="#ffffff" d="M 63.84269410055579,59.16060919082822 l -6.026217649907371 -6.806565134861965 a 63.63636363636363 63.63636363636363 0.0 0 1 32.45583390622795,-15.242507473882338 l 1.3896699490176623 8.98406620255944 a 54.54545454545454 54.54545454545454 0.0 0 0 -27.819286205338244,13.065006406184864 z"/><path fill="#f9f2ff" d="M 91.66198030589403,46.09560278464336 l -1.3896699490176627 -8.984066202559443 a 63.63636363636363 63.63636363636363 0.0 0 1 35.544306635349166,4.7241353126569585 l -3.6880881417465083 8.309189729322739 a 54.54545454545454 54.54545454545454 0.0 0 0 -30.46654854458499,-4.049258839420254 z"/><path fill="#3f61ff" d="M 122.12852885047903,50.144861624063616 l 3.6880881417465043 -8.309189729322734 a 63.63636363636363 63.63636363636363 0.0 0 1 27.347713151816567,23.19089851657278 l -7.594904306291731 4.996204226955193 a 54.54545454545454 54.54545454545454 0.0 0 0 -23.44089698727134,-19.87791301420524 z"/><path fill="#2700f9" d="M 145.56942583775037,70.02277463826886 l 7.594904306291729 -4.996204226955192 a 63.63636363636363 63.63636363636363 0.0 0 1 10.468413972289747,34.294715300535664 l -9.090392016618836 0.0969591840215216 a 54.54545454545454 54.54545454545454 0.0 0 0 -8.972926261962641,-29.395470257601996 z"/><path fill="#2700f9" d="M 39.282465249884154,119.05171254055594 l -8.673933535730846 2.721673220079425 a 72.72727272727273 72.72727272727273 0.0 0 1 -0.7559306343706851,-40.97230820630908 l 8.768424865027185 2.39986530570922 a 63.63636363636363 63.63636363636363 0.0 0 0 0.6614393050743459,35.850769680520436 z"/><path fill="#5b3bff" d="M 38.621025944809816,83.20094286003551 l -8.768424865027182 -2.3998653057092145 a 72.72727272727273 72.72727272727273 0.0 0 1 21.51537288496198,-34.87678598291139 l 6.079003254406928 6.759463553573141 a 63.63636363636363 63.63636363636363 0.0 0 0 -18.825951274341726,30.517187735047465 z"/><path fill="#094199" d="M 57.44697721915153,52.68375512498807 l -6.079003254406931 -6.759463553573143 a 72.72727272727273 72.72727272727273 0.0 0 1 36.95569753367961,-17.708130637533387 l 1.459541062696971 8.972979883264813 a 63.63636363636363 63.63636363636363 0.0 0 0 -32.336235341969655,15.494614307841715 z"/><path fill="#082547" d="M 89.7832125611212,37.18914081714634 l -1.4595410626969751 -8.972979883264818 a 72.72727272727273 72.72727272727273 0.0 0 1 40.66284933193508,5.08273106558932 l -3.6233151037949156 8.337638500066149 a 63.63636363636363 63.63636363636363 0.0 0 0 -35.579993165443184,-4.44738968239065 z"/><path fill="#8ca1ff" d="M 125.36320572656435,41.63653049953697 l 3.6233151037949143 -8.337638500066154 a 72.72727272727273 72.72727272727273 0.0 0 1 31.459833777265295,26.25986156824903 l -7.555794325953077 5.055155804035024 a 63.63636363636363 63.63636363636363 0.0 0 0 -27.527354555107134,-22.977378872217898 z"/><path fill="#4519f9" d="M 152.89056028167153,64.61390937175489 l 7.55579432595308 -5.055155804035022 a 72.72727272727273 72.72727272727273 0.0 0 1 12.268543282877133,39.099671566305126 l -9.089362236312716 0.1676968582468774 a 63.63636363636363 63.63636363636363 0.0 0 0 -10.734975372517496,-34.21221262051698 z"/><path fill="#021756" d="M 163.625535654189,98.82612199227188 l 9.089362236312724 -0.1676968582468766 a 72.72727272727273 72.72727272727273 0.0 0 1 -10.817923018439963,39.52561210713723 l -7.737121859007722 -4.773004655145286 a 63.63636363636363 63.63636363636363 0.0 0 0 9.465682641134961,-34.584910593745064 z"/><path fill="#ffffff" d="M 154.15985301305406,133.41103258601692 l 7.737121859007729 4.7730046551452805 a 72.72727272727273 72.72727272727273 0.0 0 1 -30.46977519719383,27.40245007858293 l -3.9283999593584937 -8.198310914968154 a 63.63636363636363 63.63636363636363 0.0 0 0 26.661053297544594,-23.977143818760055 z"/><path fill="#f9f2ff" d="M 127.49879971550949,157.38817640477697 l 3.9283999593584964 8.198310914968149 a 72.72727272727273 72.72727272727273 0.0 0 1 -40.44768903998251,6.57920376653883 l 1.127561170639325 -9.020711385785503 a 63.63636363636363 63.63636363636363 0.0 0 0 35.39172790998469,-5.756803295721475 z"/><path fill="#3f61ff" d="M 92.10707180552481,163.14497970049845 l -1.1275611706393218 9.020711385785503 a 72.72727272727273 72.72727272727273 0.0 0 1 -37.583747402290804,-16.332893254948928 l 5.82552959592568 -6.979099728916886 a 63.63636363636363 63.63636363636363 0.0 0 0 32.88577897700445,14.29128159808031 z"/><path fill="#2700f9" d="M 59.221292828520326,148.85369810241815 l -5.825529595925677 6.979099728916886 a 72.72727272727273 72.72727272727273 0.0 0 1 -22.787231518441327,-34.05941207069965 l 8.673933535730846 -2.721673220079424 a 63.63636363636363 63.63636363636363 0.0 0 0 19.938827578636158,29.80198556186219 z"/><path fill="#2700f9" d="M 80.29192438675561,29.993943447943366 l -2.4635094516555482 -8.750757069007081 a 81.81818181818183 81.81818181818183 0.0 0 1 46.09880889687581,0.5155020540431554 l -2.6585804257750993 8.693479063002286 a 72.72727272727273 72.72727272727273 0.0 0 0 -40.97671901944516,-0.45822404803836037 z"/><path fill="#5b3bff" d="M 121.26864340620071,30.452167495981712 l 2.658580425775098 -8.693479063002286 a 81.81818181818183 81.81818181818183 0.0 0 1 38.50208439190839,25.356565649881887 l -6.936589802653806 5.876082879682073 a 72.72727272727273 72.72727272727273 0.0 0 0 -34.22407501502968,-22.539169466561674 z"/><path fill="#094199" d="M 155.49271842123045,52.99133696254341 l 6.936589802653809 -5.876082879682076 a 81.81818181818183 81.81818181818183 0.0 0 1 18.681220135238494,42.147098812814605 l -9.012280928791412 1.1930719004804473 a 72.72727272727273 72.72727272727273 0.0 0 0 -16.60552900910089,-37.46408783361298 z"/><path fill="#082547" d="M 172.09824743033136,90.4554247961564 l 9.012280928791421 -1.1930719004804524 a 81.81818181818183 81.81818181818183 0.0 0 1 -7.070799519175532,45.556225899848506 l -8.226636537771924 -3.8687309772804923 a 72.72727272727273 72.72727272727273 0.0 0 0 6.285155128156035,-40.49442302208756 z"/><path fill="#8ca1ff" d="M 165.8130923021753,130.94984781824394 l 8.226636537771919 3.8687309772804914 a 81.81818181818183 81.81818181818183 0.0 0 1 -30.577890286133446,34.50157314859125 l -4.829093172645983 -7.702239104901736 a 72.72727272727273 72.72727272727273 0.0 0 0 27.180346921007512,-30.668065020970005 z"/><path fill="#4519f9" d="M 138.63274538116775,161.61791283921394 l 4.829093172645981 7.70223910490174 a 81.81818181818183 81.81818181818183 0.0 0 1 -44.376716940292425,12.49291469912303 l 0.10165315405317443 -9.090340738137627 a 72.72727272727273 72.72727272727273 0.0 0 0 39.44597061359327,-11.104813065887143 z"/><path fill="#021756" d="M 99.1867747675745,172.72272590510104 l -0.10165315405317565 9.090340738137634 a 81.81818181818183 81.81818181818183 0.0 0 1 -44.08624951680732,-13.482155896599558 l 5.000125322587323 -7.59232341629324 a 72.72727272727273 72.72727272727273 0.0 0 0 39.18777734827317,11.984138574755164 z"/><path fill="#ffffff" d="M 59.99899741930142,160.7385873303459 l -5.000125322587323 7.5923234162932385 a 81.81818181818183 81.81818181818183 0.0 0 1 -29.79870937028965,-35.1767372555132 l 8.311093030397288 -3.683797054569549 a 72.72727272727273 72.72727272727273 0.0 0 0 26.487741662479685,31.26821089378951 z"/><path fill="#f9f2ff" d="M 33.511255756821726,129.4703764365564 l -8.311093030397284 3.6837970545695486 a 81.81818181818183 81.81818181818183 0.0 0 1 -6.050289546324382,-45.70295308274984 l 8.983347424433319 1.3943088435137696 a 72.72727272727273 72.72727272727273 0.0 0 0 5.378035152288348,40.62484718466653 z"/><path fill="#3f61ff" d="M 28.133220604533392,88.84552925188981 l -8.983347424433328 -1.3943088435137685 a 81.81818181818183 81.81818181818183 0.0 0 1 19.619054459295718,-41.71880422784892 l 6.803452484511581 6.029731535496978 a 72.72727272727273 72.72727272727273 0.0 0 0 -17.439159519373973,37.08338153586571 z"/><path fill="#2700f9" d="M 45.57238012390736,51.762147716024145 l -6.803452484511581 -6.029731535496983 a 81.81818181818183 81.81818181818183 0.0 0 1 39.05948729570429,-24.489229801590877 l 2.463509451655547 8.75075706900708 a 72.72727272727273 72.72727272727273 0.0 0 0 -34.71954426284825,21.76820426808078 z"/><path fill="#2700f9" d="M 41.75237317104172,42.54193838261268 l -6.471958536550912 -6.384229068598582 a 90.9090909090909 90.9090909090909 0.0 0 1 44.78975375811473,-24.85531143503118 l 1.992983160739442 8.869760212101696 a 81.81818181818183 81.81818181818183 0.0 0 0 -40.310778382303255,22.369780291528066 z"/><path fill="#5b3bff" d="M 82.06315155334497,20.17215809108461 l -1.992983160739446 -8.869760212101697 a 90.9090909090909 90.9090909090909 0.0 0 1 51.11733447600133,3.305550531082817 l -3.1187502868606813 8.539205158993425 a 81.81818181818183 81.81818181818183 0.0 0 0 -46.0056010284012,-2.974995477974545 z"/><path fill="#094199" d="M 128.06875258174617,23.147153569059157 l 3.1187502868606805 -8.539205158993417 a 90.9090909090909 90.9090909090909 0.0 0 1 41.21552267558386,30.41692355948196 l -7.240302554419074 5.497512803045225 a 81.81818181818183 81.81818181818183 0.0 0 0 -37.09397040802547,-27.375231203533765 z"/><path fill="#082547" d="M 165.16272298977165,50.52238477259293 l 7.240302554419062 -5.497512803045224 a 90.9090909090909 90.9090909090909 0.0 0 1 18.228073640635856,47.871138273457554 l -9.063109918482638 0.7103989756994764 a 81.81818181818183 81.81818181818183 0.0 0 0 -16.405266276572277,-43.084024446111805 z"/><path fill="#8ca1ff" d="M 181.56798926634391,93.60640921870473 l 9.063109918482645 -0.7103989756994741 a 90.9090909090909 90.9090909090909 0.0 0 1 -10.54665998180024,50.12660482691043 l -8.008443920302625 -4.302261506991563 a 81.81818181818183 81.81818181818183 0.0 0 0 9.491993983620219,-45.11394434421939 z"/><path fill="#4519f9" d="M 172.07599528272374,138.72035356292406 l 8.008443920302623 4.30226150699156 a 90.9090909090909 90.9090909090909 0.0 0 1 -35.97290357915319,36.46722852548416 l -4.411153562387312 -7.948984359539978 a 81.81818181818183 81.81818181818183 0.0 0 0 32.37561322123788,-32.820505672935745 z"/><path fill="#021756" d="M 139.7003820614859,171.5408592358598 l 4.411153562387311 7.9489843595399705 a 90.9090909090909 90.9090909090909 0.0 0 1 -49.97800446251607,11.229764832340798 l 0.5866468838642902 -9.071960842774047 a 81.81818181818183 81.81818181818183 0.0 0 0 44.980204016264466,-10.106788349106722 z"/><path fill="#ffffff" d="M 94.72017804522147,181.6476475849666 l -0.5866468838642859 9.07196084277405 a 90.9090909090909 90.9090909090909 0.0 0 1 -48.11544205673483,-17.573069849344055 l 5.398191089537761 -7.3146538578396445 a 81.81818181818183 81.81818181818183 0.0 0 0 43.30389785106135,15.815762864409649 z"/><path fill="#f9f2ff" d="M 51.41628019416007,165.83188472055693 l -5.398191089537763 7.314653857839648 a 90.9090909090909 90.9090909090909 0.0 0 1 -30.976566765408535,-40.79657901924038 l 8.495847766078612 -3.2349959559156147 a 81.81818181818183 81.81818181818183 0.0 0 0 27.878910088867684,36.716921117316346 z"/><path fill="#3f61ff" d="M 23.537370105292382,129.1149636032406 l -8.495847766078613 3.234995955915616 a 90.9090909090909 90.9090909090909 0.0 0 1 -4.002850396026913,-51.06746260538077 l 8.896132805681304 1.8717503046224522 a 81.81818181818183 81.81818181818183 0.0 0 0 3.602565356424222,45.9607163448427 z"/><path fill="#2700f9" d="M 19.934804748868174,83.15424725839787 l -8.896132805681303 -1.871750304622455 a 90.9090909090909 90.9090909090909 0.0 0 1 24.24174269130394,-45.12478763976133 l 6.471958536550908 6.384229068598579 a 81.81818181818183 81.81818181818183 0.0 0 0 -21.817568422173544,40.6123088757852 z"/><path fill="#2700f9" d="M 49.021306168021106,175.27041640048708 l -5.0978693831978905 7.527041640048709 a 100.0 100.0 0.0 0 1 -35.86172909690255,-43.46108293124722 l 8.358026573825398 -3.576034100844417 a 90.9090909090909 90.9090909090909 0.0 0 0 32.60157190627504,39.51007539204293 z"/><path fill="#5b3bff" d="M 16.419734261746072,135.76034100844413 l -8.358026573825395 3.5760341008444168 a 100.0 100.0 0.0 0 1 -6.6719708927490196,-55.950104090901256 l 8.964569382257125 1.5103389983284288 a 90.9090909090909 90.9090909090909 0.0 0 0 6.06542808431729,50.86373099172841 z"/><path fill="#094199" d="M 10.354306177428782,84.89661001671574 l -8.964569382257125 -1.5103389983284237 a 100.0 100.0 0.0 0 1 24.636090927958676,-50.6753625262388 l 6.724924752442703 6.117190137077408 a 90.9090909090909 90.9090909090909 0.0 0 0 -22.396446298144255,46.068511387489814 z"/><path fill="#082547" d="M 32.75075247557304,38.82809862922595 l -6.724924752442701 -6.117190137077405 a 100.0 100.0 0.0 0 1 48.122367949339946,-29.31155141449724 l 2.350164029775428 8.781876629304435 a 90.9090909090909 90.9090909090909 0.0 0 0 -43.74760722667267,26.64686492227021 z"/><path fill="#8ca1ff" d="M 76.4983597022457,12.181233706955737 l -2.3501640297754345 -8.781876629304428 a 100.0 100.0 0.0 0 1 56.3301331632098,1.358470165821565 l -2.770757166880003 8.658379341502467 a 90.9090909090909 90.9090909090909 0.0 0 0 -51.20921196655436,-1.2349728780196045 z"/><path fill="#4519f9" d="M 127.70757166880003,13.416206584975356 l 2.7707571668800015 -8.658379341502467 a 100.0 100.0 0.0 0 1 46.653479107462324,31.59718706698355 l -7.011982540285672 5.785907789958507 a 90.9090909090909 90.9090909090909 0.0 0 0 -42.412253734056655,-28.72471551543959 z"/><path fill="#021756" d="M 170.1198254028567,42.14092210041494 l 7.0119825402856675 -5.785907789958511 a 100.0 100.0 0.0 0 1 22.164675072826984,51.80402032943387 l -9.026953001451758 1.0764513963736135 a 90.9090909090909 90.9090909090909 0.0 0 0 -20.149704611660894,-47.09456393584897 z"/><path fill="#ffffff" d="M 190.26953001451756,89.2354860362639 l 9.026953001451758 -1.0764513963736129 a 100.0 100.0 0.0 0 1 -9.361256689320598,55.563443167005275 l -8.175929666058963 -3.974770709717774 a 90.9090909090909 90.9090909090909 0.0 0 0 8.510233353927802,-50.51222106091389 z"/><path fill="#f9f2ff" d="M 181.75929666058974,139.74770709717774 l 8.175929666058977 3.9747707097177756 a 100.0 100.0 0.0 0 1 -37.91505559608784,41.68186539158179 l -4.72910643005099 -7.764031199861577 a 90.9090909090909 90.9090909090909 0.0 0 0 34.46823236007985,-37.892604901437984 z"/><path fill="#3f61ff" d="M 147.2910643005099,177.64031199861574 l 4.729106430050992 7.7640311998615745 a 100.0 100.0 0.0 0 1 -54.4310922460785,14.56658986431859 l 0.21917468322887146 -9.088266642072355 a 90.9090909090909 90.9090909090909 0.0 0 0 49.48281113279864,-13.242354422107809 z"/><path fill="#2700f9" d="M 97.80825316771129,190.88266642072352 l -0.2191746832288706 9.088266642072355 a 100.0 100.0 0.0 0 1 -53.66564169965922,-17.17347502226012 l 5.097869383197889 -7.527041640048708 a 90.9090909090909 90.9090909090909 0.0 0 0 48.7869469996902,15.612250020236473 z"/></g></svg>