<?xml version='1.0' encoding='UTF-8'?>
<svg xmlns="http://www.w3.org/2000/svg" xmlns:svg="http://www.w3.org/2000/svg"><g><path fill="#d3bb5f" d="M 100.0,100.0 l 40.74606070340546 -80.24810612814733 a 90.0 90.0 0.0 0 1 36.91710850867325,34.76808691161632 l -77.66316921207871 45.480019216531005 z"/><path fill="#ddc383" d="M 100.0,100.0 l 77.66316921207871 -45.480019216531005 a 90.0 90.0 0.0 0 1 12.259601025569921,49.20767166640492 l -89.92277023764863 -3.727652449873913 z"/><path fill="#ecd29b" d="M 100.0,100.0 l 89.92277023764865 3.7276524498738914 a 90.0 90.0 0.0 0 1 -16.29024316095031,48.02416835190356 l -73.63252707669834 -51.751820801777455 z"/><path fill="#d8d29b" d="M 100.0,100.0 l 73.63252707669835 51.75182080177744 a 90.0 90.0 0.0 0 1 -39.66805024522695,31.59333090823172 l -33.9644768314714 -83.34515171000916 z"/><path fill="#bc9023" d="M 100.0,100.0 l 33.96447683147142 83.34515171000915 a 90.0 90.0 0.0 0 1 -50.45153165769342,5.131834129005227 l 16.487054826222 -88.47698583901438 z"/><path fill="#c8b435" d="M 100.0,100.0 l -16.48705482622198 88.47698583901438 a 90.0 90.0 0.0 0 1 -45.21700824233069,-22.958983726373035 l 61.70406306855267 -65.51800211264134 z"/><path fill="#d8b432" d="M 100.0,100.0 l -61.70406306855266 65.51800211264134 a 90.0 90.0 0.0 0 1 -25.62640419814126,-43.76048646905507 l 87.33046726669392 -21.757515643586277 z"/><path fill="#e2cc72" d="M 100.0,100.0 l -87.33046726669392 21.7575156435863 a 90.0 90.0 0.0 0 1 2.1004021114383846,-50.66834395463433 l 85.23006515525553 28.910828311048032 z"/><path fill="#d3bb5f" d="M 100.0,100.0 l -85.23006515525555 -28.910828311048014 a 90.0 90.0 0.0 0 1 29.16034559136849,-41.489360240028056 l 56.069719563887055 70.40018855107607 z"/><path fill="#ddc383" d="M 100.0,100.0 l -56.06971956388707 -70.40018855107604 a 90.0 90.0 0.0 0 1 46.962085383195586,-19.137797799023986 l 9.107634180691488 89.53798635010003 z"/><path fill="#ecd29b" d="M 100.0,100.0 l -9.107634180691488 -89.53798635010003 a 90.0 90.0 0.0 0 1 49.85369488409695,9.2898802219527 l -40.74606070340546 80.24810612814733 z"/><path fill="#a30018" d="M 11.352148340800923,84.4578509784317 l -9.849761295466564 -1.7269054468409193 a 100.0 100.0 0.0 0 1 34.144398133555654,-59.27285393599414 l 6.435321482111 7.654190840440322 a 90.0 90.0 0.0 0 0 -30.72995832020009,53.34556854239474 z"/><path fill="#960016" d="M 42.08210666100096,31.11228243603705 l -6.435321482111005 -7.654190840440328 a 100.0 100.0 0.0 0 1 64.25598255466926,-23.45804432501736 l 0.009723226644076988 9.999995272942073 a 90.0 90.0 0.0 0 0 -57.83038429920233,21.112239892515618 z"/><path fill="#650602" d="M 99.9124909602033,10.000042543521431 l -0.009723226644079146 -9.999995272942064 a 100.0 100.0 0.0 0 1 64.30147861275319,23.333044932757595 l -6.420424634631239 7.666690779666297 a 90.0 90.0 0.0 0 0 -57.87133075147786,-20.999740439481826 z"/><path fill="#ff2935" d="M 157.7838217116811,30.99978298300323 l 6.420424634631239 -7.666690779666304 a 100.0 100.0 0.0 0 1 34.259598196597494,59.206343148586065 l -9.846384454290984 1.746056464807694 a 90.0 90.0 0.0 0 0 -30.83363837693775,-53.285708833727455 z"/><path fill="#690002" d="M 188.61746008861888,84.28549181673064 l 9.846384454290988 -1.7460564648076984 a 100.0 100.0 0.0 0 1 -11.812728968768187,67.376335399982 l -8.665111557414164 -4.991577075190499 a 90.0 90.0 0.0 0 0 10.631456071891364,-60.638701859983804 z"/><path fill="#e10124" d="M 177.98600401672755,144.9241936767145 l 8.665111557414173 4.9915770751904995 a 100.0 100.0 0.0 0 1 -52.35774896578844,44.02019151316727 l -3.4293366608353324 -9.393596226507228 a 90.0 90.0 0.0 0 0 47.1219740692096,-39.61817236185054 z"/><path fill="#a30018" d="M 130.86402994751788,184.54236603856506 l 3.4293366608353306 9.393596226507226 a 100.0 100.0 0.0 0 1 -68.40399633015312,0.06651078740795136 l 3.411062972179977 -9.40024730524803 a 90.0 90.0 0.0 0 0 61.56359669713781,-0.059859708667147515 z"/><path fill="#960016" d="M 69.30043325038017,184.60222574723218 l -3.4110629721799794 9.40024730524802 a 100.0 100.0 0.0 0 1 -52.44325358590113,-43.91829107496468 l 8.655388330770094 -5.008418197751553 a 90.0 90.0 0.0 0 0 47.198928227311015,39.52646196746821 z"/><path fill="#650602" d="M 22.10150502306918,145.07576377976397 l -8.655388330770093 5.0084181977515545 a 100.0 100.0 0.0 0 1 -11.943729646964686,-67.35323644592494 l 9.84976129546655 1.726905446840945 a 90.0 90.0 0.0 0 0 10.749356682268228,60.61791280133244 z"/><path fill="#a30018" d="M 18.271417177190322,2.791776326407714 l -6.435321482110998 -7.654190840440334 a 23.5 23.5 0.0 1 1 30.24601096592169,35.97469695006957 l -6.4353214821109965 -7.654190840440336 a 13.5 13.5 0.0 1 0 -17.375368001699695,-20.6663152691889 z"/><path fill="#960016" d="M 99.8765150216202,-26.999939966364202 l -0.009723226644079146 -9.999995272942064 a 23.5 23.5 0.0 1 1 0.04569916522716911,46.9999777828277 l -0.009723226644077924 -9.999995272942062 a 13.5 13.5 0.0 1 0 -0.02625271193901204,-26.99998723694357 z"/><path fill="#650602" d="M 181.53939285981673,2.633027098237914 l 6.420424634631232 -7.666690779666309 a 23.5 23.5 0.0 1 1 -30.175995782766794,36.03344666443165 l 6.420424634631235 -7.6666907796663075 a 13.5 13.5 0.0 1 0 17.335146513504327,-20.700065105099036 z"/><path fill="#ff2935" d="M 225.0490825694955,77.82508289694218 l 9.846384454290986 -1.7460564648077073 a 23.5 23.5 0.0 1 1 -46.27800693516764,8.206465384596221 l 9.846384454290991 -1.7460564648077064 a 13.5 13.5 0.0 1 0 26.585238026585664,-4.7143524549808085 z"/><path fill="#690002" d="M 210.04691677915994,163.3930288549193 l 8.66511155741417 4.991577075190502 a 23.5 23.5 0.0 1 1 -40.7260243198466,-23.460412253395358 l 8.665111557414171 4.991577075190502 a 13.5 13.5 0.0 1 0 23.39580120501826,13.477258103014353 z"/><path fill="#e10124" d="M 143.55257559260866,219.2986720766418 l 3.429336660835328 9.393596226507226 a 23.5 23.5 0.0 1 1 -16.117882305926045,-44.149902264583964 l 3.429336660835329 9.393596226507228 a 13.5 13.5 0.0 1 0 9.259208984255388,25.36270981156951 z"/><path fill="#a30018" d="M 56.67950025331413,219.3831407766499 l -3.4110629721799817 9.40024730524802 a 23.5 23.5 0.0 1 1 16.031995969245912,-44.1811623346657 l -3.4110629721799803 9.400247305248023 a 13.5 13.5 0.0 1 0 -9.20987002488595,25.380667724169655 z"/><path fill="#960016" d="M -9.923431800780193,163.60691111144473 l -8.655388330770093 5.008418197751553 a 23.5 23.5 0.0 1 1 40.68032515461944,-23.539565529432302 l -8.655388330770094 5.0084181977515545 a 13.5 13.5 0.0 1 0 -23.36954849307925,13.522729133929195 z"/><path fill="#650602" d="M -25.09196845242532,78.06830082512006 l -9.84976129546656 -1.7269054468409393 a 23.5 23.5 0.0 1 1 46.293878088692836,8.116455600152417 l -9.849761295466557 -1.7269054468409406 a 13.5 13.5 0.0 1 0 -26.594355497759715,-4.662644706470537 z"/><path fill="#dbb85d" d="M 5.400774212968326,-12.516605354472954 l 2.149133615543684 17.87124015569541 a 18.0 18.0 0.0 0 1 -10.003089255661791,-1.675086883913341 l 7.853955640118107 -16.19615327178207 z"/><path fill="#d6a445" d="M 5.400774212968326,-12.516605354472954 l -7.8539556401181025 16.19615327178207 a 18.0 18.0 0.0 0 1 -7.50951383332304,-6.817251111153562 l 15.363469473441143 -9.378902160628508 z"/><path fill="#ae882b" d="M 5.400774212968326,-12.516605354472954 l -15.36346947344114 9.378902160628513 a 18.0 18.0 0.0 0 1 -2.6317208285934957,-9.794986278997115 l 17.995190302034636 0.4160841183686018 z"/><path fill="#c6b418" d="M 5.400774212968326,-12.516605354472954 l -17.995190302034636 -0.4160841183685974 a 18.0 18.0 0.0 0 1 3.0816249443636785,-9.662882511324979 l 14.913565357670958 10.078966629693577 z"/><path fill="#e7dd7e" d="M 5.400774212968326,-12.516605354472954 l -14.913565357670954 -10.078966629693582 a 18.0 18.0 0.0 0 1 7.816576571206761,-6.462881820972427 l 7.096988786464193 16.54184845066601 z"/><path fill="#beab24" d="M 5.400774212968326,-12.516605354472954 l -7.096988786464193 -16.54184845066601 a 18.0 18.0 0.0 0 1 10.06982036598259,-1.2109618170019871 l -2.972831579518396 17.752810267667996 z"/><path fill="#d6b022" d="M 5.400774212968326,-12.516605354472954 l 2.972831579518396 -17.752810267667996 a 18.0 18.0 0.0 0 1 9.125967344509725,4.425430007619287 l -12.098798924028122 13.32738026004871 z"/><path fill="#cfcd52" d="M 5.400774212968326,-12.516605354472954 l 12.098798924028122 -13.32738026004871 a 18.0 18.0 0.0 0 1 5.284684172158956,8.656779073415649 l -17.383483096187078 4.670601186633061 z"/><path fill="#dbb85d" d="M 5.400774212968326,-12.516605354472954 l 17.383483096187078 -4.670601186633061 a 18.0 18.0 0.0 0 1 -0.23444888505819605,10.139661949280633 l -17.149034211128882 -5.4690607626475725 z"/><path fill="#d6a445" d="M 5.400774212968326,-12.516605354472954 l 17.149034211128882 5.469060762647569 a 18.0 18.0 0.0 0 1 -5.6791460778060365,8.403273799676818 l -11.469888133322845 -13.872334562324387 z"/><path fill="#ae882b" d="M 5.400774212968326,-12.516605354472954 l 11.469888133322849 13.872334562324385 a 18.0 18.0 0.0 0 1 -9.320754517779154,3.998905593371026 l -2.1491336155436955 -17.87124015569541 z"/><path fill="#240001" d="M -2.854133839759619,3.4789094243957557 l -0.9172120058586604 1.7772794198743012 a 20.0 20.0 0.0 0 1 -9.278263444374588,-10.053769092315548 l 1.845038350296118 -0.7719025106427466 a 18.0 18.0 0.0 0 0 8.35043709993713,9.048392183083994 z"/><path fill="#9a0c23" d="M -11.204570939696755,-5.569482758688252 l -1.8450383502961198 0.7719025106427445 a 20.0 20.0 0.0 0 1 -0.6451239501671768,-13.665586727021195 l 1.9095507453128384 0.5946561620593727 a 18.0 18.0 0.0 0 0 0.5806115551504583,12.299028054319077 z"/><path fill="#da080c" d="M -11.785182494847213,-17.868510813007333 l -1.9095507453128377 -0.594656162059375 a 20.0 20.0 0.0 0 1 8.289876210077525,-10.883124456074563 l 1.080563124305085 1.6829686076668313 a 18.0 18.0 0.0 0 0 -7.460888589069771,9.794812010467107 z"/><path fill="#870f00" d="M -4.32429390577744,-27.663322823474438 l -1.0805631243050853 -1.6829686076668313 a 20.0 20.0 0.0 0 1 13.345951159915408,-3.008327299675127 l -0.25403199168645507 1.9838013376343433 a 18.0 18.0 0.0 0 0 -12.011356043923868,2.707494569707615 z"/><path fill="#dc002a" d="M 7.687062138146429,-30.37081739318205 l 0.2540319916864556 -1.983801337634344 a 20.0 20.0 0.0 0 1 12.157307238303384,6.274099634076056 l -1.4697627155167936 1.3563913742267388 a 18.0 18.0 0.0 0 0 -10.941576514473045,-5.646689670668451 z"/><path fill="#d50720" d="M 18.628638652619472,-24.7241277225136 l 1.469762715516794 -1.3563913742267384 a 20.0 20.0 0.0 0 1 5.2801241464695075,12.620805620192705 l -1.9977751301637454 0.09431081220746762 a 18.0 18.0 0.0 0 0 -4.752111731822556,-11.358725058173434 z"/><path fill="#240001" d="M 23.38075038444203,-13.365402664340165 l 1.9977751301637448 -0.09431081220746806 a 20.0 20.0 0.0 0 1 -4.067687715540807,13.062096391990686 l -1.591006358609663 -1.2118988269916002 a 18.0 18.0 0.0 0 0 3.660918943986726,-11.755886752791618 z"/><path fill="#9a0c23" d="M 19.719831440455295,-1.609515911548538 l 1.591006358609664 1.2118988269916002 a 20.0 20.0 0.0 0 1 -11.512183288136214,7.3914870929451375 l -0.43978802979604303 -1.951047536286115 a 18.0 18.0 0.0 0 0 10.360964959322592,-6.652338383650623 z"/><path fill="#da080c" d="M 9.358866481132697,5.042822472102074 l 0.43978802979604326 1.9510475362861137 a 20.0 20.0 0.0 0 1 -13.57000035654704,-1.7376811641181278 l 0.9172120058586604 -1.7772794198743025 a 18.0 18.0 0.0 0 0 12.213000320892336,1.5639130477063166 z"/><path fill="#240001" d="M -18.031212835792388,-2.713443469310077 l -1.8450383502961187 0.771902510642746 a 4.699999999999999 4.699999999999999 0.0 1 1 8.671680246391759,-3.627941800020907 l -1.845038350296119 0.7719025106427462 a 2.6999999999999997 2.6999999999999997 0.0 1 0 -4.981603545799521,2.084136778735415 z"/><path fill="#9a0c23" d="M -18.85052025250471,-20.068738612627016 l -1.9095507453128373 -0.5946561620593749 a 4.699999999999999 4.699999999999999 0.0 1 1 8.974888502970336,2.7948839616790626 l -1.9095507453128375 -0.5946561620593751 a 2.6999999999999997 2.6999999999999997 0.0 1 0 -5.155787012344661,-1.6055716375603126 z"/><path fill="#da080c" d="M -8.322377465706257,-33.890306671841714 l -1.080563124305085 -1.6829686076668309 a 4.699999999999999 4.699999999999999 0.0 1 1 5.0786466842339,7.909952456034107 l -1.080563124305085 -1.6829686076668313 a 2.6999999999999997 2.6999999999999997 0.0 1 0 -2.9175204356237296,-4.544015240700444 z"/><path fill="#870f00" d="M 8.626980507386316,-37.71088234242912 l 0.25403199168645557 -1.9838013376343435 a 4.699999999999999 4.699999999999999 0.0 1 1 -1.193950360926342,9.323866286881415 l 0.25403199168645585 -1.9838013376343442 a 2.6999999999999997 2.6999999999999997 0.0 1 0 0.6858863775534305,-5.356263611612728 z"/><path fill="#dc002a" d="M 24.066760700031608,-29.742775807152533 l 1.4697627155167938 -1.3563913742267382 a 4.699999999999999 4.699999999999999 0.0 1 1 -6.907884762928931,6.375039458865669 l 1.4697627155167936 -1.356391374226738 a 2.6999999999999997 2.6999999999999997 0.0 1 0 3.9683593318953436,-3.6622567104121933 z"/><path fill="#d50720" d="M 30.772518366047883,-13.714352669507798 l 1.9977751301637443 -0.09431081220746804 a 4.699999999999999 4.699999999999999 0.0 1 1 -9.3895431117696,0.44326081737509926 l 1.9977751301637445 -0.09431081220746779 a 2.6999999999999997 2.6999999999999997 0.0 1 0 5.3939928514421105,-0.2546391929601634 z"/><path fill="#240001" d="M 25.606554967311062,2.8745097483203725 l 1.5910063586096634 1.2118988269916005 a 4.699999999999999 4.699999999999999 0.0 1 1 -7.47772988546542,-5.695924486860521 l 1.5910063586096639 1.2118988269916002 a 2.6999999999999997 2.6999999999999997 0.0 1 0 4.295717168246092,3.272126832877321 z"/><path fill="#9a0c23" d="M 10.986082191378062,12.261698356360705 l 0.4397880297960427 1.9510475362861135 a 4.699999999999999 4.699999999999999 0.0 1 1 -2.0670037400414016,-9.169923420544734 l 0.43978802979604303 1.9510475362861133 a 2.6999999999999997 2.6999999999999997 0.0 1 0 1.1874276804493158,5.267828347972507 z"/><path fill="#da080c" d="M -6.247818261436683,10.05484327793067 l -0.9172120058586606 1.7772794198743005 a 4.699999999999999 4.699999999999999 0.0 1 1 4.310896427535704,-8.353213273409214 l -0.9172120058586604 1.7772794198743007 a 2.6999999999999997 2.6999999999999997 0.0 1 0 -2.4764724158183835,4.798654433660612 z"/><path fill="#dcd382" d="M 99.85706856833204,-46.999930512248326 l -5.929666159201235 -16.995265789049128 a 18.0 18.0 0.0 0 1 10.129647943330365,-0.5078811569427124 l -4.199981784129129 17.50314694599184 z"/><path fill="#bfa75d" d="M 99.85706856833204,-46.999930512248326 l 4.199981784129125 -17.50314694599184 a 18.0 18.0 0.0 0 1 8.796183402522583,5.049244327083093 l -12.996165186651709 12.453902618908748 z"/><path fill="#dec45a" d="M 99.85706856833204,-46.999930512248326 l 12.996165186651705 -12.453902618908751 a 18.0 18.0 0.0 0 1 4.669992782275884,9.003270413515619 l -17.66615796892759 3.4506322053931315 z"/><path fill="#d3d649" d="M 99.85706856833204,-46.999930512248326 l 17.66615796892759 -3.4506322053931315 a 18.0 18.0 0.0 0 1 -0.9388875497511755,10.098821757725839 l -16.727270419176413 -6.648189552332707 z"/><path fill="#d3bd60" d="M 99.85706856833204,-46.999930512248326 l 16.727270419176413 6.6481895523327035 a 18.0 18.0 0.0 0 1 -6.24967771859467,7.9880685487229135 l -10.477592700581743 -14.636258101055617 z"/><path fill="#ddcf71" d="M 99.85706856833204,-46.999930512248326 l 10.477592700581745 14.636258101055613 a 18.0 18.0 0.0 0 1 -9.576239369896973,3.341160016495735 l -0.901353330684773 -17.97741811755135 z"/><path fill="#d7c86c" d="M 99.85706856833204,-46.999930512248326 l 0.9013533306847774 17.97741811755135 a 18.0 18.0 0.0 0 1 -9.8624126837311,-2.3665432134602575 l 8.961059353046322 -15.61087490409109 z"/><path fill="#dda22d" d="M 99.85706856833204,-46.999930512248326 l -8.96105935304632 15.610874904091093 a 18.0 18.0 0.0 0 1 -7.0173396549586755,-7.3228856943379235 l 15.978399008004995 -8.287989209753169 z"/><path fill="#dcd382" d="M 99.85706856833204,-46.999930512248326 l -15.978399008004994 8.287989209753174 a 18.0 18.0 0.0 0 1 -1.944310867889575,-9.954263708301134 l 17.92270987589457 1.6662744985479605 z"/><path fill="#bfa75d" d="M 99.85706856833204,-46.999930512248326 l -17.92270987589457 -1.6662744985479563 a 18.0 18.0 0.0 0 1 3.746022881890342,-9.425233328345168 l 14.176686994004227 11.091507826893125 z"/><path fill="#dec45a" d="M 99.85706856833204,-46.999930512248326 l -14.176686994004228 -11.091507826893121 a 18.0 18.0 0.0 0 1 8.247020834802996,-5.903757962156007 l 5.929666159201232 16.995265789049128 z"/><path fill="#a40018" d="M 93.12146678754532,-63.69219424880194 l -0.7484001978651914 -1.854695970728179 a 20.0 20.0 0.0 0 1 13.672679747810415,-0.4714594559800045 l -0.6188677769158506 1.9018419163261804 a 18.0 18.0 0.0 0 0 -12.305411773029373,0.42431351038200305 z"/><path fill="#862f13" d="M 105.42687856057469,-64.11650775918395 l 0.6188677769158502 -1.9018419163261793 a 20.0 20.0 0.0 0 1 10.776928640129032,8.427470236695216 l -1.6965606409287535 1.059094892656658 a 18.0 18.0 0.0 0 0 -9.69923577611613,-7.584723213025695 z"/><path fill="#3f0004" d="M 115.12611433669082,-56.53178454615824 l 1.6965606409287535 -1.0590948926566575 a 20.0 20.0 0.0 0 1 2.8385328495108517,13.3830929447219 l -1.9804139258798408 -0.27921440181553336 a 18.0 18.0 0.0 0 0 -2.5546795645597644,-12.044783650249709 z"/><path fill="#9d220e" d="M 117.68079390125058,-44.48700089590853 l 1.9804139258798383 0.2792144018155332 a 20.0 20.0 0.0 0 1 -6.428044008172125,12.076617727402825 l -1.3376095250626268 -1.4868761745558157 a 18.0 18.0 0.0 0 0 5.785239607354914,-10.868955954662542 z"/><path fill="#de0006" d="M 111.89555429389567,-33.618044941245984 l 1.3376095250626259 1.4868761745558157 a 20.0 20.0 0.0 0 1 -12.686867634679846,5.119358858776227 l -0.06892276159464039 -1.998812060433437 a 18.0 18.0 0.0 0 0 11.41818087121186,-4.607422972898606 z"/><path fill="#c5020e" d="M 100.47737342268381,-29.01062196834738 l 0.06892276159464132 1.9988120604334385 a 20.0 20.0 0.0 0 1 -13.009364896092901,-4.233304915207944 l 1.2320137280146497 -1.5754815689126431 a 18.0 18.0 0.0 0 0 11.708428406483609,3.809974423687148 z"/><path fill="#a40018" d="M 88.7689450162002,-32.82059639203452 l -1.2320137280146486 1.5754815689126442 a 20.0 20.0 0.0 0 1 -7.244635739638267,-11.605158271422821 l 1.9564773019784774 -0.41496574177036294 a 18.0 18.0 0.0 0 0 6.520172165674438,10.44464244428054 z"/><path fill="#862f13" d="M 82.24877285052577,-43.26523883631507 l -1.9564773019784751 0.4149657417703621 a 20.0 20.0 0.0 0 1 1.9099389945507936,-13.546829095471429 l 1.7654834025233956 0.9397171677767808 a 18.0 18.0 0.0 0 0 -1.7189450950957141,12.192146185924285 z"/><path fill="#3f0004" d="M 83.96771794562147,-55.45738502223935 l -1.7654834025233956 -0.9397171677767807 a 20.0 20.0 0.0 0 1 10.170832046582042,-9.149788029513983 l 0.7484001978651929 1.85469597072818 a 18.0 18.0 0.0 0 0 -9.15374884192384,8.234809226562584 z"/><path fill="#a40018" d="M 107.71668933516334,-71.15332284959081 l 0.61886777691585 -1.9018419163261788 a 4.699999999999999 4.699999999999999 0.0 1 1 -2.908678551504496,8.93865700673304 l 0.6188677769158502 -1.9018419163261786 a 2.6999999999999997 2.6999999999999997 0.0 1 0 1.6709429976727956,-5.134973174080683 z"/><path fill="#862f13" d="M 121.40338870812721,-60.450435648987884 l 1.696560640928753 -1.0590948926566572 a 4.699999999999999 4.699999999999999 0.0 1 1 -7.973835012365141,4.977745995486289 l 1.6965606409287535 -1.059094892656657 a 2.6999999999999997 2.6999999999999997 0.0 1 0 4.580713730507634,-2.8595562101729746 z"/><path fill="#3f0004" d="M 125.00832542700599,-43.45390760919106 l 1.980413925879838 0.27921440181553236 a 4.699999999999999 4.699999999999999 0.0 1 1 -9.30794545163524,-1.3123076885330018 l 1.980413925879838 0.27921440181553225 a 2.6999999999999997 2.6999999999999997 0.0 1 0 5.347117599875563,0.7538788849019371 z"/><path fill="#9d220e" d="M 116.84470953662738,-28.11660309538947 l 1.3376095250626252 1.4868761745558159 a 4.699999999999999 4.699999999999999 0.0 1 1 -6.286764767794339,-6.9883180204123345 l 1.3376095250626254 1.4868761745558157 a 2.6999999999999997 2.6999999999999997 0.0 1 0 3.6115457176690886,4.014565671300703 z"/><path fill="#de0006" d="M 100.73238764058398,-21.615017344743656 l 0.06892276159464086 1.9988120604334383 a 4.699999999999999 4.699999999999999 0.0 1 1 -0.3239369794948126,-9.39441668403716 l 0.06892276159464111 1.9988120604334387 a 2.6999999999999997 2.6999999999999997 0.0 1 0 0.18609145630553064,5.396792563170283 z"/><path fill="#c5020e" d="M 84.210494222546,-26.991314587057744 l -1.2320137280146477 1.5754815689126445 a 4.699999999999999 4.699999999999999 0.0 1 1 5.790464521668844,-7.4047633738894305 l -1.2320137280146475 1.575481568912645 a 2.6999999999999997 2.6999999999999997 0.0 1 0 -3.3264370656395488,4.253800236064141 z"/><path fill="#a40018" d="M 75.0098068332054,-41.72986559176472 l -1.956477301978475 0.4149657417703611 a 4.699999999999999 4.699999999999999 0.0 1 1 9.195443319298834,-1.9503389863206981 l -1.9564773019784756 0.4149657417703614 a 2.6999999999999997 2.6999999999999997 0.0 1 0 -5.2824887153418825,1.1204075027799756 z"/><path fill="#862f13" d="M 77.43542935628491,-58.934338543013446 l -1.7654834025233952 -0.9397171677767805 a 4.699999999999999 4.699999999999999 0.0 1 1 8.297771991859957,4.4166706885508695 l -1.7654834025233948 -0.9397171677767808 a 2.6999999999999997 2.6999999999999997 0.0 1 0 -4.766805186813167,-2.537236352997308 z"/><path fill="#3f0004" d="M 90.3523860554441,-70.5545693404962 l -0.7484001978651913 -1.8546959707281785 a 4.699999999999999 4.699999999999999 0.0 1 1 3.517480929966399,8.717071062422441 l -0.7484001978651911 -1.8546959707281792 a 2.6999999999999997 2.6999999999999997 0.0 1 0 -2.0206805342360163,-5.007679120966083 z"/><path fill="#dcd065" d="M 194.3802421290792,-12.700354461094705 l 14.216029598968936 -11.041037199522476 a 18.0 18.0 0.0 0 1 3.7124909011038145,9.438491512663248 l -17.92852050007275 1.6025456868592278 z"/><path fill="#e3d48a" d="M 194.3802421290792,-12.700354461094705 l 17.92852050007275 -1.6025456868592278 a 18.0 18.0 0.0 0 1 -1.9796876807967774,9.947288445194301 l -15.948832819275973 -8.344742758335073 z"/><path fill="#d1c465" d="M 194.3802421290792,-12.700354461094705 l 15.948832819275975 8.344742758335068 a 18.0 18.0 0.0 0 1 -7.043329411849136,7.297891580557758 l -8.905503407426838 -15.642634338892826 z"/><path fill="#e7d59b" d="M 194.3802421290792,-12.700354461094705 l 8.905503407426844 15.642634338892822 a 18.0 18.0 0.0 0 1 -9.870763820426905,2.331465703531972 l 0.9652604130000619 -17.974100042424794 z"/><path fill="#eccf42" d="M 194.3802421290792,-12.700354461094705 l -0.9652604130000576 17.974100042424794 a 18.0 18.0 0.0 0 1 -9.564300459503556,-3.375184061015732 l 10.529560872503614 -14.598915981409062 z"/><path fill="#b9861a" d="M 194.3802421290792,-12.700354461094705 l -10.529560872503609 14.598915981409064 a 18.0 18.0 0.0 0 1 -6.221239280805612,-8.010236734101923 l 16.75080015330922 -6.588679247307141 z"/><path fill="#a58923" d="M 194.3802421290792,-12.700354461094705 l -16.750800153309218 6.588679247307145 a 18.0 18.0 0.0 0 1 -0.902978587628116,-10.102095841738997 l 17.653778740937334 3.513416594431851 z"/><path fill="#c3b52f" d="M 194.3802421290792,-12.700354461094705 l -17.653778740937334 -3.5134165944318467 a 18.0 18.0 0.0 0 1 4.701971426979494,-8.98661089762225 l 12.95180731395784 12.500027492054096 z"/><path fill="#dcd065" d="M 194.3802421290792,-12.700354461094705 l -12.951807313957842 -12.500027492054093 a 18.0 18.0 0.0 0 1 8.814078736063642,-5.017940489868858 l 4.137728577894198 17.51796798192295 z"/><path fill="#e3d48a" d="M 194.3802421290792,-12.700354461094705 l -4.137728577894203 -17.51796798192295 a 18.0 18.0 0.0 0 1 10.127778323751972,0.5438905683446436 l -5.990049745857769 16.974077413578307 z"/><path fill="#d1c465" d="M 194.3802421290792,-12.700354461094705 l 5.990049745857784 -16.974077413578303 a 18.0 18.0 0.0 0 1 8.225979853111152,5.933040214055827 l -14.216029598968936 11.041037199522476 z"/><path fill="#9d0b04" d="M 198.2947043447454,-30.269560065279588 l 0.4349402461851344 -1.9521339560205428 a 20.0 20.0 0.0 0 1 11.53050831872162,7.3628678798895795 l -1.5879910780572963 1.2158471680315852 a 18.0 18.0 0.0 0 0 -10.377457486849458,-6.626581091900622 z"/><path fill="#661206" d="M 208.67216183159485,-23.642978973378966 l 1.5879910780572963 -1.2158471680315852 a 20.0 20.0 0.0 0 1 4.100121578941817,13.051951905470425 l -1.9980032359514794 -0.08934802251545726 a 18.0 18.0 0.0 0 0 -3.6901094210476337,-11.746756714923382 z"/><path fill="#f00700" d="M 212.3622712526425,-11.896222258455591 l 1.9980032359514779 0.08934802251545672 a 20.0 20.0 0.0 0 1 -5.248757615400418,12.633882578194 l -1.4731274744114362 -1.3527362803348577 a 18.0 18.0 0.0 0 0 4.723881853860377,-11.370494320374599 z"/><path fill="#cb0b00" d="M 207.63838939878212,-0.5257279380810083 l 1.4731274744114364 1.3527362803348564 a 20.0 20.0 0.0 0 1 -12.141684788053643,6.304279182615922 l -0.25895899560607205 -1.983164198596448 a 18.0 18.0 0.0 0 0 10.92751630924828,-5.6738512643543295 z"/><path fill="#7a0001" d="M 196.71087308953383,5.148123326273332 l 0.2589589956060726 1.9831641985964485 a 20.0 20.0 0.0 0 1 -13.353382708581032,-2.9751665067668474 l 1.0763792752520303 -1.6856475479197623 a 18.0 18.0 0.0 0 0 12.01804443772293,2.677649856090161 z"/><path fill="#690305" d="M 184.6928286518109,2.4704734701831725 l -1.0763792752520305 1.6856475479197643 a 20.0 20.0 0.0 0 1 -8.316884453445416,-10.862498722340787 l 1.9080677205965735 -0.5993976756856849 a 18.0 18.0 0.0 0 0 7.485196008100873,9.776248850106708 z"/><path fill="#9d0b04" d="M 177.20763264371004,-7.305775379923532 l -1.9080677205965717 0.599397675685686 a 20.0 20.0 0.0 0 1 0.6111764693320278,-13.667147062505478 l 1.8469500736633684 0.7673170305648611 a 18.0 18.0 0.0 0 0 -0.5500588223988245,12.30043235625493 z"/><path fill="#661206" d="M 177.75769146610887,-19.60620773617846 l -1.8469500736633688 -0.7673170305648613 a 20.0 20.0 0.0 0 1 9.253261129639174,-10.076785398703597 l 0.921623960699451 1.7749955704352196 a 18.0 18.0 0.0 0 0 -8.327935016675257,9.069106858833239 z"/><path fill="#f00700" d="M 186.08562648278414,-28.675314595011695 l -0.9216239606994518 -1.774995570435221 a 20.0 20.0 0.0 0 1 13.565642068845868,-1.7713838558532164 l -0.4349402461851355 1.9521339560205426 a 18.0 18.0 0.0 0 0 -12.20907786196128,1.5942454702678948 z"/><path fill="#9d0b04" d="M 214.54772882040686,-28.14161349509583 l 1.5879910780572961 -1.2158471680315848 a 4.699999999999999 4.699999999999999 0.0 1 1 -7.463558066869293,5.714481689748448 l 1.5879910780572963 -1.2158471680315843 a 2.6999999999999997 2.6999999999999997 0.0 1 0 4.2875759107547005,-3.282787353685279 z"/><path fill="#661206" d="M 219.75488322566295,-11.565634575148392 l 1.9980032359514774 0.0893480225154572 a 4.699999999999999 4.699999999999999 0.0 1 1 -9.390615208971944,-0.4199357058226483 l 1.9980032359514768 0.08934802251545695 a 2.6999999999999997 2.6999999999999997 0.0 1 0 5.39460873706899,0.24123966079173412 z"/><path fill="#f00700" d="M 213.08896105410443,4.479396299157976 l 1.4731274744114358 1.3527362803348564 a 4.699999999999999 4.699999999999999 0.0 1 1 -6.923699129733748,-6.357860517573824 l 1.4731274744114358 1.352736280334856 a 2.6999999999999997 2.6999999999999997 0.0 1 0 3.977444180910877,3.6523879569041124 z"/><path fill="#cb0b00" d="M 197.6690213732763,12.48583086108018 l 0.25895899560607205 1.983164198596448 a 4.699999999999999 4.699999999999999 0.0 1 1 -1.2171072793485394,-9.320871733403306 l 0.2589589956060723 1.983164198596448 a 2.6999999999999997 2.6999999999999997 0.0 1 0 0.699189288136395,5.35454333621041 z"/><path fill="#7a0001" d="M 180.7102253333784,8.707369397486296 l -1.0763792752520305 1.6856475479197635 a 4.699999999999999 4.699999999999999 0.0 1 1 5.058982593684543,-7.92254347522289 l -1.0763792752520303 1.6856475479197641 a 2.6999999999999997 2.6999999999999997 0.0 1 0 -2.906224043180482,4.551248379383362 z"/><path fill="#690305" d="M 170.1477820775027,-5.088003979886498 l -1.9080677205965715 0.5993976756856855 a 4.699999999999999 4.699999999999999 0.0 1 1 8.967918286803886,-2.8171690757227226 l -1.9080677205965708 0.599397675685686 a 2.6999999999999997 2.6999999999999997 0.0 1 0 -5.151782845610744,1.6183737243513512 z"/><path fill="#9d0b04" d="M 170.9239761935544,-22.445280749268452 l -1.8469500736633682 -0.7673170305648616 a 4.699999999999999 4.699999999999999 0.0 1 1 8.68066534621783,3.60639004365485 l -1.8469500736633675 -0.767317030564862 a 2.6999999999999997 2.6999999999999997 0.0 1 0 -4.986765198891095,-2.0717559825251266 z"/><path fill="#661206" d="M 182.67561782819615,-35.242798205622016 l -0.9216239606994512 -1.7749955704352207 a 4.699999999999999 4.699999999999999 0.0 1 1 4.33163261528742,8.342479181045539 l -0.921623960699451 -1.7749955704352205 a 2.6999999999999997 2.6999999999999997 0.0 1 0 -2.488384693888518,-4.792488040175097 z"/><path fill="#f00700" d="M 199.9039832556304,-37.492455702555596 l 0.4349402461851347 -1.9521339560205422 a 4.699999999999999 4.699999999999999 0.0 1 1 -2.044219157070134,9.175029593296548 l 0.43494024618513505 -1.9521339560205417 a 2.6999999999999997 2.6999999999999997 0.0 1 0 1.1743386646998641,-5.270761681255465 z"/><path fill="#ceb61d" d="M 244.74185147807748,74.33296996732676 l -8.810972074956961 15.696075021938722 a 18.0 18.0 0.0 0 1 -7.0872281414827984,-7.2552676033326815 l 15.89820021643976 -8.44080741860604 z"/><path fill="#e0de60" d="M 244.74185147807748,74.33296996732676 l -15.89820021643976 8.44080741860604 a 18.0 18.0 0.0 0 1 -2.039661904078079,-9.935164318844818 l 17.93786212051784 1.494356900238778 z"/><path fill="#e3cb73" d="M 244.74185147807748,74.33296996732676 l -17.93786212051784 -1.494356900238778 a 18.0 18.0 0.0 0 1 3.655482576309085,-9.460716561640305 l 14.282379544208753 10.955073461879083 z"/><path fill="#8c7c1f" d="M 244.74185147807748,74.33296996732676 l -14.282379544208753 -10.955073461879083 a 18.0 18.0 0.0 0 1 8.190037167123792,-5.982558142343946 l 6.092342377084961 16.93763160422303 z"/><path fill="#dac67b" d="M 244.74185147807748,74.33296996732676 l -6.092342377084961 -16.93763160422303 a 18.0 18.0 0.0 0 1 10.124312825414002,-0.6049797835892576 l -4.031970448329042 17.542611387812286 z"/><path fill="#e2d77d" d="M 244.74185147807748,74.33296996732676 l 4.031970448329042 -17.542611387812286 a 18.0 18.0 0.0 0 1 8.844190696611403,4.964675381872123 l -12.876161144940443 12.577936005940163 z"/><path fill="#d2b53e" d="M 244.74185147807748,74.33296996732676 l 12.876161144940443 -12.577936005940163 a 18.0 18.0 0.0 0 1 4.756100511699973,8.958081192309084 l -17.632261656640416 3.61985481363108 z"/><path fill="#ddc55c" d="M 244.74185147807748,74.33296996732676 l 17.632261656640416 -3.61985481363108 a 18.0 18.0 0.0 0 1 -0.8420179806758021,10.10735951896504 l -16.790243675964614 -6.4875047053339605 z"/><path fill="#ceb61d" d="M 244.74185147807748,74.33296996732676 l 16.790243675964614 6.487504705333956 a 18.0 18.0 0.0 0 1 -6.1728017136017925,8.04762261353935 l -10.617441962362822 -14.535127318873306 z"/><path fill="#e0de60" d="M 244.74185147807748,74.33296996732676 l 10.617441962362825 14.535127318873304 a 18.0 18.0 0.0 0 1 -9.543764517391905,3.4328223900990764 l -1.073677444970921 -17.96794970897238 z"/><path fill="#e3cb73" d="M 244.74185147807748,74.33296996732676 l 1.073677444970917 17.96794970897238 a 18.0 18.0 0.0 0 1 -9.884649519927885,-2.2718746870336624 l 8.810972074956968 -15.696075021938718 z"/><path fill="#a70010" d="M 230.31060262128028,85.09117876029919 l -1.6034720951996901 1.1953565325524917 a 20.0 20.0 0.0 0 1 -3.9321916130698344,-13.103522985171615 l 1.9966912565066757 0.11499576596466987 a 18.0 18.0 0.0 0 0 3.5389724517628487,11.793170686654454 z"/><path fill="#da0500" d="M 226.7716301695174,73.29800807364472 l -1.9966912565066735 -0.11499576596466995 a 20.0 20.0 0.0 0 1 5.41054868363989,-12.565445015867136 l 1.4556363881426844 1.3715402675513833 a 18.0 18.0 0.0 0 0 -4.8694938152759,11.308900514280422 z"/><path fill="#820f00" d="M 231.64112398479332,61.98910755936431 l -1.4556363881426844 -1.3715402675513835 a 20.0 20.0 0.0 0 1 12.221633119723917,-6.147855674272536 l 0.23347307617029323 1.9863258349786364 a 18.0 18.0 0.0 0 0 -10.999469807751526,5.533070106845283 z"/><path fill="#e40800" d="M 242.64059379254485,56.45603745251903 l -0.2334730761702926 -1.9863258349786372 a 20.0 20.0 0.0 0 1 13.314079590766825,3.146383663119214 l -1.0979348829063902 1.6716874686667147 a 18.0 18.0 0.0 0 0 -11.982671631690142,-2.8317452968072914 z"/><path fill="#eb0200" d="M 254.623265424235,59.287782749326325 l 1.0979348829063897 -1.6716874686667158 a 20.0 20.0 0.0 0 1 8.176720251777557,10.968395116378163 l -1.9156069080841434 0.5748479570289007 a 18.0 18.0 0.0 0 0 -7.359048226599803,-9.871555604740347 z"/><path fill="#bc0705" d="M 261.9823136508348,69.15933835406666 l 1.9156069080841456 -0.5748479570288996 a 20.0 20.0 0.0 0 1 -0.7866173671416221,13.658172594550448 l -1.8369451713699831 -0.790969302426145 a 18.0 18.0 0.0 0 0 0.7079556304274597,-12.292355335095404 z"/><path fill="#a70010" d="M 261.2743580204073,81.45169368916207 l 1.8369451713699831 0.7909693024261455 a 20.0 20.0 0.0 0 1 -9.381887977697009,9.957139322052399 l -0.8987563736002819 -1.7866832346313863 a 18.0 18.0 0.0 0 0 8.443699179927307,-8.961425389847157 z"/><path fill="#da0500" d="M 252.83065884048003,90.41311907900922 l 0.8987563736002823 1.7866832346313852 a 20.0 20.0 0.0 0 1 -13.587268935417448,1.5970498994889628 l 0.45997051994146076 -1.9463882245802822 a 18.0 18.0 0.0 0 0 12.228542041875706,-1.4373449095400659 z"/><path fill="#820f00" d="M 240.6021167986043,91.8504639885493 l -0.45997051994146265 1.9463882245802815 a 20.0 20.0 0.0 0 1 -11.435015752582286,-7.510316920277911 l 1.6034720951996917 -1.1953565325524913 a 18.0 18.0 0.0 0 0 10.291514177324057,6.759285228250121 z"/><path fill="#a70010" d="M 219.38387252044274,72.87252373957546 l -1.996691256506673 -0.11499576596466993 a 4.699999999999999 4.699999999999999 0.0 1 1 9.384448905581364,0.5404801000339492 l -1.996691256506673 -0.11499576596467015 a 2.6999999999999997 2.6999999999999997 0.0 1 0 -5.391066392568018,-0.3104885681046092 z"/><path fill="#da0500" d="M 226.25526934866537,56.91440856942418 l -1.4556363881426841 -1.3715402675513833 a 4.699999999999999 4.699999999999999 0.0 1 1 6.841491024270615,6.446239257491502 l -1.4556363881426835 -1.3715402675513833 a 2.6999999999999997 2.6999999999999997 0.0 1 0 -3.9302182479852474,-3.7031587223887357 z"/><path fill="#820f00" d="M 241.77674341071477,49.106631863098066 l -0.23347307617029253 -1.9863258349786368 a 4.699999999999999 4.699999999999999 0.0 1 1 1.0973234580003743,9.335731424399594 l -0.23347307617029234 -1.9863258349786364 a 2.6999999999999997 2.6999999999999997 0.0 1 0 -0.6303773056597896,-5.363079754442321 z"/><path fill="#e40800" d="M 258.68562449098863,53.102539115259475 l 1.097934882906391 -1.6716874686667145 a 4.699999999999999 4.699999999999999 0.0 1 1 -5.160293949660039,7.856931102733558 l 1.097934882906391 -1.6716874686667138 a 2.6999999999999997 2.6999999999999997 0.0 1 0 2.9644241838472567,-4.5135561654001295 z"/><path fill="#eb0200" d="M 269.07005921074614,67.03240091305975 l 1.9156069080841451 -0.5748479570288995 a 4.699999999999999 4.699999999999999 0.0 1 1 -9.003352467995484,2.701785398035827 l 1.9156069080841451 -0.5748479570288993 a 2.6999999999999997 2.6999999999999997 0.0 1 0 5.1721386518271935,-1.5520894839780284 z"/><path fill="#bc0705" d="M 268.07105515447626,84.3782801081388 l 1.836945171369983 0.790969302426145 a 4.699999999999999 4.699999999999999 0.0 1 1 -8.63364230543892,-3.717555721402882 l 1.8369451713699823 0.790969302426145 a 2.6999999999999997 2.6999999999999997 0.0 1 0 4.959751962698955,2.1356171165505917 z"/><path fill="#a70010" d="M 256.15605742280104,97.02384704714535 l 0.8987563736002828 1.7866832346313846 a 4.699999999999999 4.699999999999999 0.0 1 1 -4.22415495592133,-8.397411202767508 l 0.8987563736002828 1.7866832346313846 a 2.6999999999999997 2.6999999999999997 0.0 1 0 2.4266422087207644,4.8240447335047385 z"/><path fill="#da0500" d="M 238.9002258748209,99.05210041949633 l -0.459970519941463 1.946388224580281 a 4.699999999999999 4.699999999999999 0.0 1 1 2.1618614437248755,-9.14802465552732 l -0.45997051994146254 1.9463882245802813 a 2.6999999999999997 2.6999999999999997 0.0 1 0 -1.24192040384195,5.255248206366759 z"/><path fill="#820f00" d="M 224.37775586904138,89.51399793074339 l -1.6034720951996908 1.19535653255249 a 4.699999999999999 4.699999999999999 0.0 1 1 7.5363188474385465,-5.618175702996703 l -1.60347209519969 1.1953565325524904 a 2.6999999999999997 2.6999999999999997 0.0 1 0 -4.329374657039166,3.2274626378917235 z"/><path fill="#e0bb56" d="M 227.37713989398827,173.3761830053003 l 3.4009480130883896 17.675790013809003 a 18.0 18.0 0.0 0 1 -10.096142044341782,-0.9672779051899667 l 6.6951940312533935 -16.708512108619036 z"/><path fill="#ddc474" d="M 227.37713989398827,173.3761830053003 l -6.69519403125339 16.708512108619036 a 18.0 18.0 0.0 0 1 -7.970465245399307,-6.272112442971373 l 14.665659276652697 -10.436399665647663 z"/><path fill="#dada56" d="M 227.37713989398827,173.3761830053003 l -14.665659276652695 10.436399665647668 a 18.0 18.0 0.0 0 1 -3.31422204765885,-9.58559559673819 l 17.979881324311545 -0.8508040689094798 z"/><path fill="#cab24a" d="M 227.37713989398827,173.3761830053003 l -17.979881324311545 0.8508040689094843 a 18.0 18.0 0.0 0 1 2.394263233039309,-9.855719877122661 l 15.585618091272236 9.004915808213177 z"/><path fill="#b39033" d="M 227.37713989398827,173.3761830053003 l -15.585618091272238 -9.004915808213173 a 18.0 18.0 0.0 0 1 7.342586854303098,-6.996722733709682 l 8.24303123696914 16.001638541922855 z"/><path fill="#b09e2e" d="M 227.37713989398827,173.3761830053003 l -8.243031236969125 -16.001638541922862 a 18.0 18.0 0.0 0 1 9.959691029565219,-1.9163155588243548 l -1.716659792596093 17.917954100747217 z"/><path fill="#ddcb46" d="M 227.37713989398827,173.3761830053003 l 1.716659792596093 -17.917954100747217 a 18.0 18.0 0.0 0 1 9.414663674754483,3.7725082659489964 l -11.131323467350576 14.14544583479822 z"/><path fill="#e7d462" d="M 227.37713989398827,173.3761830053003 l 11.131323467350576 -14.14544583479822 a 18.0 18.0 0.0 0 1 5.880547124043922,8.263587371553204 l -17.011870591394498 5.881858463245017 z"/><path fill="#e0bb56" d="M 227.37713989398827,173.3761830053003 l 17.011870591394498 -5.881858463245017 a 18.0 18.0 0.0 0 1 0.47939841140991035,10.131035874407523 l -17.491269002804408 -4.249177411162506 z"/><path fill="#ddc474" d="M 227.37713989398827,173.3761830053003 l 17.491269002804408 4.249177411162502 a 18.0 18.0 0.0 0 1 -5.073955909579423,8.781952069616334 l -12.417313093224985 -13.031129480778837 z"/><path fill="#dada56" d="M 227.37713989398827,173.3761830053003 l 12.41731309322499 13.031129480778834 a 18.0 18.0 0.0 0 1 -9.016365080136573,4.644660533030166 l -3.400948013088416 -17.675790013809 z"/><path fill="#660a00" d="M 243.31700078897737,181.73805089760745 l 1.7710956549987895 0.9290964324785713 a 20.0 20.0 0.0 0 1 -10.11569345255993,9.210710693461928 l -0.759526309742796 -1.8501675018247639 a 18.0 18.0 0.0 0 0 9.104124107303935,-8.289639624115736 z"/><path fill="#810811" d="M 234.21287668167344,190.02769052172317 l 0.7595263097427972 1.850167501824764 a 20.0 20.0 0.0 0 1 -13.669601467793203,0.5535713292102817 l 0.6074338370365222 -1.9055246347457917 a 18.0 18.0 0.0 0 0 12.302641321013883,-0.4982141962892541 z"/><path fill="#d60011" d="M 221.91023536065956,190.52590471801244 l -0.6074338370365227 1.9055246347457928 a 20.0 20.0 0.0 0 1 -10.82735103554808,-8.362590212238864 l 1.690168940591331 -1.0692656135219067 a 18.0 18.0 0.0 0 0 9.744615931993271,7.526331191014977 z"/><path fill="#e90500" d="M 212.1656194286663,182.99957352699747 l -1.6901689405913303 1.069265613521907 a 20.0 20.0 0.0 0 1 -2.9188627211670584,-13.365802853543792 l 1.9820552127080369 0.26731467183247126 a 18.0 18.0 0.0 0 0 2.6269764490503515,12.029222568189414 z"/><path fill="#8b0009" d="M 209.53864297961596,170.97035095880804 l -1.982055212708036 -0.26731467183247193 a 20.0 20.0 0.0 0 1 6.355393899993792,-12.115007795323118 l 1.3465158227086569 1.478815451364781 a 18.0 18.0 0.0 0 0 -5.719854509994413,10.903507015790808 z"/><path fill="#9e1304" d="M 215.25849748961036,160.06684394301726 l -1.3465158227086573 -1.4788154513647833 a 20.0 20.0 0.0 0 1 12.655891083012,-5.19546594635694 l 0.08092671440745747 1.9983620460004765 a 18.0 18.0 0.0 0 0 -11.3903019747108,4.675919351721246 z"/><path fill="#660a00" d="M 226.64879946432117,155.390924591296 l -0.08092671440745773 -1.9983620460004774 a 20.0 20.0 0.0 0 1 13.03455617372696,4.155092160081845 l -1.2225289029652373 1.5828528299922926 a 18.0 18.0 0.0 0 0 -11.731100556354265,-3.7395829440736605 z"/><path fill="#810811" d="M 238.37990002067542,159.13050753536967 l 1.2225289029652384 -1.5828528299922928 a 20.0 20.0 0.0 0 1 7.314207567799431,11.56143646611283 l -1.9539496597451809 0.4267091833810088 a 18.0 18.0 0.0 0 0 -6.5827868110194885,-10.405292819501547 z"/><path fill="#d60011" d="M 244.9626868316949,169.5358003548712 l 1.9539496597451818 -0.4267091833810097 a 20.0 20.0 0.0 0 1 -1.828540047463929,13.558056158595832 l -1.7710956549987902 -0.9290964324785733 a 18.0 18.0 0.0 0 0 1.6456860427175375,-12.202250542736248 z"/><path fill="#660a00" d="M 237.0231240277218,196.8733102784748 l 0.7595263097427966 1.8501675018247639 a 4.699999999999999 4.699999999999999 0.0 1 1 -3.569773655791145,-8.69578725857639 l 0.7595263097427969 1.850167501824763 a 2.6999999999999997 2.6999999999999997 0.0 1 0 2.0507210363055517,4.995452254926863 z"/><path fill="#810811" d="M 219.66273016362442,197.57634586657187 l -0.607433837036523 1.9055246347457921 a 4.699999999999999 4.699999999999999 0.0 1 1 2.8549390340716574,-8.955965783305224 l -0.6074338370365224 1.9055246347457926 a 2.6999999999999997 2.6999999999999997 0.0 1 0 -1.6400713599986119,5.14491651381364 z"/><path fill="#d60011" d="M 205.91199434847837,186.9558562970285 l -1.69016894059133 1.0692656135219063 a 4.699999999999999 4.699999999999999 0.0 1 1 7.943794020779252,-5.025548383552961 l -1.69016894059133 1.0692656135219063 a 2.6999999999999997 2.6999999999999997 0.0 1 0 -4.563456139596592,2.8870171565091476 z"/><path fill="#e90500" d="M 202.20503869259622,169.9812866730279 l -1.9820552127080355 -0.2673146718324723 a 4.699999999999999 4.699999999999999 0.0 1 1 9.315659499727767,1.2563789576126205 l -1.982055212708035 -0.2673146718324725 a 2.6999999999999997 2.6999999999999997 0.0 1 0 -5.351549074311697,-0.7217496139476758 z"/><path fill="#8b0009" d="M 210.27638894558834,154.59522677296752 l -1.3465158227086567 -1.4788154513647835 a 4.699999999999999 4.699999999999999 0.0 1 1 6.328624366730686,6.950432621414483 l -1.3465158227086564 -1.4788154513647833 a 2.6999999999999997 2.6999999999999997 0.0 1 0 -3.635592721313373,-3.9928017186849156 z"/><path fill="#9e1304" d="M 226.34937062101358,147.99698502109425 l -0.08092671440745722 -1.998362046000477 a 4.699999999999999 4.699999999999999 0.0 1 1 0.38035555771504836,9.392301616202243 l -0.08092671440745697 -1.9983620460004774 a 2.6999999999999997 2.6999999999999997 0.0 1 0 -0.2185021289001342,-5.395577524201289 z"/><path fill="#660a00" d="M 242.90325696164683,153.27395206439817 l 1.2225289029652382 -1.5828528299922924 a 4.699999999999999 4.699999999999999 0.0 1 1 -5.7458858439366205,7.439408300963775 l 1.2225289029652386 -1.5828528299922926 a 2.6999999999999997 2.6999999999999997 0.0 1 0 3.3008280380061437,-4.27370264097919 z"/><path fill="#810811" d="M 252.1923005727521,167.9569763763615 l 1.9539496597451813 -0.4267091833810096 a 4.699999999999999 4.699999999999999 0.0 1 1 -9.183563400802353,2.0055331618907446 l 1.9539496597451809 -0.4267091833810095 a 2.6999999999999997 2.6999999999999997 0.0 1 0 5.275664081311991,-1.1521147951287256 z"/><path fill="#d60011" d="M 249.87005471247286,185.1757076977782 l 1.7710956549987882 0.9290964324785731 a 4.699999999999999 4.699999999999999 0.0 1 1 -8.324149578494305,-4.366753232649294 l 1.7710956549987875 0.9290964324785729 a 2.6999999999999997 2.6999999999999997 0.0 1 0 4.781958268496729,2.5085603676921475 z"/><path fill="#ddcf28" d="M 150.41124891427933,238.08586452965625 l 17.883373882808304 -2.045712239707685 a 18.0 18.0 0.0 0 1 -1.7329268874004562,9.99323146576317 l -16.150446995407847 -7.947519226055486 z"/><path fill="#e4d77f" d="M 150.41124891427933,238.08586452965625 l 16.15044699540785 7.947519226055482 a 18.0 18.0 0.0 0 1 -6.860579694836986,7.469950265978035 l -9.289867300570865 -15.417469492033517 z"/><path fill="#fae49e" d="M 150.41124891427933,238.08586452965625 l 9.289867300570867 15.417469492033515 a 18.0 18.0 0.0 0 1 -9.81004692370249,2.5750126368912944 l 0.5201796231316239 -17.99248212892481 z"/><path fill="#b0a63b" d="M 150.41124891427933,238.08586452965625 l -0.5201796231316196 17.99248212892481 a 18.0 18.0 0.0 0 1 -9.644893568771787,-3.137473310238544 l 10.165073191903407 -14.855008818686265 z"/><path fill="#d7cb4c" d="M 150.41124891427933,238.08586452965625 l -10.165073191903403 14.855008818686267 a 18.0 18.0 0.0 0 1 -6.41755465331752,-7.853833649694727 l 16.582627845220923 -7.00117516899154 z"/><path fill="#d3d659" d="M 150.41124891427933,238.08586452965625 l -16.58262784522092 7.001175168991543 a 18.0 18.0 0.0 0 1 -1.1526874797093178,-10.076657297909657 l 17.735315324930237 3.075482128918113 z"/><path fill="#cac954" d="M 150.41124891427933,238.08586452965625 l -17.735315324930237 -3.075482128918109 a 18.0 18.0 0.0 0 1 4.478149824206053,-9.100213452296483 l 13.257165500724184 12.175695581214592 z"/><path fill="#c49833" d="M 150.41124891427933,238.08586452965625 l -13.257165500724186 -12.175695581214587 a 18.0 18.0 0.0 0 1 8.687206200030701,-5.234516134614864 l 4.569959300693486 17.41021171582945 z"/><path fill="#ddcf28" d="M 150.41124891427933,238.08586452965625 l -4.56995930069349 -17.41021171582945 a 18.0 18.0 0.0 0 1 10.138135988211463,0.2931030704833759 l -5.568176687517973 17.117108645346075 z"/><path fill="#e4d77f" d="M 150.41124891427933,238.08586452965625 l 5.568176687517969 -17.11710864534608 a 18.0 18.0 0.0 0 1 8.370279232780906,5.727664121670426 l -13.938455920298875 11.389444523675653 z"/><path fill="#fae49e" d="M 150.41124891427933,238.08586452965625 l 13.93845592029887 -11.389444523675655 a 18.0 18.0 0.0 0 1 3.9449179625094377,9.343732283967986 l -17.883373882808307 2.0457122397076692 z"/><path fill="#f10810" d="M 132.70117590953475,241.30352115624305 l -1.9677858894160625 0.35751740295408796 a 20.0 20.0 0.0 0 1 2.3056668671475427,-13.48511571335432 l 1.7372192027013096 0.9909941683813432 a 18.0 18.0 0.0 0 0 -2.0751001804327895,12.13660414201889 z"/><path fill="#c50a01" d="M 134.77627608996755,229.16691701422414 l -1.737219202701308 -0.9909941683813441 a 20.0 20.0 0.0 0 1 10.434308586995337,-8.848143862764267 l 0.6937883440017742 1.8758085546577732 a 18.0 18.0 0.0 0 0 -9.390877728295804,7.963329476487839 z"/><path fill="#87000e" d="M 144.16715381826336,221.20358753773633 l -0.6937883440017742 -1.875808554657771 a 20.0 20.0 0.0 0 1 13.680621354565263,-0.0710271626214003 l -0.6742737914547519 1.8829112709199123 a 18.0 18.0 0.0 0 0 -12.312559219108737,0.06392444635925898 z"/><path fill="#8d1e00" d="M 156.4797130373721,221.13966309137706 l 0.6742737914547521 -1.8829112709199107 a 20.0 20.0 0.0 0 1 10.525619347163788,8.739323936291008 l -1.7268357261711298 1.0089788772908097 a 18.0 18.0 0.0 0 0 -9.47305741244741,-7.865391542661907 z"/><path fill="#ff4d17" d="M 165.95277044981952,229.00505463403897 l 1.726835726171131 -1.00897887729081 a 20.0 20.0 0.0 0 1 2.4455630679955673,13.46044823864621 l -1.9713920329706873 -0.33706594657381217 a 18.0 18.0 0.0 0 0 -2.2010067611960107,-12.114403414781588 z"/><path fill="#ff2009" d="M 168.15377721101552,241.11945804882055 l 1.9713920329706878 0.3370659465738106 a 20.0 20.0 0.0 0 1 -6.778799350093781,11.883279213920115 l -1.29351209796131 -1.525393867965823 a 18.0 18.0 0.0 0 0 6.1009194150844035,-10.694951292528103 z"/><path fill="#f10810" d="M 162.05285779593112,251.81440934134864 l 1.29351209796131 1.5253938679658217 a 20.0 20.0 0.0 0 1 -12.831286214311332,4.745791777063314 l -0.010383476530176239 -1.999973045672153 a 18.0 18.0 0.0 0 0 11.548157592880198,-4.271212599356982 z"/><path fill="#c50a01" d="M 150.50470020305093,256.0856219407056 l 0.01038347653017733 1.999973045672153 a 20.0 20.0 0.0 0 1 -12.87987165499089,-4.612304375881923 l 1.2776036889689113 -1.538742608083961 a 18.0 18.0 0.0 0 0 11.5918844894918,4.151073938293731 z"/><path fill="#87000e" d="M 138.91281571355913,251.9345480024119 l -1.2776036889689122 1.53874260808396 a 20.0 20.0 0.0 0 1 -6.901822004471502,-11.812252051298719 l 1.9677858894160636 -0.3575174029540875 a 18.0 18.0 0.0 0 0 6.211639804024351,10.631026846168847 z"/><path fill="#f10810" d="M 128.3485650399727,225.5002385912132 l -1.7372192027013076 -0.9909941683813439 a 4.699999999999999 4.699999999999999 0.0 1 1 8.164930252696145,4.657672591392317 l -1.737219202701307 -0.9909941683813446 a 2.6999999999999997 2.6999999999999997 0.0 1 0 -4.690491847293531,-2.675684254629629 z"/><path fill="#c50a01" d="M 141.6001369454568,214.26309588550254 l -0.6937883440017741 -1.8758085546577705 a 4.699999999999999 4.699999999999999 0.0 1 1 3.260805216808338,8.816300206891523 l -0.6937883440017738 -1.8758085546577705 a 2.6999999999999997 2.6999999999999997 0.0 1 0 -1.8732285288047898,-5.064683097575981 z"/><path fill="#87000e" d="M 158.97452606575467,214.1728913889734 l 0.674273791454752 -1.8829112709199103 a 4.699999999999999 4.699999999999999 0.0 1 1 -3.169086819837335,8.84968297332358 l 0.6742737914547523 -1.8829112709199105 a 2.6999999999999997 2.6999999999999997 0.0 1 0 1.8205392369278308,-5.0838604314837585 z"/><path fill="#8d1e00" d="M 172.3420626366527,225.27183278806297 l 1.7268357261711313 -1.0089788772908082 a 4.699999999999999 4.699999999999999 0.0 1 1 -8.116127913004318,4.742200723266798 l 1.7268357261711307 -1.008978877290808 a 2.6999999999999997 2.6999999999999997 0.0 1 0 4.662456460662056,-2.724242968685182 z"/><path fill="#ff4d17" d="M 175.44792773300708,242.36660205114367 l 1.971392032970687 0.337065946573811 a 4.699999999999999 4.699999999999999 0.0 1 1 -9.26554255496223,-1.5842099488969115 l 1.9713920329706873 0.33706594657381095 a 2.6999999999999997 2.6999999999999997 0.0 1 0 5.322758489020856,0.9100780557492895 z"/><path fill="#ff2009" d="M 166.83885255838797,257.4583666528222 l 1.2935120979613093 1.5253938679658217 a 4.699999999999999 4.699999999999999 0.0 1 1 -6.079506860418154,-7.169351179439362 l 1.293512097961309 1.5253938679658212 a 2.6999999999999997 2.6999999999999997 0.0 1 0 3.492482664495536,4.118563443507719 z"/><path fill="#f10810" d="M 150.54311906621257,263.4855222096926 l 0.010383476530176839 1.9999730456721525 a 4.699999999999999 4.699999999999999 0.0 1 1 -0.04880233969183172,-9.399873314659118 l 0.010383476530177085 1.999973045672152 a 2.6999999999999997 2.6999999999999997 0.0 1 0 0.028035386631477796,5.399927223314813 z"/><path fill="#c50a01" d="M 134.18568206437416,257.62789565232254 l -1.2776036889689113 1.5387426080839601 a 4.699999999999999 4.699999999999999 0.0 1 1 6.004737338153883,-7.232090257994614 l -1.2776036889689113 1.5387426080839601 a 2.6999999999999997 2.6999999999999997 0.0 1 0 -3.4495299602160605,4.154605041826693 z"/><path fill="#87000e" d="M 125.42036811869535,242.62633554717317 l -1.967785889416062 0.3575174029540879 a 4.699999999999999 4.699999999999999 0.0 1 1 9.248593680255492,-1.6803317938842137 l -1.9677858894160627 0.35751740295408796 a 2.6999999999999997 2.6999999999999997 0.0 1 0 -5.313021901423368,0.9652969879760378 z"/><path fill="#ca9b23" d="M 49.85737430895417,238.18363538714593 l -17.304960553012396 4.953618905273686 a 18.0 18.0 0.0 0 1 0.06897277797581935,-10.14213752033036 l 17.235987775036577 5.188518615056674 z"/><path fill="#d9b561" d="M 49.85737430895417,238.18363538714593 l -17.23598777503658 -5.188518615056671 a 18.0 18.0 0.0 0 1 5.541277112879829,-8.494819520370564 l 11.694710662156751 13.683338135427235 z"/><path fill="#caaf46" d="M 49.85737430895417,238.18363538714593 l -11.694710662156753 -13.68333813542723 a 18.0 18.0 0.0 0 1 9.25426511723763,-4.150456344219675 l 2.4404455449191236 17.833794479646905 z"/><path fill="#bba21d" d="M 49.85737430895417,238.18363538714593 l -2.4404455449191276 -17.833794479646905 a 18.0 18.0 0.0 0 1 10.029089334385217,1.511647395497782 l -7.58864378946609 16.322147084149123 z"/><path fill="#bc9e22" d="M 49.85737430895417,238.18363538714593 l 7.5886437894660865 -16.322147084149126 a 18.0 18.0 0.0 0 1 7.619748550024541,6.693813767934799 l -15.208392339490628 9.628333316214327 z"/><path fill="#b8a84c" d="M 49.85737430895417,238.18363538714593 l 15.208392339490628 -9.628333316214327 a 18.0 18.0 0.0 0 1 2.7911914396016133,9.750741565280554 l -17.99958377909224 -0.12240824906622712 z"/><path fill="#dee462" d="M 49.85737430895417,238.18363538714593 l 17.99958377909224 0.1224082490662227 a 18.0 18.0 0.0 0 1 -2.9235492312785407,9.71187781109736 l -15.0760345478137 -9.834286060163581 z"/><path fill="#c8ad3f" d="M 49.85737430895417,238.18363538714593 l 15.076034547813702 9.834286060163578 a 18.0 18.0 0.0 0 1 -7.710083678039508,6.5895614727403 l -7.365950869774194 -16.423847532903878 z"/><path fill="#ca9b23" d="M 49.85737430895417,238.18363538714593 l 7.365950869774198 16.423847532903878 a 18.0 18.0 0.0 0 1 -10.048721033870992,1.3751059264046788 l 2.6827701640967936 -17.798953459308557 z"/><path fill="#d9b561" d="M 49.85737430895417,238.18363538714593 l -2.6827701640967896 17.798953459308557 a 18.0 18.0 0.0 0 1 -9.196960462318435,-4.275936035530233 l 11.879730626415224 -13.523017423778324 z"/><path fill="#caaf46" d="M 49.85737430895417,238.18363538714593 l -11.879730626415222 13.523017423778326 a 18.0 18.0 0.0 0 1 -5.4252299265971775,-8.569398518504645 l 17.3049605530124 -4.953618905273681 z"/><path fill="#ff6872" d="M 32.78665704454485,243.89245418603923 l -1.8967463627121472 0.6343131998770322 a 20.0 20.0 0.0 0 1 0.3602568600879583,-13.67606158583593 l 1.8607206767033517 0.73329295870656 a 18.0 18.0 0.0 0 0 -0.3242311740791628,12.308455427252337 z"/><path fill="#aa1f02" d="M 33.11088821862401,231.5839987587869 l -1.8607206767033515 -0.7332929587065609 a 20.0 20.0 0.0 0 1 9.066775702451253,-10.244902335613418 l 0.9540431064582258 1.7577831922679046 a 18.0 18.0 0.0 0 0 -8.160098132206127,9.220412102052073 z"/><path fill="#f50d1d" d="M 41.27098635083014,222.3635866567348 l -0.9540431064582262 -1.7577831922679024 a 20.0 20.0 0.0 0 1 13.53084942764994,-2.0200394231506604 l -0.39904183630676826 1.9597871345829674 a 18.0 18.0 0.0 0 0 -12.177764484884946,1.8180354808355954 z"/><path fill="#c10c24" d="M 53.44875083571509,220.54555117589922 l 0.3990418363067679 -1.9597871345829685 a 20.0 20.0 0.0 0 1 11.663688327010421,7.1500223856417415 l -1.5654106690078091 1.2447848960187944 a 18.0 18.0 0.0 0 0 -10.49731949430938,-6.435020147077568 z"/><path fill="#a60a03" d="M 63.94607033002447,226.98057132297677 l 1.56541066900781 -1.2447848960187944 a 20.0 20.0 0.0 0 1 4.338957830706129,12.97450925654501 l -1.9993064520784252 -0.052666029635707545 a 18.0 18.0 0.0 0 0 -3.9050620476355142,-11.677058330890508 z"/><path fill="#f3484e" d="M 67.85113237765998,238.65762965386728 l 1.999306452078423 0.05266602963570611 a 20.0 20.0 0.0 0 1 -5.016019256730429,12.728079050702302 l -1.4977045264053803 -1.3254739347059363 a 18.0 18.0 0.0 0 0 4.514417331057386,-11.455271145632071 z"/><path fill="#ff6872" d="M 63.3367150466026,250.11290079949936 l 1.4977045264053803 1.3254739347059359 a 20.0 20.0 0.0 0 1 -12.023945187098393,6.52603920019418 l -0.29531000769554083 -1.9780778547253526 a 18.0 18.0 0.0 0 0 10.821550668388554,-5.873435280174764 z"/><path fill="#aa1f02" d="M 52.51516437821407,255.98633607967412 l 0.2953100076955415 1.9780778547253541 a 20.0 20.0 0.0 0 1 -13.405733533157377,-2.7296069209315714 l 1.0452633456201958 -1.705117162632197 a 18.0 18.0 0.0 0 0 12.06516017984164,2.456646228838414 z"/><path fill="#f50d1d" d="M 40.45000419837241,253.5296898508357 l -1.0452633456201958 1.7051171626321973 a 20.0 20.0 0.0 0 1 -8.514830170919506,-10.708039627551633 l 1.8967463627121468 -0.6343131998770346 a 18.0 18.0 0.0 0 0 7.663347153827555,9.63723566479647 z"/><path fill="#ff6872" d="M 26.226221714821616,228.87081481157261 l -1.860720676703351 -0.7332929587065607 a 4.699999999999999 4.699999999999999 0.0 1 1 8.74538718050575,3.446476905920836 l -1.8607206767033508 -0.7332929587065609 a 2.6999999999999997 2.6999999999999997 0.0 1 0 -5.023945827099048,-1.9798909885077145 z"/><path fill="#aa1f02" d="M 37.7410268569347,215.8597888453436 l -0.954043106458226 -1.757783192267902 a 4.699999999999999 4.699999999999999 0.0 1 1 4.484002600353662,8.26158100365914 l -0.9540431064582258 -1.757783192267902 a 2.6999999999999997 2.6999999999999997 0.0 1 0 -2.57591638743721,-4.746014619123336 z"/><path fill="#f50d1d" d="M 54.92520563005013,213.29433877794224 l 0.3990418363067678 -1.959787134582968 a 4.699999999999999 4.699999999999999 0.0 1 1 -1.8754966306418095,9.210999532539951 l 0.39904183630676804 -1.9597871345829683 a 2.6999999999999997 2.6999999999999997 0.0 1 0 1.0774129580282736,-5.291425263374014 z"/><path fill="#c10c24" d="M 69.73808980535337,222.37486720770724 l 1.5654106690078096 -1.2447848960187942 a 4.699999999999999 4.699999999999999 0.0 1 1 -7.357430144336707,5.8504890112883325 l 1.56541066900781 -1.244784896018794 a 2.6999999999999997 2.6999999999999997 0.0 1 0 4.226608806321087,-3.360919219250744 z"/><path fill="#a60a03" d="M 75.24856625035015,238.8524939635194 l 1.9993064520784225 0.05266602963570659 a 4.699999999999999 4.699999999999999 0.0 1 1 -9.396740324768587,-0.24753033928782042 l 1.9993064520784225 0.05266602963570635 a 2.6999999999999997 2.6999999999999997 0.0 1 0 5.398127420611742,0.14219828001640747 z"/><path fill="#f3484e" d="M 68.8782217943025,255.0171543579113 l 1.4977045264053797 1.325473934705936 a 4.699999999999999 4.699999999999999 0.0 1 1 -7.039211274105285,-6.2297274931179 l 1.4977045264053803 1.3254739347059363 a 2.6999999999999997 2.6999999999999997 0.0 1 0 4.043802221294525,3.578779623706027 z"/><path fill="#ff6872" d="M 53.607811406687546,263.30522414215795 l 0.295310007695541 1.9780778547253537 a 4.699999999999999 4.699999999999999 0.0 1 1 -1.3879570361690434,-9.296965917209164 l 0.2953100076955413 1.9780778547253535 a 2.6999999999999997 2.6999999999999997 0.0 1 0 0.7973370207779611,5.340810207758456 z"/><path fill="#aa1f02" d="M 36.5825298195777,259.8386233525748 l -1.045263345620196 1.7051171626321966 a 4.699999999999999 4.699999999999999 0.0 1 1 4.912737724414921,-8.014050664371325 l -1.0452633456201958 1.705117162632197 a 2.6999999999999997 2.6999999999999997 0.0 1 0 -2.822211033174529,4.603816339106931 z"/><path fill="#f50d1d" d="M 25.768695502509914,246.23941302558424 l -1.8967463627121461 0.6343131998770337 a 4.699999999999999 4.699999999999999 0.0 1 1 8.914707904747088,-2.981272039422059 l -1.896746362712146 0.6343131998770339 a 2.6999999999999997 2.6999999999999997 0.0 1 0 -5.121215179322795,1.7126456396679914 z"/><path fill="#eac47a" d="M -27.234208462320378,173.62374750694784 l -2.1475013863376997 -17.871436366327067 a 18.0 18.0 0.0 0 1 10.002936224518006,1.6760004813901261 l -7.855434838180306 16.19543588493694 z"/><path fill="#dcce62" d="M -27.234208462320378,173.62374750694784 l 7.855434838180306 -16.19543588493694 a 18.0 18.0 0.0 0 1 7.508891167246045,6.817936943375843 l -15.364326005426351 9.377498941561099 z"/><path fill="#ebb73f" d="M -27.234208462320378,173.62374750694784 l 15.364326005426351 -9.377498941561099 a 18.0 18.0 0.0 0 1 2.6308262196631507,9.79522659908016 l -17.9951522250895 -0.4177276575190614 z"/><path fill="#dcc665" d="M -27.234208462320378,173.62374750694784 l 17.9951522250895 0.41772765751905694 a 18.0 18.0 0.0 0 1 -3.0825074641329806,9.662601019340444 l -14.912644760956521 -10.080328676859502 z"/><path fill="#ecb237" d="M -27.234208462320378,173.62374750694784 l 14.912644760956521 10.080328676859502 a 18.0 18.0 0.0 0 1 -7.817166808023879,6.462167888636493 l -7.095477952932642 -16.542496565495995 z"/><path fill="#aa973c" d="M -27.234208462320378,173.62374750694784 l 7.095477952932642 16.542496565495995 a 18.0 18.0 0.0 0 1 -10.06993092382846,1.2100421127868657 l 2.9744529708958187 -17.75253867828286 z"/><path fill="#dcc956" d="M -27.234208462320378,173.62374750694784 l -2.9744529708958187 17.75253867828286 a 18.0 18.0 0.0 0 1 -9.125563122049465,-4.426263484123574 l 12.100016092945284 -13.326275194159287 z"/><path fill="#c6b333" d="M -27.234208462320378,173.62374750694784 l -12.100016092945284 13.326275194159287 a 18.0 18.0 0.0 0 1 -5.2838935071676065,-8.657261699308062 l 17.38390960011289 -4.6690134948512245 z"/><path fill="#eac47a" d="M -27.234208462320378,173.62374750694784 l -17.38390960011289 4.6690134948512245 a 18.0 18.0 0.0 0 1 0.23537496203244856,-10.13964049425041 l 17.14853463808044 5.470626999399185 z"/><path fill="#dcce62" d="M -27.234208462320378,173.62374750694784 l -17.14853463808044 -5.470626999399185 a 18.0 18.0 0.0 0 1 5.679913543867212,-8.40275507554445 l 11.46862109421323 13.873382074943635 z"/><path fill="#ebb73f" d="M -27.234208462320378,173.62374750694784 l -11.46862109421323 -13.873382074943635 a 18.0 18.0 0.0 0 1 9.32111970787553,-3.9980542913834327 l 2.1475013863376997 17.871436366327067 z"/><path fill="#b40023" d="M -34.78710401814862,189.96246742996354 l -0.839210617314249 1.8154133247795217 a 20.0 20.0 0.0 0 1 -9.705872043139001,-9.641602220950107 l 1.8097978216281483 -0.8512531026845114 a 18.0 18.0 0.0 0 0 8.735284838825102,8.677441998855096 z"/><path fill="#b30400" d="M -43.52238885697372,181.28502543110844 l -1.8097978216281487 0.8512531026845114 a 20.0 20.0 0.0 0 1 -1.237626899117536,-13.624710094655152 l 1.933560511539902 0.5112179067810043 a 18.0 18.0 0.0 0 0 1.1138642092057829,12.262239085189636 z"/><path fill="#c01731" d="M -44.6362530661795,169.0227863459188 l -1.9335605115399024 -0.5112179067810033 a 20.0 20.0 0.0 0 1 7.809717625691906,-11.232664693285177 l 1.1525887489707127 1.634484376109521 a 18.0 18.0 0.0 0 0 -7.028745863122717,10.109398223956658 z"/><path fill="#59000e" d="M -37.607507203056784,158.91338812196216 l -1.152588748970712 -1.6344843761095205 a 20.0 20.0 0.0 0 1 13.202808478096792,-3.5847306447644987 l -0.16769209883896785 1.9929574405859682 a 18.0 18.0 0.0 0 0 -11.882527630287111,3.226257580288051 z"/><path fill="#f90e19" d="M -25.72497957276969,155.6871305416741 l 0.16769209883896516 -1.9929574405859707 a 20.0 20.0 0.0 0 1 12.418158510728421,5.740538712284844 l -1.4095079499118075 1.4189035693574858 a 18.0 18.0 0.0 0 0 -11.176342659655578,-5.166484841056359 z"/><path fill="#cd0204" d="M -14.548636913114112,160.85361538273045 l 1.409507949911807 -1.4189035693574863 a 20.0 20.0 0.0 0 1 5.822914163731525,12.379746206874836 l -1.9917993662849582 0.18092894867000275 a 18.0 18.0 0.0 0 0 -5.240622747358374,-11.141771586187353 z"/><path fill="#b40023" d="M -9.30801416575574,171.9953869689178 l 1.9917993662849598 -0.18092894867000253 a 20.0 20.0 0.0 0 1 -3.4969364349577514,13.22633286571462 l -1.6421057227891858 -1.1417043379014604 a 18.0 18.0 0.0 0 0 3.147242791461977,-11.903699579143156 z"/><path fill="#b30400" d="M -12.455256957217706,183.89908654806095 l 1.6421057227891849 1.141704337901459 a 20.0 20.0 0.0 0 1 -11.180531611610878,7.884171382370326 l -0.5240525616280962 -1.930121476138492 a 18.0 18.0 0.0 0 0 10.062478450449788,-7.095754244133293 z"/><path fill="#c01731" d="M -22.517735407667487,190.99484079219425 l 0.5240525616280978 1.9301214761384913 a 20.0 20.0 0.0 0 1 -13.63263178942344,-1.1470815135896821 l 0.8392106173142473 -1.8154133247795237 a 18.0 18.0 0.0 0 0 12.269368610481095,1.0323733622307145 z"/><path fill="#b40023" d="M -50.218640796997875,184.43466191104113 l -1.8097978216281485 0.8512531026845107 a 4.699999999999999 4.699999999999999 0.0 1 1 8.5060497616523,-4.000889582617201 l -1.8097978216281492 0.8512531026845105 a 2.6999999999999997 2.6999999999999997 0.0 1 0 -4.886454118396002,2.2983833772481796 z"/><path fill="#b30400" d="M -51.79042695887714,167.13128009082908 l -1.933560511539902 -0.5112179067810037 a 4.699999999999999 4.699999999999999 0.0 1 1 9.08773440423754,2.402724161870718 l -1.9335605115399028 -0.5112179067810037 a 2.6999999999999997 2.6999999999999997 0.0 1 0 -5.220613381157736,-1.3802883483087105 z"/><path fill="#c01731" d="M -41.872085574248416,152.8657959303569 l -1.1525887489707114 -1.6344843761095205 a 4.699999999999999 4.699999999999999 0.0 1 1 5.417167120162343,7.682076567714747 l -1.1525887489707114 -1.63448437610952 a 2.6999999999999997 2.6999999999999997 0.0 1 0 -3.111989622220921,-4.413107815495706 z"/><path fill="#59000e" d="M -25.104518807065496,148.313188011506 l 0.16769209883896688 -1.99295744058597 a 4.699999999999999 4.699999999999999 0.0 1 1 -0.7881528645431449,9.36689997075406 l 0.16769209883896713 -1.992957440585971 a 2.6999999999999997 2.6999999999999997 0.0 1 0 0.45276866686521094,-5.380985089582119 z"/><path fill="#f90e19" d="M -9.333457498440428,155.60367217610775 l 1.4095079499118068 -1.418903569357486 a 4.699999999999999 4.699999999999999 0.0 1 1 -6.624687364585492,6.6688467759801835 l 1.4095079499118066 -1.4189035693574854 a 2.6999999999999997 2.6999999999999997 0.0 1 0 3.805671464761879,-3.8310396372652122 z"/><path fill="#cd0204" d="M -1.9383565105013876,171.32594985883878 l 1.9917993662849593 -0.1809289486700025 a 4.699999999999999 4.699999999999999 0.0 1 1 -9.36145702153931,0.8503660587490112 l 1.9917993662849591 -0.1809289486700022 a 2.6999999999999997 2.6999999999999997 0.0 1 0 5.377858288969391,-0.48850816140900644 z"/><path fill="#b40023" d="M -6.379465782897734,188.12339259829636 l 1.6421057227891842 1.141704337901459 a 4.699999999999999 4.699999999999999 0.0 1 1 -7.717896897109167,-5.366010388136857 l 1.6421057227891849 1.1417043379014586 a 2.6999999999999997 2.6999999999999997 0.0 1 0 4.433685451530798,3.0826017123339398 z"/><path fill="#b30400" d="M -20.578740929643534,198.13629025390665 l 0.5240525616280972 1.930121476138491 a 4.699999999999999 4.699999999999999 0.0 1 1 -2.4630470396520576,-9.071570937850908 l 0.5240525616280973 1.930121476138491 a 2.6999999999999997 2.6999999999999997 0.0 1 0 1.414941916395863,5.211327985573926 z"/><path fill="#c01731" d="M -37.89218330221129,196.67949673164776 l -0.839210617314246 1.8154133247795226 a 4.699999999999999 4.699999999999999 0.0 1 1 3.944289901376956,-8.532442626463757 l -0.839210617314246 1.8154133247795228 a 2.6999999999999997 2.6999999999999997 0.0 1 0 -2.265868666748464,4.901615976904711 z"/><path fill="#dabd60" d="M -44.79149104335844,74.61448993143819 l -6.998986419651091 -16.5835517636464 a 18.0 18.0 0.0 0 1 10.076809349697156,-1.1513574836906884 l -3.077822930046065 17.73490924733709 z"/><path fill="#ebd366" d="M -44.79149104335844,74.61448993143819 l 3.0778229300460604 -17.734909247337093 a 18.0 18.0 0.0 0 1 9.099622316265165,4.479350893458063 l -12.177445246311226 13.25555835387903 z"/><path fill="#ceae43" d="M -44.79149104335844,74.61448993143819 l 12.177445246311226 -13.25555835387903 a 18.0 18.0 0.0 0 1 5.233369492277905,8.687897011514927 l -17.41081473858913 4.567661342364103 z"/><path fill="#b3ab1b" d="M -44.79149104335844,74.61448993143819 l 17.41081473858913 -4.567661342364103 a 18.0 18.0 0.0 0 1 -0.29444116828576483,10.138097214162679 l -17.116373570303367 -5.570435871798576 z"/><path fill="#b88515" d="M -44.79149104335844,74.61448993143819 l 17.116373570303367 5.570435871798573 a 18.0 18.0 0.0 0 1 -5.728768838340551,8.369523183685704 l -11.387604731962815 -13.939959055484277 z"/><path fill="#ccb97c" d="M -44.79149104335844,74.61448993143819 l 11.38760473196282 13.939959055484275 a 18.0 18.0 0.0 0 1 -9.3442528797686,3.9436846786134954 l -2.043351852194221 -17.88364373409777 z"/><path fill="#dfd137" d="M -44.79149104335844,74.61448993143819 l 2.0433518521942253 17.88364373409777 a 18.0 18.0 0.0 0 1 -9.993002655206002,-1.7342458471741153 l 7.949650803011777 -16.149397886923655 z"/><path fill="#edc06a" d="M -44.79149104335844,74.61448993143819 l -7.949650803011774 16.14939788692366 a 18.0 18.0 0.0 0 1 -7.46904469479824,-6.861565570079579 l 15.418695497810013 -9.28783231684408 z"/><path fill="#dabd60" d="M -44.79149104335844,74.61448993143819 l -15.41869549781001 9.287832316844083 a 18.0 18.0 0.0 0 1 -2.5737178175399897,-9.810386705990327 l 17.99241331535 0.5225543891462443 z"/><path fill="#ebd366" d="M -44.79149104335844,74.61448993143819 l -17.99241331535 -0.52255438914624 a 18.0 18.0 0.0 0 1 3.138746281766041,-9.64447937962925 l 14.853667033583958 10.16703376877549 z"/><path fill="#ceae43" d="M -44.79149104335844,74.61448993143819 l -14.85366703358396 -10.167033768775486 a 18.0 18.0 0.0 0 1 7.854680613932844,-6.416517994870901 l 6.998986419651116 16.583551763646387 z"/><path fill="#950800" d="M -61.47047758529065,67.84607741933137 l -1.8532207268813572 -0.752045834678535 a 20.0 20.0 0.0 0 1 9.169770316287142,-10.15282019201349 l 0.9362436952526441 1.767327853879884 a 18.0 18.0 0.0 0 0 -8.252793284658429,9.13753817281214 z"/><path fill="#cf002a" d="M -53.21768430063223,58.70853924651923 l -0.936243695252643 -1.767327853879884 a 20.0 20.0 0.0 0 1 13.5505586182707,-1.8832967470972939 l -0.4188121665744262 1.9556575285896152 a 18.0 18.0 0.0 0 0 -12.19550275644363,1.6949670723875627 z"/><path fill="#a8080a" d="M -41.0221815441886,57.01357217413167 l 0.4188121665744271 -1.9556575285896134 a 20.0 20.0 0.0 0 1 11.59088994508135,7.26744217629763 l -1.5779011610825613 1.2289133109598502 a 18.0 18.0 0.0 0 0 -10.431800950573216,-6.540697958667867 z"/><path fill="#911511" d="M -30.59038059361537,63.554270132799545 l 1.5779011610825622 -1.2289133109598502 a 20.0 20.0 0.0 0 1 4.207715048195712,13.017664136779882 l -1.9986726659021343 -0.07285310271813827 a 18.0 18.0 0.0 0 0 -3.7869435433761396,-11.715897723101893 z"/><path fill="#fb2222" d="M -26.803437050239243,75.27016785590142 l 1.9986726659021332 0.07285310271813736 a 20.0 20.0 0.0 0 1 -5.1442964832845,12.67677637244124 l -1.484243017573684 -1.3405307399622615 a 18.0 18.0 0.0 0 0 4.629866834956051,-11.409098735197116 z"/><path fill="#a40809" d="M -31.43330388519528,86.67926659109852 l 1.4842430175736834 1.3405307399622608 a 20.0 20.0 0.0 0 1 -12.08923451774888,6.404284056761248 l -0.2753195657987959 -1.9809591456383835 a 18.0 18.0 0.0 0 0 10.880311065973991,-5.763855651085125 z"/><path fill="#950800" d="M -42.31361495116928,92.44312224218365 l 0.2753195657987955 1.9809591456383857 a 20.0 20.0 0.0 0 1 -13.377485364482856,-2.864843944766387 l 1.0624289706494903 -1.6944747511617457 a 18.0 18.0 0.0 0 0 12.03973682803457,2.578359550289747 z"/><path fill="#cf002a" d="M -54.35335177920385,89.86476269189392 l -1.06242897064949 1.6944747511617473 a 20.0 20.0 0.0 0 1 -8.406262134986202,-10.793479625343924 l 1.903055184148112 -0.6151267886273555 a 18.0 18.0 0.0 0 0 7.56563592148758,9.714131662809532 z"/><path fill="#a8080a" d="M -61.91898770069143,80.15063102908438 l -1.9030551841481103 0.6151267886273549 a 20.0 20.0 0.0 0 1 0.49834457266752175,-13.671726233058882 l 1.8532207268813572 0.7520458346785333 a 18.0 18.0 0.0 0 0 -0.4485101154007687,12.304553609752993 z"/><path fill="#950800" d="M -56.681785973067,52.16942618716365 l -0.9362436952526427 -1.7673278538798836 a 4.699999999999999 4.699999999999999 0.0 1 1 4.40034536768742,8.306440913235454 l -0.9362436952526423 -1.7673278538798831 a 2.6999999999999997 2.6999999999999997 0.0 1 0 -2.5278579771821352,-4.771785205475687 z"/><path fill="#cf002a" d="M -39.47257652786322,49.7776393183501 l 0.418812166574427 -1.955657528589613 a 4.699999999999999 4.699999999999999 0.0 1 1 -1.9684171828998078,9.191590384371182 l 0.4188121665744273 -1.9556575285896125 a 2.6999999999999997 2.6999999999999997 0.0 1 0 1.1307928497509534,-5.280275327191956 z"/><path fill="#a8080a" d="M -24.752146297609897,59.00729088224809 l 1.5779011610825628 -1.2289133109598487 a 4.699999999999999 4.699999999999999 0.0 1 1 -7.416135457088046,5.775892561511288 l 1.577901161082563 -1.228913310959848 a 2.6999999999999997 2.6999999999999997 0.0 1 0 4.26033313492292,-3.3180659395915915 z"/><path fill="#911511" d="M -19.40834818640134,75.53972433595855 l 1.9986726659021328 0.07285310271813783 a 4.699999999999999 4.699999999999999 0.0 1 1 -9.393761529740024,-0.34240958277524725 l 1.9986726659021326 0.07285310271813755 a 2.6999999999999997 2.6999999999999997 0.0 1 0 5.396416197935759,0.19670337733897186 z"/><path fill="#fb2222" d="M -25.941604720172666,91.6392303289589 l 1.484243017573683 1.340530739962261 a 4.699999999999999 4.699999999999999 0.0 1 1 -6.97594218259631,-6.300494477822626 l 1.4842430175736832 1.3405307399622606 a 2.6999999999999997 2.6999999999999997 0.0 1 0 4.007456147448944,3.6194329978981044 z"/><path fill="#a40809" d="M -41.29493255771373,99.77267108104567 l 0.27531956579879546 1.9809591456383853 a 4.699999999999999 4.699999999999999 0.0 1 1 -1.2940019592543393,-9.310507984500411 l 0.2753195657987957 1.9809591456383844 a 2.6999999999999997 2.6999999999999997 0.0 1 0 0.7433628276567481,5.348589693223641 z"/><path fill="#950800" d="M -58.28433897060696,96.13431927119237 l -1.0624289706494898 1.6944747511617468 a 4.699999999999999 4.699999999999999 0.0 1 1 4.993416162052602,-7.964031330460211 l -1.0624289706494894 1.6944747511617466 a 2.6999999999999997 2.6999999999999997 0.0 1 0 -2.8685582207536227,4.575081828136717 z"/><path fill="#cf002a" d="M -68.96029188203943,82.4266001470056 l -1.9030551841481098 0.6151267886273548 a 4.699999999999999 4.699999999999999 0.0 1 1 8.944359365496116,-2.8910959065485677 l -1.9030551841481094 0.6151267886273546 a 2.6999999999999997 2.6999999999999997 0.0 1 0 -5.138248997199897,1.6608423292938586 z"/><path fill="#a8080a" d="M -68.32739427475168,65.06350783102081 l -1.8532207268813574 -0.7520458346785331 a 4.699999999999999 4.699999999999999 0.0 1 1 8.710137416342379,3.534615422989107 l -1.8532207268813563 -0.7520458346785337 a 2.6999999999999997 2.6999999999999997 0.0 1 0 -5.003695962579665,-2.03052375363204 z"/><circle fill="#240001" r="3.999999999999999" cx="-21.721289536384624" cy="-1.169638448024585"/><circle fill="#9a0c23" r="3.999999999999999" cx="-22.669621743130385" cy="-21.258050936745764"/><circle fill="#da080c" r="3.999999999999999" cx="-10.483503714316427" cy="-37.25624388717537"/><circle fill="#870f00" r="3.999999999999999" cx="9.135044490759228" cy="-41.67848501769781"/><circle fill="#dc002a" r="3.999999999999999" cx="27.006286131065195" cy="-32.45555855560601"/><circle fill="#d50720" r="3.999999999999999" cx="34.768068626375374" cy="-13.902974293922734"/><circle fill="#240001" r="3.999999999999999" cx="28.78856768453039" cy="5.298307402303573"/><circle fill="#9a0c23" r="3.999999999999999" cx="11.865658250970148" cy="16.163793428932934"/><circle fill="#da080c" r="3.999999999999999" cx="-8.082242273154003" cy="13.609402117679272"/><circle fill="#a40018" r="3.999999999999999" cx="108.95442488899504" cy="-74.95700668224316"/><circle fill="#862f13" r="3.999999999999999" cx="124.79650998998471" cy="-62.5686254343012"/><circle fill="#3f0004" r="3.999999999999999" cx="128.96915327876567" cy="-42.895478805559996"/><circle fill="#9d220e" r="3.999999999999999" cx="119.51992858675263" cy="-25.142850746277837"/><circle fill="#de0006" r="3.999999999999999" cx="100.87023316377326" cy="-17.61739322387678"/><circle fill="#c5020e" r="3.999999999999999" cx="81.7464667665167" cy="-23.840351449232454"/><circle fill="#a40018" r="3.999999999999999" cx="71.09685222924846" cy="-40.899934108224"/><circle fill="#862f13" r="3.999999999999999" cx="73.90446255123813" cy="-60.81377287856701"/><circle fill="#3f0004" r="3.999999999999999" cx="88.85558565971371" cy="-74.26396128195256"/><circle fill="#9d0b04" r="3.999999999999999" cx="217.72371097652146" cy="-30.573307831159"/><circle fill="#661206" r="3.999999999999999" cx="223.7508896975659" cy="-11.386938530117478"/><circle fill="#f00700" r="3.999999999999999" cx="216.0352160029273" cy="7.184868859827689"/><circle fill="#cb0b00" r="3.999999999999999" cx="198.18693936448847" cy="16.452159258273078"/><circle fill="#7a0001" r="3.999999999999999" cx="178.55746678287431" cy="12.078664493325823"/><circle fill="#690305" r="3.999999999999999" cx="166.33164663630956" cy="-3.889208628515127"/><circle fill="#9d0b04" r="3.999999999999999" cx="167.23007604622768" cy="-23.979914810398174"/><circle fill="#661206" r="3.999999999999999" cx="180.83236990679725" cy="-38.792789346492455"/><circle fill="#f00700" r="3.999999999999999" cx="200.77386374800068" cy="-41.39672361459668"/><circle fill="#a70010" r="3.999999999999999" cx="215.39049000742938" cy="72.64253220764611"/><circle fill="#da0500" r="3.999999999999999" cx="223.34399657238" cy="54.17132803432142"/><circle fill="#820f00" r="3.999999999999999" cx="241.30979725837418" cy="45.13398019314079"/><circle fill="#e40800" r="3.999999999999999" cx="260.88149425680143" cy="49.759164177926046"/><circle fill="#eb0200" r="3.999999999999999" cx="272.90127302691445" cy="65.88270499900194"/><circle fill="#bc0705" r="3.999999999999999" cx="271.74494549721624" cy="85.9602187129911"/><circle fill="#a70010" r="3.999999999999999" cx="257.9535701700016" cy="100.59721351640812"/><circle fill="#da0500" r="3.999999999999999" cx="237.98028483493798" cy="102.94487686865689"/><circle fill="#820f00" r="3.999999999999999" cx="221.170811678642" cy="91.90471099584836"/><circle fill="#660a00" r="3.999999999999999" cx="238.54217664720738" cy="200.57364528212435"/><circle fill="#810811" r="3.999999999999999" cx="218.44786248955137" cy="201.38739513606345"/><circle fill="#d60011" r="3.999999999999999" cx="202.5316564672957" cy="189.09438752407232"/><circle fill="#e90500" r="3.999999999999999" cx="198.24092826718015" cy="169.44665732936298"/><circle fill="#8b0009" r="3.999999999999999" cx="207.58335730017103" cy="151.63759587023796"/><circle fill="#9e1304" r="3.999999999999999" cx="226.18751719219867" cy="144.0002609290933"/><circle fill="#660a00" r="3.999999999999999" cx="245.3483147675773" cy="150.1082464044136"/><circle fill="#810811" r="3.999999999999999" cx="256.1001998922425" cy="167.10355800959948"/><circle fill="#d60011" r="3.999999999999999" cx="253.41224602247044" cy="187.03390056273534"/><circle fill="#f10810" r="3.999999999999999" cx="124.87412663457009" cy="223.5182502544505"/><circle fill="#c50a01" r="3.999999999999999" cx="140.21256025745325" cy="210.511478776187"/><circle fill="#87000e" r="3.999999999999999" cx="160.32307364866418" cy="210.4070688471336"/><circle fill="#8d1e00" r="3.999999999999999" cx="175.79573408899498" cy="223.25387503348134"/><circle fill="#ff4d17" r="3.999999999999999" cx="179.39071179894844" cy="243.0407339442913"/><circle fill="#ff2009" r="3.999999999999999" cx="169.4258767543106" cy="260.5091543887538"/><circle fill="#f10810" r="3.999999999999999" cx="150.56388601927293" cy="267.4854683010369"/><circle fill="#c50a01" r="3.999999999999999" cx="131.63047468643634" cy="260.70538086849047"/><circle fill="#87000e" r="3.999999999999999" cx="121.48479633986322" cy="243.34137035308135"/><circle fill="#ff6872" r="3.999999999999999" cx="22.504780361414912" cy="227.4042288941595"/><circle fill="#aa1f02" r="3.999999999999999" cx="35.83294064401825" cy="212.34422246080777"/><circle fill="#f50d1d" r="3.999999999999999" cx="55.723289302663666" cy="209.3747645087763"/><circle fill="#c10c24" r="3.999999999999999" cx="72.86891114336899" cy="219.88529741566964"/><circle fill="#a60a03" r="3.999999999999999" cx="79.247179154507" cy="238.9578260227908"/><circle fill="#f3484e" r="3.999999999999999" cx="71.87363084711326" cy="257.6681022273232"/><circle fill="#ff6872" r="3.999999999999999" cx="54.19843142207863" cy="267.26137985160864"/><circle fill="#aa1f02" r="3.999999999999999" cx="34.49200312833731" cy="263.2488576778392"/><circle fill="#f50d1d" r="3.999999999999999" cx="21.97520277708562" cy="247.5080394253383"/><circle fill="#b40023" r="3.999999999999999" cx="-53.83823644025417" cy="186.13716811641015"/><circle fill="#b30400" r="3.999999999999999" cx="-55.657547981956945" cy="166.10884427726708"/><circle fill="#c01731" r="3.999999999999999" cx="-44.17726307218984" cy="149.59682717813786"/><circle fill="#59000e" r="3.999999999999999" cx="-24.769134609387564" cy="144.32727313033408"/><circle fill="#f90e19" r="3.999999999999999" cx="-6.5144415986168145" cy="152.76586503739279"/><circle fill="#cd0204" r="3.999999999999999" cx="2.045242222068531" cy="170.96409196149878"/><circle fill="#b40023" r="3.999999999999999" cx="-3.0952543373193655" cy="190.40680127409928"/><circle fill="#b30400" r="3.999999999999999" cx="-19.530635806387338" cy="201.99653320618364"/><circle fill="#c01731" r="3.999999999999999" cx="-39.57060453683979" cy="200.3103233812068"/><circle fill="#950800" r="3.999999999999999" cx="-58.554273363572285" cy="48.63477047940388"/><circle fill="#cf002a" r="3.999999999999999" cx="-38.634952194714366" cy="45.866324261170874"/><circle fill="#a8080a" r="3.999999999999999" cx="-21.59634397544477" cy="56.54946426032839"/><circle fill="#911511" r="3.999999999999999" cx="-15.411002854597076" cy="75.68543054139482"/><circle fill="#fb2222" r="3.999999999999999" cx="-22.9731186850253" cy="94.32029180888343"/><circle fill="#a40809" r="3.999999999999999" cx="-40.74429342611614" cy="103.73458937232245"/><circle fill="#950800" r="3.999999999999999" cx="-60.40919691190594" cy="99.52326877351587"/><circle fill="#cf002a" r="3.999999999999999" cx="-72.76640225033564" cy="83.65685372426032"/><circle fill="#a8080a" r="3.999999999999999" cx="-72.0338357285144" cy="63.55941616166375"/></g></svg>