<?xml version='1.0' encoding='UTF-8'?>
<svg preserveAspectRatio="xMidYMid meet" xmlns="http://www.w3.org/2000/svg" xmlns:svg="http://www.w3.org/2000/svg"><g><path fill="#800000" d="M 0.0,0.0 l 10.0 0.0 a 110.0 110.0 0.0 1 1 -220.0,1.3471114790620885E-14 l 10.0 -1.224646799147353E-15 a 100.0 100.0 0.0 1 0 200.0,-1.2246467991473532E-14 z"/><path fill="#807f00" d="M 10.0,0.0 l -10.0 1.2246467991473533E-15 a 102.59639071114748 102.59639071114748 0.0 0 1 204.63050624468147,-10.726539714365774 l -9.945195423180479 1.0455084862161996 a 92.59639071114748 92.59639071114748 0.0 0 0 -184.685310821501,9.681031228149573 z"/><path fill="#008000" d="M 474.3732939710744,20.953312842963207 l 9.43233746275251 3.3212964319306906 a 149.2038859199724 149.2038859199724 0.0 0 1 -289.12032061232594,-33.95564050304347 l 9.94519542318045 -1.045508486216189 a 139.2038859199724 139.2038859199724 0.0 0 0 269.742787726393,31.679852557328967 z"/><path fill="#008080" d="M 483.80563143382693,24.274609274893898 l -9.43233746275251 -3.3212964319306892 a 141.6405954248351 141.6405954248351 0.0 0 1 272.293990588123,75.78478353687963 l -9.791952704300769 -2.0292023646587865 a 131.6405954248351 131.6405954248351 0.0 0 0 -253.0697004210697,-70.43428474029015 z"/><path fill="#000080" d="M 923.9508026824215,-6.427289277635957 l 3.0735642213035588 -9.515944670789267 a 147.79743103085337 147.79743103085337 0.0 1 1 -190.1490350488283,110.65212796360927 l 9.791952704300797 2.0292023646587865 a 137.79743103085337 137.79743103085337 0.0 1 0 177.28351812322393,-103.1653856574788 z"/><path fill="#7f0080" d="M 927.024366903725,-15.943233948425224 l -3.073564221303568 9.515944670789263 a 199.2987975295447 199.2987975295447 0.0 1 1 250.20595373530088,-253.03804326724614 l -9.480749042839903 3.18047128373928 a 189.2987975295447 189.2987975295447 0.0 1 0 -237.6516404711574,240.3416273127176 z"/></g></svg>