<?xml version='1.0' encoding='UTF-8'?>
<svg xmlns="http://www.w3.org/2000/svg" xmlns:svg="http://www.w3.org/2000/svg"><g><path fill="#60000f" d="M 100.0,100.0 l 79.84331255479445 -5.004541964795798 a 80.0 80.0 0.0 0 1 -19.846819254862588,57.923544144648275 l -59.99649329993186 -52.91900217985248 z"/><path fill="#ffe0e4" d="M 100.0,100.0 l 59.996493299931885 52.919002179852455 a 80.0 80.0 0.0 0 1 -54.9919513351361,26.924310374941996 l -5.0045419647957825 -79.84331255479445 z"/><path fill="#722300" d="M 100.0,100.0 l 5.004541964795802 79.84331255479445 a 80.0 80.0 0.0 0 1 -57.923544144648275,-19.846819254862588 l 52.91900217985248 -59.99649329993186 z"/><path fill="#96001a" d="M 100.0,100.0 l -52.919002179852455 59.996493299931885 a 80.0 80.0 0.0 0 1 -26.92431037494201,-54.991951335136235 l 79.84331255479447 -5.004541964795646 z"/><path fill="#ff111b" d="M 100.0,100.0 l -79.84331255479447 5.004541964795665 a 80.0 80.0 0.0 0 1 19.846819254862595,-57.92354414464813 l 59.99649329993187 52.91900217985247 z"/><path fill="#f96961" d="M 100.0,100.0 l -59.996493299931885 -52.91900217985245 a 80.0 80.0 0.0 0 1 54.99195133513609,-26.924310374942003 l 5.004541964795792 79.84331255479445 z"/><path fill="#950022" d="M 100.0,100.0 l -5.004541964795721 -79.84331255479445 a 80.0 80.0 0.0 0 1 57.92354414464819,19.84681925486258 l -52.91900217985247 59.99649329993187 z"/><path fill="#110000" d="M 100.0,100.0 l 52.91900217985247 -59.99649329993187 a 80.0 80.0 0.0 0 1 26.92431037494198,54.99195133513607 l -79.84331255479445 5.004541964795798 z"/><path fill="#000000" d="M 73.18279439390194,24.628669353126966 l -6.704301401524518 -18.84283266171826 a 100.0 100.0 0.0 0 1 98.35261232534715,18.076605012556453 l -12.966221063544907 15.22751165920696 a 80.0 80.0 0.0 0 0 -78.68208986027773,-14.461284010045155 z"/><path fill="#000000" d="M 151.86488425417966,39.08995336317212 l 12.966221063544914 -15.22751165920697 a 100.0 100.0 0.0 0 1 33.52150700762255,94.21416330859121 l -19.670522465069425 -3.61532100251128 a 80.0 80.0 0.0 0 0 -26.817205606098042,-75.37133064687296 z"/><path fill="#ef0219" d="M 178.6820898602777,114.46128401004508 l 19.670522465069425 3.6153210025112674 a 100.0 100.0 0.0 0 1 -64.83110531772455,76.13755829603495 l -6.704301401524518 -18.842832661718255 a 80.0 80.0 0.0 0 0 51.86488425417964,-60.910046636827964 z"/><path fill="#be0c00" d="M 126.81720560609807,175.37133064687305 l 6.7043014015245195 18.84283266171826 a 100.0 100.0 0.0 0 1 -98.35261232534718,-18.076605012556453 l 12.966221063544921 -15.22751165920696 a 80.0 80.0 0.0 0 0 78.68208986027774,14.461284010045155 z"/><path fill="#ad122b" d="M 48.13511574582034,160.91004663682787 l -12.96622106354491 15.227511659206971 a 100.0 100.0 0.0 0 1 -33.521507007622574,-94.21416330859121 l 19.670522465069425 3.61532100251128 a 80.0 80.0 0.0 0 0 26.817205606098057,75.37133064687296 z"/><path fill="#bb000b" d="M 21.3179101397223,85.53871598995491 l -19.670522465069425 -3.615321002511265 a 100.0 100.0 0.0 0 1 64.8311053177247,-76.13755829603502 l 6.704301401524482 18.842832661718276 a 80.0 80.0 0.0 0 0 -51.86488425417976,60.910046636828014 z"/><path fill="#000000" d="M 195.9500358702324,-12.683586278131578 l 12.966221063544914 -15.22751165920697 a 44.0 44.0 0.0 1 1 -57.05137267959763,67.00105130051067 l 12.966221063544918 -15.227511659206975 a 24.0 24.0 0.0 1 0 31.118930552507795,-36.546027982096724 z"/><path fill="#000000" d="M 245.56186624151374,126.7533754185834 l 19.670522465069425 3.6153210025112728 a 44.0 44.0 0.0 1 1 -86.55029884630547,-15.907412411049595 l 19.670522465069425 3.615321002511271 a 24.0 24.0 0.0 1 0 47.20925391616662,8.676770406027051 z"/><path fill="#ef0219" d="M 149.61183037128143,239.43696169671512 l 6.704301401524515 18.84283266171826 a 44.0 44.0 0.0 1 1 -29.49892616670787,-82.90846371156033 l 6.704301401524518 18.842832661718248 a 24.0 24.0 0.0 1 0 16.09032336365884,45.22279838812382 z"/><path fill="#be0c00" d="M 4.049964129767616,212.6835862781316 l -12.966221063544916 15.22751165920697 a 44.0 44.0 0.0 1 1 57.05137267959763,-67.00105130051067 l -12.966221063544918 15.227511659206975 a 24.0 24.0 0.0 1 0 -31.118930552507795,36.546027982096724 z"/><path fill="#ad122b" d="M -45.561866241513755,73.24662458141658 l -19.670522465069425 -3.61532100251127 a 44.0 44.0 0.0 1 1 86.55029884630547,15.907412411049595 l -19.670522465069425 -3.6153210025112728 a 24.0 24.0 0.0 1 0 -47.20925391616662,-8.676770406027051 z"/><path fill="#bb000b" d="M 50.38816962871883,-39.43696169671523 l -6.704301401524484 -18.84283266171827 a 44.0 44.0 0.0 1 1 29.498926166707726,82.90846371156039 l -6.704301401524482 -18.842832661718276 a 24.0 24.0 0.0 1 0 -16.090323363658758,-45.22279838812385 z"/><path fill="#d63000" d="M 208.9162569337773,-27.911097937338546 l 6.712922865851441 14.523658857090002 a 16.0 16.0 0.0 0 1 -12.235947251314075,0.49287208842418195 l 5.523024385462634 -15.016530945514184 z"/><path fill="#cf111c" d="M 208.9162569337773,-27.911097937338546 l -5.52302438546263 15.016530945514186 a 16.0 16.0 0.0 0 1 -9.000634471627373,-8.303608079662748 l 14.523658857090004 -6.712922865851438 z"/><path fill="#040000" d="M 208.9162569337773,-27.911097937338546 l -14.523658857090002 6.712922865851442 a 16.0 16.0 0.0 0 1 -0.4928720884241926,-12.235947251314048 l 15.016530945514194 5.523024385462606 z"/><path fill="#fa2e2e" d="M 208.9162569337773,-27.911097937338546 l -15.016530945514194 -5.523024385462603 a 16.0 16.0 0.0 0 1 8.303608079662755,-9.0006344716274 l 6.712922865851439 14.523658857090004 z"/><path fill="#ff3101" d="M 208.9162569337773,-27.911097937338546 l -6.712922865851443 -14.523658857090002 a 16.0 16.0 0.0 0 1 12.235947251314075,-0.49287208842418195 l -5.523024385462632 15.016530945514184 z"/><path fill="#451101" d="M 208.9162569337773,-27.911097937338546 l 5.523024385462632 -15.016530945514184 a 16.0 16.0 0.0 0 1 9.000634471627377,8.303608079662757 l -14.523658857090009 6.712922865851427 z"/><path fill="#480a00" d="M 208.9162569337773,-27.911097937338546 l 14.523658857090009 -6.712922865851427 a 16.0 16.0 0.0 0 1 0.49287208842417485,12.235947251314062 l -15.016530945514184 -5.523024385462635 z"/><path fill="#ed020e" d="M 208.9162569337773,-27.911097937338546 l 15.016530945514184 5.523024385462631 a 16.0 16.0 0.0 0 1 -8.303608079662759,9.000634471627379 l -6.712922865851424 -14.52365885709001 z"/><path fill="#60000f" d="M 100.0,100.0 l 79.84331255479445 -5.004541964795798 a 80.0 80.0 0.0 0 1 -19.846819254862588,57.923544144648275 l -59.99649329993186 -52.91900217985248 z"/><path fill="#ffe0e4" d="M 100.0,100.0 l 59.996493299931885 52.919002179852455 a 80.0 80.0 0.0 0 1 -54.9919513351361,26.924310374941996 l -5.0045419647957825 -79.84331255479445 z"/><path fill="#722300" d="M 100.0,100.0 l 5.004541964795802 79.84331255479445 a 80.0 80.0 0.0 0 1 -57.923544144648275,-19.846819254862588 l 52.91900217985248 -59.99649329993186 z"/><path fill="#96001a" d="M 100.0,100.0 l -52.919002179852455 59.996493299931885 a 80.0 80.0 0.0 0 1 -26.92431037494201,-54.991951335136235 l 79.84331255479447 -5.004541964795646 z"/><path fill="#ff111b" d="M 100.0,100.0 l -79.84331255479447 5.004541964795665 a 80.0 80.0 0.0 0 1 19.846819254862595,-57.92354414464813 l 59.99649329993187 52.91900217985247 z"/><path fill="#f96961" d="M 100.0,100.0 l -59.996493299931885 -52.91900217985245 a 80.0 80.0 0.0 0 1 54.99195133513609,-26.924310374942003 l 5.004541964795792 79.84331255479445 z"/><path fill="#950022" d="M 100.0,100.0 l -5.004541964795721 -79.84331255479445 a 80.0 80.0 0.0 0 1 57.92354414464819,19.84681925486258 l -52.91900217985247 59.99649329993187 z"/><path fill="#110000" d="M 100.0,100.0 l 52.91900217985247 -59.99649329993187 a 80.0 80.0 0.0 0 1 26.92431037494198,54.99195133513607 l -79.84331255479445 5.004541964795798 z"/><path fill="#000000" d="M 73.18279439390194,24.628669353126966 l -6.704301401524518 -18.84283266171826 a 100.0 100.0 0.0 0 1 98.35261232534715,18.076605012556453 l -12.966221063544907 15.22751165920696 a 80.0 80.0 0.0 0 0 -78.68208986027773,-14.461284010045155 z"/><path fill="#000000" d="M 151.86488425417966,39.08995336317212 l 12.966221063544914 -15.22751165920697 a 100.0 100.0 0.0 0 1 33.52150700762255,94.21416330859121 l -19.670522465069425 -3.61532100251128 a 80.0 80.0 0.0 0 0 -26.817205606098042,-75.37133064687296 z"/><path fill="#ef0219" d="M 178.6820898602777,114.46128401004508 l 19.670522465069425 3.6153210025112674 a 100.0 100.0 0.0 0 1 -64.83110531772455,76.13755829603495 l -6.704301401524518 -18.842832661718255 a 80.0 80.0 0.0 0 0 51.86488425417964,-60.910046636827964 z"/><path fill="#be0c00" d="M 126.81720560609807,175.37133064687305 l 6.7043014015245195 18.84283266171826 a 100.0 100.0 0.0 0 1 -98.35261232534718,-18.076605012556453 l 12.966221063544921 -15.22751165920696 a 80.0 80.0 0.0 0 0 78.68208986027774,14.461284010045155 z"/><path fill="#ad122b" d="M 48.13511574582034,160.91004663682787 l -12.96622106354491 15.227511659206971 a 100.0 100.0 0.0 0 1 -33.521507007622574,-94.21416330859121 l 19.670522465069425 3.61532100251128 a 80.0 80.0 0.0 0 0 26.817205606098057,75.37133064687296 z"/><path fill="#bb000b" d="M 21.3179101397223,85.53871598995491 l -19.670522465069425 -3.615321002511265 a 100.0 100.0 0.0 0 1 64.8311053177247,-76.13755829603502 l 6.704301401524482 18.842832661718276 a 80.0 80.0 0.0 0 0 -51.86488425417976,60.910046636828014 z"/><path fill="#000000" d="M 195.9500358702324,-12.683586278131578 l 12.966221063544914 -15.22751165920697 a 44.0 44.0 0.0 1 1 -57.05137267959763,67.00105130051067 l 12.966221063544918 -15.227511659206975 a 24.0 24.0 0.0 1 0 31.118930552507795,-36.546027982096724 z"/><path fill="#000000" d="M 245.56186624151374,126.7533754185834 l 19.670522465069425 3.6153210025112728 a 44.0 44.0 0.0 1 1 -86.55029884630547,-15.907412411049595 l 19.670522465069425 3.615321002511271 a 24.0 24.0 0.0 1 0 47.20925391616662,8.676770406027051 z"/><path fill="#ef0219" d="M 149.61183037128143,239.43696169671512 l 6.704301401524515 18.84283266171826 a 44.0 44.0 0.0 1 1 -29.49892616670787,-82.90846371156033 l 6.704301401524518 18.842832661718248 a 24.0 24.0 0.0 1 0 16.09032336365884,45.22279838812382 z"/><path fill="#be0c00" d="M 4.049964129767616,212.6835862781316 l -12.966221063544916 15.22751165920697 a 44.0 44.0 0.0 1 1 57.05137267959763,-67.00105130051067 l -12.966221063544918 15.227511659206975 a 24.0 24.0 0.0 1 0 -31.118930552507795,36.546027982096724 z"/><path fill="#ad122b" d="M -45.561866241513755,73.24662458141658 l -19.670522465069425 -3.61532100251127 a 44.0 44.0 0.0 1 1 86.55029884630547,15.907412411049595 l -19.670522465069425 -3.6153210025112728 a 24.0 24.0 0.0 1 0 -47.20925391616662,-8.676770406027051 z"/><path fill="#bb000b" d="M 50.38816962871883,-39.43696169671523 l -6.704301401524484 -18.84283266171827 a 44.0 44.0 0.0 1 1 29.498926166707726,82.90846371156039 l -6.704301401524482 -18.842832661718276 a 24.0 24.0 0.0 1 0 -16.090323363658758,-45.22279838812385 z"/><path fill="#720e00" d="M 195.41803476129246,-36.50167406366668 l -3.374555543121209 -2.1476440315820318 a 20.0 20.0 0.0 0 1 17.735960305983347,-9.243144055167722 l -0.17263651807546054 3.996272842615575 a 16.0 16.0 0.0 0 0 -14.188768244786678,7.39451524413418 z"/><path fill="#f91e39" d="M 209.60680300607916,-43.89618930780085 l 0.1726365180754595 -3.9962728426155767 a 20.0 20.0 0.0 0 1 16.872777715606063,10.738220157910153 l -3.5471920611966716 1.8486288110335458 a 16.0 16.0 0.0 0 0 -13.498222172484851,-8.590576126328122 z"/><path fill="#050100" d="M 223.105025178564,-35.30561318147273 l 3.5471920611966725 -1.8486288110335463 a 20.0 20.0 0.0 0 1 -0.8631825903773214,19.981364213077896 l -3.3745555431212093 -2.1476440315820327 a 16.0 16.0 0.0 0 0 0.6905460723018582,-15.985091370462317 z"/><path fill="#ffb59d" d="M 222.41447910626215,-19.320521811010416 l 3.3745555431212084 2.147644031582032 a 20.0 20.0 0.0 0 1 -17.735960305983347,9.24314405516772 l 0.17263651807546054 -3.996272842615575 a 16.0 16.0 0.0 0 0 14.188768244786678,-7.394515244134178 z"/><path fill="#ffdadb" d="M 208.22571086147548,-11.92600656687624 l -0.17263651807546 3.9962728426155767 a 20.0 20.0 0.0 0 1 -16.87277771560608,-10.738220157910186 l 3.547192061196677 -1.8486288110335387 a 16.0 16.0 0.0 0 0 13.498222172484864,8.590576126328148 z"/><path fill="#5c0c06" d="M 194.7274886889906,-20.516582693204388 l -3.5471920611966756 1.8486288110335403 a 20.0 20.0 0.0 0 1 0.8631825903773369,-19.981364213077864 l 3.3745555431212075 2.1476440315820327 a 16.0 16.0 0.0 0 0 -0.6905460723018688,15.985091370462293 z"/><path fill="#720e00" d="M 210.1937671675357,-57.48351697269382 l 0.1726365180754605 -3.9962728426155776 a 8.8 8.8 0.0 1 1 -0.7596006795320271,17.58360050750854 l 0.172636518075461 -3.9962728426155767 a 4.8 4.8 0.0 1 0 0.4143276433811057,-9.591054822277384 z"/><path fill="#f91e39" d="M 235.1654781866327,-41.59095113898679 l 3.5471920611966734 -1.8486288110335467 a 8.8 8.8 0.0 1 1 -15.607645069265361,8.133966768547602 l 3.5471920611966734 -1.8486288110335458 a 4.8 4.8 0.0 1 0 8.513260946872014,-4.43670914648051 z"/><path fill="#050100" d="M 233.88796795287425,-12.0185321036315 l 3.374555543121209 2.1476440315820335 a 8.8 8.8 0.0 1 1 -14.848044389733317,-9.449633738960944 l 3.3745555431212093 2.1476440315820327 a 4.8 4.8 0.0 1 0 8.098933303490899,5.154345675796879 z"/><path fill="#ffb59d" d="M 207.6387467000189,1.661321098016721 l -0.172636518075461 3.9962728426155776 a 8.8 8.8 0.0 1 1 0.7596006795320271,-17.58360050750854 l -0.17263651807546043 3.9962728426155767 a 4.8 4.8 0.0 1 0 -0.4143276433811057,9.591054822277384 z"/><path fill="#ffdadb" d="M 182.6670356809219,-14.231244735690353 l -3.547192061196677 1.8486288110335398 a 8.8 8.8 0.0 1 1 15.607645069265375,-8.133966768547575 l -3.547192061196677 1.8486288110335405 a 4.8 4.8 0.0 1 0 -8.513260946872022,4.436709146480495 z"/><path fill="#5c0c06" d="M 183.94454591468036,-43.80366377104559 l -3.3745555431212093 -2.147644031582033 a 8.8 8.8 0.0 1 1 14.848044389733317,9.449633738960944 l -3.3745555431212093 -2.1476440315820327 a 4.8 4.8 0.0 1 0 -8.098933303490899,-5.154345675796879 z"/><path fill="#60000f" d="M 100.0,100.0 l 79.84331255479445 -5.004541964795798 a 80.0 80.0 0.0 0 1 -19.846819254862588,57.923544144648275 l -59.99649329993186 -52.91900217985248 z"/><path fill="#ffe0e4" d="M 100.0,100.0 l 59.996493299931885 52.919002179852455 a 80.0 80.0 0.0 0 1 -54.9919513351361,26.924310374941996 l -5.0045419647957825 -79.84331255479445 z"/><path fill="#722300" d="M 100.0,100.0 l 5.004541964795802 79.84331255479445 a 80.0 80.0 0.0 0 1 -57.923544144648275,-19.846819254862588 l 52.91900217985248 -59.99649329993186 z"/><path fill="#96001a" d="M 100.0,100.0 l -52.919002179852455 59.996493299931885 a 80.0 80.0 0.0 0 1 -26.92431037494201,-54.991951335136235 l 79.84331255479447 -5.004541964795646 z"/><path fill="#ff111b" d="M 100.0,100.0 l -79.84331255479447 5.004541964795665 a 80.0 80.0 0.0 0 1 19.846819254862595,-57.92354414464813 l 59.99649329993187 52.91900217985247 z"/><path fill="#f96961" d="M 100.0,100.0 l -59.996493299931885 -52.91900217985245 a 80.0 80.0 0.0 0 1 54.99195133513609,-26.924310374942003 l 5.004541964795792 79.84331255479445 z"/><path fill="#950022" d="M 100.0,100.0 l -5.004541964795721 -79.84331255479445 a 80.0 80.0 0.0 0 1 57.92354414464819,19.84681925486258 l -52.91900217985247 59.99649329993187 z"/><path fill="#110000" d="M 100.0,100.0 l 52.91900217985247 -59.99649329993187 a 80.0 80.0 0.0 0 1 26.92431037494198,54.99195133513607 l -79.84331255479445 5.004541964795798 z"/><path fill="#000000" d="M 73.18279439390194,24.628669353126966 l -6.704301401524518 -18.84283266171826 a 100.0 100.0 0.0 0 1 98.35261232534715,18.076605012556453 l -12.966221063544907 15.22751165920696 a 80.0 80.0 0.0 0 0 -78.68208986027773,-14.461284010045155 z"/><path fill="#000000" d="M 151.86488425417966,39.08995336317212 l 12.966221063544914 -15.22751165920697 a 100.0 100.0 0.0 0 1 33.52150700762255,94.21416330859121 l -19.670522465069425 -3.61532100251128 a 80.0 80.0 0.0 0 0 -26.817205606098042,-75.37133064687296 z"/><path fill="#ef0219" d="M 178.6820898602777,114.46128401004508 l 19.670522465069425 3.6153210025112674 a 100.0 100.0 0.0 0 1 -64.83110531772455,76.13755829603495 l -6.704301401524518 -18.842832661718255 a 80.0 80.0 0.0 0 0 51.86488425417964,-60.910046636827964 z"/><path fill="#be0c00" d="M 126.81720560609807,175.37133064687305 l 6.7043014015245195 18.84283266171826 a 100.0 100.0 0.0 0 1 -98.35261232534718,-18.076605012556453 l 12.966221063544921 -15.22751165920696 a 80.0 80.0 0.0 0 0 78.68208986027774,14.461284010045155 z"/><path fill="#ad122b" d="M 48.13511574582034,160.91004663682787 l -12.96622106354491 15.227511659206971 a 100.0 100.0 0.0 0 1 -33.521507007622574,-94.21416330859121 l 19.670522465069425 3.61532100251128 a 80.0 80.0 0.0 0 0 26.817205606098057,75.37133064687296 z"/><path fill="#bb000b" d="M 21.3179101397223,85.53871598995491 l -19.670522465069425 -3.615321002511265 a 100.0 100.0 0.0 0 1 64.8311053177247,-76.13755829603502 l 6.704301401524482 18.842832661718276 a 80.0 80.0 0.0 0 0 -51.86488425417976,60.910046636828014 z"/><path fill="#000000" d="M 195.9500358702324,-12.683586278131578 l 12.966221063544914 -15.22751165920697 a 44.0 44.0 0.0 1 1 -57.05137267959763,67.00105130051067 l 12.966221063544918 -15.227511659206975 a 24.0 24.0 0.0 1 0 31.118930552507795,-36.546027982096724 z"/><path fill="#000000" d="M 245.56186624151374,126.7533754185834 l 19.670522465069425 3.6153210025112728 a 44.0 44.0 0.0 1 1 -86.55029884630547,-15.907412411049595 l 19.670522465069425 3.615321002511271 a 24.0 24.0 0.0 1 0 47.20925391616662,8.676770406027051 z"/><path fill="#ef0219" d="M 149.61183037128143,239.43696169671512 l 6.704301401524515 18.84283266171826 a 44.0 44.0 0.0 1 1 -29.49892616670787,-82.90846371156033 l 6.704301401524518 18.842832661718248 a 24.0 24.0 0.0 1 0 16.09032336365884,45.22279838812382 z"/><path fill="#be0c00" d="M 4.049964129767616,212.6835862781316 l -12.966221063544916 15.22751165920697 a 44.0 44.0 0.0 1 1 57.05137267959763,-67.00105130051067 l -12.966221063544918 15.227511659206975 a 24.0 24.0 0.0 1 0 -31.118930552507795,36.546027982096724 z"/><path fill="#ad122b" d="M -45.561866241513755,73.24662458141658 l -19.670522465069425 -3.61532100251127 a 44.0 44.0 0.0 1 1 86.55029884630547,15.907412411049595 l -19.670522465069425 -3.6153210025112728 a 24.0 24.0 0.0 1 0 -47.20925391616662,-8.676770406027051 z"/><path fill="#bb000b" d="M 50.38816962871883,-39.43696169671523 l -6.704301401524484 -18.84283266171827 a 44.0 44.0 0.0 1 1 29.498926166707726,82.90846371156039 l -6.704301401524482 -18.842832661718276 a 24.0 24.0 0.0 1 0 -16.090323363658758,-45.22279838812385 z"/><path fill="#1b0205" d="M 265.23238870658315,130.36869642109468 l -2.4977780513778725 -15.803831965889 a 16.0 16.0 0.0 0 1 11.906579005162484,2.862639416047939 l -9.408800953784612 12.94119254984106 z"/><path fill="#000000" d="M 265.23238870658315,130.36869642109468 l 9.408800953784612 -12.94119254984106 a 16.0 16.0 0.0 0 1 6.395031012104388,10.443414498463188 l -15.803831965889 2.4977780513778733 z"/><path fill="#ff3722" d="M 265.23238870658315,130.36869642109468 l 15.803831965889 -2.4977780513778733 a 16.0 16.0 0.0 0 1 -2.8626394160479496,11.906579005162499 l -12.94119254984105 -9.408800953784626 z"/><path fill="#771900" d="M 265.23238870658315,130.36869642109468 l 12.941192549841054 9.408800953784622 a 16.0 16.0 0.0 0 1 -10.443414498463182,6.395031012104377 l -2.4977780513778707 -15.803831965889 z"/><path fill="#80042d" d="M 265.23238870658315,130.36869642109468 l 2.4977780513778742 15.803831965889 a 16.0 16.0 0.0 0 1 -11.906579005162488,-2.8626394160479407 l 9.408800953784613 -12.941192549841059 z"/><path fill="#f5305f" d="M 265.23238870658315,130.36869642109468 l -9.408800953784619 12.941192549841055 a 16.0 16.0 0.0 0 1 -6.395031012104381,-10.443414498463184 l 15.803831965889 -2.4977780513778716 z"/><path fill="#fb2541" d="M 265.23238870658315,130.36869642109468 l -15.803831965889 2.4977780513778716 a 16.0 16.0 0.0 0 1 2.8626394160479443,-11.90657900516249 l 12.941192549841055 9.408800953784619 z"/><path fill="#93060d" d="M 265.23238870658315,130.36869642109468 l -12.941192549841055 -9.408800953784619 a 16.0 16.0 0.0 0 1 10.443414498463182,-6.395031012104381 l 2.4977780513778725 15.803831965889 z"/><path fill="#60000f" d="M 100.0,100.0 l 79.84331255479445 -5.004541964795798 a 80.0 80.0 0.0 0 1 -19.846819254862588,57.923544144648275 l -59.99649329993186 -52.91900217985248 z"/><path fill="#ffe0e4" d="M 100.0,100.0 l 59.996493299931885 52.919002179852455 a 80.0 80.0 0.0 0 1 -54.9919513351361,26.924310374941996 l -5.0045419647957825 -79.84331255479445 z"/><path fill="#722300" d="M 100.0,100.0 l 5.004541964795802 79.84331255479445 a 80.0 80.0 0.0 0 1 -57.923544144648275,-19.846819254862588 l 52.91900217985248 -59.99649329993186 z"/><path fill="#96001a" d="M 100.0,100.0 l -52.919002179852455 59.996493299931885 a 80.0 80.0 0.0 0 1 -26.92431037494201,-54.991951335136235 l 79.84331255479447 -5.004541964795646 z"/><path fill="#ff111b" d="M 100.0,100.0 l -79.84331255479447 5.004541964795665 a 80.0 80.0 0.0 0 1 19.846819254862595,-57.92354414464813 l 59.99649329993187 52.91900217985247 z"/><path fill="#f96961" d="M 100.0,100.0 l -59.996493299931885 -52.91900217985245 a 80.0 80.0 0.0 0 1 54.99195133513609,-26.924310374942003 l 5.004541964795792 79.84331255479445 z"/><path fill="#950022" d="M 100.0,100.0 l -5.004541964795721 -79.84331255479445 a 80.0 80.0 0.0 0 1 57.92354414464819,19.84681925486258 l -52.91900217985247 59.99649329993187 z"/><path fill="#110000" d="M 100.0,100.0 l 52.91900217985247 -59.99649329993187 a 80.0 80.0 0.0 0 1 26.92431037494198,54.99195133513607 l -79.84331255479445 5.004541964795798 z"/><path fill="#000000" d="M 73.18279439390194,24.628669353126966 l -6.704301401524518 -18.84283266171826 a 100.0 100.0 0.0 0 1 98.35261232534715,18.076605012556453 l -12.966221063544907 15.22751165920696 a 80.0 80.0 0.0 0 0 -78.68208986027773,-14.461284010045155 z"/><path fill="#000000" d="M 151.86488425417966,39.08995336317212 l 12.966221063544914 -15.22751165920697 a 100.0 100.0 0.0 0 1 33.52150700762255,94.21416330859121 l -19.670522465069425 -3.61532100251128 a 80.0 80.0 0.0 0 0 -26.817205606098042,-75.37133064687296 z"/><path fill="#ef0219" d="M 178.6820898602777,114.46128401004508 l 19.670522465069425 3.6153210025112674 a 100.0 100.0 0.0 0 1 -64.83110531772455,76.13755829603495 l -6.704301401524518 -18.842832661718255 a 80.0 80.0 0.0 0 0 51.86488425417964,-60.910046636827964 z"/><path fill="#be0c00" d="M 126.81720560609807,175.37133064687305 l 6.7043014015245195 18.84283266171826 a 100.0 100.0 0.0 0 1 -98.35261232534718,-18.076605012556453 l 12.966221063544921 -15.22751165920696 a 80.0 80.0 0.0 0 0 78.68208986027774,14.461284010045155 z"/><path fill="#ad122b" d="M 48.13511574582034,160.91004663682787 l -12.96622106354491 15.227511659206971 a 100.0 100.0 0.0 0 1 -33.521507007622574,-94.21416330859121 l 19.670522465069425 3.61532100251128 a 80.0 80.0 0.0 0 0 26.817205606098057,75.37133064687296 z"/><path fill="#bb000b" d="M 21.3179101397223,85.53871598995491 l -19.670522465069425 -3.615321002511265 a 100.0 100.0 0.0 0 1 64.8311053177247,-76.13755829603502 l 6.704301401524482 18.842832661718276 a 80.0 80.0 0.0 0 0 -51.86488425417976,60.910046636828014 z"/><path fill="#000000" d="M 195.9500358702324,-12.683586278131578 l 12.966221063544914 -15.22751165920697 a 44.0 44.0 0.0 1 1 -57.05137267959763,67.00105130051067 l 12.966221063544918 -15.227511659206975 a 24.0 24.0 0.0 1 0 31.118930552507795,-36.546027982096724 z"/><path fill="#000000" d="M 245.56186624151374,126.7533754185834 l 19.670522465069425 3.6153210025112728 a 44.0 44.0 0.0 1 1 -86.55029884630547,-15.907412411049595 l 19.670522465069425 3.615321002511271 a 24.0 24.0 0.0 1 0 47.20925391616662,8.676770406027051 z"/><path fill="#ef0219" d="M 149.61183037128143,239.43696169671512 l 6.704301401524515 18.84283266171826 a 44.0 44.0 0.0 1 1 -29.49892616670787,-82.90846371156033 l 6.704301401524518 18.842832661718248 a 24.0 24.0 0.0 1 0 16.09032336365884,45.22279838812382 z"/><path fill="#be0c00" d="M 4.049964129767616,212.6835862781316 l -12.966221063544916 15.22751165920697 a 44.0 44.0 0.0 1 1 57.05137267959763,-67.00105130051067 l -12.966221063544918 15.227511659206975 a 24.0 24.0 0.0 1 0 -31.118930552507795,36.546027982096724 z"/><path fill="#ad122b" d="M -45.561866241513755,73.24662458141658 l -19.670522465069425 -3.61532100251127 a 44.0 44.0 0.0 1 1 86.55029884630547,15.907412411049595 l -19.670522465069425 -3.6153210025112728 a 24.0 24.0 0.0 1 0 -47.20925391616662,-8.676770406027051 z"/><path fill="#bb000b" d="M 50.38816962871883,-39.43696169671523 l -6.704301401524484 -18.84283266171827 a 44.0 44.0 0.0 1 1 29.498926166707726,82.90846371156039 l -6.704301401524482 -18.842832661718276 a 24.0 24.0 0.0 1 0 -16.090323363658758,-45.22279838812385 z"/><path fill="#000000" d="M 277.58919663811884,120.20457827227641 l 3.0892019828839175 -2.54102953720457 a 20.0 20.0 0.0 0 1 3.279975697719074,19.72921081600509 l -3.745197122427733 -1.404812625996449 a 16.0 16.0 0.0 0 0 -2.6239805581752584,-15.783368652804072 z"/><path fill="#000000" d="M 280.2131771962941,135.98794692508045 l 3.7451971224277325 1.4048126259964469 a 20.0 20.0 0.0 0 1 -15.446009914419584,12.705147686022855 l -0.6559951395438155 -3.945842163201018 a 16.0 16.0 0.0 0 0 12.356807931535666,-10.164118148818284 z"/><path fill="#d51600" d="M 267.8563692647584,146.15206507389877 l 0.6559951395438169 3.945842163201018 a 20.0 20.0 0.0 0 1 -18.725985612138672,-7.024063129982242 l 3.0892019828839175 -2.541029537204569 a 16.0 16.0 0.0 0 0 14.980788489710939,5.619250503985793 z"/><path fill="#50000e" d="M 252.87558077504747,140.53281456991297 l -3.0892019828839175 2.5410295372045706 a 20.0 20.0 0.0 0 1 -3.279975697719081,-19.72921081600507 l 3.7451971224277347 1.4048126259964437 a 16.0 16.0 0.0 0 0 2.6239805581752638,15.783368652804059 z"/><path fill="#000000" d="M 250.25160021687222,124.7494459171089 l -3.745197122427734 -1.404812625996443 a 20.0 20.0 0.0 0 1 15.446009914419623,-12.705147686022881 l 0.6559951395438102 3.9458421632010214 a 16.0 16.0 0.0 0 0 -12.356807931535698,10.164118148818304 z"/><path fill="#ff1c07" d="M 262.60840814840793,114.58532776829061 l -0.6559951395438104 -3.9458421632010188 a 20.0 20.0 0.0 0 1 18.72598561213864,7.024063129982243 l -3.0892019828839175 2.5410295372045706 a 16.0 16.0 0.0 0 0 -14.98078848971091,-5.6192505039857945 z"/><path fill="#000000" d="M 292.9468474125484,140.7643098534684 l 3.745197122427733 1.4048126259964482 a 8.8 8.8 0.0 1 1 -16.478867338682022,-6.18117555438437 l 3.745197122427733 1.4048126259964477 a 4.8 4.8 0.0 1 0 8.988473093826556,3.371550302391474 z"/><path fill="#000000" d="M 270.08675273920744,159.56792842878218 l 0.655995139543816 3.9458421632010188 a 8.8 8.8 0.0 1 1 -2.8863786139927914,-17.36170551808448 l 0.6559951395438166 3.9458421632010197 a 4.8 4.8 0.0 1 0 1.5743883349051588,9.470021191682443 z"/><path fill="#d51600" d="M 242.37229403324216,149.17231499640852 l -3.089201982883919 2.54102953720457 a 8.8 8.8 0.0 1 1 13.59248872468924,-11.180529963700108 l -3.0892019828839183 2.5410295372045706 a 4.8 4.8 0.0 1 0 -7.414084758921402,6.098470889290967 z"/><path fill="#50000e" d="M 237.51793000061792,119.973082988721 l -3.7451971224277343 -1.4048126259964444 a 8.8 8.8 0.0 1 1 16.47886733868203,6.181175554384356 l -3.7451971224277347 -1.4048126259964446 a 4.8 4.8 0.0 1 0 -8.98847309382656,-3.3715503023914666 z"/><path fill="#000000" d="M 260.378024673959,101.16946441340713 l -0.6559951395438096 -3.94584216320102 a 8.8 8.8 0.0 1 1 2.8863786139927607,17.361705518084484 l -0.6559951395438088 -3.9458421632010197 a 4.8 4.8 0.0 1 0 -1.5743883349051422,-9.470021191682445 z"/><path fill="#ff1c07" d="M 288.09248337992415,111.56507784578086 l 3.0892019828839183 -2.5410295372045706 a 8.8 8.8 0.0 1 1 -13.59248872468924,11.180529963700108 l 3.0892019828839183 -2.5410295372045706 a 4.8 4.8 0.0 1 0 7.414084758921402,-6.098470889290967 z"/><path fill="#60000f" d="M 100.0,100.0 l 79.84331255479445 -5.004541964795798 a 80.0 80.0 0.0 0 1 -19.846819254862588,57.923544144648275 l -59.99649329993186 -52.91900217985248 z"/><path fill="#ffe0e4" d="M 100.0,100.0 l 59.996493299931885 52.919002179852455 a 80.0 80.0 0.0 0 1 -54.9919513351361,26.924310374941996 l -5.0045419647957825 -79.84331255479445 z"/><path fill="#722300" d="M 100.0,100.0 l 5.004541964795802 79.84331255479445 a 80.0 80.0 0.0 0 1 -57.923544144648275,-19.846819254862588 l 52.91900217985248 -59.99649329993186 z"/><path fill="#96001a" d="M 100.0,100.0 l -52.919002179852455 59.996493299931885 a 80.0 80.0 0.0 0 1 -26.92431037494201,-54.991951335136235 l 79.84331255479447 -5.004541964795646 z"/><path fill="#ff111b" d="M 100.0,100.0 l -79.84331255479447 5.004541964795665 a 80.0 80.0 0.0 0 1 19.846819254862595,-57.92354414464813 l 59.99649329993187 52.91900217985247 z"/><path fill="#f96961" d="M 100.0,100.0 l -59.996493299931885 -52.91900217985245 a 80.0 80.0 0.0 0 1 54.99195133513609,-26.924310374942003 l 5.004541964795792 79.84331255479445 z"/><path fill="#950022" d="M 100.0,100.0 l -5.004541964795721 -79.84331255479445 a 80.0 80.0 0.0 0 1 57.92354414464819,19.84681925486258 l -52.91900217985247 59.99649329993187 z"/><path fill="#110000" d="M 100.0,100.0 l 52.91900217985247 -59.99649329993187 a 80.0 80.0 0.0 0 1 26.92431037494198,54.99195133513607 l -79.84331255479445 5.004541964795798 z"/><path fill="#000000" d="M 73.18279439390194,24.628669353126966 l -6.704301401524518 -18.84283266171826 a 100.0 100.0 0.0 0 1 98.35261232534715,18.076605012556453 l -12.966221063544907 15.22751165920696 a 80.0 80.0 0.0 0 0 -78.68208986027773,-14.461284010045155 z"/><path fill="#000000" d="M 151.86488425417966,39.08995336317212 l 12.966221063544914 -15.22751165920697 a 100.0 100.0 0.0 0 1 33.52150700762255,94.21416330859121 l -19.670522465069425 -3.61532100251128 a 80.0 80.0 0.0 0 0 -26.817205606098042,-75.37133064687296 z"/><path fill="#ef0219" d="M 178.6820898602777,114.46128401004508 l 19.670522465069425 3.6153210025112674 a 100.0 100.0 0.0 0 1 -64.83110531772455,76.13755829603495 l -6.704301401524518 -18.842832661718255 a 80.0 80.0 0.0 0 0 51.86488425417964,-60.910046636827964 z"/><path fill="#be0c00" d="M 126.81720560609807,175.37133064687305 l 6.7043014015245195 18.84283266171826 a 100.0 100.0 0.0 0 1 -98.35261232534718,-18.076605012556453 l 12.966221063544921 -15.22751165920696 a 80.0 80.0 0.0 0 0 78.68208986027774,14.461284010045155 z"/><path fill="#ad122b" d="M 48.13511574582034,160.91004663682787 l -12.96622106354491 15.227511659206971 a 100.0 100.0 0.0 0 1 -33.521507007622574,-94.21416330859121 l 19.670522465069425 3.61532100251128 a 80.0 80.0 0.0 0 0 26.817205606098057,75.37133064687296 z"/><path fill="#bb000b" d="M 21.3179101397223,85.53871598995491 l -19.670522465069425 -3.615321002511265 a 100.0 100.0 0.0 0 1 64.8311053177247,-76.13755829603502 l 6.704301401524482 18.842832661718276 a 80.0 80.0 0.0 0 0 -51.86488425417976,60.910046636828014 z"/><path fill="#000000" d="M 195.9500358702324,-12.683586278131578 l 12.966221063544914 -15.22751165920697 a 44.0 44.0 0.0 1 1 -57.05137267959763,67.00105130051067 l 12.966221063544918 -15.227511659206975 a 24.0 24.0 0.0 1 0 31.118930552507795,-36.546027982096724 z"/><path fill="#000000" d="M 245.56186624151374,126.7533754185834 l 19.670522465069425 3.6153210025112728 a 44.0 44.0 0.0 1 1 -86.55029884630547,-15.907412411049595 l 19.670522465069425 3.615321002511271 a 24.0 24.0 0.0 1 0 47.20925391616662,8.676770406027051 z"/><path fill="#ef0219" d="M 149.61183037128143,239.43696169671512 l 6.704301401524515 18.84283266171826 a 44.0 44.0 0.0 1 1 -29.49892616670787,-82.90846371156033 l 6.704301401524518 18.842832661718248 a 24.0 24.0 0.0 1 0 16.09032336365884,45.22279838812382 z"/><path fill="#be0c00" d="M 4.049964129767616,212.6835862781316 l -12.966221063544916 15.22751165920697 a 44.0 44.0 0.0 1 1 57.05137267959763,-67.00105130051067 l -12.966221063544918 15.227511659206975 a 24.0 24.0 0.0 1 0 -31.118930552507795,36.546027982096724 z"/><path fill="#ad122b" d="M -45.561866241513755,73.24662458141658 l -19.670522465069425 -3.61532100251127 a 44.0 44.0 0.0 1 1 86.55029884630547,15.907412411049595 l -19.670522465069425 -3.6153210025112728 a 24.0 24.0 0.0 1 0 -47.20925391616662,-8.676770406027051 z"/><path fill="#bb000b" d="M 50.38816962871883,-39.43696169671523 l -6.704301401524484 -18.84283266171827 a 44.0 44.0 0.0 1 1 29.498926166707726,82.90846371156039 l -6.704301401524482 -18.842832661718276 a 24.0 24.0 0.0 1 0 -16.090323363658758,-45.22279838812385 z"/><path fill="#db1822" d="M 156.31613177280593,258.2797943584334 l -15.475962242357685 -4.0613535518493435 a 16.0 16.0 0.0 0 1 7.404615032708339,-9.753614932417484 l 8.071347209649346 13.814968484266828 z"/><path fill="#fb2e21" d="M 156.31613177280593,258.2797943584334 l -8.071347209649346 -13.814968484266828 a 16.0 16.0 0.0 0 1 12.13270076149869,-1.6609937580908571 l -4.061353551849343 15.475962242357685 z"/><path fill="#3d0709" d="M 156.31613177280593,258.2797943584334 l 4.061353551849343 -15.475962242357685 a 16.0 16.0 0.0 0 1 9.753614932417484,7.404615032708337 l -13.814968484266828 8.071347209649348 z"/><path fill="#000000" d="M 156.31613177280593,258.2797943584334 l 13.814968484266828 -8.071347209649348 a 16.0 16.0 0.0 0 1 1.6609937580908571,12.132700761498693 l -15.475962242357685 -4.061353551849345 z"/><path fill="#200600" d="M 156.31613177280593,258.2797943584334 l 15.475962242357687 4.061353551849342 a 16.0 16.0 0.0 0 1 -7.404615032708342,9.753614932417488 l -8.071347209649344 -13.81496848426683 z"/><path fill="#000000" d="M 156.31613177280593,258.2797943584334 l 8.071347209649348 13.814968484266828 a 16.0 16.0 0.0 0 1 -12.132700761498679,1.6609937580908607 l 4.06135355184933 -15.475962242357689 z"/><path fill="#d1001f" d="M 156.31613177280593,258.2797943584334 l -4.061353551849327 15.47596224235769 a 16.0 16.0 0.0 0 1 -9.753614932417502,-7.404615032708344 l 13.814968484266828 -8.071347209649346 z"/><path fill="#fc116f" d="M 156.31613177280593,258.2797943584334 l -13.814968484266826 8.07134720964935 a 16.0 16.0 0.0 0 1 -1.6609937580908625,-12.132700761498679 l 15.475962242357689 4.061353551849329 z"/><path fill="#60000f" d="M 100.0,100.0 l 79.84331255479445 -5.004541964795798 a 80.0 80.0 0.0 0 1 -19.846819254862588,57.923544144648275 l -59.99649329993186 -52.91900217985248 z"/><path fill="#ffe0e4" d="M 100.0,100.0 l 59.996493299931885 52.919002179852455 a 80.0 80.0 0.0 0 1 -54.9919513351361,26.924310374941996 l -5.0045419647957825 -79.84331255479445 z"/><path fill="#722300" d="M 100.0,100.0 l 5.004541964795802 79.84331255479445 a 80.0 80.0 0.0 0 1 -57.923544144648275,-19.846819254862588 l 52.91900217985248 -59.99649329993186 z"/><path fill="#96001a" d="M 100.0,100.0 l -52.919002179852455 59.996493299931885 a 80.0 80.0 0.0 0 1 -26.92431037494201,-54.991951335136235 l 79.84331255479447 -5.004541964795646 z"/><path fill="#ff111b" d="M 100.0,100.0 l -79.84331255479447 5.004541964795665 a 80.0 80.0 0.0 0 1 19.846819254862595,-57.92354414464813 l 59.99649329993187 52.91900217985247 z"/><path fill="#f96961" d="M 100.0,100.0 l -59.996493299931885 -52.91900217985245 a 80.0 80.0 0.0 0 1 54.99195133513609,-26.924310374942003 l 5.004541964795792 79.84331255479445 z"/><path fill="#950022" d="M 100.0,100.0 l -5.004541964795721 -79.84331255479445 a 80.0 80.0 0.0 0 1 57.92354414464819,19.84681925486258 l -52.91900217985247 59.99649329993187 z"/><path fill="#110000" d="M 100.0,100.0 l 52.91900217985247 -59.99649329993187 a 80.0 80.0 0.0 0 1 26.92431037494198,54.99195133513607 l -79.84331255479445 5.004541964795798 z"/><path fill="#000000" d="M 73.18279439390194,24.628669353126966 l -6.704301401524518 -18.84283266171826 a 100.0 100.0 0.0 0 1 98.35261232534715,18.076605012556453 l -12.966221063544907 15.22751165920696 a 80.0 80.0 0.0 0 0 -78.68208986027773,-14.461284010045155 z"/><path fill="#000000" d="M 151.86488425417966,39.08995336317212 l 12.966221063544914 -15.22751165920697 a 100.0 100.0 0.0 0 1 33.52150700762255,94.21416330859121 l -19.670522465069425 -3.61532100251128 a 80.0 80.0 0.0 0 0 -26.817205606098042,-75.37133064687296 z"/><path fill="#ef0219" d="M 178.6820898602777,114.46128401004508 l 19.670522465069425 3.6153210025112674 a 100.0 100.0 0.0 0 1 -64.83110531772455,76.13755829603495 l -6.704301401524518 -18.842832661718255 a 80.0 80.0 0.0 0 0 51.86488425417964,-60.910046636827964 z"/><path fill="#be0c00" d="M 126.81720560609807,175.37133064687305 l 6.7043014015245195 18.84283266171826 a 100.0 100.0 0.0 0 1 -98.35261232534718,-18.076605012556453 l 12.966221063544921 -15.22751165920696 a 80.0 80.0 0.0 0 0 78.68208986027774,14.461284010045155 z"/><path fill="#ad122b" d="M 48.13511574582034,160.91004663682787 l -12.96622106354491 15.227511659206971 a 100.0 100.0 0.0 0 1 -33.521507007622574,-94.21416330859121 l 19.670522465069425 3.61532100251128 a 80.0 80.0 0.0 0 0 26.817205606098057,75.37133064687296 z"/><path fill="#bb000b" d="M 21.3179101397223,85.53871598995491 l -19.670522465069425 -3.615321002511265 a 100.0 100.0 0.0 0 1 64.8311053177247,-76.13755829603502 l 6.704301401524482 18.842832661718276 a 80.0 80.0 0.0 0 0 -51.86488425417976,60.910046636828014 z"/><path fill="#000000" d="M 195.9500358702324,-12.683586278131578 l 12.966221063544914 -15.22751165920697 a 44.0 44.0 0.0 1 1 -57.05137267959763,67.00105130051067 l 12.966221063544918 -15.227511659206975 a 24.0 24.0 0.0 1 0 31.118930552507795,-36.546027982096724 z"/><path fill="#000000" d="M 245.56186624151374,126.7533754185834 l 19.670522465069425 3.6153210025112728 a 44.0 44.0 0.0 1 1 -86.55029884630547,-15.907412411049595 l 19.670522465069425 3.615321002511271 a 24.0 24.0 0.0 1 0 47.20925391616662,8.676770406027051 z"/><path fill="#ef0219" d="M 149.61183037128143,239.43696169671512 l 6.704301401524515 18.84283266171826 a 44.0 44.0 0.0 1 1 -29.49892616670787,-82.90846371156033 l 6.704301401524518 18.842832661718248 a 24.0 24.0 0.0 1 0 16.09032336365884,45.22279838812382 z"/><path fill="#be0c00" d="M 4.049964129767616,212.6835862781316 l -12.966221063544916 15.22751165920697 a 44.0 44.0 0.0 1 1 57.05137267959763,-67.00105130051067 l -12.966221063544918 15.227511659206975 a 24.0 24.0 0.0 1 0 -31.118930552507795,36.546027982096724 z"/><path fill="#ad122b" d="M -45.561866241513755,73.24662458141658 l -19.670522465069425 -3.61532100251127 a 44.0 44.0 0.0 1 1 86.55029884630547,15.907412411049595 l -19.670522465069425 -3.6153210025112728 a 24.0 24.0 0.0 1 0 -47.20925391616662,-8.676770406027051 z"/><path fill="#bb000b" d="M 50.38816962871883,-39.43696169671523 l -6.704301401524484 -18.84283266171827 a 44.0 44.0 0.0 1 1 29.498926166707726,82.90846371156039 l -6.704301401524482 -18.842832661718276 a 24.0 24.0 0.0 1 0 -16.090323363658758,-45.22279838812385 z"/><path fill="#ff6776" d="M 140.40785810041123,256.56899666022537 l -3.9770684180986744 -0.4276994245519963 a 20.0 20.0 0.0 0 1 11.794663879476754,-16.151962851931223 l 1.618135642203324 3.6580919949382427 a 16.0 16.0 0.0 0 0 -9.435731103581404,12.921570281544977 z"/><path fill="#000000" d="M 149.84358920399265,243.64742637868042 l -1.6181356422033237 -3.6580919949382404 a 20.0 20.0 0.0 0 1 19.88534209049338,2.1384971227599823 l -2.358932775895351 3.2303925703862433 a 16.0 16.0 0.0 0 0 -15.908273672394706,-1.710797698207985 z"/><path fill="#cb001d" d="M 165.75186287638735,245.3582240768884 l 2.3589327758953527 -3.230392570386244 a 20.0 20.0 0.0 0 1 8.090678211016607,18.290459974691206 l -3.977068418098673 -0.4276994245519976 a 16.0 16.0 0.0 0 0 -6.472542568813287,-14.632367979752964 z"/><path fill="#bd1107" d="M 172.22440544520063,259.99059205664133 l 3.9770684180986744 0.4276994245519958 a 20.0 20.0 0.0 0 1 -11.794663879476756,16.151962851931223 l -1.6181356422033222 -3.658091994938239 a 16.0 16.0 0.0 0 0 9.435731103581404,-12.92157028154498 z"/><path fill="#91001f" d="M 162.7886743416192,272.91216233818636 l 1.6181356422033242 3.6580919949382404 a 20.0 20.0 0.0 0 1 -19.885342090493378,-2.1384971227599787 l 2.358932775895351 -3.2303925703862433 a 16.0 16.0 0.0 0 0 15.908273672394703,1.7107976982079816 z"/><path fill="#000000" d="M 146.8804006692245,271.20136463997835 l -2.3589327758953513 3.230392570386245 a 20.0 20.0 0.0 0 1 -8.090678211016618,-18.29045997469119 l 3.977068418098675 0.4276994245519923 a 16.0 16.0 0.0 0 0 6.472542568813294,14.632367979752951 z"/><path fill="#ff6776" d="M 144.34192802050134,231.20991359589038 l -1.6181356422033242 -3.6580919949382413 a 8.8 8.8 0.0 1 1 7.119796825694624,16.095604777728262 l -1.6181356422033235 -3.6580919949382427 a 4.8 4.8 0.0 1 0 -3.8835255412879763,-8.779420787851777 z"/><path fill="#000000" d="M 173.77223431443156,234.37488933757518 l 2.358932775895353 -3.230392570386245 a 8.8 8.8 0.0 1 1 -10.379304213939552,14.213727309699475 l 2.3589327758953527 -3.230392570386245 a 4.8 4.8 0.0 1 0 5.661438662148846,-7.752942168926985 z"/><path fill="#cb001d" d="M 185.74643806673612,261.44477010011815 l 3.9770684180986753 0.4276994245519969 a 8.8 8.8 0.0 1 1 -17.49910103963417,-1.881877468028785 l 3.9770684180986766 0.4276994245519965 a 4.8 4.8 0.0 1 0 9.544964203436818,1.0264786189247916 z"/><path fill="#bd1107" d="M 168.29033552511052,285.3496751209763 l 1.6181356422033237 3.6580919949382418 a 8.8 8.8 0.0 1 1 -7.119796825694625,-16.095604777728262 l 1.6181356422033244 3.6580919949382427 a 4.8 4.8 0.0 1 0 3.8835255412879763,8.779420787851777 z"/><path fill="#91001f" d="M 138.8600292311803,282.1846993792916 l -2.358932775895353 3.230392570386245 a 8.8 8.8 0.0 1 1 10.379304213939552,-14.213727309699475 l -2.3589327758953527 3.230392570386245 a 4.8 4.8 0.0 1 0 -5.661438662148846,7.752942168926985 z"/><path fill="#000000" d="M 126.88582547887572,255.1148186167486 l -3.9770684180986757 -0.42769942455199284 a 8.8 8.8 0.0 1 1 17.49910103963417,1.8818774680287693 l -3.977068418098675 -0.4276994245519936 a 4.8 4.8 0.0 1 0 -9.54496420343682,-1.026478618924783 z"/><path fill="#60000f" d="M 100.0,100.0 l 79.84331255479445 -5.004541964795798 a 80.0 80.0 0.0 0 1 -19.846819254862588,57.923544144648275 l -59.99649329993186 -52.91900217985248 z"/><path fill="#ffe0e4" d="M 100.0,100.0 l 59.996493299931885 52.919002179852455 a 80.0 80.0 0.0 0 1 -54.9919513351361,26.924310374941996 l -5.0045419647957825 -79.84331255479445 z"/><path fill="#722300" d="M 100.0,100.0 l 5.004541964795802 79.84331255479445 a 80.0 80.0 0.0 0 1 -57.923544144648275,-19.846819254862588 l 52.91900217985248 -59.99649329993186 z"/><path fill="#96001a" d="M 100.0,100.0 l -52.919002179852455 59.996493299931885 a 80.0 80.0 0.0 0 1 -26.92431037494201,-54.991951335136235 l 79.84331255479447 -5.004541964795646 z"/><path fill="#ff111b" d="M 100.0,100.0 l -79.84331255479447 5.004541964795665 a 80.0 80.0 0.0 0 1 19.846819254862595,-57.92354414464813 l 59.99649329993187 52.91900217985247 z"/><path fill="#f96961" d="M 100.0,100.0 l -59.996493299931885 -52.91900217985245 a 80.0 80.0 0.0 0 1 54.99195133513609,-26.924310374942003 l 5.004541964795792 79.84331255479445 z"/><path fill="#950022" d="M 100.0,100.0 l -5.004541964795721 -79.84331255479445 a 80.0 80.0 0.0 0 1 57.92354414464819,19.84681925486258 l -52.91900217985247 59.99649329993187 z"/><path fill="#110000" d="M 100.0,100.0 l 52.91900217985247 -59.99649329993187 a 80.0 80.0 0.0 0 1 26.92431037494198,54.99195133513607 l -79.84331255479445 5.004541964795798 z"/><path fill="#000000" d="M 73.18279439390194,24.628669353126966 l -6.704301401524518 -18.84283266171826 a 100.0 100.0 0.0 0 1 98.35261232534715,18.076605012556453 l -12.966221063544907 15.22751165920696 a 80.0 80.0 0.0 0 0 -78.68208986027773,-14.461284010045155 z"/><path fill="#000000" d="M 151.86488425417966,39.08995336317212 l 12.966221063544914 -15.22751165920697 a 100.0 100.0 0.0 0 1 33.52150700762255,94.21416330859121 l -19.670522465069425 -3.61532100251128 a 80.0 80.0 0.0 0 0 -26.817205606098042,-75.37133064687296 z"/><path fill="#ef0219" d="M 178.6820898602777,114.46128401004508 l 19.670522465069425 3.6153210025112674 a 100.0 100.0 0.0 0 1 -64.83110531772455,76.13755829603495 l -6.704301401524518 -18.842832661718255 a 80.0 80.0 0.0 0 0 51.86488425417964,-60.910046636827964 z"/><path fill="#be0c00" d="M 126.81720560609807,175.37133064687305 l 6.7043014015245195 18.84283266171826 a 100.0 100.0 0.0 0 1 -98.35261232534718,-18.076605012556453 l 12.966221063544921 -15.22751165920696 a 80.0 80.0 0.0 0 0 78.68208986027774,14.461284010045155 z"/><path fill="#ad122b" d="M 48.13511574582034,160.91004663682787 l -12.96622106354491 15.227511659206971 a 100.0 100.0 0.0 0 1 -33.521507007622574,-94.21416330859121 l 19.670522465069425 3.61532100251128 a 80.0 80.0 0.0 0 0 26.817205606098057,75.37133064687296 z"/><path fill="#bb000b" d="M 21.3179101397223,85.53871598995491 l -19.670522465069425 -3.615321002511265 a 100.0 100.0 0.0 0 1 64.8311053177247,-76.13755829603502 l 6.704301401524482 18.842832661718276 a 80.0 80.0 0.0 0 0 -51.86488425417976,60.910046636828014 z"/><path fill="#000000" d="M 195.9500358702324,-12.683586278131578 l 12.966221063544914 -15.22751165920697 a 44.0 44.0 0.0 1 1 -57.05137267959763,67.00105130051067 l 12.966221063544918 -15.227511659206975 a 24.0 24.0 0.0 1 0 31.118930552507795,-36.546027982096724 z"/><path fill="#000000" d="M 245.56186624151374,126.7533754185834 l 19.670522465069425 3.6153210025112728 a 44.0 44.0 0.0 1 1 -86.55029884630547,-15.907412411049595 l 19.670522465069425 3.615321002511271 a 24.0 24.0 0.0 1 0 47.20925391616662,8.676770406027051 z"/><path fill="#ef0219" d="M 149.61183037128143,239.43696169671512 l 6.704301401524515 18.84283266171826 a 44.0 44.0 0.0 1 1 -29.49892616670787,-82.90846371156033 l 6.704301401524518 18.842832661718248 a 24.0 24.0 0.0 1 0 16.09032336365884,45.22279838812382 z"/><path fill="#be0c00" d="M 4.049964129767616,212.6835862781316 l -12.966221063544916 15.22751165920697 a 44.0 44.0 0.0 1 1 57.05137267959763,-67.00105130051067 l -12.966221063544918 15.227511659206975 a 24.0 24.0 0.0 1 0 -31.118930552507795,36.546027982096724 z"/><path fill="#ad122b" d="M -45.561866241513755,73.24662458141658 l -19.670522465069425 -3.61532100251127 a 44.0 44.0 0.0 1 1 86.55029884630547,15.907412411049595 l -19.670522465069425 -3.6153210025112728 a 24.0 24.0 0.0 1 0 -47.20925391616662,-8.676770406027051 z"/><path fill="#bb000b" d="M 50.38816962871883,-39.43696169671523 l -6.704301401524484 -18.84283266171827 a 44.0 44.0 0.0 1 1 29.498926166707726,82.90846371156039 l -6.704301401524482 -18.842832661718276 a 24.0 24.0 0.0 1 0 -16.090323363658758,-45.22279838812385 z"/><path fill="#4a0001" d="M -8.9162569337773,227.91109793733858 l 7.687564989224942 -14.032153952135891 a 16.0 16.0 0.0 0 1 7.670595559677205,9.545852072620233 l -15.358160548902147 4.486301879515658 z"/><path fill="#550e00" d="M -8.9162569337773,227.91109793733858 l 15.358160548902147 -4.486301879515658 a 16.0 16.0 0.0 0 1 -1.3260065967662573,12.173866868740603 l -14.03215395213589 -7.687564989224945 z"/><path fill="#f00010" d="M -8.9162569337773,227.91109793733858 l 14.032153952135891 7.687564989224941 a 16.0 16.0 0.0 0 1 -9.545852072620235,7.6705955596772055 l -4.486301879515655 -15.358160548902147 z"/><path fill="#630905" d="M -8.9162569337773,227.91109793733858 l 4.486301879515659 15.358160548902147 a 16.0 16.0 0.0 0 1 -12.173866868740603,-1.3260065967662555 l 7.687564989224944 -14.032153952135891 z"/><path fill="#ff1722" d="M -8.9162569337773,227.91109793733858 l -7.687564989224944 14.032153952135891 a 16.0 16.0 0.0 0 1 -7.670595559677203,-9.545852072620235 l 15.358160548902147 -4.486301879515656 z"/><path fill="#c60009" d="M -8.9162569337773,227.91109793733858 l -15.358160548902147 4.486301879515656 a 16.0 16.0 0.0 0 1 1.3260065967662555,-12.1738668687406 l 14.032153952135891 7.687564989224943 z"/><path fill="#000000" d="M -8.9162569337773,227.91109793733858 l -14.032153952135891 -7.687564989224943 a 16.0 16.0 0.0 0 1 9.545852072620235,-7.670595559677204 l 4.486301879515657 15.358160548902147 z"/><path fill="#fdf0f0" d="M -8.9162569337773,227.91109793733858 l -4.486301879515657 -15.358160548902147 a 16.0 16.0 0.0 0 1 12.1738668687406,1.3260065967662555 l -7.687564989224942 14.032153952135891 z"/><path fill="#60000f" d="M 100.0,100.0 l 79.84331255479445 -5.004541964795798 a 80.0 80.0 0.0 0 1 -19.846819254862588,57.923544144648275 l -59.99649329993186 -52.91900217985248 z"/><path fill="#ffe0e4" d="M 100.0,100.0 l 59.996493299931885 52.919002179852455 a 80.0 80.0 0.0 0 1 -54.9919513351361,26.924310374941996 l -5.0045419647957825 -79.84331255479445 z"/><path fill="#722300" d="M 100.0,100.0 l 5.004541964795802 79.84331255479445 a 80.0 80.0 0.0 0 1 -57.923544144648275,-19.846819254862588 l 52.91900217985248 -59.99649329993186 z"/><path fill="#96001a" d="M 100.0,100.0 l -52.919002179852455 59.996493299931885 a 80.0 80.0 0.0 0 1 -26.92431037494201,-54.991951335136235 l 79.84331255479447 -5.004541964795646 z"/><path fill="#ff111b" d="M 100.0,100.0 l -79.84331255479447 5.004541964795665 a 80.0 80.0 0.0 0 1 19.846819254862595,-57.92354414464813 l 59.99649329993187 52.91900217985247 z"/><path fill="#f96961" d="M 100.0,100.0 l -59.996493299931885 -52.91900217985245 a 80.0 80.0 0.0 0 1 54.99195133513609,-26.924310374942003 l 5.004541964795792 79.84331255479445 z"/><path fill="#950022" d="M 100.0,100.0 l -5.004541964795721 -79.84331255479445 a 80.0 80.0 0.0 0 1 57.92354414464819,19.84681925486258 l -52.91900217985247 59.99649329993187 z"/><path fill="#110000" d="M 100.0,100.0 l 52.91900217985247 -59.99649329993187 a 80.0 80.0 0.0 0 1 26.92431037494198,54.99195133513607 l -79.84331255479445 5.004541964795798 z"/><path fill="#000000" d="M 73.18279439390194,24.628669353126966 l -6.704301401524518 -18.84283266171826 a 100.0 100.0 0.0 0 1 98.35261232534715,18.076605012556453 l -12.966221063544907 15.22751165920696 a 80.0 80.0 0.0 0 0 -78.68208986027773,-14.461284010045155 z"/><path fill="#000000" d="M 151.86488425417966,39.08995336317212 l 12.966221063544914 -15.22751165920697 a 100.0 100.0 0.0 0 1 33.52150700762255,94.21416330859121 l -19.670522465069425 -3.61532100251128 a 80.0 80.0 0.0 0 0 -26.817205606098042,-75.37133064687296 z"/><path fill="#ef0219" d="M 178.6820898602777,114.46128401004508 l 19.670522465069425 3.6153210025112674 a 100.0 100.0 0.0 0 1 -64.83110531772455,76.13755829603495 l -6.704301401524518 -18.842832661718255 a 80.0 80.0 0.0 0 0 51.86488425417964,-60.910046636827964 z"/><path fill="#be0c00" d="M 126.81720560609807,175.37133064687305 l 6.7043014015245195 18.84283266171826 a 100.0 100.0 0.0 0 1 -98.35261232534718,-18.076605012556453 l 12.966221063544921 -15.22751165920696 a 80.0 80.0 0.0 0 0 78.68208986027774,14.461284010045155 z"/><path fill="#ad122b" d="M 48.13511574582034,160.91004663682787 l -12.96622106354491 15.227511659206971 a 100.0 100.0 0.0 0 1 -33.521507007622574,-94.21416330859121 l 19.670522465069425 3.61532100251128 a 80.0 80.0 0.0 0 0 26.817205606098057,75.37133064687296 z"/><path fill="#bb000b" d="M 21.3179101397223,85.53871598995491 l -19.670522465069425 -3.615321002511265 a 100.0 100.0 0.0 0 1 64.8311053177247,-76.13755829603502 l 6.704301401524482 18.842832661718276 a 80.0 80.0 0.0 0 0 -51.86488425417976,60.910046636828014 z"/><path fill="#000000" d="M 195.9500358702324,-12.683586278131578 l 12.966221063544914 -15.22751165920697 a 44.0 44.0 0.0 1 1 -57.05137267959763,67.00105130051067 l 12.966221063544918 -15.227511659206975 a 24.0 24.0 0.0 1 0 31.118930552507795,-36.546027982096724 z"/><path fill="#000000" d="M 245.56186624151374,126.7533754185834 l 19.670522465069425 3.6153210025112728 a 44.0 44.0 0.0 1 1 -86.55029884630547,-15.907412411049595 l 19.670522465069425 3.615321002511271 a 24.0 24.0 0.0 1 0 47.20925391616662,8.676770406027051 z"/><path fill="#ef0219" d="M 149.61183037128143,239.43696169671512 l 6.704301401524515 18.84283266171826 a 44.0 44.0 0.0 1 1 -29.49892616670787,-82.90846371156033 l 6.704301401524518 18.842832661718248 a 24.0 24.0 0.0 1 0 16.09032336365884,45.22279838812382 z"/><path fill="#be0c00" d="M 4.049964129767616,212.6835862781316 l -12.966221063544916 15.22751165920697 a 44.0 44.0 0.0 1 1 57.05137267959763,-67.00105130051067 l -12.966221063544918 15.227511659206975 a 24.0 24.0 0.0 1 0 -31.118930552507795,36.546027982096724 z"/><path fill="#ad122b" d="M -45.561866241513755,73.24662458141658 l -19.670522465069425 -3.61532100251127 a 44.0 44.0 0.0 1 1 86.55029884630547,15.907412411049595 l -19.670522465069425 -3.6153210025112728 a 24.0 24.0 0.0 1 0 -47.20925391616662,-8.676770406027051 z"/><path fill="#bb000b" d="M 50.38816962871883,-39.43696169671523 l -6.704301401524484 -18.84283266171827 a 44.0 44.0 0.0 1 1 29.498926166707726,82.90846371156039 l -6.704301401524482 -18.842832661718276 a 24.0 24.0 0.0 1 0 -16.090323363658758,-45.22279838812385 z"/><path fill="#c81302" d="M -7.413840722106426,243.84040255263514 l 0.3756040529177189 3.982326153824142 a 20.0 20.0 0.0 0 1 -18.182988209128723,-8.329402126604672 l 3.2609935889080255 -2.316445728503208 a 16.0 16.0 0.0 0 0 14.546390567302979,6.663521701283738 z"/><path fill="#000000" d="M -21.960231289409393,237.17688085135143 l -3.2609935889080233 2.3164457285032105 a 20.0 20.0 0.0 0 1 -1.8780202645885926,-19.91163076912072 l 3.636597641825743 1.6658804253209318 a 16.0 16.0 0.0 0 0 1.502416211670873,15.929304615296576 z"/><path fill="#000000" d="M -23.462647501080266,221.24757623605484 l -3.6365976418257415 -1.6658804253209334 a 20.0 20.0 0.0 0 1 16.304967944540117,-11.582228642516041 l 0.37560405291771914 3.9823261538241397 a 16.0 16.0 0.0 0 0 -13.043974355632093,9.265782914012835 z"/><path fill="#010000" d="M -10.418673145448171,211.98179332204202 l -0.3756040529177184 -3.982326153824142 a 20.0 20.0 0.0 0 1 18.18298820912871,8.329402126604654 l -3.2609935889080237 2.3164457285032114 a 16.0 16.0 0.0 0 0 -14.546390567302966,-6.663521701283724 z"/><path fill="#980201" d="M 4.127717421854802,218.64531502332576 l 3.2609935889080233 -2.316445728503211 a 20.0 20.0 0.0 0 1 1.8780202645885926,19.911630769120727 l -3.636597641825743 -1.6658804253209354 a 16.0 16.0 0.0 0 0 -1.502416211670873,-15.92930461529658 z"/><path fill="#3e1402" d="M 5.6301336335256735,234.5746196386223 l 3.636597641825742 1.665880425320933 a 20.0 20.0 0.0 0 1 -16.304967944540103,11.582228642516045 l -0.3756040529177209 -3.9823261538241432 a 16.0 16.0 0.0 0 0 13.043974355632082,-9.265782914012835 z"/><path fill="#c81302" d="M -33.04760949169669,245.0527963282623 l -3.2609935889080264 2.316445728503208 a 8.8 8.8 0.0 1 1 14.348371791195312,-10.192361205414114 l -3.2609935889080264 2.316445728503208 a 4.8 4.8 0.0 1 0 -7.82638461337926,5.5594697484076985 z"/><path fill="#000000" d="M -35.82707948328779,215.58358278996369 l -3.6365976418257424 -1.6658804253209338 a 8.8 8.8 0.0 1 1 16.001029624033265,7.329873871412108 l -3.636597641825743 -1.6658804253209336 a 4.8 4.8 0.0 1 0 -8.72783434038178,-3.9981130207702407 z"/><path fill="#000000" d="M -11.695726925368415,198.4418843990399 l -0.37560405291771853 -3.982326153824143 a 8.8 8.8 0.0 1 1 1.6526578328379602,17.522235076826227 l -0.37560405291771815 -3.9823261538241432 a 4.8 4.8 0.0 1 0 -0.9014497270025236,-9.557582769177941 z"/><path fill="#010000" d="M 15.215095624142084,210.76939954641483 l 3.260993588908026 -2.3164457285032083 a 8.8 8.8 0.0 1 1 -14.348371791195312,10.192361205414114 l 3.2609935889080264 -2.316445728503208 a 4.8 4.8 0.0 1 0 7.82638461337926,-5.5594697484076985 z"/><path fill="#980201" d="M 17.994565615733197,240.2386130847135 l 3.6365976418257424 1.6658804253209343 a 8.8 8.8 0.0 1 1 -16.001029624033265,-7.329873871412109 l 3.636597641825743 1.6658804253209336 a 4.8 4.8 0.0 1 0 8.72783434038178,3.9981130207702407 z"/><path fill="#3e1402" d="M -6.136786942186156,257.3803114756372 l 0.3756040529177216 3.982326153824143 a 8.8 8.8 0.0 1 1 -1.6526578328379757,-17.522235076826224 l 0.37560405291772203 3.9823261538241415 a 4.8 4.8 0.0 1 0 0.9014497270025321,9.557582769177941 z"/><path fill="#60000f" d="M 100.0,100.0 l 79.84331255479445 -5.004541964795798 a 80.0 80.0 0.0 0 1 -19.846819254862588,57.923544144648275 l -59.99649329993186 -52.91900217985248 z"/><path fill="#ffe0e4" d="M 100.0,100.0 l 59.996493299931885 52.919002179852455 a 80.0 80.0 0.0 0 1 -54.9919513351361,26.924310374941996 l -5.0045419647957825 -79.84331255479445 z"/><path fill="#722300" d="M 100.0,100.0 l 5.004541964795802 79.84331255479445 a 80.0 80.0 0.0 0 1 -57.923544144648275,-19.846819254862588 l 52.91900217985248 -59.99649329993186 z"/><path fill="#96001a" d="M 100.0,100.0 l -52.919002179852455 59.996493299931885 a 80.0 80.0 0.0 0 1 -26.92431037494201,-54.991951335136235 l 79.84331255479447 -5.004541964795646 z"/><path fill="#ff111b" d="M 100.0,100.0 l -79.84331255479447 5.004541964795665 a 80.0 80.0 0.0 0 1 19.846819254862595,-57.92354414464813 l 59.99649329993187 52.91900217985247 z"/><path fill="#f96961" d="M 100.0,100.0 l -59.996493299931885 -52.91900217985245 a 80.0 80.0 0.0 0 1 54.99195133513609,-26.924310374942003 l 5.004541964795792 79.84331255479445 z"/><path fill="#950022" d="M 100.0,100.0 l -5.004541964795721 -79.84331255479445 a 80.0 80.0 0.0 0 1 57.92354414464819,19.84681925486258 l -52.91900217985247 59.99649329993187 z"/><path fill="#110000" d="M 100.0,100.0 l 52.91900217985247 -59.99649329993187 a 80.0 80.0 0.0 0 1 26.92431037494198,54.99195133513607 l -79.84331255479445 5.004541964795798 z"/><path fill="#000000" d="M 73.18279439390194,24.628669353126966 l -6.704301401524518 -18.84283266171826 a 100.0 100.0 0.0 0 1 98.35261232534715,18.076605012556453 l -12.966221063544907 15.22751165920696 a 80.0 80.0 0.0 0 0 -78.68208986027773,-14.461284010045155 z"/><path fill="#000000" d="M 151.86488425417966,39.08995336317212 l 12.966221063544914 -15.22751165920697 a 100.0 100.0 0.0 0 1 33.52150700762255,94.21416330859121 l -19.670522465069425 -3.61532100251128 a 80.0 80.0 0.0 0 0 -26.817205606098042,-75.37133064687296 z"/><path fill="#ef0219" d="M 178.6820898602777,114.46128401004508 l 19.670522465069425 3.6153210025112674 a 100.0 100.0 0.0 0 1 -64.83110531772455,76.13755829603495 l -6.704301401524518 -18.842832661718255 a 80.0 80.0 0.0 0 0 51.86488425417964,-60.910046636827964 z"/><path fill="#be0c00" d="M 126.81720560609807,175.37133064687305 l 6.7043014015245195 18.84283266171826 a 100.0 100.0 0.0 0 1 -98.35261232534718,-18.076605012556453 l 12.966221063544921 -15.22751165920696 a 80.0 80.0 0.0 0 0 78.68208986027774,14.461284010045155 z"/><path fill="#ad122b" d="M 48.13511574582034,160.91004663682787 l -12.96622106354491 15.227511659206971 a 100.0 100.0 0.0 0 1 -33.521507007622574,-94.21416330859121 l 19.670522465069425 3.61532100251128 a 80.0 80.0 0.0 0 0 26.817205606098057,75.37133064687296 z"/><path fill="#bb000b" d="M 21.3179101397223,85.53871598995491 l -19.670522465069425 -3.615321002511265 a 100.0 100.0 0.0 0 1 64.8311053177247,-76.13755829603502 l 6.704301401524482 18.842832661718276 a 80.0 80.0 0.0 0 0 -51.86488425417976,60.910046636828014 z"/><path fill="#000000" d="M 195.9500358702324,-12.683586278131578 l 12.966221063544914 -15.22751165920697 a 44.0 44.0 0.0 1 1 -57.05137267959763,67.00105130051067 l 12.966221063544918 -15.227511659206975 a 24.0 24.0 0.0 1 0 31.118930552507795,-36.546027982096724 z"/><path fill="#000000" d="M 245.56186624151374,126.7533754185834 l 19.670522465069425 3.6153210025112728 a 44.0 44.0 0.0 1 1 -86.55029884630547,-15.907412411049595 l 19.670522465069425 3.615321002511271 a 24.0 24.0 0.0 1 0 47.20925391616662,8.676770406027051 z"/><path fill="#ef0219" d="M 149.61183037128143,239.43696169671512 l 6.704301401524515 18.84283266171826 a 44.0 44.0 0.0 1 1 -29.49892616670787,-82.90846371156033 l 6.704301401524518 18.842832661718248 a 24.0 24.0 0.0 1 0 16.09032336365884,45.22279838812382 z"/><path fill="#be0c00" d="M 4.049964129767616,212.6835862781316 l -12.966221063544916 15.22751165920697 a 44.0 44.0 0.0 1 1 57.05137267959763,-67.00105130051067 l -12.966221063544918 15.227511659206975 a 24.0 24.0 0.0 1 0 -31.118930552507795,36.546027982096724 z"/><path fill="#ad122b" d="M -45.561866241513755,73.24662458141658 l -19.670522465069425 -3.61532100251127 a 44.0 44.0 0.0 1 1 86.55029884630547,15.907412411049595 l -19.670522465069425 -3.6153210025112728 a 24.0 24.0 0.0 1 0 -47.20925391616662,-8.676770406027051 z"/><path fill="#bb000b" d="M 50.38816962871883,-39.43696169671523 l -6.704301401524484 -18.84283266171827 a 44.0 44.0 0.0 1 1 29.498926166707726,82.90846371156039 l -6.704301401524482 -18.842832661718276 a 24.0 24.0 0.0 1 0 -16.090323363658758,-45.22279838812385 z"/><path fill="#ffb1c1" d="M -65.23238870658318,69.63130357890532 l 15.8822890927525 -1.9372385434517412 a 16.0 16.0 0.0 0 1 -3.281980263651393,11.797878350851498 l -12.600308829101106 -9.860639807399757 z"/><path fill="#000000" d="M -65.23238870658318,69.63130357890532 l 12.600308829101108 9.860639807399755 a 16.0 16.0 0.0 0 1 -10.66307028564937,6.021649285352744 l -1.9372385434517383 -15.8822890927525 z"/><path fill="#ff6db2" d="M -65.23238870658318,69.63130357890532 l 1.937238543451742 15.882289092752497 a 16.0 16.0 0.0 0 1 -11.797878350851498,-3.2819802636513913 l 9.860639807399757 -12.600308829101106 z"/><path fill="#3a0403" d="M -65.23238870658318,69.63130357890532 l -9.860639807399757 12.600308829101106 a 16.0 16.0 0.0 0 1 -6.021649285352742,-10.663070285649367 l 15.8822890927525 -1.9372385434517392 z"/><path fill="#82000d" d="M -65.23238870658318,69.63130357890532 l -15.8822890927525 1.9372385434517392 a 16.0 16.0 0.0 0 1 3.281980263651393,-11.797878350851496 l 12.600308829101106 9.860639807399757 z"/><path fill="#32000a" d="M -65.23238870658318,69.63130357890532 l -12.600308829101106 -9.860639807399757 a 16.0 16.0 0.0 0 1 10.663070285649367,-6.021649285352742 l 1.93723854345174 15.8822890927525 z"/><path fill="#f3443a" d="M -65.23238870658318,69.63130357890532 l -1.93723854345174 -15.8822890927525 a 16.0 16.0 0.0 0 1 11.797878350851494,3.2819802636513913 l -9.860639807399755 12.600308829101108 z"/><path fill="#ffb2c2" d="M -65.23238870658318,69.63130357890532 l 9.860639807399755 -12.600308829101108 a 16.0 16.0 0.0 0 1 6.021649285352744,10.663070285649367 l -15.8822890927525 1.9372385434517412 z"/><path fill="#60000f" d="M 100.0,100.0 l 79.84331255479445 -5.004541964795798 a 80.0 80.0 0.0 0 1 -19.846819254862588,57.923544144648275 l -59.99649329993186 -52.91900217985248 z"/><path fill="#ffe0e4" d="M 100.0,100.0 l 59.996493299931885 52.919002179852455 a 80.0 80.0 0.0 0 1 -54.9919513351361,26.924310374941996 l -5.0045419647957825 -79.84331255479445 z"/><path fill="#722300" d="M 100.0,100.0 l 5.004541964795802 79.84331255479445 a 80.0 80.0 0.0 0 1 -57.923544144648275,-19.846819254862588 l 52.91900217985248 -59.99649329993186 z"/><path fill="#96001a" d="M 100.0,100.0 l -52.919002179852455 59.996493299931885 a 80.0 80.0 0.0 0 1 -26.92431037494201,-54.991951335136235 l 79.84331255479447 -5.004541964795646 z"/><path fill="#ff111b" d="M 100.0,100.0 l -79.84331255479447 5.004541964795665 a 80.0 80.0 0.0 0 1 19.846819254862595,-57.92354414464813 l 59.99649329993187 52.91900217985247 z"/><path fill="#f96961" d="M 100.0,100.0 l -59.996493299931885 -52.91900217985245 a 80.0 80.0 0.0 0 1 54.99195133513609,-26.924310374942003 l 5.004541964795792 79.84331255479445 z"/><path fill="#950022" d="M 100.0,100.0 l -5.004541964795721 -79.84331255479445 a 80.0 80.0 0.0 0 1 57.92354414464819,19.84681925486258 l -52.91900217985247 59.99649329993187 z"/><path fill="#110000" d="M 100.0,100.0 l 52.91900217985247 -59.99649329993187 a 80.0 80.0 0.0 0 1 26.92431037494198,54.99195133513607 l -79.84331255479445 5.004541964795798 z"/><path fill="#000000" d="M 73.18279439390194,24.628669353126966 l -6.704301401524518 -18.84283266171826 a 100.0 100.0 0.0 0 1 98.35261232534715,18.076605012556453 l -12.966221063544907 15.22751165920696 a 80.0 80.0 0.0 0 0 -78.68208986027773,-14.461284010045155 z"/><path fill="#000000" d="M 151.86488425417966,39.08995336317212 l 12.966221063544914 -15.22751165920697 a 100.0 100.0 0.0 0 1 33.52150700762255,94.21416330859121 l -19.670522465069425 -3.61532100251128 a 80.0 80.0 0.0 0 0 -26.817205606098042,-75.37133064687296 z"/><path fill="#ef0219" d="M 178.6820898602777,114.46128401004508 l 19.670522465069425 3.6153210025112674 a 100.0 100.0 0.0 0 1 -64.83110531772455,76.13755829603495 l -6.704301401524518 -18.842832661718255 a 80.0 80.0 0.0 0 0 51.86488425417964,-60.910046636827964 z"/><path fill="#be0c00" d="M 126.81720560609807,175.37133064687305 l 6.7043014015245195 18.84283266171826 a 100.0 100.0 0.0 0 1 -98.35261232534718,-18.076605012556453 l 12.966221063544921 -15.22751165920696 a 80.0 80.0 0.0 0 0 78.68208986027774,14.461284010045155 z"/><path fill="#ad122b" d="M 48.13511574582034,160.91004663682787 l -12.96622106354491 15.227511659206971 a 100.0 100.0 0.0 0 1 -33.521507007622574,-94.21416330859121 l 19.670522465069425 3.61532100251128 a 80.0 80.0 0.0 0 0 26.817205606098057,75.37133064687296 z"/><path fill="#bb000b" d="M 21.3179101397223,85.53871598995491 l -19.670522465069425 -3.615321002511265 a 100.0 100.0 0.0 0 1 64.8311053177247,-76.13755829603502 l 6.704301401524482 18.842832661718276 a 80.0 80.0 0.0 0 0 -51.86488425417976,60.910046636828014 z"/><path fill="#000000" d="M 195.9500358702324,-12.683586278131578 l 12.966221063544914 -15.22751165920697 a 44.0 44.0 0.0 1 1 -57.05137267959763,67.00105130051067 l 12.966221063544918 -15.227511659206975 a 24.0 24.0 0.0 1 0 31.118930552507795,-36.546027982096724 z"/><path fill="#000000" d="M 245.56186624151374,126.7533754185834 l 19.670522465069425 3.6153210025112728 a 44.0 44.0 0.0 1 1 -86.55029884630547,-15.907412411049595 l 19.670522465069425 3.615321002511271 a 24.0 24.0 0.0 1 0 47.20925391616662,8.676770406027051 z"/><path fill="#ef0219" d="M 149.61183037128143,239.43696169671512 l 6.704301401524515 18.84283266171826 a 44.0 44.0 0.0 1 1 -29.49892616670787,-82.90846371156033 l 6.704301401524518 18.842832661718248 a 24.0 24.0 0.0 1 0 16.09032336365884,45.22279838812382 z"/><path fill="#be0c00" d="M 4.049964129767616,212.6835862781316 l -12.966221063544916 15.22751165920697 a 44.0 44.0 0.0 1 1 57.05137267959763,-67.00105130051067 l -12.966221063544918 15.227511659206975 a 24.0 24.0 0.0 1 0 -31.118930552507795,36.546027982096724 z"/><path fill="#ad122b" d="M -45.561866241513755,73.24662458141658 l -19.670522465069425 -3.61532100251127 a 44.0 44.0 0.0 1 1 86.55029884630547,15.907412411049595 l -19.670522465069425 -3.6153210025112728 a 24.0 24.0 0.0 1 0 -47.20925391616662,-8.676770406027051 z"/><path fill="#bb000b" d="M 50.38816962871883,-39.43696169671523 l -6.704301401524484 -18.84283266171827 a 44.0 44.0 0.0 1 1 29.498926166707726,82.90846371156039 l -6.704301401524482 -18.842832661718276 a 24.0 24.0 0.0 1 0 -16.090323363658758,-45.22279838812385 z"/><path fill="#f22700" d="M -49.54797203516725,66.46917238659054 l 3.9211041678539824 -0.7905327980786939 a 20.0 20.0 0.0 0 1 -6.379652991330241,18.955211096429682 l -2.645173569587934 -3.0005094212072407 a 16.0 16.0 0.0 0 0 5.103722393064192,-15.164168877143748 z"/><path fill="#000000" d="M -54.65169442823143,81.63334126373428 l 2.6451735695879353 3.0005094212072425 a 20.0 20.0 0.0 0 1 -19.60552083926991,3.952663990393477 l 1.2759305982660472 -3.791042219285938 a 16.0 16.0 0.0 0 0 15.684416671415928,-3.1621311923147815 z"/><path fill="#cd1000" d="M -70.33611109964737,84.79547245604907 l -1.2759305982660465 3.791042219285938 a 20.0 20.0 0.0 0 1 -13.225867847939679,-15.002547106036221 l 3.921104167853983 -0.7905327980786936 a 16.0 16.0 0.0 0 0 10.580694278351743,12.002037684828977 z"/><path fill="#320001" d="M -80.91680537799911,72.79343477122009 l -3.9211041678539824 0.7905327980786935 a 20.0 20.0 0.0 0 1 6.379652991330252,-18.955211096429693 l 2.645173569587932 3.0005094212072443 a 16.0 16.0 0.0 0 0 -5.103722393064201,15.164168877143755 z"/><path fill="#9b1d00" d="M -75.81308298493491,57.62926589407633 l -2.645173569587932 -3.000509421207245 a 20.0 20.0 0.0 0 1 19.605520839269893,-3.9526639903934635 l -1.2759305982660472 3.791042219285938 a 16.0 16.0 0.0 0 0 -15.684416671415914,3.162131192314771 z"/><path fill="#0f0000" d="M -60.12866631351899,54.467134701761566 l 1.275930598266046 -3.791042219285938 a 20.0 20.0 0.0 0 1 13.22586784793968,15.00254710603622 l -3.9211041678539793 0.7905327980786936 a 16.0 16.0 0.0 0 0 -10.580694278351746,-12.002037684828975 z"/><path fill="#f22700" d="M -45.65810429163246,91.83507329583892 l 2.645173569587935 3.000509421207244 a 8.8 8.8 0.0 1 1 -11.638763706186914,-13.20224145331187 l 2.6451735695879357 3.0005094212072434 a 4.8 4.8 0.0 1 0 6.348416567011043,7.201222610897383 z"/><path fill="#000000" d="M -74.67427513375192,97.68501600162125 l -1.2759305982660467 3.7910422192859388 a 8.8 8.8 0.0 1 1 5.614094632370604,-16.68058576485813 l -1.2759305982660463 3.7910422192859397 a 4.8 4.8 0.0 1 0 -3.062233435838511,9.09850132628625 z"/><path fill="#cd1000" d="M -94.24855954870264,75.48124628468764 l -3.9211041678539833 0.7905327980786937 a 8.8 8.8 0.0 1 1 17.252858338557523,-3.4783443115462527 l -3.921104167853983 0.7905327980786945 a 4.8 4.8 0.0 1 0 -9.410650002849557,1.8972787153888646 z"/><path fill="#320001" d="M -84.80667312153388,47.4275338619717 l -2.6451735695879326 -3.000509421207246 a 8.8 8.8 0.0 1 1 11.6387637061869,13.202241453311881 l -2.645173569587932 -3.000509421207246 a 4.8 4.8 0.0 1 0 -6.348416567011036,-7.201222610897389 z"/><path fill="#9b1d00" d="M -55.79050227941444,41.57759115618937 l 1.2759305982660463 -3.7910422192859388 a 8.8 8.8 0.0 1 1 -5.6140946323706045,16.68058576485813 l 1.2759305982660472 -3.7910422192859397 a 4.8 4.8 0.0 1 0 3.062233435838511,-9.09850132628625 z"/><path fill="#0f0000" d="M -36.2162178644637,63.781360873122985 l 3.9211041678539833 -0.7905327980786941 a 8.8 8.8 0.0 1 1 -17.252858338557523,3.4783443115462527 l 3.921104167853983 -0.790532798078694 a 4.8 4.8 0.0 1 0 9.410650002849557,-1.8972787153888646 z"/><path fill="#60000f" d="M 100.0,100.0 l 79.84331255479445 -5.004541964795798 a 80.0 80.0 0.0 0 1 -19.846819254862588,57.923544144648275 l -59.99649329993186 -52.91900217985248 z"/><path fill="#ffe0e4" d="M 100.0,100.0 l 59.996493299931885 52.919002179852455 a 80.0 80.0 0.0 0 1 -54.9919513351361,26.924310374941996 l -5.0045419647957825 -79.84331255479445 z"/><path fill="#722300" d="M 100.0,100.0 l 5.004541964795802 79.84331255479445 a 80.0 80.0 0.0 0 1 -57.923544144648275,-19.846819254862588 l 52.91900217985248 -59.99649329993186 z"/><path fill="#96001a" d="M 100.0,100.0 l -52.919002179852455 59.996493299931885 a 80.0 80.0 0.0 0 1 -26.92431037494201,-54.991951335136235 l 79.84331255479447 -5.004541964795646 z"/><path fill="#ff111b" d="M 100.0,100.0 l -79.84331255479447 5.004541964795665 a 80.0 80.0 0.0 0 1 19.846819254862595,-57.92354414464813 l 59.99649329993187 52.91900217985247 z"/><path fill="#f96961" d="M 100.0,100.0 l -59.996493299931885 -52.91900217985245 a 80.0 80.0 0.0 0 1 54.99195133513609,-26.924310374942003 l 5.004541964795792 79.84331255479445 z"/><path fill="#950022" d="M 100.0,100.0 l -5.004541964795721 -79.84331255479445 a 80.0 80.0 0.0 0 1 57.92354414464819,19.84681925486258 l -52.91900217985247 59.99649329993187 z"/><path fill="#110000" d="M 100.0,100.0 l 52.91900217985247 -59.99649329993187 a 80.0 80.0 0.0 0 1 26.92431037494198,54.99195133513607 l -79.84331255479445 5.004541964795798 z"/><path fill="#000000" d="M 73.18279439390194,24.628669353126966 l -6.704301401524518 -18.84283266171826 a 100.0 100.0 0.0 0 1 98.35261232534715,18.076605012556453 l -12.966221063544907 15.22751165920696 a 80.0 80.0 0.0 0 0 -78.68208986027773,-14.461284010045155 z"/><path fill="#000000" d="M 151.86488425417966,39.08995336317212 l 12.966221063544914 -15.22751165920697 a 100.0 100.0 0.0 0 1 33.52150700762255,94.21416330859121 l -19.670522465069425 -3.61532100251128 a 80.0 80.0 0.0 0 0 -26.817205606098042,-75.37133064687296 z"/><path fill="#ef0219" d="M 178.6820898602777,114.46128401004508 l 19.670522465069425 3.6153210025112674 a 100.0 100.0 0.0 0 1 -64.83110531772455,76.13755829603495 l -6.704301401524518 -18.842832661718255 a 80.0 80.0 0.0 0 0 51.86488425417964,-60.910046636827964 z"/><path fill="#be0c00" d="M 126.81720560609807,175.37133064687305 l 6.7043014015245195 18.84283266171826 a 100.0 100.0 0.0 0 1 -98.35261232534718,-18.076605012556453 l 12.966221063544921 -15.22751165920696 a 80.0 80.0 0.0 0 0 78.68208986027774,14.461284010045155 z"/><path fill="#ad122b" d="M 48.13511574582034,160.91004663682787 l -12.96622106354491 15.227511659206971 a 100.0 100.0 0.0 0 1 -33.521507007622574,-94.21416330859121 l 19.670522465069425 3.61532100251128 a 80.0 80.0 0.0 0 0 26.817205606098057,75.37133064687296 z"/><path fill="#bb000b" d="M 21.3179101397223,85.53871598995491 l -19.670522465069425 -3.615321002511265 a 100.0 100.0 0.0 0 1 64.8311053177247,-76.13755829603502 l 6.704301401524482 18.842832661718276 a 80.0 80.0 0.0 0 0 -51.86488425417976,60.910046636828014 z"/><path fill="#000000" d="M 195.9500358702324,-12.683586278131578 l 12.966221063544914 -15.22751165920697 a 44.0 44.0 0.0 1 1 -57.05137267959763,67.00105130051067 l 12.966221063544918 -15.227511659206975 a 24.0 24.0 0.0 1 0 31.118930552507795,-36.546027982096724 z"/><path fill="#000000" d="M 245.56186624151374,126.7533754185834 l 19.670522465069425 3.6153210025112728 a 44.0 44.0 0.0 1 1 -86.55029884630547,-15.907412411049595 l 19.670522465069425 3.615321002511271 a 24.0 24.0 0.0 1 0 47.20925391616662,8.676770406027051 z"/><path fill="#ef0219" d="M 149.61183037128143,239.43696169671512 l 6.704301401524515 18.84283266171826 a 44.0 44.0 0.0 1 1 -29.49892616670787,-82.90846371156033 l 6.704301401524518 18.842832661718248 a 24.0 24.0 0.0 1 0 16.09032336365884,45.22279838812382 z"/><path fill="#be0c00" d="M 4.049964129767616,212.6835862781316 l -12.966221063544916 15.22751165920697 a 44.0 44.0 0.0 1 1 57.05137267959763,-67.00105130051067 l -12.966221063544918 15.227511659206975 a 24.0 24.0 0.0 1 0 -31.118930552507795,36.546027982096724 z"/><path fill="#ad122b" d="M -45.561866241513755,73.24662458141658 l -19.670522465069425 -3.61532100251127 a 44.0 44.0 0.0 1 1 86.55029884630547,15.907412411049595 l -19.670522465069425 -3.6153210025112728 a 24.0 24.0 0.0 1 0 -47.20925391616662,-8.676770406027051 z"/><path fill="#bb000b" d="M 50.38816962871883,-39.43696169671523 l -6.704301401524484 -18.84283266171827 a 44.0 44.0 0.0 1 1 29.498926166707726,82.90846371156039 l -6.704301401524482 -18.842832661718276 a 24.0 24.0 0.0 1 0 -16.090323363658758,-45.22279838812385 z"/><path fill="#ffcacc" d="M 43.683868227194345,-58.2797943584335 l -3.7120323043369607 -15.56344486839462 a 16.0 16.0 0.0 0 1 12.09224649502158,1.9336242489496183 l -8.380214190684619 13.629820619445002 z"/><path fill="#ff352a" d="M 43.683868227194345,-58.2797943584335 l 8.380214190684619 -13.629820619445002 a 16.0 16.0 0.0 0 1 7.18323067771,9.91778831510804 l -15.563444868394619 3.712032304336962 z"/><path fill="#ff7975" d="M 43.683868227194345,-58.2797943584335 l 15.563444868394619 -3.712032304336962 a 16.0 16.0 0.0 0 1 -1.9336242489496112,12.092246495021572 l -13.629820619445008 -8.38021419068461 z"/><path fill="#000000" d="M 43.683868227194345,-58.2797943584335 l 13.629820619445006 8.380214190684612 a 16.0 16.0 0.0 0 1 -9.917788315108037,7.1832306777100055 l -3.7120323043369696 -15.563444868394617 z"/><path fill="#f3052f" d="M 43.683868227194345,-58.2797943584335 l 3.7120323043369696 15.563444868394617 a 16.0 16.0 0.0 0 1 -12.092246495021577,-1.9336242489496094 l 8.380214190684608 -13.629820619445008 z"/><path fill="#9c4400" d="M 43.683868227194345,-58.2797943584335 l -8.380214190684608 13.629820619445008 a 16.0 16.0 0.0 0 1 -7.183230677710011,-9.91778831510804 l 15.563444868394619 -3.712032304336967 z"/><path fill="#000000" d="M 43.683868227194345,-58.2797943584335 l -15.563444868394619 3.712032304336967 a 16.0 16.0 0.0 0 1 1.933624248949613,-12.09224649502158 l 13.629820619445006 8.380214190684613 z"/><path fill="#38060d" d="M 43.683868227194345,-58.2797943584335 l -13.629820619445006 -8.380214190684613 a 16.0 16.0 0.0 0 1 9.91778831510803,-7.183230677710004 l 3.712032304336975 15.563444868394617 z"/><path fill="#60000f" d="M 100.0,100.0 l 79.84331255479445 -5.004541964795798 a 80.0 80.0 0.0 0 1 -19.846819254862588,57.923544144648275 l -59.99649329993186 -52.91900217985248 z"/><path fill="#ffe0e4" d="M 100.0,100.0 l 59.996493299931885 52.919002179852455 a 80.0 80.0 0.0 0 1 -54.9919513351361,26.924310374941996 l -5.0045419647957825 -79.84331255479445 z"/><path fill="#722300" d="M 100.0,100.0 l 5.004541964795802 79.84331255479445 a 80.0 80.0 0.0 0 1 -57.923544144648275,-19.846819254862588 l 52.91900217985248 -59.99649329993186 z"/><path fill="#96001a" d="M 100.0,100.0 l -52.919002179852455 59.996493299931885 a 80.0 80.0 0.0 0 1 -26.92431037494201,-54.991951335136235 l 79.84331255479447 -5.004541964795646 z"/><path fill="#ff111b" d="M 100.0,100.0 l -79.84331255479447 5.004541964795665 a 80.0 80.0 0.0 0 1 19.846819254862595,-57.92354414464813 l 59.99649329993187 52.91900217985247 z"/><path fill="#f96961" d="M 100.0,100.0 l -59.996493299931885 -52.91900217985245 a 80.0 80.0 0.0 0 1 54.99195133513609,-26.924310374942003 l 5.004541964795792 79.84331255479445 z"/><path fill="#950022" d="M 100.0,100.0 l -5.004541964795721 -79.84331255479445 a 80.0 80.0 0.0 0 1 57.92354414464819,19.84681925486258 l -52.91900217985247 59.99649329993187 z"/><path fill="#110000" d="M 100.0,100.0 l 52.91900217985247 -59.99649329993187 a 80.0 80.0 0.0 0 1 26.92431037494198,54.99195133513607 l -79.84331255479445 5.004541964795798 z"/><path fill="#000000" d="M 73.18279439390194,24.628669353126966 l -6.704301401524518 -18.84283266171826 a 100.0 100.0 0.0 0 1 98.35261232534715,18.076605012556453 l -12.966221063544907 15.22751165920696 a 80.0 80.0 0.0 0 0 -78.68208986027773,-14.461284010045155 z"/><path fill="#000000" d="M 151.86488425417966,39.08995336317212 l 12.966221063544914 -15.22751165920697 a 100.0 100.0 0.0 0 1 33.52150700762255,94.21416330859121 l -19.670522465069425 -3.61532100251128 a 80.0 80.0 0.0 0 0 -26.817205606098042,-75.37133064687296 z"/><path fill="#ef0219" d="M 178.6820898602777,114.46128401004508 l 19.670522465069425 3.6153210025112674 a 100.0 100.0 0.0 0 1 -64.83110531772455,76.13755829603495 l -6.704301401524518 -18.842832661718255 a 80.0 80.0 0.0 0 0 51.86488425417964,-60.910046636827964 z"/><path fill="#be0c00" d="M 126.81720560609807,175.37133064687305 l 6.7043014015245195 18.84283266171826 a 100.0 100.0 0.0 0 1 -98.35261232534718,-18.076605012556453 l 12.966221063544921 -15.22751165920696 a 80.0 80.0 0.0 0 0 78.68208986027774,14.461284010045155 z"/><path fill="#ad122b" d="M 48.13511574582034,160.91004663682787 l -12.96622106354491 15.227511659206971 a 100.0 100.0 0.0 0 1 -33.521507007622574,-94.21416330859121 l 19.670522465069425 3.61532100251128 a 80.0 80.0 0.0 0 0 26.817205606098057,75.37133064687296 z"/><path fill="#bb000b" d="M 21.3179101397223,85.53871598995491 l -19.670522465069425 -3.615321002511265 a 100.0 100.0 0.0 0 1 64.8311053177247,-76.13755829603502 l 6.704301401524482 18.842832661718276 a 80.0 80.0 0.0 0 0 -51.86488425417976,60.910046636828014 z"/><path fill="#000000" d="M 195.9500358702324,-12.683586278131578 l 12.966221063544914 -15.22751165920697 a 44.0 44.0 0.0 1 1 -57.05137267959763,67.00105130051067 l 12.966221063544918 -15.227511659206975 a 24.0 24.0 0.0 1 0 31.118930552507795,-36.546027982096724 z"/><path fill="#000000" d="M 245.56186624151374,126.7533754185834 l 19.670522465069425 3.6153210025112728 a 44.0 44.0 0.0 1 1 -86.55029884630547,-15.907412411049595 l 19.670522465069425 3.615321002511271 a 24.0 24.0 0.0 1 0 47.20925391616662,8.676770406027051 z"/><path fill="#ef0219" d="M 149.61183037128143,239.43696169671512 l 6.704301401524515 18.84283266171826 a 44.0 44.0 0.0 1 1 -29.49892616670787,-82.90846371156033 l 6.704301401524518 18.842832661718248 a 24.0 24.0 0.0 1 0 16.09032336365884,45.22279838812382 z"/><path fill="#be0c00" d="M 4.049964129767616,212.6835862781316 l -12.966221063544916 15.22751165920697 a 44.0 44.0 0.0 1 1 57.05137267959763,-67.00105130051067 l -12.966221063544918 15.227511659206975 a 24.0 24.0 0.0 1 0 -31.118930552507795,36.546027982096724 z"/><path fill="#ad122b" d="M -45.561866241513755,73.24662458141658 l -19.670522465069425 -3.61532100251127 a 44.0 44.0 0.0 1 1 86.55029884630547,15.907412411049595 l -19.670522465069425 -3.6153210025112728 a 24.0 24.0 0.0 1 0 -47.20925391616662,-8.676770406027051 z"/><path fill="#bb000b" d="M 50.38816962871883,-39.43696169671523 l -6.704301401524484 -18.84283266171827 a 44.0 44.0 0.0 1 1 29.498926166707726,82.90846371156039 l -6.704301401524482 -18.842832661718276 a 24.0 24.0 0.0 1 0 -16.090323363658758,-45.22279838812385 z"/><path fill="#ff4623" d="M 30.01385851272218,-66.59428979749873 l -3.417502428618042 -2.078623859766308 a 20.0 20.0 0.0 0 1 17.544461408895526,-9.601659953975428 l -0.0913898531610613 3.9989558505613925 a 16.0 16.0 0.0 0 0 -14.035569127116421,7.681327963180344 z"/><path fill="#9d1d00" d="M 44.0494276398386,-74.27561776067907 l 0.09138985316106285 -3.998955850561394 a 20.0 20.0 0.0 0 1 17.087512143090212,10.393119298831529 l -3.5088922817791044 1.9203319907950878 a 16.0 16.0 0.0 0 0 -13.670009714472169,-8.314495439065222 z"/><path fill="#861306" d="M 57.719437354310756,-65.96112232161386 l 3.508892281779105 -1.920331990795088 a 20.0 20.0 0.0 0 1 -0.4569492658053158,19.994779252806982 l -3.4175024286180413 -2.07862385976631 a 16.0 16.0 0.0 0 0 0.3655594126442523,-15.995823402245584 z"/><path fill="#920223" d="M 57.35387794166651,-49.96529891936825 l 3.417502428618042 2.0786238597663074 a 20.0 20.0 0.0 0 1 -17.54446140889553,9.601659953975432 l 0.09138985316106307 -3.9989558505613925 a 16.0 16.0 0.0 0 0 14.035569127116423,-7.681327963180346 z"/><path fill="#290007" d="M 43.31830881455009,-42.28397095618792 l -0.09138985316106235 3.998955850561394 a 20.0 20.0 0.0 0 1 -17.08751214309021,-10.393119298831516 l 3.5088922817791044 -1.9203319907950895 a 16.0 16.0 0.0 0 0 13.670009714472165,8.314495439065212 z"/><path fill="#ffabb7" d="M 29.648299100077928,-50.59846639525315 l -3.5088922817791053 1.9203319907950875 a 20.0 20.0 0.0 0 1 0.4569492658053145,-19.99477925280698 l 3.417502428618043 2.07862385976631 a 16.0 16.0 0.0 0 0 -0.3655594126442523,15.99582340224558 z"/><path fill="#ff4623" d="M 44.36015314058622,-87.87206765258782 l 0.09138985316106286 -3.9989558505613947 a 8.8 8.8 0.0 1 1 -0.4021153539086776,17.595405742470135 l 0.09138985316106332 -3.998955850561396 a 4.8 4.8 0.0 1 0 0.2193356475865514,-9.597494041347344 z"/><path fill="#9d1d00" d="M 69.64967111235973,-72.49025109031716 l 3.508892281779104 -1.9203319907950915 a 8.8 8.8 0.0 1 1 -15.439126039828057,8.4494607594984 l 3.5088922817791044 -1.9203319907950913 a 4.8 4.8 0.0 1 0 8.421341476269848,-4.608796777908218 z"/><path fill="#861306" d="M 68.97338619896784,-42.89797779616283 l 3.4175024286180427 2.0786238597663087 a 8.8 8.8 0.0 1 1 -15.037010685919387,-9.145944982971756 l 3.417502428618043 2.0786238597663083 a 4.8 4.8 0.0 1 0 8.202005828683301,4.988697263439139 z"/><path fill="#920223" d="M 43.00758331380247,-28.687521064279167 l -0.09138985316106335 3.9989558505613947 a 8.8 8.8 0.0 1 1 0.40211535390867764,-17.595405742470135 l -0.09138985316106288 3.998955850561396 a 4.8 4.8 0.0 1 0 -0.2193356475865514,9.597494041347344 z"/><path fill="#290007" d="M 17.718065342028975,-44.069337626549824 l -3.5088922817791044 1.920331990795091 a 8.8 8.8 0.0 1 1 15.439126039828057,-8.4494607594984 l -3.5088922817791044 1.9203319907950922 a 4.8 4.8 0.0 1 0 -8.421341476269848,4.608796777908218 z"/><path fill="#ffabb7" d="M 18.394350255420836,-73.66161092070418 l -3.417502428618043 -2.0786238597663083 a 8.8 8.8 0.0 1 1 15.037010685919387,9.145944982971756 l -3.417502428618043 -2.0786238597663083 a 4.8 4.8 0.0 1 0 -8.202005828683301,-4.988697263439139 z"/><circle fill="#720e00" r="4.000000000000001" cx="210.36640368561115" cy="-61.479789815309395"/><circle fill="#f91e39" r="4.000000000000001" cx="238.71267024782938" cy="-43.43957995002034"/><circle fill="#050100" r="4.000000000000001" cx="237.26252349599545" cy="-9.870888072049468"/><circle fill="#ffb59d" r="4.000000000000001" cx="207.46611018194346" cy="5.657593940632299"/><circle fill="#ffdadb" r="4.000000000000001" cx="179.11984361972523" cy="-12.382615924656813"/><circle fill="#5c0c06" r="4.000000000000001" cx="180.56999037155916" cy="-45.951307802627625"/><circle fill="#000000" r="4.000000000000001" cx="296.6920445349761" cy="142.16912247946485"/><circle fill="#000000" r="4.000000000000001" cx="270.74274787875123" cy="163.5137705919832"/><circle fill="#d51600" r="4.000000000000001" cx="239.28309205035825" cy="151.71334453361308"/><circle fill="#50000e" r="4.000000000000001" cx="233.7727328781902" cy="118.56827036272456"/><circle fill="#000000" r="4.000000000000001" cx="259.7220295344152" cy="97.2236222502061"/><circle fill="#ff1c07" r="4.000000000000001" cx="291.1816853628081" cy="109.0240483085763"/><circle fill="#ff6776" r="4.000000000000001" cx="142.72379237829801" cy="227.55182160095214"/><circle fill="#000000" r="4.000000000000001" cx="176.1311670903269" cy="231.14449676718894"/><circle fill="#cb001d" r="4.000000000000001" cx="189.7235064848348" cy="261.8724695246701"/><circle fill="#bd1107" r="4.000000000000001" cx="169.90847116731385" cy="289.00776711591453"/><circle fill="#91001f" r="4.000000000000001" cx="136.50109645528497" cy="285.41509194967784"/><circle fill="#000000" r="4.000000000000001" cx="122.90875706077703" cy="254.6871191921966"/><circle fill="#c81302" r="4.000000000000001" cx="-36.30860308060472" cy="247.3692420567655"/><circle fill="#000000" r="4.000000000000001" cx="-39.463677125113534" cy="213.91770236464276"/><circle fill="#000000" r="4.000000000000001" cx="-12.071330978286134" cy="194.45955824521576"/><circle fill="#010000" r="4.000000000000001" cx="18.47608921305011" cy="208.45295381791163"/><circle fill="#980201" r="4.000000000000001" cx="21.63116325755894" cy="241.90449351003443"/><circle fill="#3e1402" r="4.000000000000001" cx="-5.761182889268434" cy="261.36263762946135"/><circle fill="#f22700" r="4.000000000000001" cx="-43.01293072204453" cy="94.83558271704617"/><circle fill="#000000" r="4.000000000000001" cx="-75.95020573201796" cy="101.47605822090719"/><circle fill="#cd1000" r="4.000000000000001" cx="-98.16966371655663" cy="76.27177908276634"/><circle fill="#320001" r="4.000000000000001" cx="-87.45184669112182" cy="44.427024440764455"/><circle fill="#9b1d00" r="4.000000000000001" cx="-54.5145716811484" cy="37.78654893690343"/><circle fill="#0f0000" r="4.000000000000001" cx="-32.29511369660972" cy="62.99082807504429"/><circle fill="#ff4623" r="4.000000000000001" cx="44.45154299374728" cy="-91.87102350314922"/><circle fill="#9d1d00" r="4.000000000000001" cx="73.15856339413882" cy="-74.41058308111225"/><circle fill="#861306" r="4.000000000000001" cx="72.39088862758588" cy="-40.81935393639652"/><circle fill="#920223" r="4.000000000000001" cx="42.91619346064141" cy="-24.688565213717773"/><circle fill="#290007" r="4.000000000000001" cx="14.20917306024987" cy="-42.14900563575473"/><circle fill="#ffabb7" r="4.000000000000001" cx="14.976847826802793" cy="-75.74023478047049"/></g></svg>