<?xml version='1.0' encoding='UTF-8'?>
<svg preserveAspectRatio="xMidYMid meet" xmlns="http://www.w3.org/2000/svg" xmlns:svg="http://www.w3.org/2000/svg"><g><circle fill="#000000" r="50.0" cx="0.0" cy="0.0"/><path fill="#00000d" d="M 100.0,0.0 a 100.0 100.0 0.0 1 1 -100.0,-100.0 a 100.0 100.0 0.0 0 1 100.0,100.0 z M 50.0,0.0 a 50.0 50.0 0.0 1 0 -50.0,50.0 a 50.0 50.0 0.0 0 0 50.0,-50.0 z"/><circle fill="#000000" r="50.0" cx="0.0" cy="0.0"/><path fill="#014d27" d="M -48.263050275722556,-13.064378212646655 l -4.826305027572256 -1.3064378212646668 a 55.0 55.0 0.0 0 1 14.29803295705904,-24.619353376216004 l 3.5264838496577937 3.5445608554661234 a 50.0 50.0 0.0 0 0 -12.998211779144576,22.381230342014547 z"/><path fill="#00a15c" d="M 48.3292167092246,-12.817441721061401 l 4.8329216709224605 -1.2817441721061407 a 55.0 55.0 0.0 0 1 -0.0727830768522475,28.470001927078865 l -4.8263050275722605 -1.3064378212646623 a 50.0 50.0 0.0 0 0 0.06616643350204754,-25.881819933708062 z"/><path fill="#3480b0" d="M -47.398154821423205,27.900088163380353 l -4.308923165583928 2.5363716512163954 a 60.0 60.0 0.0 0 1 -8.29079501250255,-29.93125140739529 l 4.999822749959137 -0.04210070060011972 a 55.0 55.0 0.0 0 0 7.59989542812734,27.436980456779015 z"/><path fill="#342a07" d="M 47.86126252802454,27.097962086170135 l 4.3510238661840495 2.463451098742739 a 60.0 60.0 0.0 0 1 -21.77582657961186,22.145664802094263 l -2.5363716512163954 -4.308923165583927 a 55.0 55.0 0.0 0 0 19.961174364644204,-20.300192735253074 z"/><path fill="#ff589a" d="M 59.91972681607734,-3.1026340884258077 l 4.993310568006445 -0.2585528407021513 a 65.0 65.0 0.0 0 1 -7.016104508094239,32.90683235367676 l -4.453610221229965 -2.2727419557345208 a 60.0 60.0 0.0 0 0 6.47640416131776,-30.37553755724009 z"/><path fill="#0d8451" d="M -64.98447425305721,1.4206005961364465 l -4.998805711773632 0.10927696893357443 a 70.0 70.0 0.0 0 1 8.611042892593797,-35.19660471145497 l 4.383731219445501 2.4047662247417776 a 65.0 65.0 0.0 0 0 -7.995968400265667,32.68256151777962 z"/><path fill="#2e688d" d="M -33.72251333141409,-55.56790525665511 l -2.594039487031854 -4.274454250511932 a 70.0 70.0 0.0 0 1 34.78667525337594,-10.140920457663816 l 0.10927696893357108 4.998805711773642 a 65.0 65.0 0.0 0 0 -32.301912735277654,9.416568996402106 z"/><path fill="#ff589d" d="M 56.988505852791576,31.2619609216431 l 4.383731219445506 2.4047662247417763 a 70.0 70.0 0.0 0 1 -25.055684253791135,26.175632360782167 l -2.594039487031857 -4.27445425051193 a 65.0 65.0 0.0 0 0 23.265992521377484,-24.305944335012015 z"/><path fill="#ff6f3f" d="M -31.261960921643098,56.988505852791576 l -2.4047662247417763 4.383731219445506 a 70.0 70.0 0.0 0 1 -26.175632360782135,-25.055684253791092 l 4.27445425051193 -2.594039487031857 a 65.0 65.0 0.0 0 0 24.305944335011983,23.26599252137744 z"/><path fill="#f77b2b" d="M -43.44497769472954,54.88655493929686 l -3.1032126924806818 3.9204682099497754 a 75.0 75.0 0.0 0 1 -23.16723656293175,-31.15274237466459 l 4.647695130009467 -1.8436187183054678 a 70.0 70.0 0.0 0 0 21.622754125402963,29.075892883020284 z"/><path fill="#803200" d="M 69.2556397510061,10.181176880835697 l 4.946831410786151 0.7272269200596876 a 75.0 75.0 0.0 0 1 -15.395448012545641,35.63978658631492 l -3.9204682099497745 -3.1032126924806818 a 70.0 70.0 0.0 0 0 14.369084811709264,-33.26380081389392 z"/><path fill="#08415e" d="M -78.17254246130625,-17.001576548522575 l -4.885783903831641 -1.0625985342826592 a 85.0 85.0 0.0 0 1 20.159793278512343,-39.10902261988301 l 3.699913710977974 3.363129276628726 a 80.0 80.0 0.0 0 0 -18.973923085658676,36.80849187753694 z"/><path fill="#e3d159" d="M 80.4479547681233,-40.3500504786052 l 4.469330820451295 -2.2416694710336227 a 95.0 95.0 0.0 0 1 9.919100926368625,48.1648512766664 l -4.9913887639443715 -0.29332270142250394 a 90.0 90.0 0.0 0 0 -9.397042982875547,-45.62985910421027 z"/><path fill="#510226" d="M 42.12716723491868,-85.14870392883965 l 2.217219328153614 -4.481510733096824 a 100.0 100.0 0.0 0 1 38.87408604675384,34.18036509958312 l -4.160923630491311 2.7724924781176696 a 95.0 95.0 0.0 0 0 -36.93038174441614,-32.471346844603964 z"/><path fill="#912408" d="M -85.14870392883965,-42.12716723491869 l -4.481510733096824 -2.2172193281536146 a 100.0 100.0 0.0 0 1 34.18036509958312,-38.87408604675383 l 2.7724924781176625 4.160923630491311 a 95.0 95.0 0.0 0 0 -32.47134684460396,36.93038174441614 z"/></g></svg>