<?xml version='1.0' encoding='UTF-8'?>
<svg preserveAspectRatio="xMidYMid meet" xmlns="http://www.w3.org/2000/svg" xmlns:svg="http://www.w3.org/2000/svg"><g><circle fill="#000000" r="70.0" cx="0.0" cy="0.0"/><path fill="#00001a" d="M 100.0,0.0 a 100.0 100.0 0.0 1 1 -100.0,-100.0 a 100.0 100.0 0.0 0 1 100.0,100.0 z M 70.0,0.0 a 70.0 70.0 0.0 1 0 -70.0,70.0 a 70.0 70.0 0.0 0 0 70.0,-70.0 z"/><circle fill="#000000" r="70.0" cx="0.0" cy="0.0"/><path fill="#f96bc3" d="M -68.471906907923,14.54640726752576 l -1.9563401973692287 0.4156116362150215 a 72.0 72.0 0.0 0 1 1.9545865162309035,-37.21865399384436 l 1.9020461274739375 0.6182398636139865 a 70.0 70.0 0.0 0 0 -1.9002924463356123,36.18480249401536 z"/><path fill="#b70057" d="M -14.54640726752575,-68.471906907923 l -0.4156116362150216 -1.9563401973692287 a 72.0 72.0 0.0 0 1 37.2186539938444,1.9545865162309177 l -0.6182398636139865 1.9020461274739233 a 70.0 70.0 0.0 0 0 -36.18480249401539,-1.9002924463356123 z"/><path fill="#ffffff" d="M -21.326795798406856,-68.76894488774025 l -0.5924109944001906 -1.9102484691038957 a 74.0 74.0 0.0 0 1 38.2762135578538,-1.4903870055787347 l -0.4420812639201799 1.9505291989843982 a 72.0 72.0 0.0 0 0 -37.24172129953343,1.4501062756982321 z"/><path fill="#8e1d02" d="M 48.892255365031616,-52.85401938661371 l 1.3581182045842113 -1.4681672051837142 a 74.0 74.0 0.0 0 1 20.428819787228345,32.40297979899043 l -1.910248469103891 0.5924109944001898 a 72.0 72.0 0.0 0 0 -19.876689522708666,-31.52722358820691 z"/><path fill="#0eb165" d="M -35.990367154901634,-66.93798228252311 l -0.9471149251289905 -1.7615258495400816 a 78.0 78.0 0.0 0 1 39.298438312923324,-9.264752177814469 l -0.060537339304943316 1.9990835976891645 a 76.0 76.0 0.0 0 0 -38.29078604848939,9.027194429665386 z"/><path fill="#0dff84" d="M 75.9651767121885,2.3004188935876178 l 1.9990835976891708 0.06053733930493884 a 78.0 78.0 0.0 0 1 -11.62570841070707,38.665821996954406 l -1.700988510235149 -1.0519686725601787 a 76.0 76.0 0.0 0 0 11.327613323253047,-37.674390663699164 z"/><path fill="#f9ae09" d="M -2.300418893587748,75.9651767121885 l -0.060537339304938716 1.9990835976891708 a 78.0 78.0 0.0 0 1 -38.66582199695447,-11.625708410707112 l 1.0519686725601858 -1.7009885102351348 a 76.0 76.0 0.0 0 0 37.67439066369922,11.327613323253075 z"/><path fill="#290416" d="M -41.58809414526716,65.98810821174067 l -1.0663613883401835 1.692002774660017 a 80.0 80.0 0.0 0 1 -28.12544203629073,-30.39464330803117 l 1.769497439247445 -0.9321366919592435 a 78.0 78.0 0.0 0 0 27.422305985383467,29.634777225330396 z"/><path fill="#46001b" d="M 3.0222919189099664,-77.94142513167752 l 0.0774946645874348 -1.9984980802994234 a 80.0 80.0 0.0 0 1 39.55466895011007,12.259812225576336 l -1.0663613883401837 1.6920027746600255 a 78.0 78.0 0.0 0 0 -38.56580222635732,-11.953316919936938 z"/><path fill="#a13900" d="M 72.4261261104659,-38.45069903956092 l 1.7664908807430713 -0.9378219277941674 a 84.0 84.0 0.0 0 1 9.75433458010449,42.373369687734034 l -1.9987369421741192 -0.07106782667568723 a 82.0 82.0 0.0 0 0 -9.522088518673442,-41.36447993326418 z"/><path fill="#f94dc0" d="M 81.94821462913936,2.9137808937032252 l 1.9987369421741306 0.07106782667568996 a 84.0 84.0 0.0 0 1 -12.739183300483514,41.57358188357947 l -1.6954230540673763 -1.0609150143799653 a 82.0 82.0 0.0 0 0 12.43586941237676,-40.583734695875194 z"/><path fill="#ffdf39" d="M -83.9890977590791,-1.353313568931342 l -1.9997404228352167 -0.032221751641222186 a 86.0 86.0 0.0 0 1 12.213087534753498,-42.808792555841066 l 1.7157151313293184 1.0277750668933407 a 84.0 84.0 0.0 0 0 -11.9290622432476,41.81323924058895 z"/><path fill="#54ffa5" d="M 62.73499118181439,58.82449219005355 l 1.4589532832980092 1.3680114462803148 a 88.0 88.0 0.0 0 1 -38.69660960736457,24.032705862674682 l -0.5794848831306325 -1.914209306795641 a 86.0 86.0 0.0 0 0 37.817141207197196,-23.486508002159354 z"/><path fill="#dfbb47" d="M -9.073345030128124,87.53099114007706 l -0.2062123870483667 1.9893407077290242 a 90.0 90.0 0.0 0 1 -43.51694096587765,-16.633229020981087 l 1.1732555196234244 -1.619713396151667 a 88.0 88.0 0.0 0 0 42.549897833302595,16.26360170940373 z"/><path fill="#5a0824" d="M 57.80919915828375,-68.97895688308056 l 1.2846488701840817 -1.5328657085129025 a 92.0 92.0 0.0 0 1 27.338836867359053,38.993716974365945 l -1.8789714107788456 0.6851762090701641 a 90.0 90.0 0.0 0 0 -26.74451432676429,-38.14602747492321 z"/><path fill="#0f5b6f" d="M -89.79054831281127,20.04139300759073 l -1.9519684415828535 0.43568245668675476 a 94.0 94.0 0.0 0 1 2.052628905830592,-48.614666294199246 l 1.9082954861396502 0.5986721453174937 a 92.0 92.0 0.0 0 0 -2.0089559503873886,47.580311692195 z"/><path fill="#5c889d" d="M 87.78953393813103,33.600561467418096 l 1.8678624242155544 0.7149055631365534 a 96.0 96.0 0.0 0 1 -29.169546990661186,40.23129734180632 l -1.2601635285767756 -1.5530575910908482 a 94.0 94.0 0.0 0 0 28.561848095022405,-39.393145313852024 z"/><path fill="#de0776" d="M 72.99370678126998,-59.227685843108716 l 1.5530575910908515 -1.26016352857678 a 96.0 96.0 0.0 0 1 20.2565520298791,45.3772173816998 l -1.9750690917133369 0.314804833124704 a 94.0 94.0 0.0 0 0 -19.834540529256614,-44.43185868624772 z"/><path fill="#ff7931" d="M -51.57837654633852,80.96709870585778 l -1.0745495113820522 1.6868145563720374 a 98.0 98.0 0.0 0 1 -34.27280212296406,-37.39998768380367 l 1.7739944526670257 -0.9235495016005402 a 96.0 96.0 0.0 0 0 33.573357181679086,36.63672262903218 z"/><path fill="#ff5fb1" d="M 97.90216687734335,-4.37786714289201 l 1.9980034056600684 -0.0893442274059614 a 100.0 100.0 0.0 0 1 -11.15047929038219,50.548577981047 l -1.7749938198524262 -0.9216273322149817 a 98.0 98.0 0.0 0 0 10.927469704574548,-49.53760642142606 z"/><path fill="#573f03" d="M 45.159739278533955,-86.97469717276881 l 0.921627332214978 -1.7749938198524249 a 100.0 100.0 0.0 0 1 38.20111301157427,34.930887320366686 l -1.6856495924464525 1.0763760734450898 a 98.0 98.0 0.0 0 0 -37.437090751342794,-34.23226957395935 z"/></g></svg>