<?xml version='1.0' encoding='UTF-8'?>
<svg xmlns="http://www.w3.org/2000/svg" xmlns:svg="http://www.w3.org/2000/svg"><g><path fill="#ff0000" d="M 100.0,100.0 l -99.94317211702406 3.3708080910819413 a 100.0 100.0 0.0 0 1 9.881395514670828,-46.83201372585259 l 90.06177660235323 43.46120563477065 z"/><path fill="#00ff00" d="M 100.0,100.0 l -90.06177660235323 -43.46120563477065 a 100.0 100.0 0.0 0 1 30.513463172203373,-36.87557527923309 l 59.54831343014986 80.33678091400374 z"/><path fill="#0000ff" d="M 100.0,100.0 l -59.54831343014986 -80.33678091400374 a 100.0 100.0 0.0 0 1 44.155264144078764,-18.471386934998435 l 15.393049286071095 98.80816784900217 z"/><path fill="#ff0000" d="M 100.0,100.0 l -15.393049286071095 -98.80816784900217 a 100.0 100.0 0.0 0 1 47.68162622916404,4.164373551700436 l -32.28857694309294 94.64379429730174 z"/><path fill="#00ff00" d="M 100.0,100.0 l 32.28857694309294 -94.64379429730174 a 100.0 100.0 0.0 0 1 40.28470237103604,25.84612624384647 l -72.57327931412898 68.79766805345527 z"/><path fill="#0000ff" d="M 100.0,100.0 l 72.57327931412898 -68.79766805345527 a 100.0 100.0 0.0 0 1 23.65903868299594,41.60684289311436 l -96.23231799712492 27.19082516034091 z"/><path fill="#ff0000" d="M 100.0,100.0 l 96.23231799712492 -27.19082516034091 a 100.0 100.0 0.0 0 1 1.6133743550063144,47.83593325238265 l -97.84569235213124 -20.645108092041742 z"/><path fill="#00ff00" d="M 100.0,100.0 l 97.84569235213124 20.64510809204177 a 100.0 100.0 0.0 0 1 -20.801894594446537,43.10638778901955 l -77.0437977576847 -63.751495881061324 z"/><path fill="#0000ff" d="M 100.0,100.0 l 77.0437977576847 63.751495881061324 a 100.0 100.0 0.0 0 1 -38.45170018231769,28.50168837148008 l -38.59209757536701 -92.2531842525414 z"/><path fill="#ff0000" d="M 100.0,100.0 l 38.59209757536701 92.2531842525414 a 100.0 100.0 0.0 0 1 -47.29268465164091,7.367595630614389 l 8.700587076273901 -99.62077988315579 z"/><path fill="#00ff00" d="M 100.0,100.0 l -8.700587076273901 99.62077988315579 a 100.0 100.0 0.0 0 1 -45.29948500590744,-15.454324480072444 l 54.00007208218135 -84.16645540308335 z"/><path fill="#0000ff" d="M 100.0,100.0 l -54.00007208218135 84.16645540308335 a 100.0 100.0 0.0 0 1 -32.92871926329512,-34.73584509717458 l 86.92879134547647 -49.430610305908765 z"/><path fill="#ff0000" d="M 100.0,100.0 l -86.92879134547647 49.430610305908765 a 100.0 100.0 0.0 0 1 -13.014380771547593,-46.05980221482673 l 99.94317211702406 -3.37080809108203 z"/></g></svg>