<?xml version='1.0' encoding='UTF-8'?>
<svg viewBox="-854.2299515746843 -5594.243053758722 11486.800065521295 10588.175753393158" preserveAspectRatio="xMidYMid meet" xmlns="http://www.w3.org/2000/svg" xmlns:svg="http://www.w3.org/2000/svg"><g transform="translate(0.0, 0.0)"><rect x="0.0" y="0.0" width="100.0" height="100.0" transform="rotate(0.0, 0.0, 0.0)"/><path fill="#9ba40c" d="M -173.93200849893765,-198.29387236901835 l 0.4137776428740074 -3.147521783635229 a 203.17460317460316 203.17460317460316 0.0 0 1 176.69283403066683,201.44139415265352 l -3.1746031746031917 0.0 a 199.99999999999997 199.99999999999997 0.0 0 0 -173.93200849893765,-198.2938723690183 z"/><path fill="#0ca434" d="M -156.96608205337924,-214.81080817100943 l 1.9640406044970555 -6.5919382594234515 a 231.02097952320278 231.02097952320278 0.0 0 1 165.0549515017922,221.4027464304328 l -6.878306878306887 0.0 a 224.1426726448959 224.1426726448959 0.0 0 0 -160.14068522798237,-214.81080817100937 z"/><path fill="#0c5ea4" d="M -122.90228508593626,-242.68791443454037 l 5.696335320257244 -8.917999320305814 a 298.55311109834633 298.55311109834633 0.0 0 1 137.84087040059973,251.6059137548461 l -10.58201058201064 2.8421709430404007E-14 a 287.9711005163357 287.9711005163357 0.0 0 0 -132.95519513884634,-242.68791443454032 z"/><path fill="#710ca4" d="M -64.16930242246065,-275.77141919732065 l 11.817252948798053 -8.027089472354616 a 505.0727818008924 505.0727818008924 0.0 0 1 87.27268439429758,283.79850866967513 l -14.285714285714334 0.0 a 490.7870675151781 490.7870675151781 0.0 0 0 -84.80422305738131,-275.77141919732054 z"/><path fill="#a40c20" d="M 26.433879059392893,-299.1352436821881 l 17.96048149405952 -1.0199333799551467 a 5294.087876696579 5294.087876696579 0.0 0 1 8.515692356600898,300.15517706214195 l -17.989417989418143 0.0 a 5276.098458707161 5276.098458707161 0.0 0 0 -8.486755861242273,-299.1352436821868 z"/><path fill="#9ba40c" d="M 74.60317460317461,0.0 l -21.693121693121725 2.6566412044995532E-15 a 499.27305148299604 499.27305148299604 0.0 0 1 91.40609848125501,-287.95508084806914 l 17.721580245095367 12.511479625097707 a 477.5799297898743 477.5799297898743 0.0 0 0 -87.43455703322866,275.44360122297144 z"/><path fill="#0ca434" d="M 100.0,0.0 l -25.396825396825363 3.110214093072639E-15 a 225.3968253968254 225.3968253968254 0.0 0 1 187.79731350804556,-222.23862311644325 l 4.236564719862514 25.040971618754128 a 200.00000000000003 200.00000000000003 0.0 0 0 -166.6370528310827,197.19765149768912 z"/></g></svg>