<?xml version='1.0' encoding='UTF-8'?>
<svg viewBox="99.99999999999997 -100.0 200.00000000000003 392.07920792079204" preserveAspectRatio="xMidYMid meet" xmlns="http://www.w3.org/2000/svg" xmlns:svg="http://www.w3.org/2000/svg"><g transform="translate(0.0, 0.0)"><circle fill="#c06275" r="0.0" cx="100.0" cy="100.0"/><path fill="#0c0c49" d="M 100.03960396039604,100.0 a 0.0396039603960396 0.0396039603960396 0.0 1 1 -0.0396039603960396,-0.0396039603960396 a 0.0396039603960396 0.0396039603960396 0.0 0 1 0.0396039603960396,0.0396039603960396 z M 100.0,100.0 a 0.0 0.0 0.0 1 0 -0.0,0.0 a 0.0 0.0 0.0 0 0 0.0,-0.0 z"/><path fill="#c06275" d="M 100.15922408567387,100.0 a 0.1592240856738735 0.1592240856738735 0.0 1 1 -0.1592240856738735,-0.1592240856738735 a 0.1592240856738735 0.1592240856738735 0.0 0 1 0.1592240856738735,0.1592240856738735 z M 100.03960396039604,100.0 a 0.0396039603960396 0.0396039603960396 0.0 1 0 -0.0396039603960396,0.0396039603960396 a 0.0396039603960396 0.0396039603960396 0.0 0 0 0.0396039603960396,-0.0396039603960396 z"/><path fill="#0c0c49" d="M 100.3588603758335,100.0 a 0.35886037583350167 0.35886037583350167 0.0 1 1 -0.35886037583350167,-0.35886037583350167 a 0.35886037583350167 0.35886037583350167 0.0 0 1 0.35886037583350167,0.35886037583350167 z M 100.15922408567387,100.0 a 0.1592240856738735 0.1592240856738735 0.0 1 0 -0.1592240856738735,0.1592240856738735 a 0.1592240856738735 0.1592240856738735 0.0 0 0 0.1592240856738735,-0.1592240856738735 z"/><path fill="#c06275" d="M 100.63851283087493,100.0 a 0.638512830874924 0.638512830874924 0.0 1 1 -0.638512830874924,-0.638512830874924 a 0.638512830874924 0.638512830874924 0.0 0 1 0.638512830874924,0.638512830874924 z M 100.3588603758335,100.0 a 0.35886037583350167 0.35886037583350167 0.0 1 0 -0.35886037583350167,0.35886037583350167 a 0.35886037583350167 0.35886037583350167 0.0 0 0 0.35886037583350167,-0.35886037583350167 z"/><path fill="#0c0c49" d="M 100.99818145079814,100.0 a 0.9981814507981407 0.9981814507981407 0.0 1 1 -0.9981814507981407,-0.9981814507981407 a 0.9981814507981407 0.9981814507981407 0.0 0 1 0.9981814507981407,0.9981814507981407 z M 100.63851283087493,100.0 a 0.638512830874924 0.638512830874924 0.0 1 0 -0.638512830874924,0.638512830874924 a 0.638512830874924 0.638512830874924 0.0 0 0 0.638512830874924,-0.638512830874924 z"/><path fill="#c06275" d="M 101.43786623560315,100.0 a 1.4378662356031517 1.4378662356031517 0.0 1 1 -1.4378662356031517,-1.4378662356031517 a 1.4378662356031517 1.4378662356031517 0.0 0 1 1.4378662356031517,1.4378662356031517 z M 100.99818145079814,100.0 a 0.9981814507981407 0.9981814507981407 0.0 1 0 -0.9981814507981407,0.9981814507981407 a 0.9981814507981407 0.9981814507981407 0.0 0 0 0.9981814507981407,-0.9981814507981407 z"/><path fill="#0c0c49" d="M 101.95756718528996,100.0 a 1.957567185289957 1.957567185289957 0.0 1 1 -1.957567185289957,-1.957567185289957 a 1.957567185289957 1.957567185289957 0.0 0 1 1.957567185289957,1.957567185289957 z M 101.43786623560315,100.0 a 1.4378662356031517 1.4378662356031517 0.0 1 0 -1.4378662356031517,1.4378662356031517 a 1.4378662356031517 1.4378662356031517 0.0 0 0 1.4378662356031517,-1.4378662356031517 z"/><path fill="#c06275" d="M 102.55728429985855,100.0 a 2.5572842998585568 2.5572842998585568 0.0 1 1 -2.5572842998585568,-2.5572842998585568 a 2.5572842998585568 2.5572842998585568 0.0 0 1 2.5572842998585568,2.5572842998585568 z M 101.95756718528995,100.0 a 1.957567185289957 1.957567185289957 0.0 1 0 -1.957567185289957,1.957567185289957 a 1.957567185289957 1.957567185289957 0.0 0 0 1.957567185289957,-1.957567185289957 z"/><path fill="#0c0c49" d="M 103.23701757930895,100.0 a 3.2370175793089504 3.2370175793089504 0.0 1 1 -3.2370175793089504,-3.2370175793089504 a 3.2370175793089504 3.2370175793089504 0.0 0 1 3.2370175793089504,3.2370175793089504 z M 102.55728429985857,100.0 a 2.5572842998585568 2.5572842998585568 0.0 1 0 -2.5572842998585568,2.5572842998585568 a 2.5572842998585568 2.5572842998585568 0.0 0 0 2.5572842998585568,-2.5572842998585568 z"/><path fill="#c06275" d="M 103.99676702364114,100.0 a 3.9967670236411386 3.9967670236411386 0.0 1 1 -3.9967670236411386,-3.9967670236411386 a 3.9967670236411386 3.9967670236411386 0.0 0 1 3.9967670236411386,3.9967670236411386 z M 103.23701757930895,100.0 a 3.2370175793089504 3.2370175793089504 0.0 1 0 -3.2370175793089504,3.2370175793089504 a 3.2370175793089504 3.2370175793089504 0.0 0 0 3.2370175793089504,-3.2370175793089504 z"/><path fill="#0c0c49" d="M 104.83653263285512,100.0 a 4.836532632855121 4.836532632855121 0.0 1 1 -4.836532632855121,-4.836532632855121 a 4.836532632855121 4.836532632855121 0.0 0 1 4.836532632855121,4.836532632855121 z M 103.99676702364114,100.0 a 3.9967670236411386 3.9967670236411386 0.0 1 0 -3.9967670236411386,3.9967670236411386 a 3.9967670236411386 3.9967670236411386 0.0 0 0 3.9967670236411386,-3.9967670236411386 z"/><path fill="#c06275" d="M 105.75631440695089,100.0 a 5.756314406950898 5.756314406950898 0.0 1 1 -5.756314406950898,-5.756314406950898 a 5.756314406950898 5.756314406950898 0.0 0 1 5.756314406950898,5.756314406950898 z M 104.83653263285511,100.0 a 4.836532632855121 4.836532632855121 0.0 1 0 -4.836532632855121,4.836532632855121 a 4.836532632855121 4.836532632855121 0.0 0 0 4.836532632855121,-4.836532632855121 z"/><path fill="#0c0c49" d="M 106.75611234592847,100.0 a 6.75611234592847 6.75611234592847 0.0 1 1 -6.75611234592847,-6.75611234592847 a 6.75611234592847 6.75611234592847 0.0 0 1 6.75611234592847,6.75611234592847 z M 105.7563144069509,100.0 a 5.756314406950898 5.756314406950898 0.0 1 0 -5.756314406950898,5.756314406950898 a 5.756314406950898 5.756314406950898 0.0 0 0 5.756314406950898,-5.756314406950898 z"/><path fill="#c06275" d="M 107.83592644978783,100.0 a 7.835926449787835 7.835926449787835 0.0 1 1 -7.835926449787835,-7.835926449787835 a 7.835926449787835 7.835926449787835 0.0 0 1 7.835926449787835,7.835926449787835 z M 106.75611234592847,100.0 a 6.75611234592847 6.75611234592847 0.0 1 0 -6.75611234592847,6.75611234592847 a 6.75611234592847 6.75611234592847 0.0 0 0 6.75611234592847,-6.75611234592847 z"/><path fill="#0c0c49" d="M 108.995756718529,100.0 a 8.995756718528995 8.995756718528995 0.0 1 1 -8.995756718528995,-8.995756718528995 a 8.995756718528995 8.995756718528995 0.0 0 1 8.995756718528995,8.995756718528995 z M 107.83592644978783,100.0 a 7.835926449787835 7.835926449787835 0.0 1 0 -7.835926449787835,7.835926449787835 a 7.835926449787835 7.835926449787835 0.0 0 0 7.835926449787835,-7.835926449787835 z"/><path fill="#c06275" d="M 110.23560315215195,100.0 a 10.235603152151947 10.235603152151947 0.0 1 1 -10.235603152151947,-10.235603152151947 a 10.235603152151947 10.235603152151947 0.0 0 1 10.235603152151947,10.235603152151947 z M 108.995756718529,100.0 a 8.995756718528995 8.995756718528995 0.0 1 0 -8.995756718528995,8.995756718528995 a 8.995756718528995 8.995756718528995 0.0 0 0 8.995756718528995,-8.995756718528995 z"/><path fill="#0c0c49" d="M 111.5554657506567,100.0 a 11.555465750656696 11.555465750656696 0.0 1 1 -11.555465750656696,-11.555465750656696 a 11.555465750656696 11.555465750656696 0.0 0 1 11.555465750656696,11.555465750656696 z M 110.23560315215195,100.0 a 10.235603152151947 10.235603152151947 0.0 1 0 -10.235603152151947,10.235603152151947 a 10.235603152151947 10.235603152151947 0.0 0 0 10.235603152151947,-10.235603152151947 z"/><path fill="#c06275" d="M 112.95534451404325,100.0 a 12.95534451404324 12.95534451404324 0.0 1 1 -12.95534451404324,-12.95534451404324 a 12.95534451404324 12.95534451404324 0.0 0 1 12.95534451404324,12.95534451404324 z M 111.55546575065671,100.0 a 11.555465750656696 11.555465750656696 0.0 1 0 -11.555465750656696,11.555465750656696 a 11.555465750656696 11.555465750656696 0.0 0 0 11.555465750656696,-11.555465750656696 z"/><path fill="#0c0c49" d="M 114.43523944231157,100.0 a 14.435239442311577 14.435239442311577 0.0 1 1 -14.435239442311577,-14.435239442311577 a 14.435239442311577 14.435239442311577 0.0 0 1 14.435239442311577,14.435239442311577 z M 112.95534451404323,100.0 a 12.95534451404324 12.95534451404324 0.0 1 0 -12.95534451404324,12.95534451404324 a 12.95534451404324 12.95534451404324 0.0 0 0 12.95534451404324,-12.95534451404324 z"/><path fill="#c06275" d="M 115.9951505354617,100.0 a 15.995150535461708 15.995150535461708 0.0 1 1 -15.995150535461708,-15.995150535461708 a 15.995150535461708 15.995150535461708 0.0 0 1 15.995150535461708,15.995150535461708 z M 114.43523944231157,100.0 a 14.435239442311577 14.435239442311577 0.0 1 0 -14.435239442311577,14.435239442311577 a 14.435239442311577 14.435239442311577 0.0 0 0 14.435239442311577,-14.435239442311577 z"/><path fill="#0c0c49" d="M 117.63507779349364,100.0 a 17.635077793493632 17.635077793493632 0.0 1 1 -17.635077793493632,-17.635077793493632 a 17.635077793493632 17.635077793493632 0.0 0 1 17.635077793493632,17.635077793493632 z M 115.9951505354617,100.0 a 15.995150535461708 15.995150535461708 0.0 1 0 -15.995150535461708,15.995150535461708 a 15.995150535461708 15.995150535461708 0.0 0 0 15.995150535461708,-15.995150535461708 z"/><path fill="#c06275" d="M 119.35502121640735,100.0 a 19.35502121640735 19.35502121640735 0.0 1 1 -19.35502121640735,-19.35502121640735 a 19.35502121640735 19.35502121640735 0.0 0 1 19.35502121640735,19.35502121640735 z M 117.63507779349364,100.0 a 17.635077793493632 17.635077793493632 0.0 1 0 -17.635077793493632,17.635077793493632 a 17.635077793493632 17.635077793493632 0.0 0 0 17.635077793493632,-17.635077793493632 z"/><path fill="#0c0c49" d="M 121.15498080420286,100.0 a 21.154980804202868 21.154980804202868 0.0 1 1 -21.154980804202868,-21.154980804202868 a 21.154980804202868 21.154980804202868 0.0 0 1 21.154980804202868,21.154980804202868 z M 119.35502121640735,100.0 a 19.35502121640735 19.35502121640735 0.0 1 0 -19.35502121640735,19.35502121640735 a 19.35502121640735 19.35502121640735 0.0 0 0 19.35502121640735,-19.35502121640735 z"/><path fill="#c06275" d="M 123.03495655688018,100.0 a 23.034956556880175 23.034956556880175 0.0 1 1 -23.034956556880175,-23.034956556880175 a 23.034956556880175 23.034956556880175 0.0 0 1 23.034956556880175,23.034956556880175 z M 121.15498080420286,100.0 a 21.154980804202868 21.154980804202868 0.0 1 0 -21.154980804202868,21.154980804202868 a 21.154980804202868 21.154980804202868 0.0 0 0 21.154980804202868,-21.154980804202868 z"/><path fill="#0c0c49" d="M 124.99494847443927,100.0 a 24.994948474439276 24.994948474439276 0.0 1 1 -24.994948474439276,-24.994948474439276 a 24.994948474439276 24.994948474439276 0.0 0 1 24.994948474439276,24.994948474439276 z M 123.03495655688016,100.0 a 23.034956556880175 23.034956556880175 0.0 1 0 -23.034956556880175,23.034956556880175 a 23.034956556880175 23.034956556880175 0.0 0 0 23.034956556880175,-23.034956556880175 z"/><path fill="#c06275" d="M 127.03495655688018,100.0 a 27.034956556880175 27.034956556880175 0.0 1 1 -27.034956556880175,-27.034956556880175 a 27.034956556880175 27.034956556880175 0.0 0 1 27.034956556880175,27.034956556880175 z M 124.99494847443927,100.0 a 24.994948474439276 24.994948474439276 0.0 1 0 -24.994948474439276,24.994948474439276 a 24.994948474439276 24.994948474439276 0.0 0 0 24.994948474439276,-24.994948474439276 z"/><path fill="#0c0c49" d="M 129.15498080420286,100.0 a 29.154980804202868 29.154980804202868 0.0 1 1 -29.154980804202868,-29.154980804202868 a 29.154980804202868 29.154980804202868 0.0 0 1 29.154980804202868,29.154980804202868 z M 127.03495655688018,100.0 a 27.034956556880175 27.034956556880175 0.0 1 0 -27.034956556880175,27.034956556880175 a 27.034956556880175 27.034956556880175 0.0 0 0 27.034956556880175,-27.034956556880175 z"/><path fill="#c06275" d="M 131.35502121640735,100.0 a 31.35502121640735 31.35502121640735 0.0 1 1 -31.35502121640735,-31.35502121640735 a 31.35502121640735 31.35502121640735 0.0 0 1 31.35502121640735,31.35502121640735 z M 129.15498080420286,100.0 a 29.154980804202868 29.154980804202868 0.0 1 0 -29.154980804202868,29.154980804202868 a 29.154980804202868 29.154980804202868 0.0 0 0 29.154980804202868,-29.154980804202868 z"/><path fill="#0c0c49" d="M 133.63507779349362,100.0 a 33.635077793493636 33.635077793493636 0.0 1 1 -33.635077793493636,-33.635077793493636 a 33.635077793493636 33.635077793493636 0.0 0 1 33.635077793493636,33.635077793493636 z M 131.35502121640735,100.0 a 31.35502121640735 31.35502121640735 0.0 1 0 -31.35502121640735,31.35502121640735 a 31.35502121640735 31.35502121640735 0.0 0 0 31.35502121640735,-31.35502121640735 z"/><path fill="#c06275" d="M 135.9951505354617,100.0 a 35.99515053546171 35.99515053546171 0.0 1 1 -35.99515053546171,-35.99515053546171 a 35.99515053546171 35.99515053546171 0.0 0 1 35.99515053546171,35.99515053546171 z M 133.63507779349362,100.0 a 33.635077793493636 33.635077793493636 0.0 1 0 -33.635077793493636,33.635077793493636 a 33.635077793493636 33.635077793493636 0.0 0 0 33.635077793493636,-33.635077793493636 z"/><path fill="#0c0c49" d="M 138.43523944231157,100.0 a 38.435239442311584 38.435239442311584 0.0 1 1 -38.435239442311584,-38.435239442311584 a 38.435239442311584 38.435239442311584 0.0 0 1 38.435239442311584,38.435239442311584 z M 135.9951505354617,100.0 a 35.99515053546171 35.99515053546171 0.0 1 0 -35.99515053546171,35.99515053546171 a 35.99515053546171 35.99515053546171 0.0 0 0 35.99515053546171,-35.99515053546171 z"/><path fill="#c06275" d="M 140.95534451404325,100.0 a 40.95534451404324 40.95534451404324 0.0 1 1 -40.95534451404324,-40.95534451404324 a 40.95534451404324 40.95534451404324 0.0 0 1 40.95534451404324,40.95534451404324 z M 138.4352394423116,100.0 a 38.435239442311584 38.435239442311584 0.0 1 0 -38.435239442311584,38.435239442311584 a 38.435239442311584 38.435239442311584 0.0 0 0 38.435239442311584,-38.435239442311584 z"/><path fill="#0c0c49" d="M 143.5554657506567,100.0 a 43.555465750656694 43.555465750656694 0.0 1 1 -43.555465750656694,-43.555465750656694 a 43.555465750656694 43.555465750656694 0.0 0 1 43.555465750656694,43.555465750656694 z M 140.95534451404325,100.0 a 40.95534451404324 40.95534451404324 0.0 1 0 -40.95534451404324,40.95534451404324 a 40.95534451404324 40.95534451404324 0.0 0 0 40.95534451404324,-40.95534451404324 z"/><path fill="#c06275" d="M 146.23560315215195,100.0 a 46.23560315215195 46.23560315215195 0.0 1 1 -46.23560315215195,-46.23560315215195 a 46.23560315215195 46.23560315215195 0.0 0 1 46.23560315215195,46.23560315215195 z M 143.5554657506567,100.0 a 43.555465750656694 43.555465750656694 0.0 1 0 -43.555465750656694,43.555465750656694 a 43.555465750656694 43.555465750656694 0.0 0 0 43.555465750656694,-43.555465750656694 z"/><path fill="#0c0c49" d="M 148.995756718529,100.0 a 48.995756718529 48.995756718529 0.0 1 1 -48.995756718529,-48.995756718529 a 48.995756718529 48.995756718529 0.0 0 1 48.995756718529,48.995756718529 z M 146.23560315215195,100.0 a 46.23560315215195 46.23560315215195 0.0 1 0 -46.23560315215195,46.23560315215195 a 46.23560315215195 46.23560315215195 0.0 0 0 46.23560315215195,-46.23560315215195 z"/><path fill="#c06275" d="M 151.83592644978785,100.0 a 51.83592644978784 51.83592644978784 0.0 1 1 -51.83592644978784,-51.83592644978784 a 51.83592644978784 51.83592644978784 0.0 0 1 51.83592644978784,51.83592644978784 z M 148.995756718529,100.0 a 48.995756718529 48.995756718529 0.0 1 0 -48.995756718529,48.995756718529 a 48.995756718529 48.995756718529 0.0 0 0 48.995756718529,-48.995756718529 z"/><path fill="#0c0c49" d="M 154.75611234592847,100.0 a 54.756112345928464 54.756112345928464 0.0 1 1 -54.756112345928464,-54.756112345928464 a 54.756112345928464 54.756112345928464 0.0 0 1 54.756112345928464,54.756112345928464 z M 151.83592644978785,100.0 a 51.83592644978784 51.83592644978784 0.0 1 0 -51.83592644978784,51.83592644978784 a 51.83592644978784 51.83592644978784 0.0 0 0 51.83592644978784,-51.83592644978784 z"/><path fill="#c06275" d="M 157.75631440695088,100.0 a 57.75631440695089 57.75631440695089 0.0 1 1 -57.75631440695089,-57.75631440695089 a 57.75631440695089 57.75631440695089 0.0 0 1 57.75631440695089,57.75631440695089 z M 154.75611234592844,100.0 a 54.756112345928464 54.756112345928464 0.0 1 0 -54.756112345928464,54.756112345928464 a 54.756112345928464 54.756112345928464 0.0 0 0 54.756112345928464,-54.756112345928464 z"/><path fill="#0c0c49" d="M 160.8365326328551,100.0 a 60.83653263285511 60.83653263285511 0.0 1 1 -60.83653263285511,-60.83653263285511 a 60.83653263285511 60.83653263285511 0.0 0 1 60.83653263285511,60.83653263285511 z M 157.75631440695088,100.0 a 57.75631440695089 57.75631440695089 0.0 1 0 -57.75631440695089,57.75631440695089 a 57.75631440695089 57.75631440695089 0.0 0 0 57.75631440695089,-57.75631440695089 z"/><path fill="#c06275" d="M 163.99676702364113,100.0 a 63.996767023641134 63.996767023641134 0.0 1 1 -63.996767023641134,-63.996767023641134 a 63.996767023641134 63.996767023641134 0.0 0 1 63.996767023641134,63.996767023641134 z M 160.8365326328551,100.0 a 60.83653263285511 60.83653263285511 0.0 1 0 -60.83653263285511,60.83653263285511 a 60.83653263285511 60.83653263285511 0.0 0 0 60.83653263285511,-60.83653263285511 z"/><path fill="#0c0c49" d="M 167.23701757930894,100.0 a 67.23701757930894 67.23701757930894 0.0 1 1 -67.23701757930894,-67.23701757930894 a 67.23701757930894 67.23701757930894 0.0 0 1 67.23701757930894,67.23701757930894 z M 163.99676702364113,100.0 a 63.996767023641134 63.996767023641134 0.0 1 0 -63.996767023641134,63.996767023641134 a 63.996767023641134 63.996767023641134 0.0 0 0 63.996767023641134,-63.996767023641134 z"/><path fill="#c06275" d="M 170.55728429985857,100.0 a 70.55728429985855 70.55728429985855 0.0 1 1 -70.55728429985855,-70.55728429985855 a 70.55728429985855 70.55728429985855 0.0 0 1 70.55728429985855,70.55728429985855 z M 167.23701757930894,100.0 a 67.23701757930894 67.23701757930894 0.0 1 0 -67.23701757930894,67.23701757930894 a 67.23701757930894 67.23701757930894 0.0 0 0 67.23701757930894,-67.23701757930894 z"/><path fill="#0c0c49" d="M 173.95756718528995,100.0 a 73.95756718528995 73.95756718528995 0.0 1 1 -73.95756718528995,-73.95756718528995 a 73.95756718528995 73.95756718528995 0.0 0 1 73.95756718528995,73.95756718528995 z M 170.55728429985857,100.0 a 70.55728429985855 70.55728429985855 0.0 1 0 -70.55728429985855,70.55728429985855 a 70.55728429985855 70.55728429985855 0.0 0 0 70.55728429985855,-70.55728429985855 z"/><path fill="#c06275" d="M 177.43786623560317,100.0 a 77.43786623560315 77.43786623560315 0.0 1 1 -77.43786623560315,-77.43786623560315 a 77.43786623560315 77.43786623560315 0.0 0 1 77.43786623560315,77.43786623560315 z M 173.95756718528997,100.0 a 73.95756718528995 73.95756718528995 0.0 1 0 -73.95756718528995,73.95756718528995 a 73.95756718528995 73.95756718528995 0.0 0 0 73.95756718528995,-73.95756718528995 z"/><path fill="#0c0c49" d="M 180.99818145079814,100.0 a 80.99818145079813 80.99818145079813 0.0 1 1 -80.99818145079813,-80.99818145079813 a 80.99818145079813 80.99818145079813 0.0 0 1 80.99818145079813,80.99818145079813 z M 177.43786623560317,100.0 a 77.43786623560315 77.43786623560315 0.0 1 0 -77.43786623560315,77.43786623560315 a 77.43786623560315 77.43786623560315 0.0 0 0 77.43786623560315,-77.43786623560315 z"/><path fill="#c06275" d="M 184.63851283087493,100.0 a 84.63851283087493 84.63851283087493 0.0 1 1 -84.63851283087493,-84.63851283087493 a 84.63851283087493 84.63851283087493 0.0 0 1 84.63851283087493,84.63851283087493 z M 180.99818145079814,100.0 a 80.99818145079813 80.99818145079813 0.0 1 0 -80.99818145079813,80.99818145079813 a 80.99818145079813 80.99818145079813 0.0 0 0 80.99818145079813,-80.99818145079813 z"/><path fill="#0c0c49" d="M 188.3588603758335,100.0 a 88.35886037583349 88.35886037583349 0.0 1 1 -88.35886037583349,-88.35886037583349 a 88.35886037583349 88.35886037583349 0.0 0 1 88.35886037583349,88.35886037583349 z M 184.63851283087496,100.0 a 84.63851283087493 84.63851283087493 0.0 1 0 -84.63851283087493,84.63851283087493 a 84.63851283087493 84.63851283087493 0.0 0 0 84.63851283087493,-84.63851283087493 z"/><path fill="#c06275" d="M 192.15922408567388,100.0 a 92.15922408567387 92.15922408567387 0.0 1 1 -92.15922408567387,-92.15922408567387 a 92.15922408567387 92.15922408567387 0.0 0 1 92.15922408567387,92.15922408567387 z M 188.3588603758335,100.0 a 88.35886037583349 88.35886037583349 0.0 1 0 -88.35886037583349,88.35886037583349 a 88.35886037583349 88.35886037583349 0.0 0 0 88.35886037583349,-88.35886037583349 z"/><path fill="#0c0c49" d="M 196.03960396039605,100.0 a 96.03960396039604 96.03960396039604 0.0 1 1 -96.03960396039604,-96.03960396039604 a 96.03960396039604 96.03960396039604 0.0 0 1 96.03960396039604,96.03960396039604 z M 192.15922408567388,100.0 a 92.15922408567387 92.15922408567387 0.0 1 0 -92.15922408567387,92.15922408567387 a 92.15922408567387 92.15922408567387 0.0 0 0 92.15922408567387,-92.15922408567387 z"/><path fill="#c06275" d="M 200.0,100.0 a 100.0 100.0 0.0 1 1 -100.0,-100.0 a 100.0 100.0 0.0 0 1 100.0,100.0 z M 196.03960396039605,100.0 a 96.03960396039604 96.03960396039604 0.0 1 0 -96.03960396039604,96.03960396039604 a 96.03960396039604 96.03960396039604 0.0 0 0 96.03960396039604,-96.03960396039604 z"/></g></svg>