<?xml version='1.0' encoding='UTF-8'?>
<svg viewBox="-5.6843418860808015E-14 -4.085620730620576E-14 200.0000000000001 200.00000000000009" preserveAspectRatio="xMidYMid meet" xmlns="http://www.w3.org/2000/svg" xmlns:svg="http://www.w3.org/2000/svg"><g transform="translate(0.0, 0.0)"><path fill="#76aaea" d="M 112.45766841784832,100.0 a 12.457668417848321 12.457668417848321 0.0 1 1 -12.457668417848321,-12.457668417848321 a 12.457668417848321 12.457668417848321 0.0 0 1 12.457668417848321,12.457668417848321 z M 101.74423066685983,100.0 a 1.7442306668598286 1.7442306668598286 0.0 1 0 -1.7442306668598286,1.7442306668598286 a 1.7442306668598286 1.7442306668598286 0.0 0 0 1.7442306668598286,-1.7442306668598286 z"/><path fill="#0030a7" d="M 150.28392969029895,100.0 a 50.283929690298955 50.283929690298955 0.0 1 1 -50.283929690298955,-50.283929690298955 a 50.283929690298955 50.283929690298955 0.0 0 1 50.283929690298955,50.283929690298955 z M 112.45766841784831,100.0 a 12.457668417848321 12.457668417848321 0.0 1 0 -12.457668417848321,12.457668417848321 a 12.457668417848321 12.457668417848321 0.0 0 0 12.457668417848321,-12.457668417848321 z"/><path fill="#552fdf" d="M 157.15542551807715,100.0 a 57.15542551807715 57.15542551807715 0.0 1 1 -57.15542551807715,-57.15542551807715 a 57.15542551807715 57.15542551807715 0.0 0 1 57.15542551807715,57.15542551807715 z M 150.28392969029895,100.0 a 50.283929690298955 50.283929690298955 0.0 1 0 -50.283929690298955,50.283929690298955 a 50.283929690298955 50.283929690298955 0.0 0 0 50.283929690298955,-50.283929690298955 z"/><path fill="#617fd8" d="M 177.87102897220296,100.0 a 77.87102897220296 77.87102897220296 0.0 1 1 -77.87102897220296,-77.87102897220296 a 77.87102897220296 77.87102897220296 0.0 0 1 77.87102897220296,77.87102897220296 z M 168.72177591648807,100.0 a 68.72177591648806 68.72177591648806 0.0 1 0 -68.72177591648806,68.72177591648806 a 68.72177591648806 68.72177591648806 0.0 0 0 68.72177591648806,-68.72177591648806 z"/><path fill="#234aff" d="M 182.71247939351522,100.0 a 82.71247939351522 82.71247939351522 0.0 1 1 -82.71247939351522,-82.71247939351522 a 82.71247939351522 82.71247939351522 0.0 0 1 82.71247939351522,82.71247939351522 z M 177.87102897220296,100.0 a 77.87102897220296 77.87102897220296 0.0 1 0 -77.87102897220296,77.87102897220296 a 77.87102897220296 77.87102897220296 0.0 0 0 77.87102897220296,-77.87102897220296 z"/><path fill="#7fa9ff" d="M 199.55842808180404,100.0 a 99.55842808180404 99.55842808180404 0.0 1 1 -99.55842808180404,-99.55842808180404 a 99.55842808180404 99.55842808180404 0.0 0 1 99.55842808180404,99.55842808180404 z M 182.71247939351522,100.0 a 82.71247939351522 82.71247939351522 0.0 1 0 -82.71247939351522,82.71247939351522 a 82.71247939351522 82.71247939351522 0.0 0 0 82.71247939351522,-82.71247939351522 z"/><path fill="#00324a" d="M 100.0,100.0 l 1.704418403864396 0.3705381542872838 a 1.7442306668598286 1.7442306668598286 0.0 0 1 -0.3793575557504354,0.7637256457212478 l -1.3250608481139605 -1.1342638000085317 z"/><path fill="#76aaea" d="M 100.0,100.0 l 1.3250608481139605 1.1342638000085317 a 1.7442306668598286 1.7442306668598286 0.0 0 1 -2.1615902044878172,0.3962783441805864 l 0.8365293563738568 -1.530542144189118 z"/><path fill="#0030a7" d="M 100.0,100.0 l -0.8365293563738568 1.530542144189118 a 1.7442306668598286 1.7442306668598286 0.0 0 1 -0.5670610093244098,-0.49503516471805287 l 1.4035903656982667 -1.0355069794710652 z"/><path fill="#552fdf" d="M 100.0,100.0 l -1.4035903656982667 1.0355069794710652 a 1.7442306668598286 1.7442306668598286 0.0 0 1 1.129504410746648,-2.7580683016052125 l 0.2740859549516187 1.7225613221341474 z"/><path fill="#61a2e8" d="M 100.0,100.0 l -0.2740859549516187 -1.7225613221341474 a 1.7442306668598286 1.7442306668598286 0.0 0 1 1.4921400354840268,0.47408830435898075 l -1.2180540805324083 1.2484730177751666 z"/><path fill="#6c063e" d="M 100.0,100.0 l 1.2180540805324083 -1.2484730177751666 a 1.7442306668598286 1.7442306668598286 0.0 0 1 0.442359144198756,0.7142740451515395 l -1.6604132247311643 0.5341989726236271 z"/><path fill="#617fd8" d="M 100.0,100.0 l 1.6604132247311643 -0.5341989726236271 a 1.7442306668598286 1.7442306668598286 0.0 0 1 0.04400517913323165,0.904737126910911 l -1.704418403864396 -0.3705381542872838 z"/><path fill="#00324a" d="M 60.15658395973301,140.9785903173189 l -0.1230987375091253 0.12660592976936463 a 57.33201079670792 57.33201079670792 0.0 0 1 -14.710177605344455,-23.85936277823442 l 0.16840677354432643 -0.053117974862523454 a 57.15542551807715 57.15542551807715 0.0 0 0 14.664869569309253,23.78587482332758 z"/><path fill="#76aaea" d="M 45.49171439042375,117.19271549399127 l -0.1684067735443272 0.053117974862521955 a 57.33201079670792 57.33201079670792 0.0 0 1 26.52285172293143,-67.18900835866748 l 0.08671514793252655 0.15382731795148175 a 57.15542551807715 57.15542551807715 0.0 0 0 -26.44116009731963,66.98206306585348 z"/><path fill="#0030a7" d="M 71.93287448774339,50.21065242813781 l -0.08671514793252648 -0.15382731795148047 a 57.33201079670792 57.33201079670792 0.0 0 1 23.66746708524531,-7.21303137109802 l 0.013818240748303623 0.17604379242600032 a 57.15542551807715 57.15542551807715 0.0 0 0 -23.594570178061087,7.1908148966235 z"/><path fill="#552fdf" d="M 95.52744466580448,43.01983753151432 l -0.013818240748302173 -0.17604379242599774 a 57.33201079670792 57.33201079670792 0.0 0 1 57.30395366503796,79.45559404220124 l -0.16268062060275668 -0.06868315884850063 a 57.15542551807715 57.15542551807715 0.0 0 0 -57.1274548036869,-79.21086709092674 z"/><path fill="#61a2e8" d="M 152.65489946949137,122.23070462244105 l 0.1626806206027525 0.068683158848506 a 57.33201079670792 57.33201079670792 0.0 0 1 -39.164877702276634,33.38331311857265 l -0.04205096283408949 -0.17150532689637998 a 57.15542551807715 57.15542551807715 0.0 0 0 39.044248044507974,-33.28049095052478 z"/><path fill="#6c063e" d="M 113.6106514249834,155.51119557296585 l 0.042050962834084486 0.17150532689637443 a 57.33201079670792 57.33201079670792 0.0 0 1 -27.615545828923818,-0.07695960426408432 l 0.043006211804922145 -0.17126828771052516 a 57.15542551807715 57.15542551807715 0.0 0 0 27.53048865428481,0.07672256507823505 z"/><path fill="#617fd8" d="M 86.08016277069859,155.43447300788762 l -0.043006211804926406 0.17126828771052632 a 57.33201079670792 57.33201079670792 0.0 0 1 -26.00367133666978,-14.500545048509894 l 0.12309873750912459 -0.12660592976936158 a 57.15542551807715 57.15542551807715 0.0 0 0 25.92357881096558,14.455882690568728 z"/><path fill="#00324a" d="M 100.46231199975597,157.33014677818917 l 0.09184441668978617 11.389394807753533 a 68.72177591648806 68.72177591648806 0.0 0 1 -32.643922153947365,-7.950063885140764 l 5.31847277845479 -10.071772276446467 a 57.33201079670792 57.33201079670792 0.0 0 0 27.233604958802786,6.632441353833698 z"/><path fill="#76aaea" d="M 73.2287070409532,150.6977054243555 l -5.318472778454789 10.071772276446465 a 68.72177591648806 68.72177591648806 0.0 0 1 -33.99229749105773,-79.63328973794547 l 10.95226613058422 3.1264382432118936 a 57.33201079670792 57.33201079670792 0.0 0 0 28.358504138928296,66.43507921828711 z"/><path fill="#0030a7" d="M 44.870202902024886,84.26262620606835 l -10.952266130584226 -3.12643824321189 a 68.72177591648806 68.72177591648806 0.0 0 1 14.102782991254413,-26.089907621275366 l 8.614908231090837 7.450510429067499 a 57.33201079670792 57.33201079670792 0.0 0 0 -11.765425091761024,21.765835435419756 z"/><path fill="#552fdf" d="M 56.63562799378592,62.4967907706486 l -8.614908231090833 -7.450510429067503 a 68.72177591648806 68.72177591648806 0.0 0 1 115.80069845713642,19.46825200476653 l -10.577592814517658 4.223893906577739 a 57.33201079670792 57.33201079670792 0.0 0 0 -96.60819741152793,-16.241635482276767 z"/><path fill="#61a2e8" d="M 153.24382540531383,78.73842625292536 l 10.577592814517663 -4.2238939065777386 a 68.72177591648806 68.72177591648806 0.0 0 1 -5.268015314225513,61.46020174981731 l -9.704485909519335 -5.9623571442593715 a 57.33201079670792 57.33201079670792 0.0 0 0 4.394908409227185,-51.2739506989802 z"/><path fill="#6c063e" d="M 148.84891699608664,130.01237695190557 l 9.704485909519338 5.9623571442593795 a 68.72177591648806 68.72177591648806 0.0 0 1 -23.610868534244073,23.200444626186115 l -5.791283095816642 -9.807537386513935 a 57.33201079670792 57.33201079670792 0.0 0 0 19.697665720541377,-19.35526438393156 z"/><path fill="#617fd8" d="M 129.15125127554526,149.36764133583713 l 5.791283095816638 9.807537386513939 a 68.72177591648806 68.72177591648806 0.0 0 1 -34.38837795491615,9.54436286359164 l -0.09184441668978494 -11.389394807753533 a 57.33201079670792 57.33201079670792 0.0 0 0 28.6889392757893,-7.962505442352047 z"/><path fill="#00324a" d="M 184.67801346483768,47.64052485205264 l 0.3755727521528451 -0.23223020212630338 a 100.00000000000003 100.00000000000003 0.0 0 1 14.767136227784096,46.60644256525991 l -0.4407802788564794 0.026429239687971062 a 99.55842808180404 99.55842808180404 0.0 0 0 -14.701928701080462,-46.40064160282158 z"/><path fill="#76aaea" d="M 199.37994216591812,94.04116645487422 l 0.4407802788564863 -0.026429239687972873 a 100.00000000000003 100.00000000000003 0.0 0 1 -73.37276993970215,102.42439285290095 l -0.11678673120020733 -0.42584811653317445 a 99.55842808180404 99.55842808180404 0.0 0 0 73.04877639204588,-101.9721154966798 z"/><path fill="#0030a7" d="M 126.33116577387224,196.013281951554 l 0.11678673120021278 0.4258481165331783 a 100.00000000000003 100.00000000000003 0.0 0 1 -43.10169935821674,2.164382626701691 l 0.07353826943092656 -0.4354054224150019 a 99.55842808180404 99.55842808180404 0.0 0 0 42.9113743575856,-2.1548253208198673 z"/><path fill="#552fdf" d="M 83.41979141628666,198.16810727237387 l -0.07353826943093357 0.43540542241500574 a 100.00000000000003 100.00000000000003 0.0 0 1 -63.2476229729352,-158.73479490227288 l 0.3528220114058911 0.26552285627943206 a 99.55842808180404 99.55842808180404 0.0 0 0 62.96833923096024,158.03386662357843 z"/><path fill="#61a2e8" d="M 20.451452185326417,40.13424064879543 l -0.3528220114058911 -0.26552285627943106 a 100.00000000000003 100.00000000000003 0.0 0 1 80.4219164601831,-39.86736293934652 l -0.0022985877573091784 0.44156593554487245 a 99.55842808180404 99.55842808180404 0.0 0 0 -80.0667958610199,39.69131986008108 z"/><path fill="#6c063e" d="M 100.5182480463463,0.44292078871436047 l 0.0022985877573159764 -0.4415659355448607 a 100.00000000000003 100.00000000000003 0.0 0 1 46.68909862596687,11.843955002639591 l -0.2084645361484121 0.3892663562494363 a 99.55842808180404 99.55842808180404 0.0 0 0 -46.482932677575775,-11.791655423344167 z"/><path fill="#617fd8" d="M 147.001180723922,12.2345762120585 l 0.20846453614841548 -0.38926635624943506 a 100.00000000000003 100.00000000000003 0.0 0 1 37.84394095692003,35.562984794117234 l -0.37557275215284847 0.23223020212630274 a 99.55842808180404 99.55842808180404 0.0 0 0 -37.67683274091559,-35.4059486399941 z"/></g></svg>