<?xml version='1.0' encoding='UTF-8'?>
<svg viewBox="-148.32441533837698 -91.7866250630729 452.77856362934614 487.43593012866364" preserveAspectRatio="xMidYMid meet" xmlns="http://www.w3.org/2000/svg" xmlns:svg="http://www.w3.org/2000/svg"><g transform="translate(0.0, 0.0)"><path fill="#d0ffd8" d="M 107.9916873671599,100.0 a 7.991687367159902 7.991687367159902 0.0 1 1 -7.991687367159902,-7.991687367159902 a 7.991687367159902 7.991687367159902 0.0 0 1 7.991687367159902,7.991687367159902 z M 101.07655478673608,100.0 a 1.0765547867360856 1.0765547867360856 0.0 1 0 -1.0765547867360856,1.0765547867360856 a 1.0765547867360856 1.0765547867360856 0.0 0 0 1.0765547867360856,-1.0765547867360856 z"/><path fill="#55dea7" d="M 119.90740863380606,100.0 a 19.90740863380605 19.90740863380605 0.0 1 1 -19.90740863380605,-19.90740863380605 a 19.90740863380605 19.90740863380605 0.0 0 1 19.90740863380605,19.90740863380605 z M 107.99168736715991,100.0 a 7.991687367159902 7.991687367159902 0.0 1 0 -7.991687367159902,7.991687367159902 a 7.991687367159902 7.991687367159902 0.0 0 0 7.991687367159902,-7.991687367159902 z"/><path fill="#26fff0" d="M 126.30811352512791,100.0 a 26.30811352512791 26.30811352512791 0.0 1 1 -26.30811352512791,-26.30811352512791 a 26.30811352512791 26.30811352512791 0.0 0 1 26.30811352512791,26.30811352512791 z M 119.90740863380604,100.0 a 19.90740863380605 19.90740863380605 0.0 1 0 -19.90740863380605,19.90740863380605 a 19.90740863380605 19.90740863380605 0.0 0 0 19.90740863380605,-19.90740863380605 z"/><path fill="#f0fdf6" d="M 184.1595237630061,100.0 a 84.15952376300609 84.15952376300609 0.0 1 1 -84.15952376300609,-84.15952376300609 a 84.15952376300609 84.15952376300609 0.0 0 1 84.15952376300609,84.15952376300609 z M 164.29732285676286,100.0 a 64.29732285676286 64.29732285676286 0.0 1 0 -64.29732285676286,64.29732285676286 a 64.29732285676286 64.29732285676286 0.0 0 0 64.29732285676286,-64.29732285676286 z"/><path fill="#89f767" d="M 193.33748495177468,100.0 a 93.33748495177467 93.33748495177467 0.0 1 1 -93.33748495177467,-93.33748495177467 a 93.33748495177467 93.33748495177467 0.0 0 1 93.33748495177467,93.33748495177467 z M 184.15952376300612,100.0 a 84.15952376300609 84.15952376300609 0.0 1 0 -84.15952376300609,84.15952376300609 a 84.15952376300609 84.15952376300609 0.0 0 0 84.15952376300609,-84.15952376300609 z"/><path fill="#abf3c6" d="M 195.89331253153645,100.0 a 95.89331253153645 95.89331253153645 0.0 1 1 -95.89331253153645,-95.89331253153645 a 95.89331253153645 95.89331253153645 0.0 0 1 95.89331253153645,95.89331253153645 z M 193.33748495177468,100.0 a 93.33748495177467 93.33748495177467 0.0 1 0 -93.33748495177467,93.33748495177467 a 93.33748495177467 93.33748495177467 0.0 0 0 93.33748495177467,-93.33748495177467 z"/><path fill="#56feb4" d="M 100.0,100.0 l -0.5761925711590247 0.9093801899016335 a 1.0765547867360856 1.0765547867360856 0.0 0 1 0.04180632985992794,-1.843939740681894 l 0.5343862412990967 0.9345595507802605 z"/><path fill="#d0ffd8" d="M 100.0,100.0 l -0.5343862412990967 -0.9345595507802605 a 1.0765547867360856 1.0765547867360856 0.0 0 1 1.4940321635841827,1.4224631403202286 l -0.9596459222850859 -0.48790358953996804 z"/><path fill="#55dea7" d="M 100.0,100.0 l 0.9596459222850859 0.48790358953996804 a 1.0765547867360856 1.0765547867360856 0.0 0 1 -0.14799595348026806,0.2193407366893182 l -0.8116499688048179 -0.7072443262292862 z"/><path fill="#26fff0" d="M 100.0,100.0 l 0.8116499688048179 0.7072443262292862 a 1.0765547867360856 1.0765547867360856 0.0 0 1 -0.4786376062144727,0.3165100267316061 l -0.33301236259034517 -1.0237543529608923 z"/><path fill="#02beff" d="M 100.0,100.0 l 0.33301236259034517 1.0237543529608923 a 1.0765547867360856 1.0765547867360856 0.0 0 1 -0.17440896159292696,0.04105322122161259 l -0.1586034009974182 -1.064807574182505 z"/><path fill="#5cfb46" d="M 100.0,100.0 l 0.1586034009974182 1.064807574182505 a 1.0765547867360856 1.0765547867360856 0.0 0 1 -0.45867951706878535,-0.030919507993566908 l 0.30007611607136714 -1.033888066188938 z"/><path fill="#f0fdf6" d="M 100.0,100.0 l -0.30007611607136714 1.033888066188938 a 1.0765547867360856 1.0765547867360856 0.0 0 1 -0.27611645508765753,-0.12450787628730453 l 0.5761925711590247 -0.9093801899016335 z"/><path fill="#56feb4" d="M 105.66414115885435,74.30886646752249 l 6.536920960140454 -29.64984532839343 a 56.67000845342211 56.67000845342211 0.0 0 1 31.01090229676331,92.00453009969921 l -23.151525101937928 -19.643104364919395 a 26.30811352512791 26.30811352512791 0.0 0 0 -14.396298154965834,-42.71158040638639 z"/><path fill="#d0ffd8" d="M 120.0604393138202,117.02044687390888 l 23.151525101937928 19.64310436491939 a 56.67000845342211 56.67000845342211 0.0 0 1 -99.45665481495729,-43.593533923450835 l 30.134023741649898 3.712852915812519 a 26.30811352512791 26.30811352512791 0.0 0 0 46.17110597136947,20.23757664271892 z"/><path fill="#55dea7" d="M 73.88933334245073,96.78287023118996 l -30.134023741649898 -3.7128529158125168 a 56.67000845342211 56.67000845342211 0.0 0 1 3.389233784535616,-13.509943053167051 l 28.31818564912388 10.951028498663103 a 26.30811352512791 26.30811352512791 0.0 0 0 -1.5733956920095977,6.271767470316466 z"/><path fill="#26fff0" d="M 75.46272903446032,90.51110276087348 l -28.31818564912388 -10.951028498663101 a 56.67000845342211 56.67000845342211 0.0 0 1 18.009128224082907,-24.250378085374855 l 18.669497148588395 23.943569906253053 a 26.30811352512791 26.30811352512791 0.0 0 0 -8.360439723547422,11.2578366777849 z"/><path fill="#02beff" d="M 83.82316875800775,79.25326608308859 l -18.669497148588395 -23.943569906253057 a 56.67000845342211 56.67000845342211 0.0 0 1 7.894820956253508,-5.160534736766941 l 14.439716160493457 26.708411799303256 a 26.30811352512791 26.30811352512791 0.0 0 0 -3.6650399681585704,2.3956928437167413 z"/><path fill="#5cfb46" d="M 87.48820872616632,76.85757323937185 l -14.43971616049346 -26.708411799303253 a 56.67000845342211 56.67000845342211 0.0 0 1 23.25422977429868,-6.698431957163589 l 1.980877697005786 30.29720758067123 a 26.30811352512791 26.30811352512791 0.0 0 0 -10.795391310811004,3.109636175795611 z"/><path fill="#f0fdf6" d="M 98.28360003697733,73.74793706357625 l -1.9808776970057849 -30.29720758067123 a 56.67000845342211 56.67000845342211 0.0 0 1 15.898339779023376,1.208291656224084 l -6.536920960140506 29.649845328393415 a 26.30811352512791 26.30811352512791 0.0 0 0 -7.380541121877085,-0.5609294039462682 z"/><path fill="#56feb4" d="M 43.77355611101027,107.07650095098019 l -7.567614281822548 0.9524384961584785 a 64.29732285676286 64.29732285676286 0.0 0 1 86.5285892904585,-68.17282376896009 l -2.69689948131078 7.134609883876962 a 56.67000845342211 56.67000845342211 0.0 0 0 -76.26407552732518,60.085775388924645 z"/><path fill="#d0ffd8" d="M 120.03763163833545,46.99072556205554 l 2.69689948131079 -7.13460988387696 a 64.29732285676286 64.29732285676286 0.0 0 1 -8.727760308134602,122.89702048234001 l -1.6615628770879471 -7.444134188264769 a 56.67000845342211 56.67000845342211 0.0 0 0 7.692423703911759,-108.31827641019828 z"/><path fill="#55dea7" d="M 112.3452079344237,155.3090019722538 l 1.6615628770879458 7.4441341882647745 a 64.29732285676286 64.29732285676286 0.0 0 1 -15.729882378203765,1.5210936137504465 l 0.20440530160909454 -7.624574970454638 a 56.67000845342211 56.67000845342211 0.0 0 0 13.863914199506725,-1.3406528315605826 z"/><path fill="#26fff0" d="M 98.48129373491696,156.6496548038144 l -0.20440530160909492 7.624574970454637 a 64.29732285676286 64.29732285676286 0.0 0 1 -32.77545302864702,-10.015638128263218 l 4.092416090461459 -6.436462968893814 a 56.67000845342211 56.67000845342211 0.0 0 0 28.887442239794655,8.827526126702395 z"/><path fill="#02beff" d="M 69.59385149512231,147.822128677112 l -4.092416090461456 6.436462968893816 a 64.29732285676286 64.29732285676286 0.0 0 1 -8.521349085872242,-6.473314065898353 l 5.103267020652737 -5.668561609731995 a 56.67000845342211 56.67000845342211 0.0 0 0 7.51049815568096,5.7054127067365314 z"/><path fill="#5cfb46" d="M 62.08335333944135,142.11671597037548 l -5.103267020652737 5.668561609731992 a 64.29732285676286 64.29732285676286 0.0 0 1 -16.01272882668006,-22.304052235114984 l 7.002788054967155 -3.022727983894434 a 56.67000845342211 56.67000845342211 0.0 0 0 14.113207792365642,19.658218609277426 z"/><path fill="#f0fdf6" d="M 47.97014554707571,122.45849736109804 l -7.002788054967158 3.0227279838944354 a 64.29732285676286 64.29732285676286 0.0 0 1 -4.761415662920823,-17.452285897853816 l 7.56761428182255 -0.9524384961584786 a 56.67000845342211 56.67000845342211 0.0 0 0 4.19658943606543,15.38199641011786 z"/><path fill="#56feb4" d="M 19.946508401499713,152.79172161579663 l -3.428337827480907 2.2608365054331707 a 100.00000000000003 100.00000000000003 0.0 0 1 73.85729965985179,-154.58832268242102 l 0.39524935780417536 4.087622769873832 a 95.89331253153645 95.89331253153645 0.0 0 0 -70.82421119017506,148.23986340711403 z"/><path fill="#d0ffd8" d="M 90.77071959167479,4.551858208682603 l -0.3952493578041828 -4.08762276987385 a 100.00000000000003 100.00000000000003 0.0 0 1 72.30140621245766,177.4562956100214 l -2.5739434306457696 -3.19995268394257 a 95.89331253153645 95.89331253153645 0.0 0 0 -69.3322134240077,-170.16872015620498 z"/><path fill="#55dea7" d="M 160.1029330156825,174.72057836488761 l 2.5739434306457607 3.1999526839425783 a 100.00000000000003 100.00000000000003 0.0 0 1 -20.89960460168742,12.934625971665843 l -1.7156619875098258 -3.7311373478136147 a 95.89331253153645 95.89331253153645 0.0 0 0 20.041323158551485,-12.403441307794807 z"/><path fill="#26fff0" d="M 140.061609857131,187.12401967268238 l 1.7156619875098265 3.7311373478136143 a 100.00000000000003 100.00000000000003 0.0 0 1 -52.61053298326372,8.556313409743609 l 0.4448881776057618 -4.08251839837402 a 95.89331253153645 95.89331253153645 0.0 0 0 50.44998281814813,-8.204932359183204 z"/><path fill="#02beff" d="M 89.61162703898287,195.3289520318656 l -0.44488817760576066 4.082518398374024 a 100.00000000000003 100.00000000000003 0.0 0 1 -16.338032255303492,-3.173635794888572 l 1.115840100827846 -3.952187094890661 a 95.89331253153645 95.89331253153645 0.0 0 0 15.667080332081408,3.043304491405209 z"/><path fill="#5cfb46" d="M 73.94454670690148,192.28564754046042 l -1.115840100827846 3.9521870948906606 a 100.00000000000003 100.00000000000003 0.0 0 1 -37.671292518469336,-20.11005355515941 l 2.6628823498920866 -3.1263300456396195 a 95.89331253153645 95.89331253153645 0.0 0 0 36.124250269405096,19.28419650590837 z"/><path fill="#f0fdf6" d="M 37.82029643749637,173.00145103455205 l -2.6628823498920826 3.126330045639615 a 100.00000000000003 100.00000000000003 0.0 0 1 -18.639243513585573,-21.07522295896199 l 3.4283378274809024 -2.2608365054331614 a 95.89331253153645 95.89331253153645 0.0 0 0 17.873788035996753,20.209729418755536 z"/></g></svg>