<?xml version='1.0' encoding='UTF-8'?>
<svg viewBox="99.99999999999997 -100.0 200.00000000000003 380.1980198019802" preserveAspectRatio="xMidYMid meet" xmlns="http://www.w3.org/2000/svg" xmlns:svg="http://www.w3.org/2000/svg"><g transform="translate(0.0, 0.0)"><circle fill="#ffabee" r="0.0" cx="100.0" cy="100.0"/><path fill="#fb92d8" d="M 100.0990099009901,100.0 a 0.09900990099009901 0.09900990099009901 0.0 1 1 -0.09900990099009901,-0.09900990099009901 a 0.09900990099009901 0.09900990099009901 0.0 0 1 0.09900990099009901,0.09900990099009901 z M 100.0,100.0 a 0.0 0.0 0.0 1 0 -0.0,0.0 a 0.0 0.0 0.0 0 0 0.0,-0.0 z"/><path fill="#ffabee" d="M 100.71391349661282,100.0 a 0.7139134966128191 0.7139134966128191 0.0 1 1 -0.7139134966128191,-0.7139134966128191 a 0.7139134966128191 0.7139134966128191 0.0 0 1 0.7139134966128191,0.7139134966128191 z M 100.0990099009901,100.0 a 0.09900990099009901 0.09900990099009901 0.0 1 0 -0.09900990099009901,0.09900990099009901 a 0.09900990099009901 0.09900990099009901 0.0 0 0 0.09900990099009901,-0.09900990099009901 z"/><path fill="#fb92d8" d="M 101.84471078686816,100.0 a 1.8447107868681603 1.8447107868681603 0.0 1 1 -1.8447107868681603,-1.8447107868681603 a 1.8447107868681603 1.8447107868681603 0.0 0 1 1.8447107868681603,1.8447107868681603 z M 100.71391349661282,100.0 a 0.7139134966128191 0.7139134966128191 0.0 1 0 -0.7139134966128191,0.7139134966128191 a 0.7139134966128191 0.7139134966128191 0.0 0 0 0.7139134966128191,-0.7139134966128191 z"/><path fill="#ffabee" d="M 103.49140177175612,100.0 a 3.4914017717561223 3.4914017717561223 0.0 1 1 -3.4914017717561223,-3.4914017717561223 a 3.4914017717561223 3.4914017717561223 0.0 0 1 3.4914017717561223,3.4914017717561223 z M 101.84471078686815,100.0 a 1.8447107868681603 1.8447107868681603 0.0 1 0 -1.8447107868681603,1.8447107868681603 a 1.8447107868681603 1.8447107868681603 0.0 0 0 1.8447107868681603,-1.8447107868681603 z"/><path fill="#fb92d8" d="M 105.65398645127671,100.0 a 5.653986451276706 5.653986451276706 0.0 1 1 -5.653986451276706,-5.653986451276706 a 5.653986451276706 5.653986451276706 0.0 0 1 5.653986451276706,5.653986451276706 z M 103.49140177175613,100.0 a 3.4914017717561223 3.4914017717561223 0.0 1 0 -3.4914017717561223,3.4914017717561223 a 3.4914017717561223 3.4914017717561223 0.0 0 0 3.4914017717561223,-3.4914017717561223 z"/><path fill="#ffabee" d="M 108.33246482542991,100.0 a 8.332464825429911 8.332464825429911 0.0 1 1 -8.332464825429911,-8.332464825429911 a 8.332464825429911 8.332464825429911 0.0 0 1 8.332464825429911,8.332464825429911 z M 105.65398645127671,100.0 a 5.653986451276706 5.653986451276706 0.0 1 0 -5.653986451276706,5.653986451276706 a 5.653986451276706 5.653986451276706 0.0 0 0 5.653986451276706,-5.653986451276706 z"/><path fill="#fb92d8" d="M 111.52683689421573,100.0 a 11.526836894215737 11.526836894215737 0.0 1 1 -11.526836894215737,-11.526836894215737 a 11.526836894215737 11.526836894215737 0.0 0 1 11.526836894215737,11.526836894215737 z M 108.33246482542991,100.0 a 8.332464825429911 8.332464825429911 0.0 1 0 -8.332464825429911,8.332464825429911 a 8.332464825429911 8.332464825429911 0.0 0 0 8.332464825429911,-8.332464825429911 z"/><path fill="#ffabee" d="M 115.23710265763418,100.0 a 15.237102657634182 15.237102657634182 0.0 1 1 -15.237102657634182,-15.237102657634182 a 15.237102657634182 15.237102657634182 0.0 0 1 15.237102657634182,15.237102657634182 z M 111.52683689421573,100.0 a 11.526836894215737 11.526836894215737 0.0 1 0 -11.526836894215737,11.526836894215737 a 11.526836894215737 11.526836894215737 0.0 0 0 11.526836894215737,-11.526836894215737 z"/><path fill="#fb92d8" d="M 119.46326211568525,100.0 a 19.46326211568525 19.46326211568525 0.0 1 1 -19.46326211568525,-19.46326211568525 a 19.46326211568525 19.46326211568525 0.0 0 1 19.46326211568525,19.46326211568525 z M 115.23710265763418,100.0 a 15.237102657634182 15.237102657634182 0.0 1 0 -15.237102657634182,15.237102657634182 a 15.237102657634182 15.237102657634182 0.0 0 0 15.237102657634182,-15.237102657634182 z"/><path fill="#ffabee" d="M 124.20531526836893,100.0 a 24.205315268368942 24.205315268368942 0.0 1 1 -24.205315268368942,-24.205315268368942 a 24.205315268368942 24.205315268368942 0.0 0 1 24.205315268368942,24.205315268368942 z M 119.46326211568524,100.0 a 19.46326211568525 19.46326211568525 0.0 1 0 -19.46326211568525,19.46326211568525 a 19.46326211568525 19.46326211568525 0.0 0 0 19.46326211568525,-19.46326211568525 z"/><path fill="#fb92d8" d="M 129.46326211568524,100.0 a 29.46326211568525 29.46326211568525 0.0 1 1 -29.46326211568525,-29.46326211568525 a 29.46326211568525 29.46326211568525 0.0 0 1 29.46326211568525,29.46326211568525 z M 124.20531526836893,100.0 a 24.205315268368942 24.205315268368942 0.0 1 0 -24.205315268368942,24.205315268368942 a 24.205315268368942 24.205315268368942 0.0 0 0 24.205315268368942,-24.205315268368942 z"/><path fill="#ffabee" d="M 135.23710265763418,100.0 a 35.23710265763418 35.23710265763418 0.0 1 1 -35.23710265763418,-35.23710265763418 a 35.23710265763418 35.23710265763418 0.0 0 1 35.23710265763418,35.23710265763418 z M 129.46326211568524,100.0 a 29.46326211568525 29.46326211568525 0.0 1 0 -29.46326211568525,29.46326211568525 a 29.46326211568525 29.46326211568525 0.0 0 0 29.46326211568525,-29.46326211568525 z"/><path fill="#fb92d8" d="M 141.52683689421573,100.0 a 41.52683689421573 41.52683689421573 0.0 1 1 -41.52683689421573,-41.52683689421573 a 41.52683689421573 41.52683689421573 0.0 0 1 41.52683689421573,41.52683689421573 z M 135.23710265763418,100.0 a 35.23710265763418 35.23710265763418 0.0 1 0 -35.23710265763418,35.23710265763418 a 35.23710265763418 35.23710265763418 0.0 0 0 35.23710265763418,-35.23710265763418 z"/><path fill="#ffabee" d="M 148.3324648254299,100.0 a 48.33246482542991 48.33246482542991 0.0 1 1 -48.33246482542991,-48.33246482542991 a 48.33246482542991 48.33246482542991 0.0 0 1 48.33246482542991,48.33246482542991 z M 141.5268368942157,100.0 a 41.52683689421573 41.52683689421573 0.0 1 0 -41.52683689421573,41.52683689421573 a 41.52683689421573 41.52683689421573 0.0 0 0 41.52683689421573,-41.52683689421573 z"/><path fill="#fb92d8" d="M 155.6539864512767,100.0 a 55.65398645127671 55.65398645127671 0.0 1 1 -55.65398645127671,-55.65398645127671 a 55.65398645127671 55.65398645127671 0.0 0 1 55.65398645127671,55.65398645127671 z M 148.3324648254299,100.0 a 48.33246482542991 48.33246482542991 0.0 1 0 -48.33246482542991,48.33246482542991 a 48.33246482542991 48.33246482542991 0.0 0 0 48.33246482542991,-48.33246482542991 z"/><path fill="#ffabee" d="M 163.49140177175613,100.0 a 63.49140177175613 63.49140177175613 0.0 1 1 -63.49140177175613,-63.49140177175613 a 63.49140177175613 63.49140177175613 0.0 0 1 63.49140177175613,63.49140177175613 z M 155.6539864512767,100.0 a 55.65398645127671 55.65398645127671 0.0 1 0 -55.65398645127671,55.65398645127671 a 55.65398645127671 55.65398645127671 0.0 0 0 55.65398645127671,-55.65398645127671 z"/><path fill="#fb92d8" d="M 171.84471078686818,100.0 a 71.84471078686816 71.84471078686816 0.0 1 1 -71.84471078686816,-71.84471078686816 a 71.84471078686816 71.84471078686816 0.0 0 1 71.84471078686816,71.84471078686816 z M 163.49140177175616,100.0 a 63.49140177175613 63.49140177175613 0.0 1 0 -63.49140177175613,63.49140177175613 a 63.49140177175613 63.49140177175613 0.0 0 0 63.49140177175613,-63.49140177175613 z"/><path fill="#ffabee" d="M 180.7139134966128,100.0 a 80.71391349661282 80.71391349661282 0.0 1 1 -80.71391349661282,-80.71391349661282 a 80.71391349661282 80.71391349661282 0.0 0 1 80.71391349661282,80.71391349661282 z M 171.84471078686815,100.0 a 71.84471078686816 71.84471078686816 0.0 1 0 -71.84471078686816,71.84471078686816 a 71.84471078686816 71.84471078686816 0.0 0 0 71.84471078686816,-71.84471078686816 z"/><path fill="#fb92d8" d="M 190.0990099009901,100.0 a 90.0990099009901 90.0990099009901 0.0 1 1 -90.0990099009901,-90.0990099009901 a 90.0990099009901 90.0990099009901 0.0 0 1 90.0990099009901,90.0990099009901 z M 180.7139134966128,100.0 a 80.71391349661282 80.71391349661282 0.0 1 0 -80.71391349661282,80.71391349661282 a 80.71391349661282 80.71391349661282 0.0 0 0 80.71391349661282,-80.71391349661282 z"/><path fill="#ffabee" d="M 200.0,100.0 a 100.0 100.0 0.0 1 1 -100.0,-100.0 a 100.0 100.0 0.0 0 1 100.0,100.0 z M 190.0990099009901,100.0 a 90.0990099009901 90.0990099009901 0.0 1 0 -90.0990099009901,90.0990099009901 a 90.0990099009901 90.0990099009901 0.0 0 0 90.0990099009901,-90.0990099009901 z"/></g></svg>