<?xml version='1.0' encoding='UTF-8'?>
<svg viewBox="-171.62843736095493 -174.03484647778726 570.3334986595253 507.3141752973652" preserveAspectRatio="xMidYMid meet" xmlns="http://www.w3.org/2000/svg" xmlns:svg="http://www.w3.org/2000/svg"><g transform="translate(0.0, 0.0)"><path fill="#807cff" d="M 106.461774568439,100.0 a 6.461774568438999 6.461774568438999 0.0 1 1 -6.461774568438999,-6.461774568438999 a 6.461774568438999 6.461774568438999 0.0 0 1 6.461774568438999,6.461774568438999 z M 101.49821892553909,100.0 a 1.49821892553909 1.49821892553909 0.0 1 0 -1.49821892553909,1.49821892553909 a 1.49821892553909 1.49821892553909 0.0 0 0 1.49821892553909,-1.49821892553909 z"/><path fill="#ee2f6d" d="M 118.54171724892194,100.0 a 18.541717248921938 18.541717248921938 0.0 1 1 -18.541717248921938,-18.541717248921938 a 18.541717248921938 18.541717248921938 0.0 0 1 18.541717248921938,18.541717248921938 z M 106.461774568439,100.0 a 6.461774568438999 6.461774568438999 0.0 1 0 -6.461774568438999,6.461774568438999 a 6.461774568438999 6.461774568438999 0.0 0 0 6.461774568438999,-6.461774568438999 z"/><path fill="#ffd6dd" d="M 131.8347668404218,100.0 a 31.834766840421796 31.834766840421796 0.0 1 1 -31.834766840421796,-31.834766840421796 a 31.834766840421796 31.834766840421796 0.0 0 1 31.834766840421796,31.834766840421796 z M 118.54171724892194,100.0 a 18.541717248921938 18.541717248921938 0.0 1 0 -18.541717248921938,18.541717248921938 a 18.541717248921938 18.541717248921938 0.0 0 0 18.541717248921938,-18.541717248921938 z"/><path fill="#d85dc3" d="M 148.52716849299446,100.0 a 48.52716849299448 48.52716849299448 0.0 1 1 -48.52716849299448,-48.52716849299448 a 48.52716849299448 48.52716849299448 0.0 0 1 48.52716849299448,48.52716849299448 z M 131.97470257664392,100.0 a 31.97470257664393 31.97470257664393 0.0 1 0 -31.97470257664393,31.97470257664393 a 31.97470257664393 31.97470257664393 0.0 0 0 31.97470257664393,-31.97470257664393 z"/><path fill="#fbacd9" d="M 175.23298249450627,100.0 a 75.23298249450627 75.23298249450627 0.0 1 1 -75.23298249450627,-75.23298249450627 a 75.23298249450627 75.23298249450627 0.0 0 1 75.23298249450627,75.23298249450627 z M 148.52716849299446,100.0 a 48.52716849299448 48.52716849299448 0.0 1 0 -48.52716849299448,48.52716849299448 a 48.52716849299448 48.52716849299448 0.0 0 0 48.52716849299448,-48.52716849299448 z"/><path fill="#f0c2df" d="M 195.08720743532632,100.0 a 95.0872074353263 95.0872074353263 0.0 1 1 -95.0872074353263,-95.0872074353263 a 95.0872074353263 95.0872074353263 0.0 0 1 95.0872074353263,95.0872074353263 z M 175.2329824945063,100.0 a 75.23298249450627 75.23298249450627 0.0 1 0 -75.23298249450627,75.23298249450627 a 75.23298249450627 75.23298249450627 0.0 0 0 75.23298249450627,-75.23298249450627 z"/><path fill="#fb77a8" d="M 100.0,100.0 l -0.694867874555249 -1.3273351444735337 a 1.49821892553909 1.49821892553909 0.0 0 1 0.30240965482617105,-0.11856820451303962 l 0.39245821972907796 1.4459033489865734 z"/><path fill="#807cff" d="M 100.0,100.0 l -0.39245821972907796 -1.4459033489865734 a 1.49821892553909 1.49821892553909 0.0 0 1 1.0589404695359175,0.10409063495531967 l -0.6664822498068396 1.3418127140312537 z"/><path fill="#ee2f6d" d="M 100.0,100.0 l 0.6664822498068396 -1.3418127140312537 a 1.49821892553909 1.49821892553909 0.0 0 1 0.7448230565610016,1.8446817636470354 l -1.4113053063678411 -0.5028690496157817 z"/><path fill="#ffd6dd" d="M 100.0,100.0 l 1.4113053063678411 0.5028690496157817 a 1.49821892553909 1.49821892553909 0.0 0 1 -0.14784774488322894,0.3023234361730901 l -1.2634575614846122 -0.8051924857888718 z"/><path fill="#f84da8" d="M 100.0,100.0 l 1.2634575614846122 0.8051924857888718 a 1.49821892553909 1.49821892553909 0.0 0 1 -1.2868541020537383,0.6928437456597879 l 0.02339654056912602 -1.4980362314486597 z"/><path fill="#ffffff" d="M 100.0,100.0 l -0.02339654056912602 1.4980362314486597 a 1.49821892553909 1.49821892553909 0.0 0 1 -1.4744649785465256,-1.5307595930739208 l 1.4978615191156517 0.03272336162526116 z"/><path fill="#d85dc3" d="M 100.0,100.0 l -1.4978615191156517 -0.03272336162526116 a 1.49821892553909 1.49821892553909 0.0 0 1 0.8029936445604027,-1.2946117828482726 l 0.694867874555249 1.3273351444735337 z"/><path fill="#fb77a8" d="M 73.93922435458015,81.71644584488263 l -0.053433458624510065 -0.037487507960191936 a 31.90003894590065 31.90003894590065 0.0 0 1 4.5624545936391305,-5.197767028546364 l 0.044098014928543705 0.048122893024050484 a 31.834766840421796 31.834766840421796 0.0 0 0 -4.553119149943164,5.187131643482505 z"/><path fill="#807cff" d="M 78.49234350452332,76.52931420140011 l -0.04409801492854661 -0.04812289302405211 a 31.90003894590065 31.90003894590065 0.0 0 1 21.04987677373795,-8.377282032592037 l 0.001026914626052644 0.06526402684476196 a 31.834766840421796 31.834766840421796 0.0 0 0 -21.006805673435455,8.360140898771327 z"/><path fill="#ee2f6d" d="M 99.49914917795877,68.16917330262879 l -0.0010269146260539653 -0.06526402684475943 a 31.90003894590065 31.90003894590065 0.0 0 1 32.11402325321357,27.620024706170675 l -0.06468303377523199 0.008749451141351727 a 31.834766840421796 31.834766840421796 0.0 0 0 -32.04831330481228,-27.563510130467268 z"/><path fill="#ffd6dd" d="M 131.54746248277107,95.73268343309607 l 0.06468303377523174 -0.00874945114135241 a 31.90003894590065 31.90003894590065 0.0 0 1 0.15691391637146193,7.16385885994356 l -0.06500410240207088 -0.0059088429107294616 a 31.834766840421796 31.834766840421796 0.0 0 0 -0.1565928477446228,-7.149200565891478 z"/><path fill="#f84da8" d="M 131.70405533051567,102.88188399898753 l 0.06500410240207159 0.005908842910729005 a 31.90003894590065 31.90003894590065 0.0 0 1 -17.575005216560072,25.680394178860986 l -0.029043093193518388 -0.05845465329120714 a 31.834766840421796 31.834766840421796 0.0 0 0 17.53904420735152,-25.627848368480507 z"/><path fill="#ffffff" d="M 114.16501112316416,128.50973236746805 l 0.029043093193518877 0.058454653291207366 a 31.90003894590065 31.90003894590065 0.0 0 1 -42.850064405377154,-14.552283025768785 l 0.05863435222862279 -0.02867857200720003 a 31.834766840421796 31.834766840421796 0.0 0 0 42.76238695995501,14.522506944484778 z"/><path fill="#d85dc3" d="M 71.40262416320915,113.98722542298327 l -0.0586343522286253 0.02867857200720054 a 31.90003894590065 31.90003894590065 0.0 0 1 2.541801084975094,-32.33694565806802 l 0.05343345862451088 0.03748750796019351 a 31.834766840421796 31.834766840421796 0.0 0 0 -2.5366001913709795,32.27077957810062 z"/><path fill="#fb77a8" d="M 92.93904073176392,68.89123372805842 l -0.016526527017443397 -0.07281161762047804 a 31.97470257664393 31.97470257664393 0.0 0 1 6.8868570715532,-0.7925564310812581 l 4.451341682161214E-4 0.07466230381752936 a 31.90003894590065 31.90003894590065 0.0 0 0 -6.870775678703972,0.7907057448842068 z"/><path fill="#807cff" d="M 99.8098164104679,68.10052798317422 l -4.451341682164362E-4 -0.07466230381753085 a 31.97470257664393 31.97470257664393 0.0 0 1 21.27633902153023,7.937195536745952 l -0.049236914209387805 0.05612828195220487 a 31.90003894590065 31.90003894590065 0.0 0 0 -21.226656973152625,-7.918661514880625 z"/><path fill="#ee2f6d" d="M 121.0364733836205,76.01918949805483 l 0.04923691420938968 -0.05612828195220477 a 31.97470257664393 31.97470257664393 0.0 0 1 5.279399261154024,42.12733963096576 l -0.06156475732337441 -0.04224261369142823 a 31.90003894590065 31.90003894590065 0.0 0 0 -5.2670714180400395,-42.028968735322124 z"/><path fill="#ffd6dd" d="M 126.30354480166056,118.04815823337697 l 0.06156475732337329 0.042242613691427164 a 31.97470257664393 31.97470257664393 0.0 0 1 -4.70301296021196,5.428425140006532 l -0.0505828248972513 -0.054918444817598555 a 31.90003894590065 31.90003894590065 0.0 0 0 4.692031027785838,-5.415749308880361 z"/><path fill="#f84da8" d="M 121.61151377387472,123.46390754225733 l 0.05058282489724887 0.05491844481759526 a 31.97470257664393 31.97470257664393 0.0 0 1 -30.335405146326487,7.257062687401362 l 0.020252907909458884 -0.0718642990432663 a 31.90003894590065 31.90003894590065 0.0 0 0 30.26456941351978,-7.240116833175691 z"/><path fill="#ffffff" d="M 91.34694436035495,130.70402437543302 l -0.020252907909460244 0.07186429904326569 a 31.97470257664393 31.97470257664393 0.0 0 1 -22.047980653341305,-39.64065007565133 l 0.07173680466159027 0.0206999664906391 a 31.90003894590065 31.90003894590065 0.0 0 0 21.996496756589174,39.54808581011743 z"/><path fill="#d85dc3" d="M 69.35044760376577,91.1559385653156 l -0.07173680466159257 -0.020699966490637267 a 31.97470257664393 31.97470257664393 0.0 0 1 23.643803405642277,-22.316816488387005 l 0.016526527017443726 0.07281161762047716 a 31.90003894590065 31.90003894590065 0.0 0 0 -23.588593127998127,22.264704837257163 z"/><path fill="#fb77a8" d="M 22.414742357832353,45.02632616927225 l -4.008533715031866 -2.8402796057722846 a 100.0 100.0 0.0 0 1 14.378208891131585,-16.227018151852473 l 3.302162137695092 3.637479347004742 a 95.0872074353263 95.0872074353263 0.0 0 0 -13.67183731379481,15.429818410620015 z"/><path fill="#807cff" d="M 36.08657967162716,29.596507758652237 l -3.3021621376951007 -3.6374793470047435 a 100.0 100.0 0.0 0 1 66.10879224381767,-25.952903301082273 l 0.05437430774524188 4.9124916506972625 a 95.0872074353263 95.0872074353263 0.0 0 0 -62.86100441386781,24.677890997389753 z"/><path fill="#ee2f6d" d="M 98.94758408549498,4.9186167612624985 l -0.0543743077452468 -4.912491650697267 a 100.0 100.0 0.0 0 1 100.26576241049608,87.05176398855406 l -4.871474612870998 0.6358190620502882 a 95.0872074353263 95.0872074353263 0.0 0 0 -95.33991348987983,-82.77509139990708 z"/><path fill="#ffd6dd" d="M 194.2874975753748,87.69370816116951 l 4.871474612870997 -0.6358190620502909 a 100.0 100.0 0.0 0 1 0.3871169220788042,22.45926083346621 l -4.890492864235483 -0.4675578342569082 a 95.0872074353263 95.0872074353263 0.0 0 0 -0.3680986707143177,-21.35588393715901 z"/><path fill="#f84da8" d="M 194.65559624608915,109.04959209832859 l 4.890492864235477 0.4675578342569082 a 100.0 100.0 0.0 0 1 -55.46896502341088,80.24479708410308 l -2.165417674863896 -4.409818258942224 a 95.0872074353263 95.0872074353263 0.0 0 0 52.7438898340393,-76.30253665941777 z"/><path fill="#ffffff" d="M 141.91170641204985,185.35212875774636 l 2.1654176748638956 4.409818258942218 a 100.0 100.0 0.0 0 1 -134.11177009066918,-46.24456521379926 l 4.42321539450279 -2.137918697553012 a 95.0872074353263 95.0872074353263 0.0 0 0 127.52313702130249,43.97266565241006 z"/><path fill="#d85dc3" d="M 14.388569390747335,141.37946310533633 l -4.423215394502779 2.13791869755301 a 100.0 100.0 0.0 0 1 8.440854646555966,-101.3313352393894 l 4.008533715031874 2.840279605772281 a 95.0872074353263 95.0872074353263 0.0 0 0 -8.02617296708506,96.35313693606412 z"/></g></svg>