<?xml version='1.0' encoding='UTF-8'?>
<svg viewBox="99.99999999999997 -100.0 200.00000000000003 363.6363636363636" preserveAspectRatio="xMidYMid meet" xmlns="http://www.w3.org/2000/svg" xmlns:svg="http://www.w3.org/2000/svg"><g transform="translate(0.0, 0.0)"><circle fill="#238d68" r="0.0" cx="100.0" cy="100.0"/><path fill="#ad1127" d="M 101.81818181818181,100.0 a 1.8181818181818181 1.8181818181818181 0.0 1 1 -1.8181818181818181,-1.8181818181818181 a 1.8181818181818181 1.8181818181818181 0.0 0 1 1.8181818181818181,1.8181818181818181 z M 100.0,100.0 a 0.0 0.0 0.0 1 0 -0.0,0.0 a 0.0 0.0 0.0 0 0 0.0,-0.0 z"/><path fill="#238d68" d="M 105.45454545454545,100.0 a 5.454545454545455 5.454545454545455 0.0 1 1 -5.454545454545455,-5.454545454545455 a 5.454545454545455 5.454545454545455 0.0 0 1 5.454545454545455,5.454545454545455 z M 101.81818181818181,100.0 a 1.8181818181818181 1.8181818181818181 0.0 1 0 -1.8181818181818181,1.8181818181818181 a 1.8181818181818181 1.8181818181818181 0.0 0 0 1.8181818181818181,-1.8181818181818181 z"/><path fill="#ad1127" d="M 110.9090909090909,100.0 a 10.90909090909091 10.90909090909091 0.0 1 1 -10.90909090909091,-10.90909090909091 a 10.90909090909091 10.90909090909091 0.0 0 1 10.90909090909091,10.90909090909091 z M 105.45454545454545,100.0 a 5.454545454545455 5.454545454545455 0.0 1 0 -5.454545454545455,5.454545454545455 a 5.454545454545455 5.454545454545455 0.0 0 0 5.454545454545455,-5.454545454545455 z"/><path fill="#238d68" d="M 118.18181818181819,100.0 a 18.18181818181818 18.18181818181818 0.0 1 1 -18.18181818181818,-18.18181818181818 a 18.18181818181818 18.18181818181818 0.0 0 1 18.18181818181818,18.18181818181818 z M 110.90909090909092,100.0 a 10.90909090909091 10.90909090909091 0.0 1 0 -10.90909090909091,10.90909090909091 a 10.90909090909091 10.90909090909091 0.0 0 0 10.90909090909091,-10.90909090909091 z"/><path fill="#ad1127" d="M 127.27272727272727,100.0 a 27.27272727272727 27.27272727272727 0.0 1 1 -27.27272727272727,-27.27272727272727 a 27.27272727272727 27.27272727272727 0.0 0 1 27.27272727272727,27.27272727272727 z M 118.18181818181817,100.0 a 18.18181818181818 18.18181818181818 0.0 1 0 -18.18181818181818,18.18181818181818 a 18.18181818181818 18.18181818181818 0.0 0 0 18.18181818181818,-18.18181818181818 z"/><path fill="#238d68" d="M 138.1818181818182,100.0 a 38.18181818181818 38.18181818181818 0.0 1 1 -38.18181818181818,-38.18181818181818 a 38.18181818181818 38.18181818181818 0.0 0 1 38.18181818181818,38.18181818181818 z M 127.27272727272728,100.0 a 27.27272727272727 27.27272727272727 0.0 1 0 -27.27272727272727,27.27272727272727 a 27.27272727272727 27.27272727272727 0.0 0 0 27.27272727272727,-27.27272727272727 z"/><path fill="#ad1127" d="M 150.9090909090909,100.0 a 50.90909090909091 50.90909090909091 0.0 1 1 -50.90909090909091,-50.90909090909091 a 50.90909090909091 50.90909090909091 0.0 0 1 50.90909090909091,50.90909090909091 z M 138.1818181818182,100.0 a 38.18181818181818 38.18181818181818 0.0 1 0 -38.18181818181818,38.18181818181818 a 38.18181818181818 38.18181818181818 0.0 0 0 38.18181818181818,-38.18181818181818 z"/><path fill="#238d68" d="M 165.45454545454544,100.0 a 65.45454545454545 65.45454545454545 0.0 1 1 -65.45454545454545,-65.45454545454545 a 65.45454545454545 65.45454545454545 0.0 0 1 65.45454545454545,65.45454545454545 z M 150.90909090909088,100.0 a 50.90909090909091 50.90909090909091 0.0 1 0 -50.90909090909091,50.90909090909091 a 50.90909090909091 50.90909090909091 0.0 0 0 50.90909090909091,-50.90909090909091 z"/><path fill="#ad1127" d="M 181.8181818181818,100.0 a 81.81818181818183 81.81818181818183 0.0 1 1 -81.81818181818183,-81.81818181818183 a 81.81818181818183 81.81818181818183 0.0 0 1 81.81818181818183,81.81818181818183 z M 165.45454545454544,100.0 a 65.45454545454545 65.45454545454545 0.0 1 0 -65.45454545454545,65.45454545454545 a 65.45454545454545 65.45454545454545 0.0 0 0 65.45454545454545,-65.45454545454545 z"/><path fill="#238d68" d="M 200.0,100.0 a 100.0 100.0 0.0 1 1 -100.0,-100.0 a 100.0 100.0 0.0 0 1 100.0,100.0 z M 181.8181818181818,100.0 a 81.81818181818183 81.81818181818183 0.0 1 0 -81.81818181818183,81.81818181818183 a 81.81818181818183 81.81818181818183 0.0 0 0 81.81818181818183,-81.81818181818183 z"/></g></svg>