<?xml version='1.0' encoding='UTF-8'?>
<svg viewBox="-8.526512829121202E-14 0.0 200.00000000000014 200.00000000000006" preserveAspectRatio="xMidYMid meet" xmlns="http://www.w3.org/2000/svg" xmlns:svg="http://www.w3.org/2000/svg"><g transform="translate(0.0, 0.0)"><path fill="#9f2a9a" d="M 119.56437365390346,100.0 a 19.56437365390346 19.56437365390346 0.0 1 1 -19.56437365390346,-19.56437365390346 a 19.56437365390346 19.56437365390346 0.0 0 1 19.56437365390346,19.56437365390346 z M 108.75363043051377,100.0 a 8.753630430513773 8.753630430513773 0.0 1 0 -8.753630430513773,8.753630430513773 a 8.753630430513773 8.753630430513773 0.0 0 0 8.753630430513773,-8.753630430513773 z"/><path fill="#dd66c5" d="M 131.78855431893595,100.0 a 31.788554318935947 31.788554318935947 0.0 1 1 -31.788554318935947,-31.788554318935947 a 31.788554318935947 31.788554318935947 0.0 0 1 31.788554318935947,31.788554318935947 z M 119.56437365390346,100.0 a 19.56437365390346 19.56437365390346 0.0 1 0 -19.56437365390346,19.56437365390346 a 19.56437365390346 19.56437365390346 0.0 0 0 19.56437365390346,-19.56437365390346 z"/><path fill="#ce37b3" d="M 150.99823608448298,100.0 a 50.998236084482976 50.998236084482976 0.0 1 1 -50.998236084482976,-50.998236084482976 a 50.998236084482976 50.998236084482976 0.0 0 1 50.998236084482976,50.998236084482976 z M 131.78855431893595,100.0 a 31.788554318935947 31.788554318935947 0.0 1 0 -31.788554318935947,31.788554318935947 a 31.788554318935947 31.788554318935947 0.0 0 0 31.788554318935947,-31.788554318935947 z"/><path fill="#a01a5b" d="M 172.92667871587525,100.0 a 72.92667871587525 72.92667871587525 0.0 1 1 -72.92667871587525,-72.92667871587525 a 72.92667871587525 72.92667871587525 0.0 0 1 72.92667871587525,72.92667871587525 z M 161.49075954981728,100.0 a 61.49075954981728 61.49075954981728 0.0 1 0 -61.49075954981728,61.49075954981728 a 61.49075954981728 61.49075954981728 0.0 0 0 61.49075954981728,-61.49075954981728 z"/><path fill="#f419c9" d="M 187.8463420797257,100.0 a 87.8463420797257 87.8463420797257 0.0 1 1 -87.8463420797257,-87.8463420797257 a 87.8463420797257 87.8463420797257 0.0 0 1 87.8463420797257,87.8463420797257 z M 172.92667871587525,100.0 a 72.92667871587525 72.92667871587525 0.0 1 0 -72.92667871587525,72.92667871587525 a 72.92667871587525 72.92667871587525 0.0 0 0 72.92667871587525,-72.92667871587525 z"/><path fill="#eb78c9" d="M 198.40949971713215,100.0 a 98.40949971713215 98.40949971713215 0.0 1 1 -98.40949971713215,-98.40949971713215 a 98.40949971713215 98.40949971713215 0.0 0 1 98.40949971713215,98.40949971713215 z M 187.8463420797257,100.0 a 87.8463420797257 87.8463420797257 0.0 1 0 -87.8463420797257,87.8463420797257 a 87.8463420797257 87.8463420797257 0.0 0 0 87.8463420797257,-87.8463420797257 z"/><path fill="#9c1665" d="M 100.0,100.0 l -8.742312440578178 0.4449931520020748 a 8.753630430513773 8.753630430513773 0.0 0 1 4.002170945197969,-7.804144211587102 l 4.740141495380209 7.3591510595850265 z"/><path fill="#9f2a9a" d="M 100.0,100.0 l -4.740141495380209 -7.3591510595850265 a 8.753630430513773 8.753630430513773 0.0 0 1 12.790464926736735,3.9213700362257966 l -8.050323431356526 3.43778102335923 z"/><path fill="#dd66c5" d="M 100.0,100.0 l 8.050323431356523 -3.4377810233592374 a 8.753630430513773 8.753630430513773 0.0 0 1 0.49010098469232055,1.5175736106630138 l -8.540424416048843 1.9202074126962236 z"/><path fill="#ce37b3" d="M 100.0,100.0 l 8.540424416048843 -1.9202074126962236 a 8.753630430513773 8.753630430513773 0.0 0 1 -0.7015961405659779,5.816207538659656 l -7.838828275482865 -3.8960001259634325 z"/><path fill="#bc3a8e" d="M 100.0,100.0 l 7.838828275482865 3.8960001259634325 a 8.753630430513773 8.753630430513773 0.0 0 1 -1.0994542969859546,1.6903120826385418 l -6.739373978496911 -5.586312208601974 z"/><path fill="#ff3ed5" d="M 100.0,100.0 l 6.739373978496911 5.586312208601974 a 8.753630430513773 8.753630430513773 0.0 0 1 -11.91628168234849,1.4724180128910467 l 5.17690770385158 -7.058730221493021 z"/><path fill="#a01a5b" d="M 100.0,100.0 l -5.17690770385158 7.058730221493021 a 8.753630430513773 8.753630430513773 0.0 0 1 -3.565404736726599,-6.613737069490946 l 8.742312440578178 -0.4449931520020748 z"/><path fill="#9c1665" d="M 72.09614787430567,142.68717746907197 l -1.5826671338821332 2.421156495317149 a 53.89078410162757 53.89078410162757 0.0 0 1 -24.31492386791001,-48.210160601722656 l 2.887752706370968 0.16648825284163138 a 50.998236084482976 50.998236084482976 0.0 0 0 23.009838295421176,45.622515853563876 z"/><path fill="#9f2a9a" d="M 49.08630957888448,97.06466161550807 l -2.887752706370968 -0.16648825284162924 a 53.89078410162757 53.89078410162757 0.0 0 1 65.88902885528715,-49.41585497906403 l -0.648792232510111 2.8188477558253524 a 50.998236084482976 50.998236084482976 0.0 0 0 -62.35248391640607,46.76349547608031 z"/><path fill="#dd66c5" d="M 111.43879349529057,50.30116613942778 l 0.6487922325101059 -2.818847755825358 a 53.89078410162757 53.89078410162757 0.0 0 1 9.32738354933464,3.0645148629167083 l -1.1494326525844585 2.654362184906155 a 50.998236084482976 50.998236084482976 0.0 0 0 -8.826743129260286,-2.9000292919975053 z"/><path fill="#ce37b3" d="M 120.26553662455085,53.20119543142528 l 1.149432652584457 -2.654362184906153 a 53.89078410162757 53.89078410162757 0.0 0 1 26.392738022307174,24.58069735739819 l -2.566043364528724 1.3350114167471503 a 50.998236084482976 50.998236084482976 0.0 0 0 -24.97612731036291,-23.26134658923919 z"/><path fill="#bc3a8e" d="M 145.24166393491376,76.46254202066447 l 2.5660433645287224 -1.3350114167471454 a 53.89078410162757 53.89078410162757 0.0 0 1 4.422914607503893,11.599235189535728 l -2.8034400380269062 0.7124310385397319 a 50.998236084482976 50.998236084482976 0.0 0 0 -4.185517934005709,-10.976654811328315 z"/><path fill="#ff3ed5" d="M 149.4271818689195,87.43919683199283 l 2.803440038026907 -0.7124310385397322 a 53.89078410162757 53.89078410162757 0.0 0 1 -35.88398741829836,64.62500293930603 l -0.8773935277682909 -2.7562682432806582 a 50.998236084482976 50.998236084482976 0.0 0 0 33.957940908039745,-61.156303657485644 z"/><path fill="#a01a5b" d="M 115.46924096087974,148.59550048947847 l 0.8773935277682892 2.7562682432806542 a 53.89078410162757 53.89078410162757 0.0 0 1 -45.833153748224426,-6.243434768369962 l 1.5826671338821328 -2.421156495317149 a 50.998236084482976 50.998236084482976 0.0 0 0 43.373093086574,5.908323020406456 z"/><path fill="#9c1665" d="M 54.214039822332545,128.4229214138393 l -6.456988500405866 4.008357059783072 a 61.49075954981728 61.49075954981728 0.0 0 1 -1.9000050749049509,-61.58010467496879 l 6.6918204007829445 3.6026610355057755 a 53.89078410162757 53.89078410162757 0.0 0 0 1.6651731745278724,53.96908657967994 z"/><path fill="#9f2a9a" d="M 52.548866647804665,74.45383483415935 l -6.691820400782943 -3.6026610355057813 a 61.49075954981728 61.49075954981728 0.0 0 1 91.96538295404838,-19.333927014034032 l -4.674678527692379 5.992245612107212 a 53.89078410162757 53.89078410162757 0.0 0 0 -80.59888402557306,16.944342437432603 z"/><path fill="#dd66c5" d="M 133.14775067337771,57.509492396726756 l 4.674678527692386 -5.992245612107212 a 61.49075954981728 61.49075954981728 0.0 0 1 8.168278496064211,7.666478084861808 l -5.684240232224113 5.044704133589121 a 53.89078410162757 53.89078410162757 0.0 0 0 -7.158716791532484,-6.718936606343718 z"/><path fill="#ce37b3" d="M 140.30646746491024,64.22842900307052 l 5.684240232224111 -5.044704133589121 a 61.49075954981728 61.49075954981728 0.0 0 1 15.442029581020849,38.14563840370437 l -7.592804161913392 0.33007843297786366 a 53.89078410162757 53.89078410162757 0.0 0 0 -13.533465651331568,-33.43101270309311 z"/><path fill="#bc3a8e" d="M 153.83993311624178,97.65944170616359 l 7.592804161913388 -0.3300784329778628 a 61.49075954981728 61.49075954981728 0.0 0 1 -1.0187873568698746,14.127868718961341 l -7.4668867239792505 -1.4160612502108876 a 53.89078410162757 53.89078410162757 0.0 0 0 0.8928699189357374,-12.38172903577259 z"/><path fill="#ff3ed5" d="M 152.94706319730602,110.04117074193617 l 7.466886723979249 1.4160612502108882 a 61.49075954981728 61.49075954981728 0.0 0 1 -68.26908685854256,49.529736564343594 l 0.9708588461483885 -7.5377091953684285 a 53.89078410162757 53.89078410162757 0.0 0 0 59.83134128841493,-43.40808861918605 z"/><path fill="#a01a5b" d="M 93.1157219088911,153.44925936112224 l -0.9708588461483882 7.537709195368431 a 61.49075954981728 61.49075954981728 0.0 0 1 -44.387811740816,-28.555690082868256 l 6.456988500405863 -4.008357059783076 a 53.89078410162757 53.89078410162757 0.0 0 0 38.90168208655852,25.0263379472829 z"/><path fill="#9c1665" d="M 74.74333952557001,195.11325215896886 l -0.4081996732464246 1.5372261305885138 a 99.99999999999997 99.99999999999997 0.0 0 1 -70.92726797317303,-70.76687759171404 l 1.5362980709901706 -0.4116787423155728 a 98.40949971713215 98.40949971713215 0.0 0 0 69.79916957542929,69.6413302034411 z"/><path fill="#9f2a9a" d="M 4.944169950140704,125.47192195552779 l -1.5362980709901601 0.41167874231557616 a 99.99999999999997 99.99999999999997 0.0 0 1 87.28721020969513,-125.44975208809582 l 0.1479947456975168 1.583599919502575 a 98.40949971713215 98.40949971713215 0.0 0 0 -85.89890688440249,123.45447342627767 z"/><path fill="#dd66c5" d="M 90.84307683454321,2.017448529250103 l -0.1479947456975282 -1.58359991950257 a 99.99999999999997 99.99999999999997 0.0 0 1 18.218124078661976,-0.035830295934379475 l -0.14176456930680104 1.5841698004607707 a 98.40949971713215 98.40949971713215 0.0 0 0 -17.928364763657648,0.03526041497617882 z"/><path fill="#ce37b3" d="M 108.77144159820087,1.9821881142739244 l 0.14176456930680142 -1.5841698004607585 a 99.99999999999997 99.99999999999997 0.0 0 1 60.819785912604644,27.92695245316182 l -1.1091034362863894 1.1399915426968619 a 98.40949971713215 98.40949971713215 0.0 0 0 -59.852447045625055,-27.482774195397923 z"/><path fill="#bc3a8e" d="M 168.62388864382592,29.46496230967186 l 1.1091034362863823 -1.1399915426968574 a 99.99999999999997 99.99999999999997 0.0 0 1 14.550553991646247,17.85789570131644 l -1.3405300386823455 0.8559616610531791 a 98.40949971713215 98.40949971713215 0.0 0 0 -14.319127389250283,-17.57386581967276 z"/><path fill="#ff3ed5" d="M 182.94301603307625,47.0388281293447 l 1.340530038682351 -0.8559616610531785 a 99.99999999999997 99.99999999999997 0.0 0 1 -25.563920932235305,134.76159364772803 l -0.9339358039430365 -1.2874218671111066 a 98.40949971713215 98.40949971713215 0.0 0 0 25.15732669749599,-132.61821011956374 z"/><path fill="#a01a5b" d="M 157.78568933558012,179.65703824890838 l 0.9339358039430422 1.2874218671111213 a 99.99999999999997 99.99999999999997 0.0 0 1 -84.38448528719967,15.706018173537927 l 0.40819967324642903 -1.5372261305885075 a 98.40949971713215 98.40949971713215 0.0 0 0 83.0423498100102,-15.45621391006054 z"/></g></svg>