<?xml version='1.0' encoding='UTF-8'?>
<svg viewBox="-8.526512829121202E-14 -1.7763568394002505E-13 200.0000000000001 200.00000000000023" preserveAspectRatio="xMidYMid meet" xmlns="http://www.w3.org/2000/svg" xmlns:svg="http://www.w3.org/2000/svg"><g transform="translate(0.0, 0.0)"><path fill="#fcf94f" d="M 118.78959642533866,100.0 a 18.78959642533866 18.78959642533866 0.0 1 1 -18.78959642533866,-18.78959642533866 a 18.78959642533866 18.78959642533866 0.0 0 1 18.78959642533866,18.78959642533866 z M 102.32901988962942,100.0 a 2.3290198896294276 2.3290198896294276 0.0 1 0 -2.3290198896294276,2.3290198896294276 a 2.3290198896294276 2.3290198896294276 0.0 0 0 2.3290198896294276,-2.3290198896294276 z"/><path fill="#96730c" d="M 133.56761201022096,100.0 a 33.567612010220955 33.567612010220955 0.0 1 1 -33.567612010220955,-33.567612010220955 a 33.567612010220955 33.567612010220955 0.0 0 1 33.567612010220955,33.567612010220955 z M 118.78959642533866,100.0 a 18.78959642533866 18.78959642533866 0.0 1 0 -18.78959642533866,18.78959642533866 a 18.78959642533866 18.78959642533866 0.0 0 0 18.78959642533866,-18.78959642533866 z"/><path fill="#b49510" d="M 157.6988041482954,100.0 a 57.698804148295416 57.698804148295416 0.0 1 1 -57.698804148295416,-57.698804148295416 a 57.698804148295416 57.698804148295416 0.0 0 1 57.698804148295416,57.698804148295416 z M 133.56761201022096,100.0 a 33.567612010220955 33.567612010220955 0.0 1 0 -33.567612010220955,33.567612010220955 a 33.567612010220955 33.567612010220955 0.0 0 0 33.567612010220955,-33.567612010220955 z"/><path fill="#e3b014" d="M 182.63584121155998,100.0 a 82.63584121155996 82.63584121155996 0.0 1 1 -82.63584121155996,-82.63584121155996 a 82.63584121155996 82.63584121155996 0.0 0 1 82.63584121155996,82.63584121155996 z M 177.27961461113028,100.0 a 77.27961461113027 77.27961461113027 0.0 1 0 -77.27961461113027,77.27961461113027 a 77.27961461113027 77.27961461113027 0.0 0 0 77.27961461113027,-77.27961461113027 z"/><path fill="#ffca59" d="M 191.04631814585036,100.0 a 91.04631814585038 91.04631814585038 0.0 1 1 -91.04631814585038,-91.04631814585038 a 91.04631814585038 91.04631814585038 0.0 0 1 91.04631814585038,91.04631814585038 z M 182.63584121155995,100.0 a 82.63584121155996 82.63584121155996 0.0 1 0 -82.63584121155996,82.63584121155996 a 82.63584121155996 82.63584121155996 0.0 0 0 82.63584121155996,-82.63584121155996 z"/><path fill="#ffd017" d="M 194.11467638908505,100.0 a 94.11467638908503 94.11467638908503 0.0 1 1 -94.11467638908503,-94.11467638908503 a 94.11467638908503 94.11467638908503 0.0 0 1 94.11467638908503,94.11467638908503 z M 191.0463181458504,100.0 a 91.04631814585038 91.04631814585038 0.0 1 0 -91.04631814585038,91.04631814585038 a 91.04631814585038 91.04631814585038 0.0 0 0 91.04631814585038,-91.04631814585038 z"/><path fill="#efaa01" d="M 100.0,100.0 l 0.9994879295047945 2.1036533756927946 a 2.3290198896294276 2.3290198896294276 0.0 0 1 -2.6019065595977526,-0.4135089498461517 l 1.6024186300929584 -1.690144425846643 z"/><path fill="#fcf94f" d="M 100.0,100.0 l -1.60241863009296 1.6901444258466414 a 2.3290198896294276 2.3290198896294276 0.0 0 1 -0.12034070326405133,-0.1228429469917347 l 1.7227593333570113 -1.5673014788549067 z"/><path fill="#96730c" d="M 100.0,100.0 l -1.7227593333570113 1.5673014788549067 a 2.3290198896294276 2.3290198896294276 0.0 0 1 -0.15366131210596468,-0.18767138075984846 l 1.876420645462976 -1.3796300980950582 z"/><path fill="#b49510" d="M 100.0,100.0 l -1.876420645462976 1.3796300980950582 a 2.3290198896294276 2.3290198896294276 0.0 0 1 3.429392861381178,-3.115317553507346 l -1.5529722159182018 1.7356874554122876 z"/><path fill="#ecb12b" d="M 100.0,100.0 l 1.5529722159182018 -1.7356874554122876 a 2.3290198896294276 2.3290198896294276 0.0 0 1 0.7205100511541274,1.230106574051912 l -2.273482267072329 0.5055808813603758 z"/><path fill="#dd9115" d="M 100.0,100.0 l 2.273482267072329 -0.5055808813603758 a 2.3290198896294276 2.3290198896294276 0.0 0 1 0.009359802835207542,0.04409877970339354 l -2.2828420699075367 0.4614821016569823 z"/><path fill="#e3b014" d="M 100.0,100.0 l 2.2828420699075367 -0.4614821016569823 a 2.3290198896294276 2.3290198896294276 0.0 0 1 -1.2833541404027384,2.565135477349775 l -0.9994879295047981 -2.103653375692793 z"/><path fill="#efaa01" d="M 129.9706601221503,149.3042749869208 l 7.661688406213535 12.604126519217703 a 72.44890498003056 72.44890498003056 0.0 0 1 -81.82958638995045,-4.502408803182556 l 8.998254909750187 -11.687466925108723 a 57.698804148295416 57.698804148295416 0.0 0 0 65.16964307398673,3.585749209073576 z"/><path fill="#fcf94f" d="M 64.80101704816356,145.71852577784722 l -8.998254909750191 11.687466925108726 a 72.44890498003056 72.44890498003056 0.0 0 1 -4.11527238091335,-3.417612593215363 l 9.836096179887505 -10.991664409285626 a 57.698804148295416 57.698804148295416 0.0 0 0 3.2774311107760354,2.721810077392263 z"/><path fill="#96730c" d="M 61.52358593738753,142.99671570045496 l -9.83609617988751 10.99166440928562 a 72.44890498003056 72.44890498003056 0.0 0 1 -5.352947208032221,-5.317418444383941 l 10.925919567655669 -9.909074434450112 a 57.698804148295416 57.698804148295416 0.0 0 0 4.263123820264063,4.234828469548432 z"/><path fill="#b49510" d="M 57.26046211712347,138.76188723090652 l -10.92591956765567 9.909074434450112 a 72.44890498003056 72.44890498003056 0.0 0 1 96.1875019566185,-107.32860876978722 l -8.657197016423936 11.942295188328515 a 57.698804148295416 57.698804148295416 0.0 0 0 -76.6043853725389,85.47723914700859 z"/><path fill="#ecb12b" d="M 133.86484748966237,53.28464808389793 l 8.657197016423943 -11.942295188328508 a 72.44890498003056 72.44890498003056 0.0 0 1 26.215632970185503,35.76713535887248 l -13.994520331173554 4.66035140807255 a 57.698804148295416 57.698804148295416 0.0 0 0 -20.878309655435892,-28.485191578616522 z"/><path fill="#dd9115" d="M 154.74315714509825,81.76983966251444 l 13.994520331173558 -4.660351408072549 a 72.44890498003056 72.44890498003056 0.0 0 1 0.4301772947288036,1.3347306373897778 l -14.082101481979386 4.388609392232119 a 57.698804148295416 57.698804148295416 0.0 0 0 -0.3425961439229752,-1.0629886215493478 z"/><path fill="#e3b014" d="M 155.0857532890212,82.83282828406375 l 14.082101481979382 -4.3886093922321185 a 72.44890498003056 72.44890498003056 0.0 0 1 -31.535506242636675,83.46418261430675 l -7.661688406213553 -12.6041265192177 a 57.698804148295416 57.698804148295416 0.0 0 0 25.115093166870846,-66.47144670285694 z"/><path fill="#efaa01" d="M 142.63604060875056,158.5748399401524 l 2.842863284923629 3.9056220865865545 a 77.27961461113027 77.27961461113027 0.0 0 1 -87.38342152264852,2.451427185941419 l 2.6194302069891364 -4.058859560358336 a 72.44890498003056 72.44890498003056 0.0 0 0 81.92112803073576,-2.2981897121696377 z"/><path fill="#fcf94f" d="M 60.714912578014754,160.87302965232197 l -2.6194302069891435 4.058859560358339 a 77.27961461113027 77.27961461113027 0.0 0 1 -4.676826653776523,-3.268957079536957 l 2.9117762761700874 -3.8545187063409756 a 72.44890498003056 72.44890498003056 0.0 0 0 4.384480584595579,3.0646162255195932 z"/><path fill="#96730c" d="M 56.3304319934192,157.80841342680242 l -2.911776276170086 3.8545187063409805 a 77.27961461113027 77.27961461113027 0.0 0 1 -6.160510700959664,-5.178991341781623 l 3.2968666848809534 -3.530782576444139 a 72.44890498003056 72.44890498003056 0.0 0 0 5.775420292248796,4.855255211884781 z"/><path fill="#b49510" d="M 50.55501170117035,152.9531582149176 l -3.2968666848809556 3.530782576444142 a 77.27961461113027 77.27961461113027 0.0 0 1 92.75493095665436,-122.59817969364549 l -2.501197145522312 4.132767641572713 a 72.44890498003056 72.44890498003056 0.0 0 0 -86.9568671262511,114.93462947562864 z"/><path fill="#ecb12b" d="M 137.51187882742147,38.018528739288975 l 2.501197145522317 -4.1327676415727135 a 77.27961461113027 77.27961461113027 0.0 0 1 31.03079351825931,35.70194793034735 l -4.44091635690323 1.901056929970519 a 72.44890498003056 72.44890498003056 0.0 0 0 -29.091074306878397,-33.470237218745154 z"/><path fill="#dd9115" d="M 166.60295313429987,71.48876595803412 l 4.4409163569032195 -1.901056929970515 a 77.27961461113027 77.27961461113027 0.0 0 1 0.575332015459221,1.3807768882217668 l -4.476880070259497 1.814745264909856 a 72.44890498003056 72.44890498003056 0.0 0 0 -0.5393683021029432,-1.294465223161108 z"/><path fill="#e3b014" d="M 167.14232143640282,72.78323118119523 l 4.4768800702595035 -1.8147452649098545 a 77.27961461113027 77.27961461113027 0.0 0 1 -26.140297612988014,91.51197611045349 l -2.842863284923631 -3.905622086586547 a 72.44890498003056 72.44890498003056 0.0 0 0 24.50628082765214,-85.79160875895708 z"/><path fill="#efaa01" d="M 75.33116863600564,9.175878363966504 l -1.5426292821746712 -5.67955358307063 a 100.0 100.0 0.0 0 1 106.79555940422222,37.29047544614529 l -4.742634990850732 3.4848884270161946 a 94.11467638908503 94.11467638908503 0.0 0 0 -100.51029513119681,-35.09581029009085 z"/><path fill="#fcf94f" d="M 175.84146376720247,44.27168865405737 l 4.742634990850738 -3.4848884270161937 a 100.0 100.0 0.0 0 1 4.149432083402339,6.10737381063992 l -4.986842496974091 3.1254497141317614 a 94.11467638908503 94.11467638908503 0.0 0 0 -3.905224577278986,-5.747935097755487 z"/><path fill="#96730c" d="M 179.7466883444814,50.01962375181286 l 4.986842496974097 -3.1254497141317654 a 100.0 100.0 0.0 0 1 5.063647777871745,9.100522736359498 l -5.284854555218757 2.589854500812116 a 94.11467638908503 94.11467638908503 0.0 0 0 -4.765635719627085,-8.564927523039849 z"/><path fill="#b49510" d="M 184.5123240641085,58.58455127485263 l 5.284854555218754 -2.589854500812115 a 100.0 100.0 0.0 0 1 -168.63876929689448,105.51955831720589 l 4.6400827513678 -3.6203129789635824 a 94.11467638908503 94.11467638908503 0.0 0 0 158.71383199030794,-99.3093908374302 z"/><path fill="#ecb12b" d="M 25.798492073800574,157.8939421122829 l -4.640082751367797 3.620312978963591 a 100.0 100.0 0.0 0 1 -21.076459026678226,-57.466620806885444 l 5.8805005708097156 -0.2382163762209899 a 94.11467638908503 94.11467638908503 0.0 0 0 19.836041207236306,54.084524204142845 z"/><path fill="#dd9115" d="M 5.962450866564254,103.80941790814006 l -5.880500570809709 0.23821637622098923 a 100.0 100.0 0.0 0 1 -0.05962551817746142,-1.9347080859993333 l 5.884009725509145 -0.1243525444333895 a 94.11467638908503 94.11467638908503 0.0 0 0 0.05611636347802573,1.8208442542117336 z"/><path fill="#e3b014" d="M 5.906334503086228,101.98857365392833 l -5.884009725509138 0.12435254443338946 a 100.0 100.0 0.0 0 1 73.76621457625362,-98.61660141746576 l 1.542629282174687 5.6795535830706285 a 94.11467638908503 94.11467638908503 0.0 0 0 -69.42483413291916,92.81269528996174 z"/></g></svg>