<?xml version='1.0' encoding='UTF-8'?>
<svg viewBox="5.6843418860808015E-14 0.0 199.99999999999994 199.99999999999997" preserveAspectRatio="xMidYMid meet" xmlns="http://www.w3.org/2000/svg" xmlns:svg="http://www.w3.org/2000/svg"><g transform="translate(0.0, 0.0)"><circle fill="#6b2918" r="0.008049204524302552" cx="100.0" cy="100.0"/><path fill="#c385d9" d="M 100.01959400575403,100.0 a 0.01959400575403065 0.01959400575403065 0.0 1 1 -0.01959400575403065,-0.01959400575403065 a 0.01959400575403065 0.01959400575403065 0.0 0 1 0.01959400575403065,0.01959400575403065 z M 100.0080492045243,100.0 a 0.008049204524302552 0.008049204524302552 0.0 1 0 -0.008049204524302552,0.008049204524302552 a 0.008049204524302552 0.008049204524302552 0.0 0 0 0.008049204524302552,-0.008049204524302552 z"/><path fill="#e04fe1" d="M 100.0356655539941,100.0 a 0.03566555399409395 0.03566555399409395 0.0 1 1 -0.03566555399409395,-0.03566555399409395 a 0.03566555399409395 0.03566555399409395 0.0 0 1 0.03566555399409395,0.03566555399409395 z M 100.01959400575403,100.0 a 0.01959400575403065 0.01959400575403065 0.0 1 0 -0.01959400575403065,0.01959400575403065 a 0.01959400575403065 0.01959400575403065 0.0 0 0 0.01959400575403065,-0.01959400575403065 z"/><path fill="#fefffe" d="M 100.05748024715268,100.0 a 0.05748024715268093 0.05748024715268093 0.0 1 1 -0.05748024715268093,-0.05748024715268093 a 0.05748024715268093 0.05748024715268093 0.0 0 1 0.05748024715268093,0.05748024715268093 z M 100.0356655539941,100.0 a 0.03566555399409395 0.03566555399409395 0.0 1 0 -0.03566555399409395,0.03566555399409395 a 0.03566555399409395 0.03566555399409395 0.0 0 0 0.03566555399409395,-0.03566555399409395 z"/><path fill="#6b2918" d="M 100.08645504269957,100.0 a 0.08645504269957333 0.08645504269957333 0.0 1 1 -0.08645504269957333,-0.08645504269957333 a 0.08645504269957333 0.08645504269957333 0.0 0 1 0.08645504269957333,0.08645504269957333 z M 100.05748024715268,100.0 a 0.05748024715268093 0.05748024715268093 0.0 1 0 -0.05748024715268093,0.05748024715268093 a 0.05748024715268093 0.05748024715268093 0.0 0 0 0.05748024715268093,-0.05748024715268093 z"/><path fill="#c385d9" d="M 100.12422276962447,100.0 a 0.1242227696244606 0.1242227696244606 0.0 1 1 -0.1242227696244606,-0.1242227696244606 a 0.1242227696244606 0.1242227696244606 0.0 0 1 0.1242227696244606,0.1242227696244606 z M 100.08645504269958,100.0 a 0.08645504269957333 0.08645504269957333 0.0 1 0 -0.08645504269957333,0.08645504269957333 a 0.08645504269957333 0.08645504269957333 0.0 0 0 0.08645504269957333,-0.08645504269957333 z"/><path fill="#e04fe1" d="M 100.17264744039525,100.0 a 0.1726474403952544 0.1726474403952544 0.0 1 1 -0.1726474403952544,-0.1726474403952544 a 0.1726474403952544 0.1726474403952544 0.0 0 1 0.1726474403952544,0.1726474403952544 z M 100.12422276962445,100.0 a 0.1242227696244606 0.1242227696244606 0.0 1 0 -0.1242227696244606,0.1242227696244606 a 0.1242227696244606 0.1242227696244606 0.0 0 0 0.1242227696244606,-0.1242227696244606 z"/><path fill="#fefffe" d="M 100.2338395629164,100.0 a 0.2338395629164028 0.2338395629164028 0.0 1 1 -0.2338395629164028,-0.2338395629164028 a 0.2338395629164028 0.2338395629164028 0.0 0 1 0.2338395629164028,0.2338395629164028 z M 100.17264744039525,100.0 a 0.1726474403952544 0.1726474403952544 0.0 1 0 -0.1726474403952544,0.1726474403952544 a 0.1726474403952544 0.1726474403952544 0.0 0 0 0.1726474403952544,-0.1726474403952544 z"/><path fill="#6b2918" d="M 100.31017145248721,100.0 a 0.310171452487205 0.310171452487205 0.0 1 1 -0.310171452487205,-0.310171452487205 a 0.310171452487205 0.310171452487205 0.0 0 1 0.310171452487205,0.310171452487205 z M 100.23383956291642,100.0 a 0.2338395629164028 0.2338395629164028 0.0 1 0 -0.2338395629164028,0.2338395629164028 a 0.2338395629164028 0.2338395629164028 0.0 0 0 0.2338395629164028,-0.2338395629164028 z"/><path fill="#c385d9" d="M 100.40429254376012,100.0 a 0.4042925437601257 0.4042925437601257 0.0 1 1 -0.4042925437601257,-0.4042925437601257 a 0.4042925437601257 0.4042925437601257 0.0 0 1 0.4042925437601257,0.4042925437601257 z M 100.3101714524872,100.0 a 0.310171452487205 0.310171452487205 0.0 1 0 -0.310171452487205,0.310171452487205 a 0.310171452487205 0.310171452487205 0.0 0 0 0.310171452487205,-0.310171452487205 z"/><path fill="#e04fe1" d="M 100.51914470269911,100.0 a 0.5191447026991092 0.5191447026991092 0.0 1 1 -0.5191447026991092,-0.5191447026991092 a 0.5191447026991092 0.5191447026991092 0.0 0 1 0.5191447026991092,0.5191447026991092 z M 100.40429254376012,100.0 a 0.4042925437601257 0.4042925437601257 0.0 1 0 -0.4042925437601257,0.4042925437601257 a 0.4042925437601257 0.4042925437601257 0.0 0 0 0.4042925437601257,-0.4042925437601257 z"/><path fill="#fefffe" d="M 100.65797753853789,100.0 a 0.6579775385378945 0.6579775385378945 0.0 1 1 -0.6579775385378945,-0.6579775385378945 a 0.6579775385378945 0.6579775385378945 0.0 0 1 0.6579775385378945,0.6579775385378945 z M 100.51914470269911,100.0 a 0.5191447026991092 0.5191447026991092 0.0 1 0 -0.5191447026991092,0.5191447026991092 a 0.5191447026991092 0.5191447026991092 0.0 0 0 0.5191447026991092,-0.5191447026991092 z"/><path fill="#6b2918" d="M 100.82436371573833,100.0 a 0.8243637157383292 0.8243637157383292 0.0 1 1 -0.8243637157383292,-0.8243637157383292 a 0.8243637157383292 0.8243637157383292 0.0 0 1 0.8243637157383292,0.8243637157383292 z M 100.65797753853789,100.0 a 0.6579775385378945 0.6579775385378945 0.0 1 0 -0.6579775385378945,0.6579775385378945 a 0.6579775385378945 0.6579775385378945 0.0 0 0 0.6579775385378945,-0.6579775385378945 z"/><path fill="#c385d9" d="M 101.02221426594869,100.0 a 1.0222142659486841 1.0222142659486841 0.0 1 1 -1.0222142659486841,-1.0222142659486841 a 1.0222142659486841 1.0222142659486841 0.0 0 1 1.0222142659486841,1.0222142659486841 z M 100.82436371573833,100.0 a 0.8243637157383292 0.8243637157383292 0.0 1 0 -0.8243637157383292,0.8243637157383292 a 0.8243637157383292 0.8243637157383292 0.0 0 0 0.8243637157383292,-0.8243637157383292 z"/><path fill="#e04fe1" d="M 101.25579389996197,100.0 a 1.2557938999619676 1.2557938999619676 0.0 1 1 -1.2557938999619676,-1.2557938999619676 a 1.2557938999619676 1.2557938999619676 0.0 0 1 1.2557938999619676,1.2557938999619676 z M 101.02221426594869,100.0 a 1.0222142659486841 1.0222142659486841 0.0 1 0 -1.0222142659486841,1.0222142659486841 a 1.0222142659486841 1.0222142659486841 0.0 0 0 1.0222142659486841,-1.0222142659486841 z"/><path fill="#fefffe" d="M 101.52973631967424,100.0 a 1.5297363196742402 1.5297363196742402 0.0 1 1 -1.5297363196742402,-1.5297363196742402 a 1.5297363196742402 1.5297363196742402 0.0 0 1 1.5297363196742402,1.5297363196742402 z M 101.25579389996197,100.0 a 1.2557938999619676 1.2557938999619676 0.0 1 0 -1.2557938999619676,1.2557938999619676 a 1.2557938999619676 1.2557938999619676 0.0 0 0 1.2557938999619676,-1.2557938999619676 z"/><path fill="#6b2918" d="M 101.84905953004292,100.0 a 1.8490595300429284 1.8490595300429284 0.0 1 1 -1.8490595300429284,-1.8490595300429284 a 1.8490595300429284 1.8490595300429284 0.0 0 1 1.8490595300429284,1.8490595300429284 z M 101.52973631967423,100.0 a 1.5297363196742402 1.5297363196742402 0.0 1 0 -1.5297363196742402,1.5297363196742402 a 1.5297363196742402 1.5297363196742402 0.0 0 0 1.5297363196742402,-1.5297363196742402 z"/><path fill="#c385d9" d="M 102.21918115104513,100.0 a 2.2191811510451407 2.2191811510451407 0.0 1 1 -2.2191811510451407,-2.2191811510451407 a 2.2191811510451407 2.2191811510451407 0.0 0 1 2.2191811510451407,2.2191811510451407 z M 101.84905953004292,100.0 a 1.8490595300429284 1.8490595300429284 0.0 1 0 -1.8490595300429284,1.8490595300429284 a 1.8490595300429284 1.8490595300429284 0.0 0 0 1.8490595300429284,-1.8490595300429284 z"/><path fill="#e04fe1" d="M 102.64593372963598,100.0 a 2.6459337296359804 2.6459337296359804 0.0 1 1 -2.6459337296359804,-2.6459337296359804 a 2.6459337296359804 2.6459337296359804 0.0 0 1 2.6459337296359804,2.6459337296359804 z M 102.21918115104515,100.0 a 2.2191811510451407 2.2191811510451407 0.0 1 0 -2.2191811510451407,2.2191811510451407 a 2.2191811510451407 2.2191811510451407 0.0 0 0 2.2191811510451407,-2.2191811510451407 z"/><path fill="#fefffe" d="M 103.13558005170685,100.0 a 3.13558005170686 3.13558005170686 0.0 1 1 -3.13558005170686,-3.13558005170686 a 3.13558005170686 3.13558005170686 0.0 0 1 3.13558005170686,3.13558005170686 z M 102.64593372963597,100.0 a 2.6459337296359804 2.6459337296359804 0.0 1 0 -2.6459337296359804,2.6459337296359804 a 2.6459337296359804 2.6459337296359804 0.0 0 0 2.6459337296359804,-2.6459337296359804 z"/><path fill="#6b2918" d="M 103.69482845404382,100.0 a 3.694828454043817 3.694828454043817 0.0 1 1 -3.694828454043817,-3.694828454043817 a 3.694828454043817 3.694828454043817 0.0 0 1 3.694828454043817,3.694828454043817 z M 103.13558005170685,100.0 a 3.13558005170686 3.13558005170686 0.0 1 0 -3.13558005170686,3.13558005170686 a 3.13558005170686 3.13558005170686 0.0 0 0 3.13558005170686,-3.13558005170686 z"/><path fill="#c385d9" d="M 104.33084813628582,100.0 a 4.330848136285828 4.330848136285828 0.0 1 1 -4.330848136285828,-4.330848136285828 a 4.330848136285828 4.330848136285828 0.0 0 1 4.330848136285828,4.330848136285828 z M 103.69482845404382,100.0 a 3.694828454043817 3.694828454043817 0.0 1 0 -3.694828454043817,3.694828454043817 a 3.694828454043817 3.694828454043817 0.0 0 0 3.694828454043817,-3.694828454043817 z"/><path fill="#e04fe1" d="M 105.05128447288313,100.0 a 5.051284472883122 5.051284472883122 0.0 1 1 -5.051284472883122,-5.051284472883122 a 5.051284472883122 5.051284472883122 0.0 0 1 5.051284472883122,5.051284472883122 z M 104.33084813628584,100.0 a 4.330848136285828 4.330848136285828 0.0 1 0 -4.330848136285828,4.330848136285828 a 4.330848136285828 4.330848136285828 0.0 0 0 4.330848136285828,-4.330848136285828 z"/><path fill="#fefffe" d="M 105.86427432505549,100.0 a 5.8642743250554945 5.8642743250554945 0.0 1 1 -5.8642743250554945,-5.8642743250554945 a 5.8642743250554945 5.8642743250554945 0.0 0 1 5.8642743250554945,5.8642743250554945 z M 105.05128447288311,100.0 a 5.051284472883122 5.051284472883122 0.0 1 0 -5.051284472883122,5.051284472883122 a 5.051284472883122 5.051284472883122 0.0 0 0 5.051284472883122,-5.051284472883122 z"/><path fill="#6b2918" d="M 106.77846135275063,100.0 a 6.778461352750625 6.778461352750625 0.0 1 1 -6.778461352750625,-6.778461352750625 a 6.778461352750625 6.778461352750625 0.0 0 1 6.778461352750625,6.778461352750625 z M 105.86427432505549,100.0 a 5.8642743250554945 5.8642743250554945 0.0 1 0 -5.8642743250554945,5.8642743250554945 a 5.8642743250554945 5.8642743250554945 0.0 0 0 5.8642743250554945,-5.8642743250554945 z"/><path fill="#c385d9" d="M 107.80301132660239,100.0 a 7.803011326602391 7.803011326602391 0.0 1 1 -7.803011326602391,-7.803011326602391 a 7.803011326602391 7.803011326602391 0.0 0 1 7.803011326602391,7.803011326602391 z M 106.77846135275063,100.0 a 6.778461352750625 6.778461352750625 0.0 1 0 -6.778461352750625,6.778461352750625 a 6.778461352750625 6.778461352750625 0.0 0 0 6.778461352750625,-6.778461352750625 z"/><path fill="#e04fe1" d="M 108.94762743988917,100.0 a 8.947627439889173 8.947627439889173 0.0 1 1 -8.947627439889173,-8.947627439889173 a 8.947627439889173 8.947627439889173 0.0 0 1 8.947627439889173,8.947627439889173 z M 107.80301132660239,100.0 a 7.803011326602391 7.803011326602391 0.0 1 0 -7.803011326602391,7.803011326602391 a 7.803011326602391 7.803011326602391 0.0 0 0 7.803011326602391,-7.803011326602391 z"/><path fill="#fefffe" d="M 110.22256562049219,100.0 a 10.222565620492187 10.222565620492187 0.0 1 1 -10.222565620492187,-10.222565620492187 a 10.222565620492187 10.222565620492187 0.0 0 1 10.222565620492187,10.222565620492187 z M 108.94762743988917,100.0 a 8.947627439889173 8.947627439889173 0.0 1 0 -8.947627439889173,8.947627439889173 a 8.947627439889173 8.947627439889173 0.0 0 0 8.947627439889173,-8.947627439889173 z"/><path fill="#6b2918" d="M 111.63864984285378,100.0 a 11.638649842853782 11.638649842853782 0.0 1 1 -11.638649842853782,-11.638649842853782 a 11.638649842853782 11.638649842853782 0.0 0 1 11.638649842853782,11.638649842853782 z M 110.22256562049219,100.0 a 10.222565620492187 10.222565620492187 0.0 1 0 -10.222565620492187,10.222565620492187 a 10.222565620492187 10.222565620492187 0.0 0 0 10.222565620492187,-10.222565620492187 z"/><path fill="#c385d9" d="M 113.20728743993577,100.0 a 13.207287439935763 13.207287439935763 0.0 1 1 -13.207287439935763,-13.207287439935763 a 13.207287439935763 13.207287439935763 0.0 0 1 13.207287439935763,13.207287439935763 z M 111.6386498428538,100.0 a 11.638649842853782 11.638649842853782 0.0 1 0 -11.638649842853782,11.638649842853782 a 11.638649842853782 11.638649842853782 0.0 0 0 11.638649842853782,-11.638649842853782 z"/><path fill="#e04fe1" d="M 114.9404844151777,100.0 a 14.940484415177707 14.940484415177707 0.0 1 1 -14.940484415177707,-14.940484415177707 a 14.940484415177707 14.940484415177707 0.0 0 1 14.940484415177707,14.940484415177707 z M 113.20728743993577,100.0 a 13.207287439935763 13.207287439935763 0.0 1 0 -13.207287439935763,13.207287439935763 a 13.207287439935763 13.207287439935763 0.0 0 0 13.207287439935763,-13.207287439935763 z"/><path fill="#fefffe" d="M 116.85086075445527,100.0 a 16.850860754455265 16.850860754455265 0.0 1 1 -16.850860754455265,-16.850860754455265 a 16.850860754455265 16.850860754455265 0.0 0 1 16.850860754455265,16.850860754455265 z M 114.9404844151777,100.0 a 14.940484415177707 14.940484415177707 0.0 1 0 -14.940484415177707,14.940484415177707 a 14.940484415177707 14.940484415177707 0.0 0 0 14.940484415177707,-14.940484415177707 z"/><path fill="#6b2918" d="M 118.9516657380385,100.0 a 18.951665738038496 18.951665738038496 0.0 1 1 -18.951665738038496,-18.951665738038496 a 18.951665738038496 18.951665738038496 0.0 0 1 18.951665738038496,18.951665738038496 z M 116.85086075445527,100.0 a 16.850860754455265 16.850860754455265 0.0 1 0 -16.850860754455265,16.850860754455265 a 16.850860754455265 16.850860754455265 0.0 0 0 16.850860754455265,-16.850860754455265 z"/><path fill="#c385d9" d="M 121.25679325255017,100.0 a 21.256793252550164 21.256793252550164 0.0 1 1 -21.256793252550164,-21.256793252550164 a 21.256793252550164 21.256793252550164 0.0 0 1 21.256793252550164,21.256793252550164 z M 118.9516657380385,100.0 a 18.951665738038496 18.951665738038496 0.0 1 0 -18.951665738038496,18.951665738038496 a 18.951665738038496 18.951665738038496 0.0 0 0 18.951665738038496,-18.951665738038496 z"/><path fill="#e04fe1" d="M 123.78079710292405,100.0 a 23.780797102924062 23.780797102924062 0.0 1 1 -23.780797102924062,-23.780797102924062 a 23.780797102924062 23.780797102924062 0.0 0 1 23.780797102924062,23.780797102924062 z M 121.25679325255015,100.0 a 21.256793252550164 21.256793252550164 0.0 1 0 -21.256793252550164,21.256793252550164 a 21.256793252550164 21.256793252550164 0.0 0 0 21.256793252550164,-21.256793252550164 z"/><path fill="#fefffe" d="M 126.53890632436332,100.0 a 26.538906324363325 26.538906324363325 0.0 1 1 -26.538906324363325,-26.538906324363325 a 26.538906324363325 26.538906324363325 0.0 0 1 26.538906324363325,26.538906324363325 z M 123.78079710292405,100.0 a 23.780797102924062 23.780797102924062 0.0 1 0 -23.780797102924062,23.780797102924062 a 23.780797102924062 23.780797102924062 0.0 0 0 23.780797102924062,-23.780797102924062 z"/><path fill="#6b2918" d="M 129.54704049429873,100.0 a 29.547040494298738 29.547040494298738 0.0 1 1 -29.547040494298738,-29.547040494298738 a 29.547040494298738 29.547040494298738 0.0 0 1 29.547040494298738,29.547040494298738 z M 126.53890632436331,100.0 a 26.538906324363325 26.538906324363325 0.0 1 0 -26.538906324363325,26.538906324363325 a 26.538906324363325 26.538906324363325 0.0 0 0 26.538906324363325,-26.538906324363325 z"/><path fill="#c385d9" d="M 132.82182504434707,100.0 a 32.821825044347065 32.821825044347065 0.0 1 1 -32.821825044347065,-32.821825044347065 a 32.821825044347065 32.821825044347065 0.0 0 1 32.821825044347065,32.821825044347065 z M 129.54704049429873,100.0 a 29.547040494298738 29.547040494298738 0.0 1 0 -29.547040494298738,29.547040494298738 a 29.547040494298738 29.547040494298738 0.0 0 0 29.547040494298738,-29.547040494298738 z"/><path fill="#e04fe1" d="M 136.38060657226933,100.0 a 36.380606572269336 36.380606572269336 0.0 1 1 -36.380606572269336,-36.380606572269336 a 36.380606572269336 36.380606572269336 0.0 0 1 36.380606572269336,36.380606572269336 z M 132.82182504434707,100.0 a 32.821825044347065 32.821825044347065 0.0 1 0 -32.821825044347065,32.821825044347065 a 32.821825044347065 32.821825044347065 0.0 0 0 32.821825044347065,-32.821825044347065 z"/><path fill="#fefffe" d="M 140.24146815392922,100.0 a 40.24146815392921 40.24146815392921 0.0 1 1 -40.24146815392921,-40.24146815392921 a 40.24146815392921 40.24146815392921 0.0 0 1 40.24146815392921,40.24146815392921 z M 136.38060657226936,100.0 a 36.380606572269336 36.380606572269336 0.0 1 0 -36.380606572269336,36.380606572269336 a 36.380606572269336 36.380606572269336 0.0 0 0 36.380606572269336,-36.380606572269336 z"/><path fill="#6b2918" d="M 144.4232446552512,100.0 a 44.42324465525122 44.42324465525122 0.0 1 1 -44.42324465525122,-44.42324465525122 a 44.42324465525122 44.42324465525122 0.0 0 1 44.42324465525122,44.42324465525122 z M 140.2414681539292,100.0 a 40.24146815392921 40.24146815392921 0.0 1 0 -40.24146815392921,40.24146815392921 a 40.24146815392921 40.24146815392921 0.0 0 0 40.24146815392921,-40.24146815392921 z"/><path fill="#c385d9" d="M 148.94553804417916,100.0 a 48.94553804417917 48.94553804417917 0.0 1 1 -48.94553804417917,-48.94553804417917 a 48.94553804417917 48.94553804417917 0.0 0 1 48.94553804417917,48.94553804417917 z M 144.4232446552512,100.0 a 44.42324465525122 44.42324465525122 0.0 1 0 -44.42324465525122,44.42324465525122 a 44.42324465525122 44.42324465525122 0.0 0 0 44.42324465525122,-44.42324465525122 z"/><path fill="#e04fe1" d="M 153.82873270263437,100.0 a 53.82873270263436 53.82873270263436 0.0 1 1 -53.82873270263436,-53.82873270263436 a 53.82873270263436 53.82873270263436 0.0 0 1 53.82873270263436,53.82873270263436 z M 148.9455380441792,100.0 a 48.94553804417917 48.94553804417917 0.0 1 0 -48.94553804417917,48.94553804417917 a 48.94553804417917 48.94553804417917 0.0 0 0 48.94553804417917,-48.94553804417917 z"/><path fill="#fefffe" d="M 159.094010738474,100.0 a 59.09401073847399 59.09401073847399 0.0 1 1 -59.09401073847399,-59.09401073847399 a 59.09401073847399 59.09401073847399 0.0 0 1 59.09401073847399,59.09401073847399 z M 153.82873270263437,100.0 a 53.82873270263436 53.82873270263436 0.0 1 0 -53.82873270263436,53.82873270263436 a 53.82873270263436 53.82873270263436 0.0 0 0 53.82873270263436,-53.82873270263436 z"/><path fill="#6b2918" d="M 164.7633672974494,100.0 a 64.76336729744942 64.76336729744942 0.0 1 1 -64.76336729744942,-64.76336729744942 a 64.76336729744942 64.76336729744942 0.0 0 1 64.76336729744942,64.76336729744942 z M 159.09401073847397,100.0 a 59.09401073847399 59.09401073847399 0.0 1 0 -59.09401073847399,59.09401073847399 a 59.09401073847399 59.09401073847399 0.0 0 0 59.09401073847399,-59.09401073847399 z"/><path fill="#c385d9" d="M 170.85962587516445,100.0 a 70.85962587516444 70.85962587516444 0.0 1 1 -70.85962587516444,-70.85962587516444 a 70.85962587516444 70.85962587516444 0.0 0 1 70.85962587516444,70.85962587516444 z M 164.76336729744943,100.0 a 64.76336729744942 64.76336729744942 0.0 1 0 -64.76336729744942,64.76336729744942 a 64.76336729744942 64.76336729744942 0.0 0 0 64.76336729744942,-64.76336729744942 z"/><path fill="#e04fe1" d="M 177.4064536290337,100.0 a 77.40645362903372 77.40645362903372 0.0 1 1 -77.40645362903372,-77.40645362903372 a 77.40645362903372 77.40645362903372 0.0 0 1 77.40645362903372,77.40645362903372 z M 170.85962587516443,100.0 a 70.85962587516444 70.85962587516444 0.0 1 0 -70.85962587516444,70.85962587516444 a 70.85962587516444 70.85962587516444 0.0 0 0 70.85962587516444,-70.85962587516444 z"/><path fill="#fefffe" d="M 184.428376690241,100.0 a 84.428376690241 84.428376690241 0.0 1 1 -84.428376690241,-84.428376690241 a 84.428376690241 84.428376690241 0.0 0 1 84.428376690241,84.428376690241 z M 177.40645362903373,100.0 a 77.40645362903372 77.40645362903372 0.0 1 0 -77.40645362903372,77.40645362903372 a 77.40645362903372 77.40645362903372 0.0 0 0 77.40645362903372,-77.40645362903372 z"/><path fill="#6b2918" d="M 191.95079547569745,100.0 a 91.95079547569745 91.95079547569745 0.0 1 1 -91.95079547569745,-91.95079547569745 a 91.95079547569745 91.95079547569745 0.0 0 1 91.95079547569745,91.95079547569745 z M 184.428376690241,100.0 a 84.428376690241 84.428376690241 0.0 1 0 -84.428376690241,84.428376690241 a 84.428376690241 84.428376690241 0.0 0 0 84.428376690241,-84.428376690241 z"/><path fill="#c385d9" d="M 200.0,100.0 a 99.99999999999999 99.99999999999999 0.0 1 1 -99.99999999999999,-99.99999999999999 a 99.99999999999999 99.99999999999999 0.0 0 1 99.99999999999999,99.99999999999999 z M 191.95079547569748,100.0 a 91.95079547569745 91.95079547569745 0.0 1 0 -91.95079547569745,91.95079547569745 a 91.95079547569745 91.95079547569745 0.0 0 0 91.95079547569745,-91.95079547569745 z"/></g></svg>