<?xml version='1.0' encoding='UTF-8'?>
<svg viewBox="5.6843418860808015E-14 0.0 199.99999999999994 199.99999999999997" preserveAspectRatio="xMidYMid meet" xmlns="http://www.w3.org/2000/svg" xmlns:svg="http://www.w3.org/2000/svg"><g transform="translate(0.0, 0.0)"><circle fill="#e52f00" r="0.005757098240867119" cx="100.0" cy="100.0"/><path fill="#a23f00" d="M 100.02095858679402,100.0 a 0.020958586794025878 0.020958586794025878 0.0 1 1 -0.020958586794025878,-0.020958586794025878 a 0.020958586794025878 0.020958586794025878 0.0 0 1 0.020958586794025878,0.020958586794025878 z M 100.00575709824086,100.0 a 0.005757098240867119 0.005757098240867119 0.0 1 0 -0.005757098240867119,0.005757098240867119 a 0.005757098240867119 0.005757098240867119 0.0 0 0 0.005757098240867119,-0.005757098240867119 z"/><path fill="#873800" d="M 100.05010154560618,100.0 a 0.050101545606180325 0.050101545606180325 0.0 1 1 -0.050101545606180325,-0.050101545606180325 a 0.050101545606180325 0.050101545606180325 0.0 0 1 0.050101545606180325,0.050101545606180325 z M 100.02095858679402,100.0 a 0.020958586794025878 0.020958586794025878 0.0 1 0 -0.020958586794025878,0.020958586794025878 a 0.020958586794025878 0.020958586794025878 0.0 0 0 0.020958586794025878,-0.020958586794025878 z"/><path fill="#3a1d0b" d="M 100.09768305462403,100.0 a 0.09768305462403452 0.09768305462403452 0.0 1 1 -0.09768305462403452,-0.09768305462403452 a 0.09768305462403452 0.09768305462403452 0.0 0 1 0.09768305462403452,0.09768305462403452 z M 100.05010154560617,100.0 a 0.050101545606180325 0.050101545606180325 0.0 1 0 -0.050101545606180325,0.050101545606180325 a 0.050101545606180325 0.050101545606180325 0.0 0 0 0.050101545606180325,-0.050101545606180325 z"/><path fill="#e52f00" d="M 100.16820019379429,100.0 a 0.1682001937942925 0.1682001937942925 0.0 1 1 -0.1682001937942925,-0.1682001937942925 a 0.1682001937942925 0.1682001937942925 0.0 0 1 0.1682001937942925,0.1682001937942925 z M 100.09768305462403,100.0 a 0.09768305462403452 0.09768305462403452 0.0 1 0 -0.09768305462403452,0.09768305462403452 a 0.09768305462403452 0.09768305462403452 0.0 0 0 0.09768305462403452,-0.09768305462403452 z"/><path fill="#a23f00" d="M 100.26615004306366,100.0 a 0.2661500430636583 0.2661500430636583 0.0 1 1 -0.2661500430636583,-0.2661500430636583 a 0.2661500430636583 0.2661500430636583 0.0 0 1 0.2661500430636583,0.2661500430636583 z M 100.16820019379429,100.0 a 0.1682001937942925 0.1682001937942925 0.0 1 0 -0.1682001937942925,0.1682001937942925 a 0.1682001937942925 0.1682001937942925 0.0 0 0 0.1682001937942925,-0.1682001937942925 z"/><path fill="#873800" d="M 100.39602968237884,100.0 a 0.396029682378836 0.396029682378836 0.0 1 1 -0.396029682378836,-0.396029682378836 a 0.396029682378836 0.396029682378836 0.0 0 1 0.396029682378836,0.396029682378836 z M 100.26615004306366,100.0 a 0.2661500430636583 0.2661500430636583 0.0 1 0 -0.2661500430636583,0.2661500430636583 a 0.2661500430636583 0.2661500430636583 0.0 0 0 0.2661500430636583,-0.2661500430636583 z"/><path fill="#3a1d0b" d="M 100.56233619168653,100.0 a 0.5623361916865297 0.5623361916865297 0.0 1 1 -0.5623361916865297,-0.5623361916865297 a 0.5623361916865297 0.5623361916865297 0.0 0 1 0.5623361916865297,0.5623361916865297 z M 100.39602968237884,100.0 a 0.396029682378836 0.396029682378836 0.0 1 0 -0.396029682378836,0.396029682378836 a 0.396029682378836 0.396029682378836 0.0 0 0 0.396029682378836,-0.396029682378836 z"/><path fill="#e52f00" d="M 100.76956665093344,100.0 a 0.7695666509334435 0.7695666509334435 0.0 1 1 -0.7695666509334435,-0.7695666509334435 a 0.7695666509334435 0.7695666509334435 0.0 0 1 0.7695666509334435,0.7695666509334435 z M 100.56233619168653,100.0 a 0.5623361916865297 0.5623361916865297 0.0 1 0 -0.5623361916865297,0.5623361916865297 a 0.5623361916865297 0.5623361916865297 0.0 0 0 0.5623361916865297,-0.5623361916865297 z"/><path fill="#a23f00" d="M 101.02221814006629,100.0 a 1.022218140066281 1.022218140066281 0.0 1 1 -1.022218140066281,-1.022218140066281 a 1.022218140066281 1.022218140066281 0.0 0 1 1.022218140066281,1.022218140066281 z M 100.76956665093344,100.0 a 0.7695666509334435 0.7695666509334435 0.0 1 0 -0.7695666509334435,0.7695666509334435 a 0.7695666509334435 0.7695666509334435 0.0 0 0 0.7695666509334435,-0.7695666509334435 z"/><path fill="#873800" d="M 101.32478773903175,100.0 a 1.3247877390317468 1.3247877390317468 0.0 1 1 -1.3247877390317468,-1.3247877390317468 a 1.3247877390317468 1.3247877390317468 0.0 0 1 1.3247877390317468,1.3247877390317468 z M 101.02221814006629,100.0 a 1.022218140066281 1.022218140066281 0.0 1 0 -1.022218140066281,1.022218140066281 a 1.022218140066281 1.022218140066281 0.0 0 0 1.022218140066281,-1.022218140066281 z"/><path fill="#3a1d0b" d="M 101.68177252777654,100.0 a 1.6817725277765445 1.6817725277765445 0.0 1 1 -1.6817725277765445,-1.6817725277765445 a 1.6817725277765445 1.6817725277765445 0.0 0 1 1.6817725277765445,1.6817725277765445 z M 101.32478773903175,100.0 a 1.3247877390317468 1.3247877390317468 0.0 1 0 -1.3247877390317468,1.3247877390317468 a 1.3247877390317468 1.3247877390317468 0.0 0 0 1.3247877390317468,-1.3247877390317468 z"/><path fill="#e52f00" d="M 102.09766958624738,100.0 a 2.0976695862473784 2.0976695862473784 0.0 1 1 -2.0976695862473784,-2.0976695862473784 a 2.0976695862473784 2.0976695862473784 0.0 0 1 2.0976695862473784,2.0976695862473784 z M 101.68177252777654,100.0 a 1.6817725277765445 1.6817725277765445 0.0 1 0 -1.6817725277765445,1.6817725277765445 a 1.6817725277765445 1.6817725277765445 0.0 0 0 1.6817725277765445,-1.6817725277765445 z"/><path fill="#a23f00" d="M 102.57697599439095,100.0 a 2.5769759943909527 2.5769759943909527 0.0 1 1 -2.5769759943909527,-2.5769759943909527 a 2.5769759943909527 2.5769759943909527 0.0 0 1 2.5769759943909527,2.5769759943909527 z M 102.09766958624738,100.0 a 2.0976695862473784 2.0976695862473784 0.0 1 0 -2.0976695862473784,2.0976695862473784 a 2.0976695862473784 2.0976695862473784 0.0 0 0 2.0976695862473784,-2.0976695862473784 z"/><path fill="#873800" d="M 103.12418883215398,100.0 a 3.1241888321539717 3.1241888321539717 0.0 1 1 -3.1241888321539717,-3.1241888321539717 a 3.1241888321539717 3.1241888321539717 0.0 0 1 3.1241888321539717,3.1241888321539717 z M 102.57697599439096,100.0 a 2.5769759943909527 2.5769759943909527 0.0 1 0 -2.5769759943909527,2.5769759943909527 a 2.5769759943909527 2.5769759943909527 0.0 0 0 2.5769759943909527,-2.5769759943909527 z"/><path fill="#3a1d0b" d="M 103.74380517948313,100.0 a 3.7438051794831386 3.7438051794831386 0.0 1 1 -3.7438051794831386,-3.7438051794831386 a 3.7438051794831386 3.7438051794831386 0.0 0 1 3.7438051794831386,3.7438051794831386 z M 103.12418883215396,100.0 a 3.1241888321539717 3.1241888321539717 0.0 1 0 -3.1241888321539717,3.1241888321539717 a 3.1241888321539717 3.1241888321539717 0.0 0 0 3.1241888321539717,-3.1241888321539717 z"/><path fill="#e52f00" d="M 104.44032211632516,100.0 a 4.440322116325158 4.440322116325158 0.0 1 1 -4.440322116325158,-4.440322116325158 a 4.440322116325158 4.440322116325158 0.0 0 1 4.440322116325158,4.440322116325158 z M 103.74380517948315,100.0 a 3.7438051794831386 3.7438051794831386 0.0 1 0 -3.7438051794831386,3.7438051794831386 a 3.7438051794831386 3.7438051794831386 0.0 0 0 3.7438051794831386,-3.7438051794831386 z"/><path fill="#a23f00" d="M 105.21823672262673,100.0 a 5.218236722626734 5.218236722626734 0.0 1 1 -5.218236722626734,-5.218236722626734 a 5.218236722626734 5.218236722626734 0.0 0 1 5.218236722626734,5.218236722626734 z M 104.44032211632515,100.0 a 4.440322116325158 4.440322116325158 0.0 1 0 -4.440322116325158,4.440322116325158 a 4.440322116325158 4.440322116325158 0.0 0 0 4.440322116325158,-4.440322116325158 z"/><path fill="#873800" d="M 106.08204607833457,100.0 a 6.082046078334571 6.082046078334571 0.0 1 1 -6.082046078334571,-6.082046078334571 a 6.082046078334571 6.082046078334571 0.0 0 1 6.082046078334571,6.082046078334571 z M 105.21823672262673,100.0 a 5.218236722626734 5.218236722626734 0.0 1 0 -5.218236722626734,5.218236722626734 a 5.218236722626734 5.218236722626734 0.0 0 0 5.218236722626734,-5.218236722626734 z"/><path fill="#3a1d0b" d="M 107.03624726339537,100.0 a 7.036247263395372 7.036247263395372 0.0 1 1 -7.036247263395372,-7.036247263395372 a 7.036247263395372 7.036247263395372 0.0 0 1 7.036247263395372,7.036247263395372 z M 106.08204607833457,100.0 a 6.082046078334571 6.082046078334571 0.0 1 0 -6.082046078334571,6.082046078334571 a 6.082046078334571 6.082046078334571 0.0 0 0 6.082046078334571,-6.082046078334571 z"/><path fill="#e52f00" d="M 108.08533735775585,100.0 a 8.085337357755842 8.085337357755842 0.0 1 1 -8.085337357755842,-8.085337357755842 a 8.085337357755842 8.085337357755842 0.0 0 1 8.085337357755842,8.085337357755842 z M 107.03624726339538,100.0 a 7.036247263395372 7.036247263395372 0.0 1 0 -7.036247263395372,7.036247263395372 a 7.036247263395372 7.036247263395372 0.0 0 0 7.036247263395372,-7.036247263395372 z"/><path fill="#a23f00" d="M 109.23381344136268,100.0 a 9.233813441362681 9.233813441362681 0.0 1 1 -9.233813441362681,-9.233813441362681 a 9.233813441362681 9.233813441362681 0.0 0 1 9.233813441362681,9.233813441362681 z M 108.08533735775585,100.0 a 8.085337357755842 8.085337357755842 0.0 1 0 -8.085337357755842,8.085337357755842 a 8.085337357755842 8.085337357755842 0.0 0 0 8.085337357755842,-8.085337357755842 z"/><path fill="#873800" d="M 110.4861725941626,100.0 a 10.486172594162602 10.486172594162602 0.0 1 1 -10.486172594162602,-10.486172594162602 a 10.486172594162602 10.486172594162602 0.0 0 1 10.486172594162602,10.486172594162602 z M 109.23381344136267,100.0 a 9.233813441362681 9.233813441362681 0.0 1 0 -9.233813441362681,9.233813441362681 a 9.233813441362681 9.233813441362681 0.0 0 0 9.233813441362681,-9.233813441362681 z"/><path fill="#3a1d0b" d="M 111.8469118961023,100.0 a 11.8469118961023 11.8469118961023 0.0 1 1 -11.8469118961023,-11.8469118961023 a 11.8469118961023 11.8469118961023 0.0 0 1 11.8469118961023,11.8469118961023 z M 110.4861725941626,100.0 a 10.486172594162602 10.486172594162602 0.0 1 0 -10.486172594162602,10.486172594162602 a 10.486172594162602 10.486172594162602 0.0 0 0 10.486172594162602,-10.486172594162602 z"/><path fill="#e52f00" d="M 113.3205284271285,100.0 a 13.320528427128487 13.320528427128487 0.0 1 1 -13.320528427128487,-13.320528427128487 a 13.320528427128487 13.320528427128487 0.0 0 1 13.320528427128487,13.320528427128487 z M 111.84691189610231,100.0 a 11.8469118961023 11.8469118961023 0.0 1 0 -11.8469118961023,11.8469118961023 a 11.8469118961023 11.8469118961023 0.0 0 0 11.8469118961023,-11.8469118961023 z"/><path fill="#a23f00" d="M 114.91151926718786,100.0 a 14.91151926718786 14.91151926718786 0.0 1 1 -14.91151926718786,-14.91151926718786 a 14.91151926718786 14.91151926718786 0.0 0 1 14.91151926718786,14.91151926718786 z M 113.32052842712848,100.0 a 13.320528427128487 13.320528427128487 0.0 1 0 -13.320528427128487,13.320528427128487 a 13.320528427128487 13.320528427128487 0.0 0 0 13.320528427128487,-13.320528427128487 z"/><path fill="#873800" d="M 116.62438149622713,100.0 a 16.624381496227127 16.624381496227127 0.0 1 1 -16.624381496227127,-16.624381496227127 a 16.624381496227127 16.624381496227127 0.0 0 1 16.624381496227127,16.624381496227127 z M 114.91151926718786,100.0 a 14.91151926718786 14.91151926718786 0.0 1 0 -14.91151926718786,14.91151926718786 a 14.91151926718786 14.91151926718786 0.0 0 0 14.91151926718786,-14.91151926718786 z"/><path fill="#3a1d0b" d="M 118.46361219419299,100.0 a 18.463612194192986 18.463612194192986 0.0 1 1 -18.463612194192986,-18.463612194192986 a 18.463612194192986 18.463612194192986 0.0 0 1 18.463612194192986,18.463612194192986 z M 116.62438149622713,100.0 a 16.624381496227127 16.624381496227127 0.0 1 0 -16.624381496227127,16.624381496227127 a 16.624381496227127 16.624381496227127 0.0 0 0 16.624381496227127,-16.624381496227127 z"/><path fill="#e52f00" d="M 120.43370844103215,100.0 a 20.433708441032156 20.433708441032156 0.0 1 1 -20.433708441032156,-20.433708441032156 a 20.433708441032156 20.433708441032156 0.0 0 1 20.433708441032156,20.433708441032156 z M 118.46361219419299,100.0 a 18.463612194192986 18.463612194192986 0.0 1 0 -18.463612194192986,18.463612194192986 a 18.463612194192986 18.463612194192986 0.0 0 0 18.463612194192986,-18.463612194192986 z"/><path fill="#a23f00" d="M 122.53916731669132,100.0 a 22.539167316691323 22.539167316691323 0.0 1 1 -22.539167316691323,-22.539167316691323 a 22.539167316691323 22.539167316691323 0.0 0 1 22.539167316691323,22.539167316691323 z M 120.43370844103215,100.0 a 20.433708441032156 20.433708441032156 0.0 1 0 -20.433708441032156,20.433708441032156 a 20.433708441032156 20.433708441032156 0.0 0 0 20.433708441032156,-20.433708441032156 z"/><path fill="#873800" d="M 124.7844859011172,100.0 a 24.7844859011172 24.7844859011172 0.0 1 1 -24.7844859011172,-24.7844859011172 a 24.7844859011172 24.7844859011172 0.0 0 1 24.7844859011172,24.7844859011172 z M 122.53916731669132,100.0 a 22.539167316691323 22.539167316691323 0.0 1 0 -22.539167316691323,22.539167316691323 a 22.539167316691323 22.539167316691323 0.0 0 0 22.539167316691323,-22.539167316691323 z"/><path fill="#3a1d0b" d="M 127.17416127425649,100.0 a 27.17416127425649 27.17416127425649 0.0 1 1 -27.17416127425649,-27.17416127425649 a 27.17416127425649 27.17416127425649 0.0 0 1 27.17416127425649,27.17416127425649 z M 124.7844859011172,100.0 a 24.7844859011172 24.7844859011172 0.0 1 0 -24.7844859011172,24.7844859011172 a 24.7844859011172 24.7844859011172 0.0 0 0 24.7844859011172,-24.7844859011172 z"/><path fill="#e52f00" d="M 129.7126905160559,100.0 a 29.7126905160559 29.7126905160559 0.0 1 1 -29.7126905160559,-29.7126905160559 a 29.7126905160559 29.7126905160559 0.0 0 1 29.7126905160559,29.7126905160559 z M 127.17416127425648,100.0 a 27.17416127425649 27.17416127425649 0.0 1 0 -27.17416127425649,27.17416127425649 a 27.17416127425649 27.17416127425649 0.0 0 0 27.17416127425649,-27.17416127425649 z"/><path fill="#a23f00" d="M 132.40457070646212,100.0 a 32.40457070646213 32.40457070646213 0.0 1 1 -32.40457070646213,-32.40457070646213 a 32.40457070646213 32.40457070646213 0.0 0 1 32.40457070646213,32.40457070646213 z M 129.7126905160559,100.0 a 29.7126905160559 29.7126905160559 0.0 1 0 -29.7126905160559,29.7126905160559 a 29.7126905160559 29.7126905160559 0.0 0 0 29.7126905160559,-29.7126905160559 z"/><path fill="#873800" d="M 135.2542989254219,100.0 a 35.254298925421885 35.254298925421885 0.0 1 1 -35.254298925421885,-35.254298925421885 a 35.254298925421885 35.254298925421885 0.0 0 1 35.254298925421885,35.254298925421885 z M 132.40457070646215,100.0 a 32.40457070646213 32.40457070646213 0.0 1 0 -32.40457070646213,32.40457070646213 a 32.40457070646213 32.40457070646213 0.0 0 0 32.40457070646213,-32.40457070646213 z"/><path fill="#3a1d0b" d="M 138.26637225288187,100.0 a 38.26637225288187 38.26637225288187 0.0 1 1 -38.26637225288187,-38.26637225288187 a 38.26637225288187 38.26637225288187 0.0 0 1 38.26637225288187,38.26637225288187 z M 135.2542989254219,100.0 a 35.254298925421885 35.254298925421885 0.0 1 0 -35.254298925421885,35.254298925421885 a 35.254298925421885 35.254298925421885 0.0 0 0 35.254298925421885,-35.254298925421885 z"/><path fill="#e52f00" d="M 141.44528776878877,100.0 a 41.44528776878879 41.44528776878879 0.0 1 1 -41.44528776878879,-41.44528776878879 a 41.44528776878879 41.44528776878879 0.0 0 1 41.44528776878879,41.44528776878879 z M 138.26637225288187,100.0 a 38.26637225288187 38.26637225288187 0.0 1 0 -38.26637225288187,38.26637225288187 a 38.26637225288187 38.26637225288187 0.0 0 0 38.26637225288187,-38.26637225288187 z"/><path fill="#a23f00" d="M 144.79554255308935,100.0 a 44.79554255308935 44.79554255308935 0.0 1 1 -44.79554255308935,-44.79554255308935 a 44.79554255308935 44.79554255308935 0.0 0 1 44.79554255308935,44.79554255308935 z M 141.44528776878877,100.0 a 41.44528776878879 41.44528776878879 0.0 1 0 -41.44528776878879,41.44528776878879 a 41.44528776878879 41.44528776878879 0.0 0 0 41.44528776878879,-41.44528776878879 z"/><path fill="#873800" d="M 148.32163368573023,100.0 a 48.32163368573024 48.32163368573024 0.0 1 1 -48.32163368573024,-48.32163368573024 a 48.32163368573024 48.32163368573024 0.0 0 1 48.32163368573024,48.32163368573024 z M 144.79554255308935,100.0 a 44.79554255308935 44.79554255308935 0.0 1 0 -44.79554255308935,44.79554255308935 a 44.79554255308935 44.79554255308935 0.0 0 0 44.79554255308935,-44.79554255308935 z"/><path fill="#3a1d0b" d="M 152.0280582466582,100.0 a 52.02805824665818 52.02805824665818 0.0 1 1 -52.02805824665818,-52.02805824665818 a 52.02805824665818 52.02805824665818 0.0 0 1 52.02805824665818,52.02805824665818 z M 148.32163368573026,100.0 a 48.32163368573024 48.32163368573024 0.0 1 0 -48.32163368573024,48.32163368573024 a 48.32163368573024 48.32163368573024 0.0 0 0 48.32163368573024,-48.32163368573024 z"/><path fill="#e52f00" d="M 155.91931331581986,100.0 a 55.91931331581988 55.91931331581988 0.0 1 1 -55.91931331581988,-55.91931331581988 a 55.91931331581988 55.91931331581988 0.0 0 1 55.91931331581988,55.91931331581988 z M 152.02805824665816,100.0 a 52.02805824665818 52.02805824665818 0.0 1 0 -52.02805824665818,52.02805824665818 a 52.02805824665818 52.02805824665818 0.0 0 0 52.02805824665818,-52.02805824665818 z"/><path fill="#a23f00" d="M 159.999895973162,100.0 a 59.99989597316202 59.99989597316202 0.0 1 1 -59.99989597316202,-59.99989597316202 a 59.99989597316202 59.99989597316202 0.0 0 1 59.99989597316202,59.99989597316202 z M 155.91931331581986,100.0 a 55.91931331581988 55.91931331581988 0.0 1 0 -55.91931331581988,55.91931331581988 a 55.91931331581988 55.91931331581988 0.0 0 0 55.91931331581988,-55.91931331581988 z"/><path fill="#873800" d="M 164.2743032986313,100.0 a 64.27430329863132 64.27430329863132 0.0 1 1 -64.27430329863132,-64.27430329863132 a 64.27430329863132 64.27430329863132 0.0 0 1 64.27430329863132,64.27430329863132 z M 159.999895973162,100.0 a 59.99989597316202 59.99989597316202 0.0 1 0 -59.99989597316202,59.99989597316202 a 59.99989597316202 59.99989597316202 0.0 0 0 59.99989597316202,-59.99989597316202 z"/><path fill="#3a1d0b" d="M 168.7470323721745,100.0 a 68.74703237217447 68.74703237217447 0.0 1 1 -68.74703237217447,-68.74703237217447 a 68.74703237217447 68.74703237217447 0.0 0 1 68.74703237217447,68.74703237217447 z M 164.27430329863134,100.0 a 64.27430329863132 64.27430329863132 0.0 1 0 -64.27430329863132,64.27430329863132 a 64.27430329863132 64.27430329863132 0.0 0 0 64.27430329863132,-64.27430329863132 z"/><path fill="#e52f00" d="M 173.42258027373822,100.0 a 73.42258027373822 73.42258027373822 0.0 1 1 -73.42258027373822,-73.42258027373822 a 73.42258027373822 73.42258027373822 0.0 0 1 73.42258027373822,73.42258027373822 z M 168.7470323721745,100.0 a 68.74703237217447 68.74703237217447 0.0 1 0 -68.74703237217447,68.74703237217447 a 68.74703237217447 68.74703237217447 0.0 0 0 68.74703237217447,-68.74703237217447 z"/><path fill="#a23f00" d="M 178.3054440832692,100.0 a 78.30544408326922 78.30544408326922 0.0 1 1 -78.30544408326922,-78.30544408326922 a 78.30544408326922 78.30544408326922 0.0 0 1 78.30544408326922,78.30544408326922 z M 173.42258027373822,100.0 a 73.42258027373822 73.42258027373822 0.0 1 0 -73.42258027373822,73.42258027373822 a 73.42258027373822 73.42258027373822 0.0 0 0 73.42258027373822,-73.42258027373822 z"/><path fill="#873800" d="M 183.40012088071418,100.0 a 83.40012088071418 83.40012088071418 0.0 1 1 -83.40012088071418,-83.40012088071418 a 83.40012088071418 83.40012088071418 0.0 0 1 83.40012088071418,83.40012088071418 z M 178.3054440832692,100.0 a 78.30544408326922 78.30544408326922 0.0 1 0 -78.30544408326922,78.30544408326922 a 78.30544408326922 78.30544408326922 0.0 0 0 78.30544408326922,-78.30544408326922 z"/><path fill="#3a1d0b" d="M 188.71110774601985,100.0 a 88.71110774601985 88.71110774601985 0.0 1 1 -88.71110774601985,-88.71110774601985 a 88.71110774601985 88.71110774601985 0.0 0 1 88.71110774601985,88.71110774601985 z M 183.40012088071418,100.0 a 83.40012088071418 83.40012088071418 0.0 1 0 -83.40012088071418,83.40012088071418 a 83.40012088071418 83.40012088071418 0.0 0 0 83.40012088071418,-83.40012088071418 z"/><path fill="#e52f00" d="M 194.24290175913285,100.0 a 94.24290175913286 94.24290175913286 0.0 1 1 -94.24290175913286,-94.24290175913286 a 94.24290175913286 94.24290175913286 0.0 0 1 94.24290175913286,94.24290175913286 z M 188.71110774601982,100.0 a 88.71110774601985 88.71110774601985 0.0 1 0 -88.71110774601985,88.71110774601985 a 88.71110774601985 88.71110774601985 0.0 0 0 88.71110774601985,-88.71110774601985 z"/><path fill="#a23f00" d="M 200.0,100.0 a 99.99999999999999 99.99999999999999 0.0 1 1 -99.99999999999999,-99.99999999999999 a 99.99999999999999 99.99999999999999 0.0 0 1 99.99999999999999,99.99999999999999 z M 194.24290175913288,100.0 a 94.24290175913286 94.24290175913286 0.0 1 0 -94.24290175913286,94.24290175913286 a 94.24290175913286 94.24290175913286 0.0 0 0 94.24290175913286,-94.24290175913286 z"/></g></svg>