<?xml version='1.0' encoding='UTF-8'?>
<svg preserveAspectRatio="xMidYMid meet" xmlns="http://www.w3.org/2000/svg" xmlns:svg="http://www.w3.org/2000/svg"><g><circle fill="#000000" r="70.0" cx="0.0" cy="0.0"/><path fill="#00000d" d="M 100.0,0.0 a 100.0 100.0 0.0 1 1 -100.0,-100.0 a 100.0 100.0 0.0 0 1 100.0,100.0 z M 70.0,0.0 a 70.0 70.0 0.0 1 0 -70.0,70.0 a 70.0 70.0 0.0 0 0 70.0,-70.0 z"/><circle fill="#000000" r="70.0" cx="0.0" cy="0.0"/><path fill="#f1d900" d="M -21.07435355861554,69.36945741525206 l -1.4534036936976231 4.784100511396694 a 77.5 77.5 0.0 0 1 -34.05863178180361,-21.198571607326663 l 3.6507347763946356 -3.4164507302788465 a 72.5 72.5 0.0 0 0 31.8613006991066,19.830921826208815 z"/><path fill="#74dfb6" d="M -16.43380315752993,-70.61288914765886 l -1.1333657350020658 -4.869854423976473 a 77.5 77.5 0.0 0 1 40.094926144845324,1.3291856449866186 l -1.4534036936976378 4.7841005113967014 a 72.5 72.5 0.0 0 0 -37.50815671614562,-1.2434317324068473 z"/><path fill="#4d0d05" d="M 21.074353558615673,-69.36945741525201 l 1.4534036936976311 -4.784100511396691 a 77.5 77.5 0.0 0 1 34.05863178180348,21.19857160732661 l -3.650734776394632 3.4164507302788465 a 72.5 72.5 0.0 0 0 -31.861300699106476,-19.830921826208765 z"/><path fill="#006e38" d="M 70.61288914765886,-16.433803157529933 l 4.869854423976474 -1.133365735002065 a 77.5 77.5 0.0 0 1 -1.3291856449866337,40.09492614484532 l -4.784100511396687 -1.4534036936976307 a 72.5 72.5 0.0 0 0 1.2434317324068473,-37.50815671614562 z"/><path fill="#756913" d="M 69.36945741525201,21.07435355861567 l 4.784100511396691 1.453403693697632 a 77.5 77.5 0.0 0 1 -21.198571607326617,34.058631781803484 l -3.4164507302788465 -3.6507347763946285 a 72.5 72.5 0.0 0 0 19.830921826208773,-31.861300699106486 z"/><path fill="#235980" d="M 49.53853558904324,52.935654257722135 l 3.4164507302788447 3.6507347763946294 a 77.5 77.5 0.0 0 1 -35.3878174267901,18.896354537518583 l -1.1333657350020623 -4.869854423976477 a 72.5 72.5 0.0 0 0 33.10473243151332,-17.677234889936734 z"/><path fill="#6cabe3" d="M 27.91185066579285,77.63490576029882 l 1.6916273130783552 4.7051458036544735 a 87.5 87.5 0.0 0 1 -45.13613979077215,3.770263828786484 l 0.8875806749657684 -4.920589451013711 a 82.5 82.5 0.0 0 0 42.55693180272802,-3.554820181427246 z"/><path fill="#265b7a" d="M -53.27787527593313,62.98982462336368 l -3.2289621379353406 3.8175651286887087 a 87.5 87.5 0.0 0 1 -25.833214150084892,-37.20391177318134 l 4.705145803654489 -1.6916273130783424 a 82.5 82.5 0.0 0 0 24.357030484365744,35.077973957570975 z"/><path fill="#822e04" d="M -77.63490576029885,27.911850665792787 l -4.705145803654476 1.6916273130783501 a 87.5 87.5 0.0 0 1 -3.7702638287864385,-45.136139790772056 l 4.920589451013711 0.8875806749657684 a 82.5 82.5 0.0 0 0 3.5548201814272034,42.55693180272794 z"/><path fill="#00e06c" d="M -62.98982462336358,-53.27787527593325 l -3.8175651286887033 -3.228962137935346 a 87.5 87.5 0.0 0 1 37.20391177318118,-25.833214150084764 l 1.6916273130783495 4.705145803654474 a 82.5 82.5 0.0 0 0 -35.077973957570826,24.357030484365637 z"/><path fill="#e59d08" d="M 14.645081136935165,-81.18972594172607 l 0.8875806749657669 -4.920589451013701 a 87.5 87.5 0.0 0 1 40.974175601967666,19.30292564068748 l -3.2289621379353477 3.817565128688699 a 82.5 82.5 0.0 0 0 -38.63279413899809,-18.19990131836248 z"/><path fill="#ffca57" d="M 19.464373181610394,-90.42891228278158 l 1.0521282800870477 -4.888049312582789 a 97.5 97.5 0.0 0 1 44.909790798595395,23.028302173081904 l -3.355194474886815 3.707110739604232 a 92.5 92.5 0.0 0 0 -42.60672460379563,-21.84736360010335 z"/><path fill="#00ad5c" d="M 90.42891228278155,19.464373181610547 l 4.888049312582788 1.052128280087052 a 97.5 97.5 0.0 0 1 -23.028302173081848,44.90979079859526 l -3.707110739604232 -3.355194474886815 a 92.5 92.5 0.0 0 0 21.847363600103293,-42.6067246037955 z"/><path fill="#03141a" d="M 28.35781449737561,88.04592186428872 l 1.5328548376959794 4.7592390196912815 a 97.5 97.5 0.0 0 1 -50.40717079676904,2.511800711384393 l 1.0521282800870466 -4.888049312582794 a 92.5 92.5 0.0 0 0 47.82218767898601,-2.3829904184928807 z"/><path fill="#843e00" d="M -88.04592186428873,28.357814497375536 l -4.759239019691283 1.5328548376959743 a 97.5 97.5 0.0 0 1 -2.5118007113843204,-50.407170796769016 l 4.88804931258278 1.0521282800870466 a 92.5 92.5 0.0 0 0 2.382990418492824,47.822187678986 z"/><path fill="#143b21" d="M -90.42891228278157,-19.46437318161048 l -4.888049312582787 -1.0521282800870524 a 97.5 97.5 0.0 0 1 23.02830217308182,-44.90979079859523 l 3.707110739604232 3.355194474886808 a 92.5 92.5 0.0 0 0 -21.847363600103265,42.60672460379548 z"/></g></svg>