<?xml version='1.0' encoding='UTF-8'?>
<svg preserveAspectRatio="xMidYMid meet" xmlns="http://www.w3.org/2000/svg" xmlns:svg="http://www.w3.org/2000/svg"><g><path fill="#800000" d="M 0.0,0.0 l 5.0 0.0 a 25.0 25.0 0.0 1 1 -50.0,3.061616997868383E-15 l 5.0 -6.123233995736765E-16 a 20.0 20.0 0.0 1 0 40.0,-2.4492935982947065E-15 z"/><path fill="#807f00" d="M 5.0,0.0 l -5.0 6.123233995736766E-16 a 27.41638952845271 27.41638952845271 0.0 1 1 41.89343428506419,23.282473878239816 l -2.640217221452005 -4.246086789450757 a 22.41638952845271 22.41638952845271 0.0 1 0 -34.25321706361218,-19.03638708878906 z"/><path fill="#008000" d="M 39.27297434665937,25.16961115496624 l -3.190219789595297 -3.8499997005291493 a 28.82225184194182 28.82225184194182 0.0 0 1 3.1704625065481147,-2.283224365648032 l 2.6402172214520103 4.246086789450757 a 23.82225184194182 23.82225184194182 0.0 0 0 -2.620459938404828,1.887137276726424 z"/><path fill="#008080" d="M 36.08275455706407,21.31961145443709 l 3.190219789595297 3.8499997005291493 a 24.769410375160497 24.769410375160497 0.0 0 1 -1.6781796241514706,1.2741931102136559 l -2.851459278397501 -4.107210730366877 a 19.769410375160497 19.769410375160497 0.0 0 0 1.3394191129536743,-1.0169820803759286 z"/><path fill="#000080" d="M 36.80942024332712,27.010844861520777 l -3.001264313126203 -3.9990514528766825 a 31.213220423569158 31.213220423569158 0.0 0 1 0.9351795139094818,-0.6751998738310752 l 2.851459278397499 4.107210730366873 a 26.213220423569158 26.213220423569158 0.0 0 0 -0.7853744791807777,0.5670405963408847 z"/><path fill="#7f0080" d="M 33.80815593020091,23.011793408644095 l 3.0012643131262022 3.9990514528766825 a 27.567737691212454 27.567737691212454 0.0 0 1 -0.5464267454834255,0.39969634735448434 l -2.902158113044793 -4.07154495086181 a 22.567737691212454 22.567737691212454 0.0 0 0 0.4473205454020164,-0.32720284936935684 z"/></g></svg>