<?xml version='1.0' encoding='UTF-8'?>
<svg xmlns="http://www.w3.org/2000/svg" xmlns:svg="http://www.w3.org/2000/svg"><g><path fill="#ff4928" d="M 100.0,100.0 l -62.5480235817204 31.428406673271684 a 70.0 70.0 0.0 0 1 -3.9033475232891135,-53.43329881716339 l 66.45137110500951 22.004892143891706 z"/><path fill="#f81500" d="M 100.0,100.0 l -66.45137110500951 -22.00489214389169 a 70.0 70.0 0.0 0 1 35.02296443173784,-40.54313143782872 l 31.428406673271674 62.54802358172041 z"/><path fill="#ff4458" d="M 100.0,100.0 l -31.428406673271688 -62.5480235817204 a 70.0 70.0 0.0 0 1 53.43329881716327,-3.903347523289156 l -22.00489214389158 66.45137110500956 z"/><path fill="#76130a" d="M 100.0,100.0 l 22.004892143891567 -66.45137110500956 a 70.0 70.0 0.0 0 1 40.54313143782884,35.022964431737876 l -62.54802358172041 31.428406673271677 z"/><path fill="#4c000a" d="M 100.0,100.0 l 62.54802358172041 -31.428406673271677 a 70.0 70.0 0.0 0 1 3.9033475232891206,53.43329881716333 l -66.45137110500953 -22.004892143891656 z"/><path fill="#fedbdd" d="M 100.0,100.0 l 66.45137110500953 22.00489214389164 a 70.0 70.0 0.0 0 1 -35.02296443173786,40.54313143782878 l -31.428406673271667 -62.548023581720415 z"/><path fill="#84070f" d="M 100.0,100.0 l 31.42840667327168 62.54802358172041 a 70.0 70.0 0.0 0 1 -53.43329881716339,3.9033475232891064 l 22.004892143891713 -66.45137110500951 z"/><path fill="#240107" d="M 100.0,100.0 l -22.004892143891695 66.45137110500951 a 70.0 70.0 0.0 0 1 -40.54313143782871,-35.02296443173785 l 62.54802358172041 -31.42840667327167 z"/><path fill="#000000" d="M 156.94399653634667,59.28905235113611 l 24.404569944148594 -17.447548992370223 a 100.0 100.0 0.0 0 1 9.692452296973013,99.52917345417322 l -27.3123056332405 -12.411203043881741 a 70.0 70.0 0.0 0 0 -6.7847166078811085,-69.67042141792126 z"/><path fill="#fcbbbd" d="M 163.7287131442278,128.9594737690574 l 27.3123056332405 12.41120304388174 a 100.0 100.0 0.0 0 1 -81.34856648049538,58.15849664123411 l -2.9077356890918864 -29.85875203625197 a 70.0 70.0 0.0 0 0 56.94399653634676,-40.71094764886388 z"/><path fill="#000000" d="M 106.78471660788108,169.67042141792126 l 2.9077356890918944 29.85875203625197 a 100.0 100.0 0.0 0 1 -91.04101877746824,-41.370676812939095 l 24.40456994414857 -17.447548992370244 a 70.0 70.0 0.0 0 0 63.728713144227775,28.959473769057368 z"/><path fill="#f23522" d="M 43.05600346365332,140.7109476488639 l -24.404569944148577 17.447548992370248 a 100.0 100.0 0.0 0 1 -9.692452296973066,-99.52917345417329 l 27.3123056332405 12.411203043881741 a 70.0 70.0 0.0 0 0 6.784716607881144,69.6704214179213 z"/><path fill="#ff6b0e" d="M 36.271286855772175,71.04052623094259 l -27.3123056332405 -12.411203043881736 a 100.0 100.0 0.0 0 1 81.34856648049536,-58.158496641234116 l 2.9077356890918864 29.85875203625197 a 70.0 70.0 0.0 0 0 -56.94399653634675,40.71094764886388 z"/><path fill="#000000" d="M 93.21528339211893,30.329578582078724 l -2.907735689091898 -29.85875203625197 a 100.0 100.0 0.0 0 1 91.04101877746824,41.37067681293909 l -24.40456994414857 17.447548992370244 a 70.0 70.0 0.0 0 0 -63.728713144227775,-28.95947376905736 z"/><path fill="#000000" d="M 229.27824666400497,158.74636107437357 l 27.312305633240495 12.411203043881747 a 51.0 51.0 0.0 1 1 -92.86183915301768,-42.19809034919793 l 27.31230563324049 12.411203043881741 a 21.0 21.0 0.0 1 0 38.237227886536694,17.375684261434444 z"/><path fill="#fcbbbd" d="M 113.76328226170159,241.33142630492603 l 2.9077356890918873 29.858752036251975 a 51.0 51.0 0.0 1 1 -9.886301342912422,-101.51975692325671 l 2.907735689091891 29.85875203625197 a 21.0 21.0 0.0 1 0 4.070829964728644,41.802252850752765 z"/><path fill="#000000" d="M -15.514964402303292,182.58506523055246 l -24.40456994414858 17.44754899237024 a 51.0 51.0 0.0 1 1 82.97553781010517,-59.321666574058824 l -24.404569944148577 17.44754899237024 a 21.0 21.0 0.0 1 0 -34.16639792180801,24.42656858931834 z"/><path fill="#f23522" d="M -29.278246664005003,41.253638925626404 l -27.312305633240495 -12.411203043881743 a 51.0 51.0 0.0 1 1 92.86183915301768,42.19809034919793 l -27.31230563324049 -12.411203043881748 a 21.0 21.0 0.0 1 0 -38.237227886536694,-17.375684261434444 z"/><path fill="#ff6b0e" d="M 86.2367177382984,-41.331426304926026 l -2.9077356890918904 -29.85875203625197 a 51.0 51.0 0.0 1 1 9.886301342912422,101.51975692325671 l -2.9077356890918873 -29.85875203625197 a 21.0 21.0 0.0 1 0 -4.070829964728644,-41.802252850752765 z"/><path fill="#000000" d="M 215.5149644023033,17.414934769447505 l 24.404569944148577 -17.447548992370244 a 51.0 51.0 0.0 1 1 -82.97553781010517,59.321666574058824 l 24.404569944148577 -17.44754899237024 a 21.0 21.0 0.0 1 0 34.16639792180801,-24.42656858931834 z"/><path fill="#ffedf1" d="M 256.59055229724544,171.15756411825532 l -7.69392981381962 19.53979129929533 a 21.0 21.0 0.0 0 1 -11.563219062207208,-11.163502313918894 l 19.25714887602683 -8.376288985376437 z"/><path fill="#530610" d="M 256.59055229724544,171.15756411825532 l -19.25714887602683 8.376288985376442 a 21.0 21.0 0.0 0 1 -0.2826424232685163,-16.07021879919603 l 19.539791299295345 7.693929813819589 z"/><path fill="#9a0801" d="M 256.59055229724544,171.15756411825532 l -19.539791299295345 -7.693929813819585 a 21.0 21.0 0.0 0 1 11.163502313918906,-11.563219062207244 l 8.376288985376439 19.25714887602683 z"/><path fill="#190502" d="M 256.59055229724544,171.15756411825532 l -8.376288985376444 -19.257148876026825 a 21.0 21.0 0.0 0 1 16.070218799196066,-0.28264242326850564 l -7.693929813819623 19.53979129929533 z"/><path fill="#460701" d="M 256.59055229724544,171.15756411825532 l 7.693929813819619 -19.539791299295334 a 21.0 21.0 0.0 0 1 11.563219062207224,11.163502313918928 l -19.257148876026843 8.376288985376407 z"/><path fill="#ff7367" d="M 256.59055229724544,171.15756411825532 l 19.257148876026836 -8.376288985376423 a 21.0 21.0 0.0 0 1 0.282642423268495,16.07021879919605 l -19.53979129929533 -7.693929813819627 z"/><path fill="#000000" d="M 256.59055229724544,171.15756411825532 l 19.53979129929533 7.693929813819622 a 21.0 21.0 0.0 0 1 -11.163502313918912,11.563219062207214 l -8.37628898537642 -19.257148876026836 z"/><path fill="#f7001d" d="M 256.59055229724544,171.15756411825532 l 8.376288985376425 19.257148876026836 a 21.0 21.0 0.0 0 1 -16.07021879919605,0.282642423268495 l 7.693929813819625 -19.53979129929533 z"/><path fill="#ff4928" d="M 100.0,100.0 l -62.5480235817204 31.428406673271684 a 70.0 70.0 0.0 0 1 -3.9033475232891135,-53.43329881716339 l 66.45137110500951 22.004892143891706 z"/><path fill="#f81500" d="M 100.0,100.0 l -66.45137110500951 -22.00489214389169 a 70.0 70.0 0.0 0 1 35.02296443173784,-40.54313143782872 l 31.428406673271674 62.54802358172041 z"/><path fill="#ff4458" d="M 100.0,100.0 l -31.428406673271688 -62.5480235817204 a 70.0 70.0 0.0 0 1 53.43329881716327,-3.903347523289156 l -22.00489214389158 66.45137110500956 z"/><path fill="#76130a" d="M 100.0,100.0 l 22.004892143891567 -66.45137110500956 a 70.0 70.0 0.0 0 1 40.54313143782884,35.022964431737876 l -62.54802358172041 31.428406673271677 z"/><path fill="#4c000a" d="M 100.0,100.0 l 62.54802358172041 -31.428406673271677 a 70.0 70.0 0.0 0 1 3.9033475232891206,53.43329881716333 l -66.45137110500953 -22.004892143891656 z"/><path fill="#fedbdd" d="M 100.0,100.0 l 66.45137110500953 22.00489214389164 a 70.0 70.0 0.0 0 1 -35.02296443173786,40.54313143782878 l -31.428406673271667 -62.548023581720415 z"/><path fill="#84070f" d="M 100.0,100.0 l 31.42840667327168 62.54802358172041 a 70.0 70.0 0.0 0 1 -53.43329881716339,3.9033475232891064 l 22.004892143891713 -66.45137110500951 z"/><path fill="#240107" d="M 100.0,100.0 l -22.004892143891695 66.45137110500951 a 70.0 70.0 0.0 0 1 -40.54313143782871,-35.02296443173785 l 62.54802358172041 -31.42840667327167 z"/><path fill="#000000" d="M 156.94399653634667,59.28905235113611 l 24.404569944148594 -17.447548992370223 a 100.0 100.0 0.0 0 1 9.692452296973013,99.52917345417322 l -27.3123056332405 -12.411203043881741 a 70.0 70.0 0.0 0 0 -6.7847166078811085,-69.67042141792126 z"/><path fill="#fcbbbd" d="M 163.7287131442278,128.9594737690574 l 27.3123056332405 12.41120304388174 a 100.0 100.0 0.0 0 1 -81.34856648049538,58.15849664123411 l -2.9077356890918864 -29.85875203625197 a 70.0 70.0 0.0 0 0 56.94399653634676,-40.71094764886388 z"/><path fill="#000000" d="M 106.78471660788108,169.67042141792126 l 2.9077356890918944 29.85875203625197 a 100.0 100.0 0.0 0 1 -91.04101877746824,-41.370676812939095 l 24.40456994414857 -17.447548992370244 a 70.0 70.0 0.0 0 0 63.728713144227775,28.959473769057368 z"/><path fill="#f23522" d="M 43.05600346365332,140.7109476488639 l -24.404569944148577 17.447548992370248 a 100.0 100.0 0.0 0 1 -9.692452296973066,-99.52917345417329 l 27.3123056332405 12.411203043881741 a 70.0 70.0 0.0 0 0 6.784716607881144,69.6704214179213 z"/><path fill="#ff6b0e" d="M 36.271286855772175,71.04052623094259 l -27.3123056332405 -12.411203043881736 a 100.0 100.0 0.0 0 1 81.34856648049536,-58.158496641234116 l 2.9077356890918864 29.85875203625197 a 70.0 70.0 0.0 0 0 -56.94399653634675,40.71094764886388 z"/><path fill="#000000" d="M 93.21528339211893,30.329578582078724 l -2.907735689091898 -29.85875203625197 a 100.0 100.0 0.0 0 1 91.04101877746824,41.37067681293909 l -24.40456994414857 17.447548992370244 a 70.0 70.0 0.0 0 0 -63.728713144227775,-28.95947376905736 z"/><path fill="#000000" d="M 229.27824666400497,158.74636107437357 l 27.312305633240495 12.411203043881747 a 51.0 51.0 0.0 1 1 -92.86183915301768,-42.19809034919793 l 27.31230563324049 12.411203043881741 a 21.0 21.0 0.0 1 0 38.237227886536694,17.375684261434444 z"/><path fill="#fcbbbd" d="M 113.76328226170159,241.33142630492603 l 2.9077356890918873 29.858752036251975 a 51.0 51.0 0.0 1 1 -9.886301342912422,-101.51975692325671 l 2.907735689091891 29.85875203625197 a 21.0 21.0 0.0 1 0 4.070829964728644,41.802252850752765 z"/><path fill="#000000" d="M -15.514964402303292,182.58506523055246 l -24.40456994414858 17.44754899237024 a 51.0 51.0 0.0 1 1 82.97553781010517,-59.321666574058824 l -24.404569944148577 17.44754899237024 a 21.0 21.0 0.0 1 0 -34.16639792180801,24.42656858931834 z"/><path fill="#f23522" d="M -29.278246664005003,41.253638925626404 l -27.312305633240495 -12.411203043881743 a 51.0 51.0 0.0 1 1 92.86183915301768,42.19809034919793 l -27.31230563324049 -12.411203043881748 a 21.0 21.0 0.0 1 0 -38.237227886536694,-17.375684261434444 z"/><path fill="#ff6b0e" d="M 86.2367177382984,-41.331426304926026 l -2.9077356890918904 -29.85875203625197 a 51.0 51.0 0.0 1 1 9.886301342912422,101.51975692325671 l -2.9077356890918873 -29.85875203625197 a 21.0 21.0 0.0 1 0 -4.070829964728644,-41.802252850752765 z"/><path fill="#000000" d="M 215.5149644023033,17.414934769447505 l 24.404569944148577 -17.447548992370244 a 51.0 51.0 0.0 1 1 -82.97553781010517,59.321666574058824 l 24.404569944148577 -17.44754899237024 a 21.0 21.0 0.0 1 0 34.16639792180801,-24.42656858931834 z"/><path fill="#ffd3bf" d="M 244.96714051492202,188.64745544263312 l -4.981462192424316 7.495667710447624 a 30.0 30.0 0.0 0 1 -13.335691864540749,-26.87302220618329 l 8.982169751786538 0.5662389514073638 a 21.0 21.0 0.0 0 0 9.334984305178528,18.811115544328302 z"/><path fill="#ed4200" d="M 235.6321562097435,169.8363398983048 l -8.982169751786541 -0.5662389514073605 a 30.0 30.0 0.0 0 1 16.604873974747715,-24.985559034825446 l 4.000707559362226 8.061906661854994 a 21.0 21.0 0.0 0 0 -11.6234117823234,17.489891324377812 z"/><path fill="#110103" d="M 247.25556799206691,152.346448573927 l -4.00070755936223 -8.061906661854993 a 30.0 30.0 0.0 0 1 29.940565839288485,1.8874631713578989 l -4.981462192424317 7.4956677104476235 a 21.0 21.0 0.0 0 0 -20.95839608750194,-1.3212242199505297 z"/><path fill="#e70011" d="M 268.2139640795688,153.66767279387753 l 4.981462192424315 -7.495667710447624 a 30.0 30.0 0.0 0 1 13.33569186454075,26.873022206183347 l -8.98216975178654 -0.5662389514073816 a 21.0 21.0 0.0 0 0 -9.334984305178526,-18.81111554432834 z"/><path fill="#480101" d="M 277.54894838474735,172.47878833820587 l 8.98216975178654 0.5662389514073775 a 30.0 30.0 0.0 0 1 -16.60487397474771,24.98555903482539 l -4.000707559362228 -8.061906661854994 a 21.0 21.0 0.0 0 0 11.6234117823234,-17.489891324377773 z"/><path fill="#000000" d="M 265.92553660242396,189.96867966258364 l 4.000707559362229 8.061906661854993 a 30.0 30.0 0.0 0 1 -29.94056583928849,-1.8874631713578989 l 4.981462192424317 -7.4956677104476235 a 21.0 21.0 0.0 0 0 20.958396087501942,1.3212242199505297 z"/><path fill="#ffd3bf" d="M 214.0749488054558,168.47736641492713 l -8.982169751786541 -0.5662389514073626 a 15.3 15.3 0.0 1 1 30.539377156074238,1.9252124347850348 l -8.982169751786541 -0.5662389514073638 a 6.3 6.3 0.0 1 0 -12.575037652501157,-0.7927345319703083 z"/><path fill="#ed4200" d="M 237.65386984959756,132.997872585475 l -4.000707559362228 -8.061906661854994 a 15.3 15.3 0.0 1 1 13.602405701831573,27.41048265030698 l -4.000707559362228 -8.061906661854996 a 6.3 6.3 0.0 1 0 -5.600990583107118,-11.286669326596991 z"/><path fill="#110103" d="M 280.16947334138723,135.67807028880324 l 4.981462192424317 -7.4956677104476235 a 15.3 15.3 0.0 1 1 -16.93697145424268,25.48527021552192 l 4.981462192424318 -7.4956677104476235 a 6.3 6.3 0.0 1 0 6.974047069394044,-10.493934794626671 z"/><path fill="#e70011" d="M 299.10615578903503,173.83776182158357 l 8.98216975178654 0.5662389514073797 a 15.3 15.3 0.0 1 1 -30.539377156074234,-1.925212434785089 l 8.98216975178654 0.5662389514073787 a 6.3 6.3 0.0 1 0 12.575037652501155,0.7927345319703307 z"/><path fill="#480101" d="M 275.5272347448933,209.31725565103562 l 4.000707559362226 8.061906661854994 a 15.3 15.3 0.0 1 1 -13.602405701831572,-27.41048265030698 l 4.000707559362228 8.061906661854996 a 6.3 6.3 0.0 1 0 5.600990583107118,11.286669326596991 z"/><path fill="#000000" d="M 233.01163125310364,206.6370579477074 l -4.981462192424318 7.4956677104476235 a 15.3 15.3 0.0 1 1 16.936971454242677,-25.48527021552192 l -4.981462192424316 7.4956677104476235 a 6.3 6.3 0.0 1 0 -6.974047069394044,10.493934794626671 z"/><path fill="#ff4928" d="M 100.0,100.0 l -62.5480235817204 31.428406673271684 a 70.0 70.0 0.0 0 1 -3.9033475232891135,-53.43329881716339 l 66.45137110500951 22.004892143891706 z"/><path fill="#f81500" d="M 100.0,100.0 l -66.45137110500951 -22.00489214389169 a 70.0 70.0 0.0 0 1 35.02296443173784,-40.54313143782872 l 31.428406673271674 62.54802358172041 z"/><path fill="#ff4458" d="M 100.0,100.0 l -31.428406673271688 -62.5480235817204 a 70.0 70.0 0.0 0 1 53.43329881716327,-3.903347523289156 l -22.00489214389158 66.45137110500956 z"/><path fill="#76130a" d="M 100.0,100.0 l 22.004892143891567 -66.45137110500956 a 70.0 70.0 0.0 0 1 40.54313143782884,35.022964431737876 l -62.54802358172041 31.428406673271677 z"/><path fill="#4c000a" d="M 100.0,100.0 l 62.54802358172041 -31.428406673271677 a 70.0 70.0 0.0 0 1 3.9033475232891206,53.43329881716333 l -66.45137110500953 -22.004892143891656 z"/><path fill="#fedbdd" d="M 100.0,100.0 l 66.45137110500953 22.00489214389164 a 70.0 70.0 0.0 0 1 -35.02296443173786,40.54313143782878 l -31.428406673271667 -62.548023581720415 z"/><path fill="#84070f" d="M 100.0,100.0 l 31.42840667327168 62.54802358172041 a 70.0 70.0 0.0 0 1 -53.43329881716339,3.9033475232891064 l 22.004892143891713 -66.45137110500951 z"/><path fill="#240107" d="M 100.0,100.0 l -22.004892143891695 66.45137110500951 a 70.0 70.0 0.0 0 1 -40.54313143782871,-35.02296443173785 l 62.54802358172041 -31.42840667327167 z"/><path fill="#000000" d="M 156.94399653634667,59.28905235113611 l 24.404569944148594 -17.447548992370223 a 100.0 100.0 0.0 0 1 9.692452296973013,99.52917345417322 l -27.3123056332405 -12.411203043881741 a 70.0 70.0 0.0 0 0 -6.7847166078811085,-69.67042141792126 z"/><path fill="#fcbbbd" d="M 163.7287131442278,128.9594737690574 l 27.3123056332405 12.41120304388174 a 100.0 100.0 0.0 0 1 -81.34856648049538,58.15849664123411 l -2.9077356890918864 -29.85875203625197 a 70.0 70.0 0.0 0 0 56.94399653634676,-40.71094764886388 z"/><path fill="#000000" d="M 106.78471660788108,169.67042141792126 l 2.9077356890918944 29.85875203625197 a 100.0 100.0 0.0 0 1 -91.04101877746824,-41.370676812939095 l 24.40456994414857 -17.447548992370244 a 70.0 70.0 0.0 0 0 63.728713144227775,28.959473769057368 z"/><path fill="#f23522" d="M 43.05600346365332,140.7109476488639 l -24.404569944148577 17.447548992370248 a 100.0 100.0 0.0 0 1 -9.692452296973066,-99.52917345417329 l 27.3123056332405 12.411203043881741 a 70.0 70.0 0.0 0 0 6.784716607881144,69.6704214179213 z"/><path fill="#ff6b0e" d="M 36.271286855772175,71.04052623094259 l -27.3123056332405 -12.411203043881736 a 100.0 100.0 0.0 0 1 81.34856648049536,-58.158496641234116 l 2.9077356890918864 29.85875203625197 a 70.0 70.0 0.0 0 0 -56.94399653634675,40.71094764886388 z"/><path fill="#000000" d="M 93.21528339211893,30.329578582078724 l -2.907735689091898 -29.85875203625197 a 100.0 100.0 0.0 0 1 91.04101877746824,41.37067681293909 l -24.40456994414857 17.447548992370244 a 70.0 70.0 0.0 0 0 -63.728713144227775,-28.95947376905736 z"/><path fill="#000000" d="M 229.27824666400497,158.74636107437357 l 27.312305633240495 12.411203043881747 a 51.0 51.0 0.0 1 1 -92.86183915301768,-42.19809034919793 l 27.31230563324049 12.411203043881741 a 21.0 21.0 0.0 1 0 38.237227886536694,17.375684261434444 z"/><path fill="#fcbbbd" d="M 113.76328226170159,241.33142630492603 l 2.9077356890918873 29.858752036251975 a 51.0 51.0 0.0 1 1 -9.886301342912422,-101.51975692325671 l 2.907735689091891 29.85875203625197 a 21.0 21.0 0.0 1 0 4.070829964728644,41.802252850752765 z"/><path fill="#000000" d="M -15.514964402303292,182.58506523055246 l -24.40456994414858 17.44754899237024 a 51.0 51.0 0.0 1 1 82.97553781010517,-59.321666574058824 l -24.404569944148577 17.44754899237024 a 21.0 21.0 0.0 1 0 -34.16639792180801,24.42656858931834 z"/><path fill="#f23522" d="M -29.278246664005003,41.253638925626404 l -27.312305633240495 -12.411203043881743 a 51.0 51.0 0.0 1 1 92.86183915301768,42.19809034919793 l -27.31230563324049 -12.411203043881748 a 21.0 21.0 0.0 1 0 -38.237227886536694,-17.375684261434444 z"/><path fill="#ff6b0e" d="M 86.2367177382984,-41.331426304926026 l -2.9077356890918904 -29.85875203625197 a 51.0 51.0 0.0 1 1 9.886301342912422,101.51975692325671 l -2.9077356890918873 -29.85875203625197 a 21.0 21.0 0.0 1 0 -4.070829964728644,-41.802252850752765 z"/><path fill="#000000" d="M 215.5149644023033,17.414934769447505 l 24.404569944148577 -17.447548992370244 a 51.0 51.0 0.0 1 1 -82.97553781010517,59.321666574058824 l 24.404569944148577 -17.44754899237024 a 21.0 21.0 0.0 1 0 34.16639792180801,-24.42656858931834 z"/><path fill="#ff1238" d="M 116.67101795079348,271.190178341178 l 20.859851738532566 2.422103516871215 a 21.0 21.0 0.0 0 1 -7.822394941185621,14.04072492350658 l -13.037456797346945 -16.462828440377795 z"/><path fill="#bf0006" d="M 116.67101795079348,271.190178341178 l 13.03745679734695 16.46282844037779 a 21.0 21.0 0.0 0 1 -15.45956031421817,4.3970232981547746 l 2.422103516871219 -20.859851738532566 z"/><path fill="#4d0a03" d="M 116.67101795079348,271.190178341178 l -2.4221035168712137 20.859851738532566 a 21.0 21.0 0.0 0 1 -14.040724923506591,-7.822394941185635 l 16.462828440377805 -13.03745679734693 z"/><path fill="#f45259" d="M 116.67101795079348,271.190178341178 l -16.462828440377802 13.037456797346936 a 21.0 21.0 0.0 0 1 -4.397023298154764,-15.459560314218153 l 20.859851738532566 2.4221035168712173 z"/><path fill="#ef3c19" d="M 116.67101795079348,271.190178341178 l -20.859851738532566 -2.4221035168712124 a 21.0 21.0 0.0 0 1 7.822394941185605,-14.040724923506568 l 13.03745679734696 16.46282844037778 z"/><path fill="#ff7321" d="M 116.67101795079348,271.190178341178 l -13.037456797346966 -16.462828440377777 a 21.0 21.0 0.0 0 1 15.459560314218182,-4.397023298154789 l -2.4221035168712164 20.859851738532566 z"/><path fill="#240b00" d="M 116.67101795079348,271.190178341178 l 2.422103516871211 -20.859851738532566 a 21.0 21.0 0.0 0 1 14.04072492350657,7.822394941185605 l -16.46282844037778 13.03745679734696 z"/><path fill="#742c02" d="M 116.67101795079348,271.190178341178 l 16.46282844037778 -13.03745679734696 a 21.0 21.0 0.0 0 1 4.397023298154785,15.459560314218162 l -20.859851738532566 -2.4221035168712013 z"/><path fill="#ff4928" d="M 100.0,100.0 l -62.5480235817204 31.428406673271684 a 70.0 70.0 0.0 0 1 -3.9033475232891135,-53.43329881716339 l 66.45137110500951 22.004892143891706 z"/><path fill="#f81500" d="M 100.0,100.0 l -66.45137110500951 -22.00489214389169 a 70.0 70.0 0.0 0 1 35.02296443173784,-40.54313143782872 l 31.428406673271674 62.54802358172041 z"/><path fill="#ff4458" d="M 100.0,100.0 l -31.428406673271688 -62.5480235817204 a 70.0 70.0 0.0 0 1 53.43329881716327,-3.903347523289156 l -22.00489214389158 66.45137110500956 z"/><path fill="#76130a" d="M 100.0,100.0 l 22.004892143891567 -66.45137110500956 a 70.0 70.0 0.0 0 1 40.54313143782884,35.022964431737876 l -62.54802358172041 31.428406673271677 z"/><path fill="#4c000a" d="M 100.0,100.0 l 62.54802358172041 -31.428406673271677 a 70.0 70.0 0.0 0 1 3.9033475232891206,53.43329881716333 l -66.45137110500953 -22.004892143891656 z"/><path fill="#fedbdd" d="M 100.0,100.0 l 66.45137110500953 22.00489214389164 a 70.0 70.0 0.0 0 1 -35.02296443173786,40.54313143782878 l -31.428406673271667 -62.548023581720415 z"/><path fill="#84070f" d="M 100.0,100.0 l 31.42840667327168 62.54802358172041 a 70.0 70.0 0.0 0 1 -53.43329881716339,3.9033475232891064 l 22.004892143891713 -66.45137110500951 z"/><path fill="#240107" d="M 100.0,100.0 l -22.004892143891695 66.45137110500951 a 70.0 70.0 0.0 0 1 -40.54313143782871,-35.02296443173785 l 62.54802358172041 -31.42840667327167 z"/><path fill="#000000" d="M 156.94399653634667,59.28905235113611 l 24.404569944148594 -17.447548992370223 a 100.0 100.0 0.0 0 1 9.692452296973013,99.52917345417322 l -27.3123056332405 -12.411203043881741 a 70.0 70.0 0.0 0 0 -6.7847166078811085,-69.67042141792126 z"/><path fill="#fcbbbd" d="M 163.7287131442278,128.9594737690574 l 27.3123056332405 12.41120304388174 a 100.0 100.0 0.0 0 1 -81.34856648049538,58.15849664123411 l -2.9077356890918864 -29.85875203625197 a 70.0 70.0 0.0 0 0 56.94399653634676,-40.71094764886388 z"/><path fill="#000000" d="M 106.78471660788108,169.67042141792126 l 2.9077356890918944 29.85875203625197 a 100.0 100.0 0.0 0 1 -91.04101877746824,-41.370676812939095 l 24.40456994414857 -17.447548992370244 a 70.0 70.0 0.0 0 0 63.728713144227775,28.959473769057368 z"/><path fill="#f23522" d="M 43.05600346365332,140.7109476488639 l -24.404569944148577 17.447548992370248 a 100.0 100.0 0.0 0 1 -9.692452296973066,-99.52917345417329 l 27.3123056332405 12.411203043881741 a 70.0 70.0 0.0 0 0 6.784716607881144,69.6704214179213 z"/><path fill="#ff6b0e" d="M 36.271286855772175,71.04052623094259 l -27.3123056332405 -12.411203043881736 a 100.0 100.0 0.0 0 1 81.34856648049536,-58.158496641234116 l 2.9077356890918864 29.85875203625197 a 70.0 70.0 0.0 0 0 -56.94399653634675,40.71094764886388 z"/><path fill="#000000" d="M 93.21528339211893,30.329578582078724 l -2.907735689091898 -29.85875203625197 a 100.0 100.0 0.0 0 1 91.04101877746824,41.37067681293909 l -24.40456994414857 17.447548992370244 a 70.0 70.0 0.0 0 0 -63.728713144227775,-28.95947376905736 z"/><path fill="#000000" d="M 229.27824666400497,158.74636107437357 l 27.312305633240495 12.411203043881747 a 51.0 51.0 0.0 1 1 -92.86183915301768,-42.19809034919793 l 27.31230563324049 12.411203043881741 a 21.0 21.0 0.0 1 0 38.237227886536694,17.375684261434444 z"/><path fill="#fcbbbd" d="M 113.76328226170159,241.33142630492603 l 2.9077356890918873 29.858752036251975 a 51.0 51.0 0.0 1 1 -9.886301342912422,-101.51975692325671 l 2.907735689091891 29.85875203625197 a 21.0 21.0 0.0 1 0 4.070829964728644,41.802252850752765 z"/><path fill="#000000" d="M -15.514964402303292,182.58506523055246 l -24.40456994414858 17.44754899237024 a 51.0 51.0 0.0 1 1 82.97553781010517,-59.321666574058824 l -24.404569944148577 17.44754899237024 a 21.0 21.0 0.0 1 0 -34.16639792180801,24.42656858931834 z"/><path fill="#f23522" d="M -29.278246664005003,41.253638925626404 l -27.312305633240495 -12.411203043881743 a 51.0 51.0 0.0 1 1 92.86183915301768,42.19809034919793 l -27.31230563324049 -12.411203043881748 a 21.0 21.0 0.0 1 0 -38.237227886536694,-17.375684261434444 z"/><path fill="#ff6b0e" d="M 86.2367177382984,-41.331426304926026 l -2.9077356890918904 -29.85875203625197 a 51.0 51.0 0.0 1 1 9.886301342912422,101.51975692325671 l -2.9077356890918873 -29.85875203625197 a 21.0 21.0 0.0 1 0 -4.070829964728644,-41.802252850752765 z"/><path fill="#000000" d="M 215.5149644023033,17.414934769447505 l 24.404569944148577 -17.447548992370244 a 51.0 51.0 0.0 1 1 -82.97553781010517,59.321666574058824 l 24.404569944148577 -17.44754899237024 a 21.0 21.0 0.0 1 0 34.16639792180801,-24.42656858931834 z"/><path fill="#f79197" d="M 103.52122600302545,254.81693884099312 l -5.635625120472022 -7.017102642936378 a 30.0 30.0 0.0 0 1 29.64933903327277,-4.573477330221075 l -3.25917658950981 8.389145842002701 a 21.0 21.0 0.0 0 0 -20.75453732329094,3.201434131154752 z"/><path fill="#e10022" d="M 124.2757633263164,251.61550470983838 l 3.2591765895098095 -8.389145842002701 a 30.0 30.0 0.0 0 1 18.7854170682401,23.39034214312126 l -8.894801709981841 1.3720431990663222 a 21.0 21.0 0.0 0 0 -13.149791947768069,-16.37323950018488 z"/><path fill="#4a0104" d="M 137.42555527408445,267.98874421002324 l 8.89480170998184 -1.3720431990663233 a 30.0 30.0 0.0 0 1 -10.863921965032732,27.963819473342348 l -5.635625120472017 -7.017102642936383 a 21.0 21.0 0.0 0 0 7.60474537552291,-19.574673631339643 z"/><path fill="#5f0018" d="M 129.82080989856155,287.5634178413629 l 5.635625120472021 7.017102642936379 a 30.0 30.0 0.0 0 1 -29.649339033272774,4.5734773302210705 l 3.2591765895098135 -8.389145842002698 a 21.0 21.0 0.0 0 0 20.75453732329094,-3.201434131154752 z"/><path fill="#a4490f" d="M 109.0662725752706,290.76485197251765 l -3.259176589509808 8.389145842002701 a 30.0 30.0 0.0 0 1 -18.785417068240108,-23.390342143121263 l 8.894801709981841 -1.3720431990663222 a 21.0 21.0 0.0 0 0 13.149791947768072,16.373239500184884 z"/><path fill="#000000" d="M 95.91648062750254,274.3916124723328 l -8.89480170998184 1.3720431990663244 a 30.0 30.0 0.0 0 1 10.863921965032732,-27.963819473342348 l 5.635625120472017 7.017102642936379 a 21.0 21.0 0.0 0 0 -7.60474537552291,19.574673631339643 z"/><path fill="#f79197" d="M 132.09778714113992,231.4815546890319 l 3.2591765895098095 -8.389145842002701 a 15.3 15.3 0.0 1 1 -11.081200404333353,28.523095862809182 l 3.25917658950981 -8.389145842002698 a 6.3 6.3 0.0 1 0 4.5628472253137335,-11.744804178803783 z"/><path fill="#e10022" d="M 158.77307937804088,264.69584053226407 l 8.89480170998184 -1.3720431990663233 a 15.3 15.3 0.0 1 1 -30.24232581393826,4.664946876825498 l 8.894801709981841 -1.3720431990663227 a 6.3 6.3 0.0 1 0 12.452722393974575,-1.9208604786928518 z"/><path fill="#4a0104" d="M 143.34631018769437,304.4044641844102 l 5.63562512047202 7.017102642936381 a 15.3 15.3 0.0 1 1 -19.161125409604868,-23.858148985983696 l 5.635625120472019 7.017102642936383 a 6.3 6.3 0.0 1 0 7.8898751686608275,9.82394370011093 z"/><path fill="#5f0018" d="M 101.24424876044706,310.8988019933241 l -3.2591765895098104 8.389145842002701 a 15.3 15.3 0.0 1 1 11.081200404333353,-28.523095862809186 l -3.25917658950981 8.389145842002701 a 6.3 6.3 0.0 1 0 -4.5628472253137335,11.744804178803783 z"/><path fill="#a4490f" d="M 74.56895652354612,277.68451615009195 l -8.89480170998184 1.3720431990663222 a 15.3 15.3 0.0 1 1 30.24232581393826,-4.664946876825498 l -8.894801709981841 1.3720431990663235 a 6.3 6.3 0.0 1 0 -12.452722393974575,1.9208604786928518 z"/><path fill="#000000" d="M 89.9957257138926,237.97589249794584 l -5.63562512047202 -7.01710264293638 a 15.3 15.3 0.0 1 1 19.161125409604868,23.858148985983693 l -5.635625120472019 -7.017102642936383 a 6.3 6.3 0.0 1 0 -7.8898751686608275,-9.82394370011093 z"/><path fill="#ff4928" d="M 100.0,100.0 l -62.5480235817204 31.428406673271684 a 70.0 70.0 0.0 0 1 -3.9033475232891135,-53.43329881716339 l 66.45137110500951 22.004892143891706 z"/><path fill="#f81500" d="M 100.0,100.0 l -66.45137110500951 -22.00489214389169 a 70.0 70.0 0.0 0 1 35.02296443173784,-40.54313143782872 l 31.428406673271674 62.54802358172041 z"/><path fill="#ff4458" d="M 100.0,100.0 l -31.428406673271688 -62.5480235817204 a 70.0 70.0 0.0 0 1 53.43329881716327,-3.903347523289156 l -22.00489214389158 66.45137110500956 z"/><path fill="#76130a" d="M 100.0,100.0 l 22.004892143891567 -66.45137110500956 a 70.0 70.0 0.0 0 1 40.54313143782884,35.022964431737876 l -62.54802358172041 31.428406673271677 z"/><path fill="#4c000a" d="M 100.0,100.0 l 62.54802358172041 -31.428406673271677 a 70.0 70.0 0.0 0 1 3.9033475232891206,53.43329881716333 l -66.45137110500953 -22.004892143891656 z"/><path fill="#fedbdd" d="M 100.0,100.0 l 66.45137110500953 22.00489214389164 a 70.0 70.0 0.0 0 1 -35.02296443173786,40.54313143782878 l -31.428406673271667 -62.548023581720415 z"/><path fill="#84070f" d="M 100.0,100.0 l 31.42840667327168 62.54802358172041 a 70.0 70.0 0.0 0 1 -53.43329881716339,3.9033475232891064 l 22.004892143891713 -66.45137110500951 z"/><path fill="#240107" d="M 100.0,100.0 l -22.004892143891695 66.45137110500951 a 70.0 70.0 0.0 0 1 -40.54313143782871,-35.02296443173785 l 62.54802358172041 -31.42840667327167 z"/><path fill="#000000" d="M 156.94399653634667,59.28905235113611 l 24.404569944148594 -17.447548992370223 a 100.0 100.0 0.0 0 1 9.692452296973013,99.52917345417322 l -27.3123056332405 -12.411203043881741 a 70.0 70.0 0.0 0 0 -6.7847166078811085,-69.67042141792126 z"/><path fill="#fcbbbd" d="M 163.7287131442278,128.9594737690574 l 27.3123056332405 12.41120304388174 a 100.0 100.0 0.0 0 1 -81.34856648049538,58.15849664123411 l -2.9077356890918864 -29.85875203625197 a 70.0 70.0 0.0 0 0 56.94399653634676,-40.71094764886388 z"/><path fill="#000000" d="M 106.78471660788108,169.67042141792126 l 2.9077356890918944 29.85875203625197 a 100.0 100.0 0.0 0 1 -91.04101877746824,-41.370676812939095 l 24.40456994414857 -17.447548992370244 a 70.0 70.0 0.0 0 0 63.728713144227775,28.959473769057368 z"/><path fill="#f23522" d="M 43.05600346365332,140.7109476488639 l -24.404569944148577 17.447548992370248 a 100.0 100.0 0.0 0 1 -9.692452296973066,-99.52917345417329 l 27.3123056332405 12.411203043881741 a 70.0 70.0 0.0 0 0 6.784716607881144,69.6704214179213 z"/><path fill="#ff6b0e" d="M 36.271286855772175,71.04052623094259 l -27.3123056332405 -12.411203043881736 a 100.0 100.0 0.0 0 1 81.34856648049536,-58.158496641234116 l 2.9077356890918864 29.85875203625197 a 70.0 70.0 0.0 0 0 -56.94399653634675,40.71094764886388 z"/><path fill="#000000" d="M 93.21528339211893,30.329578582078724 l -2.907735689091898 -29.85875203625197 a 100.0 100.0 0.0 0 1 91.04101877746824,41.37067681293909 l -24.40456994414857 17.447548992370244 a 70.0 70.0 0.0 0 0 -63.728713144227775,-28.95947376905736 z"/><path fill="#000000" d="M 229.27824666400497,158.74636107437357 l 27.312305633240495 12.411203043881747 a 51.0 51.0 0.0 1 1 -92.86183915301768,-42.19809034919793 l 27.31230563324049 12.411203043881741 a 21.0 21.0 0.0 1 0 38.237227886536694,17.375684261434444 z"/><path fill="#fcbbbd" d="M 113.76328226170159,241.33142630492603 l 2.9077356890918873 29.858752036251975 a 51.0 51.0 0.0 1 1 -9.886301342912422,-101.51975692325671 l 2.907735689091891 29.85875203625197 a 21.0 21.0 0.0 1 0 4.070829964728644,41.802252850752765 z"/><path fill="#000000" d="M -15.514964402303292,182.58506523055246 l -24.40456994414858 17.44754899237024 a 51.0 51.0 0.0 1 1 82.97553781010517,-59.321666574058824 l -24.404569944148577 17.44754899237024 a 21.0 21.0 0.0 1 0 -34.16639792180801,24.42656858931834 z"/><path fill="#f23522" d="M -29.278246664005003,41.253638925626404 l -27.312305633240495 -12.411203043881743 a 51.0 51.0 0.0 1 1 92.86183915301768,42.19809034919793 l -27.31230563324049 -12.411203043881748 a 21.0 21.0 0.0 1 0 -38.237227886536694,-17.375684261434444 z"/><path fill="#ff6b0e" d="M 86.2367177382984,-41.331426304926026 l -2.9077356890918904 -29.85875203625197 a 51.0 51.0 0.0 1 1 9.886301342912422,101.51975692325671 l -2.9077356890918873 -29.85875203625197 a 21.0 21.0 0.0 1 0 -4.070829964728644,-41.802252850752765 z"/><path fill="#000000" d="M 215.5149644023033,17.414934769447505 l 24.404569944148577 -17.447548992370244 a 51.0 51.0 0.0 1 1 -82.97553781010517,59.321666574058824 l 24.404569944148577 -17.44754899237024 a 21.0 21.0 0.0 1 0 34.16639792180801,-24.42656858931834 z"/><path fill="#ff8e8b" d="M -39.91953434645187,200.0326142229227 l -4.7814235605352104 20.44842264661895 a 21.0 21.0 0.0 0 1 -13.058771780837208,-9.370181352005714 l 17.840195341372418 -11.078241294613237 z"/><path fill="#ffa69d" d="M -39.91953434645187,200.0326142229227 l -17.840195341372414 11.07824129461324 a 21.0 21.0 0.0 0 1 -2.608227305246537,-15.859664855148456 l 20.44842264661895 4.781423560535214 z"/><path fill="#f74514" d="M -39.91953434645187,200.0326142229227 l -20.44842264661895 -4.78142356053521 a 21.0 21.0 0.0 0 1 9.370181352005714,-13.058771780837205 l 11.078241294613237 17.840195341372414 z"/><path fill="#ff4805" d="M -39.91953434645187,200.0326142229227 l -11.078241294613237 -17.840195341372414 a 21.0 21.0 0.0 0 1 15.859664855148468,-2.6082273052465297 l -4.781423560535231 20.448422646618944 z"/><path fill="#ff2971" d="M -39.91953434645187,200.0326142229227 l 4.781423560535231 -20.448422646618944 a 21.0 21.0 0.0 0 1 13.058771780837183,9.370181352005705 l -17.840195341372414 11.078241294613239 z"/><path fill="#610a07" d="M -39.91953434645187,200.0326142229227 l 17.840195341372414 -11.078241294613239 a 21.0 21.0 0.0 0 1 2.6082273052465297,15.859664855148473 l -20.448422646618944 -4.781423560535235 z"/><path fill="#f80100" d="M -39.91953434645187,200.0326142229227 l 20.448422646618948 4.78142356053523 a 21.0 21.0 0.0 0 1 -9.370181352005714,13.058771780837187 l -11.078241294613234 -17.840195341372418 z"/><path fill="#611d0c" d="M -39.91953434645187,200.0326142229227 l 11.078241294613239 17.840195341372414 a 21.0 21.0 0.0 0 1 -15.859664855148491,2.608227305246526 l 4.781423560535252 -20.44842264661894 z"/><path fill="#ff4928" d="M 100.0,100.0 l -62.5480235817204 31.428406673271684 a 70.0 70.0 0.0 0 1 -3.9033475232891135,-53.43329881716339 l 66.45137110500951 22.004892143891706 z"/><path fill="#f81500" d="M 100.0,100.0 l -66.45137110500951 -22.00489214389169 a 70.0 70.0 0.0 0 1 35.02296443173784,-40.54313143782872 l 31.428406673271674 62.54802358172041 z"/><path fill="#ff4458" d="M 100.0,100.0 l -31.428406673271688 -62.5480235817204 a 70.0 70.0 0.0 0 1 53.43329881716327,-3.903347523289156 l -22.00489214389158 66.45137110500956 z"/><path fill="#76130a" d="M 100.0,100.0 l 22.004892143891567 -66.45137110500956 a 70.0 70.0 0.0 0 1 40.54313143782884,35.022964431737876 l -62.54802358172041 31.428406673271677 z"/><path fill="#4c000a" d="M 100.0,100.0 l 62.54802358172041 -31.428406673271677 a 70.0 70.0 0.0 0 1 3.9033475232891206,53.43329881716333 l -66.45137110500953 -22.004892143891656 z"/><path fill="#fedbdd" d="M 100.0,100.0 l 66.45137110500953 22.00489214389164 a 70.0 70.0 0.0 0 1 -35.02296443173786,40.54313143782878 l -31.428406673271667 -62.548023581720415 z"/><path fill="#84070f" d="M 100.0,100.0 l 31.42840667327168 62.54802358172041 a 70.0 70.0 0.0 0 1 -53.43329881716339,3.9033475232891064 l 22.004892143891713 -66.45137110500951 z"/><path fill="#240107" d="M 100.0,100.0 l -22.004892143891695 66.45137110500951 a 70.0 70.0 0.0 0 1 -40.54313143782871,-35.02296443173785 l 62.54802358172041 -31.42840667327167 z"/><path fill="#000000" d="M 156.94399653634667,59.28905235113611 l 24.404569944148594 -17.447548992370223 a 100.0 100.0 0.0 0 1 9.692452296973013,99.52917345417322 l -27.3123056332405 -12.411203043881741 a 70.0 70.0 0.0 0 0 -6.7847166078811085,-69.67042141792126 z"/><path fill="#fcbbbd" d="M 163.7287131442278,128.9594737690574 l 27.3123056332405 12.41120304388174 a 100.0 100.0 0.0 0 1 -81.34856648049538,58.15849664123411 l -2.9077356890918864 -29.85875203625197 a 70.0 70.0 0.0 0 0 56.94399653634676,-40.71094764886388 z"/><path fill="#000000" d="M 106.78471660788108,169.67042141792126 l 2.9077356890918944 29.85875203625197 a 100.0 100.0 0.0 0 1 -91.04101877746824,-41.370676812939095 l 24.40456994414857 -17.447548992370244 a 70.0 70.0 0.0 0 0 63.728713144227775,28.959473769057368 z"/><path fill="#f23522" d="M 43.05600346365332,140.7109476488639 l -24.404569944148577 17.447548992370248 a 100.0 100.0 0.0 0 1 -9.692452296973066,-99.52917345417329 l 27.3123056332405 12.411203043881741 a 70.0 70.0 0.0 0 0 6.784716607881144,69.6704214179213 z"/><path fill="#ff6b0e" d="M 36.271286855772175,71.04052623094259 l -27.3123056332405 -12.411203043881736 a 100.0 100.0 0.0 0 1 81.34856648049536,-58.158496641234116 l 2.9077356890918864 29.85875203625197 a 70.0 70.0 0.0 0 0 -56.94399653634675,40.71094764886388 z"/><path fill="#000000" d="M 93.21528339211893,30.329578582078724 l -2.907735689091898 -29.85875203625197 a 100.0 100.0 0.0 0 1 91.04101877746824,41.37067681293909 l -24.40456994414857 17.447548992370244 a 70.0 70.0 0.0 0 0 -63.728713144227775,-28.95947376905736 z"/><path fill="#000000" d="M 229.27824666400497,158.74636107437357 l 27.312305633240495 12.411203043881747 a 51.0 51.0 0.0 1 1 -92.86183915301768,-42.19809034919793 l 27.31230563324049 12.411203043881741 a 21.0 21.0 0.0 1 0 38.237227886536694,17.375684261434444 z"/><path fill="#fcbbbd" d="M 113.76328226170159,241.33142630492603 l 2.9077356890918873 29.858752036251975 a 51.0 51.0 0.0 1 1 -9.886301342912422,-101.51975692325671 l 2.907735689091891 29.85875203625197 a 21.0 21.0 0.0 1 0 4.070829964728644,41.802252850752765 z"/><path fill="#000000" d="M -15.514964402303292,182.58506523055246 l -24.40456994414858 17.44754899237024 a 51.0 51.0 0.0 1 1 82.97553781010517,-59.321666574058824 l -24.404569944148577 17.44754899237024 a 21.0 21.0 0.0 1 0 -34.16639792180801,24.42656858931834 z"/><path fill="#f23522" d="M -29.278246664005003,41.253638925626404 l -27.312305633240495 -12.411203043881743 a 51.0 51.0 0.0 1 1 92.86183915301768,42.19809034919793 l -27.31230563324049 -12.411203043881748 a 21.0 21.0 0.0 1 0 -38.237227886536694,-17.375684261434444 z"/><path fill="#ff6b0e" d="M 86.2367177382984,-41.331426304926026 l -2.9077356890918904 -29.85875203625197 a 51.0 51.0 0.0 1 1 9.886301342912422,101.51975692325671 l -2.9077356890918873 -29.85875203625197 a 21.0 21.0 0.0 1 0 -4.070829964728644,-41.802252850752765 z"/><path fill="#000000" d="M 215.5149644023033,17.414934769447505 l 24.404569944148577 -17.447548992370244 a 51.0 51.0 0.0 1 1 -82.97553781010517,59.321666574058824 l 24.404569944148577 -17.44754899237024 a 21.0 21.0 0.0 1 0 34.16639792180801,-24.42656858931834 z"/><path fill="#8e3708" d="M -46.72746009022728,180.16676042633895 l -2.917682461618034 -8.513937341393024 a 30.0 30.0 0.0 0 1 29.440424182281088,5.767271795863277 l -5.914444793066291 6.783755802634042 a 21.0 21.0 0.0 0 0 -20.60829692759676,-4.037090257104294 z"/><path fill="#2b0106" d="M -26.11916316263052,184.20385068344325 l 5.914444793066291 -6.783755802634041 a 30.0 30.0 0.0 0 1 9.725608205393428,28.379791137976778 l -8.83212725468432 -1.7301815387589947 a 21.0 21.0 0.0 0 0 -6.8079257437753995,-19.865853796583743 z"/><path fill="#000000" d="M -19.31123741885512,204.069704480027 l 8.83212725468432 1.7301815387589896 a 30.0 30.0 0.0 0 1 -19.71481597688765,22.61251934211346 l -2.917682461618025 -8.513937341393026 a 21.0 21.0 0.0 0 0 13.800371183821355,-15.828763539479423 z"/><path fill="#000000" d="M -33.111608602676455,219.89846801950642 l 2.9176824616180275 8.513937341393028 a 30.0 30.0 0.0 0 1 -29.440424182281028,-5.767271795863255 l 5.914444793066281 -6.783755802634051 a 21.0 21.0 0.0 0 0 20.60829692759672,4.037090257104278 z"/><path fill="#fcbfca" d="M -53.719905530273216,215.86137776240213 l -5.91444479306629 6.783755802634044 a 30.0 30.0 0.0 0 1 -9.725608205393439,-28.37979113797677 l 8.832127254684323 1.7301815387589876 a 21.0 21.0 0.0 0 0 6.807925743775405,19.86585379658374 z"/><path fill="#8b000b" d="M -60.527831274048616,195.99552396581836 l -8.83212725468432 -1.7301815387589867 a 30.0 30.0 0.0 0 1 19.71481597688767,-22.612519342113476 l 2.9176824616180195 8.513937341393028 a 21.0 21.0 0.0 0 0 -13.80037118382137,15.828763539479436 z"/><path fill="#8e3708" d="M -11.924495659271422,167.92283675712156 l 5.914444793066291 -6.783755802634041 a 15.3 15.3 0.0 1 1 -20.109112296425394,23.06476972895574 l 5.914444793066293 -6.78375580263404 a 6.3 6.3 0.0 1 0 8.280222710292808,-9.497258123687658 z"/><path fill="#2b0106" d="M 1.8858679923872472,208.22214017304856 l 8.83212725468432 1.7301815387589918 a 15.3 15.3 0.0 1 1 -30.02923266592669,-5.8826172317805705 l 8.832127254684321 1.7301815387589907 a 6.3 6.3 0.0 1 0 12.364978156558047,2.4222541542625877 z"/><path fill="#000000" d="M -26.109170694793214,240.3319176388497 l 2.917682461618025 8.513937341393028 a 15.3 15.3 0.0 1 1 -9.920120369501287,-28.947386960736296 l 2.9176824616180266 8.51393734139303 a 6.3 6.3 0.0 1 0 4.084755446265236,11.919512277950238 z"/><path fill="#000000" d="M -67.91457303363225,232.14239168872388 l -5.91444479306628 6.783755802634052 a 15.3 15.3 0.0 1 1 20.10911229642535,-23.064769728955778 l -5.914444793066279 6.7837558026340545 a 6.3 6.3 0.0 1 0 -8.280222710292792,9.497258123687672 z"/><path fill="#fcbfca" d="M -81.724936685291,191.84308827279682 l -8.83212725468432 -1.7301815387589905 a 15.3 15.3 0.0 1 1 30.02923266592669,5.88261723178057 l -8.832127254684321 -1.7301815387589916 a 6.3 6.3 0.0 1 0 -12.364978156558047,-2.4222541542625877 z"/><path fill="#8b000b" d="M -53.72989799811049,159.73331080699566 l -2.9176824616180186 -8.513937341393031 a 15.3 15.3 0.0 1 1 9.920120369501262,28.947386960736306 l -2.9176824616180177 -8.513937341393031 a 6.3 6.3 0.0 1 0 -4.084755446265225,-11.919512277950243 z"/><path fill="#ff4928" d="M 100.0,100.0 l -62.5480235817204 31.428406673271684 a 70.0 70.0 0.0 0 1 -3.9033475232891135,-53.43329881716339 l 66.45137110500951 22.004892143891706 z"/><path fill="#f81500" d="M 100.0,100.0 l -66.45137110500951 -22.00489214389169 a 70.0 70.0 0.0 0 1 35.02296443173784,-40.54313143782872 l 31.428406673271674 62.54802358172041 z"/><path fill="#ff4458" d="M 100.0,100.0 l -31.428406673271688 -62.5480235817204 a 70.0 70.0 0.0 0 1 53.43329881716327,-3.903347523289156 l -22.00489214389158 66.45137110500956 z"/><path fill="#76130a" d="M 100.0,100.0 l 22.004892143891567 -66.45137110500956 a 70.0 70.0 0.0 0 1 40.54313143782884,35.022964431737876 l -62.54802358172041 31.428406673271677 z"/><path fill="#4c000a" d="M 100.0,100.0 l 62.54802358172041 -31.428406673271677 a 70.0 70.0 0.0 0 1 3.9033475232891206,53.43329881716333 l -66.45137110500953 -22.004892143891656 z"/><path fill="#fedbdd" d="M 100.0,100.0 l 66.45137110500953 22.00489214389164 a 70.0 70.0 0.0 0 1 -35.02296443173786,40.54313143782878 l -31.428406673271667 -62.548023581720415 z"/><path fill="#84070f" d="M 100.0,100.0 l 31.42840667327168 62.54802358172041 a 70.0 70.0 0.0 0 1 -53.43329881716339,3.9033475232891064 l 22.004892143891713 -66.45137110500951 z"/><path fill="#240107" d="M 100.0,100.0 l -22.004892143891695 66.45137110500951 a 70.0 70.0 0.0 0 1 -40.54313143782871,-35.02296443173785 l 62.54802358172041 -31.42840667327167 z"/><path fill="#000000" d="M 156.94399653634667,59.28905235113611 l 24.404569944148594 -17.447548992370223 a 100.0 100.0 0.0 0 1 9.692452296973013,99.52917345417322 l -27.3123056332405 -12.411203043881741 a 70.0 70.0 0.0 0 0 -6.7847166078811085,-69.67042141792126 z"/><path fill="#fcbbbd" d="M 163.7287131442278,128.9594737690574 l 27.3123056332405 12.41120304388174 a 100.0 100.0 0.0 0 1 -81.34856648049538,58.15849664123411 l -2.9077356890918864 -29.85875203625197 a 70.0 70.0 0.0 0 0 56.94399653634676,-40.71094764886388 z"/><path fill="#000000" d="M 106.78471660788108,169.67042141792126 l 2.9077356890918944 29.85875203625197 a 100.0 100.0 0.0 0 1 -91.04101877746824,-41.370676812939095 l 24.40456994414857 -17.447548992370244 a 70.0 70.0 0.0 0 0 63.728713144227775,28.959473769057368 z"/><path fill="#f23522" d="M 43.05600346365332,140.7109476488639 l -24.404569944148577 17.447548992370248 a 100.0 100.0 0.0 0 1 -9.692452296973066,-99.52917345417329 l 27.3123056332405 12.411203043881741 a 70.0 70.0 0.0 0 0 6.784716607881144,69.6704214179213 z"/><path fill="#ff6b0e" d="M 36.271286855772175,71.04052623094259 l -27.3123056332405 -12.411203043881736 a 100.0 100.0 0.0 0 1 81.34856648049536,-58.158496641234116 l 2.9077356890918864 29.85875203625197 a 70.0 70.0 0.0 0 0 -56.94399653634675,40.71094764886388 z"/><path fill="#000000" d="M 93.21528339211893,30.329578582078724 l -2.907735689091898 -29.85875203625197 a 100.0 100.0 0.0 0 1 91.04101877746824,41.37067681293909 l -24.40456994414857 17.447548992370244 a 70.0 70.0 0.0 0 0 -63.728713144227775,-28.95947376905736 z"/><path fill="#000000" d="M 229.27824666400497,158.74636107437357 l 27.312305633240495 12.411203043881747 a 51.0 51.0 0.0 1 1 -92.86183915301768,-42.19809034919793 l 27.31230563324049 12.411203043881741 a 21.0 21.0 0.0 1 0 38.237227886536694,17.375684261434444 z"/><path fill="#fcbbbd" d="M 113.76328226170159,241.33142630492603 l 2.9077356890918873 29.858752036251975 a 51.0 51.0 0.0 1 1 -9.886301342912422,-101.51975692325671 l 2.907735689091891 29.85875203625197 a 21.0 21.0 0.0 1 0 4.070829964728644,41.802252850752765 z"/><path fill="#000000" d="M -15.514964402303292,182.58506523055246 l -24.40456994414858 17.44754899237024 a 51.0 51.0 0.0 1 1 82.97553781010517,-59.321666574058824 l -24.404569944148577 17.44754899237024 a 21.0 21.0 0.0 1 0 -34.16639792180801,24.42656858931834 z"/><path fill="#f23522" d="M -29.278246664005003,41.253638925626404 l -27.312305633240495 -12.411203043881743 a 51.0 51.0 0.0 1 1 92.86183915301768,42.19809034919793 l -27.31230563324049 -12.411203043881748 a 21.0 21.0 0.0 1 0 -38.237227886536694,-17.375684261434444 z"/><path fill="#ff6b0e" d="M 86.2367177382984,-41.331426304926026 l -2.9077356890918904 -29.85875203625197 a 51.0 51.0 0.0 1 1 9.886301342912422,101.51975692325671 l -2.9077356890918873 -29.85875203625197 a 21.0 21.0 0.0 1 0 -4.070829964728644,-41.802252850752765 z"/><path fill="#000000" d="M 215.5149644023033,17.414934769447505 l 24.404569944148577 -17.447548992370244 a 51.0 51.0 0.0 1 1 -82.97553781010517,59.321666574058824 l 24.404569944148577 -17.44754899237024 a 21.0 21.0 0.0 1 0 34.16639792180801,-24.42656858931834 z"/><path fill="#350201" d="M -56.590552297245495,28.842435881744663 l -1.1945759340467081 -20.96599600156874 a 21.0 21.0 0.0 0 1 15.175081137479324,5.29610531092276 l -13.980505203432616 15.66989069064598 z"/><path fill="#65000f" d="M -56.590552297245495,28.842435881744663 l 13.980505203432616 -15.66989069064598 a 21.0 21.0 0.0 0 1 6.985490798136125,14.475314756599271 l -20.96599600156874 1.1945759340467095 z"/><path fill="#490005" d="M -56.590552297245495,28.842435881744663 l 20.96599600156874 -1.1945759340467095 a 21.0 21.0 0.0 0 1 -5.296105310922762,15.175081137479326 l -15.669890690645978 -13.980505203432617 z"/><path fill="#ff749a" d="M -56.590552297245495,28.842435881744663 l 15.66989069064598 13.980505203432616 a 21.0 21.0 0.0 0 1 -14.475314756599275,6.985490798136125 l -1.1945759340467055 -20.96599600156874 z"/><path fill="#720301" d="M -56.590552297245495,28.842435881744663 l 1.1945759340467108 20.96599600156874 a 21.0 21.0 0.0 0 1 -15.175081137479316,-5.296105310922748 l 13.980505203432605 -15.669890690645992 z"/><path fill="#000000" d="M -56.590552297245495,28.842435881744663 l -13.980505203432617 15.669890690645978 a 21.0 21.0 0.0 0 1 -6.985490798136123,-14.475314756599271 l 20.96599600156874 -1.1945759340467068 z"/><path fill="#72000c" d="M -56.590552297245495,28.842435881744663 l -20.96599600156874 1.1945759340467068 a 21.0 21.0 0.0 0 1 5.296105310922762,-15.175081137479324 l 15.669890690645978 13.980505203432617 z"/><path fill="#350b00" d="M -56.590552297245495,28.842435881744663 l -15.669890690645978 -13.980505203432617 a 21.0 21.0 0.0 0 1 14.47531475659927,-6.985490798136123 l 1.1945759340467081 20.96599600156874 z"/><path fill="#ff4928" d="M 100.0,100.0 l -62.5480235817204 31.428406673271684 a 70.0 70.0 0.0 0 1 -3.9033475232891135,-53.43329881716339 l 66.45137110500951 22.004892143891706 z"/><path fill="#f81500" d="M 100.0,100.0 l -66.45137110500951 -22.00489214389169 a 70.0 70.0 0.0 0 1 35.02296443173784,-40.54313143782872 l 31.428406673271674 62.54802358172041 z"/><path fill="#ff4458" d="M 100.0,100.0 l -31.428406673271688 -62.5480235817204 a 70.0 70.0 0.0 0 1 53.43329881716327,-3.903347523289156 l -22.00489214389158 66.45137110500956 z"/><path fill="#76130a" d="M 100.0,100.0 l 22.004892143891567 -66.45137110500956 a 70.0 70.0 0.0 0 1 40.54313143782884,35.022964431737876 l -62.54802358172041 31.428406673271677 z"/><path fill="#4c000a" d="M 100.0,100.0 l 62.54802358172041 -31.428406673271677 a 70.0 70.0 0.0 0 1 3.9033475232891206,53.43329881716333 l -66.45137110500953 -22.004892143891656 z"/><path fill="#fedbdd" d="M 100.0,100.0 l 66.45137110500953 22.00489214389164 a 70.0 70.0 0.0 0 1 -35.02296443173786,40.54313143782878 l -31.428406673271667 -62.548023581720415 z"/><path fill="#84070f" d="M 100.0,100.0 l 31.42840667327168 62.54802358172041 a 70.0 70.0 0.0 0 1 -53.43329881716339,3.9033475232891064 l 22.004892143891713 -66.45137110500951 z"/><path fill="#240107" d="M 100.0,100.0 l -22.004892143891695 66.45137110500951 a 70.0 70.0 0.0 0 1 -40.54313143782871,-35.02296443173785 l 62.54802358172041 -31.42840667327167 z"/><path fill="#000000" d="M 156.94399653634667,59.28905235113611 l 24.404569944148594 -17.447548992370223 a 100.0 100.0 0.0 0 1 9.692452296973013,99.52917345417322 l -27.3123056332405 -12.411203043881741 a 70.0 70.0 0.0 0 0 -6.7847166078811085,-69.67042141792126 z"/><path fill="#fcbbbd" d="M 163.7287131442278,128.9594737690574 l 27.3123056332405 12.41120304388174 a 100.0 100.0 0.0 0 1 -81.34856648049538,58.15849664123411 l -2.9077356890918864 -29.85875203625197 a 70.0 70.0 0.0 0 0 56.94399653634676,-40.71094764886388 z"/><path fill="#000000" d="M 106.78471660788108,169.67042141792126 l 2.9077356890918944 29.85875203625197 a 100.0 100.0 0.0 0 1 -91.04101877746824,-41.370676812939095 l 24.40456994414857 -17.447548992370244 a 70.0 70.0 0.0 0 0 63.728713144227775,28.959473769057368 z"/><path fill="#f23522" d="M 43.05600346365332,140.7109476488639 l -24.404569944148577 17.447548992370248 a 100.0 100.0 0.0 0 1 -9.692452296973066,-99.52917345417329 l 27.3123056332405 12.411203043881741 a 70.0 70.0 0.0 0 0 6.784716607881144,69.6704214179213 z"/><path fill="#ff6b0e" d="M 36.271286855772175,71.04052623094259 l -27.3123056332405 -12.411203043881736 a 100.0 100.0 0.0 0 1 81.34856648049536,-58.158496641234116 l 2.9077356890918864 29.85875203625197 a 70.0 70.0 0.0 0 0 -56.94399653634675,40.71094764886388 z"/><path fill="#000000" d="M 93.21528339211893,30.329578582078724 l -2.907735689091898 -29.85875203625197 a 100.0 100.0 0.0 0 1 91.04101877746824,41.37067681293909 l -24.40456994414857 17.447548992370244 a 70.0 70.0 0.0 0 0 -63.728713144227775,-28.95947376905736 z"/><path fill="#000000" d="M 229.27824666400497,158.74636107437357 l 27.312305633240495 12.411203043881747 a 51.0 51.0 0.0 1 1 -92.86183915301768,-42.19809034919793 l 27.31230563324049 12.411203043881741 a 21.0 21.0 0.0 1 0 38.237227886536694,17.375684261434444 z"/><path fill="#fcbbbd" d="M 113.76328226170159,241.33142630492603 l 2.9077356890918873 29.858752036251975 a 51.0 51.0 0.0 1 1 -9.886301342912422,-101.51975692325671 l 2.907735689091891 29.85875203625197 a 21.0 21.0 0.0 1 0 4.070829964728644,41.802252850752765 z"/><path fill="#000000" d="M -15.514964402303292,182.58506523055246 l -24.40456994414858 17.44754899237024 a 51.0 51.0 0.0 1 1 82.97553781010517,-59.321666574058824 l -24.404569944148577 17.44754899237024 a 21.0 21.0 0.0 1 0 -34.16639792180801,24.42656858931834 z"/><path fill="#f23522" d="M -29.278246664005003,41.253638925626404 l -27.312305633240495 -12.411203043881743 a 51.0 51.0 0.0 1 1 92.86183915301768,42.19809034919793 l -27.31230563324049 -12.411203043881748 a 21.0 21.0 0.0 1 0 -38.237227886536694,-17.375684261434444 z"/><path fill="#ff6b0e" d="M 86.2367177382984,-41.331426304926026 l -2.9077356890918904 -29.85875203625197 a 51.0 51.0 0.0 1 1 9.886301342912422,101.51975692325671 l -2.9077356890918873 -29.85875203625197 a 21.0 21.0 0.0 1 0 -4.070829964728644,-41.802252850752765 z"/><path fill="#000000" d="M 215.5149644023033,17.414934769447505 l 24.404569944148577 -17.447548992370244 a 51.0 51.0 0.0 1 1 -82.97553781010517,59.321666574058824 l 24.404569944148577 -17.44754899237024 a 21.0 21.0 0.0 1 0 34.16639792180801,-24.42656858931834 z"/><path fill="#d65401" d="M -67.90279947169223,46.535176310073496 l -4.848105931905748 7.582603040712359 a 30.0 30.0 0.0 0 1 -13.808912980390526,-26.632948058748624 l 8.990779826022903 0.40728137691223054 a 21.0 21.0 0.0 0 0 9.66623908627337,18.643063641124037 z"/><path fill="#000000" d="M -77.56903855796561,27.89211266894945 l -8.990779826022905 -0.40728137691222893 a 30.0 30.0 0.0 0 1 16.160353106352474,-25.27534346904118 l 4.142673894117165 7.989884417624584 a 21.0 21.0 0.0 0 0 -11.312247174446732,17.692740428328825 z"/><path fill="#280a00" d="M -66.25679138351887,10.199372240620633 l -4.142673894117164 -7.989884417624584 a 30.0 30.0 0.0 0 1 29.969266086743033,1.3576045897074138 l -4.848105931905746 7.58260304071236 a 21.0 21.0 0.0 0 0 -20.978486260720125,-0.9503232127951904 z"/><path fill="#6c001c" d="M -45.27830512279875,11.149695453415827 l 4.848105931905747 -7.582603040712359 a 30.0 30.0 0.0 0 1 13.80891298039053,26.632948058748617 l -8.990779826022905 -0.407281376912227 a 21.0 21.0 0.0 0 0 -9.666239086273372,-18.64306364112403 z"/><path fill="#ff807d" d="M -35.61206603652538,29.792759094539836 l 8.990779826022907 0.40728137691222377 a 30.0 30.0 0.0 0 1 -16.160353106352527,25.275343469041225 l -4.14267389411715 -7.989884417624591 a 21.0 21.0 0.0 0 0 11.312247174446771,-17.692740428328857 z"/><path fill="#5e1a00" d="M -46.924313210972144,47.48549952286871 l 4.142673894117151 7.98988441762459 a 30.0 30.0 0.0 0 1 -29.969266086742998,-1.3576045897074378 l 4.848105931905749 -7.58260304071236 a 21.0 21.0 0.0 0 0 20.978486260720096,0.9503232127952081 z"/><path fill="#d65401" d="M -99.14691014042057,26.914637364360097 l -8.990779826022905 -0.40728137691223293 a 15.3 15.3 0.0 1 1 30.56865140847788,1.3847566815015937 l -8.990779826022907 -0.4072813769122339 a 6.3 6.3 0.0 1 0 -12.587091756432068,-0.5701939276771268 z"/><path fill="#000000" d="M -76.19920872940007,-8.976350361678378 l -4.142673894117164 -7.989884417624584 a 15.3 15.3 0.0 1 1 14.085091239998356,27.165607019923588 l -4.142673894117163 -7.989884417624587 a 6.3 6.3 0.0 1 0 -5.799743451764028,-11.185838184674417 z"/><path fill="#280a00" d="M -33.642850886224956,-7.048551844293836 l 4.848105931905747 -7.582603040712359 a 15.3 15.3 0.0 1 1 -16.48356016847954,25.78085033842202 l 4.848105931905747 -7.582603040712359 a 6.3 6.3 0.0 1 0 6.787348304668046,-10.615644256997301 z"/><path fill="#6c001c" d="M -14.034194454070402,30.770234399129198 l 8.990779826022905 0.407281376912226 a 15.3 15.3 0.0 1 1 -30.56865140847788,-1.3847566815015666 l 8.990779826022905 0.407281376912225 a 6.3 6.3 0.0 1 0 12.58709175643207,0.5701939276771156 z"/><path fill="#ff807d" d="M -36.98189586509099,66.66122212516771 l 4.142673894117149 7.989884417624591 a 15.3 15.3 0.0 1 1 -14.08509123999831,-27.16560701992361 l 4.142673894117152 7.989884417624591 a 6.3 6.3 0.0 1 0 5.799743451764009,11.185838184674427 z"/><path fill="#5e1a00" d="M -79.53825370826604,64.73342360778315 l -4.848105931905748 7.582603040712359 a 15.3 15.3 0.0 1 1 16.483560168479542,-25.78085033842202 l -4.848105931905747 7.582603040712359 a 6.3 6.3 0.0 1 0 -6.787348304668046,10.615644256997301 z"/><path fill="#ff4928" d="M 100.0,100.0 l -62.5480235817204 31.428406673271684 a 70.0 70.0 0.0 0 1 -3.9033475232891135,-53.43329881716339 l 66.45137110500951 22.004892143891706 z"/><path fill="#f81500" d="M 100.0,100.0 l -66.45137110500951 -22.00489214389169 a 70.0 70.0 0.0 0 1 35.02296443173784,-40.54313143782872 l 31.428406673271674 62.54802358172041 z"/><path fill="#ff4458" d="M 100.0,100.0 l -31.428406673271688 -62.5480235817204 a 70.0 70.0 0.0 0 1 53.43329881716327,-3.903347523289156 l -22.00489214389158 66.45137110500956 z"/><path fill="#76130a" d="M 100.0,100.0 l 22.004892143891567 -66.45137110500956 a 70.0 70.0 0.0 0 1 40.54313143782884,35.022964431737876 l -62.54802358172041 31.428406673271677 z"/><path fill="#4c000a" d="M 100.0,100.0 l 62.54802358172041 -31.428406673271677 a 70.0 70.0 0.0 0 1 3.9033475232891206,53.43329881716333 l -66.45137110500953 -22.004892143891656 z"/><path fill="#fedbdd" d="M 100.0,100.0 l 66.45137110500953 22.00489214389164 a 70.0 70.0 0.0 0 1 -35.02296443173786,40.54313143782878 l -31.428406673271667 -62.548023581720415 z"/><path fill="#84070f" d="M 100.0,100.0 l 31.42840667327168 62.54802358172041 a 70.0 70.0 0.0 0 1 -53.43329881716339,3.9033475232891064 l 22.004892143891713 -66.45137110500951 z"/><path fill="#240107" d="M 100.0,100.0 l -22.004892143891695 66.45137110500951 a 70.0 70.0 0.0 0 1 -40.54313143782871,-35.02296443173785 l 62.54802358172041 -31.42840667327167 z"/><path fill="#000000" d="M 156.94399653634667,59.28905235113611 l 24.404569944148594 -17.447548992370223 a 100.0 100.0 0.0 0 1 9.692452296973013,99.52917345417322 l -27.3123056332405 -12.411203043881741 a 70.0 70.0 0.0 0 0 -6.7847166078811085,-69.67042141792126 z"/><path fill="#fcbbbd" d="M 163.7287131442278,128.9594737690574 l 27.3123056332405 12.41120304388174 a 100.0 100.0 0.0 0 1 -81.34856648049538,58.15849664123411 l -2.9077356890918864 -29.85875203625197 a 70.0 70.0 0.0 0 0 56.94399653634676,-40.71094764886388 z"/><path fill="#000000" d="M 106.78471660788108,169.67042141792126 l 2.9077356890918944 29.85875203625197 a 100.0 100.0 0.0 0 1 -91.04101877746824,-41.370676812939095 l 24.40456994414857 -17.447548992370244 a 70.0 70.0 0.0 0 0 63.728713144227775,28.959473769057368 z"/><path fill="#f23522" d="M 43.05600346365332,140.7109476488639 l -24.404569944148577 17.447548992370248 a 100.0 100.0 0.0 0 1 -9.692452296973066,-99.52917345417329 l 27.3123056332405 12.411203043881741 a 70.0 70.0 0.0 0 0 6.784716607881144,69.6704214179213 z"/><path fill="#ff6b0e" d="M 36.271286855772175,71.04052623094259 l -27.3123056332405 -12.411203043881736 a 100.0 100.0 0.0 0 1 81.34856648049536,-58.158496641234116 l 2.9077356890918864 29.85875203625197 a 70.0 70.0 0.0 0 0 -56.94399653634675,40.71094764886388 z"/><path fill="#000000" d="M 93.21528339211893,30.329578582078724 l -2.907735689091898 -29.85875203625197 a 100.0 100.0 0.0 0 1 91.04101877746824,41.37067681293909 l -24.40456994414857 17.447548992370244 a 70.0 70.0 0.0 0 0 -63.728713144227775,-28.95947376905736 z"/><path fill="#000000" d="M 229.27824666400497,158.74636107437357 l 27.312305633240495 12.411203043881747 a 51.0 51.0 0.0 1 1 -92.86183915301768,-42.19809034919793 l 27.31230563324049 12.411203043881741 a 21.0 21.0 0.0 1 0 38.237227886536694,17.375684261434444 z"/><path fill="#fcbbbd" d="M 113.76328226170159,241.33142630492603 l 2.9077356890918873 29.858752036251975 a 51.0 51.0 0.0 1 1 -9.886301342912422,-101.51975692325671 l 2.907735689091891 29.85875203625197 a 21.0 21.0 0.0 1 0 4.070829964728644,41.802252850752765 z"/><path fill="#000000" d="M -15.514964402303292,182.58506523055246 l -24.40456994414858 17.44754899237024 a 51.0 51.0 0.0 1 1 82.97553781010517,-59.321666574058824 l -24.404569944148577 17.44754899237024 a 21.0 21.0 0.0 1 0 -34.16639792180801,24.42656858931834 z"/><path fill="#f23522" d="M -29.278246664005003,41.253638925626404 l -27.312305633240495 -12.411203043881743 a 51.0 51.0 0.0 1 1 92.86183915301768,42.19809034919793 l -27.31230563324049 -12.411203043881748 a 21.0 21.0 0.0 1 0 -38.237227886536694,-17.375684261434444 z"/><path fill="#ff6b0e" d="M 86.2367177382984,-41.331426304926026 l -2.9077356890918904 -29.85875203625197 a 51.0 51.0 0.0 1 1 9.886301342912422,101.51975692325671 l -2.9077356890918873 -29.85875203625197 a 21.0 21.0 0.0 1 0 -4.070829964728644,-41.802252850752765 z"/><path fill="#000000" d="M 215.5149644023033,17.414934769447505 l 24.404569944148577 -17.447548992370244 a 51.0 51.0 0.0 1 1 -82.97553781010517,59.321666574058824 l 24.404569944148577 -17.44754899237024 a 21.0 21.0 0.0 1 0 34.16639792180801,-24.42656858931834 z"/><path fill="#d80000" d="M 83.3289820492065,-71.190178341178 l -20.67057256352238 3.7050546414534535 a 21.0 21.0 0.0 0 1 3.434401271208678,-15.701487410490298 l 17.236171292313703 11.996432769036844 z"/><path fill="#ffb477" d="M 83.3289820492065,-71.190178341178 l -17.236171292313703 -11.996432769036844 a 21.0 21.0 0.0 0 1 13.531116650860248,-8.674139794485537 l 3.7050546414534553 20.67057256352238 z"/><path fill="#000000" d="M 83.3289820492065,-71.190178341178 l -3.7050546414534553 -20.67057256352238 a 21.0 21.0 0.0 0 1 15.701487410490298,3.434401271208678 l -11.996432769036842 17.236171292313703 z"/><path fill="#ff654d" d="M 83.3289820492065,-71.190178341178 l 11.996432769036842 -17.236171292313703 a 21.0 21.0 0.0 0 1 8.674139794485539,13.531116650860247 l -20.67057256352238 3.7050546414534566 z"/><path fill="#f80600" d="M 83.3289820492065,-71.190178341178 l 20.67057256352238 -3.7050546414534566 a 21.0 21.0 0.0 0 1 -3.4344012712086815,15.7014874104903 l -17.2361712923137 -11.996432769036844 z"/><path fill="#fb9da9" d="M 83.3289820492065,-71.190178341178 l 17.236171292313706 11.996432769036842 a 21.0 21.0 0.0 0 1 -13.531116650860254,8.674139794485539 l -3.7050546414534526 -20.67057256352238 z"/><path fill="#000000" d="M 83.3289820492065,-71.190178341178 l 3.7050546414534575 20.67057256352238 a 21.0 21.0 0.0 0 1 -15.701487410490287,-3.4344012712086673 l 11.99643276903683 -17.236171292313713 z"/><path fill="#000000" d="M 83.3289820492065,-71.190178341178 l -11.996432769036844 17.236171292313703 a 21.0 21.0 0.0 0 1 -8.674139794485537,-13.531116650860248 l 20.67057256352238 -3.7050546414534535 z"/><path fill="#ff4928" d="M 100.0,100.0 l -62.5480235817204 31.428406673271684 a 70.0 70.0 0.0 0 1 -3.9033475232891135,-53.43329881716339 l 66.45137110500951 22.004892143891706 z"/><path fill="#f81500" d="M 100.0,100.0 l -66.45137110500951 -22.00489214389169 a 70.0 70.0 0.0 0 1 35.02296443173784,-40.54313143782872 l 31.428406673271674 62.54802358172041 z"/><path fill="#ff4458" d="M 100.0,100.0 l -31.428406673271688 -62.5480235817204 a 70.0 70.0 0.0 0 1 53.43329881716327,-3.903347523289156 l -22.00489214389158 66.45137110500956 z"/><path fill="#76130a" d="M 100.0,100.0 l 22.004892143891567 -66.45137110500956 a 70.0 70.0 0.0 0 1 40.54313143782884,35.022964431737876 l -62.54802358172041 31.428406673271677 z"/><path fill="#4c000a" d="M 100.0,100.0 l 62.54802358172041 -31.428406673271677 a 70.0 70.0 0.0 0 1 3.9033475232891206,53.43329881716333 l -66.45137110500953 -22.004892143891656 z"/><path fill="#fedbdd" d="M 100.0,100.0 l 66.45137110500953 22.00489214389164 a 70.0 70.0 0.0 0 1 -35.02296443173786,40.54313143782878 l -31.428406673271667 -62.548023581720415 z"/><path fill="#84070f" d="M 100.0,100.0 l 31.42840667327168 62.54802358172041 a 70.0 70.0 0.0 0 1 -53.43329881716339,3.9033475232891064 l 22.004892143891713 -66.45137110500951 z"/><path fill="#240107" d="M 100.0,100.0 l -22.004892143891695 66.45137110500951 a 70.0 70.0 0.0 0 1 -40.54313143782871,-35.02296443173785 l 62.54802358172041 -31.42840667327167 z"/><path fill="#000000" d="M 156.94399653634667,59.28905235113611 l 24.404569944148594 -17.447548992370223 a 100.0 100.0 0.0 0 1 9.692452296973013,99.52917345417322 l -27.3123056332405 -12.411203043881741 a 70.0 70.0 0.0 0 0 -6.7847166078811085,-69.67042141792126 z"/><path fill="#fcbbbd" d="M 163.7287131442278,128.9594737690574 l 27.3123056332405 12.41120304388174 a 100.0 100.0 0.0 0 1 -81.34856648049538,58.15849664123411 l -2.9077356890918864 -29.85875203625197 a 70.0 70.0 0.0 0 0 56.94399653634676,-40.71094764886388 z"/><path fill="#000000" d="M 106.78471660788108,169.67042141792126 l 2.9077356890918944 29.85875203625197 a 100.0 100.0 0.0 0 1 -91.04101877746824,-41.370676812939095 l 24.40456994414857 -17.447548992370244 a 70.0 70.0 0.0 0 0 63.728713144227775,28.959473769057368 z"/><path fill="#f23522" d="M 43.05600346365332,140.7109476488639 l -24.404569944148577 17.447548992370248 a 100.0 100.0 0.0 0 1 -9.692452296973066,-99.52917345417329 l 27.3123056332405 12.411203043881741 a 70.0 70.0 0.0 0 0 6.784716607881144,69.6704214179213 z"/><path fill="#ff6b0e" d="M 36.271286855772175,71.04052623094259 l -27.3123056332405 -12.411203043881736 a 100.0 100.0 0.0 0 1 81.34856648049536,-58.158496641234116 l 2.9077356890918864 29.85875203625197 a 70.0 70.0 0.0 0 0 -56.94399653634675,40.71094764886388 z"/><path fill="#000000" d="M 93.21528339211893,30.329578582078724 l -2.907735689091898 -29.85875203625197 a 100.0 100.0 0.0 0 1 91.04101877746824,41.37067681293909 l -24.40456994414857 17.447548992370244 a 70.0 70.0 0.0 0 0 -63.728713144227775,-28.95947376905736 z"/><path fill="#000000" d="M 229.27824666400497,158.74636107437357 l 27.312305633240495 12.411203043881747 a 51.0 51.0 0.0 1 1 -92.86183915301768,-42.19809034919793 l 27.31230563324049 12.411203043881741 a 21.0 21.0 0.0 1 0 38.237227886536694,17.375684261434444 z"/><path fill="#fcbbbd" d="M 113.76328226170159,241.33142630492603 l 2.9077356890918873 29.858752036251975 a 51.0 51.0 0.0 1 1 -9.886301342912422,-101.51975692325671 l 2.907735689091891 29.85875203625197 a 21.0 21.0 0.0 1 0 4.070829964728644,41.802252850752765 z"/><path fill="#000000" d="M -15.514964402303292,182.58506523055246 l -24.40456994414858 17.44754899237024 a 51.0 51.0 0.0 1 1 82.97553781010517,-59.321666574058824 l -24.404569944148577 17.44754899237024 a 21.0 21.0 0.0 1 0 -34.16639792180801,24.42656858931834 z"/><path fill="#f23522" d="M -29.278246664005003,41.253638925626404 l -27.312305633240495 -12.411203043881743 a 51.0 51.0 0.0 1 1 92.86183915301768,42.19809034919793 l -27.31230563324049 -12.411203043881748 a 21.0 21.0 0.0 1 0 -38.237227886536694,-17.375684261434444 z"/><path fill="#ff6b0e" d="M 86.2367177382984,-41.331426304926026 l -2.9077356890918904 -29.85875203625197 a 51.0 51.0 0.0 1 1 9.886301342912422,101.51975692325671 l -2.9077356890918873 -29.85875203625197 a 21.0 21.0 0.0 1 0 -4.070829964728644,-41.802252850752765 z"/><path fill="#000000" d="M 215.5149644023033,17.414934769447505 l 24.404569944148577 -17.447548992370244 a 51.0 51.0 0.0 1 1 -82.97553781010517,59.321666574058824 l 24.404569944148577 -17.44754899237024 a 21.0 21.0 0.0 1 0 34.16639792180801,-24.42656858931834 z"/><path fill="#000000" d="M 74.53933647873974,-52.11815352089282 l -3.7669909587714687 8.173724922979364 a 30.0 30.0 0.0 0 1 -17.317193158201327,-24.497241092040213 l 8.962148906231867 -0.824552595367301 a 21.0 21.0 0.0 0 0 12.122035210740929,17.14806876442815 z"/><path fill="#ff3124" d="M 62.41730126799881,-69.26622228532096 l -8.962148906231867 0.8245525953673022 a 30.0 30.0 0.0 0 1 12.556636529238215,-27.245749743264575 l 5.195157947460402 7.349172327612074 a 21.0 21.0 0.0 0 0 -8.78964557046675,19.0720248202852 z"/><path fill="#1c0002" d="M 71.20694683846557,-88.33824710560617 l -5.1951579474604035 -7.349172327612069 a 30.0 30.0 0.0 0 1 29.873829687439574,-2.7485086512243138 l -3.766990958771469 8.173724922979364 a 21.0 21.0 0.0 0 0 -20.911680781207703,1.923956055857019 z"/><path fill="#fc0769" d="M 92.11862761967326,-90.26220316146318 l 3.7669909587714696 -8.173724922979364 a 30.0 30.0 0.0 0 1 17.317193158201324,24.49724109204021 l -8.962148906231866 0.824552595367301 a 21.0 21.0 0.0 0 0 -12.122035210740927,-17.148068764428146 z"/><path fill="#b21520" d="M 104.2406628304142,-73.11413439703503 l 8.962148906231867 -0.8245525953673011 a 30.0 30.0 0.0 0 1 -12.556636529238219,27.245749743264575 l -5.195157947460402 -7.34917232761207 a 21.0 21.0 0.0 0 0 8.789645570466753,-19.072024820285204 z"/><path fill="#cd0f06" d="M 95.45101725994743,-54.04210957674984 l 5.1951579474604035 7.34917232761207 a 30.0 30.0 0.0 0 1 -29.87382968743958,2.7485086512243093 l 3.7669909587714727 -8.173724922979364 a 21.0 21.0 0.0 0 0 20.911680781207707,-1.9239560558570155 z"/><path fill="#000000" d="M 40.908143893042336,-67.28729605643944 l -8.962148906231867 0.8245525953673 a 15.3 15.3 0.0 1 1 30.471306281188347,-2.8034788242488218 l -8.962148906231867 0.824552595367301 a 6.3 6.3 0.0 1 0 -12.547008468724613,1.1543736335142207 z"/><path fill="#ff3124" d="M 58.73856776456059,-105.97626069187514 l -5.195157947460403 -7.34917232761207 a 15.3 15.3 0.0 1 1 17.663537021365368,24.987185913881042 l -5.195157947460402 -7.349172327612074 a 6.3 6.3 0.0 1 0 -7.273221126444563,-10.288841258656898 z"/><path fill="#1c0002" d="M 101.1594059207248,-109.87914297661366 l 3.7669909587714696 -8.173724922979364 a 15.3 15.3 0.0 1 1 -12.807769259822997,27.790664738129838 l 3.76699095877147 -8.173724922979364 a 6.3 6.3 0.0 1 0 5.273787342280058,-11.44321489217111 z"/><path fill="#fc0769" d="M 125.74982020537067,-75.09306062591655 l 8.962148906231867 -0.8245525953673011 a 15.3 15.3 0.0 1 1 -30.471306281188347,2.8034788242488218 l 8.962148906231867 -0.8245525953673001 a 6.3 6.3 0.0 1 0 12.547008468724613,-1.1543736335142207 z"/><path fill="#b21520" d="M 107.9193963338524,-36.404095990480855 l 5.195157947460402 7.349172327612072 a 15.3 15.3 0.0 1 1 -17.663537021365364,-24.987185913881042 l 5.195157947460402 7.349172327612074 a 6.3 6.3 0.0 1 0 7.273221126444563,10.288841258656898 z"/><path fill="#cd0f06" d="M 65.4985581776882,-32.501213705742344 l -3.766990958771471 8.173724922979362 a 15.3 15.3 0.0 1 1 12.807769259822999,-27.790664738129834 l -3.76699095877147 8.173724922979364 a 6.3 6.3 0.0 1 0 -5.273787342280058,11.44321489217111 z"/><path fill="#ff4928" d="M 100.0,100.0 l -62.5480235817204 31.428406673271684 a 70.0 70.0 0.0 0 1 -3.9033475232891135,-53.43329881716339 l 66.45137110500951 22.004892143891706 z"/><path fill="#f81500" d="M 100.0,100.0 l -66.45137110500951 -22.00489214389169 a 70.0 70.0 0.0 0 1 35.02296443173784,-40.54313143782872 l 31.428406673271674 62.54802358172041 z"/><path fill="#ff4458" d="M 100.0,100.0 l -31.428406673271688 -62.5480235817204 a 70.0 70.0 0.0 0 1 53.43329881716327,-3.903347523289156 l -22.00489214389158 66.45137110500956 z"/><path fill="#76130a" d="M 100.0,100.0 l 22.004892143891567 -66.45137110500956 a 70.0 70.0 0.0 0 1 40.54313143782884,35.022964431737876 l -62.54802358172041 31.428406673271677 z"/><path fill="#4c000a" d="M 100.0,100.0 l 62.54802358172041 -31.428406673271677 a 70.0 70.0 0.0 0 1 3.9033475232891206,53.43329881716333 l -66.45137110500953 -22.004892143891656 z"/><path fill="#fedbdd" d="M 100.0,100.0 l 66.45137110500953 22.00489214389164 a 70.0 70.0 0.0 0 1 -35.02296443173786,40.54313143782878 l -31.428406673271667 -62.548023581720415 z"/><path fill="#84070f" d="M 100.0,100.0 l 31.42840667327168 62.54802358172041 a 70.0 70.0 0.0 0 1 -53.43329881716339,3.9033475232891064 l 22.004892143891713 -66.45137110500951 z"/><path fill="#240107" d="M 100.0,100.0 l -22.004892143891695 66.45137110500951 a 70.0 70.0 0.0 0 1 -40.54313143782871,-35.02296443173785 l 62.54802358172041 -31.42840667327167 z"/><path fill="#000000" d="M 156.94399653634667,59.28905235113611 l 24.404569944148594 -17.447548992370223 a 100.0 100.0 0.0 0 1 9.692452296973013,99.52917345417322 l -27.3123056332405 -12.411203043881741 a 70.0 70.0 0.0 0 0 -6.7847166078811085,-69.67042141792126 z"/><path fill="#fcbbbd" d="M 163.7287131442278,128.9594737690574 l 27.3123056332405 12.41120304388174 a 100.0 100.0 0.0 0 1 -81.34856648049538,58.15849664123411 l -2.9077356890918864 -29.85875203625197 a 70.0 70.0 0.0 0 0 56.94399653634676,-40.71094764886388 z"/><path fill="#000000" d="M 106.78471660788108,169.67042141792126 l 2.9077356890918944 29.85875203625197 a 100.0 100.0 0.0 0 1 -91.04101877746824,-41.370676812939095 l 24.40456994414857 -17.447548992370244 a 70.0 70.0 0.0 0 0 63.728713144227775,28.959473769057368 z"/><path fill="#f23522" d="M 43.05600346365332,140.7109476488639 l -24.404569944148577 17.447548992370248 a 100.0 100.0 0.0 0 1 -9.692452296973066,-99.52917345417329 l 27.3123056332405 12.411203043881741 a 70.0 70.0 0.0 0 0 6.784716607881144,69.6704214179213 z"/><path fill="#ff6b0e" d="M 36.271286855772175,71.04052623094259 l -27.3123056332405 -12.411203043881736 a 100.0 100.0 0.0 0 1 81.34856648049536,-58.158496641234116 l 2.9077356890918864 29.85875203625197 a 70.0 70.0 0.0 0 0 -56.94399653634675,40.71094764886388 z"/><path fill="#000000" d="M 93.21528339211893,30.329578582078724 l -2.907735689091898 -29.85875203625197 a 100.0 100.0 0.0 0 1 91.04101877746824,41.37067681293909 l -24.40456994414857 17.447548992370244 a 70.0 70.0 0.0 0 0 -63.728713144227775,-28.95947376905736 z"/><path fill="#000000" d="M 229.27824666400497,158.74636107437357 l 27.312305633240495 12.411203043881747 a 51.0 51.0 0.0 1 1 -92.86183915301768,-42.19809034919793 l 27.31230563324049 12.411203043881741 a 21.0 21.0 0.0 1 0 38.237227886536694,17.375684261434444 z"/><path fill="#fcbbbd" d="M 113.76328226170159,241.33142630492603 l 2.9077356890918873 29.858752036251975 a 51.0 51.0 0.0 1 1 -9.886301342912422,-101.51975692325671 l 2.907735689091891 29.85875203625197 a 21.0 21.0 0.0 1 0 4.070829964728644,41.802252850752765 z"/><path fill="#000000" d="M -15.514964402303292,182.58506523055246 l -24.40456994414858 17.44754899237024 a 51.0 51.0 0.0 1 1 82.97553781010517,-59.321666574058824 l -24.404569944148577 17.44754899237024 a 21.0 21.0 0.0 1 0 -34.16639792180801,24.42656858931834 z"/><path fill="#f23522" d="M -29.278246664005003,41.253638925626404 l -27.312305633240495 -12.411203043881743 a 51.0 51.0 0.0 1 1 92.86183915301768,42.19809034919793 l -27.31230563324049 -12.411203043881748 a 21.0 21.0 0.0 1 0 -38.237227886536694,-17.375684261434444 z"/><path fill="#ff6b0e" d="M 86.2367177382984,-41.331426304926026 l -2.9077356890918904 -29.85875203625197 a 51.0 51.0 0.0 1 1 9.886301342912422,101.51975692325671 l -2.9077356890918873 -29.85875203625197 a 21.0 21.0 0.0 1 0 -4.070829964728644,-41.802252850752765 z"/><path fill="#000000" d="M 215.5149644023033,17.414934769447505 l 24.404569944148577 -17.447548992370244 a 51.0 51.0 0.0 1 1 -82.97553781010517,59.321666574058824 l 24.404569944148577 -17.44754899237024 a 21.0 21.0 0.0 1 0 34.16639792180801,-24.42656858931834 z"/><path fill="#000000" d="M 239.91953434645188,-0.032614222922738634 l 20.570291648210237 4.2264762518642165 a 21.0 21.0 0.0 0 1 -9.013468950992884,13.30748648178735 l -11.556822697217353 -17.533962733651567 z"/><path fill="#fc7857" d="M 239.91953434645188,-0.032614222922738634 l 11.556822697217358 17.53396273365156 a 21.0 21.0 0.0 0 1 -15.783298949081615,3.0363289145586663 l 4.2264762518642565 -20.570291648210226 z"/><path fill="#900803" d="M 239.91953434645188,-0.032614222922738634 l -4.226476251864251 20.57029164821023 a 21.0 21.0 0.0 0 1 -13.307486481787311,-9.013468950992877 l 17.533962733651563 -11.556822697217353 z"/><path fill="#a00029" d="M 239.91953434645188,-0.032614222922738634 l -17.53396273365156 11.556822697217358 a 21.0 21.0 0.0 0 1 -3.036328914558677,-15.783298949081576 l 20.570291648210237 4.226476251864219 z"/><path fill="#000000" d="M 239.91953434645188,-0.032614222922738634 l -20.570291648210237 -4.226476251864214 a 21.0 21.0 0.0 0 1 9.01346895099288,-13.30748648178735 l 11.556822697217356 17.533962733651563 z"/><path fill="#f39175" d="M 239.91953434645188,-0.032614222922738634 l -11.556822697217356 -17.533962733651563 a 21.0 21.0 0.0 0 1 15.783298949081592,-3.03632891455867 l -4.226476251864236 20.570291648210233 z"/><path fill="#060000" d="M 239.91953434645188,-0.032614222922738634 l 4.226476251864236 -20.570291648210233 a 21.0 21.0 0.0 0 1 13.307486481787327,9.013468950992877 l -17.533962733651563 11.556822697217356 z"/><path fill="#9a0024" d="M 239.91953434645188,-0.032614222922738634 l 17.533962733651563 -11.556822697217356 a 21.0 21.0 0.0 0 1 3.03632891455867,15.783298949081576 l -20.570291648210233 -4.226476251864221 z"/><path fill="#ff4928" d="M 100.0,100.0 l -62.5480235817204 31.428406673271684 a 70.0 70.0 0.0 0 1 -3.9033475232891135,-53.43329881716339 l 66.45137110500951 22.004892143891706 z"/><path fill="#f81500" d="M 100.0,100.0 l -66.45137110500951 -22.00489214389169 a 70.0 70.0 0.0 0 1 35.02296443173784,-40.54313143782872 l 31.428406673271674 62.54802358172041 z"/><path fill="#ff4458" d="M 100.0,100.0 l -31.428406673271688 -62.5480235817204 a 70.0 70.0 0.0 0 1 53.43329881716327,-3.903347523289156 l -22.00489214389158 66.45137110500956 z"/><path fill="#76130a" d="M 100.0,100.0 l 22.004892143891567 -66.45137110500956 a 70.0 70.0 0.0 0 1 40.54313143782884,35.022964431737876 l -62.54802358172041 31.428406673271677 z"/><path fill="#4c000a" d="M 100.0,100.0 l 62.54802358172041 -31.428406673271677 a 70.0 70.0 0.0 0 1 3.9033475232891206,53.43329881716333 l -66.45137110500953 -22.004892143891656 z"/><path fill="#fedbdd" d="M 100.0,100.0 l 66.45137110500953 22.00489214389164 a 70.0 70.0 0.0 0 1 -35.02296443173786,40.54313143782878 l -31.428406673271667 -62.548023581720415 z"/><path fill="#84070f" d="M 100.0,100.0 l 31.42840667327168 62.54802358172041 a 70.0 70.0 0.0 0 1 -53.43329881716339,3.9033475232891064 l 22.004892143891713 -66.45137110500951 z"/><path fill="#240107" d="M 100.0,100.0 l -22.004892143891695 66.45137110500951 a 70.0 70.0 0.0 0 1 -40.54313143782871,-35.02296443173785 l 62.54802358172041 -31.42840667327167 z"/><path fill="#000000" d="M 156.94399653634667,59.28905235113611 l 24.404569944148594 -17.447548992370223 a 100.0 100.0 0.0 0 1 9.692452296973013,99.52917345417322 l -27.3123056332405 -12.411203043881741 a 70.0 70.0 0.0 0 0 -6.7847166078811085,-69.67042141792126 z"/><path fill="#fcbbbd" d="M 163.7287131442278,128.9594737690574 l 27.3123056332405 12.41120304388174 a 100.0 100.0 0.0 0 1 -81.34856648049538,58.15849664123411 l -2.9077356890918864 -29.85875203625197 a 70.0 70.0 0.0 0 0 56.94399653634676,-40.71094764886388 z"/><path fill="#000000" d="M 106.78471660788108,169.67042141792126 l 2.9077356890918944 29.85875203625197 a 100.0 100.0 0.0 0 1 -91.04101877746824,-41.370676812939095 l 24.40456994414857 -17.447548992370244 a 70.0 70.0 0.0 0 0 63.728713144227775,28.959473769057368 z"/><path fill="#f23522" d="M 43.05600346365332,140.7109476488639 l -24.404569944148577 17.447548992370248 a 100.0 100.0 0.0 0 1 -9.692452296973066,-99.52917345417329 l 27.3123056332405 12.411203043881741 a 70.0 70.0 0.0 0 0 6.784716607881144,69.6704214179213 z"/><path fill="#ff6b0e" d="M 36.271286855772175,71.04052623094259 l -27.3123056332405 -12.411203043881736 a 100.0 100.0 0.0 0 1 81.34856648049536,-58.158496641234116 l 2.9077356890918864 29.85875203625197 a 70.0 70.0 0.0 0 0 -56.94399653634675,40.71094764886388 z"/><path fill="#000000" d="M 93.21528339211893,30.329578582078724 l -2.907735689091898 -29.85875203625197 a 100.0 100.0 0.0 0 1 91.04101877746824,41.37067681293909 l -24.40456994414857 17.447548992370244 a 70.0 70.0 0.0 0 0 -63.728713144227775,-28.95947376905736 z"/><path fill="#000000" d="M 229.27824666400497,158.74636107437357 l 27.312305633240495 12.411203043881747 a 51.0 51.0 0.0 1 1 -92.86183915301768,-42.19809034919793 l 27.31230563324049 12.411203043881741 a 21.0 21.0 0.0 1 0 38.237227886536694,17.375684261434444 z"/><path fill="#fcbbbd" d="M 113.76328226170159,241.33142630492603 l 2.9077356890918873 29.858752036251975 a 51.0 51.0 0.0 1 1 -9.886301342912422,-101.51975692325671 l 2.907735689091891 29.85875203625197 a 21.0 21.0 0.0 1 0 4.070829964728644,41.802252850752765 z"/><path fill="#000000" d="M -15.514964402303292,182.58506523055246 l -24.40456994414858 17.44754899237024 a 51.0 51.0 0.0 1 1 82.97553781010517,-59.321666574058824 l -24.404569944148577 17.44754899237024 a 21.0 21.0 0.0 1 0 -34.16639792180801,24.42656858931834 z"/><path fill="#f23522" d="M -29.278246664005003,41.253638925626404 l -27.312305633240495 -12.411203043881743 a 51.0 51.0 0.0 1 1 92.86183915301768,42.19809034919793 l -27.31230563324049 -12.411203043881748 a 21.0 21.0 0.0 1 0 -38.237227886536694,-17.375684261434444 z"/><path fill="#ff6b0e" d="M 86.2367177382984,-41.331426304926026 l -2.9077356890918904 -29.85875203625197 a 51.0 51.0 0.0 1 1 9.886301342912422,101.51975692325671 l -2.9077356890918873 -29.85875203625197 a 21.0 21.0 0.0 1 0 -4.070829964728644,-41.802252850752765 z"/><path fill="#000000" d="M 215.5149644023033,17.414934769447505 l 24.404569944148577 -17.447548992370244 a 51.0 51.0 0.0 1 1 -82.97553781010517,59.321666574058824 l 24.404569944148577 -17.44754899237024 a 21.0 21.0 0.0 1 0 34.16639792180801,-24.42656858931834 z"/><path fill="#65010f" d="M 229.18033889238185,-18.07893465117851 l -4.602512337458585 -7.734137326395331 a 30.0 30.0 0.0 0 1 29.997385232483705,-0.3960798075758767 l -4.3967032322865265 7.852961268668093 a 21.0 21.0 0.0 0 0 -20.998169662738594,0.27725586530311475 z"/><path fill="#1c0a00" d="M 250.17850855512046,-18.356190516481625 l 4.3967032322865265 -7.8529612686680945 a 30.0 30.0 0.0 0 1 15.341707791528606,25.780457754651124 l -8.999215569745108 0.11882394227275839 a 21.0 21.0 0.0 0 0 -10.739195454070025,-18.04632042825579 z"/><path fill="#fb4b6d" d="M 260.91770400919046,-0.309870088225834 l 8.999215569745108 -0.11882394227275628 a 30.0 30.0 0.0 0 1 -14.655677440955127,26.176537562226983 l -4.60251233745857 -7.734137326395338 a 21.0 21.0 0.0 0 0 10.25897420866859,-18.32357629355889 z"/><path fill="#150001" d="M 250.65872980052188,18.01370620533305 l 4.602512337458574 7.734137326395338 a 30.0 30.0 0.0 0 1 -29.997385232483662,0.3960798075758589 l 4.3967032322865265 -7.852961268668096 a 21.0 21.0 0.0 0 0 20.99816966273856,-0.27725586530310053 z"/><path fill="#5b0203" d="M 229.6605601377833,18.290962070636148 l -4.396703232286524 7.852961268668096 a 30.0 30.0 0.0 0 1 -15.341707791528616,-25.780457754651124 l 8.99921556974511 -0.11882394227275839 a 21.0 21.0 0.0 0 0 10.73919545407003,18.046320428255786 z"/><path fill="#dd0b00" d="M 218.9213646837133,0.24464164238035935 l -8.999215569745108 0.11882394227275916 a 30.0 30.0 0.0 0 1 14.6556774409551,-26.17653756222698 l 4.602512337458579 7.734137326395334 a 21.0 21.0 0.0 0 0 -10.258974208668572,18.323576293558887 z"/><path fill="#65010f" d="M 260.7305963126081,-37.203297561285055 l 4.3967032322865265 -7.8529612686680945 a 15.3 15.3 0.0 1 1 -14.948790989774192,26.70006831347152 l 4.396703232286528 -7.8529612686680945 a 6.3 6.3 0.0 1 0 6.155384525201137,-10.994145776135332 z"/><path fill="#1c0a00" d="M 282.51582137657874,-0.5950475496804479 l 8.999215569745108 -0.11882394227275628 a 15.3 15.3 0.0 1 1 -30.59733293713337,0.4040014037273695 l 8.999215569745111 -0.1188239422727552 a 6.3 6.3 0.0 1 0 12.598901797643151,-0.166353519181858 z"/><path fill="#fb4b6d" d="M 261.7047594104224,36.575635788681865 l 4.6025123374585695 7.73413732639534 a 15.3 15.3 0.0 1 1 -15.648541947359139,-26.296066909744155 l 4.602512337458572 7.734137326395338 a 6.3 6.3 0.0 1 0 6.443517272441998,10.827792256953476 z"/><path fill="#150001" d="M 219.10847238029567,37.13806911543958 l -4.396703232286527 7.8529612686680945 a 15.3 15.3 0.0 1 1 14.948790989774192,-26.70006831347152 l -4.396703232286528 7.8529612686680945 a 6.3 6.3 0.0 1 0 -6.155384525201137,10.994145776135332 z"/><path fill="#5b0203" d="M 197.32324731632502,0.5298191038349778 l -8.999215569745108 0.11882394227275517 a 15.3 15.3 0.0 1 1 30.59733293713337,-0.4040014037273695 l -8.999215569745111 0.1188239422727563 a 6.3 6.3 0.0 1 0 -12.598901797643151,0.166353519181858 z"/><path fill="#dd0b00" d="M 218.1343092824813,-36.640864234527335 l -4.6025123374585775 -7.734137326395334 a 15.3 15.3 0.0 1 1 15.648541947359163,26.29606690974414 l -4.6025123374585775 -7.734137326395338 a 6.3 6.3 0.0 1 0 -6.4435172724420084,-10.827792256953469 z"/><circle fill="#ffd3bf" r="9.0" cx="205.09277905366926" cy="167.91112746351976"/><circle fill="#ed4200" r="9.0" cx="233.65316229023531" cy="124.93596592362"/><circle fill="#110103" r="9.0" cx="285.15093553381155" cy="128.1824025783556"/><circle fill="#e70011" r="9.0" cx="308.0883255408216" cy="174.40400077299094"/><circle fill="#480101" r="9.0" cx="279.52794230425553" cy="217.37916231289063"/><circle fill="#000000" r="9.0" cx="228.03016906067933" cy="214.13272565815504"/><circle fill="#f79197" r="9.0" cx="135.35696373064974" cy="223.0924088470292"/><circle fill="#e10022" r="9.0" cx="167.6678810880227" cy="263.3237973331978"/><circle fill="#4a0104" r="9.0" cx="148.98193530816638" cy="311.42156682734657"/><circle fill="#5f0018" r="9.0" cx="97.98507217093726" cy="319.2879478353268"/><circle fill="#a4490f" r="9.0" cx="65.67415481356429" cy="279.05655934915825"/><circle fill="#000000" r="9.0" cx="84.36010059342058" cy="230.95878985500946"/><circle fill="#8e3708" r="9.0" cx="-6.01005086620513" cy="161.13908095448753"/><circle fill="#2b0106" r="9.0" cx="10.717995247071567" cy="209.95232171180754"/><circle fill="#000000" r="9.0" cx="-23.19148823317519" cy="248.8458549802427"/><circle fill="#000000" r="9.0" cx="-73.82901782669853" cy="238.92614749135794"/><circle fill="#fcbfca" r="9.0" cx="-90.55706393997532" cy="190.11290673403784"/><circle fill="#8b000b" r="9.0" cx="-56.64758045972851" cy="151.21937346560264"/><circle fill="#d65401" r="9.0" cx="-108.13768996644347" cy="26.507355987447863"/><circle fill="#000000" r="9.0" cx="-80.34188262351724" cy="-16.96623477930296"/><circle fill="#280a00" r="9.0" cx="-28.79474495431921" cy="-14.631154885006195"/><circle fill="#6c001c" r="9.0" cx="-5.043414628047497" cy="31.177515776041425"/><circle fill="#ff807d" r="9.0" cx="-32.83922197097384" cy="74.6511065427923"/><circle fill="#5e1a00" r="9.0" cx="-84.38635964017179" cy="72.31602664849551"/><circle fill="#000000" r="9.0" cx="31.94599498681047" cy="-66.46274346107215"/><circle fill="#ff3124" r="9.0" cx="53.54340981710019" cy="-113.3254330194872"/><circle fill="#1c0002" r="9.0" cx="104.92639687949627" cy="-118.05286789959302"/><circle fill="#fc0769" r="9.0" cx="134.71196911160254" cy="-75.91761322128386"/><circle fill="#b21520" r="9.0" cx="113.1145542813128" cy="-29.05492366286878"/><circle fill="#cd0f06" r="9.0" cx="61.73156721891672" cy="-24.327488782762984"/><circle fill="#65010f" r="9.0" cx="265.12729954489464" cy="-45.05625882995315"/><circle fill="#1c0a00" r="9.0" cx="291.51503694632385" cy="-0.7138714919532042"/><circle fill="#fb4b6d" r="9.0" cx="266.307271747881" cy="44.309773115077206"/><circle fill="#150001" r="9.0" cx="214.71176914800913" cy="44.991030384107674"/><circle fill="#5b0203" r="9.0" cx="188.32403174657992" cy="0.6486430461077329"/><circle fill="#dd0b00" r="9.0" cx="213.53179694502273" cy="-44.37500156092267"/></g></svg>