<?xml version='1.0' encoding='UTF-8'?>
<svg preserveAspectRatio="xMidYMid meet" xmlns="http://www.w3.org/2000/svg" xmlns:svg="http://www.w3.org/2000/svg"><g><path fill="#5c271a" d="M 120.0,100.0 a 20.0 20.0 0.0 1 1 -20.0,-20.0 a 20.0 20.0 0.0 0 1 20.0,20.0 z M 110.0,100.0 a 10.0 10.0 0.0 1 0 -10.0,10.0 a 10.0 10.0 0.0 0 0 10.0,-10.0 z"/><path fill="#331207" d="M 130.0,100.0 a 30.0 30.0 0.0 1 1 -30.0,-30.0 a 30.0 30.0 0.0 0 1 30.0,30.0 z M 120.0,100.0 a 20.0 20.0 0.0 1 0 -20.0,20.0 a 20.0 20.0 0.0 0 0 20.0,-20.0 z"/><path fill="#521f15" d="M 140.0,100.0 a 40.0 40.0 0.0 1 1 -40.0,-40.0 a 40.0 40.0 0.0 0 1 40.0,40.0 z M 130.0,100.0 a 30.0 30.0 0.0 1 0 -30.0,30.0 a 30.0 30.0 0.0 0 0 30.0,-30.0 z"/><path fill="#94410d" d="M 170.0,100.0 a 70.0 70.0 0.0 1 1 -70.0,-70.0 a 70.0 70.0 0.0 0 1 70.0,70.0 z M 160.0,100.0 a 60.0 60.0 0.0 1 0 -60.0,60.0 a 60.0 60.0 0.0 0 0 60.0,-60.0 z"/><path fill="#834a2a" d="M 180.0,100.0 a 80.0 80.0 0.0 1 1 -80.0,-80.0 a 80.0 80.0 0.0 0 1 80.0,80.0 z M 170.0,100.0 a 70.0 70.0 0.0 1 0 -70.0,70.0 a 70.0 70.0 0.0 0 0 70.0,-70.0 z"/><path fill="#a65026" d="M 190.0,100.0 a 90.0 90.0 0.0 1 1 -90.0,-90.0 a 90.0 90.0 0.0 0 1 90.0,90.0 z M 180.0,100.0 a 80.0 80.0 0.0 1 0 -80.0,80.0 a 80.0 80.0 0.0 0 0 80.0,-80.0 z"/><path fill="#7c3424" d="M 100.0,100.0 l 9.21192828831015 3.891063763423988 a 10.0 10.0 0.0 0 1 -0.25301622949693225,0.5516712863455941 l -8.958912058813217 -4.442735049769582 z"/><path fill="#5c271a" d="M 100.0,100.0 l 8.958912058813217 4.44273504976958 a 10.0 10.0 0.0 0 1 -0.3250165704587271,0.6026438949849142 l -8.63389548835449 -5.0453789447544946 z"/><path fill="#331207" d="M 100.0,100.0 l 8.633895488354492 5.045378944754493 a 10.0 10.0 0.0 0 1 -1.0885400995114107,1.5172129255400986 l -7.545355388843081 -6.562591870294591 z"/><path fill="#521f15" d="M 100.0,100.0 l 7.545355388843083 6.5625918702945905 a 10.0 10.0 0.0 0 1 -0.12652783933854117,0.14270437899316413 l -7.418827549504542 -6.705296249287755 z"/><path fill="#691c0a" d="M 100.0,100.0 l 7.4188275495045435 6.705296249287754 a 10.0 10.0 0.0 0 1 -2.611789096856217,2.063533850261466 l -4.807038452648326 -8.76883009954922 z"/><path fill="#923723" d="M 100.0,100.0 l 4.807038452648328 8.768830099549218 a 10.0 10.0 0.0 0 1 -2.5645892681848643,0.9764980968277079 l -2.2424491844634638 -9.745328196376926 z"/><path fill="#94410d" d="M 100.0,100.0 l 2.242449184463466 9.745328196376926 a 10.0 10.0 0.0 0 1 -5.223348322046096,-0.19995023992286498 l 2.9808991375826297 -9.545377956454061 z"/><path fill="#834a2a" d="M 100.0,100.0 l -2.980899137582628 9.545377956454063 a 10.0 10.0 0.0 0 1 -3.7190118518406887,-2.1216866418987044 l 6.699910989423317 -7.4236913145553585 z"/><path fill="#a65026" d="M 100.0,100.0 l -6.699910989423316 7.423691314555359 a 10.0 10.0 0.0 0 1 -2.8309669560334303,-10.450631285682338 l 9.530877945456746 3.026939971126978 z"/><path fill="#6c2911" d="M 100.0,100.0 l -9.530877945456748 -3.0269399711269758 a 10.0 10.0 0.0 0 1 0.21516285518830003,-0.6086414620064824 l 9.315715090268448 3.635581433133458 z"/><path fill="#7c3424" d="M 100.0,100.0 l -9.315715090268448 -3.635581433133455 a 10.0 10.0 0.0 0 1 3.27465880550616,-4.333461104357109 l 6.041056284762288 7.969042537490565 z"/><path fill="#5c271a" d="M 100.0,100.0 l -6.0410562847622895 -7.969042537490564 a 10.0 10.0 0.0 0 1 1.3230603131074057,-0.8480155893138797 l 4.717995971654884 8.817058126804444 z"/><path fill="#331207" d="M 100.0,100.0 l -4.7179959716548865 -8.817058126804442 a 10.0 10.0 0.0 0 1 0.9914354456650711,-0.46263726938903993 l 3.7265605259898154 9.279695396193482 z"/><path fill="#521f15" d="M 100.0,100.0 l -3.7265605259898176 -9.279695396193482 a 10.0 10.0 0.0 0 1 0.06141570034199928,-0.024428066391642744 l 3.6651448256478183 9.304123462585125 z"/><path fill="#691c0a" d="M 100.0,100.0 l -3.66514482564782 -9.304123462585125 a 10.0 10.0 0.0 0 1 1.712670272291977,-0.5034166529840132 l 1.952474553355843 9.807540115569138 z"/><path fill="#923723" d="M 100.0,100.0 l -1.9524745533558454 -9.807540115569138 a 10.0 10.0 0.0 0 1 2.6389703407124516,-0.1688682328266733 l -0.6864957873566064 9.976408348395811 z"/><path fill="#94410d" d="M 100.0,100.0 l 0.686495787356604 -9.976408348395811 a 10.0 10.0 0.0 0 1 7.7670893226436135,4.6344144521074035 l -8.453585110000217 5.3419938962884075 z"/><path fill="#834a2a" d="M 100.0,100.0 l 8.453585110000217 -5.3419938962884075 a 10.0 10.0 0.0 0 1 1.4529510995045296,3.977977646469019 l -9.906536209504747 1.3640162498193886 z"/><path fill="#a65026" d="M 100.0,100.0 l 9.906536209504747 -1.3640162498193886 a 10.0 10.0 0.0 0 1 -0.4003902385594902,4.467754121979547 l -9.506145970945257 -3.103737872160158 z"/><path fill="#6c2911" d="M 100.0,100.0 l 9.506145970945258 3.1037378721601554 a 10.0 10.0 0.0 0 1 -0.029473688305371226,0.08886019954334312 l -9.476672282639887 -3.1925980717034985 z"/><path fill="#7c3424" d="M 100.0,100.0 l 9.476672282639889 3.1925980717034963 a 10.0 10.0 0.0 0 1 -0.2647439943297414,0.6984656917204939 l -9.211928288310148 -3.89106376342399 z"/><path fill="#7c3424" d="M 80.55422907143898,134.9551425829438 l -4.861442732140256 8.73878564573595 a 50.0 50.0 0.0 0 1 -2.6059052372148255,-1.5550621880916236 l 5.3826237795832235 -8.427773208117628 a 40.0 40.0 0.0 0 0 2.0847241897718582,1.2440497504733017 z"/><path fill="#5c271a" d="M 78.46950488166713,133.7110928324705 l -5.382623779583221 8.427773208117625 a 50.0 50.0 0.0 0 1 -2.8204745603458106,-1.94044044879654 l 5.946718691652382 -8.039685118358321 a 40.0 40.0 0.0 0 0 2.256379648276649,1.5523523590372363 z"/><path fill="#331207" d="M 76.21312523339047,132.15874047343328 l -5.946718691652383 8.039685118358316 a 50.0 50.0 0.0 0 1 -6.955128868748353,-6.228767748187417 l 7.337744465402054 -6.793931568720829 a 40.0 40.0 0.0 0 0 5.564103094998682,4.983014198549931 z"/><path fill="#521f15" d="M 70.64902213839177,127.17572627488332 l -7.337744465402054 6.793931568720833 a 50.0 50.0 0.0 0 1 -0.6411647759574848,-0.7058707940260369 l 7.465977420593553 -6.652757409915623 a 40.0 40.0 0.0 0 0 0.512931820765985,0.5646966352208267 z"/><path fill="#691c0a" d="M 70.1360903176258,126.6110296396625 l -7.46597742059355 6.652757409915626 a 50.0 50.0 0.0 0 1 -8.849777037349032,-14.095098521472192 l 9.235932828063355 -3.833737705621189 a 40.0 40.0 0.0 0 0 7.079821629879227,11.276078817177755 z"/><path fill="#923723" d="M 63.05626868774658,115.33495082248476 l -9.235932828063357 3.8337377056211874 a 50.0 50.0 0.0 0 1 -3.4717126747678986,-13.274557517815134 l 9.93027536301694 -1.1788262020581612 a 40.0 40.0 0.0 0 0 2.777370139814316,10.619646014252108 z"/><path fill="#94410d" d="M 60.27889854793226,104.71530480823264 l -9.930275363016936 1.1788262020581606 a 50.0 50.0 0.0 0 1 3.809333315814623,-25.85677231376145 l 9.168408699854012 3.992528260694126 a 40.0 40.0 0.0 0 0 -3.0474666526517,20.685417851009163 z"/><path fill="#834a2a" d="M 63.32636520058396,84.02988695722348 l -9.16840869985401 -3.99252826069413 a 50.0 50.0 0.0 0 1 12.551176663097214,-17.34309800425796 l 6.658173367234568 7.461147861545724 a 40.0 40.0 0.0 0 0 -10.040941330477771,13.874478403406366 z"/><path fill="#a65026" d="M 73.36730653106173,70.15540855381711 l -6.658173367234568 -7.461147861545721 a 50.0 50.0 0.0 0 1 53.4745552224461,-8.439410414682598 l -4.036737677254649 9.149029944482244 a 40.0 40.0 0.0 0 0 -42.77964417795688,6.751528331746076 z"/><path fill="#6c2911" d="M 116.14695070901858,63.403880222071024 l 4.036737677254652 -9.14902994448224 a 50.0 50.0 0.0 0 1 2.9094992864746247,1.3976054486721559 l -4.618637534549578 8.869508854747806 a 40.0 40.0 0.0 0 0 -2.327599429179699,-1.1180843589377218 z"/><path fill="#7c3424" d="M 118.47455013819831,64.52196458100876 l 4.618637534549577 -8.86950885474781 a 50.0 50.0 0.0 0 1 19.775983597274514,18.613633676601157 l -8.573834254004481 5.146782119427577 a 40.0 40.0 0.0 0 0 -15.82078687781961,-14.890906941280925 z"/><path fill="#5c271a" d="M 134.2953370160179,79.41287152228966 l 8.57383425400448 -5.146782119427579 a 50.0 50.0 0.0 0 1 3.502233466816934,7.033835123166268 l -9.27428094736787 3.740015094794323 a 40.0 40.0 0.0 0 0 -2.801786773453543,-5.627068098533012 z"/><path fill="#331207" d="M 137.09712378947145,85.03993962082271 l 9.274280947367865 -3.740015094794326 a 50.0 50.0 0.0 0 1 1.765318111563678,5.177652857589744 l -9.627344569680602 2.7044845232763777 a 40.0 40.0 0.0 0 0 -1.412254489250941,-4.142122286071796 z"/><path fill="#521f15" d="M 138.5093782787224,89.1820619068945 l 9.6273445696806 -2.704484523276377 a 50.0 50.0 0.0 0 1 0.08832522177684332,0.31845584011182115 l -9.64500961403597 2.6407933552540133 a 40.0 40.0 0.0 0 0 -0.07066017742147324,-0.25476467208945763 z"/><path fill="#691c0a" d="M 138.58003845614388,89.43682657898395 l 9.645009614035969 -2.6407933552540124 a 50.0 50.0 0.0 0 1 1.579278015976607,8.784792294107536 l -9.960865217231294 0.8838348964325053 a 40.0 40.0 0.0 0 0 -1.2634224127812814,-7.027833835286028 z"/><path fill="#923723" d="M 139.84346086892515,96.46466041427001 l 9.960865217231289 -0.8838348964325053 a 50.0 50.0 0.0 0 1 -0.5829960757015531,13.208979485795552 l -9.844266002090976 -1.7579610007266062 a 40.0 40.0 0.0 0 0 0.46639686056123963,-10.567183588636441 z"/><path fill="#94410d" d="M 139.3770640083639,107.03184400290641 l 9.84426600209098 1.7579610007266024 a 50.0 50.0 0.0 0 1 -27.223533056398676,36.11116301675731 l -4.399559390811245 -8.98019360407806 a 40.0 40.0 0.0 0 0 21.77882644511894,-28.888930413405852 z"/><path fill="#834a2a" d="M 117.59823756324498,135.92077441631227 l 4.399559390811244 8.980193604078066 a 50.0 50.0 0.0 0 1 -20.557127134457765,5.078272374706694 l -0.2881339639196909 -9.995848079019403 a 40.0 40.0 0.0 0 0 16.44570170756621,-4.062617899765357 z"/><path fill="#a65026" d="M 101.15253585567876,139.9833923160776 l 0.2881339639196909 9.995848079019405 a 50.0 50.0 0.0 0 1 -21.992779368394366,-4.398424330723055 l 4.110421909759182 -9.116163212874795 a 40.0 40.0 0.0 0 0 17.594223494715493,3.518739464578445 z"/><path fill="#6c2911" d="M 83.55831236096327,136.46465285149918 l -4.110421909759182 9.116163212874794 a 50.0 50.0 0.0 0 1 -0.425825385067899,-0.19440569837811061 l 4.19558698677276 -9.077282073199171 a 40.0 40.0 0.0 0 0 0.34066030805432135,0.1555245587024885 z"/><path fill="#7c3424" d="M 83.21765205290896,136.3091282927967 l -4.195586986772763 9.077282073199171 a 50.0 50.0 0.0 0 1 -3.329278726837466,-1.6924821373161052 l 4.8614427321402545 -8.738785645735952 a 40.0 40.0 0.0 0 0 2.6634229814699744,1.3539857098528856 z"/><path fill="#7c3424" d="M 53.852411019437525,119.24577957062453 l -9.229517796112495 3.849155914124909 a 60.0 60.0 0.0 0 1 -1.2990515844085397,-3.401965332195401 l 9.446026393513918 -3.282161692092341 a 50.0 50.0 0.0 0 0 1.0825429870071162,2.834971110162833 z"/><path fill="#5c271a" d="M 52.769868032430416,116.41080846046171 l -9.446026393513915 3.2821616920923447 a 60.0 60.0 0.0 0 1 -1.2147359035159404,-3.9245091862781027 l 9.64848237743324 -2.628076827712661 a 50.0 50.0 0.0 0 0 1.0122799195966152,3.2704243218984193 z"/><path fill="#331207" d="M 51.75758811283381,113.1403841385633 l -9.648482377433238 2.628076827712664 a 60.0 60.0 0.0 0 1 -1.9223164562788302,-11.037729177237956 l 9.968868453479708 -0.7884552981730053 a 50.0 50.0 0.0 0 0 1.6019303802323606,9.198107647698297 z"/><path fill="#521f15" d="M 50.155657732601455,103.94227649086503 l -9.96886845347971 0.7884552981730069 a 60.0 60.0 0.0 0 1 -0.07934188254470875,-1.14156159995351 l 9.98209210057049 -0.5981950315140887 a 50.0 50.0 0.0 0 0 0.06611823545392781,0.9513013332945919 z"/><path fill="#691c0a" d="M 50.08953949714753,102.99097515757045 l -9.982092100570494 0.5981950315140909 a 60.0 60.0 0.0 0 1 2.1399008631045398,-19.856659760665483 l 9.62544195671974 2.7112482619301552 a 50.0 50.0 0.0 0 0 -1.783250719253786,16.547216467221237 z"/><path fill="#923723" d="M 51.87279021640131,86.44375869034921 l -9.625441956719738 -2.7112482619301543 a 60.0 60.0 0.0 0 1 6.596492059743452,-15.086095976734203 l 8.526026613429167 5.225597591385858 a 50.0 50.0 0.0 0 0 -5.497076716452881,12.5717466472785 z"/><path fill="#94410d" d="M 57.369866932854215,73.87201204307068 l -8.526026613429158 -5.225597591385862 a 60.0 60.0 0.0 0 1 22.808197109089633,-21.52734691363814 l 4.724660428580886 8.813488743658887 a 50.0 50.0 0.0 0 0 -19.006830924241363,17.939455761365117 z"/><path fill="#834a2a" d="M 76.37669785709558,55.93255628170557 l -4.7246604285808855 -8.813488743658887 a 60.0 60.0 0.0 0 1 24.715332117027344,-7.0089998804808715 l 0.6054384090763278 9.981655390405692 a 50.0 50.0 0.0 0 0 -20.596110097522786,5.840833233734067 z"/><path fill="#a65026" d="M 96.97280795461836,50.091723047971506 l -0.6054384090763283 -9.981655390405699 a 60.0 60.0 0.0 0 1 56.649782531189224,31.79755640744516 l -8.836192012788544 4.682062655831505 a 50.0 50.0 0.0 0 0 -47.20815210932435,-26.497963672870966 z"/><path fill="#6c2911" d="M 144.1809600639427,76.58968672084248 l 8.836192012788542 -4.682062655831506 a 60.0 60.0 0.0 0 1 1.7020968612404364,3.479294135582365 l -9.119874822995278 4.102180299901111 a 50.0 50.0 0.0 0 0 -1.4184140510337002,-2.8994117796519703 z"/><path fill="#7c3424" d="M 145.5993741149764,79.4890985004944 l 9.119874822995282 -4.102180299901112 a 60.0 60.0 0.0 0 1 4.794672814456039,32.23496592643914 l -9.91898695873796 -1.27031402117208 a 50.0 50.0 0.0 0 0 -3.9955606787133604,-26.862471605365947 z"/><path fill="#5c271a" d="M 149.5949347936898,106.35157010586039 l 9.918986958737955 1.2703140211720756 a 60.0 60.0 0.0 0 1 -1.9289610017112526,9.229593414668244 l -9.597493458452746 -2.8085795902834496 a 50.0 50.0 0.0 0 0 1.6074675014260436,-7.691327845556871 z"/><path fill="#331207" d="M 147.98746729226372,114.04289795141725 l 9.597493458452746 2.808579590283448 a 60.0 60.0 0.0 0 1 -2.1855395247581484,6.189879359073145 l -9.233236870993053 -3.84022615012897 a 50.0 50.0 0.0 0 0 1.8212829372984558,-5.158232799227623 z"/><path fill="#521f15" d="M 146.16618435496528,119.20113075064485 l 9.233236870993055 3.8402261501289696 a 60.0 60.0 0.0 0 1 -0.15350232557465837,0.3656600995239576 l -9.20765315006394 -3.9011695000496296 a 50.0 50.0 0.0 0 0 0.1279186046455436,-0.30471674960329764 z"/><path fill="#691c0a" d="M 146.03826575031974,119.50584750024814 l 9.207653150063948 3.901169500049627 a 60.0 60.0 0.0 0 1 -5.042017374465715,9.449767254646169 l -8.367316920986326 -5.476130709157321 a 50.0 50.0 0.0 0 0 4.201681145388093,-7.874806045538474 z"/><path fill="#923723" d="M 141.83658460493166,127.3806535457866 l 8.36731692098633 5.47613070915732 a 60.0 60.0 0.0 0 1 -10.367561379568752,12.010419844981513 l -6.639390024391538 -7.4778673499875765 a 50.0 50.0 0.0 0 0 8.63963448297396,-10.008683204151257 z"/><path fill="#94410d" d="M 133.19695012195768,137.38933674993785 l 6.639390024391539 7.47786734998757 a 60.0 60.0 0.0 0 1 -52.48815041618079,13.783726812517777 l 2.108635044971926 -9.775155152073864 a 50.0 50.0 0.0 0 0 43.74012534681732,-11.486439010431482 z"/><path fill="#834a2a" d="M 89.45682477514038,148.87577576036932 l -2.1086350449719222 9.775155152073866 a 60.0 60.0 0.0 0 1 -23.140945036451864,-10.496194202701746 l 5.965459217713896 -8.025789451623574 a 50.0 50.0 0.0 0 0 19.28412086370989,8.746828502251454 z"/><path fill="#a65026" d="M 70.1727039114305,140.12894725811788 l -5.965459217713898 8.025789451623577 a 60.0 60.0 0.0 0 1 -17.449324287507146,-20.49102472945087 l 8.873679932298423 -4.610618663381768 a 50.0 50.0 0.0 0 0 14.541103572922623,17.07585394120906 z"/><path fill="#6c2911" d="M 55.631600338507894,123.05309331690884 l -8.873679932298423 4.610618663381768 a 60.0 60.0 0.0 0 1 -0.2566534496501802,-0.4996628942897168 l 8.916455507240123 -4.527341514333482 a 50.0 50.0 0.0 0 0 0.21387787470847996,0.41638574524143124 z"/><path fill="#7c3424" d="M 55.41772246379942,122.63670757166742 l -8.916455507240116 4.527341514333484 a 60.0 60.0 0.0 0 1 -1.878373733234234,-4.069113601251361 l 9.229517796112482 -3.849155914124921 a 50.0 50.0 0.0 0 0 1.5653114443618676,3.3909280010427985 z"/><path fill="#7c3424" d="M 57.9688754154726,179.582564460816 l -4.6701249538363765 8.842507162312891 a 100.0 100.0 0.0 0 1 -5.278256378897014,-2.9959725725275987 l 5.197950591726077 -8.542909905060128 a 90.0 90.0 0.0 0 0 4.750430741007314,2.6963753152748353 z"/><path fill="#5c271a" d="M 53.2184446744653,176.8861891455412 l -5.197950591726077 8.542909905060133 a 100.0 100.0 0.0 0 1 -5.724066000327731,-3.7572079989568063 l 5.770357191758855 -8.167189105164454 a 90.0 90.0 0.0 0 0 5.151659400294953,3.3814871990611266 z"/><path fill="#331207" d="M 48.06678527417036,173.50470194648005 l -5.770357191758848 8.167189105164454 a 100.0 100.0 0.0 0 1 -14.17805482295693,-12.151881434751445 l 7.188162674054539 -6.952000961689315 a 90.0 90.0 0.0 0 0 12.76024934066124,10.936693291276306 z"/><path fill="#521f15" d="M 35.30653593350914,162.56800865520378 l -7.188162674054539 6.952000961689311 a 100.0 100.0 0.0 0 1 -1.3127471010829197,-1.383502236987301 l 7.319437384162839 -6.813650737990578 a 90.0 90.0 0.0 0 0 1.1814723909746192,1.2451520132885676 z"/><path fill="#691c0a" d="M 34.125063542534534,161.32285664191522 l -7.319437384162828 6.8136507379905815 a 100.0 100.0 0.0 0 1 -18.30881563645684,-27.79835775281396 l 9.150318947808515 -4.033814962709187 a 90.0 90.0 0.0 0 0 16.477934072811152,25.018521977532565 z"/><path fill="#923723" d="M 17.647129469723396,136.30433466438268 l -9.150318947808513 4.033814962709188 a 100.0 100.0 0.0 0 1 -7.519522062698728,-26.39173076378819 l 9.902271154078377 -1.3946418863303691 a 90.0 90.0 0.0 0 0 6.767569856428864,23.752557687409368 z"/><path fill="#94410d" d="M 10.879559613294532,112.55177697697333 l -9.902271154078385 1.3946418863303718 a 100.0 100.0 0.0 0 1 6.491513063844785,-51.867090118191975 l 9.25311984769391 3.7920671254888276 a 90.0 90.0 0.0 0 0 -5.84236175746031,46.68038110637278 z"/><path fill="#834a2a" d="M 16.721921370754842,65.87139587060057 l -9.253119847693908 -3.792067125488824 a 100.0 100.0 0.0 0 1 24.34159531962132,-35.22423985482273 l 6.818960315731772 7.31449111097109 a 90.0 90.0 0.0 0 0 -21.907435787659182,31.701815869340457 z"/><path fill="#a65026" d="M 38.62935715841402,34.16958000126013 l -6.818960315731779 -7.314491110971096 a 100.0 100.0 0.0 0 1 106.55648094065714,-19.20216620818959 l -3.836687778333939 9.234707731790053 a 90.0 90.0 0.0 0 0 -95.90083284659143,17.281949587370633 z"/><path fill="#6c2911" d="M 134.53019000500544,16.88763041388951 l 3.8366877783339333 -9.234707731790055 a 100.0 100.0 0.0 0 1 5.878447794127672,2.667920516869332 l -4.424532557746701 8.967915680103118 a 90.0 90.0 0.0 0 0 -5.290603014714904,-2.4011284651823956 z"/><path fill="#7c3424" d="M 139.82079301972033,19.288758879071906 l 4.424532557746699 -8.967915680103122 a 100.0 100.0 0.0 0 1 40.352711643377326,36.35775304624774 l -8.45980372208443 5.332140375478346 a 90.0 90.0 0.0 0 0 -36.3174404790396,-32.721977741622965 z"/><path fill="#5c271a" d="M 176.1382334987599,52.010736620694864 l 8.45980372208443 -5.3321403754783505 a 100.0 100.0 0.0 0 1 7.308937817370918,13.911913281994057 l -9.190697503821525 3.9409490472789415 a 90.0 90.0 0.0 0 0 -6.578044035633823,-12.520721953794649 z"/><path fill="#331207" d="M 182.71627753439373,64.5314585744895 l 9.190697503821522 -3.940949047278947 a 100.0 100.0 0.0 0 1 3.7551441670863035,10.27602261963675 l -9.56621192053015 2.913346785315273 a 90.0 90.0 0.0 0 0 -3.379629750377674,-9.248420357673076 z"/><path fill="#521f15" d="M 186.09590728477139,73.77987893216257 l 9.566211920530153 -2.9133467853152712 a 100.0 100.0 0.0 0 1 0.19046858268880662,0.6329167296111304 l -9.58525877879903 2.850055112354159 a 90.0 90.0 0.0 0 0 -0.17142172441992898,-0.5696250566500183 z"/><path fill="#691c0a" d="M 186.26732900919131,74.34950398881267 l 9.585258778799034 -2.8500551123541578 a 100.0 100.0 0.0 0 1 3.5401435425725047,17.496690044331572 l -9.93927313305629 1.1003861079210004 a 90.0 90.0 0.0 0 0 -3.186129188315249,-15.747021039898414 z"/><path fill="#923723" d="M 189.45345819750654,90.09652502871093 l 9.939273133056282 -1.1003861079210009 a 100.0 100.0 0.0 0 1 -0.5908292170144804,26.437076516856518 l -9.880190211354844 -1.5433215437646481 a 90.0 90.0 0.0 0 0 0.5317462953130416,-23.79336886517087 z"/><path fill="#94410d" d="M 188.92171190219352,113.88989389388185 l 9.880190211354837 1.5433215437646488 a 100.0 100.0 0.0 0 1 -52.8625274749937,73.39005773903014 l -4.593937463855468 -8.88232731766766 a 90.0 90.0 0.0 0 0 47.57627472749433,-66.05105196512713 z"/><path fill="#834a2a" d="M 141.3454371746992,179.94094585900896 l 4.593937463855468 8.882327317667661 a 100.0 100.0 0.0 0 1 -40.88349955049008,11.04883567806766 l -0.5055875088064639 -9.987210885474425 a 90.0 90.0 0.0 0 0 36.795149595441075,-9.943952110260895 z"/><path fill="#a65026" d="M 104.55028757925815,189.88489796926984 l 0.5055875088064627 9.987210885474427 a 100.0 100.0 0.0 0 1 -44.16657290917453,-7.837586440892254 l 3.9110697821109923 -9.203452241385207 a 90.0 90.0 0.0 0 0 39.74991561825708,7.053827796803034 z"/><path fill="#6c2911" d="M 64.8003719610011,182.8310701724668 l -3.911069782110988 9.203452241385202 a 100.0 100.0 0.0 0 1 -0.8599101039819361,-0.3701863714271756 l 3.9970607925091812 -9.166433604242485 a 90.0 90.0 0.0 0 0 0.7739190935837428,0.33316773428445856 z"/><path fill="#7c3424" d="M 64.02645286741738,182.49790243818236 l -3.9970607925091794 9.166433604242485 a 100.0 100.0 0.0 0 1 -6.7306416132719935,-3.2392644192959494 l 4.670124953836378 -8.842507162312884 a 90.0 90.0 0.0 0 0 6.057577451944795,2.915337977366349 z"/></g></svg>