<?xml version='1.0' encoding='UTF-8'?>
<svg preserveAspectRatio="xMidYMid meet" xmlns="http://www.w3.org/2000/svg" xmlns:svg="http://www.w3.org/2000/svg"><g><path fill="#800000" d="M 0.0,0.0 l 20.0 0.0 a 40.0 40.0 0.0 1 1 -80.0,4.898587196589413E-15 l 20.0 -2.4492935982947065E-15 a 20.0 20.0 0.0 1 0 40.0,-2.4492935982947065E-15 z"/><path fill="#807f00" d="M 20.0,0.0 l -20.0 2.4492935982947065E-15 a 46.61668880054066 46.61668880054066 0.0 1 1 90.77777787735856,14.930300943912924 l -18.946471837916434 -6.405560466894324 a 26.616688800540658 26.616688800540658 0.0 1 0 -51.831306039442126,-8.524740477018602 z"/><path fill="#008000" d="M 160.75270040488715,20.868443869832365 l 19.75493258244874 -3.1213200193035657 a 56.16143836408526 56.16143836408526 0.0 1 1 -108.67632694789378,-9.222383373510198 l 18.946471837916434 6.40556046689432 a 36.16143836408526 36.16143836408526 0.0 1 0 69.9749225275286,5.938142925919443 z"/><path fill="#008080" d="M 180.50763298733588,17.7471238505288 l -19.75493258244874 3.1213200193035635 a 55.41605015150143 55.41605015150143 0.0 1 1 86.13045932758169,37.0175133434617 l -11.330090291650166 -16.481172712615287 a 35.41605015150143 35.41605015150143 0.0 1 0 -55.04543645348278,-23.657660650149975 z"/><path fill="#000080" d="M 274.6822470166721,134.8905008724553 l 1.8101905180315712 19.91791179537726 a 62.311252988933006 62.311252988933006 0.0 0 1 -40.93936809388499,-113.4036281671538 l 11.330090291650158 16.48117271261529 a 42.311252988933006 42.311252988933006 0.0 0 0 27.79908728420326,77.00454365916124 z"/><path fill="#7f0080" d="M 276.49243753470364,154.80841266783256 l -1.8101905180315736 -19.917911795377258 a 61.43977602376939 61.43977602376939 0.0 1 1 9.11566534030358,122.52445561947084 l -1.1571592772466435 -19.966496498061005 a 41.43977602376939 41.43977602376939 0.0 1 0 -6.148315545025364,-82.64004732603257 z"/></g></svg>