<?xml version='1.0' encoding='UTF-8'?>
<svg preserveAspectRatio="xMidYMid meet" xmlns="http://www.w3.org/2000/svg" xmlns:svg="http://www.w3.org/2000/svg"><g><circle fill="#000000" r="70.0" cx="0.0" cy="0.0"/><path fill="#00000d" d="M 100.0,0.0 a 100.0 100.0 0.0 1 1 -100.0,-100.0 a 100.0 100.0 0.0 0 1 100.0,100.0 z M 70.0,0.0 a 70.0 70.0 0.0 1 0 -70.0,70.0 a 70.0 70.0 0.0 0 0 70.0,-70.0 z"/><circle fill="#000000" r="70.0" cx="0.0" cy="0.0"/><path fill="#ff0689" d="M 68.93486036155777,17.816425761990878 l 0.5809117446198632 0.1501384193426188 a 71.8 71.8 0.0 0 1 -18.296629589204937,32.35082287151371 l -0.42801511852622554 -0.4204795575446809 a 71.2 71.2 0.0 0 0 18.143732963111297,-32.08048173331164 z"/><path fill="#ad8e15" d="M 19.037952866255218,68.60755316043742 l 0.1604321870751826 0.5781535378688492 a 71.8 71.8 0.0 0 1 -37.164949234663986,0.33006540787132477 l 0.15013841934262473 -0.5809117446198542 a 71.2 71.2 0.0 0 0 36.85437862824618,-0.32730720112031975 z"/><path fill="#8e133c" d="M -49.89690749530256,50.79112739844646 l -0.4204795575446805 0.42801511852623014 a 71.8 71.8 0.0 0 1 -18.868319645459017,-32.020757463642326 l 0.5781535378688432 -0.16043218707518392 a 71.2 71.2 0.0 0 0 18.710645665134855,31.753174532191277 z"/><path fill="#2669a6" d="M -68.60755316043742,19.037952866255225 l -0.5781535378688492 0.16043218707518261 a 71.8 71.8 0.0 0 1 -0.33006540787132477,-37.164949234663986 l 0.5809117446198542 0.15013841934262473 a 71.2 71.2 0.0 0 0 0.32730720112031975,36.85437862824618 z"/><path fill="#ff7aa0" d="M -68.93486036155774,-17.816425761991006 l -0.5809117446198631 -0.15013841934261934 a 71.8 71.8 0.0 0 1 18.296629589204905,-32.35082287151363 l 0.42801511852623264 0.4204795575446809 a 71.2 71.2 0.0 0 0 -18.143732963111276,32.080481733311565 z"/><path fill="#0dbc6a" d="M -50.791127398446456,-49.89690749530257 l -0.42801511852623014 -0.4204795575446805 a 71.8 71.8 0.0 0 1 32.02075746364235,-18.86831964545903 l 0.16043218707518392 0.5781535378688574 a 71.2 71.2 0.0 0 0 -31.753174532191302,18.710645665134855 z"/><path fill="#00b46c" d="M 68.60755316043742,-19.037952866255218 l 0.578153537868849 -0.16043218707518295 a 71.8 71.8 0.0 0 1 0.3300654078713391,37.16494923466403 l -0.5809117446198542 -0.15013841934261762 a 71.2 71.2 0.0 0 0 -0.32730720112033396,-36.85437862824623 z"/><path fill="#10455c" d="M -19.871165956167186,71.48969690481603 l -0.16068328266442322 0.5780838024648142 a 74.8 74.8 0.0 0 1 -33.35013144041693,-19.67117643982535 l 0.4281977059832798 -0.4202936171186238 a 74.2 74.2 0.0 0 0 33.08261701709807,19.51338625447916 z"/><path fill="#e5522a" d="M -52.95378297326526,51.97631065033688 l -0.42819770598327306 0.42029361711862295 a 74.8 74.8 0.0 0 1 -19.046472827038542,-33.71080423942326 l 0.5809768997830389 -0.14988609648154494 a 74.2 74.2 0.0 0 0 18.893693633238776,33.44039671878618 z"/><path fill="#35b1d6" d="M -71.48969690481603,-19.8711659561672 l -0.5780838024648142 -0.1606832826644232 a 74.8 74.8 0.0 0 1 19.67117643982534,-33.35013144041693 l 0.4202936171186238 0.42819770598327267 a 74.2 74.2 0.0 0 0 -19.51338625447915,33.08261701709808 z"/><path fill="#f05900" d="M 52.95378297326522,-51.97631065033692 l 0.42819770598327295 -0.42029361711862306 a 74.8 74.8 0.0 0 1 19.04647282703855,33.71080423942326 l -0.5809768997830389 0.14988609648153783 a 74.2 74.2 0.0 0 0 -18.893693633238783,-33.440396718786175 z"/><path fill="#480925" d="M 71.84747660650406,-18.535913931550628 l 0.580976899783046 -0.1498860964815406 a 74.8 74.8 0.0 0 1 -0.36067279900624527,38.71764926686386 l -0.5780838024648176 -0.16068328266442222 a 74.2 74.2 0.0 0 0 0.35777970168801687,-38.4070798877179 z"/><path fill="#b7a826" d="M 71.489696904816,19.871165956167253 l 0.5780838024648142 0.1606832826644231 a 74.8 74.8 0.0 0 1 -19.67117643982535,33.35013144041694 l -0.4202936171186238 -0.42819770598327267 a 74.2 74.2 0.0 0 0 19.51338625447916,-33.08261701709809 z"/><path fill="#d0007a" d="M 76.96055442543742,6.075612111490125 l 0.5981390240318913 0.04721978324992274 a 77.8 77.8 0.0 0 1 -13.452310585269199,37.95904279394114 l -0.49439369818149004 -0.3399630438715775 a 77.2 77.2 0.0 0 0 13.348565259418798,-37.66629953331948 z"/><path fill="#a13a00" d="M -6.075612111490121,76.96055442543742 l -0.047219783249922695 0.5981390240318913 a 77.8 77.8 0.0 0 1 -37.95904279394108,-13.452310585269156 l 0.3399630438715704 -0.49439369818149004 a 77.2 77.2 0.0 0 0 37.66629953331943,13.348565259418756 z"/><path fill="#e10168" d="M -43.741911644809534,63.611989166018674 l -0.3399630438715734 0.4943936981814876 a 77.8 77.8 0.0 0 1 -26.14734007025911,-30.62956410341204 l 0.541613481431412 -0.25817598016031695 a 77.2 77.2 0.0 0 0 25.94568963269927,30.39334638539087 z"/><path fill="#f9cb59" d="M -69.68760127750879,33.21864278062781 l -0.5416134814314103 0.2581759801603174 a 77.8 77.8 0.0 0 1 -7.3294786905291165,-39.59965065552819 l 0.5981390240318802 0.04721978324992193 a 77.2 77.2 0.0 0 0 7.2729531479286464,39.29425489211795 z"/><path fill="#868400" d="M -76.96055442543742,-6.075612111490134 l -0.5981390240318913 -0.04721978324992266 a 77.8 77.8 0.0 0 1 13.452310585269242,-37.95904279394119 l 0.49439369818148293 0.3399630438715775 a 77.2 77.2 0.0 0 0 -13.348565259418834,37.66629953331953 z"/><path fill="#f41f65" d="M -63.61198916601859,-43.74191164480965 l -0.49439369818148704 -0.3399630438715742 a 77.8 77.8 0.0 0 1 30.62956410341197,-26.147340070258995 l 0.25817598016031695 0.541613481431412 a 77.2 77.2 0.0 0 0 -30.3933463853908,25.945689632699157 z"/><path fill="#224c6d" d="M -33.2186427806278,-69.68760127750879 l -0.25817598016031745 -0.5416134814314103 a 77.8 77.8 0.0 0 1 39.59965065552819,-7.3294786905291165 l -0.04721978324992193 0.5981390240318802 a 77.2 77.2 0.0 0 0 -39.29425489211795,7.2729531479286464 z"/><path fill="#800239" d="M 69.68760127750879,-33.2186427806278 l 0.5416134814314103 -0.25817598016031734 a 77.8 77.8 0.0 0 1 7.3294786905291165,39.59965065552825 l -0.5981390240318945 -0.04721978324992193 a 77.2 77.2 0.0 0 0 -7.272953147928632,-39.29425489211801 z"/><path fill="#ffbc9a" d="M 63.77778787913751,-48.625443681716064 l 0.4771405576992786 -0.3637813741774235 a 80.8 80.8 0.0 0 1 15.886084435761745,38.690775864195004 l -0.5951065312321617 0.07647363261162354 a 80.2 80.2 0.0 0 0 -15.768118462228863,-38.40346812262921 z"/><path fill="#032712" d="M 48.625443681716064,63.777787879137506 l 0.3637813741774235 0.4771405576992786 a 80.8 80.8 0.0 0 1 -38.690775864195025,15.886084435761745 l -0.07647363261161644 -0.5951065312321617 a 80.2 80.2 0.0 0 0 38.40346812262922,-15.768118462228863 z"/><path fill="#b27b0d" d="M 20.77123195009195,-80.56547600104824 l 0.14979253810162313 -0.5810010288537077 a 83.8 83.8 0.0 0 1 37.77035270672938,21.332078738493234 l -0.42022465772019757 0.4282653815613955 a 83.2 83.2 0.0 0 0 -37.49992058711081,-21.17934309120092 z"/><path fill="#800d47" d="M 80.15736485993929,-22.294323463845462 l 0.5780579196630182 -0.16077637113349946 a 83.8 83.8 0.0 0 1 0.41105425029964837,43.376124323172554 l -0.5810010288537057 -0.14979253810162874 a 83.2 83.2 0.0 0 0 -0.40811114110896085,-43.065555413937425 z"/><path fill="#cbba0d" d="M 80.56547600104824,20.771231950091945 l 0.5810010288537077 0.1497925381016231 a 83.8 83.8 0.0 0 1 -21.332078738493248,37.7703527067294 l -0.4282653815613955 -0.42022465772019757 a 83.2 83.2 0.0 0 0 21.179343091200934,-37.49992058711082 z"/><path fill="#0aa34f" d="M 22.294323463845465,80.15736485993929 l 0.1607763711334995 0.5780579196630182 a 83.8 83.8 0.0 0 1 -43.376124323172554,0.41105425029964837 l 0.14979253810162874 -0.5810010288537057 a 83.2 83.2 0.0 0 0 43.065555413937425,-0.40811114110896085 z"/><path fill="#6dbaf5" d="M -20.77123195009194,80.56547600104824 l -0.14979253810162307 0.5810010288537077 a 83.8 83.8 0.0 0 1 -37.770352706729355,-21.33207873849319 l 0.4202246577202118 -0.4282653815613955 a 83.2 83.2 0.0 0 0 37.499920587110765,21.179343091200877 z"/><path fill="#ed1f83" d="M -58.27115253720269,59.38613290984737 l -0.42022465772020773 0.4282653815613952 a 83.8 83.8 0.0 0 1 -22.044045584679413,-37.3592984564298 l 0.5780579196630242 -0.16077637113350107 a 83.2 83.2 0.0 0 0 21.886212322736597,37.0918094460019 z"/><path fill="#630121" d="M -80.56547600104824,-20.771231950091956 l -0.5810010288537077 -0.14979253810162318 a 83.8 83.8 0.0 0 1 21.332078738493184,-37.77035270672934 l 0.4282653815613955 0.4202246577202118 a 83.2 83.2 0.0 0 0 -21.17934309120087,37.49992058711075 z"/><path fill="#000a12" d="M -83.32282719842964,-22.08498285398101 l -0.5799732751630778 -0.1537237785659916 a 86.8 86.8 0.0 0 1 22.360197131077904,-38.971978495344565 l 0.42540970052429117 0.4231153349854253 a 86.2 86.2 0.0 0 0 -22.205633556439118,38.70258693892513 z"/><path fill="#ff65b7" d="M -61.11719364199051,-60.78756979290614 l -0.4254097005242919 -0.42311533498542153 a 86.8 86.8 0.0 0 1 38.85048799681361,-22.57062484717026 l 0.15685794017765176 0.579133479090288 a 86.2 86.2 0.0 0 0 -38.58193623646697,22.414606703065395 z"/><path fill="#3075aa" d="M -22.53525740552353,-83.20217649597153 l -0.15685794017765656 -0.5791334790902836 a 86.8 86.8 0.0 0 1 44.93082197824819,-0.12149049853089355 l -0.15372377856598973 0.57997327516307 a 86.2 86.2 0.0 0 0 -44.62024025950454,0.12065070245810716 z"/><path fill="#c8aa66" d="M 83.20217649597156,-22.53525740552339 l 0.5791334790902837 -0.15685794017765609 a 86.8 86.8 0.0 0 1 0.12149049853087923,44.93082197824813 l -0.57997327516307 -0.15372377856598973 a 86.2 86.2 0.0 0 0 -0.12065070245809295,-44.620240259504484 z"/><path fill="#bb8e0d" d="M 61.117193641990525,60.78756979290613 l 0.4254097005242919 0.4231153349854215 a 86.8 86.8 0.0 0 1 -38.85048799681362,22.57062484717027 l -0.15685794017765886 -0.579133479090288 a 86.2 86.2 0.0 0 0 38.58193623646699,-22.414606703065402 z"/><path fill="#f2d07c" d="M -6.601801635037855,88.95536080063759 l -0.044406737455411086 0.5983544448473325 a 89.8 89.8 0.0 0 1 -43.88643453967317,-15.321027025863815 l 0.33763458515923617 -0.4959867809774323 a 89.2 89.2 0.0 0 0 43.59320669196934,15.218659361993915 z"/><path fill="#00361e" d="M -80.33850307368148,38.76035247363047 l -0.5403935184328299 0.2607198596880949 a 89.8 89.8 0.0 0 1 -8.674818653370629,-45.66728070581185 l 0.598354444847331 0.044406737455410905 a 89.2 89.2 0.0 0 0 8.616857726956127,45.36215410866834 z"/><path fill="#000000" d="M -88.95536080063759,-6.601801635037871 l -0.5983544448473325 -0.04440673745541105 a 89.8 89.8 0.0 0 1 15.321027025863915,-43.8864345396733 l 0.4959867809774181 0.33763458515923617 a 89.2 89.2 0.0 0 0 -15.218659361994,43.59320669196948 z"/><path fill="#366990" d="M 80.3385030736815,-38.76035247363046 l 0.5403935184328302 -0.2607198596880944 a 89.8 89.8 0.0 0 1 8.674818653370584,45.667280705811706 l -0.598354444847331 -0.044406737455410905 a 89.2 89.2 0.0 0 0 -8.616857726956084,-45.3621541086682 z"/><path fill="#40ff95" d="M 88.9553608006376,6.601801635037703 l 0.5983544448473325 0.04440673745541059 a 89.8 89.8 0.0 0 1 -15.321027025863872,43.88643453967331 l -0.4959867809774181 -0.3376345851592433 a 89.2 89.2 0.0 0 0 15.218659361993957,-43.59320669196948 z"/><path fill="#ed0178" d="M 73.7367014386436,50.195008327007315 l 0.495986780977419 0.33763458515923833 a 89.8 89.8 0.0 0 1 -35.2116158863026,30.34625367994786 l -0.26071985968809486 -0.5403935184328219 a 89.2 89.2 0.0 0 0 34.97634896501328,-30.14349474667428 z"/><path fill="#80054b" d="M -6.000723035146563,92.00451794914999 l -0.039050258363209175 0.5987278825324237 a 92.8 92.8 0.0 0 1 -45.49244672760969,-15.426369115304874 l 0.33318245703309657 -0.49898842704554625 a 92.2 92.2 0.0 0 0 45.198314528939804,15.326629659817996 z"/><path fill="#f4c65f" d="M -92.00451794914999,-6.000723035146579 l -0.5987278825324237 -0.03905025836320914 a 92.8 92.8 0.0 0 1 15.426369115304874,-45.492446727609696 l 0.49898842704553203 0.33318245703309657 a 92.2 92.2 0.0 0 0 -15.326629659817982,45.19831452893981 z"/><path fill="#f95405" d="M -76.67788828933199,-51.199037564086346 l -0.4989884270455397 -0.3331824570330966 a 92.8 92.8 0.0 0 1 36.105850905814584,-31.68442998876784 l 0.2655454254993259 0.5380386854087504 a 92.2 92.2 0.0 0 0 -35.87240790426837,31.479573760392185 z"/><path fill="#932200" d="M 6.000723035146493,-92.00451794914999 l 0.039050258363208835 -0.5987278825324238 a 92.8 92.8 0.0 0 1 45.49244672760973,15.426369115304889 l -0.33318245703309657 0.49898842704553203 a 92.2 92.2 0.0 0 0 -45.19831452893985,-15.326629659817996 z"/><path fill="#dde222" d="M 82.6786113244785,-40.805480385063696 l 0.5380386854087486 -0.26554542549932747 a 92.8 92.8 0.0 0 1 9.386595821795185,47.11079910407274 l -0.5987278825324296 -0.03905025836320419 a 92.2 92.2 0.0 0 0 -9.325906624671504,-46.80620342021021 z"/><path fill="#1dff96" d="M 76.677888289332,51.19903756408633 l 0.4989884270455397 0.33318245703309657 a 92.8 92.8 0.0 0 1 -36.1058509058146,31.684429988767853 l -0.2655454254993259 -0.5380386854087504 a 92.2 92.2 0.0 0 0 35.872407904268385,-31.4795737603922 z"/><path fill="#267ab4" d="M 40.805480385063625,82.67861132447852 l 0.2655454254993268 0.5380386854087489 a 92.8 92.8 0.0 0 1 -47.11079910407267,9.386595821795128 l 0.03905025836320419 -0.5987278825324296 a 92.2 92.2 0.0 0 0 46.80620342021014,-9.325906624671447 z"/><path fill="#a25000" d="M -86.28774564923488,-40.217719363148206 l -0.5438303297220636 -0.2534730211963096 a 95.8 95.8 0.0 0 1 31.868821522713816,-37.99367633142361 l 0.34423437028961956 0.4914292403910281 a 95.2 95.2 0.0 0 0 -31.669225563281373,37.755720112228886 z"/><path fill="#2eff7c" d="M -8.314306173857641,-94.83623944910168 l -0.052401089331035135 -0.5977073914859293 a 95.8 95.8 0.0 0 1 48.83789964753327,8.602370861630707 l -0.25347302119631365 0.5438303297220557 a 95.2 95.2 0.0 0 0 -48.53202553700592,-8.548493799866833 z"/><path fill="#25b8f9" d="M 40.217719363148355,-86.28774564923482 l 0.2534730211963102 -0.5438303297220632 a 95.8 95.8 0.0 0 1 37.99367633142355,31.868821522713837 l -0.4914292403910281 0.34423437028961956 a 95.2 95.2 0.0 0 0 -37.755720112228836,-31.669225563281394 z"/><path fill="#1eca76" d="M 77.97343947537718,-54.618520085953385 l 0.49142924039102753 -0.34423437028961945 a 95.8 95.8 0.0 0 1 16.969078124819475,46.59604719305431 l -0.5977073914859261 0.05240108933103471 a 95.2 95.2 0.0 0 0 -16.862799973724577,-46.304213912095726 z"/><path fill="#000000" d="M 94.83623944910168,-8.314306173857734 l 0.5977073914859293 -0.052401089331035704 a 95.8 95.8 0.0 0 1 -8.602370861630664,48.8378996475333 l -0.5438303297220699 -0.25347302119631365 a 95.2 95.2 0.0 0 0 8.548493799866804,-48.53202553700595 z"/><path fill="#208152" d="M 54.618520085953534,77.97343947537706 l 0.34423437028961945 0.49142924039102753 a 95.8 95.8 0.0 0 1 -46.596047193054325,16.96907812481949 l -0.05240108933104182 -0.5977073914859261 a 95.2 95.2 0.0 0 0 46.30421391209575,-16.86279997372459 z"/><path fill="#ffb483" d="M -40.21771936314835,86.28774564923482 l -0.2534730211963106 0.5438303297220631 a 95.8 95.8 0.0 0 1 -37.99367633142356,-31.868821522713894 l 0.4914292403910281 -0.34423437028961956 a 95.2 95.2 0.0 0 0 37.75572011222884,31.66922556328145 z"/><path fill="#16f479" d="M -77.97343947537716,54.6185200859534 l -0.4914292403910278 0.34423437028961906 a 95.8 95.8 0.0 0 1 -16.969078124819447,-46.596047193054254 l 0.5977073914859261 -0.05240108933104182 a 95.2 95.2 0.0 0 0 16.86279997372455,46.304213912095676 z"/><path fill="#7bfbb8" d="M -7.55804122154003,-97.90871265057827 l -0.046179477932016114 -0.59822024022756 a 98.8 98.8 0.0 0 1 50.27223884314871,9.395316208743095 l -0.25911751909114855 0.5411636640611022 a 98.2 98.2 0.0 0 0 -49.96694184612555,-9.338259632576637 z"/><path fill="#a70143" d="M 97.90871265057825,-7.558041221540122 l 0.59822024022756 -0.04617947793201615 a 98.8 98.8 0.0 0 1 -9.395316208743095,50.27223884314873 l -0.5411636640611022 -0.25911751909114855 a 98.2 98.2 0.0 0 0 9.338259632576637,-49.966941846125565 z"/><path fill="#3defab" d="M -97.90871265057827,7.55804122153996 l -0.59822024022756 0.04617947793201554 a 98.8 98.8 0.0 0 1 9.395316208743095,-50.27223884314863 l 0.5411636640611022 0.25911751909116276 a 98.2 98.2 0.0 0 0 -9.338259632576637,49.96694184612545 z"/></g></svg>