<?xml version='1.0' encoding='UTF-8'?>
<svg preserveAspectRatio="xMidYMid meet" xmlns="http://www.w3.org/2000/svg" xmlns:svg="http://www.w3.org/2000/svg"><g><circle fill="#000000" r="50.0" cx="0.0" cy="0.0"/><path fill="#00000d" d="M 100.0,0.0 a 100.0 100.0 0.0 1 1 -100.0,-100.0 a 100.0 100.0 0.0 0 1 100.0,100.0 z M 50.0,0.0 a 50.0 50.0 0.0 1 0 -50.0,50.0 a 50.0 50.0 0.0 0 0 50.0,-50.0 z"/><circle fill="#000000" r="50.0" cx="0.0" cy="0.0"/><path fill="#005d87" d="M -1.0668324299563132,-52.90591157590524 l -0.050401532123920595 -2.4994918854758383 a 55.41666666666667 55.41666666666667 0.0 0 1 27.852382699638568,6.864299575858685 l -1.2060969355289473 2.1898242354371007 a 52.91666666666667 52.91666666666667 0.0 0 0 -26.5958842319857,-6.5546319258199475 z"/><path fill="#bc1367" d="M 45.28444722012898,-27.376859773875882 l 2.139422703313181 -1.2933949499468909 a 55.41666666666667 55.41666666666667 0.0 0 1 7.981533537938892,27.553020761742506 l -2.499491885475834 0.050401532123920845 a 52.91666666666667 52.91666666666667 0.0 0 0 -7.62146435577624,-26.310027343919536 z"/><path fill="#431b07" d="M 46.3512796500853,25.52905180202936 l 2.1898242354371007 1.2060969355289468 a 55.41666666666667 55.41666666666667 0.0 0 1 -19.870849161699685,20.68872118588389 l -1.2933949499468902 -2.139422703313187 a 52.91666666666667 52.91666666666667 0.0 0 0 18.974419876209474,-19.75539541809965 z"/><path fill="#00532c" d="M 27.37685977387581,45.284447220129024 l 1.2933949499468893 2.139422703313182 a 55.41666666666667 55.41666666666667 0.0 0 1 -27.55302076174251,7.981533537938878 l -0.050401532123920845 -2.499491885475834 a 52.91666666666667 52.91666666666667 0.0 0 0 26.31002734391954,-7.621464355776226 z"/><path fill="#f9be98" d="M 61.233317743236334,1.4294398049086523 l 2.499319091560667 0.05834448183300804 a 63.75 63.75 0.0 0 1 -9.282446429065809,31.666993118326463 l -2.1353015845384746 -1.300187349218362 a 61.25 61.25 0.0 0 0 8.918428922043617,-30.42515025094111 z"/><path fill="#ec3a00" d="M 69.37513498120418,5.378747448753835 l 2.492519819683983 0.19324841133247067 a 72.08333333333333 72.08333333333333 0.0 0 1 -12.41443796295148,35.187321504974285 l -2.061961277616305 -1.4136179432968987 a 69.58333333333333 69.58333333333333 0.0 0 0 11.983879420883802,-33.966951973009856 z"/><path fill="#ff7436" d="M 57.391255560320396,39.34569942176362 l 2.061961277616302 1.4136179432968965 a 72.08333333333333 72.08333333333333 0.0 0 1 -28.34487940210901,24.26589533296244 l -1.0789018763870892 -2.2552096889487743 a 69.58333333333333 69.58333333333333 0.0 0 0 27.3618200008798,-23.42430358731056 z"/><path fill="#a91e02" d="M 42.47877085156426,-65.31891740824199 l 1.3629552144886927 -2.09579414144092 a 80.41666666666666 80.41666666666666 0.0 0 1 27.83367822774867,30.952721791883604 l -2.228250910688132 1.1335333603460924 a 77.91666666666666 77.91666666666666 0.0 0 0 -26.96838253154923,-29.990461010788778 z"/><path fill="#2dff9e" d="M 69.44715338311349,-35.328456397453195 l 2.2282509106881334 -1.1335333603460924 a 80.41666666666666 80.41666666666666 0.0 0 1 8.628311530050452,40.72268250191802 l -2.4964885748347854 -0.13245676924722005 a 77.91666666666666 77.91666666666666 0.0 0 0 -8.3600738659038,-39.45669237232471 z"/><path fill="#058e23" d="M 5.283805713626732,86.08800088967477 l 0.15315378880077513 2.4953043736137617 a 88.75 88.75 0.0 0 1 -45.02006708562232,-9.149432802875124 l 1.115017115019569 -2.2375738721243152 a 86.25 86.25 0.0 0 0 43.75189618180198,8.891702301385678 z"/><path fill="#f6d2b3" d="M -86.08800088967477,5.283805713626737 l -2.4953043736137617 0.15315378880077526 a 88.75 88.75 0.0 0 1 9.14943280287511,-45.02006708562233 l 2.2375738721243152 1.115017115019576 a 86.25 86.25 0.0 0 0 -8.891702301385664,43.75189618180198 z"/><path fill="#ea0464" d="M -77.1962985882891,-38.46809046817524 l -2.2375738721243223 -1.1150171150195716 a 88.75 88.75 0.0 0 1 30.433674780319656,-34.413805374791046 l 1.380287258594194 2.0844200833235362 a 86.25 86.25 0.0 0 0 -29.576388166789528,33.44440240648708 z"/><path fill="#f3ebcd" d="M -14.80506966874491,93.41743336523464 l -0.39132342736770653 2.4691832607551008 a 97.08333333333334 97.08333333333334 0.0 0 1 -45.907377684010214,-20.444567292999594 l 1.5734876595739848 -1.942713716729358 a 94.58333333333334 94.58333333333334 0.0 0 0 44.72521345180394,19.91809774897385 z"/><path fill="#00ac5b" d="M -88.30440528500569,33.88715024468572 l -2.3340371440970666 0.8956956011811206 a 97.08333333333334 97.08333333333334 0.0 0 1 -5.248174196886978,-49.97923894197947 l 2.469183260755102 0.391323427367702 a 94.58333333333334 94.58333333333334 0.0 0 0 5.113028080228943,48.69221991343065 z"/><path fill="#0c0007" d="M -93.41743336523464,-14.805069668744926 l -2.4691832607551008 -0.39132342736770637 a 97.08333333333334 97.08333333333334 0.0 0 1 20.44456729299968,-45.90737768401035 l 1.942713716729358 1.5734876595739848 a 94.58333333333334 94.58333333333334 0.0 0 0 -19.918097748973935,44.72521345180407 z"/><path fill="#680636" d="M -73.49933561626074,-59.53028312054891 l -1.9427137167293589 -1.5734876595739797 a 97.08333333333334 97.08333333333334 0.0 0 1 40.65920348712327,-29.534671648979884 l 0.8956956011811243 2.334037144097067 a 94.58333333333334 94.58333333333334 0.0 0 0 -39.61218537157504,28.7741221644568 z"/><path fill="#797200" d="M 59.53028312054884,-73.4993356162608 l 1.5734876595739777 -1.9427137167293604 a 97.08333333333334 97.08333333333334 0.0 0 1 29.53467164897996,40.65920348712333 l -2.334037144097067 0.8956956011811172 a 94.58333333333334 94.58333333333334 0.0 0 0 -28.77412216445687,-39.61218537157509 z"/></g></svg>