<?xml version='1.0' encoding='UTF-8'?>
<svg xmlns="http://www.w3.org/2000/svg" xmlns:svg="http://www.w3.org/2000/svg"><g><path fill="#ff0000" d="M 205.0,100.0 a 105.0 105.0 0.0 1 1 -105.0,-105.0 a 105.0 105.0 0.0 0 1 105.0,105.0 z M 200.0,100.0 a 100.0 100.0 0.0 1 0 -100.0,100.0 a 100.0 100.0 0.0 0 0 100.0,-100.0 z"/><path fill="#00ff00" d="M 210.0,100.0 a 110.0 110.0 0.0 1 1 -110.0,-110.0 a 110.0 110.0 0.0 0 1 110.0,110.0 z M 205.0,100.0 a 105.0 105.0 0.0 1 0 -105.0,105.0 a 105.0 105.0 0.0 0 0 105.0,-105.0 z"/><path fill="#0000ff" d="M 215.0,100.0 a 115.0 115.0 0.0 1 1 -115.0,-115.0 a 115.0 115.0 0.0 0 1 115.0,115.0 z M 210.0,100.0 a 110.0 110.0 0.0 1 0 -110.0,110.0 a 110.0 110.0 0.0 0 0 110.0,-110.0 z"/><path fill="#ff0000" d="M 220.0,100.0 a 120.0 120.0 0.0 1 1 -120.0,-120.0 a 120.0 120.0 0.0 0 1 120.0,120.0 z M 215.0,100.0 a 115.0 115.0 0.0 1 0 -115.0,115.0 a 115.0 115.0 0.0 0 0 115.0,-115.0 z"/><path fill="#00ff00" d="M 225.0,100.0 a 125.0 125.0 0.0 1 1 -125.0,-125.0 a 125.0 125.0 0.0 0 1 125.0,125.0 z M 220.0,100.0 a 120.0 120.0 0.0 1 0 -120.0,120.0 a 120.0 120.0 0.0 0 0 120.0,-120.0 z"/><path fill="#0000ff" d="M 230.0,100.0 a 130.0 130.0 0.0 1 1 -130.0,-130.0 a 130.0 130.0 0.0 0 1 130.0,130.0 z M 225.0,100.0 a 125.0 125.0 0.0 1 0 -125.0,125.0 a 125.0 125.0 0.0 0 0 125.0,-125.0 z"/><path fill="#ff0000" d="M 235.0,100.0 a 135.0 135.0 0.0 1 1 -135.0,-135.0 a 135.0 135.0 0.0 0 1 135.0,135.0 z M 230.0,100.0 a 130.0 130.0 0.0 1 0 -130.0,130.0 a 130.0 130.0 0.0 0 0 130.0,-130.0 z"/><path fill="#00ff00" d="M 240.0,100.0 a 140.0 140.0 0.0 1 1 -140.0,-140.0 a 140.0 140.0 0.0 0 1 140.0,140.0 z M 235.0,100.0 a 135.0 135.0 0.0 1 0 -135.0,135.0 a 135.0 135.0 0.0 0 0 135.0,-135.0 z"/><path fill="#0000ff" d="M 245.0,100.0 a 145.0 145.0 0.0 1 1 -145.0,-145.0 a 145.0 145.0 0.0 0 1 145.0,145.0 z M 240.0,100.0 a 140.0 140.0 0.0 1 0 -140.0,140.0 a 140.0 140.0 0.0 0 0 140.0,-140.0 z"/><path fill="#ff0000" d="M 250.0,100.0 a 150.0 150.0 0.0 1 1 -150.0,-150.0 a 150.0 150.0 0.0 0 1 150.0,150.0 z M 245.0,100.0 a 145.0 145.0 0.0 1 0 -145.0,145.0 a 145.0 145.0 0.0 0 0 145.0,-145.0 z"/></g></svg>