<?xml version='1.0' encoding='UTF-8'?>
<svg preserveAspectRatio="xMidYMid meet" xmlns="http://www.w3.org/2000/svg" xmlns:svg="http://www.w3.org/2000/svg"><g><circle fill="#072ac9" r="10000.0" cx="0.0" cy="0.0"/><path fill="#e10849" d="M -10000.0,0.0 a 12500.0 12500.0 0.0 0 1 20000.0,0.0 a 12500.0 12500.0 0.0 0 1 -20000.0,-0.0 z"/><path fill="#fbec3a" d="M 0.0,0.0 l -1791.9270845454284 4667.86860608485 a 5000.0 5000.0 0.0 0 1 -3146.529252124622,-3885.788679988147 l 4938.45633667005 -782.0799260967032 z"/><path fill="#fffd1f" d="M 0.0,0.0 l -4938.45633667005 782.0799260967043 a 5000.0 5000.0 0.0 0 1 1791.9270845454257,-4667.868606084855 l 3146.5292521246247 3885.7886799881503 z"/><path fill="#2c2800" d="M 0.0,0.0 l -3146.5292521246206 -3885.788679988153 a 5000.0 5000.0 0.0 0 1 4938.4563366700495,-782.0799260966965 l -1791.9270845454291 4667.8686060848495 z"/><path fill="#000000" d="M 0.0,0.0 l 1791.9270845454291 -4667.8686060848495 a 5000.0 5000.0 0.0 0 1 3146.529252124622,3885.7886799881503 l -4938.456336670051 782.0799260966993 z"/><path fill="#3b3907" d="M 0.0,0.0 l 4938.456336670051 -782.0799260966993 a 5000.0 5000.0 0.0 0 1 -1791.927084545427,4667.86860608485 l -3146.5292521246242 -3885.7886799881508 z"/><path fill="#a6a61d" d="M 0.0,0.0 l 3146.5292521246247 3885.7886799881503 a 5000.0 5000.0 0.0 0 1 -4938.456336670054,782.0799260966992 l 1791.9270845454296 -4667.8686060848495 z"/><circle fill="#040566" r="2500.0" cx="0.0" cy="0.0"/></g></svg>