<?xml version='1.0' encoding='UTF-8'?>
<svg xmlns="http://www.w3.org/2000/svg" xmlns:svg="http://www.w3.org/2000/svg"><g><path fill="#ff0000" d="M 0.0,0.0 l 100.0 0.0 a 100.0 100.0 0.0 0 1 -1.5192246987791975,17.364817766693033 l -98.4807753012208 -17.364817766693033 z"/><path fill="#00ff00" d="M 0.0,0.0 l 98.4807753012208 17.364817766693033 a 100.0 100.0 0.0 0 1 -4.511513222629958,16.837196565873835 l -93.96926207859084 -34.20201433256687 z"/><path fill="#0000ff" d="M 0.0,0.0 l 93.96926207859084 34.20201433256687 a 100.0 100.0 0.0 0 1 -7.366721700146968,15.797985667433124 l -86.60254037844388 -49.99999999999999 z"/><path fill="#ff0000" d="M 0.0,0.0 l 86.60254037844388 49.99999999999999 a 100.0 100.0 0.0 0 1 -9.998096066546069,14.278760968653934 l -76.60444431189781 -64.27876096865393 z"/><path fill="#00ff00" d="M 0.0,0.0 l 76.60444431189781 64.27876096865393 a 100.0 100.0 0.0 0 1 -12.325683343243867,12.325683343243881 l -64.27876096865394 -76.60444431189781 z"/><path fill="#0000ff" d="M 0.0,0.0 l 64.27876096865394 76.60444431189781 a 100.0 100.0 0.0 0 1 -14.278760968653927,9.998096066546054 l -50.000000000000014 -86.60254037844386 z"/><path fill="#ff0000" d="M 0.0,0.0 l 50.000000000000014 86.60254037844386 a 100.0 100.0 0.0 0 1 -15.797985667433132,7.366721700146968 l -34.20201433256688 -93.96926207859083 z"/><path fill="#00ff00" d="M 0.0,0.0 l 34.20201433256688 93.96926207859083 a 100.0 100.0 0.0 0 1 -16.837196565873843,4.511513222629972 l -17.36481776669304 -98.4807753012208 z"/><path fill="#0000ff" d="M 0.0,0.0 l 17.36481776669304 98.4807753012208 a 100.0 100.0 0.0 0 1 -17.364817766693033,1.5192246987791975 l -6.123233995736766E-15 -100.0 z"/></g></svg>