<?xml version='1.0' encoding='UTF-8'?>
<svg preserveAspectRatio="xMidYMid meet" xmlns="http://www.w3.org/2000/svg" xmlns:svg="http://www.w3.org/2000/svg"><g><path fill="#800000" d="M 0.0,0.0 l 10.0 0.0 a 60.0 60.0 0.0 1 1 -120.0,7.34788079488412E-15 l 10.0 -1.2246467991473538E-15 a 50.0 50.0 0.0 1 0 100.0,-6.123233995736766E-15 z"/><path fill="#807f00" d="M 10.0,0.0 l -10.000000000000007 1.224646799147354E-15 a 69.61425532269081 69.61425532269081 0.0 0 1 105.31868480867519,-59.760674855737314 l -5.1288962756951975 8.5845455903711 a 59.6142553226908 59.6142553226908 0.0 0 0 -90.18978853297999,51.176129265366214 z"/><path fill="#008000" d="M 135.0443584727014,-116.61280289695087 l 4.12309395581127 -9.110438860535353 a 42.128950550335894 42.128950550335894 0.0 1 1 -38.977663895532686,74.54711249212001 l 5.128896275695205 -8.584545590371093 a 32.12895055033589 32.12895055033589 0.0 1 0 29.72567366402621,-56.85212804121356 z"/><path fill="#008080" d="M 139.16745242851266,-125.72324175748622 l -4.123093955811271 9.110438860535353 a 20.87772654178799 20.87772654178799 0.0 0 1 12.002075949410038,-39.62053182287052 l -1.6256526452073752 9.866977930305229 a 10.877726541787982 10.877726541787982 0.0 0 0 -6.253329348391391,20.643115032029932 z"/><path fill="#000080" d="M 147.3045644071048,-181.67848822484737 l -1.4251463051507989 -9.897926955121218 a 22.87390637725147 22.87390637725147 0.0 1 1 -0.45863632504994833,45.21005839045243 l 1.6256526452073756 -9.866977930305229 a 12.873906377251462 12.873906377251462 0.0 1 0 0.2581299849933716,-25.44515350502599 z"/><path fill="#7f0080" d="M 145.879418101954,-191.5764151799686 l 1.4251463051507975 9.897926955121218 a 25.37990128237305 25.37990128237305 0.0 1 1 15.924163060213584,-41.31596522590176 l -7.699466635653149 6.381082472940161 a 15.379901282373044 15.379901282373044 0.0 1 0 -9.649842729711231,25.03695579784039 z"/></g></svg>