<?xml version='1.0' encoding='UTF-8'?>
<svg preserveAspectRatio="xMidYMid meet" xmlns="http://www.w3.org/2000/svg" xmlns:svg="http://www.w3.org/2000/svg"><g><circle fill="#000000" r="70.0" cx="0.0" cy="0.0"/><path fill="#00001a" d="M 100.0,0.0 a 100.0 100.0 0.0 1 1 -100.0,-100.0 a 100.0 100.0 0.0 0 1 100.0,100.0 z M 70.0,0.0 a 70.0 70.0 0.0 1 0 -70.0,70.0 a 70.0 70.0 0.0 0 0 70.0,-70.0 z"/><circle fill="#000000" r="70.0" cx="0.0" cy="0.0"/><path fill="#d90368" d="M -39.94100855139718,61.99821236049647 l -2.0308987399015512 3.1524514759574482 a 77.5 77.5 0.0 0 1 -26.952162586478288,-29.71448752631416 l 3.3350356392472804 -1.7146536924261184 a 73.75 73.75 0.0 0 0 25.64802568713256,28.27668974278283 z"/><path fill="#00cc66" d="M -74.7531725875961,20.450261320801506 l -3.617088996174005 0.9895287735871701 a 81.25 81.25 0.0 0 1 -0.2202708962008013,-42.05751801272728 l 3.627255345229429 0.9515874423848558 a 77.5 77.5 0.0 0 0 0.2101045471453773,40.116401796755255 z"/><path fill="#d90368" d="M 74.96327713474147,19.666140475953735 l 3.6272553452294263 0.9515874423848578 a 81.25 81.25 0.0 0 1 -20.83799881453933,36.53301446724371 l -2.6655015537891487 -2.637726571642247 a 77.5 77.5 0.0 0 0 19.876245023099052,-34.84687533798632 z"/><path fill="#00cc66" d="M -19.666140475953732,74.96327713474147 l -0.9515874423848576 3.6272553452294263 a 81.25 81.25 0.0 0 1 -36.53301446724371,-20.83799881453933 l 2.6377265716422613 -2.6655015537891487 a 77.5 77.5 0.0 0 0 34.846875337986305,19.876245023099052 z"/><path fill="#d90368" d="M -75.6882928044646,29.54394747398581 l -3.49330582174452 1.3635668064916533 a 85.0 85.0 0.0 0 1 -4.845434436589707,-43.731621058858344 l 3.7070749880646616 0.5657694166932714 a 81.25 81.25 0.0 0 0 4.631665270269565,41.80228483567342 z"/><path fill="#f75c03" d="M -63.429955442777064,-50.77601060074842 l -2.9275364050512502 -2.343508181573003 a 85.0 85.0 0.0 0 1 35.44997756735102,-26.062079843887783 l 1.3635668064916473 3.493305821744528 a 81.25 81.25 0.0 0 0 -33.88600796879142,24.91228220371626 z"/><path fill="#2274a5" d="M -29.54394747398566,-75.68829280446465 l -1.363566806491647 -3.493305821744522 a 85.0 85.0 0.0 0 1 43.7316210588582,-4.845434436589647 l -0.5657694166932785 3.7070749880646616 a 81.25 81.25 0.0 0 0 -41.80228483567328,4.631665270269508 z"/><path fill="#f75c03" d="M 12.2583373616876,-80.31995807473416 l 0.5657694166932734 -3.7070749880646536 a 85.0 85.0 0.0 0 1 40.295412003940555,17.669541214970486 l -2.343508181573 2.9275364050512493 a 81.25 81.25 0.0 0 0 -38.51767323906083,-16.89000263195708 z"/><path fill="#2274a5" d="M 80.31995807473416,12.258337361687596 l 3.7070749880646536 0.5657694166932733 a 85.0 85.0 0.0 0 1 -17.6695412149705,40.29541200394057 l -2.9275364050512493 -2.343508181573007 a 81.25 81.25 0.0 0 0 16.890002631957096,-38.517673239060834 z"/><path fill="#f75c03" d="M -82.11636326942863,-21.95228651879418 l -3.6227807324747925 -0.9684832287703324 a 88.75 88.75 0.0 0 1 22.947252071305122,-39.79877112907186 l 2.653178532278801 2.6501214454916777 a 85.0 85.0 0.0 0 0 -21.97764987110913,38.11713291235051 z"/><path fill="#00cc66" d="M -22.046943838283926,-82.09099991711365 l -0.9726592869831149 -3.6216617610491317 a 88.75 88.75 0.0 0 1 45.940372872831546,-0.02648232374064552 l -0.9684832287703244 3.6227807324747943 a 85.0 85.0 0.0 0 0 -43.999230357078105,0.02536335231498299 z"/><path fill="#d90368" d="M 4.3104536012795975,-88.64526208292925 l 0.18213184230758817 -3.745574454208279 a 92.5 92.5 0.0 0 1 45.59352594780036,14.624317740874586 l -2.0305180293805805 3.1526967079566077 a 88.75 88.75 0.0 0 0 -43.74513976072737,-14.031439994622914 z"/><path fill="#00cc66" d="M -92.44553046496283,-3.173940303728262 l -3.747791775606601 -0.1286732555565498 a 96.25 96.25 0.0 0 1 14.538768285456044,-47.65419480222347 l 3.1813462579914216 1.9853301959029253 a 92.5 92.5 0.0 0 0 -13.972322767840865,45.797537861877096 z"/><path fill="#00cc66" d="M -43.47405229935754,-81.64714800085014 l -1.7624615797036844 -3.310019513547978 a 96.25 96.25 0.0 0 1 48.53912743834603,-11.236154726171328 l -0.1286732555565493 3.7477917756066006 a 92.5 92.5 0.0 0 0 -46.6479926030858,10.798382464112706 z"/><path fill="#2274a5" d="M 48.971478165605326,-78.47320769712196 l 1.9853301959029184 -3.181346257991431 a 96.25 96.25 0.0 0 1 34.00035915288987,36.41804007605215 l -3.310019513547985 1.7624615797036896 a 92.5 92.5 0.0 0 0 -32.675669835244804,-34.99915539776441 z"/><path fill="#d90368" d="M 81.64714800085012,-43.474052299357545 l 3.310019513547978 -1.7624615797036847 a 96.25 96.25 0.0 0 1 11.236154726171328,48.53912743834605 l -3.7477917756066006 -0.1286732555565564 a 92.5 92.5 0.0 0 0 -10.798382464112706,-46.64799260308581 z"/><path fill="#f75c03" d="M -69.68497112966996,66.39327751103318 l -2.7149988751819465 2.5867510718584357 a 100.0 100.0 0.0 0 1 -24.790257544027,-45.4415564787567 l 3.6446335330829527 -0.8826927039050574 a 96.25 96.25 0.0 0 0 23.860622886125995,43.73749811080332 z"/><path fill="#f75c03" d="M -22.655779400229846,-93.54559401579596 l -0.8826927039050595 -3.6446335330829593 a 100.0 100.0 0.0 0 1 51.7486710701223,1.2517854398921524 l -1.05788246122453 3.597691579086998 a 96.25 96.25 0.0 0 0 -49.80809590499271,-1.2048434858961912 z"/></g></svg>