<?xml version='1.0' encoding='UTF-8'?>
<svg xmlns="http://www.w3.org/2000/svg" xmlns:svg="http://www.w3.org/2000/svg"><g><path fill="#ffd6d9" d="M 100.0,100.0 l 9.311227031093212 -1.9533586812184112 a 9.51391396650465 9.51391396650465 0.0 0 1 -3.5584021558590297,9.530928536847526 l -5.752824875234182 -7.577569855629115 z"/><path fill="#fe7cb6" d="M 100.0,100.0 l 5.752824875234182 7.577569855629115 a 9.51391396650465 9.51391396650465 0.0 0 1 -5.773458198470287,1.9363217365651373 l 0.020633323236104253 -9.513891592194252 z"/><path fill="#e64a2d" d="M 100.0,100.0 l -0.020633323236104253 9.513891592194252 a 9.51391396650465 9.51391396650465 0.0 0 1 -0.7708775834679908,-0.03295970515800484 l 0.7915109067040951 -9.480931887036247 z"/><path fill="#000000" d="M 100.0,100.0 l -0.7915109067040951 9.480931887036247 a 9.51391396650465 9.51391396650465 0.0 0 1 -7.2808856137348315,-4.445956874302051 l 8.072396520438927 -5.034975012734196 z"/><path fill="#f7afb1" d="M 100.0,100.0 l -8.072396520438927 5.034975012734196 a 9.51391396650465 9.51391396650465 0.0 0 1 -1.441517436287457,-5.034543666996013 l 9.513913956726384 -4.313457381831979E-4 z"/><path fill="#ffd6d9" d="M 100.0,100.0 l -9.513913956726384 4.313457381831979E-4 a 9.51391396650465 9.51391396650465 0.0 0 1 5.775889404091572E-6,-0.010923659849806392 l 9.51390818083698 0.010492314111623194 z"/><path fill="#fe7cb6" d="M 100.0,100.0 l -9.51390818083698 -0.010492314111623194 a 9.51391396650465 9.51391396650465 0.0 0 1 6.10986900612936,-8.873598875149556 l 3.4040391747076195 8.884091189261179 z"/><path fill="#e64a2d" d="M 100.0,100.0 l -3.4040391747076195 -8.884091189261179 a 9.51391396650465 9.51391396650465 0.0 0 1 3.746197958894709,-0.6236680803278354 l -0.3421587841870893 9.507759269589014 z"/><path fill="#000000" d="M 100.0,100.0 l 0.3421587841870893 -9.507759269589014 a 9.51391396650465 9.51391396650465 0.0 0 1 3.1996678808398125,0.6776956890162982 l -3.541826665026902 8.830063580572716 z"/><path fill="#f7afb1" d="M 100.0,100.0 l 3.541826665026902 -8.830063580572716 a 9.51391396650465 9.51391396650465 0.0 0 1 2.2805634154653345,1.3058139360807264 l -5.822390080492236 7.52424964449199 z"/><path fill="#ffd6d9" d="M 100.0,100.0 l 5.822390080492236 -7.52424964449199 a 9.51391396650465 9.51391396650465 0.0 0 1 3.4888369506009775,5.5708909632735955 l -9.311227031093214 1.9533586812183945 z"/><path fill="#d61600" d="M 90.57916542821013,101.32756729886702 l -2.3981480777545454 0.3379427737114886 a 11.93575614161467 11.93575614161467 0.0 0 1 0.11354415246449934,-3.9989590784862696 l 2.375109234306924 0.4734719065072528 a 9.51391396650465 9.51391396650465 0.0 0 0 -0.09050530901687814,3.1875443982675282 z"/><path fill="#791601" d="M 90.66967073722701,98.14002290059949 l -2.3751092343069238 -0.4734719065072532 a 11.93575614161467 11.93575614161467 0.0 0 1 1.1435741199755927,-3.226163889946335 l 2.1430706436000477 1.1280814410676712 a 9.51391396650465 9.51391396650465 0.0 0 0 -0.9115355292687166,2.571554355385917 z"/><path fill="#040000" d="M 91.58120626649573,95.56846854521358 l -2.1430706436000473 -1.128081441067672 a 11.93575614161467 11.93575614161467 0.0 0 1 0.7519400079763296,-1.239479583593523 l 1.9904971490628771 1.3795798710890912 a 9.51391396650465 9.51391396650465 0.0 0 0 -0.5993665134391595,0.9879811535721039 z"/><path fill="#ffffff" d="M 92.18057277993489,94.58048739164147 l -1.990497149062877 -1.3795798710890912 a 11.93575614161467 11.93575614161467 0.0 0 1 0.8197977773533791,-1.0520156293456502 l 1.8241548739108584 1.5930406514363966 a 9.51391396650465 9.51391396650465 0.0 0 0 -0.6534555022013606,0.8385548489983448 z"/><path fill="#cf1a00" d="M 92.83402828213625,93.74193254264313 l -1.824154873910858 -1.5930406514363962 a 11.93575614161467 11.93575614161467 0.0 0 1 8.921977383570544,-4.084453476549651 l 0.013827915439183158 2.4218026983832193 a 9.51391396650465 9.51391396650465 0.0 0 0 -7.11165042509887,3.2556914296028276 z"/><path fill="#d61600" d="M 99.94567870723512,90.48624111304031 l -0.013827915439183084 -2.4218026983832193 a 11.93575614161467 11.93575614161467 0.0 0 1 6.160857944109316,1.6719766886552012 l -1.2362500374677108 2.082547806414709 a 9.51391396650465 9.51391396650465 0.0 0 0 -4.910779991202422,-1.332721796686691 z"/><path fill="#791601" d="M 104.85645869843755,91.818962909727 l 1.236250037467711 -2.0825478064147096 a 11.93575614161467 11.93575614161467 0.0 0 1 0.17808782031891002,0.10782863619487637 l -1.272385208880773 2.0606686782117745 a 9.51391396650465 9.51391396650465 0.0 0 0 -0.14195264890584802,-0.08594950799194123 z"/><path fill="#040000" d="M 104.99841134734339,91.90491241771893 l 1.272385208880773 -2.060668678211776 a 11.93575614161467 11.93575614161467 0.0 0 1 2.0604084907582694,1.6086341052158484 l -1.6904554276141557 1.734266406406893 a 9.51391396650465 9.51391396650465 0.0 0 0 -1.6423382720248867,-1.2822318334109655 z"/><path fill="#ffffff" d="M 106.64074961936828,93.18714425112991 l 1.6904554276141557 -1.734266406406893 a 11.93575614161467 11.93575614161467 0.0 1 1 -18.733644204426724,14.399603188801315 l 2.1107222346540357 -1.1875062817849482 a 9.51391396650465 9.51391396650465 0.0 1 0 14.932466542158535,-11.477830500609475 z"/><path fill="#cf1a00" d="M 91.70828307720974,104.66497475173938 l -2.1107222346540353 1.187506281784947 a 11.93575614161467 11.93575614161467 0.0 0 1 -0.9665906212952309,-2.218277329516223 l 2.306849727956015 -0.7374034538642311 a 9.51391396650465 9.51391396650465 0.0 0 0 0.770463127993251,1.7681745015955066 z"/><path fill="#d61600" d="M 90.93781994921649,102.89680025014387 l -2.3068497279560147 0.7374034538642311 a 11.93575614161467 11.93575614161467 0.0 0 1 -0.44995287080488433,-1.9686936314295842 l 2.398148077754545 -0.3379427737114886 a 9.51391396650465 9.51391396650465 0.0 0 0 0.3586545210063541,1.5692329512768417 z"/><path fill="#f68346" d="M 88.09994582492456,99.07751135380322 l -11.711288211492354 -0.9078555650669049 a 23.68217999313913 23.68217999313913 0.0 0 1 30.473766056102612,-20.83577126111595 l -3.403780272527392 11.242453164501782 a 11.93575614161467 11.93575614161467 0.0 0 0 -15.358697572082868,10.501173661681076 z"/><path fill="#7d1c00" d="M 103.45864339700744,88.57633769212214 l 3.4037802725273894 -11.24245316450178 a 23.68217999313913 23.68217999313913 0.0 0 1 3.4591104332935574,1.3515293166132043 l -5.119508187375935 10.572091052344065 a 11.93575614161467 11.93575614161467 0.0 0 0 -1.7433825184450114,-0.6811672044554893 z"/><path fill="#fc2f81" d="M 105.20202591545244,89.25750489657763 l 5.119508187375932 -10.572091052344069 a 23.68217999313913 23.68217999313913 0.0 0 1 0.3768023223969674,0.18661306414839451 l -5.306403134901702 10.47953047944268 a 11.93575614161467 11.93575614161467 0.0 0 0 -0.1899073748711979,-0.09405249124700532 z"/><path fill="#bb071a" d="M 105.39193329032364,89.35155738782464 l 5.306403134901698 -10.479530479442682 a 23.68217999313913 23.68217999313913 0.0 0 1 1.1195244288361552,0.6052097771547498 l -5.861690209700346 10.179344830840826 a 11.93575614161467 11.93575614161467 0.0 0 0 -0.5642373540375072,-0.30502412855289407 z"/><path fill="#ffffff" d="M 105.95617064436114,89.65658151637753 l 5.8616902097003445 -10.179344830840828 a 23.68217999313913 23.68217999313913 0.0 0 1 2.1950559795641675,1.4313042020400104 l -6.950443775514544 9.469414164723911 a 11.93575614161467 11.93575614161467 0.0 0 0 -1.106302413749968,-0.7213735359230942 z"/><path fill="#f68346" d="M 107.06247305811111,90.37795505230062 l 6.950443775514541 -9.469414164723913 a 23.68217999313913 23.68217999313913 0.0 0 1 2.4645041769655673,2.0814548188563275 l -8.172844359197155 8.437007074786766 a 11.93575614161467 11.93575614161467 0.0 0 0 -1.2421035932829536,-1.0490477289191809 z"/><path fill="#7d1c00" d="M 108.30457665139406,91.4270027812198 l 8.172844359197153 -8.43700707478677 a 23.68217999313913 23.68217999313913 0.0 0 1 6.409598388183065,10.924776913462798 l -11.352022095683331 3.018288859400336 a 11.93575614161467 11.93575614161467 0.0 0 0 -3.230420651696887,-5.506058698076364 z"/><path fill="#fc2f81" d="M 111.53499730309093,96.93306147929617 l 11.352022095683328 -3.018288859400346 a 23.68217999313913 23.68217999313913 0.0 0 1 -42.467513918972344,19.40625900576788 l 9.711977019148208 -6.607266884211638 a 11.93575614161467 11.93575614161467 0.0 0 0 21.403514804140812,-9.780703262155894 z"/><path fill="#bb071a" d="M 90.13148249895013,106.71376474145205 l -9.71197701914821 6.60726688421164 a 23.68217999313913 23.68217999313913 0.0 0 1 -4.0822010742967585,-12.36057005448358 l 11.736759538313674 -0.4763914771127977 a 11.93575614161467 11.93575614161467 0.0 0 0 2.057418555131294,6.229694647384737 z"/><path fill="#ffffff" d="M 88.07406394381883,100.48407009406732 l -11.736759538313674 0.476391477112801 a 23.68217999313913 23.68217999313913 0.0 0 1 0.009560705295008631,-2.133005447014601 l 11.732017403225298 0.5815848606019931 a 11.93575614161467 11.93575614161467 0.0 0 0 -0.004818570206632344,1.075029109299807 z"/><path fill="#f68346" d="M 88.07888251402547,99.4090409847675 l -11.7320174032253 -0.5815848606019902 a 23.68217999313913 23.68217999313913 0.0 0 1 0.04179250263204004,-0.6578003354291695 l 11.711288211492354 0.9078555650668869 a 11.93575614161467 11.93575614161467 0.0 0 0 -0.021063310899094745,0.3315296309642728 z"/><path fill="#ffffff" d="M 112.72912594734468,119.97035307259428 l 3.323756480967468 5.214544244971521 a 29.86593522984917 29.86593522984917 0.0 0 1 -9.437527318256251,3.9391677132880316 l -1.3697122320020254 -6.030150680459226 a 23.68217999313913 23.68217999313913 0.0 0 0 7.483483069290808,-3.123561277800327 z"/><path fill="#690307" d="M 105.24564287805386,123.09391435039461 l 1.3697122320020274 6.0301506804592275 a 29.86593522984917 29.86593522984917 0.0 0 1 -28.438984922707583,-8.735262492355252 l 4.518592305896718 -4.2215106775454 a 23.68217999313913 23.68217999313913 0.0 0 0 22.55068038480884,6.926622489441424 z"/><path fill="#f95e74" d="M 82.69496249324504,116.16729186095318 l -4.5185923058967195 4.221510677545401 a 29.86593522984917 29.86593522984917 0.0 0 1 -4.745571510848807,-6.7487281917493895 l 5.501165008058891 -2.8241834893730413 a 23.68217999313913 23.68217999313913 0.0 0 0 3.7629988086866355,5.351401003577029 z"/><path fill="#c70405" d="M 78.93196368455841,110.81589085737616 l -5.50116500805889 2.824183489373042 a 29.86593522984917 29.86593522984917 0.0 0 1 -2.0948354615962304,-22.027391101001903 l 5.934901626584228 1.7365976823394433 a 23.68217999313913 23.68217999313913 0.0 0 0 1.6610988430708922,17.46660992928942 z"/><path fill="#fabed1" d="M 77.27086484148752,93.34928092808674 l -5.93490162658423 -1.7365976823394411 a 29.86593522984917 29.86593522984917 0.0 0 1 2.703760001068586,-6.37879703544146 l 5.375086910026987 3.0573304592725012 a 23.68217999313913 23.68217999313913 0.0 0 0 -2.143945284511343,5.0580642585084 z"/><path fill="#ffffff" d="M 79.41481012599887,88.29121666957835 l -5.375086910026988 -3.0573304592725004 a 29.86593522984917 29.86593522984917 0.0 0 1 21.015154742223476,-14.687576219287813 l 1.023889728777604 6.098399679493184 a 23.68217999313913 23.68217999313913 0.0 0 0 -16.663957560974094,11.646506999067128 z"/><path fill="#690307" d="M 96.07876768697297,76.64470967051123 l -1.0238897287776083 -6.098399679493185 a 29.86593522984917 29.86593522984917 0.0 0 1 28.821358204878855,11.51213394941303 l -4.943585368080949 3.714807200385346 a 23.68217999313913 23.68217999313913 0.0 0 0 -22.853883108020298,-9.128541470305192 z"/><path fill="#f95e74" d="M 118.93265079499325,85.77325114081643 l 4.943585368080951 -3.7148072003853425 a 29.86593522984917 29.86593522984917 0.0 0 1 3.712569625957604,6.503379531440347 l -5.712274568318058 2.3682795619786123 a 23.68217999313913 23.68217999313913 0.0 0 0 -2.943880425720497,-5.1568518930336165 z"/><path fill="#c70405" d="M 121.87653122071376,90.93010303385006 l 5.712274568318057 -2.3682795619786137 a 29.86593522984917 29.86593522984917 0.0 0 1 2.166679591788374,8.872016574941247 l -6.160886546107502 0.5313245651486582 a 23.68217999313913 23.68217999313913 0.0 0 0 -1.7180676139989295,-7.035061578111291 z"/><path fill="#fabed1" d="M 123.59459883471268,97.96516461196136 l 6.160886546107504 -0.5313245651486588 a 29.86593522984917 29.86593522984917 0.0 0 1 -0.098275370806439,6.09092683561889 l -6.140538586661833 -0.7298045582592163 a 23.68217999313913 23.68217999313913 0.0 0 0 0.07792741136076842,-4.829797712211015 z"/><path fill="#ffffff" d="M 123.51667142335192,102.79496232417235 l 6.140538586661836 0.7298045582592138 a 29.86593522984917 29.86593522984917 0.0 0 1 -13.604327581701611,21.66013043513423 l -3.3237564809674662 -5.2145442449715205 a 23.68217999313913 23.68217999313913 0.0 0 0 10.78754547600724,-17.175390748421925 z"/><path fill="#500700" d="M 129.74284364081734,102.70875235328678 l 3.298708476720026 0.300421320067054 a 33.17829550372268 33.17829550372268 0.0 0 1 -10.178257116658312,21.03389256693931 l -2.282560599964075 -2.4003432445021318 a 29.86593522984917 29.86593522984917 0.0 0 0 9.16210923990236,-18.933970642504235 z"/><path fill="#ff3b4a" d="M 120.58073440091498,121.64272299579099 l 2.2825605999640755 2.4003432445021327 a 33.17829550372268 33.17829550372268 0.0 0 1 -28.062382211060807,8.725345144961274 l 0.5190516774280205 -3.271439429378841 a 29.86593522984917 29.86593522984917 0.0 0 0 25.260769933668712,-7.854248960084565 z"/><path fill="#fe3a2a" d="M 95.31996446724628,129.49697195587555 l -0.5190516774280202 3.271439429378839 a 33.17829550372268 33.17829550372268 0.0 0 1 -23.53961783647969,-16.188721256263975 l 2.8691330725066493 -1.6552359336916123 a 29.86593522984917 29.86593522984917 0.0 0 0 21.18953644140106,14.572517760576746 z"/><path fill="#000000" d="M 74.13042802584522,114.92445419529881 l -2.869133072506649 1.655235933691612 a 33.17829550372268 33.17829550372268 0.0 0 1 -2.5177270996004215,-5.451584179707117 l 3.1204907477143884 -1.1109761821768593 a 29.86593522984917 29.86593522984917 0.0 0 0 2.266369424392682,4.907324428192364 z"/><path fill="#9a000e" d="M 71.86405860145254,110.01712976710645 l -3.12049074771439 1.1109761821768598 a 33.17829550372268 33.17829550372268 0.0 0 1 -0.30926493413136136,-0.9101775701449353 l 3.1513662603459522 -1.0201084633942443 a 29.86593522984917 29.86593522984917 0.0 0 0 0.2783894214997993,0.8193098513623198 z"/><path fill="#500700" d="M 71.58566917995275,109.19781991574413 l -3.15136626034595 1.0201084633942443 a 33.17829550372268 33.17829550372268 0.0 0 1 -1.6039372478408738,-10.9759858067657 l 3.3114955840762157 0.07568078077747309 a 29.86593522984917 29.86593522984917 0.0 0 0 1.443807924110608,9.880196562593982 z"/><path fill="#ff3b4a" d="M 70.14186125584214,99.31762335315015 l -3.311495584076219 -0.07568078077747252 a 33.17829550372268 33.17829550372268 0.0 0 1 1.809519933550312,-10.074417713571655 l 3.130841881055165 1.0814618346323392 a 29.86593522984917 29.86593522984917 0.0 0 0 -1.6288662305292583,9.06863665971679 z"/><path fill="#fe3a2a" d="M 71.7707274863714,90.24898669343337 l -3.1308418810551655 -1.081461834632337 a 33.17829550372268 33.17829550372268 0.0 0 1 26.29206377501315,-21.956458288371472 l 0.5059696191051586 3.2734882508538163 a 29.86593522984917 29.86593522984917 0.0 0 0 -23.667191513063145,19.76443187214999 z"/><path fill="#000000" d="M 95.43791899943454,70.48455482128338 l -0.5059696191051581 -3.2734882508538146 a 33.17829550372268 33.17829550372268 0.0 0 1 23.483437535855806,5.190512872235269 l -1.8385030069533776 2.7552925937836044 a 29.86593522984917 29.86593522984917 0.0 0 0 -21.13896490979727,-4.672317215165059 z"/><path fill="#9a000e" d="M 116.57688390923181,75.15687203644845 l 1.8385030069533752 -2.7552925937836044 a 33.17829550372268 33.17829550372268 0.0 0 1 12.604459002155062,15.826910385111107 l -3.0968711249816607 1.1752105424945025 a 29.86593522984917 29.86593522984917 0.0 0 0 -11.346090884126777,-14.246828333822005 z"/><path fill="#500700" d="M 127.92297479335858,89.40370037027046 l 3.096871124981658 -1.1752105424945036 a 33.17829550372268 33.17829550372268 0.0 0 1 2.0217061991971326,14.780683845577906 l -3.2987084767200265 -0.30042132006705735 a 29.86593522984917 29.86593522984917 0.0 0 0 -1.819868847458764,-13.305051983016345 z"/><path fill="#ff4761" d="M 79.18448514332238,74.16371478358822 l -0.5029766765550017 -0.6242962983213984 a 33.98000081445482 33.98000081445482 0.0 0 1 11.608505690227343,-6.1025361228485675 l 0.2290920256293738 0.7682761541588725 a 33.17829550372268 33.17829550372268 0.0 0 0 -11.334621039301716,5.958556267011094 z"/><path fill="#ff6965" d="M 90.51910618262409,68.20515851657713 l -0.22909202562937364 -0.7682761541588712 a 33.98000081445482 33.98000081445482 0.0 0 1 22.938045822366554,1.2636146937206179 l -0.3120955174205271 0.7384631292502917 a 33.17829550372268 33.17829550372268 0.0 0 0 -22.396858279316653,-1.2338016688120383 z"/><path fill="#be0b15" d="M 112.91596446194072,69.43896018538916 l 0.3120955174205267 -0.7384631292502889 a 33.98000081445482 33.98000081445482 0.0 0 1 6.446501652811328,3.59477266305542 l -0.46419070537896445 0.6536500549192183 a 33.17829550372268 33.17829550372268 0.0 0 0 -6.294406464852891,-3.5099595887243495 z"/><path fill="#8d0b2c" d="M 119.21037092679364,72.94891977411352 l 0.46419070537896384 -0.6536500549192169 a 33.98000081445482 33.98000081445482 0.0 0 1 6.274008379933048,5.765902379634634 l -0.6122161826364767 0.5176125490887351 a 33.17829550372268 33.17829550372268 0.0 0 0 -6.125982902675535,-5.629864873804152 z"/><path fill="#ff885a" d="M 125.33635382946918,78.57878464791767 l 0.6122161826364741 -0.5176125490887354 a 33.98000081445482 33.98000081445482 0.0 0 1 0.16740759383676262,0.19955079644044493 l -0.6161659046440917 0.5129044581695901 a 33.17829550372268 33.17829550372268 0.0 0 0 -0.16345787182914506,-0.19484270552129956 z"/><path fill="#ff4761" d="M 125.49981170129831,78.77362735343897 l 0.6161659046440949 -0.5129044581695886 a 33.98000081445482 33.98000081445482 0.0 0 1 7.694712661488946,25.12714944444074 l -0.7977106915014645 -0.07993158274654277 a 33.17829550372268 33.17829550372268 0.0 0 0 -7.513167874631577,-24.534313403524607 z"/><path fill="#ff6965" d="M 133.01297957592988,103.30794075696357 l 0.7977106915014667 0.07993158274654062 a 33.98000081445482 33.98000081445482 0.0 0 1 -2.2003614646914316,9.079186990100618 l -0.7457965823345489 -0.29414088976920105 a 33.17829550372268 33.17829550372268 0.0 0 0 2.148447355524514,-8.864977683077958 z"/><path fill="#be0b15" d="M 130.86453222040538,112.17291844004153 l 0.7457965823345519 0.294140889769201 a 33.98000081445482 33.98000081445482 0.0 0 1 -25.26476479673257,20.915185543714696 l -0.14971372104978897 -0.7876021882813262 a 33.17829550372268 33.17829550372268 0.0 0 0 24.668681935447808,-20.42172424520257 z"/><path fill="#8d0b2c" d="M 106.19585028495754,132.59464268524408 l 0.1497137210497867 0.7876021882813314 a 33.98000081445482 33.98000081445482 0.0 0 1 -40.308329541428044,-34.46437820005756 l 0.8012986711087535 0.025531254090850553 a 33.17829550372268 33.17829550372268 0.0 0 0 39.357317149269505,33.651244757685376 z"/><path fill="#ff885a" d="M 66.83853313568808,98.94339792755873 l -0.8012986711087594 -0.025531254090846858 a 33.98000081445482 33.98000081445482 0.0 0 1 0.8274591974146249,-6.447270981701437 l 0.7817760573041355 0.17764459316882864 a 33.17829550372268 33.17829550372268 0.0 0 0 -0.807936583610001,6.2951576426234555 z"/><path fill="#ff4761" d="M 67.64646971929808,92.64824028493527 l -0.781776057304134 -0.17764459316882833 a 33.98000081445482 33.98000081445482 0.0 0 1 11.816814804773449,-18.931177206499644 l 0.5029766765550008 0.6242962983214007 a 33.17829550372268 33.17829550372268 0.0 0 0 -11.538015424024316,18.484525501347072 z"/><path fill="#d81c13" d="M 66.73781564188496,106.9474849461598 l -23.3380604044742 4.87462944667056 a 57.821709555340696 57.821709555340696 0.0 0 1 11.402803708682512,-47.88513448378786 l 18.636325935836524 14.869916990302976 a 33.98000081445482 33.98000081445482 0.0 0 0 -6.701069240044838,28.140588046814322 z"/><path fill="#ee2808" d="M 73.4388848819298,78.80689689934547 l -18.63632593583652 -14.869916990302974 a 57.821709555340696 57.821709555340696 0.0 0 1 1.531457636076727,-1.8399083982235585 l 18.00485780407191 15.628569068868234 a 33.98000081445482 33.98000081445482 0.0 0 0 -0.8999895043121171,1.0812563196582978 z"/><path fill="#ff2342" d="M 74.33887438624191,77.72564057968717 l -18.00485780407191 -15.628569068868233 a 57.821709555340696 57.821709555340696 0.0 0 1 69.52948171859131,-13.81195864739398 l -10.664333487355236 21.32367386159589 a 33.98000081445482 33.98000081445482 0.0 0 0 -40.86029042716417,8.116853854666324 z"/><path fill="#410800" d="M 115.19916481340609,69.60878672502085 l 10.664333487355242 -21.32367386159589 a 57.821709555340696 57.821709555340696 0.0 0 1 29.872776261641057,36.32600173812351 l -22.98181832806265 6.3453212701294905 a 33.98000081445482 33.98000081445482 0.0 0 0 -17.55529142093365,-21.34764914665711 z"/><path fill="#ff2a01" d="M 132.75445623433973,90.95643587167797 l 22.98181832806265 -6.34532127012949 a 57.821709555340696 57.821709555340696 0.0 0 1 -1.3950002734286713,35.14682062844715 l -22.406615857082258 -8.146817876839027 a 33.98000081445482 33.98000081445482 0.0 0 0 0.8197978024482779,-20.654681481478633 z"/><path fill="#d81c13" d="M 131.93465843189145,111.61111735315659 l 22.406615857082258 8.146817876839023 a 57.821709555340696 57.821709555340696 0.0 0 1 -14.888908226832683,22.513342347113415 l -16.26745089389177 -17.429776736953748 a 33.98000081445482 33.98000081445482 0.0 0 0 8.749743263642195,-13.230383486998692 z"/><path fill="#ee2808" d="M 123.18491516824926,124.84150084015528 l 16.267450893891773 17.42977673695374 a 57.821709555340696 57.821709555340696 0.0 0 1 -88.80267668246167,-12.13994940226667 l 20.348684622612566 -12.42409392328813 a 33.98000081445482 33.98000081445482 0.0 0 0 52.18654116595732,7.134266588601058 z"/><path fill="#ff2342" d="M 70.99837400229195,117.70723425155421 l -20.348684622612563 12.424093923288137 a 57.821709555340696 57.821709555340696 0.0 0 1 -0.9453297653954209,-1.6059245126168662 l 20.738473805671504 -11.761920757117473 a 33.98000081445482 33.98000081445482 0.0 0 0 0.5555405823364801,0.9437513464462022 z"/><path fill="#410800" d="M 70.44283341995546,116.76348290510802 l -20.738473805671504 11.76192075711748 a 57.821709555340696 57.821709555340696 0.0 0 1 -1.6787561769189345,-3.1874440393171 l 21.430677756832047 -10.44763736775249 a 33.98000081445482 33.98000081445482 0.0 0 0 0.9865522257583912,1.8731606499521103 z"/><path fill="#ff2a01" d="M 69.45628119419709,114.89032225515592 l -21.430677756832043 10.447637367752497 a 57.821709555340696 57.821709555340696 0.0 0 1 -3.1076414671334796,-7.750487309090225 l 22.712056036725052 -7.2518677780207135 a 33.98000081445482 33.98000081445482 0.0 0 0 1.826263187240471,4.554717719358441 z"/><path fill="#d81c13" d="M 67.63001800695662,110.33560453579749 l -22.712056036725055 7.251867778020703 a 57.821709555340696 57.821709555340696 0.0 0 1 -1.51820673282079,-5.765357920987761 l 23.33806040447419 -4.874629446670581 a 33.98000081445482 33.98000081445482 0.0 0 0 0.892202365071654,3.388119589637639 z"/><path fill="#fa1900" d="M 120.44087621192853,154.08808256530074 l 8.931351406860943 23.63302176019747 a 83.08608675864424 83.08608675864424 0.0 0 1 -19.242383737685913,4.745155901393506 l -3.0802292755248892 -25.075903634385803 a 57.821709555340696 57.821709555340696 0.0 0 0 13.391261606349858,-3.302274027205172 z"/><path fill="#ffa5a8" d="M 107.04961460557867,157.39035659250592 l 3.080229275524889 25.075903634385806 a 83.08608675864424 83.08608675864424 0.0 0 1 -68.4289179670609,-23.267309445775556 l 17.727273672059496 -18.000903411404394 a 57.821709555340696 57.821709555340696 0.0 0 0 47.621415019476515,16.192309222794144 z"/><path fill="#ff9ac2" d="M 59.428199586102146,141.1980473697118 l -17.727273672059496 18.00090341140439 a 83.08608675864424 83.08608675864424 0.0 0 1 -19.622160575985852,-30.36183924713374 l 23.693876332930657 -8.768636141988832 a 57.821709555340696 57.821709555340696 0.0 0 0 13.655557915114692,21.129571977718182 z"/><path fill="#f43253" d="M 45.772641670987454,120.06847539199359 l -23.69387633293065 8.768636141988832 a 83.08608675864424 83.08608675864424 0.0 0 1 -4.946369891684064,-22.81565586208585 l 25.19794229157406 -1.8309723485916791 a 57.821709555340696 57.821709555340696 0.0 0 0 3.4423039330406553,15.877992068688698 z"/><path fill="#d5042c" d="M 42.330337737946806,104.19048332330495 l -25.19794229157406 1.8309723485916802 a 83.08608675864424 83.08608675864424 0.0 0 1 21.399078366107112,-61.922422579447556 l 18.69102388037406 16.99806994261673 a 57.821709555340696 57.821709555340696 0.0 0 0 -14.892159954907115,43.093380288239146 z"/><path fill="#fa1900" d="M 57.2224976928539,61.09710303506577 l -18.691023880374065 -16.998069942616734 a 83.08608675864424 83.08608675864424 0.0 0 1 10.177845834188634,-9.46388543495289 l 15.59619842519325 19.875798101027378 a 57.821709555340696 57.821709555340696 0.0 0 0 -7.08302037900782,6.586157276542245 z"/><path fill="#ffa5a8" d="M 64.30551807186174,54.51094575852351 l -15.596198425193256 -19.875798101027375 a 83.08608675864424 83.08608675864424 0.0 0 1 26.14748454656327,-13.825535442172825 l 7.645409812162374 24.079793692531823 a 57.821709555340696 57.821709555340696 0.0 0 0 -18.196695933532386,9.621539850668377 z"/><path fill="#ff9ac2" d="M 82.50221400539412,44.889405907855135 l -7.645409812162372 -24.07979369253182 a 83.08608675864424 83.08608675864424 0.0 0 1 13.739928683846282,-3.1094500753594936 l 3.4674450703210766 25.025298802514023 a 57.821709555340696 57.821709555340696 0.0 0 0 -9.561963942004986,2.16394496537729 z"/><path fill="#f43253" d="M 92.06417794739912,42.725460942477845 l -3.467445070321077 -25.025298802514026 a 83.08608675864424 83.08608675864424 0.0 0 1 17.829611711370287,-0.5373513009649251 l -1.954088825877644 25.1886937400768 a 57.821709555340696 57.821709555340696 0.0 0 0 -12.408077815171566,0.37395636340215077 z"/><path fill="#d5042c" d="M 104.47225576257068,42.351504579075694 l 1.9540888258776434 -25.188693740076797 a 83.08608675864424 83.08608675864424 0.0 0 1 76.45499703445428,88.66651362037615 l -25.20211938684212 -1.7725501070944603 a 57.821709555340696 57.821709555340696 0.0 0 0 -53.20696647348981,-61.7052697732049 z"/><path fill="#fa1900" d="M 157.67922223606047,104.05677435228063 l 25.20211938684212 1.7725501070944591 a 83.08608675864424 83.08608675864424 0.0 0 1 -53.509114004113016,71.89177986612314 l -8.93135140686098 -23.633021760197458 a 57.821709555340696 57.821709555340696 0.0 0 0 37.23834602413187,-50.03130821302015 z"/><path fill="#b90008" d="M 183.08595312372933,100.1490180741218 l 4.310405953952968 0.007730890358618306 a 87.39649964542654 87.39649964542654 0.0 0 1 -0.0024680603466320505,0.5185014506263584 l -4.310284228721784 -0.03330348587059573 a 83.08608675864424 83.08608675864424 0.0 0 0 0.002346335115447573,-0.492928855114381 z"/><path fill="#a53904" d="M 183.08360678861388,100.64194692923616 l 4.310284228721791 0.03330348587059469 a 87.39649964542654 87.39649964542654 0.0 0 1 -174.16451221702653,9.76541272919615 l 4.279544436340899 -0.5149355997818947 a 83.08608675864424 83.08608675864424 0.0 0 0 165.57468355196383,-9.28378061528485 z"/><path fill="#f4240f" d="M 17.50892323665005,109.92572754452094 l -4.279544436340882 0.5149355997818964 a 87.39649964542654 87.39649964542654 0.0 0 1 16.022785219537578,-61.75237578769815 l 3.489297456511707 2.530703956317268 a 83.08608675864424 83.08608675864424 0.0 0 0 -15.232538239708404,58.70673623159899 z"/><path fill="#f5466d" d="M 32.74146147635847,51.21899131292195 l -3.489297456511709 -2.5307039563172653 a 87.39649964542654 87.39649964542654 0.0 0 1 64.31759466614457,-35.847911879182014 l 0.3171407909638617 4.298730158226476 a 83.08608675864424 83.08608675864424 0.0 0 0 -61.14543800059673,34.079885677272806 z"/><path fill="#9b0400" d="M 93.8868994769552,17.139105635649173 l -0.31714079096385817 -4.298730158226468 a 87.39649964542654 87.39649964542654 0.0 0 1 15.229812140415302,0.20724845645650358 l -0.4339965976003626 4.288508622797707 a 83.08608675864424 83.08608675864424 0.0 0 0 -14.47867475185108,-0.19702692102774222 z"/><path fill="#b90008" d="M 108.36557422880625,17.336132556676915 l 0.4339965976003631 -4.2885086227977025 a 87.39649964542654 87.39649964542654 0.0 0 1 19.114049965422723,4.133429414023122 l -1.3767053745401512 4.084647055285345 a 83.08608675864424 83.08608675864424 0.0 0 0 -18.171341188482934,-3.929567846510764 z"/><path fill="#a53904" d="M 126.53691541728917,21.265700403187694 l 1.3767053745401576 -4.0846470552853384 a 87.39649964542654 87.39649964542654 0.0 0 1 0.2917693579688254,0.098912097156167 l -1.3910954977791832 4.079768690820288 a 83.08608675864424 83.08608675864424 0.0 0 0 -0.27737923472979986,-0.09403373269111626 z"/><path fill="#f4240f" d="M 126.81429465201903,21.359734135878824 l 1.3910954977791818 -4.079768690820281 a 87.39649964542654 87.39649964542654 0.0 0 1 38.236947674993914,25.943596707457196 l -3.2769494241742763 2.8002252991398464 a 83.08608675864424 83.08608675864424 0.0 0 0 -36.35109374859882,-24.664053315776762 z"/><path fill="#f5466d" d="M 163.16538840061787,46.0237874516556 l 3.276949424174267 -2.800225299139853 a 87.39649964542654 87.39649964542654 0.0 0 1 1.0381781787714837,1.237909687603746 l -3.328152580121099 2.7391713451283337 a 83.08608675864424 83.08608675864424 0.0 0 0 -0.9869750228246517,-1.1768557335922267 z"/><path fill="#9b0400" d="M 164.1523634234425,47.20064318524781 l 3.328152580121108 -2.7391713451283315 a 87.39649964542654 87.39649964542654 0.0 0 1 18.789512255781965,41.55173530359057 l -4.254855092146883 0.6898314282277056 a 83.08608675864424 83.08608675864424 0.0 0 0 -17.862809743756188,-39.50239538668994 z"/><path fill="#b90008" d="M 182.01517316719867,86.70303857193784 l 4.254855092146883 -0.6898314282277067 a 87.39649964542654 87.39649964542654 0.0 0 1 1.1263308183367258,14.143541820770155 l -4.310405953952966 -0.007730890358612186 a 83.08608675864424 83.08608675864424 0.0 0 0 -1.070779956530643,-13.445979502183835 z"/><path fill="#ed0916" d="M 12.927019752231189,92.48706042585826 l -8.13287549664453 -0.7017309157954761 a 95.55959281665179 95.55959281665179 0.0 0 1 23.786660980337217,-55.274969598310655 l 6.100921151805537 5.423546000685889 a 87.39649964542654 87.39649964542654 0.0 0 0 -21.754706635498223,50.55315451342024 z"/><path fill="#ad0a00" d="M 34.68172638772941,41.933905912438036 l -6.1009211518055375 -5.423546000685896 a 95.55959281665179 95.55959281665179 0.0 0 1 1.3396043044358672,-1.4756335607824127 l 5.986486646306275 5.54960068434665 a 87.39649964542654 87.39649964542654 0.0 0 0 -1.225169798936605,1.3495788771216581 z"/><path fill="#4e0600" d="M 35.90689618666603,40.58432703531637 l -5.986486646306275 -5.549600684346652 a 95.55959281665179 95.55959281665179 0.0 0 1 3.852389781224815,-3.9229958138120775 l 5.657399677755123 5.884719110394343 a 87.39649964542654 87.39649964542654 0.0 0 0 -3.5233028126736627,3.5878773877643866 z"/><path fill="#fbac96" d="M 39.430198999339694,36.99644964755199 l -5.657399677755126 -5.884719110394342 a 95.55959281665179 95.55959281665179 0.0 0 1 61.82351101310355,-26.569801419697043 l 0.37618127050912875 8.15442075035513 a 87.39649964542654 87.39649964542654 0.0 0 0 -56.542292605857554,24.300099779736257 z"/><path fill="#fa8b78" d="M 95.97249160519725,12.69634986781574 l -0.37618127050912453 -8.154420750355131 a 95.55959281665179 95.55959281665179 0.0 0 1 92.54152647259873,58.534399583271764 l -7.529096269262837 3.154171759793165 a 87.39649964542654 87.39649964542654 0.0 0 0 -84.63624893282677,-53.5341505927098 z"/><path fill="#ed0916" d="M 180.60874053802402,66.23050046052555 l 7.529096269262829 -3.1541717597931664 a 95.55959281665179 95.55959281665179 0.0 0 1 3.3130778739135645,9.204256023037653 l -7.812112998103146 2.3679063805336753 a 87.39649964542654 87.39649964542654 0.0 0 0 -3.0300611450732475,-8.417990643778161 z"/><path fill="#ad0a00" d="M 183.63880168309726,74.64849110430364 l 7.812112998103144 -2.3679063805336735 a 95.55959281665179 95.55959281665179 0.0 0 1 -39.46367557386246,107.90022812619277 l -4.440963633679431 -6.849374579218235 a 87.39649964542654 87.39649964542654 0.0 0 0 36.092526209438745,-98.68294716644087 z"/><path fill="#4e0600" d="M 147.5462754736585,173.33143827074457 l 4.440963633679425 6.849374579218237 a 95.55959281665179 95.55959281665179 0.0 0 1 -94.6259440274619,5.338638867286219 l 3.6423734206483402 -7.305423053229603 a 87.39649964542654 87.39649964542654 0.0 0 0 86.54260697313413,-4.882590393274853 z"/><path fill="#fbac96" d="M 61.00366850052448,178.21402866401945 l -3.6423734206483487 7.3054230532296085 a 95.55959281665179 95.55959281665179 0.0 0 1 -43.46126182241445,-44.06548319530797 l 7.3550130326242 -3.5411683682130217 a 87.39649964542654 87.39649964542654 0.0 0 0 39.7486222104386,40.30122851029138 z"/><path fill="#fa8b78" d="M 21.255046290085886,137.9128001537281 l -7.355013032624193 3.541168368213019 a 95.55959281665179 95.55959281665179 0.0 0 1 -9.297830797905853,-35.89555114676036 l 8.149271953748084 -0.4748228574520539 a 87.39649964542654 87.39649964542654 0.0 0 0 8.503571876781962,32.829205635999394 z"/><path fill="#ed0916" d="M 12.75147441330391,105.08359451772867 l -8.149271953748093 0.47482285745205455 a 95.55959281665179 95.55959281665179 0.0 0 1 0.19194179603085537,-13.773087865117997 l 8.13287549664453 0.7017309157954834 a 87.39649964542654 87.39649964542654 0.0 0 0 -0.17554533892729296,12.59653409187046 z"/><path fill="#fcc8b2" d="M 190.3916703224979,130.99970508880912 l 4.200267188088351 1.4404761374625545 a 100.00000000000003 100.00000000000003 0.0 0 1 -0.28670583155718976,0.8242634251073779 l -4.187536281748805 -1.477076789800737 a 95.55959281665179 95.55959281665179 0.0 0 0 0.27397492521764377,-0.7876627727691954 z"/><path fill="#000000" d="M 190.11769539728027,131.7873678615783 l 4.187536281748808 1.4770767898007335 a 100.00000000000003 100.00000000000003 0.0 0 1 -32.88719190250363,45.65212135354257 l -2.727211050108515 -3.504216865734307 a 95.55959281665179 95.55959281665179 0.0 0 0 31.42686667086334,-43.624981277608995 z"/><path fill="#ff6d6a" d="M 158.69082872641692,175.41234913918728 l 2.7272110501085147 3.5042168657342936 a 100.00000000000003 100.00000000000003 0.0 0 1 -54.47846397501784,20.842354837753618 l -0.30814542238403675 -4.429702287128833 a 95.55959281665179 95.55959281665179 0.0 0 0 52.05939834729336,-19.916869416359077 z"/><path fill="#ffffff" d="M 106.63143037912353,195.32921855554636 l 0.30814542238403964 4.429702287128834 a 100.00000000000003 100.00000000000003 0.0 0 1 -98.5493440153868,-59.663405285454374 l 4.067846728417763 -1.7804041530033459 a 95.55959281665179 95.55959281665179 0.0 0 0 94.17335186458499,57.014107151328886 z"/><path fill="#feb0bc" d="M 12.458078514538585,138.31511140421748 l -4.067846728417765 1.7804041530033445 a 100.00000000000003 100.00000000000003 0.0 0 1 -1.918110970219045,-75.48669829140941 l 4.1530186657239625 1.5715126204007959 a 95.55959281665179 95.55959281665179 0.0 0 0 1.8329390329128472,72.13478151800527 z"/><path fill="#fcc8b2" d="M 10.625139481625723,66.1803298862122 l -4.1530186657239625 -1.5715126204008127 a 100.00000000000003 100.00000000000003 0.0 0 1 130.9408057544975,-57.34647372443623 l -1.6612862789328062 4.117929559057586 a 95.55959281665179 95.55959281665179 0.0 0 0 -125.1265008098407,54.800056785779454 z"/><path fill="#000000" d="M 135.75164029146652,11.380273100432788 l 1.6612862789328102 -4.117929559057591 a 100.00000000000003 100.00000000000003 0.0 0 1 18.949054709190353,10.13422392559264 l -2.502701465416287 3.6679287518889794 a 95.55959281665179 95.55959281665179 0.0 0 0 -18.107639522706876,-9.684223118424029 z"/><path fill="#ff6d6a" d="M 153.85927981417336,21.06449621885686 l 2.5027014654162865 -3.667928751888979 a 100.00000000000003 100.00000000000003 0.0 0 1 29.39160665899209,31.161016613288055 l -3.807808478803622 2.284252731788193 a 95.55959281665179 95.55959281665179 0.0 0 0 -28.086499645604754,-29.77734059318727 z"/><path fill="#ffffff" d="M 181.94577945977807,50.84183681204407 l 3.8078084788036315 -2.2842527317881975 a 100.00000000000003 100.00000000000003 0.0 0 1 9.624804330945556,21.393085010717346 l -4.235188981698144 1.3343126482325083 a 95.55959281665179 95.55959281665179 0.0 0 0 -9.197423828051043,-20.443144927161658 z"/><path fill="#feb0bc" d="M 191.1432032878291,71.28498173920573 l 4.23518898169815 -1.334312648232509 a 100.00000000000003 100.00000000000003 0.0 0 1 3.091453503925174,47.47601944565076 l -4.372462105156316 -0.7738159295999765 a 95.55959281665179 95.55959281665179 0.0 0 0 -2.954180380467008,-45.367890867818275 z"/><path fill="#fcc8b2" d="M 194.09738366829612,116.65287260702398 l 4.372462105156315 0.773815929599974 a 100.00000000000003 100.00000000000003 0.0 0 1 -3.877908262866156,15.013492689647753 l -4.200267188088361 -1.4404761374625572 a 95.55959281665179 95.55959281665179 0.0 0 0 3.705713345798202,-14.346832481785171 z"/></g></svg>