<?xml version='1.0' encoding='UTF-8'?>
<svg xmlns="http://www.w3.org/2000/svg" xmlns:svg="http://www.w3.org/2000/svg"><g><path fill="#05ff3c" d="M 100.0,100.0 l 2.2038117180983248 -0.9254417741967306 a 2.3902360900663937 2.3902360900663937 0.0 0 1 0.018930741579787913,0.04643976953463902 l -2.2227424596781127 0.8790020046620916 z"/><path fill="#0aa000" d="M 102.20381171809832,99.07455822580327 l 9.679698814227171 -4.06477448629698 a 12.888757926906177 12.888757926906177 0.0 0 1 0.1020793496561776,0.2504149904692672 l -9.762847422303562 3.860799265362352 a 2.3902360900663937 2.3902360900663937 0.0 0 0 -0.018930741579787913,-0.04643976953463902 z"/><path fill="#03491a" d="M 111.88351053232549,95.00978373950629 l 0.45976869373044704 -0.1930696493497067 a 13.387419276154963 13.387419276154963 0.0 0 1 0.10602876251028515,0.2601034552327216 l -0.4637181065845528 0.18338118458625186 a 12.888757926906177 12.888757926906177 0.0 0 0 -0.10207934965617937,-0.25041499046926674 z"/><path fill="#00e22e" d="M 112.34327922605594,94.81671409015658 l 17.9283146889944 -7.528597483117675 a 32.83232214684111 32.83232214684111 0.0 0 1 0.26003297691356053,0.6378974362084753 l -18.082318903397677 7.150803502141922 a 13.387419276154963 13.387419276154963 0.0 0 0 -0.10602876251028448,-0.2601034552327217 z"/><path fill="#0e6e15" d="M 130.27159391505035,87.28811660703892 l 0.8863721496354653 -0.37221229382746085 a 33.793674100771455 33.793674100771455 0.0 0 1 0.2676469132450887,0.6565754920573279 l -0.8939860859669935 0.35353423797860906 a 32.83232214684111 32.83232214684111 0.0 0 0 -0.26003297691356053,-0.6378974362084762 z"/><path fill="#30ff14" d="M 131.1579660646858,86.91590431321146 l 0.4267908259714111 -0.17922132637478286 a 34.2565679254882 34.2565679254882 0.0 0 1 0.27131304623128266,0.6655690314939497 l -0.43045695895760616 0.17022778693815965 a 33.793674100771455 33.793674100771455 0.0 0 0 -0.2676469132450876,-0.6565754920573266 z"/><path fill="#03693a" d="M 131.58475689065722,86.73668298683667 l 20.015876519523882 -8.405222699475829 a 55.96562321291633 55.96562321291633 0.0 0 1 0.4432494157370357,1.087353109038732 l -20.187812889029633 7.983438621931047 a 34.2565679254882 34.2565679254882 0.0 0 0 -0.2713130462312847,-0.6655690314939502 z"/><path fill="#00fe10" d="M 151.6006334101811,78.33146028736084 l 23.65243379052015 -9.932314140727824 a 81.61885865028448 81.61885865028448 0.0 0 1 0.6464238104206999,1.5857684523934221 l -23.855608185203813 9.433898797373132 a 55.96562321291633 55.96562321291633 0.0 0 0 -0.4432494157370357,-1.0873531090387303 z"/><path fill="#32ec58" d="M 175.25306720070125,68.39914614663303 l 1.944460377101404 -0.8165329399340647 a 83.72780440589668 83.72780440589668 0.0 0 1 0.6631267241082559,1.6267430470197488 l -1.96116329078896 0.7755583453077399 a 81.61885865028448 81.61885865028448 0.0 0 0 -0.6464238104206999,-1.585768452393424 z"/><path fill="#3ef71b" d="M 177.19752757780265,67.58261320669897 l 9.729422985600024 -4.085655047461916 a 94.28025667063463 94.28025667063463 0.0 0 1 0.746702462792399,1.831766079362172 l -9.81299872428417 3.8806320151194953 a 83.72780440589668 83.72780440589668 0.0 0 0 -0.6631267241082526,-1.626743047019751 z"/><path fill="#05ff3c" d="M 186.92695056340267,63.49695815923704 l 5.273636954172143 -2.214546687114387 a 99.99999999999997 99.99999999999997 0.0 0 1 0.7920030016475055,1.9428946675032837 l -5.318937493027249 2.103418098973272 a 94.28025667063463 94.28025667063463 0.0 0 0 -0.746702462792399,-1.8317660793621684 z"/><path fill="#2affa4" d="M 100.0,100.0 l 4.116185239135346 -1.627779710153394 a 4.4263582895720015 4.4263582895720015 0.0 0 1 0.3023188010003812,1.891350867465861 l -4.418504040135727 -0.26357115731246716 z"/><path fill="#53ff09" d="M 104.11618523913535,98.37222028984661 l 21.195009440748052 -8.381742880795768 a 27.2185069138937 27.2185069138937 0.0 0 1 1.8590149818225825,11.630271047872206 l -22.751705621570252 -1.3571772996105782 a 4.4263582895720015 4.4263582895720015 0.0 0 0 -0.3023188010003812,-1.891350867465861 z"/><path fill="#66ff11" d="M 125.3111946798834,89.99047740905084 l 1.9811619120473916 -0.7834669665247803 a 29.348958276723376 29.348958276723376 0.0 0 1 2.0045241022924882,12.540597499003518 l -2.1266710325172973 -0.12685948460652874 a 27.2185069138937 27.2185069138937 0.0 0 0 -1.8590149818225825,-11.630271047872208 z"/><path fill="#00f125" d="M 127.2923565919308,89.20701044252606 l 11.636821892155586 -4.601878065793444 a 41.86266697887009 41.86266697887009 0.0 0 1 2.85920625032683,17.887614676708935 l -12.49150404018993 -0.7451391119119766 a 29.348958276723376 29.348958276723376 0.0 0 0 -2.0045241022924856,-12.540597499003516 z"/><path fill="#46ff47" d="M 138.92917848408638,84.60513237673263 l 5.954459045762621 -2.354740386190144 a 48.265821265158934 48.265821265158934 0.0 0 1 3.2965395613269353,20.62363616923506 l -6.391792356762728 -0.381281106335976 a 41.86266697887009 41.86266697887009 0.0 0 0 -2.859206250326828,-17.88761467670894 z"/><path fill="#49be00" d="M 144.883637529849,82.25039199054248 l 12.817446337314177 -5.0687658284889725 a 62.049119768564644 62.049119768564644 0.0 0 1 4.237934271103779,26.513139882111858 l -13.758841047091018 -0.8207378843878281 a 48.265821265158934 48.265821265158934 0.0 0 0 -3.296539561326938,-20.623636169235056 z"/><path fill="#b8d0ad" d="M 157.70108386716316,77.1816261620535 l 16.45056330270122 -6.50551216940763 a 79.73930692310009 79.73930692310009 0.0 0 1 5.446168178112842,34.07202884489377 l -17.65879720971028 -1.0533767933742872 a 62.049119768564644 62.049119768564644 0.0 0 0 -4.237934271103782,-26.513139882111858 z"/><path fill="#23fe01" d="M 174.15164716986442,70.67611399264588 l 1.1017665891240656 -0.4357027672247804 a 80.92409657458992 80.92409657458992 0.0 0 1 5.527088917791761,34.57828088969301 l -1.1826873288029844 -0.07054927757445739 a 79.73930692310009 79.73930692310009 0.0 0 0 -5.446168178112842,-34.07202884489377 z"/><path fill="#00c647" d="M 175.25341375898847,70.2404112254211 l 2.997293538504785 -1.1853046750580247 a 84.14724964707608 84.14724964707608 0.0 0 1 5.747229202099582,35.95551087443774 l -3.217433822812609 -0.1919253096867024 a 80.92409657458992 80.92409657458992 0.0 0 0 -5.527088917791758,-34.57828088969301 z"/><path fill="#3ae842" d="M 178.25070729749325,69.05510655036306 l 5.460359467879857 -2.1593445959263726 a 90.01907173246164 90.01907173246164 0.0 0 1 6.148272700255473,38.46449796230247 l -5.8614029660357545 -0.3496424919383614 a 84.14724964707608 84.14724964707608 0.0 0 0 -5.747229202099575,-35.955510874437735 z"/><path fill="#2affa4" d="M 183.71106676537312,66.8957619544367 l 9.281523753849235 -3.6704558148107598 a 99.99999999999997 99.99999999999997 0.0 0 1 6.829966785847624,42.72927638780775 l -9.963217839441384 -0.5943226106945261 a 90.01907173246164 90.01907173246164 0.0 0 0 -6.148272700255475,-38.46449796230247 z"/><path fill="#aaffb4" d="M 100.0,100.0 l 3.788204629995882 0.22597274312637866 a 3.7949384710899197 3.7949384710899197 0.0 0 1 -1.048618366588733,2.400093726845231 l -2.739586263407149 -2.62606646997161 z"/><path fill="#00c60f" d="M 103.78820462999589,100.22597274312638 l 6.320649452045208 0.3770373130610028 a 10.126823390375774 10.126823390375774 0.0 0 1 -2.7982464230305584,6.404669134234969 l -4.571021395603383 -4.3816127204507405 a 3.7949384710899197 3.7949384710899197 0.0 0 0 1.048618366588733,-2.400093726845231 z"/><path fill="#93ad06" d="M 110.10885408204109,100.60301005618739 l 21.06980799302926 1.256849292572692 a 31.234084676657332 31.234084676657332 0.0 0 1 -8.630610247054653,19.753872498140367 l -15.237444169005165 -14.606052656478091 a 10.126823390375774 10.126823390375774 0.0 0 0 2.798246423030558,-6.404669134234969 z"/><path fill="#02ff2e" d="M 131.17866207507035,101.85985934876008 l 5.756356379796723 0.3433762873462065 a 37.000673446973636 37.000673446973636 0.0 0 1 -10.224035527381083,23.400928606788508 l -4.162931099470292 -3.990432395994347 a 31.234084676657332 31.234084676657332 0.0 0 0 8.630610247054651,-19.753872498140367 z"/><path fill="#56e360" d="M 136.93501845486708,102.20323563610629 l 14.635252146545442 0.8730172725396542 a 51.66194094167257 51.66194094167257 0.0 0 1 -14.27524070225608,32.673388861333976 l -10.58404697167045 -10.14547752708512 a 37.000673446973636 37.000673446973636 0.0 0 0 10.224035527381087,-23.40092860678851 z"/><path fill="#b5f556" d="M 151.57027060141252,103.07625290864594 l 12.852358354769498 0.7666646754174026 a 64.53714540622171 64.53714540622171 0.0 0 1 -17.832920484936167,40.81626066350552 l -9.29467857208941 -8.909536477588944 a 51.66194094167257 51.66194094167257 0.0 0 0 14.275240702256077,-32.673388861333976 z"/><path fill="#e0fbdc" d="M 164.422628956182,103.84291758406334 l 9.20294150658871 0.5489708556419033 a 73.75644588803905 73.75644588803905 0.0 0 1 -20.380399946324495,46.64697054744101 l -6.655462045200373 -6.379680739577395 a 64.53714540622171 64.53714540622171 0.0 0 0 17.83292048493616,-40.81626066350552 z"/><path fill="#6f9217" d="M 173.62557046277072,104.39188843970526 l 5.391580734731683 0.3216168099176783 a 79.15761059498435 79.15761059498435 0.0 0 1 -21.872851156224364,50.06291566211217 l -3.899129524831821 -3.7375619245888387 a 73.75644588803905 73.75644588803905 0.0 0 0 20.380399946324502,-46.64697054744101 z"/><path fill="#4eff3c" d="M 179.01715119750241,104.71350524962293 l 17.51022198707979 1.0445140328062348 a 96.69895842237611 96.69895842237611 0.0 0 1 -26.719880863465296,61.15687125629646 l -12.663192279838853 -12.138469626990528 a 79.15761059498435 79.15761059498435 0.0 0 0 21.872851156224357,-50.06291566211217 z"/><path fill="#66f359" d="M 196.5273731845822,105.75801928242916 l 3.056895353154867 0.18234892142123701 a 99.76128765504906 99.76128765504906 0.0 0 1 -27.566064458373557,63.09362918712062 l -2.2107117582466174 -2.1191068522453946 a 96.69895842237611 96.69895842237611 0.0 0 0 26.719880863465306,-61.15687125629646 z"/><path fill="#aaffb4" d="M 199.58426853773705,105.9403682038504 l 0.2382887673329571 0.014214323583277564 a 100.00000000000003 100.00000000000003 0.0 0 1 -27.632025514436503,63.24460185927381 l -0.17232771127000035 -0.16518699573646245 a 99.76128765504906 99.76128765504906 0.0 0 0 27.566064458373546,-63.09362918712062 z"/><path fill="#97ff48" d="M 100.0,100.0 l 5.864177104106646 5.621184144761135 a 8.12319421764878 8.12319421764878 0.0 0 1 -4.634400411114402,2.4083820691146594 l -1.2297766929922433 -8.029566213875794 z"/><path fill="#44c200" d="M 105.86417710410664,105.62118414476113 l 5.952502731184469 5.705849837098131 a 16.368739143745014 16.368739143745014 0.0 0 1 -9.338603680357824,4.8530389390617445 l -1.248299461941047 -8.150506707045217 a 8.12319421764878 8.12319421764878 0.0 0 0 4.634400411114402,-2.4083820691146594 z"/><path fill="#2fca6a" d="M 111.81667983529111,111.32703398185927 l 5.156720629207961 4.943042429528115 a 23.511948234049886 23.511948234049886 0.0 0 1 -13.413908327495385,6.970872912752769 l -1.0814159820704 -7.06087640321914 a 16.368739143745014 16.368739143745014 0.0 0 0 9.338603680357824,-4.853038939061744 z"/><path fill="#00e490" d="M 116.97340046449908,116.27007641138738 l 13.381317982420828 12.826838470842866 a 42.04806045057883 42.04806045057883 0.0 0 1 -23.989029859134554,12.466499275642676 l -2.806196450781659 -18.32246483373277 a 23.511948234049886 23.511948234049886 0.0 0 0 13.413908327495385,-6.970872912752771 z"/><path fill="#65bd00" d="M 130.3547184469199,129.09691488223024 l 2.613218115288868 2.504934618393002 a 45.667950830203274 45.667950830203274 0.0 0 1 -26.05422995333793,13.539732150403559 l -0.5480180210854897 -3.5781674931538845 a 42.04806045057883 42.04806045057883 0.0 0 0 23.989029859134554,-12.466499275642676 z"/><path fill="#00dd08" d="M 132.96793656220876,131.60184950062325 l 14.264258206043191 13.67319244305189 a 65.42713233535176 65.42713233535176 0.0 0 1 -37.32713029736655,19.397976722962312 l -2.991357862014574 -19.531437015610646 a 45.667950830203274 45.667950830203274 0.0 0 0 26.05422995333793,-13.539732150403555 z"/><path fill="#3bf170" d="M 147.23219476825196,145.27504194367515 l 11.767432635262619 11.279827430102806 a 81.72765311471164 81.72765311471164 0.0 0 1 -46.62681440895855,24.230790134827807 l -2.467748523670622 -16.1126408419683 a 65.42713233535176 65.42713233535176 0.0 0 0 37.32713029736655,-19.397976722962312 z"/><path fill="#a6ffa5" d="M 158.99962740351458,156.55486937377796 l 2.6941589438382016 2.5825215149051695 a 85.45966460847897 85.45966460847897 0.0 0 1 -48.755981229003524,25.337264918329982 l -0.5649921237932176 -3.6889962984073463 a 81.72765311471164 81.72765311471164 0.0 0 0 46.62681440895854,-24.230790134827807 z"/><path fill="#06370d" d="M 161.69378634735278,159.13739088868311 l 7.8536564916576905 7.528225796316898 a 96.33873184465727 96.33873184465727 0.0 0 1 -54.96264726714229,28.562714139201653 l -1.6469904535189244 -10.75367501718857 a 85.45966460847897 85.45966460847897 0.0 0 0 48.755981229003524,-25.33726491832998 z"/><path fill="#52faa7" d="M 169.54744283901047,166.66561668500003 l 1.3293471936714651 1.2742632487541692 a 98.18017442819001 98.18017442819001 0.0 0 1 -56.01321703532861,29.10866899152428 l -0.2787774254851456 -1.8202181010767902 a 96.33873184465727 96.33873184465727 0.0 0 0 54.96264726714229,-28.56271413920166 z"/><path fill="#97ff48" d="M 170.87679003268192,167.93987993375418 l 1.3137417579515658 1.259304452953245 a 100.0 100.0 0.0 0 1 -57.0514539840192,29.648214785781065 l -0.27550480926097975 -1.7988502472100407 a 98.18017442819001 98.18017442819001 0.0 0 0 56.01321703532861,-29.10866899152427 z"/><path fill="#d1ffbe" d="M 100.0,100.0 l 3.3109660529673874 21.618250944006355 a 21.870328531641544 21.870328531641544 0.0 0 1 -22.73554386176908,-11.568522239621196 l 19.424577808801693 -10.04972870438516 z"/><path fill="#42920f" d="M 103.31096605296739,121.61825094400636 l 2.413234315804544 15.756701878291343 a 37.810759954420746 37.810759954420746 0.0 0 1 -39.306597070402184,-20.00036793214388 l 14.157818892828558 -7.324856185768656 a 21.870328531641544 21.870328531641544 0.0 0 0 22.73554386176908,11.568522239621196 z"/><path fill="#02c805" d="M 105.72420036877193,137.3749528222977 l 0.06628151776731073 0.4327711190995569 a 38.24857736056653 38.24857736056653 0.0 0 1 -39.76173503627554,-20.231955692362618 l 0.388856448106047 -0.20118335888082228 a 37.810759954420746 37.810759954420746 0.0 0 0 39.306597070402184,20.000367932143885 z"/><path fill="#8bfe79" d="M 105.79048188653924,137.80772394139726 l 0.22060185883608174 1.4403730714057112 a 39.705745767084 39.705745767084 0.0 0 1 -41.27655069953505,-21.002739043572085 l 1.2942138044234284 -0.669589720196246 a 38.24857736056653 38.24857736056653 0.0 0 0 39.76173503627554,20.231955692362618 z"/><path fill="#00f31a" d="M 106.01108374537532,139.248097012803 l 3.317409663361374 21.660323132079004 a 61.61863706560141 61.61863706560141 0.0 0 1 -64.05634116015081,-32.593775271242016 l 19.46238079725439 -10.069286904409068 a 39.705745767084 39.705745767084 0.0 0 0 41.27655069953505,21.00273904357208 z"/><path fill="#003203" d="M 109.32849340873669,160.90842014488197 l 0.5375428578141301 3.5097721352260134 a 65.16933456964142 65.16933456964142 0.0 0 1 -67.74750833791778,-34.47195112864745 l 3.1536243199528258 -1.631596277820588 a 61.61863706560141 61.61863706560141 0.0 0 0 64.05634116015082,32.59377527124202 z"/><path fill="#062a15" d="M 109.86603626655082,164.41819228010797 l 0.2602579703680076 1.6992992448686928 a 66.88844833398379 66.88844833398379 0.0 0 1 -69.53463221838575,-35.38129301559993 l 1.5268659100999713 -0.789957357916208 a 65.16933456964142 65.16933456964142 0.0 0 0 67.74750833791778,34.47195112864745 z"/><path fill="#2fe34f" d="M 110.12629423691882,166.11749152497669 l 0.46183730060552414 3.0154687484169926 a 69.93907867293181 69.93907867293181 0.0 0 1 -72.70594899933172,-36.99495349947993 l 2.7094794803404483 -1.4018082645369887 a 66.88844833398379 66.88844833398379 0.0 0 0 69.53463221838575,35.38129301559992 z"/><path fill="#359f0d" d="M 110.58813153752435,169.13296027339368 l 0.4804355825490991 3.1369022876776103 a 73.1125585155362 73.1125585155362 0.0 0 1 -76.00497535147755,-38.67359641895155 l 2.8185907695967245 -1.4582593682059866 a 69.93907867293181 69.93907867293181 0.0 0 0 72.70594899933172,36.99495349947993 z"/><path fill="#52ff69" d="M 111.06856712007345,172.2698625610713 l 1.143100900626973 7.463635002215162 a 80.66322253370741 80.66322253370741 0.0 0 1 -83.85435231544253,-42.667593330874716 l 6.706276063338009 -3.469638090292001 a 73.1125585155362 73.1125585155362 0.0 0 0 76.00497535147754,38.673596418951554 z"/><path fill="#d1ffbe" d="M 112.21166802070042,179.73349756328645 l 2.927409785913907 19.113901609202067 a 100.00000000000003 100.00000000000003 0.0 0 1 -103.95611492015662,-52.8959691798141 l 17.174352818800187 -8.885525760262688 a 80.66322253370741 80.66322253370741 0.0 0 0 83.85435231544253,42.66759333087472 z"/><path fill="#145500" d="M 100.0,100.0 l -14.770183379448925 7.641676299920448 a 16.629898789088138 16.629898789088138 0.0 0 1 -0.6401259643650707,-1.3906044187728481 l 15.410309343813996 -6.2510718811476 z"/><path fill="#01b900" d="M 85.22981662055108,107.64167629992045 l -5.359726507131524 2.7729713282090938 a 22.66446904871044 22.66446904871044 0.0 0 1 -0.8724115095726086,-1.8952196407206987 l 5.5920120523390615 -2.268356106261243 a 16.629898789088138 16.629898789088138 0.0 0 0 0.6401259643650707,1.3906044187728481 z"/><path fill="#7e9800" d="M 79.87009011341955,110.41464762812954 l -11.36781161000846 5.88138510744768 a 35.46360306561762 35.46360306561762 0.0 0 1 -1.365081856489354,-2.9654926800284107 l 11.860481956925206 -4.811112068139968 a 22.66446904871044 22.66446904871044 0.0 0 0 0.8724115095726077,1.8952196407206987 z"/><path fill="#43fb77" d="M 68.50227850341109,116.29603273557721 l -6.8253543040893 3.5312458135550386 a 43.148338478896356 43.148338478896356 0.0 0 1 -1.6608863427164895,-3.6080959308562264 l 7.121158790316436 -2.888642562727222 a 35.46360306561762 35.46360306561762 0.0 0 0 1.365081856489354,2.96549268002841 z"/><path fill="#a7fea9" d="M 61.67692419932179,119.82727854913226 l -1.9926849719063715 1.0309590024597715 a 45.39192263421889 45.39192263421889 0.0 0 1 -1.7472474498569848,-3.795706094925742 l 2.0790460790468686 -0.8433488383902557 a 43.148338478896356 43.148338478896356 0.0 0 0 1.6608863427164877,3.6080959308562264 z"/><path fill="#00a80a" d="M 59.68423922741542,120.85823755159203 l -3.2201140196491522 1.6659961731573696 a 49.0174815633381 49.0174815633381 0.0 0 1 -1.88680418650938,-4.098878010239064 l 3.359670756301547 -1.36282425784405 a 45.39192263421889 45.39192263421889 0.0 0 0 1.7472474498569852,3.7957060949257446 z"/><path fill="#7affa4" d="M 56.464125207766266,122.5242337247494 l -5.724291844360226 2.961587151432341 a 55.46251962179347 55.46251962179347 0.0 0 1 -2.134889653225838,-4.637816852676758 l 5.972377311076684 -2.4226483089946456 a 49.0174815633381 49.0174815633381 0.0 0 0 1.88680418650938,4.098878010239062 z"/><path fill="#048700" d="M 50.73983336340604,125.48582087618173 l -15.881498833887322 8.216639572328651 a 73.34365971610293 73.34365971610293 0.0 0 1 -2.8231789923243635,-6.133050993497799 l 16.569788172985845 -6.721405431507609 a 55.46251962179347 55.46251962179347 0.0 0 0 2.134889653225841,4.637816852676757 z"/><path fill="#5fff29" d="M 34.858334529518714,133.70246044851038 l -4.684390367466868 2.423571456834734 a 78.61786218862903 78.61786218862903 0.0 0 1 -3.0261960994517736,-6.574083699518235 l 4.8874074745942835 -1.9825387508142995 a 73.34365971610293 73.34365971610293 0.0 0 0 2.823178992324358,6.1330509934978 z"/><path fill="#00aa07" d="M 30.173944162051853,136.12603190534512 l -13.083203578652327 6.768880530835498 a 93.3483733651356 93.3483733651356 0.0 0 1 -3.593209933513041,-7.805859923332287 l 13.650217412713587 -5.537104307021448 a 78.61786218862903 78.61786218862903 0.0 0 0 3.0261960994517807,6.574083699518237 z"/><path fill="#145500" d="M 17.090740583399523,142.89491243618062 l -5.907777696941776 3.0565175564938003 a 100.0 100.0 0.0 0 1 -3.8492475058542963,-8.36207385510552 l 6.163815269283035 -2.5003036247205657 a 93.3483733651356 93.3483733651356 0.0 0 0 3.5932099335130374,7.805859923332285 z"/><path fill="#29c700" d="M 100.0,100.0 l -3.1311394434992774 1.2701223119227956 a 3.3789413877546135 3.3789413877546135 0.0 0 1 -0.2470998057438134,-1.2012421496512844 l 3.378239249243091 -0.06888016227151109 z"/><path fill="#caf5d1" d="M 96.86886055650072,101.27012231192279 l -6.772671792833358 2.7472815282203813 a 10.687610145383566 10.687610145383566 0.0 0 1 -0.7815780410872515,-3.79953550902132 l 7.307150028176796 -0.1489881688503456 a 3.3789413877546135 3.3789413877546135 0.0 0 0 0.2470998057438134,1.2012421496512844 z"/><path fill="#1b5c00" d="M 90.09618876366736,104.01740384014317 l -18.98080562874714 7.69941587155861 a 31.170578364845507 31.170578364845507 0.0 0 1 -2.2794843044004303,-11.081403393547134 l 20.47871189206032 -0.4175479870327963 a 10.687610145383566 10.687610145383566 0.0 0 0 0.7815780410872506,3.7995355090213203 z"/><path fill="#49f773" d="M 71.11538313492022,111.71681971170179 l -2.236217209878932 0.9071040826590473 a 33.583772353428984 33.583772353428984 0.0 0 1 -2.4559596253284948,-11.939314201019862 l 2.4126925308069964 -0.04919327518632066 a 31.170578364845507 31.170578364845507 0.0 0 0 2.2794843044004303,11.081403393547134 z"/><path fill="#448b00" d="M 68.87916592504129,112.62392379436083 l -0.9994260371477791 0.40540938268764387 a 34.66229410624628 34.66229410624628 0.0 0 1 -2.53483122593614,-12.32273777666846 l 1.0782976377554263 -0.021985807039044403 a 33.583772353428984 33.583772353428984 0.0 0 0 2.455959625328493,11.93931420101986 z"/><path fill="#6ced8a" d="M 67.8797398878935,113.02933317704847 l -20.25798784122794 8.217494882006603 a 56.52352219414527 56.52352219414527 0.0 0 1 -4.133528745051951,-20.094588663900225 l 21.856685360343754 -0.4456439947748372 a 34.66229410624628 34.66229410624628 0.0 0 0 2.534831225936138,12.32273777666846 z"/><path fill="#e0ffe6" d="M 47.62175204666556,121.24682805905508 l -13.961009603002712 5.663174736774142 a 71.58942200910391 71.58942200910391 0.0 0 1 -5.235288287589004,-25.45064306180685 l 15.062769145539761 -0.3071203388675201 a 56.52352219414527 56.52352219414527 0.0 0 0 4.1335287450519544,20.09458866390023 z"/><path fill="#88b810" d="M 33.660742443662855,126.91000279582921 l -9.869522129183173 4.003494731068886 a 82.24002936831741 82.24002936831741 0.0 0 1 -6.014160338774284,-29.2370237683912 l 10.648394180368456 -0.21711402448453754 a 71.58942200910391 71.58942200910391 0.0 0 0 5.235288287589,25.45064306180685 z"/><path fill="#8cff65" d="M 23.791220314479673,130.9134975268981 l -5.44534280934704 2.208860870945631 a 88.11632281389194 88.11632281389194 0.0 0 1 -6.4438898908042,-31.32609562862683 l 5.875072361376951 -0.11978901070999726 a 82.24002936831741 82.24002936831741 0.0 0 0 6.014160338774289,29.237023768391197 z"/><path fill="#59f924" d="M 18.345877505132634,133.12235839784373 l -10.108171495890154 4.100300986698955 a 99.02446652269275 99.02446652269275 0.0 0 1 -7.241595409236247,-35.20403267866027 l 10.9058770143222 -0.22236393666551635 a 88.11632281389194 88.11632281389194 0.0 0 0 6.443889890804201,31.32609562862683 z"/><path fill="#29c700" d="M 8.237706009242473,137.22265938454268 l -0.9039906286390607 0.36669675302624377 a 100.00000000000003 100.00000000000003 0.0 0 1 -7.312935543638336,-35.55084305411816 l 0.975330763041157 -0.019886377568354874 a 99.02446652269275 99.02446652269275 0.0 0 0 7.24159540923624,35.20403267866027 z"/><path fill="#37ed00" d="M 100.0,100.0 l -10.13106946354172 0.2065661006067183 a 10.133175120811215 10.133175120811215 0.0 0 1 4.776931068559868,-8.809730639101176 l 5.354138394981852 8.603164538494458 z"/><path fill="#cadf0c" d="M 89.86893053645828,100.20656610060672 l -2.249574561379252 0.045867402927245476 a 12.383217237273914 12.383217237273914 0.0 0 1 5.837634743721303,-10.765905750686793 l 1.188870886217818 1.9103077086583724 a 10.133175120811215 10.133175120811215 0.0 0 0 -4.776931068559868,8.809730639101176 z"/><path fill="#0ebb0b" d="M 87.61935597507903,100.25243350353396 l -2.43552453353091 0.04965880528545888 a 14.81924797402034 14.81924797402034 0.0 0 1 6.986016250168533,-12.883778417787129 l 1.2871430270836788 2.0682138618148755 a 12.383217237273914 12.383217237273914 0.0 0 0 -5.837634743721302,10.765905750686795 z"/><path fill="#00d960" d="M 85.18383144154812,100.30209230881943 l -15.501675523417402 0.31606936239715727 a 30.32414538984236 30.32414538984236 0.0 0 1 14.29525795352759,-26.36365695455052 l 8.192433820058344 13.163809174366234 a 14.81924797402034 14.81924797402034 0.0 0 0 -6.986016250168532,12.883778417787129 z"/><path fill="#58ffda" d="M 69.68215591813072,100.61816167121657 l -13.478011047386355 0.2748081232698978 a 43.80495772805417 43.80495772805417 0.0 0 1 20.650315526308773,-38.08380627398814 l 7.122953474605172 11.445341196167718 a 30.32414538984236 30.32414538984236 0.0 0 0 -14.295257953527592,26.36365695455052 z"/><path fill="#23ffff" d="M 56.20414487074436,100.89296979448648 l -3.6758450038789827 0.07494815543595369 a 47.48156672528862 47.48156672528862 0.0 0 1 22.383524272476187,-41.28023133767917 l 1.9426362577115732 3.121476908255083 a 43.80495772805417 43.80495772805417 0.0 0 0 -20.650315526308777,38.08380627398813 z"/><path fill="#089120" d="M 52.52829986686538,100.96791794992242 l -14.690086092653473 0.29952156706223876 a 62.17470602833433 62.17470602833433 0.0 0 1 29.310090999547427,-54.05437152171468 l 7.763519365582226 12.474618616973274 a 47.48156672528862 47.48156672528862 0.0 0 0 -22.38352427247618,41.28023133767917 z"/><path fill="#a5ffab" d="M 37.83821377421191,101.26743951698467 l -9.363358010621482 0.1909129494965084 a 71.54001013388023 71.54001013388023 0.0 0 1 33.72503612927415,-62.19651902626928 l 4.948412880894757 7.951234555058086 a 62.17470602833433 62.17470602833433 0.0 0 0 -29.310090999547427,54.054371521714685 z"/><path fill="#aafcd9" d="M 28.474855763590426,101.45835246648117 l -5.593746443892358 0.11405295313152436 a 77.13491919075295 77.13491919075295 0.0 0 1 36.36256035844218,-67.06070435354015 l 2.9562222147243276 4.750132374139348 a 71.54001013388023 71.54001013388023 0.0 0 0 -33.72503612927415,62.19651902626928 z"/><path fill="#50f52e" d="M 22.88110931969807,101.57240541961269 l -16.510679901141895 0.3366423236774754 a 93.64903069734216 93.64903069734216 0.0 0 1 44.14756075416935,-81.41798846070414 l 8.725679505414732 14.020641783486496 a 77.13491919075295 77.13491919075295 0.0 0 0 -36.36256035844218,67.06070435354016 z"/><path fill="#37ed00" d="M 6.370429418556171,101.90904774329017 l -6.349649581591033 0.12946534016062408 a 99.99999999999999 99.99999999999999 0.0 0 1 47.14150314790422,-86.93948869992397 l 3.3557071878561615 5.392034899059226 a 93.64903069734216 93.64903069734216 0.0 0 0 -44.14756075416935,81.41798846070412 z"/><path fill="#0fa351" d="M 100.0,100.0 l -1.1173568730006962 -1.795397189518337 a 2.1146955926970286 2.1146955926970286 0.0 0 1 2.3691565985203162,0.09101023317267143 l -1.25179972551962 1.7043869563456655 z"/><path fill="#2fe468" d="M 98.8826431269993,98.20460281048166 l -3.0378708883589347 -4.881327521109548 a 7.86413190443057 7.86413190443057 0.0 0 1 8.810421725641309,0.3384489383694538 l -3.4033942387620577 4.633888815912766 a 2.1146955926970286 2.1146955926970286 0.0 0 0 -2.3691565985203162,-0.09101023317267143 z"/><path fill="#2be740" d="M 95.84477223864037,93.32327528937212 l -1.3001216007575271 -2.0890681611538184 a 10.324725726804127 10.324725726804127 0.0 0 1 11.567098436316154,0.44434560656643196 l -1.4565551099173195 1.9831714929568394 a 7.86413190443057 7.86413190443057 0.0 0 0 -8.810421725641309,-0.3384489383694529 z"/><path fill="#00b038" d="M 94.54465063788284,91.23420712821829 l -0.6311885750593659 -1.014209713208578 a 11.519305301236948 11.519305301236948 0.0 0 1 12.905421593085784,0.4957567723095766 l -0.7071345817102639 0.9627985474654341 a 10.324725726804127 10.324725726804127 0.0 0 0 -11.567098436316154,-0.44434560656643285 z"/><path fill="#437c00" d="M 93.91346206282348,90.21999741500971 l -1.5459699182370108 -2.4841034349469586 a 14.445188563366356 14.445188563366356 0.0 0 1 16.183375952527797,0.6216781194963827 l -1.7319844412050038 2.3581820877601523 a 11.519305301236948 11.519305301236948 0.0 0 0 -12.905421593085784,-0.4957567723095764 z"/><path fill="#1ffd66" d="M 92.36749214458646,87.73589398006276 l -6.593243041402072 -10.594189119322879 a 26.923477584661548 26.923477584661548 0.0 0 1 30.163175633928372,1.1587067099686799 l -7.386556639998503 10.05716052885058 a 14.445188563366356 14.445188563366356 0.0 0 0 -16.183375952527797,-0.6216781194963819 z"/><path fill="#2bfa64" d="M 85.7742491031844,77.14170486073988 l -0.766622253136755 -1.2318279611129106 a 28.374377238250336 28.374377238250336 0.0 0 1 31.788661826816654,1.2211491325278785 l -0.8588639397515259 1.169385538553712 a 26.923477584661548 26.923477584661548 0.0 0 0 -30.163175633928372,-1.1587067099686799 z"/><path fill="#009765" d="M 85.00762685004764,75.90987689962697 l -5.0244862759982025 -8.07347120394453 a 37.88365689649027 37.88365689649027 0.0 0 1 42.442191690545776,1.6304003561977556 l -5.629043587730926 7.664219980274652 a 28.374377238250336 28.374377238250336 0.0 0 0 -31.78866182681665,-1.2211491325278772 z"/><path fill="#59e70c" d="M 79.98314057404946,67.83640569568243 l -4.894687713318024 -7.864907601508655 a 47.14728142424263 47.14728142424263 0.0 0 1 52.820506778510065,2.0290793108455887 l -5.483627374646254 7.466228646860827 a 37.88365689649027 37.88365689649027 0.0 0 0 -42.44219169054578,-1.630400356197761 z"/><path fill="#84ff36" d="M 75.08845286073142,59.971498094173775 l -4.12566643038156 -6.62922481883958 a 54.95546592472006 54.95546592472006 0.0 0 1 61.56824895741026,2.365120438702368 l -4.62207574851864 6.293183690982794 a 47.14728142424263 47.14728142424263 0.0 0 0 -52.820506778510065,-2.0290793108455816 z"/><path fill="#0fa351" d="M 70.96278643034987,53.34227327533419 l -23.800503445480544 -38.243248891807404 a 100.00000000000004 100.00000000000004 0.0 0 1 112.03298511152404,4.3037037333869606 l -26.66423270863323 36.30466559712281 a 54.95546592472006 54.95546592472006 0.0 0 0 -61.56824895741027,-2.3651204387023697 z"/><path fill="#88f75f" d="M 100.0,100.0 l 17.678608065556638 -24.070295254917557 a 29.86490074978437 29.86490074978437 0.0 0 1 6.705516175608331,6.827129020553812 l -24.38412424116497 17.243166234363745 z"/><path fill="#6bfb34" d="M 117.67860806555665,75.92970474508245 l 1.6091990195646642 -2.1910036910830586 a 32.58335962549087 32.58335962549087 0.0 0 1 7.315887196644037,7.448569876393656 l -2.21957004060037 1.5695628352432145 a 29.86490074978437 29.86490074978437 0.0 0 0 -6.705516175608331,-6.827129020553812 z"/><path fill="#78ff50" d="M 119.2878070851213,73.73870105399939 l 3.596470714788422 -4.896771943786852 a 38.658964704146726 38.658964704146726 0.0 0 1 8.680032635226455,8.837455782877544 l -4.9606161533708395 3.507886037302967 a 32.58335962549087 32.58335962549087 0.0 0 0 -7.315887196644038,-7.448569876393659 z"/><path fill="#4df74b" d="M 122.88427779990973,68.84192911021253 l 4.554190702230186 -6.200754858266006 a 46.35246935187323 46.35246935187323 0.0 0 1 10.407442355910703,10.596194219355976 l -6.281600422914437 4.442016421787574 a 38.658964704146726 38.658964704146726 0.0 0 0 -8.680032635226453,-8.837455782877544 z"/><path fill="#30824a" d="M 127.43846850213991,62.64117425194653 l 8.733224348865551 -11.890714915173959 a 61.105716747669135 61.105716747669135 0.0 0 1 13.719964298779551,13.968792852350774 l -12.045746291734396 8.518116282179161 a 46.35246935187323 46.35246935187323 0.0 0 0 -10.407442355910707,-10.596194219355976 z"/><path fill="#06ec08" d="M 136.17169285100547,50.75045933677257 l 11.389265280470863 -15.507045408831132 a 80.34587841384257 80.34587841384257 0.0 0 1 18.03992559229822,18.367101996981972 l -15.709226573989532 11.108736264199933 a 61.105716747669135 61.105716747669135 0.0 0 0 -13.719964298779551,-13.968792852350774 z"/><path fill="#32a02c" d="M 147.56095813147633,35.24341392794145 l 3.226246571768922 -4.3926935457629535 a 85.79605488152123 85.79605488152123 0.0 0 1 19.263644591739496,19.613014656842296 l -4.4499655712102 3.146780885902629 a 80.34587841384257 80.34587841384257 0.0 0 0 -18.039925592298218,-18.367101996981972 z"/><path fill="#13ff50" d="M 150.78720470324527,30.850720382178494 l 1.5138108507589036 -2.0611280029934558 a 88.35337221353132 88.35337221353132 0.0 0 1 19.83783477169786,20.197618487218577 l -2.0880010307172654 1.4765241726171752 a 85.79605488152123 85.79605488152123 0.0 0 0 -19.2636445917395,-19.613014656842296 z"/><path fill="#4d9b13" d="M 152.30101555400415,28.789592379185038 l 0.5629381098108793 -0.766467951727082 a 89.30435719580083 89.30435719580083 0.0 0 1 20.051357837948622,20.415014058861654 l -0.7764611760616447 0.5490723800840058 a 88.35337221353132 88.35337221353132 0.0 0 0 -19.837834771697857,-20.197618487218577 z"/><path fill="#cdfe3f" d="M 152.86395366381504,28.023124427457944 l 1.6617148469189638 -2.2625065755458387 a 92.11153233049747 92.11153233049747 0.0 0 1 20.68164817211655,21.056735489260273 l -2.2920051810868927 1.6207851451472166 a 89.30435719580083 89.30435719580083 0.0 0 0 -20.051357837948622,-20.41501405886165 z"/><path fill="#88f75f" d="M 154.525668510734,25.760617851912116 l 4.669599585659326 -6.357889734998299 a 99.99999999999999 99.99999999999999 0.0 0 1 22.452832613738863,22.86004255548416 l -6.440784027281637 4.554582668774415 a 92.11153233049747 92.11153233049747 0.0 0 0 -20.681648172116553,-21.056735489260276 z"/><path fill="#7aff8b" d="M 100.0,100.0 l 5.128462095963116 -3.6265778328851184 a 6.281177457109783 6.281177457109783 0.0 0 1 0.6628204225135716,1.1946573903355615 l -5.791282518476688 2.431920442549557 z"/><path fill="#73e958" d="M 105.12846209596312,96.37342216711488 l 3.8250397580919557 -2.704866319967495 a 10.965964641164003 10.965964641164003 0.0 0 1 1.157181972067657,2.085687084974211 l -4.319401307646041 1.8138366253288458 a 6.281177457109783 6.281177457109783 0.0 0 0 -0.6628204225135716,-1.1946573903355615 z"/><path fill="#00d6db" d="M 108.95350185405508,93.66855584714739 l 4.866997073675718 -3.4416835631880316 a 16.9269080450462 16.9269080450462 0.0 0 1 1.7862097383614488,3.2194371086674867 l -5.496024839969511 2.3079335394947558 a 10.965964641164003 10.965964641164003 0.0 0 0 -1.1571819720676562,-2.085687084974211 z"/><path fill="#b8f900" d="M 113.8204989277308,90.22687228395935 l 2.589186900042228 -1.830936378428332 a 20.098061908421887 20.098061908421887 0.0 0 1 2.1208453314378763,3.822579182688134 l -2.9238224931186547 1.227794304407685 a 16.9269080450462 16.9269080450462 0.0 0 0 -1.7862097383614497,-3.2194371086674876 z"/><path fill="#5be312" d="M 116.40968582777302,88.39593590553102 l 2.4718949731721063 -1.747993715695503 a 23.125560345829328 23.125560345829328 0.0 0 1 2.440321704640829,4.398398510700308 l -2.7913713463750582 1.172174387683329 a 20.098061908421887 20.098061908421887 0.0 0 0 -2.1208453314378772,-3.822579182688134 z"/><path fill="#3e7b00" d="M 118.88158080094513,86.64794218983552 l 2.0180032421849505 -1.4270254294282443 a 25.597146610094413 25.597146610094413 0.0 0 1 2.7011355191119675,4.868485340218859 l -2.2788170566560915 0.9569385999096927 a 23.125560345829328 23.125560345829328 0.0 0 0 -2.4403217046408265,-4.398398510700307 z"/><path fill="#00781b" d="M 120.89958404313008,85.22091676040728 l 4.645590979172977 -3.28511685383839 a 31.286918862930758 31.286918862930758 0.0 0 1 3.301547985466054,5.950659585030737 l -5.246003445527062 2.202942609026513 a 25.597146610094413 25.597146610094413 0.0 0 0 -2.7011355191119684,-4.868485340218859 z"/><path fill="#00a60e" d="M 125.54517502230306,81.93579990656889 l 14.989750988790053 -10.599961087594778 a 49.645889688237276 49.645889688237276 0.0 0 1 5.238875959788771,9.442469890530283 l -16.92707896311277 7.108150782095231 a 31.286918862930758 31.286918862930758 0.0 0 0 -3.3015479854660548,-5.950659585030737 z"/><path fill="#96ff53" d="M 140.53492601109312,71.33583881897411 l 5.2047415200447835 -3.6805186173354056 a 56.02049176076154 56.02049176076154 0.0 0 1 5.911555002518861,10.654896307136205 l -5.877420562774873 2.468092200729483 a 49.645889688237276 49.645889688237276 0.0 0 0 -5.238875959788771,-9.442469890530283 z"/><path fill="#67f000" d="M 145.7396675311379,67.65532020163872 l 25.421663783192823 -17.97685946119325 a 87.15613798166389 87.15613798166389 0.0 0 1 9.1971399623916,16.57678437902488 l -28.707248743065563 12.054971389304576 a 56.02049176076154 56.02049176076154 0.0 0 0 -5.91155500251886,-10.654896307136205 z"/><path fill="#7aff8b" d="M 171.1613313143307,49.67846074044546 l 10.486769395801486 -7.415690068047497 a 100.0 100.0 0.0 0 1 10.55248680744265,19.019640799724677 l -11.842116240852533 4.972833647347699 a 87.15613798166389 87.15613798166389 0.0 0 0 -9.197139962391603,-16.57678437902488 z"/></g></svg>