<?xml version='1.0' encoding='UTF-8'?>
<svg xmlns="http://www.w3.org/2000/svg" xmlns:svg="http://www.w3.org/2000/svg"><g><path fill="#140af8" d="M 100.0,100.0 l 53.1239634266559 84.72216067737725 a 100.0 100.0 0.0 0 1 -64.9265609414235,14.578890132291434 l 11.802597514767607 -99.30105080966868 z"/><path fill="#84abff" d="M 100.0,100.0 l -11.802597514767582 99.3010508096687 a 100.0 100.0 0.0 0 1 -23.919027662536145,-5.898880092429891 l 35.72162517730373 -93.4021707172388 z"/><path fill="#c288f6" d="M 100.0,100.0 l -51.2789110854707 85.85146054604074 a 100.0 100.0 0.0 0 1 -46.93686327047323,-67.04556605356036 l 98.21577435594394 -18.805894492480377 z"/><path fill="#5a07f0" d="M 100.0,100.0 l -98.21577435594394 18.8058944924804 a 100.0 100.0 0.0 0 1 103.7172468909059,-118.6544488132469 l -5.5014725349619615 99.8485543207665 z"/><path fill="#0032cb" d="M 100.0,100.0 l 5.5014725349619376 -99.8485543207665 a 100.0 100.0 0.0 0 1 36.09201622299126,8.909114620810016 l -41.5934887579532 90.93943969995648 z"/><path fill="#0a3d9c" d="M 100.0,100.0 l 41.59348875795318 -90.9394396999565 a 100.0 100.0 0.0 0 1 22.398317220637715,14.095124571260229 l -63.9918059785909 76.84431512869627 z"/><path fill="#0498c2" d="M 100.0,100.0 l 86.9019516689904 -49.47778083261674 a 100.0 100.0 0.0 0 1 13.036891205076799,52.974591521302486 l -99.9388428740672 -3.496810688685751 z"/><path fill="#0026ad" d="M 100.0,100.0 l 99.9388428740672 3.4968106886857266 a 100.0 100.0 0.0 0 1 -43.927869189219166,79.34503155830478 l -56.01097368484804 -82.84184224699051 z"/><path fill="#140af8" d="M 100.0,100.0 l 56.010973684848054 82.8418422469905 a 100.0 100.0 0.0 0 1 -2.8870102581923263,1.8803184303868505 l -53.12396342665573 -84.72216067737735 z"/><path fill="#6540f5" d="M 96.62861701300366,108.81523412615334 l -5.9843692204354655 15.647470482872718 a 26.190723857032474 26.190723857032474 0.0 0 1 -4.07456579185705,-1.9775856501833573 l 8.590648819424763 -14.382515786196244 a 9.43793282154026 9.43793282154026 0.0 0 0 1.4682861928677524,0.7126309535068831 z"/><path fill="#5058e2" d="M 90.6442477925682,124.46270460902606 l -8.693181508538366 22.730265471021653 a 50.52663093122045 50.52663093122045 0.0 0 1 -7.860572433734319,-3.815119460887381 l 12.479188150415634 -20.892731660317626 a 26.190723857032474 26.190723857032474 0.0 0 0 4.074565791857051,1.9775856501833537 z"/><path fill="#4a40ff" d="M 81.95106628402982,147.1929700800477 l -4.74801466170837 12.414745236244368 a 63.81834047170658 63.81834047170658 0.0 0 1 -9.928401689030856,-4.8187379250869675 l 6.815843917004912 -11.411126772044781 a 50.52663093122045 50.52663093122045 0.0 0 0 7.8605724337343155,3.815119460887381 z"/><path fill="#0078e4" d="M 100.0,100.0 l 6.0395036595497915 -7.252514839019054 a 9.43793282154026 9.43793282154026 0.0 0 1 2.1622441595769084,2.582835122447766 l -8.2017478191267 4.669679716571288 z"/><path fill="#163185" d="M 106.0395036595498,92.74748516098094 l 10.720413535430946 -12.87356753616562 a 26.190723857032474 26.190723857032474 0.0 0 1 6.000332993016368,7.1674934267262875 l -14.558502368870407 8.288909231887098 a 9.43793282154026 9.43793282154026 0.0 0 0 -2.1622441595769084,-2.582835122447766 z"/><path fill="#0000d3" d="M 149.8962255534448,40.08230864051247 l 14.09558042514611 -16.92662376920874 a 100.0 100.0 0.0 0 1 22.91014569039953,27.366534296079564 l -19.142035923509155 10.898552218032883 a 77.9728354129247 77.9728354129247 0.0 0 0 -17.863690192036486,-21.33846274490371 z"/><path fill="#450bff" d="M 100.0,100.0 l -3.3713829869963376 8.815234126153346 a 9.43793282154026 9.43793282154026 0.0 0 1 -0.01353790918756781,-0.005189491165142002 l 3.3849208961839055 -8.810044634988204 z"/><path fill="#450bff" d="M 100.0,100.0 l -4.792259762815695 8.130733196311667 a 9.43793282154026 9.43793282154026 0.0 0 1 -0.04740941704839319,-0.02813002366520223 l 4.839669179864088 -8.102603172646464 z"/><path fill="#4663ff" d="M 75.86895882935632,159.08022877903707 l -5.3521087770627895 13.10361242861894 a 77.9728354129247 77.9728354129247 0.0 0 1 -0.4734875408674126,-0.19521062817345758 l 5.438061493370277 -13.068175627657162 a 63.81834047170658 63.81834047170658 0.0 0 0 0.38753482455992483,0.15977382721168 z"/><path fill="#0012b0" d="M 75.4814240047964,158.9204549518254 l -5.438061493370279 13.068175627657164 a 77.9728354129247 77.9728354129247 0.0 0 1 -1.6838909287779895,-0.7240529563618896 l 5.743740073695452 -12.936737494700672 a 63.81834047170658 63.81834047170658 0.0 0 0 1.3782123484528164,0.5926148234053983 z"/><path fill="#0f84fd" d="M 74.10321165634357,158.32784012842 l -5.743740073695451 12.936737494700674 a 77.9728354129247 77.9728354129247 0.0 0 1 -3.709766744166484,-1.7655150803454962 l 6.417178128568338 -12.61624159197951 a 63.81834047170658 63.81834047170658 0.0 0 0 3.0363286892935974,1.4450191776243315 z"/><path fill="#160992" d="M 71.06688296704998,156.88282095079566 l -6.417178128568336 12.616241591979502 a 77.9728354129247 77.9728354129247 0.0 0 1 -1.5925051615535484,-0.8332590695711204 l 6.706267349624639 -12.464979152663183 a 63.81834047170658 63.81834047170658 0.0 0 0 1.3034159404972456,0.6819966302548011 z"/><path fill="#9555f0" d="M 69.49773509097436,156.0570460868416 l -6.765204973355728 12.433090070833245 a 77.9728354129247 77.9728354129247 0.0 0 1 -0.06690580216605557,-0.03644776489271351 l 6.777350457527007 -12.426473667812104 a 63.81834047170658 63.81834047170658 0.0 0 0 0.0547603179947771,0.029831361871572426 z"/><path fill="#320043" d="M 69.44297477297958,156.02721472497004 l -6.777350457527009 12.42647366781211 a 77.9728354129247 77.9728354129247 0.0 0 1 -0.29822994347119636,-0.16349835074855967 l 6.831488468589811 -12.396793631600616 a 63.81834047170658 63.81834047170658 0.0 0 0 0.244091932408395,0.13381831453706639 z"/><path fill="#a388f5" d="M 68.61754218332551,155.56907343070702 l -6.9604260644484235 12.324860893426601 a 77.9728354129247 77.9728354129247 0.0 0 1 -1.6407370610911585,-0.9531162929772972 l 7.258270875504685 -12.151840639951196 a 63.81834047170658 63.81834047170658 0.0 0 0 1.3428922500348968,0.7800960395018919 z"/><path fill="#0d182b" d="M 72.1468359936791,172.82832084545157 l -7.868461170982823 20.573849871787246 a 100.0 100.0 0.0 0 1 -0.7590537653665228,-0.29384636392539676 l 8.0356591931845 -20.509123849572262 a 77.9728354129247 77.9728354129247 0.0 0 0 0.5918557431648459,0.22912034171041284 z"/><path fill="#1251cd" d="M 71.55498025051426,172.59920050374117 l -8.0356591931845 20.509123849572262 a 100.0 100.0 0.0 0 1 -4.323022833389494,-1.8117859667437983 l 8.98789854783205 -20.110038772712073 a 77.9728354129247 77.9728354129247 0.0 0 0 3.370783478741945,1.4127008898836095 z"/><path fill="#a8ecff" d="M 68.1841967717723,171.18649961385756 l -8.98789854783205 20.110038772712073 a 100.0 100.0 0.0 0 1 -0.34185508852605295,-0.15355648284244694 l 9.063199530830978 -20.076214633502246 a 77.9728354129247 77.9728354129247 0.0 0 0 0.2665541055271241,0.11973234363262009 z"/><path fill="#7e00d5" d="M 67.66367830971552,170.95157053845588 l -9.134943935801047 20.043671795254383 a 100.0 100.0 0.0 0 1 -3.79777528937813,-1.8284663765518872 l 9.971486149439642 -19.640912497071966 a 77.9728354129247 77.9728354129247 0.0 0 0 2.9612330757395355,1.42570707836947 z"/><path fill="#0a0044" d="M 64.70244523397598,169.52586346008644 l -9.971486149439643 19.640912497071966 a 100.0 100.0 0.0 0 1 -0.3023238312845802,-0.1541323882876071 l 10.038079517342652 -19.606961502221864 a 77.9728354129247 77.9728354129247 0.0 0 0 0.23573046338157155,0.12018139343750533 z"/><path fill="#3656e3" d="M 64.46671477059441,169.40568206664892 l -10.03807951734265 19.606961502221868 a 100.0 100.0 0.0 0 1 -3.4456091004713816,-1.8499435483861681 l 10.797049504930726 -19.199471392050867 a 77.9728354129247 77.9728354129247 0.0 0 0 2.686639112883306,1.4424534382151677 z"/><path fill="#3b41fa" d="M 61.7800756577111,167.96322862843374 l -10.797049504930726 19.199471392050864 a 100.0 100.0 0.0 0 1 -0.03973589383638654,-0.022357874141274436 l 10.805802195666217 -19.194546586315596 a 77.9728354129247 77.9728354129247 0.0 0 0 0.030983203100895196,0.01743306840600667 z"/><path fill="#000d75" d="M 61.74909245461021,167.94579556002776 l -10.805802195666212 19.194546586315596 a 100.0 100.0 0.0 0 1 -1.51469977408866,-0.8702283197606278 l 11.139447607904778 -19.002859962038585 a 77.9728354129247 77.9728354129247 0.0 0 0 1.1810543618500944,0.6785416954836165 z"/><path fill="#0d182b" d="M 60.10546758619356,166.99395006875466 l -11.27012281840994 18.925652205513554 a 100.0 100.0 0.0 0 1 -0.11425585325434007,-0.06814172822747011 l 11.295290143256643 -18.910642514884415 a 77.9728354129247 77.9728354129247 0.0 0 0 0.08908852840763615,0.053132037598331294 z"/><path fill="#15046c" d="M 117.22195486451159,80.26783623623461 l 16.002302781184017 -18.334739671531278 a 50.52663093122045 50.52663093122045 0.0 0 1 0.8140012554176366,0.7260763924933897 l -16.394362543432596 17.9850284936668 a 26.190723857032474 26.190723857032474 0.0 0 0 -0.42194149316905794,-0.3763652146289118 z"/><path fill="#8c9eec" d="M 117.64389635768063,80.64420145086352 l 16.394362543432596 -17.985028493666803 a 50.52663093122045 50.52663093122045 0.0 0 1 1.6468815904790546,1.5705715033878 l -17.187575085203804 17.22857033575317 a 26.190723857032474 26.190723857032474 0.0 0 0 -0.8536690487078467,-0.8141133454741656 z"/><path fill="#10ffff" d="M 118.49756540638847,81.45831479633769 l 17.187575085203807 -17.228570335753165 a 50.52663093122045 50.52663093122045 0.0 0 1 0.4702356922519577,0.47536630224019305 l -17.41406182890116 16.99961245860388 a 26.190723857032474 26.190723857032474 0.0 0 0 -0.24374894855460383,-0.24640842509090888 z"/><path fill="#1e0b72" d="M 118.74131435494309,81.7047232214286 l 17.41406182890116 -16.999612458603877 a 50.52663093122045 50.52663093122045 0.0 0 1 0.444059532290332,0.46068566481991624 l -17.627940951931063 16.77772543936586 a 26.190723857032474 26.190723857032474 0.0 0 0 -0.2301804092604307,-0.23879864558189823 z"/><path fill="#b275f0" d="M 118.97149476420353,81.94352186701049 l 17.627940951931063 -16.77772543936586 a 50.52663093122045 50.52663093122045 0.0 0 1 0.604476187835786,0.6463494089046407 l -17.919083980164146 16.46641437700804 a 26.190723857032474 26.190723857032474 0.0 0 0 -0.3133331596027027,-0.3350383465468205 z"/><path fill="#60b8f7" d="M 119.28482792380622,82.27856021355731 l 17.91908398016415 -16.46641437700804 a 50.52663093122045 50.52663093122045 0.0 0 1 3.0200573437488067,3.610530356120801 l -19.373679972844457 14.727419917735702 a 26.190723857032474 26.190723857032474 0.0 0 0 -1.5654613510684996,-1.8715358968484637 z"/><path fill="#0e0088" d="M 122.45873017097436,86.52560000361069 l 20.86821171604765 -12.52014827778505 a 50.52663093122045 50.52663093122045 0.0 0 1 0.3206989322098117,0.5421636280338049 l -21.022674803516775 12.259017792184384 a 26.190723857032474 26.190723857032474 0.0 0 0 -0.16623584474068664,-0.28103314243313804 z"/><path fill="#0013d5" d="M 133.83911873484243,62.478613078552115 l 8.901835112295768 -9.870505262758742 a 63.81834047170658 63.81834047170658 0.0 0 1 4.76619179582681,4.779080807570439 l -9.894509576973583 8.875146350332926 a 50.52663093122045 50.52663093122045 0.0 0 0 -3.7735173311489945,-3.783721895144623 z"/><path fill="#d9f3ff" d="M 137.6126360659914,66.26233497369674 l 9.894509576973583 -8.87514635033293 a 63.81834047170658 63.81834047170658 0.0 0 1 0.8749786742191006,0.9961004648016818 l -10.076745001866776 8.667684389501197 a 50.52663093122045 50.52663093122045 0.0 0 0 -0.6927432493259076,-0.7886385039699491 z"/><path fill="#412ffd" d="M 140.59315675945012,69.91452081879912 l 10.678575615154308 -7.914389764225772 a 63.81834047170658 63.81834047170658 0.0 0 1 0.07723040740977183,0.10442592421391872 l -10.69466071131 7.892640545382271 a 50.52663093122045 50.52663093122045 0.0 0 0 -0.06114531125408007,-0.08267670537041738 z"/><path fill="#f3f4ff" d="M 140.7801711856558,70.16850537890582 l 10.727772274167457 -7.8475757111514275 a 63.81834047170658 63.81834047170658 0.0 0 1 0.9454049536798763,1.3276354118148914 l -10.92467567136596 7.571063596623304 a 50.52663093122045 50.52663093122045 0.0 0 0 -0.7485015564813722,-1.0511232972867681 z"/><path fill="#0001d3" d="M 143.5656872524966,74.40759238607238 l 11.460539723697275 -6.732426884133731 a 63.81834047170658 63.81834047170658 0.0 0 1 0.3307715199902912,0.5697829620280936 l -11.529430875292249 6.613755831636638 a 50.52663093122045 50.52663093122045 0.0 0 0 -0.2618803683953175,-0.4511119095310008 z"/><path fill="#0030bc" d="M 143.8275676208919,74.85870429560339 l 11.529430875292249 -6.613755831636638 a 63.81834047170658 63.81834047170658 0.0 0 1 0.102384896490058,0.17915290642914883 l -11.550755000855837 6.57644291534973 a 50.52663093122045 50.52663093122045 0.0 0 0 -0.08106077092647013,-0.14183999014224113 z"/><path fill="#0330ce" d="M 140.83850861341102,50.95923333801749 l 9.057716940033762 -10.876924697505022 a 77.9728354129247 77.9728354129247 0.0 0 1 0.21762530998930352,0.18189795244780882 l -9.097222702944805 10.843904561272886 a 63.81834047170658 63.81834047170658 0.0 0 0 -0.1781195470782606,-0.14887781621567342 z"/><path fill="#0044f7" d="M 141.0166281604893,51.10811115423317 l 9.097222702944801 -10.84390456127289 a 77.9728354129247 77.9728354129247 0.0 0 1 3.772174149067393,3.3792554484043613 l -9.781989642964497 10.230464587002125 a 63.81834047170658 63.81834047170658 0.0 0 0 -3.087407209047697,-2.7658154741335963 z"/><path fill="#22146c" d="M 144.10403536953697,53.87392662836677 l 9.781989642964502 -10.230464587002123 a 77.9728354129247 77.9728354129247 0.0 0 1 1.0764999958922008,1.0493602415185546 l -9.977407876319546 10.039973063237063 a 63.81834047170658 63.81834047170658 0.0 0 0 -0.881081762537157,-0.858868717753495 z"/><path fill="#0b5dcc" d="M 144.98511713207415,54.732795346120255 l 9.97740787631955 -10.039973063237069 a 77.9728354129247 77.9728354129247 0.0 0 1 0.30306639957331427,0.3028372642154036 l -10.032423854600914 9.984998680150333 a 63.81834047170658 63.81834047170658 0.0 0 0 -0.24805042129194987,-0.24786288112866828 z"/><path fill="#105599" d="M 145.2331675533661,54.980658227248924 l 10.03242385460091 -9.984998680150332 a 77.9728354129247 77.9728354129247 0.0 0 1 0.9364604481533085,0.9572088963330554 l -10.202420554167382 9.811235491867073 a 63.81834047170658 63.81834047170658 0.0 0 0 -0.7664637485868369,-0.783445708049797 z"/><path fill="#2d7cdf" d="M 145.99963130195295,55.76410393529872 l 10.202420554167382 -9.811235491867077 a 77.9728354129247 77.9728354129247 0.0 0 1 2.9762123675449246,3.27611516133447 l -10.742695672768782 9.21651868783676 a 63.81834047170658 63.81834047170658 0.0 0 0 -2.4359372489435245,-2.681398357304154 z"/><path fill="#09aeff" d="M 148.58613883014,58.621651867902884 l 10.776091186348383 -9.177449851918233 a 77.9728354129247 77.9728354129247 0.0 0 1 2.4570515404285427,3.035912776686864 l -11.222122466538856 8.626337252100292 a 63.81834047170658 63.81834047170658 0.0 0 0 -2.0110202602380696,-2.484800176868923 z"/><path fill="#3f089e" d="M 152.42002960535723,63.600534664144696 l 11.626423350768333 -8.073165866602654 a 77.9728354129247 77.9728354129247 0.0 0 1 2.6519999330966773,4.086006628036767 l -12.107843828019632 7.331428570016627 a 63.81834047170658 63.81834047170658 0.0 0 0 -2.1705794558453775,-3.3442693314507395 z"/><path fill="#3463d8" d="M 100.0,100.0 l -0.3194665602441155 0.8314860941978984 a 0.8907457594390689 0.8907457594390689 0.0 0 1 -0.03541104159555791,-0.014485546051689502 l 0.35487760183967343 -0.8170005481462089 z"/><path fill="#fd50e8" d="M 99.68053343975589,100.8314860941979 l -0.5670687244544 1.4759283678331665 a 2.4718629231018427 2.4718629231018427 0.0 0 1 -0.09826736738392994,-0.040198096737057876 l 0.629925050242772 -1.4502158171477981 a 0.8907457594390689 0.8907457594390689 0.0 0 0 0.03541104159555791,0.014485546051689502 z"/><path fill="#c6bcff" d="M 99.11346471530149,102.30741446203106 l -0.8237512038300862 2.1440042755652127 a 4.768669484276168 4.768669484276168 0.0 0 1 -0.18957547838286637,-0.07754938004225753 l 0.9150593148290225 -2.1066529922600132 a 2.4718629231018427 2.4718629231018427 0.0 0 0 0.09826736738393005,0.0401980967370581 z"/><path fill="#ffffff" d="M 97.83979965777542,105.62242428086608 l -0.4791184570145861 1.2470173221784642 a 7.359023825321987 7.359023825321987 0.0 0 1 -0.2925533981158448,-0.11967441594592754 l 0.5322259985287237 -1.2252926932595694 a 6.023132101541506 6.023132101541506 0.0 0 0 0.23944585660170725,0.09794978702703272 z"/><path fill="#000f97" d="M 99.01519734791755,102.267216365294 l -0.9150593148290225 2.1066529922600132 a 4.768669484276168 4.768669484276168 0.0 0 1 -0.02408103845776166,-0.010538982444023404 l 0.9266578303713664 -2.1015769424089283 a 2.4718629231018427 2.4718629231018427 0.0 0 0 0.012482522915417738,0.0054629325929385075 z"/><path fill="#18d9f9" d="M 98.10013803308853,104.37386935755401 l -0.49978423191482607 1.150605136285038 a 6.023132101541506 6.023132101541506 0.0 0 1 -0.030415879366698373,-0.013311403460752658 l 0.5061190728237628 -1.1478327152683088 a 4.768669484276168 4.768669484276168 0.0 0 0 0.02408103845776166,0.010538982444023404 z"/><path fill="#757ee4" d="M 97.06812780264498,106.74976718709863 l -0.8282478262769988 1.9067952571853886 a 9.43793282154026 9.43793282154026 0.0 0 1 -0.04766009134973248,-0.020858272656988364 l 0.8387459930409551 -1.9022007711372124 a 7.359023825321987 7.359023825321987 0.0 0 0 0.03716192458577616,0.016263786608812225 z"/><path fill="#c59dfb" d="M 100.0,100.0 l -0.3593757292439459 0.8150319583851087 a 0.8907457594390689 0.8907457594390689 0.0 0 1 -0.03716289862934313,-0.017419819207768472 l 0.39653862787328903 -0.7976121391773402 z"/><path fill="#7159fe" d="M 99.64062427075605,100.8150319583851 l -0.6379094457539174 1.44672147431596 a 2.4718629231018427 2.4718629231018427 0.0 0 1 -0.10312885608876088,-0.04834084784634407 l 0.7038754032133352 -1.4158004456773843 a 0.8907457594390689 0.8907457594390689 0.0 0 0 0.03716289862934313,0.017419819207768472 z"/><path fill="#b66bff" d="M 98.07605699463078,104.36333037511 l -0.5061190728237629 1.1478327152683085 a 6.023132101541506 6.023132101541506 0.0 0 1 -0.251291735434909,-0.11779104324833667 l 0.5584566411879277 -1.1232998878435358 a 4.768669484276168 4.768669484276168 0.0 0 0 0.1989541670707442,0.09325821582356397 z"/><path fill="#0785f7" d="M 97.0309658780592,106.73350340048981 l -0.8387459930409548 1.902200771137213 a 9.43793282154026 9.43793282154026 0.0 0 1 -0.3937609997024566,-0.1845724009394416 l 0.9254803765251283 -1.8615447045999653 a 7.359023825321987 7.359023825321987 0.0 0 0 0.3070266162182831,0.14391633440219387 z"/><path fill="#2821eb" d="M 100.0,100.0 l -0.39653862787328903 0.7976121391773402 a 0.8907457594390689 0.8907457594390689 0.0 0 1 -0.008325494027897229,-0.004193554345938044 l 0.40486412190118626 -0.7934185848314022 z"/><path fill="#6b66eb" d="M 98.89958596891337,102.21341258485472 l -1.0224831413533497 2.0566595744317078 a 4.768669484276168 4.768669484276168 0.0 0 1 -0.04457111234226696,-0.02245048536938521 l 1.0439506017433196 -2.0458464068871804 a 2.4718629231018427 2.4718629231018427 0.0 0 0 0.023103651952297133,0.011637317824857885 z"/><path fill="#4818ff" d="M 97.87710282756002,104.27007215928643 l -0.5584566411879278 1.1232998878435365 a 6.023132101541506 6.023132101541506 0.0 0 1 -0.05629614265264393,-0.02835638736746282 l 0.5701816714983048 -1.1173939858454593 a 4.768669484276168 4.768669484276168 0.0 0 0 0.04457111234226696,0.022450485369385653 z"/><path fill="#1b005e" d="M 96.72393926184093,106.58958706608762 l -0.9254803765251278 1.8615447045999656 a 9.43793282154026 9.43793282154026 0.0 0 1 -0.08821310964299167,-0.044432975157093546 l 0.9449112233735666 -1.8517573800311782 a 7.359023825321987 7.359023825321987 0.0 0 0 0.0687822627945529,0.034645650588306154 z"/><path fill="#44ffb0" d="M 99.59513587809882,100.7934185848314 l -0.718653561137735 1.4083566821984645 a 2.4718629231018427 2.4718629231018427 0.0 0 1 -0.024564422310061396,-0.01270839048565442 l 0.7343660949384205 -1.400227811405669 a 0.8907457594390689 0.8907457594390689 0.0 0 0 0.00885188850937596,0.004579519692858747 z"/><path fill="#1504ff" d="M 98.87648231696107,102.20177526702987 l -1.0439506017433198 2.045846406887181 a 4.768669484276168 4.768669484276168 0.0 0 1 -0.04738920187445861,-0.024516777745570817 l 1.066775381307717 -2.0340380196272645 a 2.4718629231018427 2.4718629231018427 0.0 0 0 0.024564422310061396,0.01270839048565442 z"/><path fill="#6546fa" d="M 97.26235004371945,105.3650156597625 l -0.6071930446730838 1.1899257557368088 a 7.359023825321987 7.359023825321987 0.0 0 1 -0.07313114628871564,-0.037834358649656785 l 0.6204686224394593 -1.1830576428193442 a 6.023132101541506 6.023132101541506 0.0 0 0 0.059855568522340086,0.0309662457321922 z"/><path fill="#2f24ff" d="M 99.58628398958943,100.78883906513855 l -0.7343660949384205 1.400227811405669 a 2.4718629231018427 2.4718629231018427 0.0 0 1 -0.008016324285790466,-0.0042230076140779005 l 0.739493704483146 -1.3975265815929259 a 0.8907457594390689 0.8907457594390689 0.0 0 0 0.002888714741064946,0.0015217778013347782 z"/><path fill="#6e2cf2" d="M 97.20249447519711,105.33404941403032 l -0.6204686224394597 1.183057642819345 a 7.359023825321987 7.359023825321987 0.0 0 1 -0.023865531077512547,-0.012572385529986851 l 0.6248009586578003 -1.1807753637866432 a 6.023132101541506 6.023132101541506 0.0 0 0 0.019533194859171932,0.010290106497285123 z"/><path fill="#0028dd" d="M 96.58202585275765,106.51710705684965 l -0.9655706208061758 1.8410692520362295 a 9.43793282154026 9.43793282154026 0.0 0 1 -0.03060749420118869,-0.016124058415224463 l 0.9723125839298516 -1.8375175791509912 a 7.359023825321987 7.359023825321987 0.0 0 0 0.02386553107751288,0.012572385529986185 z"/><path fill="#4f00bc" d="M 100.0,100.0 l -0.41660472515162716 0.7873172873372086 a 0.8907457594390689 0.8907457594390689 0.0 0 1 -5.906910832090273E-4,-3.128447631368658E-4 l 0.4171954162348362 -0.7870044425740718 z"/><path fill="#8aaffe" d="M 99.58339527484837,100.7873172873372 l -0.739493704483146 1.3975265815929259 a 2.4718629231018427 2.4718629231018427 0.0 0 1 -0.0016391965632378547,-8.681594747885768E-4 l 0.7405422099631749 -1.3969712668812742 a 0.8907457594390689 0.8907457594390689 0.0 0 0 5.906910832090273E-4,3.128447631368658E-4 z"/><path fill="#8569ff" d="M 98.84390157036523,102.18484386893013 l -1.0742239926542556 2.0301140837547473 a 4.768669484276168 4.768669484276168 0.0 0 1 -0.0031623058693051043,-0.0016748362363530056 l 1.0757471019603229 -2.029307406993183 a 2.4718629231018427 2.4718629231018427 0.0 0 0 0.0016391965632378547,8.681594747885768E-4 z"/><path fill="#3f6dee" d="M 97.18296128033795,105.32375930753302 l -0.6248009586578005 1.1807753637866427 a 7.359023825321987 7.359023825321987 0.0 0 1 -0.004880079089546241,-0.0025846118728662937 l 0.6256868448054558 -1.1803061763384024 a 6.023132101541506 6.023132101541506 0.0 0 0 0.003994192941890962,0.002115424424625978 z"/><path fill="#1530ff" d="M 99.58280458376517,100.78700444257407 l -0.7405422099631749 1.3969712668812742 a 2.4718629231018427 2.4718629231018427 0.0 0 1 -0.06036955363735541,-0.03308723976680428 l 0.7791573518169574 -1.3758071472188975 a 0.8907457594390689 0.8907457594390689 0.0 0 0 0.021754411783572902,0.011923120104427531 z"/><path fill="#1548cb" d="M 97.76651527184167,104.21328311644852 l -0.5875481844456145 1.108360766659875 a 6.023132101541506 6.023132101541506 0.0 0 1 -0.14710111676120063,-0.0806229237585554 l 0.6181855420236899 -1.09156909710246 a 4.768669484276168 4.768669484276168 0.0 0 0 0.11646375918312524,0.06383125420114055 z"/><path fill="#0002ba" d="M 97.17896708739605,105.32164388310841 l -0.6256868448054559 1.1803061763384017 a 7.359023825321987 7.359023825321987 0.0 0 1 -0.17972719255154546,-0.09850456652851425 l 0.6583129205958009 -1.1624245335684424 a 6.023132101541506 6.023132101541506 0.0 0 0 0.1471011167612004,0.08062292375855495 z"/><path fill="#3d18d0" d="M 96.5532802425906,106.50195005944681 l -0.9736911961700513 1.8367874316474948 a 9.43793282154026 9.43793282154026 0.0 0 1 -0.23049975238139642,-0.12633190265155658 l 1.0244637559999021 -1.8089600955244531 a 7.359023825321987 7.359023825321987 0.0 0 0 0.17972719255154557,0.09850456652851491 z"/><path fill="#0939fc" d="M 100.0,100.0 l -0.4389498280184091 0.7750813224696442 a 0.8907457594390689 0.8907457594390689 0.0 0 1 -0.013340429029840783,-0.007708185503075948 l 0.4522902570482499 -0.7673731369665683 z"/><path fill="#000000" d="M 99.56105017198159,100.77508132246965 l -0.7791573518169572 1.3758071472188975 a 2.4718629231018427 2.4718629231018427 0.0 0 1 -0.03702034115537167,-0.02139059069048277 l 0.8028372639424881 -1.3621247420314906 a 0.8907457594390689 0.8907457594390689 0.0 0 0 0.013340429029840783,0.007708185503075948 z"/><path fill="#533cf2" d="M 98.78189282016463,102.15088846968854 l -1.131841307506093 1.9985633925588464 a 4.768669484276168 4.768669484276168 0.0 0 1 -0.07141891628180752,-0.04126630814476839 l 1.1662398826325289 -1.9786876751045606 a 2.4718629231018427 2.4718629231018427 0.0 0 0 0.03702034115537156,0.021390590690482547 z"/><path fill="#4875f8" d="M 97.65005151265854,104.14945186224739 l -0.6181855420236895 1.0915690971024603 a 6.023132101541506 6.023132101541506 0.0 0 1 -0.09020662235717003,-0.052121965281597626 l 0.6369732480990518 -1.0807134399656313 a 4.768669484276168 4.768669484276168 0.0 0 0 0.07141891628180774,0.041266308144768615 z"/><path fill="#2100db" d="M 97.03186597063485,105.24102095934985 l -0.658312920595801 1.1624245335684427 a 7.359023825321987 7.359023825321987 0.0 0 1 -0.11021386745914741,-0.06368227989416231 l 0.6783201656977789 -1.1508642189558778 a 6.023132101541506 6.023132101541506 0.0 0 0 0.09020662235716959,0.052121965281597404 z"/><path fill="#1835ff" d="M 96.37355305003905,106.4034454929183 l -1.0244637559999026 1.8089600955244527 a 9.43793282154026 9.43793282154026 0.0 0 1 -0.14134905685484211,-0.08167239213107669 l 1.0555989453955972 -1.790969983287538 a 7.359023825321987 7.359023825321987 0.0 0 0 0.11021386745914752,0.06368227989416209 z"/><path fill="#0048c0" d="M 77.20305162232145,159.6077153162921 l -0.47720223434348386 1.2477518684429056 a 65.15423219548705 65.15423219548705 0.0 0 1 -1.3620189895366006,-0.5385282674898533 l 0.5051284309149437 -1.2367101382080534 a 63.81834047170658 63.81834047170658 0.0 0 0 1.3340927929651407,0.527486537255001 z"/><path fill="#0c024c" d="M 76.72584938797797,160.85546718473498 l -0.8470572385703558 2.214820417926825 a 67.52550515511865 67.52550515511865 0.0 0 1 -1.4115893503798116,-0.5581278771493547 l 0.89662759941357 -2.1952208082673224 a 65.15423219548705 65.15423219548705 0.0 0 0 1.3620189895365975,0.5385282674898519 z"/><path fill="#24059c" d="M 74.64831621255064,166.287641878883 l -0.6720574950998024 1.757244486429316 a 72.85150424534363 72.85150424534363 0.0 0 1 -1.5229268898565433,-0.6021495924863571 l 0.7113867529380471 -1.7416941033230557 a 70.97012989083413 70.97012989083413 0.0 0 0 1.4835976320182986,0.5865992093800969 z"/><path fill="#d003ea" d="M 73.26057693207758,169.91619630613562 l -1.1137409383984767 2.9121245393159385 a 77.9728354129247 77.9728354129247 0.0 0 1 -1.6299859413855722,-0.64447963779554 l 1.1789178092029253 -2.886354276504349 a 74.85500151575333 74.85500151575333 0.0 0 0 1.5648090705811235,0.6187093749839505 z"/><path fill="#9369ed" d="M 69.76346702655273,156.20082432054087 l -0.6329330072904602 1.1764363586473472 a 65.15423219548705 65.15423219548705 0.0 0 1 -0.2712944289127259,-0.14678790381977436 l 0.6384955006248134 -1.1734266885268312 a 63.81834047170658 63.81834047170658 0.0 0 0 0.2657319355783727,0.14377823369925835 z"/><path fill="#000dcf" d="M 68.00704706389821,159.46549258925154 l -1.6320309903512602 3.0334657434090166 a 70.97012989083413 70.97012989083413 0.0 0 1 -0.2955111312006167,-0.1598907123828317 l 1.6463739956941978 -3.025705246088066 a 67.52550515511865 67.52550515511865 0.0 0 0 0.28116812585767903,0.15213021506188085 z"/><path fill="#3d3172" d="M 65.4836384964264,164.1557671559147 l -0.9492382727471828 1.7643548435876064 a 74.85500151575333 74.85500151575333 0.0 0 1 -0.3116872719265068,-0.16864305498921306 l 0.9575805957166779 -1.759841105113189 a 72.85150424534363 72.85150424534363 0.0 0 0 0.3033449489570117,0.16412931651479568 z"/><path fill="#220dbb" d="M 64.5344002236792,165.9201219995023 l -1.477200546751113 2.7456814737017474 a 77.9728354129247 77.9728354129247 0.0 0 1 -0.3246695593094635,-0.1756673155291928 l 1.4901828341340675 -2.7386572131617584 a 74.85500151575333 74.85500151575333 0.0 0 0 0.3116872719265089,0.16864305498920373 z"/><path fill="#e2a5fd" d="M 68.55413154819442,157.06339746540843 l -1.1444649877566022 2.0768089322032663 a 67.52550515511865 67.52550515511865 0.0 0 1 -0.21307263823453293,-0.11791911433941049 l 1.1519473958381425 -2.072668001948621 a 65.15423219548705 65.15423219548705 0.0 0 0 0.2055902301529926,0.11377818408476514 z"/><path fill="#070081" d="M 67.40966656043781,159.14020639761168 l -1.662504685499883 3.01687217836518 a 70.97012989083413 70.97012989083413 0.0 0 1 -0.2239419427807403,-0.12393442806618227 l 1.6733739900460876 -3.0108568646384057 a 67.52550515511865 67.52550515511865 0.0 0 0 0.21307263823453582,0.11791911433940783 z"/><path fill="#000698" d="M 65.74716187493793,162.15707857597687 l -0.9080216045367558 1.6477458018458269 a 72.85150424534363 72.85150424534363 0.0 0 1 -0.22987850551064837,-0.12721985328611152 l 0.9139581672666637 -1.6444603766259007 a 70.97012989083413 70.97012989083413 0.0 0 0 0.22394194278074053,0.12393442806618538 z"/><path fill="#8d08ec" d="M 64.83914027040117,163.80482437782268 l -0.9669626896964449 1.7547035274581624 a 74.85500151575333 74.85500151575333 0.0 0 1 -0.23620041969878924,-0.1307185405327267 l 0.9732846038845864 -1.7512048402115425 a 72.85150424534363 72.85150424534363 0.0 0 0 0.2298785055106478,0.12721985328610685 z"/><path fill="#00156c" d="M 68.99750793577307,155.78195108070537 l -0.6489666177316562 1.1676682006182706 a 65.15423219548705 65.15423219548705 0.0 0 1 -0.3879194707715281,-0.2173337591467519 l 0.6569203360556166 -1.1632120914698874 a 63.81834047170658 63.81834047170658 0.0 0 0 0.3799657524475677,0.21287764999836867 z"/><path fill="#5400af" d="M 67.19659392220328,159.02228728327228 l -1.673373990046081 3.0108568646384026 a 70.97012989083413 70.97012989083413 0.0 0 1 -0.4225465376560176,-0.2367337407956822 l 1.6938828190117263 -2.9993666940472323 a 67.52550515511865 67.52550515511865 0.0 0 0 0.40203770869037214,0.2252435702045119 z"/><path fill="#001f7d" d="M 65.52321993215719,162.03314414791066 l -0.9139581672666647 1.6444603766259043 a 72.85150424534363 72.85150424534363 0.0 0 1 -0.43374798565611783,-0.24300940619837164 l 0.9251596152667716 -1.638184711223218 a 70.97012989083413 70.97012989083413 0.0 0 0 0.4225465376560109,0.23673374079568532 z"/><path fill="#6d97ff" d="M 63.63597716100593,165.42880936474813 l -1.5146213445880314 2.7252174945991245 a 77.9728354129247 77.9728354129247 0.0 0 1 -0.46423969754082384,-0.2600925352136332 l 1.5331845051777435 -2.714817394123159 a 74.85500151575333 74.85500151575333 0.0 0 0 0.44567653695111176,0.24969243473766767 z"/><path fill="#9d00e4" d="M 67.06226398304321,172.96154692044314 l -1.5183388785298222 3.3633262853875356 a 83.74190926345963 83.74190926345963 0.0 0 1 -0.2727547355182507,-0.12371993666977854 l 1.5303580687741132 -3.357874451698862 a 80.05174440914297 80.05174440914297 0.0 0 0 0.2607355452739597,0.11826810298110502 z"/><path fill="#0a02ce" d="M 65.54392510451339,176.32487320583067 l -2.205611815771268 4.885728937223638 a 89.10241956844872 89.10241956844872 0.0 0 1 -0.2902143872427012,-0.13163953154508157 l 2.223071467495714 -4.877809342348328 a 83.74190926345963 83.74190926345963 0.0 0 0 0.27275473551825513,0.12371993666977232 z"/><path fill="#6538e9" d="M 63.338313288742114,181.2106021430543 l -1.2046541567127511 2.6684721358096817 a 92.03020630536759 92.03020630536759 0.0 0 1 -0.2997504451628694,-0.13596503108122926 l 1.2141902146329215 -2.664146636273543 a 89.10241956844872 89.10241956844872 0.0 0 0 0.290214387242699,0.13163953154509045 z"/><path fill="#bafffd" d="M 59.51670451083539,169.0607310219327 l -1.8661683802604214 3.1835094202075345 a 83.74190926345963 83.74190926345963 0.0 0 1 -0.4967952900995529,-0.29352506609713824 l 1.8880601252115383 -3.17057496609371 a 80.05174440914297 80.05174440914297 0.0 0 0 0.474903545148436,0.2805906119833139 z"/><path fill="#3e5f93" d="M 57.65053613057497,172.24424044214024 l -2.710885618437564 4.624518341799784 a 89.10241956844872 89.10241956844872 0.0 0 1 -0.5285962878970891,-0.3123142739791396 l 2.7426866162351047 -4.605729133917791 a 83.74190926345963 83.74190926345963 0.0 0 0 0.4967952900995485,0.29352506609714624 z"/><path fill="#e0c9ff" d="M 120.83859506926211,74.97605292031587 l 3.7898275082384165 -4.550999848697932 a 38.486837808172204 38.486837808172204 0.0 0 1 0.1919029922600446,0.1608665741768167 l -3.819357586207957 4.526245662105065 a 32.56447407693708 32.56447407693708 0.0 0 0 -0.16237291429050416,-0.1361123875839496 z"/><path fill="#dfbefe" d="M 124.62842257750053,70.42505307161794 l 2.0699161241241755 -2.4856508501320196 a 41.72149589051588 41.72149589051588 0.0 0 1 0.20803163779943068,0.17438673831535745 l -2.0860447696635624 2.472130685993477 a 38.486837808172204 38.486837808172204 0.0 0 0 -0.1919029922600437,-0.16086657417681494 z"/><path fill="#2719ff" d="M 128.9026162791943,65.2924039345717 l 3.4302873538309906 -4.119247431272054 a 50.52663093122045 50.52663093122045 0.0 0 1 0.25193578419843776,0.21119027920957834 l -3.457015919391388 4.096841669258005 a 45.16612062623136 45.16612062623136 0.0 0 0 -0.22520721863804027,-0.18878451719552913 z"/><path fill="#1c2059" d="M 118.3717296594373,78.22802400679237 l 2.62923832411531 -3.115858698892551 a 32.56447407693708 32.56447407693708 0.0 0 1 0.4121058131451032,0.35366989105824853 l -2.680832345798521 3.0715806240731283 a 28.4875304182068 28.4875304182068 0.0 0 0 -0.3605117914618923,-0.3093918162388256 z"/><path fill="#539bf2" d="M 121.00096798355261,75.11216530789982 l 3.819357586207957 -4.526245662105067 a 38.486837808172204 38.486837808172204 0.0 0 1 0.4870537614962842,0.41799034440518845 l -3.8943055345591375 4.461925208758128 a 32.56447407693708 32.56447407693708 0.0 0 0 -0.41210581314510364,-0.3536698910582494 z"/><path fill="#4211ff" d="M 124.82032556976057,70.58591964579475 l 2.0860447696635624 -2.472130685993476 a 41.72149589051588 41.72149589051588 0.0 0 1 0.527988597296833,0.4531206882544465 l -2.1269796054641112 2.4370003421442163 a 38.486837808172204 38.486837808172204 0.0 0 0 -0.4870537614962842,-0.4179903444051867 z"/><path fill="#0011f3" d="M 126.90637033942413,68.11378895980127 l 2.2214531584082096 -2.6326005080340473 a 45.16612062623136 45.16612062623136 0.0 0 1 0.5715805765297226,0.4905313969960887 l -2.265045137641099 2.595189799292406 a 41.72149589051588 41.72149589051588 0.0 0 0 -0.527988597296833,-0.4531206882544474 z"/><path fill="#004f78" d="M 129.12782349783234,65.48118845176722 l 3.4570159193913903 -4.0968416692580085 a 50.52663093122045 50.52663093122045 0.0 0 1 0.6394182284718659,0.5487497821941112 l -3.5248535713335336 4.038623284059987 a 45.16612062623136 45.16612062623136 0.0 0 0 -0.5715805765297226,-0.49053139699609005 z"/><path fill="#1418e4" d="M 120.85028927487473,84.15009611040577 l 1.8284749008972585 -1.3899639981820353 a 28.4875304182068 28.4875304182068 0.0 0 1 1.7494937980197496,2.583824707772375 l -1.969527802817371 1.1816431836145824 a 26.190723857032474 26.190723857032474 0.0 0 0 -1.608440896099637,-2.3755038932049217 z"/><path fill="#3326e1" d="M 122.67876417577199,82.76013211222374 l 3.2456321217356385 -2.467253883737724 a 32.56447407693708 32.56447407693708 0.0 0 1 1.999869577917679,2.953604313198992 l -3.4960079016335683 2.0974742783111076 a 28.4875304182068 28.4875304182068 0.0 0 0 -1.7494937980197491,-2.5838247077723757 z"/><path fill="#003fbe" d="M 125.92439629750763,80.29287822848602 l 4.714760755041991 -3.584051225605611 a 38.486837808172204 38.486837808172204 0.0 0 1 2.3635774341378513,3.4907638883722836 l -5.0784686112621635 3.0468916504323182 a 32.56447407693708 32.56447407693708 0.0 0 0 -1.9998695779176785,-2.9536043131989906 z"/><path fill="#2327c3" d="M 130.63915705254962,76.70882700288041 l 2.5750932692938133 -1.9575258782731284 a 41.72149589051588 41.72149589051588 0.0 0 1 2.5622262524347863,3.784148023524051 l -2.7737420875907475 1.6641417431213625 a 38.486837808172204 38.486837808172204 0.0 0 0 -2.363577434137852,-3.4907638883722854 z"/><path fill="#2726f4" d="M 133.21425032184342,74.75130112460728 l 2.742246551684055 -2.0845919072278494 a 45.16612062623136 45.16612062623136 0.0 0 1 2.77376967242138,4.096576176139809 l -2.953789971670652 1.772163754612091 a 41.72149589051588 41.72149589051588 0.0 0 0 -2.562226252434783,-3.7841480235240503 z"/><path fill="#bf2df7" d="M 135.9564968735275,72.66670921737943 l 4.267472374191696 -3.244033024709356 a 50.52663093122045 50.52663093122045 0.0 0 1 3.102972639302836,4.582775533155576 l -4.596675341073151 2.757833667693589 a 45.16612062623136 45.16612062623136 0.0 0 0 -2.7737696724213805,-4.096576176139809 z"/><path fill="#18219d" d="M 122.62496601571505,86.80663314604384 l 1.984105925246784 -1.15699786380703 a 28.4875304182068 28.4875304182068 0.0 0 1 0.14714797475718866,0.25536685281781857 l -1.99596972772191 1.1364089164869924 a 26.190723857032474 26.190723857032474 0.0 0 0 -0.1352841722820628,-0.234777905497781 z"/><path fill="#2000d9" d="M 124.60907194096183,85.6496352822368 l 3.521884779904242 -2.0537276337284625 a 32.56447407693708 32.56447407693708 0.0 0 1 0.16820680273470723,0.2919132384104448 l -3.54294360788176 2.017181248135836 a 28.4875304182068 28.4875304182068 0.0 0 0 -0.1471479747571891,-0.25536685281781857 z"/><path fill="#155efc" d="M 128.13095672086607,83.59590764850834 l 5.116058604692571 -2.9833431781141613 a 38.486837808172204 38.486837808172204 0.0 0 1 0.19879786542189581,0.34500226947371004 l -5.146649667379762 2.9302541470508956 a 32.56447407693708 32.56447407693708 0.0 0 0 -0.168206802734705,-0.29191323841044436 z"/><path fill="#41187b" d="M 133.24701532555864,80.61256447039418 l 2.7942728725244095 -1.6294330374536616 a 41.72149589051588 41.72149589051588 0.0 0 1 0.21550599627288136,0.37399827026084465 l -2.810981003375396 1.600437036666527 a 38.486837808172204 38.486837808172204 0.0 0 0 -0.19879786542189493,-0.34500226947371004 z"/><path fill="#140558" d="M 136.04128819808307,78.98313143294052 l 2.9756534415725175 -1.7352020532377672 a 45.16612062623136 45.16612062623136 0.0 0 1 0.23329867770991886,0.404876446255205 l -2.993446123009555 1.7043238772434073 a 41.72149589051588 41.72149589051588 0.0 0 0 -0.21550599627288136,-0.3739982702608451 z"/><path fill="#4d36ee" d="M 136.6304992699323,56.012405241979096 l 1.1305403086539878 -1.3576049998177215 a 59.00917938027819 59.00917938027819 0.0 0 1 1.7590825964509553,1.524620181525653 l -1.183206066899352 1.3119588897042789 a 57.2424839551917 57.2424839551917 0.0 0 0 -1.706416838205591,-1.4789740714122104 z"/><path fill="#2d69ff" d="M 137.7610395785863,54.65480024216137 l 1.203925426668693 -1.4457292377297637 a 60.8905537347877 60.8905537347877 0.0 0 1 1.8151669704277433,1.5732292511655632 l -1.2600098006454772 1.397120168089856 a 59.00917938027819 59.00917938027819 0.0 0 0 -1.759082596450959,-1.5246201815256555 z"/><path fill="#844aff" d="M 138.96496500525498,53.20907100443161 l 1.8735436081560444 -2.249837666414114 a 63.81834047170658 63.81834047170658 0.0 0 1 1.9024452337271534,1.6488744777758746 l -1.9608218714554582 2.1741924398038037 a 60.8905537347877 60.8905537347877 0.0 0 0 -1.8151669704277396,-1.5732292511655643 z"/><path fill="#3458ff" d="M 138.3053793153173,67.0509734776667 l 0.9510364238741033 -0.8180502298642562 a 51.78109354848579 51.78109354848579 0.0 0 1 2.2745179662014197,2.8403375992363786 l -1.0061395042720989 0.7492394517504479 a 50.52663093122045 50.52663093122045 0.0 0 0 -2.219414885803424,-2.7715268211225705 z"/><path fill="#000e37" d="M 139.25641573919143,66.23292324780243 l 1.688136033342143 -1.4520790533891115 a 54.00782587284801 54.00782587284801 0.0 0 1 2.372328621222455,2.962480086211839 l -1.7859466883631825 1.3299365664136502 a 51.78109354848579 51.78109354848579 0.0 0 0 -2.274517966201415,-2.8403375992363777 z"/><path fill="#5966fb" d="M 140.94455177253357,64.78084419441333 l 2.452267299757189 -2.109359618512917 a 57.2424839551917 57.2424839551917 0.0 0 1 2.5144130659227315,3.139910116022852 l -2.5943517444574624 1.9319295887019052 a 54.00782587284801 54.00782587284801 0.0 0 0 -2.372328621222458,-2.9624800862118406 z"/><path fill="#0e63b2" d="M 144.73619074907432,61.51940114296186 l 1.4263123615286797 -1.2268669484326975 a 60.8905537347877 60.8905537347877 0.0 0 1 2.6746568863410407,3.3400169320351876 l -1.5089529447460919 1.123668310645165 a 59.00917938027819 59.00917938027819 0.0 0 0 -2.5920163031236285,-3.236818294247655 z"/><path fill="#176bff" d="M 140.52479420112076,69.82250029878927 l 1.0061395042720935 -0.7492394517504478 a 51.78109354848579 51.78109354848579 0.0 0 1 0.07005984691294564,0.09430518257781972 l -1.0078367928556418 0.7469547891824888 a 50.52663093122045 50.52663093122045 0.0 0 0 -0.06836255832939742,-0.09202052000986072 z"/><path fill="#3e0b88" d="M 141.53093370539284,69.07326084703881 l 1.7859466883631858 -1.3299365664136513 a 54.00782587284801 54.00782587284801 0.0 0 1 0.07307261692357891,0.09836057005634413 l -1.7889594583738244 1.325881178935127 a 51.78109354848579 51.78109354848579 0.0 0 0 -0.07005984691294032,-0.09430518257781983 z"/><path fill="#001fd3" d="M 145.9112321382135,65.81139469192325 l 1.4169749139844765 -1.0551752547137447 a 59.00917938027819 59.00917938027819 0.0 0 1 0.07983945085998445,0.10746917559811142 l -1.419365253827479 1.0519576993628448 a 57.2424839551917 57.2424839551917 0.0 0 0 -0.07744911101698193,-0.10425162024721146 z"/><path fill="#1234b1" d="M 147.32820705219797,64.75621943720952 l 1.508952944746096 -1.1236683106451668 a 60.8905537347877 60.8905537347877 0.0 0 1 0.08238495135505564,0.11089558743765515 l -1.5114984452411662 1.1202418988056237 a 59.00917938027819 59.00917938027819 0.0 0 0 -0.07983945085998556,-0.10746917559811209 z"/><path fill="#6843df" d="M 148.83715999694408,63.63255112656435 l 2.3482261293043303 -1.7486478269023982 a 63.81834047170658 63.81834047170658 0.0 0 1 0.08634624835606441,0.11622775491139858 l -2.352187426305335 1.743315659428653 a 60.8905537347877 60.8905537347877 0.0 0 0 -0.08238495135505985,-0.11089558743765338 z"/><path fill="#300ff2" d="M 140.6543020707042,69.99719752416954 l 1.0093548934250987 -0.7449021125188284 a 51.78109354848579 51.78109354848579 0.0 0 1 0.12899416201024283,0.17556104351712665 l -1.0124799404837503 0.7406489237379823 a 50.52663093122045 50.52663093122045 0.0 0 0 -0.12586911495159114,-0.17130785473628052 z"/><path fill="#010958" d="M 141.6636569641293,69.25229541165072 l 1.791654160920645 -1.3222375777504216 a 54.00782587284801 54.00782587284801 0.0 0 1 0.13454127294433804,0.1831106610263089 l -1.797201271854739 1.3146879602412405 a 51.78109354848579 51.78109354848579 0.0 0 0 -0.12899416201024394,-0.17556104351712776 z"/><path fill="#213eeb" d="M 143.45531112504995,67.93005783390029 l 2.6026426926041015 -1.9207456688239193 a 57.2424839551917 57.2424839551917 0.0 0 1 0.1425992721121414,0.19407759720786566 l -2.6107006917719033 1.909778732642362 a 54.00782587284801 54.00782587284801 0.0 0 0 -0.1345412729443396,-0.18311066102630846 z"/><path fill="#29009f" d="M 146.05795381765407,66.00931216507638 l 1.4215032380878048 -1.0490668563668457 a 59.00917938027819 59.00917938027819 0.0 0 1 0.1470003648714704,0.20006748407873332 l -1.425904330847132 1.0430769694959778 a 57.2424839551917 57.2424839551917 0.0 0 0 -0.14259927211214318,-0.19407759720786544 z"/><path fill="#040c21" d="M 147.47945705574188,64.96024530870952 l 1.5137752093628125 -1.1171634067246614 a 60.8905537347877 60.8905537347877 0.0 0 1 0.1516871393610868,0.20644618376020385 l -1.5184619838524327 1.1107847070431944 a 59.00917938027819 59.00917938027819 0.0 0 0 -0.14700036487146662,-0.20006748407873687 z"/><path fill="#6752ef" d="M 148.99323226510467,63.84308190198487 l 2.355730516909537 -1.7385249231975943 a 63.81834047170658 63.81834047170658 0.0 0 1 0.15898067780904945,0.21637268896711914 l -2.3630240553574993 1.7285984179906748 a 60.8905537347877 60.8905537347877 0.0 0 0 -0.15168713936108702,-0.20644618376019963 z"/><path fill="#954fff" d="M 141.5286727421372,71.21962867619258 l 1.0310635508346726 -0.7145518961253983 a 51.78109354848579 51.78109354848579 0.0 0 1 2.087588999633213,3.26711367942133 l -1.081638040108487 0.6354019265838602 a 50.52663093122045 50.52663093122045 0.0 0 0 -2.0370145103593984,-3.187963709879792 z"/><path fill="#5f06ad" d="M 144.38992437950105,69.23671231656067 l 2.6586189195400505 -1.8424870014019283 a 57.2424839551917 57.2424839551917 0.0 0 1 2.307768562373926,3.6116985864531204 l -2.789026297359378 1.63839715036044 a 54.00782587284801 54.00782587284801 0.0 0 0 -2.1773611845545986,-3.407608735411632 z"/><path fill="#0700c2" d="M 147.0485432990411,67.39422531515874 l 1.4520761584781077 -1.0063237823886464 a 59.00917938027819 59.00917938027819 0.0 0 1 2.3789940557416775,3.7231677423771163 l -1.5233016518458626 0.8948546264646531 a 57.2424839551917 57.2424839551917 0.0 0 0 -2.307768562373923,-3.611698586453123 z"/><path fill="#8f35f6" d="M 148.43556855089645,58.44550229260288 l 1.013888400818428 -0.8698488422427351 a 65.15423219548705 65.15423219548705 0.0 0 1 0.15372212538058516,0.17983686578815017 l -1.0170402469554816 0.8661615517545869 a 63.81834047170658 63.81834047170658 0.0 0 0 -0.1505702792435315,-0.17614957530000197 z"/><path fill="#0200bd" d="M 149.44945695171486,57.57565345036014 l 1.7997013576378253 -1.5440241165203867 a 67.52550515511865 67.52550515511865 0.0 0 1 0.159316805985807,0.1863819862295808 l -1.8052960382430427 1.5374789960789599 a 65.15423219548705 65.15423219548705 0.0 0 0 -0.1537221253805896,-0.17983686578815394 z"/><path fill="#4395fd" d="M 153.86349074554053,53.78870591049264 l 1.4278879056427902 -1.2250328937318777 a 72.85150424534363 72.85150424534363 0.0 0 1 0.17188274180203766,0.20108265802481573 l -1.4323267403073459 1.2198399775407367 a 70.97012989083413 70.97012989083413 0.0 0 0 -0.16744390713748203,-0.1958897418336747 z"/><path fill="#5a72e2" d="M 156.81195296673582,51.259121345334485 l 2.3663112569293987 -2.0301377405683576 a 77.9728354129247 77.9728354129247 0.0 0 1 0.18396579282313885,0.21521841121852336 l -2.373667341670277 2.021531983778331 a 74.85500151575333 74.85500151575333 0.0 0 0 -0.1766097080822604,-0.20661265442849697 z"/><path fill="#c69cff" d="M 150.59715909037806,61.10645204477181 l 1.0591363795429118 -0.8141479148127254 a 65.15423219548705 65.15423219548705 0.0 0 1 1.861028160829663,2.546290563124142 l -1.0972940253933814 0.7619399710614729 a 63.81834047170658 63.81834047170658 0.0 0 0 -1.8228705149791935,-2.4940826193728896 z"/><path fill="#4b0550" d="M 151.65629546992096,60.29230412995908 l 1.8800187265662864 -1.4451522538611878 a 67.52550515511865 67.52550515511865 0.0 0 1 1.9287598431192783,2.638962209404695 l -1.947750408855896 1.3524806075806382 a 65.15423219548705 65.15423219548705 0.0 0 0 -1.8610281608296688,-2.5462905631241455 z"/><path fill="#001fc3" d="M 153.53631419648724,58.84715187609789 l 2.7310052952084676 -2.099297417577186 a 70.97012989083413 70.97012989083413 0.0 0 1 2.0271501306054787,2.7735814837404034 l -2.829395582694673 1.9646781432414784 a 67.52550515511865 67.52550515511865 0.0 0 0 -1.9287598431192734,-2.6389622094046956 z"/><path fill="#001582" d="M 156.26731949169573,56.747854458520706 l 1.4916119225299735 -1.146587691531916 a 72.85150424534363 72.85150424534363 0.0 0 1 2.0808886298068745,2.847107417561826 l -1.5453504217313707 1.0730617577104908 a 70.97012989083413 70.97012989083413 0.0 0 0 -2.0271501306054773,-2.7735814837404007 z"/><path fill="#2409b3" d="M 157.75893141422569,55.60126676698879 l 1.5884347568235466 -1.2210144699609509 a 74.85500151575333 74.85500151575333 0.0 0 1 2.1381153780124427,2.925406033338357 l -1.6456615050291106 1.1427158541844236 a 72.85150424534363 72.85150424534363 0.0 0 0 -2.0808886298068785,-2.84710741756183 z"/><path fill="#76a1f1" d="M 155.73333922782814,66.25286869229805 l 2.028401775411879 -1.228218908251265 a 67.52550515511865 67.52550515511865 0.0 0 1 0.9192408509028458,1.5652287691863056 l -2.060682481318885 1.173253237909627 a 65.15423219548705 65.15423219548705 0.0 0 0 -0.8869601449958395,-1.5102630988446677 z"/><path fill="#0636c3" d="M 157.76174100324,65.0246497840468 l 2.946553622674663 -1.7841696440097141 a 70.97012989083413 70.97012989083413 0.0 0 1 0.9661333512377372,1.6450745359526155 l -2.993446123009555 1.7043238772434037 a 67.52550515511865 67.52550515511865 0.0 0 0 -0.9192408509028454,-1.5652287691863052 z"/><path fill="#0c48a1" d="M 162.3176340591507,62.26600794934226 l 1.7138041421276324 -1.0377266860620245 a 74.85500151575333 74.85500151575333 0.0 0 1 1.0190190377636728,1.7351251445034228 l -1.7410782296209746 0.9912859884407652 a 72.85150424534363 72.85150424534363 0.0 0 0 -0.9917449502703306,-1.6886844468821636 z"/><path fill="#2e68ff" d="M 164.03143820127832,61.22828126328024 l 2.6670146879439276 -1.614905837701425 a 77.9728354129247 77.9728354129247 0.0 0 1 1.0614628562590038,1.8073959598373612 l -2.709458506439262 1.5426350223674845 a 74.85500151575333 74.85500151575333 0.0 0 0 -1.0190190377636696,-1.7351251445034208 z"/><path fill="#1e3ab6" d="M 98.2897135114714,104.45141873759627 l -0.4499138536959848 1.1710055432698137 a 6.023132101541506 6.023132101541506 0.0 0 1 -0.23944585660170747,-0.09794978702703316 l 0.4997842319148258 -1.150605136285038 a 4.768669484276168 4.768669484276168 0.0 0 0 0.18957547838286648,0.07754938004225753 z"/><path fill="#5f00bd" d="M 97.36068120076082,106.86944160304455 l -0.745602096944733 1.940603031943649 a 9.43793282154026 9.43793282154026 0.0 0 1 -0.375199127448111,-0.153482190704187 l 0.828247826276999 -1.9067952571853892 a 7.359023825321987 7.359023825321987 0.0 0 0 0.292553398115845,0.11967441594592731 z"/><path fill="#8e41ff" d="M 100.0,100.0 l -0.35487760183967343 0.8170005481462089 a 0.8907457594390689 0.8907457594390689 0.0 0 1 -0.004498127404272467,-0.001968589761100259 l 0.3593757292439459 -0.8150319583851087 z"/><path fill="#ba86ff" d="M 99.64512239816032,100.81700054814621 l -0.6299250502427721 1.4502158171477981 a 2.4718629231018427 2.4718629231018427 0.0 0 1 -0.012482522915417738,-0.00546293259293873 l 0.6379094457539174 -1.4467214743159595 a 0.8907457594390689 0.8907457594390689 0.0 0 0 0.004498127404272467,0.001968589761100259 z"/><path fill="#40009d" d="M 97.60035380117371,105.52447449383905 l -0.5322259985287234 1.2252926932595691 a 7.359023825321987 7.359023825321987 0.0 0 1 -0.037161924585776385,-0.016263786608812003 l 0.5389720437478012 -1.2223403101115098 a 6.023132101541506 6.023132101541506 0.0 0 0 0.03041587936669865,0.013311403460752658 z"/><path fill="#3628ff" d="M 99.00271482500213,102.26175343270107 l -0.9266578303713664 2.1015769424089283 a 4.768669484276168 4.768669484276168 0.0 0 1 -0.1989541670707442,-0.09325821582356397 l 1.0224831413533497 -2.056659574431708 a 2.4718629231018427 2.4718629231018427 0.0 0 0 0.10312885608876088,0.04834084784634385 z"/><path fill="#200048" d="M 97.56993792180701,105.5111630903783 l -0.5389720437478013 1.2223403101115102 a 7.359023825321987 7.359023825321987 0.0 0 1 -0.307026616218283,-0.1439163344021943 l 0.5947069245311751 -1.1962150189576528 a 6.023132101541506 6.023132101541506 0.0 0 0 0.2512917354349091,0.11779104324833689 z"/><path fill="#3174e1" d="M 99.60346137212672,100.79761213917735 l -0.7038754032133351 1.4158004456773843 a 2.4718629231018427 2.4718629231018427 0.0 0 1 -0.023103651952297244,-0.011637317824857885 l 0.7186535611377352 -1.4083566821984643 a 0.8907457594390689 0.8907457594390689 0.0 0 0 0.008325494027897229,0.004193554345938044 z"/><path fill="#2e00dc" d="M 97.31864618637209,105.39337204712997 l -0.5947069245311754 1.1962150189576521 a 7.359023825321987 7.359023825321987 0.0 0 1 -0.06878226279455268,-0.03464565058830549 l 0.607193044673084 -1.1899257557368088 a 6.023132101541506 6.023132101541506 0.0 0 0 0.05629614265264404,0.028356387367462155 z"/><path fill="#0413d3" d="M 100.0,100.0 l -0.40486412190118626 0.7934185848314022 a 0.8907457594390689 0.8907457594390689 0.0 0 1 -0.00885188850937596,-0.004579519692858747 l 0.4137160104105622 -0.7888390651385434 z"/><path fill="#230f7f" d="M 97.83253171521775,104.24762167391705 l -0.5701816714983048 1.1173939858454593 a 6.023132101541506 6.023132101541506 0.0 0 1 -0.059855568522340086,-0.0309662457321922 l 0.582648038146186 -1.1109445178588375 a 4.768669484276168 4.768669484276168 0.0 0 0 0.04738920187445883,0.024516777745570373 z"/><path fill="#1c73f0" d="M 96.65515699904637,106.55494141549931 l -0.9449112233735668 1.8517573800311786 a 9.43793282154026 9.43793282154026 0.0 0 1 -0.09379054372132489,-0.04852248664460612 l 0.9655706208061763 -1.8410692520362293 a 7.359023825321987 7.359023825321987 0.0 0 0 0.07313114628871542,0.037834358649656785 z"/><path fill="#000b6b" d="M 100.0,100.0 l -0.4137160104105622 0.7888390651385434 a 0.8907457594390689 0.8907457594390689 0.0 0 1 -0.002888714741064946,-0.0015217778013347782 l 0.41660472515162716 -0.7873172873372086 z"/><path fill="#8d62ff" d="M 98.85191789465102,102.18906687654422 l -1.066775381307717 2.0340380196272645 a 4.768669484276168 4.768669484276168 0.0 0 1 -0.015464935632329091,-0.008146943486594616 l 1.0742239926542556 -2.030114083754748 a 2.4718629231018427 2.4718629231018427 0.0 0 0 0.008016324285790466,0.0042230076140779005 z"/><path fill="#aa93e7" d="M 97.7851425133433,104.22310489617148 l -0.5826480381461859 1.110944517858837 a 6.023132101541506 6.023132101541506 0.0 0 1 -0.019533194859172043,-0.010290106497284679 l 0.5867162973730289 -1.108801354848147 a 4.768669484276168 4.768669484276168 0.0 0 0 0.015464935632329091,0.008146943486594616 z"/><path fill="#1003a1" d="M 97.76967757771097,104.21495795268488 l -0.586716297373029 1.1088013548481472 a 6.023132101541506 6.023132101541506 0.0 0 1 -0.003994192941890851,-0.0021154244246262 l 0.5875481844456147 -1.1083607666598745 a 4.768669484276168 4.768669484276168 0.0 0 0 0.0031623058693051043,0.0016748362363534497 z"/><path fill="#1c4c99" d="M 96.55816032168015,106.50453467131967 l -0.9723125839298511 1.837517579150992 a 9.43793282154026 9.43793282154026 0.0 0 1 -0.006258691329746768,-0.0033147593763647176 l 0.9736911961700514 -1.836787431647494 a 7.359023825321987 7.359023825321987 0.0 0 0 0.004880079089546463,0.0025846118728667378 z"/><path fill="#004cdd" d="M 100.0,100.0 l -0.4171954162348362 0.7870044425740718 a 0.8907457594390689 0.8907457594390689 0.0 0 1 -0.021754411783572902,-0.011923120104427531 l 0.4389498280184091 -0.7750813224696442 z"/><path fill="#004292" d="M 98.84226237380199,102.18397570945534 l -1.0757471019603229 2.029307406993183 a 4.768669484276168 4.768669484276168 0.0 0 1 -0.11646375918312524,-0.06383125420114055 l 1.1318413075060927 -1.9985633925588466 a 2.4718629231018427 2.4718629231018427 0.0 0 0 0.06036955363735541,0.03308723976680428 z"/><path fill="#9a40ff" d="M 75.87879214940762,163.0702876026618 l -1.2304759368569724 3.2173542762212075 a 70.97012989083413 70.97012989083413 0.0 0 1 -1.4835976320182989,-0.5865992093801036 l 1.302484218495458 -3.188882943990457 a 67.52550515511865 67.52550515511865 0.0 0 0 1.4115893503798134,0.558127877149353 z"/><path fill="#0048df" d="M 73.97625871745085,168.04488636531232 l -0.7156817853732629 1.8713099408232836 a 74.85500151575333 74.85500151575333 0.0 0 1 -1.564809070581124,-0.6187093749839534 l 0.7575639660978446 -1.8547501583257002 a 72.85150424534363 72.85150424534363 0.0 0 0 1.5229268898565422,0.60214959248637 z"/><path fill="#8090ff" d="M 69.13053401926227,157.37726067918823 l -1.1234869553640614 2.0882319100633397 a 67.52550515511865 67.52550515511865 0.0 0 1 -0.28116812585767903,-0.15213021506187818 l 1.1333606523090154 -2.0828895988212324 a 65.15423219548705 65.15423219548705 0.0 0 0 0.27129442891272504,0.1467879038197708 z"/><path fill="#4803ff" d="M 66.37501607354696,162.49895833266058 l -0.8913775771205585 1.6568088232541298 a 72.85150424534363 72.85150424534363 0.0 0 1 -0.30334494895701813,-0.16412931651479412 l 0.8992113948769571 -1.6525702191221683 a 70.97012989083413 70.97012989083413 0.0 0 0 0.29551113120061956,0.1598907123828326 z"/><path fill="#12002a" d="M 69.19888284057119,155.89339641043298 l -0.6447512923767742 1.1700010549754454 a 65.15423219548705 65.15423219548705 0.0 0 1 -0.20559023015299305,-0.1137781840847667 l 0.6489666177316558 -1.167668200618273 a 63.81834047170658 63.81834047170658 0.0 0 0 0.2013749047981115,0.11144532972759436 z"/><path fill="#0051be" d="M 63.87217758070473,165.55952790528085 l -1.5047832087233488 2.7306621367527417 a 77.9728354129247 77.9728354129247 0.0 0 1 -0.2460385555634772,-0.1361631826863463 l 1.5146213445880363 -2.7252174945991214 a 74.85500151575333 74.85500151575333 0.0 0 0 0.2362004196987897,0.13071854053272602 z"/><path fill="#076fb9" d="M 68.34854131804141,156.94961928132363 l -1.151947395838145 2.0726680019486254 a 67.52550515511865 67.52550515511865 0.0 0 1 -0.4020377086903697,-0.22524357020451635 l 1.1660656337569861 -2.0647581908908634 a 65.15423219548705 65.15423219548705 0.0 0 0 0.38791947077152855,0.21733375914675435 z"/><path fill="#11326a" d="M 64.60926176489053,163.67760452453658 l -0.9732846038845913 1.7512048402115374 a 74.85500151575333 74.85500151575333 0.0 0 1 -0.44567653695110687,-0.24969243473766256 l 0.9852131551795793 -1.744521811672243 a 72.85150424534363 72.85150424534363 0.0 0 0 0.43374798565611883,0.24300940619836808 z"/><path fill="#aba0fe" d="M 67.91764266624519,171.06676727022494 l -0.8553786832019799 1.8947796502181777 a 80.05174440914297 80.05174440914297 0.0 0 1 -0.2607355452739637,-0.11826810298109969 l 0.8621498719462721 -1.8917082790061102 a 77.9728354129247 77.9728354129247 0.0 0 0 0.2539643565296714,0.11519673176903211 z"/><path fill="#270063" d="M 62.133659132029365,183.87907427886398 l -1.2828501191039758 2.841686784687169 a 95.14804020253895 95.14804020253895 0.0 0 1 -0.3099055033349676,-0.14057130547475039 l 1.293005177276072 -2.837080510293646 a 92.03020630536759 92.03020630536759 0.0 0 0 0.2997504451628714,0.13596503108122704 z"/><path fill="#524eff" d="M 60.85080901292539,186.72076106355115 l -1.9963658775111779 4.422220840176041 a 100.0 100.0 0.0 0 1 -0.32570876149974337,-0.1477395700169124 l 2.012169135675954 -4.415052575633879 a 95.14804020253895 95.14804020253895 0.0 0 0 0.30990550333496714,0.14057130547475083 z"/><path fill="#2a2dff" d="M 60.56803809276011,167.26725386454413 l -1.051333581924727 1.793477157388573 a 80.05174440914297 80.05174440914297 0.0 0 1 -0.47490354514843225,-0.28059061198332147 l 1.0636666205066092 -1.7861903411947253 a 77.9728354129247 77.9728354129247 0.0 0 0 0.46257050656654997,0.2733037957894737 z"/><path fill="#0d06a7" d="M 54.939650512137405,176.86875878394002 l -1.4806230204573287 2.525804950539493 a 92.03020630536759 92.03020630536759 0.0 0 1 -0.5459652573188487,-0.32257650471917776 l 1.4979919898790897 -2.5155427197994555 a 89.10241956844872 89.10241956844872 0.0 0 0 0.5285962878970878,0.31231427397914047 z"/><path fill="#0833be" d="M 53.459027491680075,179.3945637344795 l -1.5767325481405259 2.6897588520135165 a 95.14804020253895 95.14804020253895 0.0 0 1 -0.5644616733792354,-0.33350487271073836 l 1.5952289642009063 -2.678830484021958 a 92.03020630536759 92.03020630536759 0.0 0 0 0.5459652573188549,0.32257650471918 z"/><path fill="#2756f4" d="M 51.88229494353955,182.08432258649304 l -2.453704458684211 4.185791240089678 a 100.0 100.0 0.0 0 1 -0.5932457170717131,-0.3505115523144937 l 2.4824885023766896 -4.168784560485918 a 95.14804020253895 95.14804020253895 0.0 0 0 0.5644616733792347,0.3335048727107335 z"/><path fill="#4c76f4" d="M 116.75991719498074,79.87391762481533 l 1.4697679983302196 -1.76496527176537 a 28.4875304182068 28.4875304182068 0.0 0 1 0.14204446612633936,0.11907165374240303 l -1.4812203305256766 1.7553651221016189 a 26.190723857032474 26.190723857032474 0.0 0 0 -0.13059213393088243,-0.1094715040786518 z"/><path fill="#4b10b7" d="M 118.22968519331096,78.10895235304997 l 2.6089098759511478 -3.1328994327340975 a 32.56447407693708 32.56447407693708 0.0 0 1 0.1623729142905015,0.13611238758394784 l -2.6292383241153097 3.115858698892552 a 28.4875304182068 28.4875304182068 0.0 0 0 -0.14204446612633959,-0.11907165374240236 z"/><path fill="#9368f5" d="M 126.6983387016247,67.93940222148592 l 2.2042775775695986 -2.6469982869142235 a 45.16612062623136 45.16612062623136 0.0 0 1 0.22520721863804027,0.18878451719553402 l -2.2214531584082096 2.6326005080340487 a 41.72149589051588 41.72149589051588 0.0 0 0 -0.20803163779942935,-0.17438673831535922 z"/><path fill="#c1b3f9" d="M 116.89050932891163,79.98338912889399 l 1.4812203305256764 -1.7553651221016195 a 28.4875304182068 28.4875304182068 0.0 0 1 0.3605117914618925,0.3093918162388263 l -1.5102865863876147 1.7304204132034116 a 26.190723857032474 26.190723857032474 0.0 0 0 -0.33144553559995416,-0.2844471073406183 z"/><path fill="#1900ef" d="M 139.01694163965556,77.24792937970275 l 4.630699179576253 -2.700314025843301 a 50.52663093122045 50.52663093122045 0.0 0 1 0.2609875725865374,0.45292893188616956 l -4.658388074452873 2.6522615402123364 a 45.16612062623136 45.16612062623136 0.0 0 0 -0.23329867770991797,-0.404876446255205 z"/><path fill="#233bff" d="M 132.3329036330253,61.17315650329964 l 0.8027532841143894 -0.9639832067830684 a 51.78109354848579 51.78109354848579 0.0 0 1 1.543611035485489,1.337868126189774 l -0.8401492177827592 0.9315716558457723 a 50.52663093122045 50.52663093122045 0.0 0 0 -1.5062151018171193,-1.305456575252478 z"/><path fill="#0045e0" d="M 133.13565691713967,60.20917329651657 l 1.4249262286684374 -1.7111172044054452 a 54.00782587284801 54.00782587284801 0.0 0 1 1.6099906415040361,1.3954002097779945 l -1.4913058346869832 1.653585120817226 a 51.78109354848579 51.78109354848579 0.0 0 0 -1.5436110354854904,-1.3378681261897754 z"/><path fill="#090048" d="M 134.56058314580812,58.49805609211112 l 2.069916124124185 -2.4856508501320302 a 57.2424839551917 57.2424839551917 0.0 0 1 1.7064168382055902,1.4789740714122157 l -2.1663423208257413 2.402076988497811 a 54.00782587284801 54.00782587284801 0.0 0 0 -1.6099906415040337,-1.3954002097779963 z"/><path fill="#012496" d="M 143.39681907229075,62.67148457590041 l 1.3393716767835777 -1.1520834329385514 a 59.00917938027819 59.00917938027819 0.0 0 1 2.5920163031236294,3.23681829424766 l -1.4169749139844754 1.0551752547137454 a 57.2424839551917 57.2424839551917 0.0 0 0 -2.5144130659227315,-3.139910116022854 z"/><path fill="#8882fd" d="M 146.162503110603,60.29253419452916 l 2.219621206581084 -1.9092451063636668 a 63.81834047170658 63.81834047170658 0.0 0 1 2.803261809064286,3.5006142114964582 l -2.3482261293043294 1.748647826902399 a 60.8905537347877 60.8905537347877 0.0 0 0 -2.6746568863410403,-3.3400169320351907 z"/><path fill="#00a8ec" d="M 143.31688039375604,67.74332428062516 l 2.594351744457459 -1.9319295887019052 a 57.2424839551917 57.2424839551917 0.0 0 1 0.07744911101698548,0.10425162024721146 l -2.598728238550862 1.9260385385110368 a 54.00782587284801 54.00782587284801 0.0 0 0 -0.07307261692358225,-0.09836057005634302 z"/><path fill="#6052ff" d="M 142.55973629297188,70.50507678006718 l 1.8301880865291904 -1.2683644635065205 a 54.00782587284801 54.00782587284801 0.0 0 1 2.1773611845545986,3.4076087354116336 l -1.9199602714505772 1.1278694075162186 a 51.78109354848579 51.78109354848579 0.0 0 0 -2.087588999633212,-3.267113679421332 z"/><path fill="#243dff" d="M 148.5006194575192,66.38790153277009 l 1.5463326652479779 -1.0716458137804503 a 60.8905537347877 60.8905537347877 0.0 0 1 2.4548429059207235,3.841872533421655 l -1.6221815154270232 0.9529410227359136 a 59.00917938027819 59.00917938027819 0.0 0 0 -2.3789940557416784,-3.723167742377118 z"/><path fill="#2118ff" d="M 150.04695212276718,65.31625571898965 l 2.406396290735959 -1.6676906394203623 a 63.81834047170658 63.81834047170658 0.0 0 1 2.5728785626907147,4.026600422369368 l -2.5244319475059456 1.4829627504726481 a 60.8905537347877 60.8905537347877 0.0 0 0 -2.454842905920728,-3.841872533421654 z"/><path fill="#288ffa" d="M 151.2491583093527,56.03162933383976 l 2.6143324361878237 -2.242923423347122 a 70.97012989083413 70.97012989083413 0.0 0 1 0.16744390713748114,0.1958897418336747 l -2.622459537339502 2.2334156677430244 a 67.52550515511865 67.52550515511865 0.0 0 0 -0.159316805985803,-0.18638198622957702 z"/><path fill="#a800e4" d="M 155.29137865118332,52.56367301676076 l 1.5205743155525173 -1.3045516714262781 a 74.85500151575333 74.85500151575333 0.0 0 1 0.17660970808225862,0.20661265442850052 l -1.5253012818327392 1.299021675022594 a 72.85150424534363 72.85150424534363 0.0 0 0 -0.17188274180203678,-0.2010826580248164 z"/><path fill="#530f84" d="M 159.34736617104923,54.38025229702784 l 2.4719153858676712 -1.9001375043563213 a 77.9728354129247 77.9728354129247 0.0 0 1 2.2271713992086752,3.0472540048705223 l -2.560971407063903 1.7782895328241537 a 74.85500151575333 74.85500151575333 0.0 0 0 -2.1381153780124436,-2.925406033338355 z"/><path fill="#5e2ad1" d="M 154.59060906120263,66.94480399559544 l 1.1427301666254996 -0.6919353032973773 a 65.15423219548705 65.15423219548705 0.0 0 1 0.8869601449958375,1.5102630988446677 l -1.1609159801497597 0.6609695792531696 a 63.81834047170658 63.81834047170658 0.0 0 0 -0.8687743314715775,-1.4792973748004599 z"/><path fill="#3a48cd" d="M 160.70829462591468,63.24048014003708 l 1.6093394332360376 -0.9744721906948196 a 72.85150424534363 72.85150424534363 0.0 0 1 0.9917449502703306,1.6886844468821645 l -1.6349510322686314 0.9308622797652717 a 70.97012989083413 70.97012989083413 0.0 0 0 -0.9661333512377368,-1.6450745359526167 z"/></g></svg>