<?xml version='1.0' encoding='UTF-8'?>
<svg preserveAspectRatio="xMidYMid meet" xmlns="http://www.w3.org/2000/svg" xmlns:svg="http://www.w3.org/2000/svg"><g><path fill="#bb11b2" d="M 100.0,100.0 l -4.7680981951651455 8.790064823496063 a 10.0 10.0 0.0 0 1 -4.256044745517799,-4.481370800230756 l 9.024142940682944 -4.308694023265307 z"/><path fill="#ff00f2" d="M 100.0,100.0 l -9.024142940682944 4.308694023265307 a 10.0 10.0 0.0 0 1 -0.8091288615143402,-6.1271454699945735 l 9.833271802197284 1.818451446729266 z"/><path fill="#e500d9" d="M 100.0,100.0 l -9.833271802197284 -1.818451446729266 a 10.0 10.0 0.0 0 1 2.9468467463090917,-5.432558824235416 l 6.886425055888193 7.251010270964682 z"/><path fill="#fc49f2" d="M 100.0,100.0 l -6.886425055888193 -7.251010270964682 a 10.0 10.0 0.0 0 1 5.577227056679483,-2.6629193535014872 l 1.30919799920871 9.913929624466169 z"/><path fill="#d505ca" d="M 100.0,100.0 l -1.30919799920871 -9.913929624466169 a 10.0 10.0 0.0 0 1 6.077296194373854,1.1238648009701055 l -4.768098195165145 8.790064823496063 z"/><path fill="#fd00ef" d="M 100.0,100.0 l 4.768098195165145 -8.790064823496063 a 10.0 10.0 0.0 0 1 4.2560447455178,4.4813708002307555 l -9.024142940682944 4.308694023265308 z"/><path fill="#ff2df4" d="M 100.0,100.0 l 9.024142940682944 -4.308694023265308 a 10.0 10.0 0.0 0 1 0.8091288615143402,6.127145469994575 l -9.833271802197284 -1.8184514467292674 z"/><path fill="#ff38f4" d="M 100.0,100.0 l 9.833271802197284 1.8184514467292652 a 10.0 10.0 0.0 0 1 -2.94684674630909,5.432558824235414 l -6.8864250558881945 -7.251010270964679 z"/><path fill="#ff1ff3" d="M 100.0,100.0 l 6.886425055888191 7.251010270964682 a 10.0 10.0 0.0 0 1 -5.577227056679491,2.662919353501489 l -1.3091979992087 -9.91392962446617 z"/><path fill="#ec03e0" d="M 100.0,100.0 l 1.3091979992087 9.91392962446617 a 10.0 10.0 0.0 0 1 -6.0772961943738455,-1.1238648009701073 l 4.7680981951651455 -8.790064823496063 z"/><path fill="#fa00ed" d="M 90.0810305946643,98.72954892419492 l -9.918969405335702 -1.2704510758050818 a 20.0 20.0 0.0 0 1 5.2822139917025694,-11.175178738879467 l 7.277862409484417 6.858040445244815 a 10.0 10.0 0.0 0 0 -2.6411069958512847,5.5875893694397325 z"/><path fill="#e800dc" d="M 92.72213759051559,93.14195955475518 l -7.277862409484417 -6.858040445244814 a 20.0 20.0 0.0 0 1 10.842006141658267,-5.93610203115535 l 1.8568593386552834 9.82609146082249 a 10.0 10.0 0.0 0 0 -5.4210030708291335,2.968051015577675 z"/><path fill="#c90abf" d="M 98.14314066134472,90.17390853917752 l -1.8568593386552834 -9.82609146082249 a 20.0 20.0 0.0 0 1 12.260520451735594,1.5703638917828222 l -4.273400887212514 9.040909514931078 a 10.0 10.0 0.0 0 0 -6.130260225867797,-0.7851819458914111 z"/><path fill="#fa00ed" d="M 104.27340088721252,90.95909048506893 l 4.273400887212514 -9.040909514931078 a 20.0 20.0 0.0 0 1 8.995932669013143,8.477004182765517 l -8.771367221719085 4.80240742354832 a 10.0 10.0 0.0 0 0 -4.497966334506572,-4.238502091382759 z"/><path fill="#ab18a3" d="M 108.77136722171909,95.19759257645168 l 8.771367221719085 -4.80240742354832 a 20.0 20.0 0.0 0 1 2.2952043672332323,12.145716998706813 l -9.918969405335702 -1.270451075805087 a 10.0 10.0 0.0 0 0 -1.1476021836166161,-6.072858499353408 z"/><path fill="#cc00c1" d="M 109.9189694053357,101.27045107580508 l 9.918969405335702 1.2704510758050853 a 20.0 20.0 0.0 0 1 -5.282213991702578,11.175178738879467 l -7.277862409484412 -6.858040445244818 a 10.0 10.0 0.0 0 0 2.641106995851289,-5.587589369439733 z"/><path fill="#e200d6" d="M 107.27786240948441,106.85804044524482 l 7.277862409484413 6.858040445244816 a 20.0 20.0 0.0 0 1 -10.842006141658263,5.936102031155347 l -1.8568593386552825 -9.82609146082249 a 10.0 10.0 0.0 0 0 5.421003070829132,-2.9680510155776734 z"/><path fill="#d800cc" d="M 101.85685933865528,109.82609146082248 l 1.8568593386552845 9.82609146082249 a 20.0 20.0 0.0 0 1 -12.2605204517356,-1.5703638917828222 l 4.2734008872125155 -9.040909514931078 a 10.0 10.0 0.0 0 0 6.130260225867799,0.7851819458914111 z"/><path fill="#8d0086" d="M 95.72659911278748,109.04090951493107 l -4.273400887212512 9.04090951493108 a 20.0 20.0 0.0 0 1 -8.995932669013147,-8.477004182765523 l 8.771367221719085 -4.802407423548319 a 10.0 10.0 0.0 0 0 4.4979663345065735,4.238502091382761 z"/><path fill="#ba0db1" d="M 91.22863277828091,104.80240742354832 l -8.771367221719085 4.8024074235483205 a 20.0 20.0 0.0 0 1 -2.2952043672332323,-12.145716998706813 l 9.918969405335702 1.2704510758050862 a 10.0 10.0 0.0 0 0 1.1476021836166161,6.072858499353407 z"/><path fill="#ef20e4" d="M 90.2912354985276,82.51458059253513 l -4.854382250736203 -8.742709703732437 a 30.0 30.0 0.0 0 1 18.19782102488019,-3.5508759583408462 l -1.2115580908905272 9.926335023179387 a 20.0 20.0 0.0 0 0 -12.131880683253463,2.3672506388938963 z"/><path fill="#ff04f2" d="M 102.42311618178105,80.14732995364123 l 1.2115580908905286 -9.926335023179385 a 30.0 30.0 0.0 0 1 16.809498990754452,7.823691827067302 l -6.814724421142014 7.318437747490284 a 20.0 20.0 0.0 0 0 -11.206332660502966,-5.215794551378201 z"/><path fill="#ff05f2" d="M 113.62944884228403,85.36312450501943 l 6.814724421142012 -7.318437747490285 a 30.0 30.0 0.0 0 1 9.000519676017563,16.20987525204051 l -9.8148976464812 1.9151459968101143 a 20.0 20.0 0.0 0 0 -6.000346450678375,-10.80658350136034 z"/><path fill="#ff19f3" d="M 119.6297952929624,96.16970800637978 l 9.8148976464812 -1.9151459968101152 a 30.0 30.0 0.0 0 1 -2.246352238545846,18.404437284130015 l -9.066113566965917 -4.219666431233225 a 20.0 20.0 0.0 0 0 1.497568159030564,-12.269624856086676 z"/><path fill="#9b0a93" d="M 118.13222713393183,108.43933286246644 l 9.06611356696592 4.219666431233221 a 30.0 30.0 0.0 0 1 -12.635193948689155,13.569129817497647 l -4.854382250736201 -8.742709703732436 a 20.0 20.0 0.0 0 0 8.423462632459437,-9.046086544998433 z"/><path fill="#c106b7" d="M 109.7087645014724,117.48541940746487 l 4.8543822507362036 8.742709703732437 a 30.0 30.0 0.0 0 1 -18.1978210248802,3.5508759583408462 l 1.211558090890529 -9.926335023179387 a 20.0 20.0 0.0 0 0 12.131880683253467,-2.3672506388938963 z"/><path fill="#e700db" d="M 97.57688381821895,119.85267004635877 l -1.2115580908905272 9.926335023179385 a 30.0 30.0 0.0 0 1 -16.80949899075446,-7.8236918270673055 l 6.814724421142014 -7.318437747490282 a 20.0 20.0 0.0 0 0 11.206332660502973,5.2157945513782025 z"/><path fill="#ef37e6" d="M 86.37055115771598,114.63687549498057 l -6.814724421142011 7.318437747490285 a 30.0 30.0 0.0 0 1 -9.000519676017564,-16.20987525204051 l 9.8148976464812 -1.9151459968101143 a 20.0 20.0 0.0 0 0 6.000346450678377,10.806583501360342 z"/><path fill="#a8009f" d="M 80.3702047070376,103.83029199362024 l -9.8148976464812 1.9151459968101165 a 30.0 30.0 0.0 0 1 2.2463522385458425,-18.404437284130015 l 9.066113566965917 4.219666431233222 a 20.0 20.0 0.0 0 0 -1.4975681590305605,12.269624856086676 z"/><path fill="#d900ce" d="M 81.86777286606817,91.56066713753356 l -9.06611356696592 -4.219666431233219 a 30.0 30.0 0.0 0 1 12.635193948689151,-13.569129817497657 l 4.854382250736201 8.742709703732439 a 20.0 20.0 0.0 0 0 -8.423462632459433,9.046086544998436 z"/><path fill="#f600e9" d="M 71.64219709269584,90.21046404212686 l -9.452600969101391 -3.2631786526243767 a 40.0 40.0 0.0 0 1 14.893337726645987,-19.731551113894486 l 5.729266537439894 8.196066431098 a 30.0 30.0 0.0 0 0 -11.17000329498449,14.798663335420862 z"/><path fill="#fe4bf5" d="M 82.81220038768032,75.411800706706 l -5.729266537439894 -8.196066431097998 a 40.0 40.0 0.0 0 1 23.64687807342446,-7.209075903384958 l -0.18245298091622075 9.998335406944236 a 30.0 30.0 0.0 0 0 -17.735158555068345,5.406806927538721 z"/><path fill="#ba05b1" d="M 100.54735894274867,70.00499377916728 l 0.18245298091622095 -9.998335406944237 a 40.0 40.0 0.0 0 1 23.36811472397945,8.067021274739817 l -6.024481661911082 7.981580088259285 a 30.0 30.0 0.0 0 0 -17.526086042984588,-6.050265956054865 z"/><path fill="#f900ec" d="M 118.07344498573326,76.05525973522215 l 6.024481661911083 -7.981580088259284 a 40.0 40.0 0.0 0 1 14.163525802981088,20.261790513882453 l -9.565363112656353 2.9161324597886704 a 30.0 30.0 0.0 0 0 -10.622644352235817,-15.196342885411841 z"/><path fill="#fb25f0" d="M 128.69608933796906,91.25160262063399 l 9.565363112656355 -2.9161324597886695 a 40.0 40.0 0.0 0 1 -0.4510485742198629,24.717244449652206 l -9.452600969101393 -3.263178652624383 a 30.0 30.0 0.0 0 0 0.33828643066490116,-18.537933337239153 z"/><path fill="#d300c8" d="M 128.35780290730418,109.78953595787313 l 9.45260096910139 3.2631786526243776 a 40.0 40.0 0.0 0 1 -14.893337726645967,19.731551113894476 l -5.729266537439898 -8.196066431097995 a 30.0 30.0 0.0 0 0 11.170003294984475,-14.798663335420857 z"/><path fill="#eb00df" d="M 117.18779961231971,124.58819929329398 l 5.729266537439898 8.196066431097996 a 40.0 40.0 0.0 0 1 -23.64687807342448,7.209075903384964 l 0.1824529809162243 -9.998335406944236 a 30.0 30.0 0.0 0 0 17.73515855506836,-5.4068069275387245 z"/><path fill="#fe33f3" d="M 99.45264105725134,129.99500622083272 l -0.18245298091622217 9.998335406944237 a 40.0 40.0 0.0 0 1 -23.36811472397945,-8.06702127473982 l 6.024481661911082 -7.981580088259282 a 30.0 30.0 0.0 0 0 17.526086042984588,6.050265956054865 z"/><path fill="#dc1ad1" d="M 81.92655501426675,123.94474026477785 l -6.024481661911084 7.981580088259283 a 40.0 40.0 0.0 0 1 -14.16352580298109,-20.261790513882474 l 9.565363112656353 -2.916132459788665 a 30.0 30.0 0.0 0 0 10.62264435223582,15.196342885411855 z"/><path fill="#d909ce" d="M 71.30391066203093,108.74839737936601 l -9.565363112656357 2.9161324597886646 a 40.0 40.0 0.0 0 1 0.45104857421986466,-24.717244449652163 l 9.452600969101393 3.263178652624376 a 30.0 30.0 0.0 0 0 -0.33828643066490116,18.537933337239124 z"/><path fill="#be06b4" d="M 74.66113326057013,130.95063541127087 l -6.334716684857472 7.737658852817715 a 50.0 50.0 0.0 0 1 -16.691292643496492,-26.006071945113554 l 9.672975213556768 -2.536444463795007 a 40.0 40.0 0.0 0 0 13.353034114797197,20.804857556090845 z"/><path fill="#ff60f7" d="M 61.308099145772914,110.14577785518001 l -9.672975213556771 2.536444463795004 a 50.0 50.0 0.0 0 1 1.7824461527205706,-30.8502498180795 l 9.316485983012655 3.633605499820895 a 40.0 40.0 0.0 0 0 -1.4259569221764536,24.680199854463602 z"/><path fill="#ff16f3" d="M 62.73405606794937,85.4655780007164 l -9.316485983012658 -3.633605499820897 a 50.0 50.0 0.0 0 1 19.57535110171487,-23.91068082196434 l 5.401415762669682 8.415741664213762 a 40.0 40.0 0.0 0 0 -15.660280881371893,19.128544657571474 z"/><path fill="#d000c5" d="M 78.39433694932126,66.33703334314494 l -5.401415762669685 -8.415741664213765 a 50.0 50.0 0.0 0 1 29.891137271566787,-7.838044446009068 l -0.5768116916436732 9.983350553415576 a 40.0 40.0 0.0 0 0 -23.91290981725343,6.270435556807257 z"/><path fill="#b800af" d="M 102.30724676657469,60.06659778633768 l 0.5768116916436727 -9.98335055341558 a 50.0 50.0 0.0 0 1 28.789524966068992,11.228458502989316 l -6.334716684857476 7.73765885281772 a 40.0 40.0 0.0 0 0 -23.03161997285519,-8.982766802391456 z"/><path fill="#d200c7" d="M 125.33886673942989,69.04936458872913 l 6.3347166848574705 -7.737658852817716 a 50.0 50.0 0.0 0 1 16.691292643496503,26.006071945113554 l -9.672975213556768 2.536444463795007 a 40.0 40.0 0.0 0 0 -13.353034114797204,-20.804857556090845 z"/><path fill="#ff4ef6" d="M 138.69190085422707,89.85422214481999 l 9.672975213556771 -2.536444463795005 a 50.0 50.0 0.0 0 1 -1.7824461527205706,30.850249818079515 l -9.316485983012655 -3.633605499820902 a 40.0 40.0 0.0 0 0 1.4259569221764536,-24.68019985446361 z"/><path fill="#e641dd" d="M 137.26594393205062,114.53442199928358 l 9.316485983012658 3.6336054998208955 a 50.0 50.0 0.0 0 1 -19.575351101714872,23.91068082196435 l -5.401415762669682 -8.415741664213762 a 40.0 40.0 0.0 0 0 15.660280881371897,-19.12854465757148 z"/><path fill="#d309c8" d="M 121.60566305067874,133.66296665685508 l 5.401415762669686 8.415741664213764 a 50.0 50.0 0.0 0 1 -29.891137271566798,7.838044446009077 l 0.5768116916436732 -9.983350553415576 a 40.0 40.0 0.0 0 0 23.91290981725344,-6.270435556807264 z"/><path fill="#cc0fc2" d="M 97.69275323342531,139.9334022136623 l -0.5768116916436715 9.98335055341558 a 50.0 50.0 0.0 0 1 -28.789524966069003,-11.228458502989323 l 6.334716684857472 -7.737658852817717 a 40.0 40.0 0.0 0 0 23.031619972855204,8.98276680239146 z"/><path fill="#f648ed" d="M 149.2718366349693,108.50212412382314 l 9.854367326993863 1.700424824764625 a 60.0 60.0 0.0 0 1 -17.289007951627543,32.80499724964073 l -6.972866001722608 -7.167924366371416 a 50.0 50.0 0.0 0 0 14.407506626356287,-27.337497708033936 z"/><path fill="#ff45f5" d="M 134.864330008613,135.83962183185707 l 6.972866001722608 7.16792436637141 a 60.0 60.0 0.0 0 1 -33.269394833584336,16.377576374648818 l -1.4279668627918838 -9.897520428812875 a 50.0 50.0 0.0 0 0 27.724495694653612,-13.647980312207352 z"/><path fill="#a20399" d="M 107.13983431395943,149.4876021440644 l 1.4279668627918878 9.89752042881288 a 60.0 60.0 0.0 0 1 -36.54200367425196,-6.305522022111743 l 4.66236708291677 -8.846600091794258 a 50.0 50.0 0.0 0 0 30.451669728543298,5.254601685093121 z"/><path fill="#ff49f5" d="M 76.68816458541615,144.23300045897128 l -4.662367082916769 8.846600091794258 a 60.0 60.0 0.0 0 1 -25.85680912837891,-26.580125323236544 l 8.971835270979923 -4.416579204588167 a 50.0 50.0 0.0 0 0 21.547340940315756,22.150104436030453 z"/><path fill="#ff14f3" d="M 55.1408236451004,122.08289602294084 l -8.97183527097992 4.41657920458817 a 60.0 60.0 0.0 0 1 -5.295192336083677,-36.702024176116666 l 9.854367326993867 1.7004248247646103 a 50.0 50.0 0.0 0 0 4.41266028006973,30.58502014676389 z"/><path fill="#d000c5" d="M 50.72816336503067,91.49787587617695 l -9.854367326993867 -1.700424824764613 a 60.0 60.0 0.0 0 1 17.28900795162756,-32.80499724964079 l 6.972866001722608 7.167924366371416 a 50.0 50.0 0.0 0 0 -14.407506626356302,27.337497708033986 z"/><path fill="#ff1af3" d="M 65.13566999138698,64.16037816814294 l -6.972866001722606 -7.167924366371411 a 60.0 60.0 0.0 0 1 33.26939483358432,-16.377576374648818 l 1.4279668627918838 9.897520428812875 a 50.0 50.0 0.0 0 0 -27.724495694653598,13.647980312207352 z"/><path fill="#bf01b5" d="M 92.86016568604057,50.512397855935596 l -1.4279668627918864 -9.89752042881288 a 60.0 60.0 0.0 0 1 36.54200367425194,6.305522022111736 l -4.66236708291677 8.846600091794258 a 50.0 50.0 0.0 0 0 -30.451669728543283,-5.254601685093114 z"/><path fill="#f600e9" d="M 123.31183541458385,55.76699954102872 l 4.66236708291677 -8.846600091794258 a 60.0 60.0 0.0 0 1 25.8568091283789,26.580125323236537 l -8.971835270979916 4.416579204588167 a 50.0 50.0 0.0 0 0 -21.547340940315753,-22.150104436030446 z"/><path fill="#e700db" d="M 144.8591763548996,77.91710397705916 l 8.97183527097992 -4.416579204588168 a 60.0 60.0 0.0 0 1 5.295192336083677,36.70202417611667 l -9.854367326993867 -1.7004248247646103 a 50.0 50.0 0.0 0 0 -4.41266028006973,-30.585020146763895 z"/><path fill="#d700cc" d="M 152.2866177970339,70.57025995108182 l 8.714436299505648 -4.904956674819698 a 70.0 70.0 0.0 0 1 8.531263718494275,42.41286354976542 l -9.933188259290546 -1.1540238322896457 a 60.0 60.0 0.0 0 0 -7.312511758709377,-36.35388304265607 z"/><path fill="#760270" d="M 159.59912955574327,106.92414299373787 l 9.933188259290546 1.1540238322896441 a 70.0 70.0 0.0 0 1 -18.027718370288824,39.32727838901476 l -7.357799920677856 -6.772206459291752 a 60.0 60.0 0.0 0 0 15.452330031676134,-33.70909576201265 z"/><path fill="#f520ea" d="M 144.14679952406715,140.6332387557505 l 7.3577999206778575 6.772206459291751 a 70.0 70.0 0.0 0 1 -37.70072478123246,21.220009568689683 l -1.9719820947875064 -9.803636397675994 a 60.0 60.0 0.0 0 0 32.31490695534211,-18.18857963030544 z"/><path fill="#ca02c0" d="M 111.83189256872504,158.82181838605595 l 1.971982094787509 9.80363639767599 a 70.0 70.0 0.0 0 1 -42.97333572625073,-4.992581665276862 l 4.167065866105453 -9.090410445493582 a 60.0 60.0 0.0 0 0 36.83428776535777,4.2793557130944535 z"/><path fill="#fa00ed" d="M 74.9976048033673,154.5424626729615 l -4.167065866105451 9.090410445493582 a 70.0 70.0 0.0 0 1 -31.831593033801376,-29.298176394717196 l 8.71443629950565 -4.904956674819694 a 60.0 60.0 0.0 0 0 27.28422260040118,25.112722624043307 z"/><path fill="#c800be" d="M 47.713382202966116,129.42974004891818 l -8.714436299505646 4.904956674819699 a 70.0 70.0 0.0 0 1 -8.53126371849429,-42.41286354976541 l 9.933188259290553 1.1540238322896457 a 60.0 60.0 0.0 0 0 7.312511758709384,36.353883042656065 z"/><path fill="#990091" d="M 40.40087044425674,93.07585700626213 l -9.933188259290546 -1.154023832289643 a 70.0 70.0 0.0 0 1 18.027718370288817,-39.32727838901476 l 7.357799920677856 6.772206459291752 a 60.0 60.0 0.0 0 0 -15.452330031676127,33.70909576201265 z"/><path fill="#f516e9" d="M 55.853200475932866,59.36676124424948 l -7.357799920677859 -6.77220645929175 a 70.0 70.0 0.0 0 1 37.700724781232466,-21.22000956868969 l 1.9719820947875064 9.803636397675994 a 60.0 60.0 0.0 0 0 -32.31490695534211,18.188579630305448 z"/><path fill="#d90ecf" d="M 88.16810743127496,41.178181613944055 l -1.9719820947875077 -9.80363639767599 a 70.0 70.0 0.0 0 1 42.97333572625072,4.992581665276862 l -4.167065866105453 9.090410445493582 a 60.0 60.0 0.0 0 0 -36.83428776535776,-4.2793557130944535 z"/><path fill="#ff71f8" d="M 125.00239519663272,45.457537327038516 l 4.167065866105452 -9.090410445493582 a 70.0 70.0 0.0 0 1 31.831593033801404,29.29817639471724 l -8.714436299505657 4.904956674819694 a 60.0 60.0 0.0 0 0 -27.2842226004012,-25.11272262404335 z"/><path fill="#e50ada" d="M 30.505644291045755,91.60151652991219 l -9.92776510127918 -1.1997833528696842 a 80.0 80.0 0.0 0 1 20.809995031556966,-44.8500454714067 l 7.3265157223345625 6.806039036795518 a 70.0 70.0 0.0 0 0 -18.20874565261235,39.24378978748087 z"/><path fill="#e106d6" d="M 48.7143899436581,52.35772674243133 l -7.32651572233456 -6.806039036795521 a 80.0 80.0 0.0 0 1 43.19783492612749,-24.052640805028357 l 1.9267863565686199 9.812619137424065 a 70.0 70.0 0.0 0 0 -37.79810556036155,21.046060704399814 z"/><path fill="#ec18e1" d="M 86.51249550401964,31.311666038031547 l -1.926786356568627 -9.812619137424065 a 80.0 80.0 0.0 0 1 49.085570119324615,5.93205512967819 l -4.208909908346953 9.071112246214298 a 70.0 70.0 0.0 0 0 -42.949873854409034,-5.190548238468423 z"/><path fill="#ec17e0" d="M 129.46236935842865,36.50221427649997 l 4.208909908346947 -9.071112246214291 a 80.0 80.0 0.0 0 1 36.224285884105974,33.65090762798583 l -8.736945643860189 4.864748792716064 a 70.0 70.0 0.0 0 0 -31.696250148592732,-29.444544174487604 z"/><path fill="#bd00b3" d="M 161.15861950702137,65.94675845098757 l 8.73694564386019 -4.86474879271607 a 80.0 80.0 0.0 0 1 9.526555659351919,48.516257164685925 l -9.927765101279178 -1.199783352869673 a 70.0 70.0 0.0 0 0 -8.335736201932932,-42.45172501910018 z"/><path fill="#f32ee9" d="M 169.49435570895426,108.39848347008768 l 9.92776510127918 1.199783352869668 a 80.0 80.0 0.0 0 1 -20.80999503155693,44.850045471406794 l -7.3265157223345625 -6.806039036795518 a 70.0 70.0 0.0 0 0 18.208745652612315,-39.24378978748094 z"/><path fill="#b408ab" d="M 151.2856100563419,147.64227325756866 l 7.326515722334566 6.806039036795514 a 80.0 80.0 0.0 0 1 -43.19783492612754,24.0526408050284 l -1.9267863565686199 -9.812619137424065 a 70.0 70.0 0.0 0 0 37.79810556036159,-21.04606070439985 z"/><path fill="#e900dd" d="M 113.48750449598037,168.68833396196845 l 1.9267863565686258 9.812619137424065 a 80.0 80.0 0.0 0 1 -49.085570119324615,-5.93205512967819 l 4.208909908346953 -9.071112246214298 a 70.0 70.0 0.0 0 0 42.949873854409034,5.190548238468423 z"/><path fill="#f72cec" d="M 70.53763064157135,163.49778572350004 l -4.208909908346948 9.071112246214291 a 80.0 80.0 0.0 0 1 -36.22428588410597,-33.65090762798584 l 8.736945643860189 -4.864748792716064 a 70.0 70.0 0.0 0 0 31.696250148592725,29.44454417448761 z"/><path fill="#8b0084" d="M 38.84138049297864,134.05324154901243 l -8.736945643860194 4.864748792716062 a 80.0 80.0 0.0 0 1 -9.526555659351887,-48.51625716468586 l 9.927765101279178 1.199783352869673 a 70.0 70.0 0.0 0 0 8.335736201932903,42.451725019100124 z"/><path fill="#ff0af2" d="M 67.35298814094932,26.964579711793235 l -4.0808764823813375 -9.129427536025844 a 90.0 90.0 0.0 0 1 55.309688313647094,-5.896021520741442 l -2.064644441357231 9.784541038330445 a 80.0 80.0 0.0 0 0 -49.16416738990853,5.240908018436841 z"/><path fill="#c900bf" d="M 116.51715553085785,21.72367169335641 l 2.0646444413572267 -9.784541038330449 a 90.0 90.0 0.0 0 1 48.212072296412956,27.740237490174895 l -7.421541363180893 6.7022924283110115 a 80.0 80.0 0.0 0 0 -42.85517537458929,-24.657988880155457 z"/><path fill="#74066e" d="M 159.3723309054471,46.38166057351188 l 7.421541363180886 -6.702292428311018 a 90.0 90.0 0.0 0 1 22.699083330016116,50.78066863583873 l -9.94366173318268 1.0599959132178256 a 80.0 80.0 0.0 0 0 -20.176962960014322,-45.13837212074554 z"/><path fill="#c707bd" d="M 179.5492938654614,91.52003269425741 l 9.943661733182676 -1.0599959132178256 a 90.0 90.0 0.0 0 1 -11.48418395498086,54.42461033405764 l -8.66764129374036 -4.987183012788577 a 80.0 80.0 0.0 0 0 10.208163515538544,-48.37743140805124 z"/><path fill="#ea1cdf" d="M 169.34113034992288,139.89746410230862 l 8.66764129374036 4.987183012788577 a 90.0 90.0 0.0 0 1 -41.28088330223123,37.280200709135414 l -4.080876482381335 -9.129427536025844 a 80.0 80.0 0.0 0 0 36.69411849087221,-33.13795618589815 z"/><path fill="#e500d9" d="M 132.64701185905068,173.03542028820675 l 4.080876482381337 9.129427536025844 a 90.0 90.0 0.0 0 1 -55.3096883136471,5.896021520741442 l 2.064644441357231 -9.784541038330445 a 80.0 80.0 0.0 0 0 49.164167389908535,-5.240908018436841 z"/><path fill="#ab21a3" d="M 83.48284446914217,178.2763283066436 l -2.064644441357228 9.784541038330449 a 90.0 90.0 0.0 0 1 -48.21207229641294,-27.740237490174902 l 7.421541363180893 -6.702292428311019 a 80.0 80.0 0.0 0 0 42.85517537458928,24.65798888015547 z"/><path fill="#de00d3" d="M 40.6276690945529,153.61833942648815 l -7.421541363180887 6.702292428311017 a 90.0 90.0 0.0 0 1 -22.69908333001611,-50.78066863583874 l 9.94366173318268 -1.0599959132178256 a 80.0 80.0 0.0 0 0 20.176962960014315,45.138372120745544 z"/><path fill="#fa20ee" d="M 20.450706134538592,108.4799673057426 l -9.943661733182676 1.0599959132178267 a 90.0 90.0 0.0 0 1 11.484183954980846,-54.42461033405764 l 8.66764129374036 4.987183012788577 a 80.0 80.0 0.0 0 0 -10.20816351553853,48.37743140805124 z"/><path fill="#930a8b" d="M 30.658869650077136,60.10253589769137 l -8.66764129374036 -4.987183012788576 a 90.0 90.0 0.0 0 1 41.28088330223122,-37.28020070913542 l 4.080876482381335 9.129427536025858 a 80.0 80.0 0.0 0 0 -36.69411849087219,33.13795618589814 z"/><path fill="#b306aa" d="M 186.64571080987912,124.34175010657204 l 9.627301201097678 2.7046389007302247 a 100.0 100.0 0.0 0 1 -34.28397778069068,51.422455989909345 l -6.198903423028611 -7.84688449972117 a 90.0 90.0 0.0 0 0 30.855580002621608,-46.2802103909184 z"/><path fill="#f516ea" d="M 155.79013080725753,170.62196049749042 l 6.1989034230286135 7.846884499721156 a 100.0 100.0 0.0 0 1 -57.9616819268793,21.45002425892166 l -0.4027352303406886 -9.99188692561333 a 90.0 90.0 0.0 0 0 52.16551373419138,-19.305021833029485 z"/><path fill="#e901dd" d="M 103.62461707306616,189.92698233051988 l 0.4027352303406851 9.991886925613322 a 100.0 100.0 0.0 0 1 -59.499993622110544,-16.715587679464328 l 5.547264131870371 -8.320328157666893 a 90.0 90.0 0.0 0 0 53.549994259899485,15.044028911517898 z"/><path fill="#d30ac8" d="M 50.07462281316669,174.882953419002 l -5.547264131870366 8.320328157666891 a 100.0 100.0 0.0 0 1 -38.31133008409753,-48.496413266223925 l 9.378397140280128 -3.470686831044503 a 90.0 90.0 0.0 0 0 34.48019707568776,43.646771939601535 z"/><path fill="#dc0ad1" d="M 15.594425737478943,131.2361814794005 l -9.378397140280118 3.470686831044501 a 100.0 100.0 0.0 0 1 -2.4890406081755962,-61.75325731774727 l 9.627301201097666 2.704638900730224 a 90.0 90.0 0.0 0 0 2.2401365473580483,55.57793158597254 z"/><path fill="#ec1de1" d="M 13.354289190120895,75.65824989342795 l -9.627301201097678 -2.7046389007302234 a 100.0 100.0 0.0 0 1 34.28397778069066,-51.422455989909345 l 6.198903423028611 7.846884499721156 a 90.0 90.0 0.0 0 0 -30.855580002621593,46.28021039091841 z"/><path fill="#ad01a4" d="M 44.2098691927425,29.37803950250958 l -6.198903423028614 -7.846884499721156 a 100.0 100.0 0.0 0 1 57.961681926879294,-21.45002425892166 l 0.4027352303406886 9.99188692561333 a 90.0 90.0 0.0 0 0 -52.16551373419137,19.305021833029485 z"/><path fill="#ff15f3" d="M 96.37538292693385,10.073017669480109 l -0.40273523034068637 -9.991886925613322 a 100.0 100.0 0.0 0 1 59.49999362211054,16.715587679464313 l -5.547264131870364 8.320328157666893 a 90.0 90.0 0.0 0 0 -53.549994259899485,-15.044028911517884 z"/><path fill="#aa01a1" d="M 149.92537718683332,25.117046580998007 l 5.5472641318703655 -8.320328157666891 a 100.0 100.0 0.0 0 1 38.31133008409752,48.49641326622392 l -9.378397140280114 3.470686831044496 a 90.0 90.0 0.0 0 0 -34.48019707568777,-43.64677193960152 z"/><path fill="#ff2ef4" d="M 184.40557426252104,68.76381852059951 l 9.37839714028012 -3.4706868310444916 a 100.0 100.0 0.0 0 1 2.489040608175566,61.753257317747185 l -9.627301201097666 -2.704638900730231 a 90.0 90.0 0.0 0 0 -2.24013654735802,-55.577931585972465 z"/></g></svg>