<?xml version='1.0' encoding='UTF-8'?>
<svg preserveAspectRatio="xMidYMid meet" xmlns="http://www.w3.org/2000/svg" xmlns:svg="http://www.w3.org/2000/svg"><g><path fill="#800000" d="M 0.0,0.0 l 20.0 0.0 a 40.0 40.0 0.0 1 1 -80.0,4.898587196589413E-15 l 20.0 -2.4492935982947065E-15 a 20.0 20.0 0.0 1 0 40.0,-2.4492935982947065E-15 z"/><path fill="#807f00" d="M 20.0,0.0 l -20.0 2.4492935982947065E-15 a 41.589402851059 41.589402851059 0.0 0 1 82.86979041275077,-5.060437951817826 l -19.851397102058 2.4335227749916903 a 21.589402851059 21.589402851059 0.0 0 0 -43.018393310692765,2.6269151768261327 z"/><path fill="#008000" d="M 90.39138302050293,-27.15554923560053 l -14.243478339095102 -14.040061424499841 a 46.82489859670574 46.82489859670574 0.0 1 1 -13.129511370715054,38.56869548327424 l 19.851397102057998 -2.433522774991687 a 26.82489859670574 26.82489859670574 0.0 1 0 7.521592607752158,-22.09511128378271 z"/><path fill="#008080" d="M 76.14790468140782,-41.19561066010037 l 14.243478339095102 14.040061424499847 a 43.17832156349135 43.17832156349135 0.0 0 1 -68.09104667217126,-51.99193046193699 l 17.295981374292367 10.042361689370253 a 23.17832156349135 23.17832156349135 0.0 0 0 36.55158695878379,27.90950734806689 z"/><path fill="#000080" d="M 9.646878231396244,-79.80889411395191 l -18.24871979996632 8.184389144115595 a 27.11974370238848 27.11974370238848 0.0 1 1 48.198159291194116,2.5193869616690456 l -17.295981374292364 -10.04236168937026 a 7.11974370238848 7.11974370238848 0.0 1 0 -12.653458116935436,-0.66141441641438 z"/><path fill="#7f0080" d="M -8.601841568570077,-71.62450496983631 l 18.24871979996632 -8.184389144115597 a 28.311224676165608 28.311224676165608 0.0 1 1 -50.52508180681073,-2.2631803687977516 l 17.443894973668908 9.78317577004567 a 8.311224676165606 8.311224676165606 0.0 1 0 14.832467033175508,0.6643937428676785 z"/><path fill="#800000" d="M -51.33398099885713,-75.47987951374634 l 1.3069529880157418 19.957251160596154 a 32.95880896484418 32.95880896484418 0.0 1 1 26.592719409095796,-16.766270359553793 l -17.443894973668904 -9.783175770045672 a 12.958808964844184 12.958808964844184 0.0 1 0 -10.455777423442635,6.592194969003312 z"/><path fill="#807f00" d="M -50.027028010841384,-55.52262835315018 l -1.3069529880157442 -19.95725116059615 a 34.83402497987507 34.83402497987507 0.0 1 1 -12.584175183736505,66.26472647144354 l 8.532173266755771 -18.08872630524487 a 14.834024979875075 14.834024979875075 0.0 1 0 5.358954904996478,-28.21874900560251 z"/><path fill="#008000" d="M -58.01746260623596,-3.93425394057747 l 17.034934921436935 -10.479074015503853 a 33.87947543633441 33.87947543633441 0.0 1 1 -14.403455231038837,-12.890551391466348 l -8.53217326675577 18.088726305244876 a 13.879475436334415 13.879475436334415 0.0 1 0 5.900693576357672,5.280899101725325 z"/><path fill="#008080" d="M -40.982527684799024,-14.413327956081323 l -17.03493492143694 10.479074015503851 a 40.45686896491417 40.45686896491417 0.0 0 1 41.20465342862116,-61.088057597711284 l -3.3347350420767867 19.720028960403297 a 20.45686896491418 20.45686896491418 0.0 0 0 -20.834983465107435,30.88895462180413 z"/><path fill="#000080" d="M 2.5531119637820368,-80.72767647420658 l 19.983618213052974 0.8093226272241756 a 36.610024669848016 36.610024669848016 0.0 0 1 -42.684274396526604,34.616071269096956 l 3.334735042076794 -19.720028960403297 a 16.610024669848027 16.610024669848027 0.0 0 0 19.365921141396832,-15.705364935917833 z"/></g></svg>