<svg viewBox="100.0 300.0 200.00000000000006 200.0" preserveAspectRatio="xMidYMid meet" xmlns="http://www.w3.org/2000/svg" xmlns:svg="http://www.w3.org/2000/svg" style="width: 100%; height: 100%;"><g transform="translate(100.0, 300.0)"><circle fill="#f19698" r="4.867991962162392" cx="100.0" cy="100.0"></circle><path fill="#b61c23" d="M 112.79067673712248,100.0 a 12.790676737122483 12.790676737122483 0.0 1 1 -12.790676737122483,-12.790676737122483 a 12.790676737122483 12.790676737122483 0.0 0 1 12.790676737122483,12.790676737122483 z M 104.86799196216239,100.0 a 4.867991962162392 4.867991962162392 0.0 1 0 -4.867991962162392,4.867991962162392 a 4.867991962162392 4.867991962162392 0.0 0 0 4.867991962162392,-4.867991962162392 z"></path><path fill="#550c22" d="M 116.7165503052515,100.0 a 16.716550305251495 16.716550305251495 0.0 1 1 -16.716550305251495,-16.716550305251495 a 16.716550305251495 16.716550305251495 0.0 0 1 16.716550305251495,16.716550305251495 z M 112.7906767371225,100.0 a 12.790676737122483 12.790676737122483 0.0 1 0 -12.790676737122483,12.790676737122483 a 12.790676737122483 12.790676737122483 0.0 0 0 12.790676737122483,-12.790676737122483 z"></path><path fill="#cd3b1e" d="M 119.33230476095909,100.0 a 19.332304760959097 19.332304760959097 0.0 1 1 -19.332304760959097,-19.332304760959097 a 19.332304760959097 19.332304760959097 0.0 0 1 19.332304760959097,19.332304760959097 z M 116.71655030525149,100.0 a 16.716550305251495 16.716550305251495 0.0 1 0 -16.716550305251495,16.716550305251495 a 16.716550305251495 16.716550305251495 0.0 0 0 16.716550305251495,-16.716550305251495 z"></path><path fill="#ffffff" d="M 120.00233643268848,100.0 a 20.002336432688477 20.002336432688477 0.0 1 1 -20.002336432688477,-20.002336432688477 a 20.002336432688477 20.002336432688477 0.0 0 1 20.002336432688477,20.002336432688477 z M 119.3323047609591,100.0 a 19.332304760959097 19.332304760959097 0.0 1 0 -19.332304760959097,19.332304760959097 a 19.332304760959097 19.332304760959097 0.0 0 0 19.332304760959097,-19.332304760959097 z"></path><path fill="#f19698" d="M 121.2331084174397,100.0 a 21.2331084174397 21.2331084174397 0.0 1 1 -21.2331084174397,-21.2331084174397 a 21.2331084174397 21.2331084174397 0.0 0 1 21.2331084174397,21.2331084174397 z M 120.00233643268848,100.0 a 20.002336432688477 20.002336432688477 0.0 1 0 -20.002336432688477,20.002336432688477 a 20.002336432688477 20.002336432688477 0.0 0 0 20.002336432688477,-20.002336432688477 z"></path><path fill="#b61c23" d="M 126.53448507340137,100.0 a 26.53448507340137 26.53448507340137 0.0 1 1 -26.53448507340137,-26.53448507340137 a 26.53448507340137 26.53448507340137 0.0 0 1 26.53448507340137,26.53448507340137 z M 121.2331084174397,100.0 a 21.2331084174397 21.2331084174397 0.0 1 0 -21.2331084174397,21.2331084174397 a 21.2331084174397 21.2331084174397 0.0 0 0 21.2331084174397,-21.2331084174397 z"></path><path fill="#550c22" d="M 133.40645585272506,100.0 a 33.40645585272505 33.40645585272505 0.0 1 1 -33.40645585272505,-33.40645585272505 a 33.40645585272505 33.40645585272505 0.0 0 1 33.40645585272505,33.40645585272505 z M 126.53448507340138,100.0 a 26.53448507340137 26.53448507340137 0.0 1 0 -26.53448507340137,26.53448507340137 a 26.53448507340137 26.53448507340137 0.0 0 0 26.53448507340137,-26.53448507340137 z"></path><path fill="#cd3b1e" d="M 144.83631430505164,100.0 a 44.83631430505163 44.83631430505163 0.0 1 1 -44.83631430505163,-44.83631430505163 a 44.83631430505163 44.83631430505163 0.0 0 1 44.83631430505163,44.83631430505163 z M 133.40645585272506,100.0 a 33.40645585272505 33.40645585272505 0.0 1 0 -33.40645585272505,33.40645585272505 a 33.40645585272505 33.40645585272505 0.0 0 0 33.40645585272505,-33.40645585272505 z"></path><path fill="#ffffff" d="M 164.42511742686406,100.0 a 64.42511742686405 64.42511742686405 0.0 1 1 -64.42511742686405,-64.42511742686405 a 64.42511742686405 64.42511742686405 0.0 0 1 64.42511742686405,64.42511742686405 z M 144.83631430505164,100.0 a 44.83631430505163 44.83631430505163 0.0 1 0 -44.83631430505163,44.83631430505163 a 44.83631430505163 44.83631430505163 0.0 0 0 44.83631430505163,-44.83631430505163 z"></path><path fill="#f19698" d="M 164.48140752815962,100.0 a 64.48140752815962 64.48140752815962 0.0 1 1 -64.48140752815962,-64.48140752815962 a 64.48140752815962 64.48140752815962 0.0 0 1 64.48140752815962,64.48140752815962 z M 164.42511742686406,100.0 a 64.42511742686405 64.42511742686405 0.0 1 0 -64.42511742686405,64.42511742686405 a 64.42511742686405 64.42511742686405 0.0 0 0 64.42511742686405,-64.42511742686405 z"></path><path fill="#b61c23" d="M 171.96958782268763,100.0 a 71.96958782268761 71.96958782268761 0.0 1 1 -71.96958782268761,-71.96958782268761 a 71.96958782268761 71.96958782268761 0.0 0 1 71.96958782268761,71.96958782268761 z M 164.48140752815965,100.0 a 64.48140752815962 64.48140752815962 0.0 1 0 -64.48140752815962,64.48140752815962 a 64.48140752815962 64.48140752815962 0.0 0 0 64.48140752815962,-64.48140752815962 z"></path><path fill="#550c22" d="M 183.6675457047309,100.0 a 83.6675457047309 83.6675457047309 0.0 1 1 -83.6675457047309,-83.6675457047309 a 83.6675457047309 83.6675457047309 0.0 0 1 83.6675457047309,83.6675457047309 z M 171.96958782268763,100.0 a 71.96958782268761 71.96958782268761 0.0 1 0 -71.96958782268761,71.96958782268761 a 71.96958782268761 71.96958782268761 0.0 0 0 71.96958782268761,-71.96958782268761 z"></path><path fill="#cd3b1e" d="M 186.73573420251142,100.0 a 86.73573420251141 86.73573420251141 0.0 1 1 -86.73573420251141,-86.73573420251141 a 86.73573420251141 86.73573420251141 0.0 0 1 86.73573420251141,86.73573420251141 z M 183.6675457047309,100.0 a 83.6675457047309 83.6675457047309 0.0 1 0 -83.6675457047309,83.6675457047309 a 83.6675457047309 83.6675457047309 0.0 0 0 83.6675457047309,-83.6675457047309 z"></path><path fill="#ffffff" d="M 189.32584797996077,100.0 a 89.32584797996078 89.32584797996078 0.0 1 1 -89.32584797996078,-89.32584797996078 a 89.32584797996078 89.32584797996078 0.0 0 1 89.32584797996078,89.32584797996078 z M 186.7357342025114,100.0 a 86.73573420251141 86.73573420251141 0.0 1 0 -86.73573420251141,86.73573420251141 a 86.73573420251141 86.73573420251141 0.0 0 0 86.73573420251141,-86.73573420251141 z"></path><path fill="#f19698" d="M 200.00000000000003,100.0 a 100.00000000000003 100.00000000000003 0.0 1 1 -100.00000000000003,-100.00000000000003 a 100.00000000000003 100.00000000000003 0.0 0 1 100.00000000000003,100.00000000000003 z M 189.32584797996077,100.0 a 89.32584797996078 89.32584797996078 0.0 1 0 -89.32584797996078,89.32584797996078 a 89.32584797996078 89.32584797996078 0.0 0 0 89.32584797996078,-89.32584797996078 z"></path></g></svg>
