<?xml version='1.0' encoding='UTF-8'?>
<svg xmlns="http://www.w3.org/2000/svg" xmlns:svg="http://www.w3.org/2000/svg"><g><circle fill="#ff0000" r="10.0" cx="100.0" cy="100.0"/><path fill="#00ff00" d="M 120.0,100.0 a 20.0 20.0 0.0 1 1 -20.0,-20.0 a 20.0 20.0 0.0 0 1 20.0,20.0 z M 110.0,100.0 a 10.0 10.0 0.0 1 0 -10.0,10.0 a 10.0 10.0 0.0 0 0 10.0,-10.0 z"/><path fill="#0000ff" d="M 130.0,100.0 a 30.0 30.0 0.0 1 1 -30.0,-30.0 a 30.0 30.0 0.0 0 1 30.0,30.0 z M 120.0,100.0 a 20.0 20.0 0.0 1 0 -20.0,20.0 a 20.0 20.0 0.0 0 0 20.0,-20.0 z"/><path fill="#ff0000" d="M 140.0,100.0 a 40.0 40.0 0.0 1 1 -40.0,-40.0 a 40.0 40.0 0.0 0 1 40.0,40.0 z M 130.0,100.0 a 30.0 30.0 0.0 1 0 -30.0,30.0 a 30.0 30.0 0.0 0 0 30.0,-30.0 z"/><path fill="#00ff00" d="M 150.0,100.0 a 50.0 50.0 0.0 1 1 -50.0,-50.0 a 50.0 50.0 0.0 0 1 50.0,50.0 z M 140.0,100.0 a 40.0 40.0 0.0 1 0 -40.0,40.0 a 40.0 40.0 0.0 0 0 40.0,-40.0 z"/><path fill="#0000ff" d="M 160.0,100.0 a 60.0 60.0 0.0 1 1 -60.0,-60.0 a 60.0 60.0 0.0 0 1 60.0,60.0 z M 150.0,100.0 a 50.0 50.0 0.0 1 0 -50.0,50.0 a 50.0 50.0 0.0 0 0 50.0,-50.0 z"/><path fill="#ff0000" d="M 170.0,100.0 a 70.0 70.0 0.0 1 1 -70.0,-70.0 a 70.0 70.0 0.0 0 1 70.0,70.0 z M 160.0,100.0 a 60.0 60.0 0.0 1 0 -60.0,60.0 a 60.0 60.0 0.0 0 0 60.0,-60.0 z"/><path fill="#00ff00" d="M 180.0,100.0 a 80.0 80.0 0.0 1 1 -80.0,-80.0 a 80.0 80.0 0.0 0 1 80.0,80.0 z M 170.0,100.0 a 70.0 70.0 0.0 1 0 -70.0,70.0 a 70.0 70.0 0.0 0 0 70.0,-70.0 z"/><path fill="#0000ff" d="M 190.0,100.0 a 90.0 90.0 0.0 1 1 -90.0,-90.0 a 90.0 90.0 0.0 0 1 90.0,90.0 z M 180.0,100.0 a 80.0 80.0 0.0 1 0 -80.0,80.0 a 80.0 80.0 0.0 0 0 80.0,-80.0 z"/><path fill="#ff0000" d="M 200.0,100.0 a 100.0 100.0 0.0 1 1 -100.0,-100.0 a 100.0 100.0 0.0 0 1 100.0,100.0 z M 190.0,100.0 a 90.0 90.0 0.0 1 0 -90.0,90.0 a 90.0 90.0 0.0 0 0 90.0,-90.0 z"/></g></svg>