<?xml version='1.0' encoding='UTF-8'?>
<svg xmlns="http://www.w3.org/2000/svg" xmlns:svg="http://www.w3.org/2000/svg"><g><path fill="#ff0000" d="M -96.77903963605323,25.175732106996147 l -48.38951981802662 12.587866053498068 a 150.0 150.0 0.0 0 1 185.04860383582454,-182.3650575587661 l -13.293348127248208 48.20048646609064 a 100.0 100.0 0.0 0 0 -123.3657358905497,121.5767050391774 z"/><path fill="#00ff00" d="M 26.58669625449655,-96.40097293218123 l 13.293348127248228 -48.20048646609063 a 150.0 150.0 0.0 0 1 65.40847069059055,251.43932063604956 l -35.096171690778405 -35.61262041259255 a 100.0 100.0 0.0 0 0 -43.605647127060365,-167.62621375736637 z"/><path fill="#0000ff" d="M 70.19234338155684,71.22524082518511 l 35.0961716907784 35.61262041259256 a 150.0 150.0 0.0 0 1 -250.45707452641503,-69.07426307728335 l 48.3895198180266 -12.58786605349811 a 100.0 100.0 0.0 0 0 166.97138301761004,46.0495087181889 z"/></g></svg>