<?xml version='1.0' encoding='UTF-8'?>
<svg preserveAspectRatio="xMidYMid meet" xmlns="http://www.w3.org/2000/svg" xmlns:svg="http://www.w3.org/2000/svg"><g><path fill="#781425" d="M 100.0,100.0 l -49.9988791580424 -0.33478790222125326 a 50.0 50.0 0.0 0 1 5.882654027529213,-23.197289784074883 l 44.116225130513186 23.532077686296137 z"/><path fill="#6b1c00" d="M 100.0,100.0 l -44.116225130513186 -23.532077686296137 a 50.0 50.0 0.0 0 1 15.989149546782642,-17.80637437842333 l 28.127075583730544 41.33845206471947 z"/><path fill="#d60a00" d="M 100.0,100.0 l -28.127075583730544 -41.33845206471947 a 50.0 50.0 0.0 0 1 22.432723595008742,-8.336233192748843 l 5.694351988721802 49.67468525746831 z"/><path fill="#91001e" d="M 100.0,100.0 l -5.694351988721802 -49.67468525746831 a 50.0 50.0 0.0 0 1 23.737231011244265,3.043638554883792 l -18.042879022522463 46.63104670258452 z"/><path fill="#931900" d="M 100.0,100.0 l 18.042879022522463 -46.63104670258452 a 50.0 50.0 0.0 0 1 19.603824867448125,13.726249389413404 l -37.64670388997059 32.904797313171116 z"/><path fill="#8e0a0f" d="M 100.0,100.0 l 37.64670388997059 -32.904797313171116 a 50.0 50.0 0.0 0 1 10.979418698220165,21.264341908065838 l -48.62612258819075 11.64045540510528 z"/><path fill="#b60800" d="M 100.0,100.0 l 48.62612258819075 -11.64045540510528 a 50.0 50.0 0.0 0 1 -0.16023997843103643,23.931029958680476 l -48.46588260975972 -12.290574553575198 z"/><path fill="#cc001a" d="M 100.0,100.0 l 48.465882609759724 12.290574553575185 a 50.0 50.0 0.0 0 1 -11.263189607124765,21.115407445936455 l -37.20269300263496 -33.40598199951164 z"/><path fill="#c53e18" d="M 100.0,100.0 l 37.202693002634966 33.40598199951164 a 50.0 50.0 0.0 0 1 -19.7858782329754,13.462499555573636 l -17.416814769659567 -46.868481555085275 z"/><path fill="#560f0a" d="M 100.0,100.0 l 17.416814769659577 46.86848155508527 a 50.0 50.0 0.0 0 1 -23.775860601332756,2.725495257736263 l 6.359045831673178 -49.59397681282153 z"/><path fill="#781425" d="M 100.0,100.0 l -6.359045831673166 49.59397681282154 a 50.0 50.0 0.0 0 1 -22.31907983610629,-8.635887157869988 l 28.678125667779454 -40.95808965495155 z"/><path fill="#6b1c00" d="M 100.0,100.0 l -28.678125667779447 40.95808965495156 a 50.0 50.0 0.0 0 1 -15.749266854498032,-18.01889189933065 l 44.42739252227748 -22.939197755620906 z"/><path fill="#d60a00" d="M 100.0,100.0 l -44.42739252227747 22.939197755620917 a 50.0 50.0 0.0 0 1 -5.571486635764927,-23.27398565784217 l 49.9988791580424 0.33478790222125326 z"/><path fill="#001427" d="M 156.79384495438273,100.0 a 56.793844954382735 56.793844954382735 0.0 1 1 -56.793844954382735,-56.793844954382735 a 56.793844954382735 56.793844954382735 0.0 0 1 56.793844954382735,56.793844954382735 z M 150.0,100.0 a 50.0 50.0 0.0 1 0 -50.0,50.0 a 50.0 50.0 0.0 0 0 50.0,-50.0 z"/><path fill="#708d81" d="M 159.10532286009555,100.0 a 59.10532286009555 59.10532286009555 0.0 1 1 -59.10532286009555,-59.10532286009555 a 59.10532286009555 59.10532286009555 0.0 0 1 59.10532286009555,59.10532286009555 z M 156.79384495438273,100.0 a 56.793844954382735 56.793844954382735 0.0 1 0 -56.793844954382735,56.793844954382735 a 56.793844954382735 56.793844954382735 0.0 0 0 56.793844954382735,-56.793844954382735 z"/><path fill="#f4d58d" d="M 161.35194923847598,100.0 a 61.35194923847597 61.35194923847597 0.0 1 1 -61.35194923847597,-61.35194923847597 a 61.35194923847597 61.35194923847597 0.0 0 1 61.35194923847597,61.35194923847597 z M 159.10532286009555,100.0 a 59.10532286009555 59.10532286009555 0.0 1 0 -59.10532286009555,59.10532286009555 a 59.10532286009555 59.10532286009555 0.0 0 0 59.10532286009555,-59.10532286009555 z"/><path fill="#bf0603" d="M 163.3899968589725,100.0 a 63.389996858972495 63.389996858972495 0.0 1 1 -63.389996858972495,-63.389996858972495 a 63.389996858972495 63.389996858972495 0.0 0 1 63.389996858972495,63.389996858972495 z M 161.35194923847598,100.0 a 61.35194923847597 61.35194923847597 0.0 1 0 -61.35194923847597,61.35194923847597 a 61.35194923847597 61.35194923847597 0.0 0 0 61.35194923847597,-61.35194923847597 z"/><path fill="#8d0801" d="M 163.54101009205166,100.0 a 63.54101009205167 63.54101009205167 0.0 1 1 -63.54101009205167,-63.54101009205167 a 63.54101009205167 63.54101009205167 0.0 0 1 63.54101009205167,63.54101009205167 z M 163.3899968589725,100.0 a 63.389996858972495 63.389996858972495 0.0 1 0 -63.389996858972495,63.389996858972495 a 63.389996858972495 63.389996858972495 0.0 0 0 63.389996858972495,-63.389996858972495 z"/><path fill="#001427" d="M 165.6064278575274,100.0 a 65.6064278575274 65.6064278575274 0.0 1 1 -65.6064278575274,-65.6064278575274 a 65.6064278575274 65.6064278575274 0.0 0 1 65.6064278575274,65.6064278575274 z M 163.54101009205166,100.0 a 63.54101009205167 63.54101009205167 0.0 1 0 -63.54101009205167,63.54101009205167 a 63.54101009205167 63.54101009205167 0.0 0 0 63.54101009205167,-63.54101009205167 z"/><path fill="#708d81" d="M 169.20283236785198,100.0 a 69.20283236785198 69.20283236785198 0.0 1 1 -69.20283236785198,-69.20283236785198 a 69.20283236785198 69.20283236785198 0.0 0 1 69.20283236785198,69.20283236785198 z M 165.6064278575274,100.0 a 65.6064278575274 65.6064278575274 0.0 1 0 -65.6064278575274,65.6064278575274 a 65.6064278575274 65.6064278575274 0.0 0 0 65.6064278575274,-65.6064278575274 z"/><path fill="#f4d58d" d="M 172.34216614832945,100.0 a 72.34216614832947 72.34216614832947 0.0 1 1 -72.34216614832947,-72.34216614832947 a 72.34216614832947 72.34216614832947 0.0 0 1 72.34216614832947,72.34216614832947 z M 169.20283236785195,100.0 a 69.20283236785198 69.20283236785198 0.0 1 0 -69.20283236785198,69.20283236785198 a 69.20283236785198 69.20283236785198 0.0 0 0 69.20283236785198,-69.20283236785198 z"/><path fill="#bf0603" d="M 177.80397470154094,100.0 a 77.80397470154092 77.80397470154092 0.0 1 1 -77.80397470154092,-77.80397470154092 a 77.80397470154092 77.80397470154092 0.0 0 1 77.80397470154092,77.80397470154092 z M 172.34216614832948,100.0 a 72.34216614832947 72.34216614832947 0.0 1 0 -72.34216614832947,72.34216614832947 a 72.34216614832947 72.34216614832947 0.0 0 0 72.34216614832947,-72.34216614832947 z"/><path fill="#8d0801" d="M 180.62321262521357,100.0 a 80.62321262521355 80.62321262521355 0.0 1 1 -80.62321262521355,-80.62321262521355 a 80.62321262521355 80.62321262521355 0.0 0 1 80.62321262521355,80.62321262521355 z M 177.80397470154094,100.0 a 77.80397470154092 77.80397470154092 0.0 1 0 -77.80397470154092,77.80397470154092 a 77.80397470154092 77.80397470154092 0.0 0 0 77.80397470154092,-77.80397470154092 z"/><path fill="#001427" d="M 182.97736503152254,100.0 a 82.97736503152254 82.97736503152254 0.0 1 1 -82.97736503152254,-82.97736503152254 a 82.97736503152254 82.97736503152254 0.0 0 1 82.97736503152254,82.97736503152254 z M 180.62321262521357,100.0 a 80.62321262521355 80.62321262521355 0.0 1 0 -80.62321262521355,80.62321262521355 a 80.62321262521355 80.62321262521355 0.0 0 0 80.62321262521355,-80.62321262521355 z"/><path fill="#708d81" d="M 183.85306562233706,100.0 a 83.85306562233707 83.85306562233707 0.0 1 1 -83.85306562233707,-83.85306562233707 a 83.85306562233707 83.85306562233707 0.0 0 1 83.85306562233707,83.85306562233707 z M 182.97736503152254,100.0 a 82.97736503152254 82.97736503152254 0.0 1 0 -82.97736503152254,82.97736503152254 a 82.97736503152254 82.97736503152254 0.0 0 0 82.97736503152254,-82.97736503152254 z"/><path fill="#f4d58d" d="M 184.4925374367476,100.0 a 84.4925374367476 84.4925374367476 0.0 1 1 -84.4925374367476,-84.4925374367476 a 84.4925374367476 84.4925374367476 0.0 0 1 84.4925374367476,84.4925374367476 z M 183.85306562233706,100.0 a 83.85306562233707 83.85306562233707 0.0 1 0 -83.85306562233707,83.85306562233707 a 83.85306562233707 83.85306562233707 0.0 0 0 83.85306562233707,-83.85306562233707 z"/><path fill="#bf0603" d="M 189.16472363278555,100.0 a 89.16472363278555 89.16472363278555 0.0 1 1 -89.16472363278555,-89.16472363278555 a 89.16472363278555 89.16472363278555 0.0 0 1 89.16472363278555,89.16472363278555 z M 184.4925374367476,100.0 a 84.4925374367476 84.4925374367476 0.0 1 0 -84.4925374367476,84.4925374367476 a 84.4925374367476 84.4925374367476 0.0 0 0 84.4925374367476,-84.4925374367476 z"/><path fill="#8d0801" d="M 199.82763764590848,100.0 a 99.82763764590848 99.82763764590848 0.0 1 1 -99.82763764590848,-99.82763764590848 a 99.82763764590848 99.82763764590848 0.0 0 1 99.82763764590848,99.82763764590848 z M 189.16472363278555,100.0 a 89.16472363278555 89.16472363278555 0.0 1 0 -89.16472363278555,89.16472363278555 a 89.16472363278555 89.16472363278555 0.0 0 0 89.16472363278555,-89.16472363278555 z"/><path fill="#001427" d="M 200.0,100.0 a 100.0 100.0 0.0 1 1 -100.0,-100.0 a 100.0 100.0 0.0 0 1 100.0,100.0 z M 199.82763764590848,100.0 a 99.82763764590848 99.82763764590848 0.0 1 0 -99.82763764590848,99.82763764590848 a 99.82763764590848 99.82763764590848 0.0 0 0 99.82763764590848,-99.82763764590848 z"/></g></svg>