<?xml version='1.0' encoding='UTF-8'?>
<svg viewBox="-191.6885015316658 -195.83431891414415 584.6295038190424 553.6872332008882" preserveAspectRatio="xMidYMid meet" xmlns="http://www.w3.org/2000/svg" xmlns:svg="http://www.w3.org/2000/svg"><g transform="translate(0.0, 0.0)"><path fill="#0420e1" d="M 101.40020898641588,100.0 a 1.400208986415883 1.400208986415883 0.0 1 1 -1.400208986415883,-1.400208986415883 a 1.400208986415883 1.400208986415883 0.0 0 1 1.400208986415883,1.400208986415883 z M 100.6060606060606,100.0 a 0.6060606060606061 0.6060606060606061 0.0 1 0 -0.6060606060606061,0.6060606060606061 a 0.6060606060606061 0.6060606060606061 0.0 0 0 0.6060606060606061,-0.6060606060606061 z"/><path fill="#08144c" d="M 102.38244514106583,100.0 a 2.3824451410658307 2.3824451410658307 0.0 1 1 -2.3824451410658307,-2.3824451410658307 a 2.3824451410658307 2.3824451410658307 0.0 0 1 2.3824451410658307,2.3824451410658307 z M 101.40020898641588,100.0 a 1.400208986415883 1.400208986415883 0.0 1 0 -1.400208986415883,1.400208986415883 a 1.400208986415883 1.400208986415883 0.0 0 0 1.400208986415883,-1.400208986415883 z"/><path fill="#06215c" d="M 103.55276907001046,100.0 a 3.5527690700104495 3.5527690700104495 0.0 1 1 -3.5527690700104495,-3.5527690700104495 a 3.5527690700104495 3.5527690700104495 0.0 0 1 3.5527690700104495,3.5527690700104495 z M 102.38244514106583,100.0 a 2.3824451410658307 2.3824451410658307 0.0 1 0 -2.3824451410658307,2.3824451410658307 a 2.3824451410658307 2.3824451410658307 0.0 0 0 2.3824451410658307,-2.3824451410658307 z"/><path fill="#0137ad" d="M 108.19226750261232,100.0 a 8.19226750261233 8.19226750261233 0.0 1 1 -8.19226750261233,-8.19226750261233 a 8.19226750261233 8.19226750261233 0.0 0 1 8.19226750261233,8.19226750261233 z M 106.4576802507837,100.0 a 6.4576802507836994 6.4576802507836994 0.0 1 0 -6.4576802507836994,6.4576802507836994 a 6.4576802507836994 6.4576802507836994 0.0 0 0 6.4576802507836994,-6.4576802507836994 z"/><path fill="#08188b" d="M 110.11494252873564,100.0 a 10.114942528735632 10.114942528735632 0.0 1 1 -10.114942528735632,-10.114942528735632 a 10.114942528735632 10.114942528735632 0.0 0 1 10.114942528735632,10.114942528735632 z M 108.19226750261234,100.0 a 8.19226750261233 8.19226750261233 0.0 1 0 -8.19226750261233,8.19226750261233 a 8.19226750261233 8.19226750261233 0.0 0 0 8.19226750261233,-8.19226750261233 z"/><path fill="#061b5a" d="M 112.22570532915361,100.0 a 12.225705329153605 12.225705329153605 0.0 1 1 -12.225705329153605,-12.225705329153605 a 12.225705329153605 12.225705329153605 0.0 0 1 12.225705329153605,12.225705329153605 z M 110.11494252873564,100.0 a 10.114942528735632 10.114942528735632 0.0 1 0 -10.114942528735632,10.114942528735632 a 10.114942528735632 10.114942528735632 0.0 0 0 10.114942528735632,-10.114942528735632 z"/><path fill="#0420e1" d="M 119.68652037617555,100.0 a 19.686520376175547 19.686520376175547 0.0 1 1 -19.686520376175547,-19.686520376175547 a 19.686520376175547 19.686520376175547 0.0 0 1 19.686520376175547,19.686520376175547 z M 117.01149425287358,100.0 a 17.011494252873565 17.011494252873565 0.0 1 0 -17.011494252873565,17.011494252873565 a 17.011494252873565 17.011494252873565 0.0 0 0 17.011494252873565,-17.011494252873565 z"/><path fill="#08144c" d="M 122.5496342737722,100.0 a 22.549634273772206 22.549634273772206 0.0 1 1 -22.549634273772206,-22.549634273772206 a 22.549634273772206 22.549634273772206 0.0 0 1 22.549634273772206,22.549634273772206 z M 119.68652037617554,100.0 a 19.686520376175547 19.686520376175547 0.0 1 0 -19.686520376175547,19.686520376175547 a 19.686520376175547 19.686520376175547 0.0 0 0 19.686520376175547,-19.686520376175547 z"/><path fill="#06215c" d="M 125.60083594566353,100.0 a 25.600835945663533 25.600835945663533 0.0 1 1 -25.600835945663533,-25.600835945663533 a 25.600835945663533 25.600835945663533 0.0 0 1 25.600835945663533,25.600835945663533 z M 122.5496342737722,100.0 a 22.549634273772206 22.549634273772206 0.0 1 0 -22.549634273772206,22.549634273772206 a 22.549634273772206 22.549634273772206 0.0 0 0 22.549634273772206,-22.549634273772206 z"/><path fill="#0137ad" d="M 135.88296760710554,100.0 a 35.882967607105535 35.882967607105535 0.0 1 1 -35.882967607105535,-35.882967607105535 a 35.882967607105535 35.882967607105535 0.0 0 1 35.882967607105535,35.882967607105535 z M 132.2675026123302,100.0 a 32.2675026123302 32.2675026123302 0.0 1 0 -32.2675026123302,32.2675026123302 a 32.2675026123302 32.2675026123302 0.0 0 0 32.2675026123302,-32.2675026123302 z"/><path fill="#08188b" d="M 139.68652037617554,100.0 a 39.686520376175544 39.686520376175544 0.0 1 1 -39.686520376175544,-39.686520376175544 a 39.686520376175544 39.686520376175544 0.0 0 1 39.686520376175544,39.686520376175544 z M 135.8829676071055,100.0 a 35.882967607105535 35.882967607105535 0.0 1 0 -35.882967607105535,35.882967607105535 a 35.882967607105535 35.882967607105535 0.0 0 0 35.882967607105535,-35.882967607105535 z"/><path fill="#061b5a" d="M 143.67816091954023,100.0 a 43.678160919540225 43.678160919540225 0.0 1 1 -43.678160919540225,-43.678160919540225 a 43.678160919540225 43.678160919540225 0.0 0 1 43.678160919540225,43.678160919540225 z M 139.68652037617557,100.0 a 39.686520376175544 39.686520376175544 0.0 1 0 -39.686520376175544,39.686520376175544 a 39.686520376175544 39.686520376175544 0.0 0 0 39.686520376175544,-39.686520376175544 z"/><path fill="#0420e1" d="M 156.7816091954023,100.0 a 56.78160919540229 56.78160919540229 0.0 1 1 -56.78160919540229,-56.78160919540229 a 56.78160919540229 56.78160919540229 0.0 0 1 56.78160919540229,56.78160919540229 z M 152.22570532915358,100.0 a 52.22570532915359 52.22570532915359 0.0 1 0 -52.22570532915359,52.22570532915359 a 52.22570532915359 52.22570532915359 0.0 0 0 52.22570532915359,-52.22570532915359 z"/><path fill="#08144c" d="M 161.52560083594565,100.0 a 61.52560083594566 61.52560083594566 0.0 1 1 -61.52560083594566,-61.52560083594566 a 61.52560083594566 61.52560083594566 0.0 0 1 61.52560083594566,61.52560083594566 z M 156.78160919540227,100.0 a 56.78160919540229 56.78160919540229 0.0 1 0 -56.78160919540229,56.78160919540229 a 56.78160919540229 56.78160919540229 0.0 0 0 56.78160919540229,-56.78160919540229 z"/><path fill="#06215c" d="M 166.4576802507837,100.0 a 66.4576802507837 66.4576802507837 0.0 1 1 -66.4576802507837,-66.4576802507837 a 66.4576802507837 66.4576802507837 0.0 0 1 66.4576802507837,66.4576802507837 z M 161.52560083594568,100.0 a 61.52560083594566 61.52560083594566 0.0 1 0 -61.52560083594566,61.52560083594566 a 61.52560083594566 61.52560083594566 0.0 0 0 61.52560083594566,-61.52560083594566 z"/><path fill="#0137ad" d="M 182.38244514106583,100.0 a 82.38244514106583 82.38244514106583 0.0 1 1 -82.38244514106583,-82.38244514106583 a 82.38244514106583 82.38244514106583 0.0 0 1 82.38244514106583,82.38244514106583 z M 176.88610240334378,100.0 a 76.88610240334378 76.88610240334378 0.0 1 0 -76.88610240334378,76.88610240334378 a 76.88610240334378 76.88610240334378 0.0 0 0 76.88610240334378,-76.88610240334378 z"/><path fill="#08188b" d="M 188.06687565308255,100.0 a 88.06687565308255 88.06687565308255 0.0 1 1 -88.06687565308255,-88.06687565308255 a 88.06687565308255 88.06687565308255 0.0 0 1 88.06687565308255,88.06687565308255 z M 182.38244514106583,100.0 a 82.38244514106583 82.38244514106583 0.0 1 0 -82.38244514106583,82.38244514106583 a 82.38244514106583 82.38244514106583 0.0 0 0 82.38244514106583,-82.38244514106583 z"/><path fill="#061b5a" d="M 193.93939393939394,100.0 a 93.93939393939394 93.93939393939394 0.0 1 1 -93.93939393939394,-93.93939393939394 a 93.93939393939394 93.93939393939394 0.0 0 1 93.93939393939394,93.93939393939394 z M 188.06687565308255,100.0 a 88.06687565308255 88.06687565308255 0.0 1 0 -88.06687565308255,88.06687565308255 a 88.06687565308255 88.06687565308255 0.0 0 0 88.06687565308255,-88.06687565308255 z"/><path fill="#0b259b" d="M 100.0,100.0 l -0.35702027924818674 -0.4897407257152461 a 0.6060606060606061 0.6060606060606061 0.0 0 1 0.3884304535177361,-0.11550538882899919 l -0.031410174269549326 0.6052461145442453 z"/><path fill="#0420e1" d="M 100.0,100.0 l 0.031410174269549326 -0.6052461145442453 a 0.6060606060606061 0.6060606060606061 0.0 0 1 0.2214197878952932,0.05444082367434677 l -0.25282996216484255 0.5508052908698985 z"/><path fill="#08144c" d="M 100.0,100.0 l 0.25282996216484255 -0.5508052908698985 a 0.6060606060606061 0.6060606060606061 0.0 0 1 0.243545438978239,0.20306843725988205 l -0.49637540114308154 0.34773685361001644 z"/><path fill="#06215c" d="M 100.0,100.0 l 0.49637540114308154 -0.34773685361001644 a 0.6060606060606061 0.6060606060606061 0.0 0 1 0.037384114972124016,0.06066502083116171 l -0.5337595161152056 0.28707183277885473 z"/><path fill="#12208c" d="M 100.0,100.0 l 0.5337595161152056 -0.28707183277885473 a 0.6060606060606061 0.6060606060606061 0.0 0 1 0.052216500900485574,0.1323412097562106 l -0.5859760170156911 0.15473062302264412 z"/><path fill="#0f17bf" d="M 100.0,100.0 l 0.5859760170156911 -0.15473062302264412 a 0.6060606060606061 0.6060606060606061 0.0 0 1 0.018617581484188794,0.19687369922164966 l -0.6045935984998799 -0.04214307619900552 z"/><path fill="#0137ad" d="M 100.0,100.0 l 0.6045935984998799 0.04214307619900552 a 0.6060606060606061 0.6060606060606061 0.0 0 1 -0.4936085421771914,0.553668786297537 l -0.11098505632268853 -0.5958118624965425 z"/><path fill="#08188b" d="M 100.0,100.0 l 0.11098505632268853 0.5958118624965425 a 0.6060606060606061 0.6060606060606061 0.0 0 1 -0.31991965778809733,-0.026904321213215954 l 0.20893460146540882 -0.5689075412833265 z"/><path fill="#061b5a" d="M 100.0,100.0 l -0.20893460146540882 0.5689075412833265 a 0.6060606060606061 0.6060606060606061 0.0 0 1 -0.27643112821642524,-0.2059618612305535 l 0.48536572968183406 -0.36294568005277306 z"/><path fill="#1728ef" d="M 100.0,100.0 l -0.48536572968183406 0.36294568005277306 a 0.6060606060606061 0.6060606060606061 0.0 0 1 0.04099025037547588,-0.7750620369348963 l 0.4443754793063582 0.4121163568821232 z"/><path fill="#0b259b" d="M 100.0,100.0 l -0.4443754793063582 -0.4121163568821232 a 0.6060606060606061 0.6060606060606061 0.0 0 1 0.08735520005817143,-0.07762436883312285 l 0.35702027924818674 0.4897407257152461 z"/><path fill="#0b259b" d="M 97.36974206850911,102.38828626396673 l -1.0056868561582801 0.9131682773990463 a 4.911180773249739 4.911180773249739 0.0 0 1 -1.2676888517016747,-3.0292896675030447 l 1.3563241981183176 -0.07527964596203374 a 3.5527690700104495 3.5527690700104495 0.0 0 0 0.9170515097416372,2.1914010360660323 z"/><path fill="#0420e1" d="M 96.45269055876747,100.19688522790071 l -1.3563241981183178 0.07527964596203399 a 4.911180773249739 4.911180773249739 0.0 0 1 0.24647360569748078,-1.83118925099086 l 1.288150647606249 0.4312195085673529 a 3.5527690700104495 3.5527690700104495 0.0 0 0 -0.17830005518541192,1.3246900964614732 z"/><path fill="#08144c" d="M 96.63099061395289,98.87219513143923 l -1.2881506476062485 -0.43121950856735275 a 4.911180773249739 4.911180773249739 0.0 0 1 1.4247430776548833,-2.1384311276902173 l 0.8940727750634085 1.0227004587795405 a 3.5527690700104495 3.5527690700104495 0.0 0 0 -1.0306652051120433,1.5469501774780294 z"/><path fill="#06215c" d="M 97.66165581906493,97.3252449539612 l -0.8940727750634085 -1.0227004587795405 a 4.911180773249739 4.911180773249739 0.0 0 1 0.45632695828974645,-0.3538431650108116 l 0.7678546802173085 1.1205719725059353 a 3.5527690700104495 3.5527690700104495 0.0 0 0 -0.3301088634436464,0.2559716512844168 z"/><path fill="#12208c" d="M 97.99176468250857,97.06927330267679 l -0.7678546802173084 -1.120571972505935 a 4.911180773249739 4.911180773249739 0.0 0 1 1.0209395880077987,-0.5355459565850202 l 0.48546713459813007 1.2687017051783873 a 3.5527690700104495 3.5527690700104495 0.0 0 0 -0.7385520423886205,0.387416223912568 z"/><path fill="#0f17bf" d="M 98.7303167248972,96.68185707876421 l -0.48546713459813007 -1.2687017051783873 a 4.911180773249739 4.911180773249739 0.0 0 1 1.5700251475776015,-0.32084579015263515 l 0.05120485973624045 1.357446285433371 a 3.5527690700104495 3.5527690700104495 0.0 0 0 -1.1357628727157119,0.23210120989765137 z"/><path fill="#0137ad" d="M 99.86607959761291,96.44975586886656 l -0.05120485973624038 -1.3574462854333718 a 4.911180773249739 4.911180773249739 0.0 0 1 4.8891781519694755,3.496455851702396 l -1.3011210120851042 0.3903414753880283 a 3.5527690700104495 3.5527690700104495 0.0 0 0 -3.5368522801481306,-2.529351041657052 z"/><path fill="#08188b" d="M 103.40293187776103,98.97910691052363 l 1.3011210120851036 -0.39034147538802844 a 4.911180773249739 4.911180773249739 0.0 0 1 0.060861880389793344,2.600891582632686 l -1.3179551492141952 -0.32905406874441656 a 3.5527690700104495 3.5527690700104495 0.0 0 0 -0.04402774326070169,-1.881496038500241 z"/><path fill="#061b5a" d="M 103.44695962102175,100.86060294902386 l 1.3179551492141954 0.32905406874441656 a 4.911180773249739 4.911180773249739 0.0 0 1 -1.4195167919083678,2.405897036079297 l -0.9253228450693278 -0.9945149510642217 a 3.5527690700104495 3.5527690700104495 0.0 0 0 1.0268844877635002,-1.7404361537594917 z"/><path fill="#1728ef" d="M 102.42007513325824,102.60103910278335 l 0.9253228450693277 0.994514951064222 a 4.911180773249739 4.911180773249739 0.0 0 1 -6.280128287090354,0.34234571663503843 l 0.8117339151897065 -1.0892063194951902 a 3.5527690700104495 3.5527690700104495 0.0 0 0 4.543071526831319,-0.24765434820407028 z"/><path fill="#0b259b" d="M 97.87700360642692,102.84869345098743 l -0.8117339151897061 1.08920631949519 a 4.911180773249739 4.911180773249739 0.0 0 1 -0.7012144788863832,-0.6364452291168272 l 1.0056868561582801 -0.9131682773990466 a 3.5527690700104495 3.5527690700104495 0.0 0 0 0.5072615379178091,0.46040718702068384 z"/><path fill="#0b259b" d="M 95.34097531922363,101.55344314715877 l -1.4670971335210696 0.48916933144574193 a 6.4576802507836994 6.4576802507836994 0.0 0 1 0.08226196883359727,-4.317121742105462 l 1.4473968561952244 0.5447044838157602 a 4.911180773249739 4.911180773249739 0.0 0 0 -0.06256169150775204,3.28324792684396 z"/><path fill="#0420e1" d="M 95.40353701073138,98.27019522031482 l -1.4473968561952244 -0.5447044838157605 a 6.4576802507836994 6.4576802507836994 0.0 0 1 1.268184052424723,-2.072277473980203 l 1.1436893484948052 1.0409780536362623 a 4.911180773249739 4.911180773249739 0.0 0 0 -0.9644765447243038,1.5760039041597012 z"/><path fill="#08144c" d="M 96.36801355545569,96.69419131615511 l -1.1436893484948054 -1.0409780536362623 a 6.4576802507836994 6.4576802507836994 0.0 0 1 2.8487593344073394,-1.8167047391752267 l 0.46146219397654287 1.4760465025002327 a 4.911180773249739 4.911180773249739 0.0 0 0 -2.1665321798890766,1.3816362903112562 z"/><path fill="#06215c" d="M 98.53454573534476,95.31255502584386 l -0.46146219397654276 -1.4760465025002325 a 6.4576802507836994 6.4576802507836994 0.0 0 1 0.736750794842247,-0.1835661025765598 l 0.2850234922991114 1.5200073167095054 a 4.911180773249739 4.911180773249739 0.0 0 0 -0.5603120931648157,0.13960528836728692 z"/><path fill="#12208c" d="M 99.09485782850957,95.17294973747657 l -0.28502349229911134 -1.5200073167095058 a 6.4576802507836994 6.4576802507836994 0.0 0 1 1.5124371418921194,-0.10257615577585222 l -0.07717828278184946 1.5445724802286422 a 4.911180773249739 4.911180773249739 0.0 0 0 -1.1502353668111587,0.07801099225671582 z"/><path fill="#0f17bf" d="M 100.24509319532073,95.09493874521985 l 0.07717828278184938 -1.5445724802286418 a 6.4576802507836994 6.4576802507836994 0.0 0 1 2.0591056599096493,0.44707785039476144 l -0.5702974375822183 1.4375052927554623 a 4.911180773249739 4.911180773249739 0.0 0 0 -1.5659865051092805,-0.340010662921582 z"/><path fill="#0137ad" d="M 101.81107970043001,95.43494940814143 l 0.5702974375822186 -1.4375052927554628 a 6.4576802507836994 6.4576802507836994 0.0 0 1 4.0267799680687455,6.80077685974913 l -1.5346395658575815 -0.19115971572814772 a 4.911180773249739 4.911180773249739 0.0 0 0 -3.0624378397933825,-5.172111851265519 z"/><path fill="#08188b" d="M 104.8735175402234,100.60706125940695 l 1.5346395658575818 0.1911597157281476 a 6.4576802507836994 6.4576802507836994 0.0 0 1 -1.306852083028683,3.1613650238227686 l -1.2216717530934313 -0.9482503686824684 a 4.911180773249739 4.911180773249739 0.0 0 0 0.9938842702645325,-2.404274370868448 z"/><path fill="#061b5a" d="M 103.87963326995887,103.0113356302754 l 1.2216717530934311 0.9482503686824677 a 6.4576802507836994 6.4576802507836994 0.0 0 1 -2.984393289146336,2.1412597565266154 l -0.506962680611784 -1.4610439673328548 a 4.911180773249739 4.911180773249739 0.0 0 0 2.2696842166646887,-1.628466157876228 z"/><path fill="#1728ef" d="M 101.60994905329417,104.63980178815163 l 0.5069626806117843 1.4610439673328546 a 6.4576802507836994 6.4576802507836994 0.0 0 1 -7.737126843707715,-2.920465850360271 l 1.3459414826062446 -0.7616443785734366 a 4.911180773249739 4.911180773249739 0.0 0 0 5.884222680489686,2.2210662616008534 z"/><path fill="#0b259b" d="M 95.72572637280449,102.41873552655078 l -1.345941482606245 0.7616443785734366 a 6.4576802507836994 6.4576802507836994 0.0 0 1 -0.5059067044956866,-1.137767426519698 l 1.4670971335210696 -0.48916933144574193 a 4.911180773249739 4.911180773249739 0.0 0 0 0.38475105358086203,0.8652923793920033 z"/><path fill="#0b259b" d="M 102.52936567846476,111.96119475888172 l 0.475607221591664 2.249113544405108 a 14.524555903866249 14.524555903866249 0.0 0 1 -9.626676221018897,-1.282981845983655 l 1.0480393745408225 -2.046051669501221 a 12.225705329153605 12.225705329153605 0.0 0 0 8.10302962488641,1.079919971079768 z"/><path fill="#0420e1" d="M 94.42633605357835,110.88127478780194 l -1.0480393745408232 2.0460516695012205 a 14.524555903866249 14.524555903866249 0.0 0 1 -4.308107368629432,-3.3616606417826183 l 1.7298980947555531 -1.5139902729600863 a 12.225705329153605 12.225705329153605 0.0 0 0 3.6262486484147027,2.829599245241484 z"/><path fill="#08144c" d="M 90.80008740516365,108.05167554256046 l -1.7298980947555536 1.5139902729600867 a 14.524555903866249 14.524555903866249 0.0 0 1 -3.3345524342200537,-6.828757180478201 l 2.2576689836249155 -0.43317978396353674 a 12.225705329153605 12.225705329153605 0.0 0 0 2.8067815453506917,5.747946691481651 z"/><path fill="#06215c" d="M 87.99330585981295,102.30372885107882 l -2.2576689836249146 0.43317978396353696 a 14.524555903866249 14.524555903866249 0.0 0 1 -0.2226431879379236,-1.693178627878177 l 2.29290747380214 -0.1651946773928903 a 12.225705329153605 12.225705329153605 0.0 0 0 0.187404697760698,1.4251935213075304 z"/><path fill="#12208c" d="M 87.80590116205225,100.87853532977128 l -2.2929074738021398 0.16519467739289026 a 14.524555903866249 14.524555903866249 0.0 0 1 0.15583919037690874,-3.4060113502336553 l 2.2682422782029175 0.3738862557376157 a 12.225705329153605 12.225705329153605 0.0 0 0 -0.13117399477768643,2.8669304171031493 z"/><path fill="#0f17bf" d="M 87.93707515682995,98.01160491266813 l -2.2682422782029166 -0.37388625573761636 a 14.524555903866249 14.524555903866249 0.0 0 1 1.5233528282466784,-4.487727214394198 l 2.027136075171068 1.0841740162892166 a 12.225705329153605 12.225705329153605 0.0 0 0 -1.28224662521483,3.777439453842598 z"/><path fill="#0137ad" d="M 89.21932178204477,94.23416545882553 l -2.027136075171068 -1.084174016289216 a 14.524555903866249 14.524555903866249 0.0 0 1 16.223156294232123,-7.267291581727889 l -0.5405577267937289 2.234392827785717 a 12.225705329153605 12.225705329153605 0.0 0 0 -13.655462492267326,6.117072770231388 z"/><path fill="#08188b" d="M 102.8747842743121,88.11709268859414 l 0.5405577267937279 -2.234392827785716 a 14.524555903866249 14.524555903866249 0.0 0 1 6.732083775187257,3.7253573795744535 l -1.6060673890535817 1.6447679187883217 a 12.225705329153605 12.225705329153605 0.0 0 0 -5.666574112927403,-3.135732470577059 z"/><path fill="#061b5a" d="M 108.5413583872395,91.25282515917121 l 1.6060673890535813 -1.6447679187883206 a 14.524555903866249 14.524555903866249 0.0 0 1 4.02531399523151,7.214495423597067 l -2.243167445852814 0.5029053337585694 a 12.225705329153605 12.225705329153605 0.0 0 0 -3.388213938432278,-6.072632838567316 z"/><path fill="#1728ef" d="M 111.92957232567178,97.32545799773852 l 2.243167445852813 -0.502905333758569 a 14.524555903866249 14.524555903866249 0.0 0 1 -8.49635400877385,16.546866503544738 l -0.8984207682051544 -2.116023177593835 a 12.225705329153605 12.225705329153605 0.0 0 0 7.15160733112619,-13.927937992192334 z"/><path fill="#0b259b" d="M 104.77796499454558,111.25339598993085 l 0.8984207682051536 2.1160231775938354 a 14.524555903866249 14.524555903866249 0.0 0 1 -2.6714128626943205,0.8408891357621324 l -0.4756072215916638 -2.249113544405107 a 12.225705329153605 12.225705329153605 0.0 0 0 2.248599316080831,-0.7077987689508607 z"/><path fill="#0b259b" d="M 107.71326203106989,112.30724636320373 l 1.3206880312191613 2.107283909670856 a 17.011494252873565 17.011494252873565 0.0 0 1 -11.103113271930239,2.470655551611254 l 0.30249437585663586 -2.468473111933436 a 14.524555903866249 14.524555903866249 0.0 0 0 9.479930864854442,-2.109466349348674 z"/><path fill="#0420e1" d="M 98.23333116621545,114.41671271255241 l -0.30249437585663597 2.4684731119334353 a 17.011494252873565 17.011494252873565 0.0 0 1 -6.092757444929401,-1.9595706631585132 l 1.1932046165772743 -2.1820002508574365 a 14.524555903866249 14.524555903866249 0.0 0 0 5.202047204208762,1.6730978020825145 z"/><path fill="#08144c" d="M 93.03128396200668,112.7436149104699 l -1.1932046165772734 2.1820002508574365 a 17.011494252873565 17.011494252873565 0.0 0 1 -6.420133336155181,-6.1646427194628455 l 2.1317744777596648 -1.2807809835158155 a 14.524555903866249 14.524555903866249 0.0 0 0 5.4815634749727895,5.263423452121224 z"/><path fill="#06215c" d="M 87.5497204870339,107.48019145834867 l -2.131774477759665 1.2807809835158162 a 17.011494252873565 17.011494252873565 0.0 0 1 -0.9275137200331982,-1.772106572430937 l 2.2673692353566572 -1.021713806465102 a 14.524555903866249 14.524555903866249 0.0 0 0 0.7919189624362062,1.5130393953802228 z"/><path fill="#12208c" d="M 86.75780152459768,105.96715206296845 l -2.267369235356656 1.0217138064651015 a 17.011494252873565 17.011494252873565 0.0 0 1 -1.2019340950674837,-3.8081986266353423 l 2.4430819593284365 -0.4649869802125144 a 14.524555903866249 14.524555903866249 0.0 0 0 1.026221371095703,3.251471800382755 z"/><path fill="#0f17bf" d="M 85.73158015350198,102.71568026258569 l -2.4430819593284383 0.46498698021251433 a 17.011494252873565 17.011494252873565 0.0 0 1 -0.13431685544848726,-5.5490697311838355 l 2.462717961537736 0.3462406586214861 a 14.524555903866249 14.524555903866249 0.0 0 0 0.11468085323918942,4.737842092349835 z"/><path fill="#0137ad" d="M 85.6168993002628,97.97783817023586 l -2.4627179615377384 -0.34624065862148645 a 17.011494252873565 17.011494252873565 0.0 0 1 14.90936320966151,-14.532516924458955 l 0.28309361024815516 2.4707732311161 a 14.524555903866249 14.524555903866249 0.0 0 0 -12.729738858371928,12.407984351964341 z"/><path fill="#08188b" d="M 98.34663815863472,85.56985381827151 l -0.2830936102481555 -2.4707732311161013 a 17.011494252873565 17.011494252873565 0.0 0 1 8.904885415730117,1.3821591353368787 l -1.0187262478254127 2.2687131118223807 a 14.524555903866249 14.524555903866249 0.0 0 0 -7.603065557656549,-1.1800990160431581 z"/><path fill="#061b5a" d="M 105.94970371629128,86.74995283431468 l 1.0187262478254127 -2.2687131118223807 a 17.011494252873565 17.011494252873565 0.0 0 1 7.335247183456721,6.310299126287235 l -2.0910781087975874 1.3462000945887427 a 14.524555903866249 14.524555903866249 0.0 0 0 -6.262895322484546,-5.3877861090535974 z"/><path fill="#1728ef" d="M 112.21259903877582,92.13773894336828 l 2.0910781087975874 -1.3462000945887427 a 17.011494252873565 17.011494252873565 0.0 0 1 -2.6711974042704707,21.62121071516468 l -1.7005713629644337 -1.814640292517641 a 14.524555903866249 14.524555903866249 0.0 0 0 2.280690658437317,-18.460370328058296 z"/><path fill="#0b259b" d="M 109.9319083803385,110.59810927142657 l 1.7005713629644348 1.8146402925176435 a 17.011494252873565 17.011494252873565 0.0 0 1 -2.598529681013887,2.0017807089303803 l -1.320688031219162 -2.1072839096708567 a 14.524555903866249 14.524555903866249 0.0 0 0 2.2186463492686146,-1.7091370917771673 z"/><path fill="#0b259b" d="M 74.44162811212661,98.52608427719207 l -3.2339164429554086 -0.18649545880426774 a 28.84012539184953 28.84012539184953 0.0 0 1 7.482689616930422,-17.772906478278617 l 2.3934694207639495 2.1827277081761416 a 25.600835945663533 25.600835945663533 0.0 0 0 -6.642242594738963,15.776674228906742 z"/><path fill="#0420e1" d="M 81.08387070686558,82.74941004828533 l -2.393469420763948 -2.1827277081761403 a 28.84012539184953 28.84012539184953 0.0 0 1 8.68887446589222,-6.498711803176542 l 1.4175451148122864 2.9126554831706066 a 25.600835945663533 25.600835945663533 0.0 0 0 -7.712950159940558,5.7687840281820755 z"/><path fill="#08144c" d="M 88.79682086680613,76.98062602010326 l -1.4175451148122866 -2.912655483170606 a 28.84012539184953 28.84012539184953 0.0 0 1 14.822901808232642,-2.8238959543286097 l -0.2473460303152919 3.2298322026785264 a 25.600835945663533 25.600835945663533 0.0 0 0 -13.158010663105063,2.5067192348206895 z"/><path fill="#06215c" d="M 101.95483152991119,74.47390678528257 l 0.24734603031529176 -3.22983220267853 a 28.84012539184953 28.84012539184953 0.0 0 1 3.3599666122235754,0.45724373745751024 l -0.6247335845867807 3.17847511622497 a 25.600835945663533 25.600835945663533 0.0 0 0 -2.9825790579520866,-0.40588665100395005 z"/><path fill="#12208c" d="M 104.93741058786328,74.87979343628652 l 0.6247335845867801 -3.178475116224969 a 28.84012539184953 28.84012539184953 0.0 0 1 6.443820053849911,2.076369508537364 l -1.348495981939486 2.9452597004109897 a 25.600835945663533 25.600835945663533 0.0 0 0 -5.720057656497205,-1.8431540927233847 z"/><path fill="#0f17bf" d="M 110.65746824436049,76.7229475290099 l 1.348495981939487 -2.94525970041099 a 28.84012539184953 28.84012539184953 0.0 0 1 7.802354567552572,5.260839437389468 l -2.2248474007587973 2.354368314327388 a 25.600835945663533 25.600835945663533 0.0 0 0 -6.926003148733262,-4.669948051305866 z"/><path fill="#0137ad" d="M 117.58347139309375,81.39289558031577 l 2.2248474007587973 -2.354368314327391 a 28.84012539184953 28.84012539184953 0.0 0 1 5.454611639073349,34.87323676876837 l -2.8375030558721086 -1.562553206802388 a 25.600835945663533 25.600835945663533 0.0 0 0 -4.8419559839600375,-30.956315247638596 z"/><path fill="#08188b" d="M 122.42542737705378,112.34921082795437 l 2.8375030558721077 1.5625532068023882 a 28.84012539184953 28.84012539184953 0.0 0 1 -10.650865810739873,10.952676439435784 l -1.6412101568397315 -2.7927451257245224 a 25.600835945663533 25.600835945663533 0.0 0 0 9.454572911707496,-9.72248452051365 z"/><path fill="#061b5a" d="M 112.97085446534629,122.07169534846801 l 1.6412101568397315 2.792745125724523 a 28.84012539184953 28.84012539184953 0.0 0 1 -15.922443596164682,3.945900370062645 l 0.14718024707731558 -3.235944080333006 a 25.600835945663533 25.600835945663533 0.0 0 0 14.134053192247634,-3.502701415454162 z"/><path fill="#1728ef" d="M 98.83680127309866,125.57439676392218 l -0.1471802470773151 3.235944080333008 a 28.84012539184953 28.84012539184953 0.0 0 1 -27.26533424305017,-24.914003236228037 l 3.2095909772749778 -0.43763212264073204 a 25.600835945663533 25.600835945663533 0.0 0 0 24.202923512852507,22.11569127853576 z"/><path fill="#0b259b" d="M 74.63387776024615,103.45870548538642 l -3.2095909772749778 0.4376321226407301 a 28.84012539184953 28.84012539184953 0.0 0 1 -0.21657511379996564,-5.556748789639339 l 3.233916442955408 0.18649545880426732 a 25.600835945663533 25.600835945663533 0.0 0 0 0.19224964811953527,4.932621208194341 z"/><path fill="#0b259b" d="M 124.90803314151037,114.53763108759556 l 2.960085097976595 1.7276605060620807 a 32.2675026123302 32.2675026123302 0.0 0 1 -16.47967729644555,13.925686160028874 l -1.2096530535354866 -3.206813699225769 a 28.84012539184953 28.84012539184953 0.0 0 0 14.729245252004445,-12.446532966865187 z"/><path fill="#0420e1" d="M 110.17878788950594,126.98416405446073 l 1.2096530535354875 3.206813699225769 a 32.2675026123302 32.2675026123302 0.0 0 1 -11.96176532252986,2.0714310837301433 l 0.06089714911664856 -3.42683617184996 a 28.84012539184953 28.84012539184953 0.0 0 0 10.691215119877723,-1.8514086111059527 z"/><path fill="#08144c" d="M 99.48757276962822,128.8355726655667 l -0.06089714911664778 3.426836171849955 a 32.2675026123302 32.2675026123302 0.0 0 1 -16.2137461091843,-4.705449838915582 l 1.7830826166724947 -2.927034505022135 a 28.84012539184953 28.84012539184953 0.0 0 0 14.491560641628453,4.205648172087763 z"/><path fill="#06215c" d="M 84.99601212799976,124.62992449347894 l -1.7830826166724927 2.927034505022134 a 32.2675026123302 32.2675026123302 0.0 0 1 -3.1184261474338104,-2.1608386548996266 l 2.1143144095346322 -2.697515373284091 a 28.84012539184953 28.84012539184953 0.0 0 0 2.787194354571671,1.9313195231615836 z"/><path fill="#12208c" d="M 82.20881777342808,122.69860497031735 l -2.114314409534633 2.697515373284091 a 32.2675026123302 32.2675026123302 0.0 0 1 -5.371967816021896,-5.340160737835404 l 2.684912027298619 -2.130296227555462 a 28.84012539184953 28.84012539184953 0.0 0 0 4.80137019825791,4.7729415921067755 z"/><path fill="#0f17bf" d="M 77.40744757517018,117.92566337821057 l -2.684912027298617 2.1302962275554598 a 32.2675026123302 32.2675026123302 0.0 0 1 -5.110807181845972,-9.204937905643874 l 3.227769784955832 -1.1525696624482098 a 28.84012539184953 28.84012539184953 0.0 0 0 4.5679494241887575,8.227211340536623 z"/><path fill="#0137ad" d="M 72.83949815098141,109.69845203767396 l -3.2277697849558313 1.152569662448209 a 32.2675026123302 32.2675026123302 0.0 0 1 12.256001069539018,-37.54207804892271 l 1.9259665625436568 2.8350603893803736 a 28.84012539184953 28.84012539184953 0.0 0 0 -10.954197847126842,33.55444799709413 z"/><path fill="#08188b" d="M 83.79369599810826,76.14400404057983 l -1.925966562543656 -2.8350603893803688 a 32.2675026123302 32.2675026123302 0.0 0 1 16.1781932174418,-5.5172237443479 l 0.20755743841123753 3.4210867456452974 a 28.84012539184953 28.84012539184953 0.0 0 0 -14.459784093309382,4.931197388082971 z"/><path fill="#061b5a" d="M 98.25348009141764,71.21280665249685 l -0.20755743841123692 -3.4210867456453014 a 32.2675026123302 32.2675026123302 0.0 0 1 17.87948951522448,4.144549548035602 l -1.6915593235685655 2.980862570853958 a 28.84012539184953 28.84012539184953 0.0 0 0 -15.98037275324468,-3.7043253732442594 z"/><path fill="#1728ef" d="M 114.23385284466232,74.91713202574111 l 1.6915593235685655 -2.980862570853955 a 32.2675026123302 32.2675026123302 0.0 0 1 14.54631327933895,38.6781392938214 l -3.236634050130471 -1.1274371986970237 a 28.84012539184953 28.84012539184953 0.0 0 0 -13.001238552777044,-34.56983952427042 z"/><path fill="#0b259b" d="M 127.23509139743936,109.48697155001153 l 3.236634050130475 1.1274371986970229 a 32.2675026123302 32.2675026123302 0.0 0 1 -2.603607208082869,5.6508828449490816 l -2.960085097976595 -1.7276605060620813 a 28.84012539184953 28.84012539184953 0.0 0 0 2.327058255928989,-5.050659537584023 z"/><path fill="#0b259b" d="M 58.09700814330068,112.325624315654 l -4.0098556800669165 1.1794855804453566 a 47.85788923719957 47.85788923719957 0.0 0 1 1.753009081699478,-31.95195867475176 l 3.856754450224173 1.611078495952178 a 43.678160919540225 43.678160919540225 0.0 0 0 -1.5999078518567345,29.161394598354228 z"/><path fill="#0420e1" d="M 59.69691599515741,83.16422971729976 l -3.856754450224167 -1.611078495952174 a 47.85788923719957 47.85788923719957 0.0 0 1 9.941526709923991,-15.011852683781651 l 2.988498842370543 2.922157332963671 a 43.678160919540225 43.678160919540225 0.0 0 0 -9.073271102070368,13.700773846770154 z"/><path fill="#08144c" d="M 68.77018709722779,69.4634558705296 l -2.988498842370544 -2.9221573329636708 a 47.85788923719957 47.85788923719957 0.0 0 1 21.579977885612973,-12.700263858455934 l 1.1037846165528151 4.031350683047158 a 43.678160919540225 43.678160919540225 0.0 0 0 -19.695263659795245,11.591070508372447 z"/><path fill="#06215c" d="M 88.46545075702304,57.87238536215716 l -1.1037846165528191 -4.031350683047157 a 47.85788923719957 47.85788923719957 0.0 0 1 5.505205506204508,-1.1643486177496891 l 0.6229806422118145 4.133040518658483 a 43.678160919540225 43.678160919540225 0.0 0 0 -5.024401531863504,1.0626587821383637 z"/><path fill="#12208c" d="M 93.48985228888654,56.80972658001879 l -0.6229806422118146 -4.1330405186584835 a 47.85788923719957 47.85788923719957 0.0 0 1 11.228688016967913,-0.3590093403450103 l -0.3576908003181334 4.16439504619953 a 43.678160919540225 43.678160919540225 0.0 0 0 -10.248016574437965,0.3276548128039636 z"/><path fill="#0f17bf" d="M 103.7378688633245,56.48207176721483 l 0.3576908003181331 -4.164395046199533 a 47.85788923719957 47.85788923719957 0.0 0 1 15.131838189353896,3.8567059525550915 l -1.679248720785722 3.8275648320025795 a 43.678160919540225 43.678160919540225 0.0 0 0 -13.810280268886308,-3.519875738358138 z"/><path fill="#0137ad" d="M 117.54814913221081,60.00194750557297 l 1.679248720785721 -3.8275648320025817 a 47.85788923719957 47.85788923719957 0.0 0 1 28.0216429690784,51.43519705424373 l -4.126553783587326 -0.6645921159663004 a 43.678160919540225 43.678160919540225 0.0 0 0 -25.574337906276796,-46.94304010627485 z"/><path fill="#08188b" d="M 143.1224870384876,106.94498761184782 l 4.126553783587325 0.6645921159662982 a 47.85788923719957 47.85788923719957 0.0 0 1 -10.516449442282408,23.067680462190705 l -3.2080865833879884 -2.6792366978170143 a 43.678160919540225 43.678160919540225 0.0 0 0 9.59798224208307,-21.053035880339987 z"/><path fill="#061b5a" d="M 133.52450479640453,127.99802349218781 l 3.2080865833879892 2.6792366978170126 a 47.85788923719957 47.85788923719957 0.0 0 1 -22.670504919300225,15.068070573010784 l -1.2281298218770544 -3.995225394149834 a 43.678160919540225 43.678160919540225 0.0 0 0 20.69054815778929,-13.752081876677963 z"/><path fill="#1728ef" d="M 112.83395663861523,141.75010536886577 l 1.2281298218770547 3.9952253941498306 a 47.85788923719957 47.85788923719957 0.0 0 1 -56.529488275970486,-23.679580259513976 l 3.7089433899980975 -1.9271397819652059 a 43.678160919540225 43.678160919540225 0.0 0 0 51.592415064095334,21.61149464732935 z"/><path fill="#0b259b" d="M 61.2415415745199,120.13861072153642 l -3.708943389998091 1.9271397819652059 a 47.85788923719957 47.85788923719957 0.0 0 1 -3.4454457212880523,-8.56064060740228 l 4.00985568006692 -1.1794855804453572 a 43.678160919540225 43.678160919540225 0.0 0 0 3.144533431219223,7.812986405882432 z"/><path fill="#0b259b" d="M 64.16106259067871,68.28331468121527 l -3.2708899207633815 -2.8946669133737997 a 52.22570532915359 52.22570532915359 0.0 0 1 30.553860703344974,-16.908738336567176 l 0.715565036009842 4.308803092782576 a 47.85788923719957 47.85788923719957 0.0 0 0 -27.998535818591435,15.4946021571584 z"/><path fill="#0420e1" d="M 92.15959840927016,52.78871252405688 l -0.7155650360098419 -4.308803092782578 a 52.22570532915359 52.22570532915359 0.0 0 1 19.642564323154982,0.4846945318042115 l -0.9272104516009598 4.268266415252732 a 47.85788923719957 47.85788923719957 0.0 0 0 -17.99978883554418,-0.4441578542743656 z"/><path fill="#08144c" d="M 110.15938724481434,53.23287037833125 l 0.9272104516009578 -4.268266415252734 a 52.22570532915359 52.22570532915359 0.0 0 1 24.254924918253042,12.584114180467482 l -2.9557335840198746 3.215813488594989 a 47.85788923719957 47.85788923719957 0.0 0 0 -22.226401785834124,-11.531661253809737 z"/><path fill="#06215c" d="M 132.38578903064845,64.764531632141 l 2.955733584019878 -3.215813488594991 a 52.22570532915359 52.22570532915359 0.0 0 1 4.268881108386989,4.413946267072932 l -3.3127548531887 2.846659919239954 a 47.85788923719957 47.85788923719957 0.0 0 0 -3.9118598392181667,-4.044792697717895 z"/><path fill="#12208c" d="M 136.29764886986663,68.80932432985888 l 3.312754853188698 -2.8466599192399515 a 52.22570532915359 52.22570532915359 0.0 0 1 6.843509417049363,10.17191602258545 l -3.8851011789843426 1.9959474547660179 a 47.85788923719957 47.85788923719957 0.0 0 0 -6.271163091253719,-9.321203558111517 z"/><path fill="#0f17bf" d="M 142.56881196112033,78.1305278879704 l 3.8851011789843426 -1.9959474547660188 a 52.22570532915359 52.22570532915359 0.0 0 1 5.209862598252741,16.22483231290653 l -4.320819979718564 0.6390086979042895 a 47.85788923719957 47.85788923719957 0.0 0 0 -4.774143797518519,-14.867893556044798 z"/><path fill="#0137ad" d="M 147.34295575863885,92.99842144401521 l 4.320819979718565 -0.6390086979042895 a 52.22570532915359 52.22570532915359 0.0 0 1 -31.29807827615324,55.73177838080497 l -1.7032536092839798 -4.022032391166633 a 47.85788923719957 47.85788923719957 0.0 0 0 28.680511905718657,-51.07073729173405 z"/><path fill="#08188b" d="M 118.6624438529202,144.06915873574923 l 1.703253609283982 4.022032391166631 a 52.22570532915359 52.22570532915359 0.0 0 1 -27.422997522273945,3.655488119096825 l 0.5902263755720583 -4.327753486361203 a 47.85788923719957 47.85788923719957 0.0 0 0 25.129517537417904,-3.3497670239022526 z"/><path fill="#061b5a" d="M 93.53292631550231,147.4189257596515 l -0.5902263755720605 4.327753486361203 a 52.22570532915359 52.22570532915359 0.0 0 1 -27.07619862292709,-12.219112096168608 l 2.854702370846873 -3.3058269445047657 a 47.85788923719957 47.85788923719957 0.0 0 0 24.81172262765228,11.19718555431217 z"/><path fill="#1728ef" d="M 68.72120368785002,136.22174020533933 l -2.8547023708468737 3.3058269445047657 a 52.22570532915359 52.22570532915359 0.0 0 1 -10.89197188931469,-65.9894509994397 l 3.7656355940828803 2.2130987293179203 a 47.85788923719957 47.85788923719957 0.0 0 0 9.981038666078682,60.47052532561702 z"/><path fill="#0b259b" d="M 58.74016502177134,75.7512148797223 l -3.7656355940828754 -2.2130987293179194 a 52.22570532915359 52.22570532915359 0.0 0 1 5.915643242226865,-8.149468382562898 l 3.2708899207633806 2.8946669133738006 a 47.85788923719957 47.85788923719957 0.0 0 0 -5.420897568907371,7.467900198507017 z"/><path fill="#0b259b" d="M 114.08999350559928,164.94686556969145 l 1.0855498141106334 5.003767944834715 a 71.5778474399164 71.5778474399164 0.0 0 1 -47.47330353840623,-6.073854251733488 l 2.3103507309724307 -4.569287859674219 a 66.4576802507837 66.4576802507837 0.0 0 0 44.07740299332316,5.639374166572992 z"/><path fill="#0420e1" d="M 70.01259051227612,159.3074914031185 l -2.310350730972437 4.569287859674217 a 71.5778474399164 71.5778474399164 0.0 0 1 -21.31714467118253,-16.454946550621095 l 3.835226773144612 -3.3922186903597122 a 66.4576802507837 66.4576802507837 0.0 0 0 19.792268629010355,15.277877381306588 z"/><path fill="#08144c" d="M 50.22032188326576,144.02961402181188 l -3.835226773144617 3.3922186903597176 a 71.5778474399164 71.5778474399164 0.0 0 1 -16.609034616437025,-33.565911077533514 l 5.023318300451791 -0.991153518390167 a 66.4576802507837 66.4576802507837 0.0 0 0 15.42094308912985,31.164845905563965 z"/><path fill="#06215c" d="M 34.79937879413592,112.86476811624793 l -5.023318300451789 0.9911535183901691 a 71.5778474399164 71.5778474399164 0.0 0 1 -1.1409199734159063,-8.338215990977908 l 5.104931554024603 -0.3946971920282465 a 66.4576802507837 66.4576802507837 0.0 0 0 1.059306719843093,7.741759664615985 z"/><path fill="#12208c" d="M 33.74007207429281,105.12300845163195 l -5.104931554024606 0.3946971920282462 a 71.5778474399164 71.5778474399164 0.0 0 1 0.6799930591341088,-16.788814871868613 l 5.05628971475808 0.8062545287331577 a 66.4576802507837 66.4576802507837 0.0 0 0 -0.6313512198675824,15.587863151107209 z"/><path fill="#0f17bf" d="M 34.371423294160394,89.53514530052472 l -5.056289714758079 -0.8062545287331571 a 71.5778474399164 71.5778474399164 0.0 0 1 7.391144523723361,-22.154824005929946 l 4.527580106491733 2.3910521583544195 a 66.4576802507837 66.4576802507837 0.0 0 0 -6.8624349154570154,20.570026376308682 z"/><path fill="#0137ad" d="M 41.23385820961743,68.96511892421601 l -4.527580106491737 -2.3910521583544218 a 71.5778474399164 71.5778474399164 0.0 0 1 79.75982777588251,-36.232200542996644 l -1.1778674278414627 4.982844605955634 a 66.4576802507837 66.4576802507837 0.0 0 0 -74.05438024154931,33.64040809539543 z"/><path fill="#08188b" d="M 115.28823845116673,35.32471082882061 l 1.1778674278414591 -4.9828446059556395 a 71.5778474399164 71.5778474399164 0.0 0 1 33.27187048450044,18.18462650013859 l -3.5578990391414855 3.6820465059457277 a 66.4576802507837 66.4576802507837 0.0 0 0 -30.891838873200417,-16.883828400128678 z"/><path fill="#061b5a" d="M 146.18007732436715,52.2085392289493 l 3.5578990391414886 -3.6820465059457272 a 71.5778474399164 71.5778474399164 0.0 0 1 20.02306460979107,35.44898212167438 l -4.990205850644784 1.1462799016215754 a 66.4576802507837 66.4576802507837 0.0 0 0 -18.590757798287775,-32.91321551735023 z"/><path fill="#1728ef" d="M 164.77083512265492,85.12175474629953 l 4.990205850644791 -1.1462799016215763 a 71.5778474399164 71.5778474399164 0.0 0 1 -41.4425232269427,81.76226010855277 l -2.025704189155462 -4.702407317822335 a 66.4576802507837 66.4576802507837 0.0 0 0 38.47802156545337,-75.91357288910885 z"/><path fill="#0b259b" d="M 126.29281355720155,161.03532763540838 l 2.025704189155462 4.702407317822338 a 71.5778474399164 71.5778474399164 0.0 0 1 -13.142974426647108,4.212898561295479 l -1.0855498141106317 -5.0037679448347205 a 66.4576802507837 66.4576802507837 0.0 0 0 12.202820051602277,-3.9115379342830963 z"/><path fill="#0b259b" d="M 67.70257510545292,163.87694881029492 l -2.3951958899897736 4.737151824179545 a 76.88610240334378 76.88610240334378 0.0 0 1 -35.483325495305685,-37.20057955666273 l 4.844982428670846 -2.168805206241963 a 71.5778474399164 71.5778474399164 0.0 0 0 33.03353895662461,34.632232938725146 z"/><path fill="#0420e1" d="M 34.66903614882831,129.24471587156978 l -4.8449824286708445 2.168805206241967 a 76.88610240334378 76.88610240334378 0.0 0 1 -6.641020563435818,-28.15371314234342 l 5.3034818097832925 -0.22505877021173148 a 71.5778474399164 71.5778474399164 0.0 0 0 6.18252118232337,26.209966706313185 z"/><path fill="#08144c" d="M 28.48651496650494,103.03474916525659 l -5.303481809783293 0.22505877021172951 a 76.88610240334378 76.88610240334378 0.0 0 1 8.868170911342702,-39.23804961259356 l 4.691218854773496 2.483955799399247 a 71.5778474399164 71.5778474399164 0.0 0 0 -8.255907956332905,36.52903504298258 z"/><path fill="#06215c" d="M 36.74242292283785,66.50571412227399 l -4.691218854773495 -2.4839557993992467 a 76.88610240334378 76.88610240334378 0.0 0 1 4.692572390748501,-7.726711429872012 l 4.367241309992274 3.017411820923442 a 71.5778474399164 71.5778474399164 0.0 0 0 -4.36859484596728,7.193255408347817 z"/><path fill="#12208c" d="M 41.111017768805134,59.31245871392619 l -4.367241309992271 -3.0174118209234364 a 76.88610240334378 76.88610240334378 0.0 0 1 11.931509693291293,-13.542286924370869 l 3.5434839133910216 3.9523780831659536 a 71.5778474399164 71.5778474399164 0.0 0 0 -11.107752296690045,12.607320662128352 z"/><path fill="#0f17bf" d="M 52.21877006549518,46.70513805179784 l -3.543483913391022 -3.9523780831659496 a 76.88610240334378 76.88610240334378 0.0 0 1 21.161148577842162,-13.474977644385515 l 2.0825076321265676 4.882697279054483 a 71.5778474399164 71.5778474399164 0.0 0 0 -19.70017229657771,12.544658448496982 z"/><path fill="#0137ad" d="M 71.9189423620729,34.16047960330086 l -2.0825076321265703 -4.8826972790544865 a 76.88610240334378 76.88610240334378 0.0 0 1 91.04865371057427,23.770340733852205 l -4.203536956752458 3.24158106638842 a 71.5778474399164 71.5778474399164 0.0 0 0 -84.76260912169525,-22.12922452118614 z"/><path fill="#08188b" d="M 156.68155148376817,56.28970412448706 l 4.2035369567524485 -3.2415810663884166 a 76.88610240334378 76.88610240334378 0.0 0 1 15.440940496361389,37.68850555219005 l -5.269587211190014 0.6395477936903191 a 71.5778474399164 71.5778474399164 0.0 0 0 -14.374890241923822,-35.08647227949196 z"/><path fill="#061b5a" d="M 171.05644172569197,91.37617640397903 l 5.269587211190013 -0.6395477936903211 a 76.88610240334378 76.88610240334378 0.0 0 1 -7.295379699458875,43.11957035884145 l -4.765910548058031 -2.3374489095295132 a 71.5778474399164 71.5778474399164 0.0 0 0 6.7917030363268935,-40.14257365562162 z"/><path fill="#1728ef" d="M 164.26473868936506,131.51875005960056 l 4.765910548058032 2.3374489095295075 a 76.88610240334378 76.88610240334378 0.0 0 1 -89.9097631257443,40.14066141032101 l 1.4415044652442504 -5.1087802490841625 a 71.5778474399164 71.5778474399164 0.0 0 0 83.70234811244202,-37.36933007076635 z"/><path fill="#0b259b" d="M 80.56239057692304,168.88808013036692 l -1.441504465244251 5.108780249084157 a 76.88610240334378 76.88610240334378 0.0 0 1 -13.813506896215632,-5.382759744976633 l 2.395195889989772 -4.737151824179541 a 71.5778474399164 71.5778474399164 0.0 0 0 12.85981547147011,5.011131320072018 z"/><path fill="#0b259b" d="M 125.69507508656218,9.643080785163036 l 1.6577467797782055 -5.829478659021742 a 100.0 100.0 0.0 0 1 54.4993719847941,38.73887084478372 l -4.960739021280872 3.4816683047924215 a 93.93939393939394 93.93939393939394 0.0 0 0 -51.19637974329144,-36.3910604905544 z"/><path fill="#0420e1" d="M 176.89145482985356,46.034141275717374 l 4.9607390212808795 -3.481668304792424 a 100.0 100.0 0.0 0 1 15.434418669165161,34.31065117417456 l -5.896158334563623 1.402234900296996 a 93.93939393939394 93.93939393939394 0.0 0 0 -14.498999355882418,-32.231217769679134 z"/><path fill="#08144c" d="M 191.39045418573605,78.2653590453966 l 5.896158334563617 -1.4022349002969958 a 100.0 100.0 0.0 0 1 -1.632222753222714,52.29571187913373 l -5.797235743459197 -1.7672021832868694 a 93.93939393939394 93.93939393939394 0.0 0 0 1.5333001621182945,-49.12627479554986 z"/><path fill="#06215c" d="M 189.85715402361774,127.39163384094643 l 5.79723574345921 1.7672021832868674 a 100.0 100.0 0.0 0 1 -4.083659732309214,11.025755561344445 l -5.549741214228348 -2.4354297930653175 a 93.93939393939394 93.93939393939394 0.0 0 0 3.8361652030783517,-10.357527951565995 z"/><path fill="#12208c" d="M 186.0209888205394,137.7491617925124 l 5.549741214228349 2.435429793065319 a 100.0 100.0 0.0 0 1 -11.890974642715207,20.24004395873213 l -4.829076084366832 -3.662099123897569 a 93.93939393939394 93.93939393939394 0.0 0 0 11.170309512853692,-19.01337462789988 z"/><path fill="#0f17bf" d="M 174.8506793076857,156.7625364204123 l 4.829076084366821 3.6620991238975695 a 100.0 100.0 0.0 0 1 -23.693433307090334,22.43386878324165 l -3.3931104293916476 -5.021727535003123 a 93.93939393939394 93.93939393939394 0.0 0 0 22.25746765211516,-21.074240372136096 z"/><path fill="#0137ad" d="M 152.59321165557054,177.8367767925484 l 3.3931104293916485 5.021727535003125 a 100.0 100.0 0.0 0 1 -122.13644283218811,-7.864094368359035 l 4.009098227104602 -4.545115755102572 a 93.93939393939394 93.93939393939394 0.0 0 0 114.73423417569185,7.387482588458482 z"/><path fill="#08188b" d="M 37.85897747987869,170.44929420408994 l -4.0090982271046025 4.545115755102577 a 100.0 100.0 0.0 0 1 -29.026670285627503,-44.31251874159394 l 5.768290365627493 -1.8595085586423394 a 93.93939393939394 93.93939393939394 0.0 0 0 27.26747814710461,41.6269115451337 z"/><path fill="#061b5a" d="M 10.591499332774063,128.82238265895623 l -5.7682903656274815 1.8595085586423377 a 100.0 100.0 0.0 0 1 -1.3349194659589303,-56.86375013925336 l 5.849194575685601 1.5867793285851377 a 93.93939393939394 93.93939393939394 0.0 0 0 1.2540152559008106,53.417462252025885 z"/><path fill="#1728ef" d="M 9.337484076873253,75.40492040693033 l -5.8491945756855985 -1.5867793285851397 a 100.0 100.0 0.0 0 1 104.89573294326225,-73.46606211863065 l -0.5081225723909029 6.03926794183549 a 93.93939393939394 93.93939393939394 0.0 0 0 -98.53841579518574,69.0135735053803 z"/><path fill="#0b259b" d="M 107.87589987205901,6.391346901550051 l 0.5081225723909032 -6.039267941835483 a 100.0 100.0 0.0 0 1 18.96879942189048,3.4615231664267228 l -1.6577467797782042 5.829478659021746 a 93.93939393939394 93.93939393939394 0.0 0 0 -17.81917521450318,-3.251733883612985 z"/></g></svg>