<?xml version='1.0' encoding='UTF-8'?>
<svg viewBox="-183.0688890333971 -184.96663314799213 580.9696489760485 566.146283170732" preserveAspectRatio="xMidYMid meet" xmlns="http://www.w3.org/2000/svg" xmlns:svg="http://www.w3.org/2000/svg"><g transform="translate(0.0, 0.0)"><path fill="#144d4f" d="M 100.67107059563753,100.0 a 0.6710705956375238 0.6710705956375238 0.0 1 1 -0.6710705956375238,-0.6710705956375238 a 0.6710705956375238 0.6710705956375238 0.0 0 1 0.6710705956375238,0.6710705956375238 z M 100.3003610588319,100.0 a 0.30036105883188785 0.30036105883188785 0.0 1 0 -0.30036105883188785,0.30036105883188785 a 0.30036105883188785 0.30036105883188785 0.0 0 0 0.30036105883188785,-0.30036105883188785 z"/><path fill="#045044" d="M 101.12233535325417,100.0 a 1.122335353254167 1.122335353254167 0.0 1 1 -1.122335353254167,-1.122335353254167 a 1.122335353254167 1.122335353254167 0.0 0 1 1.122335353254167,1.122335353254167 z M 100.67107059563753,100.0 a 0.6710705956375238 0.6710705956375238 0.0 1 0 -0.6710705956375238,0.6710705956375238 a 0.6710705956375238 0.6710705956375238 0.0 0 0 0.6710705956375238,-0.6710705956375238 z"/><path fill="#25b499" d="M 101.66505348865508,100.0 a 1.6650534886550792 1.6650534886550792 0.0 1 1 -1.6650534886550792,-1.6650534886550792 a 1.6650534886550792 1.6650534886550792 0.0 0 1 1.6650534886550792,1.6650534886550792 z M 101.12233535325416,100.0 a 1.122335353254167 1.122335353254167 0.0 1 0 -1.122335353254167,1.122335353254167 a 1.122335353254167 1.122335353254167 0.0 0 0 1.122335353254167,-1.122335353254167 z"/><path fill="#081e1b" d="M 103.96128094333612,100.0 a 3.9612809433361234 3.9612809433361234 0.0 1 1 -3.9612809433361234,-3.9612809433361234 a 3.9612809433361234 3.9612809433361234 0.0 0 1 3.9612809433361234,3.9612809433361234 z M 103.07189959138279,100.0 a 3.0718995913827847 3.0718995913827847 0.0 1 0 -3.0718995913827847,3.0718995913827847 a 3.0718995913827847 3.0718995913827847 0.0 0 0 3.0718995913827847,-3.0718995913827847 z"/><path fill="#107779" d="M 104.99262244232682,100.0 a 4.992622442326825 4.992622442326825 0.0 1 1 -4.992622442326825,-4.992622442326825 a 4.992622442326825 4.992622442326825 0.0 0 1 4.992622442326825,4.992622442326825 z M 103.96128094333612,100.0 a 3.9612809433361234 3.9612809433361234 0.0 1 0 -3.9612809433361234,3.9612809433361234 a 3.9612809433361234 3.9612809433361234 0.0 0 0 3.9612809433361234,-3.9612809433361234 z"/><path fill="#187f75" d="M 106.18027931600817,100.0 a 6.180279316008171 6.180279316008171 0.0 1 1 -6.180279316008171,-6.180279316008171 a 6.180279316008171 6.180279316008171 0.0 0 1 6.180279316008171,6.180279316008171 z M 104.99262244232682,100.0 a 4.992622442326825 4.992622442326825 0.0 1 0 -4.992622442326825,4.992622442326825 a 4.992622442326825 4.992622442326825 0.0 0 0 4.992622442326825,-4.992622442326825 z"/><path fill="#144d4f" d="M 110.83506567376898,100.0 a 10.835065673768975 10.835065673768975 0.0 1 1 -10.835065673768975,-10.835065673768975 a 10.835065673768975 10.835065673768975 0.0 0 1 10.835065673768975,10.835065673768975 z M 109.08541716873596,100.0 a 9.085417168735953 9.085417168735953 0.0 1 0 -9.085417168735953,9.085417168735953 a 9.085417168735953 9.085417168735953 0.0 0 0 9.085417168735953,-9.085417168735953 z"/><path fill="#045044" d="M 112.80536460546583,100.0 a 12.805364605465819 12.805364605465819 0.0 1 1 -12.805364605465819,-12.805364605465819 a 12.805364605465819 12.805364605465819 0.0 0 1 12.805364605465819,12.805364605465819 z M 110.83506567376898,100.0 a 10.835065673768975 10.835065673768975 0.0 1 0 -10.835065673768975,10.835065673768975 a 10.835065673768975 10.835065673768975 0.0 0 0 10.835065673768975,-10.835065673768975 z"/><path fill="#25b499" d="M 115.01412626215979,100.0 a 15.014126262159786 15.014126262159786 0.0 1 1 -15.014126262159786,-15.014126262159786 a 15.014126262159786 15.014126262159786 0.0 0 1 15.014126262159786,15.014126262159786 z M 112.80536460546583,100.0 a 12.805364605465819 12.805364605465819 0.0 1 0 -12.805364605465819,12.805364605465819 a 12.805364605465819 12.805364605465819 0.0 0 0 12.805364605465819,-12.805364605465819 z"/><path fill="#081e1b" d="M 123.25968177759754,100.0 a 23.259681777597528 23.259681777597528 0.0 1 1 -23.259681777597528,-23.259681777597528 a 23.259681777597528 23.259681777597528 0.0 0 1 23.259681777597528,23.259681777597528 z M 120.22174401455234,100.0 a 20.22174401455233 20.22174401455233 0.0 1 0 -20.22174401455233,20.22174401455233 a 20.22174401455233 20.22174401455233 0.0 0 0 20.22174401455233,-20.22174401455233 z"/><path fill="#107779" d="M 126.6142456003331,100.0 a 26.61424560033311 26.61424560033311 0.0 1 1 -26.61424560033311,-26.61424560033311 a 26.61424560033311 26.61424560033311 0.0 0 1 26.61424560033311,26.61424560033311 z M 123.25968177759752,100.0 a 23.259681777597528 23.259681777597528 0.0 1 0 -23.259681777597528,23.259681777597528 a 23.259681777597528 23.259681777597528 0.0 0 0 23.259681777597528,-23.259681777597528 z"/><path fill="#187f75" d="M 130.3067048517724,100.0 a 30.306704851772395 30.306704851772395 0.0 1 1 -30.306704851772395,-30.306704851772395 a 30.306704851772395 30.306704851772395 0.0 0 1 30.306704851772395,30.306704851772395 z M 126.6142456003331,100.0 a 26.61424560033311 26.61424560033311 0.0 1 0 -26.61424560033311,26.61424560033311 a 26.61424560033311 26.61424560033311 0.0 0 0 26.61424560033311,-26.61424560033311 z"/><path fill="#144d4f" d="M 143.6345200804858,100.0 a 43.63452008048579 43.63452008048579 0.0 1 1 -43.63452008048579,-43.63452008048579 a 43.63452008048579 43.63452008048579 0.0 0 1 43.63452008048579,43.63452008048579 z M 138.7938441874954,100.0 a 38.793844187495395 38.793844187495395 0.0 1 0 -38.793844187495395,38.793844187495395 a 38.793844187495395 38.793844187495395 0.0 0 0 38.793844187495395,-38.793844187495395 z"/><path fill="#045044" d="M 148.90508301959323,100.0 a 48.90508301959322 48.90508301959322 0.0 1 1 -48.90508301959322,-48.90508301959322 a 48.90508301959322 48.90508301959322 0.0 0 1 48.90508301959322,48.90508301959322 z M 143.6345200804858,100.0 a 43.63452008048579 43.63452008048579 0.0 1 0 -43.63452008048579,43.63452008048579 a 43.63452008048579 43.63452008048579 0.0 0 0 43.63452008048579,-43.63452008048579 z"/><path fill="#25b499" d="M 154.63025944451104,100.0 a 54.63025944451104 54.63025944451104 0.0 1 1 -54.63025944451104,-54.63025944451104 a 54.63025944451104 54.63025944451104 0.0 0 1 54.63025944451104,54.63025944451104 z M 148.90508301959323,100.0 a 48.90508301959322 48.90508301959322 0.0 1 0 -48.90508301959322,48.90508301959322 a 48.90508301959322 48.90508301959322 0.0 0 0 48.90508301959322,-48.90508301959322 z"/><path fill="#081e1b" d="M 174.79110524310036,100.0 a 74.79110524310036 74.79110524310036 0.0 1 1 -74.79110524310036,-74.79110524310036 a 74.79110524310036 74.79110524310036 0.0 0 1 74.79110524310036,74.79110524310036 z M 167.54681558123127,100.0 a 67.54681558123127 67.54681558123127 0.0 1 0 -67.54681558123127,67.54681558123127 a 67.54681558123127 67.54681558123127 0.0 0 0 67.54681558123127,-67.54681558123127 z"/><path fill="#107779" d="M 182.5958282909133,100.0 a 82.59582829091327 82.59582829091327 0.0 1 1 -82.59582829091327,-82.59582829091327 a 82.59582829091327 82.59582829091327 0.0 0 1 82.59582829091327,82.59582829091327 z M 174.7911052431004,100.0 a 74.79110524310036 74.79110524310036 0.0 1 0 -74.79110524310036,74.79110524310036 a 74.79110524310036 74.79110524310036 0.0 0 0 74.79110524310036,-74.79110524310036 z"/><path fill="#187f75" d="M 190.98916823504337,100.0 a 90.98916823504337 90.98916823504337 0.0 1 1 -90.98916823504337,-90.98916823504337 a 90.98916823504337 90.98916823504337 0.0 0 1 90.98916823504337,90.98916823504337 z M 182.5958282909133,100.0 a 82.59582829091327 82.59582829091327 0.0 1 0 -82.59582829091327,82.59582829091327 a 82.59582829091327 82.59582829091327 0.0 0 0 82.59582829091327,-82.59582829091327 z"/><path fill="#000000" d="M 100.0,100.0 l -0.12015163757590588 0.27528230900375883 a 0.30036105883188785 0.30036105883188785 0.0 0 1 -0.1001356093421191,-0.07110029581971297 l 0.22028724691802498 -0.20418201318404586 z"/><path fill="#144d4f" d="M 100.0,100.0 l -0.22028724691802498 0.20418201318404586 a 0.30036105883188785 0.30036105883188785 0.0 0 1 -0.08003019395123023,-0.20930064311344815 l 0.3003174408692552 0.005118629929402302 z"/><path fill="#045044" d="M 100.0,100.0 l -0.3003174408692552 -0.005118629929402302 a 0.30036105883188785 0.30036105883188785 0.0 0 1 0.2077743434127733,-0.2806304571658549 l 0.09254309745648194 0.2857490870952572 z"/><path fill="#25b499" d="M 100.0,100.0 l -0.09254309745648194 -0.2857490870952572 a 0.30036105883188785 0.30036105883188785 0.0 0 1 0.00698167740283058,-0.0021675832470753886 l 0.08556142005365136 0.2879166703423326 z"/><path fill="#091b1d" d="M 100.0,100.0 l -0.08556142005365136 -0.2879166703423326 a 0.30036105883188785 0.30036105883188785 0.0 0 1 0.027080963787297185,-0.006696299327184574 l 0.058480456266354175 0.29461296966951717 z"/><path fill="#14775f" d="M 100.0,100.0 l -0.058480456266354175 -0.29461296966951717 a 0.30036105883188785 0.30036105883188785 0.0 0 1 0.13651344497125806,0.004565355756916356 l -0.0780329887049039 0.2900476139126008 z"/><path fill="#081e1b" d="M 100.0,100.0 l 0.0780329887049039 -0.2900476139126008 a 0.30036105883188785 0.30036105883188785 0.0 0 1 0.14040659824832813,0.08389011947130193 l -0.21843958695323204 0.20615749444129888 z"/><path fill="#107779" d="M 100.0,100.0 l 0.21843958695323204 -0.20615749444129888 a 0.30036105883188785 0.30036105883188785 0.0 0 1 0.0806929235336464,0.2332961538118417 l -0.29913251048687844 -0.027138659370542818 z"/><path fill="#187f75" d="M 100.0,100.0 l 0.29913251048687844 0.027138659370542818 a 0.30036105883188785 0.30036105883188785 0.0 0 1 -0.12049147382446171,0.21432385466173898 l -0.17864103666241674 -0.2414625140322818 z"/><path fill="#238c6c" d="M 100.0,100.0 l 0.17864103666241674 0.2414625140322818 a 0.30036105883188785 0.30036105883188785 0.0 0 1 -0.21198872343440833,0.057041585520086036 l 0.03334768677199161 -0.29850409955236784 z"/><path fill="#000000" d="M 100.0,100.0 l -0.03334768677199161 0.29850409955236784 a 0.30036105883188785 0.30036105883188785 0.0 0 1 -0.0868039508039142,-0.02322179054860901 l 0.12015163757590581 -0.27528230900375883 z"/><path fill="#000000" d="M 99.27908846954791,98.49910370599974 l -0.27959258651872854 -0.5820956652930079 a 2.310814572949528 2.310814572949528 0.0 0 1 0.9173290546695436,-0.2263252340708507 l 0.023243413403510993 0.6453426390085315 a 1.6650534886550792 1.6650534886550792 0.0 0 0 -0.6609798815543261,0.16307826035532713 z"/><path fill="#144d4f" d="M 99.94006835110224,98.33602544564442 l -0.02324341340351092 -0.6453426390085314 a 2.310814572949528 2.310814572949528 0.0 0 1 1.6216285233254202,0.5850709989885191 l -0.42992345069878746 0.4818435477708396 a 1.6650534886550792 1.6650534886550792 0.0 0 0 -1.1684616592231218,-0.4215719077508273 z"/><path fill="#045044" d="M 101.10853001032537,98.75759735339525 l 0.42992345069878735 -0.48184354777083976 a 2.310814572949528 2.310814572949528 0.0 0 1 0.5915004265065505,2.6204383766382717 l -0.5952192564518013 -0.2504424379734935 a 1.6650534886550792 1.6650534886550792 0.0 0 0 -0.4262046207535366,-1.8881523908939384 z"/><path fill="#25b499" d="M 101.5347346310789,100.64574974428919 l 0.5952192564518012 0.25044243797349336 a 2.310814572949528 2.310814572949528 0.0 0 1 -0.022441469833486827,0.051571184727168096 l -0.5889479493281249 -0.2648540937409476 a 1.6650534886550792 1.6650534886550792 0.0 0 0 0.01617016270981053,-0.03715952895971386 z"/><path fill="#091b1d" d="M 101.51856446836909,100.6829092732489 l 0.5889479493281249 0.2648540937409476 a 2.310814572949528 2.310814572949528 0.0 0 1 -0.09702008208635782,0.19144010869212824 l -0.5618355214683446 -0.31835235950992324 a 1.6650534886550792 1.6650534886550792 0.0 0 0 0.06990765422657752,-0.1379418429231526 z"/><path fill="#14775f" d="M 101.44865681414251,100.82085111617205 l 0.5618355214683447 0.3183523595099233 a 2.310814572949528 2.310814572949528 0.0 0 1 -0.7123697538097177,0.7725344125165712 l -0.3627625754934707 -0.5342384222521684 a 1.6650534886550792 1.6650534886550792 0.0 0 0 0.5132968078348437,-0.5566483497743261 z"/><path fill="#081e1b" d="M 100.93536000630768,101.37749946594639 l 0.3627625754934707 0.5342384222521683 a 2.310814572949528 2.310814572949528 0.0 0 1 -1.1941547156349235,0.39673664563559297 l -0.0290539980027833 -0.6451071563617914 a 1.6650534886550792 1.6650534886550792 0.0 0 0 0.860446138144236,-0.2858679115259699 z"/><path fill="#107779" d="M 100.07491386816343,101.66336737747235 l 0.0290539980027833 0.6451071563617912 a 2.310814572949528 2.310814572949528 0.0 0 1 -1.764780314656189,-0.701749292389088 l 0.46411687900067 -0.44900211649369726 a 1.6650534886550792 1.6650534886550792 0.0 0 0 1.2716094376527356,0.5056442525209941 z"/><path fill="#187f75" d="M 98.8033044305107,101.15772312495136 l -0.46411687900067 0.4490021164936972 a 2.310814572949528 2.310814572949528 0.0 0 1 -0.6435901067476191,-1.7787509778055854 l 0.6439692349792128 0.04807288621905137 a 1.6650534886550792 1.6650534886550792 0.0 0 0 0.4637377507690763,1.2816759750928368 z"/><path fill="#238c6c" d="M 98.33956667974162,99.87604714985852 l -0.6439692349792127 -0.04807288621905149 a 2.310814572949528 2.310814572949528 0.0 0 1 0.7325297691913134,-1.5218101278963998 l 0.43926253822891614 0.4733453290123737 a 1.6650534886550792 1.6650534886550792 0.0 0 0 -0.5278230724410169,1.0965376851030777 z"/><path fill="#000000" d="M 98.86738975218265,98.77950946475544 l -0.4392625382289162 -0.47334532901237353 a 2.310814572949528 2.310814572949528 0.0 0 1 0.5713686690754642,-0.3891560950363257 l 0.27959258651872887 0.5820956652930078 a 1.6650534886550792 1.6650534886550792 0.0 0 0 -0.41169871736527697,0.2804057587556914 z"/><path fill="#000000" d="M 97.94446745010461,101.05576982665565 l -0.6770058692465484 0.3477261254051472 a 3.0718995913827847 3.0718995913827847 0.0 0 1 -0.3333233564797875,-1.2109896604250172 l 0.7595891065445026 -0.047694805822797504 a 2.310814572949528 2.310814572949528 0.0 0 0 0.25074011918183325,0.9109583408426675 z"/><path fill="#144d4f" d="M 97.69372733092278,100.14481148581298 l -0.759589106544503 0.047694805822797566 a 3.0718995913827847 3.0718995913827847 0.0 0 1 0.719926726841332,-2.1757248490422683 l 0.5812221287612267 0.4913565327965217 a 2.310814572949528 2.310814572949528 0.0 0 0 -0.5415597490580557,1.6366735104229488 z"/><path fill="#045044" d="M 98.23528707998084,98.50813797539003 l -0.5812221287612265 -0.4913565327965215 a 3.0718995913827847 3.0718995913827847 0.0 0 1 3.4612611249895404,-0.8790558604761851 l -0.27632998475989634 0.7091488876153909 a 2.310814572949528 2.310814572949528 0.0 0 0 -2.6037090114684176,0.6612635056573157 z"/><path fill="#25b499" d="M 100.83899609144926,97.84687446973271 l 0.2763299847598959 -0.709148887615391 a 3.0718995913827847 3.0718995913827847 0.0 0 1 0.06932874343832474,0.02799142957263101 l -0.2935066750806756 0.7022138114325558 a 2.310814572949528 2.310814572949528 0.0 0 0 -0.052152053117545005,-0.021056353389795834 z"/><path fill="#091b1d" d="M 100.8911481445668,97.8679308231225 l 0.2935066750806756 -0.7022138114325561 a 3.0718995913827847 3.0718995913827847 0.0 0 1 0.25784569452509976,0.12213266685852842 l -0.3573897836695974 0.6719545727295477 a 2.310814572949528 2.310814572949528 0.0 0 0 -0.193962585936178,-0.09187342815552002 z"/><path fill="#14775f" d="M 101.08511073050298,97.95980425127803 l 0.3573897836695976 -0.6719545727295477 a 3.0718995913827847 3.0718995913827847 0.0 0 1 1.0518962552109092,0.919233185489305 l -0.6180045781872447 0.4442079992786674 a 2.310814572949528 2.310814572949528 0.0 0 0 -0.7912814606932621,-0.6914866120384247 z"/><path fill="#081e1b" d="M 101.87639219119625,98.65129086331645 l 0.6180045781872447 -0.4442079992786672 a 3.0718995913827847 3.0718995913827847 0.0 0 1 0.569607105269327,1.5728095357975163 l -0.7591287983374468 0.05453322673650263 a 2.310814572949528 2.310814572949528 0.0 0 0 -0.4284828851191249,-1.1831347632553517 z"/><path fill="#107779" d="M 102.30487507631537,99.83442562657181 l 0.7591287983374467 -0.05453322673650272 a 3.0718995913827847 3.0718995913827847 0.0 0 1 -0.8698970151738082,2.3700988068269213 l -0.5436056127210278 -0.5326756453056085 a 2.310814572949528 2.310814572949528 0.0 0 0 0.6543738295573893,-1.7828899347848102 z"/><path fill="#187f75" d="M 101.65050124675798,101.61731556135662 l 0.543605612721028 0.5326756453056084 a 3.0718995913827847 3.0718995913827847 0.0 0 1 -2.3409072485806486,0.9183987205304264 l 0.03637084270555202 -0.7602154741153582 a 2.310814572949528 2.310814572949528 0.0 0 0 1.7609307931540685,-0.6908588917206766 z"/><path fill="#238c6c" d="M 99.88957045360391,102.3081744530773 l -0.03637084270555204 0.7602154741153581 a 3.0718995913827847 3.0718995913827847 0.0 0 1 -2.0483122963063907,-0.9194256655311291 l 0.5438548132638719 -0.5324212123622329 a 2.310814572949528 2.310814572949528 0.0 0 0 1.540828325748071,0.691631403778004 z"/><path fill="#000000" d="M 98.34874212785584,101.6165430492993 l -0.5438548132638719 0.5324212123622327 a 3.0718995913827847 3.0718995913827847 0.0 0 1 -0.5374257337338979,-0.7454683096007282 l 0.6770058692465484 -0.34772612540514736 a 2.310814572949528 2.310814572949528 0.0 0 0 0.4042746777512214,0.5607732226436428 z"/><path fill="#000000" d="M 94.24834658189887,97.73851036218956 l -1.264765756559503 -0.49729259480677956 a 7.539298206169449 7.539298206169449 0.0 0 1 1.6906762940808469,-2.5776473051452333 l 0.9600078125212175 0.9619341680767031 a 6.180279316008171 6.180279316008171 0.0 0 0 -1.3859183500425614,2.11300573187531 z"/><path fill="#144d4f" d="M 95.63426493194143,95.62550463031425 l -0.9600078125212175 -0.961934168076703 a 7.539298206169449 7.539298206169449 0.0 0 1 5.175877930758402,-2.2013790256308186 l 0.027014357598121208 1.3587503701190862 a 6.180279316008171 6.180279316008171 0.0 0 0 -4.2428844758353055,1.8045628235884354 z"/><path fill="#045044" d="M 99.87714940777674,93.82094180672581 l -0.027014357598121434 -1.3587503701190857 a 7.539298206169449 7.539298206169449 0.0 0 1 7.231757185079572,4.951726621586379 l -1.2765678001603158 0.46616198408819587 a 6.180279316008171 6.180279316008171 0.0 0 0 -5.928175027321135,-4.059138235555489 z"/><path fill="#25b499" d="M 105.80532443509787,97.8800800422813 l 1.276567800160316 -0.4661619840881955 a 7.539298206169449 7.539298206169449 0.0 0 1 0.06083983019326822,0.1731177724248663 l -1.2875346668693686 0.4349561189646336 a 6.180279316008171 6.180279316008171 0.0 0 0 -0.04987296348421566,-0.14191190730130443 z"/><path fill="#091b1d" d="M 105.85519739858209,98.02199194958261 l 1.2875346668693681 -0.43495611896463376 a 7.539298206169449 7.539298206169449 0.0 0 1 0.19305967114136324,0.6730857141770601 l -1.3223352189678028 0.3136270276818687 a 6.180279316008171 6.180279316008171 0.0 0 0 -0.15825911904292855,-0.551756622894295 z"/><path fill="#14775f" d="M 106.01345651762502,98.57374857247692 l 1.322335218967803 -0.31362702768186884 a 7.539298206169449 7.539298206169449 0.0 0 1 0.011970569283963561,3.4284892860023426 l -1.324493009963466 -0.30438562773742994 a 6.180279316008171 6.180279316008171 0.0 0 0 -0.009812778288300628,-2.810476630583044 z"/><path fill="#081e1b" d="M 106.02326929591331,101.38422520305994 l 1.3244930099634662 0.3043856277374298 a 7.539298206169449 7.539298206169449 0.0 0 1 -1.9741790387637341,3.599642218457408 l -0.9686314253872146 -0.9532499701376986 a 6.180279316008171 6.180279316008171 0.0 0 0 1.6183174541874825,-2.9507778760571393 z"/><path fill="#107779" d="M 104.40495184172583,104.33500307911709 l 0.9686314253872149 0.9532499701376987 a 7.539298206169449 7.539298206169449 0.0 0 1 -5.777159535857294,2.240235752414267 l 0.07274785501857739 -1.3570704084185854 a 6.180279316008171 6.180279316008171 0.0 0 0 4.735780255451502,-1.8364153141333803 z"/><path fill="#187f75" d="M 99.66917158627433,106.17141839325046 l -0.0727478550185776 1.3570704084185858 a 7.539298206169449 7.539298206169449 0.0 0 1 -5.487671827136411,-2.823787608784176 l 1.0619446571800086 -0.8480600738756805 a 6.180279316008171 6.180279316008171 0.0 0 0 4.498475024974979,2.3147772742412704 z"/><path fill="#238c6c" d="M 95.17069656129935,103.8566411190092 l -1.061944657180009 0.8480600738756802 a 7.539298206169449 7.539298206169449 0.0 0 1 -1.6272308204679962,-5.264604957804022 l 1.3552660464121011 0.10092713836081924 a 6.180279316008171 6.180279316008171 0.0 0 0 1.333909431235904,4.315617745567523 z"/><path fill="#000000" d="M 93.83678713006344,99.54102337344167 l -1.3552660464121011 -0.10092713836081874 a 7.539298206169449 7.539298206169449 0.0 0 1 0.5020597416880195,-2.1988784676980737 l 1.2647657565595027 0.4972925948067797 a 6.180279316008171 6.180279316008171 0.0 0 0 -0.4115594518354211,1.8025130112521128 z"/><path fill="#000000" d="M 106.67999434043858,96.50447528212739 l 1.3698975205858688 -0.7168435181407522 a 9.085417168735953 9.085417168735953 0.0 0 1 1.013070833675213,3.574001316096429 l -1.5422977524385386 0.10863465943590356 a 7.539298206169449 7.539298206169449 0.0 0 0 -0.8406706018225432,-2.9657924573915806 z"/><path fill="#144d4f" d="M 107.52066494226112,99.47026773951897 l 1.5422977524385384 -0.10863465943590363 a 9.085417168735953 9.085417168735953 0.0 0 1 -2.080198681439275,6.450923316639263 l -1.1882980881912468 -0.9891569642926994 a 7.539298206169449 7.539298206169449 0.0 0 0 1.7261990171919832,-5.35313169291066 z"/><path fill="#045044" d="M 105.79446592506915,104.82339943242962 l 1.1882980881912475 0.9891569642926992 a 9.085417168735953 9.085417168735953 0.0 0 1 -10.216899779485109,2.6777422420528723 l 0.5503719359064139 -1.4448441364293751 a 7.539298206169449 7.539298206169449 0.0 0 0 8.478229755387447,-2.2220550699161965 z"/><path fill="#25b499" d="M 97.3162361696817,107.04545450234583 l -0.5503719359064153 1.444844136429375 a 9.085417168735953 9.085417168735953 0.0 0 1 -0.20567023994845257,-0.0812237925238628 l 0.5853720522592618 -1.4310218051593422 a 7.539298206169449 7.539298206169449 0.0 0 0 0.17067012359560607,0.06740146125383006 z"/><path fill="#091b1d" d="M 97.14556604608609,106.978053041092 l -0.5853720522592616 1.4310218051593422 a 9.085417168735953 9.085417168735953 0.0 0 1 -0.7653294098442232,-0.35540231361641617 l 0.7156126665528832 -1.3705408997460795 a 7.539298206169449 7.539298206169449 0.0 0 0 0.6350887955506015,0.2949214082031535 z"/><path fill="#14775f" d="M 96.51047725053549,106.68313163288884 l -0.7156126665528829 1.37054089974608 a 9.085417168735953 9.085417168735953 0.0 0 1 -3.1316837286929124,-2.694951606166153 l 1.2485497356788722 -0.9119251087364244 a 7.539298206169449 7.539298206169449 0.0 0 0 2.598746659566923,2.2363358151564974 z"/><path fill="#081e1b" d="M 93.91173059096856,104.44679581773235 l -1.2485497356788726 0.9119251087364243 a 9.085417168735953 9.085417168735953 0.0 0 1 -1.7200273488057554,-4.638764870276601 l 1.5412569224520656 -0.12251916340437896 a 7.539298206169449 7.539298206169449 0.0 0 0 1.4273201620325624,3.8493589249445557 z"/><path fill="#107779" d="M 92.484410428936,100.5974368927878 l -1.5412569224520656 0.12251916340437878 a 9.085417168735953 9.085417168735953 0.0 0 1 2.519359945891468,-7.029161613914113 l 1.1125225986967084 1.0736746778223116 a 7.539298206169449 7.539298206169449 0.0 0 0 -2.090625622136111,5.8329677726874225 z"/><path fill="#187f75" d="M 94.57503605107212,94.76446912010037 l -1.1125225986967084 -1.0736746778223114 a 9.085417168735953 9.085417168735953 0.0 0 1 6.9025634130208005,-2.7688737552337717 l -0.06212728088323338 1.5448702364204507 a 7.539298206169449 7.539298206169449 0.0 0 0 -5.727913533440859,2.2976781966356326 z"/><path fill="#238c6c" d="M 100.30294958451297,92.46679092346474 l 0.06212728088323362 -1.54487023642045 a 9.085417168735953 9.085417168735953 0.0 0 1 6.078592025562234,2.6730862330487213 l -1.0965570953740604 1.0899754047649548 a 7.539298206169449 7.539298206169449 0.0 0 0 -5.044162211071407,-2.2181914013932262 z"/><path fill="#000000" d="M 105.34711179558438,94.68498232485797 l 1.0965570953740602 -1.0899754047649544 a 9.085417168735953 9.085417168735953 0.0 0 1 1.6062229700660124,2.1926248438936313 l -1.3698975205858686 0.716843518140752 a 7.539298206169449 7.539298206169449 0.0 0 0 -1.332882544854204,-1.819492957269429 z"/><path fill="#000000" d="M 85.26341177292636,97.12650824922866 l -2.4201487964802717 -0.47190553845760896 a 17.479854356320185 17.479854356320185 0.0 0 1 2.7730897895977233,-6.58717541713824 l 2.0289736034576737 1.4010999788751182 a 15.014126262159786 15.014126262159786 0.0 0 0 -2.3819145965751254,5.65798097672073 z"/><path fill="#144d4f" d="M 87.64532636950149,91.46852727250794 l -2.0289736034576733 -1.4010999788751186 a 17.479854356320185 17.479854356320185 0.0 0 1 10.877935537908119,-7.192125650753079 l 0.4945196706314068 2.4156293858310462 a 15.014126262159786 15.014126262159786 0.0 0 0 -9.343481605081852,6.177596243797151 z"/><path fill="#045044" d="M 96.98880797458334,85.29093102871077 l -0.49451967063140656 -2.4156293858310462 a 17.479854356320185 17.479854356320185 0.0 0 1 18.568235122573725,8.255329927320352 l -2.1247366496680637 1.2511231769451001 a 15.014126262159786 15.014126262159786 0.0 0 0 -15.948978802274256,-7.090823718434406 z"/><path fill="#25b499" d="M 112.93778677685759,92.38175474714518 l 2.124736649668065 -1.2511231769451 a 17.479854356320185 17.479854356320185 0.0 0 1 0.2113922246591824,0.36920319619084174 l -2.1545558767968522 1.1990429550654236 a 15.014126262159786 15.014126262159786 0.0 0 0 -0.18157299753039524,-0.31712297431116543 z"/><path fill="#091b1d" d="M 113.11935977438799,92.69887772145634 l 2.1545558767968513 -1.1990429550654242 a 17.479854356320185 17.479854356320185 0.0 0 1 0.7227393487632439,1.4537237820108577 l -2.256506309602166 0.9939790284797176 a 15.014126262159786 15.014126262159786 0.0 0 0 -0.6207889159579292,-1.2486598554251511 z"/><path fill="#14775f" d="M 113.74014869034592,93.9475375768815 l 2.2565063096021665 -0.993979028479718 a 17.479854356320185 17.479854356320185 0.0 0 1 1.466401962629614,7.812567968520938 l -2.4633586347349805 -0.10807067598790265 a 15.014126262159786 15.014126262159786 0.0 0 0 -1.2595496374968,-6.710518264053317 z"/><path fill="#081e1b" d="M 114.99969832784272,100.65805584093482 l 2.4633586347349814 0.10807067598790267 a 17.479854356320185 17.479854356320185 0.0 0 1 -2.9905468176924606,9.036513863319708 l -2.041508706527763 -1.3827715774860323 a 15.014126262159786 15.014126262159786 0.0 0 0 2.568696889485242,-7.76181296182158 z"/><path fill="#107779" d="M 112.43100143835748,108.4198688027564 l 2.0415087065277646 1.3827715774860312 a 17.479854356320185 17.479854356320185 0.0 0 1 -12.23265922625892,7.533113891795881 l -0.3159559126870537 -2.4454011727260543 a 15.014126262159786 15.014126262159786 0.0 0 0 10.50710643241821,-6.470484296555858 z"/><path fill="#187f75" d="M 101.92389500593927,114.89035309931225 l 0.3159559126870531 2.445401172726055 a 17.479854356320185 17.479854356320185 0.0 0 1 -13.698194996641218,-4.135312638972137 l 1.616327020224988 -1.862069278523892 a 15.014126262159786 15.014126262159786 0.0 0 0 11.765912063729177,3.551980744769974 z"/><path fill="#238c6c" d="M 90.1579829422101,111.33837235454229 l -1.6163270202249866 1.8620692785238924 a 17.479854356320185 17.479854356320185 0.0 0 1 -5.9202041920068105,-11.321248097346295 l 2.4514377426503877 -0.265081172928296 a 15.014126262159786 15.014126262159786 0.0 0 0 5.085093469581409,9.7242599917507 z"/><path fill="#000000" d="M 85.07288947262869,101.61411236279159 l -2.4514377426503886 0.26508117292829486 a 17.479854356320185 17.479854356320185 0.0 0 1 0.22181124646779526,-5.2245908249488275 l 2.420148796480273 0.47190553845760874 a 15.014126262159786 15.014126262159786 0.0 0 0 -0.1905223002976797,4.487604113562924 z"/><path fill="#000000" d="M 82.52042255175098,100.09838978010927 l -2.7418462224367914 0.01543341924126612 a 20.22174401455233 20.22174401455233 0.0 0 1 1.6447469635517358,-8.102941643127991 l 2.5188330794296476 1.0832538095438844 a 17.479854356320185 17.479854356320185 0.0 0 0 -1.421733820544592,7.004254414342841 z"/><path fill="#144d4f" d="M 83.94215637229557,93.09413536576643 l -2.518833079429647 -1.0832538095438848 a 20.22174401455233 20.22174401455233 0.0 0 1 10.69954823705961,-10.63532189831136 l 1.0680689594883752 2.5253094059338146 a 17.479854356320185 17.479854356320185 0.0 0 0 -9.248784117118337,9.193266301921431 z"/><path fill="#045044" d="M 93.1909404894139,83.90086906384501 l -1.0680689594883745 -2.5253094059338155 a 20.22174401455233 20.22174401455233 0.0 0 1 22.940815896671158,5.133545186322613 l -2.0425027999614613 1.8292460769590235 a 17.479854356320185 17.479854356320185 0.0 0 0 -19.83024413722132,-4.437481857347821 z"/><path fill="#25b499" d="M 113.02118462663523,88.33835092119283 l 2.0425027999614596 -1.829246076959023 a 20.22174401455233 20.22174401455233 0.0 0 1 0.3238658419191065,0.3706003649212959 l -2.086416144031764 1.7789959448644073 a 17.479854356320185 17.479854356320185 0.0 0 0 -0.27995249784880194,-0.32035023282668007 z"/><path fill="#091b1d" d="M 113.30113712448401,88.6587011540195 l 2.0864161440317632 -1.7789959448644075 a 20.22174401455233 20.22174401455233 0.0 0 1 1.1508891881238918,1.4841935495140695 l -2.242466540101322 1.5777524249534185 a 17.479854356320185 17.479854356320185 0.0 0 0 -0.9948387920543329,-1.2829500296030805 z"/><path fill="#14775f" d="M 114.29597591653837,89.94165118362258 l 2.24246654010132 -1.5777524249534185 a 20.22174401455233 20.22174401455233 0.0 0 1 3.4428690624472247,8.527062649211429 l -2.709289138101674 0.4215581384396003 a 17.479854356320185 17.479854356320185 0.0 0 0 -2.9760464644468705,-7.37086836269761 z"/><path fill="#081e1b" d="M 117.27202238098523,97.3125195463202 l 2.7092891381016746 -0.4215581384396007 a 20.22174401455233 20.22174401455233 0.0 0 1 -1.333443381592279,10.930543876698302 l -2.528486007808123 -1.0605269474364718 a 17.479854356320185 17.479854356320185 0.0 0 0 1.1526402512987275,-9.44845879082223 z"/><path fill="#107779" d="M 116.1193821296865,106.76097833714242 l 2.528486007808122 1.0605269474364722 a 20.22174401455233 20.22174401455233 0.0 0 1 -12.158415576680834,11.330673088938571 l -0.8799123780460594 -2.5968660159664942 a 17.479854356320185 17.479854356320185 0.0 0 0 10.509841946918772,-9.794334020408549 z"/><path fill="#187f75" d="M 105.60954018276773,116.55531235755097 l 0.8799123780460605 2.596866015966497 a 20.22174401455233 20.22174401455233 0.0 0 1 -16.4786454400485,-1.5699442546254856 l 1.354446215417891 -2.3839954587751464 a 17.479854356320185 17.479854356320185 0.0 0 0 14.244286846584547,1.357073697434135 z"/><path fill="#238c6c" d="M 91.36525333618319,115.19823866011684 l -1.3544462154178922 2.3839954587751477 a 20.22174401455233 20.22174401455233 0.0 0 1 -9.293678675863397,-11.492094910329412 l 2.6145868556091862 -0.8257690187916022 a 17.479854356320185 17.479854356320185 0.0 0 0 8.033538035672104,9.933868470345866 z"/><path fill="#000000" d="M 83.33171530051108,105.26437018977097 l -2.6145868556091867 0.8257690187916013 a 20.22174401455233 20.22174401455233 0.0 0 1 -0.9385521155877075,-5.976316009212023 l 2.7418462224367914 -0.015433419241267288 a 17.479854356320185 17.479854356320185 0.0 0 0 0.8112927487601027,5.165980409661689 z"/><path fill="#000000" d="M 110.17630535448754,71.45286059331562 l 1.3606757893629122 -3.8170436217417842 a 34.35902031506471 34.35902031506471 0.0 0 1 11.989074670853922,7.322877654815062 l -2.7746716551870065 2.953380744154032 a 30.306704851772395 30.306704851772395 0.0 0 0 -10.575078805029827,-6.459214777227309 z"/><path fill="#144d4f" d="M 120.75138415951734,77.91207537054292 l 2.774671655187007 -2.9533807441540314 a 34.35902031506471 34.35902031506471 0.0 0 1 10.786396023073035,23.25303081660477 l -4.046823159993711 0.21090975742378149 a 30.306704851772395 30.306704851772395 0.0 0 0 -9.51424451826633,-20.51055982987452 z"/><path fill="#045044" d="M 130.26562867778367,98.42263520041745 l 4.046823159993709 -0.2109097574237797 a 34.35902031506471 34.35902031506471 0.0 0 1 -21.4941744489523,33.66670051868401 l -1.5117923386404435 -3.7597532550509314 a 30.306704851772395 30.306704851772395 0.0 0 0 18.959143627599037,-29.6960375062093 z"/><path fill="#25b499" d="M 111.30648505018463,128.11867270662674 l 1.511792338640443 3.7597532550509327 a 34.35902031506471 34.35902031506471 0.0 0 1 -0.7796209481755425,0.3025160399952527 l -1.4198435579467983 -3.79543210780999 a 30.306704851772395 30.306704851772395 0.0 0 0 0.6876721674818977,-0.2668371872361952 z"/><path fill="#091b1d" d="M 110.61881288270274,128.38550989386295 l 1.4198435579467985 3.795432107809992 a 34.35902031506471 34.35902031506471 0.0 0 1 -3.0375620874546296,0.9781077050950895 l -1.0615923707816641 -3.910790489445347 a 30.306704851772395 30.306704851772395 0.0 0 0 2.6793109002894955,-0.8627493234597345 z"/><path fill="#14775f" d="M 107.93950198241325,129.24825921732267 l 1.0615923707816646 3.9107904894453482 a 34.35902031506471 34.35902031506471 0.0 0 1 -15.61488368752644,0.5574161171007703 l 0.7800327408845931 -3.9765323508285526 a 30.306704851772395 30.306704851772395 0.0 0 0 13.773258575860183,-0.49167425571756596 z"/><path fill="#081e1b" d="M 94.16624340655306,129.73993347304022 l -0.7800327408845955 3.976532350828557 a 34.35902031506471 34.35902031506471 0.0 0 1 -16.68580716492485,-8.464315816733365 l 2.7479629604284987 -2.9782478375969745 a 30.306704851772395 30.306704851772395 0.0 0 0 14.717876945380947,7.466031303501783 z"/><path fill="#107779" d="M 79.44836646117211,122.27390216953845 l -2.747962960428498 2.978247837596977 a 34.35902031506471 34.35902031506471 0.0 0 1 -11.051582903310468,-25.98614637204252 l 4.051390703195256 0.08656780060196567 a 30.306704851772395 30.306704851772395 0.0 0 0 9.74815516054371,22.921330733843575 z"/><path fill="#187f75" d="M 69.7002113006284,99.35257143569487 l -4.051390703195257 -0.08656780060196369 a 34.35902031506471 34.35902031506471 0.0 0 1 12.057314762351144,-25.41033144084783 l 2.629346575940687 3.0834716145323924 a 30.306704851772395 30.306704851772395 0.0 0 0 -10.635270635096575,22.4134276269174 z"/><path fill="#238c6c" d="M 80.33548193572497,76.93914380877747 l -2.629346575940686 -3.0834716145323946 a 34.35902031506471 34.35902031506471 0.0 0 1 23.74139511003067,-8.184187055071598 l -0.17072227475141943 4.048717638826119 a 30.306704851772395 30.306704851772395 0.0 0 0 -20.941326259338563,7.218941030777874 z"/><path fill="#000000" d="M 101.27680819506354,69.7202027779996 l 0.170722274751417 -4.048717638826116 a 34.35902031506471 34.35902031506471 0.0 0 1 10.089450674035469,1.9643318324003376 l -1.3606757893629133 3.817043621741785 a 30.306704851772395 30.306704851772395 0.0 0 0 -8.899497159423973,-1.7326578153160064 z"/><path fill="#000000" d="M 131.36845425450034,114.02006971075207 l 4.048822361448813 1.8096132915385938 a 38.793844187495395 38.793844187495395 0.0 0 1 -9.296196924333298,12.85221969937686 l -2.9861023112368557 -3.27884976269225 a 34.35902031506471 34.35902031506471 0.0 0 0 8.23347687412134,-11.382983228223205 z"/><path fill="#144d4f" d="M 123.13497738037901,125.40305293897528 l 2.986102311236854 3.2788497626922473 a 38.793844187495395 38.793844187495395 0.0 0 1 -27.122330523047815,10.099018427364815 l 0.11446071361385535 -4.433346537833479 a 34.35902031506471 34.35902031506471 0.0 0 0 24.021767498197107,-8.944521652223582 z"/><path fill="#045044" d="M 99.1132098821819,134.34757459119885 l -0.11446071361385603 4.433346537833479 a 38.793844187495395 38.793844187495395 0.0 0 1 -36.008753169143084,-27.152423774640823 l 4.230899326894015 -1.3293433210306986 a 34.35902031506471 34.35902031506471 0.0 0 0 31.892314555862928,24.048420557838043 z"/><path fill="#25b499" d="M 67.22089532631897,110.29915403336082 l -4.230899326894007 1.329343321030698 a 38.793844187495395 38.793844187495395 0.0 0 1 -0.2720404862270529,-0.9041556157214494 l 4.261998375412027 -1.2259823112371322 a 34.35902031506471 34.35902031506471 0.0 0 0 0.24094143770903287,0.8007946059278837 z"/><path fill="#091b1d" d="M 66.97995388860994,109.49835942743294 l -4.261998375412025 1.2259823112371329 a 38.793844187495395 38.793844187495395 0.0 0 1 -0.8341687256112227,-3.5051563836926816 l 4.357358643399287 -0.8252808202512583 a 34.35902031506471 34.35902031506471 0.0 0 0 0.7388084576239606,3.1044548927068067 z"/><path fill="#14775f" d="M 66.24114543098597,106.39390453472613 l -4.357358643399289 0.8252808202512585 a 38.793844187495395 38.793844187495395 0.0 0 1 0.744254494576035,-17.625868228781957 l 4.272277165426722 1.1896682736185333 a 34.35902031506471 34.35902031506471 0.0 0 0 -0.6591730166034679,15.610919134912166 z"/><path fill="#081e1b" d="M 66.90031844758944,90.78298539981397 l -4.272277165426722 -1.189668273618534 a 38.793844187495395 38.793844187495395 0.0 0 1 10.993648044378226,-18.03882771852172 l 3.0155083709584254 3.2518259553919435 a 34.35902031506471 34.35902031506471 0.0 0 0 -9.73687924990993,15.97667003674831 z"/><path fill="#107779" d="M 76.63719769749937,74.80631536306565 l -3.0155083709584267 -3.251825955391946 a 38.793844187495395 38.793844187495395 0.0 0 1 30.222159045332248,-10.157431996778467 l -0.43941998733608045 4.413000436688243 a 34.35902031506471 34.35902031506471 0.0 0 0 -26.767230687037742,8.99625751548217 z"/><path fill="#187f75" d="M 103.40442838453711,65.8100578475835 l 0.4394199873360806 -4.413000436688246 a 38.793844187495395 38.793844187495395 0.0 0 1 27.543960862001658,15.804526452417761 l -3.588182831815292 2.606262984609778 a 34.35902031506471 34.35902031506471 0.0 0 0 -24.395198017522446,-13.997789000339292 z"/><path fill="#238c6c" d="M 127.79962640205954,79.80784684792276 l 3.588182831815294 -2.606262984609778 a 38.793844187495395 38.793844187495395 0.0 0 1 7.1269396511473335,27.44346351721513 l -4.402918333394403 -0.5310112324052128 a 34.35902031506471 34.35902031506471 0.0 0 0 -6.312204149568224,-24.30618930020014 z"/><path fill="#000000" d="M 134.11183055162778,104.1140361481229 l 4.402918333394407 0.5310112324052138 a 38.793844187495395 38.793844187495395 0.0 0 1 -3.097472269073034,11.18463562176254 l -4.0488223614488135 -1.8096132915385947 a 34.35902031506471 34.35902031506471 0.0 0 0 2.7433762971274405,-9.90603356262916 z"/><path fill="#000000" d="M 124.63328513403872,51.23867813030768 l 2.7979851044924087 -5.538581294552259 a 60.83546720906861 60.83546720906861 0.0 0 1 19.44003274368705,15.518012708843003 l -4.780865283744134 3.9557465212037712 a 54.63025944451104 54.63025944451104 0.0 0 0 -17.457152564435322,-13.935177935494515 z"/><path fill="#144d4f" d="M 142.0904376984741,65.17385606580223 l 4.780865283744132 -3.9557465212037672 a 60.83546720906861 60.83546720906861 0.0 0 1 13.800881794569083,43.236109237303374 l -6.1885529830116965 -0.45432959157705 a 54.63025944451104 54.63025944451104 0.0 0 0 -12.393194095301517,-38.82603312452256 z"/><path fill="#045044" d="M 154.48363179377554,103.99988919032475 l 6.188552983011698 0.4543295915770513 a 60.83546720906861 60.83546720906861 0.0 0 1 -45.21130076954014,54.38382279206727 l -1.577007655073821 -6.001470674523382 a 54.63025944451104 54.63025944451104 0.0 0 0 40.59975544160226,-48.83668170912094 z"/><path fill="#25b499" d="M 113.8838763521733,152.8365708994457 l 1.5770076550738237 6.0014706745233815 a 60.83546720906861 60.83546720906861 0.0 0 1 -1.4365190404048844,0.35884396760710136 l -1.4304829465050304 -6.038072700877642 a 54.63025944451104 54.63025944451104 0.0 0 0 1.2899943318360911,-0.322241941252841 z"/><path fill="#091b1d" d="M 112.5938820203372,153.15881284069854 l 1.4304829465050302 6.0380727008776445 a 60.83546720906861 60.83546720906861 0.0 0 1 -5.552574242984479,1.045813870691366 l -0.8641212764706534 -6.144745545657386 a 54.63025944451104 54.63025944451104 0.0 0 0 4.986212572950102,-0.9391410259116242 z"/><path fill="#14775f" d="M 107.60766944738711,154.09795386661017 l 0.8641212764706533 6.144745545657386 a 60.83546720906861 60.83546720906861 0.0 0 1 -27.553893775645886,-2.477420795553506 l 1.9463714088710518 -5.8920490272955846 a 54.63025944451104 54.63025944451104 0.0 0 0 24.743401090304182,2.2247242771917044 z"/><path fill="#081e1b" d="M 82.86426835708292,151.87322958941846 l -1.94637140887105 5.892049027295588 a 60.83546720906861 60.83546720906861 0.0 0 1 -27.438055410775938,-18.56286890552931 l 4.745048599829282 -3.998639416924675 a 54.63025944451104 54.63025944451104 0.0 0 0 24.639378219817704,16.669459295158397 z"/><path fill="#107779" d="M 58.22489013726521,135.20377029426004 l -4.745048599829281 3.99863941692468 a 60.83546720906861 60.83546720906861 0.0 0 1 -13.661709808297324,-48.09604799786745 l 6.138540779124021 0.9071496592938715 a 54.63025944451104 54.63025944451104 0.0 0 0 12.268217629002585,43.1902589216489 z"/><path fill="#187f75" d="M 45.956672508262635,92.01351137261112 l -6.138540779124024 -0.9071496592938715 a 60.83546720906861 60.83546720906861 0.0 0 1 26.805978030486738,-41.968961147559 l 3.4043353781907264 5.187976872936559 a 54.63025944451104 54.63025944451104 0.0 0 0 -24.07177262955344,37.68813393391631 z"/><path fill="#238c6c" d="M 70.02844513781608,54.325377438694844 l -3.404335378190726 -5.187976872936557 a 60.83546720906861 60.83546720906861 0.0 0 1 43.51796910111682,-9.1215010168624 l -1.0344903948736572 6.118368493662317 a 54.63025944451104 54.63025944451104 0.0 0 0 -39.07914332805244,8.191109396136639 z"/><path fill="#000000" d="M 109.10758846586852,46.134268042558205 l 1.0344903948736515 -6.118368493662319 a 60.83546720906861 60.83546720906861 0.0 0 1 17.289191377788967,5.684197286859532 l -2.7979851044924082 5.538581294552259 a 54.63025944451104 54.63025944451104 0.0 0 0 -15.525696668170209,-5.104410087749471 z"/><path fill="#000000" d="M 151.4224682461478,132.5066736228053 l 5.6729094784518175 3.58612534942965 a 67.54681558123127 67.54681558123127 0.0 0 1 -19.218377928701802,19.83487916325022 l -3.7634008166809636 -5.556888631737678 a 60.83546720906861 60.83546720906861 0.0 0 0 17.308869266930948,-17.864115880942194 z"/><path fill="#144d4f" d="M 134.11359897921685,150.3707895037475 l 3.763400816680963 5.556888631737679 a 67.54681558123127 67.54681558123127 0.0 0 1 -49.253010328177254,10.654291492442901 l 1.130303021845684 -6.615482752704963 a 60.83546720906861 60.83546720906861 0.0 0 0 44.359306489650606,-9.595697371475616 z"/><path fill="#045044" d="M 89.75429248956624,159.9664868752231 l -1.1303030218456862 6.615482752704969 a 67.54681558123127 67.54681558123127 0.0 0 1 -55.29702704182128,-55.752456443697646 l 6.624531124668074 -1.0760038804922445 a 60.83546720906861 60.83546720906861 0.0 0 0 49.80279893899889,50.21297757148492 z"/><path fill="#25b499" d="M 39.95149355056734,109.75350930373818 l -6.624531124668072 1.0760038804922454 a 67.54681558123127 67.54681558123127 0.0 0 1 -0.24380979873106678,-1.625827354846499 l 6.648755693683668 -0.9144641590786655 a 60.83546720906861 60.83546720906861 0.0 0 0 0.21958522971547012,1.4642876334329191 z"/><path fill="#091b1d" d="M 39.73190832085187,108.28922167030527 l -6.648755693683664 0.9144641590786652 a 67.54681558123127 67.54681558123127 0.0 0 1 -0.5652710068697973,-6.248014306225654 l 6.704920157087926 -0.2936710057299514 a 60.83546720906861 60.83546720906861 0.0 0 0 0.5091065434655349,5.62722115287694 z"/><path fill="#14775f" d="M 39.22280177738634,102.66200051742832 l -6.704920157087924 0.2936710057299519 a 67.54681558123127 67.54681558123127 0.0 0 1 5.66873572788713,-30.18943770239304 l 6.141683238038453 2.7059053893526936 a 60.83546720906861 60.83546720906861 0.0 0 0 -5.105498808837659,27.189861307310395 z"/><path fill="#081e1b" d="M 44.328300586224,75.47213921011792 l -6.141683238038452 -2.7059053893526874 a 67.54681558123127 67.54681558123127 0.0 0 1 23.434271209548605,-28.350549055073966 l 3.813289862544913 5.522772618598609 a 60.83546720906861 60.83546720906861 0.0 0 0 -21.105877834055065,25.533681825828044 z"/><path fill="#107779" d="M 65.43417842027907,49.938457384289876 l -3.8132898625449174 -5.522772618598611 a 67.54681558123127 67.54681558123127 0.0 0 1 54.60947832793077,-9.983569327583137 l -1.6126244507665177 6.5147248102525666 a 60.83546720906861 60.83546720906861 0.0 0 0 -49.183564014619336,8.991617135929182 z"/><path fill="#187f75" d="M 114.61774243489846,40.94684024836071 l 1.612624450766512 -6.514724810252571 a 67.54681558123127 67.54681558123127 0.0 0 1 43.53355943314451,34.09018759841016 l -5.938052388738221 3.1275758665667333 a 60.83546720906861 60.83546720906861 0.0 0 0 -39.2081314951728,-30.70303865472432 z"/><path fill="#238c6c" d="M 153.8258739300712,71.64987890308501 l 5.938052388738226 -3.127575866566731 a 67.54681558123127 67.54681558123127 0.0 0 1 5.452597311957435,49.06682260071837 l -6.479814125080274 -1.7476286438887811 a 60.83546720906861 60.83546720906861 0.0 0 0 -4.910835575615387,-44.19161809026286 z"/><path fill="#000000" d="M 158.73670950568658,115.84149699334786 l 6.479814125080276 1.7476286438887798 a 67.54681558123127 67.54681558123127 0.0 0 1 -8.121145906167259,18.503673334998286 l -5.672909478451814 -3.5861253494296506 a 60.83546720906861 60.83546720906861 0.0 0 0 7.314241259538797,-16.665176629457417 z"/><path fill="#000000" d="M 40.43427717978008,31.218073587534946 l -5.898907723879186 -6.811606033932819 a 100.0 100.0 0.0 0 1 35.727744127138116,-19.88273468960176 l 2.679540807168596 8.603205807085516 a 90.98916823504337 90.98916823504337 0.0 0 0 -32.508377210427525,18.091134916449064 z"/><path fill="#144d4f" d="M 72.94265439020761,13.126938671085881 l -2.679540807168596 -8.603205807085505 a 100.0 100.0 0.0 0 1 74.36282496215709,5.985901124007118 l -4.021168245840556 8.063826327184572 a 90.98916823504337 90.98916823504337 0.0 0 0 -67.66211590914794,-5.446521644106184 z"/><path fill="#045044" d="M 140.6047702993556,18.573460315192122 l 4.021168245840556 -8.063826327184575 a 100.0 100.0 0.0 0 1 54.49968569585284,102.68546429970417 l -8.932043236323992 -1.1889881079263773 a 90.98916823504337 90.98916823504337 0.0 0 0 -49.588810705369404,-93.43264986459322 z"/><path fill="#25b499" d="M 190.19358100472493,112.0061101797853 l 8.932043236323992 1.1889881079263724 a 100.0 100.0 0.0 0 1 -0.35048853944651626,2.4085092160044517 l -8.900461303679009 -1.4060148214240105 a 90.98916823504337 90.98916823504337 0.0 0 0 0.3189066068015336,-2.1914825025068136 z"/><path fill="#091b1d" d="M 189.8746743979234,114.1975926822921 l 8.900461303679013 1.4060148214240096 a 100.0 100.0 0.0 0 1 -1.87367202732867,9.096723218430174 l -8.731627869469378 -2.2257052467605014 a 90.98916823504337 90.98916823504337 0.0 0 0 1.7048385931190353,-8.277032793093682 z"/><path fill="#14775f" d="M 188.1698358048044,122.47462547538578 l 8.731627869469374 2.225705246760501 a 100.0 100.0 0.0 0 1 -20.957886437174334,40.35789763086618 l -6.843147981124929 -5.862287506151276 a 90.98916823504337 90.98916823504337 0.0 0 0 19.06940654882989,-36.7213153714754 z"/><path fill="#081e1b" d="M 169.1004292559745,159.1959408468612 l 6.84314798112493 5.862287506151271 a 100.0 100.0 0.0 0 1 -45.34810078183844,30.14637668516607 l -2.7569069110704874 -8.578726792481689 a 90.98916823504337 90.98916823504337 0.0 0 0 41.261859711784,-27.429937398835655 z"/><path fill="#107779" d="M 127.8385695441905,186.62587824569684 l 2.7569069110704842 8.578726792481698 a 100.0 100.0 0.0 0 1 -81.666913089672,-9.229560053617243 l 4.601961235073205 -7.74706666340461 a 90.98916823504337 90.98916823504337 0.0 0 0 74.3080449435283,8.397899924540155 z"/><path fill="#187f75" d="M 53.530524600662204,178.22797832115668 l -4.601961235073207 7.747066663404606 a 100.0 100.0 0.0 0 1 -47.10204394862453,-66.94959596982466 l 8.846247173139702 -1.7143512032455135 a 90.98916823504337 90.98916823504337 0.0 0 0 42.85775801055803,60.91688050966556 z"/><path fill="#238c6c" d="M 10.67276659010416,117.31109781149115 l -8.8462471731397 1.7143512032455197 a 100.0 100.0 0.0 0 1 13.278072132673953,-71.87211044236398 l 7.649782431634861 4.761923754639724 a 90.98916823504337 90.98916823504337 0.0 0 0 -12.081607391169115,65.39583548447874 z"/><path fill="#000000" d="M 22.754373981273275,51.91526232701239 l -7.64978243163486 -4.761923754639729 a 100.0 100.0 0.0 0 1 19.430777906262477,-22.74687101877053 l 5.898907723879184 6.811606033932819 a 90.98916823504337 90.98916823504337 0.0 0 0 -17.6799031985068,20.69718873947744 z"/></g></svg>