<?xml version='1.0' encoding='UTF-8'?>
<svg viewBox="0.0 0.0 100.0 100.0" preserveAspectRatio="xMidYMid meet" xmlns="http://www.w3.org/2000/svg" xmlns:svg="http://www.w3.org/2000/svg"><g transform="translate(0.0, 0.0)"><rect fill="#b6f132" x="0.0" y="0.0" width="20.0" height="20.0" transform="rotate(0.0, 0.0, 0.0)"/><rect fill="#17ff74" x="0.0" y="20.0" width="20.0" height="20.0" transform="rotate(0.0, 0.0, 20.0)"/><rect fill="#4dff14" x="0.0" y="40.0" width="20.0" height="20.0" transform="rotate(0.0, 0.0, 40.0)"/><rect fill="#2af500" x="0.0" y="60.0" width="20.0" height="20.0" transform="rotate(0.0, 0.0, 60.0)"/><rect fill="#1cee3a" x="0.0" y="80.0" width="20.0" height="20.0" transform="rotate(0.0, 0.0, 80.0)"/><rect fill="#000000" x="20.0" y="0.0" width="20.0" height="20.0" transform="rotate(0.0, 20.0, 0.0)"/><rect fill="#1d0000" x="20.0" y="20.0" width="20.0" height="20.0" transform="rotate(0.0, 20.0, 20.0)"/><rect fill="#000000" x="20.0" y="40.0" width="20.0" height="20.0" transform="rotate(0.0, 20.0, 40.0)"/><rect fill="#000000" x="20.0" y="60.0" width="20.0" height="20.0" transform="rotate(0.0, 20.0, 60.0)"/><rect fill="#000000" x="20.0" y="80.0" width="20.0" height="20.0" transform="rotate(0.0, 20.0, 80.0)"/><rect fill="#05783d" x="40.0" y="0.0" width="20.0" height="20.0" transform="rotate(0.0, 40.0, 0.0)"/><rect fill="#05675a" x="40.0" y="20.0" width="20.0" height="20.0" transform="rotate(0.0, 40.0, 20.0)"/><rect fill="#049338" x="40.0" y="40.0" width="20.0" height="20.0" transform="rotate(0.0, 40.0, 40.0)"/><rect fill="#047534" x="40.0" y="60.0" width="20.0" height="20.0" transform="rotate(0.0, 40.0, 60.0)"/><rect fill="#035e0e" x="40.0" y="80.0" width="20.0" height="20.0" transform="rotate(0.0, 40.0, 80.0)"/><rect fill="#880593" x="60.0" y="0.0" width="20.0" height="20.0" transform="rotate(0.0, 60.0, 0.0)"/><rect fill="#960d05" x="60.0" y="20.0" width="20.0" height="20.0" transform="rotate(0.0, 60.0, 20.0)"/><rect fill="#570478" x="60.0" y="40.0" width="20.0" height="20.0" transform="rotate(0.0, 60.0, 40.0)"/><rect fill="#840456" x="60.0" y="60.0" width="20.0" height="20.0" transform="rotate(0.0, 60.0, 60.0)"/><rect fill="#a9012e" x="60.0" y="80.0" width="20.0" height="20.0" transform="rotate(0.0, 60.0, 80.0)"/><rect fill="#1cce66" x="80.0" y="0.0" width="20.0" height="20.0" transform="rotate(0.0, 80.0, 0.0)"/><rect fill="#156dca" x="80.0" y="20.0" width="20.0" height="20.0" transform="rotate(0.0, 80.0, 20.0)"/><rect fill="#0f608d" x="80.0" y="40.0" width="20.0" height="20.0" transform="rotate(0.0, 80.0, 40.0)"/><rect fill="#2d5cda" x="80.0" y="60.0" width="20.0" height="20.0" transform="rotate(0.0, 80.0, 60.0)"/><rect fill="#1eb8aa" x="80.0" y="80.0" width="20.0" height="20.0" transform="rotate(0.0, 80.0, 80.0)"/></g></svg>