<?xml version='1.0' encoding='UTF-8'?>
<svg viewBox="-789.751706014941 -20827.230818835687 42482.16242016961 41654.4642857143" preserveAspectRatio="xMidYMid meet" xmlns="http://www.w3.org/2000/svg" xmlns:svg="http://www.w3.org/2000/svg"><g transform="translate(0.0, 0.0)"><rect x="0.0" y="0.0" width="100.0" height="100.0" transform="rotate(0.0, 0.0, 0.0)"/><path fill="#051e20" d="M 0.0,0.0 l 0.0 0.0 a 200.0 200.0 0.0 1 1 0.0,-4.898587196589413E-14 l 0.0 0.0 a 200.0 200.0 0.0 1 0 0.0,4.898587196589413E-14 z"/><path fill="#0c0520" d="M 0.0,3.828137479366944E-5 l 0.8928571422029423 3.417979891457187E-5 a 208.69642857142858 208.69642857142858 0.0 1 1 1.5291853094900887E-7,-0.007989186198342926 l -0.8928571428571672 2.185751579730777E-16 a 207.80357142857142 207.80357142857142 0.0 1 0 -1.5226430605252972E-7,0.007955006399428135 z"/><path fill="#200513" d="M 3.3482142857142776,5.36860394277916E-4 l 1.7857140283758168 9.586792294446646E-4 a 238.55334216425516 238.55334216425516 0.0 1 1 3.437781191895084E-5,-0.12806983517864645 l -1.7857142857142776 4.440892098500626E-16 a 236.76762787854088 236.76762787854088 0.0 1 0 -3.4120473458187917E-5,0.12711115594920133 z"/><path fill="#201705" d="M 10.044642857142833,0.002080680756432862 l 2.678565630494416 0.005573248004843139 a 312.16018123667374 312.16018123667374 0.0 1 1 6.757067430833708E-4,-0.6495052133804113 l -2.678571428571445 6.661338147750939E-16 a 309.4816098081023 309.4816098081023 0.0 1 0 -6.699086660546527E-4,0.6439319653755675 z"/><path fill="#082005" d="M 20.089285714285666,0.0037544391812227573 l 3.5714034003625836 0.013408679860416496 a 548.0152224824357 548.0152224824357 0.0 1 1 0.0038623556666554926,-2.05748498953261 l -3.571428571428669 8.881784197001252E-16 a 544.443793911007 544.443793911007 0.0 1 0 -0.0038371846005702537,2.044076309672193 z"/><path fill="#051e20" d="M 33.4821428571413,2.4230396707558555E-4 l 4.464285583230783 0.0010817141281447456 a 20827.23214285715 20827.23214285715 0.0 1 1 6.113960234799265E-4,-5.046520922042309 l -4.464285714282596 8.881784197001252E-16 a 20822.767857142866 20822.767857142866 0.0 1 0 -6.112649716669694E-4,5.045439207914163 z"/><path fill="#0c0520" d="M 50.223214285714285,0.0 l -5.35714285714289 6.560607852575146E-16 a 471.974346076459 471.974346076459 0.0 1 1 109.33091470940559,302.0753631804989 l 4.116182763295967 -3.4287051566126934 a 466.61720321931614 466.61720321931614 0.0 1 0 -108.08995461555867,-298.64665802388623 z"/><path fill="#200513" d="M 70.3125,0.0 l -6.25 7.654042494670958E-16 a 215.625 215.625 0.0 1 1 113.74378489476376,190.03778212155754 l 2.953078698702498 -5.508341510769782 a 209.375 209.375 0.0 1 0 -110.44686359346626,-184.52944061078776 z"/></g></svg>