<?xml version='1.0' encoding='UTF-8'?>
<svg viewBox="0.0 -300.0 100.0 400.0" preserveAspectRatio="xMidYMid meet" xmlns="http://www.w3.org/2000/svg" xmlns:svg="http://www.w3.org/2000/svg"><g transform="translate(0.0, 0.0)"><rect x="0.0" y="0.0" width="100.0" height="100.0" transform="rotate(0.0, 0.0, 0.0)"/><rect fill="#70339c" x="0.0" y="-296.0354030796709" width="2.7777777777777777" height="296.0354030796709" transform="rotate(0.0, 0.0, -296.0354030796709)"/><rect fill="#9c334a" x="2.7777777777777777" y="-296.6895538404153" width="5.555555555555555" height="296.6895538404153" transform="rotate(0.0, 2.7777777777777777, -296.6895538404153)"/><rect fill="#9c9a33" x="8.333333333333334" y="-297.6470224947664" width="8.333333333333332" height="297.6470224947664" transform="rotate(0.0, 8.333333333333334, -297.6470224947664)"/><rect fill="#339c46" x="16.666666666666668" y="-298.7112235282237" width="11.111111111111107" height="298.7112235282237" transform="rotate(0.0, 16.666666666666668, -298.7112235282237)"/><rect fill="#33749c" x="27.777777777777775" y="-299.6107299583458" width="13.88888888888889" height="299.6107299583458" transform="rotate(0.0, 27.777777777777775, -299.6107299583458)"/><rect fill="#70339c" x="41.666666666666664" y="-300.0" width="16.666666666666664" height="300.0" transform="rotate(0.0, 41.666666666666664, -300.0)"/><rect fill="#9c334a" x="58.33333333333333" y="-299.45616860165075" width="19.444444444444443" height="299.45616860165075" transform="rotate(0.0, 58.33333333333333, -299.45616860165075)"/><rect fill="#9c9a33" x="77.77777777777777" y="-297.4687451161679" width="22.222222222222232" height="297.4687451161679" transform="rotate(0.0, 77.77777777777777, -297.4687451161679)"/></g></svg>