<?xml version='1.0' encoding='UTF-8'?>
<svg viewBox="-4893.932699634434 -854.2299515746842 10588.175753393158 11486.800065521293" preserveAspectRatio="xMidYMid meet" xmlns="http://www.w3.org/2000/svg" xmlns:svg="http://www.w3.org/2000/svg"><g transform="translate(0.0, 0.0)"><rect x="0.0" y="0.0" width="100.0" height="100.0" transform="rotate(0.0, 0.0, 0.0)"/><path fill="#7a50f6" d="M 100.0,3.1746031746031744 l -5.831651424511205E-16 -3.1746031746031744 a 199.99999999999997 199.99999999999997 0.0 0 0 198.29387236901832,-173.93200849893765 l 3.1475217836351987 0.41377764287400964 a 203.17460317460316 203.17460317460316 0.0 0 1 -201.44139415265352,176.6928340306668 z"/><path fill="#f650aa" d="M 100.0,10.052910052910052 l -1.2635244753107612E-15 -6.878306878306878 a 224.14267264489592 224.14267264489592 0.0 0 0 214.8108081710094,-160.1406852279824 l 6.5919382594234435 1.9640406044970575 a 231.0209795232028 231.0209795232028 0.0 0 1 -221.40274643043284,165.05495150179223 z"/><path fill="#f6bd50" d="M 100.0,20.634920634920633 l -1.9438838081704017E-15 -10.582010582010582 a 287.9711005163357 287.9711005163357 0.0 0 0 242.68791443454032,-132.9551951388464 l 8.917999320305768 5.696335320257219 a 298.55311109834633 298.55311109834633 0.0 0 1 -251.60591375484609,137.84087040059975 z"/><path fill="#68f650" d="M 100.0,34.920634920634924 l -2.6242431410300433E-15 -14.28571428571429 a 490.7870675151781 490.7870675151781 0.0 0 0 275.77141919732054,-84.80422305738135 l 8.02708947235459 11.817252948798014 a 505.0727818008924 505.0727818008924 0.0 0 1 -283.79850866967513,87.27268439429763 z"/><path fill="#50edf6" d="M 100.0,52.91005291005291 l -3.304602473889684E-15 -17.989417989417994 a 5276.098458707161 5276.098458707161 0.0 0 0 299.1352436821868,-8.486755861242422 l 1.0199333799551482 17.96048149405937 a 5294.087876696579 5294.087876696579 0.0 0 1 -300.15517706214195,8.515692356601047 z"/><path fill="#7a50f6" d="M 100.0,74.60317460317461 l -3.984961806749324E-15 -21.693121693121697 a 499.273051482996 499.273051482996 0.0 0 1 287.95508084806914,91.40609848125499 l -12.511479625097707 17.72158024509531 a 477.57992978987426 477.57992978987426 0.0 0 0 -275.44360122297144,-87.4345570332286 z"/><path fill="#f650aa" d="M 100.0,100.0 l -4.665321139608962E-15 -25.396825396825385 a 225.39682539682536 225.39682539682536 0.0 0 1 222.23862311644322,187.79731350804556 l -25.040971618754156 4.236564719862514 a 200.0 200.0 0.0 0 0 -197.19765149768907,-166.63705283108268 z"/></g></svg>